<?xml version="1.0" encoding="utf-8" standalone="no"?>
<!DOCTYPE svg PUBLIC "-//W3C//DTD SVG 1.1//EN"
  "http://www.w3.org/Graphics/SVG/1.1/DTD/svg11.dtd">
<svg xmlns:xlink="http://www.w3.org/1999/xlink" width="372.909756pt" height="252.838125pt" viewBox="0 0 372.909756 252.838125" xmlns="http://www.w3.org/2000/svg" version="1.1">
 <metadata>
  <rdf:RDF xmlns:dc="http://purl.org/dc/elements/1.1/" xmlns:cc="http://creativecommons.org/ns#" xmlns:rdf="http://www.w3.org/1999/02/22-rdf-syntax-ns#">
   <cc:Work>
    <dc:type rdf:resource="http://purl.org/dc/dcmitype/StillImage"/>
    <dc:date>2023-04-18T04:42:47.547062</dc:date>
    <dc:format>image/svg+xml</dc:format>
    <dc:creator>
     <cc:Agent>
      <dc:title>Matplotlib v3.7.1, https://matplotlib.org/</dc:title>
     </cc:Agent>
    </dc:creator>
   </cc:Work>
  </rdf:RDF>
 </metadata>
 <defs>
  <style type="text/css">*{stroke-linejoin: round; stroke-linecap: butt}</style>
 </defs>
 <g id="figure_1">
  <g id="patch_1">
   <path d="M 0 252.838125 
L 372.909756 252.838125 
L 372.909756 0 
L 0 0 
z
" style="fill: #ffffff"/>
  </g>
  <g id="axes_1">
   <g id="patch_2">
    <path d="M 30.103125 228.96 
L 364.903125 228.96 
L 364.903125 7.2 
L 30.103125 7.2 
z
" style="fill: #ffffff"/>
   </g>
   <g id="matplotlib.axis_1">
    <g id="xtick_1">
     <g id="line2d_1">
      <defs>
       <path id="m41ff02a8b3" d="M 0 0 
L 0 3.5 
" style="stroke: #000000; stroke-width: 0.8"/>
      </defs>
      <g>
       <use xlink:href="#m41ff02a8b3" x="45.321307" y="228.96" style="stroke: #000000; stroke-width: 0.8"/>
      </g>
     </g>
     <g id="text_1">
      <!-- 0 -->
      <g transform="translate(42.140057 243.558437) scale(0.1 -0.1)">
       <defs>
        <path id="DejaVuSans-30" d="M 2034 4250 
Q 1547 4250 1301 3770 
Q 1056 3291 1056 2328 
Q 1056 1369 1301 889 
Q 1547 409 2034 409 
Q 2525 409 2770 889 
Q 3016 1369 3016 2328 
Q 3016 3291 2770 3770 
Q 2525 4250 2034 4250 
z
M 2034 4750 
Q 2819 4750 3233 4129 
Q 3647 3509 3647 2328 
Q 3647 1150 3233 529 
Q 2819 -91 2034 -91 
Q 1250 -91 836 529 
Q 422 1150 422 2328 
Q 422 3509 836 4129 
Q 1250 4750 2034 4750 
z
" transform="scale(0.015625)"/>
       </defs>
       <use xlink:href="#DejaVuSans-30"/>
      </g>
     </g>
    </g>
    <g id="xtick_2">
     <g id="line2d_2">
      <g>
       <use xlink:href="#m41ff02a8b3" x="84.176894" y="228.96" style="stroke: #000000; stroke-width: 0.8"/>
      </g>
     </g>
     <g id="text_2">
      <!-- 20 -->
      <g transform="translate(77.814394 243.558437) scale(0.1 -0.1)">
       <defs>
        <path id="DejaVuSans-32" d="M 1228 531 
L 3431 531 
L 3431 0 
L 469 0 
L 469 531 
Q 828 903 1448 1529 
Q 2069 2156 2228 2338 
Q 2531 2678 2651 2914 
Q 2772 3150 2772 3378 
Q 2772 3750 2511 3984 
Q 2250 4219 1831 4219 
Q 1534 4219 1204 4116 
Q 875 4013 500 3803 
L 500 4441 
Q 881 4594 1212 4672 
Q 1544 4750 1819 4750 
Q 2544 4750 2975 4387 
Q 3406 4025 3406 3419 
Q 3406 3131 3298 2873 
Q 3191 2616 2906 2266 
Q 2828 2175 2409 1742 
Q 1991 1309 1228 531 
z
" transform="scale(0.015625)"/>
       </defs>
       <use xlink:href="#DejaVuSans-32"/>
       <use xlink:href="#DejaVuSans-30" x="63.623047"/>
      </g>
     </g>
    </g>
    <g id="xtick_3">
     <g id="line2d_3">
      <g>
       <use xlink:href="#m41ff02a8b3" x="123.032482" y="228.96" style="stroke: #000000; stroke-width: 0.8"/>
      </g>
     </g>
     <g id="text_3">
      <!-- 40 -->
      <g transform="translate(116.669982 243.558437) scale(0.1 -0.1)">
       <defs>
        <path id="DejaVuSans-34" d="M 2419 4116 
L 825 1625 
L 2419 1625 
L 2419 4116 
z
M 2253 4666 
L 3047 4666 
L 3047 1625 
L 3713 1625 
L 3713 1100 
L 3047 1100 
L 3047 0 
L 2419 0 
L 2419 1100 
L 313 1100 
L 313 1709 
L 2253 4666 
z
" transform="scale(0.015625)"/>
       </defs>
       <use xlink:href="#DejaVuSans-34"/>
       <use xlink:href="#DejaVuSans-30" x="63.623047"/>
      </g>
     </g>
    </g>
    <g id="xtick_4">
     <g id="line2d_4">
      <g>
       <use xlink:href="#m41ff02a8b3" x="161.888069" y="228.96" style="stroke: #000000; stroke-width: 0.8"/>
      </g>
     </g>
     <g id="text_4">
      <!-- 60 -->
      <g transform="translate(155.525569 243.558437) scale(0.1 -0.1)">
       <defs>
        <path id="DejaVuSans-36" d="M 2113 2584 
Q 1688 2584 1439 2293 
Q 1191 2003 1191 1497 
Q 1191 994 1439 701 
Q 1688 409 2113 409 
Q 2538 409 2786 701 
Q 3034 994 3034 1497 
Q 3034 2003 2786 2293 
Q 2538 2584 2113 2584 
z
M 3366 4563 
L 3366 3988 
Q 3128 4100 2886 4159 
Q 2644 4219 2406 4219 
Q 1781 4219 1451 3797 
Q 1122 3375 1075 2522 
Q 1259 2794 1537 2939 
Q 1816 3084 2150 3084 
Q 2853 3084 3261 2657 
Q 3669 2231 3669 1497 
Q 3669 778 3244 343 
Q 2819 -91 2113 -91 
Q 1303 -91 875 529 
Q 447 1150 447 2328 
Q 447 3434 972 4092 
Q 1497 4750 2381 4750 
Q 2619 4750 2861 4703 
Q 3103 4656 3366 4563 
z
" transform="scale(0.015625)"/>
       </defs>
       <use xlink:href="#DejaVuSans-36"/>
       <use xlink:href="#DejaVuSans-30" x="63.623047"/>
      </g>
     </g>
    </g>
    <g id="xtick_5">
     <g id="line2d_5">
      <g>
       <use xlink:href="#m41ff02a8b3" x="200.743657" y="228.96" style="stroke: #000000; stroke-width: 0.8"/>
      </g>
     </g>
     <g id="text_5">
      <!-- 80 -->
      <g transform="translate(194.381157 243.558437) scale(0.1 -0.1)">
       <defs>
        <path id="DejaVuSans-38" d="M 2034 2216 
Q 1584 2216 1326 1975 
Q 1069 1734 1069 1313 
Q 1069 891 1326 650 
Q 1584 409 2034 409 
Q 2484 409 2743 651 
Q 3003 894 3003 1313 
Q 3003 1734 2745 1975 
Q 2488 2216 2034 2216 
z
M 1403 2484 
Q 997 2584 770 2862 
Q 544 3141 544 3541 
Q 544 4100 942 4425 
Q 1341 4750 2034 4750 
Q 2731 4750 3128 4425 
Q 3525 4100 3525 3541 
Q 3525 3141 3298 2862 
Q 3072 2584 2669 2484 
Q 3125 2378 3379 2068 
Q 3634 1759 3634 1313 
Q 3634 634 3220 271 
Q 2806 -91 2034 -91 
Q 1263 -91 848 271 
Q 434 634 434 1313 
Q 434 1759 690 2068 
Q 947 2378 1403 2484 
z
M 1172 3481 
Q 1172 3119 1398 2916 
Q 1625 2713 2034 2713 
Q 2441 2713 2670 2916 
Q 2900 3119 2900 3481 
Q 2900 3844 2670 4047 
Q 2441 4250 2034 4250 
Q 1625 4250 1398 4047 
Q 1172 3844 1172 3481 
z
" transform="scale(0.015625)"/>
       </defs>
       <use xlink:href="#DejaVuSans-38"/>
       <use xlink:href="#DejaVuSans-30" x="63.623047"/>
      </g>
     </g>
    </g>
    <g id="xtick_6">
     <g id="line2d_6">
      <g>
       <use xlink:href="#m41ff02a8b3" x="239.599244" y="228.96" style="stroke: #000000; stroke-width: 0.8"/>
      </g>
     </g>
     <g id="text_6">
      <!-- 100 -->
      <g transform="translate(230.055494 243.558437) scale(0.1 -0.1)">
       <defs>
        <path id="DejaVuSans-31" d="M 794 531 
L 1825 531 
L 1825 4091 
L 703 3866 
L 703 4441 
L 1819 4666 
L 2450 4666 
L 2450 531 
L 3481 531 
L 3481 0 
L 794 0 
L 794 531 
z
" transform="scale(0.015625)"/>
       </defs>
       <use xlink:href="#DejaVuSans-31"/>
       <use xlink:href="#DejaVuSans-30" x="63.623047"/>
       <use xlink:href="#DejaVuSans-30" x="127.246094"/>
      </g>
     </g>
    </g>
    <g id="xtick_7">
     <g id="line2d_7">
      <g>
       <use xlink:href="#m41ff02a8b3" x="278.454832" y="228.96" style="stroke: #000000; stroke-width: 0.8"/>
      </g>
     </g>
     <g id="text_7">
      <!-- 120 -->
      <g transform="translate(268.911082 243.558437) scale(0.1 -0.1)">
       <use xlink:href="#DejaVuSans-31"/>
       <use xlink:href="#DejaVuSans-32" x="63.623047"/>
       <use xlink:href="#DejaVuSans-30" x="127.246094"/>
      </g>
     </g>
    </g>
    <g id="xtick_8">
     <g id="line2d_8">
      <g>
       <use xlink:href="#m41ff02a8b3" x="317.310419" y="228.96" style="stroke: #000000; stroke-width: 0.8"/>
      </g>
     </g>
     <g id="text_8">
      <!-- 140 -->
      <g transform="translate(307.766669 243.558437) scale(0.1 -0.1)">
       <use xlink:href="#DejaVuSans-31"/>
       <use xlink:href="#DejaVuSans-34" x="63.623047"/>
       <use xlink:href="#DejaVuSans-30" x="127.246094"/>
      </g>
     </g>
    </g>
    <g id="xtick_9">
     <g id="line2d_9">
      <g>
       <use xlink:href="#m41ff02a8b3" x="356.166006" y="228.96" style="stroke: #000000; stroke-width: 0.8"/>
      </g>
     </g>
     <g id="text_9">
      <!-- 160 -->
      <g transform="translate(346.622256 243.558437) scale(0.1 -0.1)">
       <use xlink:href="#DejaVuSans-31"/>
       <use xlink:href="#DejaVuSans-36" x="63.623047"/>
       <use xlink:href="#DejaVuSans-30" x="127.246094"/>
      </g>
     </g>
    </g>
   </g>
   <g id="matplotlib.axis_2">
    <g id="ytick_1">
     <g id="line2d_10">
      <defs>
       <path id="m5446187ffe" d="M 0 0 
L -3.5 0 
" style="stroke: #000000; stroke-width: 0.8"/>
      </defs>
      <g>
       <use xlink:href="#m5446187ffe" x="30.103125" y="218.88" style="stroke: #000000; stroke-width: 0.8"/>
      </g>
     </g>
     <g id="text_10">
      <!-- 0.0 -->
      <g transform="translate(7.2 222.679219) scale(0.1 -0.1)">
       <defs>
        <path id="DejaVuSans-2e" d="M 684 794 
L 1344 794 
L 1344 0 
L 684 0 
L 684 794 
z
" transform="scale(0.015625)"/>
       </defs>
       <use xlink:href="#DejaVuSans-30"/>
       <use xlink:href="#DejaVuSans-2e" x="63.623047"/>
       <use xlink:href="#DejaVuSans-30" x="95.410156"/>
      </g>
     </g>
    </g>
    <g id="ytick_2">
     <g id="line2d_11">
      <g>
       <use xlink:href="#m5446187ffe" x="30.103125" y="187.741983" style="stroke: #000000; stroke-width: 0.8"/>
      </g>
     </g>
     <g id="text_11">
      <!-- 0.2 -->
      <g transform="translate(7.2 191.541202) scale(0.1 -0.1)">
       <use xlink:href="#DejaVuSans-30"/>
       <use xlink:href="#DejaVuSans-2e" x="63.623047"/>
       <use xlink:href="#DejaVuSans-32" x="95.410156"/>
      </g>
     </g>
    </g>
    <g id="ytick_3">
     <g id="line2d_12">
      <g>
       <use xlink:href="#m5446187ffe" x="30.103125" y="156.603966" style="stroke: #000000; stroke-width: 0.8"/>
      </g>
     </g>
     <g id="text_12">
      <!-- 0.4 -->
      <g transform="translate(7.2 160.403185) scale(0.1 -0.1)">
       <use xlink:href="#DejaVuSans-30"/>
       <use xlink:href="#DejaVuSans-2e" x="63.623047"/>
       <use xlink:href="#DejaVuSans-34" x="95.410156"/>
      </g>
     </g>
    </g>
    <g id="ytick_4">
     <g id="line2d_13">
      <g>
       <use xlink:href="#m5446187ffe" x="30.103125" y="125.465949" style="stroke: #000000; stroke-width: 0.8"/>
      </g>
     </g>
     <g id="text_13">
      <!-- 0.6 -->
      <g transform="translate(7.2 129.265167) scale(0.1 -0.1)">
       <use xlink:href="#DejaVuSans-30"/>
       <use xlink:href="#DejaVuSans-2e" x="63.623047"/>
       <use xlink:href="#DejaVuSans-36" x="95.410156"/>
      </g>
     </g>
    </g>
    <g id="ytick_5">
     <g id="line2d_14">
      <g>
       <use xlink:href="#m5446187ffe" x="30.103125" y="94.327932" style="stroke: #000000; stroke-width: 0.8"/>
      </g>
     </g>
     <g id="text_14">
      <!-- 0.8 -->
      <g transform="translate(7.2 98.12715) scale(0.1 -0.1)">
       <use xlink:href="#DejaVuSans-30"/>
       <use xlink:href="#DejaVuSans-2e" x="63.623047"/>
       <use xlink:href="#DejaVuSans-38" x="95.410156"/>
      </g>
     </g>
    </g>
    <g id="ytick_6">
     <g id="line2d_15">
      <g>
       <use xlink:href="#m5446187ffe" x="30.103125" y="63.189914" style="stroke: #000000; stroke-width: 0.8"/>
      </g>
     </g>
     <g id="text_15">
      <!-- 1.0 -->
      <g transform="translate(7.2 66.989133) scale(0.1 -0.1)">
       <use xlink:href="#DejaVuSans-31"/>
       <use xlink:href="#DejaVuSans-2e" x="63.623047"/>
       <use xlink:href="#DejaVuSans-30" x="95.410156"/>
      </g>
     </g>
    </g>
    <g id="ytick_7">
     <g id="line2d_16">
      <g>
       <use xlink:href="#m5446187ffe" x="30.103125" y="32.051897" style="stroke: #000000; stroke-width: 0.8"/>
      </g>
     </g>
     <g id="text_16">
      <!-- 1.2 -->
      <g transform="translate(7.2 35.851116) scale(0.1 -0.1)">
       <use xlink:href="#DejaVuSans-31"/>
       <use xlink:href="#DejaVuSans-2e" x="63.623047"/>
       <use xlink:href="#DejaVuSans-32" x="95.410156"/>
      </g>
     </g>
    </g>
   </g>
   <g id="line2d_17">
    <path d="M 45.404398 53.942446 
L 45.848375 58.416016 
L 46.723941 50.744245 
L 47.15872 52.691017 
L 47.597627 35.278285 
L 48.028012 30.210816 
L 48.465058 29.739639 
L 49.32535 29.739639 
L 49.752513 33.391013 
L 50.188387 32.678185 
L 50.610529 46.068895 
L 51.039179 48.375234 
L 51.494251 37.619677 
L 51.943055 42.185208 
L 52.38302 42.616003 
L 52.81634 43.386039 
L 53.247778 41.44427 
L 53.676595 44.214902 
L 54.540496 44.112875 
L 54.998213 46.181669 
L 55.431694 37.677111 
L 55.872647 37.677111 
L 56.296388 17.28 
L 56.724066 17.675021 
L 57.156734 36.744979 
L 57.58174 45.819172 
L 58.003095 45.590175 
L 58.42935 52.721761 
L 59.296321 58.479785 
L 59.727372 58.479785 
L 60.156277 57.959361 
L 60.587776 57.168347 
L 61.020262 57.04555 
L 61.449999 60.619426 
L 61.87458 60.619426 
L 62.3012 50.543094 
L 62.730811 50.543094 
L 63.186698 52.457586 
L 63.625965 58.642906 
L 64.481521 65.66226 
L 64.916726 63.835888 
L 65.351273 61.082118 
L 65.781838 62.271572 
L 66.204739 63.929889 
L 66.632767 58.471205 
L 67.064156 59.388227 
L 67.49513 56.680851 
L 68.787556 56.680851 
L 69.221111 53.395318 
L 69.650001 64.289622 
L 70.078669 64.289622 
L 70.506381 69.539493 
L 70.939279 59.714851 
L 71.368772 63.169493 
L 71.794907 64.050619 
L 72.227175 62.152225 
L 76.138846 62.152225 
L 76.567988 60.175889 
L 76.997176 61.893693 
L 77.427455 59.240462 
L 77.871693 57.35508 
L 78.739088 57.35508 
L 79.166871 58.991243 
L 79.612155 61.191517 
L 80.059257 54.281707 
L 80.510376 61.257844 
L 80.962142 61.257844 
L 81.398883 62.16479 
L 81.835119 65.938478 
L 82.260657 68.284671 
L 82.687837 68.284671 
L 83.11603 67.919282 
L 83.550342 63.304787 
L 83.994501 63.167602 
L 84.419458 64.139789 
L 84.852432 59.430029 
L 85.290537 66.336524 
L 85.729834 65.480453 
L 86.168309 64.223047 
L 86.60445 61.492072 
L 87.03917 61.492072 
L 87.473078 63.858852 
L 87.902894 63.858852 
L 88.332764 62.098605 
L 88.764311 67.883137 
L 89.195247 66.601551 
L 89.622909 60.63502 
L 90.050725 62.587799 
L 90.476912 66.497855 
L 91.766414 66.497855 
L 92.214813 59.947346 
L 92.664041 67.538036 
L 95.281427 67.538036 
L 95.712697 56.960538 
L 96.145583 55.909722 
L 97.006343 55.909722 
L 97.439278 66.680164 
L 98.295762 66.680164 
L 98.72388 48.300399 
L 99.149531 49.405461 
L 99.578932 53.196294 
L 101.016191 53.196294 
L 101.441349 55.586539 
L 102.298396 55.586539 
L 103.185356 63.902603 
L 103.62906 66.33754 
L 104.076004 66.002472 
L 104.951737 66.155181 
L 105.573914 65.961634 
L 106.060243 57.59306 
L 106.686027 58.270905 
L 107.1989 64.739679 
L 111.109519 64.739679 
L 111.536911 62.990216 
L 111.969443 62.990216 
L 112.402257 44.489052 
L 112.828262 44.489052 
L 113.261059 42.508087 
L 113.690243 43.441426 
L 114.124391 42.218165 
L 114.561901 42.218165 
L 115.004199 56.845102 
L 115.444984 60.480932 
L 116.760162 60.480932 
L 117.186323 61.16334 
L 117.764713 60.148563 
L 118.286293 60.148563 
L 118.72805 59.680604 
L 120.481306 59.680604 
L 120.925549 62.308112 
L 121.367291 55.34562 
L 121.796903 55.656949 
L 122.652731 55.656949 
L 123.083861 49.64237 
L 123.515824 48.228056 
L 123.957795 47.515622 
L 124.400719 47.719299 
L 124.843488 47.719299 
L 125.287314 48.056656 
L 125.726388 40.467353 
L 126.162948 41.450227 
L 127.025705 41.450227 
L 127.468669 48.440238 
L 127.912413 48.440238 
L 128.353797 43.375142 
L 129.664979 43.375142 
L 130.093125 44.401888 
L 130.954446 58.989567 
L 131.385108 58.989567 
L 131.815828 57.997355 
L 132.245365 57.997355 
L 132.679849 61.278224 
L 133.114661 62.837672 
L 133.546977 62.837672 
L 133.981709 63.091639 
L 134.575241 63.091639 
L 135.003282 52.28748 
L 135.434119 52.28748 
L 135.868423 51.120393 
L 136.300633 50.91247 
L 138.468688 50.91247 
L 139.012242 43.703524 
L 139.68316 43.703524 
L 140.360848 48.096418 
L 140.818239 46.384064 
L 141.253236 47.295286 
L 141.693408 47.295286 
L 142.147 47.676858 
L 142.589276 46.154473 
L 143.026602 39.965245 
L 143.459006 40.612695 
L 143.888961 40.121865 
L 144.314184 40.121865 
L 144.758617 38.449759 
L 145.201357 43.750356 
L 145.639416 45.356258 
L 150.422504 45.356258 
L 150.879485 44.44096 
L 152.313242 44.44096 
L 152.747823 54.076474 
L 153.178834 54.076474 
L 153.611221 59.818777 
L 154.050769 63.687281 
L 155.341301 63.687281 
L 155.779538 62.931081 
L 157.970991 62.931081 
L 158.407803 64.965492 
L 158.849617 68.716266 
L 159.285098 68.716266 
L 159.719185 66.945178 
L 160.158248 61.510211 
L 161.478691 61.510211 
L 161.922287 60.512408 
L 163.812387 60.512408 
L 164.243044 58.906157 
L 164.670032 59.362036 
L 165.098852 58.847557 
L 165.527732 59.264242 
L 166.406564 59.360656 
L 166.850576 59.010681 
L 167.281423 60.03364 
L 167.709881 60.03364 
L 168.138979 60.680492 
L 169.453928 60.680492 
L 169.881431 65.380369 
L 170.31233 65.380369 
L 170.742459 60.617302 
L 171.173686 60.548201 
L 171.606938 60.324718 
L 172.042987 60.324718 
L 172.479545 60.788915 
L 174.236719 60.788915 
L 174.665995 65.635343 
L 175.098691 65.109745 
L 175.542055 65.764252 
L 176.843571 65.764252 
L 177.283647 67.894747 
L 179.050281 67.894747 
L 179.571731 67.738763 
L 180.007768 67.738763 
L 180.440762 68.767688 
L 183.058171 68.767688 
L 183.515301 71.345844 
L 185.809834 71.345844 
L 186.248017 71.56451 
L 186.689639 72.355744 
L 188.018091 72.355744 
L 188.455235 75.390907 
L 188.877222 74.579216 
L 189.311298 74.579216 
L 189.748394 74.099032 
L 191.05699 74.099032 
L 191.487078 77.122427 
L 193.657446 77.122427 
L 194.103416 77.991008 
L 196.863493 77.991008 
L 197.290584 69.142549 
L 197.715672 69.147215 
L 198.140707 71.838649 
L 198.579026 71.838649 
L 199.022688 70.233613 
L 199.455011 70.5719 
L 199.884655 68.729438 
L 202.057376 68.729438 
L 202.491148 67.841791 
L 202.923156 67.841791 
L 203.363333 68.166316 
L 203.790361 67.10144 
L 204.213564 67.10144 
L 204.639116 62.35736 
L 205.51896 62.35736 
L 205.967312 66.307523 
L 206.415632 66.307523 
L 206.859505 66.43696 
L 207.722231 71.449489 
L 208.585313 71.449489 
L 209.018618 73.869787 
L 210.744649 73.869787 
L 211.166071 74.940684 
L 211.5931 73.251919 
L 213.495023 73.251919 
L 213.93073 71.779844 
L 214.36473 71.768362 
L 214.793245 72.215069 
L 216.084272 72.215069 
L 216.563694 71.400235 
L 218.637787 71.400235 
L 219.072743 70.040201 
L 223.008064 70.040201 
L 223.446784 70.401036 
L 223.879126 66.243139 
L 224.752802 66.164888 
L 227.347636 66.164888 
L 227.785329 62.230588 
L 228.810839 62.230588 
L 229.242431 61.54039 
L 229.671066 61.54039 
L 230.099062 62.20124 
L 230.52927 60.555946 
L 230.955339 60.925194 
L 231.387263 60.925194 
L 231.830621 61.386735 
L 232.26689 67.12222 
L 233.150681 67.12222 
L 233.594241 66.947358 
L 234.040447 67.868861 
L 236.216982 67.868861 
L 236.651997 67.99943 
L 237.519821 67.99943 
L 237.957411 66.823733 
L 239.280856 66.823733 
L 239.712073 66.984984 
L 242.289512 66.984984 
L 242.722027 66.643303 
L 243.149905 60.999857 
L 243.575936 60.999857 
L 244.002108 57.19227 
L 244.429753 58.370751 
L 245.015323 58.370751 
L 245.443375 57.325705 
L 246.73101 57.325705 
L 247.168919 56.662577 
L 248.889164 56.662577 
L 249.41049 56.886731 
L 250.068995 56.886731 
L 250.506077 57.071603 
L 250.934479 62.284738 
L 253.100216 62.284738 
L 253.534082 62.486474 
L 253.972921 62.486474 
L 254.399052 60.716798 
L 256.571412 60.716798 
L 257.001119 60.447542 
L 259.60537 60.447542 
L 260.032526 59.793378 
L 261.489423 59.793378 
L 261.924192 59.334519 
L 263.651739 59.334519 
L 264.080351 58.547381 
L 264.511871 58.547381 
L 264.953908 58.715459 
L 265.38795 58.435306 
L 266.250266 58.435306 
L 266.674841 57.418005 
L 267.974598 57.418005 
L 268.402425 58.251444 
L 269.701451 58.251444 
L 270.13557 59.021998 
L 270.556818 59.021998 
L 270.989041 59.265667 
L 271.845399 59.265667 
L 272.273267 58.642682 
L 274.419325 58.642682 
L 274.84452 58.863825 
L 275.698309 58.863825 
L 276.126041 58.067691 
L 276.54792 62.95067 
L 278.410089 62.95067 
L 278.840648 62.167585 
L 279.27315 62.167585 
L 279.704594 61.983434 
L 280.143816 61.406912 
L 286.617726 61.406912 
L 287.045384 61.597015 
L 287.911914 61.597015 
L 288.337768 60.047643 
L 288.771658 60.047643 
L 289.200379 61.076988 
L 289.621797 60.432529 
L 290.498418 60.432529 
L 290.928114 61.277729 
L 303.28438 61.25934 
L 303.936939 56.805051 
L 305.405456 56.805051 
L 305.83826 58.003934 
L 306.269847 58.003934 
L 306.705272 57.618873 
L 307.579438 57.618873 
L 308.015055 58.258584 
L 308.449679 58.258584 
L 308.881548 58.912011 
L 309.743876 58.912011 
L 310.171824 60.206686 
L 323.333929 60.190442 
L 323.760783 59.505211 
L 330.681934 59.505211 
L 331.11264 64.808391 
L 335.145005 64.808391 
L 335.579318 64.291296 
L 342.393663 64.291296 
L 342.823872 64.11298 
L 344.973639 64.11298 
L 345.402888 66.184804 
L 345.832649 66.184804 
L 346.261988 69.126545 
L 349.684943 69.126545 
L 45.321307 218.88 
L 45.321307 218.88 
" clip-path="url(#p4b344d2c8f)" style="fill: none; stroke: #1f77b4; stroke-width: 1.5; stroke-linecap: square"/>
   </g>
   <g id="patch_3">
    <path d="M 30.103125 228.96 
L 30.103125 7.2 
" style="fill: none; stroke: #000000; stroke-width: 0.8; stroke-linejoin: miter; stroke-linecap: square"/>
   </g>
   <g id="patch_4">
    <path d="M 364.903125 228.96 
L 364.903125 7.2 
" style="fill: none; stroke: #000000; stroke-width: 0.8; stroke-linejoin: miter; stroke-linecap: square"/>
   </g>
   <g id="patch_5">
    <path d="M 30.103125 228.96 
L 364.903125 228.96 
" style="fill: none; stroke: #000000; stroke-width: 0.8; stroke-linejoin: miter; stroke-linecap: square"/>
   </g>
   <g id="patch_6">
    <path d="M 30.103125 7.2 
L 364.903125 7.2 
" style="fill: none; stroke: #000000; stroke-width: 0.8; stroke-linejoin: miter; stroke-linecap: square"/>
   </g>
   <g id="legend_1">
    <g id="patch_7">
     <path d="M 204.514063 29.878125 
L 357.903125 29.878125 
Q 359.903125 29.878125 359.903125 27.878125 
L 359.903125 14.2 
Q 359.903125 12.2 357.903125 12.2 
L 204.514063 12.2 
Q 202.514063 12.2 202.514063 14.2 
L 202.514063 27.878125 
Q 202.514063 29.878125 204.514063 29.878125 
z
" style="fill: #ffffff; opacity: 0.8; stroke: #cccccc; stroke-linejoin: miter"/>
    </g>
    <g id="line2d_18">
     <path d="M 206.514063 20.298437 
L 216.514063 20.298437 
L 226.514063 20.298437 
" style="fill: none; stroke: #1f77b4; stroke-width: 1.5; stroke-linecap: square"/>
    </g>
    <g id="text_17">
     <!-- node storage proportion -->
     <g transform="translate(234.514063 23.798437) scale(0.1 -0.1)">
      <defs>
       <path id="DejaVuSans-6e" d="M 3513 2113 
L 3513 0 
L 2938 0 
L 2938 2094 
Q 2938 2591 2744 2837 
Q 2550 3084 2163 3084 
Q 1697 3084 1428 2787 
Q 1159 2491 1159 1978 
L 1159 0 
L 581 0 
L 581 3500 
L 1159 3500 
L 1159 2956 
Q 1366 3272 1645 3428 
Q 1925 3584 2291 3584 
Q 2894 3584 3203 3211 
Q 3513 2838 3513 2113 
z
" transform="scale(0.015625)"/>
       <path id="DejaVuSans-6f" d="M 1959 3097 
Q 1497 3097 1228 2736 
Q 959 2375 959 1747 
Q 959 1119 1226 758 
Q 1494 397 1959 397 
Q 2419 397 2687 759 
Q 2956 1122 2956 1747 
Q 2956 2369 2687 2733 
Q 2419 3097 1959 3097 
z
M 1959 3584 
Q 2709 3584 3137 3096 
Q 3566 2609 3566 1747 
Q 3566 888 3137 398 
Q 2709 -91 1959 -91 
Q 1206 -91 779 398 
Q 353 888 353 1747 
Q 353 2609 779 3096 
Q 1206 3584 1959 3584 
z
" transform="scale(0.015625)"/>
       <path id="DejaVuSans-64" d="M 2906 2969 
L 2906 4863 
L 3481 4863 
L 3481 0 
L 2906 0 
L 2906 525 
Q 2725 213 2448 61 
Q 2172 -91 1784 -91 
Q 1150 -91 751 415 
Q 353 922 353 1747 
Q 353 2572 751 3078 
Q 1150 3584 1784 3584 
Q 2172 3584 2448 3432 
Q 2725 3281 2906 2969 
z
M 947 1747 
Q 947 1113 1208 752 
Q 1469 391 1925 391 
Q 2381 391 2643 752 
Q 2906 1113 2906 1747 
Q 2906 2381 2643 2742 
Q 2381 3103 1925 3103 
Q 1469 3103 1208 2742 
Q 947 2381 947 1747 
z
" transform="scale(0.015625)"/>
       <path id="DejaVuSans-65" d="M 3597 1894 
L 3597 1613 
L 953 1613 
Q 991 1019 1311 708 
Q 1631 397 2203 397 
Q 2534 397 2845 478 
Q 3156 559 3463 722 
L 3463 178 
Q 3153 47 2828 -22 
Q 2503 -91 2169 -91 
Q 1331 -91 842 396 
Q 353 884 353 1716 
Q 353 2575 817 3079 
Q 1281 3584 2069 3584 
Q 2775 3584 3186 3129 
Q 3597 2675 3597 1894 
z
M 3022 2063 
Q 3016 2534 2758 2815 
Q 2500 3097 2075 3097 
Q 1594 3097 1305 2825 
Q 1016 2553 972 2059 
L 3022 2063 
z
" transform="scale(0.015625)"/>
       <path id="DejaVuSans-20" transform="scale(0.015625)"/>
       <path id="DejaVuSans-73" d="M 2834 3397 
L 2834 2853 
Q 2591 2978 2328 3040 
Q 2066 3103 1784 3103 
Q 1356 3103 1142 2972 
Q 928 2841 928 2578 
Q 928 2378 1081 2264 
Q 1234 2150 1697 2047 
L 1894 2003 
Q 2506 1872 2764 1633 
Q 3022 1394 3022 966 
Q 3022 478 2636 193 
Q 2250 -91 1575 -91 
Q 1294 -91 989 -36 
Q 684 19 347 128 
L 347 722 
Q 666 556 975 473 
Q 1284 391 1588 391 
Q 1994 391 2212 530 
Q 2431 669 2431 922 
Q 2431 1156 2273 1281 
Q 2116 1406 1581 1522 
L 1381 1569 
Q 847 1681 609 1914 
Q 372 2147 372 2553 
Q 372 3047 722 3315 
Q 1072 3584 1716 3584 
Q 2034 3584 2315 3537 
Q 2597 3491 2834 3397 
z
" transform="scale(0.015625)"/>
       <path id="DejaVuSans-74" d="M 1172 4494 
L 1172 3500 
L 2356 3500 
L 2356 3053 
L 1172 3053 
L 1172 1153 
Q 1172 725 1289 603 
Q 1406 481 1766 481 
L 2356 481 
L 2356 0 
L 1766 0 
Q 1100 0 847 248 
Q 594 497 594 1153 
L 594 3053 
L 172 3053 
L 172 3500 
L 594 3500 
L 594 4494 
L 1172 4494 
z
" transform="scale(0.015625)"/>
       <path id="DejaVuSans-72" d="M 2631 2963 
Q 2534 3019 2420 3045 
Q 2306 3072 2169 3072 
Q 1681 3072 1420 2755 
Q 1159 2438 1159 1844 
L 1159 0 
L 581 0 
L 581 3500 
L 1159 3500 
L 1159 2956 
Q 1341 3275 1631 3429 
Q 1922 3584 2338 3584 
Q 2397 3584 2469 3576 
Q 2541 3569 2628 3553 
L 2631 2963 
z
" transform="scale(0.015625)"/>
       <path id="DejaVuSans-61" d="M 2194 1759 
Q 1497 1759 1228 1600 
Q 959 1441 959 1056 
Q 959 750 1161 570 
Q 1363 391 1709 391 
Q 2188 391 2477 730 
Q 2766 1069 2766 1631 
L 2766 1759 
L 2194 1759 
z
M 3341 1997 
L 3341 0 
L 2766 0 
L 2766 531 
Q 2569 213 2275 61 
Q 1981 -91 1556 -91 
Q 1019 -91 701 211 
Q 384 513 384 1019 
Q 384 1609 779 1909 
Q 1175 2209 1959 2209 
L 2766 2209 
L 2766 2266 
Q 2766 2663 2505 2880 
Q 2244 3097 1772 3097 
Q 1472 3097 1187 3025 
Q 903 2953 641 2809 
L 641 3341 
Q 956 3463 1253 3523 
Q 1550 3584 1831 3584 
Q 2591 3584 2966 3190 
Q 3341 2797 3341 1997 
z
" transform="scale(0.015625)"/>
       <path id="DejaVuSans-67" d="M 2906 1791 
Q 2906 2416 2648 2759 
Q 2391 3103 1925 3103 
Q 1463 3103 1205 2759 
Q 947 2416 947 1791 
Q 947 1169 1205 825 
Q 1463 481 1925 481 
Q 2391 481 2648 825 
Q 2906 1169 2906 1791 
z
M 3481 434 
Q 3481 -459 3084 -895 
Q 2688 -1331 1869 -1331 
Q 1566 -1331 1297 -1286 
Q 1028 -1241 775 -1147 
L 775 -588 
Q 1028 -725 1275 -790 
Q 1522 -856 1778 -856 
Q 2344 -856 2625 -561 
Q 2906 -266 2906 331 
L 2906 616 
Q 2728 306 2450 153 
Q 2172 0 1784 0 
Q 1141 0 747 490 
Q 353 981 353 1791 
Q 353 2603 747 3093 
Q 1141 3584 1784 3584 
Q 2172 3584 2450 3431 
Q 2728 3278 2906 2969 
L 2906 3500 
L 3481 3500 
L 3481 434 
z
" transform="scale(0.015625)"/>
       <path id="DejaVuSans-70" d="M 1159 525 
L 1159 -1331 
L 581 -1331 
L 581 3500 
L 1159 3500 
L 1159 2969 
Q 1341 3281 1617 3432 
Q 1894 3584 2278 3584 
Q 2916 3584 3314 3078 
Q 3713 2572 3713 1747 
Q 3713 922 3314 415 
Q 2916 -91 2278 -91 
Q 1894 -91 1617 61 
Q 1341 213 1159 525 
z
M 3116 1747 
Q 3116 2381 2855 2742 
Q 2594 3103 2138 3103 
Q 1681 3103 1420 2742 
Q 1159 2381 1159 1747 
Q 1159 1113 1420 752 
Q 1681 391 2138 391 
Q 2594 391 2855 752 
Q 3116 1113 3116 1747 
z
" transform="scale(0.015625)"/>
       <path id="DejaVuSans-69" d="M 603 3500 
L 1178 3500 
L 1178 0 
L 603 0 
L 603 3500 
z
M 603 4863 
L 1178 4863 
L 1178 4134 
L 603 4134 
L 603 4863 
z
" transform="scale(0.015625)"/>
      </defs>
      <use xlink:href="#DejaVuSans-6e"/>
      <use xlink:href="#DejaVuSans-6f" x="63.378906"/>
      <use xlink:href="#DejaVuSans-64" x="124.560547"/>
      <use xlink:href="#DejaVuSans-65" x="188.037109"/>
      <use xlink:href="#DejaVuSans-20" x="249.560547"/>
      <use xlink:href="#DejaVuSans-73" x="281.347656"/>
      <use xlink:href="#DejaVuSans-74" x="333.447266"/>
      <use xlink:href="#DejaVuSans-6f" x="372.65625"/>
      <use xlink:href="#DejaVuSans-72" x="433.837891"/>
      <use xlink:href="#DejaVuSans-61" x="474.951172"/>
      <use xlink:href="#DejaVuSans-67" x="536.230469"/>
      <use xlink:href="#DejaVuSans-65" x="599.707031"/>
      <use xlink:href="#DejaVuSans-20" x="661.230469"/>
      <use xlink:href="#DejaVuSans-70" x="693.017578"/>
      <use xlink:href="#DejaVuSans-72" x="756.494141"/>
      <use xlink:href="#DejaVuSans-6f" x="795.357422"/>
      <use xlink:href="#DejaVuSans-70" x="856.539062"/>
      <use xlink:href="#DejaVuSans-6f" x="920.015625"/>
      <use xlink:href="#DejaVuSans-72" x="981.197266"/>
      <use xlink:href="#DejaVuSans-74" x="1022.310547"/>
      <use xlink:href="#DejaVuSans-69" x="1061.519531"/>
      <use xlink:href="#DejaVuSans-6f" x="1089.302734"/>
      <use xlink:href="#DejaVuSans-6e" x="1150.484375"/>
     </g>
    </g>
   </g>
  </g>
 </g>
 <defs>
  <clipPath id="p4b344d2c8f">
   <rect x="30.103125" y="7.2" width="334.8" height="221.76"/>
  </clipPath>
 </defs>
</svg>
