<?xml version="1.0" encoding="utf-8" standalone="no"?>
<!DOCTYPE svg PUBLIC "-//W3C//DTD SVG 1.1//EN"
  "http://www.w3.org/Graphics/SVG/1.1/DTD/svg11.dtd">
<svg xmlns:xlink="http://www.w3.org/1999/xlink" width="375.2875pt" height="255.49568pt" viewBox="0 0 375.2875 255.49568" xmlns="http://www.w3.org/2000/svg" version="1.1">
 <metadata>
  <rdf:RDF xmlns:dc="http://purl.org/dc/elements/1.1/" xmlns:cc="http://creativecommons.org/ns#" xmlns:rdf="http://www.w3.org/1999/02/22-rdf-syntax-ns#">
   <cc:Work>
    <dc:type rdf:resource="http://purl.org/dc/dcmitype/StillImage"/>
    <dc:date>2023-04-18T04:42:47.263675</dc:date>
    <dc:format>image/svg+xml</dc:format>
    <dc:creator>
     <cc:Agent>
      <dc:title>Matplotlib v3.7.1, https://matplotlib.org/</dc:title>
     </cc:Agent>
    </dc:creator>
   </cc:Work>
  </rdf:RDF>
 </metadata>
 <defs>
  <style type="text/css">*{stroke-linejoin: round; stroke-linecap: butt}</style>
 </defs>
 <g id="figure_1">
  <g id="patch_1">
   <path d="M 0 255.49568 
L 375.2875 255.49568 
L 375.2875 0 
L 0 0 
z
" style="fill: #ffffff"/>
  </g>
  <g id="axes_1">
   <g id="patch_2">
    <path d="M 33.2875 231.617555 
L 368.0875 231.617555 
L 368.0875 9.857555 
L 33.2875 9.857555 
z
" style="fill: #ffffff"/>
   </g>
   <g id="matplotlib.axis_1">
    <g id="xtick_1">
     <g id="line2d_1">
      <defs>
       <path id="m68ae99f846" d="M 0 0 
L 0 3.5 
" style="stroke: #000000; stroke-width: 0.8"/>
      </defs>
      <g>
       <use xlink:href="#m68ae99f846" x="48.505682" y="231.617555" style="stroke: #000000; stroke-width: 0.8"/>
      </g>
     </g>
     <g id="text_1">
      <!-- 0 -->
      <g transform="translate(45.324432 246.215993) scale(0.1 -0.1)">
       <defs>
        <path id="DejaVuSans-30" d="M 2034 4250 
Q 1547 4250 1301 3770 
Q 1056 3291 1056 2328 
Q 1056 1369 1301 889 
Q 1547 409 2034 409 
Q 2525 409 2770 889 
Q 3016 1369 3016 2328 
Q 3016 3291 2770 3770 
Q 2525 4250 2034 4250 
z
M 2034 4750 
Q 2819 4750 3233 4129 
Q 3647 3509 3647 2328 
Q 3647 1150 3233 529 
Q 2819 -91 2034 -91 
Q 1250 -91 836 529 
Q 422 1150 422 2328 
Q 422 3509 836 4129 
Q 1250 4750 2034 4750 
z
" transform="scale(0.015625)"/>
       </defs>
       <use xlink:href="#DejaVuSans-30"/>
      </g>
     </g>
    </g>
    <g id="xtick_2">
     <g id="line2d_2">
      <g>
       <use xlink:href="#m68ae99f846" x="109.378409" y="231.617555" style="stroke: #000000; stroke-width: 0.8"/>
      </g>
     </g>
     <g id="text_2">
      <!-- 200 -->
      <g transform="translate(99.834659 246.215993) scale(0.1 -0.1)">
       <defs>
        <path id="DejaVuSans-32" d="M 1228 531 
L 3431 531 
L 3431 0 
L 469 0 
L 469 531 
Q 828 903 1448 1529 
Q 2069 2156 2228 2338 
Q 2531 2678 2651 2914 
Q 2772 3150 2772 3378 
Q 2772 3750 2511 3984 
Q 2250 4219 1831 4219 
Q 1534 4219 1204 4116 
Q 875 4013 500 3803 
L 500 4441 
Q 881 4594 1212 4672 
Q 1544 4750 1819 4750 
Q 2544 4750 2975 4387 
Q 3406 4025 3406 3419 
Q 3406 3131 3298 2873 
Q 3191 2616 2906 2266 
Q 2828 2175 2409 1742 
Q 1991 1309 1228 531 
z
" transform="scale(0.015625)"/>
       </defs>
       <use xlink:href="#DejaVuSans-32"/>
       <use xlink:href="#DejaVuSans-30" x="63.623047"/>
       <use xlink:href="#DejaVuSans-30" x="127.246094"/>
      </g>
     </g>
    </g>
    <g id="xtick_3">
     <g id="line2d_3">
      <g>
       <use xlink:href="#m68ae99f846" x="170.251136" y="231.617555" style="stroke: #000000; stroke-width: 0.8"/>
      </g>
     </g>
     <g id="text_3">
      <!-- 400 -->
      <g transform="translate(160.707386 246.215993) scale(0.1 -0.1)">
       <defs>
        <path id="DejaVuSans-34" d="M 2419 4116 
L 825 1625 
L 2419 1625 
L 2419 4116 
z
M 2253 4666 
L 3047 4666 
L 3047 1625 
L 3713 1625 
L 3713 1100 
L 3047 1100 
L 3047 0 
L 2419 0 
L 2419 1100 
L 313 1100 
L 313 1709 
L 2253 4666 
z
" transform="scale(0.015625)"/>
       </defs>
       <use xlink:href="#DejaVuSans-34"/>
       <use xlink:href="#DejaVuSans-30" x="63.623047"/>
       <use xlink:href="#DejaVuSans-30" x="127.246094"/>
      </g>
     </g>
    </g>
    <g id="xtick_4">
     <g id="line2d_4">
      <g>
       <use xlink:href="#m68ae99f846" x="231.123864" y="231.617555" style="stroke: #000000; stroke-width: 0.8"/>
      </g>
     </g>
     <g id="text_4">
      <!-- 600 -->
      <g transform="translate(221.580114 246.215993) scale(0.1 -0.1)">
       <defs>
        <path id="DejaVuSans-36" d="M 2113 2584 
Q 1688 2584 1439 2293 
Q 1191 2003 1191 1497 
Q 1191 994 1439 701 
Q 1688 409 2113 409 
Q 2538 409 2786 701 
Q 3034 994 3034 1497 
Q 3034 2003 2786 2293 
Q 2538 2584 2113 2584 
z
M 3366 4563 
L 3366 3988 
Q 3128 4100 2886 4159 
Q 2644 4219 2406 4219 
Q 1781 4219 1451 3797 
Q 1122 3375 1075 2522 
Q 1259 2794 1537 2939 
Q 1816 3084 2150 3084 
Q 2853 3084 3261 2657 
Q 3669 2231 3669 1497 
Q 3669 778 3244 343 
Q 2819 -91 2113 -91 
Q 1303 -91 875 529 
Q 447 1150 447 2328 
Q 447 3434 972 4092 
Q 1497 4750 2381 4750 
Q 2619 4750 2861 4703 
Q 3103 4656 3366 4563 
z
" transform="scale(0.015625)"/>
       </defs>
       <use xlink:href="#DejaVuSans-36"/>
       <use xlink:href="#DejaVuSans-30" x="63.623047"/>
       <use xlink:href="#DejaVuSans-30" x="127.246094"/>
      </g>
     </g>
    </g>
    <g id="xtick_5">
     <g id="line2d_5">
      <g>
       <use xlink:href="#m68ae99f846" x="291.996591" y="231.617555" style="stroke: #000000; stroke-width: 0.8"/>
      </g>
     </g>
     <g id="text_5">
      <!-- 800 -->
      <g transform="translate(282.452841 246.215993) scale(0.1 -0.1)">
       <defs>
        <path id="DejaVuSans-38" d="M 2034 2216 
Q 1584 2216 1326 1975 
Q 1069 1734 1069 1313 
Q 1069 891 1326 650 
Q 1584 409 2034 409 
Q 2484 409 2743 651 
Q 3003 894 3003 1313 
Q 3003 1734 2745 1975 
Q 2488 2216 2034 2216 
z
M 1403 2484 
Q 997 2584 770 2862 
Q 544 3141 544 3541 
Q 544 4100 942 4425 
Q 1341 4750 2034 4750 
Q 2731 4750 3128 4425 
Q 3525 4100 3525 3541 
Q 3525 3141 3298 2862 
Q 3072 2584 2669 2484 
Q 3125 2378 3379 2068 
Q 3634 1759 3634 1313 
Q 3634 634 3220 271 
Q 2806 -91 2034 -91 
Q 1263 -91 848 271 
Q 434 634 434 1313 
Q 434 1759 690 2068 
Q 947 2378 1403 2484 
z
M 1172 3481 
Q 1172 3119 1398 2916 
Q 1625 2713 2034 2713 
Q 2441 2713 2670 2916 
Q 2900 3119 2900 3481 
Q 2900 3844 2670 4047 
Q 2441 4250 2034 4250 
Q 1625 4250 1398 4047 
Q 1172 3844 1172 3481 
z
" transform="scale(0.015625)"/>
       </defs>
       <use xlink:href="#DejaVuSans-38"/>
       <use xlink:href="#DejaVuSans-30" x="63.623047"/>
       <use xlink:href="#DejaVuSans-30" x="127.246094"/>
      </g>
     </g>
    </g>
    <g id="xtick_6">
     <g id="line2d_6">
      <g>
       <use xlink:href="#m68ae99f846" x="352.869318" y="231.617555" style="stroke: #000000; stroke-width: 0.8"/>
      </g>
     </g>
     <g id="text_6">
      <!-- 1000 -->
      <g transform="translate(340.144318 246.215993) scale(0.1 -0.1)">
       <defs>
        <path id="DejaVuSans-31" d="M 794 531 
L 1825 531 
L 1825 4091 
L 703 3866 
L 703 4441 
L 1819 4666 
L 2450 4666 
L 2450 531 
L 3481 531 
L 3481 0 
L 794 0 
L 794 531 
z
" transform="scale(0.015625)"/>
       </defs>
       <use xlink:href="#DejaVuSans-31"/>
       <use xlink:href="#DejaVuSans-30" x="63.623047"/>
       <use xlink:href="#DejaVuSans-30" x="127.246094"/>
       <use xlink:href="#DejaVuSans-30" x="190.869141"/>
      </g>
     </g>
    </g>
   </g>
   <g id="matplotlib.axis_2">
    <g id="ytick_1">
     <g id="line2d_7">
      <defs>
       <path id="m38cd12b9ea" d="M 0 0 
L -3.5 0 
" style="stroke: #000000; stroke-width: 0.8"/>
      </defs>
      <g>
       <use xlink:href="#m38cd12b9ea" x="33.2875" y="221.537555" style="stroke: #000000; stroke-width: 0.8"/>
      </g>
     </g>
     <g id="text_7">
      <!-- 0 -->
      <g transform="translate(19.925 225.336774) scale(0.1 -0.1)">
       <use xlink:href="#DejaVuSans-30"/>
      </g>
     </g>
    </g>
    <g id="ytick_2">
     <g id="line2d_8">
      <g>
       <use xlink:href="#m38cd12b9ea" x="33.2875" y="179.429888" style="stroke: #000000; stroke-width: 0.8"/>
      </g>
     </g>
     <g id="text_8">
      <!-- 20 -->
      <g transform="translate(13.5625 183.229107) scale(0.1 -0.1)">
       <use xlink:href="#DejaVuSans-32"/>
       <use xlink:href="#DejaVuSans-30" x="63.623047"/>
      </g>
     </g>
    </g>
    <g id="ytick_3">
     <g id="line2d_9">
      <g>
       <use xlink:href="#m38cd12b9ea" x="33.2875" y="137.322221" style="stroke: #000000; stroke-width: 0.8"/>
      </g>
     </g>
     <g id="text_9">
      <!-- 40 -->
      <g transform="translate(13.5625 141.121439) scale(0.1 -0.1)">
       <use xlink:href="#DejaVuSans-34"/>
       <use xlink:href="#DejaVuSans-30" x="63.623047"/>
      </g>
     </g>
    </g>
    <g id="ytick_4">
     <g id="line2d_10">
      <g>
       <use xlink:href="#m38cd12b9ea" x="33.2875" y="95.214553" style="stroke: #000000; stroke-width: 0.8"/>
      </g>
     </g>
     <g id="text_10">
      <!-- 60 -->
      <g transform="translate(13.5625 99.013772) scale(0.1 -0.1)">
       <use xlink:href="#DejaVuSans-36"/>
       <use xlink:href="#DejaVuSans-30" x="63.623047"/>
      </g>
     </g>
    </g>
    <g id="ytick_5">
     <g id="line2d_11">
      <g>
       <use xlink:href="#m38cd12b9ea" x="33.2875" y="53.106886" style="stroke: #000000; stroke-width: 0.8"/>
      </g>
     </g>
     <g id="text_11">
      <!-- 80 -->
      <g transform="translate(13.5625 56.906105) scale(0.1 -0.1)">
       <use xlink:href="#DejaVuSans-38"/>
       <use xlink:href="#DejaVuSans-30" x="63.623047"/>
      </g>
     </g>
    </g>
    <g id="ytick_6">
     <g id="line2d_12">
      <g>
       <use xlink:href="#m38cd12b9ea" x="33.2875" y="10.999219" style="stroke: #000000; stroke-width: 0.8"/>
      </g>
     </g>
     <g id="text_12">
      <!-- 100 -->
      <g transform="translate(7.2 14.798438) scale(0.1 -0.1)">
       <use xlink:href="#DejaVuSans-31"/>
       <use xlink:href="#DejaVuSans-30" x="63.623047"/>
       <use xlink:href="#DejaVuSans-30" x="127.246094"/>
      </g>
     </g>
    </g>
   </g>
   <g id="line2d_13">
    <path d="M 48.505682 19.937555 
L 48.810045 21.021811 
L 49.114409 21.206847 
L 49.723136 22.465012 
L 50.0275 23.683607 
L 50.331864 26.068663 
L 50.636227 27.096769 
L 51.244955 27.096769 
L 51.549318 27.724668 
L 51.853682 27.855211 
L 52.158045 29.355879 
L 52.462409 29.66557 
L 52.766773 31.13144 
L 53.071136 31.229874 
L 53.3755 32.146458 
L 53.679864 32.395429 
L 53.984227 33.520495 
L 54.288591 33.904888 
L 54.592955 34.984454 
L 54.897318 34.984454 
L 55.201682 36.276797 
L 55.506045 36.645807 
L 55.810409 36.645807 
L 56.114773 37.292285 
L 56.419136 37.590202 
L 56.7235 37.375136 
L 57.027864 37.982147 
L 57.332227 39.128066 
L 57.636591 39.60605 
L 57.940955 39.868915 
L 58.549682 39.915986 
L 58.854045 40.394862 
L 59.158409 40.408899 
L 59.462773 41.174598 
L 59.767136 41.466734 
L 60.0715 41.466734 
L 60.375864 41.86904 
L 60.680227 41.86904 
L 61.288955 42.216456 
L 61.593318 42.498344 
L 61.897682 43.108759 
L 62.202045 43.264696 
L 62.506409 44.275106 
L 62.810773 44.641709 
L 63.4195 44.932918 
L 63.723864 45.207463 
L 64.636955 45.257557 
L 64.941318 45.257557 
L 65.245682 45.621591 
L 65.854409 45.60568 
L 66.158773 45.714342 
L 66.463136 46.074376 
L 67.071864 46.057039 
L 67.376227 46.25995 
L 70.419864 46.368991 
L 70.724227 46.471791 
L 71.028591 46.803989 
L 71.637318 46.884951 
L 71.941682 46.884951 
L 72.246045 47.159795 
L 72.550409 47.131445 
L 73.159136 47.648579 
L 73.767864 47.646634 
L 74.072227 47.772351 
L 74.376591 48.163202 
L 74.680955 48.163202 
L 75.289682 48.597608 
L 75.594045 48.622882 
L 75.898409 48.963391 
L 76.8115 49.442638 
L 77.420227 49.906961 
L 77.724591 49.906961 
L 78.028955 50.257051 
L 78.333318 50.257051 
L 78.637682 50.868967 
L 78.942045 51.173408 
L 79.246409 51.219367 
L 79.550773 51.991904 
L 81.072591 52.122411 
L 81.376955 52.694043 
L 82.898773 52.719519 
L 83.5075 52.719519 
L 83.811864 53.160295 
L 84.116227 53.283978 
L 84.724955 53.283978 
L 85.029318 53.147825 
L 85.638045 53.147825 
L 85.942409 53.400568 
L 87.159864 53.367503 
L 88.681682 53.392037 
L 88.986045 53.918549 
L 90.507864 54.44955 
L 90.812227 54.961585 
L 91.420955 55.146022 
L 94.768955 55.193633 
L 95.073318 55.554205 
L 95.682045 55.623854 
L 96.595136 55.782619 
L 96.8995 55.656426 
L 98.421318 55.67778 
L 98.725682 56.031188 
L 99.030045 56.031188 
L 99.334409 56.176939 
L 100.856227 56.15552 
L 101.464955 56.426691 
L 102.073682 56.426691 
L 103.5955 56.968675 
L 104.812955 57.345467 
L 105.117318 57.345467 
L 105.421682 57.478417 
L 105.726045 57.478417 
L 106.030409 57.640865 
L 108.160955 57.738181 
L 110.2915 58.178438 
L 110.595864 58.535501 
L 110.900227 58.535501 
L 111.204591 58.696784 
L 113.943864 58.81028 
L 115.465682 59.204701 
L 115.770045 59.491175 
L 118.813682 59.802911 
L 127.335864 59.906778 
L 127.640227 60.121462 
L 130.075136 60.153343 
L 130.988227 60.331091 
L 131.901318 60.451918 
L 134.640591 60.587599 
L 134.944955 60.850142 
L 137.988591 60.972074 
L 138.901682 61.028208 
L 140.727864 61.138917 
L 141.640955 61.224224 
L 152.598045 61.286664 
L 152.902409 61.660989 
L 154.424227 61.80301 
L 155.337318 61.84702 
L 156.250409 61.84702 
L 156.554773 62.170187 
L 157.1635 62.171027 
L 158.076591 62.450896 
L 167.511864 62.550644 
L 168.424955 62.597203 
L 171.164227 62.668798 
L 171.772955 62.743803 
L 173.599136 62.743803 
L 173.9035 62.919361 
L 176.642773 63.02322 
L 177.2515 63.081079 
L 179.686409 63.180881 
L 181.208227 63.254286 
L 184.251864 63.312883 
L 184.556227 63.491317 
L 185.164955 63.579883 
L 185.773682 63.697197 
L 186.686773 63.750797 
L 189.121682 63.808645 
L 190.034773 63.932724 
L 191.860955 63.964269 
L 192.165318 64.151907 
L 200.383136 64.250791 
L 200.6875 64.371794 
L 201.600591 64.371794 
L 202.209318 64.483987 
L 204.339864 64.53487 
L 204.644227 64.679901 
L 208.905318 64.781372 
L 211.035864 64.843019 
L 216.210045 64.944037 
L 218.644955 64.984357 
L 227.167136 65.076006 
L 229.297682 65.27554 
L 229.906409 65.394567 
L 247.863864 65.503247 
L 248.776955 65.555442 
L 257.907864 65.578392 
L 258.212227 221.537555 
L 352.869318 221.537555 
L 352.869318 221.537555 
" clip-path="url(#pe28f7db1ce)" style="fill: none; stroke: #1f77b4; stroke-width: 1.5; stroke-linecap: square"/>
   </g>
   <g id="patch_3">
    <path d="M 33.2875 231.617555 
L 33.2875 9.857555 
" style="fill: none; stroke: #000000; stroke-width: 0.8; stroke-linejoin: miter; stroke-linecap: square"/>
   </g>
   <g id="patch_4">
    <path d="M 368.0875 231.617555 
L 368.0875 9.857555 
" style="fill: none; stroke: #000000; stroke-width: 0.8; stroke-linejoin: miter; stroke-linecap: square"/>
   </g>
   <g id="patch_5">
    <path d="M 33.2875 231.617555 
L 368.0875 231.617555 
" style="fill: none; stroke: #000000; stroke-width: 0.8; stroke-linejoin: miter; stroke-linecap: square"/>
   </g>
   <g id="patch_6">
    <path d="M 33.2875 9.857555 
L 368.0875 9.857555 
" style="fill: none; stroke: #000000; stroke-width: 0.8; stroke-linejoin: miter; stroke-linecap: square"/>
   </g>
  </g>
 </g>
 <defs>
  <clipPath id="pe28f7db1ce">
   <rect x="33.2875" y="9.857555" width="334.8" height="221.76"/>
  </clipPath>
 </defs>
</svg>
