<?xml version="1.0" encoding="utf-8" standalone="no"?>
<!DOCTYPE svg PUBLIC "-//W3C//DTD SVG 1.1//EN"
  "http://www.w3.org/Graphics/SVG/1.1/DTD/svg11.dtd">
<svg xmlns:xlink="http://www.w3.org/1999/xlink" width="376.094131pt" height="255.49568pt" viewBox="0 0 376.094131 255.49568" xmlns="http://www.w3.org/2000/svg" version="1.1">
 <metadata>
  <rdf:RDF xmlns:dc="http://purl.org/dc/elements/1.1/" xmlns:cc="http://creativecommons.org/ns#" xmlns:rdf="http://www.w3.org/1999/02/22-rdf-syntax-ns#">
   <cc:Work>
    <dc:type rdf:resource="http://purl.org/dc/dcmitype/StillImage"/>
    <dc:date>2023-04-18T04:42:47.399067</dc:date>
    <dc:format>image/svg+xml</dc:format>
    <dc:creator>
     <cc:Agent>
      <dc:title>Matplotlib v3.7.1, https://matplotlib.org/</dc:title>
     </cc:Agent>
    </dc:creator>
   </cc:Work>
  </rdf:RDF>
 </metadata>
 <defs>
  <style type="text/css">*{stroke-linejoin: round; stroke-linecap: butt}</style>
 </defs>
 <g id="figure_1">
  <g id="patch_1">
   <path d="M 0 255.49568 
L 376.094131 255.49568 
L 376.094131 0 
L 0 0 
z
" style="fill: #ffffff"/>
  </g>
  <g id="axes_1">
   <g id="patch_2">
    <path d="M 33.2875 231.617555 
L 368.0875 231.617555 
L 368.0875 9.857555 
L 33.2875 9.857555 
z
" style="fill: #ffffff"/>
   </g>
   <g id="matplotlib.axis_1">
    <g id="xtick_1">
     <g id="line2d_1">
      <defs>
       <path id="mdb751ada01" d="M 0 0 
L 0 3.5 
" style="stroke: #000000; stroke-width: 0.8"/>
      </defs>
      <g>
       <use xlink:href="#mdb751ada01" x="48.505682" y="231.617555" style="stroke: #000000; stroke-width: 0.8"/>
      </g>
     </g>
     <g id="text_1">
      <!-- 0 -->
      <g transform="translate(45.324432 246.215993) scale(0.1 -0.1)">
       <defs>
        <path id="DejaVuSans-30" d="M 2034 4250 
Q 1547 4250 1301 3770 
Q 1056 3291 1056 2328 
Q 1056 1369 1301 889 
Q 1547 409 2034 409 
Q 2525 409 2770 889 
Q 3016 1369 3016 2328 
Q 3016 3291 2770 3770 
Q 2525 4250 2034 4250 
z
M 2034 4750 
Q 2819 4750 3233 4129 
Q 3647 3509 3647 2328 
Q 3647 1150 3233 529 
Q 2819 -91 2034 -91 
Q 1250 -91 836 529 
Q 422 1150 422 2328 
Q 422 3509 836 4129 
Q 1250 4750 2034 4750 
z
" transform="scale(0.015625)"/>
       </defs>
       <use xlink:href="#DejaVuSans-30"/>
      </g>
     </g>
    </g>
    <g id="xtick_2">
     <g id="line2d_2">
      <g>
       <use xlink:href="#mdb751ada01" x="87.361269" y="231.617555" style="stroke: #000000; stroke-width: 0.8"/>
      </g>
     </g>
     <g id="text_2">
      <!-- 20 -->
      <g transform="translate(80.998769 246.215993) scale(0.1 -0.1)">
       <defs>
        <path id="DejaVuSans-32" d="M 1228 531 
L 3431 531 
L 3431 0 
L 469 0 
L 469 531 
Q 828 903 1448 1529 
Q 2069 2156 2228 2338 
Q 2531 2678 2651 2914 
Q 2772 3150 2772 3378 
Q 2772 3750 2511 3984 
Q 2250 4219 1831 4219 
Q 1534 4219 1204 4116 
Q 875 4013 500 3803 
L 500 4441 
Q 881 4594 1212 4672 
Q 1544 4750 1819 4750 
Q 2544 4750 2975 4387 
Q 3406 4025 3406 3419 
Q 3406 3131 3298 2873 
Q 3191 2616 2906 2266 
Q 2828 2175 2409 1742 
Q 1991 1309 1228 531 
z
" transform="scale(0.015625)"/>
       </defs>
       <use xlink:href="#DejaVuSans-32"/>
       <use xlink:href="#DejaVuSans-30" x="63.623047"/>
      </g>
     </g>
    </g>
    <g id="xtick_3">
     <g id="line2d_3">
      <g>
       <use xlink:href="#mdb751ada01" x="126.216857" y="231.617555" style="stroke: #000000; stroke-width: 0.8"/>
      </g>
     </g>
     <g id="text_3">
      <!-- 40 -->
      <g transform="translate(119.854357 246.215993) scale(0.1 -0.1)">
       <defs>
        <path id="DejaVuSans-34" d="M 2419 4116 
L 825 1625 
L 2419 1625 
L 2419 4116 
z
M 2253 4666 
L 3047 4666 
L 3047 1625 
L 3713 1625 
L 3713 1100 
L 3047 1100 
L 3047 0 
L 2419 0 
L 2419 1100 
L 313 1100 
L 313 1709 
L 2253 4666 
z
" transform="scale(0.015625)"/>
       </defs>
       <use xlink:href="#DejaVuSans-34"/>
       <use xlink:href="#DejaVuSans-30" x="63.623047"/>
      </g>
     </g>
    </g>
    <g id="xtick_4">
     <g id="line2d_4">
      <g>
       <use xlink:href="#mdb751ada01" x="165.072444" y="231.617555" style="stroke: #000000; stroke-width: 0.8"/>
      </g>
     </g>
     <g id="text_4">
      <!-- 60 -->
      <g transform="translate(158.709944 246.215993) scale(0.1 -0.1)">
       <defs>
        <path id="DejaVuSans-36" d="M 2113 2584 
Q 1688 2584 1439 2293 
Q 1191 2003 1191 1497 
Q 1191 994 1439 701 
Q 1688 409 2113 409 
Q 2538 409 2786 701 
Q 3034 994 3034 1497 
Q 3034 2003 2786 2293 
Q 2538 2584 2113 2584 
z
M 3366 4563 
L 3366 3988 
Q 3128 4100 2886 4159 
Q 2644 4219 2406 4219 
Q 1781 4219 1451 3797 
Q 1122 3375 1075 2522 
Q 1259 2794 1537 2939 
Q 1816 3084 2150 3084 
Q 2853 3084 3261 2657 
Q 3669 2231 3669 1497 
Q 3669 778 3244 343 
Q 2819 -91 2113 -91 
Q 1303 -91 875 529 
Q 447 1150 447 2328 
Q 447 3434 972 4092 
Q 1497 4750 2381 4750 
Q 2619 4750 2861 4703 
Q 3103 4656 3366 4563 
z
" transform="scale(0.015625)"/>
       </defs>
       <use xlink:href="#DejaVuSans-36"/>
       <use xlink:href="#DejaVuSans-30" x="63.623047"/>
      </g>
     </g>
    </g>
    <g id="xtick_5">
     <g id="line2d_5">
      <g>
       <use xlink:href="#mdb751ada01" x="203.928032" y="231.617555" style="stroke: #000000; stroke-width: 0.8"/>
      </g>
     </g>
     <g id="text_5">
      <!-- 80 -->
      <g transform="translate(197.565532 246.215993) scale(0.1 -0.1)">
       <defs>
        <path id="DejaVuSans-38" d="M 2034 2216 
Q 1584 2216 1326 1975 
Q 1069 1734 1069 1313 
Q 1069 891 1326 650 
Q 1584 409 2034 409 
Q 2484 409 2743 651 
Q 3003 894 3003 1313 
Q 3003 1734 2745 1975 
Q 2488 2216 2034 2216 
z
M 1403 2484 
Q 997 2584 770 2862 
Q 544 3141 544 3541 
Q 544 4100 942 4425 
Q 1341 4750 2034 4750 
Q 2731 4750 3128 4425 
Q 3525 4100 3525 3541 
Q 3525 3141 3298 2862 
Q 3072 2584 2669 2484 
Q 3125 2378 3379 2068 
Q 3634 1759 3634 1313 
Q 3634 634 3220 271 
Q 2806 -91 2034 -91 
Q 1263 -91 848 271 
Q 434 634 434 1313 
Q 434 1759 690 2068 
Q 947 2378 1403 2484 
z
M 1172 3481 
Q 1172 3119 1398 2916 
Q 1625 2713 2034 2713 
Q 2441 2713 2670 2916 
Q 2900 3119 2900 3481 
Q 2900 3844 2670 4047 
Q 2441 4250 2034 4250 
Q 1625 4250 1398 4047 
Q 1172 3844 1172 3481 
z
" transform="scale(0.015625)"/>
       </defs>
       <use xlink:href="#DejaVuSans-38"/>
       <use xlink:href="#DejaVuSans-30" x="63.623047"/>
      </g>
     </g>
    </g>
    <g id="xtick_6">
     <g id="line2d_6">
      <g>
       <use xlink:href="#mdb751ada01" x="242.783619" y="231.617555" style="stroke: #000000; stroke-width: 0.8"/>
      </g>
     </g>
     <g id="text_6">
      <!-- 100 -->
      <g transform="translate(233.239869 246.215993) scale(0.1 -0.1)">
       <defs>
        <path id="DejaVuSans-31" d="M 794 531 
L 1825 531 
L 1825 4091 
L 703 3866 
L 703 4441 
L 1819 4666 
L 2450 4666 
L 2450 531 
L 3481 531 
L 3481 0 
L 794 0 
L 794 531 
z
" transform="scale(0.015625)"/>
       </defs>
       <use xlink:href="#DejaVuSans-31"/>
       <use xlink:href="#DejaVuSans-30" x="63.623047"/>
       <use xlink:href="#DejaVuSans-30" x="127.246094"/>
      </g>
     </g>
    </g>
    <g id="xtick_7">
     <g id="line2d_7">
      <g>
       <use xlink:href="#mdb751ada01" x="281.639207" y="231.617555" style="stroke: #000000; stroke-width: 0.8"/>
      </g>
     </g>
     <g id="text_7">
      <!-- 120 -->
      <g transform="translate(272.095457 246.215993) scale(0.1 -0.1)">
       <use xlink:href="#DejaVuSans-31"/>
       <use xlink:href="#DejaVuSans-32" x="63.623047"/>
       <use xlink:href="#DejaVuSans-30" x="127.246094"/>
      </g>
     </g>
    </g>
    <g id="xtick_8">
     <g id="line2d_8">
      <g>
       <use xlink:href="#mdb751ada01" x="320.494794" y="231.617555" style="stroke: #000000; stroke-width: 0.8"/>
      </g>
     </g>
     <g id="text_8">
      <!-- 140 -->
      <g transform="translate(310.951044 246.215993) scale(0.1 -0.1)">
       <use xlink:href="#DejaVuSans-31"/>
       <use xlink:href="#DejaVuSans-34" x="63.623047"/>
       <use xlink:href="#DejaVuSans-30" x="127.246094"/>
      </g>
     </g>
    </g>
    <g id="xtick_9">
     <g id="line2d_9">
      <g>
       <use xlink:href="#mdb751ada01" x="359.350381" y="231.617555" style="stroke: #000000; stroke-width: 0.8"/>
      </g>
     </g>
     <g id="text_9">
      <!-- 160 -->
      <g transform="translate(349.806631 246.215993) scale(0.1 -0.1)">
       <use xlink:href="#DejaVuSans-31"/>
       <use xlink:href="#DejaVuSans-36" x="63.623047"/>
       <use xlink:href="#DejaVuSans-30" x="127.246094"/>
      </g>
     </g>
    </g>
   </g>
   <g id="matplotlib.axis_2">
    <g id="ytick_1">
     <g id="line2d_10">
      <defs>
       <path id="m02379c3b07" d="M 0 0 
L -3.5 0 
" style="stroke: #000000; stroke-width: 0.8"/>
      </defs>
      <g>
       <use xlink:href="#m02379c3b07" x="33.2875" y="221.537555" style="stroke: #000000; stroke-width: 0.8"/>
      </g>
     </g>
     <g id="text_10">
      <!-- 0 -->
      <g transform="translate(19.925 225.336774) scale(0.1 -0.1)">
       <use xlink:href="#DejaVuSans-30"/>
      </g>
     </g>
    </g>
    <g id="ytick_2">
     <g id="line2d_11">
      <g>
       <use xlink:href="#m02379c3b07" x="33.2875" y="179.429888" style="stroke: #000000; stroke-width: 0.8"/>
      </g>
     </g>
     <g id="text_11">
      <!-- 20 -->
      <g transform="translate(13.5625 183.229107) scale(0.1 -0.1)">
       <use xlink:href="#DejaVuSans-32"/>
       <use xlink:href="#DejaVuSans-30" x="63.623047"/>
      </g>
     </g>
    </g>
    <g id="ytick_3">
     <g id="line2d_12">
      <g>
       <use xlink:href="#m02379c3b07" x="33.2875" y="137.322221" style="stroke: #000000; stroke-width: 0.8"/>
      </g>
     </g>
     <g id="text_12">
      <!-- 40 -->
      <g transform="translate(13.5625 141.121439) scale(0.1 -0.1)">
       <use xlink:href="#DejaVuSans-34"/>
       <use xlink:href="#DejaVuSans-30" x="63.623047"/>
      </g>
     </g>
    </g>
    <g id="ytick_4">
     <g id="line2d_13">
      <g>
       <use xlink:href="#m02379c3b07" x="33.2875" y="95.214553" style="stroke: #000000; stroke-width: 0.8"/>
      </g>
     </g>
     <g id="text_13">
      <!-- 60 -->
      <g transform="translate(13.5625 99.013772) scale(0.1 -0.1)">
       <use xlink:href="#DejaVuSans-36"/>
       <use xlink:href="#DejaVuSans-30" x="63.623047"/>
      </g>
     </g>
    </g>
    <g id="ytick_5">
     <g id="line2d_14">
      <g>
       <use xlink:href="#m02379c3b07" x="33.2875" y="53.106886" style="stroke: #000000; stroke-width: 0.8"/>
      </g>
     </g>
     <g id="text_14">
      <!-- 80 -->
      <g transform="translate(13.5625 56.906105) scale(0.1 -0.1)">
       <use xlink:href="#DejaVuSans-38"/>
       <use xlink:href="#DejaVuSans-30" x="63.623047"/>
      </g>
     </g>
    </g>
    <g id="ytick_6">
     <g id="line2d_15">
      <g>
       <use xlink:href="#m02379c3b07" x="33.2875" y="10.999219" style="stroke: #000000; stroke-width: 0.8"/>
      </g>
     </g>
     <g id="text_15">
      <!-- 100 -->
      <g transform="translate(7.2 14.798438) scale(0.1 -0.1)">
       <use xlink:href="#DejaVuSans-31"/>
       <use xlink:href="#DejaVuSans-30" x="63.623047"/>
       <use xlink:href="#DejaVuSans-30" x="127.246094"/>
      </g>
     </g>
    </g>
   </g>
   <g id="line2d_16">
    <path d="M 48.588773 19.937555 
L 49.03275 21.021811 
L 49.469547 21.206847 
L 50.343095 22.465012 
L 50.782002 23.683607 
L 51.212387 26.068663 
L 51.649433 27.096769 
L 52.509725 27.096769 
L 52.936888 27.724668 
L 53.372762 27.855211 
L 53.794904 29.355879 
L 54.223554 29.66557 
L 54.678626 31.13144 
L 55.12743 31.229874 
L 55.567395 32.146458 
L 56.000715 32.395429 
L 56.432153 33.520495 
L 56.86097 33.904888 
L 57.287909 34.984454 
L 57.724871 34.984454 
L 58.182588 36.276797 
L 58.616069 36.645807 
L 59.057022 36.645807 
L 59.480763 37.292285 
L 59.908441 37.590202 
L 60.341109 37.375136 
L 60.766115 37.982147 
L 61.18747 39.128066 
L 61.613725 39.60605 
L 62.043087 39.868915 
L 62.911747 39.915986 
L 63.340652 40.394862 
L 63.772151 40.408899 
L 64.204637 41.174598 
L 64.634374 41.466734 
L 65.058955 41.466734 
L 65.485575 41.86904 
L 65.915186 41.86904 
L 66.81034 42.216456 
L 67.240296 42.498344 
L 67.665896 43.108759 
L 68.101101 43.264696 
L 68.535648 44.275106 
L 68.966213 44.641709 
L 69.817142 44.932918 
L 70.248531 45.207463 
L 71.540318 45.257557 
L 71.971931 45.257557 
L 72.405486 45.621591 
L 73.263044 45.60568 
L 73.690756 45.714342 
L 74.123654 46.074376 
L 74.979282 46.057039 
L 75.41155 46.25995 
L 79.752363 46.368991 
L 80.181551 46.471791 
L 80.61183 46.803989 
L 81.498 46.884951 
L 81.923463 46.884951 
L 82.351246 47.159795 
L 82.79653 47.131445 
L 83.694751 47.648579 
L 84.583258 47.646634 
L 85.019494 47.772351 
L 85.445032 48.163202 
L 85.872212 48.163202 
L 86.734717 48.597608 
L 87.178876 48.622882 
L 87.603833 48.963391 
L 88.914209 49.442638 
L 89.788825 49.906961 
L 90.223545 49.906961 
L 90.657453 50.257051 
L 91.087269 50.257051 
L 91.517139 50.868967 
L 91.948686 51.173408 
L 92.379622 51.219367 
L 92.807284 51.991904 
L 94.950789 52.122411 
L 95.399188 52.694043 
L 97.590174 52.719519 
L 98.465802 52.719519 
L 98.897072 53.160295 
L 99.329958 53.283978 
L 100.190718 53.283978 
L 100.623653 53.147825 
L 101.480137 53.147825 
L 101.908255 53.400568 
L 103.624365 53.367503 
L 105.926875 53.392037 
L 106.369731 53.918549 
L 108.758289 54.44955 
L 109.244618 54.961585 
L 110.81212 55.146022 
L 115.153818 55.193633 
L 115.586632 55.554205 
L 116.445434 55.623854 
L 117.746276 55.782619 
L 118.188574 55.656426 
L 120.370698 55.67778 
L 120.949088 56.031188 
L 121.470668 56.031188 
L 121.912425 56.176939 
L 124.109924 56.15552 
L 124.981278 56.426691 
L 125.837106 56.426691 
L 127.585094 56.968675 
L 128.027863 56.968675 
L 129.779042 57.345467 
L 130.21008 57.345467 
L 130.653044 57.478417 
L 131.096788 57.478417 
L 131.538172 57.640865 
L 134.569483 57.738181 
L 137.166084 58.178438 
L 137.759616 58.178438 
L 138.187657 58.535501 
L 138.618494 58.535501 
L 139.052798 58.696784 
L 144.002614 58.874385 
L 145.773651 59.204701 
L 146.210977 59.491175 
L 150.555118 59.802911 
L 162.90356 59.906778 
L 163.342623 60.121462 
L 166.996762 60.153343 
L 168.283227 60.331091 
L 169.590939 60.451918 
L 173.496705 60.587599 
L 173.926834 60.850142 
L 178.283066 60.972074 
L 179.5878 61.028208 
L 182.234656 61.138917 
L 183.625137 61.224224 
L 200.047868 61.286664 
L 200.474959 61.660989 
L 202.639386 61.80301 
L 203.936438 61.84702 
L 205.241751 61.84702 
L 205.675523 62.170187 
L 206.547708 62.171027 
L 207.823491 62.450896 
L 221.822162 62.550644 
L 223.136925 62.597203 
L 227.063501 62.668798 
L 227.937177 62.743803 
L 230.532011 62.743803 
L 230.969704 62.919361 
L 235.014996 63.02322 
L 235.884402 63.081079 
L 239.401357 63.180881 
L 241.587444 63.254286 
L 245.906402 63.312883 
L 246.33428 63.491317 
L 247.186483 63.579883 
L 247.614128 63.697197 
L 252.073539 63.76913 
L 255.40919 63.932724 
L 257.157296 63.964269 
L 257.583427 64.151907 
L 269.434641 64.250791 
L 269.859216 64.371794 
L 271.158973 64.371794 
L 272.014586 64.483987 
L 275.029774 64.53487 
L 275.457642 64.679901 
L 281.594464 64.781372 
L 284.648411 64.843019 
L 292.384754 64.944037 
L 295.848046 64.984357 
L 308.589831 65.076006 
L 311.634054 65.27554 
L 312.065923 65.394567 
L 338.32938 65.503247 
L 339.210821 65.555442 
L 352.869318 65.578392 
L 48.505682 221.537555 
L 48.505682 221.537555 
" clip-path="url(#pa097744c58)" style="fill: none; stroke: #1f77b4; stroke-width: 1.5; stroke-linecap: square"/>
   </g>
   <g id="patch_3">
    <path d="M 33.2875 231.617555 
L 33.2875 9.857555 
" style="fill: none; stroke: #000000; stroke-width: 0.8; stroke-linejoin: miter; stroke-linecap: square"/>
   </g>
   <g id="patch_4">
    <path d="M 368.0875 231.617555 
L 368.0875 9.857555 
" style="fill: none; stroke: #000000; stroke-width: 0.8; stroke-linejoin: miter; stroke-linecap: square"/>
   </g>
   <g id="patch_5">
    <path d="M 33.2875 231.617555 
L 368.0875 231.617555 
" style="fill: none; stroke: #000000; stroke-width: 0.8; stroke-linejoin: miter; stroke-linecap: square"/>
   </g>
   <g id="patch_6">
    <path d="M 33.2875 9.857555 
L 368.0875 9.857555 
" style="fill: none; stroke: #000000; stroke-width: 0.8; stroke-linejoin: miter; stroke-linecap: square"/>
   </g>
  </g>
 </g>
 <defs>
  <clipPath id="pa097744c58">
   <rect x="33.2875" y="9.857555" width="334.8" height="221.76"/>
  </clipPath>
 </defs>
</svg>
