<?xml version="1.0" encoding="utf-8" standalone="no"?>
<!DOCTYPE svg PUBLIC "-//W3C//DTD SVG 1.1//EN"
  "http://www.w3.org/Graphics/SVG/1.1/DTD/svg11.dtd">
<svg xmlns:xlink="http://www.w3.org/1999/xlink" width="368.925pt" height="252.838125pt" viewBox="0 0 368.925 252.838125" xmlns="http://www.w3.org/2000/svg" version="1.1">
 <metadata>
  <rdf:RDF xmlns:dc="http://purl.org/dc/elements/1.1/" xmlns:cc="http://creativecommons.org/ns#" xmlns:rdf="http://www.w3.org/1999/02/22-rdf-syntax-ns#">
   <cc:Work>
    <dc:type rdf:resource="http://purl.org/dc/dcmitype/StillImage"/>
    <dc:date>2023-04-18T05:56:34.727141</dc:date>
    <dc:format>image/svg+xml</dc:format>
    <dc:creator>
     <cc:Agent>
      <dc:title>Matplotlib v3.7.1, https://matplotlib.org/</dc:title>
     </cc:Agent>
    </dc:creator>
   </cc:Work>
  </rdf:RDF>
 </metadata>
 <defs>
  <style type="text/css">*{stroke-linejoin: round; stroke-linecap: butt}</style>
 </defs>
 <g id="figure_1">
  <g id="patch_1">
   <path d="M -0 252.838125 
L 368.925 252.838125 
L 368.925 0 
L -0 0 
z
" style="fill: #ffffff"/>
  </g>
  <g id="axes_1">
   <g id="patch_2">
    <path d="M 26.925 228.96 
L 361.725 228.96 
L 361.725 7.2 
L 26.925 7.2 
z
" style="fill: #ffffff"/>
   </g>
   <g id="matplotlib.axis_1">
    <g id="xtick_1">
     <g id="line2d_1">
      <defs>
       <path id="m6d7622fb67" d="M 0 0 
L 0 3.5 
" style="stroke: #000000; stroke-width: 0.8"/>
      </defs>
      <g>
       <use xlink:href="#m6d7622fb67" x="42.143182" y="228.96" style="stroke: #000000; stroke-width: 0.8"/>
      </g>
     </g>
     <g id="text_1">
      <!-- 0 -->
      <g transform="translate(38.961932 243.558437) scale(0.1 -0.1)">
       <defs>
        <path id="DejaVuSans-30" d="M 2034 4250 
Q 1547 4250 1301 3770 
Q 1056 3291 1056 2328 
Q 1056 1369 1301 889 
Q 1547 409 2034 409 
Q 2525 409 2770 889 
Q 3016 1369 3016 2328 
Q 3016 3291 2770 3770 
Q 2525 4250 2034 4250 
z
M 2034 4750 
Q 2819 4750 3233 4129 
Q 3647 3509 3647 2328 
Q 3647 1150 3233 529 
Q 2819 -91 2034 -91 
Q 1250 -91 836 529 
Q 422 1150 422 2328 
Q 422 3509 836 4129 
Q 1250 4750 2034 4750 
z
" transform="scale(0.015625)"/>
       </defs>
       <use xlink:href="#DejaVuSans-30"/>
      </g>
     </g>
    </g>
    <g id="xtick_2">
     <g id="line2d_2">
      <g>
       <use xlink:href="#m6d7622fb67" x="103.015909" y="228.96" style="stroke: #000000; stroke-width: 0.8"/>
      </g>
     </g>
     <g id="text_2">
      <!-- 200 -->
      <g transform="translate(93.472159 243.558437) scale(0.1 -0.1)">
       <defs>
        <path id="DejaVuSans-32" d="M 1228 531 
L 3431 531 
L 3431 0 
L 469 0 
L 469 531 
Q 828 903 1448 1529 
Q 2069 2156 2228 2338 
Q 2531 2678 2651 2914 
Q 2772 3150 2772 3378 
Q 2772 3750 2511 3984 
Q 2250 4219 1831 4219 
Q 1534 4219 1204 4116 
Q 875 4013 500 3803 
L 500 4441 
Q 881 4594 1212 4672 
Q 1544 4750 1819 4750 
Q 2544 4750 2975 4387 
Q 3406 4025 3406 3419 
Q 3406 3131 3298 2873 
Q 3191 2616 2906 2266 
Q 2828 2175 2409 1742 
Q 1991 1309 1228 531 
z
" transform="scale(0.015625)"/>
       </defs>
       <use xlink:href="#DejaVuSans-32"/>
       <use xlink:href="#DejaVuSans-30" x="63.623047"/>
       <use xlink:href="#DejaVuSans-30" x="127.246094"/>
      </g>
     </g>
    </g>
    <g id="xtick_3">
     <g id="line2d_3">
      <g>
       <use xlink:href="#m6d7622fb67" x="163.888636" y="228.96" style="stroke: #000000; stroke-width: 0.8"/>
      </g>
     </g>
     <g id="text_3">
      <!-- 400 -->
      <g transform="translate(154.344886 243.558437) scale(0.1 -0.1)">
       <defs>
        <path id="DejaVuSans-34" d="M 2419 4116 
L 825 1625 
L 2419 1625 
L 2419 4116 
z
M 2253 4666 
L 3047 4666 
L 3047 1625 
L 3713 1625 
L 3713 1100 
L 3047 1100 
L 3047 0 
L 2419 0 
L 2419 1100 
L 313 1100 
L 313 1709 
L 2253 4666 
z
" transform="scale(0.015625)"/>
       </defs>
       <use xlink:href="#DejaVuSans-34"/>
       <use xlink:href="#DejaVuSans-30" x="63.623047"/>
       <use xlink:href="#DejaVuSans-30" x="127.246094"/>
      </g>
     </g>
    </g>
    <g id="xtick_4">
     <g id="line2d_4">
      <g>
       <use xlink:href="#m6d7622fb67" x="224.761364" y="228.96" style="stroke: #000000; stroke-width: 0.8"/>
      </g>
     </g>
     <g id="text_4">
      <!-- 600 -->
      <g transform="translate(215.217614 243.558437) scale(0.1 -0.1)">
       <defs>
        <path id="DejaVuSans-36" d="M 2113 2584 
Q 1688 2584 1439 2293 
Q 1191 2003 1191 1497 
Q 1191 994 1439 701 
Q 1688 409 2113 409 
Q 2538 409 2786 701 
Q 3034 994 3034 1497 
Q 3034 2003 2786 2293 
Q 2538 2584 2113 2584 
z
M 3366 4563 
L 3366 3988 
Q 3128 4100 2886 4159 
Q 2644 4219 2406 4219 
Q 1781 4219 1451 3797 
Q 1122 3375 1075 2522 
Q 1259 2794 1537 2939 
Q 1816 3084 2150 3084 
Q 2853 3084 3261 2657 
Q 3669 2231 3669 1497 
Q 3669 778 3244 343 
Q 2819 -91 2113 -91 
Q 1303 -91 875 529 
Q 447 1150 447 2328 
Q 447 3434 972 4092 
Q 1497 4750 2381 4750 
Q 2619 4750 2861 4703 
Q 3103 4656 3366 4563 
z
" transform="scale(0.015625)"/>
       </defs>
       <use xlink:href="#DejaVuSans-36"/>
       <use xlink:href="#DejaVuSans-30" x="63.623047"/>
       <use xlink:href="#DejaVuSans-30" x="127.246094"/>
      </g>
     </g>
    </g>
    <g id="xtick_5">
     <g id="line2d_5">
      <g>
       <use xlink:href="#m6d7622fb67" x="285.634091" y="228.96" style="stroke: #000000; stroke-width: 0.8"/>
      </g>
     </g>
     <g id="text_5">
      <!-- 800 -->
      <g transform="translate(276.090341 243.558437) scale(0.1 -0.1)">
       <defs>
        <path id="DejaVuSans-38" d="M 2034 2216 
Q 1584 2216 1326 1975 
Q 1069 1734 1069 1313 
Q 1069 891 1326 650 
Q 1584 409 2034 409 
Q 2484 409 2743 651 
Q 3003 894 3003 1313 
Q 3003 1734 2745 1975 
Q 2488 2216 2034 2216 
z
M 1403 2484 
Q 997 2584 770 2862 
Q 544 3141 544 3541 
Q 544 4100 942 4425 
Q 1341 4750 2034 4750 
Q 2731 4750 3128 4425 
Q 3525 4100 3525 3541 
Q 3525 3141 3298 2862 
Q 3072 2584 2669 2484 
Q 3125 2378 3379 2068 
Q 3634 1759 3634 1313 
Q 3634 634 3220 271 
Q 2806 -91 2034 -91 
Q 1263 -91 848 271 
Q 434 634 434 1313 
Q 434 1759 690 2068 
Q 947 2378 1403 2484 
z
M 1172 3481 
Q 1172 3119 1398 2916 
Q 1625 2713 2034 2713 
Q 2441 2713 2670 2916 
Q 2900 3119 2900 3481 
Q 2900 3844 2670 4047 
Q 2441 4250 2034 4250 
Q 1625 4250 1398 4047 
Q 1172 3844 1172 3481 
z
" transform="scale(0.015625)"/>
       </defs>
       <use xlink:href="#DejaVuSans-38"/>
       <use xlink:href="#DejaVuSans-30" x="63.623047"/>
       <use xlink:href="#DejaVuSans-30" x="127.246094"/>
      </g>
     </g>
    </g>
    <g id="xtick_6">
     <g id="line2d_6">
      <g>
       <use xlink:href="#m6d7622fb67" x="346.506818" y="228.96" style="stroke: #000000; stroke-width: 0.8"/>
      </g>
     </g>
     <g id="text_6">
      <!-- 1000 -->
      <g transform="translate(333.781818 243.558437) scale(0.1 -0.1)">
       <defs>
        <path id="DejaVuSans-31" d="M 794 531 
L 1825 531 
L 1825 4091 
L 703 3866 
L 703 4441 
L 1819 4666 
L 2450 4666 
L 2450 531 
L 3481 531 
L 3481 0 
L 794 0 
L 794 531 
z
" transform="scale(0.015625)"/>
       </defs>
       <use xlink:href="#DejaVuSans-31"/>
       <use xlink:href="#DejaVuSans-30" x="63.623047"/>
       <use xlink:href="#DejaVuSans-30" x="127.246094"/>
       <use xlink:href="#DejaVuSans-30" x="190.869141"/>
      </g>
     </g>
    </g>
   </g>
   <g id="matplotlib.axis_2">
    <g id="ytick_1">
     <g id="line2d_7">
      <defs>
       <path id="m433e7b8954" d="M 0 0 
L -3.5 0 
" style="stroke: #000000; stroke-width: 0.8"/>
      </defs>
      <g>
       <use xlink:href="#m433e7b8954" x="26.925" y="218.88" style="stroke: #000000; stroke-width: 0.8"/>
      </g>
     </g>
     <g id="text_7">
      <!-- 0 -->
      <g transform="translate(13.5625 222.679219) scale(0.1 -0.1)">
       <use xlink:href="#DejaVuSans-30"/>
      </g>
     </g>
    </g>
    <g id="ytick_2">
     <g id="line2d_8">
      <g>
       <use xlink:href="#m433e7b8954" x="26.925" y="176.475606" style="stroke: #000000; stroke-width: 0.8"/>
      </g>
     </g>
     <g id="text_8">
      <!-- 20 -->
      <g transform="translate(7.2 180.274825) scale(0.1 -0.1)">
       <use xlink:href="#DejaVuSans-32"/>
       <use xlink:href="#DejaVuSans-30" x="63.623047"/>
      </g>
     </g>
    </g>
    <g id="ytick_3">
     <g id="line2d_9">
      <g>
       <use xlink:href="#m433e7b8954" x="26.925" y="134.071212" style="stroke: #000000; stroke-width: 0.8"/>
      </g>
     </g>
     <g id="text_9">
      <!-- 40 -->
      <g transform="translate(7.2 137.870431) scale(0.1 -0.1)">
       <use xlink:href="#DejaVuSans-34"/>
       <use xlink:href="#DejaVuSans-30" x="63.623047"/>
      </g>
     </g>
    </g>
    <g id="ytick_4">
     <g id="line2d_10">
      <g>
       <use xlink:href="#m433e7b8954" x="26.925" y="91.666818" style="stroke: #000000; stroke-width: 0.8"/>
      </g>
     </g>
     <g id="text_10">
      <!-- 60 -->
      <g transform="translate(7.2 95.466037) scale(0.1 -0.1)">
       <use xlink:href="#DejaVuSans-36"/>
       <use xlink:href="#DejaVuSans-30" x="63.623047"/>
      </g>
     </g>
    </g>
    <g id="ytick_5">
     <g id="line2d_11">
      <g>
       <use xlink:href="#m433e7b8954" x="26.925" y="49.262424" style="stroke: #000000; stroke-width: 0.8"/>
      </g>
     </g>
     <g id="text_11">
      <!-- 80 -->
      <g transform="translate(7.2 53.061643) scale(0.1 -0.1)">
       <use xlink:href="#DejaVuSans-38"/>
       <use xlink:href="#DejaVuSans-30" x="63.623047"/>
      </g>
     </g>
    </g>
   </g>
   <g id="line2d_12">
    <path d="M 42.143182 17.28 
L 42.447545 19.362265 
L 42.751909 19.561205 
L 43.665 19.654899 
L 43.969364 19.738578 
L 44.273727 19.963691 
L 44.578091 20.657294 
L 45.186818 20.740978 
L 45.795545 21.664613 
L 46.099909 22.433505 
L 46.404273 22.530141 
L 47.013 23.66677 
L 47.317364 24.223828 
L 47.621727 24.372066 
L 48.230455 25.849811 
L 48.839182 26.03664 
L 49.143545 26.716036 
L 49.447909 26.716036 
L 49.752273 27.226953 
L 50.056636 27.412101 
L 53.404636 27.412101 
L 53.709 27.635842 
L 54.013364 27.685383 
L 54.317727 28.052223 
L 54.622091 28.052223 
L 54.926455 28.336926 
L 55.230818 28.45537 
L 55.535182 28.865653 
L 55.839545 28.988624 
L 56.143909 29.446945 
L 56.752636 30.85351 
L 57.057 31.088259 
L 57.361364 31.463478 
L 57.970091 31.536531 
L 58.274455 31.664552 
L 58.883182 32.542751 
L 60.100636 32.598939 
L 60.709364 32.99657 
L 61.622455 33.138259 
L 61.926818 33.335812 
L 63.753 33.335812 
L 64.057364 33.990987 
L 64.970455 34.435055 
L 66.187909 34.498532 
L 66.492273 34.619651 
L 67.405364 34.619651 
L 67.709727 34.835952 
L 69.535909 34.873698 
L 69.840273 35.562309 
L 70.449 35.692723 
L 70.753364 36.025816 
L 72.579545 36.93794 
L 72.883909 36.93794 
L 73.797 37.302857 
L 74.101364 37.302857 
L 74.405727 37.462312 
L 75.318818 37.543822 
L 76.231909 37.927032 
L 76.536273 37.927032 
L 76.840636 38.183063 
L 78.058091 38.599283 
L 78.362455 39.06172 
L 79.275545 39.444581 
L 80.188636 40.446655 
L 82.319182 40.50421 
L 82.623545 41.228001 
L 83.232273 41.335543 
L 83.536636 41.618429 
L 85.971545 41.635983 
L 87.493364 42.293281 
L 88.102091 42.300188 
L 88.406455 42.842332 
L 88.710818 43.054284 
L 89.928273 43.255515 
L 92.058818 43.319224 
L 92.363182 43.477838 
L 92.667545 43.764262 
L 93.580636 43.854145 
L 94.189364 44.057484 
L 95.711182 44.039546 
L 96.624273 44.338061 
L 97.233 44.421577 
L 97.537364 44.421577 
L 98.146091 44.644535 
L 99.059182 44.644535 
L 99.972273 45.065119 
L 100.276636 45.095152 
L 100.581 45.334366 
L 101.798455 45.57424 
L 102.407182 45.744168 
L 103.320273 45.930914 
L 104.537727 46.076746 
L 106.363909 46.223482 
L 106.668273 46.606488 
L 107.277 46.743393 
L 107.885727 46.991852 
L 111.233727 47.074087 
L 111.538091 47.352584 
L 113.059909 47.438332 
L 114.277364 47.56352 
L 114.581727 47.567645 
L 114.886091 47.826075 
L 115.494818 47.826075 
L 116.103545 48.065801 
L 116.712273 48.080476 
L 117.625364 48.521506 
L 118.538455 48.780105 
L 118.842818 49.07021 
L 119.451545 49.094749 
L 121.277727 49.75926 
L 121.886455 49.759079 
L 125.843182 49.856078 
L 126.451909 49.952966 
L 127.060636 50.034088 
L 127.669364 50.162545 
L 127.973727 50.150635 
L 128.582455 50.252306 
L 130.408636 50.620325 
L 133.147909 50.720917 
L 133.756636 50.899461 
L 134.365364 50.966151 
L 136.191545 51.012536 
L 136.800273 51.346644 
L 137.713364 51.403497 
L 138.322091 51.399021 
L 138.626455 51.528881 
L 139.843909 51.581849 
L 140.757 51.581849 
L 141.670091 52.000348 
L 143.496273 52.03878 
L 144.105 52.131325 
L 145.322455 52.160567 
L 145.931182 52.395279 
L 146.235545 52.567977 
L 146.844273 52.570301 
L 147.148636 52.784653 
L 148.366091 52.900898 
L 148.670455 53.14034 
L 149.279182 53.240648 
L 149.583545 53.279046 
L 149.887909 53.512612 
L 153.844636 53.614948 
L 155.366455 53.637357 
L 155.670818 53.644182 
L 156.279545 53.815627 
L 156.583909 53.815627 
L 156.888273 53.983698 
L 159.627545 54.174501 
L 159.931909 54.348801 
L 160.845 54.393428 
L 162.062455 54.523719 
L 162.366818 54.70773 
L 163.584273 54.708836 
L 163.888636 54.880093 
L 165.714818 54.909644 
L 169.975909 55.029378 
L 170.584636 55.114438 
L 171.802091 55.18696 
L 174.237 55.475695 
L 177.585 55.575315 
L 178.193727 55.691398 
L 180.628636 55.723933 
L 181.237364 55.810503 
L 183.063545 55.902207 
L 184.585364 55.989058 
L 184.889727 55.989058 
L 185.194091 56.19488 
L 185.802818 56.258326 
L 187.933364 56.321815 
L 189.455182 56.550534 
L 190.977 56.586222 
L 191.585727 56.668849 
L 195.846818 56.773989 
L 197.673 56.877937 
L 199.194818 56.966321 
L 199.803545 57.139411 
L 201.325364 57.173041 
L 201.934091 57.265024 
L 204.977727 57.351423 
L 205.890818 57.507369 
L 208.021364 57.618219 
L 217.456636 57.972971 
L 218.065364 58.069479 
L 219.891545 58.214458 
L 222.630818 58.273147 
L 223.543909 58.398795 
L 228.413727 58.504386 
L 231.457364 58.615351 
L 240.588273 58.738832 
L 251.545364 59.017084 
L 251.849727 218.88 
L 346.506818 218.88 
L 346.506818 218.88 
" clip-path="url(#p19259b66aa)" style="fill: none; stroke: #1f77b4; stroke-width: 1.5; stroke-linecap: square"/>
   </g>
   <g id="patch_3">
    <path d="M 26.925 228.96 
L 26.925 7.2 
" style="fill: none; stroke: #000000; stroke-width: 0.8; stroke-linejoin: miter; stroke-linecap: square"/>
   </g>
   <g id="patch_4">
    <path d="M 361.725 228.96 
L 361.725 7.2 
" style="fill: none; stroke: #000000; stroke-width: 0.8; stroke-linejoin: miter; stroke-linecap: square"/>
   </g>
   <g id="patch_5">
    <path d="M 26.925 228.96 
L 361.725 228.96 
" style="fill: none; stroke: #000000; stroke-width: 0.8; stroke-linejoin: miter; stroke-linecap: square"/>
   </g>
   <g id="patch_6">
    <path d="M 26.925 7.2 
L 361.725 7.2 
" style="fill: none; stroke: #000000; stroke-width: 0.8; stroke-linejoin: miter; stroke-linecap: square"/>
   </g>
  </g>
 </g>
 <defs>
  <clipPath id="p19259b66aa">
   <rect x="26.925" y="7.2" width="334.8" height="221.76"/>
  </clipPath>
 </defs>
</svg>
