<?xml version="1.0" encoding="utf-8" standalone="no"?>
<!DOCTYPE svg PUBLIC "-//W3C//DTD SVG 1.1//EN"
  "http://www.w3.org/Graphics/SVG/1.1/DTD/svg11.dtd">
<svg xmlns:xlink="http://www.w3.org/1999/xlink" width="376.094131pt" height="253.191842pt" viewBox="0 0 376.094131 253.191842" xmlns="http://www.w3.org/2000/svg" version="1.1">
 <metadata>
  <rdf:RDF xmlns:dc="http://purl.org/dc/elements/1.1/" xmlns:cc="http://creativecommons.org/ns#" xmlns:rdf="http://www.w3.org/1999/02/22-rdf-syntax-ns#">
   <cc:Work>
    <dc:type rdf:resource="http://purl.org/dc/dcmitype/StillImage"/>
    <dc:date>2023-04-18T04:42:47.468479</dc:date>
    <dc:format>image/svg+xml</dc:format>
    <dc:creator>
     <cc:Agent>
      <dc:title>Matplotlib v3.7.1, https://matplotlib.org/</dc:title>
     </cc:Agent>
    </dc:creator>
   </cc:Work>
  </rdf:RDF>
 </metadata>
 <defs>
  <style type="text/css">*{stroke-linejoin: round; stroke-linecap: butt}</style>
 </defs>
 <g id="figure_1">
  <g id="patch_1">
   <path d="M 0 253.191842 
L 376.094131 253.191842 
L 376.094131 0 
L 0 0 
z
" style="fill: #ffffff"/>
  </g>
  <g id="axes_1">
   <g id="patch_2">
    <path d="M 33.2875 229.313717 
L 368.0875 229.313717 
L 368.0875 7.553717 
L 33.2875 7.553717 
z
" style="fill: #ffffff"/>
   </g>
   <g id="matplotlib.axis_1">
    <g id="xtick_1">
     <g id="line2d_1">
      <defs>
       <path id="m40d05b74ec" d="M 0 0 
L 0 3.5 
" style="stroke: #000000; stroke-width: 0.8"/>
      </defs>
      <g>
       <use xlink:href="#m40d05b74ec" x="48.505682" y="229.313717" style="stroke: #000000; stroke-width: 0.8"/>
      </g>
     </g>
     <g id="text_1">
      <!-- 0 -->
      <g transform="translate(45.324432 243.912155) scale(0.1 -0.1)">
       <defs>
        <path id="DejaVuSans-30" d="M 2034 4250 
Q 1547 4250 1301 3770 
Q 1056 3291 1056 2328 
Q 1056 1369 1301 889 
Q 1547 409 2034 409 
Q 2525 409 2770 889 
Q 3016 1369 3016 2328 
Q 3016 3291 2770 3770 
Q 2525 4250 2034 4250 
z
M 2034 4750 
Q 2819 4750 3233 4129 
Q 3647 3509 3647 2328 
Q 3647 1150 3233 529 
Q 2819 -91 2034 -91 
Q 1250 -91 836 529 
Q 422 1150 422 2328 
Q 422 3509 836 4129 
Q 1250 4750 2034 4750 
z
" transform="scale(0.015625)"/>
       </defs>
       <use xlink:href="#DejaVuSans-30"/>
      </g>
     </g>
    </g>
    <g id="xtick_2">
     <g id="line2d_2">
      <g>
       <use xlink:href="#m40d05b74ec" x="87.361269" y="229.313717" style="stroke: #000000; stroke-width: 0.8"/>
      </g>
     </g>
     <g id="text_2">
      <!-- 20 -->
      <g transform="translate(80.998769 243.912155) scale(0.1 -0.1)">
       <defs>
        <path id="DejaVuSans-32" d="M 1228 531 
L 3431 531 
L 3431 0 
L 469 0 
L 469 531 
Q 828 903 1448 1529 
Q 2069 2156 2228 2338 
Q 2531 2678 2651 2914 
Q 2772 3150 2772 3378 
Q 2772 3750 2511 3984 
Q 2250 4219 1831 4219 
Q 1534 4219 1204 4116 
Q 875 4013 500 3803 
L 500 4441 
Q 881 4594 1212 4672 
Q 1544 4750 1819 4750 
Q 2544 4750 2975 4387 
Q 3406 4025 3406 3419 
Q 3406 3131 3298 2873 
Q 3191 2616 2906 2266 
Q 2828 2175 2409 1742 
Q 1991 1309 1228 531 
z
" transform="scale(0.015625)"/>
       </defs>
       <use xlink:href="#DejaVuSans-32"/>
       <use xlink:href="#DejaVuSans-30" x="63.623047"/>
      </g>
     </g>
    </g>
    <g id="xtick_3">
     <g id="line2d_3">
      <g>
       <use xlink:href="#m40d05b74ec" x="126.216857" y="229.313717" style="stroke: #000000; stroke-width: 0.8"/>
      </g>
     </g>
     <g id="text_3">
      <!-- 40 -->
      <g transform="translate(119.854357 243.912155) scale(0.1 -0.1)">
       <defs>
        <path id="DejaVuSans-34" d="M 2419 4116 
L 825 1625 
L 2419 1625 
L 2419 4116 
z
M 2253 4666 
L 3047 4666 
L 3047 1625 
L 3713 1625 
L 3713 1100 
L 3047 1100 
L 3047 0 
L 2419 0 
L 2419 1100 
L 313 1100 
L 313 1709 
L 2253 4666 
z
" transform="scale(0.015625)"/>
       </defs>
       <use xlink:href="#DejaVuSans-34"/>
       <use xlink:href="#DejaVuSans-30" x="63.623047"/>
      </g>
     </g>
    </g>
    <g id="xtick_4">
     <g id="line2d_4">
      <g>
       <use xlink:href="#m40d05b74ec" x="165.072444" y="229.313717" style="stroke: #000000; stroke-width: 0.8"/>
      </g>
     </g>
     <g id="text_4">
      <!-- 60 -->
      <g transform="translate(158.709944 243.912155) scale(0.1 -0.1)">
       <defs>
        <path id="DejaVuSans-36" d="M 2113 2584 
Q 1688 2584 1439 2293 
Q 1191 2003 1191 1497 
Q 1191 994 1439 701 
Q 1688 409 2113 409 
Q 2538 409 2786 701 
Q 3034 994 3034 1497 
Q 3034 2003 2786 2293 
Q 2538 2584 2113 2584 
z
M 3366 4563 
L 3366 3988 
Q 3128 4100 2886 4159 
Q 2644 4219 2406 4219 
Q 1781 4219 1451 3797 
Q 1122 3375 1075 2522 
Q 1259 2794 1537 2939 
Q 1816 3084 2150 3084 
Q 2853 3084 3261 2657 
Q 3669 2231 3669 1497 
Q 3669 778 3244 343 
Q 2819 -91 2113 -91 
Q 1303 -91 875 529 
Q 447 1150 447 2328 
Q 447 3434 972 4092 
Q 1497 4750 2381 4750 
Q 2619 4750 2861 4703 
Q 3103 4656 3366 4563 
z
" transform="scale(0.015625)"/>
       </defs>
       <use xlink:href="#DejaVuSans-36"/>
       <use xlink:href="#DejaVuSans-30" x="63.623047"/>
      </g>
     </g>
    </g>
    <g id="xtick_5">
     <g id="line2d_5">
      <g>
       <use xlink:href="#m40d05b74ec" x="203.928032" y="229.313717" style="stroke: #000000; stroke-width: 0.8"/>
      </g>
     </g>
     <g id="text_5">
      <!-- 80 -->
      <g transform="translate(197.565532 243.912155) scale(0.1 -0.1)">
       <defs>
        <path id="DejaVuSans-38" d="M 2034 2216 
Q 1584 2216 1326 1975 
Q 1069 1734 1069 1313 
Q 1069 891 1326 650 
Q 1584 409 2034 409 
Q 2484 409 2743 651 
Q 3003 894 3003 1313 
Q 3003 1734 2745 1975 
Q 2488 2216 2034 2216 
z
M 1403 2484 
Q 997 2584 770 2862 
Q 544 3141 544 3541 
Q 544 4100 942 4425 
Q 1341 4750 2034 4750 
Q 2731 4750 3128 4425 
Q 3525 4100 3525 3541 
Q 3525 3141 3298 2862 
Q 3072 2584 2669 2484 
Q 3125 2378 3379 2068 
Q 3634 1759 3634 1313 
Q 3634 634 3220 271 
Q 2806 -91 2034 -91 
Q 1263 -91 848 271 
Q 434 634 434 1313 
Q 434 1759 690 2068 
Q 947 2378 1403 2484 
z
M 1172 3481 
Q 1172 3119 1398 2916 
Q 1625 2713 2034 2713 
Q 2441 2713 2670 2916 
Q 2900 3119 2900 3481 
Q 2900 3844 2670 4047 
Q 2441 4250 2034 4250 
Q 1625 4250 1398 4047 
Q 1172 3844 1172 3481 
z
" transform="scale(0.015625)"/>
       </defs>
       <use xlink:href="#DejaVuSans-38"/>
       <use xlink:href="#DejaVuSans-30" x="63.623047"/>
      </g>
     </g>
    </g>
    <g id="xtick_6">
     <g id="line2d_6">
      <g>
       <use xlink:href="#m40d05b74ec" x="242.783619" y="229.313717" style="stroke: #000000; stroke-width: 0.8"/>
      </g>
     </g>
     <g id="text_6">
      <!-- 100 -->
      <g transform="translate(233.239869 243.912155) scale(0.1 -0.1)">
       <defs>
        <path id="DejaVuSans-31" d="M 794 531 
L 1825 531 
L 1825 4091 
L 703 3866 
L 703 4441 
L 1819 4666 
L 2450 4666 
L 2450 531 
L 3481 531 
L 3481 0 
L 794 0 
L 794 531 
z
" transform="scale(0.015625)"/>
       </defs>
       <use xlink:href="#DejaVuSans-31"/>
       <use xlink:href="#DejaVuSans-30" x="63.623047"/>
       <use xlink:href="#DejaVuSans-30" x="127.246094"/>
      </g>
     </g>
    </g>
    <g id="xtick_7">
     <g id="line2d_7">
      <g>
       <use xlink:href="#m40d05b74ec" x="281.639207" y="229.313717" style="stroke: #000000; stroke-width: 0.8"/>
      </g>
     </g>
     <g id="text_7">
      <!-- 120 -->
      <g transform="translate(272.095457 243.912155) scale(0.1 -0.1)">
       <use xlink:href="#DejaVuSans-31"/>
       <use xlink:href="#DejaVuSans-32" x="63.623047"/>
       <use xlink:href="#DejaVuSans-30" x="127.246094"/>
      </g>
     </g>
    </g>
    <g id="xtick_8">
     <g id="line2d_8">
      <g>
       <use xlink:href="#m40d05b74ec" x="320.494794" y="229.313717" style="stroke: #000000; stroke-width: 0.8"/>
      </g>
     </g>
     <g id="text_8">
      <!-- 140 -->
      <g transform="translate(310.951044 243.912155) scale(0.1 -0.1)">
       <use xlink:href="#DejaVuSans-31"/>
       <use xlink:href="#DejaVuSans-34" x="63.623047"/>
       <use xlink:href="#DejaVuSans-30" x="127.246094"/>
      </g>
     </g>
    </g>
    <g id="xtick_9">
     <g id="line2d_9">
      <g>
       <use xlink:href="#m40d05b74ec" x="359.350381" y="229.313717" style="stroke: #000000; stroke-width: 0.8"/>
      </g>
     </g>
     <g id="text_9">
      <!-- 160 -->
      <g transform="translate(349.806631 243.912155) scale(0.1 -0.1)">
       <use xlink:href="#DejaVuSans-31"/>
       <use xlink:href="#DejaVuSans-36" x="63.623047"/>
       <use xlink:href="#DejaVuSans-30" x="127.246094"/>
      </g>
     </g>
    </g>
   </g>
   <g id="matplotlib.axis_2">
    <g id="ytick_1">
     <g id="line2d_10">
      <defs>
       <path id="me5f51dc7c3" d="M 0 0 
L -3.5 0 
" style="stroke: #000000; stroke-width: 0.8"/>
      </defs>
      <g>
       <use xlink:href="#me5f51dc7c3" x="33.2875" y="219.233717" style="stroke: #000000; stroke-width: 0.8"/>
      </g>
     </g>
     <g id="text_10">
      <!-- 0 -->
      <g transform="translate(19.925 223.032936) scale(0.1 -0.1)">
       <use xlink:href="#DejaVuSans-30"/>
      </g>
     </g>
    </g>
    <g id="ytick_2">
     <g id="line2d_11">
      <g>
       <use xlink:href="#me5f51dc7c3" x="33.2875" y="177.586818" style="stroke: #000000; stroke-width: 0.8"/>
      </g>
     </g>
     <g id="text_11">
      <!-- 20 -->
      <g transform="translate(13.5625 181.386036) scale(0.1 -0.1)">
       <use xlink:href="#DejaVuSans-32"/>
       <use xlink:href="#DejaVuSans-30" x="63.623047"/>
      </g>
     </g>
    </g>
    <g id="ytick_3">
     <g id="line2d_12">
      <g>
       <use xlink:href="#me5f51dc7c3" x="33.2875" y="135.939918" style="stroke: #000000; stroke-width: 0.8"/>
      </g>
     </g>
     <g id="text_12">
      <!-- 40 -->
      <g transform="translate(13.5625 139.739137) scale(0.1 -0.1)">
       <use xlink:href="#DejaVuSans-34"/>
       <use xlink:href="#DejaVuSans-30" x="63.623047"/>
      </g>
     </g>
    </g>
    <g id="ytick_4">
     <g id="line2d_13">
      <g>
       <use xlink:href="#me5f51dc7c3" x="33.2875" y="94.293018" style="stroke: #000000; stroke-width: 0.8"/>
      </g>
     </g>
     <g id="text_13">
      <!-- 60 -->
      <g transform="translate(13.5625 98.092237) scale(0.1 -0.1)">
       <use xlink:href="#DejaVuSans-36"/>
       <use xlink:href="#DejaVuSans-30" x="63.623047"/>
      </g>
     </g>
    </g>
    <g id="ytick_5">
     <g id="line2d_14">
      <g>
       <use xlink:href="#me5f51dc7c3" x="33.2875" y="52.646118" style="stroke: #000000; stroke-width: 0.8"/>
      </g>
     </g>
     <g id="text_14">
      <!-- 80 -->
      <g transform="translate(13.5625 56.445337) scale(0.1 -0.1)">
       <use xlink:href="#DejaVuSans-38"/>
       <use xlink:href="#DejaVuSans-30" x="63.623047"/>
      </g>
     </g>
    </g>
    <g id="ytick_6">
     <g id="line2d_15">
      <g>
       <use xlink:href="#me5f51dc7c3" x="33.2875" y="10.999219" style="stroke: #000000; stroke-width: 0.8"/>
      </g>
     </g>
     <g id="text_15">
      <!-- 100 -->
      <g transform="translate(7.2 14.798437) scale(0.1 -0.1)">
       <use xlink:href="#DejaVuSans-31"/>
       <use xlink:href="#DejaVuSans-30" x="63.623047"/>
       <use xlink:href="#DejaVuSans-30" x="127.246094"/>
      </g>
     </g>
    </g>
   </g>
   <g id="line2d_16">
    <path d="M 48.588773 17.633717 
L 49.03275 18.765942 
L 49.469547 18.903404 
L 49.908316 19.405389 
L 50.343095 20.116779 
L 50.782002 21.089146 
L 51.212387 23.380326 
L 51.649433 24.39088 
L 52.509725 24.39088 
L 52.936888 25.060745 
L 53.372762 25.180325 
L 53.794904 26.843672 
L 54.223554 27.180821 
L 54.678626 28.486795 
L 55.12743 28.645216 
L 55.567395 29.557533 
L 56.000715 29.814078 
L 56.432153 30.900862 
L 56.86097 31.318106 
L 57.287909 32.384494 
L 57.724871 32.384494 
L 58.182588 33.690366 
L 58.616069 33.941589 
L 59.057022 33.941589 
L 59.908441 34.608124 
L 60.341109 34.65047 
L 60.766115 35.372206 
L 61.18747 36.502523 
L 61.613725 37.070661 
L 62.043087 37.365582 
L 62.911747 37.454218 
L 63.340652 37.920893 
L 63.772151 37.924198 
L 64.204637 38.679876 
L 64.634374 39.016615 
L 65.058955 39.016615 
L 65.485575 39.279748 
L 65.915186 39.279748 
L 66.371073 39.439806 
L 67.240296 40.055305 
L 67.665896 40.708119 
L 68.101101 40.837923 
L 68.535648 41.800444 
L 68.966213 42.178944 
L 69.817142 42.416138 
L 70.248531 42.699944 
L 71.971931 42.713279 
L 72.405486 43.029385 
L 72.834376 43.159358 
L 73.263044 43.159358 
L 74.553147 43.593705 
L 74.979282 43.602582 
L 75.41155 43.777882 
L 79.752363 43.859296 
L 80.181551 43.983947 
L 80.61183 44.277023 
L 81.923463 44.331882 
L 82.351246 44.625602 
L 82.79653 44.626991 
L 83.694751 45.139353 
L 84.583258 45.14956 
L 85.019494 45.324374 
L 85.445032 45.742328 
L 85.872212 45.742328 
L 86.300405 45.986926 
L 87.178876 46.128538 
L 87.603833 46.478323 
L 88.036807 46.551372 
L 89.352684 47.215704 
L 89.788825 47.376155 
L 90.223545 47.376155 
L 90.657453 47.75407 
L 91.087269 47.75407 
L 91.517139 48.335747 
L 91.948686 48.714224 
L 92.379622 48.742539 
L 92.807284 49.42682 
L 94.516526 49.634315 
L 94.950789 49.634315 
L 95.399188 50.112079 
L 95.848416 50.238801 
L 98.465802 50.238801 
L 98.897072 50.53328 
L 99.760233 50.641556 
L 105.482771 50.697521 
L 105.926875 50.804721 
L 106.369731 51.376087 
L 108.136112 51.903302 
L 108.758289 51.928817 
L 109.244618 52.323319 
L 111.245589 52.601324 
L 115.153818 52.625015 
L 116.012637 52.734189 
L 120.370698 53.07943 
L 120.949088 53.415398 
L 121.470668 53.415398 
L 121.912425 53.553295 
L 124.551666 53.610766 
L 124.981278 53.746499 
L 126.268236 53.794699 
L 127.585094 54.176386 
L 128.027863 54.176386 
L 129.347323 54.465206 
L 130.21008 54.465206 
L 130.653044 54.690193 
L 132.849354 54.783118 
L 133.708564 54.958511 
L 134.138821 55.08821 
L 135.42974 55.149642 
L 136.731352 55.509361 
L 139.919299 55.934071 
L 144.002614 56.043384 
L 145.773651 56.367015 
L 146.210977 56.567573 
L 150.555118 56.948002 
L 155.497617 57.03093 
L 157.235144 57.203601 
L 162.469473 57.300853 
L 165.534732 57.497313 
L 167.427419 57.570525 
L 169.146058 57.777216 
L 170.894256 57.817441 
L 171.771841 57.89118 
L 173.496705 57.991925 
L 173.926834 58.187889 
L 177.421094 58.292058 
L 179.5878 58.432847 
L 180.027946 58.432847 
L 180.468022 58.57084 
L 189.432392 58.672329 
L 190.32073 58.767031 
L 200.047868 58.852007 
L 200.474959 59.103888 
L 201.763401 59.200491 
L 203.06903 59.282359 
L 205.241751 59.282359 
L 205.675523 59.590116 
L 207.397939 59.693676 
L 208.251347 59.794401 
L 213.929024 59.90366 
L 230.532011 60.135028 
L 230.969704 60.256043 
L 235.014996 60.34748 
L 235.451265 60.481417 
L 239.401357 60.590114 
L 241.141786 60.648736 
L 245.906402 60.704279 
L 246.760311 60.80528 
L 250.353294 61.022042 
L 253.25337 61.064123 
L 254.974709 61.259042 
L 257.157296 61.29294 
L 257.583427 61.454856 
L 269.434641 61.522142 
L 270.285798 61.628215 
L 271.158973 61.628215 
L 271.5868 61.750328 
L 275.029774 61.814219 
L 275.457642 61.94933 
L 279.310416 62.039971 
L 280.161527 62.10731 
L 291.096289 62.171384 
L 291.956033 62.236042 
L 302.017983 62.296357 
L 309.454222 62.356603 
L 310.329454 62.466859 
L 311.634054 62.533314 
L 312.065923 62.659778 
L 333.866309 62.733487 
L 334.297015 62.846133 
L 349.017024 62.947387 
L 350.741479 62.978211 
L 352.869318 62.978211 
L 48.505682 219.233717 
L 48.505682 219.233717 
" clip-path="url(#p8ec5caa3d7)" style="fill: none; stroke: #1f77b4; stroke-width: 1.5; stroke-linecap: square"/>
   </g>
   <g id="patch_3">
    <path d="M 33.2875 229.313717 
L 33.2875 7.553717 
" style="fill: none; stroke: #000000; stroke-width: 0.8; stroke-linejoin: miter; stroke-linecap: square"/>
   </g>
   <g id="patch_4">
    <path d="M 368.0875 229.313717 
L 368.0875 7.553717 
" style="fill: none; stroke: #000000; stroke-width: 0.8; stroke-linejoin: miter; stroke-linecap: square"/>
   </g>
   <g id="patch_5">
    <path d="M 33.2875 229.313717 
L 368.0875 229.313717 
" style="fill: none; stroke: #000000; stroke-width: 0.8; stroke-linejoin: miter; stroke-linecap: square"/>
   </g>
   <g id="patch_6">
    <path d="M 33.2875 7.553717 
L 368.0875 7.553717 
" style="fill: none; stroke: #000000; stroke-width: 0.8; stroke-linejoin: miter; stroke-linecap: square"/>
   </g>
  </g>
 </g>
 <defs>
  <clipPath id="p8ec5caa3d7">
   <rect x="33.2875" y="7.553717" width="334.8" height="221.76"/>
  </clipPath>
 </defs>
</svg>
