<?xml version="1.0" encoding="utf-8" standalone="no"?>
<!DOCTYPE svg PUBLIC "-//W3C//DTD SVG 1.1//EN"
  "http://www.w3.org/Graphics/SVG/1.1/DTD/svg11.dtd">
<svg xmlns:xlink="http://www.w3.org/1999/xlink" width="372.103125pt" height="252.838125pt" viewBox="0 0 372.103125 252.838125" xmlns="http://www.w3.org/2000/svg" version="1.1">
 <metadata>
  <rdf:RDF xmlns:dc="http://purl.org/dc/elements/1.1/" xmlns:cc="http://creativecommons.org/ns#" xmlns:rdf="http://www.w3.org/1999/02/22-rdf-syntax-ns#">
   <cc:Work>
    <dc:type rdf:resource="http://purl.org/dc/dcmitype/StillImage"/>
    <dc:date>2023-04-18T04:42:47.330160</dc:date>
    <dc:format>image/svg+xml</dc:format>
    <dc:creator>
     <cc:Agent>
      <dc:title>Matplotlib v3.7.1, https://matplotlib.org/</dc:title>
     </cc:Agent>
    </dc:creator>
   </cc:Work>
  </rdf:RDF>
 </metadata>
 <defs>
  <style type="text/css">*{stroke-linejoin: round; stroke-linecap: butt}</style>
 </defs>
 <g id="figure_1">
  <g id="patch_1">
   <path d="M 0 252.838125 
L 372.103125 252.838125 
L 372.103125 0 
L 0 0 
z
" style="fill: #ffffff"/>
  </g>
  <g id="axes_1">
   <g id="patch_2">
    <path d="M 30.103125 228.96 
L 364.903125 228.96 
L 364.903125 7.2 
L 30.103125 7.2 
z
" style="fill: #ffffff"/>
   </g>
   <g id="matplotlib.axis_1">
    <g id="xtick_1">
     <g id="line2d_1">
      <defs>
       <path id="mfe067678a6" d="M 0 0 
L 0 3.5 
" style="stroke: #000000; stroke-width: 0.8"/>
      </defs>
      <g>
       <use xlink:href="#mfe067678a6" x="45.321307" y="228.96" style="stroke: #000000; stroke-width: 0.8"/>
      </g>
     </g>
     <g id="text_1">
      <!-- 0 -->
      <g transform="translate(42.140057 243.558437) scale(0.1 -0.1)">
       <defs>
        <path id="DejaVuSans-30" d="M 2034 4250 
Q 1547 4250 1301 3770 
Q 1056 3291 1056 2328 
Q 1056 1369 1301 889 
Q 1547 409 2034 409 
Q 2525 409 2770 889 
Q 3016 1369 3016 2328 
Q 3016 3291 2770 3770 
Q 2525 4250 2034 4250 
z
M 2034 4750 
Q 2819 4750 3233 4129 
Q 3647 3509 3647 2328 
Q 3647 1150 3233 529 
Q 2819 -91 2034 -91 
Q 1250 -91 836 529 
Q 422 1150 422 2328 
Q 422 3509 836 4129 
Q 1250 4750 2034 4750 
z
" transform="scale(0.015625)"/>
       </defs>
       <use xlink:href="#DejaVuSans-30"/>
      </g>
     </g>
    </g>
    <g id="xtick_2">
     <g id="line2d_2">
      <g>
       <use xlink:href="#mfe067678a6" x="106.194034" y="228.96" style="stroke: #000000; stroke-width: 0.8"/>
      </g>
     </g>
     <g id="text_2">
      <!-- 200 -->
      <g transform="translate(96.650284 243.558437) scale(0.1 -0.1)">
       <defs>
        <path id="DejaVuSans-32" d="M 1228 531 
L 3431 531 
L 3431 0 
L 469 0 
L 469 531 
Q 828 903 1448 1529 
Q 2069 2156 2228 2338 
Q 2531 2678 2651 2914 
Q 2772 3150 2772 3378 
Q 2772 3750 2511 3984 
Q 2250 4219 1831 4219 
Q 1534 4219 1204 4116 
Q 875 4013 500 3803 
L 500 4441 
Q 881 4594 1212 4672 
Q 1544 4750 1819 4750 
Q 2544 4750 2975 4387 
Q 3406 4025 3406 3419 
Q 3406 3131 3298 2873 
Q 3191 2616 2906 2266 
Q 2828 2175 2409 1742 
Q 1991 1309 1228 531 
z
" transform="scale(0.015625)"/>
       </defs>
       <use xlink:href="#DejaVuSans-32"/>
       <use xlink:href="#DejaVuSans-30" x="63.623047"/>
       <use xlink:href="#DejaVuSans-30" x="127.246094"/>
      </g>
     </g>
    </g>
    <g id="xtick_3">
     <g id="line2d_3">
      <g>
       <use xlink:href="#mfe067678a6" x="167.066761" y="228.96" style="stroke: #000000; stroke-width: 0.8"/>
      </g>
     </g>
     <g id="text_3">
      <!-- 400 -->
      <g transform="translate(157.523011 243.558437) scale(0.1 -0.1)">
       <defs>
        <path id="DejaVuSans-34" d="M 2419 4116 
L 825 1625 
L 2419 1625 
L 2419 4116 
z
M 2253 4666 
L 3047 4666 
L 3047 1625 
L 3713 1625 
L 3713 1100 
L 3047 1100 
L 3047 0 
L 2419 0 
L 2419 1100 
L 313 1100 
L 313 1709 
L 2253 4666 
z
" transform="scale(0.015625)"/>
       </defs>
       <use xlink:href="#DejaVuSans-34"/>
       <use xlink:href="#DejaVuSans-30" x="63.623047"/>
       <use xlink:href="#DejaVuSans-30" x="127.246094"/>
      </g>
     </g>
    </g>
    <g id="xtick_4">
     <g id="line2d_4">
      <g>
       <use xlink:href="#mfe067678a6" x="227.939489" y="228.96" style="stroke: #000000; stroke-width: 0.8"/>
      </g>
     </g>
     <g id="text_4">
      <!-- 600 -->
      <g transform="translate(218.395739 243.558437) scale(0.1 -0.1)">
       <defs>
        <path id="DejaVuSans-36" d="M 2113 2584 
Q 1688 2584 1439 2293 
Q 1191 2003 1191 1497 
Q 1191 994 1439 701 
Q 1688 409 2113 409 
Q 2538 409 2786 701 
Q 3034 994 3034 1497 
Q 3034 2003 2786 2293 
Q 2538 2584 2113 2584 
z
M 3366 4563 
L 3366 3988 
Q 3128 4100 2886 4159 
Q 2644 4219 2406 4219 
Q 1781 4219 1451 3797 
Q 1122 3375 1075 2522 
Q 1259 2794 1537 2939 
Q 1816 3084 2150 3084 
Q 2853 3084 3261 2657 
Q 3669 2231 3669 1497 
Q 3669 778 3244 343 
Q 2819 -91 2113 -91 
Q 1303 -91 875 529 
Q 447 1150 447 2328 
Q 447 3434 972 4092 
Q 1497 4750 2381 4750 
Q 2619 4750 2861 4703 
Q 3103 4656 3366 4563 
z
" transform="scale(0.015625)"/>
       </defs>
       <use xlink:href="#DejaVuSans-36"/>
       <use xlink:href="#DejaVuSans-30" x="63.623047"/>
       <use xlink:href="#DejaVuSans-30" x="127.246094"/>
      </g>
     </g>
    </g>
    <g id="xtick_5">
     <g id="line2d_5">
      <g>
       <use xlink:href="#mfe067678a6" x="288.812216" y="228.96" style="stroke: #000000; stroke-width: 0.8"/>
      </g>
     </g>
     <g id="text_5">
      <!-- 800 -->
      <g transform="translate(279.268466 243.558437) scale(0.1 -0.1)">
       <defs>
        <path id="DejaVuSans-38" d="M 2034 2216 
Q 1584 2216 1326 1975 
Q 1069 1734 1069 1313 
Q 1069 891 1326 650 
Q 1584 409 2034 409 
Q 2484 409 2743 651 
Q 3003 894 3003 1313 
Q 3003 1734 2745 1975 
Q 2488 2216 2034 2216 
z
M 1403 2484 
Q 997 2584 770 2862 
Q 544 3141 544 3541 
Q 544 4100 942 4425 
Q 1341 4750 2034 4750 
Q 2731 4750 3128 4425 
Q 3525 4100 3525 3541 
Q 3525 3141 3298 2862 
Q 3072 2584 2669 2484 
Q 3125 2378 3379 2068 
Q 3634 1759 3634 1313 
Q 3634 634 3220 271 
Q 2806 -91 2034 -91 
Q 1263 -91 848 271 
Q 434 634 434 1313 
Q 434 1759 690 2068 
Q 947 2378 1403 2484 
z
M 1172 3481 
Q 1172 3119 1398 2916 
Q 1625 2713 2034 2713 
Q 2441 2713 2670 2916 
Q 2900 3119 2900 3481 
Q 2900 3844 2670 4047 
Q 2441 4250 2034 4250 
Q 1625 4250 1398 4047 
Q 1172 3844 1172 3481 
z
" transform="scale(0.015625)"/>
       </defs>
       <use xlink:href="#DejaVuSans-38"/>
       <use xlink:href="#DejaVuSans-30" x="63.623047"/>
       <use xlink:href="#DejaVuSans-30" x="127.246094"/>
      </g>
     </g>
    </g>
    <g id="xtick_6">
     <g id="line2d_6">
      <g>
       <use xlink:href="#mfe067678a6" x="349.684943" y="228.96" style="stroke: #000000; stroke-width: 0.8"/>
      </g>
     </g>
     <g id="text_6">
      <!-- 1000 -->
      <g transform="translate(336.959943 243.558437) scale(0.1 -0.1)">
       <defs>
        <path id="DejaVuSans-31" d="M 794 531 
L 1825 531 
L 1825 4091 
L 703 3866 
L 703 4441 
L 1819 4666 
L 2450 4666 
L 2450 531 
L 3481 531 
L 3481 0 
L 794 0 
L 794 531 
z
" transform="scale(0.015625)"/>
       </defs>
       <use xlink:href="#DejaVuSans-31"/>
       <use xlink:href="#DejaVuSans-30" x="63.623047"/>
       <use xlink:href="#DejaVuSans-30" x="127.246094"/>
       <use xlink:href="#DejaVuSans-30" x="190.869141"/>
      </g>
     </g>
    </g>
   </g>
   <g id="matplotlib.axis_2">
    <g id="ytick_1">
     <g id="line2d_7">
      <defs>
       <path id="m66ea5d4282" d="M 0 0 
L -3.5 0 
" style="stroke: #000000; stroke-width: 0.8"/>
      </defs>
      <g>
       <use xlink:href="#m66ea5d4282" x="30.103125" y="218.88" style="stroke: #000000; stroke-width: 0.8"/>
      </g>
     </g>
     <g id="text_7">
      <!-- 0.0 -->
      <g transform="translate(7.2 222.679219) scale(0.1 -0.1)">
       <defs>
        <path id="DejaVuSans-2e" d="M 684 794 
L 1344 794 
L 1344 0 
L 684 0 
L 684 794 
z
" transform="scale(0.015625)"/>
       </defs>
       <use xlink:href="#DejaVuSans-30"/>
       <use xlink:href="#DejaVuSans-2e" x="63.623047"/>
       <use xlink:href="#DejaVuSans-30" x="95.410156"/>
      </g>
     </g>
    </g>
    <g id="ytick_2">
     <g id="line2d_8">
      <g>
       <use xlink:href="#m66ea5d4282" x="30.103125" y="187.741983" style="stroke: #000000; stroke-width: 0.8"/>
      </g>
     </g>
     <g id="text_8">
      <!-- 0.2 -->
      <g transform="translate(7.2 191.541202) scale(0.1 -0.1)">
       <use xlink:href="#DejaVuSans-30"/>
       <use xlink:href="#DejaVuSans-2e" x="63.623047"/>
       <use xlink:href="#DejaVuSans-32" x="95.410156"/>
      </g>
     </g>
    </g>
    <g id="ytick_3">
     <g id="line2d_9">
      <g>
       <use xlink:href="#m66ea5d4282" x="30.103125" y="156.603966" style="stroke: #000000; stroke-width: 0.8"/>
      </g>
     </g>
     <g id="text_9">
      <!-- 0.4 -->
      <g transform="translate(7.2 160.403185) scale(0.1 -0.1)">
       <use xlink:href="#DejaVuSans-30"/>
       <use xlink:href="#DejaVuSans-2e" x="63.623047"/>
       <use xlink:href="#DejaVuSans-34" x="95.410156"/>
      </g>
     </g>
    </g>
    <g id="ytick_4">
     <g id="line2d_10">
      <g>
       <use xlink:href="#m66ea5d4282" x="30.103125" y="125.465949" style="stroke: #000000; stroke-width: 0.8"/>
      </g>
     </g>
     <g id="text_10">
      <!-- 0.6 -->
      <g transform="translate(7.2 129.265167) scale(0.1 -0.1)">
       <use xlink:href="#DejaVuSans-30"/>
       <use xlink:href="#DejaVuSans-2e" x="63.623047"/>
       <use xlink:href="#DejaVuSans-36" x="95.410156"/>
      </g>
     </g>
    </g>
    <g id="ytick_5">
     <g id="line2d_11">
      <g>
       <use xlink:href="#m66ea5d4282" x="30.103125" y="94.327932" style="stroke: #000000; stroke-width: 0.8"/>
      </g>
     </g>
     <g id="text_11">
      <!-- 0.8 -->
      <g transform="translate(7.2 98.12715) scale(0.1 -0.1)">
       <use xlink:href="#DejaVuSans-30"/>
       <use xlink:href="#DejaVuSans-2e" x="63.623047"/>
       <use xlink:href="#DejaVuSans-38" x="95.410156"/>
      </g>
     </g>
    </g>
    <g id="ytick_6">
     <g id="line2d_12">
      <g>
       <use xlink:href="#m66ea5d4282" x="30.103125" y="63.189914" style="stroke: #000000; stroke-width: 0.8"/>
      </g>
     </g>
     <g id="text_12">
      <!-- 1.0 -->
      <g transform="translate(7.2 66.989133) scale(0.1 -0.1)">
       <use xlink:href="#DejaVuSans-31"/>
       <use xlink:href="#DejaVuSans-2e" x="63.623047"/>
       <use xlink:href="#DejaVuSans-30" x="95.410156"/>
      </g>
     </g>
    </g>
    <g id="ytick_7">
     <g id="line2d_13">
      <g>
       <use xlink:href="#m66ea5d4282" x="30.103125" y="32.051897" style="stroke: #000000; stroke-width: 0.8"/>
      </g>
     </g>
     <g id="text_13">
      <!-- 1.2 -->
      <g transform="translate(7.2 35.851116) scale(0.1 -0.1)">
       <use xlink:href="#DejaVuSans-31"/>
       <use xlink:href="#DejaVuSans-2e" x="63.623047"/>
       <use xlink:href="#DejaVuSans-32" x="95.410156"/>
      </g>
     </g>
    </g>
   </g>
   <g id="line2d_14">
    <path d="M 45.321307 53.942446 
L 45.62567 58.416016 
L 46.234398 50.744245 
L 46.538761 52.691017 
L 46.843125 35.278285 
L 47.147489 30.210816 
L 47.451852 29.739639 
L 48.06058 29.739639 
L 48.364943 33.391013 
L 48.669307 32.678185 
L 48.97367 46.068895 
L 49.278034 48.375234 
L 49.582398 37.619677 
L 49.886761 42.185208 
L 50.191125 42.616003 
L 50.495489 43.386039 
L 50.799852 41.44427 
L 51.104216 44.214902 
L 51.712943 44.112875 
L 52.017307 46.181669 
L 52.32167 37.677111 
L 52.626034 37.677111 
L 52.930398 17.28 
L 53.234761 17.675021 
L 53.539125 36.744979 
L 53.843489 45.819172 
L 54.147852 45.590175 
L 54.452216 52.721761 
L 55.060943 58.479785 
L 55.365307 58.479785 
L 55.66967 57.959361 
L 55.974034 57.168347 
L 56.278398 57.04555 
L 56.582761 60.619426 
L 56.887125 60.619426 
L 57.191489 50.543094 
L 57.495852 50.543094 
L 57.800216 52.457586 
L 58.10458 58.642906 
L 58.713307 65.66226 
L 59.01767 63.835888 
L 59.322034 61.082118 
L 59.626398 62.271572 
L 59.930761 63.929889 
L 60.235125 58.471205 
L 60.539489 59.388227 
L 60.843852 56.680851 
L 61.756943 56.680851 
L 62.061307 53.395318 
L 62.36567 64.289622 
L 62.670034 64.289622 
L 62.974398 69.539493 
L 63.278761 59.714851 
L 63.583125 63.169493 
L 63.887489 64.050619 
L 64.191852 62.152225 
L 66.931125 62.152225 
L 67.235489 60.175889 
L 67.539852 61.893693 
L 68.14858 57.35508 
L 68.757307 57.35508 
L 69.366034 61.191517 
L 69.670398 54.281707 
L 69.974761 61.257844 
L 70.279125 61.257844 
L 70.583489 62.16479 
L 70.887852 65.938478 
L 71.192216 68.284671 
L 71.49658 68.284671 
L 71.800943 67.919282 
L 72.105307 63.304787 
L 72.40967 63.167602 
L 72.714034 64.139789 
L 73.018398 59.430029 
L 73.322761 66.336524 
L 73.627125 65.480453 
L 73.931489 64.223047 
L 74.235852 61.492072 
L 74.540216 61.492072 
L 74.84458 63.858852 
L 75.148943 63.858852 
L 75.453307 62.098605 
L 75.75767 67.883137 
L 76.062034 66.601551 
L 76.366398 60.63502 
L 76.670761 62.587799 
L 76.975125 66.497855 
L 77.888216 66.497855 
L 78.19258 59.947346 
L 78.496943 67.538036 
L 80.323125 67.538036 
L 80.627489 56.960538 
L 80.931852 55.909722 
L 81.54058 55.909722 
L 81.844943 66.680164 
L 82.45367 66.680164 
L 82.758034 48.300399 
L 83.062398 49.405461 
L 83.366761 53.196294 
L 84.279852 53.196294 
L 84.584216 55.586539 
L 85.192943 55.586539 
L 85.80167 63.902603 
L 86.106034 66.33754 
L 86.410398 66.002472 
L 87.019125 66.155181 
L 87.323489 65.961634 
L 87.627852 57.59306 
L 87.932216 58.270905 
L 88.23658 64.739679 
L 90.975852 64.739679 
L 91.280216 62.990216 
L 91.58458 62.990216 
L 91.888943 44.489052 
L 92.193307 44.489052 
L 92.49767 42.508087 
L 92.802034 43.441426 
L 93.106398 42.218165 
L 93.410761 42.218165 
L 93.715125 56.845102 
L 94.019489 60.480932 
L 94.93258 60.480932 
L 95.236943 61.16334 
L 95.541307 60.148563 
L 95.84567 60.148563 
L 96.150034 59.680604 
L 97.367489 59.680604 
L 97.671852 62.308112 
L 97.976216 55.34562 
L 98.28058 55.656949 
L 98.889307 55.656949 
L 99.19367 49.64237 
L 99.498034 48.228056 
L 99.802398 47.515622 
L 100.106761 47.719299 
L 100.411125 47.719299 
L 100.715489 48.056656 
L 101.019852 40.467353 
L 101.324216 41.450227 
L 101.932943 41.450227 
L 102.237307 48.440238 
L 102.54167 48.440238 
L 102.846034 43.375142 
L 103.759125 43.375142 
L 104.063489 44.401888 
L 104.672216 58.989567 
L 104.97658 58.989567 
L 105.280943 57.997355 
L 105.585307 57.997355 
L 105.88967 61.278224 
L 106.194034 62.837672 
L 106.498398 62.837672 
L 106.802761 63.091639 
L 107.107125 63.091639 
L 107.411489 52.28748 
L 107.715852 52.28748 
L 108.020216 51.120393 
L 108.32458 50.91247 
L 109.846398 50.91247 
L 110.150761 43.703524 
L 110.455125 43.703524 
L 110.759489 48.096418 
L 111.063852 46.384064 
L 111.368216 47.295286 
L 111.67258 47.295286 
L 111.976943 47.676858 
L 112.281307 46.154473 
L 112.58567 39.965245 
L 112.890034 40.612695 
L 113.194398 40.121865 
L 113.498761 40.121865 
L 113.803125 38.449759 
L 114.107489 43.750356 
L 114.411852 45.356258 
L 117.759852 45.356258 
L 118.064216 44.44096 
L 118.977307 44.44096 
L 119.28167 54.076474 
L 119.586034 54.076474 
L 120.194761 63.687281 
L 121.107852 63.687281 
L 121.412216 62.931081 
L 122.934034 62.931081 
L 123.238398 64.965492 
L 123.542761 68.716266 
L 123.847125 68.716266 
L 124.151489 66.945178 
L 124.455852 61.510211 
L 125.368943 61.510211 
L 125.673307 60.512408 
L 126.890761 60.512408 
L 127.195125 58.906157 
L 127.499489 59.362036 
L 127.803852 58.847557 
L 128.108216 59.264242 
L 128.716943 59.360656 
L 129.021307 59.010681 
L 129.32567 60.03364 
L 129.630034 60.03364 
L 129.934398 60.680492 
L 130.847489 60.680492 
L 131.151852 65.380369 
L 131.456216 65.380369 
L 131.76058 60.617302 
L 132.064943 60.548201 
L 132.369307 60.324718 
L 132.67367 60.324718 
L 132.978034 60.788915 
L 134.195489 60.788915 
L 134.499852 65.635343 
L 134.804216 65.109745 
L 135.10858 65.764252 
L 136.02167 65.764252 
L 136.326034 67.894747 
L 137.543489 67.894747 
L 137.847852 67.738763 
L 138.152216 67.738763 
L 138.45658 68.767688 
L 140.282761 68.767688 
L 140.587125 71.345844 
L 141.80458 71.345844 
L 142.108943 71.56451 
L 142.413307 72.355744 
L 143.326398 72.355744 
L 143.630761 75.390907 
L 143.935125 74.579216 
L 144.239489 74.579216 
L 144.543852 74.099032 
L 145.456943 74.099032 
L 145.761307 77.122427 
L 147.283125 77.122427 
L 147.587489 77.991008 
L 149.41367 77.991008 
L 149.718034 69.142549 
L 150.022398 69.147215 
L 150.326761 71.838649 
L 150.631125 71.838649 
L 150.935489 70.233613 
L 151.239852 70.5719 
L 151.544216 68.729438 
L 153.066034 68.729438 
L 153.370398 67.841791 
L 153.674761 67.841791 
L 153.979125 68.166316 
L 154.283489 67.10144 
L 154.587852 67.10144 
L 154.892216 62.35736 
L 155.500943 62.35736 
L 155.805307 66.307523 
L 156.10967 66.307523 
L 156.414034 66.43696 
L 157.022761 71.449489 
L 157.631489 71.449489 
L 157.935852 73.869787 
L 159.153307 73.869787 
L 159.45767 74.940684 
L 159.762034 73.251919 
L 160.979489 73.251919 
L 161.283852 71.779844 
L 161.588216 71.768362 
L 161.89258 72.215069 
L 162.80567 72.215069 
L 163.110034 71.400235 
L 164.327489 71.400235 
L 164.631852 70.040201 
L 167.371125 70.040201 
L 167.675489 70.401036 
L 167.979852 66.243139 
L 168.58858 66.164888 
L 170.414761 66.164888 
L 170.719125 62.230588 
L 171.327852 62.230588 
L 171.632216 61.54039 
L 171.93658 61.54039 
L 172.240943 62.20124 
L 172.545307 60.555946 
L 172.84967 60.925194 
L 173.154034 60.925194 
L 173.458398 61.386735 
L 173.762761 67.12222 
L 174.371489 67.12222 
L 174.675852 66.947358 
L 174.980216 67.868861 
L 176.502034 67.868861 
L 176.806398 67.99943 
L 177.415125 67.99943 
L 177.719489 66.823733 
L 178.63258 66.823733 
L 178.936943 66.984984 
L 180.763125 66.984984 
L 181.067489 66.643303 
L 181.371852 60.999857 
L 181.676216 60.999857 
L 181.98058 57.19227 
L 182.284943 58.370751 
L 182.589307 58.370751 
L 182.89367 57.325705 
L 183.806761 57.325705 
L 184.111125 56.662577 
L 185.32858 56.662577 
L 185.632943 56.886731 
L 185.937307 56.886731 
L 186.24167 57.071603 
L 186.546034 62.284738 
L 188.067852 62.284738 
L 188.372216 62.486474 
L 188.67658 62.486474 
L 188.980943 60.716798 
L 190.502761 60.716798 
L 190.807125 60.447542 
L 192.633307 60.447542 
L 192.93767 59.793378 
L 193.850761 59.793378 
L 194.155125 59.334519 
L 195.37258 59.334519 
L 195.676943 58.547381 
L 195.981307 58.547381 
L 196.28567 58.715459 
L 196.590034 58.435306 
L 197.198761 58.435306 
L 197.503125 57.418005 
L 198.416216 57.418005 
L 198.72058 58.251444 
L 199.63367 58.251444 
L 199.938034 59.021998 
L 200.242398 59.021998 
L 200.546761 59.265667 
L 201.155489 59.265667 
L 201.459852 58.642682 
L 202.98167 58.642682 
L 203.286034 58.863825 
L 203.894761 58.863825 
L 204.199125 58.067691 
L 204.503489 62.95067 
L 205.720943 62.95067 
L 206.025307 62.167585 
L 206.32967 62.167585 
L 206.634034 61.983434 
L 206.938398 61.406912 
L 211.199489 61.406912 
L 211.503852 61.597015 
L 212.11258 61.597015 
L 212.416943 60.047643 
L 212.721307 60.047643 
L 213.02567 61.076988 
L 213.330034 60.432529 
L 213.938761 60.432529 
L 214.243125 61.277729 
L 222.765307 61.25934 
L 223.06967 56.805051 
L 223.982761 56.805051 
L 224.287125 58.003934 
L 224.591489 58.003934 
L 224.895852 57.618873 
L 225.50458 57.618873 
L 225.808943 58.258584 
L 226.113307 58.258584 
L 226.41767 58.912011 
L 227.026398 58.912011 
L 227.330761 60.206686 
L 236.46167 60.190442 
L 236.766034 59.505211 
L 241.635852 59.505211 
L 241.940216 64.808391 
L 244.679489 64.808391 
L 244.983852 64.291296 
L 249.549307 64.291296 
L 249.85367 64.11298 
L 251.375489 64.11298 
L 251.679852 66.184804 
L 251.984216 66.184804 
L 252.28858 69.126545 
L 254.723489 69.126545 
L 255.027852 218.88 
L 349.684943 218.88 
L 349.684943 218.88 
" clip-path="url(#pd455d37554)" style="fill: none; stroke: #1f77b4; stroke-width: 1.5; stroke-linecap: square"/>
   </g>
   <g id="patch_3">
    <path d="M 30.103125 228.96 
L 30.103125 7.2 
" style="fill: none; stroke: #000000; stroke-width: 0.8; stroke-linejoin: miter; stroke-linecap: square"/>
   </g>
   <g id="patch_4">
    <path d="M 364.903125 228.96 
L 364.903125 7.2 
" style="fill: none; stroke: #000000; stroke-width: 0.8; stroke-linejoin: miter; stroke-linecap: square"/>
   </g>
   <g id="patch_5">
    <path d="M 30.103125 228.96 
L 364.903125 228.96 
" style="fill: none; stroke: #000000; stroke-width: 0.8; stroke-linejoin: miter; stroke-linecap: square"/>
   </g>
   <g id="patch_6">
    <path d="M 30.103125 7.2 
L 364.903125 7.2 
" style="fill: none; stroke: #000000; stroke-width: 0.8; stroke-linejoin: miter; stroke-linecap: square"/>
   </g>
  </g>
 </g>
 <defs>
  <clipPath id="pd455d37554">
   <rect x="30.103125" y="7.2" width="334.8" height="221.76"/>
  </clipPath>
 </defs>
</svg>
