<?xml version="1.0" encoding="utf-8" standalone="no"?>
<!DOCTYPE svg PUBLIC "-//W3C//DTD SVG 1.1//EN"
  "http://www.w3.org/Graphics/SVG/1.1/DTD/svg11.dtd">
<svg xmlns:xlink="http://www.w3.org/1999/xlink" width="372.103125pt" height="254.941749pt" viewBox="0 0 372.103125 254.941749" xmlns="http://www.w3.org/2000/svg" version="1.1">
 <metadata>
  <rdf:RDF xmlns:dc="http://purl.org/dc/elements/1.1/" xmlns:cc="http://creativecommons.org/ns#" xmlns:rdf="http://www.w3.org/1999/02/22-rdf-syntax-ns#">
   <cc:Work>
    <dc:type rdf:resource="http://purl.org/dc/dcmitype/StillImage"/>
    <dc:date>2023-04-18T05:56:34.995284</dc:date>
    <dc:format>image/svg+xml</dc:format>
    <dc:creator>
     <cc:Agent>
      <dc:title>Matplotlib v3.7.1, https://matplotlib.org/</dc:title>
     </cc:Agent>
    </dc:creator>
   </cc:Work>
  </rdf:RDF>
 </metadata>
 <defs>
  <style type="text/css">*{stroke-linejoin: round; stroke-linecap: butt}</style>
 </defs>
 <g id="figure_1">
  <g id="patch_1">
   <path d="M 0 254.941749 
L 372.103125 254.941749 
L 372.103125 0 
L 0 0 
z
" style="fill: #ffffff"/>
  </g>
  <g id="axes_1">
   <g id="patch_2">
    <path d="M 30.103125 231.063624 
L 364.903125 231.063624 
L 364.903125 9.303624 
L 30.103125 9.303624 
z
" style="fill: #ffffff"/>
   </g>
   <g id="matplotlib.axis_1">
    <g id="xtick_1">
     <g id="line2d_1">
      <defs>
       <path id="me7d3013da4" d="M 0 0 
L 0 3.5 
" style="stroke: #000000; stroke-width: 0.8"/>
      </defs>
      <g>
       <use xlink:href="#me7d3013da4" x="45.321307" y="231.063624" style="stroke: #000000; stroke-width: 0.8"/>
      </g>
     </g>
     <g id="text_1">
      <!-- 0 -->
      <g transform="translate(42.140057 245.662061) scale(0.1 -0.1)">
       <defs>
        <path id="DejaVuSans-30" d="M 2034 4250 
Q 1547 4250 1301 3770 
Q 1056 3291 1056 2328 
Q 1056 1369 1301 889 
Q 1547 409 2034 409 
Q 2525 409 2770 889 
Q 3016 1369 3016 2328 
Q 3016 3291 2770 3770 
Q 2525 4250 2034 4250 
z
M 2034 4750 
Q 2819 4750 3233 4129 
Q 3647 3509 3647 2328 
Q 3647 1150 3233 529 
Q 2819 -91 2034 -91 
Q 1250 -91 836 529 
Q 422 1150 422 2328 
Q 422 3509 836 4129 
Q 1250 4750 2034 4750 
z
" transform="scale(0.015625)"/>
       </defs>
       <use xlink:href="#DejaVuSans-30"/>
      </g>
     </g>
    </g>
    <g id="xtick_2">
     <g id="line2d_2">
      <g>
       <use xlink:href="#me7d3013da4" x="92.083172" y="231.063624" style="stroke: #000000; stroke-width: 0.8"/>
      </g>
     </g>
     <g id="text_2">
      <!-- 100 -->
      <g transform="translate(82.539422 245.662061) scale(0.1 -0.1)">
       <defs>
        <path id="DejaVuSans-31" d="M 794 531 
L 1825 531 
L 1825 4091 
L 703 3866 
L 703 4441 
L 1819 4666 
L 2450 4666 
L 2450 531 
L 3481 531 
L 3481 0 
L 794 0 
L 794 531 
z
" transform="scale(0.015625)"/>
       </defs>
       <use xlink:href="#DejaVuSans-31"/>
       <use xlink:href="#DejaVuSans-30" x="63.623047"/>
       <use xlink:href="#DejaVuSans-30" x="127.246094"/>
      </g>
     </g>
    </g>
    <g id="xtick_3">
     <g id="line2d_3">
      <g>
       <use xlink:href="#me7d3013da4" x="138.845038" y="231.063624" style="stroke: #000000; stroke-width: 0.8"/>
      </g>
     </g>
     <g id="text_3">
      <!-- 200 -->
      <g transform="translate(129.301288 245.662061) scale(0.1 -0.1)">
       <defs>
        <path id="DejaVuSans-32" d="M 1228 531 
L 3431 531 
L 3431 0 
L 469 0 
L 469 531 
Q 828 903 1448 1529 
Q 2069 2156 2228 2338 
Q 2531 2678 2651 2914 
Q 2772 3150 2772 3378 
Q 2772 3750 2511 3984 
Q 2250 4219 1831 4219 
Q 1534 4219 1204 4116 
Q 875 4013 500 3803 
L 500 4441 
Q 881 4594 1212 4672 
Q 1544 4750 1819 4750 
Q 2544 4750 2975 4387 
Q 3406 4025 3406 3419 
Q 3406 3131 3298 2873 
Q 3191 2616 2906 2266 
Q 2828 2175 2409 1742 
Q 1991 1309 1228 531 
z
" transform="scale(0.015625)"/>
       </defs>
       <use xlink:href="#DejaVuSans-32"/>
       <use xlink:href="#DejaVuSans-30" x="63.623047"/>
       <use xlink:href="#DejaVuSans-30" x="127.246094"/>
      </g>
     </g>
    </g>
    <g id="xtick_4">
     <g id="line2d_4">
      <g>
       <use xlink:href="#me7d3013da4" x="185.606904" y="231.063624" style="stroke: #000000; stroke-width: 0.8"/>
      </g>
     </g>
     <g id="text_4">
      <!-- 300 -->
      <g transform="translate(176.063154 245.662061) scale(0.1 -0.1)">
       <defs>
        <path id="DejaVuSans-33" d="M 2597 2516 
Q 3050 2419 3304 2112 
Q 3559 1806 3559 1356 
Q 3559 666 3084 287 
Q 2609 -91 1734 -91 
Q 1441 -91 1130 -33 
Q 819 25 488 141 
L 488 750 
Q 750 597 1062 519 
Q 1375 441 1716 441 
Q 2309 441 2620 675 
Q 2931 909 2931 1356 
Q 2931 1769 2642 2001 
Q 2353 2234 1838 2234 
L 1294 2234 
L 1294 2753 
L 1863 2753 
Q 2328 2753 2575 2939 
Q 2822 3125 2822 3475 
Q 2822 3834 2567 4026 
Q 2313 4219 1838 4219 
Q 1578 4219 1281 4162 
Q 984 4106 628 3988 
L 628 4550 
Q 988 4650 1302 4700 
Q 1616 4750 1894 4750 
Q 2613 4750 3031 4423 
Q 3450 4097 3450 3541 
Q 3450 3153 3228 2886 
Q 3006 2619 2597 2516 
z
" transform="scale(0.015625)"/>
       </defs>
       <use xlink:href="#DejaVuSans-33"/>
       <use xlink:href="#DejaVuSans-30" x="63.623047"/>
       <use xlink:href="#DejaVuSans-30" x="127.246094"/>
      </g>
     </g>
    </g>
    <g id="xtick_5">
     <g id="line2d_5">
      <g>
       <use xlink:href="#me7d3013da4" x="232.368769" y="231.063624" style="stroke: #000000; stroke-width: 0.8"/>
      </g>
     </g>
     <g id="text_5">
      <!-- 400 -->
      <g transform="translate(222.825019 245.662061) scale(0.1 -0.1)">
       <defs>
        <path id="DejaVuSans-34" d="M 2419 4116 
L 825 1625 
L 2419 1625 
L 2419 4116 
z
M 2253 4666 
L 3047 4666 
L 3047 1625 
L 3713 1625 
L 3713 1100 
L 3047 1100 
L 3047 0 
L 2419 0 
L 2419 1100 
L 313 1100 
L 313 1709 
L 2253 4666 
z
" transform="scale(0.015625)"/>
       </defs>
       <use xlink:href="#DejaVuSans-34"/>
       <use xlink:href="#DejaVuSans-30" x="63.623047"/>
       <use xlink:href="#DejaVuSans-30" x="127.246094"/>
      </g>
     </g>
    </g>
    <g id="xtick_6">
     <g id="line2d_6">
      <g>
       <use xlink:href="#me7d3013da4" x="279.130635" y="231.063624" style="stroke: #000000; stroke-width: 0.8"/>
      </g>
     </g>
     <g id="text_6">
      <!-- 500 -->
      <g transform="translate(269.586885 245.662061) scale(0.1 -0.1)">
       <defs>
        <path id="DejaVuSans-35" d="M 691 4666 
L 3169 4666 
L 3169 4134 
L 1269 4134 
L 1269 2991 
Q 1406 3038 1543 3061 
Q 1681 3084 1819 3084 
Q 2600 3084 3056 2656 
Q 3513 2228 3513 1497 
Q 3513 744 3044 326 
Q 2575 -91 1722 -91 
Q 1428 -91 1123 -41 
Q 819 9 494 109 
L 494 744 
Q 775 591 1075 516 
Q 1375 441 1709 441 
Q 2250 441 2565 725 
Q 2881 1009 2881 1497 
Q 2881 1984 2565 2268 
Q 2250 2553 1709 2553 
Q 1456 2553 1204 2497 
Q 953 2441 691 2322 
L 691 4666 
z
" transform="scale(0.015625)"/>
       </defs>
       <use xlink:href="#DejaVuSans-35"/>
       <use xlink:href="#DejaVuSans-30" x="63.623047"/>
       <use xlink:href="#DejaVuSans-30" x="127.246094"/>
      </g>
     </g>
    </g>
    <g id="xtick_7">
     <g id="line2d_7">
      <g>
       <use xlink:href="#me7d3013da4" x="325.8925" y="231.063624" style="stroke: #000000; stroke-width: 0.8"/>
      </g>
     </g>
     <g id="text_7">
      <!-- 600 -->
      <g transform="translate(316.34875 245.662061) scale(0.1 -0.1)">
       <defs>
        <path id="DejaVuSans-36" d="M 2113 2584 
Q 1688 2584 1439 2293 
Q 1191 2003 1191 1497 
Q 1191 994 1439 701 
Q 1688 409 2113 409 
Q 2538 409 2786 701 
Q 3034 994 3034 1497 
Q 3034 2003 2786 2293 
Q 2538 2584 2113 2584 
z
M 3366 4563 
L 3366 3988 
Q 3128 4100 2886 4159 
Q 2644 4219 2406 4219 
Q 1781 4219 1451 3797 
Q 1122 3375 1075 2522 
Q 1259 2794 1537 2939 
Q 1816 3084 2150 3084 
Q 2853 3084 3261 2657 
Q 3669 2231 3669 1497 
Q 3669 778 3244 343 
Q 2819 -91 2113 -91 
Q 1303 -91 875 529 
Q 447 1150 447 2328 
Q 447 3434 972 4092 
Q 1497 4750 2381 4750 
Q 2619 4750 2861 4703 
Q 3103 4656 3366 4563 
z
" transform="scale(0.015625)"/>
       </defs>
       <use xlink:href="#DejaVuSans-36"/>
       <use xlink:href="#DejaVuSans-30" x="63.623047"/>
       <use xlink:href="#DejaVuSans-30" x="127.246094"/>
      </g>
     </g>
    </g>
   </g>
   <g id="matplotlib.axis_2">
    <g id="ytick_1">
     <g id="line2d_8">
      <defs>
       <path id="md5d570274e" d="M 0 0 
L -3.5 0 
" style="stroke: #000000; stroke-width: 0.8"/>
      </defs>
      <g>
       <use xlink:href="#md5d570274e" x="30.103125" y="220.983624" style="stroke: #000000; stroke-width: 0.8"/>
      </g>
     </g>
     <g id="text_8">
      <!-- 0.0 -->
      <g transform="translate(7.2 224.782842) scale(0.1 -0.1)">
       <defs>
        <path id="DejaVuSans-2e" d="M 684 794 
L 1344 794 
L 1344 0 
L 684 0 
L 684 794 
z
" transform="scale(0.015625)"/>
       </defs>
       <use xlink:href="#DejaVuSans-30"/>
       <use xlink:href="#DejaVuSans-2e" x="63.623047"/>
       <use xlink:href="#DejaVuSans-30" x="95.410156"/>
      </g>
     </g>
    </g>
    <g id="ytick_2">
     <g id="line2d_9">
      <g>
       <use xlink:href="#md5d570274e" x="30.103125" y="185.986223" style="stroke: #000000; stroke-width: 0.8"/>
      </g>
     </g>
     <g id="text_9">
      <!-- 0.2 -->
      <g transform="translate(7.2 189.785442) scale(0.1 -0.1)">
       <use xlink:href="#DejaVuSans-30"/>
       <use xlink:href="#DejaVuSans-2e" x="63.623047"/>
       <use xlink:href="#DejaVuSans-32" x="95.410156"/>
      </g>
     </g>
    </g>
    <g id="ytick_3">
     <g id="line2d_10">
      <g>
       <use xlink:href="#md5d570274e" x="30.103125" y="150.988822" style="stroke: #000000; stroke-width: 0.8"/>
      </g>
     </g>
     <g id="text_10">
      <!-- 0.4 -->
      <g transform="translate(7.2 154.788041) scale(0.1 -0.1)">
       <use xlink:href="#DejaVuSans-30"/>
       <use xlink:href="#DejaVuSans-2e" x="63.623047"/>
       <use xlink:href="#DejaVuSans-34" x="95.410156"/>
      </g>
     </g>
    </g>
    <g id="ytick_4">
     <g id="line2d_11">
      <g>
       <use xlink:href="#md5d570274e" x="30.103125" y="115.991421" style="stroke: #000000; stroke-width: 0.8"/>
      </g>
     </g>
     <g id="text_11">
      <!-- 0.6 -->
      <g transform="translate(7.2 119.79064) scale(0.1 -0.1)">
       <use xlink:href="#DejaVuSans-30"/>
       <use xlink:href="#DejaVuSans-2e" x="63.623047"/>
       <use xlink:href="#DejaVuSans-36" x="95.410156"/>
      </g>
     </g>
    </g>
    <g id="ytick_5">
     <g id="line2d_12">
      <g>
       <use xlink:href="#md5d570274e" x="30.103125" y="80.99402" style="stroke: #000000; stroke-width: 0.8"/>
      </g>
     </g>
     <g id="text_12">
      <!-- 0.8 -->
      <g transform="translate(7.2 84.793239) scale(0.1 -0.1)">
       <defs>
        <path id="DejaVuSans-38" d="M 2034 2216 
Q 1584 2216 1326 1975 
Q 1069 1734 1069 1313 
Q 1069 891 1326 650 
Q 1584 409 2034 409 
Q 2484 409 2743 651 
Q 3003 894 3003 1313 
Q 3003 1734 2745 1975 
Q 2488 2216 2034 2216 
z
M 1403 2484 
Q 997 2584 770 2862 
Q 544 3141 544 3541 
Q 544 4100 942 4425 
Q 1341 4750 2034 4750 
Q 2731 4750 3128 4425 
Q 3525 4100 3525 3541 
Q 3525 3141 3298 2862 
Q 3072 2584 2669 2484 
Q 3125 2378 3379 2068 
Q 3634 1759 3634 1313 
Q 3634 634 3220 271 
Q 2806 -91 2034 -91 
Q 1263 -91 848 271 
Q 434 634 434 1313 
Q 434 1759 690 2068 
Q 947 2378 1403 2484 
z
M 1172 3481 
Q 1172 3119 1398 2916 
Q 1625 2713 2034 2713 
Q 2441 2713 2670 2916 
Q 2900 3119 2900 3481 
Q 2900 3844 2670 4047 
Q 2441 4250 2034 4250 
Q 1625 4250 1398 4047 
Q 1172 3844 1172 3481 
z
" transform="scale(0.015625)"/>
       </defs>
       <use xlink:href="#DejaVuSans-30"/>
       <use xlink:href="#DejaVuSans-2e" x="63.623047"/>
       <use xlink:href="#DejaVuSans-38" x="95.410156"/>
      </g>
     </g>
    </g>
    <g id="ytick_6">
     <g id="line2d_13">
      <g>
       <use xlink:href="#md5d570274e" x="30.103125" y="45.99662" style="stroke: #000000; stroke-width: 0.8"/>
      </g>
     </g>
     <g id="text_13">
      <!-- 1.0 -->
      <g transform="translate(7.2 49.795838) scale(0.1 -0.1)">
       <use xlink:href="#DejaVuSans-31"/>
       <use xlink:href="#DejaVuSans-2e" x="63.623047"/>
       <use xlink:href="#DejaVuSans-30" x="95.410156"/>
      </g>
     </g>
    </g>
    <g id="ytick_7">
     <g id="line2d_14">
      <g>
       <use xlink:href="#md5d570274e" x="30.103125" y="10.999219" style="stroke: #000000; stroke-width: 0.8"/>
      </g>
     </g>
     <g id="text_14">
      <!-- 1.2 -->
      <g transform="translate(7.2 14.798437) scale(0.1 -0.1)">
       <use xlink:href="#DejaVuSans-31"/>
       <use xlink:href="#DejaVuSans-2e" x="63.623047"/>
       <use xlink:href="#DejaVuSans-32" x="95.410156"/>
      </g>
     </g>
    </g>
   </g>
   <g id="line2d_15">
    <path d="M 45.403259 35.957264 
L 45.926781 29.338546 
L 46.383418 28.65489 
L 47.297212 28.65489 
L 47.835153 31.280898 
L 48.28104 34.698566 
L 48.728805 36.32614 
L 49.189943 31.208726 
L 49.640006 31.208726 
L 50.170099 29.650253 
L 50.608917 31.147215 
L 51.523509 40.287171 
L 52.043207 39.324647 
L 52.499467 35.948645 
L 52.938425 35.14566 
L 53.375594 39.022471 
L 53.846657 33.415202 
L 54.352661 34.12534 
L 54.793583 33.477257 
L 55.691998 37.378435 
L 56.162297 40.647678 
L 56.660345 40.647678 
L 57.100818 40.263461 
L 57.536989 39.225254 
L 62.68019 39.225254 
L 63.134708 31.927233 
L 63.572038 36.74841 
L 63.999888 38.399617 
L 64.479863 38.399617 
L 64.986111 37.937836 
L 65.426424 41.403999 
L 65.866041 41.733562 
L 66.338649 45.00453 
L 67.286393 46.605799 
L 67.726518 49.306717 
L 68.16162 46.771826 
L 68.638379 47.796915 
L 69.131957 47.796915 
L 69.57512 47.302741 
L 70.013981 47.686685 
L 70.482573 48.507521 
L 70.965138 45.360085 
L 72.306844 45.360085 
L 72.779741 41.165231 
L 73.279039 42.03273 
L 73.719307 34.531794 
L 74.162618 33.162775 
L 74.631671 38.024661 
L 75.092378 38.657451 
L 75.595559 41.376474 
L 78.359319 41.376474 
L 78.813879 22.486227 
L 79.792376 30.620475 
L 81.634604 30.620475 
L 82.081697 35.843007 
L 82.517997 28.475024 
L 83.97581 28.475024 
L 84.409045 31.444586 
L 85.313012 31.444586 
L 85.800275 37.031907 
L 87.17399 37.031907 
L 87.65412 38.336694 
L 88.189847 44.859682 
L 88.631342 42.887579 
L 89.071182 42.845328 
L 89.53624 45.50277 
L 89.981298 51.046563 
L 90.509869 52.380809 
L 90.950189 51.528433 
L 91.382906 51.180429 
L 92.357683 51.180429 
L 92.827847 43.123085 
L 93.262116 43.5905 
L 94.172401 43.5905 
L 94.694645 41.352634 
L 95.560871 41.352634 
L 96.030103 43.039647 
L 96.506679 42.066191 
L 97.007513 40.62772 
L 97.878947 40.62772 
L 98.351109 34.571133 
L 98.859988 32.629887 
L 99.299876 37.822621 
L 99.738665 37.627945 
L 100.205346 35.599135 
L 100.644953 31.612002 
L 101.171906 35.144417 
L 101.614521 35.308327 
L 102.050466 40.464001 
L 102.52183 35.81653 
L 103.02265 37.743879 
L 103.459144 33.028172 
L 103.899605 33.028172 
L 104.340535 32.110248 
L 106.653019 32.110248 
L 107.613855 35.249653 
L 108.049714 36.013335 
L 108.477059 32.890203 
L 109.467391 32.890203 
L 110.341886 35.008704 
L 110.809937 35.008704 
L 111.254126 35.993545 
L 112.214164 35.993545 
L 112.645775 33.178146 
L 113.114409 31.110076 
L 113.633964 31.419931 
L 114.094345 33.959523 
L 114.541595 30.974874 
L 114.984083 32.361712 
L 115.453414 32.361712 
L 116.003869 24.769812 
L 116.44189 21.070827 
L 116.876077 19.383624 
L 117.338974 22.984314 
L 118.726259 22.984314 
L 119.155084 28.459883 
L 119.624153 28.459883 
L 120.150239 29.759066 
L 120.596391 28.180521 
L 121.03776 28.180521 
L 121.5023 35.585142 
L 121.94409 33.418193 
L 122.469205 33.076889 
L 122.907248 35.802366 
L 123.344949 35.802366 
L 123.814616 39.095952 
L 124.774826 38.837455 
L 125.21948 42.489396 
L 126.631462 42.489396 
L 127.06514 43.978247 
L 127.496366 43.821257 
L 127.965473 41.231416 
L 128.455583 41.057568 
L 128.939489 40.568134 
L 129.811446 40.568134 
L 130.278508 32.241285 
L 130.780626 34.498134 
L 132.125045 34.498134 
L 132.569841 30.621978 
L 133.098401 36.461857 
L 133.982509 36.534517 
L 134.452741 33.512078 
L 134.984063 32.718364 
L 135.443862 32.668308 
L 135.880744 34.23974 
L 136.31106 37.938335 
L 136.785654 36.073166 
L 137.300318 35.9362 
L 137.746915 33.763276 
L 138.19011 35.090074 
L 138.65703 33.687032 
L 139.631968 33.72964 
L 140.071521 27.534501 
L 140.504044 27.534501 
L 140.969149 28.323984 
L 141.457204 30.798819 
L 141.893573 30.798819 
L 142.336939 29.331936 
L 143.24028 29.331936 
L 143.77203 28.327634 
L 144.211437 30.72744 
L 144.648676 28.438329 
L 145.119643 30.894937 
L 145.630096 31.474084 
L 146.534289 31.474084 
L 146.959973 29.018121 
L 148.353681 29.018121 
L 148.801937 38.375144 
L 149.739576 41.727089 
L 150.682395 41.727089 
L 151.115089 45.54355 
L 151.590572 46.760388 
L 152.559985 46.569954 
L 152.995924 46.363533 
L 153.901919 46.454798 
L 154.417396 46.830186 
L 154.85454 45.961286 
L 155.289422 45.961286 
L 155.759052 47.47808 
L 156.265146 46.080989 
L 157.15364 46.080989 
L 157.588247 47.901337 
L 158.061817 45.049427 
L 158.564044 47.908059 
L 159.002946 47.423505 
L 159.435873 48.395945 
L 159.900926 46.933572 
L 160.370576 43.861595 
L 160.854058 43.907857 
L 161.290745 42.236325 
L 161.717379 44.498156 
L 162.190467 45.669637 
L 162.728141 46.545839 
L 163.605191 44.568001 
L 164.058543 44.93218 
L 164.501569 39.97827 
L 165.463492 44.583057 
L 165.904484 42.098494 
L 166.377462 45.935925 
L 167.750354 45.929416 
L 168.187692 44.212606 
L 168.663936 44.902137 
L 172.377762 44.902137 
L 172.854278 44.756356 
L 173.388001 42.656995 
L 174.264165 42.578233 
L 174.724378 44.534913 
L 175.160266 43.038548 
L 175.692642 42.064465 
L 176.135653 43.373313 
L 176.575214 44.138917 
L 177.048852 44.138917 
L 177.56692 45.02816 
L 178.003434 43.145375 
L 178.876065 43.048554 
L 180.315136 43.098548 
L 180.752016 42.573776 
L 182.602786 42.573776 
L 183.029297 40.3227 
L 183.502746 40.746667 
L 184.022837 40.746667 
L 184.903373 37.253714 
L 185.333581 39.246035 
L 185.778123 39.834882 
L 186.229996 40.232523 
L 186.655279 37.941062 
L 187.081951 37.941062 
L 187.499013 40.846313 
L 187.931045 40.863692 
L 188.354079 41.224338 
L 188.780344 41.316738 
L 189.207008 43.135551 
L 189.630861 42.726156 
L 190.046188 43.2503 
L 190.475852 44.446619 
L 190.904848 44.446619 
L 191.322321 45.596823 
L 191.749823 45.46456 
L 192.177657 47.849707 
L 193.039409 50.413982 
L 193.467806 49.522469 
L 194.737523 49.522469 
L 195.163633 47.094818 
L 195.590033 47.83227 
L 196.025067 46.06123 
L 196.446839 46.06123 
L 196.87682 47.441681 
L 197.729705 47.347891 
L 198.587155 47.347891 
L 199.007378 45.49542 
L 199.440759 46.826356 
L 200.287975 46.922183 
L 200.709546 45.717864 
L 201.128603 45.717864 
L 201.553645 46.774382 
L 201.971693 48.56121 
L 202.819101 48.956267 
L 203.243571 48.956267 
L 203.669447 48.369993 
L 204.088951 49.699415 
L 204.518904 49.762757 
L 204.939142 49.344956 
L 205.359349 49.344956 
L 205.789694 48.831299 
L 206.221466 48.831299 
L 206.650408 47.222334 
L 207.07536 48.228963 
L 207.497069 51.998864 
L 211.753164 51.998864 
L 212.175433 48.082888 
L 212.60881 48.082888 
L 213.039757 48.312103 
L 213.461976 48.927237 
L 214.314374 48.927237 
L 214.747974 50.46405 
L 215.176886 50.46405 
L 215.609035 50.637863 
L 216.038746 48.116042 
L 216.453768 48.574498 
L 216.870278 48.574498 
L 217.293347 45.157353 
L 217.718453 45.592625 
L 218.145224 45.592625 
L 218.565553 44.223601 
L 219.418166 44.293437 
L 219.8491 44.293437 
L 220.274097 44.005448 
L 220.699649 44.34435 
L 221.124697 44.34435 
L 221.546946 42.603752 
L 221.971276 41.929087 
L 222.837751 41.929087 
L 223.259621 43.285206 
L 223.6879 43.285206 
L 224.118355 43.707206 
L 224.552448 41.888287 
L 224.972214 36.785489 
L 226.673528 36.869002 
L 227.101685 32.951345 
L 227.524884 34.289358 
L 228.79274 34.289358 
L 229.217734 34.004806 
L 230.909228 33.99069 
L 231.339812 34.373218 
L 231.769206 32.895698 
L 232.19016 34.188538 
L 232.616903 34.411635 
L 233.039565 33.955363 
L 234.749439 34.013556 
L 235.177355 33.753579 
L 235.599142 33.753579 
L 236.023419 32.58018 
L 236.453872 33.690264 
L 236.884309 33.690264 
L 237.308472 34.198019 
L 237.730937 32.547975 
L 238.154883 32.547975 
L 239.003476 34.61622 
L 239.424262 34.61622 
L 239.856456 33.133232 
L 240.273634 33.662189 
L 240.701348 32.45176 
L 241.124551 34.834148 
L 241.546229 36.102583 
L 242.388286 36.102583 
L 242.814597 35.571158 
L 243.242085 35.927518 
L 243.662905 36.097365 
L 244.089414 36.097365 
L 244.507396 35.746584 
L 244.937754 35.746584 
L 245.369324 35.985374 
L 245.792003 35.985374 
L 246.213232 36.365664 
L 248.755584 36.630964 
L 249.181182 36.630964 
L 249.609473 35.589781 
L 250.032077 35.589781 
L 250.454073 36.4101 
L 250.873327 36.878696 
L 251.71594 36.878696 
L 252.142192 35.307776 
L 252.570175 35.307776 
L 252.998767 32.690327 
L 253.416851 31.634832 
L 253.847243 31.634832 
L 254.270326 30.636311 
L 254.698652 29.085722 
L 255.120919 28.092886 
L 255.540151 30.047416 
L 256.395373 30.047416 
L 257.249097 32.529869 
L 258.100668 32.529869 
L 258.52988 33.037501 
L 259.81399 33.037501 
L 260.24204 35.296675 
L 261.089629 34.777635 
L 261.516388 35.514856 
L 262.371407 35.514856 
L 262.796197 34.253193 
L 264.074412 34.253193 
L 264.497542 35.048872 
L 264.92022 35.048872 
L 265.35292 35.828936 
L 267.892644 35.828936 
L 268.316162 36.405737 
L 269.167831 36.405737 
L 269.59221 34.039496 
L 270.017521 34.87139 
L 270.446001 34.014916 
L 271.723168 34.014916 
L 272.139009 33.549276 
L 272.569055 33.549276 
L 273.002428 31.495695 
L 273.854713 31.495695 
L 274.280293 31.906684 
L 274.710012 31.906684 
L 275.135965 31.241305 
L 275.564013 31.241305 
L 275.993341 31.129508 
L 276.418196 32.486483 
L 276.845389 30.828855 
L 277.271556 31.562658 
L 278.563016 31.562658 
L 278.989621 32.528573 
L 283.245109 32.463922 
L 283.671907 33.306527 
L 284.523771 33.306527 
L 284.940401 33.09589 
L 285.366851 32.713968 
L 286.648582 32.713968 
L 287.069909 33.842792 
L 287.490975 35.823837 
L 287.913792 35.730424 
L 288.344083 33.474516 
L 288.774937 33.474516 
L 289.203624 34.211178 
L 289.639563 34.211178 
L 290.065385 34.464783 
L 292.634026 34.464783 
L 293.056716 32.402742 
L 293.481734 31.239168 
L 295.597411 31.239168 
L 296.019959 29.320734 
L 296.862691 29.320734 
L 297.710646 31.730279 
L 298.560563 31.730279 
L 298.986786 31.988952 
L 299.407629 32.560585 
L 299.8281 33.835061 
L 300.254184 33.835061 
L 300.679305 34.38876 
L 301.102985 33.602457 
L 301.53645 33.588516 
L 301.96635 34.794459 
L 302.399233 35.076598 
L 302.83578 35.076598 
L 303.260099 35.849051 
L 303.687463 34.846454 
L 304.537602 34.846454 
L 305.379731 31.698914 
L 305.800195 32.024658 
L 306.225986 32.024658 
L 306.650195 31.56842 
L 307.067888 30.713507 
L 307.917199 30.713507 
L 308.343371 32.342134 
L 308.771973 31.57796 
L 309.199703 31.57796 
L 309.625402 30.651449 
L 310.045791 31.145622 
L 311.739234 31.111743 
L 312.155018 32.36828 
L 312.584513 35.552044 
L 314.726307 35.552044 
L 315.152334 36.657747 
L 316.424807 36.765308 
L 316.853577 39.060554 
L 317.281038 39.060554 
L 317.71543 38.625081 
L 318.567079 38.625081 
L 318.994161 39.932536 
L 319.419548 38.961135 
L 319.854742 38.565325 
L 320.281929 38.826461 
L 320.704119 38.826461 
L 321.126013 40.066041 
L 321.554715 41.729252 
L 323.260982 41.699457 
L 323.685805 41.699457 
L 324.108897 41.126241 
L 326.232077 41.126241 
L 326.660275 42.184034 
L 327.513911 42.184034 
L 327.938186 41.512829 
L 328.794744 41.512829 
L 329.232211 42.964725 
L 329.64934 42.964725 
L 330.072174 43.523814 
L 330.500673 43.523814 
L 330.931578 43.74631 
L 331.783342 42.661701 
L 332.20479 42.661701 
L 332.629137 43.62212 
L 334.327852 43.62212 
L 334.75905 43.768254 
L 336.034186 43.768254 
L 336.469488 44.684411 
L 336.893431 46.294613 
L 337.746714 46.294613 
L 338.176417 45.844803 
L 339.025435 45.844803 
L 339.459308 45.585129 
L 340.73913 45.585129 
L 341.157275 43.710168 
L 341.578121 43.368014 
L 343.280001 43.368014 
L 343.714916 45.385868 
L 344.569511 45.385868 
L 344.99616 45.822136 
L 345.856168 45.822136 
L 346.280494 46.648051 
L 349.684943 46.626624 
L 45.321307 220.983624 
L 45.321307 220.983624 
" clip-path="url(#p2c9caaff82)" style="fill: none; stroke: #1f77b4; stroke-width: 1.5; stroke-linecap: square"/>
   </g>
   <g id="patch_3">
    <path d="M 30.103125 231.063624 
L 30.103125 9.303624 
" style="fill: none; stroke: #000000; stroke-width: 0.8; stroke-linejoin: miter; stroke-linecap: square"/>
   </g>
   <g id="patch_4">
    <path d="M 364.903125 231.063624 
L 364.903125 9.303624 
" style="fill: none; stroke: #000000; stroke-width: 0.8; stroke-linejoin: miter; stroke-linecap: square"/>
   </g>
   <g id="patch_5">
    <path d="M 30.103125 231.063624 
L 364.903125 231.063624 
" style="fill: none; stroke: #000000; stroke-width: 0.8; stroke-linejoin: miter; stroke-linecap: square"/>
   </g>
   <g id="patch_6">
    <path d="M 30.103125 9.303624 
L 364.903125 9.303624 
" style="fill: none; stroke: #000000; stroke-width: 0.8; stroke-linejoin: miter; stroke-linecap: square"/>
   </g>
   <g id="legend_1">
    <g id="patch_7">
     <path d="M 204.514063 226.063624 
L 357.903125 226.063624 
Q 359.903125 226.063624 359.903125 224.063624 
L 359.903125 210.385499 
Q 359.903125 208.385499 357.903125 208.385499 
L 204.514063 208.385499 
Q 202.514063 208.385499 202.514063 210.385499 
L 202.514063 224.063624 
Q 202.514063 226.063624 204.514063 226.063624 
z
" style="fill: #ffffff; opacity: 0.8; stroke: #cccccc; stroke-linejoin: miter"/>
    </g>
    <g id="line2d_16">
     <path d="M 206.514063 216.483936 
L 216.514063 216.483936 
L 226.514063 216.483936 
" style="fill: none; stroke: #1f77b4; stroke-width: 1.5; stroke-linecap: square"/>
    </g>
    <g id="text_15">
     <!-- node storage proportion -->
     <g transform="translate(234.514063 219.983936) scale(0.1 -0.1)">
      <defs>
       <path id="DejaVuSans-6e" d="M 3513 2113 
L 3513 0 
L 2938 0 
L 2938 2094 
Q 2938 2591 2744 2837 
Q 2550 3084 2163 3084 
Q 1697 3084 1428 2787 
Q 1159 2491 1159 1978 
L 1159 0 
L 581 0 
L 581 3500 
L 1159 3500 
L 1159 2956 
Q 1366 3272 1645 3428 
Q 1925 3584 2291 3584 
Q 2894 3584 3203 3211 
Q 3513 2838 3513 2113 
z
" transform="scale(0.015625)"/>
       <path id="DejaVuSans-6f" d="M 1959 3097 
Q 1497 3097 1228 2736 
Q 959 2375 959 1747 
Q 959 1119 1226 758 
Q 1494 397 1959 397 
Q 2419 397 2687 759 
Q 2956 1122 2956 1747 
Q 2956 2369 2687 2733 
Q 2419 3097 1959 3097 
z
M 1959 3584 
Q 2709 3584 3137 3096 
Q 3566 2609 3566 1747 
Q 3566 888 3137 398 
Q 2709 -91 1959 -91 
Q 1206 -91 779 398 
Q 353 888 353 1747 
Q 353 2609 779 3096 
Q 1206 3584 1959 3584 
z
" transform="scale(0.015625)"/>
       <path id="DejaVuSans-64" d="M 2906 2969 
L 2906 4863 
L 3481 4863 
L 3481 0 
L 2906 0 
L 2906 525 
Q 2725 213 2448 61 
Q 2172 -91 1784 -91 
Q 1150 -91 751 415 
Q 353 922 353 1747 
Q 353 2572 751 3078 
Q 1150 3584 1784 3584 
Q 2172 3584 2448 3432 
Q 2725 3281 2906 2969 
z
M 947 1747 
Q 947 1113 1208 752 
Q 1469 391 1925 391 
Q 2381 391 2643 752 
Q 2906 1113 2906 1747 
Q 2906 2381 2643 2742 
Q 2381 3103 1925 3103 
Q 1469 3103 1208 2742 
Q 947 2381 947 1747 
z
" transform="scale(0.015625)"/>
       <path id="DejaVuSans-65" d="M 3597 1894 
L 3597 1613 
L 953 1613 
Q 991 1019 1311 708 
Q 1631 397 2203 397 
Q 2534 397 2845 478 
Q 3156 559 3463 722 
L 3463 178 
Q 3153 47 2828 -22 
Q 2503 -91 2169 -91 
Q 1331 -91 842 396 
Q 353 884 353 1716 
Q 353 2575 817 3079 
Q 1281 3584 2069 3584 
Q 2775 3584 3186 3129 
Q 3597 2675 3597 1894 
z
M 3022 2063 
Q 3016 2534 2758 2815 
Q 2500 3097 2075 3097 
Q 1594 3097 1305 2825 
Q 1016 2553 972 2059 
L 3022 2063 
z
" transform="scale(0.015625)"/>
       <path id="DejaVuSans-20" transform="scale(0.015625)"/>
       <path id="DejaVuSans-73" d="M 2834 3397 
L 2834 2853 
Q 2591 2978 2328 3040 
Q 2066 3103 1784 3103 
Q 1356 3103 1142 2972 
Q 928 2841 928 2578 
Q 928 2378 1081 2264 
Q 1234 2150 1697 2047 
L 1894 2003 
Q 2506 1872 2764 1633 
Q 3022 1394 3022 966 
Q 3022 478 2636 193 
Q 2250 -91 1575 -91 
Q 1294 -91 989 -36 
Q 684 19 347 128 
L 347 722 
Q 666 556 975 473 
Q 1284 391 1588 391 
Q 1994 391 2212 530 
Q 2431 669 2431 922 
Q 2431 1156 2273 1281 
Q 2116 1406 1581 1522 
L 1381 1569 
Q 847 1681 609 1914 
Q 372 2147 372 2553 
Q 372 3047 722 3315 
Q 1072 3584 1716 3584 
Q 2034 3584 2315 3537 
Q 2597 3491 2834 3397 
z
" transform="scale(0.015625)"/>
       <path id="DejaVuSans-74" d="M 1172 4494 
L 1172 3500 
L 2356 3500 
L 2356 3053 
L 1172 3053 
L 1172 1153 
Q 1172 725 1289 603 
Q 1406 481 1766 481 
L 2356 481 
L 2356 0 
L 1766 0 
Q 1100 0 847 248 
Q 594 497 594 1153 
L 594 3053 
L 172 3053 
L 172 3500 
L 594 3500 
L 594 4494 
L 1172 4494 
z
" transform="scale(0.015625)"/>
       <path id="DejaVuSans-72" d="M 2631 2963 
Q 2534 3019 2420 3045 
Q 2306 3072 2169 3072 
Q 1681 3072 1420 2755 
Q 1159 2438 1159 1844 
L 1159 0 
L 581 0 
L 581 3500 
L 1159 3500 
L 1159 2956 
Q 1341 3275 1631 3429 
Q 1922 3584 2338 3584 
Q 2397 3584 2469 3576 
Q 2541 3569 2628 3553 
L 2631 2963 
z
" transform="scale(0.015625)"/>
       <path id="DejaVuSans-61" d="M 2194 1759 
Q 1497 1759 1228 1600 
Q 959 1441 959 1056 
Q 959 750 1161 570 
Q 1363 391 1709 391 
Q 2188 391 2477 730 
Q 2766 1069 2766 1631 
L 2766 1759 
L 2194 1759 
z
M 3341 1997 
L 3341 0 
L 2766 0 
L 2766 531 
Q 2569 213 2275 61 
Q 1981 -91 1556 -91 
Q 1019 -91 701 211 
Q 384 513 384 1019 
Q 384 1609 779 1909 
Q 1175 2209 1959 2209 
L 2766 2209 
L 2766 2266 
Q 2766 2663 2505 2880 
Q 2244 3097 1772 3097 
Q 1472 3097 1187 3025 
Q 903 2953 641 2809 
L 641 3341 
Q 956 3463 1253 3523 
Q 1550 3584 1831 3584 
Q 2591 3584 2966 3190 
Q 3341 2797 3341 1997 
z
" transform="scale(0.015625)"/>
       <path id="DejaVuSans-67" d="M 2906 1791 
Q 2906 2416 2648 2759 
Q 2391 3103 1925 3103 
Q 1463 3103 1205 2759 
Q 947 2416 947 1791 
Q 947 1169 1205 825 
Q 1463 481 1925 481 
Q 2391 481 2648 825 
Q 2906 1169 2906 1791 
z
M 3481 434 
Q 3481 -459 3084 -895 
Q 2688 -1331 1869 -1331 
Q 1566 -1331 1297 -1286 
Q 1028 -1241 775 -1147 
L 775 -588 
Q 1028 -725 1275 -790 
Q 1522 -856 1778 -856 
Q 2344 -856 2625 -561 
Q 2906 -266 2906 331 
L 2906 616 
Q 2728 306 2450 153 
Q 2172 0 1784 0 
Q 1141 0 747 490 
Q 353 981 353 1791 
Q 353 2603 747 3093 
Q 1141 3584 1784 3584 
Q 2172 3584 2450 3431 
Q 2728 3278 2906 2969 
L 2906 3500 
L 3481 3500 
L 3481 434 
z
" transform="scale(0.015625)"/>
       <path id="DejaVuSans-70" d="M 1159 525 
L 1159 -1331 
L 581 -1331 
L 581 3500 
L 1159 3500 
L 1159 2969 
Q 1341 3281 1617 3432 
Q 1894 3584 2278 3584 
Q 2916 3584 3314 3078 
Q 3713 2572 3713 1747 
Q 3713 922 3314 415 
Q 2916 -91 2278 -91 
Q 1894 -91 1617 61 
Q 1341 213 1159 525 
z
M 3116 1747 
Q 3116 2381 2855 2742 
Q 2594 3103 2138 3103 
Q 1681 3103 1420 2742 
Q 1159 2381 1159 1747 
Q 1159 1113 1420 752 
Q 1681 391 2138 391 
Q 2594 391 2855 752 
Q 3116 1113 3116 1747 
z
" transform="scale(0.015625)"/>
       <path id="DejaVuSans-69" d="M 603 3500 
L 1178 3500 
L 1178 0 
L 603 0 
L 603 3500 
z
M 603 4863 
L 1178 4863 
L 1178 4134 
L 603 4134 
L 603 4863 
z
" transform="scale(0.015625)"/>
      </defs>
      <use xlink:href="#DejaVuSans-6e"/>
      <use xlink:href="#DejaVuSans-6f" x="63.378906"/>
      <use xlink:href="#DejaVuSans-64" x="124.560547"/>
      <use xlink:href="#DejaVuSans-65" x="188.037109"/>
      <use xlink:href="#DejaVuSans-20" x="249.560547"/>
      <use xlink:href="#DejaVuSans-73" x="281.347656"/>
      <use xlink:href="#DejaVuSans-74" x="333.447266"/>
      <use xlink:href="#DejaVuSans-6f" x="372.65625"/>
      <use xlink:href="#DejaVuSans-72" x="433.837891"/>
      <use xlink:href="#DejaVuSans-61" x="474.951172"/>
      <use xlink:href="#DejaVuSans-67" x="536.230469"/>
      <use xlink:href="#DejaVuSans-65" x="599.707031"/>
      <use xlink:href="#DejaVuSans-20" x="661.230469"/>
      <use xlink:href="#DejaVuSans-70" x="693.017578"/>
      <use xlink:href="#DejaVuSans-72" x="756.494141"/>
      <use xlink:href="#DejaVuSans-6f" x="795.357422"/>
      <use xlink:href="#DejaVuSans-70" x="856.539062"/>
      <use xlink:href="#DejaVuSans-6f" x="920.015625"/>
      <use xlink:href="#DejaVuSans-72" x="981.197266"/>
      <use xlink:href="#DejaVuSans-74" x="1022.310547"/>
      <use xlink:href="#DejaVuSans-69" x="1061.519531"/>
      <use xlink:href="#DejaVuSans-6f" x="1089.302734"/>
      <use xlink:href="#DejaVuSans-6e" x="1150.484375"/>
     </g>
    </g>
   </g>
  </g>
 </g>
 <defs>
  <clipPath id="p2c9caaff82">
   <rect x="30.103125" y="9.303624" width="334.8" height="221.76"/>
  </clipPath>
 </defs>
</svg>
