<?xml version="1.0" encoding="utf-8" standalone="no"?>
<!DOCTYPE svg PUBLIC "-//W3C//DTD SVG 1.1//EN"
  "http://www.w3.org/Graphics/SVG/1.1/DTD/svg11.dtd">
<svg xmlns:xlink="http://www.w3.org/1999/xlink" width="372.103125pt" height="254.941749pt" viewBox="0 0 372.103125 254.941749" xmlns="http://www.w3.org/2000/svg" version="1.1">
 <metadata>
  <rdf:RDF xmlns:dc="http://purl.org/dc/elements/1.1/" xmlns:cc="http://creativecommons.org/ns#" xmlns:rdf="http://www.w3.org/1999/02/22-rdf-syntax-ns#">
   <cc:Work>
    <dc:type rdf:resource="http://purl.org/dc/dcmitype/StillImage"/>
    <dc:date>2023-04-18T05:56:34.791519</dc:date>
    <dc:format>image/svg+xml</dc:format>
    <dc:creator>
     <cc:Agent>
      <dc:title>Matplotlib v3.7.1, https://matplotlib.org/</dc:title>
     </cc:Agent>
    </dc:creator>
   </cc:Work>
  </rdf:RDF>
 </metadata>
 <defs>
  <style type="text/css">*{stroke-linejoin: round; stroke-linecap: butt}</style>
 </defs>
 <g id="figure_1">
  <g id="patch_1">
   <path d="M 0 254.941749 
L 372.103125 254.941749 
L 372.103125 0 
L 0 0 
z
" style="fill: #ffffff"/>
  </g>
  <g id="axes_1">
   <g id="patch_2">
    <path d="M 30.103125 231.063624 
L 364.903125 231.063624 
L 364.903125 9.303624 
L 30.103125 9.303624 
z
" style="fill: #ffffff"/>
   </g>
   <g id="matplotlib.axis_1">
    <g id="xtick_1">
     <g id="line2d_1">
      <defs>
       <path id="m02393809e3" d="M 0 0 
L 0 3.5 
" style="stroke: #000000; stroke-width: 0.8"/>
      </defs>
      <g>
       <use xlink:href="#m02393809e3" x="45.321307" y="231.063624" style="stroke: #000000; stroke-width: 0.8"/>
      </g>
     </g>
     <g id="text_1">
      <!-- 0 -->
      <g transform="translate(42.140057 245.662061) scale(0.1 -0.1)">
       <defs>
        <path id="DejaVuSans-30" d="M 2034 4250 
Q 1547 4250 1301 3770 
Q 1056 3291 1056 2328 
Q 1056 1369 1301 889 
Q 1547 409 2034 409 
Q 2525 409 2770 889 
Q 3016 1369 3016 2328 
Q 3016 3291 2770 3770 
Q 2525 4250 2034 4250 
z
M 2034 4750 
Q 2819 4750 3233 4129 
Q 3647 3509 3647 2328 
Q 3647 1150 3233 529 
Q 2819 -91 2034 -91 
Q 1250 -91 836 529 
Q 422 1150 422 2328 
Q 422 3509 836 4129 
Q 1250 4750 2034 4750 
z
" transform="scale(0.015625)"/>
       </defs>
       <use xlink:href="#DejaVuSans-30"/>
      </g>
     </g>
    </g>
    <g id="xtick_2">
     <g id="line2d_2">
      <g>
       <use xlink:href="#m02393809e3" x="106.194034" y="231.063624" style="stroke: #000000; stroke-width: 0.8"/>
      </g>
     </g>
     <g id="text_2">
      <!-- 200 -->
      <g transform="translate(96.650284 245.662061) scale(0.1 -0.1)">
       <defs>
        <path id="DejaVuSans-32" d="M 1228 531 
L 3431 531 
L 3431 0 
L 469 0 
L 469 531 
Q 828 903 1448 1529 
Q 2069 2156 2228 2338 
Q 2531 2678 2651 2914 
Q 2772 3150 2772 3378 
Q 2772 3750 2511 3984 
Q 2250 4219 1831 4219 
Q 1534 4219 1204 4116 
Q 875 4013 500 3803 
L 500 4441 
Q 881 4594 1212 4672 
Q 1544 4750 1819 4750 
Q 2544 4750 2975 4387 
Q 3406 4025 3406 3419 
Q 3406 3131 3298 2873 
Q 3191 2616 2906 2266 
Q 2828 2175 2409 1742 
Q 1991 1309 1228 531 
z
" transform="scale(0.015625)"/>
       </defs>
       <use xlink:href="#DejaVuSans-32"/>
       <use xlink:href="#DejaVuSans-30" x="63.623047"/>
       <use xlink:href="#DejaVuSans-30" x="127.246094"/>
      </g>
     </g>
    </g>
    <g id="xtick_3">
     <g id="line2d_3">
      <g>
       <use xlink:href="#m02393809e3" x="167.066761" y="231.063624" style="stroke: #000000; stroke-width: 0.8"/>
      </g>
     </g>
     <g id="text_3">
      <!-- 400 -->
      <g transform="translate(157.523011 245.662061) scale(0.1 -0.1)">
       <defs>
        <path id="DejaVuSans-34" d="M 2419 4116 
L 825 1625 
L 2419 1625 
L 2419 4116 
z
M 2253 4666 
L 3047 4666 
L 3047 1625 
L 3713 1625 
L 3713 1100 
L 3047 1100 
L 3047 0 
L 2419 0 
L 2419 1100 
L 313 1100 
L 313 1709 
L 2253 4666 
z
" transform="scale(0.015625)"/>
       </defs>
       <use xlink:href="#DejaVuSans-34"/>
       <use xlink:href="#DejaVuSans-30" x="63.623047"/>
       <use xlink:href="#DejaVuSans-30" x="127.246094"/>
      </g>
     </g>
    </g>
    <g id="xtick_4">
     <g id="line2d_4">
      <g>
       <use xlink:href="#m02393809e3" x="227.939489" y="231.063624" style="stroke: #000000; stroke-width: 0.8"/>
      </g>
     </g>
     <g id="text_4">
      <!-- 600 -->
      <g transform="translate(218.395739 245.662061) scale(0.1 -0.1)">
       <defs>
        <path id="DejaVuSans-36" d="M 2113 2584 
Q 1688 2584 1439 2293 
Q 1191 2003 1191 1497 
Q 1191 994 1439 701 
Q 1688 409 2113 409 
Q 2538 409 2786 701 
Q 3034 994 3034 1497 
Q 3034 2003 2786 2293 
Q 2538 2584 2113 2584 
z
M 3366 4563 
L 3366 3988 
Q 3128 4100 2886 4159 
Q 2644 4219 2406 4219 
Q 1781 4219 1451 3797 
Q 1122 3375 1075 2522 
Q 1259 2794 1537 2939 
Q 1816 3084 2150 3084 
Q 2853 3084 3261 2657 
Q 3669 2231 3669 1497 
Q 3669 778 3244 343 
Q 2819 -91 2113 -91 
Q 1303 -91 875 529 
Q 447 1150 447 2328 
Q 447 3434 972 4092 
Q 1497 4750 2381 4750 
Q 2619 4750 2861 4703 
Q 3103 4656 3366 4563 
z
" transform="scale(0.015625)"/>
       </defs>
       <use xlink:href="#DejaVuSans-36"/>
       <use xlink:href="#DejaVuSans-30" x="63.623047"/>
       <use xlink:href="#DejaVuSans-30" x="127.246094"/>
      </g>
     </g>
    </g>
    <g id="xtick_5">
     <g id="line2d_5">
      <g>
       <use xlink:href="#m02393809e3" x="288.812216" y="231.063624" style="stroke: #000000; stroke-width: 0.8"/>
      </g>
     </g>
     <g id="text_5">
      <!-- 800 -->
      <g transform="translate(279.268466 245.662061) scale(0.1 -0.1)">
       <defs>
        <path id="DejaVuSans-38" d="M 2034 2216 
Q 1584 2216 1326 1975 
Q 1069 1734 1069 1313 
Q 1069 891 1326 650 
Q 1584 409 2034 409 
Q 2484 409 2743 651 
Q 3003 894 3003 1313 
Q 3003 1734 2745 1975 
Q 2488 2216 2034 2216 
z
M 1403 2484 
Q 997 2584 770 2862 
Q 544 3141 544 3541 
Q 544 4100 942 4425 
Q 1341 4750 2034 4750 
Q 2731 4750 3128 4425 
Q 3525 4100 3525 3541 
Q 3525 3141 3298 2862 
Q 3072 2584 2669 2484 
Q 3125 2378 3379 2068 
Q 3634 1759 3634 1313 
Q 3634 634 3220 271 
Q 2806 -91 2034 -91 
Q 1263 -91 848 271 
Q 434 634 434 1313 
Q 434 1759 690 2068 
Q 947 2378 1403 2484 
z
M 1172 3481 
Q 1172 3119 1398 2916 
Q 1625 2713 2034 2713 
Q 2441 2713 2670 2916 
Q 2900 3119 2900 3481 
Q 2900 3844 2670 4047 
Q 2441 4250 2034 4250 
Q 1625 4250 1398 4047 
Q 1172 3844 1172 3481 
z
" transform="scale(0.015625)"/>
       </defs>
       <use xlink:href="#DejaVuSans-38"/>
       <use xlink:href="#DejaVuSans-30" x="63.623047"/>
       <use xlink:href="#DejaVuSans-30" x="127.246094"/>
      </g>
     </g>
    </g>
    <g id="xtick_6">
     <g id="line2d_6">
      <g>
       <use xlink:href="#m02393809e3" x="349.684943" y="231.063624" style="stroke: #000000; stroke-width: 0.8"/>
      </g>
     </g>
     <g id="text_6">
      <!-- 1000 -->
      <g transform="translate(336.959943 245.662061) scale(0.1 -0.1)">
       <defs>
        <path id="DejaVuSans-31" d="M 794 531 
L 1825 531 
L 1825 4091 
L 703 3866 
L 703 4441 
L 1819 4666 
L 2450 4666 
L 2450 531 
L 3481 531 
L 3481 0 
L 794 0 
L 794 531 
z
" transform="scale(0.015625)"/>
       </defs>
       <use xlink:href="#DejaVuSans-31"/>
       <use xlink:href="#DejaVuSans-30" x="63.623047"/>
       <use xlink:href="#DejaVuSans-30" x="127.246094"/>
       <use xlink:href="#DejaVuSans-30" x="190.869141"/>
      </g>
     </g>
    </g>
   </g>
   <g id="matplotlib.axis_2">
    <g id="ytick_1">
     <g id="line2d_7">
      <defs>
       <path id="m085814b091" d="M 0 0 
L -3.5 0 
" style="stroke: #000000; stroke-width: 0.8"/>
      </defs>
      <g>
       <use xlink:href="#m085814b091" x="30.103125" y="220.983624" style="stroke: #000000; stroke-width: 0.8"/>
      </g>
     </g>
     <g id="text_7">
      <!-- 0.0 -->
      <g transform="translate(7.2 224.782842) scale(0.1 -0.1)">
       <defs>
        <path id="DejaVuSans-2e" d="M 684 794 
L 1344 794 
L 1344 0 
L 684 0 
L 684 794 
z
" transform="scale(0.015625)"/>
       </defs>
       <use xlink:href="#DejaVuSans-30"/>
       <use xlink:href="#DejaVuSans-2e" x="63.623047"/>
       <use xlink:href="#DejaVuSans-30" x="95.410156"/>
      </g>
     </g>
    </g>
    <g id="ytick_2">
     <g id="line2d_8">
      <g>
       <use xlink:href="#m085814b091" x="30.103125" y="185.986223" style="stroke: #000000; stroke-width: 0.8"/>
      </g>
     </g>
     <g id="text_8">
      <!-- 0.2 -->
      <g transform="translate(7.2 189.785442) scale(0.1 -0.1)">
       <use xlink:href="#DejaVuSans-30"/>
       <use xlink:href="#DejaVuSans-2e" x="63.623047"/>
       <use xlink:href="#DejaVuSans-32" x="95.410156"/>
      </g>
     </g>
    </g>
    <g id="ytick_3">
     <g id="line2d_9">
      <g>
       <use xlink:href="#m085814b091" x="30.103125" y="150.988822" style="stroke: #000000; stroke-width: 0.8"/>
      </g>
     </g>
     <g id="text_9">
      <!-- 0.4 -->
      <g transform="translate(7.2 154.788041) scale(0.1 -0.1)">
       <use xlink:href="#DejaVuSans-30"/>
       <use xlink:href="#DejaVuSans-2e" x="63.623047"/>
       <use xlink:href="#DejaVuSans-34" x="95.410156"/>
      </g>
     </g>
    </g>
    <g id="ytick_4">
     <g id="line2d_10">
      <g>
       <use xlink:href="#m085814b091" x="30.103125" y="115.991421" style="stroke: #000000; stroke-width: 0.8"/>
      </g>
     </g>
     <g id="text_10">
      <!-- 0.6 -->
      <g transform="translate(7.2 119.79064) scale(0.1 -0.1)">
       <use xlink:href="#DejaVuSans-30"/>
       <use xlink:href="#DejaVuSans-2e" x="63.623047"/>
       <use xlink:href="#DejaVuSans-36" x="95.410156"/>
      </g>
     </g>
    </g>
    <g id="ytick_5">
     <g id="line2d_11">
      <g>
       <use xlink:href="#m085814b091" x="30.103125" y="80.99402" style="stroke: #000000; stroke-width: 0.8"/>
      </g>
     </g>
     <g id="text_11">
      <!-- 0.8 -->
      <g transform="translate(7.2 84.793239) scale(0.1 -0.1)">
       <use xlink:href="#DejaVuSans-30"/>
       <use xlink:href="#DejaVuSans-2e" x="63.623047"/>
       <use xlink:href="#DejaVuSans-38" x="95.410156"/>
      </g>
     </g>
    </g>
    <g id="ytick_6">
     <g id="line2d_12">
      <g>
       <use xlink:href="#m085814b091" x="30.103125" y="45.99662" style="stroke: #000000; stroke-width: 0.8"/>
      </g>
     </g>
     <g id="text_12">
      <!-- 1.0 -->
      <g transform="translate(7.2 49.795838) scale(0.1 -0.1)">
       <use xlink:href="#DejaVuSans-31"/>
       <use xlink:href="#DejaVuSans-2e" x="63.623047"/>
       <use xlink:href="#DejaVuSans-30" x="95.410156"/>
      </g>
     </g>
    </g>
    <g id="ytick_7">
     <g id="line2d_13">
      <g>
       <use xlink:href="#m085814b091" x="30.103125" y="10.999219" style="stroke: #000000; stroke-width: 0.8"/>
      </g>
     </g>
     <g id="text_13">
      <!-- 1.2 -->
      <g transform="translate(7.2 14.798437) scale(0.1 -0.1)">
       <use xlink:href="#DejaVuSans-31"/>
       <use xlink:href="#DejaVuSans-2e" x="63.623047"/>
       <use xlink:href="#DejaVuSans-32" x="95.410156"/>
      </g>
     </g>
    </g>
   </g>
   <g id="line2d_14">
    <path d="M 45.321307 35.957264 
L 45.62567 29.338546 
L 45.930034 28.65489 
L 46.538761 28.65489 
L 47.451852 36.32614 
L 47.756216 31.208726 
L 48.06058 31.208726 
L 48.364943 29.650253 
L 48.669307 31.147215 
L 49.278034 40.287171 
L 49.582398 39.324647 
L 49.886761 35.948645 
L 50.191125 35.14566 
L 50.495489 39.022471 
L 50.799852 33.415202 
L 51.104216 34.12534 
L 51.40858 33.477257 
L 52.017307 37.378435 
L 52.32167 40.647678 
L 52.626034 40.647678 
L 52.930398 40.263461 
L 53.234761 39.225254 
L 56.582761 39.225254 
L 56.887125 31.927233 
L 57.191489 36.74841 
L 57.495852 38.399617 
L 57.800216 38.399617 
L 58.10458 37.937836 
L 58.408943 41.403999 
L 58.713307 41.733562 
L 59.01767 45.00453 
L 59.626398 46.605799 
L 59.930761 49.306717 
L 60.235125 46.771826 
L 60.539489 47.796915 
L 60.843852 47.796915 
L 61.148216 47.302741 
L 61.45258 47.686685 
L 61.756943 48.507521 
L 62.061307 45.360085 
L 62.974398 45.360085 
L 63.278761 41.165231 
L 63.583125 42.03273 
L 63.887489 34.531794 
L 64.191852 33.162775 
L 64.496216 38.024661 
L 64.80058 38.657451 
L 65.104943 41.376474 
L 66.931125 41.376474 
L 67.235489 22.486227 
L 67.844216 30.620475 
L 69.06167 30.620475 
L 69.366034 35.843007 
L 69.670398 28.475024 
L 70.583489 28.475024 
L 70.887852 31.444586 
L 71.49658 31.444586 
L 71.800943 37.031907 
L 72.714034 37.031907 
L 73.018398 38.336694 
L 73.322761 44.859682 
L 73.627125 42.887579 
L 73.931489 42.845328 
L 74.235852 45.50277 
L 74.540216 51.046563 
L 74.84458 52.380809 
L 75.148943 51.528433 
L 75.453307 51.180429 
L 76.062034 51.180429 
L 76.366398 43.123085 
L 76.670761 43.5905 
L 77.279489 43.5905 
L 77.583852 41.352634 
L 78.19258 41.352634 
L 78.496943 43.039647 
L 78.801307 42.066191 
L 79.10567 40.62772 
L 79.714398 40.62772 
L 80.018761 34.571133 
L 80.323125 32.629887 
L 80.627489 37.822621 
L 80.931852 37.627945 
L 81.236216 35.599135 
L 81.54058 31.612002 
L 81.844943 35.144417 
L 82.149307 35.308327 
L 82.45367 40.464001 
L 82.758034 35.81653 
L 83.062398 37.743879 
L 83.366761 33.028172 
L 83.671125 33.028172 
L 83.975489 32.110248 
L 85.497307 32.110248 
L 86.106034 35.249653 
L 86.410398 36.013335 
L 86.714761 32.890203 
L 87.323489 32.890203 
L 87.932216 35.008704 
L 88.23658 35.008704 
L 88.540943 35.993545 
L 89.14967 35.993545 
L 89.758398 31.110076 
L 90.062761 31.419931 
L 90.367125 33.959523 
L 90.671489 30.974874 
L 90.975852 32.361712 
L 91.280216 32.361712 
L 91.58458 24.769812 
L 91.888943 21.070827 
L 92.193307 19.383624 
L 92.49767 22.984314 
L 93.410761 22.984314 
L 93.715125 28.459883 
L 94.019489 28.459883 
L 94.323852 29.759066 
L 94.628216 28.180521 
L 94.93258 28.180521 
L 95.236943 35.585142 
L 95.541307 33.418193 
L 95.84567 33.076889 
L 96.150034 35.802366 
L 96.454398 35.802366 
L 96.758761 39.095952 
L 97.367489 38.837455 
L 97.671852 42.489396 
L 98.584943 42.489396 
L 98.889307 43.978247 
L 99.19367 43.821257 
L 99.498034 41.231416 
L 99.802398 41.057568 
L 100.106761 40.568134 
L 100.715489 40.568134 
L 101.019852 32.241285 
L 101.324216 34.498134 
L 102.237307 34.498134 
L 102.54167 30.621978 
L 102.846034 36.461857 
L 103.454761 36.534517 
L 103.759125 33.512078 
L 104.063489 32.718364 
L 104.367852 32.668308 
L 104.672216 34.23974 
L 104.97658 37.938335 
L 105.280943 36.073166 
L 105.585307 35.9362 
L 105.88967 33.763276 
L 106.194034 35.090074 
L 106.498398 33.687032 
L 107.107125 33.72964 
L 107.411489 27.534501 
L 107.715852 27.534501 
L 108.020216 28.323984 
L 108.32458 30.798819 
L 108.628943 30.798819 
L 108.933307 29.331936 
L 109.542034 29.331936 
L 109.846398 28.327634 
L 110.150761 30.72744 
L 110.455125 28.438329 
L 110.759489 30.894937 
L 111.063852 31.474084 
L 111.67258 31.474084 
L 111.976943 29.018121 
L 112.890034 29.018121 
L 113.194398 38.375144 
L 113.803125 41.727089 
L 114.411852 41.727089 
L 114.716216 45.54355 
L 115.02058 46.760388 
L 115.629307 46.569954 
L 115.93367 46.363533 
L 116.542398 46.454798 
L 116.846761 46.830186 
L 117.151125 45.961286 
L 117.455489 45.961286 
L 117.759852 47.47808 
L 118.064216 46.080989 
L 118.672943 46.080989 
L 118.977307 47.901337 
L 119.28167 45.049427 
L 119.586034 47.908059 
L 119.890398 47.423505 
L 120.194761 48.395945 
L 120.499125 46.933572 
L 120.803489 43.861595 
L 121.107852 43.907857 
L 121.412216 42.236325 
L 121.71658 44.498156 
L 122.325307 46.545839 
L 122.934034 44.568001 
L 123.238398 44.93218 
L 123.542761 39.97827 
L 124.151489 44.583057 
L 124.455852 42.098494 
L 124.760216 45.935925 
L 125.673307 45.929416 
L 125.97767 44.212606 
L 126.282034 44.902137 
L 128.716943 44.902137 
L 129.021307 44.756356 
L 129.32567 42.656995 
L 129.934398 42.578233 
L 130.238761 44.534913 
L 130.847489 42.064465 
L 131.151852 43.373313 
L 131.456216 44.138917 
L 131.76058 44.138917 
L 132.064943 45.02816 
L 132.369307 43.145375 
L 132.978034 43.048554 
L 133.891125 43.098548 
L 134.195489 42.573776 
L 135.412943 42.573776 
L 135.717307 40.3227 
L 136.02167 40.746667 
L 136.326034 40.746667 
L 136.934761 37.253714 
L 137.239125 39.246035 
L 137.847852 40.232523 
L 138.152216 37.941062 
L 138.45658 37.941062 
L 138.760943 40.846313 
L 139.065307 40.863692 
L 139.36967 41.224338 
L 139.674034 41.316738 
L 139.978398 43.135551 
L 140.282761 42.726156 
L 140.587125 43.2503 
L 140.891489 44.446619 
L 141.195852 44.446619 
L 141.500216 45.596823 
L 141.80458 45.46456 
L 142.108943 47.849707 
L 142.71767 50.413982 
L 143.022034 49.522469 
L 143.935125 49.522469 
L 144.239489 47.094818 
L 144.543852 47.83227 
L 144.848216 46.06123 
L 145.15258 46.06123 
L 145.456943 47.441681 
L 146.06567 47.347891 
L 146.674398 47.347891 
L 146.978761 45.49542 
L 147.283125 46.826356 
L 147.891852 46.922183 
L 148.196216 45.717864 
L 148.50058 45.717864 
L 148.804943 46.774382 
L 149.109307 48.56121 
L 150.022398 48.956267 
L 150.326761 48.369993 
L 150.631125 49.699415 
L 150.935489 49.762757 
L 151.239852 49.344956 
L 151.544216 49.344956 
L 151.84858 48.831299 
L 152.152943 48.831299 
L 152.457307 47.222334 
L 152.76167 48.228963 
L 153.066034 51.998864 
L 156.10967 51.998864 
L 156.414034 48.082888 
L 156.718398 48.082888 
L 157.022761 48.312103 
L 157.327125 48.927237 
L 157.935852 48.927237 
L 158.240216 50.46405 
L 158.54458 50.46405 
L 158.848943 50.637863 
L 159.153307 48.116042 
L 159.45767 48.574498 
L 159.762034 48.574498 
L 160.066398 45.157353 
L 160.370761 45.592625 
L 160.675125 45.592625 
L 160.979489 44.223601 
L 161.588216 44.293437 
L 161.89258 44.293437 
L 162.196943 44.005448 
L 162.501307 44.34435 
L 162.80567 44.34435 
L 163.110034 42.603752 
L 163.414398 41.929087 
L 164.023125 41.929087 
L 164.327489 43.285206 
L 164.631852 43.285206 
L 164.936216 43.707206 
L 165.24058 41.888287 
L 165.544943 36.785489 
L 166.762398 36.869002 
L 167.066761 32.951345 
L 167.371125 34.289358 
L 168.284216 34.289358 
L 168.58858 34.004806 
L 169.806034 33.99069 
L 170.110398 34.373218 
L 170.414761 32.895698 
L 170.719125 34.188538 
L 171.023489 34.411635 
L 171.327852 33.955363 
L 172.545307 34.013556 
L 172.84967 33.753579 
L 173.154034 33.753579 
L 173.458398 32.58018 
L 173.762761 33.690264 
L 174.067125 33.690264 
L 174.371489 34.198019 
L 174.675852 32.547975 
L 174.980216 32.547975 
L 175.588943 34.61622 
L 175.893307 34.61622 
L 176.19767 33.133232 
L 176.502034 33.662189 
L 176.806398 32.45176 
L 177.110761 34.834148 
L 177.415125 36.102583 
L 178.023852 36.102583 
L 178.328216 35.571158 
L 178.63258 35.927518 
L 178.936943 36.097365 
L 179.241307 36.097365 
L 179.54567 35.746584 
L 179.850034 35.746584 
L 180.154398 35.985374 
L 180.458761 35.985374 
L 180.763125 36.365664 
L 182.589307 36.630964 
L 182.89367 36.630964 
L 183.198034 35.589781 
L 183.502398 35.589781 
L 183.806761 36.4101 
L 184.111125 36.878696 
L 184.719852 36.878696 
L 185.024216 35.307776 
L 185.32858 35.307776 
L 185.632943 32.690327 
L 185.937307 31.634832 
L 186.24167 31.634832 
L 186.546034 30.636311 
L 187.154761 28.092886 
L 187.459125 30.047416 
L 188.067852 30.047416 
L 188.67658 32.529869 
L 189.285307 32.529869 
L 189.58967 33.037501 
L 190.502761 33.037501 
L 190.807125 35.296675 
L 191.415852 34.777635 
L 191.720216 35.514856 
L 192.328943 35.514856 
L 192.633307 34.253193 
L 193.546398 34.253193 
L 193.850761 35.048872 
L 194.155125 35.048872 
L 194.459489 35.828936 
L 196.28567 35.828936 
L 196.590034 36.405737 
L 197.198761 36.405737 
L 197.503125 34.039496 
L 197.807489 34.87139 
L 198.111852 34.014916 
L 199.024943 34.014916 
L 199.329307 33.549276 
L 199.63367 33.549276 
L 199.938034 31.495695 
L 200.546761 31.495695 
L 200.851125 31.906684 
L 201.155489 31.906684 
L 201.459852 31.241305 
L 201.764216 31.241305 
L 202.06858 31.129508 
L 202.372943 32.486483 
L 202.677307 30.828855 
L 202.98167 31.562658 
L 203.894761 31.562658 
L 204.199125 32.528573 
L 207.242761 32.463922 
L 207.547125 33.306527 
L 208.155852 33.306527 
L 208.460216 33.09589 
L 208.76458 32.713968 
L 209.67767 32.713968 
L 209.982034 33.842792 
L 210.286398 35.823837 
L 210.590761 35.730424 
L 210.895125 33.474516 
L 211.199489 33.474516 
L 211.503852 34.211178 
L 211.808216 34.211178 
L 212.11258 34.464783 
L 213.938761 34.464783 
L 214.243125 32.402742 
L 214.547489 31.239168 
L 216.069307 31.239168 
L 216.37367 29.320734 
L 216.982398 29.320734 
L 217.591125 31.730279 
L 218.199852 31.730279 
L 218.504216 31.988952 
L 218.80858 32.560585 
L 219.112943 33.835061 
L 219.417307 33.835061 
L 219.72167 34.38876 
L 220.026034 33.602457 
L 220.330398 33.588516 
L 220.634761 34.794459 
L 220.939125 35.076598 
L 221.243489 35.076598 
L 221.547852 35.849051 
L 221.852216 34.846454 
L 222.460943 34.846454 
L 223.06967 31.698914 
L 223.374034 32.024658 
L 223.678398 32.024658 
L 223.982761 31.56842 
L 224.287125 30.713507 
L 224.895852 30.713507 
L 225.200216 32.342134 
L 225.50458 31.57796 
L 225.808943 31.57796 
L 226.113307 30.651449 
L 226.41767 31.145622 
L 227.635125 31.111743 
L 227.939489 32.36828 
L 228.243852 35.552044 
L 229.76567 35.552044 
L 230.070034 36.657747 
L 230.983125 36.765308 
L 231.287489 39.060554 
L 231.591852 39.060554 
L 231.896216 38.625081 
L 232.504943 38.625081 
L 232.809307 39.932536 
L 233.11367 38.961135 
L 233.418034 38.565325 
L 233.722398 38.826461 
L 234.026761 38.826461 
L 234.635489 41.729252 
L 235.852943 41.699457 
L 236.157307 41.699457 
L 236.46167 41.126241 
L 237.983489 41.126241 
L 238.287852 42.184034 
L 238.89658 42.184034 
L 239.200943 41.512829 
L 239.80967 41.512829 
L 240.114034 42.964725 
L 240.418398 42.964725 
L 240.722761 43.523814 
L 241.027125 43.523814 
L 241.331489 43.74631 
L 241.940216 42.661701 
L 242.24458 42.661701 
L 242.548943 43.62212 
L 243.766398 43.62212 
L 244.070761 43.768254 
L 244.983852 43.768254 
L 245.288216 44.684411 
L 245.59258 46.294613 
L 246.201307 46.294613 
L 246.50567 45.844803 
L 247.114398 45.844803 
L 247.418761 45.585129 
L 248.331852 45.585129 
L 248.636216 43.710168 
L 248.94058 43.368014 
L 250.158034 43.368014 
L 250.462398 45.385868 
L 251.071125 45.385868 
L 251.375489 45.822136 
L 251.984216 45.822136 
L 252.28858 46.648051 
L 254.723489 46.626624 
L 255.027852 220.983624 
L 349.684943 220.983624 
L 349.684943 220.983624 
" clip-path="url(#p265f8cd00a)" style="fill: none; stroke: #1f77b4; stroke-width: 1.5; stroke-linecap: square"/>
   </g>
   <g id="patch_3">
    <path d="M 30.103125 231.063624 
L 30.103125 9.303624 
" style="fill: none; stroke: #000000; stroke-width: 0.8; stroke-linejoin: miter; stroke-linecap: square"/>
   </g>
   <g id="patch_4">
    <path d="M 364.903125 231.063624 
L 364.903125 9.303624 
" style="fill: none; stroke: #000000; stroke-width: 0.8; stroke-linejoin: miter; stroke-linecap: square"/>
   </g>
   <g id="patch_5">
    <path d="M 30.103125 231.063624 
L 364.903125 231.063624 
" style="fill: none; stroke: #000000; stroke-width: 0.8; stroke-linejoin: miter; stroke-linecap: square"/>
   </g>
   <g id="patch_6">
    <path d="M 30.103125 9.303624 
L 364.903125 9.303624 
" style="fill: none; stroke: #000000; stroke-width: 0.8; stroke-linejoin: miter; stroke-linecap: square"/>
   </g>
  </g>
 </g>
 <defs>
  <clipPath id="p265f8cd00a">
   <rect x="30.103125" y="9.303624" width="334.8" height="221.76"/>
  </clipPath>
 </defs>
</svg>
