<?xml version="1.0" encoding="utf-8" standalone="no"?>
<!DOCTYPE svg PUBLIC "-//W3C//DTD SVG 1.1//EN"
  "http://www.w3.org/Graphics/SVG/1.1/DTD/svg11.dtd">
<svg xmlns:xlink="http://www.w3.org/1999/xlink" width="375.2875pt" height="253.191842pt" viewBox="0 0 375.2875 253.191842" xmlns="http://www.w3.org/2000/svg" version="1.1">
 <metadata>
  <rdf:RDF xmlns:dc="http://purl.org/dc/elements/1.1/" xmlns:cc="http://creativecommons.org/ns#" xmlns:rdf="http://www.w3.org/1999/02/22-rdf-syntax-ns#">
   <cc:Work>
    <dc:type rdf:resource="http://purl.org/dc/dcmitype/StillImage"/>
    <dc:date>2023-04-18T04:42:47.202110</dc:date>
    <dc:format>image/svg+xml</dc:format>
    <dc:creator>
     <cc:Agent>
      <dc:title>Matplotlib v3.7.1, https://matplotlib.org/</dc:title>
     </cc:Agent>
    </dc:creator>
   </cc:Work>
  </rdf:RDF>
 </metadata>
 <defs>
  <style type="text/css">*{stroke-linejoin: round; stroke-linecap: butt}</style>
 </defs>
 <g id="figure_1">
  <g id="patch_1">
   <path d="M 0 253.191842 
L 375.2875 253.191842 
L 375.2875 0 
L 0 0 
z
" style="fill: #ffffff"/>
  </g>
  <g id="axes_1">
   <g id="patch_2">
    <path d="M 33.2875 229.313717 
L 368.0875 229.313717 
L 368.0875 7.553717 
L 33.2875 7.553717 
z
" style="fill: #ffffff"/>
   </g>
   <g id="matplotlib.axis_1">
    <g id="xtick_1">
     <g id="line2d_1">
      <defs>
       <path id="m609c513b0b" d="M 0 0 
L 0 3.5 
" style="stroke: #000000; stroke-width: 0.8"/>
      </defs>
      <g>
       <use xlink:href="#m609c513b0b" x="48.505682" y="229.313717" style="stroke: #000000; stroke-width: 0.8"/>
      </g>
     </g>
     <g id="text_1">
      <!-- 0 -->
      <g transform="translate(45.324432 243.912155) scale(0.1 -0.1)">
       <defs>
        <path id="DejaVuSans-30" d="M 2034 4250 
Q 1547 4250 1301 3770 
Q 1056 3291 1056 2328 
Q 1056 1369 1301 889 
Q 1547 409 2034 409 
Q 2525 409 2770 889 
Q 3016 1369 3016 2328 
Q 3016 3291 2770 3770 
Q 2525 4250 2034 4250 
z
M 2034 4750 
Q 2819 4750 3233 4129 
Q 3647 3509 3647 2328 
Q 3647 1150 3233 529 
Q 2819 -91 2034 -91 
Q 1250 -91 836 529 
Q 422 1150 422 2328 
Q 422 3509 836 4129 
Q 1250 4750 2034 4750 
z
" transform="scale(0.015625)"/>
       </defs>
       <use xlink:href="#DejaVuSans-30"/>
      </g>
     </g>
    </g>
    <g id="xtick_2">
     <g id="line2d_2">
      <g>
       <use xlink:href="#m609c513b0b" x="109.378409" y="229.313717" style="stroke: #000000; stroke-width: 0.8"/>
      </g>
     </g>
     <g id="text_2">
      <!-- 200 -->
      <g transform="translate(99.834659 243.912155) scale(0.1 -0.1)">
       <defs>
        <path id="DejaVuSans-32" d="M 1228 531 
L 3431 531 
L 3431 0 
L 469 0 
L 469 531 
Q 828 903 1448 1529 
Q 2069 2156 2228 2338 
Q 2531 2678 2651 2914 
Q 2772 3150 2772 3378 
Q 2772 3750 2511 3984 
Q 2250 4219 1831 4219 
Q 1534 4219 1204 4116 
Q 875 4013 500 3803 
L 500 4441 
Q 881 4594 1212 4672 
Q 1544 4750 1819 4750 
Q 2544 4750 2975 4387 
Q 3406 4025 3406 3419 
Q 3406 3131 3298 2873 
Q 3191 2616 2906 2266 
Q 2828 2175 2409 1742 
Q 1991 1309 1228 531 
z
" transform="scale(0.015625)"/>
       </defs>
       <use xlink:href="#DejaVuSans-32"/>
       <use xlink:href="#DejaVuSans-30" x="63.623047"/>
       <use xlink:href="#DejaVuSans-30" x="127.246094"/>
      </g>
     </g>
    </g>
    <g id="xtick_3">
     <g id="line2d_3">
      <g>
       <use xlink:href="#m609c513b0b" x="170.251136" y="229.313717" style="stroke: #000000; stroke-width: 0.8"/>
      </g>
     </g>
     <g id="text_3">
      <!-- 400 -->
      <g transform="translate(160.707386 243.912155) scale(0.1 -0.1)">
       <defs>
        <path id="DejaVuSans-34" d="M 2419 4116 
L 825 1625 
L 2419 1625 
L 2419 4116 
z
M 2253 4666 
L 3047 4666 
L 3047 1625 
L 3713 1625 
L 3713 1100 
L 3047 1100 
L 3047 0 
L 2419 0 
L 2419 1100 
L 313 1100 
L 313 1709 
L 2253 4666 
z
" transform="scale(0.015625)"/>
       </defs>
       <use xlink:href="#DejaVuSans-34"/>
       <use xlink:href="#DejaVuSans-30" x="63.623047"/>
       <use xlink:href="#DejaVuSans-30" x="127.246094"/>
      </g>
     </g>
    </g>
    <g id="xtick_4">
     <g id="line2d_4">
      <g>
       <use xlink:href="#m609c513b0b" x="231.123864" y="229.313717" style="stroke: #000000; stroke-width: 0.8"/>
      </g>
     </g>
     <g id="text_4">
      <!-- 600 -->
      <g transform="translate(221.580114 243.912155) scale(0.1 -0.1)">
       <defs>
        <path id="DejaVuSans-36" d="M 2113 2584 
Q 1688 2584 1439 2293 
Q 1191 2003 1191 1497 
Q 1191 994 1439 701 
Q 1688 409 2113 409 
Q 2538 409 2786 701 
Q 3034 994 3034 1497 
Q 3034 2003 2786 2293 
Q 2538 2584 2113 2584 
z
M 3366 4563 
L 3366 3988 
Q 3128 4100 2886 4159 
Q 2644 4219 2406 4219 
Q 1781 4219 1451 3797 
Q 1122 3375 1075 2522 
Q 1259 2794 1537 2939 
Q 1816 3084 2150 3084 
Q 2853 3084 3261 2657 
Q 3669 2231 3669 1497 
Q 3669 778 3244 343 
Q 2819 -91 2113 -91 
Q 1303 -91 875 529 
Q 447 1150 447 2328 
Q 447 3434 972 4092 
Q 1497 4750 2381 4750 
Q 2619 4750 2861 4703 
Q 3103 4656 3366 4563 
z
" transform="scale(0.015625)"/>
       </defs>
       <use xlink:href="#DejaVuSans-36"/>
       <use xlink:href="#DejaVuSans-30" x="63.623047"/>
       <use xlink:href="#DejaVuSans-30" x="127.246094"/>
      </g>
     </g>
    </g>
    <g id="xtick_5">
     <g id="line2d_5">
      <g>
       <use xlink:href="#m609c513b0b" x="291.996591" y="229.313717" style="stroke: #000000; stroke-width: 0.8"/>
      </g>
     </g>
     <g id="text_5">
      <!-- 800 -->
      <g transform="translate(282.452841 243.912155) scale(0.1 -0.1)">
       <defs>
        <path id="DejaVuSans-38" d="M 2034 2216 
Q 1584 2216 1326 1975 
Q 1069 1734 1069 1313 
Q 1069 891 1326 650 
Q 1584 409 2034 409 
Q 2484 409 2743 651 
Q 3003 894 3003 1313 
Q 3003 1734 2745 1975 
Q 2488 2216 2034 2216 
z
M 1403 2484 
Q 997 2584 770 2862 
Q 544 3141 544 3541 
Q 544 4100 942 4425 
Q 1341 4750 2034 4750 
Q 2731 4750 3128 4425 
Q 3525 4100 3525 3541 
Q 3525 3141 3298 2862 
Q 3072 2584 2669 2484 
Q 3125 2378 3379 2068 
Q 3634 1759 3634 1313 
Q 3634 634 3220 271 
Q 2806 -91 2034 -91 
Q 1263 -91 848 271 
Q 434 634 434 1313 
Q 434 1759 690 2068 
Q 947 2378 1403 2484 
z
M 1172 3481 
Q 1172 3119 1398 2916 
Q 1625 2713 2034 2713 
Q 2441 2713 2670 2916 
Q 2900 3119 2900 3481 
Q 2900 3844 2670 4047 
Q 2441 4250 2034 4250 
Q 1625 4250 1398 4047 
Q 1172 3844 1172 3481 
z
" transform="scale(0.015625)"/>
       </defs>
       <use xlink:href="#DejaVuSans-38"/>
       <use xlink:href="#DejaVuSans-30" x="63.623047"/>
       <use xlink:href="#DejaVuSans-30" x="127.246094"/>
      </g>
     </g>
    </g>
    <g id="xtick_6">
     <g id="line2d_6">
      <g>
       <use xlink:href="#m609c513b0b" x="352.869318" y="229.313717" style="stroke: #000000; stroke-width: 0.8"/>
      </g>
     </g>
     <g id="text_6">
      <!-- 1000 -->
      <g transform="translate(340.144318 243.912155) scale(0.1 -0.1)">
       <defs>
        <path id="DejaVuSans-31" d="M 794 531 
L 1825 531 
L 1825 4091 
L 703 3866 
L 703 4441 
L 1819 4666 
L 2450 4666 
L 2450 531 
L 3481 531 
L 3481 0 
L 794 0 
L 794 531 
z
" transform="scale(0.015625)"/>
       </defs>
       <use xlink:href="#DejaVuSans-31"/>
       <use xlink:href="#DejaVuSans-30" x="63.623047"/>
       <use xlink:href="#DejaVuSans-30" x="127.246094"/>
       <use xlink:href="#DejaVuSans-30" x="190.869141"/>
      </g>
     </g>
    </g>
   </g>
   <g id="matplotlib.axis_2">
    <g id="ytick_1">
     <g id="line2d_7">
      <defs>
       <path id="m98e00d3677" d="M 0 0 
L -3.5 0 
" style="stroke: #000000; stroke-width: 0.8"/>
      </defs>
      <g>
       <use xlink:href="#m98e00d3677" x="33.2875" y="219.233717" style="stroke: #000000; stroke-width: 0.8"/>
      </g>
     </g>
     <g id="text_7">
      <!-- 0 -->
      <g transform="translate(19.925 223.032936) scale(0.1 -0.1)">
       <use xlink:href="#DejaVuSans-30"/>
      </g>
     </g>
    </g>
    <g id="ytick_2">
     <g id="line2d_8">
      <g>
       <use xlink:href="#m98e00d3677" x="33.2875" y="177.586818" style="stroke: #000000; stroke-width: 0.8"/>
      </g>
     </g>
     <g id="text_8">
      <!-- 20 -->
      <g transform="translate(13.5625 181.386036) scale(0.1 -0.1)">
       <use xlink:href="#DejaVuSans-32"/>
       <use xlink:href="#DejaVuSans-30" x="63.623047"/>
      </g>
     </g>
    </g>
    <g id="ytick_3">
     <g id="line2d_9">
      <g>
       <use xlink:href="#m98e00d3677" x="33.2875" y="135.939918" style="stroke: #000000; stroke-width: 0.8"/>
      </g>
     </g>
     <g id="text_9">
      <!-- 40 -->
      <g transform="translate(13.5625 139.739137) scale(0.1 -0.1)">
       <use xlink:href="#DejaVuSans-34"/>
       <use xlink:href="#DejaVuSans-30" x="63.623047"/>
      </g>
     </g>
    </g>
    <g id="ytick_4">
     <g id="line2d_10">
      <g>
       <use xlink:href="#m98e00d3677" x="33.2875" y="94.293018" style="stroke: #000000; stroke-width: 0.8"/>
      </g>
     </g>
     <g id="text_10">
      <!-- 60 -->
      <g transform="translate(13.5625 98.092237) scale(0.1 -0.1)">
       <use xlink:href="#DejaVuSans-36"/>
       <use xlink:href="#DejaVuSans-30" x="63.623047"/>
      </g>
     </g>
    </g>
    <g id="ytick_5">
     <g id="line2d_11">
      <g>
       <use xlink:href="#m98e00d3677" x="33.2875" y="52.646118" style="stroke: #000000; stroke-width: 0.8"/>
      </g>
     </g>
     <g id="text_11">
      <!-- 80 -->
      <g transform="translate(13.5625 56.445337) scale(0.1 -0.1)">
       <use xlink:href="#DejaVuSans-38"/>
       <use xlink:href="#DejaVuSans-30" x="63.623047"/>
      </g>
     </g>
    </g>
    <g id="ytick_6">
     <g id="line2d_12">
      <g>
       <use xlink:href="#m98e00d3677" x="33.2875" y="10.999219" style="stroke: #000000; stroke-width: 0.8"/>
      </g>
     </g>
     <g id="text_12">
      <!-- 100 -->
      <g transform="translate(7.2 14.798437) scale(0.1 -0.1)">
       <use xlink:href="#DejaVuSans-31"/>
       <use xlink:href="#DejaVuSans-30" x="63.623047"/>
       <use xlink:href="#DejaVuSans-30" x="127.246094"/>
      </g>
     </g>
    </g>
   </g>
   <g id="line2d_13">
    <path d="M 48.505682 17.633717 
L 48.810045 18.765942 
L 49.114409 18.903404 
L 49.723136 20.116779 
L 50.0275 21.089146 
L 50.331864 23.380326 
L 50.636227 24.39088 
L 51.244955 24.39088 
L 51.549318 25.060745 
L 51.853682 25.180325 
L 52.158045 26.843672 
L 52.462409 27.180821 
L 52.766773 28.486795 
L 53.071136 28.645216 
L 53.3755 29.557533 
L 53.679864 29.814078 
L 53.984227 30.900862 
L 54.288591 31.318106 
L 54.592955 32.384494 
L 54.897318 32.384494 
L 55.201682 33.690366 
L 55.506045 33.941589 
L 55.810409 33.941589 
L 56.419136 34.608124 
L 56.7235 34.65047 
L 57.027864 35.372206 
L 57.332227 36.502523 
L 57.636591 37.070661 
L 57.940955 37.365582 
L 58.549682 37.454218 
L 58.854045 37.920893 
L 59.158409 37.924198 
L 59.462773 38.679876 
L 59.767136 39.016615 
L 60.0715 39.016615 
L 60.375864 39.279748 
L 60.680227 39.279748 
L 60.984591 39.439806 
L 61.593318 40.055305 
L 61.897682 40.708119 
L 62.202045 40.837923 
L 62.506409 41.800444 
L 62.810773 42.178944 
L 63.4195 42.416138 
L 63.723864 42.699944 
L 64.941318 42.713279 
L 65.245682 43.029385 
L 65.550045 43.159358 
L 65.854409 43.159358 
L 66.7675 43.593705 
L 67.071864 43.602582 
L 67.376227 43.777882 
L 70.419864 43.859296 
L 70.724227 43.983947 
L 71.028591 44.277023 
L 71.941682 44.331882 
L 72.246045 44.625602 
L 72.550409 44.626991 
L 73.159136 45.139353 
L 73.767864 45.14956 
L 74.072227 45.324374 
L 74.376591 45.742328 
L 74.680955 45.742328 
L 75.289682 46.105375 
L 75.594045 46.128538 
L 75.898409 46.478323 
L 76.202773 46.551372 
L 77.115864 47.215704 
L 77.420227 47.376155 
L 77.724591 47.376155 
L 78.028955 47.75407 
L 78.333318 47.75407 
L 78.942045 48.714224 
L 79.246409 48.742539 
L 79.550773 49.42682 
L 80.768227 49.634315 
L 81.072591 49.634315 
L 81.376955 50.112079 
L 81.681318 50.238801 
L 83.5075 50.238801 
L 83.811864 50.53328 
L 84.420591 50.641556 
L 88.377318 50.697521 
L 88.681682 50.804721 
L 88.986045 51.376087 
L 90.2035 51.903302 
L 90.507864 51.928817 
L 90.812227 52.323319 
L 91.725318 52.601324 
L 94.768955 52.625015 
L 95.377682 52.734189 
L 98.421318 53.07943 
L 98.725682 53.415398 
L 99.030045 53.415398 
L 99.334409 53.553295 
L 101.160591 53.610766 
L 101.464955 53.746499 
L 102.378045 53.794699 
L 103.291136 54.176386 
L 103.5955 54.176386 
L 104.508591 54.465206 
L 105.117318 54.465206 
L 105.421682 54.690193 
L 106.9435 54.783118 
L 107.552227 54.958511 
L 107.856591 55.08821 
L 108.769682 55.149642 
L 109.682773 55.509361 
L 111.813318 55.934071 
L 114.248227 56.043384 
L 115.465682 56.367015 
L 115.770045 56.567573 
L 118.813682 56.948002 
L 122.161682 57.03093 
L 123.379136 57.203601 
L 127.0315 57.300853 
L 129.162045 57.497313 
L 130.3795 57.570525 
L 131.596955 57.777216 
L 132.814409 57.817441 
L 133.423136 57.89118 
L 134.640591 57.991925 
L 134.944955 58.187889 
L 137.379864 58.292058 
L 138.901682 58.432847 
L 139.206045 58.432847 
L 139.510409 58.57084 
L 145.293318 58.672329 
L 145.902045 58.767031 
L 152.598045 58.852007 
L 152.902409 59.103888 
L 153.8155 59.200491 
L 154.728591 59.282359 
L 156.250409 59.282359 
L 156.554773 59.590116 
L 157.772227 59.693676 
L 158.380955 59.794401 
L 162.337682 59.90366 
L 171.164227 60.06189 
L 171.772955 60.135028 
L 173.599136 60.135028 
L 173.9035 60.256043 
L 176.642773 60.34748 
L 176.947136 60.481417 
L 179.686409 60.590114 
L 180.903864 60.648736 
L 184.251864 60.704279 
L 184.860591 60.80528 
L 187.2955 61.022042 
L 189.121682 61.064123 
L 190.339136 61.259042 
L 191.860955 61.29294 
L 192.165318 61.454856 
L 200.383136 61.522142 
L 200.991864 61.628215 
L 201.600591 61.628215 
L 201.904955 61.750328 
L 204.339864 61.814219 
L 204.644227 61.94933 
L 207.3835 62.039971 
L 207.992227 62.10731 
L 215.296955 62.171384 
L 215.905682 62.236042 
L 223.210409 62.296357 
L 227.775864 62.356603 
L 228.384591 62.466859 
L 229.297682 62.533314 
L 229.602045 62.659778 
L 244.820227 62.733487 
L 245.428955 62.846133 
L 255.168591 62.947387 
L 256.386045 62.978211 
L 257.907864 62.978211 
L 258.212227 219.233717 
L 352.869318 219.233717 
L 352.869318 219.233717 
" clip-path="url(#p655ebafe2e)" style="fill: none; stroke: #1f77b4; stroke-width: 1.5; stroke-linecap: square"/>
   </g>
   <g id="patch_3">
    <path d="M 33.2875 229.313717 
L 33.2875 7.553717 
" style="fill: none; stroke: #000000; stroke-width: 0.8; stroke-linejoin: miter; stroke-linecap: square"/>
   </g>
   <g id="patch_4">
    <path d="M 368.0875 229.313717 
L 368.0875 7.553717 
" style="fill: none; stroke: #000000; stroke-width: 0.8; stroke-linejoin: miter; stroke-linecap: square"/>
   </g>
   <g id="patch_5">
    <path d="M 33.2875 229.313717 
L 368.0875 229.313717 
" style="fill: none; stroke: #000000; stroke-width: 0.8; stroke-linejoin: miter; stroke-linecap: square"/>
   </g>
   <g id="patch_6">
    <path d="M 33.2875 7.553717 
L 368.0875 7.553717 
" style="fill: none; stroke: #000000; stroke-width: 0.8; stroke-linejoin: miter; stroke-linecap: square"/>
   </g>
  </g>
 </g>
 <defs>
  <clipPath id="p655ebafe2e">
   <rect x="33.2875" y="7.553717" width="334.8" height="221.76"/>
  </clipPath>
 </defs>
</svg>
