<?xml version="1.0" encoding="utf-8" standalone="no"?>
<!DOCTYPE svg PUBLIC "-//W3C//DTD SVG 1.1//EN"
  "http://www.w3.org/Graphics/SVG/1.1/DTD/svg11.dtd">
<svg xmlns:xlink="http://www.w3.org/1999/xlink" width="375.2875pt" height="254.647488pt" viewBox="0 0 375.2875 254.647488" xmlns="http://www.w3.org/2000/svg" version="1.1">
 <metadata>
  <rdf:RDF xmlns:dc="http://purl.org/dc/elements/1.1/" xmlns:cc="http://creativecommons.org/ns#" xmlns:rdf="http://www.w3.org/1999/02/22-rdf-syntax-ns#">
   <cc:Work>
    <dc:type rdf:resource="http://purl.org/dc/dcmitype/StillImage"/>
    <dc:date>2023-04-18T05:56:34.664876</dc:date>
    <dc:format>image/svg+xml</dc:format>
    <dc:creator>
     <cc:Agent>
      <dc:title>Matplotlib v3.7.1, https://matplotlib.org/</dc:title>
     </cc:Agent>
    </dc:creator>
   </cc:Work>
  </rdf:RDF>
 </metadata>
 <defs>
  <style type="text/css">*{stroke-linejoin: round; stroke-linecap: butt}</style>
 </defs>
 <g id="figure_1">
  <g id="patch_1">
   <path d="M 0 254.647488 
L 375.2875 254.647488 
L 375.2875 0 
L 0 0 
z
" style="fill: #ffffff"/>
  </g>
  <g id="axes_1">
   <g id="patch_2">
    <path d="M 33.2875 230.769363 
L 368.0875 230.769363 
L 368.0875 9.009363 
L 33.2875 9.009363 
z
" style="fill: #ffffff"/>
   </g>
   <g id="matplotlib.axis_1">
    <g id="xtick_1">
     <g id="line2d_1">
      <defs>
       <path id="md7ea10ecfe" d="M 0 0 
L 0 3.5 
" style="stroke: #000000; stroke-width: 0.8"/>
      </defs>
      <g>
       <use xlink:href="#md7ea10ecfe" x="48.505682" y="230.769363" style="stroke: #000000; stroke-width: 0.8"/>
      </g>
     </g>
     <g id="text_1">
      <!-- 0 -->
      <g transform="translate(45.324432 245.3678) scale(0.1 -0.1)">
       <defs>
        <path id="DejaVuSans-30" d="M 2034 4250 
Q 1547 4250 1301 3770 
Q 1056 3291 1056 2328 
Q 1056 1369 1301 889 
Q 1547 409 2034 409 
Q 2525 409 2770 889 
Q 3016 1369 3016 2328 
Q 3016 3291 2770 3770 
Q 2525 4250 2034 4250 
z
M 2034 4750 
Q 2819 4750 3233 4129 
Q 3647 3509 3647 2328 
Q 3647 1150 3233 529 
Q 2819 -91 2034 -91 
Q 1250 -91 836 529 
Q 422 1150 422 2328 
Q 422 3509 836 4129 
Q 1250 4750 2034 4750 
z
" transform="scale(0.015625)"/>
       </defs>
       <use xlink:href="#DejaVuSans-30"/>
      </g>
     </g>
    </g>
    <g id="xtick_2">
     <g id="line2d_2">
      <g>
       <use xlink:href="#md7ea10ecfe" x="109.378409" y="230.769363" style="stroke: #000000; stroke-width: 0.8"/>
      </g>
     </g>
     <g id="text_2">
      <!-- 200 -->
      <g transform="translate(99.834659 245.3678) scale(0.1 -0.1)">
       <defs>
        <path id="DejaVuSans-32" d="M 1228 531 
L 3431 531 
L 3431 0 
L 469 0 
L 469 531 
Q 828 903 1448 1529 
Q 2069 2156 2228 2338 
Q 2531 2678 2651 2914 
Q 2772 3150 2772 3378 
Q 2772 3750 2511 3984 
Q 2250 4219 1831 4219 
Q 1534 4219 1204 4116 
Q 875 4013 500 3803 
L 500 4441 
Q 881 4594 1212 4672 
Q 1544 4750 1819 4750 
Q 2544 4750 2975 4387 
Q 3406 4025 3406 3419 
Q 3406 3131 3298 2873 
Q 3191 2616 2906 2266 
Q 2828 2175 2409 1742 
Q 1991 1309 1228 531 
z
" transform="scale(0.015625)"/>
       </defs>
       <use xlink:href="#DejaVuSans-32"/>
       <use xlink:href="#DejaVuSans-30" x="63.623047"/>
       <use xlink:href="#DejaVuSans-30" x="127.246094"/>
      </g>
     </g>
    </g>
    <g id="xtick_3">
     <g id="line2d_3">
      <g>
       <use xlink:href="#md7ea10ecfe" x="170.251136" y="230.769363" style="stroke: #000000; stroke-width: 0.8"/>
      </g>
     </g>
     <g id="text_3">
      <!-- 400 -->
      <g transform="translate(160.707386 245.3678) scale(0.1 -0.1)">
       <defs>
        <path id="DejaVuSans-34" d="M 2419 4116 
L 825 1625 
L 2419 1625 
L 2419 4116 
z
M 2253 4666 
L 3047 4666 
L 3047 1625 
L 3713 1625 
L 3713 1100 
L 3047 1100 
L 3047 0 
L 2419 0 
L 2419 1100 
L 313 1100 
L 313 1709 
L 2253 4666 
z
" transform="scale(0.015625)"/>
       </defs>
       <use xlink:href="#DejaVuSans-34"/>
       <use xlink:href="#DejaVuSans-30" x="63.623047"/>
       <use xlink:href="#DejaVuSans-30" x="127.246094"/>
      </g>
     </g>
    </g>
    <g id="xtick_4">
     <g id="line2d_4">
      <g>
       <use xlink:href="#md7ea10ecfe" x="231.123864" y="230.769363" style="stroke: #000000; stroke-width: 0.8"/>
      </g>
     </g>
     <g id="text_4">
      <!-- 600 -->
      <g transform="translate(221.580114 245.3678) scale(0.1 -0.1)">
       <defs>
        <path id="DejaVuSans-36" d="M 2113 2584 
Q 1688 2584 1439 2293 
Q 1191 2003 1191 1497 
Q 1191 994 1439 701 
Q 1688 409 2113 409 
Q 2538 409 2786 701 
Q 3034 994 3034 1497 
Q 3034 2003 2786 2293 
Q 2538 2584 2113 2584 
z
M 3366 4563 
L 3366 3988 
Q 3128 4100 2886 4159 
Q 2644 4219 2406 4219 
Q 1781 4219 1451 3797 
Q 1122 3375 1075 2522 
Q 1259 2794 1537 2939 
Q 1816 3084 2150 3084 
Q 2853 3084 3261 2657 
Q 3669 2231 3669 1497 
Q 3669 778 3244 343 
Q 2819 -91 2113 -91 
Q 1303 -91 875 529 
Q 447 1150 447 2328 
Q 447 3434 972 4092 
Q 1497 4750 2381 4750 
Q 2619 4750 2861 4703 
Q 3103 4656 3366 4563 
z
" transform="scale(0.015625)"/>
       </defs>
       <use xlink:href="#DejaVuSans-36"/>
       <use xlink:href="#DejaVuSans-30" x="63.623047"/>
       <use xlink:href="#DejaVuSans-30" x="127.246094"/>
      </g>
     </g>
    </g>
    <g id="xtick_5">
     <g id="line2d_5">
      <g>
       <use xlink:href="#md7ea10ecfe" x="291.996591" y="230.769363" style="stroke: #000000; stroke-width: 0.8"/>
      </g>
     </g>
     <g id="text_5">
      <!-- 800 -->
      <g transform="translate(282.452841 245.3678) scale(0.1 -0.1)">
       <defs>
        <path id="DejaVuSans-38" d="M 2034 2216 
Q 1584 2216 1326 1975 
Q 1069 1734 1069 1313 
Q 1069 891 1326 650 
Q 1584 409 2034 409 
Q 2484 409 2743 651 
Q 3003 894 3003 1313 
Q 3003 1734 2745 1975 
Q 2488 2216 2034 2216 
z
M 1403 2484 
Q 997 2584 770 2862 
Q 544 3141 544 3541 
Q 544 4100 942 4425 
Q 1341 4750 2034 4750 
Q 2731 4750 3128 4425 
Q 3525 4100 3525 3541 
Q 3525 3141 3298 2862 
Q 3072 2584 2669 2484 
Q 3125 2378 3379 2068 
Q 3634 1759 3634 1313 
Q 3634 634 3220 271 
Q 2806 -91 2034 -91 
Q 1263 -91 848 271 
Q 434 634 434 1313 
Q 434 1759 690 2068 
Q 947 2378 1403 2484 
z
M 1172 3481 
Q 1172 3119 1398 2916 
Q 1625 2713 2034 2713 
Q 2441 2713 2670 2916 
Q 2900 3119 2900 3481 
Q 2900 3844 2670 4047 
Q 2441 4250 2034 4250 
Q 1625 4250 1398 4047 
Q 1172 3844 1172 3481 
z
" transform="scale(0.015625)"/>
       </defs>
       <use xlink:href="#DejaVuSans-38"/>
       <use xlink:href="#DejaVuSans-30" x="63.623047"/>
       <use xlink:href="#DejaVuSans-30" x="127.246094"/>
      </g>
     </g>
    </g>
    <g id="xtick_6">
     <g id="line2d_6">
      <g>
       <use xlink:href="#md7ea10ecfe" x="352.869318" y="230.769363" style="stroke: #000000; stroke-width: 0.8"/>
      </g>
     </g>
     <g id="text_6">
      <!-- 1000 -->
      <g transform="translate(340.144318 245.3678) scale(0.1 -0.1)">
       <defs>
        <path id="DejaVuSans-31" d="M 794 531 
L 1825 531 
L 1825 4091 
L 703 3866 
L 703 4441 
L 1819 4666 
L 2450 4666 
L 2450 531 
L 3481 531 
L 3481 0 
L 794 0 
L 794 531 
z
" transform="scale(0.015625)"/>
       </defs>
       <use xlink:href="#DejaVuSans-31"/>
       <use xlink:href="#DejaVuSans-30" x="63.623047"/>
       <use xlink:href="#DejaVuSans-30" x="127.246094"/>
       <use xlink:href="#DejaVuSans-30" x="190.869141"/>
      </g>
     </g>
    </g>
   </g>
   <g id="matplotlib.axis_2">
    <g id="ytick_1">
     <g id="line2d_7">
      <defs>
       <path id="m94b5b7dc62" d="M 0 0 
L -3.5 0 
" style="stroke: #000000; stroke-width: 0.8"/>
      </defs>
      <g>
       <use xlink:href="#m94b5b7dc62" x="33.2875" y="220.689363" style="stroke: #000000; stroke-width: 0.8"/>
      </g>
     </g>
     <g id="text_7">
      <!-- 0 -->
      <g transform="translate(19.925 224.488582) scale(0.1 -0.1)">
       <use xlink:href="#DejaVuSans-30"/>
      </g>
     </g>
    </g>
    <g id="ytick_2">
     <g id="line2d_8">
      <g>
       <use xlink:href="#m94b5b7dc62" x="33.2875" y="178.751334" style="stroke: #000000; stroke-width: 0.8"/>
      </g>
     </g>
     <g id="text_8">
      <!-- 20 -->
      <g transform="translate(13.5625 182.550553) scale(0.1 -0.1)">
       <use xlink:href="#DejaVuSans-32"/>
       <use xlink:href="#DejaVuSans-30" x="63.623047"/>
      </g>
     </g>
    </g>
    <g id="ytick_3">
     <g id="line2d_9">
      <g>
       <use xlink:href="#m94b5b7dc62" x="33.2875" y="136.813305" style="stroke: #000000; stroke-width: 0.8"/>
      </g>
     </g>
     <g id="text_9">
      <!-- 40 -->
      <g transform="translate(13.5625 140.612524) scale(0.1 -0.1)">
       <use xlink:href="#DejaVuSans-34"/>
       <use xlink:href="#DejaVuSans-30" x="63.623047"/>
      </g>
     </g>
    </g>
    <g id="ytick_4">
     <g id="line2d_10">
      <g>
       <use xlink:href="#m94b5b7dc62" x="33.2875" y="94.875276" style="stroke: #000000; stroke-width: 0.8"/>
      </g>
     </g>
     <g id="text_10">
      <!-- 60 -->
      <g transform="translate(13.5625 98.674495) scale(0.1 -0.1)">
       <use xlink:href="#DejaVuSans-36"/>
       <use xlink:href="#DejaVuSans-30" x="63.623047"/>
      </g>
     </g>
    </g>
    <g id="ytick_5">
     <g id="line2d_11">
      <g>
       <use xlink:href="#m94b5b7dc62" x="33.2875" y="52.937248" style="stroke: #000000; stroke-width: 0.8"/>
      </g>
     </g>
     <g id="text_11">
      <!-- 80 -->
      <g transform="translate(13.5625 56.736466) scale(0.1 -0.1)">
       <use xlink:href="#DejaVuSans-38"/>
       <use xlink:href="#DejaVuSans-30" x="63.623047"/>
      </g>
     </g>
    </g>
    <g id="ytick_6">
     <g id="line2d_12">
      <g>
       <use xlink:href="#m94b5b7dc62" x="33.2875" y="10.999219" style="stroke: #000000; stroke-width: 0.8"/>
      </g>
     </g>
     <g id="text_12">
      <!-- 100 -->
      <g transform="translate(7.2 14.798437) scale(0.1 -0.1)">
       <use xlink:href="#DejaVuSans-31"/>
       <use xlink:href="#DejaVuSans-30" x="63.623047"/>
       <use xlink:href="#DejaVuSans-30" x="127.246094"/>
      </g>
     </g>
    </g>
   </g>
   <g id="line2d_13">
    <path d="M 48.505682 19.089363 
L 48.810045 21.069414 
L 49.114409 21.257973 
L 49.723136 21.257973 
L 50.636227 21.747959 
L 50.940591 22.372611 
L 51.549318 22.436699 
L 52.158045 23.417083 
L 52.462409 24.238075 
L 52.766773 24.322115 
L 53.679864 25.993553 
L 53.984227 26.072968 
L 54.592955 27.535204 
L 55.201682 27.766727 
L 55.506045 28.477827 
L 55.810409 28.477827 
L 56.114773 28.978521 
L 56.419136 29.149191 
L 59.767136 29.149191 
L 60.375864 29.389788 
L 60.680227 29.772379 
L 60.984591 29.772379 
L 62.506409 31.241189 
L 63.115136 32.67356 
L 63.4195 32.875351 
L 63.723864 33.258727 
L 64.332591 33.325055 
L 64.636955 33.456269 
L 65.245682 34.296929 
L 66.463136 34.302231 
L 66.7675 34.580683 
L 67.984955 34.805569 
L 68.289318 35.033532 
L 70.1155 35.033532 
L 70.724227 35.687878 
L 71.028591 35.991794 
L 72.246045 35.991794 
L 72.854773 36.14865 
L 73.767864 36.14865 
L 74.072227 36.398158 
L 75.898409 36.502443 
L 76.202773 37.199116 
L 77.115864 37.711552 
L 78.637682 38.713526 
L 79.550773 38.753481 
L 79.855136 38.983478 
L 80.463864 38.983478 
L 80.768227 39.114362 
L 81.681318 39.215192 
L 82.594409 39.565285 
L 82.898773 39.565285 
L 83.5075 39.797668 
L 84.420591 40.169883 
L 84.724955 40.579457 
L 85.638045 41.064181 
L 86.8555 41.96613 
L 87.768591 42.012053 
L 88.681682 42.012053 
L 88.986045 42.746358 
L 89.594773 42.881014 
L 89.899136 43.123364 
L 92.334045 43.177912 
L 94.160227 43.791292 
L 94.464591 43.791292 
L 94.768955 44.236498 
L 95.682045 44.62374 
L 97.508227 44.720409 
L 98.421318 44.837747 
L 98.725682 44.968649 
L 99.030045 45.247833 
L 99.943136 45.408856 
L 100.551864 45.606861 
L 102.682409 45.780834 
L 103.291136 45.987688 
L 104.204227 46.033327 
L 104.812955 46.135456 
L 105.421682 46.135456 
L 105.726045 46.253393 
L 106.030409 46.574946 
L 106.639136 46.60552 
L 106.9435 46.805884 
L 107.856591 46.898099 
L 108.465318 47.207357 
L 112.726409 47.635131 
L 113.030773 48.001889 
L 113.6395 48.138615 
L 114.248227 48.42072 
L 116.074409 48.462465 
L 116.683136 48.576063 
L 117.596227 48.624914 
L 117.900591 48.946082 
L 120.031136 49.103988 
L 121.857318 49.420805 
L 122.161682 49.609316 
L 123.074773 49.688496 
L 123.6835 49.958502 
L 125.509682 50.653503 
L 126.118409 50.770519 
L 126.727136 50.993936 
L 127.0315 51.151155 
L 130.988227 51.345188 
L 132.205682 51.412609 
L 132.814409 51.483274 
L 133.423136 51.586008 
L 134.031864 51.683448 
L 134.944955 51.797081 
L 136.466773 52.148585 
L 139.814773 52.235056 
L 140.4235 52.441334 
L 142.554045 52.514023 
L 143.467136 52.90826 
L 147.728227 53.407878 
L 148.032591 53.548933 
L 149.858773 53.602361 
L 150.771864 53.687638 
L 151.989318 53.807911 
L 152.598045 54.142342 
L 153.206773 54.14731 
L 153.511136 54.352278 
L 154.728591 54.478928 
L 155.032955 54.709581 
L 155.641682 54.789506 
L 155.946045 54.839544 
L 156.250409 55.115717 
L 161.728955 55.220698 
L 162.337682 55.33503 
L 165.685682 55.6786 
L 165.990045 55.6786 
L 166.598773 55.866177 
L 168.120591 55.905174 
L 169.033682 56.115386 
L 169.946773 56.117481 
L 170.5555 56.278159 
L 174.816591 56.34805 
L 175.729682 56.389758 
L 178.164591 56.538566 
L 179.990773 56.810708 
L 182.425682 56.931744 
L 183.643136 56.967807 
L 183.9475 56.968398 
L 184.556227 57.083857 
L 188.512955 57.212666 
L 191.252227 57.301879 
L 191.556591 57.519078 
L 192.165318 57.597932 
L 194.295864 57.690668 
L 195.817682 57.907577 
L 197.3395 57.952408 
L 197.948227 58.043474 
L 202.209318 58.12572 
L 204.0355 58.203261 
L 205.557318 58.297621 
L 206.166045 58.457737 
L 207.687864 58.502572 
L 208.296591 58.592443 
L 211.340227 58.688315 
L 212.253318 58.835444 
L 213.775136 58.903931 
L 214.688227 58.973031 
L 220.166773 59.06333 
L 228.384591 59.572723 
L 233.863136 59.766341 
L 234.776227 59.897549 
L 239.950409 60.075809 
L 246.950773 60.184078 
L 257.299136 60.495273 
L 257.907864 60.495273 
L 258.212227 220.689363 
L 352.869318 220.689363 
L 352.869318 220.689363 
" clip-path="url(#p90f5858794)" style="fill: none; stroke: #1f77b4; stroke-width: 1.5; stroke-linecap: square"/>
   </g>
   <g id="patch_3">
    <path d="M 33.2875 230.769363 
L 33.2875 9.009363 
" style="fill: none; stroke: #000000; stroke-width: 0.8; stroke-linejoin: miter; stroke-linecap: square"/>
   </g>
   <g id="patch_4">
    <path d="M 368.0875 230.769363 
L 368.0875 9.009363 
" style="fill: none; stroke: #000000; stroke-width: 0.8; stroke-linejoin: miter; stroke-linecap: square"/>
   </g>
   <g id="patch_5">
    <path d="M 33.2875 230.769363 
L 368.0875 230.769363 
" style="fill: none; stroke: #000000; stroke-width: 0.8; stroke-linejoin: miter; stroke-linecap: square"/>
   </g>
   <g id="patch_6">
    <path d="M 33.2875 9.009363 
L 368.0875 9.009363 
" style="fill: none; stroke: #000000; stroke-width: 0.8; stroke-linejoin: miter; stroke-linecap: square"/>
   </g>
  </g>
 </g>
 <defs>
  <clipPath id="p90f5858794">
   <rect x="33.2875" y="9.009363" width="334.8" height="221.76"/>
  </clipPath>
 </defs>
</svg>
