<?xml version="1.0" encoding="utf-8" standalone="no"?>
<!DOCTYPE svg PUBLIC "-//W3C//DTD SVG 1.1//EN"
  "http://www.w3.org/Graphics/SVG/1.1/DTD/svg11.dtd">
<svg xmlns:xlink="http://www.w3.org/1999/xlink" width="372.103125pt" height="252.838125pt" viewBox="0 0 372.103125 252.838125" xmlns="http://www.w3.org/2000/svg" version="1.1">
 <metadata>
  <rdf:RDF xmlns:dc="http://purl.org/dc/elements/1.1/" xmlns:cc="http://creativecommons.org/ns#" xmlns:rdf="http://www.w3.org/1999/02/22-rdf-syntax-ns#">
   <cc:Work>
    <dc:type rdf:resource="http://purl.org/dc/dcmitype/StillImage"/>
    <dc:date>2023-04-19T15:40:43.498309</dc:date>
    <dc:format>image/svg+xml</dc:format>
    <dc:creator>
     <cc:Agent>
      <dc:title>Matplotlib v3.6.2, https://matplotlib.org/</dc:title>
     </cc:Agent>
    </dc:creator>
   </cc:Work>
  </rdf:RDF>
 </metadata>
 <defs>
  <style type="text/css">*{stroke-linejoin: round; stroke-linecap: butt}</style>
 </defs>
 <g id="figure_1">
  <g id="patch_1">
   <path d="M 0 252.838125 
L 372.103125 252.838125 
L 372.103125 0 
L 0 0 
z
" style="fill: #ffffff"/>
  </g>
  <g id="axes_1">
   <g id="patch_2">
    <path d="M 30.103125 228.96 
L 364.903125 228.96 
L 364.903125 7.2 
L 30.103125 7.2 
z
" style="fill: #ffffff"/>
   </g>
   <g id="matplotlib.axis_1">
    <g id="xtick_1">
     <g id="line2d_1">
      <defs>
       <path id="mf14c8a4d3b" d="M 0 0 
L 0 3.5 
" style="stroke: #000000; stroke-width: 0.8"/>
      </defs>
      <g>
       <use xlink:href="#mf14c8a4d3b" x="45.321307" y="228.96" style="stroke: #000000; stroke-width: 0.8"/>
      </g>
     </g>
     <g id="text_1">
      <!-- 0 -->
      <g transform="translate(42.140057 243.558437) scale(0.1 -0.1)">
       <defs>
        <path id="DejaVuSans-30" d="M 2034 4250 
Q 1547 4250 1301 3770 
Q 1056 3291 1056 2328 
Q 1056 1369 1301 889 
Q 1547 409 2034 409 
Q 2525 409 2770 889 
Q 3016 1369 3016 2328 
Q 3016 3291 2770 3770 
Q 2525 4250 2034 4250 
z
M 2034 4750 
Q 2819 4750 3233 4129 
Q 3647 3509 3647 2328 
Q 3647 1150 3233 529 
Q 2819 -91 2034 -91 
Q 1250 -91 836 529 
Q 422 1150 422 2328 
Q 422 3509 836 4129 
Q 1250 4750 2034 4750 
z
" transform="scale(0.015625)"/>
       </defs>
       <use xlink:href="#DejaVuSans-30"/>
      </g>
     </g>
    </g>
    <g id="xtick_2">
     <g id="line2d_2">
      <g>
       <use xlink:href="#mf14c8a4d3b" x="106.194034" y="228.96" style="stroke: #000000; stroke-width: 0.8"/>
      </g>
     </g>
     <g id="text_2">
      <!-- 200 -->
      <g transform="translate(96.650284 243.558437) scale(0.1 -0.1)">
       <defs>
        <path id="DejaVuSans-32" d="M 1228 531 
L 3431 531 
L 3431 0 
L 469 0 
L 469 531 
Q 828 903 1448 1529 
Q 2069 2156 2228 2338 
Q 2531 2678 2651 2914 
Q 2772 3150 2772 3378 
Q 2772 3750 2511 3984 
Q 2250 4219 1831 4219 
Q 1534 4219 1204 4116 
Q 875 4013 500 3803 
L 500 4441 
Q 881 4594 1212 4672 
Q 1544 4750 1819 4750 
Q 2544 4750 2975 4387 
Q 3406 4025 3406 3419 
Q 3406 3131 3298 2873 
Q 3191 2616 2906 2266 
Q 2828 2175 2409 1742 
Q 1991 1309 1228 531 
z
" transform="scale(0.015625)"/>
       </defs>
       <use xlink:href="#DejaVuSans-32"/>
       <use xlink:href="#DejaVuSans-30" x="63.623047"/>
       <use xlink:href="#DejaVuSans-30" x="127.246094"/>
      </g>
     </g>
    </g>
    <g id="xtick_3">
     <g id="line2d_3">
      <g>
       <use xlink:href="#mf14c8a4d3b" x="167.066761" y="228.96" style="stroke: #000000; stroke-width: 0.8"/>
      </g>
     </g>
     <g id="text_3">
      <!-- 400 -->
      <g transform="translate(157.523011 243.558437) scale(0.1 -0.1)">
       <defs>
        <path id="DejaVuSans-34" d="M 2419 4116 
L 825 1625 
L 2419 1625 
L 2419 4116 
z
M 2253 4666 
L 3047 4666 
L 3047 1625 
L 3713 1625 
L 3713 1100 
L 3047 1100 
L 3047 0 
L 2419 0 
L 2419 1100 
L 313 1100 
L 313 1709 
L 2253 4666 
z
" transform="scale(0.015625)"/>
       </defs>
       <use xlink:href="#DejaVuSans-34"/>
       <use xlink:href="#DejaVuSans-30" x="63.623047"/>
       <use xlink:href="#DejaVuSans-30" x="127.246094"/>
      </g>
     </g>
    </g>
    <g id="xtick_4">
     <g id="line2d_4">
      <g>
       <use xlink:href="#mf14c8a4d3b" x="227.939489" y="228.96" style="stroke: #000000; stroke-width: 0.8"/>
      </g>
     </g>
     <g id="text_4">
      <!-- 600 -->
      <g transform="translate(218.395739 243.558437) scale(0.1 -0.1)">
       <defs>
        <path id="DejaVuSans-36" d="M 2113 2584 
Q 1688 2584 1439 2293 
Q 1191 2003 1191 1497 
Q 1191 994 1439 701 
Q 1688 409 2113 409 
Q 2538 409 2786 701 
Q 3034 994 3034 1497 
Q 3034 2003 2786 2293 
Q 2538 2584 2113 2584 
z
M 3366 4563 
L 3366 3988 
Q 3128 4100 2886 4159 
Q 2644 4219 2406 4219 
Q 1781 4219 1451 3797 
Q 1122 3375 1075 2522 
Q 1259 2794 1537 2939 
Q 1816 3084 2150 3084 
Q 2853 3084 3261 2657 
Q 3669 2231 3669 1497 
Q 3669 778 3244 343 
Q 2819 -91 2113 -91 
Q 1303 -91 875 529 
Q 447 1150 447 2328 
Q 447 3434 972 4092 
Q 1497 4750 2381 4750 
Q 2619 4750 2861 4703 
Q 3103 4656 3366 4563 
z
" transform="scale(0.015625)"/>
       </defs>
       <use xlink:href="#DejaVuSans-36"/>
       <use xlink:href="#DejaVuSans-30" x="63.623047"/>
       <use xlink:href="#DejaVuSans-30" x="127.246094"/>
      </g>
     </g>
    </g>
    <g id="xtick_5">
     <g id="line2d_5">
      <g>
       <use xlink:href="#mf14c8a4d3b" x="288.812216" y="228.96" style="stroke: #000000; stroke-width: 0.8"/>
      </g>
     </g>
     <g id="text_5">
      <!-- 800 -->
      <g transform="translate(279.268466 243.558437) scale(0.1 -0.1)">
       <defs>
        <path id="DejaVuSans-38" d="M 2034 2216 
Q 1584 2216 1326 1975 
Q 1069 1734 1069 1313 
Q 1069 891 1326 650 
Q 1584 409 2034 409 
Q 2484 409 2743 651 
Q 3003 894 3003 1313 
Q 3003 1734 2745 1975 
Q 2488 2216 2034 2216 
z
M 1403 2484 
Q 997 2584 770 2862 
Q 544 3141 544 3541 
Q 544 4100 942 4425 
Q 1341 4750 2034 4750 
Q 2731 4750 3128 4425 
Q 3525 4100 3525 3541 
Q 3525 3141 3298 2862 
Q 3072 2584 2669 2484 
Q 3125 2378 3379 2068 
Q 3634 1759 3634 1313 
Q 3634 634 3220 271 
Q 2806 -91 2034 -91 
Q 1263 -91 848 271 
Q 434 634 434 1313 
Q 434 1759 690 2068 
Q 947 2378 1403 2484 
z
M 1172 3481 
Q 1172 3119 1398 2916 
Q 1625 2713 2034 2713 
Q 2441 2713 2670 2916 
Q 2900 3119 2900 3481 
Q 2900 3844 2670 4047 
Q 2441 4250 2034 4250 
Q 1625 4250 1398 4047 
Q 1172 3844 1172 3481 
z
" transform="scale(0.015625)"/>
       </defs>
       <use xlink:href="#DejaVuSans-38"/>
       <use xlink:href="#DejaVuSans-30" x="63.623047"/>
       <use xlink:href="#DejaVuSans-30" x="127.246094"/>
      </g>
     </g>
    </g>
    <g id="xtick_6">
     <g id="line2d_6">
      <g>
       <use xlink:href="#mf14c8a4d3b" x="349.684943" y="228.96" style="stroke: #000000; stroke-width: 0.8"/>
      </g>
     </g>
     <g id="text_6">
      <!-- 1000 -->
      <g transform="translate(336.959943 243.558437) scale(0.1 -0.1)">
       <defs>
        <path id="DejaVuSans-31" d="M 794 531 
L 1825 531 
L 1825 4091 
L 703 3866 
L 703 4441 
L 1819 4666 
L 2450 4666 
L 2450 531 
L 3481 531 
L 3481 0 
L 794 0 
L 794 531 
z
" transform="scale(0.015625)"/>
       </defs>
       <use xlink:href="#DejaVuSans-31"/>
       <use xlink:href="#DejaVuSans-30" x="63.623047"/>
       <use xlink:href="#DejaVuSans-30" x="127.246094"/>
       <use xlink:href="#DejaVuSans-30" x="190.869141"/>
      </g>
     </g>
    </g>
   </g>
   <g id="matplotlib.axis_2">
    <g id="ytick_1">
     <g id="line2d_7">
      <defs>
       <path id="m9e317b8f46" d="M 0 0 
L -3.5 0 
" style="stroke: #000000; stroke-width: 0.8"/>
      </defs>
      <g>
       <use xlink:href="#m9e317b8f46" x="30.103125" y="209.868333" style="stroke: #000000; stroke-width: 0.8"/>
      </g>
     </g>
     <g id="text_7">
      <!-- 1.5 -->
      <g transform="translate(7.2 213.667552) scale(0.1 -0.1)">
       <defs>
        <path id="DejaVuSans-2e" d="M 684 794 
L 1344 794 
L 1344 0 
L 684 0 
L 684 794 
z
" transform="scale(0.015625)"/>
        <path id="DejaVuSans-35" d="M 691 4666 
L 3169 4666 
L 3169 4134 
L 1269 4134 
L 1269 2991 
Q 1406 3038 1543 3061 
Q 1681 3084 1819 3084 
Q 2600 3084 3056 2656 
Q 3513 2228 3513 1497 
Q 3513 744 3044 326 
Q 2575 -91 1722 -91 
Q 1428 -91 1123 -41 
Q 819 9 494 109 
L 494 744 
Q 775 591 1075 516 
Q 1375 441 1709 441 
Q 2250 441 2565 725 
Q 2881 1009 2881 1497 
Q 2881 1984 2565 2268 
Q 2250 2553 1709 2553 
Q 1456 2553 1204 2497 
Q 953 2441 691 2322 
L 691 4666 
z
" transform="scale(0.015625)"/>
       </defs>
       <use xlink:href="#DejaVuSans-31"/>
       <use xlink:href="#DejaVuSans-2e" x="63.623047"/>
       <use xlink:href="#DejaVuSans-35" x="95.410156"/>
      </g>
     </g>
    </g>
    <g id="ytick_2">
     <g id="line2d_8">
      <g>
       <use xlink:href="#m9e317b8f46" x="30.103125" y="177.759508" style="stroke: #000000; stroke-width: 0.8"/>
      </g>
     </g>
     <g id="text_8">
      <!-- 2.0 -->
      <g transform="translate(7.2 181.558727) scale(0.1 -0.1)">
       <use xlink:href="#DejaVuSans-32"/>
       <use xlink:href="#DejaVuSans-2e" x="63.623047"/>
       <use xlink:href="#DejaVuSans-30" x="95.410156"/>
      </g>
     </g>
    </g>
    <g id="ytick_3">
     <g id="line2d_9">
      <g>
       <use xlink:href="#m9e317b8f46" x="30.103125" y="145.650683" style="stroke: #000000; stroke-width: 0.8"/>
      </g>
     </g>
     <g id="text_9">
      <!-- 2.5 -->
      <g transform="translate(7.2 149.449902) scale(0.1 -0.1)">
       <use xlink:href="#DejaVuSans-32"/>
       <use xlink:href="#DejaVuSans-2e" x="63.623047"/>
       <use xlink:href="#DejaVuSans-35" x="95.410156"/>
      </g>
     </g>
    </g>
    <g id="ytick_4">
     <g id="line2d_10">
      <g>
       <use xlink:href="#m9e317b8f46" x="30.103125" y="113.541859" style="stroke: #000000; stroke-width: 0.8"/>
      </g>
     </g>
     <g id="text_10">
      <!-- 3.0 -->
      <g transform="translate(7.2 117.341077) scale(0.1 -0.1)">
       <defs>
        <path id="DejaVuSans-33" d="M 2597 2516 
Q 3050 2419 3304 2112 
Q 3559 1806 3559 1356 
Q 3559 666 3084 287 
Q 2609 -91 1734 -91 
Q 1441 -91 1130 -33 
Q 819 25 488 141 
L 488 750 
Q 750 597 1062 519 
Q 1375 441 1716 441 
Q 2309 441 2620 675 
Q 2931 909 2931 1356 
Q 2931 1769 2642 2001 
Q 2353 2234 1838 2234 
L 1294 2234 
L 1294 2753 
L 1863 2753 
Q 2328 2753 2575 2939 
Q 2822 3125 2822 3475 
Q 2822 3834 2567 4026 
Q 2313 4219 1838 4219 
Q 1578 4219 1281 4162 
Q 984 4106 628 3988 
L 628 4550 
Q 988 4650 1302 4700 
Q 1616 4750 1894 4750 
Q 2613 4750 3031 4423 
Q 3450 4097 3450 3541 
Q 3450 3153 3228 2886 
Q 3006 2619 2597 2516 
z
" transform="scale(0.015625)"/>
       </defs>
       <use xlink:href="#DejaVuSans-33"/>
       <use xlink:href="#DejaVuSans-2e" x="63.623047"/>
       <use xlink:href="#DejaVuSans-30" x="95.410156"/>
      </g>
     </g>
    </g>
    <g id="ytick_5">
     <g id="line2d_11">
      <g>
       <use xlink:href="#m9e317b8f46" x="30.103125" y="81.433034" style="stroke: #000000; stroke-width: 0.8"/>
      </g>
     </g>
     <g id="text_11">
      <!-- 3.5 -->
      <g transform="translate(7.2 85.232253) scale(0.1 -0.1)">
       <use xlink:href="#DejaVuSans-33"/>
       <use xlink:href="#DejaVuSans-2e" x="63.623047"/>
       <use xlink:href="#DejaVuSans-35" x="95.410156"/>
      </g>
     </g>
    </g>
    <g id="ytick_6">
     <g id="line2d_12">
      <g>
       <use xlink:href="#m9e317b8f46" x="30.103125" y="49.324209" style="stroke: #000000; stroke-width: 0.8"/>
      </g>
     </g>
     <g id="text_12">
      <!-- 4.0 -->
      <g transform="translate(7.2 53.123428) scale(0.1 -0.1)">
       <use xlink:href="#DejaVuSans-34"/>
       <use xlink:href="#DejaVuSans-2e" x="63.623047"/>
       <use xlink:href="#DejaVuSans-30" x="95.410156"/>
      </g>
     </g>
    </g>
    <g id="ytick_7">
     <g id="line2d_13">
      <g>
       <use xlink:href="#m9e317b8f46" x="30.103125" y="17.215384" style="stroke: #000000; stroke-width: 0.8"/>
      </g>
     </g>
     <g id="text_13">
      <!-- 4.5 -->
      <g transform="translate(7.2 21.014603) scale(0.1 -0.1)">
       <use xlink:href="#DejaVuSans-34"/>
       <use xlink:href="#DejaVuSans-2e" x="63.623047"/>
       <use xlink:href="#DejaVuSans-35" x="95.410156"/>
      </g>
     </g>
    </g>
   </g>
   <g id="line2d_14">
    <path d="M 45.321307 217.989025 
L 45.62567 217.905477 
L 45.930034 217.296298 
L 46.234398 217.296298 
L 46.538761 218.88 
L 46.843125 214.021823 
L 47.147489 216.446415 
L 47.451852 217.061859 
L 47.756216 213.535898 
L 48.364943 212.881034 
L 48.669307 212.881034 
L 48.97367 211.777059 
L 49.278034 202.72144 
L 49.886761 201.377064 
L 50.191125 204.974388 
L 50.495489 205.943467 
L 50.799852 205.925695 
L 51.104216 207.257592 
L 51.712943 207.257592 
L 52.017307 210.270909 
L 52.32167 204.25983 
L 52.626034 204.25983 
L 52.930398 209.242101 
L 53.234761 204.541355 
L 53.539125 210.319486 
L 53.843489 209.862259 
L 54.147852 212.009438 
L 54.452216 213.084744 
L 54.75658 214.866142 
L 55.060943 213.124965 
L 55.365307 213.606821 
L 55.66967 213.349051 
L 55.974034 211.971421 
L 56.278398 211.578989 
L 56.582761 210.13952 
L 56.887125 207.173021 
L 57.191489 212.197154 
L 57.495852 211.45536 
L 57.800216 211.022827 
L 58.408943 211.022827 
L 58.713307 210.779809 
L 59.626398 210.779809 
L 59.930761 209.103624 
L 60.235125 209.103624 
L 60.539489 210.623187 
L 60.843852 210.779809 
L 61.148216 209.654762 
L 61.45258 209.241589 
L 61.756943 210.210014 
L 62.061307 210.272711 
L 62.36567 209.296575 
L 62.974398 209.296575 
L 63.278761 208.852663 
L 63.583125 209.427341 
L 63.887489 208.002256 
L 64.191852 207.627108 
L 64.496216 209.078973 
L 65.71367 209.078973 
L 66.018034 208.743918 
L 66.322398 208.743918 
L 66.626761 208.591046 
L 67.539852 208.698167 
L 67.844216 206.190516 
L 68.14858 208.173184 
L 68.452943 208.005968 
L 68.757307 206.724083 
L 69.06167 208.407016 
L 69.974761 208.407016 
L 70.279125 208.782981 
L 70.583489 207.294948 
L 70.887852 207.365986 
L 71.192216 205.854362 
L 72.105307 205.867119 
L 72.40967 204.524181 
L 72.714034 206.911524 
L 73.931489 206.922711 
L 74.235852 205.398298 
L 74.540216 205.063243 
L 74.84458 206.815152 
L 75.453307 206.815152 
L 75.75767 206.053301 
L 76.062034 205.623281 
L 76.366398 205.6262 
L 76.670761 204.808205 
L 77.888216 204.730675 
L 78.19258 204.243919 
L 78.496943 205.126212 
L 78.801307 205.126212 
L 79.10567 205.442713 
L 79.714398 205.477959 
L 80.018761 204.920667 
L 80.323125 205.477959 
L 80.627489 204.784263 
L 80.931852 203.535386 
L 81.54058 203.350259 
L 81.844943 204.471545 
L 82.149307 204.471545 
L 83.062398 204.075677 
L 83.366761 204.075677 
L 83.671125 203.518561 
L 83.975489 204.075677 
L 84.279852 202.731933 
L 84.584216 202.358118 
L 84.88858 202.358118 
L 85.192943 202.142226 
L 85.497307 203.942948 
L 86.106034 203.942948 
L 86.410398 202.174572 
L 86.714761 201.156991 
L 87.019125 202.269242 
L 87.323489 201.517927 
L 87.627852 203.481321 
L 87.932216 200.683826 
L 88.23658 201.156847 
L 88.540943 200.974294 
L 88.845307 201.292367 
L 89.14967 201.109815 
L 89.454034 201.066101 
L 89.758398 200.755203 
L 90.062761 199.954387 
L 90.367125 200.506385 
L 90.975852 198.832314 
L 91.280216 198.832314 
L 91.58458 199.579513 
L 91.888943 198.689726 
L 92.193307 199.76129 
L 92.49767 198.350956 
L 92.802034 199.333973 
L 93.106398 198.448083 
L 93.410761 199.04476 
L 93.715125 198.733862 
L 94.019489 198.683475 
L 94.628216 198.788945 
L 95.236943 198.788945 
L 95.541307 197.172707 
L 95.84567 196.980167 
L 96.150034 198.193052 
L 96.454398 197.681257 
L 96.758761 198.004228 
L 97.063125 198.004228 
L 97.367489 197.59448 
L 97.671852 197.59448 
L 97.976216 197.878911 
L 98.28058 197.422788 
L 98.584943 196.124948 
L 98.889307 196.124948 
L 99.19367 194.021643 
L 99.802398 194.021643 
L 100.106761 193.068465 
L 100.411125 193.819195 
L 100.715489 193.596778 
L 101.019852 194.016479 
L 101.324216 194.09584 
L 101.62858 191.450684 
L 102.237307 191.450684 
L 102.54167 189.276292 
L 102.846034 194.966972 
L 103.150398 195.02156 
L 103.454761 193.065023 
L 103.759125 192.474427 
L 104.063489 191.547301 
L 104.367852 191.279477 
L 104.672216 192.783968 
L 104.97658 191.989146 
L 105.88967 191.346411 
L 106.498398 191.346411 
L 106.802761 191.642607 
L 107.107125 191.182281 
L 107.411489 191.529949 
L 107.715852 188.21585 
L 108.628943 182.243658 
L 108.933307 186.050606 
L 109.23767 186.5412 
L 109.542034 189.119076 
L 109.846398 187.13013 
L 110.150761 183.967829 
L 110.455125 183.967829 
L 110.759489 184.627092 
L 111.063852 184.491775 
L 111.368216 184.491775 
L 111.67258 183.575467 
L 111.976943 185.041121 
L 112.281307 184.592204 
L 112.58567 183.290877 
L 112.890034 182.914714 
L 113.194398 184.524433 
L 113.498761 184.492167 
L 113.803125 184.324834 
L 114.107489 183.748539 
L 114.411852 183.59267 
L 114.716216 183.59267 
L 115.02058 184.032343 
L 115.324943 184.032343 
L 115.629307 186.779923 
L 115.93367 185.549551 
L 116.238034 185.141153 
L 116.542398 187.328605 
L 116.846761 186.456348 
L 117.151125 186.327071 
L 117.455489 186.905586 
L 117.759852 182.969961 
L 118.064216 183.51088 
L 118.36858 181.991516 
L 118.672943 181.48082 
L 118.977307 183.355011 
L 119.28167 178.791113 
L 119.586034 182.104911 
L 119.890398 181.46049 
L 120.194761 183.9839 
L 120.499125 181.503678 
L 120.803489 182.272497 
L 121.107852 179.870327 
L 121.412216 179.345229 
L 121.71658 179.210432 
L 122.020943 182.422856 
L 122.325307 180.605994 
L 122.62967 180.69609 
L 122.934034 180.369337 
L 123.238398 180.369337 
L 123.542761 180.227178 
L 123.847125 177.748738 
L 124.760216 177.648083 
L 125.06458 176.513729 
L 125.368943 176.327104 
L 125.673307 177.653629 
L 125.97767 177.653629 
L 126.282034 181.407022 
L 126.586398 180.110498 
L 126.890761 177.653629 
L 127.195125 180.282464 
L 127.499489 176.048892 
L 127.803852 176.048892 
L 128.108216 177.299845 
L 128.41258 180.886623 
L 128.716943 179.338819 
L 129.021307 178.4626 
L 129.32567 178.323763 
L 129.630034 178.323763 
L 129.934398 179.108964 
L 130.238761 176.646163 
L 130.847489 177.747103 
L 131.151852 176.326145 
L 131.456216 176.745814 
L 131.76058 174.575255 
L 132.064943 174.136875 
L 132.369307 174.865411 
L 132.978034 174.865411 
L 133.282398 173.688736 
L 133.586761 173.532509 
L 133.891125 171.496451 
L 134.195489 171.080576 
L 134.499852 174.190531 
L 134.804216 174.646227 
L 135.10858 174.467259 
L 135.412943 173.712773 
L 135.717307 174.067717 
L 136.02167 170.250601 
L 136.326034 170.250601 
L 136.630398 173.315109 
L 137.239125 173.315109 
L 137.543489 173.45899 
L 137.847852 168.591643 
L 138.152216 169.294661 
L 138.45658 171.660788 
L 138.760943 169.708305 
L 139.065307 166.526467 
L 139.36967 166.38395 
L 139.674034 170.894896 
L 140.282761 169.979666 
L 140.587125 170.397884 
L 140.891489 171.960576 
L 141.195852 171.799287 
L 141.500216 170.606097 
L 141.80458 172.728011 
L 142.108943 172.36625 
L 142.413307 167.911092 
L 142.71767 167.421974 
L 143.022034 176.377677 
L 143.326398 177.073796 
L 143.935125 177.073796 
L 144.239489 173.118956 
L 144.543852 172.83363 
L 144.848216 172.811077 
L 145.15258 167.3622 
L 145.456943 170.078342 
L 145.761307 167.151564 
L 146.06567 166.866238 
L 146.370034 167.773239 
L 146.674398 167.306961 
L 146.978761 162.321902 
L 147.283125 164.393554 
L 147.891852 159.675738 
L 148.196216 162.319875 
L 148.50058 156.678276 
L 148.804943 160.390473 
L 149.109307 158.953089 
L 149.41367 158.953089 
L 149.718034 166.014498 
L 150.022398 166.334631 
L 150.326761 166.903506 
L 150.631125 164.781144 
L 150.935489 166.174368 
L 151.239852 164.354422 
L 151.544216 164.746012 
L 151.84858 164.129818 
L 152.152943 165.858072 
L 152.457307 163.68591 
L 152.76167 155.502096 
L 153.066034 155.224882 
L 153.370398 155.224882 
L 153.674761 164.416809 
L 153.979125 164.515609 
L 154.283489 163.164987 
L 154.587852 163.164987 
L 154.892216 163.775774 
L 155.19658 166.015434 
L 155.500943 165.383343 
L 156.10967 162.729155 
L 156.414034 164.300317 
L 156.718398 163.844654 
L 157.022761 155.321673 
L 157.327125 154.445978 
L 157.631489 154.30186 
L 157.935852 152.444059 
L 158.240216 152.069638 
L 158.54458 152.444059 
L 158.848943 152.246654 
L 159.153307 154.732976 
L 159.45767 154.732976 
L 159.762034 158.749119 
L 160.066398 158.12208 
L 160.370761 162.230034 
L 160.675125 158.805282 
L 160.979489 158.461871 
L 161.283852 157.652701 
L 161.588216 157.652701 
L 162.196943 161.373895 
L 162.501307 159.370677 
L 162.80567 161.637548 
L 163.110034 155.071132 
L 163.414398 157.489785 
L 163.718761 157.333908 
L 164.023125 155.491988 
L 164.327489 154.996609 
L 164.631852 153.753686 
L 165.24058 154.080301 
L 165.544943 155.242617 
L 165.849307 155.691423 
L 166.15367 148.075489 
L 166.458034 150.585302 
L 166.762398 150.582887 
L 167.066761 147.77275 
L 167.371125 150.131213 
L 167.979852 149.091448 
L 168.284216 149.923509 
L 168.58858 149.768671 
L 168.892943 148.698857 
L 169.197307 148.780125 
L 169.50167 147.863024 
L 169.806034 151.465872 
L 170.110398 148.067128 
L 170.719125 146.096318 
L 171.023489 146.630617 
L 171.327852 146.527473 
L 171.632216 148.265056 
L 171.93658 148.095243 
L 172.240943 146.655546 
L 172.545307 149.800288 
L 172.84967 145.425386 
L 173.154034 143.256023 
L 173.458398 148.397621 
L 173.762761 147.725611 
L 174.067125 147.935284 
L 174.371489 149.561313 
L 174.675852 153.12634 
L 174.980216 150.704908 
L 175.28458 149.273847 
L 175.588943 150.146142 
L 175.893307 147.536577 
L 176.19767 150.418798 
L 176.502034 151.096726 
L 176.806398 146.423872 
L 177.110761 148.740627 
L 177.415125 152.324629 
L 177.719489 151.988186 
L 178.328216 152.041833 
L 178.63258 144.895989 
L 178.936943 142.92642 
L 179.241307 143.49965 
L 179.54567 143.392669 
L 179.850034 143.872103 
L 180.154398 138.657097 
L 180.763125 138.296682 
L 181.067489 136.494148 
L 181.371852 143.5493 
L 181.676216 145.045808 
L 181.98058 125.775856 
L 182.284943 132.808197 
L 182.589307 132.370612 
L 182.89367 135.768931 
L 183.198034 142.43218 
L 183.502398 143.110427 
L 183.806761 143.454295 
L 184.111125 142.853914 
L 184.719852 136.218922 
L 185.024216 137.586676 
L 185.32858 136.329075 
L 185.632943 143.660075 
L 185.937307 143.860889 
L 186.24167 141.714937 
L 186.546034 144.168669 
L 186.850398 144.160203 
L 187.154761 144.67927 
L 187.459125 132.857624 
L 187.763489 130.978722 
L 188.067852 132.639863 
L 188.372216 133.260507 
L 188.67658 132.90934 
L 188.980943 143.726269 
L 189.285307 148.929667 
L 189.58967 148.929667 
L 189.894034 141.122545 
L 190.198398 140.431848 
L 190.502761 137.170042 
L 190.807125 138.36732 
L 191.111489 145.766388 
L 191.415852 144.502147 
L 191.720216 138.823581 
L 192.02458 145.361621 
L 192.328943 139.665738 
L 192.633307 138.653377 
L 193.242034 138.653377 
L 193.546398 141.523803 
L 193.850761 138.95477 
L 194.155125 141.582371 
L 194.459489 141.582371 
L 195.068216 139.405436 
L 195.37258 138.815075 
L 195.676943 138.663106 
L 195.981307 136.005545 
L 196.28567 135.159762 
L 196.590034 136.007508 
L 196.894398 135.573113 
L 197.198761 134.277953 
L 197.503125 139.00634 
L 197.807489 139.00634 
L 198.111852 133.537216 
L 198.416216 139.016567 
L 198.72058 136.684324 
L 199.024943 135.425272 
L 199.329307 135.421403 
L 199.63367 138.297232 
L 199.938034 138.297232 
L 200.242398 135.729172 
L 200.546761 135.949844 
L 200.851125 139.194504 
L 201.155489 139.194504 
L 202.06858 132.017623 
L 202.372943 130.674294 
L 202.677307 131.606331 
L 202.98167 133.671343 
L 203.286034 138.967014 
L 203.894761 138.967014 
L 204.199125 134.390533 
L 204.503489 134.786849 
L 204.807852 133.26392 
L 205.112216 135.34829 
L 205.41658 135.907793 
L 205.720943 137.687824 
L 206.025307 137.747809 
L 206.32967 138.340082 
L 206.634034 133.756133 
L 206.938398 138.462258 
L 207.242761 138.666785 
L 207.547125 137.749242 
L 207.851489 134.093991 
L 208.460216 133.617503 
L 209.068943 133.617503 
L 209.373307 136.061494 
L 209.67767 136.114603 
L 209.982034 135.589083 
L 210.286398 137.48121 
L 210.590761 137.062678 
L 210.895125 135.605693 
L 211.199489 133.327977 
L 211.503852 135.585911 
L 211.808216 134.128926 
L 212.11258 134.301409 
L 212.416943 134.301409 
L 213.02567 127.172108 
L 213.330034 125.435198 
L 213.634398 124.678355 
L 214.243125 130.692882 
L 214.547489 131.372538 
L 214.851852 125.707378 
L 215.156216 127.26787 
L 215.46058 127.26787 
L 215.764943 128.367903 
L 216.069307 127.437845 
L 216.37367 127.437845 
L 216.678034 127.675761 
L 216.982398 127.41911 
L 217.286761 122.375447 
L 217.591125 122.009442 
L 218.504216 127.16296 
L 218.80858 124.691561 
L 219.112943 129.289924 
L 219.72167 125.95078 
L 220.026034 126.729444 
L 220.330398 126.080966 
L 220.634761 126.03556 
L 220.939125 129.941152 
L 221.243489 128.403169 
L 221.547852 130.672157 
L 221.852216 130.672157 
L 222.15658 131.451165 
L 222.765307 130.890747 
L 223.374034 127.355229 
L 223.678398 114.766843 
L 223.982761 114.766843 
L 224.287125 118.133407 
L 224.591489 123.253564 
L 224.895852 118.375547 
L 225.200216 118.828056 
L 226.113307 118.776801 
L 226.41767 117.549153 
L 226.722034 118.169579 
L 227.026398 117.549153 
L 227.330761 118.754504 
L 227.635125 112.474986 
L 227.939489 111.108112 
L 228.243852 111.108112 
L 228.548216 112.067853 
L 228.85258 110.852159 
L 229.156943 115.004635 
L 229.461307 111.485514 
L 229.76567 123.000629 
L 230.070034 120.204836 
L 230.374398 120.801931 
L 230.983125 120.801931 
L 231.287489 114.441593 
L 231.591852 114.795204 
L 231.896216 113.532606 
L 232.20058 112.825883 
L 233.11367 112.717756 
L 233.722398 112.433408 
L 234.026761 113.172655 
L 234.331125 112.459369 
L 234.635489 112.459369 
L 234.939852 113.794541 
L 235.244216 110.136283 
L 235.54858 110.136283 
L 235.852943 110.313339 
L 236.157307 110.169332 
L 236.766034 110.169332 
L 237.070398 114.909053 
L 237.679125 109.941932 
L 237.983489 108.908506 
L 238.287852 106.171609 
L 238.592216 106.979583 
L 238.89658 107.165387 
L 239.200943 107.165387 
L 239.505307 109.143196 
L 239.80967 106.387874 
L 240.114034 99.745908 
L 241.027125 99.745908 
L 241.331489 104.485629 
L 241.635852 103.844918 
L 241.940216 102.285314 
L 242.24458 102.285314 
L 242.548943 103.844918 
L 242.853307 102.327654 
L 243.15767 102.014404 
L 243.462034 102.200208 
L 243.766398 102.200208 
L 244.070761 102.014404 
L 244.375125 102.014404 
L 244.679489 105.764936 
L 244.983852 106.195676 
L 245.288216 96.383737 
L 245.59258 107.364243 
L 245.896943 107.364243 
L 246.201307 114.062787 
L 246.50567 113.843665 
L 246.810034 112.714801 
L 247.114398 102.183739 
L 247.418761 97.850972 
L 247.723125 97.850972 
L 248.027489 98.403935 
L 248.331852 98.403935 
L 248.636216 96.369647 
L 248.94058 97.929252 
L 249.244943 89.968601 
L 249.549307 99.582654 
L 249.85367 89.601592 
L 250.158034 89.787396 
L 250.462398 98.6873 
L 250.766761 96.271143 
L 251.071125 103.907938 
L 251.375489 97.487832 
L 251.679852 105.906421 
L 251.984216 105.720617 
L 252.28858 86.275089 
L 252.592943 86.275089 
L 252.897307 88.691247 
L 253.20167 89.100022 
L 253.506034 95.738342 
L 253.810398 98.093454 
L 254.114761 92.426742 
L 254.723489 92.575289 
L 255.027852 91.931354 
L 255.332216 89.575228 
L 255.63658 85.227583 
L 255.940943 86.070007 
L 256.245307 88.154553 
L 256.54967 85.860888 
L 257.158398 85.857797 
L 257.462761 90.205443 
L 257.767125 90.205443 
L 258.071489 89.983217 
L 258.375852 89.574442 
L 258.680216 89.363458 
L 260.202034 89.363458 
L 260.506398 89.772234 
L 261.115125 88.73107 
L 261.419489 80.899484 
L 262.028216 100.849871 
L 262.33258 90.258439 
L 262.941307 80.539699 
L 263.24567 97.318024 
L 263.550034 97.318024 
L 263.854398 96.255574 
L 264.158761 89.421981 
L 264.463125 74.437708 
L 264.767489 74.546356 
L 265.071852 84.201678 
L 265.376216 84.201678 
L 265.68058 83.696221 
L 265.984943 86.844707 
L 266.289307 82.963149 
L 266.59367 91.567669 
L 266.898034 92.273609 
L 267.202398 82.127208 
L 267.811125 82.127208 
L 268.419852 91.454014 
L 268.724216 85.228629 
L 269.02858 90.032134 
L 269.332943 89.239549 
L 269.637307 80.943563 
L 269.94167 87.69989 
L 270.246034 88.276798 
L 270.550398 84.983015 
L 270.854761 85.681562 
L 271.159125 85.681562 
L 271.463489 81.971705 
L 272.072216 90.459054 
L 272.37658 84.103153 
L 272.680943 84.332882 
L 272.985307 84.332882 
L 273.28967 80.249075 
L 273.594034 84.268354 
L 273.898398 74.150911 
L 274.202761 85.87158 
L 274.507125 85.87158 
L 274.811489 76.046815 
L 275.115852 86.472208 
L 275.420216 85.982084 
L 275.72458 83.943847 
L 276.028943 89.569079 
L 276.333307 89.355997 
L 276.63767 84.167252 
L 276.942034 83.435988 
L 277.246398 75.314402 
L 277.550761 83.76794 
L 277.855125 77.914297 
L 278.159489 82.293711 
L 278.463852 82.740107 
L 279.376943 82.703105 
L 279.681307 82.126198 
L 280.290034 82.211103 
L 280.898761 82.796659 
L 281.203125 74.49132 
L 281.507489 77.955271 
L 281.811852 85.038106 
L 282.116216 67.498392 
L 282.42058 64.23559 
L 282.724943 63.856224 
L 283.029307 84.969384 
L 283.33367 87.019569 
L 283.638034 84.796329 
L 283.942398 86.478909 
L 284.246761 73.549609 
L 284.551125 73.759283 
L 284.855489 70.504708 
L 285.159852 73.553175 
L 285.464216 88.640836 
L 285.76858 88.415687 
L 286.072943 73.45165 
L 286.377307 74.764729 
L 286.68167 78.02753 
L 286.986034 77.867314 
L 287.290398 78.385279 
L 287.594761 78.385279 
L 287.899125 87.951132 
L 288.203489 72.701227 
L 288.507852 72.945382 
L 288.812216 72.495218 
L 289.11658 72.495218 
L 289.420943 72.672482 
L 289.725307 74.993058 
L 290.02967 72.322854 
L 290.334034 89.0538 
L 290.942761 72.425385 
L 291.551489 55.797804 
L 291.855852 79.818818 
L 292.160216 76.251788 
L 292.46458 77.161321 
L 292.768943 80.330416 
L 293.37767 79.681036 
L 293.682034 79.681036 
L 293.986398 58.724472 
L 294.290761 84.634919 
L 294.595125 84.634919 
L 294.899489 83.817307 
L 295.203852 83.817307 
L 295.508216 69.428201 
L 295.81258 69.428201 
L 296.116943 70.135482 
L 296.421307 70.335741 
L 296.72567 76.917434 
L 297.030034 76.446737 
L 297.334398 63.488119 
L 297.638761 63.488119 
L 297.943125 64.1954 
L 298.247489 75.119814 
L 298.551852 63.867078 
L 298.856216 63.867078 
L 299.16058 68.154107 
L 299.464943 70.135752 
L 299.769307 70.521553 
L 300.07367 71.514738 
L 300.378034 71.514738 
L 300.682398 68.342632 
L 300.986761 68.07514 
L 301.291125 67.961139 
L 301.595489 71.503343 
L 301.899852 71.39 
L 302.204216 71.639873 
L 302.50858 66.910961 
L 302.812943 66.910961 
L 303.117307 68.035913 
L 303.42167 64.071574 
L 303.726034 63.8217 
L 304.030398 63.8217 
L 304.334761 64.923469 
L 304.639125 64.923469 
L 304.943489 72.047318 
L 305.247852 71.509011 
L 305.552216 71.509011 
L 305.85658 72.286676 
L 306.465307 62.996342 
L 306.76967 61.484103 
L 307.074034 61.27895 
L 307.682761 61.27895 
L 307.987125 65.776478 
L 308.291489 60.820803 
L 308.595852 64.765526 
L 309.508943 63.136527 
L 309.813307 62.690781 
L 310.11767 63.306622 
L 310.422034 63.177124 
L 310.726398 63.177124 
L 311.030761 62.894296 
L 311.335125 54.900696 
L 311.639489 73.903213 
L 311.943852 73.796539 
L 312.248216 78.942244 
L 312.55258 79.361561 
L 312.856943 67.362778 
L 313.161307 62.864787 
L 313.46567 62.377669 
L 313.770034 68.776663 
L 314.074398 62.377669 
L 314.683125 53.40041 
L 314.987489 53.819727 
L 315.291852 56.097357 
L 315.596216 56.097357 
L 315.90058 57.053701 
L 316.204943 58.637573 
L 316.509307 51.170915 
L 316.81367 60.974367 
L 317.118034 54.575373 
L 317.422398 54.575373 
L 317.726761 48.829093 
L 318.031125 48.829093 
L 318.335489 54.501018 
L 318.639852 49.221501 
L 318.944216 49.620373 
L 319.24858 54.033121 
L 319.552943 53.651349 
L 319.857307 55.191651 
L 320.466034 45.167002 
L 320.770398 59.999272 
L 321.074761 60.846301 
L 321.379125 60.846301 
L 321.683489 63.617314 
L 321.987852 64.263794 
L 322.292216 59.930959 
L 322.59658 44.069828 
L 322.900943 44.201842 
L 323.205307 44.201842 
L 323.50967 51.970712 
L 323.814034 51.549762 
L 324.118398 51.549762 
L 324.422761 40.521823 
L 324.727125 38.925393 
L 325.031489 38.806005 
L 325.335852 44.504439 
L 325.640216 43.928508 
L 325.94458 41.186265 
L 326.248943 39.635812 
L 327.162034 39.635812 
L 327.466398 43.903773 
L 328.075125 43.903773 
L 328.379489 46.031787 
L 328.683852 45.11637 
L 328.988216 45.436016 
L 329.29258 32.277958 
L 329.596943 45.316629 
L 329.901307 45.20541 
L 330.20567 53.657696 
L 330.814398 54.070569 
L 331.118761 26.233989 
L 331.423125 26.463068 
L 331.727489 26.463068 
L 332.031852 25.449317 
L 332.336216 39.958613 
L 332.64058 31.798855 
L 332.944943 45.26879 
L 333.55367 45.190354 
L 333.858034 50.440081 
L 334.162398 52.141768 
L 334.466761 46.678591 
L 334.771125 46.176967 
L 335.075489 39.576932 
L 335.379852 39.576932 
L 335.684216 32.674795 
L 335.98858 32.45628 
L 336.292943 21.579543 
L 336.597307 21.796419 
L 336.90167 24.045631 
L 337.510398 23.868475 
L 337.814761 23.562826 
L 338.119125 23.733014 
L 338.423489 34.168786 
L 339.032216 17.28 
L 339.33658 23.918021 
L 339.640943 24.301876 
L 339.945307 19.415993 
L 340.24967 19.415993 
L 340.858398 27.237825 
L 341.162761 24.796671 
L 341.771489 28.109667 
L 342.075852 29.088836 
L 342.380216 30.503141 
L 342.68458 31.383657 
L 342.988943 29.954485 
L 343.293307 29.954485 
L 343.59767 19.75353 
L 343.902034 20.355965 
L 344.206398 31.706614 
L 344.510761 31.346156 
L 344.815125 28.478249 
L 345.119489 31.386313 
L 345.423852 21.973653 
L 346.03258 27.338802 
L 346.336943 27.9333 
L 346.641307 27.622236 
L 346.94567 27.622236 
L 347.250034 26.690991 
L 347.858761 26.585034 
L 348.163125 27.396408 
L 348.467489 27.166207 
L 348.771852 25.890627 
L 349.076216 32.223206 
L 349.38058 22.982022 
L 349.684943 35.163195 
L 349.684943 35.163195 
" clip-path="url(#p95e3ce24fd)" style="fill: none; stroke: #1f77b4; stroke-width: 1.5; stroke-linecap: square"/>
   </g>
   <g id="patch_3">
    <path d="M 30.103125 228.96 
L 30.103125 7.2 
" style="fill: none; stroke: #000000; stroke-width: 0.8; stroke-linejoin: miter; stroke-linecap: square"/>
   </g>
   <g id="patch_4">
    <path d="M 364.903125 228.96 
L 364.903125 7.2 
" style="fill: none; stroke: #000000; stroke-width: 0.8; stroke-linejoin: miter; stroke-linecap: square"/>
   </g>
   <g id="patch_5">
    <path d="M 30.103125 228.96 
L 364.903125 228.96 
" style="fill: none; stroke: #000000; stroke-width: 0.8; stroke-linejoin: miter; stroke-linecap: square"/>
   </g>
   <g id="patch_6">
    <path d="M 30.103125 7.2 
L 364.903125 7.2 
" style="fill: none; stroke: #000000; stroke-width: 0.8; stroke-linejoin: miter; stroke-linecap: square"/>
   </g>
  </g>
 </g>
 <defs>
  <clipPath id="p95e3ce24fd">
   <rect x="30.103125" y="7.2" width="334.8" height="221.76"/>
  </clipPath>
 </defs>
</svg>
