<?xml version="1.0" encoding="utf-8" standalone="no"?>
<!DOCTYPE svg PUBLIC "-//W3C//DTD SVG 1.1//EN"
  "http://www.w3.org/Graphics/SVG/1.1/DTD/svg11.dtd">
<svg xmlns:xlink="http://www.w3.org/1999/xlink" width="368.925pt" height="252.838125pt" viewBox="0 0 368.925 252.838125" xmlns="http://www.w3.org/2000/svg" version="1.1">
 <metadata>
  <rdf:RDF xmlns:dc="http://purl.org/dc/elements/1.1/" xmlns:cc="http://creativecommons.org/ns#" xmlns:rdf="http://www.w3.org/1999/02/22-rdf-syntax-ns#">
   <cc:Work>
    <dc:type rdf:resource="http://purl.org/dc/dcmitype/StillImage"/>
    <dc:date>2023-04-19T16:57:11.280579</dc:date>
    <dc:format>image/svg+xml</dc:format>
    <dc:creator>
     <cc:Agent>
      <dc:title>Matplotlib v3.6.2, https://matplotlib.org/</dc:title>
     </cc:Agent>
    </dc:creator>
   </cc:Work>
  </rdf:RDF>
 </metadata>
 <defs>
  <style type="text/css">*{stroke-linejoin: round; stroke-linecap: butt}</style>
 </defs>
 <g id="figure_1">
  <g id="patch_1">
   <path d="M -0 252.838125 
L 368.925 252.838125 
L 368.925 0 
L -0 0 
z
" style="fill: #ffffff"/>
  </g>
  <g id="axes_1">
   <g id="patch_2">
    <path d="M 26.925 228.96 
L 361.725 228.96 
L 361.725 7.2 
L 26.925 7.2 
z
" style="fill: #ffffff"/>
   </g>
   <g id="matplotlib.axis_1">
    <g id="xtick_1">
     <g id="line2d_1">
      <defs>
       <path id="m84130ee314" d="M 0 0 
L 0 3.5 
" style="stroke: #000000; stroke-width: 0.8"/>
      </defs>
      <g>
       <use xlink:href="#m84130ee314" x="49.827977" y="228.96" style="stroke: #000000; stroke-width: 0.8"/>
      </g>
     </g>
     <g id="text_1">
      <!-- 40 -->
      <g transform="translate(43.465477 243.558437) scale(0.1 -0.1)">
       <defs>
        <path id="DejaVuSans-34" d="M 2419 4116 
L 825 1625 
L 2419 1625 
L 2419 4116 
z
M 2253 4666 
L 3047 4666 
L 3047 1625 
L 3713 1625 
L 3713 1100 
L 3047 1100 
L 3047 0 
L 2419 0 
L 2419 1100 
L 313 1100 
L 313 1709 
L 2253 4666 
z
" transform="scale(0.015625)"/>
        <path id="DejaVuSans-30" d="M 2034 4250 
Q 1547 4250 1301 3770 
Q 1056 3291 1056 2328 
Q 1056 1369 1301 889 
Q 1547 409 2034 409 
Q 2525 409 2770 889 
Q 3016 1369 3016 2328 
Q 3016 3291 2770 3770 
Q 2525 4250 2034 4250 
z
M 2034 4750 
Q 2819 4750 3233 4129 
Q 3647 3509 3647 2328 
Q 3647 1150 3233 529 
Q 2819 -91 2034 -91 
Q 1250 -91 836 529 
Q 422 1150 422 2328 
Q 422 3509 836 4129 
Q 1250 4750 2034 4750 
z
" transform="scale(0.015625)"/>
       </defs>
       <use xlink:href="#DejaVuSans-34"/>
       <use xlink:href="#DejaVuSans-30" x="63.623047"/>
      </g>
     </g>
    </g>
    <g id="xtick_2">
     <g id="line2d_2">
      <g>
       <use xlink:href="#m84130ee314" x="90.523561" y="228.96" style="stroke: #000000; stroke-width: 0.8"/>
      </g>
     </g>
     <g id="text_2">
      <!-- 50 -->
      <g transform="translate(84.161061 243.558437) scale(0.1 -0.1)">
       <defs>
        <path id="DejaVuSans-35" d="M 691 4666 
L 3169 4666 
L 3169 4134 
L 1269 4134 
L 1269 2991 
Q 1406 3038 1543 3061 
Q 1681 3084 1819 3084 
Q 2600 3084 3056 2656 
Q 3513 2228 3513 1497 
Q 3513 744 3044 326 
Q 2575 -91 1722 -91 
Q 1428 -91 1123 -41 
Q 819 9 494 109 
L 494 744 
Q 775 591 1075 516 
Q 1375 441 1709 441 
Q 2250 441 2565 725 
Q 2881 1009 2881 1497 
Q 2881 1984 2565 2268 
Q 2250 2553 1709 2553 
Q 1456 2553 1204 2497 
Q 953 2441 691 2322 
L 691 4666 
z
" transform="scale(0.015625)"/>
       </defs>
       <use xlink:href="#DejaVuSans-35"/>
       <use xlink:href="#DejaVuSans-30" x="63.623047"/>
      </g>
     </g>
    </g>
    <g id="xtick_3">
     <g id="line2d_3">
      <g>
       <use xlink:href="#m84130ee314" x="131.219144" y="228.96" style="stroke: #000000; stroke-width: 0.8"/>
      </g>
     </g>
     <g id="text_3">
      <!-- 60 -->
      <g transform="translate(124.856644 243.558437) scale(0.1 -0.1)">
       <defs>
        <path id="DejaVuSans-36" d="M 2113 2584 
Q 1688 2584 1439 2293 
Q 1191 2003 1191 1497 
Q 1191 994 1439 701 
Q 1688 409 2113 409 
Q 2538 409 2786 701 
Q 3034 994 3034 1497 
Q 3034 2003 2786 2293 
Q 2538 2584 2113 2584 
z
M 3366 4563 
L 3366 3988 
Q 3128 4100 2886 4159 
Q 2644 4219 2406 4219 
Q 1781 4219 1451 3797 
Q 1122 3375 1075 2522 
Q 1259 2794 1537 2939 
Q 1816 3084 2150 3084 
Q 2853 3084 3261 2657 
Q 3669 2231 3669 1497 
Q 3669 778 3244 343 
Q 2819 -91 2113 -91 
Q 1303 -91 875 529 
Q 447 1150 447 2328 
Q 447 3434 972 4092 
Q 1497 4750 2381 4750 
Q 2619 4750 2861 4703 
Q 3103 4656 3366 4563 
z
" transform="scale(0.015625)"/>
       </defs>
       <use xlink:href="#DejaVuSans-36"/>
       <use xlink:href="#DejaVuSans-30" x="63.623047"/>
      </g>
     </g>
    </g>
    <g id="xtick_4">
     <g id="line2d_4">
      <g>
       <use xlink:href="#m84130ee314" x="171.914728" y="228.96" style="stroke: #000000; stroke-width: 0.8"/>
      </g>
     </g>
     <g id="text_4">
      <!-- 70 -->
      <g transform="translate(165.552228 243.558437) scale(0.1 -0.1)">
       <defs>
        <path id="DejaVuSans-37" d="M 525 4666 
L 3525 4666 
L 3525 4397 
L 1831 0 
L 1172 0 
L 2766 4134 
L 525 4134 
L 525 4666 
z
" transform="scale(0.015625)"/>
       </defs>
       <use xlink:href="#DejaVuSans-37"/>
       <use xlink:href="#DejaVuSans-30" x="63.623047"/>
      </g>
     </g>
    </g>
    <g id="xtick_5">
     <g id="line2d_5">
      <g>
       <use xlink:href="#m84130ee314" x="212.610311" y="228.96" style="stroke: #000000; stroke-width: 0.8"/>
      </g>
     </g>
     <g id="text_5">
      <!-- 80 -->
      <g transform="translate(206.247811 243.558437) scale(0.1 -0.1)">
       <defs>
        <path id="DejaVuSans-38" d="M 2034 2216 
Q 1584 2216 1326 1975 
Q 1069 1734 1069 1313 
Q 1069 891 1326 650 
Q 1584 409 2034 409 
Q 2484 409 2743 651 
Q 3003 894 3003 1313 
Q 3003 1734 2745 1975 
Q 2488 2216 2034 2216 
z
M 1403 2484 
Q 997 2584 770 2862 
Q 544 3141 544 3541 
Q 544 4100 942 4425 
Q 1341 4750 2034 4750 
Q 2731 4750 3128 4425 
Q 3525 4100 3525 3541 
Q 3525 3141 3298 2862 
Q 3072 2584 2669 2484 
Q 3125 2378 3379 2068 
Q 3634 1759 3634 1313 
Q 3634 634 3220 271 
Q 2806 -91 2034 -91 
Q 1263 -91 848 271 
Q 434 634 434 1313 
Q 434 1759 690 2068 
Q 947 2378 1403 2484 
z
M 1172 3481 
Q 1172 3119 1398 2916 
Q 1625 2713 2034 2713 
Q 2441 2713 2670 2916 
Q 2900 3119 2900 3481 
Q 2900 3844 2670 4047 
Q 2441 4250 2034 4250 
Q 1625 4250 1398 4047 
Q 1172 3844 1172 3481 
z
" transform="scale(0.015625)"/>
       </defs>
       <use xlink:href="#DejaVuSans-38"/>
       <use xlink:href="#DejaVuSans-30" x="63.623047"/>
      </g>
     </g>
    </g>
    <g id="xtick_6">
     <g id="line2d_6">
      <g>
       <use xlink:href="#m84130ee314" x="253.305895" y="228.96" style="stroke: #000000; stroke-width: 0.8"/>
      </g>
     </g>
     <g id="text_6">
      <!-- 90 -->
      <g transform="translate(246.943395 243.558437) scale(0.1 -0.1)">
       <defs>
        <path id="DejaVuSans-39" d="M 703 97 
L 703 672 
Q 941 559 1184 500 
Q 1428 441 1663 441 
Q 2288 441 2617 861 
Q 2947 1281 2994 2138 
Q 2813 1869 2534 1725 
Q 2256 1581 1919 1581 
Q 1219 1581 811 2004 
Q 403 2428 403 3163 
Q 403 3881 828 4315 
Q 1253 4750 1959 4750 
Q 2769 4750 3195 4129 
Q 3622 3509 3622 2328 
Q 3622 1225 3098 567 
Q 2575 -91 1691 -91 
Q 1453 -91 1209 -44 
Q 966 3 703 97 
z
M 1959 2075 
Q 2384 2075 2632 2365 
Q 2881 2656 2881 3163 
Q 2881 3666 2632 3958 
Q 2384 4250 1959 4250 
Q 1534 4250 1286 3958 
Q 1038 3666 1038 3163 
Q 1038 2656 1286 2365 
Q 1534 2075 1959 2075 
z
" transform="scale(0.015625)"/>
       </defs>
       <use xlink:href="#DejaVuSans-39"/>
       <use xlink:href="#DejaVuSans-30" x="63.623047"/>
      </g>
     </g>
    </g>
    <g id="xtick_7">
     <g id="line2d_7">
      <g>
       <use xlink:href="#m84130ee314" x="294.001478" y="228.96" style="stroke: #000000; stroke-width: 0.8"/>
      </g>
     </g>
     <g id="text_7">
      <!-- 100 -->
      <g transform="translate(284.457728 243.558437) scale(0.1 -0.1)">
       <defs>
        <path id="DejaVuSans-31" d="M 794 531 
L 1825 531 
L 1825 4091 
L 703 3866 
L 703 4441 
L 1819 4666 
L 2450 4666 
L 2450 531 
L 3481 531 
L 3481 0 
L 794 0 
L 794 531 
z
" transform="scale(0.015625)"/>
       </defs>
       <use xlink:href="#DejaVuSans-31"/>
       <use xlink:href="#DejaVuSans-30" x="63.623047"/>
       <use xlink:href="#DejaVuSans-30" x="127.246094"/>
      </g>
     </g>
    </g>
    <g id="xtick_8">
     <g id="line2d_8">
      <g>
       <use xlink:href="#m84130ee314" x="334.697062" y="228.96" style="stroke: #000000; stroke-width: 0.8"/>
      </g>
     </g>
     <g id="text_8">
      <!-- 110 -->
      <g transform="translate(325.153312 243.558437) scale(0.1 -0.1)">
       <use xlink:href="#DejaVuSans-31"/>
       <use xlink:href="#DejaVuSans-31" x="63.623047"/>
       <use xlink:href="#DejaVuSans-30" x="127.246094"/>
      </g>
     </g>
    </g>
   </g>
   <g id="matplotlib.axis_2">
    <g id="ytick_1">
     <g id="line2d_9">
      <defs>
       <path id="macf4a79ae1" d="M 0 0 
L -3.5 0 
" style="stroke: #000000; stroke-width: 0.8"/>
      </defs>
      <g>
       <use xlink:href="#macf4a79ae1" x="26.925" y="217.494287" style="stroke: #000000; stroke-width: 0.8"/>
      </g>
     </g>
     <g id="text_9">
      <!-- 45 -->
      <g transform="translate(7.2 221.293506) scale(0.1 -0.1)">
       <use xlink:href="#DejaVuSans-34"/>
       <use xlink:href="#DejaVuSans-35" x="63.623047"/>
      </g>
     </g>
    </g>
    <g id="ytick_2">
     <g id="line2d_10">
      <g>
       <use xlink:href="#macf4a79ae1" x="26.925" y="171.503254" style="stroke: #000000; stroke-width: 0.8"/>
      </g>
     </g>
     <g id="text_10">
      <!-- 46 -->
      <g transform="translate(7.2 175.302473) scale(0.1 -0.1)">
       <use xlink:href="#DejaVuSans-34"/>
       <use xlink:href="#DejaVuSans-36" x="63.623047"/>
      </g>
     </g>
    </g>
    <g id="ytick_3">
     <g id="line2d_11">
      <g>
       <use xlink:href="#macf4a79ae1" x="26.925" y="125.512221" style="stroke: #000000; stroke-width: 0.8"/>
      </g>
     </g>
     <g id="text_11">
      <!-- 47 -->
      <g transform="translate(7.2 129.31144) scale(0.1 -0.1)">
       <use xlink:href="#DejaVuSans-34"/>
       <use xlink:href="#DejaVuSans-37" x="63.623047"/>
      </g>
     </g>
    </g>
    <g id="ytick_4">
     <g id="line2d_12">
      <g>
       <use xlink:href="#macf4a79ae1" x="26.925" y="79.521188" style="stroke: #000000; stroke-width: 0.8"/>
      </g>
     </g>
     <g id="text_12">
      <!-- 48 -->
      <g transform="translate(7.2 83.320407) scale(0.1 -0.1)">
       <use xlink:href="#DejaVuSans-34"/>
       <use xlink:href="#DejaVuSans-38" x="63.623047"/>
      </g>
     </g>
    </g>
    <g id="ytick_5">
     <g id="line2d_13">
      <g>
       <use xlink:href="#macf4a79ae1" x="26.925" y="33.530156" style="stroke: #000000; stroke-width: 0.8"/>
      </g>
     </g>
     <g id="text_13">
      <!-- 49 -->
      <g transform="translate(7.2 37.329374) scale(0.1 -0.1)">
       <use xlink:href="#DejaVuSans-34"/>
       <use xlink:href="#DejaVuSans-39" x="63.623047"/>
      </g>
     </g>
    </g>
   </g>
   <g id="line2d_14">
    <path d="M 42.143182 17.28 
L 46.378232 17.28 
L 46.986838 18.970214 
L 47.60437 18.970214 
L 48.029232 21.114357 
L 49.982489 21.114357 
L 50.380969 23.817669 
L 50.703635 23.817669 
L 51.02415 25.83191 
L 51.701776 25.83191 
L 52.035435 22.857605 
L 52.348893 25.83191 
L 52.689803 22.857605 
L 53.345825 22.857605 
L 53.690529 26.073206 
L 54.006901 25.113142 
L 54.325526 26.0774 
L 57.640767 26.061996 
L 58.013511 28.076237 
L 61.086483 28.076237 
L 61.438317 29.181991 
L 61.855666 28.076237 
L 62.221898 28.076237 
L 62.574822 29.181991 
L 62.942992 28.076237 
L 64.953862 28.076237 
L 65.286902 31.676322 
L 65.587367 31.676322 
L 65.9565 29.166586 
L 66.283102 29.166586 
L 66.602277 28.076237 
L 66.912723 31.676322 
L 67.216923 28.076237 
L 67.514009 28.076237 
L 67.847981 32.766672 
L 68.472683 32.766672 
L 68.816361 33.511544 
L 69.123918 33.511544 
L 69.721533 36.180104 
L 70.005555 36.180104 
L 70.307651 37.144362 
L 70.591038 37.144362 
L 70.878598 39.784383 
L 71.489686 39.784383 
L 71.795648 40.147626 
L 76.040503 40.147626 
L 76.333625 44.772697 
L 76.62319 44.772697 
L 76.93174 45.13594 
L 77.862432 45.13594 
L 78.181134 46.103523 
L 78.514188 45.13594 
L 81.032088 45.13594 
L 81.350011 46.422164 
L 81.979095 46.422164 
L 82.289838 45.13594 
L 82.60951 46.466765 
L 83.90897 46.466765 
L 84.217246 47.75299 
L 84.53446 47.75299 
L 84.855296 53.510967 
L 85.162592 54.797191 
L 85.492003 54.797191 
L 85.797204 54.243614 
L 86.750038 54.243614 
L 87.070206 53.700356 
L 87.385361 53.909754 
L 88.030683 53.909754 
L 88.355743 53.700356 
L 88.677076 53.700356 
L 89.001883 53.909754 
L 89.611292 53.909754 
L 89.913814 59.318277 
L 90.238976 58.775019 
L 90.860557 52.812918 
L 91.479203 52.812918 
L 91.790552 54.171831 
L 92.106142 57.721943 
L 92.411758 59.127942 
L 92.72045 54.922016 
L 93.020494 60.693782 
L 93.94586 60.693782 
L 94.284621 60.508513 
L 94.893558 60.621998 
L 96.799894 60.621998 
L 97.101378 60.979988 
L 97.423049 60.979988 
L 97.74384 60.621998 
L 98.074203 66.057647 
L 98.403092 66.057647 
L 98.697793 66.712788 
L 99.007278 60.621998 
L 99.298778 61.206704 
L 100.190816 61.206704 
L 100.481199 60.621998 
L 100.794551 66.057647 
L 101.408596 66.057647 
L 101.722684 65.28344 
L 102.048374 68.10006 
L 102.968151 68.10006 
L 103.23894 70.668771 
L 103.81311 70.668771 
L 104.129411 71.253476 
L 104.415544 73.675526 
L 105.332505 73.675526 
L 105.649933 70.036506 
L 105.931689 70.036506 
L 106.208444 71.776816 
L 106.536316 72.361522 
L 107.154673 75.074272 
L 108.040872 75.074272 
L 108.356577 76.814582 
L 108.654077 76.814582 
L 108.980411 77.399287 
L 109.262069 77.399287 
L 109.576333 79.821337 
L 109.876776 77.399287 
L 110.81094 77.399287 
L 111.109466 79.821337 
L 111.403716 79.821337 
L 111.725544 80.406043 
L 112.007406 81.863751 
L 112.311968 78.212402 
L 112.63011 78.081027 
L 112.94712 79.821337 
L 113.539977 79.821337 
L 113.761068 80.179327 
L 114.067323 79.821337 
L 114.352151 79.821337 
L 114.913033 80.764033 
L 115.498907 80.764033 
L 115.788677 79.768548 
L 116.110213 81.166368 
L 116.414623 79.768548 
L 117.059637 79.768548 
L 117.354724 79.478847 
L 117.654419 79.836837 
L 117.957772 78.016839 
L 118.847971 78.016839 
L 119.165026 81.577147 
L 119.475151 81.577147 
L 119.782232 81.826461 
L 120.088242 80.560015 
L 120.733985 80.560015 
L 121.03885 82.458725 
L 121.276232 82.801216 
L 121.585833 84.199035 
L 122.216307 84.199035 
L 122.510917 85.430082 
L 122.790035 84.199035 
L 123.085521 85.430082 
L 123.375375 85.430082 
L 123.660143 88.783645 
L 123.967094 88.783645 
L 124.264586 85.430082 
L 124.583135 88.744737 
L 124.873368 85.430082 
L 125.457719 93.094972 
L 125.765382 89.563082 
L 126.07329 88.576717 
L 126.698523 94.213446 
L 127.019571 94.213446 
L 127.324291 93.429766 
L 127.626147 94.660812 
L 127.917051 94.660812 
L 128.227266 95.059734 
L 128.542562 95.059734 
L 128.845001 96.780568 
L 129.137003 96.780568 
L 129.432033 92.927321 
L 129.731891 93.661915 
L 130.329392 93.661915 
L 130.624854 94.445595 
L 130.95793 95.843415 
L 131.243785 93.899644 
L 132.711757 93.868836 
L 133.004003 95.620478 
L 133.309786 93.868836 
L 133.931911 93.868836 
L 134.23034 94.453542 
L 134.520878 93.868836 
L 135.148 95.620478 
L 135.428727 95.620478 
L 135.733184 96.967047 
L 136.043954 96.278326 
L 136.951759 96.278326 
L 137.265344 98.151816 
L 137.580767 96.309135 
L 137.923863 97.99916 
L 138.225357 100.654561 
L 138.527322 97.799428 
L 138.839364 96.997122 
L 139.135566 100.654561 
L 139.442374 97.99916 
L 139.754969 99.369863 
L 140.044115 99.369863 
L 140.662212 102.056073 
L 140.971148 102.025265 
L 141.283845 98.72524 
L 141.606719 98.72524 
L 141.905723 102.514594 
L 142.216005 98.694432 
L 142.515253 100.283627 
L 142.818736 100.283627 
L 143.141595 100.095944 
L 144.681728 100.095944 
L 145.003596 104.251589 
L 145.332682 100.065135 
L 145.678378 100.755605 
L 146.009351 100.283627 
L 146.337122 101.999423 
L 146.625637 101.999423 
L 146.947848 102.657511 
L 147.256337 102.911694 
L 147.584355 104.282398 
L 147.90717 102.880886 
L 148.862202 102.880886 
L 149.196759 103.16124 
L 149.514442 102.662394 
L 150.160895 103.16124 
L 150.508667 106.015608 
L 151.526085 106.015608 
L 151.907265 107.386312 
L 152.542767 107.386312 
L 152.835438 107.85652 
L 153.136568 107.386312 
L 153.481691 107.386312 
L 153.782061 107.887329 
L 154.116525 107.887329 
L 154.40492 106.578488 
L 154.69858 107.976308 
L 155.010135 110.75868 
L 155.614527 110.75868 
L 155.896942 112.1565 
L 156.208158 112.601362 
L 157.145673 112.601362 
L 157.466436 112.021886 
L 157.77378 112.021886 
L 158.101751 112.601362 
L 159.088033 112.601362 
L 159.384655 112.021886 
L 160.958793 112.021886 
L 161.257542 112.601362 
L 161.558328 112.601362 
L 161.870194 111.998166 
L 162.170838 114.832328 
L 162.47334 115.783841 
L 162.805274 114.832328 
L 163.12613 114.832328 
L 163.416125 114.245269 
L 163.721774 114.245269 
L 164.01298 114.832328 
L 164.322266 115.922678 
L 164.636701 115.922678 
L 164.950265 114.245269 
L 165.874794 114.229132 
L 166.178432 115.180645 
L 166.493591 115.015984 
L 167.081281 115.015984 
L 167.387039 114.593585 
L 167.691938 114.412788 
L 168.315817 115.757722 
L 168.646494 115.757722 
L 168.964394 114.221073 
L 169.911361 114.221073 
L 170.208442 114.991788 
L 171.134878 114.991788 
L 171.433535 111.594398 
L 171.741653 111.594398 
L 172.07919 113.830501 
L 172.40364 113.830501 
L 172.714509 114.782013 
L 173.33701 114.782013 
L 173.649715 114.388592 
L 173.979626 114.782013 
L 174.90831 114.782013 
L 175.223596 113.617877 
L 175.547187 115.178184 
L 175.865658 114.782013 
L 176.184142 114.178817 
L 177.150804 114.178817 
L 177.483429 114.782013 
L 177.827031 114.782013 
L 178.143834 121.700748 
L 179.103187 121.700748 
L 179.410439 122.096919 
L 179.734107 121.097552 
L 180.052879 121.097552 
L 180.372157 122.096919 
L 180.680028 122.096919 
L 180.997264 121.097552 
L 181.309258 121.700748 
L 183.236312 121.76777 
L 183.562084 119.476787 
L 183.894953 121.76777 
L 184.877972 121.76777 
L 185.210675 121.163832 
L 185.548505 121.699949 
L 185.849559 121.163832 
L 186.168644 120.326837 
L 186.506263 120.326837 
L 186.813222 120.944123 
L 187.167925 122.236865 
L 187.484992 122.236865 
L 187.810923 122.549789 
L 188.137444 120.459368 
L 188.457038 122.236865 
L 188.785818 122.236865 
L 189.089765 122.94596 
L 189.409637 120.326837 
L 189.718476 120.326837 
L 190.036182 120.855539 
L 191.034049 120.855539 
L 191.341432 120.459368 
L 191.672434 122.236865 
L 192.004317 122.236865 
L 192.326354 121.163832 
L 192.643845 121.163832 
L 192.970362 121.83405 
L 193.294226 121.700748 
L 193.617996 122.882822 
L 193.936675 123.061645 
L 194.257835 125.867628 
L 194.567472 125.867628 
L 195.187795 123.220007 
L 195.513758 122.683091 
L 195.847067 122.683091 
L 196.182249 121.591189 
L 196.522203 121.591189 
L 196.860013 123.751087 
L 197.174473 123.756124 
L 197.480377 125.336548 
L 197.797469 126.185589 
L 198.803959 126.185589 
L 199.112587 125.515371 
L 199.754861 127.098748 
L 200.076213 125.648673 
L 200.407113 125.629805 
L 200.733447 131.653414 
L 201.079291 125.629805 
L 201.389216 124.919505 
L 201.710601 125.629805 
L 202.00864 125.629805 
L 202.335445 124.383387 
L 202.635702 127.386968 
L 203.269914 127.392005 
L 203.909592 134.954149 
L 204.21891 134.081986 
L 205.494985 134.101211 
L 205.807649 132.32875 
L 206.108716 134.101211 
L 206.405178 134.101211 
L 206.71276 135.700171 
L 207.043819 136.26892 
L 207.369131 136.26892 
L 207.679174 134.625087 
L 208.324928 134.613067 
L 208.643724 136.26892 
L 208.97309 135.136943 
L 209.272825 135.136943 
L 209.585448 136.780776 
L 209.921403 136.780776 
L 210.232647 134.568194 
L 210.861508 133.563836 
L 211.169455 134.613587 
L 211.487316 136.824392 
L 211.806602 135.104831 
L 212.408103 135.149704 
L 212.72672 135.699893 
L 213.055809 137.595767 
L 213.999227 137.595767 
L 214.31749 137.317414 
L 214.632596 136.052664 
L 214.954962 135.996807 
L 215.269641 136.780498 
L 216.487248 136.780498 
L 216.795181 136.554319 
L 217.066721 136.880319 
L 217.347866 136.554319 
L 217.647866 137.839315 
L 217.98251 138.150209 
L 218.300689 138.150209 
L 218.645136 135.707659 
L 218.960665 138.331816 
L 219.277631 139.715835 
L 219.59723 136.151067 
L 219.921017 139.422166 
L 220.222286 138.331816 
L 220.545425 137.7949 
L 220.868454 139.178919 
L 221.482376 139.063822 
L 221.802007 143.46232 
L 222.121191 140.358929 
L 222.44238 140.239711 
L 222.73676 139.063822 
L 223.066297 139.178919 
L 223.345464 138.9429 
L 223.623383 139.715835 
L 223.945927 139.715835 
L 224.264326 139.184754 
L 224.54412 139.715835 
L 224.850179 139.184754 
L 225.164345 141.701937 
L 225.474624 139.499058 
L 225.789592 138.726124 
L 226.388236 138.726124 
L 226.668539 139.647152 
L 226.981264 138.726124 
L 227.311652 138.726124 
L 227.598666 138.195044 
L 228.523065 138.195044 
L 228.832421 138.726124 
L 229.156069 143.168238 
L 229.437784 138.129475 
L 229.744401 141.68973 
L 230.047787 140.021231 
L 230.342305 140.641294 
L 230.664584 142.994518 
L 231.561865 142.994518 
L 231.881342 142.637158 
L 232.208266 142.861926 
L 232.493811 141.68973 
L 232.800627 141.68973 
L 233.108883 143.402427 
L 233.74124 143.402427 
L 234.056745 146.619308 
L 234.363313 143.10378 
L 234.658568 142.840873 
L 234.951226 142.840873 
L 235.287664 147.800925 
L 235.59181 147.800925 
L 235.902318 149.239389 
L 236.223377 149.239389 
L 236.548662 148.379244 
L 237.16399 148.852969 
L 237.482006 147.835006 
L 237.795746 150.751272 
L 238.103867 148.633534 
L 238.398663 145.795101 
L 238.722709 148.633534 
L 239.034881 149.180565 
L 239.348786 150.132078 
L 239.659965 148.057772 
L 239.956575 150.534496 
L 240.255207 149.352879 
L 240.615001 149.352879 
L 240.957076 150.534496 
L 241.287825 150.534496 
L 241.629436 153.294307 
L 242.25601 153.294307 
L 242.565512 148.698887 
L 242.874997 151.175612 
L 243.169646 148.698887 
L 243.482099 149.352879 
L 243.799951 148.815963 
L 244.112603 148.815963 
L 244.410763 152.11269 
L 244.726358 149.993995 
L 245.032617 149.993995 
L 245.324343 150.534496 
L 245.67894 147.993967 
L 246.022089 152.868541 
L 246.328295 151.51604 
L 246.640144 152.697657 
L 246.947625 151.252545 
L 247.254412 151.252545 
L 247.553351 154.067241 
L 247.870328 155.628352 
L 248.787399 155.628352 
L 249.092693 149.674351 
L 249.723137 149.674351 
L 250.028854 148.69587 
L 250.346914 149.088373 
L 250.665219 152.984466 
L 251.266952 149.088373 
L 251.600864 149.088373 
L 251.882472 150.65994 
L 252.197937 150.063291 
L 252.494615 149.088373 
L 253.111561 153.59497 
L 253.41611 152.604036 
L 253.72114 152.171413 
L 254.027732 158.247653 
L 254.348296 157.387509 
L 255.6155 157.387509 
L 255.925901 156.790859 
L 256.230417 155.072326 
L 256.538923 160.903171 
L 257.740154 160.903171 
L 258.042116 160.67907 
L 259.023754 160.67907 
L 259.316706 160.366255 
L 259.632898 159.769606 
L 259.955699 160.366255 
L 260.277146 163.164443 
L 260.899995 163.164443 
L 261.192788 160.67907 
L 261.474992 164.082156 
L 261.778731 164.082156 
L 262.089047 159.46014 
L 262.305894 161.031707 
L 262.909392 161.031707 
L 263.226668 162.726047 
L 264.482652 162.726047 
L 264.792886 161.89408 
L 265.415056 161.89408 
L 265.722028 163.535044 
L 266.047894 164.547369 
L 266.356072 162.713007 
L 267.556645 162.713007 
L 267.886577 164.010453 
L 269.297855 164.010453 
L 269.602779 164.795003 
L 269.912374 164.795003 
L 270.18357 164.010453 
L 270.500027 165.071245 
L 270.799249 163.249923 
L 271.390222 163.249923 
L 271.687788 165.071245 
L 271.984423 165.071245 
L 272.29659 167.040099 
L 272.927478 167.040099 
L 273.220022 163.391866 
L 273.489916 167.040099 
L 273.798327 168.846879 
L 274.1132 168.846879 
L 274.391375 170.003764 
L 274.683651 164.239279 
L 274.997829 170.003764 
L 275.925419 170.003764 
L 276.228288 171.361366 
L 276.520226 171.361366 
L 276.832495 171.912767 
L 277.429614 170.428053 
L 277.736992 169.171798 
L 278.350592 171.838023 
L 278.633897 170.003764 
L 279.596413 170.003764 
L 279.921433 170.963132 
L 280.21517 170.131166 
L 280.502634 170.131166 
L 280.815942 168.656614 
L 281.749649 168.656614 
L 282.051444 171.476303 
L 282.684264 169.24575 
L 283.060312 170.490872 
L 283.401201 172.432248 
L 284.058029 172.432248 
L 284.387923 173.459058 
L 285.061024 173.459058 
L 285.405264 184.568877 
L 285.749036 186.403136 
L 286.118964 187.008131 
L 286.48555 187.964075 
L 286.855073 187.008131 
L 287.227478 187.008131 
L 287.590531 187.543735 
L 287.908933 187.487419 
L 288.291619 187.008131 
L 288.599306 187.008131 
L 288.893979 189.448859 
L 289.228619 189.448859 
L 289.556681 187.526402 
L 289.879309 187.526402 
L 290.22201 188.890249 
L 290.582691 189.28758 
L 290.908996 188.378706 
L 291.941659 188.378706 
L 292.317116 187.674897 
L 292.697079 189.113075 
L 293.099636 189.113075 
L 293.445576 189.920363 
L 293.764898 195.557877 
L 294.163198 189.920363 
L 294.531375 189.920363 
L 294.855333 189.743714 
L 295.220551 189.920363 
L 296.644514 189.923787 
L 296.976887 194.937814 
L 297.29973 189.619265 
L 297.629664 192.294318 
L 297.955212 192.845451 
L 298.335179 183.121115 
L 298.71491 185.457194 
L 299.080198 189.692673 
L 299.445893 189.793107 
L 300.149209 191.719199 
L 300.542715 191.719199 
L 300.923918 190.929948 
L 301.254538 192.343174 
L 301.609534 192.343174 
L 302.268273 196.847764 
L 302.614466 194.937472 
L 302.93 189.88888 
L 303.630001 189.88888 
L 303.963663 193.371042 
L 304.311611 194.916122 
L 305.303843 194.916122 
L 305.604216 193.204018 
L 305.93652 194.412603 
L 307.284444 194.412603 
L 307.613064 194.888012 
L 307.894176 194.888012 
L 308.286446 186.876175 
L 308.724542 188.58828 
L 309.139661 186.876175 
L 309.870578 186.876175 
L 310.221614 188.58828 
L 310.551879 195.957683 
L 310.880475 198.491631 
L 311.195586 198.491631 
L 311.514603 192.503892 
L 311.885311 192.503892 
L 312.223279 193.780875 
L 312.934666 193.861494 
L 313.254587 193.780875 
L 313.568395 196.566825 
L 313.901284 192.693273 
L 314.220224 194.414184 
L 314.529099 197.30285 
L 314.856621 197.30285 
L 315.166234 195.854868 
L 315.462904 196.254948 
L 316.435106 196.254948 
L 316.74801 201.02171 
L 317.068279 201.02171 
L 317.40747 197.073394 
L 317.699233 197.073394 
L 318.003416 198.350377 
L 318.322844 201.594865 
L 318.63742 198.618475 
L 319.260527 202.681408 
L 319.577977 200.317882 
L 319.932781 202.681408 
L 320.255554 202.681408 
L 320.575991 199.895458 
L 320.900811 199.499287 
L 321.198922 201.409579 
L 324.139915 201.409579 
L 324.456844 200.321977 
L 324.792029 200.321977 
L 325.109244 204.619751 
L 325.440001 200.321977 
L 325.75833 201.578232 
L 326.076484 200.321977 
L 326.370387 205.269462 
L 326.690182 205.269462 
L 326.994799 204.38491 
L 327.325003 205.641165 
L 327.633391 205.511162 
L 329.243255 205.511162 
L 329.53943 208.030463 
L 329.861856 205.511162 
L 330.190147 205.37812 
L 330.487465 205.511162 
L 330.818297 205.37812 
L 331.169144 206.768742 
L 331.48605 209.070737 
L 331.815522 205.37812 
L 332.435636 205.37812 
L 332.697386 205.93244 
L 333.000731 205.93244 
L 333.308719 206.635699 
L 333.599828 210.618267 
L 334.239228 210.618267 
L 334.562343 211.875847 
L 335.201443 211.875847 
L 335.959272 215.116327 
L 336.561411 215.116327 
L 336.864443 216.358834 
L 337.21204 217.19063 
L 337.519349 214.530902 
L 337.827683 214.530902 
L 338.124207 216.373907 
L 338.962488 216.373907 
L 339.395241 218.6441 
L 339.800792 216.373907 
L 340.32762 218.479005 
L 340.663173 218.479005 
L 340.965654 216.373907 
L 341.838274 216.373907 
L 342.168229 217.009888 
L 342.470411 215.973826 
L 342.764917 215.973826 
L 343.073405 217.38652 
L 343.393651 215.973826 
L 343.710653 216.373907 
L 344.016407 215.788482 
L 344.330239 215.788482 
L 344.661021 217.38652 
L 345.265465 217.38652 
L 345.858982 215.973826 
L 346.176126 218.022501 
L 346.506818 218.88 
L 346.506818 218.88 
" clip-path="url(#p4a44c40ff0)" style="fill: none; stroke: #1f77b4; stroke-width: 1.5; stroke-linecap: square"/>
   </g>
   <g id="patch_3">
    <path d="M 26.925 228.96 
L 26.925 7.2 
" style="fill: none; stroke: #000000; stroke-width: 0.8; stroke-linejoin: miter; stroke-linecap: square"/>
   </g>
   <g id="patch_4">
    <path d="M 361.725 228.96 
L 361.725 7.2 
" style="fill: none; stroke: #000000; stroke-width: 0.8; stroke-linejoin: miter; stroke-linecap: square"/>
   </g>
   <g id="patch_5">
    <path d="M 26.925 228.96 
L 361.725 228.96 
" style="fill: none; stroke: #000000; stroke-width: 0.8; stroke-linejoin: miter; stroke-linecap: square"/>
   </g>
   <g id="patch_6">
    <path d="M 26.925 7.2 
L 361.725 7.2 
" style="fill: none; stroke: #000000; stroke-width: 0.8; stroke-linejoin: miter; stroke-linecap: square"/>
   </g>
  </g>
 </g>
 <defs>
  <clipPath id="p4a44c40ff0">
   <rect x="26.925" y="7.2" width="334.8" height="221.76"/>
  </clipPath>
 </defs>
</svg>
