<?xml version="1.0" encoding="utf-8" standalone="no"?>
<!DOCTYPE svg PUBLIC "-//W3C//DTD SVG 1.1//EN"
  "http://www.w3.org/Graphics/SVG/1.1/DTD/svg11.dtd">
<svg xmlns:xlink="http://www.w3.org/1999/xlink" width="368.925pt" height="252.838125pt" viewBox="0 0 368.925 252.838125" xmlns="http://www.w3.org/2000/svg" version="1.1">
 <metadata>
  <rdf:RDF xmlns:dc="http://purl.org/dc/elements/1.1/" xmlns:cc="http://creativecommons.org/ns#" xmlns:rdf="http://www.w3.org/1999/02/22-rdf-syntax-ns#">
   <cc:Work>
    <dc:type rdf:resource="http://purl.org/dc/dcmitype/StillImage"/>
    <dc:date>2023-04-19T15:40:43.551106</dc:date>
    <dc:format>image/svg+xml</dc:format>
    <dc:creator>
     <cc:Agent>
      <dc:title>Matplotlib v3.6.2, https://matplotlib.org/</dc:title>
     </cc:Agent>
    </dc:creator>
   </cc:Work>
  </rdf:RDF>
 </metadata>
 <defs>
  <style type="text/css">*{stroke-linejoin: round; stroke-linecap: butt}</style>
 </defs>
 <g id="figure_1">
  <g id="patch_1">
   <path d="M -0 252.838125 
L 368.925 252.838125 
L 368.925 0 
L -0 0 
z
" style="fill: #ffffff"/>
  </g>
  <g id="axes_1">
   <g id="patch_2">
    <path d="M 26.925 228.96 
L 361.725 228.96 
L 361.725 7.2 
L 26.925 7.2 
z
" style="fill: #ffffff"/>
   </g>
   <g id="matplotlib.axis_1">
    <g id="xtick_1">
     <g id="line2d_1">
      <defs>
       <path id="m94d81a1b24" d="M 0 0 
L 0 3.5 
" style="stroke: #000000; stroke-width: 0.8"/>
      </defs>
      <g>
       <use xlink:href="#m94d81a1b24" x="30.820585" y="228.96" style="stroke: #000000; stroke-width: 0.8"/>
      </g>
     </g>
     <g id="text_1">
      <!-- 0 -->
      <g transform="translate(27.639335 243.558437) scale(0.1 -0.1)">
       <defs>
        <path id="DejaVuSans-30" d="M 2034 4250 
Q 1547 4250 1301 3770 
Q 1056 3291 1056 2328 
Q 1056 1369 1301 889 
Q 1547 409 2034 409 
Q 2525 409 2770 889 
Q 3016 1369 3016 2328 
Q 3016 3291 2770 3770 
Q 2525 4250 2034 4250 
z
M 2034 4750 
Q 2819 4750 3233 4129 
Q 3647 3509 3647 2328 
Q 3647 1150 3233 529 
Q 2819 -91 2034 -91 
Q 1250 -91 836 529 
Q 422 1150 422 2328 
Q 422 3509 836 4129 
Q 1250 4750 2034 4750 
z
" transform="scale(0.015625)"/>
       </defs>
       <use xlink:href="#DejaVuSans-30"/>
      </g>
     </g>
    </g>
    <g id="xtick_2">
     <g id="line2d_2">
      <g>
       <use xlink:href="#m94d81a1b24" x="75.554175" y="228.96" style="stroke: #000000; stroke-width: 0.8"/>
      </g>
     </g>
     <g id="text_2">
      <!-- 5 -->
      <g transform="translate(72.372925 243.558437) scale(0.1 -0.1)">
       <defs>
        <path id="DejaVuSans-35" d="M 691 4666 
L 3169 4666 
L 3169 4134 
L 1269 4134 
L 1269 2991 
Q 1406 3038 1543 3061 
Q 1681 3084 1819 3084 
Q 2600 3084 3056 2656 
Q 3513 2228 3513 1497 
Q 3513 744 3044 326 
Q 2575 -91 1722 -91 
Q 1428 -91 1123 -41 
Q 819 9 494 109 
L 494 744 
Q 775 591 1075 516 
Q 1375 441 1709 441 
Q 2250 441 2565 725 
Q 2881 1009 2881 1497 
Q 2881 1984 2565 2268 
Q 2250 2553 1709 2553 
Q 1456 2553 1204 2497 
Q 953 2441 691 2322 
L 691 4666 
z
" transform="scale(0.015625)"/>
       </defs>
       <use xlink:href="#DejaVuSans-35"/>
      </g>
     </g>
    </g>
    <g id="xtick_3">
     <g id="line2d_3">
      <g>
       <use xlink:href="#m94d81a1b24" x="120.287765" y="228.96" style="stroke: #000000; stroke-width: 0.8"/>
      </g>
     </g>
     <g id="text_3">
      <!-- 10 -->
      <g transform="translate(113.925265 243.558437) scale(0.1 -0.1)">
       <defs>
        <path id="DejaVuSans-31" d="M 794 531 
L 1825 531 
L 1825 4091 
L 703 3866 
L 703 4441 
L 1819 4666 
L 2450 4666 
L 2450 531 
L 3481 531 
L 3481 0 
L 794 0 
L 794 531 
z
" transform="scale(0.015625)"/>
       </defs>
       <use xlink:href="#DejaVuSans-31"/>
       <use xlink:href="#DejaVuSans-30" x="63.623047"/>
      </g>
     </g>
    </g>
    <g id="xtick_4">
     <g id="line2d_4">
      <g>
       <use xlink:href="#m94d81a1b24" x="165.021356" y="228.96" style="stroke: #000000; stroke-width: 0.8"/>
      </g>
     </g>
     <g id="text_4">
      <!-- 15 -->
      <g transform="translate(158.658856 243.558437) scale(0.1 -0.1)">
       <use xlink:href="#DejaVuSans-31"/>
       <use xlink:href="#DejaVuSans-35" x="63.623047"/>
      </g>
     </g>
    </g>
    <g id="xtick_5">
     <g id="line2d_5">
      <g>
       <use xlink:href="#m94d81a1b24" x="209.754946" y="228.96" style="stroke: #000000; stroke-width: 0.8"/>
      </g>
     </g>
     <g id="text_5">
      <!-- 20 -->
      <g transform="translate(203.392446 243.558437) scale(0.1 -0.1)">
       <defs>
        <path id="DejaVuSans-32" d="M 1228 531 
L 3431 531 
L 3431 0 
L 469 0 
L 469 531 
Q 828 903 1448 1529 
Q 2069 2156 2228 2338 
Q 2531 2678 2651 2914 
Q 2772 3150 2772 3378 
Q 2772 3750 2511 3984 
Q 2250 4219 1831 4219 
Q 1534 4219 1204 4116 
Q 875 4013 500 3803 
L 500 4441 
Q 881 4594 1212 4672 
Q 1544 4750 1819 4750 
Q 2544 4750 2975 4387 
Q 3406 4025 3406 3419 
Q 3406 3131 3298 2873 
Q 3191 2616 2906 2266 
Q 2828 2175 2409 1742 
Q 1991 1309 1228 531 
z
" transform="scale(0.015625)"/>
       </defs>
       <use xlink:href="#DejaVuSans-32"/>
       <use xlink:href="#DejaVuSans-30" x="63.623047"/>
      </g>
     </g>
    </g>
    <g id="xtick_6">
     <g id="line2d_6">
      <g>
       <use xlink:href="#m94d81a1b24" x="254.488536" y="228.96" style="stroke: #000000; stroke-width: 0.8"/>
      </g>
     </g>
     <g id="text_6">
      <!-- 25 -->
      <g transform="translate(248.126036 243.558437) scale(0.1 -0.1)">
       <use xlink:href="#DejaVuSans-32"/>
       <use xlink:href="#DejaVuSans-35" x="63.623047"/>
      </g>
     </g>
    </g>
    <g id="xtick_7">
     <g id="line2d_7">
      <g>
       <use xlink:href="#m94d81a1b24" x="299.222126" y="228.96" style="stroke: #000000; stroke-width: 0.8"/>
      </g>
     </g>
     <g id="text_7">
      <!-- 30 -->
      <g transform="translate(292.859626 243.558437) scale(0.1 -0.1)">
       <defs>
        <path id="DejaVuSans-33" d="M 2597 2516 
Q 3050 2419 3304 2112 
Q 3559 1806 3559 1356 
Q 3559 666 3084 287 
Q 2609 -91 1734 -91 
Q 1441 -91 1130 -33 
Q 819 25 488 141 
L 488 750 
Q 750 597 1062 519 
Q 1375 441 1716 441 
Q 2309 441 2620 675 
Q 2931 909 2931 1356 
Q 2931 1769 2642 2001 
Q 2353 2234 1838 2234 
L 1294 2234 
L 1294 2753 
L 1863 2753 
Q 2328 2753 2575 2939 
Q 2822 3125 2822 3475 
Q 2822 3834 2567 4026 
Q 2313 4219 1838 4219 
Q 1578 4219 1281 4162 
Q 984 4106 628 3988 
L 628 4550 
Q 988 4650 1302 4700 
Q 1616 4750 1894 4750 
Q 2613 4750 3031 4423 
Q 3450 4097 3450 3541 
Q 3450 3153 3228 2886 
Q 3006 2619 2597 2516 
z
" transform="scale(0.015625)"/>
       </defs>
       <use xlink:href="#DejaVuSans-33"/>
       <use xlink:href="#DejaVuSans-30" x="63.623047"/>
      </g>
     </g>
    </g>
    <g id="xtick_8">
     <g id="line2d_8">
      <g>
       <use xlink:href="#m94d81a1b24" x="343.955717" y="228.96" style="stroke: #000000; stroke-width: 0.8"/>
      </g>
     </g>
     <g id="text_8">
      <!-- 35 -->
      <g transform="translate(337.593217 243.558437) scale(0.1 -0.1)">
       <use xlink:href="#DejaVuSans-33"/>
       <use xlink:href="#DejaVuSans-35" x="63.623047"/>
      </g>
     </g>
    </g>
   </g>
   <g id="matplotlib.axis_2">
    <g id="ytick_1">
     <g id="line2d_9">
      <defs>
       <path id="m8e07a77467" d="M 0 0 
L -3.5 0 
" style="stroke: #000000; stroke-width: 0.8"/>
      </defs>
      <g>
       <use xlink:href="#m8e07a77467" x="26.925" y="189.035588" style="stroke: #000000; stroke-width: 0.8"/>
      </g>
     </g>
     <g id="text_9">
      <!-- 70 -->
      <g transform="translate(7.2 192.834807) scale(0.1 -0.1)">
       <defs>
        <path id="DejaVuSans-37" d="M 525 4666 
L 3525 4666 
L 3525 4397 
L 1831 0 
L 1172 0 
L 2766 4134 
L 525 4134 
L 525 4666 
z
" transform="scale(0.015625)"/>
       </defs>
       <use xlink:href="#DejaVuSans-37"/>
       <use xlink:href="#DejaVuSans-30" x="63.623047"/>
      </g>
     </g>
    </g>
    <g id="ytick_2">
     <g id="line2d_10">
      <g>
       <use xlink:href="#m8e07a77467" x="26.925" y="140.569627" style="stroke: #000000; stroke-width: 0.8"/>
      </g>
     </g>
     <g id="text_10">
      <!-- 75 -->
      <g transform="translate(7.2 144.368846) scale(0.1 -0.1)">
       <use xlink:href="#DejaVuSans-37"/>
       <use xlink:href="#DejaVuSans-35" x="63.623047"/>
      </g>
     </g>
    </g>
    <g id="ytick_3">
     <g id="line2d_11">
      <g>
       <use xlink:href="#m8e07a77467" x="26.925" y="92.103667" style="stroke: #000000; stroke-width: 0.8"/>
      </g>
     </g>
     <g id="text_11">
      <!-- 80 -->
      <g transform="translate(7.2 95.902885) scale(0.1 -0.1)">
       <defs>
        <path id="DejaVuSans-38" d="M 2034 2216 
Q 1584 2216 1326 1975 
Q 1069 1734 1069 1313 
Q 1069 891 1326 650 
Q 1584 409 2034 409 
Q 2484 409 2743 651 
Q 3003 894 3003 1313 
Q 3003 1734 2745 1975 
Q 2488 2216 2034 2216 
z
M 1403 2484 
Q 997 2584 770 2862 
Q 544 3141 544 3541 
Q 544 4100 942 4425 
Q 1341 4750 2034 4750 
Q 2731 4750 3128 4425 
Q 3525 4100 3525 3541 
Q 3525 3141 3298 2862 
Q 3072 2584 2669 2484 
Q 3125 2378 3379 2068 
Q 3634 1759 3634 1313 
Q 3634 634 3220 271 
Q 2806 -91 2034 -91 
Q 1263 -91 848 271 
Q 434 634 434 1313 
Q 434 1759 690 2068 
Q 947 2378 1403 2484 
z
M 1172 3481 
Q 1172 3119 1398 2916 
Q 1625 2713 2034 2713 
Q 2441 2713 2670 2916 
Q 2900 3119 2900 3481 
Q 2900 3844 2670 4047 
Q 2441 4250 2034 4250 
Q 1625 4250 1398 4047 
Q 1172 3844 1172 3481 
z
" transform="scale(0.015625)"/>
       </defs>
       <use xlink:href="#DejaVuSans-38"/>
       <use xlink:href="#DejaVuSans-30" x="63.623047"/>
      </g>
     </g>
    </g>
    <g id="ytick_4">
     <g id="line2d_12">
      <g>
       <use xlink:href="#m8e07a77467" x="26.925" y="43.637706" style="stroke: #000000; stroke-width: 0.8"/>
      </g>
     </g>
     <g id="text_12">
      <!-- 85 -->
      <g transform="translate(7.2 47.436924) scale(0.1 -0.1)">
       <use xlink:href="#DejaVuSans-38"/>
       <use xlink:href="#DejaVuSans-35" x="63.623047"/>
      </g>
     </g>
    </g>
   </g>
   <g id="line2d_13">
    <path d="M 42.143182 28.548688 
L 42.49284 21.639959 
L 42.788653 29.035072 
L 43.08022 29.035072 
L 43.390188 28.312245 
L 43.684649 33.263217 
L 43.98348 27.965887 
L 44.270687 33.104895 
L 44.556929 40.762386 
L 45.124667 41.037643 
L 45.414382 41.037643 
L 45.716458 39.136821 
L 45.992492 31.800153 
L 46.263369 31.943697 
L 46.540666 33.040889 
L 46.812064 27.540805 
L 47.090316 29.087832 
L 47.365526 25.416953 
L 47.651919 24.395298 
L 48.43694 24.395298 
L 48.720569 23.028031 
L 48.996628 25.936365 
L 49.270776 25.936365 
L 49.542772 26.181154 
L 49.824432 27.714894 
L 50.100295 32.603398 
L 50.377644 33.426683 
L 50.654143 32.525879 
L 51.209036 32.737323 
L 51.486733 29.738432 
L 51.765844 29.552891 
L 52.045026 29.080518 
L 52.327858 29.549987 
L 52.609501 17.28 
L 53.168536 20.686621 
L 53.43803 19.529977 
L 53.711826 20.884006 
L 54.003337 21.707291 
L 54.554795 21.707291 
L 54.846449 22.396447 
L 55.731146 22.396447 
L 56.008261 22.138101 
L 56.290433 22.138101 
L 56.562563 23.109857 
L 56.843903 22.396447 
L 57.13237 22.399754 
L 57.409434 23.819949 
L 57.961669 25.047516 
L 58.229006 24.337414 
L 58.777494 24.337414 
L 59.05579 26.077258 
L 59.339394 25.666279 
L 59.637818 26.718619 
L 59.914453 26.897203 
L 60.222943 25.723468 
L 61.328391 25.723468 
L 61.606186 26.79434 
L 61.89563 26.79434 
L 62.178088 27.601902 
L 62.478142 27.601902 
L 62.787603 24.78841 
L 63.058794 25.941934 
L 63.342325 31.418265 
L 63.629497 31.460753 
L 63.906469 35.310376 
L 64.181033 37.029992 
L 64.490189 35.931618 
L 65.347964 35.931618 
L 65.913774 38.806155 
L 66.184876 38.787938 
L 66.459299 41.727888 
L 67.004761 41.727888 
L 67.278344 43.559226 
L 67.552443 44.562924 
L 67.833077 42.573696 
L 68.389399 42.573696 
L 68.672922 41.323936 
L 69.251426 41.315535 
L 69.526851 42.386407 
L 69.80903 41.685925 
L 70.38198 41.685925 
L 70.658638 43.486004 
L 70.954487 43.812211 
L 71.232848 43.698907 
L 71.789708 43.806634 
L 72.342918 45.114755 
L 72.621957 45.114755 
L 72.899315 47.541737 
L 73.183232 44.853403 
L 73.465428 44.853403 
L 73.754076 45.793032 
L 74.031176 49.579079 
L 74.33784 49.579079 
L 74.643926 49.86732 
L 74.92862 49.579079 
L 75.205886 52.428766 
L 76.039249 56.151454 
L 76.325713 49.635606 
L 76.624962 49.635606 
L 77.201982 51.075315 
L 77.763504 51.075315 
L 78.0413 51.441813 
L 78.338438 51.075315 
L 78.623633 53.27084 
L 78.90133 57.638054 
L 79.177873 57.638054 
L 79.468701 58.876313 
L 80.017718 58.779284 
L 80.301731 58.779284 
L 80.580797 54.838852 
L 80.855901 57.019229 
L 81.142706 55.115324 
L 81.422165 56.353833 
L 81.700319 54.859377 
L 81.974966 55.501287 
L 82.264062 55.501038 
L 82.542295 55.868306 
L 82.826272 55.979149 
L 83.108083 56.346417 
L 83.417614 55.732484 
L 83.716937 56.727986 
L 84.282395 57.399126 
L 84.562822 58.061814 
L 84.84036 59.666571 
L 85.113475 59.666571 
L 85.678782 60.374945 
L 85.974774 61.085689 
L 86.255807 63.781409 
L 86.545189 62.904862 
L 86.816884 63.800664 
L 87.08635 63.676923 
L 87.374569 64.672425 
L 87.659521 65.162078 
L 87.949584 66.781574 
L 88.791005 66.781574 
L 89.070556 68.72145 
L 89.358165 68.945317 
L 89.63322 68.938613 
L 89.974548 70.892018 
L 90.272008 70.109963 
L 90.558813 70.109963 
L 90.837916 72.964531 
L 91.116927 72.964531 
L 91.394286 72.570978 
L 91.675095 73.92606 
L 91.950458 74.293132 
L 92.231679 74.293132 
L 92.520157 74.431154 
L 93.117477 74.431154 
L 93.409111 74.928781 
L 93.755967 74.678889 
L 94.115072 74.828458 
L 94.777781 76.029475 
L 95.126006 77.676904 
L 95.692332 77.676904 
L 96.018081 77.517713 
L 96.311347 79.478584 
L 96.59468 79.193646 
L 97.205797 80.741935 
L 97.56481 82.764507 
L 97.904516 83.645535 
L 98.187347 82.449226 
L 98.499376 82.522866 
L 98.809594 87.16171 
L 99.099691 87.452464 
L 99.400881 81.789533 
L 100.036306 81.789533 
L 100.330274 80.908504 
L 100.922871 83.084966 
L 101.213979 82.23895 
L 101.547217 83.530835 
L 101.845413 83.188111 
L 102.131894 84.090848 
L 102.446694 83.270211 
L 102.807237 82.855648 
L 103.148768 83.525122 
L 103.471799 82.901742 
L 103.820193 85.790045 
L 104.21248 85.790045 
L 104.631992 83.14171 
L 105.025756 84.462872 
L 105.349277 84.462872 
L 105.676656 86.17911 
L 106.006521 84.525206 
L 106.345717 85.530596 
L 106.688824 88.532459 
L 107.026043 88.573588 
L 107.356339 86.635789 
L 107.936991 88.234733 
L 108.216181 90.433206 
L 108.985097 90.497515 
L 109.367392 88.90019 
L 109.72289 88.90019 
L 110.099958 88.299364 
L 110.797097 89.178152 
L 111.156599 88.391486 
L 111.799673 88.713644 
L 112.178119 87.488846 
L 112.559716 91.709771 
L 112.929339 91.193299 
L 113.687447 91.598546 
L 114.063353 91.257608 
L 114.485646 96.283517 
L 114.825812 92.869393 
L 115.116293 93.252664 
L 115.404832 91.88634 
L 115.681476 95.058848 
L 115.969326 95.629166 
L 116.269175 97.000254 
L 116.549567 95.06225 
L 116.837131 95.606826 
L 117.116627 93.652051 
L 117.40625 93.356754 
L 117.736438 95.99858 
L 118.025265 96.303823 
L 118.643868 96.408792 
L 118.943528 95.913683 
L 119.530935 95.913683 
L 119.81231 101.135081 
L 120.115772 99.83291 
L 120.406381 99.334618 
L 120.686834 99.58047 
L 120.977718 99.58047 
L 121.2564 103.717669 
L 121.546845 104.220927 
L 121.835932 99.58047 
L 122.122791 98.428425 
L 122.410652 101.433211 
L 122.710563 101.433211 
L 123.025083 101.31468 
L 123.31986 100.963583 
L 123.600322 104.439533 
L 123.903554 101.766426 
L 124.19272 103.586315 
L 124.469944 103.586315 
L 124.748814 101.934387 
L 125.037273 103.655116 
L 125.317502 101.847425 
L 125.610542 102.578996 
L 125.894163 102.295723 
L 126.183251 101.731707 
L 126.469973 104.159468 
L 126.752019 104.552223 
L 127.031417 103.224403 
L 127.687308 103.224403 
L 128.045652 102.426756 
L 128.388928 102.461995 
L 128.727642 102.900993 
L 129.026972 102.93105 
L 129.309132 103.317588 
L 129.59592 102.534049 
L 129.880535 107.424791 
L 130.170007 107.245084 
L 130.514337 105.247282 
L 130.860452 107.354274 
L 131.170687 107.354274 
L 131.483509 106.556372 
L 132.407124 106.511075 
L 132.73765 108.159418 
L 133.019454 107.36418 
L 133.302483 107.573425 
L 133.596563 108.043085 
L 133.890802 109.650342 
L 134.171952 110.430043 
L 134.453327 108.290543 
L 134.740785 111.03318 
L 135.047381 111.080758 
L 135.335445 110.962454 
L 135.622922 110.388478 
L 135.908511 111.47567 
L 136.204199 105.808828 
L 136.485279 105.53973 
L 136.815682 105.969038 
L 137.403625 108.773982 
L 137.697049 109.60853 
L 138.018845 107.859545 
L 138.60054 107.859545 
L 138.940777 109.808631 
L 139.239329 110.042026 
L 139.539114 109.92482 
L 139.860821 110.081223 
L 140.183493 108.963917 
L 140.514605 112.93077 
L 140.865314 113.164164 
L 141.249219 110.818742 
L 141.968096 110.861736 
L 142.511268 113.262911 
L 143.087152 111.58544 
L 143.4729 112.62037 
L 143.826348 113.232476 
L 144.15538 112.834746 
L 144.503336 114.881858 
L 144.840368 114.838772 
L 145.208328 123.075065 
L 145.530581 123.075065 
L 145.880647 119.634758 
L 146.280824 119.062589 
L 146.809683 118.705265 
L 147.337039 119.317371 
L 147.912142 120.268293 
L 149.05013 120.466878 
L 150.022485 123.204416 
L 150.541798 124.125491 
L 151.349462 128.876523 
L 151.7341 129.361938 
L 152.222439 129.361938 
L 152.62507 126.349909 
L 152.90442 126.126523 
L 153.187817 128.202361 
L 153.479356 128.202361 
L 153.757115 126.719769 
L 154.064372 124.260522 
L 154.356278 125.645794 
L 155.318827 124.614297 
L 155.706454 125.30294 
L 156.006507 127.700836 
L 156.303379 128.193079 
L 156.604264 128.397849 
L 156.923512 120.847127 
L 157.218179 121.278588 
L 157.506727 120.847127 
L 157.798865 120.994534 
L 158.094384 120.662085 
L 158.384097 120.662085 
L 158.675179 120.280576 
L 158.963584 120.772819 
L 159.559669 119.832153 
L 160.201139 120.902941 
L 160.494868 120.902941 
L 160.780861 120.027772 
L 161.072685 121.488801 
L 161.659295 122.668087 
L 162.001185 126.271877 
L 162.281655 123.069777 
L 162.565749 125.106559 
L 162.852109 126.321918 
L 163.153728 126.251799 
L 163.43622 125.771199 
L 163.733348 125.040591 
L 164.071492 127.479261 
L 164.380984 128.242126 
L 164.663244 127.803667 
L 164.938158 127.677531 
L 165.228721 127.178118 
L 165.512432 127.689822 
L 166.10482 129.332843 
L 166.386811 130.663349 
L 166.983416 128.543455 
L 167.611565 128.185731 
L 167.906115 128.185098 
L 168.198934 128.025043 
L 168.478563 127.309649 
L 169.048245 129.036112 
L 169.332152 130.833753 
L 169.625407 130.476088 
L 169.921007 128.827166 
L 170.207068 128.003922 
L 170.500066 128.655313 
L 170.785348 130.597624 
L 171.071492 129.73545 
L 171.389172 130.943305 
L 171.690917 131.589121 
L 172.021465 129.420247 
L 172.346237 130.865131 
L 172.637302 130.516684 
L 172.920178 131.263109 
L 173.209219 130.235494 
L 173.500544 130.783913 
L 173.785667 132.905617 
L 174.077161 130.89225 
L 174.359196 131.370805 
L 174.650663 130.376379 
L 174.929057 131.380452 
L 175.220184 132.851864 
L 175.518235 131.893523 
L 175.855383 129.954426 
L 176.151055 130.733605 
L 176.479445 130.733605 
L 176.776894 130.226353 
L 177.354905 134.662851 
L 177.632308 133.828929 
L 177.925816 134.117092 
L 178.217467 133.519002 
L 178.508191 133.777101 
L 179.090006 135.778573 
L 179.381617 135.679958 
L 179.663275 135.88196 
L 179.946951 135.091065 
L 180.233995 140.195752 
L 180.519817 140.0197 
L 180.846479 140.396666 
L 181.14411 135.62507 
L 181.43247 135.441493 
L 181.719886 137.571138 
L 182.019018 137.531882 
L 182.30023 137.096689 
L 182.578484 139.658509 
L 182.863372 141.201412 
L 183.149606 141.104351 
L 183.438638 141.156548 
L 183.741055 137.139781 
L 184.042095 137.009632 
L 184.331807 137.422014 
L 184.628474 138.982765 
L 184.912165 139.276973 
L 185.195916 137.295544 
L 185.495534 142.330422 
L 185.788513 143.284558 
L 186.06833 149.623061 
L 186.365398 148.859898 
L 186.651467 148.979978 
L 186.939687 140.259645 
L 187.231548 141.075994 
L 187.519434 141.075994 
L 187.806033 147.322279 
L 188.09392 147.897807 
L 188.384466 149.300164 
L 188.673569 148.189287 
L 188.974384 145.696825 
L 189.308591 144.453695 
L 189.604976 144.414433 
L 189.930449 143.587159 
L 190.223562 147.738568 
L 190.552781 147.943339 
L 191.124602 147.943339 
L 191.409582 147.762808 
L 191.987774 148.356151 
L 192.272575 148.356151 
L 192.857367 148.714133 
L 193.138635 148.953592 
L 193.724645 147.437038 
L 194.01084 148.142976 
L 194.312588 148.416066 
L 194.611908 149.110245 
L 194.901264 149.364117 
L 195.179955 149.166563 
L 195.471518 149.166563 
L 195.775082 148.351676 
L 196.646885 149.905496 
L 196.980061 149.670568 
L 197.26597 149.050519 
L 197.556551 149.050519 
L 197.844208 150.09297 
L 198.146595 150.309721 
L 198.431717 149.22969 
L 198.745937 149.22969 
L 199.038826 149.727261 
L 199.61452 154.096751 
L 199.909163 157.281749 
L 200.525145 152.586142 
L 200.808477 151.242773 
L 201.392412 151.242773 
L 201.685075 152.990951 
L 201.97435 150.602462 
L 202.253515 152.748161 
L 202.543757 151.629438 
L 202.842326 151.839501 
L 203.425186 150.78776 
L 203.706543 150.90084 
L 203.996256 151.715429 
L 204.31184 153.24202 
L 204.596581 152.957141 
L 204.889801 151.550486 
L 205.184023 152.87671 
L 205.46775 153.155468 
L 206.653439 153.198662 
L 206.938841 152.812886 
L 207.247205 153.11001 
L 207.83387 153.189817 
L 208.423986 154.513974 
L 208.754031 154.35411 
L 209.057048 154.9855 
L 209.35848 155.2535 
L 209.663393 155.2535 
L 209.962446 156.834556 
L 210.257982 157.481176 
L 210.547434 157.42394 
L 210.860715 159.491389 
L 211.159346 159.395413 
L 211.432974 158.393313 
L 211.718292 155.982354 
L 212.001715 159.972767 
L 212.318592 160.882555 
L 212.604367 160.882555 
L 212.896855 158.371206 
L 213.197399 157.701759 
L 213.484821 157.701759 
L 214.066055 158.901299 
L 214.359042 159.451448 
L 214.655071 161.272907 
L 215.220173 158.024943 
L 215.506147 157.5144 
L 215.794114 157.292946 
L 216.084079 156.225951 
L 216.370571 156.717249 
L 216.683229 158.713659 
L 217.262198 157.796589 
L 217.549538 158.434079 
L 217.839424 157.838333 
L 218.141043 157.617209 
L 218.439408 158.933553 
L 218.733496 158.933553 
L 219.036826 160.579826 
L 219.329256 160.638906 
L 219.623248 161.146507 
L 219.92017 162.020316 
L 220.246126 162.316052 
L 220.570228 164.769112 
L 220.843855 164.769112 
L 221.155918 164.921332 
L 221.452331 164.219817 
L 221.745318 165.219541 
L 222.031291 164.986938 
L 222.319287 164.986938 
L 222.5999 164.399996 
L 222.902006 164.399996 
L 223.184193 165.801704 
L 223.468251 165.920165 
L 223.748542 165.801704 
L 224.035106 164.873665 
L 224.322592 168.138843 
L 224.607597 169.34424 
L 224.911591 169.34424 
L 225.200354 169.62834 
L 225.492123 170.651282 
L 225.779007 169.181799 
L 226.068364 170.186466 
L 226.365143 166.62851 
L 226.648754 167.718894 
L 226.94321 167.512893 
L 227.5186 167.512893 
L 227.804753 170.328279 
L 228.0922 169.603508 
L 228.387004 170.646712 
L 228.683873 170.935427 
L 228.97092 170.935427 
L 229.268418 171.078052 
L 229.55751 173.009364 
L 230.221288 173.129668 
L 230.53725 170.3539 
L 230.83904 170.964006 
L 231.161372 170.964006 
L 231.443463 169.344249 
L 231.724577 171.330865 
L 232.315346 171.220345 
L 232.606921 174.083536 
L 233.188716 174.083536 
L 233.475744 173.943334 
L 234.072214 174.681377 
L 234.363544 174.167145 
L 234.672038 174.607943 
L 234.957376 174.284398 
L 235.251007 173.683251 
L 235.537077 173.683251 
L 235.825476 173.445767 
L 236.118499 173.544354 
L 236.417362 174.339045 
L 237.282744 174.339045 
L 237.56411 174.198843 
L 237.849275 174.411868 
L 238.143956 175.39508 
L 238.430162 175.39508 
L 238.712089 174.411868 
L 239.017977 174.9378 
L 239.33232 175.211111 
L 239.680651 174.609963 
L 239.973274 174.609963 
L 240.258065 175.211111 
L 240.559873 175.211111 
L 240.845989 174.710594 
L 241.160942 174.611879 
L 241.494984 173.3815 
L 242.096901 173.346395 
L 242.438961 171.67362 
L 243.966542 174.937227 
L 244.370576 174.937227 
L 244.826984 175.298088 
L 245.2062 175.298088 
L 245.70863 176.528016 
L 246.027418 175.544804 
L 246.431193 173.225196 
L 246.852368 172.256315 
L 247.311047 174.180072 
L 247.703173 173.578924 
L 248.040536 170.378125 
L 248.41587 171.932009 
L 248.739669 169.612215 
L 249.244945 171.404734 
L 249.613871 170.358053 
L 249.94915 170.959201 
L 250.253329 176.049796 
L 250.56148 176.049796 
L 250.87279 174.495913 
L 251.177202 173.89695 
L 251.492136 173.71621 
L 251.834107 174.21343 
L 252.130216 177.447375 
L 252.734872 176.79053 
L 253.021112 176.833524 
L 253.339051 178.271404 
L 253.662501 178.303393 
L 253.951311 177.984961 
L 254.233983 179.411996 
L 254.523258 179.894454 
L 254.808666 179.894454 
L 255.096438 178.933597 
L 255.678054 178.901608 
L 255.969217 180.811101 
L 256.260415 181.410063 
L 256.554886 182.629441 
L 258.027195 182.629441 
L 258.641387 181.400274 
L 259.308731 181.787725 
L 259.606443 180.709076 
L 259.899189 177.207233 
L 260.479391 180.980104 
L 260.775671 181.469752 
L 261.073534 178.213789 
L 261.372596 178.213789 
L 261.668627 176.972628 
L 261.958338 177.631691 
L 262.253044 182.574259 
L 262.548633 182.358228 
L 262.83959 181.047849 
L 263.134125 181.047849 
L 263.418102 180.357222 
L 263.717682 182.478402 
L 264.011913 182.203684 
L 264.598139 179.455202 
L 264.896486 181.911856 
L 265.479828 181.911856 
L 265.767896 179.929256 
L 266.347678 181.962573 
L 266.639127 181.673778 
L 267.234413 185.978074 
L 267.539471 186.102828 
L 267.882543 185.903777 
L 268.331425 186.344084 
L 268.745248 187.700058 
L 269.411438 187.700745 
L 269.736034 187.132275 
L 270.038262 188.006646 
L 270.344886 190.333431 
L 270.645046 186.171431 
L 270.940002 186.171431 
L 271.250821 184.487412 
L 271.839191 185.824925 
L 272.157158 183.374138 
L 272.609118 183.374138 
L 272.965395 189.901798 
L 273.290485 189.029012 
L 273.944006 190.175405 
L 274.282944 191.533147 
L 274.635202 190.69798 
L 274.944059 188.43686 
L 275.2801 189.868135 
L 275.57503 190.350303 
L 275.876701 190.266184 
L 276.172491 195.330117 
L 276.748113 195.158901 
L 277.331233 195.158901 
L 277.625964 196.548873 
L 277.934689 196.747924 
L 278.246554 196.747924 
L 278.854375 195.010164 
L 279.149207 194.464892 
L 279.451355 193.222225 
L 279.739726 194.206855 
L 280.037786 193.178173 
L 280.332374 195.024479 
L 280.62011 195.642694 
L 280.911798 196.995589 
L 281.220139 189.485524 
L 281.509235 190.31695 
L 282.092909 194.31097 
L 282.381253 197.397133 
L 282.958236 196.795102 
L 283.258944 196.451684 
L 283.55713 192.109703 
L 283.864152 192.503487 
L 284.159673 195.046032 
L 284.747213 193.893394 
L 285.032954 195.837194 
L 285.3375 194.15356 
L 285.620412 194.15356 
L 285.920101 192.743874 
L 286.241537 197.09166 
L 286.54536 199.012813 
L 286.833415 199.867312 
L 287.152422 199.867312 
L 287.467151 197.923512 
L 287.77963 196.935053 
L 288.061917 197.167934 
L 288.352187 192.123863 
L 288.641396 197.370964 
L 288.930761 197.969759 
L 289.203 199.59461 
L 289.501042 199.391579 
L 289.788133 196.97177 
L 290.082381 197.901211 
L 290.378849 195.122648 
L 290.67325 196.359008 
L 290.960216 196.359257 
L 291.259288 196.90453 
L 291.547139 196.90453 
L 291.840868 197.6908 
L 292.138283 196.671416 
L 292.435101 196.671416 
L 292.737777 197.017658 
L 293.038315 197.017658 
L 293.335184 198.758877 
L 293.624638 198.758877 
L 293.925398 199.013263 
L 294.209763 198.644354 
L 294.50675 196.67453 
L 294.815741 197.390432 
L 295.105544 198.980341 
L 295.389459 198.980341 
L 295.688619 199.234728 
L 295.984558 198.643611 
L 296.273904 200.534669 
L 296.561776 200.534669 
L 296.890423 199.589045 
L 297.212631 201.771837 
L 297.525829 201.662062 
L 297.822967 200.34356 
L 298.127969 200.34356 
L 298.429714 200.985022 
L 298.718444 201.271891 
L 299.328564 202.611797 
L 299.619815 202.721572 
L 299.911255 202.484567 
L 300.199697 202.655782 
L 300.487611 202.655782 
L 301.17905 201.20287 
L 301.525432 201.439875 
L 301.868896 201.439875 
L 302.157158 201.260932 
L 302.447568 201.260932 
L 302.737219 199.297988 
L 303.027574 199.537448 
L 303.319087 199.537448 
L 303.610169 199.351736 
L 303.921479 197.09166 
L 304.219923 196.192437 
L 304.559773 199.126545 
L 304.853423 198.712973 
L 305.446865 198.712973 
L 305.728715 199.034567 
L 306.021604 200.151426 
L 306.649576 197.935606 
L 306.961914 200.551387 
L 307.634431 203.845867 
L 307.940425 203.427184 
L 308.262407 204.00048 
L 308.561684 204.00048 
L 308.846941 202.358813 
L 309.134499 202.499983 
L 309.440788 200.544943 
L 309.723835 202.148846 
L 310.019194 201.648975 
L 310.320342 200.552507 
L 310.614564 202.86693 
L 310.908899 203.019594 
L 311.209467 201.695494 
L 311.495682 201.091887 
L 312.084051 202.124017 
L 312.366949 204.810055 
L 312.660983 203.713586 
L 312.950998 205.011855 
L 313.235065 205.011855 
L 313.5319 206.762235 
L 313.819823 205.11817 
L 314.113375 205.153575 
L 314.42701 203.333972 
L 314.724274 203.937578 
L 315.020964 203.937578 
L 315.304075 205.97024 
L 315.603227 205.97024 
L 315.892124 204.181797 
L 316.181246 204.569286 
L 316.480067 205.584521 
L 316.773163 204.517429 
L 317.066999 205.936863 
L 317.401122 204.278772 
L 317.719473 205.789039 
L 318.02877 206.305172 
L 318.319826 204.336842 
L 318.615435 205.488798 
L 318.898616 205.488798 
L 319.788187 204.846956 
L 320.086686 206.751185 
L 320.376578 206.595534 
L 320.672788 206.595534 
L 320.964842 206.286542 
L 321.253821 207.705977 
L 321.545268 207.705977 
L 321.833648 207.895225 
L 322.131788 207.624795 
L 322.416787 207.969417 
L 322.711171 207.29385 
L 323.017183 207.253393 
L 323.310466 210.36869 
L 323.906657 210.302492 
L 324.492066 210.302492 
L 324.778182 209.438488 
L 325.35838 209.438488 
L 325.643769 207.74841 
L 325.93589 208.054826 
L 326.226354 207.341295 
L 326.501547 209.523407 
L 326.828046 207.685917 
L 327.143016 207.714057 
L 327.44801 206.48355 
L 327.750221 207.361531 
L 328.039541 206.992622 
L 328.334638 210.976903 
L 328.61918 210.747229 
L 329.212624 210.817319 
L 329.504405 208.374177 
L 329.798815 210.363563 
L 330.12001 208.117901 
L 330.403658 208.117901 
L 330.700348 208.851051 
L 331.036084 208.310188 
L 331.334079 208.865871 
L 331.627004 209.831532 
L 331.922854 211.269985 
L 332.209472 212.108477 
L 332.501591 212.108477 
L 332.802602 212.605421 
L 333.420239 216.816779 
L 333.712985 215.68282 
L 333.991309 215.526923 
L 334.568399 216.347288 
L 334.876845 216.395509 
L 335.472985 213.099254 
L 336.053615 218.88 
L 336.383374 215.524892 
L 336.709812 215.760932 
L 337.008831 216.180689 
L 337.301165 216.180689 
L 337.603672 215.639663 
L 337.897015 214.143028 
L 338.189458 214.642037 
L 338.484244 213.506521 
L 338.777139 214.208908 
L 339.077348 213.608011 
L 339.370254 212.576896 
L 339.658544 212.542927 
L 339.954539 213.422351 
L 340.246014 213.422351 
L 340.538894 216.520246 
L 341.133624 214.677655 
L 341.42365 214.744734 
L 341.72547 214.634124 
L 342.025014 214.024666 
L 342.315853 214.933691 
L 342.600387 214.984504 
L 342.910577 214.520924 
L 343.229199 214.645828 
L 343.510866 215.15985 
L 343.805839 215.15985 
L 344.120792 216.049604 
L 344.409133 216.445705 
L 344.690054 216.445705 
L 344.990018 215.43665 
L 345.285878 215.611249 
L 345.58122 216.559939 
L 345.890032 216.005445 
L 346.208821 216.94939 
L 346.506818 217.409358 
L 346.506818 217.409358 
" clip-path="url(#p8aed644c1f)" style="fill: none; stroke: #1f77b4; stroke-width: 1.5; stroke-linecap: square"/>
   </g>
   <g id="patch_3">
    <path d="M 26.925 228.96 
L 26.925 7.2 
" style="fill: none; stroke: #000000; stroke-width: 0.8; stroke-linejoin: miter; stroke-linecap: square"/>
   </g>
   <g id="patch_4">
    <path d="M 361.725 228.96 
L 361.725 7.2 
" style="fill: none; stroke: #000000; stroke-width: 0.8; stroke-linejoin: miter; stroke-linecap: square"/>
   </g>
   <g id="patch_5">
    <path d="M 26.925 228.96 
L 361.725 228.96 
" style="fill: none; stroke: #000000; stroke-width: 0.8; stroke-linejoin: miter; stroke-linecap: square"/>
   </g>
   <g id="patch_6">
    <path d="M 26.925 7.2 
L 361.725 7.2 
" style="fill: none; stroke: #000000; stroke-width: 0.8; stroke-linejoin: miter; stroke-linecap: square"/>
   </g>
  </g>
 </g>
 <defs>
  <clipPath id="p8aed644c1f">
   <rect x="26.925" y="7.2" width="334.8" height="221.76"/>
  </clipPath>
 </defs>
</svg>
