<?xml version="1.0" encoding="utf-8" standalone="no"?>
<!DOCTYPE svg PUBLIC "-//W3C//DTD SVG 1.1//EN"
  "http://www.w3.org/Graphics/SVG/1.1/DTD/svg11.dtd">
<svg xmlns:xlink="http://www.w3.org/1999/xlink" width="368.925pt" height="252.838125pt" viewBox="0 0 368.925 252.838125" xmlns="http://www.w3.org/2000/svg" version="1.1">
 <metadata>
  <rdf:RDF xmlns:dc="http://purl.org/dc/elements/1.1/" xmlns:cc="http://creativecommons.org/ns#" xmlns:rdf="http://www.w3.org/1999/02/22-rdf-syntax-ns#">
   <cc:Work>
    <dc:type rdf:resource="http://purl.org/dc/dcmitype/StillImage"/>
    <dc:date>2023-04-18T05:45:43.148862</dc:date>
    <dc:format>image/svg+xml</dc:format>
    <dc:creator>
     <cc:Agent>
      <dc:title>Matplotlib v3.7.1, https://matplotlib.org/</dc:title>
     </cc:Agent>
    </dc:creator>
   </cc:Work>
  </rdf:RDF>
 </metadata>
 <defs>
  <style type="text/css">*{stroke-linejoin: round; stroke-linecap: butt}</style>
 </defs>
 <g id="figure_1">
  <g id="patch_1">
   <path d="M -0 252.838125 
L 368.925 252.838125 
L 368.925 0 
L -0 0 
z
" style="fill: #ffffff"/>
  </g>
  <g id="axes_1">
   <g id="patch_2">
    <path d="M 26.925 228.96 
L 361.725 228.96 
L 361.725 7.2 
L 26.925 7.2 
z
" style="fill: #ffffff"/>
   </g>
   <g id="matplotlib.axis_1">
    <g id="xtick_1">
     <g id="line2d_1">
      <defs>
       <path id="m3eeb0dae92" d="M 0 0 
L 0 3.5 
" style="stroke: #000000; stroke-width: 0.8"/>
      </defs>
      <g>
       <use xlink:href="#m3eeb0dae92" x="42.143182" y="228.96" style="stroke: #000000; stroke-width: 0.8"/>
      </g>
     </g>
     <g id="text_1">
      <!-- 0 -->
      <g transform="translate(38.961932 243.558438) scale(0.1 -0.1)">
       <defs>
        <path id="DejaVuSans-30" d="M 2034 4250 
Q 1547 4250 1301 3770 
Q 1056 3291 1056 2328 
Q 1056 1369 1301 889 
Q 1547 409 2034 409 
Q 2525 409 2770 889 
Q 3016 1369 3016 2328 
Q 3016 3291 2770 3770 
Q 2525 4250 2034 4250 
z
M 2034 4750 
Q 2819 4750 3233 4129 
Q 3647 3509 3647 2328 
Q 3647 1150 3233 529 
Q 2819 -91 2034 -91 
Q 1250 -91 836 529 
Q 422 1150 422 2328 
Q 422 3509 836 4129 
Q 1250 4750 2034 4750 
z
" transform="scale(0.015625)"/>
       </defs>
       <use xlink:href="#DejaVuSans-30"/>
      </g>
     </g>
    </g>
    <g id="xtick_2">
     <g id="line2d_2">
      <g>
       <use xlink:href="#m3eeb0dae92" x="103.015909" y="228.96" style="stroke: #000000; stroke-width: 0.8"/>
      </g>
     </g>
     <g id="text_2">
      <!-- 200 -->
      <g transform="translate(93.472159 243.558438) scale(0.1 -0.1)">
       <defs>
        <path id="DejaVuSans-32" d="M 1228 531 
L 3431 531 
L 3431 0 
L 469 0 
L 469 531 
Q 828 903 1448 1529 
Q 2069 2156 2228 2338 
Q 2531 2678 2651 2914 
Q 2772 3150 2772 3378 
Q 2772 3750 2511 3984 
Q 2250 4219 1831 4219 
Q 1534 4219 1204 4116 
Q 875 4013 500 3803 
L 500 4441 
Q 881 4594 1212 4672 
Q 1544 4750 1819 4750 
Q 2544 4750 2975 4387 
Q 3406 4025 3406 3419 
Q 3406 3131 3298 2873 
Q 3191 2616 2906 2266 
Q 2828 2175 2409 1742 
Q 1991 1309 1228 531 
z
" transform="scale(0.015625)"/>
       </defs>
       <use xlink:href="#DejaVuSans-32"/>
       <use xlink:href="#DejaVuSans-30" x="63.623047"/>
       <use xlink:href="#DejaVuSans-30" x="127.246094"/>
      </g>
     </g>
    </g>
    <g id="xtick_3">
     <g id="line2d_3">
      <g>
       <use xlink:href="#m3eeb0dae92" x="163.888636" y="228.96" style="stroke: #000000; stroke-width: 0.8"/>
      </g>
     </g>
     <g id="text_3">
      <!-- 400 -->
      <g transform="translate(154.344886 243.558438) scale(0.1 -0.1)">
       <defs>
        <path id="DejaVuSans-34" d="M 2419 4116 
L 825 1625 
L 2419 1625 
L 2419 4116 
z
M 2253 4666 
L 3047 4666 
L 3047 1625 
L 3713 1625 
L 3713 1100 
L 3047 1100 
L 3047 0 
L 2419 0 
L 2419 1100 
L 313 1100 
L 313 1709 
L 2253 4666 
z
" transform="scale(0.015625)"/>
       </defs>
       <use xlink:href="#DejaVuSans-34"/>
       <use xlink:href="#DejaVuSans-30" x="63.623047"/>
       <use xlink:href="#DejaVuSans-30" x="127.246094"/>
      </g>
     </g>
    </g>
    <g id="xtick_4">
     <g id="line2d_4">
      <g>
       <use xlink:href="#m3eeb0dae92" x="224.761364" y="228.96" style="stroke: #000000; stroke-width: 0.8"/>
      </g>
     </g>
     <g id="text_4">
      <!-- 600 -->
      <g transform="translate(215.217614 243.558438) scale(0.1 -0.1)">
       <defs>
        <path id="DejaVuSans-36" d="M 2113 2584 
Q 1688 2584 1439 2293 
Q 1191 2003 1191 1497 
Q 1191 994 1439 701 
Q 1688 409 2113 409 
Q 2538 409 2786 701 
Q 3034 994 3034 1497 
Q 3034 2003 2786 2293 
Q 2538 2584 2113 2584 
z
M 3366 4563 
L 3366 3988 
Q 3128 4100 2886 4159 
Q 2644 4219 2406 4219 
Q 1781 4219 1451 3797 
Q 1122 3375 1075 2522 
Q 1259 2794 1537 2939 
Q 1816 3084 2150 3084 
Q 2853 3084 3261 2657 
Q 3669 2231 3669 1497 
Q 3669 778 3244 343 
Q 2819 -91 2113 -91 
Q 1303 -91 875 529 
Q 447 1150 447 2328 
Q 447 3434 972 4092 
Q 1497 4750 2381 4750 
Q 2619 4750 2861 4703 
Q 3103 4656 3366 4563 
z
" transform="scale(0.015625)"/>
       </defs>
       <use xlink:href="#DejaVuSans-36"/>
       <use xlink:href="#DejaVuSans-30" x="63.623047"/>
       <use xlink:href="#DejaVuSans-30" x="127.246094"/>
      </g>
     </g>
    </g>
    <g id="xtick_5">
     <g id="line2d_5">
      <g>
       <use xlink:href="#m3eeb0dae92" x="285.634091" y="228.96" style="stroke: #000000; stroke-width: 0.8"/>
      </g>
     </g>
     <g id="text_5">
      <!-- 800 -->
      <g transform="translate(276.090341 243.558438) scale(0.1 -0.1)">
       <defs>
        <path id="DejaVuSans-38" d="M 2034 2216 
Q 1584 2216 1326 1975 
Q 1069 1734 1069 1313 
Q 1069 891 1326 650 
Q 1584 409 2034 409 
Q 2484 409 2743 651 
Q 3003 894 3003 1313 
Q 3003 1734 2745 1975 
Q 2488 2216 2034 2216 
z
M 1403 2484 
Q 997 2584 770 2862 
Q 544 3141 544 3541 
Q 544 4100 942 4425 
Q 1341 4750 2034 4750 
Q 2731 4750 3128 4425 
Q 3525 4100 3525 3541 
Q 3525 3141 3298 2862 
Q 3072 2584 2669 2484 
Q 3125 2378 3379 2068 
Q 3634 1759 3634 1313 
Q 3634 634 3220 271 
Q 2806 -91 2034 -91 
Q 1263 -91 848 271 
Q 434 634 434 1313 
Q 434 1759 690 2068 
Q 947 2378 1403 2484 
z
M 1172 3481 
Q 1172 3119 1398 2916 
Q 1625 2713 2034 2713 
Q 2441 2713 2670 2916 
Q 2900 3119 2900 3481 
Q 2900 3844 2670 4047 
Q 2441 4250 2034 4250 
Q 1625 4250 1398 4047 
Q 1172 3844 1172 3481 
z
" transform="scale(0.015625)"/>
       </defs>
       <use xlink:href="#DejaVuSans-38"/>
       <use xlink:href="#DejaVuSans-30" x="63.623047"/>
       <use xlink:href="#DejaVuSans-30" x="127.246094"/>
      </g>
     </g>
    </g>
    <g id="xtick_6">
     <g id="line2d_6">
      <g>
       <use xlink:href="#m3eeb0dae92" x="346.506818" y="228.96" style="stroke: #000000; stroke-width: 0.8"/>
      </g>
     </g>
     <g id="text_6">
      <!-- 1000 -->
      <g transform="translate(333.781818 243.558438) scale(0.1 -0.1)">
       <defs>
        <path id="DejaVuSans-31" d="M 794 531 
L 1825 531 
L 1825 4091 
L 703 3866 
L 703 4441 
L 1819 4666 
L 2450 4666 
L 2450 531 
L 3481 531 
L 3481 0 
L 794 0 
L 794 531 
z
" transform="scale(0.015625)"/>
       </defs>
       <use xlink:href="#DejaVuSans-31"/>
       <use xlink:href="#DejaVuSans-30" x="63.623047"/>
       <use xlink:href="#DejaVuSans-30" x="127.246094"/>
       <use xlink:href="#DejaVuSans-30" x="190.869141"/>
      </g>
     </g>
    </g>
   </g>
   <g id="matplotlib.axis_2">
    <g id="ytick_1">
     <g id="line2d_7">
      <defs>
       <path id="m275748550d" d="M 0 0 
L -3.5 0 
" style="stroke: #000000; stroke-width: 0.8"/>
      </defs>
      <g>
       <use xlink:href="#m275748550d" x="26.925" y="205.163984" style="stroke: #000000; stroke-width: 0.8"/>
      </g>
     </g>
     <g id="text_7">
      <!-- 65 -->
      <g transform="translate(7.2 208.963203) scale(0.1 -0.1)">
       <defs>
        <path id="DejaVuSans-35" d="M 691 4666 
L 3169 4666 
L 3169 4134 
L 1269 4134 
L 1269 2991 
Q 1406 3038 1543 3061 
Q 1681 3084 1819 3084 
Q 2600 3084 3056 2656 
Q 3513 2228 3513 1497 
Q 3513 744 3044 326 
Q 2575 -91 1722 -91 
Q 1428 -91 1123 -41 
Q 819 9 494 109 
L 494 744 
Q 775 591 1075 516 
Q 1375 441 1709 441 
Q 2250 441 2565 725 
Q 2881 1009 2881 1497 
Q 2881 1984 2565 2268 
Q 2250 2553 1709 2553 
Q 1456 2553 1204 2497 
Q 953 2441 691 2322 
L 691 4666 
z
" transform="scale(0.015625)"/>
       </defs>
       <use xlink:href="#DejaVuSans-36"/>
       <use xlink:href="#DejaVuSans-35" x="63.623047"/>
      </g>
     </g>
    </g>
    <g id="ytick_2">
     <g id="line2d_8">
      <g>
       <use xlink:href="#m275748550d" x="26.925" y="169.594181" style="stroke: #000000; stroke-width: 0.8"/>
      </g>
     </g>
     <g id="text_8">
      <!-- 70 -->
      <g transform="translate(7.2 173.393399) scale(0.1 -0.1)">
       <defs>
        <path id="DejaVuSans-37" d="M 525 4666 
L 3525 4666 
L 3525 4397 
L 1831 0 
L 1172 0 
L 2766 4134 
L 525 4134 
L 525 4666 
z
" transform="scale(0.015625)"/>
       </defs>
       <use xlink:href="#DejaVuSans-37"/>
       <use xlink:href="#DejaVuSans-30" x="63.623047"/>
      </g>
     </g>
    </g>
    <g id="ytick_3">
     <g id="line2d_9">
      <g>
       <use xlink:href="#m275748550d" x="26.925" y="134.024377" style="stroke: #000000; stroke-width: 0.8"/>
      </g>
     </g>
     <g id="text_9">
      <!-- 75 -->
      <g transform="translate(7.2 137.823596) scale(0.1 -0.1)">
       <use xlink:href="#DejaVuSans-37"/>
       <use xlink:href="#DejaVuSans-35" x="63.623047"/>
      </g>
     </g>
    </g>
    <g id="ytick_4">
     <g id="line2d_10">
      <g>
       <use xlink:href="#m275748550d" x="26.925" y="98.454573" style="stroke: #000000; stroke-width: 0.8"/>
      </g>
     </g>
     <g id="text_10">
      <!-- 80 -->
      <g transform="translate(7.2 102.253792) scale(0.1 -0.1)">
       <use xlink:href="#DejaVuSans-38"/>
       <use xlink:href="#DejaVuSans-30" x="63.623047"/>
      </g>
     </g>
    </g>
    <g id="ytick_5">
     <g id="line2d_11">
      <g>
       <use xlink:href="#m275748550d" x="26.925" y="62.88477" style="stroke: #000000; stroke-width: 0.8"/>
      </g>
     </g>
     <g id="text_11">
      <!-- 85 -->
      <g transform="translate(7.2 66.683988) scale(0.1 -0.1)">
       <use xlink:href="#DejaVuSans-38"/>
       <use xlink:href="#DejaVuSans-35" x="63.623047"/>
      </g>
     </g>
    </g>
    <g id="ytick_6">
     <g id="line2d_12">
      <g>
       <use xlink:href="#m275748550d" x="26.925" y="27.314966" style="stroke: #000000; stroke-width: 0.8"/>
      </g>
     </g>
     <g id="text_12">
      <!-- 90 -->
      <g transform="translate(7.2 31.114185) scale(0.1 -0.1)">
       <defs>
        <path id="DejaVuSans-39" d="M 703 97 
L 703 672 
Q 941 559 1184 500 
Q 1428 441 1663 441 
Q 2288 441 2617 861 
Q 2947 1281 2994 2138 
Q 2813 1869 2534 1725 
Q 2256 1581 1919 1581 
Q 1219 1581 811 2004 
Q 403 2428 403 3163 
Q 403 3881 828 4315 
Q 1253 4750 1959 4750 
Q 2769 4750 3195 4129 
Q 3622 3509 3622 2328 
Q 3622 1225 3098 567 
Q 2575 -91 1691 -91 
Q 1453 -91 1209 -44 
Q 966 3 703 97 
z
M 1959 2075 
Q 2384 2075 2632 2365 
Q 2881 2656 2881 3163 
Q 2881 3666 2632 3958 
Q 2384 4250 1959 4250 
Q 1534 4250 1286 3958 
Q 1038 3666 1038 3163 
Q 1038 2656 1286 2365 
Q 1534 2075 1959 2075 
z
" transform="scale(0.015625)"/>
       </defs>
       <use xlink:href="#DejaVuSans-39"/>
       <use xlink:href="#DejaVuSans-30" x="63.623047"/>
      </g>
     </g>
    </g>
   </g>
   <g id="line2d_13">
    <path d="M 42.143182 17.28 
L 42.447545 17.478369 
L 42.751909 18.856564 
L 43.360636 23.411866 
L 43.969364 25.377411 
L 44.578091 30.210246 
L 45.186818 30.210246 
L 45.491182 30.527308 
L 45.795545 32.009826 
L 46.099909 30.210246 
L 46.404273 30.3058 
L 46.708636 31.680434 
L 47.013 31.852901 
L 47.621727 32.900255 
L 47.926091 34.565841 
L 48.230455 34.650364 
L 48.534818 34.565841 
L 48.839182 35.892043 
L 49.143545 37.785902 
L 49.447909 37.799894 
L 49.752273 38.125321 
L 50.056636 38.125321 
L 50.361 38.608889 
L 50.969727 38.629291 
L 51.578455 38.93095 
L 51.882818 39.058786 
L 52.187182 40.054583 
L 52.491545 40.201579 
L 52.795909 40.201579 
L 53.100273 40.383255 
L 53.404636 41.103425 
L 53.709 42.989607 
L 54.013364 43.04858 
L 54.317727 43.552443 
L 54.622091 45.585872 
L 54.926455 46.217082 
L 55.230818 46.217082 
L 55.535182 46.603008 
L 56.143909 46.685432 
L 56.448273 47.417031 
L 56.752636 47.324109 
L 57.057 48.55499 
L 57.361364 48.930719 
L 57.970091 48.930719 
L 58.274455 49.57266 
L 58.578818 50.570458 
L 58.883182 50.879296 
L 59.187545 50.879296 
L 59.491909 51.443168 
L 60.100636 53.282398 
L 60.405 53.282398 
L 60.709364 53.512309 
L 61.013727 53.512956 
L 61.622455 54.865343 
L 61.926818 54.903502 
L 62.231182 55.884684 
L 62.839909 55.916517 
L 63.144273 56.834482 
L 63.448636 58.842862 
L 63.753 58.842862 
L 64.057364 59.843839 
L 64.361727 59.375106 
L 64.666091 60.009575 
L 64.970455 60.009575 
L 65.274818 60.424795 
L 65.579182 61.515916 
L 65.883545 60.971305 
L 67.101 62.795764 
L 67.405364 63.286853 
L 67.709727 63.286853 
L 68.014091 62.795764 
L 68.318455 63.085553 
L 68.622818 63.172818 
L 69.231545 63.740886 
L 70.449 64.028349 
L 70.753364 65.12216 
L 71.362091 65.12347 
L 71.666455 66.685694 
L 71.970818 65.775996 
L 72.275182 65.931062 
L 72.883909 66.802832 
L 73.188273 66.589837 
L 73.492636 67.0888 
L 73.797 67.244711 
L 74.405727 67.83205 
L 74.710091 67.994929 
L 75.014455 68.403617 
L 75.623182 68.313255 
L 75.927545 70.526738 
L 76.231909 70.526738 
L 76.536273 70.968333 
L 76.840636 70.728654 
L 77.145 71.154556 
L 77.449364 72.376005 
L 77.753727 72.376005 
L 78.058091 72.87807 
L 78.362455 73.901385 
L 78.666818 73.901385 
L 78.971182 74.561853 
L 79.275545 74.695514 
L 79.579909 74.975377 
L 79.884273 74.975377 
L 80.188636 75.109038 
L 80.493 75.393518 
L 81.101727 75.444315 
L 81.406091 75.667406 
L 82.014818 76.734459 
L 82.319182 77.43213 
L 82.623545 77.462997 
L 83.232273 78.102507 
L 83.536636 78.160303 
L 83.841 78.502225 
L 84.145364 79.650867 
L 84.754091 79.650867 
L 85.058455 80.335916 
L 85.362818 80.055161 
L 85.667182 80.667702 
L 85.971545 80.667702 
L 86.275909 81.401979 
L 86.580273 81.538942 
L 86.884636 81.401979 
L 87.493364 81.588756 
L 87.797727 81.616375 
L 88.102091 82.103632 
L 88.406455 82.103632 
L 88.710818 82.374938 
L 89.319545 83.60268 
L 89.928273 83.657396 
L 90.537 84.105593 
L 90.841364 84.99154 
L 91.145727 84.522127 
L 91.754455 85.473009 
L 92.058818 85.473009 
L 92.667545 85.702679 
L 92.971909 85.543199 
L 93.276273 85.928674 
L 93.580636 85.928674 
L 94.189364 86.899262 
L 95.102455 87.263337 
L 95.406818 87.56924 
L 95.711182 87.613599 
L 96.015545 88.753029 
L 96.319909 88.419702 
L 96.624273 89.463141 
L 96.928636 89.982114 
L 97.841727 89.982114 
L 98.146091 90.488991 
L 98.450455 90.624732 
L 98.754818 90.573288 
L 99.363545 90.780653 
L 99.667909 91.519805 
L 99.972273 91.78461 
L 100.276636 91.575276 
L 100.581 92.388176 
L 101.494091 92.388176 
L 101.798455 93.399737 
L 102.102818 93.616893 
L 102.407182 93.103145 
L 102.711545 93.734022 
L 103.320273 94.243851 
L 103.624636 94.016466 
L 103.929 94.3908 
L 104.233364 94.574823 
L 104.537727 95.357667 
L 104.842091 94.616616 
L 105.146455 95.048411 
L 105.450818 95.280872 
L 105.755182 95.230744 
L 106.059545 95.792502 
L 106.668273 95.792502 
L 106.972636 95.303379 
L 107.277 95.345172 
L 107.581364 96.079406 
L 107.885727 96.079406 
L 108.190091 96.367456 
L 108.798818 96.592494 
L 109.407545 97.0621 
L 109.711909 97.332439 
L 110.320636 98.531788 
L 110.929364 98.63174 
L 112.146818 99.286029 
L 112.451182 100.138694 
L 112.755545 100.328017 
L 113.059909 100.160581 
L 113.364273 100.190149 
L 113.668636 100.848274 
L 114.277364 100.88654 
L 114.581727 101.139534 
L 114.886091 101.589298 
L 115.190455 101.818127 
L 115.494818 103.144506 
L 116.103545 103.144506 
L 116.407909 103.616034 
L 116.712273 103.388125 
L 117.016636 103.955391 
L 117.625364 104.330027 
L 117.929727 105.07914 
L 118.538455 105.661796 
L 118.842818 105.816519 
L 119.147182 105.662394 
L 119.755909 105.728653 
L 120.973364 106.78509 
L 121.277727 106.916006 
L 121.886455 107.575143 
L 122.190818 107.575143 
L 122.495182 108.973452 
L 122.799545 108.973452 
L 123.103909 109.13209 
L 123.712636 110.151076 
L 124.017 110.869434 
L 124.321364 110.869434 
L 124.625727 110.747556 
L 124.930091 111.00345 
L 125.843182 111.00345 
L 126.147545 111.137906 
L 126.451909 111.608872 
L 126.756273 111.092293 
L 127.060636 111.857433 
L 127.365 111.706192 
L 127.669364 112.198544 
L 127.973727 111.846263 
L 128.278091 112.854386 
L 128.582455 112.854386 
L 128.886818 113.375529 
L 129.191182 112.854386 
L 129.495545 112.974092 
L 129.799909 113.55336 
L 130.104273 113.560753 
L 130.408636 113.708549 
L 130.713 115.496008 
L 131.017364 114.889745 
L 131.626091 116.346128 
L 132.843545 116.731193 
L 133.147909 117.485117 
L 133.452273 117.671407 
L 133.756636 118.198362 
L 134.365364 118.203919 
L 134.669727 119.199115 
L 134.974091 119.199115 
L 135.278455 120.148812 
L 135.582818 120.148812 
L 135.887182 120.57203 
L 136.191545 120.16421 
L 136.495909 120.3236 
L 136.800273 120.247814 
L 137.104636 120.664811 
L 137.409 120.664811 
L 137.713364 120.960569 
L 138.322091 121.936091 
L 138.626455 121.967145 
L 138.930818 122.159573 
L 139.539545 122.060874 
L 139.843909 122.123048 
L 140.757 123.008307 
L 141.061364 123.008307 
L 141.365727 123.635783 
L 142.583182 123.658297 
L 142.887545 123.748479 
L 143.191909 124.278807 
L 143.800636 124.314724 
L 144.105 124.473303 
L 144.409364 124.992116 
L 144.713727 124.992116 
L 145.018091 125.429847 
L 145.626818 125.508864 
L 146.844273 126.552595 
L 147.453 126.552595 
L 148.366091 127.136471 
L 148.670455 127.490041 
L 148.974818 127.490041 
L 149.583545 128.167308 
L 150.192273 128.167308 
L 150.496636 128.296446 
L 150.801 128.915414 
L 151.105364 128.720355 
L 151.409727 128.933587 
L 151.714091 129.725329 
L 152.018455 129.725329 
L 152.322818 130.105829 
L 152.627182 131.152861 
L 152.931545 131.295261 
L 153.235909 131.295261 
L 153.540273 131.462935 
L 153.844636 132.073315 
L 154.149 132.073315 
L 154.453364 131.76527 
L 155.062091 132.144052 
L 155.975182 132.93656 
L 156.279545 133.011819 
L 156.583909 133.373828 
L 157.192636 133.401352 
L 157.497 133.967148 
L 158.105727 134.342541 
L 158.410091 135.044734 
L 159.018818 135.044734 
L 159.627545 135.505482 
L 160.236273 135.526553 
L 160.540636 136.104141 
L 161.149364 135.567427 
L 161.453727 135.80023 
L 161.758091 136.206991 
L 162.062455 136.206991 
L 162.366818 136.416022 
L 162.975545 136.458375 
L 163.279909 136.597801 
L 163.584273 136.597801 
L 163.888636 136.754484 
L 164.193 137.085574 
L 164.497364 136.951185 
L 164.801727 137.036 
L 165.106091 137.964914 
L 165.410455 138.05502 
L 165.714818 138.428223 
L 166.019182 138.53164 
L 166.323545 138.860072 
L 166.932273 139.082768 
L 167.541 139.852407 
L 167.845364 140.825807 
L 168.149727 140.301227 
L 168.454091 140.52123 
L 168.758455 140.52123 
L 169.062818 141.058405 
L 169.671545 141.058405 
L 169.975909 140.735768 
L 170.280273 141.12976 
L 170.584636 141.12976 
L 170.889 140.996385 
L 171.193364 141.415169 
L 172.410818 141.980105 
L 172.715182 142.342932 
L 173.019545 142.116504 
L 173.323909 142.347463 
L 173.932636 142.358305 
L 174.237 142.849608 
L 174.541364 142.669521 
L 174.845727 143.316981 
L 175.150091 143.437715 
L 175.454455 143.843131 
L 175.758818 143.843131 
L 176.671909 144.12716 
L 176.976273 144.12716 
L 177.280636 144.660387 
L 177.585 144.660387 
L 177.889364 144.798902 
L 178.193727 145.077665 
L 178.498091 146.194283 
L 178.802455 146.194283 
L 179.106818 145.406947 
L 179.411182 145.343026 
L 179.715545 145.593908 
L 180.019909 145.673356 
L 180.628636 147.526854 
L 180.933 147.526854 
L 181.237364 147.642244 
L 181.846091 147.526854 
L 182.150455 147.9196 
L 182.454818 147.9196 
L 182.759182 147.690279 
L 183.063545 148.020526 
L 183.672273 148.042119 
L 183.976636 148.897797 
L 184.281 149.220321 
L 185.194091 149.320591 
L 185.802818 149.466015 
L 186.107182 149.607998 
L 186.411545 149.602267 
L 186.715909 149.912376 
L 187.324636 150.080381 
L 187.629 150.395766 
L 188.846455 150.772573 
L 189.150818 151.007171 
L 189.455182 151.527828 
L 189.759545 151.527828 
L 190.063909 151.99451 
L 190.368273 151.923869 
L 190.672636 152.047502 
L 190.977 151.436125 
L 191.281364 151.483135 
L 191.890091 151.961672 
L 192.194455 151.961672 
L 192.498818 152.361732 
L 192.803182 152.454486 
L 193.107545 152.730326 
L 193.411909 152.730326 
L 193.716273 152.953321 
L 194.020636 152.730326 
L 194.325 153.1878 
L 194.933727 153.131201 
L 195.542455 153.467702 
L 195.846818 153.535492 
L 196.759909 154.604479 
L 197.064273 154.604479 
L 197.368636 154.916621 
L 197.673 155.451149 
L 197.977364 155.011643 
L 198.281727 156.188493 
L 198.890455 155.512958 
L 199.194818 155.521289 
L 199.499182 155.765581 
L 200.107909 155.859658 
L 200.412273 156.459623 
L 200.716636 156.517929 
L 201.021 156.738499 
L 201.325364 157.28386 
L 201.629727 156.959109 
L 201.934091 156.959109 
L 202.238455 157.978517 
L 202.542818 157.978517 
L 202.847182 157.865927 
L 203.151545 158.52307 
L 203.455909 158.743733 
L 204.064636 158.743733 
L 204.369 159.320924 
L 205.890818 159.378169 
L 206.499545 159.939989 
L 206.803909 159.957835 
L 207.717 160.9102 
L 208.021364 160.820443 
L 208.630091 161.121168 
L 208.934455 161.427952 
L 209.238818 161.427952 
L 209.543182 161.752543 
L 209.847545 161.895677 
L 210.151909 161.915784 
L 210.456273 162.538019 
L 211.673727 162.537827 
L 212.586818 163.051704 
L 212.891182 163.070009 
L 213.195545 163.347453 
L 213.499909 163.304171 
L 213.804273 163.548688 
L 214.108636 163.548688 
L 214.413 163.904946 
L 214.717364 163.625312 
L 215.021727 164.052104 
L 215.630455 164.143525 
L 215.934818 164.940549 
L 217.152273 165.465647 
L 217.456636 165.686057 
L 218.065364 166.568651 
L 218.978455 166.610559 
L 219.891545 166.836387 
L 220.195909 167.125598 
L 221.109 167.48648 
L 221.413364 167.75971 
L 221.717727 167.75971 
L 222.022091 168.018733 
L 222.326455 168.035803 
L 224.457 169.072211 
L 225.065727 168.990041 
L 225.370091 169.657233 
L 225.978818 169.766598 
L 226.283182 170.243256 
L 226.587545 171.052073 
L 226.891909 171.052073 
L 227.196273 171.242359 
L 227.500636 171.84862 
L 227.805 171.84862 
L 228.109364 171.699426 
L 228.718091 171.699426 
L 229.022455 171.978036 
L 229.326818 171.749014 
L 229.631182 171.832884 
L 229.935545 172.181241 
L 230.848636 172.319491 
L 231.153 172.248493 
L 231.457364 172.369276 
L 231.761727 172.785529 
L 232.066091 172.499959 
L 232.674818 172.848881 
L 232.979182 173.407742 
L 233.587909 174.013804 
L 234.196636 174.22979 
L 234.805364 174.12455 
L 235.109727 174.498598 
L 235.414091 174.477688 
L 236.022818 174.725733 
L 236.327182 174.566476 
L 237.240273 175.073286 
L 237.544636 175.194127 
L 237.849 175.544514 
L 238.762091 175.546383 
L 239.066455 175.772004 
L 239.370818 176.32992 
L 239.675182 176.32992 
L 239.979545 177.042139 
L 240.283909 177.042139 
L 240.892636 177.672701 
L 241.501364 177.618394 
L 241.805727 177.75733 
L 242.110091 177.733878 
L 242.414455 178.183856 
L 243.023182 178.471226 
L 243.631909 178.515353 
L 243.936273 179.066816 
L 244.240636 178.621357 
L 244.545 178.737086 
L 244.849364 178.987704 
L 245.153727 179.067675 
L 245.458091 179.318292 
L 246.066818 179.338906 
L 246.675545 179.432685 
L 246.979909 179.869034 
L 247.588636 179.869034 
L 247.893 180.093247 
L 248.197364 180.093247 
L 248.806091 180.45836 
L 250.023545 180.907429 
L 250.632273 181.006777 
L 250.936636 181.610462 
L 251.545364 181.950958 
L 251.849727 181.950958 
L 252.154091 182.771311 
L 252.458455 182.81039 
L 252.762818 183.180978 
L 253.067182 183.180978 
L 253.371545 184.001352 
L 254.589 184.106666 
L 255.502091 184.660946 
L 255.806455 185.237251 
L 256.110818 185.253517 
L 257.023909 185.697162 
L 257.632636 185.829554 
L 257.937 186.056376 
L 258.545727 186.106175 
L 258.850091 185.93453 
L 259.154455 186.237743 
L 259.458818 186.020598 
L 260.676273 186.491716 
L 261.285 186.641667 
L 261.589364 186.778628 
L 261.893727 187.134565 
L 263.111182 187.163059 
L 263.415545 187.448766 
L 263.719909 187.341573 
L 264.633 187.485497 
L 264.937364 187.673004 
L 265.546091 187.764507 
L 265.850455 187.992083 
L 267.372273 187.992708 
L 267.981 188.299084 
L 268.894091 188.299084 
L 269.198455 188.469365 
L 269.502818 188.299084 
L 269.807182 188.596112 
L 270.111545 188.596112 
L 270.720273 188.940452 
L 271.024636 188.985771 
L 271.329 190.147757 
L 272.546455 190.252325 
L 272.850818 190.704958 
L 273.155182 190.938287 
L 273.459545 191.477792 
L 274.372636 191.970189 
L 274.677 191.743455 
L 274.981364 191.896047 
L 275.285727 192.263637 
L 275.894455 192.503306 
L 276.198818 192.559846 
L 276.503182 192.792026 
L 276.807545 192.643541 
L 277.111909 193.046214 
L 277.416273 192.630913 
L 278.329364 193.447412 
L 278.633727 193.176469 
L 278.938091 193.113702 
L 279.242455 193.599582 
L 279.546818 193.450952 
L 279.851182 193.828115 
L 280.155545 193.689961 
L 280.459909 193.996589 
L 281.373 194.077701 
L 281.981727 194.325291 
L 282.894818 194.671424 
L 283.199182 195.19963 
L 283.807909 195.294879 
L 284.112273 195.729329 
L 284.416636 195.88262 
L 284.721 195.894255 
L 285.025364 195.645071 
L 285.329727 195.997226 
L 285.634091 195.998751 
L 285.938455 196.266518 
L 286.242818 196.755699 
L 286.547182 196.920994 
L 286.851545 196.755699 
L 287.155909 197.160516 
L 287.764636 197.170436 
L 288.069 197.892925 
L 288.373364 197.979097 
L 288.677727 198.297741 
L 288.982091 198.253808 
L 289.286455 198.823971 
L 289.590818 198.823971 
L 290.199545 199.024858 
L 290.503909 199.540622 
L 291.112636 199.591505 
L 291.721364 199.540622 
L 292.938818 199.945783 
L 293.243182 199.945783 
L 294.156273 200.372918 
L 295.069364 200.363147 
L 295.373727 200.512835 
L 295.678091 200.876419 
L 295.982455 200.876419 
L 296.286818 201.162012 
L 296.895545 201.162012 
L 297.504273 201.603103 
L 298.721727 202.250217 
L 299.026091 202.250217 
L 299.634818 202.675405 
L 299.939182 202.529381 
L 300.547909 202.602149 
L 301.461 202.866117 
L 301.765364 203.046461 
L 302.069727 203.070044 
L 302.374091 203.481347 
L 303.895909 204.250182 
L 304.200273 204.099893 
L 304.504636 204.353791 
L 305.113364 204.388727 
L 305.722091 205.101391 
L 306.330818 205.163862 
L 306.635182 205.77189 
L 306.939545 205.77189 
L 307.243909 205.48229 
L 307.548273 206.055416 
L 308.157 205.496416 
L 308.461364 205.660485 
L 308.765727 205.660485 
L 309.070091 206.003867 
L 309.374455 206.003867 
L 309.983182 206.226165 
L 310.896273 206.313411 
L 311.200636 207.110612 
L 311.809364 206.655964 
L 312.113727 206.749226 
L 312.418091 206.614537 
L 312.722455 206.661791 
L 313.026818 207.231698 
L 313.331182 206.942591 
L 313.939909 207.196402 
L 314.244273 207.356078 
L 314.548636 207.373504 
L 314.853 207.751497 
L 315.157364 208.327922 
L 315.461727 207.97427 
L 315.766091 208.008137 
L 316.374818 208.418767 
L 316.679182 208.265974 
L 316.983545 208.338182 
L 317.287909 208.631965 
L 317.896636 208.832431 
L 318.505364 209.005975 
L 318.809727 209.164997 
L 319.114091 209.584492 
L 320.027182 209.830139 
L 320.331545 209.726648 
L 320.635909 209.80777 
L 321.244636 209.759534 
L 321.853364 210.154616 
L 322.766455 210.215352 
L 323.375182 210.489495 
L 323.679545 210.409387 
L 323.983909 210.679822 
L 324.288273 210.547896 
L 324.592636 211.021727 
L 324.897 211.021727 
L 325.810091 211.361844 
L 326.114455 211.361844 
L 326.418818 211.220613 
L 327.636273 211.368903 
L 328.549364 211.748406 
L 328.853727 211.776152 
L 329.158091 211.971622 
L 329.462455 211.971622 
L 329.766818 212.131547 
L 330.375545 212.099329 
L 330.679909 212.254473 
L 331.288636 213.385386 
L 331.593 212.956194 
L 331.897364 213.117792 
L 332.506091 213.105725 
L 333.114818 213.553244 
L 333.419182 213.334107 
L 334.027909 213.667665 
L 334.941 213.774612 
L 335.854091 214.411424 
L 336.158455 214.32775 
L 336.462818 214.780403 
L 336.767182 214.931276 
L 337.071545 214.931276 
L 337.375909 215.139031 
L 337.984636 215.072625 
L 338.289 215.374988 
L 338.897727 215.353902 
L 339.202091 215.531928 
L 339.506455 215.353902 
L 340.419545 215.842724 
L 340.723909 215.842724 
L 341.028273 216.329801 
L 341.637 216.329801 
L 342.245727 216.601916 
L 342.550091 216.638085 
L 342.854455 217.102985 
L 343.463182 217.102985 
L 344.071909 217.457932 
L 344.376273 217.457932 
L 344.680636 217.799945 
L 344.985 217.799945 
L 345.289364 218.097828 
L 345.593727 218.097828 
L 345.898091 218.428485 
L 346.202455 218.38423 
L 346.506818 218.88 
L 346.506818 218.88 
" clip-path="url(#p91f75c94e0)" style="fill: none; stroke: #1f77b4; stroke-width: 1.5; stroke-linecap: square"/>
   </g>
   <g id="patch_3">
    <path d="M 26.925 228.96 
L 26.925 7.2 
" style="fill: none; stroke: #000000; stroke-width: 0.8; stroke-linejoin: miter; stroke-linecap: square"/>
   </g>
   <g id="patch_4">
    <path d="M 361.725 228.96 
L 361.725 7.2 
" style="fill: none; stroke: #000000; stroke-width: 0.8; stroke-linejoin: miter; stroke-linecap: square"/>
   </g>
   <g id="patch_5">
    <path d="M 26.925 228.96 
L 361.725 228.96 
" style="fill: none; stroke: #000000; stroke-width: 0.8; stroke-linejoin: miter; stroke-linecap: square"/>
   </g>
   <g id="patch_6">
    <path d="M 26.925 7.2 
L 361.725 7.2 
" style="fill: none; stroke: #000000; stroke-width: 0.8; stroke-linejoin: miter; stroke-linecap: square"/>
   </g>
  </g>
 </g>
 <defs>
  <clipPath id="p91f75c94e0">
   <rect x="26.925" y="7.2" width="334.8" height="221.76"/>
  </clipPath>
 </defs>
</svg>
