<?xml version="1.0" encoding="utf-8" standalone="no"?>
<!DOCTYPE svg PUBLIC "-//W3C//DTD SVG 1.1//EN"
  "http://www.w3.org/Graphics/SVG/1.1/DTD/svg11.dtd">
<svg xmlns:xlink="http://www.w3.org/1999/xlink" width="368.925pt" height="252.838125pt" viewBox="0 0 368.925 252.838125" xmlns="http://www.w3.org/2000/svg" version="1.1">
 <metadata>
  <rdf:RDF xmlns:dc="http://purl.org/dc/elements/1.1/" xmlns:cc="http://creativecommons.org/ns#" xmlns:rdf="http://www.w3.org/1999/02/22-rdf-syntax-ns#">
   <cc:Work>
    <dc:type rdf:resource="http://purl.org/dc/dcmitype/StillImage"/>
    <dc:date>2023-04-19T16:57:11.178400</dc:date>
    <dc:format>image/svg+xml</dc:format>
    <dc:creator>
     <cc:Agent>
      <dc:title>Matplotlib v3.6.2, https://matplotlib.org/</dc:title>
     </cc:Agent>
    </dc:creator>
   </cc:Work>
  </rdf:RDF>
 </metadata>
 <defs>
  <style type="text/css">*{stroke-linejoin: round; stroke-linecap: butt}</style>
 </defs>
 <g id="figure_1">
  <g id="patch_1">
   <path d="M -0 252.838125 
L 368.925 252.838125 
L 368.925 0 
L -0 0 
z
" style="fill: #ffffff"/>
  </g>
  <g id="axes_1">
   <g id="patch_2">
    <path d="M 26.925 228.96 
L 361.725 228.96 
L 361.725 7.2 
L 26.925 7.2 
z
" style="fill: #ffffff"/>
   </g>
   <g id="matplotlib.axis_1">
    <g id="xtick_1">
     <g id="line2d_1">
      <defs>
       <path id="m62fdf5c3b8" d="M 0 0 
L 0 3.5 
" style="stroke: #000000; stroke-width: 0.8"/>
      </defs>
      <g>
       <use xlink:href="#m62fdf5c3b8" x="42.143182" y="228.96" style="stroke: #000000; stroke-width: 0.8"/>
      </g>
     </g>
     <g id="text_1">
      <!-- 0 -->
      <g transform="translate(38.961932 243.558437) scale(0.1 -0.1)">
       <defs>
        <path id="DejaVuSans-30" d="M 2034 4250 
Q 1547 4250 1301 3770 
Q 1056 3291 1056 2328 
Q 1056 1369 1301 889 
Q 1547 409 2034 409 
Q 2525 409 2770 889 
Q 3016 1369 3016 2328 
Q 3016 3291 2770 3770 
Q 2525 4250 2034 4250 
z
M 2034 4750 
Q 2819 4750 3233 4129 
Q 3647 3509 3647 2328 
Q 3647 1150 3233 529 
Q 2819 -91 2034 -91 
Q 1250 -91 836 529 
Q 422 1150 422 2328 
Q 422 3509 836 4129 
Q 1250 4750 2034 4750 
z
" transform="scale(0.015625)"/>
       </defs>
       <use xlink:href="#DejaVuSans-30"/>
      </g>
     </g>
    </g>
    <g id="xtick_2">
     <g id="line2d_2">
      <g>
       <use xlink:href="#m62fdf5c3b8" x="106.219737" y="228.96" style="stroke: #000000; stroke-width: 0.8"/>
      </g>
     </g>
     <g id="text_2">
      <!-- 200 -->
      <g transform="translate(96.675987 243.558437) scale(0.1 -0.1)">
       <defs>
        <path id="DejaVuSans-32" d="M 1228 531 
L 3431 531 
L 3431 0 
L 469 0 
L 469 531 
Q 828 903 1448 1529 
Q 2069 2156 2228 2338 
Q 2531 2678 2651 2914 
Q 2772 3150 2772 3378 
Q 2772 3750 2511 3984 
Q 2250 4219 1831 4219 
Q 1534 4219 1204 4116 
Q 875 4013 500 3803 
L 500 4441 
Q 881 4594 1212 4672 
Q 1544 4750 1819 4750 
Q 2544 4750 2975 4387 
Q 3406 4025 3406 3419 
Q 3406 3131 3298 2873 
Q 3191 2616 2906 2266 
Q 2828 2175 2409 1742 
Q 1991 1309 1228 531 
z
" transform="scale(0.015625)"/>
       </defs>
       <use xlink:href="#DejaVuSans-32"/>
       <use xlink:href="#DejaVuSans-30" x="63.623047"/>
       <use xlink:href="#DejaVuSans-30" x="127.246094"/>
      </g>
     </g>
    </g>
    <g id="xtick_3">
     <g id="line2d_3">
      <g>
       <use xlink:href="#m62fdf5c3b8" x="170.296292" y="228.96" style="stroke: #000000; stroke-width: 0.8"/>
      </g>
     </g>
     <g id="text_3">
      <!-- 400 -->
      <g transform="translate(160.752542 243.558437) scale(0.1 -0.1)">
       <defs>
        <path id="DejaVuSans-34" d="M 2419 4116 
L 825 1625 
L 2419 1625 
L 2419 4116 
z
M 2253 4666 
L 3047 4666 
L 3047 1625 
L 3713 1625 
L 3713 1100 
L 3047 1100 
L 3047 0 
L 2419 0 
L 2419 1100 
L 313 1100 
L 313 1709 
L 2253 4666 
z
" transform="scale(0.015625)"/>
       </defs>
       <use xlink:href="#DejaVuSans-34"/>
       <use xlink:href="#DejaVuSans-30" x="63.623047"/>
       <use xlink:href="#DejaVuSans-30" x="127.246094"/>
      </g>
     </g>
    </g>
    <g id="xtick_4">
     <g id="line2d_4">
      <g>
       <use xlink:href="#m62fdf5c3b8" x="234.372847" y="228.96" style="stroke: #000000; stroke-width: 0.8"/>
      </g>
     </g>
     <g id="text_4">
      <!-- 600 -->
      <g transform="translate(224.829097 243.558437) scale(0.1 -0.1)">
       <defs>
        <path id="DejaVuSans-36" d="M 2113 2584 
Q 1688 2584 1439 2293 
Q 1191 2003 1191 1497 
Q 1191 994 1439 701 
Q 1688 409 2113 409 
Q 2538 409 2786 701 
Q 3034 994 3034 1497 
Q 3034 2003 2786 2293 
Q 2538 2584 2113 2584 
z
M 3366 4563 
L 3366 3988 
Q 3128 4100 2886 4159 
Q 2644 4219 2406 4219 
Q 1781 4219 1451 3797 
Q 1122 3375 1075 2522 
Q 1259 2794 1537 2939 
Q 1816 3084 2150 3084 
Q 2853 3084 3261 2657 
Q 3669 2231 3669 1497 
Q 3669 778 3244 343 
Q 2819 -91 2113 -91 
Q 1303 -91 875 529 
Q 447 1150 447 2328 
Q 447 3434 972 4092 
Q 1497 4750 2381 4750 
Q 2619 4750 2861 4703 
Q 3103 4656 3366 4563 
z
" transform="scale(0.015625)"/>
       </defs>
       <use xlink:href="#DejaVuSans-36"/>
       <use xlink:href="#DejaVuSans-30" x="63.623047"/>
       <use xlink:href="#DejaVuSans-30" x="127.246094"/>
      </g>
     </g>
    </g>
    <g id="xtick_5">
     <g id="line2d_5">
      <g>
       <use xlink:href="#m62fdf5c3b8" x="298.449402" y="228.96" style="stroke: #000000; stroke-width: 0.8"/>
      </g>
     </g>
     <g id="text_5">
      <!-- 800 -->
      <g transform="translate(288.905652 243.558437) scale(0.1 -0.1)">
       <defs>
        <path id="DejaVuSans-38" d="M 2034 2216 
Q 1584 2216 1326 1975 
Q 1069 1734 1069 1313 
Q 1069 891 1326 650 
Q 1584 409 2034 409 
Q 2484 409 2743 651 
Q 3003 894 3003 1313 
Q 3003 1734 2745 1975 
Q 2488 2216 2034 2216 
z
M 1403 2484 
Q 997 2584 770 2862 
Q 544 3141 544 3541 
Q 544 4100 942 4425 
Q 1341 4750 2034 4750 
Q 2731 4750 3128 4425 
Q 3525 4100 3525 3541 
Q 3525 3141 3298 2862 
Q 3072 2584 2669 2484 
Q 3125 2378 3379 2068 
Q 3634 1759 3634 1313 
Q 3634 634 3220 271 
Q 2806 -91 2034 -91 
Q 1263 -91 848 271 
Q 434 634 434 1313 
Q 434 1759 690 2068 
Q 947 2378 1403 2484 
z
M 1172 3481 
Q 1172 3119 1398 2916 
Q 1625 2713 2034 2713 
Q 2441 2713 2670 2916 
Q 2900 3119 2900 3481 
Q 2900 3844 2670 4047 
Q 2441 4250 2034 4250 
Q 1625 4250 1398 4047 
Q 1172 3844 1172 3481 
z
" transform="scale(0.015625)"/>
       </defs>
       <use xlink:href="#DejaVuSans-38"/>
       <use xlink:href="#DejaVuSans-30" x="63.623047"/>
       <use xlink:href="#DejaVuSans-30" x="127.246094"/>
      </g>
     </g>
    </g>
   </g>
   <g id="matplotlib.axis_2">
    <g id="ytick_1">
     <g id="line2d_6">
      <defs>
       <path id="mc614688573" d="M 0 0 
L -3.5 0 
" style="stroke: #000000; stroke-width: 0.8"/>
      </defs>
      <g>
       <use xlink:href="#mc614688573" x="26.925" y="217.494287" style="stroke: #000000; stroke-width: 0.8"/>
      </g>
     </g>
     <g id="text_6">
      <!-- 45 -->
      <g transform="translate(7.2 221.293506) scale(0.1 -0.1)">
       <defs>
        <path id="DejaVuSans-35" d="M 691 4666 
L 3169 4666 
L 3169 4134 
L 1269 4134 
L 1269 2991 
Q 1406 3038 1543 3061 
Q 1681 3084 1819 3084 
Q 2600 3084 3056 2656 
Q 3513 2228 3513 1497 
Q 3513 744 3044 326 
Q 2575 -91 1722 -91 
Q 1428 -91 1123 -41 
Q 819 9 494 109 
L 494 744 
Q 775 591 1075 516 
Q 1375 441 1709 441 
Q 2250 441 2565 725 
Q 2881 1009 2881 1497 
Q 2881 1984 2565 2268 
Q 2250 2553 1709 2553 
Q 1456 2553 1204 2497 
Q 953 2441 691 2322 
L 691 4666 
z
" transform="scale(0.015625)"/>
       </defs>
       <use xlink:href="#DejaVuSans-34"/>
       <use xlink:href="#DejaVuSans-35" x="63.623047"/>
      </g>
     </g>
    </g>
    <g id="ytick_2">
     <g id="line2d_7">
      <g>
       <use xlink:href="#mc614688573" x="26.925" y="171.503254" style="stroke: #000000; stroke-width: 0.8"/>
      </g>
     </g>
     <g id="text_7">
      <!-- 46 -->
      <g transform="translate(7.2 175.302473) scale(0.1 -0.1)">
       <use xlink:href="#DejaVuSans-34"/>
       <use xlink:href="#DejaVuSans-36" x="63.623047"/>
      </g>
     </g>
    </g>
    <g id="ytick_3">
     <g id="line2d_8">
      <g>
       <use xlink:href="#mc614688573" x="26.925" y="125.512221" style="stroke: #000000; stroke-width: 0.8"/>
      </g>
     </g>
     <g id="text_8">
      <!-- 47 -->
      <g transform="translate(7.2 129.31144) scale(0.1 -0.1)">
       <defs>
        <path id="DejaVuSans-37" d="M 525 4666 
L 3525 4666 
L 3525 4397 
L 1831 0 
L 1172 0 
L 2766 4134 
L 525 4134 
L 525 4666 
z
" transform="scale(0.015625)"/>
       </defs>
       <use xlink:href="#DejaVuSans-34"/>
       <use xlink:href="#DejaVuSans-37" x="63.623047"/>
      </g>
     </g>
    </g>
    <g id="ytick_4">
     <g id="line2d_9">
      <g>
       <use xlink:href="#mc614688573" x="26.925" y="79.521188" style="stroke: #000000; stroke-width: 0.8"/>
      </g>
     </g>
     <g id="text_9">
      <!-- 48 -->
      <g transform="translate(7.2 83.320407) scale(0.1 -0.1)">
       <use xlink:href="#DejaVuSans-34"/>
       <use xlink:href="#DejaVuSans-38" x="63.623047"/>
      </g>
     </g>
    </g>
    <g id="ytick_5">
     <g id="line2d_10">
      <g>
       <use xlink:href="#mc614688573" x="26.925" y="33.530156" style="stroke: #000000; stroke-width: 0.8"/>
      </g>
     </g>
     <g id="text_10">
      <!-- 49 -->
      <g transform="translate(7.2 37.329374) scale(0.1 -0.1)">
       <defs>
        <path id="DejaVuSans-39" d="M 703 97 
L 703 672 
Q 941 559 1184 500 
Q 1428 441 1663 441 
Q 2288 441 2617 861 
Q 2947 1281 2994 2138 
Q 2813 1869 2534 1725 
Q 2256 1581 1919 1581 
Q 1219 1581 811 2004 
Q 403 2428 403 3163 
Q 403 3881 828 4315 
Q 1253 4750 1959 4750 
Q 2769 4750 3195 4129 
Q 3622 3509 3622 2328 
Q 3622 1225 3098 567 
Q 2575 -91 1691 -91 
Q 1453 -91 1209 -44 
Q 966 3 703 97 
z
M 1959 2075 
Q 2384 2075 2632 2365 
Q 2881 2656 2881 3163 
Q 2881 3666 2632 3958 
Q 2384 4250 1959 4250 
Q 1534 4250 1286 3958 
Q 1038 3666 1038 3163 
Q 1038 2656 1286 2365 
Q 1534 2075 1959 2075 
z
" transform="scale(0.015625)"/>
       </defs>
       <use xlink:href="#DejaVuSans-34"/>
       <use xlink:href="#DejaVuSans-39" x="63.623047"/>
      </g>
     </g>
    </g>
   </g>
   <g id="line2d_11">
    <path d="M 42.143182 17.28 
L 44.385861 17.28 
L 44.706244 18.970214 
L 45.026627 18.970214 
L 45.34701 21.114357 
L 46.308158 21.114357 
L 46.628541 23.817669 
L 46.948923 23.817669 
L 47.269306 25.83191 
L 47.910072 25.83191 
L 48.230455 22.857605 
L 48.550837 25.83191 
L 48.87122 22.857605 
L 49.511986 22.857605 
L 49.832368 26.073206 
L 50.152751 25.113142 
L 50.473134 26.0774 
L 53.676962 26.061996 
L 53.997344 28.076237 
L 56.880789 28.076237 
L 57.201172 29.181991 
L 57.521555 28.076237 
L 57.841938 28.076237 
L 58.162321 29.181991 
L 58.482703 28.076237 
L 60.405 28.076237 
L 60.725383 31.676322 
L 61.045766 31.676322 
L 61.366148 29.166586 
L 61.686531 29.166586 
L 62.006914 28.076237 
L 62.327297 31.676322 
L 62.647679 28.076237 
L 62.968062 28.076237 
L 63.288445 32.766672 
L 63.929211 32.766672 
L 64.249593 33.511544 
L 64.569976 33.511544 
L 65.210742 36.180104 
L 65.531124 36.180104 
L 65.851507 37.144362 
L 66.17189 37.144362 
L 66.492273 39.784383 
L 67.133038 39.784383 
L 67.453421 40.147626 
L 71.93878 40.147626 
L 72.259163 44.772697 
L 72.579545 44.772697 
L 72.899928 45.13594 
L 73.861077 45.13594 
L 74.181459 46.103523 
L 74.501842 45.13594 
L 77.064904 45.13594 
L 77.385287 46.422164 
L 78.026053 46.422164 
L 78.346435 45.13594 
L 78.666818 46.466765 
L 79.948349 46.466765 
L 80.268732 47.75299 
L 80.589115 47.75299 
L 80.909498 53.510967 
L 81.22988 54.797191 
L 81.550263 54.797191 
L 81.870646 54.243614 
L 82.831794 54.243614 
L 83.152177 53.700356 
L 83.47256 53.909754 
L 84.113325 53.909754 
L 84.433708 53.700356 
L 84.754091 53.700356 
L 85.074474 53.909754 
L 85.715239 53.909754 
L 86.035622 59.318277 
L 86.356005 58.775019 
L 86.99677 52.812918 
L 87.637536 52.812918 
L 87.957919 54.171831 
L 88.278301 57.721943 
L 88.598684 59.127942 
L 88.919067 54.922016 
L 89.23945 60.693782 
L 90.200598 60.693782 
L 90.520981 60.508513 
L 91.161746 60.621998 
L 93.084043 60.621998 
L 93.404426 60.979988 
L 93.724809 60.979988 
L 94.045191 60.621998 
L 94.365574 66.057647 
L 94.685957 66.057647 
L 95.00634 66.712788 
L 95.326722 60.621998 
L 95.647105 61.206704 
L 96.608254 61.206704 
L 96.928636 60.621998 
L 97.249019 66.057647 
L 97.889785 66.057647 
L 98.210167 65.28344 
L 98.53055 68.10006 
L 99.491699 68.10006 
L 99.812081 70.668771 
L 100.452847 70.668771 
L 100.77323 71.253476 
L 101.093612 73.675526 
L 102.054761 73.675526 
L 102.375144 70.036506 
L 102.695526 70.036506 
L 103.015909 71.776816 
L 103.336292 72.361522 
L 103.977057 75.074272 
L 104.938206 75.074272 
L 105.258589 76.814582 
L 105.578971 76.814582 
L 105.899354 77.399287 
L 106.219737 77.399287 
L 106.54012 79.821337 
L 106.860502 77.399287 
L 107.821651 77.399287 
L 108.142033 79.821337 
L 108.462416 79.821337 
L 108.782799 80.406043 
L 109.103182 81.863751 
L 109.423565 78.212402 
L 109.743947 78.081027 
L 110.06433 79.821337 
L 110.705096 79.821337 
L 111.025478 80.179327 
L 111.345861 79.821337 
L 111.666244 79.821337 
L 112.30701 80.764033 
L 112.947775 80.764033 
L 113.268158 79.768548 
L 113.588541 81.166368 
L 113.908923 79.768548 
L 114.549689 79.768548 
L 114.870072 79.478847 
L 115.190455 79.836837 
L 115.510837 78.016839 
L 116.471986 78.016839 
L 116.792368 81.577147 
L 117.112751 81.577147 
L 117.433134 81.826461 
L 117.753517 80.560015 
L 118.394282 80.560015 
L 118.714665 82.458725 
L 119.035048 82.801216 
L 119.355431 84.199035 
L 119.996196 84.199035 
L 120.316579 85.430082 
L 120.636962 84.199035 
L 120.957344 85.430082 
L 121.277727 85.430082 
L 121.59811 88.783645 
L 121.918493 88.783645 
L 122.238876 85.430082 
L 122.559258 88.744737 
L 122.879641 85.430082 
L 123.200024 90.142557 
L 123.520407 93.094972 
L 123.840789 89.563082 
L 124.161172 88.576717 
L 124.801938 94.213446 
L 125.122321 94.213446 
L 125.442703 93.429766 
L 125.763086 94.660812 
L 126.083469 94.660812 
L 126.403852 95.059734 
L 126.724234 95.059734 
L 127.044617 96.780568 
L 127.365 96.780568 
L 127.685383 92.927321 
L 128.005766 93.661915 
L 128.646531 93.661915 
L 128.966914 94.445595 
L 129.287297 95.843415 
L 129.607679 93.899644 
L 131.209593 93.868836 
L 131.529976 95.620478 
L 131.850359 93.868836 
L 132.491124 93.868836 
L 132.811507 94.453542 
L 133.13189 93.868836 
L 133.772656 95.620478 
L 134.093038 95.620478 
L 134.413421 96.967047 
L 134.733804 96.278326 
L 135.694952 96.278326 
L 136.015335 98.151816 
L 136.335718 96.309135 
L 136.6561 97.99916 
L 136.976483 100.654561 
L 137.296866 97.799428 
L 137.617249 96.997122 
L 137.937632 100.654561 
L 138.258014 97.99916 
L 138.578397 99.369863 
L 138.89878 99.369863 
L 139.539545 102.056073 
L 139.859928 102.025265 
L 140.180311 98.72524 
L 140.500694 98.72524 
L 140.821077 102.514594 
L 141.141459 98.694432 
L 141.461842 100.283627 
L 141.782225 100.283627 
L 142.102608 100.095944 
L 143.704522 100.095944 
L 144.024904 104.251589 
L 144.345287 100.065135 
L 144.66567 100.755605 
L 144.986053 100.283627 
L 145.306435 101.999423 
L 145.626818 101.999423 
L 145.947201 102.657511 
L 146.267584 102.911694 
L 146.587967 104.282398 
L 146.908349 102.880886 
L 147.869498 102.880886 
L 148.18988 103.16124 
L 148.510263 102.662394 
L 149.151029 103.16124 
L 149.471411 106.015608 
L 150.43256 106.015608 
L 150.752943 107.386312 
L 151.393708 107.386312 
L 151.714091 107.85652 
L 152.034474 107.386312 
L 152.354856 107.386312 
L 152.675239 107.887329 
L 152.995622 107.887329 
L 153.316005 106.578488 
L 153.636388 107.976308 
L 153.95677 110.75868 
L 154.597536 110.75868 
L 154.917919 112.1565 
L 155.238301 112.601362 
L 156.19945 112.601362 
L 156.519833 112.021886 
L 156.840215 112.021886 
L 157.160598 112.601362 
L 158.121746 112.601362 
L 158.442129 112.021886 
L 160.044043 112.021886 
L 160.364426 112.601362 
L 160.684809 112.601362 
L 161.005191 111.998166 
L 161.325574 114.832328 
L 161.645957 115.783841 
L 161.96634 114.832328 
L 162.286722 114.832328 
L 162.607105 114.245269 
L 162.927488 114.245269 
L 163.247871 114.832328 
L 163.568254 115.922678 
L 163.888636 115.922678 
L 164.209019 114.245269 
L 165.170167 114.229132 
L 165.49055 115.180645 
L 165.810933 115.015984 
L 166.451699 115.015984 
L 166.772081 114.593585 
L 167.092464 114.412788 
L 167.73323 115.757722 
L 168.053612 115.757722 
L 168.373995 114.221073 
L 169.335144 114.221073 
L 169.655526 114.991788 
L 170.616675 114.991788 
L 170.937057 111.594398 
L 171.25744 111.594398 
L 171.577823 113.830501 
L 171.898206 113.830501 
L 172.218589 114.782013 
L 172.859354 114.782013 
L 173.179737 114.388592 
L 173.50012 114.782013 
L 174.461268 114.782013 
L 174.781651 113.617877 
L 175.102033 115.178184 
L 175.422416 114.782013 
L 175.742799 114.178817 
L 176.703947 114.178817 
L 177.02433 114.782013 
L 177.344713 114.782013 
L 177.665096 121.700748 
L 178.626244 121.700748 
L 178.946627 122.096919 
L 179.26701 121.097552 
L 179.587392 121.097552 
L 179.907775 122.096919 
L 180.228158 122.096919 
L 180.548541 121.097552 
L 180.868923 121.700748 
L 182.79122 121.76777 
L 183.111603 119.476787 
L 183.431986 121.76777 
L 184.393134 121.76777 
L 184.713517 121.163832 
L 185.0339 121.699949 
L 185.354282 121.163832 
L 185.674665 120.326837 
L 185.995048 120.326837 
L 186.315431 120.944123 
L 186.635813 122.236865 
L 186.956196 122.236865 
L 187.276579 122.549789 
L 187.596962 120.459368 
L 187.917344 122.236865 
L 188.237727 122.236865 
L 188.55811 122.94596 
L 188.878493 120.326837 
L 189.198876 120.326837 
L 189.519258 120.855539 
L 190.480407 120.855539 
L 190.800789 120.459368 
L 191.121172 122.236865 
L 191.441555 122.236865 
L 191.761938 121.163832 
L 192.082321 121.163832 
L 192.402703 121.83405 
L 192.723086 121.700748 
L 193.043469 122.882822 
L 193.363852 123.061645 
L 193.684234 125.867628 
L 194.004617 125.867628 
L 194.645383 123.220007 
L 194.965766 122.683091 
L 195.286148 122.683091 
L 195.606531 121.591189 
L 195.926914 121.591189 
L 196.247297 123.751087 
L 196.567679 123.756124 
L 196.888062 125.336548 
L 197.208445 126.185589 
L 198.169593 126.185589 
L 198.489976 125.515371 
L 199.130742 127.098748 
L 199.451124 125.648673 
L 199.771507 125.629805 
L 200.09189 131.653414 
L 200.412273 125.629805 
L 200.732656 124.919505 
L 201.053038 125.629805 
L 201.373421 125.629805 
L 201.693804 124.383387 
L 202.014187 127.386968 
L 202.654952 127.392005 
L 203.295718 134.954149 
L 203.6161 134.081986 
L 204.897632 134.101211 
L 205.218014 132.32875 
L 205.538397 134.101211 
L 205.85878 134.101211 
L 206.179163 135.700171 
L 206.499545 136.26892 
L 206.819928 136.26892 
L 207.140311 134.625087 
L 207.781077 134.613067 
L 208.101459 136.26892 
L 208.421842 135.136943 
L 208.742225 135.136943 
L 209.062608 136.780776 
L 209.38299 136.780776 
L 209.703373 134.568194 
L 210.344139 133.563836 
L 210.664522 134.613587 
L 210.984904 136.824392 
L 211.305287 135.104831 
L 211.946053 135.149704 
L 212.266435 135.699893 
L 212.586818 137.595767 
L 213.547967 137.595767 
L 213.868349 137.317414 
L 214.188732 136.052664 
L 214.509115 135.996807 
L 214.829498 136.780498 
L 216.111029 136.780498 
L 216.431411 136.554319 
L 216.751794 136.880319 
L 217.072177 136.554319 
L 217.39256 137.839315 
L 217.712943 138.150209 
L 218.033325 138.150209 
L 218.353708 135.707659 
L 218.674091 138.331816 
L 218.994474 139.715835 
L 219.314856 136.151067 
L 219.635239 139.422166 
L 219.955622 138.331816 
L 220.276005 137.7949 
L 220.596388 139.178919 
L 221.237153 139.063822 
L 221.557536 143.46232 
L 221.877919 140.358929 
L 222.198301 140.239711 
L 222.518684 139.063822 
L 222.839067 139.178919 
L 223.15945 138.9429 
L 223.479833 139.715835 
L 223.800215 139.715835 
L 224.120598 139.184754 
L 224.440981 139.715835 
L 224.761364 139.184754 
L 225.081746 141.701937 
L 225.402129 139.499058 
L 225.722512 138.726124 
L 226.363278 138.726124 
L 226.68366 139.647152 
L 227.004043 138.726124 
L 227.324426 138.726124 
L 227.644809 138.195044 
L 228.605957 138.195044 
L 228.92634 138.726124 
L 229.246722 143.168238 
L 229.567105 138.129475 
L 229.887488 141.68973 
L 230.207871 140.021231 
L 230.528254 140.641294 
L 230.848636 142.994518 
L 231.809785 142.994518 
L 232.130167 142.637158 
L 232.45055 142.861926 
L 232.770933 141.68973 
L 233.091316 141.68973 
L 233.411699 143.402427 
L 234.052464 143.402427 
L 234.372847 146.619308 
L 234.69323 143.10378 
L 235.013612 142.840873 
L 235.333995 142.840873 
L 235.654378 147.800925 
L 235.974761 147.800925 
L 236.295144 149.239389 
L 236.615526 149.239389 
L 236.935909 148.379244 
L 237.576675 148.852969 
L 237.897057 147.835006 
L 238.21744 150.751272 
L 238.858206 145.795101 
L 239.178589 148.633534 
L 239.498971 149.180565 
L 239.819354 150.132078 
L 240.139737 148.057772 
L 240.46012 150.534496 
L 240.780502 149.352879 
L 241.100885 149.352879 
L 241.421268 150.534496 
L 241.741651 150.534496 
L 242.062033 153.294307 
L 242.702799 153.294307 
L 243.023182 148.698887 
L 243.343565 151.175612 
L 243.663947 148.698887 
L 243.98433 149.352879 
L 244.304713 148.815963 
L 244.625096 148.815963 
L 244.945478 152.11269 
L 245.265861 149.993995 
L 245.586244 149.993995 
L 245.906627 150.534496 
L 246.22701 147.993967 
L 246.547392 152.868541 
L 246.867775 151.51604 
L 247.188158 152.697657 
L 247.508541 151.252545 
L 247.828923 151.252545 
L 248.149306 154.067241 
L 248.469689 155.628352 
L 249.430837 155.628352 
L 249.75122 149.674351 
L 250.391986 149.674351 
L 250.712368 148.69587 
L 251.032751 149.088373 
L 251.353134 152.984466 
L 251.9939 149.088373 
L 252.314282 149.088373 
L 252.634665 150.65994 
L 252.955048 150.063291 
L 253.275431 149.088373 
L 253.916196 153.59497 
L 254.236579 152.604036 
L 254.556962 152.171413 
L 254.877344 158.247653 
L 255.197727 157.387509 
L 256.479258 157.387509 
L 256.799641 156.790859 
L 257.120024 155.072326 
L 257.440407 160.903171 
L 258.721938 160.903171 
L 259.042321 160.67907 
L 260.003469 160.67907 
L 260.323852 160.366255 
L 260.644234 159.769606 
L 260.964617 160.366255 
L 261.285 163.164443 
L 261.925766 163.164443 
L 262.246148 160.67907 
L 262.566531 164.082156 
L 262.886914 164.082156 
L 263.207297 159.46014 
L 263.527679 161.031707 
L 264.168445 161.031707 
L 264.488828 162.726047 
L 265.770359 162.726047 
L 266.090742 161.89408 
L 266.731507 161.89408 
L 267.05189 163.535044 
L 267.372273 164.547369 
L 267.692656 162.713007 
L 268.974187 162.713007 
L 269.294569 164.010453 
L 270.896483 164.010453 
L 271.216866 164.795003 
L 271.537249 164.795003 
L 271.857632 164.010453 
L 272.178014 165.071245 
L 272.498397 163.249923 
L 273.139163 163.249923 
L 273.459545 165.071245 
L 273.779928 165.071245 
L 274.100311 167.040099 
L 274.741077 167.040099 
L 275.061459 163.391866 
L 275.381842 167.040099 
L 275.702225 168.846879 
L 276.022608 168.846879 
L 276.34299 170.003764 
L 276.663373 164.239279 
L 276.983756 170.003764 
L 277.944904 170.003764 
L 278.265287 171.361366 
L 278.58567 171.361366 
L 278.906053 171.912767 
L 279.546818 170.428053 
L 279.867201 169.171798 
L 280.507967 171.838023 
L 280.828349 170.003764 
L 281.789498 170.003764 
L 282.10988 170.963132 
L 282.430263 170.131166 
L 282.750646 170.131166 
L 283.071029 168.656614 
L 284.032177 168.656614 
L 284.35256 171.476303 
L 284.993325 169.24575 
L 285.313708 170.490872 
L 285.634091 172.432248 
L 286.274856 172.432248 
L 286.595239 173.459058 
L 287.236005 173.459058 
L 287.556388 184.568877 
L 287.87677 186.403136 
L 288.197153 187.008131 
L 288.517536 187.964075 
L 288.837919 187.008131 
L 289.158301 187.008131 
L 289.478684 187.543735 
L 289.799067 187.487419 
L 290.11945 187.008131 
L 290.439833 187.008131 
L 290.760215 189.448859 
L 291.080598 189.448859 
L 291.400981 187.526402 
L 291.721364 187.526402 
L 292.041746 188.890249 
L 292.362129 189.28758 
L 292.682512 188.378706 
L 293.64366 188.378706 
L 293.964043 187.674897 
L 294.284426 189.113075 
L 294.604809 189.113075 
L 294.925191 189.920363 
L 295.245574 195.557877 
L 295.565957 189.920363 
L 295.88634 189.920363 
L 296.206722 189.743714 
L 296.527105 189.920363 
L 297.808636 189.923787 
L 298.129019 194.937814 
L 298.449402 189.619265 
L 298.769785 192.294318 
L 299.090167 192.845451 
L 299.41055 183.121115 
L 299.730933 185.457194 
L 300.051316 189.692673 
L 300.371699 189.793107 
L 301.012464 191.719199 
L 301.332847 191.719199 
L 301.65323 190.929948 
L 301.973612 192.343174 
L 302.293995 192.343174 
L 302.934761 196.847764 
L 303.255144 194.937472 
L 303.575526 189.88888 
L 304.216292 189.88888 
L 304.536675 193.371042 
L 304.857057 194.916122 
L 305.818206 194.916122 
L 306.138589 193.204018 
L 306.458971 194.412603 
L 307.740502 194.412603 
L 308.060885 194.888012 
L 308.381268 194.888012 
L 308.701651 186.876175 
L 309.022033 188.58828 
L 309.342416 186.876175 
L 309.983182 186.876175 
L 310.303565 188.58828 
L 310.623947 195.957683 
L 310.94433 198.491631 
L 311.264713 198.491631 
L 311.585096 192.503892 
L 311.905478 192.503892 
L 312.225861 193.780875 
L 312.866627 193.861494 
L 313.18701 193.780875 
L 313.507392 196.566825 
L 313.827775 192.693273 
L 314.148158 194.414184 
L 314.468541 197.30285 
L 314.788923 197.30285 
L 315.109306 195.854868 
L 315.429689 196.254948 
L 316.390837 196.254948 
L 316.71122 201.02171 
L 317.031603 201.02171 
L 317.351986 197.073394 
L 317.672368 197.073394 
L 317.992751 198.350377 
L 318.313134 201.594865 
L 318.633517 198.618475 
L 318.9539 200.317882 
L 319.274282 202.681408 
L 319.594665 200.317882 
L 319.915048 202.681408 
L 320.235431 202.681408 
L 320.555813 199.895458 
L 320.876196 199.499287 
L 321.196579 201.409579 
L 324.080024 201.409579 
L 324.400407 200.321977 
L 324.720789 200.321977 
L 325.041172 204.619751 
L 325.361555 200.321977 
L 325.681938 201.578232 
L 326.002321 200.321977 
L 326.322703 205.269462 
L 326.643086 205.269462 
L 326.963469 204.38491 
L 327.283852 205.641165 
L 327.604234 205.511162 
L 329.206148 205.511162 
L 329.526531 208.030463 
L 329.846914 205.511162 
L 330.167297 205.37812 
L 330.487679 205.511162 
L 330.808062 205.37812 
L 331.128445 206.768742 
L 331.448828 209.070737 
L 331.769211 205.37812 
L 332.409976 205.37812 
L 332.730359 205.93244 
L 333.050742 205.93244 
L 333.371124 206.635699 
L 333.691507 210.618267 
L 334.332273 210.618267 
L 334.652656 211.875847 
L 335.293421 211.875847 
L 335.934187 215.116327 
L 336.574952 215.116327 
L 337.215718 217.19063 
L 337.5361 214.530902 
L 337.856483 214.530902 
L 338.176866 216.373907 
L 339.138014 216.373907 
L 339.458397 218.6441 
L 339.77878 216.373907 
L 340.099163 218.479005 
L 340.419545 218.479005 
L 340.739928 216.373907 
L 341.701077 216.373907 
L 342.021459 217.009888 
L 342.341842 215.973826 
L 342.662225 215.973826 
L 342.982608 217.38652 
L 343.30299 215.973826 
L 343.623373 216.373907 
L 343.943756 215.788482 
L 344.264139 215.788482 
L 344.584522 217.38652 
L 345.225287 217.38652 
L 345.866053 215.973826 
L 346.186435 218.022501 
L 346.506818 218.88 
L 346.506818 218.88 
" clip-path="url(#p456b107c4f)" style="fill: none; stroke: #1f77b4; stroke-width: 1.5; stroke-linecap: square"/>
   </g>
   <g id="patch_3">
    <path d="M 26.925 228.96 
L 26.925 7.2 
" style="fill: none; stroke: #000000; stroke-width: 0.8; stroke-linejoin: miter; stroke-linecap: square"/>
   </g>
   <g id="patch_4">
    <path d="M 361.725 228.96 
L 361.725 7.2 
" style="fill: none; stroke: #000000; stroke-width: 0.8; stroke-linejoin: miter; stroke-linecap: square"/>
   </g>
   <g id="patch_5">
    <path d="M 26.925 228.96 
L 361.725 228.96 
" style="fill: none; stroke: #000000; stroke-width: 0.8; stroke-linejoin: miter; stroke-linecap: square"/>
   </g>
   <g id="patch_6">
    <path d="M 26.925 7.2 
L 361.725 7.2 
" style="fill: none; stroke: #000000; stroke-width: 0.8; stroke-linejoin: miter; stroke-linecap: square"/>
   </g>
  </g>
 </g>
 <defs>
  <clipPath id="p456b107c4f">
   <rect x="26.925" y="7.2" width="334.8" height="221.76"/>
  </clipPath>
 </defs>
</svg>
