<?xml version="1.0" encoding="utf-8" standalone="no"?>
<!DOCTYPE svg PUBLIC "-//W3C//DTD SVG 1.1//EN"
  "http://www.w3.org/Graphics/SVG/1.1/DTD/svg11.dtd">
<svg xmlns:xlink="http://www.w3.org/1999/xlink" width="372.103125pt" height="252.838125pt" viewBox="0 0 372.103125 252.838125" xmlns="http://www.w3.org/2000/svg" version="1.1">
 <metadata>
  <rdf:RDF xmlns:dc="http://purl.org/dc/elements/1.1/" xmlns:cc="http://creativecommons.org/ns#" xmlns:rdf="http://www.w3.org/1999/02/22-rdf-syntax-ns#">
   <cc:Work>
    <dc:type rdf:resource="http://purl.org/dc/dcmitype/StillImage"/>
    <dc:date>2023-04-18T05:45:43.284287</dc:date>
    <dc:format>image/svg+xml</dc:format>
    <dc:creator>
     <cc:Agent>
      <dc:title>Matplotlib v3.7.1, https://matplotlib.org/</dc:title>
     </cc:Agent>
    </dc:creator>
   </cc:Work>
  </rdf:RDF>
 </metadata>
 <defs>
  <style type="text/css">*{stroke-linejoin: round; stroke-linecap: butt}</style>
 </defs>
 <g id="figure_1">
  <g id="patch_1">
   <path d="M 0 252.838125 
L 372.103125 252.838125 
L 372.103125 0 
L 0 0 
z
" style="fill: #ffffff"/>
  </g>
  <g id="axes_1">
   <g id="patch_2">
    <path d="M 30.103125 228.96 
L 364.903125 228.96 
L 364.903125 7.2 
L 30.103125 7.2 
z
" style="fill: #ffffff"/>
   </g>
   <g id="matplotlib.axis_1">
    <g id="xtick_1">
     <g id="line2d_1">
      <defs>
       <path id="m5fb64e4952" d="M 0 0 
L 0 3.5 
" style="stroke: #000000; stroke-width: 0.8"/>
      </defs>
      <g>
       <use xlink:href="#m5fb64e4952" x="45.321307" y="228.96" style="stroke: #000000; stroke-width: 0.8"/>
      </g>
     </g>
     <g id="text_1">
      <!-- 0 -->
      <g transform="translate(42.140057 243.558437) scale(0.1 -0.1)">
       <defs>
        <path id="DejaVuSans-30" d="M 2034 4250 
Q 1547 4250 1301 3770 
Q 1056 3291 1056 2328 
Q 1056 1369 1301 889 
Q 1547 409 2034 409 
Q 2525 409 2770 889 
Q 3016 1369 3016 2328 
Q 3016 3291 2770 3770 
Q 2525 4250 2034 4250 
z
M 2034 4750 
Q 2819 4750 3233 4129 
Q 3647 3509 3647 2328 
Q 3647 1150 3233 529 
Q 2819 -91 2034 -91 
Q 1250 -91 836 529 
Q 422 1150 422 2328 
Q 422 3509 836 4129 
Q 1250 4750 2034 4750 
z
" transform="scale(0.015625)"/>
       </defs>
       <use xlink:href="#DejaVuSans-30"/>
      </g>
     </g>
    </g>
    <g id="xtick_2">
     <g id="line2d_2">
      <g>
       <use xlink:href="#m5fb64e4952" x="106.194034" y="228.96" style="stroke: #000000; stroke-width: 0.8"/>
      </g>
     </g>
     <g id="text_2">
      <!-- 200 -->
      <g transform="translate(96.650284 243.558437) scale(0.1 -0.1)">
       <defs>
        <path id="DejaVuSans-32" d="M 1228 531 
L 3431 531 
L 3431 0 
L 469 0 
L 469 531 
Q 828 903 1448 1529 
Q 2069 2156 2228 2338 
Q 2531 2678 2651 2914 
Q 2772 3150 2772 3378 
Q 2772 3750 2511 3984 
Q 2250 4219 1831 4219 
Q 1534 4219 1204 4116 
Q 875 4013 500 3803 
L 500 4441 
Q 881 4594 1212 4672 
Q 1544 4750 1819 4750 
Q 2544 4750 2975 4387 
Q 3406 4025 3406 3419 
Q 3406 3131 3298 2873 
Q 3191 2616 2906 2266 
Q 2828 2175 2409 1742 
Q 1991 1309 1228 531 
z
" transform="scale(0.015625)"/>
       </defs>
       <use xlink:href="#DejaVuSans-32"/>
       <use xlink:href="#DejaVuSans-30" x="63.623047"/>
       <use xlink:href="#DejaVuSans-30" x="127.246094"/>
      </g>
     </g>
    </g>
    <g id="xtick_3">
     <g id="line2d_3">
      <g>
       <use xlink:href="#m5fb64e4952" x="167.066761" y="228.96" style="stroke: #000000; stroke-width: 0.8"/>
      </g>
     </g>
     <g id="text_3">
      <!-- 400 -->
      <g transform="translate(157.523011 243.558437) scale(0.1 -0.1)">
       <defs>
        <path id="DejaVuSans-34" d="M 2419 4116 
L 825 1625 
L 2419 1625 
L 2419 4116 
z
M 2253 4666 
L 3047 4666 
L 3047 1625 
L 3713 1625 
L 3713 1100 
L 3047 1100 
L 3047 0 
L 2419 0 
L 2419 1100 
L 313 1100 
L 313 1709 
L 2253 4666 
z
" transform="scale(0.015625)"/>
       </defs>
       <use xlink:href="#DejaVuSans-34"/>
       <use xlink:href="#DejaVuSans-30" x="63.623047"/>
       <use xlink:href="#DejaVuSans-30" x="127.246094"/>
      </g>
     </g>
    </g>
    <g id="xtick_4">
     <g id="line2d_4">
      <g>
       <use xlink:href="#m5fb64e4952" x="227.939489" y="228.96" style="stroke: #000000; stroke-width: 0.8"/>
      </g>
     </g>
     <g id="text_4">
      <!-- 600 -->
      <g transform="translate(218.395739 243.558437) scale(0.1 -0.1)">
       <defs>
        <path id="DejaVuSans-36" d="M 2113 2584 
Q 1688 2584 1439 2293 
Q 1191 2003 1191 1497 
Q 1191 994 1439 701 
Q 1688 409 2113 409 
Q 2538 409 2786 701 
Q 3034 994 3034 1497 
Q 3034 2003 2786 2293 
Q 2538 2584 2113 2584 
z
M 3366 4563 
L 3366 3988 
Q 3128 4100 2886 4159 
Q 2644 4219 2406 4219 
Q 1781 4219 1451 3797 
Q 1122 3375 1075 2522 
Q 1259 2794 1537 2939 
Q 1816 3084 2150 3084 
Q 2853 3084 3261 2657 
Q 3669 2231 3669 1497 
Q 3669 778 3244 343 
Q 2819 -91 2113 -91 
Q 1303 -91 875 529 
Q 447 1150 447 2328 
Q 447 3434 972 4092 
Q 1497 4750 2381 4750 
Q 2619 4750 2861 4703 
Q 3103 4656 3366 4563 
z
" transform="scale(0.015625)"/>
       </defs>
       <use xlink:href="#DejaVuSans-36"/>
       <use xlink:href="#DejaVuSans-30" x="63.623047"/>
       <use xlink:href="#DejaVuSans-30" x="127.246094"/>
      </g>
     </g>
    </g>
    <g id="xtick_5">
     <g id="line2d_5">
      <g>
       <use xlink:href="#m5fb64e4952" x="288.812216" y="228.96" style="stroke: #000000; stroke-width: 0.8"/>
      </g>
     </g>
     <g id="text_5">
      <!-- 800 -->
      <g transform="translate(279.268466 243.558437) scale(0.1 -0.1)">
       <defs>
        <path id="DejaVuSans-38" d="M 2034 2216 
Q 1584 2216 1326 1975 
Q 1069 1734 1069 1313 
Q 1069 891 1326 650 
Q 1584 409 2034 409 
Q 2484 409 2743 651 
Q 3003 894 3003 1313 
Q 3003 1734 2745 1975 
Q 2488 2216 2034 2216 
z
M 1403 2484 
Q 997 2584 770 2862 
Q 544 3141 544 3541 
Q 544 4100 942 4425 
Q 1341 4750 2034 4750 
Q 2731 4750 3128 4425 
Q 3525 4100 3525 3541 
Q 3525 3141 3298 2862 
Q 3072 2584 2669 2484 
Q 3125 2378 3379 2068 
Q 3634 1759 3634 1313 
Q 3634 634 3220 271 
Q 2806 -91 2034 -91 
Q 1263 -91 848 271 
Q 434 634 434 1313 
Q 434 1759 690 2068 
Q 947 2378 1403 2484 
z
M 1172 3481 
Q 1172 3119 1398 2916 
Q 1625 2713 2034 2713 
Q 2441 2713 2670 2916 
Q 2900 3119 2900 3481 
Q 2900 3844 2670 4047 
Q 2441 4250 2034 4250 
Q 1625 4250 1398 4047 
Q 1172 3844 1172 3481 
z
" transform="scale(0.015625)"/>
       </defs>
       <use xlink:href="#DejaVuSans-38"/>
       <use xlink:href="#DejaVuSans-30" x="63.623047"/>
       <use xlink:href="#DejaVuSans-30" x="127.246094"/>
      </g>
     </g>
    </g>
    <g id="xtick_6">
     <g id="line2d_6">
      <g>
       <use xlink:href="#m5fb64e4952" x="349.684943" y="228.96" style="stroke: #000000; stroke-width: 0.8"/>
      </g>
     </g>
     <g id="text_6">
      <!-- 1000 -->
      <g transform="translate(336.959943 243.558437) scale(0.1 -0.1)">
       <defs>
        <path id="DejaVuSans-31" d="M 794 531 
L 1825 531 
L 1825 4091 
L 703 3866 
L 703 4441 
L 1819 4666 
L 2450 4666 
L 2450 531 
L 3481 531 
L 3481 0 
L 794 0 
L 794 531 
z
" transform="scale(0.015625)"/>
       </defs>
       <use xlink:href="#DejaVuSans-31"/>
       <use xlink:href="#DejaVuSans-30" x="63.623047"/>
       <use xlink:href="#DejaVuSans-30" x="127.246094"/>
       <use xlink:href="#DejaVuSans-30" x="190.869141"/>
      </g>
     </g>
    </g>
   </g>
   <g id="matplotlib.axis_2">
    <g id="ytick_1">
     <g id="line2d_7">
      <defs>
       <path id="mbfa35d14af" d="M 0 0 
L -3.5 0 
" style="stroke: #000000; stroke-width: 0.8"/>
      </defs>
      <g>
       <use xlink:href="#mbfa35d14af" x="30.103125" y="218.376468" style="stroke: #000000; stroke-width: 0.8"/>
      </g>
     </g>
     <g id="text_7">
      <!-- 1.5 -->
      <g transform="translate(7.2 222.175687) scale(0.1 -0.1)">
       <defs>
        <path id="DejaVuSans-2e" d="M 684 794 
L 1344 794 
L 1344 0 
L 684 0 
L 684 794 
z
" transform="scale(0.015625)"/>
        <path id="DejaVuSans-35" d="M 691 4666 
L 3169 4666 
L 3169 4134 
L 1269 4134 
L 1269 2991 
Q 1406 3038 1543 3061 
Q 1681 3084 1819 3084 
Q 2600 3084 3056 2656 
Q 3513 2228 3513 1497 
Q 3513 744 3044 326 
Q 2575 -91 1722 -91 
Q 1428 -91 1123 -41 
Q 819 9 494 109 
L 494 744 
Q 775 591 1075 516 
Q 1375 441 1709 441 
Q 2250 441 2565 725 
Q 2881 1009 2881 1497 
Q 2881 1984 2565 2268 
Q 2250 2553 1709 2553 
Q 1456 2553 1204 2497 
Q 953 2441 691 2322 
L 691 4666 
z
" transform="scale(0.015625)"/>
       </defs>
       <use xlink:href="#DejaVuSans-31"/>
       <use xlink:href="#DejaVuSans-2e" x="63.623047"/>
       <use xlink:href="#DejaVuSans-35" x="95.410156"/>
      </g>
     </g>
    </g>
    <g id="ytick_2">
     <g id="line2d_8">
      <g>
       <use xlink:href="#mbfa35d14af" x="30.103125" y="177.812263" style="stroke: #000000; stroke-width: 0.8"/>
      </g>
     </g>
     <g id="text_8">
      <!-- 2.0 -->
      <g transform="translate(7.2 181.611482) scale(0.1 -0.1)">
       <use xlink:href="#DejaVuSans-32"/>
       <use xlink:href="#DejaVuSans-2e" x="63.623047"/>
       <use xlink:href="#DejaVuSans-30" x="95.410156"/>
      </g>
     </g>
    </g>
    <g id="ytick_3">
     <g id="line2d_9">
      <g>
       <use xlink:href="#mbfa35d14af" x="30.103125" y="137.248058" style="stroke: #000000; stroke-width: 0.8"/>
      </g>
     </g>
     <g id="text_9">
      <!-- 2.5 -->
      <g transform="translate(7.2 141.047277) scale(0.1 -0.1)">
       <use xlink:href="#DejaVuSans-32"/>
       <use xlink:href="#DejaVuSans-2e" x="63.623047"/>
       <use xlink:href="#DejaVuSans-35" x="95.410156"/>
      </g>
     </g>
    </g>
    <g id="ytick_4">
     <g id="line2d_10">
      <g>
       <use xlink:href="#mbfa35d14af" x="30.103125" y="96.683853" style="stroke: #000000; stroke-width: 0.8"/>
      </g>
     </g>
     <g id="text_10">
      <!-- 3.0 -->
      <g transform="translate(7.2 100.483072) scale(0.1 -0.1)">
       <defs>
        <path id="DejaVuSans-33" d="M 2597 2516 
Q 3050 2419 3304 2112 
Q 3559 1806 3559 1356 
Q 3559 666 3084 287 
Q 2609 -91 1734 -91 
Q 1441 -91 1130 -33 
Q 819 25 488 141 
L 488 750 
Q 750 597 1062 519 
Q 1375 441 1716 441 
Q 2309 441 2620 675 
Q 2931 909 2931 1356 
Q 2931 1769 2642 2001 
Q 2353 2234 1838 2234 
L 1294 2234 
L 1294 2753 
L 1863 2753 
Q 2328 2753 2575 2939 
Q 2822 3125 2822 3475 
Q 2822 3834 2567 4026 
Q 2313 4219 1838 4219 
Q 1578 4219 1281 4162 
Q 984 4106 628 3988 
L 628 4550 
Q 988 4650 1302 4700 
Q 1616 4750 1894 4750 
Q 2613 4750 3031 4423 
Q 3450 4097 3450 3541 
Q 3450 3153 3228 2886 
Q 3006 2619 2597 2516 
z
" transform="scale(0.015625)"/>
       </defs>
       <use xlink:href="#DejaVuSans-33"/>
       <use xlink:href="#DejaVuSans-2e" x="63.623047"/>
       <use xlink:href="#DejaVuSans-30" x="95.410156"/>
      </g>
     </g>
    </g>
    <g id="ytick_5">
     <g id="line2d_11">
      <g>
       <use xlink:href="#mbfa35d14af" x="30.103125" y="56.119648" style="stroke: #000000; stroke-width: 0.8"/>
      </g>
     </g>
     <g id="text_11">
      <!-- 3.5 -->
      <g transform="translate(7.2 59.918867) scale(0.1 -0.1)">
       <use xlink:href="#DejaVuSans-33"/>
       <use xlink:href="#DejaVuSans-2e" x="63.623047"/>
       <use xlink:href="#DejaVuSans-35" x="95.410156"/>
      </g>
     </g>
    </g>
    <g id="ytick_6">
     <g id="line2d_12">
      <g>
       <use xlink:href="#mbfa35d14af" x="30.103125" y="15.555443" style="stroke: #000000; stroke-width: 0.8"/>
      </g>
     </g>
     <g id="text_12">
      <!-- 4.0 -->
      <g transform="translate(7.2 19.354662) scale(0.1 -0.1)">
       <use xlink:href="#DejaVuSans-34"/>
       <use xlink:href="#DejaVuSans-2e" x="63.623047"/>
       <use xlink:href="#DejaVuSans-30" x="95.410156"/>
      </g>
     </g>
    </g>
   </g>
   <g id="line2d_13">
    <path d="M 45.321307 218.88 
L 45.62567 193.030078 
L 45.930034 210.863067 
L 46.234398 204.109464 
L 46.538761 210.585229 
L 46.843125 175.397738 
L 47.147489 213.662215 
L 47.451852 193.585696 
L 47.756216 211.729861 
L 48.364943 211.729861 
L 48.669307 211.272828 
L 48.97367 214.30988 
L 49.278034 211.729861 
L 49.582398 211.563616 
L 50.191125 205.292406 
L 50.495489 209.002321 
L 50.799852 209.219536 
L 51.104216 213.391209 
L 51.40858 209.326604 
L 51.712943 213.391209 
L 52.017307 211.554892 
L 52.32167 211.130649 
L 53.539125 210.491811 
L 53.843489 210.491811 
L 54.147852 210.341095 
L 54.452216 210.37309 
L 54.75658 210.251498 
L 55.060943 210.376927 
L 55.365307 208.867359 
L 55.974034 208.771471 
L 56.278398 209.440076 
L 56.582761 207.447447 
L 56.887125 207.235305 
L 57.191489 206.805492 
L 57.495852 207.167027 
L 57.800216 207.124384 
L 58.10458 206.873115 
L 58.408943 206.873115 
L 58.713307 206.557419 
L 59.01767 206.557419 
L 59.322034 205.892925 
L 59.626398 206.260529 
L 59.930761 205.045756 
L 60.235125 206.140771 
L 60.539489 204.833725 
L 61.148216 204.833725 
L 61.45258 204.967399 
L 61.756943 204.852656 
L 62.061307 203.415455 
L 62.36567 203.415455 
L 62.670034 201.85226 
L 62.974398 203.716582 
L 63.278761 201.49398 
L 63.583125 201.49398 
L 63.887489 200.290068 
L 64.191852 200.183039 
L 64.496216 202.846181 
L 64.80058 199.845457 
L 65.104943 199.750074 
L 65.409307 200.740254 
L 66.018034 200.649022 
L 66.322398 198.861362 
L 66.626761 199.933808 
L 66.931125 199.933808 
L 67.235489 199.655635 
L 67.539852 199.902353 
L 67.844216 199.770074 
L 68.14858 199.770074 
L 68.452943 199.206451 
L 69.06167 199.605841 
L 69.366034 199.042218 
L 69.670398 198.943098 
L 69.974761 198.038789 
L 70.887852 197.897966 
L 71.192216 197.973676 
L 71.49658 198.227286 
L 72.105307 197.680685 
L 72.40967 197.766195 
L 72.714034 197.667564 
L 73.018398 197.344851 
L 73.322761 197.344851 
L 73.627125 196.950719 
L 73.931489 197.624287 
L 74.84458 197.532991 
L 75.148943 195.288758 
L 75.453307 197.169548 
L 75.75767 194.78599 
L 76.062034 194.57485 
L 76.366398 197.351033 
L 76.670761 195.059417 
L 76.975125 197.186032 
L 77.279489 196.145772 
L 77.583852 194.660807 
L 77.888216 194.003963 
L 78.19258 194.969836 
L 78.801307 194.876725 
L 79.10567 194.468732 
L 80.323125 194.443759 
L 80.627489 194.236518 
L 80.931852 194.236518 
L 81.236216 191.293986 
L 82.758034 190.871036 
L 83.062398 190.871036 
L 83.366761 190.704721 
L 83.671125 191.278392 
L 83.975489 191.278392 
L 84.584216 189.122826 
L 84.88858 190.575492 
L 85.497307 190.199052 
L 85.80167 189.972183 
L 86.106034 190.098432 
L 86.714761 189.523296 
L 87.019125 186.799421 
L 87.323489 186.45253 
L 87.932216 186.45253 
L 88.23658 186.0018 
L 88.540943 188.941224 
L 88.845307 185.699957 
L 89.454034 185.623259 
L 89.758398 185.518553 
L 90.062761 185.623259 
L 90.671489 185.271318 
L 90.975852 185.501818 
L 91.58458 185.403823 
L 91.888943 184.154694 
L 92.193307 184.538474 
L 92.49767 182.854241 
L 92.802034 183.950512 
L 93.106398 183.950512 
L 93.410761 180.029099 
L 93.715125 183.136724 
L 94.019489 182.052257 
L 94.323852 179.968548 
L 94.628216 182.052257 
L 94.93258 179.666948 
L 95.236943 179.666948 
L 95.541307 181.875216 
L 95.84567 179.449689 
L 96.150034 179.595861 
L 96.454398 179.18961 
L 97.063125 179.105798 
L 97.367489 178.298776 
L 97.671852 178.145201 
L 97.976216 178.145201 
L 98.28058 178.871906 
L 98.584943 177.707054 
L 98.889307 178.144915 
L 99.19367 178.037157 
L 99.498034 177.664008 
L 99.802398 176.476425 
L 100.106761 176.1579 
L 101.019852 176.1579 
L 101.324216 177.624849 
L 101.62858 174.752862 
L 101.932943 177.513376 
L 102.237307 175.393871 
L 102.54167 174.842716 
L 102.846034 176.91738 
L 103.150398 175.673997 
L 103.454761 176.898247 
L 103.759125 175.042651 
L 104.97658 174.935005 
L 105.280943 174.20565 
L 105.585307 174.930741 
L 105.88967 174.810504 
L 106.194034 174.13569 
L 106.498398 176.353983 
L 106.802761 173.396337 
L 107.107125 176.307524 
L 107.411489 176.163281 
L 107.715852 174.616471 
L 108.32458 174.327218 
L 108.628943 175.753982 
L 108.933307 174.238509 
L 109.23767 173.51938 
L 109.846398 173.51938 
L 110.150761 175.071497 
L 110.455125 173.352874 
L 111.063852 173.246982 
L 111.368216 173.648917 
L 111.67258 173.112436 
L 111.976943 173.706434 
L 112.58567 171.297498 
L 112.890034 172.279888 
L 113.194398 171.826427 
L 113.498761 170.872851 
L 113.803125 173.739198 
L 114.411852 172.255585 
L 114.716216 172.939328 
L 115.324943 170.560053 
L 115.629307 171.447728 
L 115.93367 171.246248 
L 116.542398 171.321344 
L 116.846761 170.083241 
L 117.151125 169.805138 
L 117.455489 169.805138 
L 117.759852 171.02561 
L 118.064216 171.150236 
L 118.36858 171.027718 
L 118.672943 170.521339 
L 119.586034 170.415664 
L 120.194761 170.180176 
L 120.499125 170.632789 
L 120.803489 170.512197 
L 121.107852 169.696385 
L 121.412216 170.147003 
L 121.71658 169.799207 
L 122.020943 169.180945 
L 122.325307 169.368136 
L 123.238398 169.384544 
L 123.847125 167.828192 
L 124.151489 168.920995 
L 124.760216 168.341317 
L 125.368943 168.398193 
L 125.673307 168.25893 
L 126.586398 168.198884 
L 126.890761 168.120811 
L 127.195125 167.799121 
L 127.499489 167.799121 
L 127.803852 167.975679 
L 128.108216 167.821674 
L 129.32567 167.761239 
L 129.630034 167.650408 
L 129.934398 166.734239 
L 130.238761 167.571576 
L 130.543125 167.125314 
L 130.847489 167.656959 
L 131.151852 165.666349 
L 131.456216 165.338595 
L 131.76058 165.338595 
L 132.064943 166.728039 
L 132.369307 165.338595 
L 132.67367 164.778522 
L 132.978034 166.032165 
L 133.282398 165.063271 
L 133.586761 163.692821 
L 133.891125 163.647822 
L 134.195489 160.733682 
L 134.499852 161.007081 
L 134.804216 162.521784 
L 135.412943 161.346111 
L 135.717307 161.346111 
L 136.02167 161.819252 
L 136.326034 159.96226 
L 137.543489 159.700352 
L 137.847852 157.112848 
L 138.152216 157.112848 
L 138.45658 154.301799 
L 138.760943 154.301799 
L 139.065307 156.705797 
L 139.36967 152.099566 
L 139.674034 155.063344 
L 140.282761 155.286747 
L 140.891489 155.185888 
L 141.195852 154.893611 
L 141.500216 153.250729 
L 141.80458 153.097899 
L 142.71767 153.08481 
L 143.022034 152.948315 
L 143.326398 153.001752 
L 143.630761 152.726065 
L 143.935125 152.937303 
L 144.239489 152.937303 
L 144.543852 152.073893 
L 145.456943 152.073893 
L 145.761307 151.819608 
L 146.06567 152.083741 
L 146.370034 151.890229 
L 146.674398 151.372848 
L 146.978761 150.294651 
L 147.283125 150.029098 
L 147.587489 150.884175 
L 147.891852 150.884175 
L 148.196216 150.104884 
L 148.50058 149.982663 
L 149.109307 148.968253 
L 149.718034 149.590383 
L 150.022398 148.35867 
L 150.631125 148.35867 
L 150.935489 148.084414 
L 151.239852 148.172828 
L 151.84858 147.833698 
L 152.152943 147.833698 
L 153.066034 147.547314 
L 153.370398 147.547314 
L 153.674761 147.061922 
L 153.979125 147.351521 
L 154.283489 146.489786 
L 154.587852 146.16099 
L 155.805307 145.725849 
L 156.10967 144.675756 
L 156.718398 144.608355 
L 157.022761 144.466649 
L 157.327125 144.466649 
L 157.935852 142.15265 
L 158.240216 143.984247 
L 158.54458 142.964494 
L 158.848943 142.564739 
L 159.153307 141.91835 
L 159.45767 140.515486 
L 159.762034 141.808661 
L 160.066398 141.543676 
L 160.370761 141.543676 
L 160.675125 140.111403 
L 160.979489 141.351335 
L 161.588216 137.967594 
L 162.196943 137.967594 
L 162.501307 136.632511 
L 162.80567 136.466464 
L 163.110034 136.466464 
L 163.414398 136.685209 
L 163.718761 136.038512 
L 164.023125 134.516096 
L 164.327489 134.340089 
L 164.631852 136.115904 
L 164.936216 134.195138 
L 165.24058 134.195138 
L 165.544943 133.992909 
L 165.849307 133.992909 
L 166.15367 133.146018 
L 166.458034 132.812908 
L 166.762398 132.812908 
L 167.066761 133.07398 
L 167.371125 132.27879 
L 167.675489 131.996112 
L 168.58858 131.780101 
L 168.892943 132.655439 
L 169.197307 132.133934 
L 169.50167 132.492701 
L 169.806034 131.469871 
L 170.110398 131.582148 
L 170.414761 132.439428 
L 170.719125 131.864733 
L 171.023489 130.479037 
L 171.327852 129.780059 
L 171.632216 130.704782 
L 171.93658 130.704782 
L 172.240943 129.673425 
L 172.84967 129.673425 
L 173.154034 129.96665 
L 173.762761 130.013738 
L 174.371489 130.645648 
L 174.675852 129.277783 
L 174.980216 130.515086 
L 175.28458 130.194752 
L 175.588943 129.354478 
L 175.893307 129.22429 
L 176.19767 127.839716 
L 176.502034 128.973409 
L 177.110761 128.869224 
L 177.415125 127.926698 
L 177.719489 128.774824 
L 178.023852 127.132725 
L 178.328216 126.782498 
L 178.63258 127.226908 
L 178.936943 127.226908 
L 179.241307 126.457653 
L 179.54567 126.991839 
L 179.850034 126.474271 
L 180.154398 126.474271 
L 180.458761 126.288639 
L 180.763125 126.288639 
L 181.067489 126.148632 
L 181.371852 126.310798 
L 181.676216 126.056433 
L 182.284943 126.043673 
L 182.589307 126.181478 
L 182.89367 125.840835 
L 183.198034 126.019836 
L 183.806761 125.820961 
L 184.111125 125.820961 
L 184.415489 125.702506 
L 185.024216 125.820961 
L 185.32858 125.378099 
L 185.632943 125.378099 
L 186.24167 122.163663 
L 186.546034 122.163663 
L 186.850398 122.298173 
L 187.763489 122.015465 
L 188.372216 121.952045 
L 188.67658 123.717117 
L 188.980943 121.864208 
L 189.285307 121.68275 
L 189.58967 121.878233 
L 189.894034 119.645632 
L 190.198398 121.541235 
L 190.502761 119.206585 
L 190.807125 121.710754 
L 191.111489 121.615776 
L 191.415852 118.926605 
L 191.720216 121.488317 
L 192.02458 121.488317 
L 192.328943 120.910186 
L 192.633307 118.691949 
L 192.93767 118.691949 
L 193.546398 118.236553 
L 193.850761 117.299908 
L 194.155125 117.288885 
L 194.459489 119.440983 
L 194.763852 118.268961 
L 195.068216 118.089414 
L 195.37258 118.089414 
L 195.981307 117.625777 
L 196.28567 115.232322 
L 196.590034 115.232322 
L 196.894398 117.24239 
L 197.503125 113.317841 
L 197.807489 113.317841 
L 198.111852 112.688384 
L 198.416216 114.870041 
L 198.72058 114.629698 
L 199.024943 112.555776 
L 199.63367 111.39401 
L 199.938034 114.387223 
L 200.242398 114.387223 
L 200.546761 114.262527 
L 200.851125 111.095802 
L 201.155489 112.543347 
L 201.459852 112.507898 
L 201.764216 110.443996 
L 202.06858 110.296638 
L 202.372943 110.943959 
L 202.677307 112.252074 
L 202.98167 112.252074 
L 203.590398 111.888157 
L 203.894761 111.981834 
L 204.199125 111.556327 
L 204.503489 111.824127 
L 205.720943 111.756945 
L 206.025307 104.486511 
L 206.32967 104.487017 
L 206.634034 104.354843 
L 207.242761 104.354843 
L 207.547125 100.382369 
L 208.460216 100.382369 
L 208.76458 103.887312 
L 209.068943 100.10919 
L 209.67767 99.615384 
L 209.982034 100.196423 
L 210.286398 100.07434 
L 210.590761 99.599425 
L 210.895125 99.706964 
L 211.199489 99.604096 
L 211.503852 99.620685 
L 211.808216 99.423845 
L 212.11258 97.858942 
L 212.416943 97.858942 
L 212.721307 99.013148 
L 213.02567 97.404023 
L 213.330034 97.525389 
L 213.938761 95.765827 
L 214.243125 95.765827 
L 214.547489 92.461302 
L 214.851852 92.461302 
L 215.156216 96.141664 
L 215.46058 95.143051 
L 215.764943 96.002914 
L 216.069307 95.939385 
L 216.678034 91.021276 
L 216.982398 95.857497 
L 217.286761 95.857497 
L 217.591125 95.385443 
L 217.895489 95.48118 
L 218.199852 89.812067 
L 219.417307 89.293594 
L 219.72167 93.927419 
L 220.026034 89.448501 
L 220.634761 89.305564 
L 220.939125 93.237519 
L 221.243489 93.095099 
L 222.460943 92.98402 
L 222.765307 92.614859 
L 223.06967 92.853159 
L 223.678398 92.638906 
L 223.982761 92.206071 
L 224.287125 92.039618 
L 224.591489 92.275609 
L 224.895852 92.275609 
L 225.200216 89.182945 
L 225.50458 91.209953 
L 225.808943 89.180773 
L 226.113307 89.038651 
L 226.41767 87.759086 
L 226.722034 89.130409 
L 227.026398 87.915463 
L 227.330761 87.915463 
L 227.635125 88.21743 
L 227.939489 87.086495 
L 228.243852 88.725501 
L 228.548216 87.483211 
L 229.156943 87.23867 
L 229.461307 85.948377 
L 229.76567 85.408226 
L 230.070034 85.408226 
L 230.374398 85.183151 
L 230.678761 85.92457 
L 230.983125 85.92457 
L 231.287489 83.271096 
L 231.896216 83.271096 
L 232.20058 84.861169 
L 232.504943 84.887367 
L 233.11367 84.62075 
L 233.418034 84.369777 
L 233.722398 84.369777 
L 234.026761 82.788322 
L 234.331125 84.369777 
L 234.635489 82.8117 
L 234.939852 83.718963 
L 235.244216 83.865038 
L 235.54858 83.287482 
L 236.157307 83.199762 
L 236.46167 82.342627 
L 236.766034 80.93431 
L 237.070398 80.559433 
L 237.374761 79.40274 
L 237.679125 82.718066 
L 237.983489 81.541535 
L 238.287852 82.54236 
L 238.592216 81.349074 
L 238.89658 82.595612 
L 239.200943 79.999187 
L 239.505307 80.12775 
L 239.80967 80.859616 
L 240.114034 80.73248 
L 240.418398 80.73248 
L 240.722761 79.193167 
L 241.331489 79.237893 
L 241.635852 80.5852 
L 241.940216 80.5852 
L 242.24458 80.120223 
L 242.853307 80.144541 
L 243.15767 79.66746 
L 243.462034 79.66746 
L 243.766398 79.522685 
L 244.070761 79.532876 
L 244.375125 79.832679 
L 244.679489 79.832679 
L 244.983852 78.394165 
L 245.288216 79.384817 
L 245.59258 79.693598 
L 245.896943 79.446188 
L 246.201307 79.454155 
L 246.50567 77.451047 
L 246.810034 77.462849 
L 247.114398 79.323812 
L 247.418761 77.212227 
L 247.723125 75.981851 
L 248.027489 75.830431 
L 248.331852 76.505663 
L 248.636216 76.354242 
L 248.94058 72.704438 
L 249.244943 72.398209 
L 249.549307 74.669511 
L 250.766761 74.607121 
L 251.071125 75.631708 
L 251.375489 75.631708 
L 251.679852 74.68071 
L 251.984216 75.490653 
L 252.28858 75.455902 
L 252.592943 75.566572 
L 253.20167 75.283476 
L 253.506034 74.254809 
L 253.810398 75.304725 
L 254.114761 74.082589 
L 254.419125 73.879962 
L 255.027852 73.914418 
L 255.940943 73.33401 
L 256.245307 73.33401 
L 256.54967 72.270227 
L 256.854034 72.270227 
L 257.158398 70.643553 
L 257.462761 70.643553 
L 257.767125 71.833158 
L 258.071489 70.674677 
L 258.680216 70.385938 
L 258.98458 70.090983 
L 259.288943 70.084632 
L 259.593307 69.712269 
L 260.202034 69.730411 
L 260.506398 69.577952 
L 260.810761 68.996099 
L 261.723852 69.464271 
L 262.33258 68.482922 
L 262.636943 69.028924 
L 262.941307 68.800093 
L 263.24567 66.338768 
L 263.550034 66.338768 
L 263.854398 68.685731 
L 264.158761 68.713878 
L 264.463125 68.466438 
L 264.767489 66.930459 
L 265.071852 67.794707 
L 265.376216 67.794707 
L 265.68058 65.319439 
L 265.984943 65.176369 
L 266.59367 65.066786 
L 266.898034 64.805763 
L 267.202398 64.912984 
L 267.506761 64.35362 
L 267.811125 64.706206 
L 268.115489 64.134571 
L 268.419852 64.134571 
L 269.02858 63.640965 
L 269.332943 63.640965 
L 269.94167 63.084832 
L 270.550398 63.35518 
L 270.854761 63.280897 
L 271.159125 62.990443 
L 272.072216 62.990443 
L 272.37658 62.533401 
L 272.680943 62.990443 
L 272.985307 62.553157 
L 273.28967 62.553157 
L 273.594034 61.701198 
L 273.898398 61.26599 
L 274.202761 61.883656 
L 274.507125 61.389825 
L 275.420216 61.389825 
L 275.72458 60.746422 
L 276.028943 60.759727 
L 276.333307 61.096638 
L 276.63767 60.267043 
L 276.942034 60.044224 
L 277.550761 57.477709 
L 277.855125 59.695671 
L 278.159489 58.897175 
L 278.463852 58.66658 
L 278.768216 59.42727 
L 279.07258 58.074535 
L 279.376943 58.640543 
L 279.681307 58.518774 
L 279.98567 58.03466 
L 280.594398 59.194883 
L 280.898761 58.95987 
L 281.203125 57.782697 
L 281.507489 57.267493 
L 281.811852 58.491508 
L 282.116216 57.452669 
L 282.42058 56.872652 
L 282.724943 57.669203 
L 283.029307 57.506652 
L 283.33367 58.008185 
L 283.942398 57.892805 
L 284.246761 57.892805 
L 284.551125 57.60398 
L 284.855489 56.25598 
L 285.159852 57.4367 
L 285.76858 57.189985 
L 286.072943 57.189985 
L 286.377307 56.186636 
L 286.68167 56.303655 
L 287.290398 55.693703 
L 287.594761 55.795564 
L 287.899125 55.718566 
L 288.203489 54.96351 
L 288.507852 57.191133 
L 288.812216 57.003789 
L 289.11658 57.627428 
L 289.420943 55.163446 
L 289.725307 54.468185 
L 290.02967 55.163446 
L 290.334034 54.861792 
L 290.638398 55.388479 
L 290.942761 55.388479 
L 291.247125 55.634822 
L 291.855852 55.333168 
L 292.160216 54.922668 
L 292.46458 56.549117 
L 292.768943 56.549117 
L 293.073307 55.368662 
L 293.682034 56.043721 
L 293.986398 55.496 
L 294.290761 55.496 
L 294.595125 56.043721 
L 295.203852 55.967026 
L 295.508216 55.664453 
L 295.81258 55.589794 
L 296.116943 54.553296 
L 296.421307 54.553296 
L 296.72567 55.32999 
L 297.030034 54.133743 
L 297.334398 54.243219 
L 297.943125 54.133743 
L 298.247489 54.133743 
L 298.551852 54.312018 
L 298.856216 54.133913 
L 299.16058 54.133913 
L 299.464943 53.61109 
L 299.769307 53.432213 
L 300.07367 53.61109 
L 300.378034 53.385984 
L 300.682398 52.069987 
L 300.986761 52.82967 
L 301.595489 52.773963 
L 301.899852 52.527907 
L 302.50858 52.428094 
L 302.812943 52.302821 
L 303.117307 51.92126 
L 303.42167 51.92126 
L 303.726034 48.605336 
L 304.030398 52.149845 
L 304.334761 52.149845 
L 304.639125 48.477743 
L 304.943489 51.588363 
L 305.247852 49.706782 
L 305.552216 49.161327 
L 305.85658 49.430366 
L 306.160943 47.21024 
L 306.465307 46.163144 
L 306.76967 46.972574 
L 307.378398 46.00699 
L 307.682761 44.821576 
L 307.987125 45.948053 
L 308.291489 44.883444 
L 308.595852 44.3932 
L 309.20458 44.12206 
L 309.508943 45.825791 
L 309.813307 45.523459 
L 310.11767 45.523459 
L 310.422034 45.683745 
L 310.726398 44.765668 
L 311.030761 45.046043 
L 311.335125 43.797729 
L 311.639489 43.352251 
L 311.943852 43.352251 
L 312.248216 46.081077 
L 312.55258 46.081077 
L 312.856943 44.402812 
L 313.161307 46.132135 
L 313.46567 46.132135 
L 313.770034 45.64194 
L 314.074398 40.027923 
L 314.378761 39.626056 
L 314.683125 41.781889 
L 314.987489 41.409253 
L 315.291852 41.680527 
L 315.90058 40.835662 
L 316.204943 41.217619 
L 316.509307 40.867272 
L 316.81367 40.750939 
L 317.422398 39.030111 
L 318.031125 39.75732 
L 318.335489 36.910258 
L 318.639852 40.168257 
L 319.24858 39.877792 
L 319.552943 37.661932 
L 319.857307 39.67701 
L 320.16167 39.820127 
L 320.466034 37.470629 
L 320.770398 37.892983 
L 321.074761 37.07929 
L 321.379125 35.448385 
L 321.683489 37.493019 
L 321.987852 36.040049 
L 322.292216 37.336173 
L 322.900943 37.217086 
L 323.205307 36.514661 
L 323.50967 37.094638 
L 323.814034 34.716351 
L 324.118398 36.536075 
L 324.422761 36.116882 
L 324.727125 36.763272 
L 325.031489 35.365459 
L 325.335852 34.536559 
L 325.640216 33.156891 
L 325.94458 32.327992 
L 326.248943 35.099502 
L 326.553307 32.239362 
L 326.85767 34.841975 
L 327.162034 31.521538 
L 327.466398 31.174998 
L 327.770761 31.659339 
L 328.379489 31.563472 
L 328.683852 31.792699 
L 328.988216 31.13573 
L 329.29258 31.13573 
L 329.596943 33.308339 
L 329.901307 31.61994 
L 330.20567 30.959636 
L 330.814398 30.959636 
L 331.118761 31.113659 
L 331.423125 31.038201 
L 331.727489 30.293309 
L 332.031852 27.83958 
L 332.336216 29.427463 
L 332.64058 29.427463 
L 332.944943 27.420592 
L 333.249307 29.30306 
L 333.55367 29.30306 
L 333.858034 30.730588 
L 334.162398 30.788929 
L 334.466761 27.493142 
L 334.771125 34.018753 
L 335.075489 33.731267 
L 335.379852 34.172206 
L 335.684216 31.271636 
L 335.98858 33.957245 
L 336.292943 29.350425 
L 336.597307 27.921463 
L 336.90167 27.958137 
L 337.206034 26.241832 
L 337.510398 26.241832 
L 337.814761 27.266741 
L 338.119125 27.128265 
L 338.423489 23.293958 
L 338.727852 22.474494 
L 339.032216 22.396049 
L 339.33658 22.474494 
L 339.945307 21.868807 
L 340.24967 21.868807 
L 340.554034 21.211998 
L 340.858398 21.211998 
L 341.162761 22.105993 
L 341.467125 21.184539 
L 342.68458 21.172413 
L 343.293307 20.923753 
L 344.815125 20.932569 
L 345.423852 20.424662 
L 345.728216 17.78999 
L 346.03258 20.182317 
L 346.641307 20.182317 
L 346.94567 17.28 
L 347.250034 19.655949 
L 347.554398 19.655949 
L 347.858761 19.383467 
L 348.163125 19.383467 
L 348.467489 19.513823 
L 348.771852 19.513823 
L 349.076216 18.931654 
L 349.38058 17.518807 
L 349.684943 17.318628 
L 349.684943 17.318628 
" clip-path="url(#pb408ee598e)" style="fill: none; stroke: #1f77b4; stroke-width: 1.5; stroke-linecap: square"/>
   </g>
   <g id="patch_3">
    <path d="M 30.103125 228.96 
L 30.103125 7.2 
" style="fill: none; stroke: #000000; stroke-width: 0.8; stroke-linejoin: miter; stroke-linecap: square"/>
   </g>
   <g id="patch_4">
    <path d="M 364.903125 228.96 
L 364.903125 7.2 
" style="fill: none; stroke: #000000; stroke-width: 0.8; stroke-linejoin: miter; stroke-linecap: square"/>
   </g>
   <g id="patch_5">
    <path d="M 30.103125 228.96 
L 364.903125 228.96 
" style="fill: none; stroke: #000000; stroke-width: 0.8; stroke-linejoin: miter; stroke-linecap: square"/>
   </g>
   <g id="patch_6">
    <path d="M 30.103125 7.2 
L 364.903125 7.2 
" style="fill: none; stroke: #000000; stroke-width: 0.8; stroke-linejoin: miter; stroke-linecap: square"/>
   </g>
  </g>
 </g>
 <defs>
  <clipPath id="pb408ee598e">
   <rect x="30.103125" y="7.2" width="334.8" height="221.76"/>
  </clipPath>
 </defs>
</svg>
