<?xml version="1.0" encoding="utf-8" standalone="no"?>
<!DOCTYPE svg PUBLIC "-//W3C//DTD SVG 1.1//EN"
  "http://www.w3.org/Graphics/SVG/1.1/DTD/svg11.dtd">
<svg xmlns:xlink="http://www.w3.org/1999/xlink" width="374.662077pt" height="252.838125pt" viewBox="0 0 374.662077 252.838125" xmlns="http://www.w3.org/2000/svg" version="1.1">
 <metadata>
  <rdf:RDF xmlns:dc="http://purl.org/dc/elements/1.1/" xmlns:cc="http://creativecommons.org/ns#" xmlns:rdf="http://www.w3.org/1999/02/22-rdf-syntax-ns#">
   <cc:Work>
    <dc:type rdf:resource="http://purl.org/dc/dcmitype/StillImage"/>
    <dc:date>2023-04-20T00:41:01.599894</dc:date>
    <dc:format>image/svg+xml</dc:format>
    <dc:creator>
     <cc:Agent>
      <dc:title>Matplotlib v3.6.2, https://matplotlib.org/</dc:title>
     </cc:Agent>
    </dc:creator>
   </cc:Work>
  </rdf:RDF>
 </metadata>
 <defs>
  <style type="text/css">*{stroke-linejoin: round; stroke-linecap: butt}</style>
 </defs>
 <g id="figure_1">
  <g id="patch_1">
   <path d="M -0 252.838125 
L 374.662077 252.838125 
L 374.662077 0 
L -0 0 
z
" style="fill: #ffffff"/>
  </g>
  <g id="axes_1">
   <g id="patch_2">
    <path d="M 26.925 228.96 
L 361.725 228.96 
L 361.725 7.2 
L 26.925 7.2 
z
" style="fill: #ffffff"/>
   </g>
   <g id="matplotlib.axis_1">
    <g id="xtick_1">
     <g id="line2d_1">
      <defs>
       <path id="m1ac998499a" d="M 0 0 
L 0 3.5 
" style="stroke: #000000; stroke-width: 0.8"/>
      </defs>
      <g>
       <use xlink:href="#m1ac998499a" x="38.032927" y="228.96" style="stroke: #000000; stroke-width: 0.8"/>
      </g>
     </g>
     <g id="text_1">
      <!-- 0 -->
      <g transform="translate(34.851677 243.558437) scale(0.1 -0.1)">
       <defs>
        <path id="DejaVuSans-30" d="M 2034 4250 
Q 1547 4250 1301 3770 
Q 1056 3291 1056 2328 
Q 1056 1369 1301 889 
Q 1547 409 2034 409 
Q 2525 409 2770 889 
Q 3016 1369 3016 2328 
Q 3016 3291 2770 3770 
Q 2525 4250 2034 4250 
z
M 2034 4750 
Q 2819 4750 3233 4129 
Q 3647 3509 3647 2328 
Q 3647 1150 3233 529 
Q 2819 -91 2034 -91 
Q 1250 -91 836 529 
Q 422 1150 422 2328 
Q 422 3509 836 4129 
Q 1250 4750 2034 4750 
z
" transform="scale(0.015625)"/>
       </defs>
       <use xlink:href="#DejaVuSans-30"/>
      </g>
     </g>
    </g>
    <g id="xtick_2">
     <g id="line2d_2">
      <g>
       <use xlink:href="#m1ac998499a" x="78.018602" y="228.96" style="stroke: #000000; stroke-width: 0.8"/>
      </g>
     </g>
     <g id="text_2">
      <!-- 100 -->
      <g transform="translate(68.474852 243.558437) scale(0.1 -0.1)">
       <defs>
        <path id="DejaVuSans-31" d="M 794 531 
L 1825 531 
L 1825 4091 
L 703 3866 
L 703 4441 
L 1819 4666 
L 2450 4666 
L 2450 531 
L 3481 531 
L 3481 0 
L 794 0 
L 794 531 
z
" transform="scale(0.015625)"/>
       </defs>
       <use xlink:href="#DejaVuSans-31"/>
       <use xlink:href="#DejaVuSans-30" x="63.623047"/>
       <use xlink:href="#DejaVuSans-30" x="127.246094"/>
      </g>
     </g>
    </g>
    <g id="xtick_3">
     <g id="line2d_3">
      <g>
       <use xlink:href="#m1ac998499a" x="118.004277" y="228.96" style="stroke: #000000; stroke-width: 0.8"/>
      </g>
     </g>
     <g id="text_3">
      <!-- 200 -->
      <g transform="translate(108.460527 243.558437) scale(0.1 -0.1)">
       <defs>
        <path id="DejaVuSans-32" d="M 1228 531 
L 3431 531 
L 3431 0 
L 469 0 
L 469 531 
Q 828 903 1448 1529 
Q 2069 2156 2228 2338 
Q 2531 2678 2651 2914 
Q 2772 3150 2772 3378 
Q 2772 3750 2511 3984 
Q 2250 4219 1831 4219 
Q 1534 4219 1204 4116 
Q 875 4013 500 3803 
L 500 4441 
Q 881 4594 1212 4672 
Q 1544 4750 1819 4750 
Q 2544 4750 2975 4387 
Q 3406 4025 3406 3419 
Q 3406 3131 3298 2873 
Q 3191 2616 2906 2266 
Q 2828 2175 2409 1742 
Q 1991 1309 1228 531 
z
" transform="scale(0.015625)"/>
       </defs>
       <use xlink:href="#DejaVuSans-32"/>
       <use xlink:href="#DejaVuSans-30" x="63.623047"/>
       <use xlink:href="#DejaVuSans-30" x="127.246094"/>
      </g>
     </g>
    </g>
    <g id="xtick_4">
     <g id="line2d_4">
      <g>
       <use xlink:href="#m1ac998499a" x="157.989952" y="228.96" style="stroke: #000000; stroke-width: 0.8"/>
      </g>
     </g>
     <g id="text_4">
      <!-- 300 -->
      <g transform="translate(148.446202 243.558437) scale(0.1 -0.1)">
       <defs>
        <path id="DejaVuSans-33" d="M 2597 2516 
Q 3050 2419 3304 2112 
Q 3559 1806 3559 1356 
Q 3559 666 3084 287 
Q 2609 -91 1734 -91 
Q 1441 -91 1130 -33 
Q 819 25 488 141 
L 488 750 
Q 750 597 1062 519 
Q 1375 441 1716 441 
Q 2309 441 2620 675 
Q 2931 909 2931 1356 
Q 2931 1769 2642 2001 
Q 2353 2234 1838 2234 
L 1294 2234 
L 1294 2753 
L 1863 2753 
Q 2328 2753 2575 2939 
Q 2822 3125 2822 3475 
Q 2822 3834 2567 4026 
Q 2313 4219 1838 4219 
Q 1578 4219 1281 4162 
Q 984 4106 628 3988 
L 628 4550 
Q 988 4650 1302 4700 
Q 1616 4750 1894 4750 
Q 2613 4750 3031 4423 
Q 3450 4097 3450 3541 
Q 3450 3153 3228 2886 
Q 3006 2619 2597 2516 
z
" transform="scale(0.015625)"/>
       </defs>
       <use xlink:href="#DejaVuSans-33"/>
       <use xlink:href="#DejaVuSans-30" x="63.623047"/>
       <use xlink:href="#DejaVuSans-30" x="127.246094"/>
      </g>
     </g>
    </g>
    <g id="xtick_5">
     <g id="line2d_5">
      <g>
       <use xlink:href="#m1ac998499a" x="197.975627" y="228.96" style="stroke: #000000; stroke-width: 0.8"/>
      </g>
     </g>
     <g id="text_5">
      <!-- 400 -->
      <g transform="translate(188.431877 243.558437) scale(0.1 -0.1)">
       <defs>
        <path id="DejaVuSans-34" d="M 2419 4116 
L 825 1625 
L 2419 1625 
L 2419 4116 
z
M 2253 4666 
L 3047 4666 
L 3047 1625 
L 3713 1625 
L 3713 1100 
L 3047 1100 
L 3047 0 
L 2419 0 
L 2419 1100 
L 313 1100 
L 313 1709 
L 2253 4666 
z
" transform="scale(0.015625)"/>
       </defs>
       <use xlink:href="#DejaVuSans-34"/>
       <use xlink:href="#DejaVuSans-30" x="63.623047"/>
       <use xlink:href="#DejaVuSans-30" x="127.246094"/>
      </g>
     </g>
    </g>
    <g id="xtick_6">
     <g id="line2d_6">
      <g>
       <use xlink:href="#m1ac998499a" x="237.961302" y="228.96" style="stroke: #000000; stroke-width: 0.8"/>
      </g>
     </g>
     <g id="text_6">
      <!-- 500 -->
      <g transform="translate(228.417552 243.558437) scale(0.1 -0.1)">
       <defs>
        <path id="DejaVuSans-35" d="M 691 4666 
L 3169 4666 
L 3169 4134 
L 1269 4134 
L 1269 2991 
Q 1406 3038 1543 3061 
Q 1681 3084 1819 3084 
Q 2600 3084 3056 2656 
Q 3513 2228 3513 1497 
Q 3513 744 3044 326 
Q 2575 -91 1722 -91 
Q 1428 -91 1123 -41 
Q 819 9 494 109 
L 494 744 
Q 775 591 1075 516 
Q 1375 441 1709 441 
Q 2250 441 2565 725 
Q 2881 1009 2881 1497 
Q 2881 1984 2565 2268 
Q 2250 2553 1709 2553 
Q 1456 2553 1204 2497 
Q 953 2441 691 2322 
L 691 4666 
z
" transform="scale(0.015625)"/>
       </defs>
       <use xlink:href="#DejaVuSans-35"/>
       <use xlink:href="#DejaVuSans-30" x="63.623047"/>
       <use xlink:href="#DejaVuSans-30" x="127.246094"/>
      </g>
     </g>
    </g>
    <g id="xtick_7">
     <g id="line2d_7">
      <g>
       <use xlink:href="#m1ac998499a" x="277.946977" y="228.96" style="stroke: #000000; stroke-width: 0.8"/>
      </g>
     </g>
     <g id="text_7">
      <!-- 600 -->
      <g transform="translate(268.403227 243.558437) scale(0.1 -0.1)">
       <defs>
        <path id="DejaVuSans-36" d="M 2113 2584 
Q 1688 2584 1439 2293 
Q 1191 2003 1191 1497 
Q 1191 994 1439 701 
Q 1688 409 2113 409 
Q 2538 409 2786 701 
Q 3034 994 3034 1497 
Q 3034 2003 2786 2293 
Q 2538 2584 2113 2584 
z
M 3366 4563 
L 3366 3988 
Q 3128 4100 2886 4159 
Q 2644 4219 2406 4219 
Q 1781 4219 1451 3797 
Q 1122 3375 1075 2522 
Q 1259 2794 1537 2939 
Q 1816 3084 2150 3084 
Q 2853 3084 3261 2657 
Q 3669 2231 3669 1497 
Q 3669 778 3244 343 
Q 2819 -91 2113 -91 
Q 1303 -91 875 529 
Q 447 1150 447 2328 
Q 447 3434 972 4092 
Q 1497 4750 2381 4750 
Q 2619 4750 2861 4703 
Q 3103 4656 3366 4563 
z
" transform="scale(0.015625)"/>
       </defs>
       <use xlink:href="#DejaVuSans-36"/>
       <use xlink:href="#DejaVuSans-30" x="63.623047"/>
       <use xlink:href="#DejaVuSans-30" x="127.246094"/>
      </g>
     </g>
    </g>
    <g id="xtick_8">
     <g id="line2d_8">
      <g>
       <use xlink:href="#m1ac998499a" x="317.932652" y="228.96" style="stroke: #000000; stroke-width: 0.8"/>
      </g>
     </g>
     <g id="text_8">
      <!-- 700 -->
      <g transform="translate(308.388902 243.558437) scale(0.1 -0.1)">
       <defs>
        <path id="DejaVuSans-37" d="M 525 4666 
L 3525 4666 
L 3525 4397 
L 1831 0 
L 1172 0 
L 2766 4134 
L 525 4134 
L 525 4666 
z
" transform="scale(0.015625)"/>
       </defs>
       <use xlink:href="#DejaVuSans-37"/>
       <use xlink:href="#DejaVuSans-30" x="63.623047"/>
       <use xlink:href="#DejaVuSans-30" x="127.246094"/>
      </g>
     </g>
    </g>
    <g id="xtick_9">
     <g id="line2d_9">
      <g>
       <use xlink:href="#m1ac998499a" x="357.918327" y="228.96" style="stroke: #000000; stroke-width: 0.8"/>
      </g>
     </g>
     <g id="text_9">
      <!-- 800 -->
      <g transform="translate(348.374577 243.558437) scale(0.1 -0.1)">
       <defs>
        <path id="DejaVuSans-38" d="M 2034 2216 
Q 1584 2216 1326 1975 
Q 1069 1734 1069 1313 
Q 1069 891 1326 650 
Q 1584 409 2034 409 
Q 2484 409 2743 651 
Q 3003 894 3003 1313 
Q 3003 1734 2745 1975 
Q 2488 2216 2034 2216 
z
M 1403 2484 
Q 997 2584 770 2862 
Q 544 3141 544 3541 
Q 544 4100 942 4425 
Q 1341 4750 2034 4750 
Q 2731 4750 3128 4425 
Q 3525 4100 3525 3541 
Q 3525 3141 3298 2862 
Q 3072 2584 2669 2484 
Q 3125 2378 3379 2068 
Q 3634 1759 3634 1313 
Q 3634 634 3220 271 
Q 2806 -91 2034 -91 
Q 1263 -91 848 271 
Q 434 634 434 1313 
Q 434 1759 690 2068 
Q 947 2378 1403 2484 
z
M 1172 3481 
Q 1172 3119 1398 2916 
Q 1625 2713 2034 2713 
Q 2441 2713 2670 2916 
Q 2900 3119 2900 3481 
Q 2900 3844 2670 4047 
Q 2441 4250 2034 4250 
Q 1625 4250 1398 4047 
Q 1172 3844 1172 3481 
z
" transform="scale(0.015625)"/>
       </defs>
       <use xlink:href="#DejaVuSans-38"/>
       <use xlink:href="#DejaVuSans-30" x="63.623047"/>
       <use xlink:href="#DejaVuSans-30" x="127.246094"/>
      </g>
     </g>
    </g>
   </g>
   <g id="matplotlib.axis_2">
    <g id="ytick_1">
     <g id="line2d_10">
      <defs>
       <path id="m1a7e9b348f" d="M 0 0 
L -3.5 0 
" style="stroke: #000000; stroke-width: 0.8"/>
      </defs>
      <g>
       <use xlink:href="#m1a7e9b348f" x="26.925" y="207.090758" style="stroke: #000000; stroke-width: 0.8"/>
      </g>
     </g>
     <g id="text_10">
      <!-- 40 -->
      <g transform="translate(7.2 210.889977) scale(0.1 -0.1)">
       <use xlink:href="#DejaVuSans-34"/>
       <use xlink:href="#DejaVuSans-30" x="63.623047"/>
      </g>
     </g>
    </g>
    <g id="ytick_2">
     <g id="line2d_11">
      <g>
       <use xlink:href="#m1a7e9b348f" x="26.925" y="161.729721" style="stroke: #000000; stroke-width: 0.8"/>
      </g>
     </g>
     <g id="text_11">
      <!-- 45 -->
      <g transform="translate(7.2 165.52894) scale(0.1 -0.1)">
       <use xlink:href="#DejaVuSans-34"/>
       <use xlink:href="#DejaVuSans-35" x="63.623047"/>
      </g>
     </g>
    </g>
    <g id="ytick_3">
     <g id="line2d_12">
      <g>
       <use xlink:href="#m1a7e9b348f" x="26.925" y="116.368684" style="stroke: #000000; stroke-width: 0.8"/>
      </g>
     </g>
     <g id="text_12">
      <!-- 50 -->
      <g transform="translate(7.2 120.167903) scale(0.1 -0.1)">
       <use xlink:href="#DejaVuSans-35"/>
       <use xlink:href="#DejaVuSans-30" x="63.623047"/>
      </g>
     </g>
    </g>
    <g id="ytick_4">
     <g id="line2d_13">
      <g>
       <use xlink:href="#m1a7e9b348f" x="26.925" y="71.007648" style="stroke: #000000; stroke-width: 0.8"/>
      </g>
     </g>
     <g id="text_13">
      <!-- 55 -->
      <g transform="translate(7.2 74.806866) scale(0.1 -0.1)">
       <use xlink:href="#DejaVuSans-35"/>
       <use xlink:href="#DejaVuSans-35" x="63.623047"/>
      </g>
     </g>
    </g>
    <g id="ytick_5">
     <g id="line2d_14">
      <g>
       <use xlink:href="#m1a7e9b348f" x="26.925" y="25.646611" style="stroke: #000000; stroke-width: 0.8"/>
      </g>
     </g>
     <g id="text_14">
      <!-- 60 -->
      <g transform="translate(7.2 29.44583) scale(0.1 -0.1)">
       <use xlink:href="#DejaVuSans-36"/>
       <use xlink:href="#DejaVuSans-30" x="63.623047"/>
      </g>
     </g>
    </g>
   </g>
   <g id="line2d_15">
    <path d="M 42.143182 17.28 
L 42.529221 17.28 
L 42.681152 17.454775 
L 42.848463 17.454775 
L 42.97541 17.95433 
L 43.005415 17.95433 
L 43.127127 18.231851 
L 43.189463 18.53123 
L 43.342663 20.01771 
L 43.521862 20.132445 
L 43.613956 20.075469 
L 43.644644 20.132984 
L 43.676016 20.132984 
L 43.736552 20.01771 
L 44.015543 22.367069 
L 44.402746 23.043432 
L 44.46061 23.043432 
L 44.583623 23.20147 
L 44.729713 23.303741 
L 44.873589 24.16521 
L 44.903907 24.219369 
L 44.985115 25.080837 
L 45.013998 24.334754 
L 45.130974 25.080837 
L 45.250106 25.196222 
L 45.280663 25.020281 
L 45.341037 25.080837 
L 45.401026 25.196222 
L 45.430446 24.958057 
L 45.489213 25.196222 
L 45.518665 25.196222 
L 45.548835 24.958057 
L 45.609189 25.173584 
L 45.826215 25.346469 
L 45.85597 26.56536 
L 45.917133 25.369107 
L 45.948473 25.374582 
L 45.979836 26.93318 
L 46.04063 25.369107 
L 46.072117 25.584634 
L 46.103708 26.970347 
L 46.166269 25.701614 
L 46.230622 25.701614 
L 46.262083 25.584634 
L 46.385997 27.648978 
L 46.416351 27.648978 
L 46.569525 29.490889 
L 46.598998 27.287972 
L 46.659983 28.686518 
L 46.721262 29.34933 
L 46.781565 29.047524 
L 46.811797 29.047524 
L 46.868496 31.04374 
L 46.929921 30.898261 
L 46.990731 30.898261 
L 47.052968 28.972464 
L 47.083467 30.729786 
L 47.111753 30.729786 
L 47.322314 31.25044 
L 47.621184 31.86164 
L 47.680092 31.500634 
L 47.70891 31.552246 
L 47.766335 31.500634 
L 47.821612 32.163446 
L 47.90908 31.931465 
L 48.023612 32.265544 
L 48.143856 32.225898 
L 48.234204 32.414271 
L 48.263187 32.317813 
L 48.353812 32.317813 
L 48.529334 33.222835 
L 48.762905 33.305674 
L 48.943238 33.919415 
L 49.031052 33.919415 
L 49.060343 33.804428 
L 49.1188 33.919415 
L 49.178509 34.021514 
L 49.237264 33.931211 
L 49.396025 33.919415 
L 49.541437 34.063231 
L 49.570677 33.991192 
L 49.629444 34.063231 
L 49.717095 34.211319 
L 49.745206 33.889372 
L 49.83743 33.994358 
L 49.897929 34.002988 
L 49.928284 34.121141 
L 49.987453 33.994358 
L 50.13553 34.063231 
L 50.225973 34.730185 
L 50.25431 34.203568 
L 50.31368 34.203568 
L 50.45666 34.859206 
L 50.485529 34.859206 
L 50.601938 35.343232 
L 50.633102 34.95934 
L 50.693609 35.473181 
L 50.753817 35.473181 
L 50.900874 36.057588 
L 51.139681 36.057588 
L 51.169884 36.204901 
L 51.226199 36.057588 
L 51.254345 36.057588 
L 51.284121 35.927638 
L 51.372412 35.952989 
L 51.495587 37.418761 
L 51.554947 37.156039 
L 51.645164 37.246673 
L 51.733598 37.418761 
L 51.763765 37.290581 
L 51.938149 37.487482 
L 52.091451 37.750204 
L 52.121248 37.553303 
L 52.242912 38.665704 
L 52.333111 38.487585 
L 52.481424 39.876429 
L 52.573494 39.952343 
L 52.665555 40.679701 
L 52.723801 40.345353 
L 52.83991 40.336235 
L 52.870849 39.952343 
L 52.960817 39.984419 
L 53.078373 40.449055 
L 53.138513 40.432971 
L 53.198901 40.449055 
L 53.228045 40.579343 
L 53.283627 40.449055 
L 53.312909 40.449055 
L 53.343449 40.929683 
L 53.403583 40.579343 
L 53.551317 40.547267 
L 53.726491 41.850717 
L 54.352547 41.850717 
L 54.413638 42.104324 
L 54.445069 41.850717 
L 54.474959 41.850717 
L 54.534271 42.022267 
L 54.566151 41.825367 
L 54.72064 41.857529 
L 54.810721 42.350777 
L 54.8717 42.081764 
L 55.094853 42.114269 
L 55.125834 42.081764 
L 55.216458 42.360721 
L 55.247534 42.350777 
L 55.725284 42.394337 
L 56.008011 42.431478 
L 56.070984 42.601277 
L 56.101697 42.394337 
L 56.348474 42.638418 
L 56.475178 42.431478 
L 56.506153 42.431478 
L 56.537041 42.606622 
L 56.631128 42.517813 
L 56.690887 42.517813 
L 56.72196 42.702862 
L 56.783412 42.554954 
L 57.186265 42.724753 
L 57.343324 43.233308 
L 57.40593 43.305436 
L 57.471428 43.266618 
L 57.532267 43.403704 
L 57.776198 43.35072 
L 57.83411 43.771829 
L 57.892203 43.531394 
L 57.951237 43.422847 
L 57.982677 43.44032 
L 58.106203 43.689394 
L 58.135417 43.518126 
L 58.167031 43.616469 
L 58.226482 43.986134 
L 58.289788 43.949291 
L 58.321518 43.949291 
L 58.573448 45.906327 
L 58.608312 45.906327 
L 58.638323 46.346021 
L 58.728809 46.258763 
L 58.849076 46.274375 
L 58.875258 46.09744 
L 59.090491 48.518992 
L 59.120936 48.518992 
L 59.182453 48.904386 
L 59.214522 48.517131 
L 59.308478 49.14062 
L 59.337736 48.688399 
L 59.400668 48.727061 
L 59.430908 49.437488 
L 59.46249 48.688399 
L 59.52144 49.362696 
L 59.644363 48.819046 
L 59.613206 49.492232 
L 59.673105 48.919416 
L 59.759264 48.919416 
L 59.913343 49.941978 
L 59.943956 49.594765 
L 60.00406 49.594765 
L 60.183451 50.342986 
L 60.210039 50.084755 
L 60.241626 50.495241 
L 60.303765 50.151456 
L 60.363754 50.249468 
L 60.45396 50.11598 
L 60.482333 50.500682 
L 60.570491 50.365949 
L 60.600031 50.402693 
L 60.81106 51.431067 
L 60.872369 51.431067 
L 60.903339 51.556268 
L 60.991621 51.467236 
L 61.053687 51.520819 
L 61.17313 52.386952 
L 61.233947 52.584944 
L 61.268015 52.27792 
L 61.541929 52.754461 
L 61.572874 52.754461 
L 61.751873 53.377566 
L 61.811027 53.377566 
L 61.989772 55.173264 
L 62.020982 54.503349 
L 62.078995 55.289508 
L 62.10762 55.289508 
L 62.140345 55.763631 
L 62.232057 55.658474 
L 62.557439 56.313623 
L 62.677178 56.813779 
L 62.735287 56.700963 
L 62.828545 57.129566 
L 62.857446 56.778208 
L 62.917199 57.055754 
L 63.009193 57.048249 
L 63.128028 57.387572 
L 63.185258 57.055929 
L 63.249183 57.107079 
L 63.397598 57.121981 
L 63.427071 57.334328 
L 63.487257 57.121981 
L 63.577898 57.121981 
L 63.904637 60.197791 
L 63.962368 60.087516 
L 63.991287 60.106865 
L 64.021651 60.197791 
L 64.138655 60.736552 
L 64.282364 60.855032 
L 64.376403 60.872181 
L 64.465322 61.267186 
L 64.553413 60.758019 
L 64.584677 61.001275 
L 64.615206 61.077476 
L 64.643901 61.745454 
L 64.732524 61.590351 
L 64.936758 61.590351 
L 65.024956 61.759869 
L 65.053483 61.718069 
L 65.142683 61.718069 
L 65.411108 63.589691 
L 65.499013 63.681837 
L 65.529782 64.570396 
L 65.617351 63.943728 
L 65.735773 64.046978 
L 65.828395 63.963077 
L 65.945246 64.924433 
L 66.03413 64.819515 
L 66.18833 65.799977 
L 66.248364 64.939182 
L 66.309086 65.283937 
L 66.338747 65.215866 
L 66.39949 65.199449 
L 66.461453 65.529812 
L 66.584134 65.59273 
L 66.708261 65.68708 
L 66.889334 65.68708 
L 66.918673 66.676053 
L 66.98178 65.633062 
L 67.044657 65.58383 
L 67.075405 65.718549 
L 67.138467 65.598261 
L 67.167961 65.598261 
L 67.292485 65.773994 
L 67.416552 65.773994 
L 67.62673 66.851498 
L 67.808311 66.837067 
L 67.902478 68.023641 
L 67.96219 67.098206 
L 68.0234 67.245862 
L 68.054394 67.098206 
L 68.172291 67.875985 
L 68.233064 67.875985 
L 68.472115 68.403439 
L 68.596498 68.279003 
L 68.656797 68.588934 
L 68.688418 68.279003 
L 68.753443 68.372673 
L 68.905922 68.555954 
L 68.936261 68.402571 
L 68.967358 68.619842 
L 69.028604 68.504378 
L 69.151738 69.122632 
L 69.182892 68.76953 
L 69.21328 68.76953 
L 69.33248 69.21587 
L 69.361841 68.963099 
L 69.423923 68.956438 
L 69.547209 69.408757 
L 69.607425 69.402779 
L 69.639253 69.006356 
L 69.726031 69.066443 
L 69.815934 68.979332 
L 69.903587 69.066443 
L 69.934458 69.026756 
L 69.993275 68.979332 
L 70.143737 69.342628 
L 70.445035 69.371631 
L 70.503335 69.790738 
L 70.563595 69.77151 
L 70.829289 69.842179 
L 70.861067 69.897442 
L 70.891015 70.251267 
L 70.920093 69.861406 
L 70.978003 70.160927 
L 71.211911 70.267632 
L 71.330557 70.378508 
L 71.720652 70.463618 
L 71.868631 70.874794 
L 71.926536 70.699561 
L 71.984513 70.812626 
L 72.134408 70.812626 
L 72.165941 70.62155 
L 72.249646 70.686567 
L 72.27903 70.686567 
L 72.426268 71.307234 
L 72.487561 71.307917 
L 72.577694 71.713619 
L 72.607832 71.445181 
L 72.880425 71.784293 
L 72.970765 71.830754 
L 73.09218 71.90086 
L 73.239147 72.8014 
L 73.385441 72.978981 
L 73.479656 72.978981 
L 73.536254 73.535771 
L 73.593816 73.205611 
L 73.621978 73.205611 
L 73.68294 73.535771 
L 73.743006 73.316574 
L 73.801774 73.28977 
L 73.859043 74.027171 
L 73.889594 73.220569 
L 73.981423 73.465665 
L 74.074637 73.549256 
L 74.219967 73.465665 
L 74.488352 73.466082 
L 74.549214 73.578218 
L 74.579111 73.465665 
L 74.915862 73.531931 
L 75.094543 73.840579 
L 75.125225 74.492916 
L 75.154171 73.760152 
L 75.213045 74.421974 
L 75.392353 74.566754 
L 75.628596 74.564714 
L 75.716333 74.987914 
L 75.746609 74.950521 
L 75.777302 74.950521 
L 75.805418 74.564714 
L 75.893664 74.581145 
L 76.043395 75.695925 
L 76.106466 75.615498 
L 76.136914 75.71162 
L 76.195507 75.778141 
L 76.226093 76.120798 
L 76.288045 75.739335 
L 76.407458 75.820587 
L 76.437015 75.851888 
L 76.46593 75.820587 
L 76.587062 76.397257 
L 76.645648 76.443939 
L 76.673082 76.030155 
L 76.944872 78.70358 
L 76.974906 78.70358 
L 77.066269 77.987081 
L 77.095399 78.037042 
L 77.125295 78.037042 
L 77.154761 77.827935 
L 77.184707 78.093312 
L 77.215869 78.093312 
L 77.245086 78.126624 
L 77.275782 78.037042 
L 77.304804 78.037042 
L 77.397579 79.091901 
L 77.42579 78.341421 
L 77.675172 79.520128 
L 77.706188 79.520128 
L 77.857248 80.389121 
L 77.918837 80.389121 
L 77.949587 79.846429 
L 78.01023 79.936685 
L 78.12458 80.595096 
L 78.270091 80.562367 
L 78.297614 80.057067 
L 78.358538 80.389121 
L 78.509625 80.740837 
L 78.538696 80.740837 
L 78.598593 80.691706 
L 78.747541 81.312101 
L 78.865715 81.26811 
L 78.925975 81.251678 
L 78.956061 81.452029 
L 79.04671 81.054106 
L 79.076231 81.076577 
L 79.260034 81.239847 
L 79.350655 81.69028 
L 79.476689 81.239847 
L 79.59645 81.379744 
L 79.627954 81.379744 
L 79.657203 81.641878 
L 79.744137 81.558214 
L 79.86238 81.596313 
L 79.891939 81.558214 
L 80.011475 81.558214 
L 80.126941 82.538771 
L 80.245795 82.538771 
L 80.397404 83.631599 
L 80.605131 83.631599 
L 80.63583 83.851052 
L 80.752115 85.95523 
L 80.963427 85.993557 
L 81.111514 86.07626 
L 81.167295 85.993557 
L 81.348923 85.864974 
L 81.37597 85.95523 
L 81.462305 85.864974 
L 81.697276 85.923967 
L 81.869912 86.04477 
L 81.987237 86.04477 
L 82.045924 86.314285 
L 82.106669 86.254136 
L 82.196953 86.29122 
L 82.320057 86.509603 
L 82.473451 86.597581 
L 82.563359 86.612239 
L 82.794743 86.823525 
L 82.916325 86.694942 
L 82.947342 86.914395 
L 83.034643 86.872663 
L 83.155238 86.982029 
L 83.097372 86.823525 
L 83.18515 86.94393 
L 83.331407 87.022789 
L 83.51291 87.184398 
L 83.753303 87.278925 
L 84.051305 87.86747 
L 84.529285 87.924818 
L 84.918897 88.792119 
L 85.20038 88.872241 
L 85.228954 89.136291 
L 85.319861 88.957089 
L 85.41211 88.872241 
L 85.530296 89.237238 
L 85.558551 89.237238 
L 85.677589 88.872241 
L 85.706793 88.872241 
L 85.737209 89.104598 
L 85.79845 88.872241 
L 85.919481 88.872241 
L 86.039149 89.161197 
L 86.06974 89.161197 
L 86.099713 89.365065 
L 86.164205 89.189846 
L 86.223853 89.257412 
L 86.348666 89.670496 
L 86.440828 89.670496 
L 86.593966 90.207692 
L 86.625769 90.207692 
L 86.743435 90.396552 
L 86.837636 90.492565 
L 86.929179 90.526687 
L 87.051454 91.233813 
L 87.474571 91.237548 
L 87.506388 91.432427 
L 87.56542 91.335577 
L 87.682132 91.233813 
L 88.105905 91.329826 
L 88.197867 91.593876 
L 88.228195 91.329826 
L 88.287699 91.497862 
L 88.409522 91.593876 
L 88.50146 91.497862 
L 88.532883 91.517528 
L 88.682621 91.517528 
L 88.775364 91.786818 
L 88.805131 91.623872 
L 88.836676 91.623872 
L 88.892079 91.497862 
L 88.921852 91.637717 
L 88.95316 91.637717 
L 89.075606 91.826132 
L 89.134096 91.786818 
L 89.314695 92.366429 
L 89.371369 92.366429 
L 89.495424 92.232298 
L 89.526702 93.212269 
L 89.587332 92.310306 
L 89.767612 92.138327 
L 89.951343 93.295138 
L 90.009477 93.068981 
L 90.065719 93.153772 
L 90.184821 93.610829 
L 90.244242 93.630186 
L 90.30282 93.108663 
L 90.505641 93.113582 
L 90.629112 93.296264 
L 90.660127 93.296264 
L 90.75392 94.276236 
L 90.784481 94.088635 
L 90.847267 94.088635 
L 90.966896 94.276236 
L 91.08483 94.298277 
L 91.205582 94.410367 
L 91.38578 94.485979 
L 91.4149 94.984582 
L 91.445346 94.410367 
L 91.477642 94.430032 
L 91.598342 94.402397 
L 91.716269 94.887089 
L 91.778073 94.402397 
L 91.809641 94.458728 
L 91.925893 95.091065 
L 92.015023 95.151485 
L 92.045398 95.586931 
L 92.131309 95.556963 
L 92.160295 95.556963 
L 92.189609 95.806552 
L 92.219764 95.702981 
L 92.277282 95.151485 
L 92.335755 95.280052 
L 92.399884 95.280052 
L 92.492186 95.151485 
L 92.639299 95.516616 
L 92.821851 95.568136 
L 92.851692 95.681671 
L 92.908343 95.568136 
L 93.060914 95.659031 
L 93.182481 96.382867 
L 93.213402 96.565438 
L 93.276081 96.496402 
L 93.367733 96.448595 
L 93.634373 97.086961 
L 93.664647 97.086961 
L 93.694849 97.32434 
L 93.753378 97.086961 
L 93.781641 97.086961 
L 93.903659 98.259504 
L 93.932709 98.076933 
L 94.049366 98.108404 
L 94.110271 98.787671 
L 94.170846 98.388072 
L 94.199768 98.236971 
L 94.230619 98.448492 
L 94.257671 98.448492 
L 94.287153 98.616244 
L 94.349176 98.448492 
L 94.910767 98.479963 
L 94.941304 98.60841 
L 95.001867 98.479963 
L 95.092328 98.479963 
L 95.213323 98.670713 
L 95.272244 98.670713 
L 95.393989 98.779415 
L 95.668073 98.799161 
L 95.789341 98.612341 
L 95.935242 98.670713 
L 95.966809 98.670713 
L 95.998872 98.784248 
L 96.062709 98.670713 
L 96.210142 98.728737 
L 96.329214 99.607011 
L 96.454215 99.14857 
L 96.599407 99.965333 
L 96.71699 99.607011 
L 96.746506 99.679467 
L 96.834833 99.607011 
L 96.864751 99.607011 
L 96.895508 99.80174 
L 96.956149 99.735458 
L 97.016167 99.607011 
L 97.07613 99.665383 
L 97.251747 99.758619 
L 97.283313 99.892414 
L 97.347412 99.79383 
L 97.438046 99.758619 
L 97.520219 99.700247 
L 97.549736 99.854216 
L 97.667694 99.854216 
L 97.698214 99.973306 
L 97.761313 99.854216 
L 97.852054 99.94448 
L 98.036109 100.609136 
L 98.217319 100.687869 
L 98.276621 100.884127 
L 98.337209 100.609136 
L 98.389663 100.667509 
L 98.451063 100.692775 
L 98.480935 100.610322 
L 98.571272 100.609136 
L 98.695899 101.435465 
L 98.727194 101.095033 
L 98.936893 101.347708 
L 98.967686 101.105911 
L 99.088897 102.080845 
L 99.209538 102.355836 
L 99.300307 102.355836 
L 99.388778 102.519816 
L 99.448006 102.355836 
L 99.507131 102.455033 
L 99.751438 102.474926 
L 99.869804 102.67235 
L 99.931151 102.582192 
L 100.051394 104.14798 
L 100.083053 104.276427 
L 100.143349 104.14798 
L 100.235081 104.16698 
L 100.265878 104.283376 
L 100.293503 104.137778 
L 100.322546 104.137778 
L 100.380617 104.16698 
L 100.533566 104.389359 
L 100.562904 104.266225 
L 100.623894 104.389359 
L 100.652687 104.389359 
L 100.767442 105.413063 
L 100.979606 105.524772 
L 101.097718 105.637392 
L 101.310988 105.753788 
L 101.3416 105.867663 
L 101.427441 105.764666 
L 101.518745 105.832521 
L 101.548144 105.753788 
L 101.579176 105.832521 
L 101.793609 106.596958 
L 101.854926 106.471374 
L 102.006256 106.471374 
L 102.154922 107.226918 
L 102.244662 107.237796 
L 102.368244 107.854165 
L 102.399055 107.854165 
L 102.430502 107.740064 
L 102.489566 107.780387 
L 102.613427 108.073558 
L 102.78972 108.196237 
L 102.818371 108.176602 
L 102.968659 108.338277 
L 103.124025 108.437137 
L 103.245419 108.29928 
L 103.333803 108.29928 
L 103.392206 108.519404 
L 103.452838 108.421862 
L 103.485292 108.345083 
L 103.514996 108.364194 
L 103.661893 108.586958 
L 103.814402 108.542676 
L 103.93904 111.629013 
L 104.126072 112.002095 
L 104.186727 112.002095 
L 104.27694 112.26446 
L 104.30674 112.002095 
L 104.399679 112.030504 
L 104.430617 112.573698 
L 104.491769 112.103707 
L 104.521298 112.030504 
L 104.584244 112.103707 
L 104.731373 112.103707 
L 104.881901 113.604024 
L 105.151053 113.713471 
L 105.214406 113.724349 
L 105.3341 116.516638 
L 105.364065 116.469958 
L 105.454227 116.683506 
L 105.485549 116.623002 
L 105.579989 116.622447 
L 105.703577 116.430234 
L 105.851375 116.406635 
L 105.943817 116.722432 
L 105.975199 116.698832 
L 106.246686 116.807147 
L 106.2778 116.94995 
L 106.308087 116.719096 
L 106.371414 116.609649 
L 106.526758 119.184131 
L 106.621121 119.217722 
L 106.652436 119.438634 
L 106.71193 119.184131 
L 106.890591 119.217961 
L 106.921474 119.184131 
L 107.042697 119.573051 
L 107.221724 119.635316 
L 107.284077 119.849282 
L 107.314057 119.693897 
L 107.407531 119.740815 
L 107.504091 119.803081 
L 107.687243 119.682498 
L 107.7766 119.64164 
L 107.805801 120.001495 
L 107.864466 119.64164 
L 107.895319 120.141451 
L 108.220262 120.16505 
L 108.374246 120.421735 
L 108.644244 120.470021 
L 108.731584 120.711194 
L 108.759643 120.489715 
L 108.822677 120.489715 
L 108.90992 120.996048 
L 108.940404 120.645306 
L 109.120995 120.576296 
L 109.211165 120.432235 
L 109.242766 120.561333 
L 109.270635 120.297532 
L 109.30077 120.297532 
L 109.331073 120.410736 
L 109.390332 120.344656 
L 109.422247 120.271001 
L 109.484314 121.167612 
L 109.57245 120.731907 
L 109.694677 120.844103 
L 109.721098 120.669778 
L 109.781898 120.892044 
L 109.871243 120.880171 
L 109.991933 121.151887 
L 110.080755 120.920247 
L 110.110829 121.050417 
L 110.141842 120.92311 
L 110.201904 121.029695 
L 110.321931 121.050417 
L 110.477643 121.466793 
L 110.596575 121.159905 
L 110.62518 121.214302 
L 110.775639 122.505225 
L 110.806241 122.058534 
L 110.868658 122.058534 
L 110.991662 122.512254 
L 111.08248 122.487703 
L 111.175 122.682468 
L 111.238712 122.487703 
L 111.357665 122.993555 
L 111.389924 123.061718 
L 111.450948 122.993555 
L 111.54106 122.989778 
L 111.657968 123.34553 
L 111.688947 123.230951 
L 111.71899 123.386237 
L 111.749886 123.386237 
L 111.869695 123.837613 
L 111.899465 123.444818 
L 111.986907 123.552316 
L 112.131514 123.987111 
L 112.161534 123.987111 
L 112.192393 123.828794 
L 112.281523 123.944614 
L 112.456552 123.944614 
L 112.609214 124.338118 
L 112.849218 124.40669 
L 112.977118 124.40669 
L 113.006148 124.588321 
L 113.065715 124.508076 
L 113.126378 124.568518 
L 113.157158 124.414901 
L 113.186394 124.598248 
L 113.245907 124.414901 
L 113.305345 124.414901 
L 113.33412 124.686771 
L 113.394644 124.414901 
L 113.489998 124.426916 
L 113.522113 125.076709 
L 113.583168 124.414901 
L 113.643085 124.52743 
L 113.700844 124.350133 
L 113.879365 124.526913 
L 114.03114 125.533293 
L 114.149575 125.978979 
L 114.179042 125.978979 
L 114.29879 126.289973 
L 114.387785 126.351418 
L 114.417396 126.488514 
L 114.447647 126.289973 
L 114.476546 126.289973 
L 114.600768 126.289973 
L 114.776669 126.946394 
L 114.864583 126.732366 
L 114.896083 127.139837 
L 114.982425 126.945109 
L 115.012547 127.139837 
L 115.069976 126.945109 
L 115.126451 126.960342 
L 115.186846 127.153965 
L 115.246661 127.05609 
L 115.394591 127.139548 
L 115.425263 127.116104 
L 115.548339 127.527352 
L 115.8114 127.595088 
L 115.933164 127.630055 
L 116.112568 127.673584 
L 116.252551 127.758628 
L 116.346116 127.7151 
L 116.374148 127.816415 
L 116.433905 127.763474 
L 116.464427 127.7151 
L 116.495802 127.913641 
L 116.553956 127.752675 
L 116.612784 127.810942 
L 116.737068 128.738333 
L 117.064657 128.807267 
L 117.162528 128.936875 
L 117.193167 128.877102 
L 117.694892 128.936875 
L 117.724201 129.696497 
L 117.786202 128.936875 
L 117.84733 128.936875 
L 117.877844 129.367639 
L 117.938048 128.936875 
L 117.969108 128.936875 
L 118.090232 129.311961 
L 118.11783 129.311961 
L 118.177585 129.456961 
L 118.207706 129.311961 
L 118.235962 129.311961 
L 118.355433 129.795797 
L 118.470405 129.745898 
L 118.531019 129.725687 
L 118.711304 130.784458 
L 118.743018 130.470075 
L 118.828837 130.555556 
L 118.858147 130.482025 
L 118.919268 130.56958 
L 118.981447 130.613108 
L 119.095699 131.172119 
L 119.184461 131.072615 
L 119.330859 131.56985 
L 119.359522 131.311447 
L 119.421088 131.444489 
L 119.631573 131.620596 
L 119.661432 132.186666 
L 119.726016 131.620596 
L 119.844641 131.726175 
L 119.875105 131.680554 
L 120.2309 132.106138 
L 120.320721 132.051391 
L 120.351096 132.119934 
L 120.774121 132.272325 
L 120.926692 132.646951 
L 120.986106 132.362858 
L 121.016039 132.766798 
L 121.045503 132.766798 
L 121.135149 132.965521 
L 121.157421 132.954429 
L 121.276694 132.75824 
L 121.394588 132.815343 
L 121.426039 132.75824 
L 121.520037 132.813781 
L 121.700498 132.876075 
L 121.730364 132.961555 
L 121.790619 132.876707 
L 121.851381 132.876707 
L 122.000234 133.16779 
L 122.087849 133.156786 
L 122.116011 133.309882 
L 122.173267 133.156786 
L 122.507386 133.168736 
L 122.625493 133.545412 
L 122.776457 133.483118 
L 122.833948 133.479507 
L 123.014037 133.967729 
L 123.074094 133.967729 
L 123.281412 134.450472 
L 123.311856 134.378527 
L 123.435047 134.688199 
L 123.645574 134.425454 
L 123.676797 134.46542 
L 123.706526 134.425454 
L 123.823547 134.241093 
L 123.853959 134.294139 
L 123.945388 134.343366 
L 123.976152 134.267902 
L 124.036717 134.361018 
L 124.094129 134.594238 
L 124.154236 134.562775 
L 124.306231 134.6018 
L 124.397354 134.714587 
L 124.424474 134.661501 
L 124.543768 134.773735 
L 124.66295 134.570106 
L 125.020572 134.859216 
L 125.04915 134.818948 
L 125.282952 134.857973 
L 125.374088 134.943453 
L 125.404727 134.873518 
L 125.434225 134.873518 
L 125.554547 134.995406 
L 125.915217 135.081469 
L 126.014553 135.163524 
L 126.042605 135.102466 
L 126.102295 135.046101 
L 126.131474 135.144685 
L 126.279048 135.18084 
L 126.369593 135.791375 
L 126.400811 135.782247 
L 126.49326 136.0955 
L 126.581598 136.002677 
L 126.761945 135.778445 
L 126.820969 135.902288 
L 126.851902 135.76534 
L 126.942524 135.742085 
L 126.973422 135.791375 
L 127.003942 135.791375 
L 127.144617 136.038254 
L 127.206182 136.39051 
L 127.265741 136.123919 
L 127.47263 136.209207 
L 127.716919 136.380048 
L 127.838399 136.253371 
L 127.86904 136.253371 
L 127.900426 136.427211 
L 127.962414 136.294272 
L 128.109488 136.253371 
L 128.261389 136.253371 
L 128.321355 136.728784 
L 128.34946 136.253371 
L 128.470961 136.459279 
L 128.502013 136.337421 
L 128.562542 136.337421 
L 128.713739 136.762342 
L 128.834382 136.783435 
L 128.952671 137.014237 
L 129.047827 137.064443 
L 129.078032 137.202247 
L 129.109538 137.042336 
L 129.139714 137.067991 
L 129.67489 137.173472 
L 129.706702 137.37938 
L 129.794856 137.284104 
L 129.852533 137.382774 
L 129.881465 137.144975 
L 129.946129 137.334248 
L 130.06442 137.454065 
L 130.094715 137.334248 
L 130.157378 137.439069 
L 130.246762 137.526712 
L 130.277173 137.498215 
L 130.401851 137.467566 
L 130.432394 137.603705 
L 130.492885 137.429865 
L 130.592338 137.470451 
L 130.624391 137.549682 
L 130.656445 137.344784 
L 130.687473 137.461682 
L 130.718231 137.337133 
L 130.780462 137.479591 
L 130.93153 137.538995 
L 130.961592 137.538995 
L 131.142257 137.884031 
L 131.202267 137.678123 
L 131.261967 137.737269 
L 131.327551 137.851963 
L 131.359206 137.678123 
L 131.38813 137.678123 
L 131.508173 138.376076 
L 131.630864 138.412967 
L 131.755376 138.338878 
L 131.902251 138.544099 
L 131.93285 138.459967 
L 132.022695 138.5034 
L 132.173082 138.676048 
L 132.205642 138.685618 
L 132.265744 138.573684 
L 132.29728 138.591194 
L 132.3287 138.737955 
L 132.386346 138.532048 
L 132.599658 138.544099 
L 132.717351 139.025495 
L 132.805777 139.071451 
L 132.835406 139.154814 
L 132.898774 139.043242 
L 132.928458 139.030644 
L 132.989983 139.159752 
L 133.02152 139.025495 
L 133.230071 139.220741 
L 133.261069 139.07645 
L 133.349915 139.102119 
L 133.440032 139.102119 
L 133.471018 139.851844 
L 133.499997 139.081598 
L 133.530895 139.271548 
L 133.55842 139.135039 
L 133.649924 139.222829 
L 133.830681 139.373062 
L 133.856622 139.285594 
L 133.94985 139.346562 
L 134.072256 139.346562 
L 134.279808 139.748715 
L 134.311 139.748715 
L 134.431512 139.64263 
L 134.52312 139.695748 
L 134.584331 140.039972 
L 134.610082 139.986057 
L 134.69899 139.664366 
L 134.72967 139.701258 
L 134.854713 139.826235 
L 135.062544 139.826235 
L 135.183958 139.99137 
L 135.333893 140.04842 
L 135.364146 140.173588 
L 135.424287 140.04842 
L 135.695138 140.143674 
L 135.786254 140.180431 
L 135.815457 140.04842 
L 135.901904 140.100009 
L 136.174893 140.100009 
L 136.206884 140.244581 
L 136.26728 140.100009 
L 136.415472 140.181144 
L 136.534496 140.78584 
L 136.56663 140.78584 
L 136.689262 141.672238 
L 136.809914 140.885969 
L 136.838924 141.18694 
L 136.928356 141.017979 
L 137.105031 141.009805 
L 137.341044 141.896203 
L 137.582868 141.896203 
L 137.704238 142.145697 
L 138.144076 142.150378 
L 138.205434 142.521303 
L 138.235513 142.145697 
L 138.352646 142.145697 
L 138.469982 143.303866 
L 138.643464 143.662719 
L 138.672804 143.559785 
L 138.737799 143.679472 
L 138.91995 143.699649 
L 139.037214 144.114898 
L 139.067939 144.114898 
L 139.126619 143.679472 
L 139.156301 144.02148 
L 139.330706 144.215469 
L 139.604536 144.303362 
L 139.785426 144.520708 
L 139.874759 144.344263 
L 140.052312 144.952916 
L 140.227159 144.917861 
L 140.380455 145.361389 
L 140.411235 145.28947 
L 140.772743 145.228347 
L 140.913232 145.536639 
L 141.306733 145.536639 
L 141.36334 145.830767 
L 141.39809 145.536639 
L 141.605988 145.555737 
L 141.635911 146.058182 
L 141.696262 145.636992 
L 141.907605 145.696817 
L 141.966101 145.852598 
L 142.027855 145.784858 
L 142.383223 145.825585 
L 142.5005 147.043136 
L 142.88148 147.38567 
L 143.180817 147.401754 
L 143.329727 147.715951 
L 143.50386 147.745832 
L 143.65457 147.889128 
L 143.743081 147.976649 
L 144.137043 148.274542 
L 144.225447 148.16732 
L 144.254681 148.228203 
L 144.456984 148.16732 
L 144.488935 148.854907 
L 144.551492 148.16732 
L 144.609091 148.426769 
L 144.669647 148.302947 
L 144.700676 148.367365 
L 144.789833 148.302947 
L 144.818597 148.302947 
L 144.967409 148.558066 
L 145.028178 148.586471 
L 145.050952 148.450844 
L 145.226901 148.84592 
L 145.349825 148.84592 
L 145.377764 149.096012 
L 145.439114 148.84592 
L 145.59309 148.852848 
L 145.742634 149.40819 
L 146.188662 149.440495 
L 146.342627 149.621276 
L 146.461724 149.593911 
L 146.667446 149.658841 
L 146.697311 149.721673 
L 146.786175 149.658841 
L 146.993748 149.676723 
L 147.023193 150.450062 
L 147.084786 149.672703 
L 147.47091 149.750616 
L 147.591601 149.799547 
L 147.654918 150.461625 
L 147.712871 150.367752 
L 147.863517 150.560909 
L 148.013823 150.510556 
L 148.042045 150.510556 
L 148.159476 151.349205 
L 149.245079 151.403157 
L 149.303897 151.910629 
L 149.362497 151.546375 
L 149.45204 151.403157 
L 149.570045 151.825622 
L 149.601284 151.896571 
L 149.662452 151.825622 
L 149.837229 151.894439 
L 149.922331 151.985332 
L 149.951829 151.964893 
L 150.012183 151.932843 
L 150.042242 152.003793 
L 150.245592 152.003793 
L 150.306299 152.139968 
L 150.365806 152.056281 
L 150.639762 152.072611 
L 150.813941 152.839965 
L 150.845104 152.839965 
L 150.936294 152.483421 
L 150.966424 152.527848 
L 151.027371 153.133064 
L 151.058363 152.586329 
L 151.513506 152.619596 
L 151.542542 153.257582 
L 151.605646 152.483421 
L 151.87939 152.483421 
L 151.909583 152.998612 
L 151.972332 152.483421 
L 152.889731 152.550363 
L 153.008588 152.357206 
L 153.126754 152.515224 
L 153.217024 152.515224 
L 153.27843 152.668155 
L 153.307799 152.529141 
L 153.483404 152.617398 
L 153.513702 152.709645 
L 153.572603 152.617398 
L 153.722289 152.617398 
L 153.865127 153.502615 
L 154.190462 153.548197 
L 154.311849 153.701128 
L 154.4345 153.57701 
L 154.464569 153.57701 
L 154.586126 153.701128 
L 154.765245 153.760546 
L 154.884643 154.428748 
L 154.917983 154.493419 
L 154.980802 154.442665 
L 155.008374 155.752608 
L 155.065206 154.442665 
L 155.184598 154.523666 
L 155.334507 154.463993 
L 155.366504 154.519423 
L 155.494032 155.805356 
L 155.585237 155.79834 
L 155.731564 156.751374 
L 155.82086 156.751374 
L 155.939984 157.635643 
L 156.060693 157.635643 
L 156.092108 157.798115 
L 156.152961 157.65697 
L 156.43008 157.65697 
L 156.460347 157.805643 
L 156.519931 157.65697 
L 156.610293 157.635643 
L 156.670643 157.816015 
L 156.732724 157.794687 
L 156.882434 157.78216 
L 157.001611 157.663153 
L 157.81591 157.817156 
L 158.083007 157.761355 
L 158.205405 159.203678 
L 158.4437 159.227345 
L 158.533773 160.519873 
L 158.564466 160.474428 
L 158.888275 160.474428 
L 159.010747 160.772355 
L 159.340347 160.772355 
L 159.461971 161.212461 
L 159.674865 161.12511 
L 160.222639 161.199171 
L 160.282199 161.288349 
L 160.312179 161.148329 
L 160.43003 161.084317 
L 160.57992 161.116731 
L 160.704163 161.116731 
L 160.735473 161.320764 
L 160.791363 161.140117 
L 161.026981 161.084317 
L 161.183696 161.091857 
L 161.366103 161.876223 
L 161.574347 161.915464 
L 161.722945 162.126239 
L 161.838075 162.178309 
L 161.986062 163.28591 
L 162.411966 163.380414 
L 162.502981 163.554147 
L 162.533714 163.494013 
L 162.562885 163.494013 
L 162.594178 163.818196 
L 162.62451 163.473149 
L 162.653806 163.473149 
L 162.775152 163.494477 
L 162.804818 163.710488 
L 162.867478 163.494477 
L 163.014176 163.494477 
L 163.136052 163.707617 
L 163.409654 163.734598 
L 163.557558 163.911908 
L 163.709907 163.911908 
L 163.772173 164.314926 
L 163.805568 163.911908 
L 164.107265 164.200056 
L 164.137532 164.157268 
L 164.169159 164.157268 
L 164.291084 164.473884 
L 164.443536 164.500866 
L 164.505386 164.304358 
L 164.534546 164.473884 
L 164.65371 164.575972 
L 164.91778 164.670536 
L 165.041624 164.326938 
L 165.097984 164.575989 
L 165.155061 164.506579 
L 165.276565 164.917611 
L 165.366239 164.839342 
L 165.485217 164.608667 
L 165.51618 164.761358 
L 165.581157 164.673167 
L 165.643039 164.673167 
L 165.765036 164.837205 
L 165.885001 164.608667 
L 165.944222 164.568822 
L 165.975455 165.090279 
L 166.00553 164.506579 
L 166.037546 164.506579 
L 166.185682 164.608667 
L 166.600044 164.540821 
L 166.722695 164.399957 
L 166.8695 164.399957 
L 167.020838 164.94672 
L 167.049945 165.058174 
L 167.137033 164.988566 
L 167.261088 164.988566 
L 167.435759 165.073062 
L 167.526678 165.331915 
L 167.616546 165.073062 
L 167.73709 165.331915 
L 168.037852 165.331915 
L 168.125263 165.723888 
L 168.242361 165.331915 
L 168.418676 165.404307 
L 168.535636 165.688445 
L 168.592291 165.723888 
L 168.740068 165.404307 
L 168.831437 165.441962 
L 168.889297 165.632844 
L 168.977962 165.515745 
L 169.129421 165.567672 
L 169.284679 165.691822 
L 169.501 165.62233 
L 169.531678 165.563501 
L 169.561448 165.5849 
L 169.622003 165.70905 
L 169.679219 165.673163 
L 169.737874 165.673163 
L 169.886532 166.138293 
L 170.027489 166.138293 
L 170.058798 165.754824 
L 170.151832 165.811155 
L 170.212175 165.7763 
L 170.359238 166.170253 
L 170.454136 165.941715 
L 170.483533 166.011124 
L 170.694948 166.008038 
L 170.725331 166.167716 
L 170.786019 166.008038 
L 170.906091 166.015076 
L 170.935543 166.153587 
L 170.994829 166.008038 
L 171.144735 166.008038 
L 171.203752 166.641485 
L 171.262756 166.494338 
L 171.479483 166.575162 
L 171.60801 166.638948 
L 171.794244 166.667027 
L 171.856787 166.979097 
L 171.887234 166.667027 
L 172.069907 166.669564 
L 172.190995 167.712645 
L 172.339755 167.7417 
L 172.429874 168.219104 
L 172.460045 168.149695 
L 172.884469 168.165267 
L 172.914779 168.453102 
L 173.005245 168.27908 
L 173.127895 168.297517 
L 173.156802 168.941176 
L 173.214664 168.297517 
L 173.583191 168.393432 
L 173.733029 168.505121 
L 173.82182 168.407684 
L 173.850645 168.462841 
L 174.127994 168.552303 
L 174.157122 168.74143 
L 174.207337 168.461396 
L 174.329838 168.51113 
L 174.665711 168.585184 
L 174.783935 169.185961 
L 174.816551 168.772834 
L 174.879804 169.128483 
L 174.939074 169.084904 
L 175.059077 169.33296 
L 175.118107 169.33296 
L 175.272349 170.10972 
L 175.302012 170.071177 
L 175.484791 170.255501 
L 175.606572 170.255501 
L 175.63675 170.461278 
L 175.700442 170.307229 
L 175.84867 170.272656 
L 176.119361 170.255501 
L 176.271613 170.647124 
L 176.358472 170.41988 
L 176.389143 170.425926 
L 176.509958 171.063762 
L 176.748577 171.063762 
L 176.839013 171.202307 
L 176.868445 171.063762 
L 176.897035 171.238341 
L 176.95795 171.114392 
L 177.199936 171.079469 
L 177.321393 171.133171 
L 177.442998 171.303504 
L 177.714751 171.49072 
L 177.955789 171.529811 
L 178.075218 171.582153 
L 178.134141 172.268006 
L 178.165295 171.582371 
L 178.195202 171.529811 
L 178.285422 171.588749 
L 178.344254 171.64964 
L 178.404357 171.595491 
L 178.806104 171.68154 
L 178.866722 171.732924 
L 178.92653 171.673986 
L 179.232759 171.654126 
L 179.355444 171.906711 
L 179.386553 171.913749 
L 179.515655 172.291033 
L 179.576865 172.056014 
L 179.635235 172.156034 
L 179.755495 172.335045 
L 179.787491 172.335045 
L 179.846293 172.578319 
L 179.876509 172.334861 
L 179.96759 172.366454 
L 180.088894 173.09635 
L 180.213498 173.185542 
L 180.336832 173.324087 
L 180.399073 173.245188 
L 180.54968 173.185542 
L 180.610266 173.185542 
L 180.671389 173.313961 
L 180.701929 173.185542 
L 180.822021 173.170827 
L 180.948552 173.173267 
L 181.037871 173.559636 
L 181.06932 173.441052 
L 181.130443 173.453326 
L 181.250047 173.644678 
L 181.4321 173.703615 
L 181.495597 173.806835 
L 181.524873 173.695308 
L 181.854958 173.776208 
L 181.884963 173.95426 
L 181.94301 173.803176 
L 182.492437 173.803176 
L 182.640323 174.257724 
L 182.732334 174.257724 
L 182.853523 174.432157 
L 183.15468 174.480207 
L 183.187494 174.721897 
L 183.251032 174.495879 
L 183.487531 174.495879 
L 183.610568 175.051567 
L 183.641964 175.051567 
L 183.764348 175.471142 
L 183.854649 175.292271 
L 183.885767 175.343654 
L 183.94581 175.343654 
L 184.095325 175.564949 
L 184.250118 175.663763 
L 184.432987 175.68886 
L 184.76516 175.758392 
L 184.888663 176.298687 
L 185.03721 175.781145 
L 185.064256 175.703276 
L 185.125028 175.798524 
L 185.184244 175.781145 
L 185.24627 175.927425 
L 185.304902 175.819967 
L 185.757936 175.819967 
L 185.786089 175.975625 
L 185.84427 175.819967 
L 186.31978 175.878508 
L 186.409661 175.939399 
L 186.439555 175.878508 
L 186.58712 175.880083 
L 186.771435 176.147864 
L 187.0368 176.773303 
L 187.130972 176.708241 
L 187.345456 176.794766 
L 187.491161 176.854413 
L 187.61161 176.854413 
L 187.70163 176.794766 
L 187.758002 176.840917 
L 188.150557 176.855657 
L 188.181308 176.994202 
L 188.268624 176.915304 
L 188.390044 177.207909 
L 188.451913 177.708724 
L 188.483015 177.189927 
L 188.597497 177.40023 
L 188.71699 177.251035 
L 188.838078 177.342518 
L 188.89897 177.243704 
L 188.960645 177.303351 
L 189.137817 177.303351 
L 189.229555 177.579053 
L 189.352653 177.326157 
L 189.473306 177.402165 
L 189.708307 177.402165 
L 189.741865 177.51547 
L 189.803847 177.422528 
L 189.834976 177.422528 
L 189.984756 177.69555 
L 190.09581 177.631049 
L 190.12584 177.492198 
L 190.156204 177.747545 
L 190.212959 177.544193 
L 190.359676 177.563068 
L 190.808074 177.654668 
L 190.932257 177.961205 
L 190.96237 177.868281 
L 191.049999 177.907468 
L 191.198865 178.57123 
L 191.795318 178.65459 
L 191.941411 178.865778 
L 192.009 178.65459 
L 192.070312 178.707681 
L 192.161816 178.631886 
L 192.222938 179.23771 
L 192.253675 178.732778 
L 192.430196 178.835344 
L 192.611971 178.984818 
L 192.641736 178.835344 
L 192.703328 178.965048 
L 192.793563 179.010185 
L 192.9178 179.205033 
L 193.036517 178.996391 
L 193.478091 179.341001 
L 193.594342 179.47727 
L 194.044879 179.553245 
L 194.105923 179.695692 
L 194.134574 179.652059 
L 194.193694 179.553245 
L 194.225322 179.679089 
L 194.377596 179.749689 
L 194.46938 179.553245 
L 194.50059 179.656722 
L 194.680209 179.626571 
L 194.709822 179.923245 
L 194.769642 179.626571 
L 194.800905 179.691267 
L 194.89183 179.626571 
L 195.04257 179.662014 
L 195.071945 179.811326 
L 195.102766 179.626571 
L 195.132956 179.626571 
L 195.906588 179.612637 
L 196.029688 180.083274 
L 196.246674 180.083274 
L 196.277678 180.298353 
L 196.340033 180.153874 
L 196.489721 180.083274 
L 196.819606 180.184287 
L 196.84785 180.210077 
L 196.968569 181.667323 
L 197.293502 181.766137 
L 197.473993 181.766137 
L 197.501652 181.667323 
L 197.56303 181.766137 
L 198.196135 181.802015 
L 198.226646 181.972192 
L 198.285926 181.803671 
L 198.495909 181.816772 
L 198.88323 182.726147 
L 198.977189 182.751937 
L 199.127 182.969737 
L 199.48493 182.976705 
L 199.624902 183.091688 
L 199.714731 183.091688 
L 199.743674 183.214676 
L 199.834075 183.149292 
L 199.86277 183.149292 
L 199.926619 183.324471 
L 199.956761 183.160648 
L 199.987759 183.21297 
L 200.017817 183.151285 
L 200.107819 183.078818 
L 200.138393 183.149292 
L 200.499511 183.209341 
L 200.587751 183.282262 
L 200.617413 183.209341 
L 201.093341 183.285176 
L 201.208648 183.567552 
L 201.298258 183.567552 
L 201.356116 183.370415 
L 201.385602 183.567552 
L 201.744624 183.636638 
L 201.895974 183.926389 
L 201.955898 183.77079 
L 201.985007 183.850049 
L 202.045672 183.949939 
L 202.075629 183.850049 
L 202.135486 183.888895 
L 202.256325 184.032183 
L 202.379947 183.953898 
L 202.412546 183.983081 
L 202.718796 183.953898 
L 202.961804 183.70943 
L 203.320618 183.779728 
L 203.381025 184.022305 
L 203.408215 183.736616 
L 203.776299 184.351327 
L 203.869897 184.180513 
L 204.384973 184.155123 
L 204.416315 184.430672 
L 204.475788 184.156445 
L 204.628496 184.095593 
L 204.719497 184.02097 
L 204.782168 184.291481 
L 204.813039 183.960495 
L 205.262441 184.029059 
L 205.410482 184.166445 
L 205.472387 184.100763 
L 205.594519 184.308749 
L 205.744532 184.221559 
L 205.775974 184.163575 
L 205.807208 184.308749 
L 206.112276 184.353658 
L 206.234696 184.549722 
L 206.453412 184.525258 
L 206.631199 185.021169 
L 206.661357 184.836679 
L 206.984067 184.901877 
L 207.045902 184.982708 
L 207.105642 184.901877 
L 207.193327 185.005807 
L 207.373752 185.04431 
L 207.734687 185.260999 
L 207.764691 185.457203 
L 207.822942 185.260999 
L 208.342656 185.260999 
L 208.411399 185.444912 
L 208.453117 185.378313 
L 208.531079 185.378313 
L 208.675609 185.602934 
L 208.793151 185.603365 
L 208.974702 185.874933 
L 209.098472 185.874933 
L 209.130127 186.046824 
L 209.214672 186.005767 
L 209.534693 186.202423 
L 209.56673 186.202423 
L 209.711926 186.372242 
L 209.9049 186.365494 
L 210.057961 186.299044 
L 210.216996 186.310686 
L 210.342871 186.664134 
L 210.499652 186.689836 
L 210.686715 186.69005 
L 210.71904 186.764872 
L 210.783767 186.734324 
L 210.925168 186.678195 
L 210.997063 186.678195 
L 211.030689 186.807404 
L 211.162614 188.030075 
L 211.291367 188.086473 
L 211.574508 188.130813 
L 211.611467 188.2881 
L 211.642087 188.071678 
L 211.674699 188.100534 
L 212.126671 188.175367 
L 212.156432 188.292134 
L 212.2192 188.17549 
L 212.472821 188.17168 
L 212.54124 188.353765 
L 212.602781 188.275609 
L 213.208522 188.275609 
L 213.240862 188.390312 
L 213.303939 188.370676 
L 213.427216 188.275609 
L 213.460657 188.275609 
L 213.618967 188.507122 
L 213.741587 188.341338 
L 214.127262 188.351152 
L 214.634755 188.446218 
L 214.794545 188.487985 
L 215.105873 188.586101 
L 215.288336 188.621737 
L 215.377049 188.693671 
L 215.501891 188.904932 
L 215.908431 188.990665 
L 215.940587 189.091848 
L 216.005761 188.995856 
L 216.281512 188.990665 
L 216.373023 189.280011 
L 216.405935 189.172441 
L 216.719193 189.195434 
L 216.811408 189.321506 
L 216.842673 189.273624 
L 217.027295 189.249548 
L 217.271332 189.249548 
L 217.329156 189.235671 
L 217.45824 189.36868 
L 217.582677 189.287056 
L 217.924097 189.252615 
L 218.016229 189.415901 
L 218.050378 189.238358 
L 218.141358 189.2962 
L 218.202968 189.338055 
L 218.234293 189.239546 
L 218.703342 189.437402 
L 218.826528 189.570244 
L 219.536485 189.516115 
L 219.659183 189.925021 
L 219.904701 189.925021 
L 220.437101 189.975887 
L 220.50237 190.107966 
L 220.535131 189.975887 
L 221.059777 190.056812 
L 221.092764 190.15348 
L 221.155802 190.056812 
L 221.246825 190.056812 
L 221.278029 190.352916 
L 221.341405 190.073602 
L 221.369819 190.073602 
L 221.39752 190.331921 
L 221.458818 190.099474 
L 221.833568 190.181556 
L 221.955018 190.099474 
L 222.389293 190.470625 
L 222.419537 190.397863 
L 222.48258 190.429895 
L 222.607028 190.64056 
L 223.132587 190.682327 
L 223.255732 190.77164 
L 223.377572 190.868966 
L 223.625571 191.003411 
L 223.810254 190.962646 
L 224.135051 191.034703 
L 224.256232 191.401708 
L 224.289138 191.34701 
L 224.350543 191.401708 
L 224.381154 191.54458 
L 224.412362 191.369881 
L 224.443295 191.369881 
L 224.685645 191.410771 
L 224.991208 191.576367 
L 225.357326 191.608254 
L 225.451983 191.826262 
L 225.515605 191.783084 
L 225.934501 191.743688 
L 226.002732 191.823216 
L 226.06373 191.775504 
L 226.18717 191.78034 
L 226.219988 191.78034 
L 226.252217 192.037388 
L 226.312829 191.78009 
L 226.374351 191.78009 
L 226.500854 191.939877 
L 226.532346 191.917288 
L 226.587662 192.002356 
L 226.872507 191.979826 
L 226.902629 192.210188 
L 226.961854 191.979826 
L 227.426116 191.979826 
L 227.489468 192.146991 
L 227.520307 191.992841 
L 227.732668 192.011642 
L 228.533067 192.009893 
L 228.565313 192.41002 
L 228.623899 192.009893 
L 229.326885 191.995128 
L 229.447501 192.195893 
L 230.11974 192.306558 
L 230.307716 192.295313 
L 230.371431 192.295313 
L 230.493376 192.813258 
L 230.611497 192.813258 
L 230.764694 193.032237 
L 230.891599 193.091904 
L 230.920275 193.150084 
L 230.980637 193.070556 
L 231.202319 192.995164 
L 231.267756 192.953346 
L 231.386849 193.183709 
L 231.510646 193.183709 
L 231.541362 193.509861 
L 231.605496 193.183709 
L 231.664595 193.192572 
L 231.727617 193.361925 
L 231.759623 193.189578 
L 232.05111 193.19771 
L 232.08146 193.488221 
L 232.143145 193.182268 
L 232.268242 193.182268 
L 232.359805 193.376356 
L 232.477859 193.203616 
L 232.724984 193.278217 
L 232.966727 193.732347 
L 232.998269 193.499011 
L 233.060724 193.717483 
L 233.33465 193.759385 
L 233.48955 194.290509 
L 233.582543 194.025116 
L 233.614104 194.119244 
L 234.361453 194.213039 
L 234.546131 194.213039 
L 235.057785 194.313405 
L 235.214375 194.351274 
L 235.273898 194.323634 
L 235.334522 194.570703 
L 235.366309 194.349559 
L 235.668811 194.36374 
L 235.820348 194.650453 
L 236.098334 194.650453 
L 236.130004 194.918996 
L 236.200065 194.907751 
L 236.263056 194.650453 
L 236.293921 194.895192 
L 236.65359 194.931698 
L 236.830549 194.877969 
L 237.017632 195.101571 
L 237.050695 194.946678 
L 237.108488 195.101571 
L 237.572157 195.101571 
L 237.695128 195.250816 
L 237.817811 195.169544 
L 238.028928 195.274763 
L 238.339037 195.557104 
L 238.46352 195.274763 
L 238.524534 195.274763 
L 238.555846 195.571384 
L 238.613825 195.274763 
L 238.733745 195.287778 
L 238.8578 195.571384 
L 239.22889 195.64565 
L 239.259048 195.738952 
L 239.318998 195.64565 
L 239.629742 195.738952 
L 239.658471 195.980776 
L 239.718122 195.738952 
L 239.837246 195.738952 
L 239.927137 195.953822 
L 239.956087 195.860519 
L 240.141176 195.965096 
L 240.326639 195.953822 
L 240.355123 196.258625 
L 240.415127 195.953822 
L 240.509258 195.982101 
L 240.541439 196.258625 
L 240.601844 195.982101 
L 240.664654 195.982101 
L 240.693813 196.286905 
L 240.755325 195.924108 
L 241.219186 195.924108 
L 241.339575 196.222637 
L 241.523806 196.261925 
L 241.58383 196.452883 
L 241.64305 196.378618 
L 241.79152 196.409784 
L 241.887077 196.545934 
L 241.981146 196.423547 
L 242.073499 196.539895 
L 242.195819 196.383637 
L 242.354674 196.383637 
L 242.470943 196.617991 
L 242.737937 196.617991 
L 242.796605 196.396575 
L 242.858214 196.538125 
L 242.983346 196.626758 
L 243.015388 196.974342 
L 243.07651 196.642389 
L 243.107367 196.632722 
L 243.140007 196.755225 
L 243.201155 196.632722 
L 244.299152 196.642389 
L 244.418142 196.905461 
L 244.813477 196.994782 
L 244.875417 197.052417 
L 244.939707 197.017146 
L 245.398366 197.030425 
L 245.518763 197.311732 
L 245.765741 197.311732 
L 245.889342 197.498789 
L 246.042813 197.451879 
L 246.640662 197.489788 
L 246.673141 197.609194 
L 246.7027 197.441878 
L 246.759557 197.573842 
L 247.003824 197.593113 
L 247.066062 197.809576 
L 247.130441 197.741158 
L 247.190903 197.847091 
L 247.223021 197.741158 
L 247.279087 197.801089 
L 247.301627 197.695157 
L 247.42358 197.847091 
L 247.698751 197.893904 
L 247.79025 197.972948 
L 247.910072 197.85068 
L 248.08872 197.88731 
L 248.275173 197.916628 
L 248.400801 197.984235 
L 248.791813 197.990361 
L 248.94756 198.512049 
L 249.071162 198.158259 
L 249.158911 198.158259 
L 249.190053 198.352756 
L 249.219184 198.146065 
L 249.253216 198.146065 
L 249.401211 198.147754 
L 249.485652 198.190499 
L 249.607473 198.594565 
L 249.891644 198.576028 
L 250.013345 198.451496 
L 250.473262 198.620762 
L 250.59889 198.566439 
L 251.218318 198.676516 
L 251.371848 198.977293 
L 251.405735 198.977293 
L 251.568111 198.744375 
L 251.811194 198.821377 
L 251.840046 198.754359 
L 251.902038 198.816853 
L 252.114113 198.932858 
L 252.36387 199.015378 
L 252.394817 199.086863 
L 252.458469 199.049787 
L 252.520738 199.038013 
L 252.738194 199.562568 
L 252.800168 199.505421 
L 252.882466 199.505421 
L 253.006479 200.110473 
L 253.037406 199.794206 
L 253.09817 200.229222 
L 253.130213 200.269781 
L 253.160935 200.110473 
L 253.253067 200.151032 
L 253.344643 200.110473 
L 253.377854 200.205181 
L 253.46776 200.151032 
L 253.65359 200.151032 
L 253.747631 200.344046 
L 253.835378 200.151032 
L 253.866199 200.212706 
L 254.513534 200.254671 
L 254.544246 200.399875 
L 254.604428 200.254671 
L 255.406801 200.305874 
L 255.653098 200.55663 
L 256.976468 200.554564 
L 257.005366 201.41759 
L 257.065919 200.574841 
L 257.500139 200.60407 
L 257.529635 200.753123 
L 257.622928 200.72522 
L 258.756197 200.827149 
L 258.813466 200.885689 
L 258.843815 200.723851 
L 258.905627 200.827149 
L 259.002296 200.827149 
L 259.034584 201.24153 
L 259.093673 200.882048 
L 259.18791 200.842658 
L 259.21838 201.035672 
L 259.306265 200.925095 
L 259.464376 200.827149 
L 259.616852 200.813428 
L 259.829509 201.995133 
L 259.859805 201.799506 
L 260.172495 201.939583 
L 260.263093 202.171799 
L 260.294632 202.104397 
L 260.565904 202.149206 
L 260.655897 203.326893 
L 260.683862 202.250866 
L 260.837787 202.123907 
L 261.118254 202.123907 
L 261.241805 202.32155 
L 261.976126 202.452307 
L 262.164237 202.498016 
L 262.348699 202.569745 
L 262.472433 202.47067 
L 262.816468 202.567761 
L 262.847666 202.89305 
L 262.903446 202.623783 
L 262.966962 202.595454 
L 263.026935 202.744078 
L 263.08966 202.70712 
L 263.180355 202.595454 
L 263.211655 202.6673 
L 263.335954 202.583404 
L 263.402157 202.583404 
L 263.521366 202.90085 
L 263.614412 203.289491 
L 263.735847 202.90085 
L 263.765069 203.030535 
L 263.830428 202.90085 
L 264.25922 202.948348 
L 264.351946 203.174401 
L 264.416146 202.948348 
L 264.447735 203.032232 
L 264.478215 203.22087 
L 264.507681 202.948348 
L 264.539053 202.952149 
L 264.690899 202.948348 
L 265.577515 203.037936 
L 265.699313 203.158294 
L 266.103127 203.249034 
L 266.223128 203.341197 
L 266.253562 203.341197 
L 266.347257 204.246379 
L 266.378049 204.142204 
L 266.531685 204.278574 
L 266.749775 204.296802 
L 267.805555 204.321993 
L 267.962477 205.383552 
L 268.052796 205.383552 
L 268.082533 205.510358 
L 268.172434 205.455595 
L 268.233341 205.535955 
L 268.293794 205.67395 
L 268.35556 205.535955 
L 268.546867 205.535955 
L 268.574506 205.966649 
L 268.638144 205.535955 
L 268.729409 205.620962 
L 268.851873 205.769586 
L 268.975828 205.684579 
L 269.006745 205.924596 
L 269.099402 205.775594 
L 269.191287 205.677615 
L 269.220742 205.957537 
L 269.2517 205.586601 
L 269.281276 205.586601 
L 269.436674 205.677116 
L 269.470542 206.089206 
L 269.527769 205.69482 
L 269.769362 205.767109 
L 269.798077 205.91026 
L 269.859295 205.718856 
L 269.98079 205.737083 
L 270.106127 205.86216 
L 270.169814 205.845929 
L 270.200621 206.118451 
L 270.296485 206.065757 
L 270.638425 206.065757 
L 270.670119 206.204287 
L 270.759775 206.166792 
L 270.818905 206.065757 
L 270.970046 206.587167 
L 271.240052 206.648326 
L 271.362042 206.831638 
L 271.486374 206.648326 
L 271.517429 206.747226 
L 271.546028 206.611661 
L 271.607429 206.703158 
L 271.672611 206.642969 
L 271.703679 206.747226 
L 272.814358 206.82362 
L 272.939848 206.839851 
L 273.152409 206.839851 
L 273.244974 206.823158 
L 273.276138 207.182051 
L 273.339637 206.83428 
L 274.295287 206.83428 
L 274.421075 207.235247 
L 274.485574 207.243978 
L 274.639029 207.413843 
L 274.702414 207.413843 
L 274.855544 207.797219 
L 275.038233 207.773375 
L 275.321067 207.86439 
L 275.448674 207.86439 
L 275.569687 207.773375 
L 276.08789 207.840823 
L 276.211357 207.957406 
L 276.243345 207.957406 
L 276.276396 208.078627 
L 276.338012 207.964623 
L 276.774355 208.041618 
L 277.15701 208.418135 
L 277.54714 208.484255 
L 277.673986 208.630314 
L 277.887255 208.649346 
L 277.916851 208.941989 
L 277.946848 208.605948 
L 277.97858 208.654194 
L 278.011239 208.597058 
L 278.0987 208.654194 
L 279.727557 208.709388 
L 279.758189 208.871057 
L 279.851549 208.788828 
L 279.944692 208.721181 
L 279.975674 208.760833 
L 280.593061 208.859848 
L 282.986082 208.943979 
L 283.136405 209.069549 
L 283.655005 209.068809 
L 283.775146 208.943979 
L 284.058165 208.951601 
L 284.179682 209.396903 
L 284.270914 209.396903 
L 284.396235 209.513596 
L 284.461343 209.425483 
L 284.491399 209.513596 
L 284.523158 209.513596 
L 284.675346 209.756517 
L 284.705862 209.852003 
L 284.79666 209.776224 
L 284.86043 209.776224 
L 284.922895 210.042988 
L 284.953334 209.866829 
L 285.260373 209.962314 
L 285.445245 210.005744 
L 285.658693 209.951954 
L 285.80971 210.004613 
L 285.842155 210.10398 
L 285.902738 209.943327 
L 286.178609 209.989914 
L 286.792488 210.137182 
L 286.918337 210.057864 
L 288.246535 210.086635 
L 288.307734 210.173094 
L 288.340279 210.036043 
L 288.372393 210.145656 
L 288.493536 210.127713 
L 289.026581 210.165109 
L 289.147819 210.230174 
L 289.273394 210.165109 
L 289.338143 210.165109 
L 289.367068 210.302159 
L 289.460735 210.230174 
L 289.647663 210.218852 
L 289.678051 210.266143 
L 289.73977 210.178836 
L 290.206298 210.233434 
L 290.23863 210.337146 
L 290.334346 210.273906 
L 290.424975 210.165109 
L 290.456899 210.218852 
L 290.57838 210.477477 
L 290.610785 210.370484 
L 290.734002 210.302159 
L 291.380542 210.398491 
L 291.54114 210.448834 
L 292.247026 210.382672 
L 292.278966 210.613282 
L 292.338754 210.368097 
L 292.366978 210.458314 
L 294.29392 210.56574 
L 294.414623 210.619484 
L 294.534595 210.56574 
L 295.237491 210.621074 
L 295.390962 210.694368 
L 296.267677 210.694368 
L 296.393083 210.989302 
L 296.544831 210.828973 
L 296.825166 210.91223 
L 297.01105 210.769254 
L 297.066306 211.065236 
L 297.163503 211.001011 
L 297.596144 211.003039 
L 297.660449 211.208392 
L 297.688583 211.039701 
L 297.841721 211.003039 
L 298.023109 211.057382 
L 298.15066 211.611802 
L 298.215237 211.611802 
L 298.335859 211.735077 
L 299.40457 211.821371 
L 299.496186 212.005562 
L 299.558526 211.986402 
L 300.548344 212.190247 
L 300.673673 212.261517 
L 301.193889 212.305651 
L 301.319155 212.349346 
L 301.998074 212.424106 
L 302.119807 212.464367 
L 302.831716 212.56247 
L 303.077322 212.579435 
L 303.108922 212.560711 
L 303.140494 212.741427 
L 303.198855 212.566297 
L 303.785153 212.538973 
L 304.399229 212.538973 
L 304.431503 212.696582 
L 304.492501 212.538973 
L 304.705833 212.551103 
L 304.73671 212.749643 
L 304.826182 212.71847 
L 304.889335 212.538973 
L 304.950036 212.585698 
L 306.517386 212.593994 
L 306.548942 212.86572 
L 306.61142 212.593994 
L 306.704673 212.615732 
L 306.828162 212.720776 
L 307.30844 212.825463 
L 307.673751 212.815216 
L 307.829156 212.738721 
L 307.889381 212.647575 
L 307.949549 212.716904 
L 308.45547 212.808358 
L 308.578836 213.006039 
L 309.486667 213.061793 
L 309.518459 213.137551 
L 309.612191 213.088272 
L 309.766383 213.038826 
L 310.630918 213.085644 
L 310.689278 213.152668 
L 310.752103 213.097635 
L 310.944538 213.151405 
L 311.126826 213.146176 
L 311.352861 213.124385 
L 312.156472 213.124385 
L 312.249681 213.303882 
L 312.308118 213.140672 
L 312.369738 213.244248 
L 312.461713 213.182384 
L 312.558986 213.127351 
L 312.589143 213.183684 
L 312.678553 213.127351 
L 312.799955 213.27631 
L 313.076675 213.321093 
L 313.108326 213.39992 
L 313.137861 213.27631 
L 313.170005 213.291305 
L 313.379112 213.298047 
L 313.914932 213.27631 
L 314.010508 213.548035 
L 314.072053 213.289621 
L 314.132783 213.302364 
L 314.990674 213.313042 
L 315.11414 213.477544 
L 315.271845 213.542192 
L 315.457602 213.708481 
L 315.550871 213.773128 
L 315.581166 213.846625 
L 315.643741 213.708481 
L 316.61139 213.764824 
L 316.735787 214.036549 
L 316.879062 214.036549 
L 317.00538 214.281442 
L 319.622826 214.293796 
L 319.680289 214.397373 
L 319.7412 214.329564 
L 319.897816 214.299741 
L 319.930381 214.293796 
L 319.96193 214.567831 
L 320.024664 214.320028 
L 320.181607 214.403362 
L 320.304139 214.590959 
L 320.33432 214.457037 
L 320.427347 214.403362 
L 320.492921 214.529829 
L 320.556246 214.472032 
L 321.266186 214.581553 
L 321.447834 214.617322 
L 321.666913 214.588344 
L 321.788063 214.798545 
L 322.786402 214.865541 
L 322.934941 214.989843 
L 323.337086 215.043409 
L 323.523318 215.492238 
L 323.617104 215.215765 
L 323.649397 215.338372 
L 323.774285 215.48319 
L 323.894929 215.502214 
L 324.346378 215.586479 
L 324.503167 215.625824 
L 324.625808 215.626591 
L 325.233794 215.622706 
L 325.290659 215.755029 
L 325.319909 215.586479 
L 325.411753 215.586479 
L 325.442073 215.712945 
L 325.502704 215.599222 
L 326.160191 215.609283 
L 326.192469 215.7204 
L 326.224415 215.586479 
L 326.254775 215.586479 
L 326.959332 215.623743 
L 326.990621 215.776151 
L 327.053173 215.661961 
L 327.183304 215.626385 
L 327.214778 215.74784 
L 327.275552 215.690958 
L 327.400936 215.623743 
L 327.522559 215.623743 
L 327.646 215.867616 
L 327.796481 215.623743 
L 328.013671 215.65997 
L 328.515552 215.623743 
L 328.574468 215.791854 
L 328.605695 215.623743 
L 329.011118 215.732763 
L 329.252971 215.792294 
L 329.656726 215.899085 
L 329.77827 216.061958 
L 331.794517 216.099926 
L 331.945538 216.242894 
L 332.068683 216.292944 
L 332.096869 216.438494 
L 332.129435 216.242894 
L 332.161269 216.242894 
L 332.52547 216.400839 
L 332.618596 216.242894 
L 332.650403 216.288541 
L 332.68101 216.242894 
L 332.711043 216.355935 
L 332.742662 216.355935 
L 332.867784 216.242894 
L 332.990778 216.355935 
L 333.48638 216.403265 
L 333.575808 216.486145 
L 333.605931 216.473299 
L 333.700675 216.486721 
L 333.823915 216.382326 
L 334.100238 216.443275 
L 334.223454 216.44062 
L 334.343225 216.44062 
L 334.466189 216.59289 
L 334.966493 216.700938 
L 335.118138 216.870452 
L 335.151144 216.700938 
L 335.489164 216.723743 
L 335.611424 216.95246 
L 335.705353 216.95246 
L 335.822875 217.105451 
L 336.319145 217.105451 
L 336.472845 217.462241 
L 336.785302 217.608315 
L 336.940448 217.575441 
L 337.097787 217.77781 
L 337.377797 217.874846 
L 337.501502 217.961898 
L 337.747564 218.018324 
L 337.838339 218.085295 
L 337.956721 217.988693 
L 338.357908 218.032762 
L 338.720188 218.123511 
L 338.843599 218.232985 
L 340.928183 218.332028 
L 340.991894 218.298925 
L 341.13717 218.505809 
L 341.629402 218.568254 
L 341.663108 218.644265 
L 341.725421 218.568254 
L 342.494684 218.510155 
L 342.585512 218.4308 
L 342.615583 218.467027 
L 342.770699 218.569833 
L 342.897563 218.514553 
L 343.104721 218.66144 
L 343.231673 218.50376 
L 343.261964 218.557102 
L 343.296049 218.501809 
L 343.41593 218.388167 
L 343.570363 218.47192 
L 343.665088 218.58258 
L 343.694982 218.724274 
L 343.758526 218.58258 
L 343.942122 218.498826 
L 344.064332 218.388167 
L 344.190799 218.498826 
L 344.441968 218.496073 
L 345.655528 218.594335 
L 345.718533 218.609398 
L 345.778839 218.796756 
L 345.843111 218.766585 
L 346.254199 218.781648 
L 346.506818 218.777194 
L 346.506818 218.777194 
" clip-path="url(#pb5da7c8bb1)" style="fill: none; stroke: #1f77b4; stroke-width: 1.5; stroke-linecap: square"/>
   </g>
   <g id="patch_3">
    <path d="M 26.925 228.96 
L 26.925 7.2 
" style="fill: none; stroke: #000000; stroke-width: 0.8; stroke-linejoin: miter; stroke-linecap: square"/>
   </g>
   <g id="patch_4">
    <path d="M 361.725 228.96 
L 361.725 7.2 
" style="fill: none; stroke: #000000; stroke-width: 0.8; stroke-linejoin: miter; stroke-linecap: square"/>
   </g>
   <g id="patch_5">
    <path d="M 26.925 228.96 
L 361.725 228.96 
" style="fill: none; stroke: #000000; stroke-width: 0.8; stroke-linejoin: miter; stroke-linecap: square"/>
   </g>
   <g id="patch_6">
    <path d="M 26.925 7.2 
L 361.725 7.2 
" style="fill: none; stroke: #000000; stroke-width: 0.8; stroke-linejoin: miter; stroke-linecap: square"/>
   </g>
  </g>
 </g>
 <defs>
  <clipPath id="pb5da7c8bb1">
   <rect x="26.925" y="7.2" width="334.8" height="221.76"/>
  </clipPath>
 </defs>
</svg>
