<?xml version="1.0" encoding="utf-8" standalone="no"?>
<!DOCTYPE svg PUBLIC "-//W3C//DTD SVG 1.1//EN"
  "http://www.w3.org/Graphics/SVG/1.1/DTD/svg11.dtd">
<svg xmlns:xlink="http://www.w3.org/1999/xlink" width="369.917736pt" height="252.838125pt" viewBox="0 0 369.917736 252.838125" xmlns="http://www.w3.org/2000/svg" version="1.1">
 <metadata>
  <rdf:RDF xmlns:dc="http://purl.org/dc/elements/1.1/" xmlns:cc="http://creativecommons.org/ns#" xmlns:rdf="http://www.w3.org/1999/02/22-rdf-syntax-ns#">
   <cc:Work>
    <dc:type rdf:resource="http://purl.org/dc/dcmitype/StillImage"/>
    <dc:date>2023-04-20T00:41:01.378925</dc:date>
    <dc:format>image/svg+xml</dc:format>
    <dc:creator>
     <cc:Agent>
      <dc:title>Matplotlib v3.6.2, https://matplotlib.org/</dc:title>
     </cc:Agent>
    </dc:creator>
   </cc:Work>
  </rdf:RDF>
 </metadata>
 <defs>
  <style type="text/css">*{stroke-linejoin: round; stroke-linecap: butt}</style>
 </defs>
 <g id="figure_1">
  <g id="patch_1">
   <path d="M -0 252.838125 
L 369.917736 252.838125 
L 369.917736 0 
L -0 0 
z
" style="fill: #ffffff"/>
  </g>
  <g id="axes_1">
   <g id="patch_2">
    <path d="M 26.925 228.96 
L 361.725 228.96 
L 361.725 7.2 
L 26.925 7.2 
z
" style="fill: #ffffff"/>
   </g>
   <g id="matplotlib.axis_1">
    <g id="xtick_1">
     <g id="line2d_1">
      <defs>
       <path id="m94391f1b1e" d="M 0 0 
L 0 3.5 
" style="stroke: #000000; stroke-width: 0.8"/>
      </defs>
      <g>
       <use xlink:href="#m94391f1b1e" x="42.143182" y="228.96" style="stroke: #000000; stroke-width: 0.8"/>
      </g>
     </g>
     <g id="text_1">
      <!-- 0 -->
      <g transform="translate(38.961932 243.558437) scale(0.1 -0.1)">
       <defs>
        <path id="DejaVuSans-30" d="M 2034 4250 
Q 1547 4250 1301 3770 
Q 1056 3291 1056 2328 
Q 1056 1369 1301 889 
Q 1547 409 2034 409 
Q 2525 409 2770 889 
Q 3016 1369 3016 2328 
Q 3016 3291 2770 3770 
Q 2525 4250 2034 4250 
z
M 2034 4750 
Q 2819 4750 3233 4129 
Q 3647 3509 3647 2328 
Q 3647 1150 3233 529 
Q 2819 -91 2034 -91 
Q 1250 -91 836 529 
Q 422 1150 422 2328 
Q 422 3509 836 4129 
Q 1250 4750 2034 4750 
z
" transform="scale(0.015625)"/>
       </defs>
       <use xlink:href="#DejaVuSans-30"/>
      </g>
     </g>
    </g>
    <g id="xtick_2">
     <g id="line2d_2">
      <g>
       <use xlink:href="#m94391f1b1e" x="103.076843" y="228.96" style="stroke: #000000; stroke-width: 0.8"/>
      </g>
     </g>
     <g id="text_2">
      <!-- 2000 -->
      <g transform="translate(90.351843 243.558437) scale(0.1 -0.1)">
       <defs>
        <path id="DejaVuSans-32" d="M 1228 531 
L 3431 531 
L 3431 0 
L 469 0 
L 469 531 
Q 828 903 1448 1529 
Q 2069 2156 2228 2338 
Q 2531 2678 2651 2914 
Q 2772 3150 2772 3378 
Q 2772 3750 2511 3984 
Q 2250 4219 1831 4219 
Q 1534 4219 1204 4116 
Q 875 4013 500 3803 
L 500 4441 
Q 881 4594 1212 4672 
Q 1544 4750 1819 4750 
Q 2544 4750 2975 4387 
Q 3406 4025 3406 3419 
Q 3406 3131 3298 2873 
Q 3191 2616 2906 2266 
Q 2828 2175 2409 1742 
Q 1991 1309 1228 531 
z
" transform="scale(0.015625)"/>
       </defs>
       <use xlink:href="#DejaVuSans-32"/>
       <use xlink:href="#DejaVuSans-30" x="63.623047"/>
       <use xlink:href="#DejaVuSans-30" x="127.246094"/>
       <use xlink:href="#DejaVuSans-30" x="190.869141"/>
      </g>
     </g>
    </g>
    <g id="xtick_3">
     <g id="line2d_3">
      <g>
       <use xlink:href="#m94391f1b1e" x="164.010504" y="228.96" style="stroke: #000000; stroke-width: 0.8"/>
      </g>
     </g>
     <g id="text_3">
      <!-- 4000 -->
      <g transform="translate(151.285504 243.558437) scale(0.1 -0.1)">
       <defs>
        <path id="DejaVuSans-34" d="M 2419 4116 
L 825 1625 
L 2419 1625 
L 2419 4116 
z
M 2253 4666 
L 3047 4666 
L 3047 1625 
L 3713 1625 
L 3713 1100 
L 3047 1100 
L 3047 0 
L 2419 0 
L 2419 1100 
L 313 1100 
L 313 1709 
L 2253 4666 
z
" transform="scale(0.015625)"/>
       </defs>
       <use xlink:href="#DejaVuSans-34"/>
       <use xlink:href="#DejaVuSans-30" x="63.623047"/>
       <use xlink:href="#DejaVuSans-30" x="127.246094"/>
       <use xlink:href="#DejaVuSans-30" x="190.869141"/>
      </g>
     </g>
    </g>
    <g id="xtick_4">
     <g id="line2d_4">
      <g>
       <use xlink:href="#m94391f1b1e" x="224.944165" y="228.96" style="stroke: #000000; stroke-width: 0.8"/>
      </g>
     </g>
     <g id="text_4">
      <!-- 6000 -->
      <g transform="translate(212.219165 243.558437) scale(0.1 -0.1)">
       <defs>
        <path id="DejaVuSans-36" d="M 2113 2584 
Q 1688 2584 1439 2293 
Q 1191 2003 1191 1497 
Q 1191 994 1439 701 
Q 1688 409 2113 409 
Q 2538 409 2786 701 
Q 3034 994 3034 1497 
Q 3034 2003 2786 2293 
Q 2538 2584 2113 2584 
z
M 3366 4563 
L 3366 3988 
Q 3128 4100 2886 4159 
Q 2644 4219 2406 4219 
Q 1781 4219 1451 3797 
Q 1122 3375 1075 2522 
Q 1259 2794 1537 2939 
Q 1816 3084 2150 3084 
Q 2853 3084 3261 2657 
Q 3669 2231 3669 1497 
Q 3669 778 3244 343 
Q 2819 -91 2113 -91 
Q 1303 -91 875 529 
Q 447 1150 447 2328 
Q 447 3434 972 4092 
Q 1497 4750 2381 4750 
Q 2619 4750 2861 4703 
Q 3103 4656 3366 4563 
z
" transform="scale(0.015625)"/>
       </defs>
       <use xlink:href="#DejaVuSans-36"/>
       <use xlink:href="#DejaVuSans-30" x="63.623047"/>
       <use xlink:href="#DejaVuSans-30" x="127.246094"/>
       <use xlink:href="#DejaVuSans-30" x="190.869141"/>
      </g>
     </g>
    </g>
    <g id="xtick_5">
     <g id="line2d_5">
      <g>
       <use xlink:href="#m94391f1b1e" x="285.877826" y="228.96" style="stroke: #000000; stroke-width: 0.8"/>
      </g>
     </g>
     <g id="text_5">
      <!-- 8000 -->
      <g transform="translate(273.152826 243.558437) scale(0.1 -0.1)">
       <defs>
        <path id="DejaVuSans-38" d="M 2034 2216 
Q 1584 2216 1326 1975 
Q 1069 1734 1069 1313 
Q 1069 891 1326 650 
Q 1584 409 2034 409 
Q 2484 409 2743 651 
Q 3003 894 3003 1313 
Q 3003 1734 2745 1975 
Q 2488 2216 2034 2216 
z
M 1403 2484 
Q 997 2584 770 2862 
Q 544 3141 544 3541 
Q 544 4100 942 4425 
Q 1341 4750 2034 4750 
Q 2731 4750 3128 4425 
Q 3525 4100 3525 3541 
Q 3525 3141 3298 2862 
Q 3072 2584 2669 2484 
Q 3125 2378 3379 2068 
Q 3634 1759 3634 1313 
Q 3634 634 3220 271 
Q 2806 -91 2034 -91 
Q 1263 -91 848 271 
Q 434 634 434 1313 
Q 434 1759 690 2068 
Q 947 2378 1403 2484 
z
M 1172 3481 
Q 1172 3119 1398 2916 
Q 1625 2713 2034 2713 
Q 2441 2713 2670 2916 
Q 2900 3119 2900 3481 
Q 2900 3844 2670 4047 
Q 2441 4250 2034 4250 
Q 1625 4250 1398 4047 
Q 1172 3844 1172 3481 
z
" transform="scale(0.015625)"/>
       </defs>
       <use xlink:href="#DejaVuSans-38"/>
       <use xlink:href="#DejaVuSans-30" x="63.623047"/>
       <use xlink:href="#DejaVuSans-30" x="127.246094"/>
       <use xlink:href="#DejaVuSans-30" x="190.869141"/>
      </g>
     </g>
    </g>
    <g id="xtick_6">
     <g id="line2d_6">
      <g>
       <use xlink:href="#m94391f1b1e" x="346.811486" y="228.96" style="stroke: #000000; stroke-width: 0.8"/>
      </g>
     </g>
     <g id="text_6">
      <!-- 10000 -->
      <g transform="translate(330.905236 243.558437) scale(0.1 -0.1)">
       <defs>
        <path id="DejaVuSans-31" d="M 794 531 
L 1825 531 
L 1825 4091 
L 703 3866 
L 703 4441 
L 1819 4666 
L 2450 4666 
L 2450 531 
L 3481 531 
L 3481 0 
L 794 0 
L 794 531 
z
" transform="scale(0.015625)"/>
       </defs>
       <use xlink:href="#DejaVuSans-31"/>
       <use xlink:href="#DejaVuSans-30" x="63.623047"/>
       <use xlink:href="#DejaVuSans-30" x="127.246094"/>
       <use xlink:href="#DejaVuSans-30" x="190.869141"/>
       <use xlink:href="#DejaVuSans-30" x="254.492188"/>
      </g>
     </g>
    </g>
   </g>
   <g id="matplotlib.axis_2">
    <g id="ytick_1">
     <g id="line2d_7">
      <defs>
       <path id="me0ff586819" d="M 0 0 
L -3.5 0 
" style="stroke: #000000; stroke-width: 0.8"/>
      </defs>
      <g>
       <use xlink:href="#me0ff586819" x="26.925" y="207.090758" style="stroke: #000000; stroke-width: 0.8"/>
      </g>
     </g>
     <g id="text_7">
      <!-- 40 -->
      <g transform="translate(7.2 210.889977) scale(0.1 -0.1)">
       <use xlink:href="#DejaVuSans-34"/>
       <use xlink:href="#DejaVuSans-30" x="63.623047"/>
      </g>
     </g>
    </g>
    <g id="ytick_2">
     <g id="line2d_8">
      <g>
       <use xlink:href="#me0ff586819" x="26.925" y="161.729721" style="stroke: #000000; stroke-width: 0.8"/>
      </g>
     </g>
     <g id="text_8">
      <!-- 45 -->
      <g transform="translate(7.2 165.52894) scale(0.1 -0.1)">
       <defs>
        <path id="DejaVuSans-35" d="M 691 4666 
L 3169 4666 
L 3169 4134 
L 1269 4134 
L 1269 2991 
Q 1406 3038 1543 3061 
Q 1681 3084 1819 3084 
Q 2600 3084 3056 2656 
Q 3513 2228 3513 1497 
Q 3513 744 3044 326 
Q 2575 -91 1722 -91 
Q 1428 -91 1123 -41 
Q 819 9 494 109 
L 494 744 
Q 775 591 1075 516 
Q 1375 441 1709 441 
Q 2250 441 2565 725 
Q 2881 1009 2881 1497 
Q 2881 1984 2565 2268 
Q 2250 2553 1709 2553 
Q 1456 2553 1204 2497 
Q 953 2441 691 2322 
L 691 4666 
z
" transform="scale(0.015625)"/>
       </defs>
       <use xlink:href="#DejaVuSans-34"/>
       <use xlink:href="#DejaVuSans-35" x="63.623047"/>
      </g>
     </g>
    </g>
    <g id="ytick_3">
     <g id="line2d_9">
      <g>
       <use xlink:href="#me0ff586819" x="26.925" y="116.368684" style="stroke: #000000; stroke-width: 0.8"/>
      </g>
     </g>
     <g id="text_9">
      <!-- 50 -->
      <g transform="translate(7.2 120.167903) scale(0.1 -0.1)">
       <use xlink:href="#DejaVuSans-35"/>
       <use xlink:href="#DejaVuSans-30" x="63.623047"/>
      </g>
     </g>
    </g>
    <g id="ytick_4">
     <g id="line2d_10">
      <g>
       <use xlink:href="#me0ff586819" x="26.925" y="71.007648" style="stroke: #000000; stroke-width: 0.8"/>
      </g>
     </g>
     <g id="text_10">
      <!-- 55 -->
      <g transform="translate(7.2 74.806866) scale(0.1 -0.1)">
       <use xlink:href="#DejaVuSans-35"/>
       <use xlink:href="#DejaVuSans-35" x="63.623047"/>
      </g>
     </g>
    </g>
    <g id="ytick_5">
     <g id="line2d_11">
      <g>
       <use xlink:href="#me0ff586819" x="26.925" y="25.646611" style="stroke: #000000; stroke-width: 0.8"/>
      </g>
     </g>
     <g id="text_11">
      <!-- 60 -->
      <g transform="translate(7.2 29.44583) scale(0.1 -0.1)">
       <use xlink:href="#DejaVuSans-36"/>
       <use xlink:href="#DejaVuSans-30" x="63.623047"/>
      </g>
     </g>
    </g>
   </g>
   <g id="line2d_12">
    <path d="M 42.143182 17.28 
L 42.35645 17.28 
L 42.478317 17.454775 
L 42.539251 17.454775 
L 42.661118 17.95433 
L 42.691585 17.95433 
L 42.813452 18.231851 
L 42.874386 18.53123 
L 42.996253 20.01771 
L 43.148587 20.075469 
L 43.209521 20.132445 
L 43.270455 20.075469 
L 43.361855 20.132984 
L 43.422789 20.01771 
L 43.69699 22.367069 
L 44.093059 23.043432 
L 44.153993 23.043432 
L 44.27586 23.20147 
L 44.428194 23.303741 
L 44.580528 24.16521 
L 44.610995 24.219369 
L 44.702396 25.080837 
L 44.732862 24.334754 
L 44.793796 25.080837 
L 44.915663 25.080837 
L 44.976597 25.196222 
L 45.007064 25.020281 
L 45.037531 25.173584 
L 45.098464 25.196222 
L 45.159398 24.958057 
L 45.250799 25.196222 
L 45.281265 24.958057 
L 45.342199 25.173584 
L 45.555467 25.346469 
L 45.585934 26.56536 
L 45.646867 25.369107 
L 45.677334 25.374582 
L 45.707801 26.93318 
L 45.768735 25.369107 
L 45.799201 25.584634 
L 45.829668 26.970347 
L 45.890602 25.701614 
L 45.951536 25.701614 
L 45.982002 25.584634 
L 46.10387 27.648978 
L 46.134337 27.648978 
L 46.286671 29.490889 
L 46.317138 27.287972 
L 46.378071 28.686518 
L 46.439005 29.34933 
L 46.499939 29.047524 
L 46.530405 29.047524 
L 46.591339 31.04374 
L 46.652273 30.898261 
L 46.713206 30.898261 
L 46.77414 28.972464 
L 46.804607 30.729786 
L 46.835074 30.729786 
L 47.017875 31.25044 
L 47.139742 31.25044 
L 47.231143 31.58452 
L 47.261609 31.500634 
L 47.292076 31.500634 
L 47.35301 31.86164 
L 47.383477 31.500634 
L 47.44441 31.552246 
L 47.505344 31.500634 
L 47.566278 32.163446 
L 47.657678 31.931465 
L 47.779545 32.265544 
L 47.901413 32.225898 
L 47.992813 32.414271 
L 48.02328 32.317813 
L 48.114681 32.317813 
L 48.297482 33.222835 
L 48.541216 33.305674 
L 48.724017 33.919415 
L 48.815418 33.919415 
L 48.845885 33.804428 
L 48.906818 33.919415 
L 48.967752 34.021514 
L 48.998219 33.919415 
L 49.546622 34.211319 
L 49.577088 33.889372 
L 49.668489 33.994358 
L 49.729423 34.002988 
L 49.759889 34.121141 
L 49.820823 33.994358 
L 49.973157 34.063231 
L 50.064558 34.730185 
L 50.095025 34.203568 
L 50.155958 34.203568 
L 50.277826 34.816615 
L 50.338759 34.859206 
L 50.460627 35.343232 
L 50.491093 34.95934 
L 50.552027 35.473181 
L 50.612961 35.473181 
L 50.734828 35.942588 
L 50.856695 36.057588 
L 51.009029 36.057588 
L 51.039496 36.204901 
L 51.10043 36.057588 
L 51.130897 36.057588 
L 51.161364 35.927638 
L 51.252764 35.952989 
L 51.374631 37.418761 
L 51.435565 37.156039 
L 51.526966 37.246673 
L 51.618366 37.418761 
L 51.648833 37.290581 
L 51.709767 37.418761 
L 51.831634 37.487482 
L 51.983968 37.750204 
L 52.014435 37.553303 
L 52.136302 38.665704 
L 52.227703 38.487585 
L 52.380037 39.876429 
L 52.471437 39.952343 
L 52.562838 40.679701 
L 52.623771 40.345353 
L 52.745639 40.336235 
L 52.776106 39.952343 
L 52.867506 39.984419 
L 52.989373 40.449055 
L 53.050307 40.432971 
L 53.111241 40.449055 
L 53.141708 40.579343 
L 53.202641 40.449055 
L 53.233108 40.449055 
L 53.263575 40.929683 
L 53.324509 40.579343 
L 53.476843 40.547267 
L 53.659644 41.850717 
L 54.299447 41.850717 
L 54.360381 42.104324 
L 54.390848 41.850717 
L 54.421314 41.850717 
L 54.482248 42.022267 
L 54.512715 41.825367 
L 54.665049 41.857529 
L 54.75645 42.350777 
L 54.817383 42.081764 
L 55.030651 42.114269 
L 55.061118 42.081764 
L 55.152518 42.360721 
L 55.182985 42.350777 
L 55.670455 42.394337 
L 55.914189 42.431478 
L 55.975123 42.601277 
L 56.00559 42.394337 
L 56.249324 42.638418 
L 56.371192 42.431478 
L 56.401658 42.431478 
L 56.432125 42.606622 
L 56.523526 42.517813 
L 56.584459 42.517813 
L 56.614926 42.702862 
L 56.67586 42.554954 
L 57.071929 42.724753 
L 57.224263 43.233308 
L 57.285197 43.305436 
L 57.34613 43.266618 
L 57.407064 43.403704 
L 57.650799 43.35072 
L 57.711732 43.771829 
L 57.772666 43.531394 
L 57.8336 43.422847 
L 57.864066 43.44032 
L 57.985934 43.689394 
L 58.0164 43.518126 
L 58.046867 43.616469 
L 58.107801 43.986134 
L 58.168735 43.949291 
L 58.199201 43.949291 
L 58.442936 45.906327 
L 58.473403 45.906327 
L 58.50387 46.346021 
L 58.59527 46.258763 
L 58.717138 46.274375 
L 58.747604 46.09744 
L 58.960872 48.518992 
L 58.991339 48.518992 
L 59.052273 48.904386 
L 59.113206 48.656237 
L 59.143673 48.656237 
L 59.17414 49.14062 
L 59.235074 48.688399 
L 59.265541 48.727061 
L 59.296007 49.437488 
L 59.326474 48.688399 
L 59.387408 49.362696 
L 59.509275 48.819046 
L 59.478808 49.492232 
L 59.539742 48.919416 
L 59.631143 48.919416 
L 59.783477 49.941978 
L 59.813943 49.594765 
L 59.874877 49.594765 
L 60.027211 50.061703 
L 60.118612 50.495241 
L 60.149079 50.096702 
L 60.240479 50.249468 
L 60.33188 50.11598 
L 60.362346 50.500682 
L 60.453747 50.365949 
L 60.484214 50.402693 
L 60.697482 51.431067 
L 60.758415 51.431067 
L 60.788882 51.556268 
L 60.880283 51.467236 
L 60.941216 51.520819 
L 61.063084 52.386952 
L 61.124017 52.584944 
L 61.154484 52.27792 
L 61.428686 52.754461 
L 61.459152 52.754461 
L 61.641953 53.377566 
L 61.702887 53.377566 
L 61.885688 55.173264 
L 61.916155 54.503349 
L 61.977088 55.289508 
L 62.007555 55.289508 
L 62.038022 55.763631 
L 62.129423 55.658474 
L 62.464558 56.313623 
L 62.586425 56.813779 
L 62.647359 56.700963 
L 62.738759 57.129566 
L 62.769226 56.778208 
L 62.83016 57.055754 
L 62.92156 57.048249 
L 63.043428 57.387572 
L 63.104361 57.055929 
L 63.165295 57.107079 
L 63.317629 57.121981 
L 63.348096 57.334328 
L 63.409029 57.121981 
L 63.50043 57.121981 
L 63.835565 60.197791 
L 63.866032 60.087516 
L 63.957432 60.197791 
L 64.0793 60.736552 
L 64.231634 60.855032 
L 64.323034 60.872181 
L 64.414435 61.267186 
L 64.505835 60.758019 
L 64.536302 61.001275 
L 64.566769 61.077476 
L 64.597236 61.745454 
L 64.688636 61.590351 
L 64.901904 61.590351 
L 64.993305 61.759869 
L 65.023771 61.718069 
L 65.115172 61.718069 
L 65.389373 63.589691 
L 65.480774 63.681837 
L 65.511241 64.570396 
L 65.572174 63.943728 
L 65.754975 63.993957 
L 65.785442 64.066328 
L 65.815909 63.963077 
L 65.937776 64.924433 
L 66.029177 64.819515 
L 66.181511 65.799977 
L 66.242445 64.939182 
L 66.303378 65.283937 
L 66.333845 65.215866 
L 66.394779 65.199449 
L 66.455713 65.529812 
L 66.57758 65.59273 
L 66.699447 65.68708 
L 66.882248 65.68708 
L 66.912715 66.676053 
L 66.973649 65.633062 
L 67.034582 65.58383 
L 67.065049 65.718549 
L 67.125983 65.598261 
L 67.15645 65.598261 
L 67.278317 65.773994 
L 67.400184 65.773994 
L 67.613452 66.851498 
L 67.796253 66.837067 
L 67.887654 68.023641 
L 67.948587 67.098206 
L 68.009521 67.245862 
L 68.039988 67.098206 
L 68.161855 67.875985 
L 68.222789 67.875985 
L 68.436057 68.403439 
L 68.466523 68.403439 
L 68.588391 68.279003 
L 68.649324 68.588934 
L 68.679791 68.279003 
L 68.740725 68.372673 
L 68.893059 68.555954 
L 68.923526 68.402571 
L 68.953993 68.619842 
L 69.014926 68.504378 
L 69.136794 69.122632 
L 69.16726 68.76953 
L 69.197727 68.76953 
L 69.319595 69.21587 
L 69.350061 68.963099 
L 69.410995 68.956438 
L 69.532862 69.408757 
L 69.593796 69.402779 
L 69.624263 69.006356 
L 69.715663 69.066443 
L 69.807064 68.979332 
L 69.898464 69.066443 
L 69.928931 69.026756 
L 69.989865 68.979332 
L 70.142199 69.342628 
L 70.446867 69.371631 
L 70.507801 69.790738 
L 70.568735 69.77151 
L 70.842936 69.842179 
L 70.873403 69.897442 
L 70.90387 70.251267 
L 70.934337 69.861406 
L 70.99527 70.160927 
L 71.239005 70.267632 
L 71.360872 70.378508 
L 71.756941 70.463618 
L 71.909275 70.874794 
L 71.970209 70.699561 
L 72.031143 70.812626 
L 72.183477 70.812626 
L 72.213943 70.62155 
L 72.305344 70.686567 
L 72.335811 70.686567 
L 72.457678 71.307234 
L 72.549079 71.307917 
L 72.640479 71.713619 
L 72.670946 71.445181 
L 72.73188 71.515854 
L 72.853747 71.784293 
L 73.036548 71.830754 
L 73.158415 71.90086 
L 73.280283 72.8014 
L 73.310749 72.8014 
L 73.432617 72.978981 
L 73.554484 72.978981 
L 73.615418 73.535771 
L 73.676351 73.205611 
L 73.706818 73.205611 
L 73.767752 73.535771 
L 73.798219 73.316574 
L 73.828686 73.316574 
L 73.889619 73.28977 
L 73.950553 74.027171 
L 73.98102 73.220569 
L 74.07242 73.465665 
L 74.163821 73.549256 
L 74.285688 73.465665 
L 74.590356 73.466082 
L 74.65129 73.578218 
L 74.681757 73.465665 
L 75.016892 73.531931 
L 75.199693 73.840579 
L 75.23016 74.492916 
L 75.260627 73.760152 
L 75.32156 74.421974 
L 75.504361 74.566754 
L 75.748096 74.564714 
L 75.839496 74.987914 
L 75.869963 74.950521 
L 75.90043 74.950521 
L 75.930897 74.564714 
L 76.022297 74.581145 
L 76.174631 75.695925 
L 76.235565 75.615498 
L 76.266032 75.71162 
L 76.326966 75.778141 
L 76.357432 76.120798 
L 76.418366 75.739335 
L 76.540233 75.820587 
L 76.5707 75.851888 
L 76.601167 75.820587 
L 76.723034 76.397257 
L 76.783968 76.443939 
L 76.814435 76.030155 
L 77.088636 78.70358 
L 77.119103 78.70358 
L 77.210504 77.987081 
L 77.240971 78.037042 
L 77.271437 78.037042 
L 77.301904 77.827935 
L 77.332371 78.093312 
L 77.362838 78.093312 
L 77.393305 78.126624 
L 77.423771 78.037042 
L 77.454238 78.037042 
L 77.545639 79.091901 
L 77.576106 78.341421 
L 77.81984 79.520128 
L 77.850307 79.520128 
L 78.002641 80.389121 
L 78.063575 80.389121 
L 78.094042 79.846429 
L 78.154975 79.936685 
L 78.276843 80.595096 
L 78.429177 80.562367 
L 78.459644 80.057067 
L 78.520577 80.389121 
L 78.672912 80.740837 
L 78.703378 80.740837 
L 78.764312 80.691706 
L 78.886179 81.312101 
L 79.038514 81.26811 
L 79.099447 81.251678 
L 79.129914 81.452029 
L 79.221314 81.054106 
L 79.251781 81.076577 
L 79.434582 81.239847 
L 79.525983 81.69028 
L 79.64785 81.239847 
L 79.769717 81.379744 
L 79.800184 81.379744 
L 79.830651 81.641878 
L 79.922052 81.558214 
L 80.074386 81.558214 
L 80.196253 81.558214 
L 80.31812 82.538771 
L 80.439988 82.538771 
L 80.592322 83.631599 
L 80.80559 83.631599 
L 80.836057 83.851052 
L 80.957924 85.95523 
L 81.171192 85.993557 
L 81.293059 86.07626 
L 81.384459 85.993557 
L 81.56726 85.864974 
L 81.597727 85.95523 
L 81.658661 85.864974 
L 81.932862 85.923967 
L 82.085197 86.04477 
L 82.237531 86.04477 
L 82.298464 86.314285 
L 82.359398 86.254136 
L 82.450799 86.29122 
L 82.572666 86.509603 
L 82.725 86.597581 
L 82.8164 86.612239 
L 83.060135 86.823525 
L 83.182002 86.694942 
L 83.212469 86.914395 
L 83.30387 86.872663 
L 83.364803 86.823525 
L 83.425737 86.982029 
L 83.547604 86.94393 
L 83.699939 87.094056 
L 83.943673 87.184398 
L 84.126474 87.451124 
L 84.187408 87.496018 
L 84.248342 87.882873 
L 84.309275 87.86747 
L 84.827211 87.924818 
L 85.253747 88.80855 
L 85.497482 88.872241 
L 85.527948 89.136291 
L 85.588882 89.026033 
L 85.710749 88.872241 
L 85.832617 89.237238 
L 85.863084 89.237238 
L 85.984951 88.872241 
L 86.015418 88.872241 
L 86.045885 89.104598 
L 86.106818 88.872241 
L 86.228686 88.872241 
L 86.350553 89.161197 
L 86.38102 89.161197 
L 86.411486 89.365065 
L 86.47242 89.189846 
L 86.533354 89.257412 
L 86.655221 89.670496 
L 86.746622 89.670496 
L 86.898956 90.207692 
L 86.929423 90.207692 
L 87.05129 90.396552 
L 87.14269 90.492565 
L 87.234091 90.526687 
L 87.355958 91.233813 
L 87.782494 91.237548 
L 87.812961 91.432427 
L 87.873894 91.335577 
L 87.995762 91.233813 
L 88.422297 91.329826 
L 88.513698 91.593876 
L 88.544165 91.329826 
L 88.605098 91.497862 
L 88.726966 91.593876 
L 88.818366 91.497862 
L 88.848833 91.517528 
L 89.001167 91.517528 
L 89.092568 91.786818 
L 89.123034 91.623872 
L 89.153501 91.623872 
L 89.214435 91.497862 
L 89.244902 91.637717 
L 89.275369 91.637717 
L 89.397236 91.826132 
L 89.45817 91.786818 
L 89.640971 92.366429 
L 89.701904 92.366429 
L 89.823771 92.232298 
L 89.854238 93.212269 
L 89.915172 92.310306 
L 90.037039 92.232298 
L 90.158907 92.327746 
L 90.280774 93.295138 
L 90.372174 93.068981 
L 90.402641 93.153772 
L 90.524509 93.610829 
L 90.585442 93.630186 
L 90.646376 93.108663 
L 90.859644 93.113582 
L 90.981511 93.296264 
L 91.011978 93.296264 
L 91.103378 94.276236 
L 91.133845 94.088635 
L 91.194779 94.088635 
L 91.316646 94.276236 
L 91.438514 94.298277 
L 91.560381 94.410367 
L 91.743182 94.485979 
L 91.773649 94.984582 
L 91.804115 94.410367 
L 91.834582 94.430032 
L 91.95645 94.402397 
L 92.078317 94.887089 
L 92.139251 94.402397 
L 92.169717 94.458728 
L 92.291585 95.091065 
L 92.382985 95.151485 
L 92.413452 95.586931 
L 92.504853 95.556963 
L 92.535319 95.556963 
L 92.565786 95.806552 
L 92.596253 95.702981 
L 92.657187 95.151485 
L 92.71812 95.280052 
L 92.779054 95.280052 
L 92.870455 95.151485 
L 92.992322 95.516616 
L 93.20559 95.568136 
L 93.236057 95.681671 
L 93.29699 95.568136 
L 93.449324 95.659031 
L 93.571192 96.382867 
L 93.601658 96.565438 
L 93.693059 96.448595 
L 93.753993 96.448595 
L 94.028194 97.086961 
L 94.058661 97.086961 
L 94.089128 97.32434 
L 94.150061 97.086961 
L 94.180528 97.086961 
L 94.302396 98.259504 
L 94.332862 98.076933 
L 94.45473 98.108404 
L 94.515663 98.787671 
L 94.576597 98.388072 
L 94.607064 98.236971 
L 94.637531 98.448492 
L 94.667998 98.448492 
L 94.698464 98.616244 
L 94.759398 98.448492 
L 95.338268 98.479963 
L 95.368735 98.60841 
L 95.429668 98.479963 
L 95.521069 98.479963 
L 95.642936 98.670713 
L 95.70387 98.670713 
L 95.825737 98.779415 
L 96.099939 98.799161 
L 96.221806 98.612341 
L 96.37414 98.670713 
L 96.404607 98.670713 
L 96.435074 98.784248 
L 96.496007 98.670713 
L 96.648342 98.728737 
L 96.770209 99.607011 
L 96.892076 99.14857 
L 97.04441 99.965333 
L 97.166278 99.607011 
L 97.196744 99.679467 
L 97.257678 99.607011 
L 97.318612 99.607011 
L 97.349079 99.80174 
L 97.410012 99.735458 
L 97.470946 99.607011 
L 97.53188 99.665383 
L 97.714681 99.758619 
L 97.745147 99.892414 
L 97.806081 99.79383 
L 97.897482 99.758619 
L 97.988882 99.700247 
L 98.019349 99.854216 
L 98.141216 99.854216 
L 98.171683 99.973306 
L 98.232617 99.854216 
L 98.324017 99.94448 
L 98.476351 100.488577 
L 98.598219 100.609136 
L 98.689619 100.687869 
L 98.750553 100.884127 
L 98.811486 100.609136 
L 98.87242 100.667509 
L 98.933354 100.692775 
L 98.963821 100.610322 
L 99.055221 100.609136 
L 99.177088 101.435465 
L 99.207555 101.095033 
L 99.420823 101.347708 
L 99.45129 101.105911 
L 99.573157 102.080845 
L 99.695025 102.355836 
L 99.786425 102.355836 
L 99.877826 102.519816 
L 99.938759 102.355836 
L 99.999693 102.455033 
L 100.243428 102.474926 
L 100.365295 102.67235 
L 100.426229 102.582192 
L 100.548096 104.14798 
L 100.578563 104.276427 
L 100.639496 104.14798 
L 100.730897 104.16698 
L 100.761364 104.283376 
L 100.79183 104.137778 
L 100.822297 104.137778 
L 100.883231 104.16698 
L 101.035565 104.389359 
L 101.066032 104.266225 
L 101.126966 104.389359 
L 101.157432 104.389359 
L 101.2793 105.413063 
L 101.492568 105.524772 
L 101.614435 105.637392 
L 101.827703 105.753788 
L 101.85817 105.867663 
L 101.919103 105.764666 
L 102.101904 105.832521 
L 102.315172 106.596958 
L 102.376106 106.471374 
L 102.52844 106.471374 
L 102.650307 107.226918 
L 102.772174 107.237796 
L 102.894042 107.854165 
L 102.924509 107.854165 
L 102.954975 107.740064 
L 103.015909 107.780387 
L 103.137776 108.073558 
L 103.320577 108.196237 
L 103.351044 108.176602 
L 103.503378 108.338277 
L 103.655713 108.437137 
L 103.77758 108.29928 
L 103.86898 108.29928 
L 103.929914 108.519404 
L 103.990848 108.421862 
L 104.021314 108.345083 
L 104.051781 108.364194 
L 104.204115 108.586958 
L 104.35645 108.542676 
L 104.478317 111.629013 
L 104.661118 112.002095 
L 104.722052 112.002095 
L 104.813452 112.26446 
L 104.843919 112.002095 
L 104.935319 112.030504 
L 104.965786 112.573698 
L 105.02672 112.103707 
L 105.057187 112.030504 
L 105.11812 112.103707 
L 105.270455 112.103707 
L 105.422789 113.604024 
L 105.69699 113.713471 
L 105.757924 113.724349 
L 105.879791 116.516638 
L 105.910258 116.469958 
L 106.001658 116.683506 
L 106.032125 116.623002 
L 106.123526 116.622447 
L 106.245393 116.430234 
L 106.397727 116.406635 
L 106.489128 116.722432 
L 106.519595 116.698832 
L 106.793796 116.807147 
L 106.824263 116.94995 
L 106.85473 116.719096 
L 106.915663 116.609649 
L 107.067998 119.184131 
L 107.159398 119.217722 
L 107.189865 119.438634 
L 107.250799 119.184131 
L 107.4336 119.217961 
L 107.464066 119.184131 
L 107.585934 119.573051 
L 107.768735 119.635316 
L 107.829668 119.849282 
L 107.860135 119.693897 
L 107.951536 119.740815 
L 108.042936 119.803081 
L 108.073403 119.740815 
L 108.225737 119.682498 
L 108.317138 119.64164 
L 108.347604 120.001495 
L 108.408538 119.64164 
L 108.439005 120.141451 
L 108.77414 120.16505 
L 108.926474 120.421735 
L 109.200676 120.470021 
L 109.292076 120.711194 
L 109.322543 120.489715 
L 109.383477 120.489715 
L 109.474877 120.996048 
L 109.505344 120.645306 
L 109.688145 120.576296 
L 109.779545 120.432235 
L 109.810012 120.561333 
L 109.840479 120.297532 
L 109.870946 120.297532 
L 109.901413 120.410736 
L 109.962346 120.344656 
L 109.992813 120.271001 
L 110.053747 121.167612 
L 110.145147 120.731907 
L 110.267015 120.844103 
L 110.297482 120.669778 
L 110.358415 120.892044 
L 110.449816 120.880171 
L 110.571683 121.151887 
L 110.663084 120.920247 
L 110.69355 121.050417 
L 110.724017 120.92311 
L 110.784951 121.029695 
L 110.906818 121.050417 
L 111.059152 121.466793 
L 111.18102 121.159905 
L 111.211486 121.214302 
L 111.363821 122.505225 
L 111.394287 122.058534 
L 111.455221 122.058534 
L 111.577088 122.512254 
L 111.668489 122.487703 
L 111.759889 122.682468 
L 111.820823 122.487703 
L 111.94269 122.993555 
L 111.973157 123.061718 
L 112.034091 122.993555 
L 112.125491 122.989778 
L 112.247359 123.34553 
L 112.277826 123.230951 
L 112.308292 123.386237 
L 112.338759 123.386237 
L 112.460627 123.837613 
L 112.491093 123.444818 
L 112.582494 123.552316 
L 112.704361 123.987111 
L 112.765295 123.987111 
L 112.795762 123.828794 
L 112.856695 123.936291 
L 113.069963 123.944614 
L 113.222297 124.338118 
L 113.466032 124.40669 
L 113.587899 124.40669 
L 113.618366 124.588321 
L 113.6793 124.508076 
L 113.740233 124.568518 
L 113.7707 124.414901 
L 113.801167 124.598248 
L 113.862101 124.414901 
L 113.923034 124.414901 
L 113.953501 124.686771 
L 114.014435 124.414901 
L 114.105835 124.426916 
L 114.136302 125.076709 
L 114.197236 124.414901 
L 114.25817 124.52743 
L 114.319103 124.350133 
L 114.501904 124.526913 
L 114.654238 125.533293 
L 114.776106 125.978979 
L 114.806572 125.978979 
L 114.92844 126.289973 
L 115.01984 126.351418 
L 115.050307 126.488514 
L 115.080774 126.289973 
L 115.111241 126.289973 
L 115.233108 126.289973 
L 115.415909 126.946394 
L 115.50731 126.732366 
L 115.537776 127.139837 
L 115.629177 126.945109 
L 115.659644 127.139837 
L 115.720577 126.945109 
L 115.781511 126.960342 
L 115.842445 127.153965 
L 115.903378 127.05609 
L 116.055713 127.139548 
L 116.086179 127.116104 
L 116.208047 127.527352 
L 116.482248 127.595088 
L 116.604115 127.630055 
L 116.786916 127.673584 
L 116.908784 127.758628 
L 117.152518 127.7151 
L 117.182985 127.913641 
L 117.243919 127.752675 
L 117.304853 127.810942 
L 117.42672 128.738333 
L 117.761855 128.807267 
L 117.853256 128.936875 
L 117.883722 128.877102 
L 118.401658 128.936875 
L 118.432125 129.696497 
L 118.493059 128.936875 
L 118.553993 128.936875 
L 118.584459 129.367639 
L 118.645393 128.936875 
L 118.67586 128.936875 
L 118.797727 129.311961 
L 118.828194 129.311961 
L 118.889128 129.456961 
L 118.919595 129.311961 
L 118.950061 129.311961 
L 119.071929 129.795797 
L 119.193796 129.745898 
L 119.25473 129.725687 
L 119.437531 130.784458 
L 119.467998 130.470075 
L 119.559398 130.555556 
L 119.589865 130.482025 
L 119.650799 130.56958 
L 119.711732 130.613108 
L 119.8336 131.172119 
L 119.925 131.072615 
L 120.077334 131.56985 
L 120.107801 131.311447 
L 120.168735 131.444489 
L 120.382002 131.620596 
L 120.412469 132.186666 
L 120.473403 131.620596 
L 120.59527 131.726175 
L 120.625737 131.680554 
L 120.991339 132.106138 
L 121.08274 132.051391 
L 121.235074 132.171441 
L 121.417875 132.272325 
L 121.661609 132.403759 
L 121.722543 132.362858 
L 121.813943 132.766798 
L 121.905344 132.965521 
L 121.935811 132.954429 
L 122.057678 132.75824 
L 122.179545 132.815343 
L 122.210012 132.75824 
L 122.301413 132.813781 
L 122.484214 132.876075 
L 122.514681 132.961555 
L 122.575614 132.876707 
L 122.636548 132.876707 
L 122.788882 133.16779 
L 122.880283 133.156786 
L 122.910749 133.309882 
L 122.971683 133.156786 
L 123.306818 133.168736 
L 123.428686 133.545412 
L 123.58102 133.483118 
L 123.641953 133.479507 
L 123.824754 133.967729 
L 123.885688 133.967729 
L 124.068489 134.378527 
L 124.25129 134.688199 
L 124.281757 134.621055 
L 124.373157 134.434605 
L 124.403624 134.486687 
L 124.647359 134.241093 
L 124.708292 134.343366 
L 124.860627 134.361018 
L 124.92156 134.594238 
L 124.982494 134.562775 
L 125.134828 134.6018 
L 125.226229 134.714587 
L 125.256695 134.661501 
L 125.378563 134.773735 
L 125.50043 134.570106 
L 125.866032 134.859216 
L 126.018366 134.818948 
L 126.140233 134.857973 
L 126.231634 134.943453 
L 126.262101 134.873518 
L 126.292568 134.873518 
L 126.414435 134.995406 
L 126.780037 135.081469 
L 126.871437 135.163524 
L 126.901904 135.102466 
L 126.962838 135.046101 
L 126.993305 135.144685 
L 127.145639 135.18084 
L 127.237039 135.791375 
L 127.267506 135.782247 
L 127.358907 136.0955 
L 127.450307 136.002677 
L 127.633108 135.778445 
L 127.694042 135.902288 
L 127.724509 135.76534 
L 127.815909 135.742085 
L 127.846376 135.791375 
L 127.876843 135.791375 
L 127.99871 136.038254 
L 128.029177 136.038254 
L 128.090111 136.39051 
L 128.151044 136.123919 
L 128.364312 136.209207 
L 128.608047 136.380048 
L 128.729914 136.253371 
L 128.760381 136.253371 
L 128.790848 136.427211 
L 128.851781 136.294272 
L 129.004115 136.253371 
L 129.15645 136.253371 
L 129.217383 136.728784 
L 129.24785 136.253371 
L 129.369717 136.459279 
L 129.400184 136.337421 
L 129.461118 136.337421 
L 129.613452 136.762342 
L 129.735319 136.783435 
L 129.857187 137.014237 
L 129.948587 137.064443 
L 129.979054 137.202247 
L 130.009521 137.042336 
L 130.039988 137.067991 
L 130.588391 137.173472 
L 130.618857 137.37938 
L 130.710258 137.284104 
L 130.771192 137.382774 
L 130.801658 137.144975 
L 130.862592 137.334248 
L 130.984459 137.454065 
L 131.014926 137.334248 
L 131.07586 137.439069 
L 131.16726 137.526712 
L 131.197727 137.498215 
L 131.319595 137.467566 
L 131.350061 137.603705 
L 131.410995 137.429865 
L 131.502396 137.470451 
L 131.532862 137.549682 
L 131.563329 137.344784 
L 131.593796 137.461682 
L 131.624263 137.337133 
L 131.685197 137.479591 
L 131.837531 137.538995 
L 131.867998 137.538995 
L 132.050799 137.884031 
L 132.111732 137.678123 
L 132.172666 137.737269 
L 132.2336 137.851963 
L 132.264066 137.678123 
L 132.294533 137.678123 
L 132.4164 138.376076 
L 132.538268 138.412967 
L 132.660135 138.338878 
L 132.812469 138.544099 
L 132.842936 138.459967 
L 132.934337 138.5034 
L 133.086671 138.676048 
L 133.117138 138.685618 
L 133.178071 138.573684 
L 133.208538 138.591194 
L 133.239005 138.737955 
L 133.299939 138.532048 
L 133.513206 138.544099 
L 133.635074 139.025495 
L 133.726474 139.071451 
L 133.756941 139.154814 
L 133.817875 139.043242 
L 133.848342 139.030644 
L 133.909275 139.159752 
L 133.939742 139.025495 
L 134.15301 139.220741 
L 134.183477 139.07645 
L 134.274877 139.102119 
L 134.366278 139.102119 
L 134.396744 139.851844 
L 134.427211 139.081598 
L 134.457678 139.271548 
L 134.488145 139.135039 
L 134.579545 139.222829 
L 134.762346 139.373062 
L 134.792813 139.285594 
L 134.884214 139.346562 
L 135.006081 139.346562 
L 135.219349 139.748715 
L 135.249816 139.748715 
L 135.371683 139.64263 
L 135.463084 139.695748 
L 135.524017 140.039972 
L 135.554484 139.986057 
L 135.645885 139.664366 
L 135.676351 139.701258 
L 135.798219 139.826235 
L 136.011486 139.826235 
L 136.133354 139.99137 
L 136.285688 140.04842 
L 136.316155 140.173588 
L 136.377088 140.04842 
L 136.65129 140.143674 
L 136.74269 140.180431 
L 136.773157 140.04842 
L 136.864558 140.100009 
L 137.138759 140.100009 
L 137.169226 140.244581 
L 137.23016 140.100009 
L 137.382494 140.181144 
L 137.504361 140.78584 
L 137.534828 140.78584 
L 137.656695 141.672238 
L 137.778563 140.885969 
L 137.809029 141.18694 
L 137.90043 141.017979 
L 138.083231 141.009805 
L 138.326966 141.896203 
L 138.5707 141.896203 
L 138.692568 142.145697 
L 139.14957 142.150378 
L 139.210504 142.521303 
L 139.240971 142.145697 
L 139.362838 142.145697 
L 139.484705 143.303866 
L 139.667506 143.662719 
L 139.697973 143.559785 
L 139.758907 143.679472 
L 139.941708 143.699649 
L 140.063575 144.114898 
L 140.094042 144.114898 
L 140.154975 143.679472 
L 140.185442 144.02148 
L 140.337776 144.215469 
L 140.642445 144.303362 
L 140.825246 144.520708 
L 140.916646 144.344263 
L 141.099447 144.952916 
L 141.251781 144.917861 
L 141.282248 144.917861 
L 141.434582 145.361389 
L 141.465049 145.28947 
L 141.830651 145.228347 
L 141.952518 145.536639 
L 142.379054 145.536639 
L 142.439988 145.830767 
L 142.470455 145.536639 
L 142.683722 145.555737 
L 142.714189 146.058182 
L 142.775123 145.636992 
L 142.988391 145.696817 
L 143.049324 145.852598 
L 143.110258 145.784858 
L 143.47586 145.825585 
L 143.597727 147.043136 
L 143.963329 147.38567 
L 144.298464 147.401754 
L 144.420332 147.715557 
L 144.6336 147.745832 
L 144.785934 147.889128 
L 144.877334 147.976649 
L 145.273403 148.274542 
L 145.364803 148.16732 
L 145.39527 148.228203 
L 145.608538 148.16732 
L 145.639005 148.854907 
L 145.730405 148.426769 
L 145.760872 148.426769 
L 145.88274 148.302947 
L 145.97414 148.302947 
L 146.126474 148.558066 
L 146.187408 148.586471 
L 146.217875 148.450844 
L 146.400676 148.84592 
L 146.522543 148.84592 
L 146.55301 149.096012 
L 146.613943 148.84592 
L 146.766278 148.852848 
L 146.918612 149.40819 
L 147.375614 149.440495 
L 147.527948 149.621276 
L 147.649816 149.593911 
L 147.863084 149.658841 
L 147.89355 149.721673 
L 147.984951 149.658841 
L 148.198219 149.676723 
L 148.228686 150.450062 
L 148.289619 149.672703 
L 148.685688 149.750616 
L 148.807555 149.799547 
L 148.868489 150.461625 
L 148.929423 150.367752 
L 149.081757 150.560909 
L 149.234091 150.510556 
L 149.264558 150.510556 
L 149.386425 151.349205 
L 150.483231 151.403157 
L 150.544165 151.910629 
L 150.574631 151.546375 
L 150.605098 151.546375 
L 150.696499 151.403157 
L 150.818366 151.825622 
L 150.848833 151.896571 
L 150.909767 151.825622 
L 151.092568 151.894439 
L 151.183968 151.985332 
L 151.214435 151.964893 
L 151.275369 151.932843 
L 151.305835 152.003793 
L 151.519103 152.003793 
L 151.580037 152.139968 
L 151.640971 152.056281 
L 151.915172 152.072611 
L 152.097973 152.839965 
L 152.12844 152.839965 
L 152.21984 152.483421 
L 152.250307 152.527848 
L 152.311241 153.133064 
L 152.341708 152.586329 
L 152.79871 152.619596 
L 152.829177 153.257582 
L 152.890111 152.483421 
L 153.164312 152.483421 
L 153.194779 152.998612 
L 153.255713 152.483421 
L 154.200184 152.550363 
L 154.322052 152.357206 
L 154.443919 152.515224 
L 154.535319 152.515224 
L 154.596253 152.668155 
L 154.62672 152.529141 
L 154.809521 152.617398 
L 154.839988 152.709645 
L 154.900921 152.617398 
L 155.053256 152.617398 
L 155.175123 153.480092 
L 155.266523 153.60479 
L 155.357924 153.480092 
L 155.540725 153.548197 
L 155.662592 153.701128 
L 155.784459 153.57701 
L 155.814926 153.57701 
L 155.936794 153.701128 
L 156.119595 153.760546 
L 156.241462 154.428748 
L 156.271929 154.493419 
L 156.332862 154.442665 
L 156.363329 155.752608 
L 156.424263 154.442665 
L 156.54613 154.523666 
L 156.698464 154.463993 
L 156.728931 154.519423 
L 156.850799 155.805356 
L 156.942199 155.79834 
L 157.064066 156.682608 
L 157.185934 156.751374 
L 157.307801 157.635643 
L 157.429668 157.635643 
L 157.460135 157.798115 
L 157.521069 157.65697 
L 157.79527 157.65697 
L 157.825737 157.805643 
L 157.886671 157.65697 
L 157.978071 157.635643 
L 158.039005 157.816015 
L 158.099939 157.794687 
L 158.252273 157.78216 
L 158.37414 157.663153 
L 159.166278 157.817156 
L 159.470946 157.761355 
L 159.592813 159.203678 
L 159.836548 159.227345 
L 159.927948 160.519873 
L 159.958415 160.474428 
L 160.29355 160.474428 
L 160.415418 160.772355 
L 160.750553 160.772355 
L 160.87242 161.212461 
L 161.085688 161.12511 
L 161.664558 161.199171 
L 161.725491 161.288349 
L 161.755958 161.148329 
L 161.877826 161.084317 
L 162.060627 161.116731 
L 162.152027 161.116731 
L 162.182494 161.320764 
L 162.243428 161.140117 
L 162.487162 161.084317 
L 162.639496 161.091857 
L 162.822297 161.876223 
L 163.035565 161.915464 
L 163.187899 162.126239 
L 163.309767 162.178309 
L 163.462101 163.28591 
L 163.888636 163.380414 
L 163.980037 163.554147 
L 164.010504 163.494013 
L 164.040971 163.494013 
L 164.071437 163.818196 
L 164.101904 163.473149 
L 164.132371 163.473149 
L 164.254238 163.494477 
L 164.284705 163.710488 
L 164.345639 163.494477 
L 164.497973 163.494477 
L 164.61984 163.707617 
L 164.894042 163.734598 
L 165.046376 163.911908 
L 165.19871 163.911908 
L 165.259644 164.314926 
L 165.290111 163.911908 
L 165.594779 164.200056 
L 165.655713 164.157268 
L 165.77758 164.473884 
L 165.929914 164.500866 
L 165.990848 164.304358 
L 166.021314 164.473884 
L 166.143182 164.575972 
L 166.417383 164.670536 
L 166.539251 164.326938 
L 166.600184 164.575989 
L 166.661118 164.506579 
L 166.782985 164.917611 
L 166.874386 164.839342 
L 166.996253 164.608667 
L 167.02672 164.761358 
L 167.11812 164.673167 
L 167.148587 164.673167 
L 167.270455 164.837205 
L 167.392322 164.608667 
L 167.453256 164.568822 
L 167.483722 165.090279 
L 167.514189 164.506579 
L 167.544656 164.506579 
L 167.69699 164.608667 
L 168.123526 164.540821 
L 168.245393 164.399957 
L 168.397727 164.399957 
L 168.550061 164.94672 
L 168.580528 165.058174 
L 168.671929 164.988566 
L 168.793796 164.988566 
L 168.976597 165.073062 
L 169.067998 165.331915 
L 169.159398 165.073062 
L 169.281265 165.331915 
L 169.585934 165.331915 
L 169.677334 165.723888 
L 169.799201 165.331915 
L 169.982002 165.404307 
L 170.10387 165.688445 
L 170.164803 165.723888 
L 170.317138 165.404307 
L 170.408538 165.441962 
L 170.469472 165.632844 
L 170.530405 165.515745 
L 170.713206 165.567672 
L 170.865541 165.691822 
L 171.078808 165.62233 
L 171.109275 165.563501 
L 171.139742 165.5849 
L 171.200676 165.70905 
L 171.261609 165.673163 
L 171.322543 165.673163 
L 171.474877 166.138293 
L 171.627211 166.138293 
L 171.657678 165.754824 
L 171.749079 165.811155 
L 171.810012 165.7763 
L 171.962346 166.170253 
L 172.053747 165.941715 
L 172.084214 166.011124 
L 172.297482 166.008038 
L 172.327948 166.167716 
L 172.388882 166.008038 
L 172.510749 166.015076 
L 172.541216 166.153587 
L 172.60215 166.008038 
L 172.754484 166.008038 
L 172.815418 166.641485 
L 172.876351 166.494338 
L 173.089619 166.575162 
L 173.241953 166.638948 
L 173.394287 166.667027 
L 173.455221 166.979097 
L 173.485688 166.667027 
L 173.668489 166.669564 
L 173.790356 167.712645 
L 173.94269 167.7417 
L 174.034091 168.219104 
L 174.064558 168.149695 
L 174.491093 168.165267 
L 174.52156 168.453102 
L 174.612961 168.27908 
L 174.734828 168.297517 
L 174.765295 168.941176 
L 174.826229 168.297517 
L 175.19183 168.393432 
L 175.344165 168.505121 
L 175.435565 168.407684 
L 175.466032 168.462841 
L 175.740233 168.552303 
L 175.7707 168.74143 
L 175.831634 168.461396 
L 175.983968 168.51113 
L 176.288636 168.585184 
L 176.410504 169.185961 
L 176.440971 168.772834 
L 176.501904 169.128483 
L 176.562838 169.084904 
L 176.684705 169.33296 
L 176.745639 169.33296 
L 176.958907 170.152667 
L 177.233108 170.255501 
L 177.263575 170.461278 
L 177.324509 170.307229 
L 177.476843 170.272656 
L 177.751044 170.255501 
L 177.903378 170.647124 
L 177.994779 170.41988 
L 178.025246 170.425926 
L 178.147113 171.063762 
L 178.390848 171.063762 
L 178.482248 171.202307 
L 178.512715 171.063762 
L 178.543182 171.238341 
L 178.604115 171.114392 
L 178.817383 171.079469 
L 178.969717 171.133171 
L 179.091585 171.303504 
L 179.365786 171.49072 
L 179.609521 171.529811 
L 179.731388 171.582153 
L 179.792322 172.268006 
L 179.822789 171.582371 
L 179.853256 171.529811 
L 179.944656 171.588749 
L 180.00559 171.64964 
L 180.066523 171.595491 
L 180.462592 171.68154 
L 180.523526 171.732924 
L 180.584459 171.673986 
L 180.889128 171.654126 
L 181.010995 171.906711 
L 181.041462 171.913749 
L 181.163329 172.291033 
L 181.224263 172.056014 
L 181.285197 172.156034 
L 181.407064 172.335045 
L 181.437531 172.335045 
L 181.498464 172.578319 
L 181.528931 172.334861 
L 181.620332 172.366454 
L 181.742199 173.09635 
L 181.864066 173.185542 
L 181.985934 173.324087 
L 182.046867 173.245188 
L 182.199201 173.185542 
L 182.260135 173.185542 
L 182.321069 173.313961 
L 182.351536 173.185542 
L 182.473403 173.170827 
L 182.59527 173.173267 
L 182.686671 173.559636 
L 182.717138 173.441052 
L 182.778071 173.453326 
L 182.899939 173.644678 
L 183.08274 173.703615 
L 183.143673 173.806835 
L 183.17414 173.695308 
L 183.509275 173.776208 
L 183.539742 173.95426 
L 183.600676 173.803176 
L 184.149079 173.803176 
L 184.301413 174.257724 
L 184.392813 174.257724 
L 184.514681 174.432157 
L 184.819349 174.480207 
L 184.849816 174.721897 
L 184.910749 174.495879 
L 185.154484 174.495879 
L 185.276351 175.051567 
L 185.306818 175.051567 
L 185.428686 175.471142 
L 185.520086 175.292271 
L 185.550553 175.343654 
L 185.611486 175.343654 
L 185.763821 175.564949 
L 185.916155 175.663763 
L 186.098956 175.68886 
L 186.434091 175.758392 
L 186.555958 176.298687 
L 186.708292 175.781145 
L 186.738759 175.703276 
L 186.799693 175.798524 
L 186.860627 175.781145 
L 186.92156 175.927425 
L 186.952027 175.772708 
L 187.134828 175.879614 
L 187.317629 175.819967 
L 187.348096 175.742099 
L 187.409029 175.819967 
L 187.439496 175.819967 
L 187.469963 175.975625 
L 187.530897 175.819967 
L 188.018366 175.878508 
L 188.109767 175.939399 
L 188.140233 175.878508 
L 188.292568 175.880083 
L 188.475369 176.147864 
L 188.74957 176.773303 
L 188.840971 176.708241 
L 189.054238 176.794766 
L 189.206572 176.854413 
L 189.32844 176.854413 
L 189.41984 176.794766 
L 189.450307 176.840917 
L 189.876843 176.855657 
L 189.90731 176.994202 
L 189.99871 176.915304 
L 190.120577 177.207909 
L 190.181511 177.708724 
L 190.211978 177.189927 
L 190.333845 177.40023 
L 190.455713 177.251035 
L 190.57758 177.342518 
L 190.638514 177.243704 
L 190.699447 177.303351 
L 190.882248 177.303351 
L 190.973649 177.579053 
L 191.095516 177.326157 
L 191.217383 177.402165 
L 191.461118 177.402165 
L 191.491585 177.51547 
L 191.552518 177.422528 
L 191.582985 177.422528 
L 191.735319 177.69555 
L 191.857187 177.631049 
L 191.887654 177.492198 
L 191.91812 177.747545 
L 191.979054 177.544193 
L 192.131388 177.563068 
L 192.588391 177.654668 
L 192.710258 177.961205 
L 192.740725 177.868281 
L 192.832125 177.907468 
L 192.984459 178.57123 
L 193.593796 178.65459 
L 193.624263 178.804064 
L 193.685197 178.662934 
L 193.715663 178.679686 
L 193.74613 178.865778 
L 193.807064 178.65459 
L 193.898464 178.707681 
L 193.959398 178.631886 
L 194.020332 179.23771 
L 194.050799 178.732778 
L 194.2336 178.835344 
L 194.4164 178.984818 
L 194.446867 178.835344 
L 194.507801 178.965048 
L 194.599201 179.010185 
L 194.721069 179.205033 
L 194.842936 178.996391 
L 195.299939 179.341001 
L 195.421806 179.47727 
L 195.878808 179.553245 
L 195.939742 179.695692 
L 195.970209 179.652059 
L 196.031143 179.553245 
L 196.061609 179.679089 
L 196.213943 179.749689 
L 196.305344 179.553245 
L 196.335811 179.656722 
L 196.518612 179.626571 
L 196.549079 179.923245 
L 196.610012 179.626571 
L 196.640479 179.691267 
L 196.73188 179.626571 
L 196.884214 179.662014 
L 196.914681 179.811326 
L 196.945147 179.626571 
L 196.975614 179.626571 
L 197.767752 179.612637 
L 197.889619 180.083274 
L 198.102887 180.083274 
L 198.133354 180.298353 
L 198.194287 180.153874 
L 198.346622 180.083274 
L 198.681757 180.184287 
L 198.712224 180.210077 
L 198.834091 181.667323 
L 199.169226 181.766137 
L 199.352027 181.766137 
L 199.382494 181.667323 
L 199.443428 181.766137 
L 200.083231 181.802015 
L 200.113698 181.972192 
L 200.174631 181.803671 
L 200.387899 181.816772 
L 200.783968 182.726147 
L 200.875369 182.751937 
L 201.027703 182.969737 
L 201.393305 182.976705 
L 201.515172 183.091688 
L 201.637039 183.091688 
L 201.667506 183.214676 
L 201.758907 183.149292 
L 201.789373 183.149292 
L 201.850307 183.324471 
L 201.911241 183.21297 
L 202.033108 183.078818 
L 202.063575 183.149292 
L 202.429177 183.209341 
L 202.520577 183.282262 
L 202.611978 183.146972 
L 202.642445 183.209004 
L 203.038514 183.285176 
L 203.160381 183.567552 
L 203.251781 183.567552 
L 203.312715 183.370415 
L 203.343182 183.567552 
L 203.708784 183.636638 
L 203.861118 183.926389 
L 203.922052 183.77079 
L 203.952518 183.850049 
L 204.013452 183.949939 
L 204.043919 183.850049 
L 204.104853 183.888895 
L 204.22672 184.032183 
L 204.348587 183.953898 
L 204.379054 183.983081 
L 204.683722 183.953898 
L 204.957924 183.70943 
L 205.293059 183.779728 
L 205.353993 184.022305 
L 205.384459 183.736616 
L 205.750061 184.351327 
L 205.810995 184.180513 
L 206.359398 184.155123 
L 206.389865 184.430672 
L 206.450799 184.156445 
L 206.603133 184.095593 
L 206.694533 184.02097 
L 206.755467 184.291481 
L 206.785934 183.960495 
L 207.242936 184.029059 
L 207.39527 184.166445 
L 207.456204 184.100763 
L 207.578071 184.308749 
L 207.730405 184.221559 
L 207.760872 184.163575 
L 207.791339 184.308749 
L 208.096007 184.353658 
L 208.217875 184.549722 
L 208.431143 184.525258 
L 208.613943 185.021169 
L 208.64441 184.836679 
L 208.979545 184.901877 
L 209.040479 184.982708 
L 209.101413 184.901877 
L 209.192813 185.005807 
L 209.375614 185.04431 
L 209.741216 185.260999 
L 209.771683 185.457203 
L 209.832617 185.260999 
L 210.350553 185.260999 
L 210.411486 185.444912 
L 210.47242 185.378313 
L 210.502887 185.378313 
L 210.624754 185.602934 
L 210.716155 185.603365 
L 210.868489 185.874933 
L 210.990356 185.874933 
L 211.112224 186.046824 
L 211.14269 186.046824 
L 211.264558 186.202423 
L 211.355958 186.202423 
L 211.477826 186.372242 
L 211.660627 186.365494 
L 211.812961 186.299044 
L 212.117629 186.702659 
L 212.30043 186.678195 
L 212.635565 186.807404 
L 212.757432 188.030075 
L 212.909767 188.086473 
L 212.9707 188.042826 
L 213.001167 188.173345 
L 213.092568 188.101694 
L 213.123034 188.079455 
L 213.153501 188.130813 
L 213.183968 188.2881 
L 213.214435 188.071678 
L 213.244902 188.100534 
L 213.671437 188.175367 
L 213.701904 188.292134 
L 213.762838 188.17549 
L 214.006572 188.17168 
L 214.067506 188.353765 
L 214.12844 188.275609 
L 214.70731 188.275609 
L 214.737776 188.390312 
L 214.79871 188.370676 
L 214.920577 188.275609 
L 214.951044 188.275609 
L 215.103378 188.507122 
L 215.225246 188.341338 
L 215.590848 188.351152 
L 216.078317 188.446218 
L 216.230651 188.487985 
L 216.535319 188.586101 
L 216.71812 188.621737 
L 216.809521 188.693671 
L 216.931388 188.904932 
L 217.327457 188.990665 
L 217.357924 189.091848 
L 217.418857 188.995856 
L 217.693059 188.990665 
L 217.784459 189.280011 
L 217.814926 189.172441 
L 218.119595 189.195434 
L 218.210995 189.321506 
L 218.241462 189.273624 
L 218.424263 189.249548 
L 218.667998 189.249548 
L 218.728931 189.235671 
L 218.850799 189.36868 
L 218.972666 189.287056 
L 219.307801 189.252615 
L 219.399201 189.415901 
L 219.429668 189.238358 
L 219.521069 189.2962 
L 219.582002 189.338055 
L 219.612469 189.239546 
L 220.069472 189.437402 
L 220.191339 189.570244 
L 220.892076 189.516115 
L 221.013943 189.925021 
L 221.257678 189.925021 
L 221.775614 189.975887 
L 221.836548 190.107966 
L 221.867015 189.975887 
L 222.384951 190.056812 
L 222.415418 190.15348 
L 222.476351 190.056812 
L 222.567752 190.056812 
L 222.598219 190.352916 
L 222.659152 190.073602 
L 222.689619 190.073602 
L 222.720086 190.331921 
L 222.78102 190.099474 
L 223.146622 190.181556 
L 223.268489 190.099474 
L 223.695025 190.470625 
L 223.725491 190.397863 
L 223.786425 190.429895 
L 223.908292 190.64056 
L 224.426229 190.682327 
L 224.548096 190.77164 
L 224.669963 190.868966 
L 224.913698 191.003411 
L 225.096499 190.962646 
L 225.431634 191.034703 
L 225.553501 191.401708 
L 225.583968 191.34701 
L 225.644902 191.401708 
L 225.675369 191.54458 
L 225.705835 191.369881 
L 225.736302 191.369881 
L 225.980037 191.410771 
L 226.284705 191.576367 
L 226.650307 191.608254 
L 226.741708 191.826262 
L 226.802641 191.783084 
L 227.229177 191.743688 
L 227.290111 191.823216 
L 227.351044 191.775504 
L 227.472912 191.78034 
L 227.503378 191.78034 
L 227.533845 192.037388 
L 227.594779 191.78009 
L 227.655713 191.78009 
L 227.77758 191.939877 
L 227.808047 191.917288 
L 227.86898 192.002356 
L 228.143182 191.979826 
L 228.173649 192.210188 
L 228.234582 191.979826 
L 228.691585 191.979826 
L 228.752518 192.146991 
L 228.782985 191.992841 
L 228.996253 192.011642 
L 229.788391 192.009893 
L 229.818857 192.41002 
L 229.879791 192.009893 
L 230.580528 191.995128 
L 230.702396 192.195893 
L 231.372666 192.306558 
L 231.585934 192.295313 
L 231.6164 192.295313 
L 231.738268 192.813258 
L 231.860135 192.813258 
L 232.012469 193.032237 
L 232.134337 193.091904 
L 232.164803 193.150084 
L 232.225737 193.070556 
L 232.439005 192.995164 
L 232.499939 192.953346 
L 232.621806 193.183709 
L 232.743673 193.183709 
L 232.77414 193.509861 
L 232.835074 193.183709 
L 232.896007 193.192572 
L 232.956941 193.361925 
L 232.987408 193.189578 
L 233.292076 193.19771 
L 233.322543 193.488221 
L 233.383477 193.182268 
L 233.505344 193.182268 
L 233.596744 193.376356 
L 233.718612 193.203616 
L 233.962346 193.278217 
L 234.388882 193.726568 
L 234.571683 193.759385 
L 234.724017 194.290509 
L 234.815418 194.025116 
L 234.845885 194.119244 
L 235.607555 194.213039 
L 235.790356 194.213039 
L 236.308292 194.313405 
L 236.460627 194.351274 
L 236.52156 194.323634 
L 236.582494 194.570703 
L 236.612961 194.349559 
L 236.917629 194.36374 
L 237.069963 194.650453 
L 237.344165 194.650453 
L 237.374631 194.918996 
L 237.466032 194.743843 
L 237.496499 194.650453 
L 237.526966 194.895192 
L 237.892568 194.931698 
L 238.075369 194.877969 
L 238.25817 195.101571 
L 238.288636 194.946678 
L 238.34957 195.101571 
L 238.806572 195.101571 
L 238.92844 195.250816 
L 239.050307 195.169544 
L 239.263575 195.274763 
L 239.568243 195.557104 
L 239.690111 195.274763 
L 239.751044 195.274763 
L 239.781511 195.571384 
L 239.842445 195.274763 
L 239.964312 195.287778 
L 240.086179 195.571384 
L 240.451781 195.64565 
L 240.482248 195.738952 
L 240.543182 195.64565 
L 240.84785 195.738952 
L 240.878317 195.980776 
L 240.939251 195.738952 
L 241.061118 195.738952 
L 241.152518 195.953822 
L 241.182985 195.860519 
L 241.365786 195.965096 
L 241.548587 195.953822 
L 241.579054 196.258625 
L 241.639988 195.953822 
L 241.731388 195.982101 
L 241.761855 196.258625 
L 241.822789 195.982101 
L 241.883722 195.982101 
L 241.914189 196.286905 
L 241.975123 195.924108 
L 242.432125 195.924108 
L 242.553993 196.222637 
L 242.736794 196.261925 
L 242.797727 196.452883 
L 242.858661 196.378618 
L 243.010995 196.409784 
L 243.102396 196.545934 
L 243.193796 196.423547 
L 243.285197 196.539895 
L 243.407064 196.383637 
L 243.559398 196.383637 
L 243.681265 196.617991 
L 243.955467 196.617991 
L 244.0164 196.396575 
L 244.077334 196.538125 
L 244.199201 196.626758 
L 244.229668 196.974342 
L 244.290602 196.642389 
L 244.321069 196.632722 
L 244.351536 196.755225 
L 244.412469 196.632722 
L 245.509275 196.642389 
L 245.631143 196.905461 
L 246.027211 196.994782 
L 246.088145 197.052417 
L 246.149079 197.017146 
L 246.606081 197.030425 
L 246.727948 197.311732 
L 246.971683 197.311732 
L 247.09355 197.498789 
L 247.245885 197.451879 
L 247.855221 197.489788 
L 247.885688 197.609194 
L 247.916155 197.441878 
L 247.977088 197.573842 
L 248.220823 197.593113 
L 248.281757 197.809576 
L 248.34269 197.741158 
L 248.403624 197.847091 
L 248.434091 197.741158 
L 248.495025 197.801089 
L 248.525491 197.695157 
L 248.647359 197.847091 
L 248.92156 197.893904 
L 249.012961 197.972948 
L 249.134828 197.85068 
L 249.317629 197.88731 
L 249.50043 197.916628 
L 249.652764 197.984235 
L 250.018366 197.990361 
L 250.1707 198.512049 
L 250.292568 198.158259 
L 250.383968 198.158259 
L 250.414435 198.352756 
L 250.444902 198.146065 
L 250.475369 198.146065 
L 250.65817 198.146065 
L 250.719103 198.190499 
L 250.840971 198.594565 
L 251.115172 198.576028 
L 251.237039 198.451496 
L 251.694042 198.620762 
L 251.815909 198.566439 
L 252.425246 198.676516 
L 252.57758 198.977293 
L 252.608047 198.977293 
L 252.760381 198.744375 
L 253.004115 198.821377 
L 253.034582 198.754359 
L 253.095516 198.816853 
L 253.308784 198.932858 
L 253.552518 199.015378 
L 253.582985 199.086863 
L 253.643919 199.049787 
L 253.674386 199.012597 
L 253.704853 199.038013 
L 253.91812 199.562568 
L 253.979054 199.505421 
L 254.070455 199.505421 
L 254.192322 200.110473 
L 254.222789 199.794206 
L 254.283722 200.229222 
L 254.314189 200.269781 
L 254.344656 200.110473 
L 254.436057 200.151032 
L 254.527457 200.110473 
L 254.557924 200.205181 
L 254.649324 200.151032 
L 254.832125 200.151032 
L 254.923526 200.344046 
L 255.014926 200.151032 
L 255.045393 200.212706 
L 255.685197 200.254671 
L 255.715663 200.399875 
L 255.776597 200.254671 
L 256.568735 200.305874 
L 256.782002 200.535527 
L 256.842936 200.55663 
L 256.873403 200.48801 
L 257.269472 200.505591 
L 257.421806 200.562167 
L 257.543673 200.49105 
L 257.665541 200.5581 
L 257.756941 200.489884 
L 257.787408 200.548002 
L 258.122543 200.554564 
L 258.15301 201.41759 
L 258.213943 200.574841 
L 258.640479 200.60407 
L 258.670946 200.753123 
L 258.762346 200.72522 
L 259.889619 200.827149 
L 259.950553 200.885689 
L 259.98102 200.723851 
L 260.07242 200.831567 
L 260.133354 200.827149 
L 260.163821 201.24153 
L 260.224754 200.882048 
L 260.316155 200.842658 
L 260.346622 201.035672 
L 260.438022 200.925095 
L 260.590356 200.827149 
L 260.74269 200.813428 
L 260.955958 201.995133 
L 260.986425 201.799506 
L 261.291093 201.939583 
L 261.382494 202.171799 
L 261.412961 202.104397 
L 261.687162 202.149206 
L 261.778563 203.326893 
L 261.809029 202.250866 
L 261.961364 202.123907 
L 262.235565 202.123907 
L 262.357432 202.32155 
L 262.966769 202.362719 
L 263.119103 202.486924 
L 263.332371 202.497153 
L 263.911241 202.567761 
L 263.941708 202.89305 
L 264.002641 202.623783 
L 264.063575 202.595454 
L 264.124509 202.744078 
L 264.185442 202.70712 
L 264.276843 202.595454 
L 264.30731 202.6673 
L 264.429177 202.583404 
L 264.490111 202.583404 
L 264.611978 202.90085 
L 264.703378 203.289491 
L 264.825246 202.90085 
L 264.855713 203.030535 
L 264.916646 202.90085 
L 265.343182 202.948348 
L 265.434582 203.174401 
L 265.495516 202.948348 
L 265.525983 203.032232 
L 265.55645 203.22087 
L 265.586916 202.948348 
L 265.617383 202.952149 
L 265.739251 202.977578 
L 265.922052 202.954532 
L 266.653256 203.037936 
L 266.775123 203.158294 
L 267.171192 203.249034 
L 267.293059 203.341197 
L 267.323526 203.341197 
L 267.414926 204.246379 
L 267.445393 204.142204 
L 267.597727 204.278574 
L 267.841462 204.296802 
L 268.846867 204.321993 
L 269.029668 205.383552 
L 269.090602 205.383552 
L 269.121069 205.510358 
L 269.212469 205.455595 
L 269.273403 205.535955 
L 269.334337 205.67395 
L 269.39527 205.535955 
L 269.578071 205.535955 
L 269.608538 205.966649 
L 269.669472 205.535955 
L 269.760872 205.620962 
L 269.88274 205.769586 
L 270.004607 205.684579 
L 270.035074 205.924596 
L 270.126474 205.775594 
L 270.217875 205.677615 
L 270.248342 205.957537 
L 270.278808 205.586601 
L 270.309275 205.586601 
L 270.461609 205.677116 
L 270.492076 206.089206 
L 270.55301 205.69482 
L 270.796744 205.767109 
L 270.827211 205.91026 
L 270.888145 205.718856 
L 271.010012 205.737083 
L 271.13188 205.86216 
L 271.192813 205.845929 
L 271.22328 206.118451 
L 271.314681 206.065757 
L 271.649816 206.065757 
L 271.680283 206.204287 
L 271.771683 206.166792 
L 271.832617 206.065757 
L 271.984951 206.587167 
L 272.259152 206.648326 
L 272.38102 206.831638 
L 272.502887 206.648326 
L 272.533354 206.747226 
L 272.563821 206.611661 
L 272.624754 206.703158 
L 272.685688 206.642969 
L 272.716155 206.747226 
L 273.812961 206.82362 
L 273.843428 206.885179 
L 273.934828 206.839851 
L 274.148096 206.839851 
L 274.239496 206.823158 
L 274.269963 207.182051 
L 274.330897 206.83428 
L 275.275369 206.83428 
L 275.397236 207.235247 
L 275.45817 207.243978 
L 275.610504 207.413843 
L 275.671437 207.413843 
L 275.823771 207.797219 
L 276.006572 207.773375 
L 276.280774 207.86439 
L 276.402641 207.86439 
L 276.524509 207.773375 
L 277.042445 207.840823 
L 277.164312 207.957406 
L 277.194779 207.957406 
L 277.225246 208.078627 
L 277.286179 207.964623 
L 277.712715 208.041618 
L 278.078317 208.418135 
L 278.474386 208.484255 
L 278.596253 208.630314 
L 278.809521 208.649346 
L 278.839988 208.941989 
L 278.870455 208.605948 
L 278.900921 208.654194 
L 278.931388 208.597058 
L 279.022789 208.654194 
L 280.637531 208.709388 
L 280.667998 208.871057 
L 280.759398 208.788828 
L 280.850799 208.721181 
L 280.881265 208.760833 
L 281.673403 208.950319 
L 281.79527 208.833368 
L 281.856204 208.959334 
L 281.886671 208.833368 
L 283.775614 208.943979 
L 283.927948 209.069549 
L 284.445885 209.068809 
L 284.567752 208.943979 
L 284.841953 208.951601 
L 284.963821 209.396903 
L 285.055221 209.396903 
L 285.177088 209.513596 
L 285.238022 209.425483 
L 285.268489 209.513596 
L 285.298956 209.513596 
L 285.45129 209.756517 
L 285.481757 209.852003 
L 285.573157 209.776224 
L 285.634091 209.776224 
L 285.695025 210.042988 
L 285.755958 209.866829 
L 286.03016 209.962314 
L 286.212961 210.005744 
L 286.426229 209.951954 
L 286.578563 210.004613 
L 286.609029 210.10398 
L 286.669963 209.943327 
L 286.944165 209.989914 
L 287.523034 210.137182 
L 288.040971 210.036148 
L 288.223771 209.946461 
L 288.254238 210.000204 
L 288.345639 209.946461 
L 288.924509 210.036043 
L 289.046376 210.173094 
L 289.076843 210.036043 
L 289.137776 210.086635 
L 289.259644 210.12513 
L 290.051781 210.165109 
L 290.082248 210.302159 
L 290.173649 210.230174 
L 290.325983 210.165109 
L 290.35645 210.218852 
L 290.386916 210.266143 
L 290.44785 210.178836 
L 290.904853 210.233434 
L 290.935319 210.337146 
L 291.02672 210.273906 
L 291.11812 210.165109 
L 291.148587 210.218852 
L 291.270455 210.477477 
L 291.300921 210.370484 
L 291.422789 210.302159 
L 292.062592 210.398491 
L 292.214926 210.448834 
L 292.915663 210.382672 
L 292.94613 210.613282 
L 293.007064 210.368097 
L 293.037531 210.458314 
L 294.926474 210.56574 
L 295.048342 210.619484 
L 295.200676 210.56456 
L 295.35301 210.619484 
L 295.413943 210.566151 
L 295.474877 210.609861 
L 295.810012 210.621074 
L 296.358415 210.694368 
L 296.510749 210.749368 
L 296.876351 210.694368 
L 296.998219 210.989302 
L 297.150553 210.828973 
L 297.455221 210.893198 
L 297.577088 210.893198 
L 297.607555 210.769254 
L 297.638022 210.910259 
L 297.668489 211.065236 
L 297.759889 211.001011 
L 298.186425 211.003039 
L 298.247359 211.208392 
L 298.277826 211.039701 
L 298.43016 211.003039 
L 298.612961 211.057382 
L 298.734828 211.611802 
L 298.795762 211.611802 
L 298.917629 211.735077 
L 299.983968 211.821371 
L 300.075369 212.005562 
L 300.136302 211.986402 
L 301.111241 212.190247 
L 301.233108 212.261517 
L 301.751044 212.305651 
L 301.872912 212.349346 
L 302.543182 212.424106 
L 302.665049 212.464367 
L 303.365786 212.56247 
L 303.609521 212.579435 
L 303.639988 212.560711 
L 303.670455 212.741427 
L 303.731388 212.566297 
L 304.310258 212.538973 
L 304.919595 212.538973 
L 304.950061 212.696582 
L 305.010995 212.538973 
L 305.224263 212.551103 
L 305.25473 212.749643 
L 305.34613 212.71847 
L 305.407064 212.538973 
L 305.467998 212.585698 
L 307.021806 212.593994 
L 307.052273 212.86572 
L 307.113206 212.593994 
L 307.204607 212.615732 
L 307.326474 212.720776 
L 307.813943 212.825463 
L 308.149079 212.826141 
L 308.606081 212.651681 
L 308.697482 212.808358 
L 308.727948 212.793707 
L 309.337285 213.006039 
L 309.459152 212.960316 
L 309.641953 213.038826 
L 311.073894 213.085644 
L 311.134828 213.152668 
L 311.195762 213.097635 
L 311.256695 213.279322 
L 311.378563 213.151405 
L 311.530897 213.124385 
L 311.713698 213.140437 
L 311.957432 213.124385 
L 312.566769 213.124385 
L 312.65817 213.303882 
L 312.719103 213.140672 
L 312.780037 213.244248 
L 312.871437 213.182384 
L 312.962838 213.127351 
L 312.993305 213.183684 
L 313.084705 213.127351 
L 313.206572 213.27631 
L 313.480774 213.321093 
L 313.511241 213.39992 
L 313.541708 213.27631 
L 313.572174 213.291305 
L 313.785442 213.298047 
L 314.303378 213.27631 
L 314.394779 213.548035 
L 314.455713 213.289621 
L 314.516646 213.302364 
L 315.369717 213.313042 
L 315.491585 213.477544 
L 315.643919 213.542192 
L 315.82672 213.708481 
L 315.91812 213.773128 
L 315.948587 213.846625 
L 316.009521 213.708481 
L 316.953993 213.764824 
L 317.07586 214.036549 
L 317.228194 214.036549 
L 317.350061 214.281442 
L 319.939742 214.293796 
L 320.000676 214.397373 
L 320.061609 214.329564 
L 320.213943 214.299741 
L 320.24441 214.293796 
L 320.274877 214.567831 
L 320.335811 214.320028 
L 320.488145 214.403362 
L 320.610012 214.590959 
L 320.640479 214.457037 
L 320.73188 214.403362 
L 320.762346 214.472032 
L 320.792813 214.529829 
L 320.82328 214.403362 
L 320.884214 214.472032 
L 321.554484 214.581553 
L 321.767752 214.603538 
L 321.950553 214.588344 
L 322.07242 214.798545 
L 323.047359 214.865541 
L 323.169226 214.971186 
L 323.473894 215.034045 
L 323.595762 215.043409 
L 323.778563 215.492238 
L 323.869963 215.215765 
L 323.90043 215.338372 
L 324.022297 215.48319 
L 324.144165 215.502214 
L 324.601167 215.586479 
L 324.753501 215.625824 
L 324.875369 215.626591 
L 325.484705 215.622706 
L 325.545639 215.755029 
L 325.576106 215.586479 
L 325.667506 215.586479 
L 325.697973 215.712945 
L 325.758907 215.599222 
L 326.39871 215.609283 
L 326.429177 215.7204 
L 326.459644 215.586479 
L 326.490111 215.586479 
L 327.190848 215.623743 
L 327.221314 215.776151 
L 327.282248 215.661961 
L 327.404115 215.626385 
L 327.434582 215.74784 
L 327.495516 215.690958 
L 327.64785 215.623743 
L 327.739251 215.623743 
L 327.861118 215.867616 
L 328.013452 215.623743 
L 328.257187 215.65997 
L 328.714189 215.623743 
L 328.775123 215.791854 
L 328.80559 215.623743 
L 329.201658 215.732763 
L 329.445393 215.792294 
L 329.841462 215.899085 
L 329.963329 216.061958 
L 331.97414 216.099926 
L 332.126474 216.242894 
L 332.248342 216.292944 
L 332.278808 216.438494 
L 332.309275 216.242894 
L 332.339742 216.242894 
L 332.705344 216.400839 
L 332.796744 216.242894 
L 332.827211 216.288541 
L 332.857678 216.242894 
L 332.888145 216.355935 
L 332.918612 216.355935 
L 333.040479 216.242894 
L 333.162346 216.355935 
L 333.649816 216.403265 
L 333.741216 216.486145 
L 333.771683 216.473299 
L 333.863084 216.486721 
L 333.984951 216.382326 
L 334.259152 216.443275 
L 334.38102 216.44062 
L 334.502887 216.44062 
L 334.624754 216.59289 
L 335.112224 216.700938 
L 335.264558 216.870452 
L 335.295025 216.700938 
L 335.63016 216.723743 
L 335.752027 216.95246 
L 335.843428 216.95246 
L 335.965295 217.105451 
L 336.452764 217.105451 
L 336.605098 217.462241 
L 336.940233 217.575441 
L 337.153501 217.705651 
L 337.275369 217.77781 
L 337.488636 217.874846 
L 337.610504 217.961898 
L 337.854238 218.018324 
L 337.945639 218.085295 
L 338.067506 217.988693 
L 338.554975 217.983952 
L 338.676843 218.107349 
L 338.829177 218.123511 
L 338.951044 218.232985 
L 341.022789 218.332028 
L 341.083722 218.298925 
L 341.20559 218.505809 
L 341.723526 218.568254 
L 341.753993 218.644265 
L 341.814926 218.568254 
L 342.576597 218.510155 
L 342.667998 218.4308 
L 342.698464 218.467027 
L 342.850799 218.569833 
L 342.972666 218.514553 
L 343.125 218.551919 
L 343.155467 218.55078 
L 343.185934 218.66144 
L 343.246867 218.55078 
L 343.429668 218.415759 
L 343.673403 218.47192 
L 343.734337 218.58258 
L 343.764803 218.724274 
L 343.825737 218.58258 
L 344.008538 218.498826 
L 344.130405 218.388167 
L 344.252273 218.498826 
L 344.496007 218.496073 
L 345.684214 218.594335 
L 345.745147 218.609398 
L 345.806081 218.796756 
L 345.867015 218.766585 
L 346.232617 218.781648 
L 346.506818 218.777194 
L 346.506818 218.777194 
" clip-path="url(#pe671c9de1a)" style="fill: none; stroke: #1f77b4; stroke-width: 1.5; stroke-linecap: square"/>
   </g>
   <g id="patch_3">
    <path d="M 26.925 228.96 
L 26.925 7.2 
" style="fill: none; stroke: #000000; stroke-width: 0.8; stroke-linejoin: miter; stroke-linecap: square"/>
   </g>
   <g id="patch_4">
    <path d="M 361.725 228.96 
L 361.725 7.2 
" style="fill: none; stroke: #000000; stroke-width: 0.8; stroke-linejoin: miter; stroke-linecap: square"/>
   </g>
   <g id="patch_5">
    <path d="M 26.925 228.96 
L 361.725 228.96 
" style="fill: none; stroke: #000000; stroke-width: 0.8; stroke-linejoin: miter; stroke-linecap: square"/>
   </g>
   <g id="patch_6">
    <path d="M 26.925 7.2 
L 361.725 7.2 
" style="fill: none; stroke: #000000; stroke-width: 0.8; stroke-linejoin: miter; stroke-linecap: square"/>
   </g>
  </g>
 </g>
 <defs>
  <clipPath id="pe671c9de1a">
   <rect x="26.925" y="7.2" width="334.8" height="221.76"/>
  </clipPath>
 </defs>
</svg>
