<?xml version="1.0" encoding="utf-8" standalone="no"?>
<!DOCTYPE svg PUBLIC "-//W3C//DTD SVG 1.1//EN"
  "http://www.w3.org/Graphics/SVG/1.1/DTD/svg11.dtd">
<svg xmlns:xlink="http://www.w3.org/1999/xlink" width="368.925pt" height="252.838125pt" viewBox="0 0 368.925 252.838125" xmlns="http://www.w3.org/2000/svg" version="1.1">
 <metadata>
  <rdf:RDF xmlns:dc="http://purl.org/dc/elements/1.1/" xmlns:cc="http://creativecommons.org/ns#" xmlns:rdf="http://www.w3.org/1999/02/22-rdf-syntax-ns#">
   <cc:Work>
    <dc:type rdf:resource="http://purl.org/dc/dcmitype/StillImage"/>
    <dc:date>2023-04-19T17:34:09.859598</dc:date>
    <dc:format>image/svg+xml</dc:format>
    <dc:creator>
     <cc:Agent>
      <dc:title>Matplotlib v3.6.2, https://matplotlib.org/</dc:title>
     </cc:Agent>
    </dc:creator>
   </cc:Work>
  </rdf:RDF>
 </metadata>
 <defs>
  <style type="text/css">*{stroke-linejoin: round; stroke-linecap: butt}</style>
 </defs>
 <g id="figure_1">
  <g id="patch_1">
   <path d="M -0 252.838125 
L 368.925 252.838125 
L 368.925 0 
L -0 0 
z
" style="fill: #ffffff"/>
  </g>
  <g id="axes_1">
   <g id="patch_2">
    <path d="M 26.925 228.96 
L 361.725 228.96 
L 361.725 7.2 
L 26.925 7.2 
z
" style="fill: #ffffff"/>
   </g>
   <g id="matplotlib.axis_1">
    <g id="xtick_1">
     <g id="line2d_1">
      <defs>
       <path id="m799622d2f8" d="M 0 0 
L 0 3.5 
" style="stroke: #000000; stroke-width: 0.8"/>
      </defs>
      <g>
       <use xlink:href="#m799622d2f8" x="42.143182" y="228.96" style="stroke: #000000; stroke-width: 0.8"/>
      </g>
     </g>
     <g id="text_1">
      <!-- 0 -->
      <g transform="translate(38.961932 243.558437) scale(0.1 -0.1)">
       <defs>
        <path id="DejaVuSans-30" d="M 2034 4250 
Q 1547 4250 1301 3770 
Q 1056 3291 1056 2328 
Q 1056 1369 1301 889 
Q 1547 409 2034 409 
Q 2525 409 2770 889 
Q 3016 1369 3016 2328 
Q 3016 3291 2770 3770 
Q 2525 4250 2034 4250 
z
M 2034 4750 
Q 2819 4750 3233 4129 
Q 3647 3509 3647 2328 
Q 3647 1150 3233 529 
Q 2819 -91 2034 -91 
Q 1250 -91 836 529 
Q 422 1150 422 2328 
Q 422 3509 836 4129 
Q 1250 4750 2034 4750 
z
" transform="scale(0.015625)"/>
       </defs>
       <use xlink:href="#DejaVuSans-30"/>
      </g>
     </g>
    </g>
    <g id="xtick_2">
     <g id="line2d_2">
      <g>
       <use xlink:href="#m799622d2f8" x="106.219737" y="228.96" style="stroke: #000000; stroke-width: 0.8"/>
      </g>
     </g>
     <g id="text_2">
      <!-- 2000 -->
      <g transform="translate(93.494737 243.558437) scale(0.1 -0.1)">
       <defs>
        <path id="DejaVuSans-32" d="M 1228 531 
L 3431 531 
L 3431 0 
L 469 0 
L 469 531 
Q 828 903 1448 1529 
Q 2069 2156 2228 2338 
Q 2531 2678 2651 2914 
Q 2772 3150 2772 3378 
Q 2772 3750 2511 3984 
Q 2250 4219 1831 4219 
Q 1534 4219 1204 4116 
Q 875 4013 500 3803 
L 500 4441 
Q 881 4594 1212 4672 
Q 1544 4750 1819 4750 
Q 2544 4750 2975 4387 
Q 3406 4025 3406 3419 
Q 3406 3131 3298 2873 
Q 3191 2616 2906 2266 
Q 2828 2175 2409 1742 
Q 1991 1309 1228 531 
z
" transform="scale(0.015625)"/>
       </defs>
       <use xlink:href="#DejaVuSans-32"/>
       <use xlink:href="#DejaVuSans-30" x="63.623047"/>
       <use xlink:href="#DejaVuSans-30" x="127.246094"/>
       <use xlink:href="#DejaVuSans-30" x="190.869141"/>
      </g>
     </g>
    </g>
    <g id="xtick_3">
     <g id="line2d_3">
      <g>
       <use xlink:href="#m799622d2f8" x="170.296292" y="228.96" style="stroke: #000000; stroke-width: 0.8"/>
      </g>
     </g>
     <g id="text_3">
      <!-- 4000 -->
      <g transform="translate(157.571292 243.558437) scale(0.1 -0.1)">
       <defs>
        <path id="DejaVuSans-34" d="M 2419 4116 
L 825 1625 
L 2419 1625 
L 2419 4116 
z
M 2253 4666 
L 3047 4666 
L 3047 1625 
L 3713 1625 
L 3713 1100 
L 3047 1100 
L 3047 0 
L 2419 0 
L 2419 1100 
L 313 1100 
L 313 1709 
L 2253 4666 
z
" transform="scale(0.015625)"/>
       </defs>
       <use xlink:href="#DejaVuSans-34"/>
       <use xlink:href="#DejaVuSans-30" x="63.623047"/>
       <use xlink:href="#DejaVuSans-30" x="127.246094"/>
       <use xlink:href="#DejaVuSans-30" x="190.869141"/>
      </g>
     </g>
    </g>
    <g id="xtick_4">
     <g id="line2d_4">
      <g>
       <use xlink:href="#m799622d2f8" x="234.372847" y="228.96" style="stroke: #000000; stroke-width: 0.8"/>
      </g>
     </g>
     <g id="text_4">
      <!-- 6000 -->
      <g transform="translate(221.647847 243.558437) scale(0.1 -0.1)">
       <defs>
        <path id="DejaVuSans-36" d="M 2113 2584 
Q 1688 2584 1439 2293 
Q 1191 2003 1191 1497 
Q 1191 994 1439 701 
Q 1688 409 2113 409 
Q 2538 409 2786 701 
Q 3034 994 3034 1497 
Q 3034 2003 2786 2293 
Q 2538 2584 2113 2584 
z
M 3366 4563 
L 3366 3988 
Q 3128 4100 2886 4159 
Q 2644 4219 2406 4219 
Q 1781 4219 1451 3797 
Q 1122 3375 1075 2522 
Q 1259 2794 1537 2939 
Q 1816 3084 2150 3084 
Q 2853 3084 3261 2657 
Q 3669 2231 3669 1497 
Q 3669 778 3244 343 
Q 2819 -91 2113 -91 
Q 1303 -91 875 529 
Q 447 1150 447 2328 
Q 447 3434 972 4092 
Q 1497 4750 2381 4750 
Q 2619 4750 2861 4703 
Q 3103 4656 3366 4563 
z
" transform="scale(0.015625)"/>
       </defs>
       <use xlink:href="#DejaVuSans-36"/>
       <use xlink:href="#DejaVuSans-30" x="63.623047"/>
       <use xlink:href="#DejaVuSans-30" x="127.246094"/>
       <use xlink:href="#DejaVuSans-30" x="190.869141"/>
      </g>
     </g>
    </g>
    <g id="xtick_5">
     <g id="line2d_5">
      <g>
       <use xlink:href="#m799622d2f8" x="298.449402" y="228.96" style="stroke: #000000; stroke-width: 0.8"/>
      </g>
     </g>
     <g id="text_5">
      <!-- 8000 -->
      <g transform="translate(285.724402 243.558437) scale(0.1 -0.1)">
       <defs>
        <path id="DejaVuSans-38" d="M 2034 2216 
Q 1584 2216 1326 1975 
Q 1069 1734 1069 1313 
Q 1069 891 1326 650 
Q 1584 409 2034 409 
Q 2484 409 2743 651 
Q 3003 894 3003 1313 
Q 3003 1734 2745 1975 
Q 2488 2216 2034 2216 
z
M 1403 2484 
Q 997 2584 770 2862 
Q 544 3141 544 3541 
Q 544 4100 942 4425 
Q 1341 4750 2034 4750 
Q 2731 4750 3128 4425 
Q 3525 4100 3525 3541 
Q 3525 3141 3298 2862 
Q 3072 2584 2669 2484 
Q 3125 2378 3379 2068 
Q 3634 1759 3634 1313 
Q 3634 634 3220 271 
Q 2806 -91 2034 -91 
Q 1263 -91 848 271 
Q 434 634 434 1313 
Q 434 1759 690 2068 
Q 947 2378 1403 2484 
z
M 1172 3481 
Q 1172 3119 1398 2916 
Q 1625 2713 2034 2713 
Q 2441 2713 2670 2916 
Q 2900 3119 2900 3481 
Q 2900 3844 2670 4047 
Q 2441 4250 2034 4250 
Q 1625 4250 1398 4047 
Q 1172 3844 1172 3481 
z
" transform="scale(0.015625)"/>
       </defs>
       <use xlink:href="#DejaVuSans-38"/>
       <use xlink:href="#DejaVuSans-30" x="63.623047"/>
       <use xlink:href="#DejaVuSans-30" x="127.246094"/>
       <use xlink:href="#DejaVuSans-30" x="190.869141"/>
      </g>
     </g>
    </g>
   </g>
   <g id="matplotlib.axis_2">
    <g id="ytick_1">
     <g id="line2d_6">
      <defs>
       <path id="me1f998bf66" d="M 0 0 
L -3.5 0 
" style="stroke: #000000; stroke-width: 0.8"/>
      </defs>
      <g>
       <use xlink:href="#me1f998bf66" x="26.925" y="210.69398" style="stroke: #000000; stroke-width: 0.8"/>
      </g>
     </g>
     <g id="text_6">
      <!-- 40 -->
      <g transform="translate(7.2 214.493199) scale(0.1 -0.1)">
       <use xlink:href="#DejaVuSans-34"/>
       <use xlink:href="#DejaVuSans-30" x="63.623047"/>
      </g>
     </g>
    </g>
    <g id="ytick_2">
     <g id="line2d_7">
      <g>
       <use xlink:href="#me1f998bf66" x="26.925" y="164.410959" style="stroke: #000000; stroke-width: 0.8"/>
      </g>
     </g>
     <g id="text_7">
      <!-- 45 -->
      <g transform="translate(7.2 168.210178) scale(0.1 -0.1)">
       <defs>
        <path id="DejaVuSans-35" d="M 691 4666 
L 3169 4666 
L 3169 4134 
L 1269 4134 
L 1269 2991 
Q 1406 3038 1543 3061 
Q 1681 3084 1819 3084 
Q 2600 3084 3056 2656 
Q 3513 2228 3513 1497 
Q 3513 744 3044 326 
Q 2575 -91 1722 -91 
Q 1428 -91 1123 -41 
Q 819 9 494 109 
L 494 744 
Q 775 591 1075 516 
Q 1375 441 1709 441 
Q 2250 441 2565 725 
Q 2881 1009 2881 1497 
Q 2881 1984 2565 2268 
Q 2250 2553 1709 2553 
Q 1456 2553 1204 2497 
Q 953 2441 691 2322 
L 691 4666 
z
" transform="scale(0.015625)"/>
       </defs>
       <use xlink:href="#DejaVuSans-34"/>
       <use xlink:href="#DejaVuSans-35" x="63.623047"/>
      </g>
     </g>
    </g>
    <g id="ytick_3">
     <g id="line2d_8">
      <g>
       <use xlink:href="#me1f998bf66" x="26.925" y="118.127937" style="stroke: #000000; stroke-width: 0.8"/>
      </g>
     </g>
     <g id="text_8">
      <!-- 50 -->
      <g transform="translate(7.2 121.927156) scale(0.1 -0.1)">
       <use xlink:href="#DejaVuSans-35"/>
       <use xlink:href="#DejaVuSans-30" x="63.623047"/>
      </g>
     </g>
    </g>
    <g id="ytick_4">
     <g id="line2d_9">
      <g>
       <use xlink:href="#me1f998bf66" x="26.925" y="71.844916" style="stroke: #000000; stroke-width: 0.8"/>
      </g>
     </g>
     <g id="text_9">
      <!-- 55 -->
      <g transform="translate(7.2 75.644135) scale(0.1 -0.1)">
       <use xlink:href="#DejaVuSans-35"/>
       <use xlink:href="#DejaVuSans-35" x="63.623047"/>
      </g>
     </g>
    </g>
    <g id="ytick_5">
     <g id="line2d_10">
      <g>
       <use xlink:href="#me1f998bf66" x="26.925" y="25.561894" style="stroke: #000000; stroke-width: 0.8"/>
      </g>
     </g>
     <g id="text_10">
      <!-- 60 -->
      <g transform="translate(7.2 29.361113) scale(0.1 -0.1)">
       <use xlink:href="#DejaVuSans-36"/>
       <use xlink:href="#DejaVuSans-30" x="63.623047"/>
      </g>
     </g>
    </g>
   </g>
   <g id="line2d_11">
    <path d="M 42.143182 17.28 
L 42.36745 17.28 
L 42.527641 17.841288 
L 42.623756 17.841288 
L 42.751909 17.980965 
L 42.783947 17.965695 
L 42.848024 18.363764 
L 42.9121 18.314926 
L 43.328598 18.794883 
L 43.360636 18.794883 
L 43.488789 19.531175 
L 43.552866 19.531175 
L 43.584904 19.682963 
L 43.648981 19.531175 
L 43.681019 19.531175 
L 43.777134 19.831216 
L 43.841211 19.745508 
L 43.937325 19.815796 
L 44.001402 19.878517 
L 44.03344 19.718386 
L 44.065478 19.84709 
L 44.22567 20.248633 
L 44.385861 20.248633 
L 44.514014 20.637133 
L 44.578091 20.637133 
L 44.706244 21.011597 
L 44.834397 20.818289 
L 44.994589 20.818289 
L 45.122742 21.011597 
L 45.282933 21.032622 
L 45.411086 22.014682 
L 45.539239 22.188674 
L 45.667392 22.014682 
L 45.699431 22.167649 
L 45.731469 22.014682 
L 45.859622 23.39365 
L 45.923699 23.561292 
L 46.019813 23.39365 
L 46.051852 23.39365 
L 46.244081 24.548119 
L 46.372234 24.353075 
L 46.404273 24.353075 
L 46.436311 24.569144 
L 46.532426 24.539882 
L 46.628541 24.353075 
L 46.660579 24.543394 
L 46.756694 24.543394 
L 46.788732 24.354852 
L 46.852809 24.543394 
L 46.916885 24.54517 
L 47.077077 24.923947 
L 47.141153 24.685428 
L 47.20523 24.703525 
L 47.237268 24.683652 
L 47.333383 24.810365 
L 47.397459 24.923947 
L 47.429498 24.683652 
L 47.525612 25.155528 
L 47.653766 24.683652 
L 47.685804 24.683652 
L 47.845995 25.518774 
L 47.878033 24.85658 
L 47.974148 24.946372 
L 48.070263 24.923947 
L 48.294531 26.071267 
L 48.486761 26.071267 
L 48.614914 26.697414 
L 48.743067 27.298271 
L 48.775105 27.125343 
L 48.903258 29.554335 
L 49.031411 29.972298 
L 49.159565 29.727263 
L 49.415871 29.727263 
L 49.479947 30.278642 
L 49.544024 30.065601 
L 49.6081 30.026171 
L 49.704215 30.346993 
L 49.736254 30.318071 
L 49.99256 30.390403 
L 50.152751 30.706593 
L 50.280904 30.20751 
L 50.312943 30.278642 
L 50.344981 29.729016 
L 50.409057 30.095162 
L 50.825555 31.363624 
L 50.857593 31.363624 
L 51.017785 30.89554 
L 51.177976 31.61258 
L 51.210014 31.592622 
L 51.370206 32.112595 
L 51.402244 31.975399 
L 51.466321 32.439003 
L 51.530397 32.399574 
L 51.562435 32.430392 
L 51.722627 33.590908 
L 51.754665 33.590908 
L 51.978933 35.157663 
L 52.139124 35.157663 
L 52.299316 35.472184 
L 52.395431 35.368667 
L 52.523584 35.89837 
L 52.555622 35.903315 
L 52.58766 35.489354 
L 52.619699 36.012663 
L 52.747852 36.290298 
L 52.876005 36.290298 
L 52.940081 36.850496 
L 52.97212 36.290298 
L 53.164349 36.732736 
L 53.196388 36.732736 
L 53.292502 36.94374 
L 53.324541 36.732736 
L 53.356579 37.364095 
L 53.420656 36.94374 
L 53.452694 36.94374 
L 53.548809 37.815052 
L 53.580847 37.30096 
L 53.709 37.364095 
L 53.869191 39.459392 
L 53.933268 39.459392 
L 53.965306 39.670396 
L 54.061421 39.599235 
L 54.125498 39.670396 
L 54.157536 39.599235 
L 54.285689 39.599235 
L 54.317727 40.616818 
L 54.381804 40.414059 
L 54.413842 40.006183 
L 54.477919 40.49264 
L 54.541995 40.006183 
L 54.606072 40.297852 
L 54.63811 40.369013 
L 54.670148 40.006183 
L 54.734225 40.297852 
L 54.766263 40.297852 
L 54.894416 40.616818 
L 54.958493 40.705727 
L 55.086646 41.04339 
L 55.439067 41.073154 
L 55.56722 41.585102 
L 56.079833 41.585102 
L 56.143909 41.704667 
L 56.175947 41.617757 
L 56.3041 41.585102 
L 56.336139 41.674903 
L 56.432254 41.617757 
L 56.592445 41.588352 
L 56.656522 41.588352 
L 56.784675 41.707917 
L 56.816713 41.707917 
L 56.944866 41.588352 
L 57.040981 41.650125 
L 57.105057 41.953471 
L 57.169134 41.713218 
L 57.233211 41.619683 
L 57.361364 42.518811 
L 57.457478 42.169798 
L 57.745823 43.378596 
L 57.777861 43.378596 
L 57.841938 44.034123 
L 57.873976 43.742148 
L 57.906014 43.409039 
L 57.970091 43.711913 
L 58.002129 43.897915 
L 58.066206 43.711913 
L 58.226397 43.791576 
L 58.258435 43.824232 
L 58.322512 44.165186 
L 58.35455 43.844421 
L 58.386589 43.857678 
L 58.482703 44.360193 
L 58.54678 43.910446 
L 58.578818 44.360193 
L 58.835124 44.470591 
L 58.963278 44.552797 
L 59.155507 45.570293 
L 59.28366 44.872905 
L 59.443852 44.908038 
L 59.539967 44.887859 
L 59.636081 45.397075 
L 59.700158 44.823669 
L 59.764234 44.849269 
L 59.828311 45.177166 
L 59.892388 45.153721 
L 60.020541 45.186377 
L 60.052579 45.975187 
L 60.116656 45.287252 
L 60.148694 45.287252 
L 60.276847 44.983669 
L 60.405 45.398737 
L 60.533153 47.42749 
L 60.565191 47.42749 
L 60.661306 48.26545 
L 60.693344 48.092708 
L 60.789459 48.26545 
L 60.821498 48.092708 
L 60.885574 48.111129 
L 61.237995 48.78134 
L 61.270033 48.850573 
L 61.302072 48.733841 
L 61.33411 48.733841 
L 61.366148 48.503452 
L 61.430225 48.58871 
L 61.52634 48.742717 
L 61.654493 48.604254 
L 61.878761 48.68467 
L 62.038952 48.975996 
L 62.103029 48.867148 
L 62.167105 49.300708 
L 62.199144 48.867148 
L 62.231182 49.054567 
L 62.327297 50.125068 
L 62.359335 50.001639 
L 62.487488 50.001639 
L 62.679718 50.487083 
L 62.743794 50.131278 
L 62.807871 50.297905 
L 62.903986 50.279333 
L 63.032139 50.95503 
L 63.064177 50.352434 
L 63.128254 50.474028 
L 63.256407 51.361976 
L 63.288445 51.045768 
L 63.480675 51.104197 
L 63.608828 51.836412 
L 63.833096 51.836412 
L 63.865134 52.280862 
L 63.929211 51.80727 
L 64.025325 51.878449 
L 64.057364 52.722992 
L 64.153478 52.477144 
L 64.345708 52.477144 
L 64.537938 52.866428 
L 64.602014 52.866428 
L 64.666091 53.272352 
L 64.730167 53.010505 
L 64.890359 52.660841 
L 64.794244 53.053847 
L 64.922397 52.676888 
L 65.05055 52.735317 
L 65.082589 53.503345 
L 65.146665 52.762707 
L 65.274818 52.614021 
L 65.306856 52.614021 
L 65.402971 53.292989 
L 65.43501 53.233363 
L 65.563163 53.30668 
L 65.723354 54.3076 
L 65.755392 54.3076 
L 66.203928 57.761031 
L 66.235967 57.761031 
L 66.268005 58.162062 
L 66.332081 57.761031 
L 66.36412 57.761031 
L 66.396158 57.912773 
L 66.492273 57.831636 
L 66.524311 57.831636 
L 66.556349 58.400114 
L 66.620426 58.097 
L 66.684502 58.097 
L 66.812656 60.908245 
L 66.940809 60.955866 
L 67.068962 62.059769 
L 67.165077 62.065165 
L 67.229153 63.340909 
L 67.29323 63.280169 
L 67.325268 63.280169 
L 67.357306 63.999485 
L 67.421383 63.280169 
L 67.549536 63.496892 
L 67.581574 63.441496 
L 67.613612 63.986979 
L 67.677689 63.586691 
L 67.709727 63.586691 
L 67.869919 63.279596 
L 67.901957 63.367058 
L 68.062148 64.340287 
L 68.190301 64.427749 
L 68.254378 64.589076 
L 68.286416 64.427749 
L 68.382531 64.415242 
L 68.478646 64.186665 
L 68.510684 64.488489 
L 68.574761 64.411626 
L 68.606799 64.247405 
L 68.638837 64.466727 
L 68.670876 64.466727 
L 68.702914 64.544714 
L 68.76699 64.4283 
L 68.927182 64.468584 
L 69.055335 65.223739 
L 69.119411 65.282168 
L 69.311641 65.632253 
L 69.439794 65.325158 
L 69.535909 65.409682 
L 69.599986 65.805029 
L 69.632024 65.409682 
L 69.728139 65.51811 
L 69.760177 65.899309 
L 69.824254 65.51811 
L 69.856292 65.603936 
L 69.984445 66.116492 
L 70.112598 66.271413 
L 70.240751 66.271413 
L 70.465019 67.117008 
L 70.593172 66.627381 
L 70.881517 67.705587 
L 71.00967 67.325749 
L 71.041708 67.535793 
L 71.073746 67.325749 
L 71.169861 67.19296 
L 71.2019 67.424103 
L 71.265976 67.228698 
L 71.554321 67.535793 
L 71.586359 67.500056 
L 71.650435 67.19296 
L 71.682474 67.723751 
L 71.778589 67.705587 
L 71.810627 67.705587 
L 71.93878 68.240126 
L 71.970818 67.687663 
L 72.034895 67.975245 
L 72.259163 69.134879 
L 72.291201 68.064884 
L 72.387316 68.120054 
L 72.515469 68.120054 
L 72.547507 68.650844 
L 72.643622 68.630055 
L 72.707699 68.630055 
L 72.803813 68.796912 
L 72.835852 68.710662 
L 72.931967 68.690794 
L 73.092158 69.160845 
L 73.124196 69.184583 
L 73.188273 68.731473 
L 73.252349 68.796912 
L 73.444579 69.585499 
L 73.476617 69.585499 
L 73.572732 69.933721 
L 73.60477 69.876241 
L 73.700885 69.876241 
L 73.829038 70.054815 
L 73.861077 70.054815 
L 74.021268 70.4776 
L 74.117383 70.447334 
L 74.341651 71.239459 
L 74.373689 71.072601 
L 74.405727 71.484749 
L 74.469804 71.273344 
L 74.662033 71.273344 
L 74.758148 72.122324 
L 74.790187 71.92783 
L 74.91834 71.921582 
L 75.078531 72.33373 
L 75.110569 72.122324 
L 75.142608 72.183064 
L 75.302799 72.835681 
L 75.398914 72.835681 
L 75.559105 73.083569 
L 75.815411 73.083569 
L 75.911526 73.692007 
L 75.943565 73.495142 
L 76.007641 73.495142 
L 76.135794 74.941474 
L 76.199871 74.911209 
L 76.263947 75.003769 
L 76.295986 74.911209 
L 76.360062 74.830031 
L 76.488215 74.773328 
L 76.616368 74.941474 
L 76.744522 75.835459 
L 76.840636 75.938958 
L 76.936751 75.982681 
L 77.000828 76.480943 
L 77.064904 76.361387 
L 77.096943 76.361387 
L 77.128981 76.245905 
L 77.161019 76.392369 
L 77.193057 76.333498 
L 77.385287 76.373305 
L 77.481402 76.361387 
L 77.545478 76.393127 
L 77.609555 76.257823 
L 77.833823 76.353543 
L 77.961976 76.80224 
L 78.090129 76.80224 
L 78.154206 77.412026 
L 78.250321 77.176492 
L 78.282359 77.074037 
L 78.410512 77.938292 
L 78.44255 77.938292 
L 78.602742 77.632911 
L 78.666818 77.528993 
L 78.762933 77.953664 
L 78.955163 77.993513 
L 79.083316 78.085513 
L 79.115354 78.085513 
L 79.147392 78.200995 
L 79.179431 78.085513 
L 79.307584 79.444954 
L 79.435737 79.444954 
L 79.467775 79.591417 
L 79.499813 79.582254 
L 79.627967 79.313105 
L 79.692043 79.313105 
L 79.724081 79.459568 
L 79.788158 79.313105 
L 79.820196 79.313105 
L 79.852234 79.428586 
L 79.916311 79.331345 
L 80.044464 79.104288 
L 80.236694 79.38889 
L 80.30077 79.175165 
L 80.428923 79.557091 
L 80.589115 79.557091 
L 80.749306 79.819036 
L 80.941536 79.895496 
L 81.069689 80.420013 
L 81.101727 80.177729 
L 81.165804 80.420013 
L 81.390072 80.420013 
L 81.42211 81.022675 
L 81.518225 80.998054 
L 81.646378 80.80194 
L 81.710455 80.80194 
L 81.902684 81.317518 
L 81.966761 81.022675 
L 82.094914 81.76707 
L 82.35122 83.194335 
L 82.415297 83.221054 
L 82.447335 83.087533 
L 82.575488 84.053333 
L 82.863833 84.053333 
L 82.895871 83.85863 
L 82.927909 83.873199 
L 83.056062 84.168898 
L 83.248292 84.727197 
L 83.376445 84.362745 
L 83.408483 84.469547 
L 83.47256 84.41265 
L 83.504598 84.362745 
L 83.536636 84.469547 
L 83.568675 85.6257 
L 83.632751 84.469547 
L 84.049249 84.467621 
L 84.113325 84.656386 
L 84.177402 84.631507 
L 84.465746 85.085186 
L 84.5939 86.829882 
L 84.625938 87.099714 
L 84.690014 86.829882 
L 84.786129 86.986589 
L 84.850206 86.879787 
L 84.882244 86.879787 
L 84.914282 87.839035 
L 84.978359 86.879787 
L 85.042435 86.879787 
L 85.170589 88.179056 
L 85.555048 88.213354 
L 85.587086 88.899475 
L 85.651163 88.43495 
L 85.747278 88.474623 
L 85.843392 89.005111 
L 85.875431 88.856019 
L 85.907469 89.025002 
L 86.003584 88.972726 
L 86.06766 89.005111 
L 86.131737 89.473867 
L 86.163775 89.005111 
L 86.388043 89.005111 
L 86.516196 89.227561 
L 86.708426 89.227561 
L 86.900656 89.591323 
L 87.060847 89.557025 
L 87.189 89.292621 
L 87.317153 89.320322 
L 87.509383 90.062264 
L 87.573459 90.094648 
L 87.701612 89.651061 
L 87.733651 89.651061 
L 87.765689 90.558885 
L 87.861804 90.173434 
L 87.989957 89.651061 
L 88.726837 89.729317 
L 88.85499 90.347165 
L 88.983144 90.420139 
L 89.015182 91.28933 
L 89.04722 90.347165 
L 89.079258 90.516149 
L 89.207411 90.411274 
L 89.623909 90.516149 
L 89.752062 90.566439 
L 89.848177 90.820926 
L 89.97633 90.484398 
L 90.008368 90.815173 
L 90.072445 90.576106 
L 90.104483 90.576106 
L 90.264675 91.429953 
L 90.585057 91.429953 
L 90.713211 92.575457 
L 90.745249 91.687825 
L 90.777287 92.650817 
L 90.809325 92.650817 
L 90.969517 93.306787 
L 91.09767 92.784414 
L 91.386014 92.784414 
L 91.514167 93.306787 
L 91.610282 93.567485 
L 91.642321 93.527057 
L 91.738435 93.527057 
L 91.930665 94.150269 
L 91.962703 94.150269 
L 92.090856 95.280952 
L 92.667545 95.337786 
L 92.699584 95.44362 
L 92.827737 96.014994 
L 92.95589 96.061421 
L 93.084043 96.530094 
L 93.116081 96.463405 
L 93.180158 96.463405 
L 93.244234 96.736742 
L 93.276273 96.463405 
L 93.340349 96.463405 
L 93.404426 96.978504 
L 93.436464 96.957011 
L 93.468502 96.463405 
L 93.532579 96.703797 
L 93.564617 96.939031 
L 93.596656 96.664323 
L 93.628694 96.664323 
L 93.724809 96.64283 
L 93.820923 97.049674 
L 93.852962 96.863968 
L 93.917038 97.049674 
L 93.949077 96.917538 
L 94.07723 97.642393 
L 94.141306 97.862663 
L 94.205383 97.642393 
L 94.269459 97.642393 
L 94.397612 98.157493 
L 94.525766 98.157493 
L 94.653919 98.471713 
L 94.81411 98.377762 
L 94.910225 98.655364 
L 95.038378 98.499473 
L 95.454876 98.520966 
L 95.486914 99.064091 
L 95.518952 98.515332 
L 95.55099 98.515332 
L 95.615067 98.684381 
L 95.647105 98.644729 
L 95.679144 98.554984 
L 95.711182 98.676935 
L 95.74322 98.676935 
L 95.807297 98.685357 
L 95.93545 99.581241 
L 96.095641 99.679172 
L 96.223794 99.627668 
L 96.576215 99.627668 
L 96.67233 99.709982 
L 96.704368 99.663555 
L 96.832522 100.591101 
L 96.86456 100.429499 
L 96.896598 100.633115 
L 96.960675 100.46309 
L 97.024751 100.592899 
L 97.056789 100.46309 
L 97.249019 100.453939 
L 97.377172 102.669393 
L 97.697555 103.175209 
L 97.761632 103.222787 
L 97.953861 103.552109 
L 98.017938 103.552109 
L 98.146091 104.33493 
L 98.210167 103.598536 
L 98.274244 103.606768 
L 98.370359 103.598536 
L 98.562589 104.381357 
L 98.626665 104.33493 
L 98.690742 104.33493 
L 98.72278 104.497939 
L 98.786856 104.33493 
L 99.299469 104.355686 
L 99.363545 104.54691 
L 99.395584 104.403263 
L 99.45966 104.372899 
L 99.65189 105.076462 
L 99.715967 105.076462 
L 99.748005 105.217991 
L 99.84412 105.170413 
L 99.908196 105.187626 
L 99.972273 105.556795 
L 100.004311 105.096417 
L 100.132464 105.170413 
L 100.38877 105.170413 
L 100.516923 105.285158 
L 100.837306 105.302371 
L 100.965459 105.52118 
L 101.029536 105.52118 
L 101.221766 106.057219 
L 101.285842 105.853059 
L 101.31788 105.899486 
L 101.446033 106.041549 
L 101.670301 106.041549 
L 101.734378 107.051928 
L 101.766416 106.107122 
L 101.798455 106.122844 
L 101.830493 107.051928 
L 101.894569 106.957897 
L 102.022722 106.082996 
L 102.279029 106.107122 
L 102.343105 107.051928 
L 102.407182 106.822259 
L 102.43922 106.822259 
L 102.567373 107.093375 
L 102.663488 106.984603 
L 102.791641 107.093375 
L 103.144062 107.050177 
L 103.272215 107.260048 
L 103.432407 107.254337 
L 103.464445 108.105111 
L 103.528522 107.672963 
L 103.656675 107.389163 
L 103.752789 107.574685 
L 103.848904 107.386195 
L 103.977057 108.425459 
L 104.041134 107.493672 
L 104.105211 107.574685 
L 104.169287 107.47303 
L 104.29744 108.458631 
L 104.585785 108.381886 
L 104.617823 108.323804 
L 104.6819 108.417184 
L 104.842091 108.452831 
L 104.970244 108.347349 
L 105.034321 108.375342 
L 105.162474 108.504368 
L 105.194512 108.452831 
L 105.22655 108.504368 
L 105.258589 109.295161 
L 105.322665 108.504368 
L 105.386742 108.504368 
L 105.514895 108.99307 
L 105.546933 108.927885 
L 105.61101 108.869803 
L 105.675086 108.913376 
L 106.059545 108.979422 
L 106.411967 110.04738 
L 106.668273 110.113635 
L 106.796426 113.809138 
L 106.956617 113.809138 
L 107.020694 114.579935 
L 107.08477 114.463832 
L 107.116809 114.562185 
L 107.180885 114.463832 
L 107.212923 114.476702 
L 107.309038 114.655198 
L 107.437191 114.544905 
L 107.629421 114.494987 
L 108.270187 114.594297 
L 108.39834 115.365094 
L 108.430378 115.365094 
L 108.558531 115.547354 
L 108.590569 115.547354 
L 108.718722 115.317321 
L 108.750761 115.317321 
L 108.846876 115.60288 
L 108.910952 115.406632 
L 108.975029 115.477397 
L 109.103182 115.470664 
L 109.263373 115.849805 
L 109.32745 115.699146 
L 109.391526 115.728682 
L 110.544904 115.755201 
L 110.608981 116.211617 
L 110.673057 116.12558 
L 110.769172 115.740857 
L 110.801211 115.812051 
L 110.929364 115.839209 
L 111.025478 115.740857 
L 111.057517 115.755201 
L 111.249746 115.760603 
L 111.3779 116.211617 
L 111.506053 115.888795 
L 111.570129 116.359555 
L 111.634206 116.011153 
L 111.666244 115.895939 
L 111.698282 115.905961 
L 111.826435 116.323732 
L 111.858474 116.323732 
L 111.92255 116.185378 
L 111.986627 116.211617 
L 112.050703 116.211617 
L 112.178856 119.358945 
L 112.210895 119.358945 
L 112.339048 120.665714 
L 112.371086 120.665714 
L 112.499239 121.276072 
L 112.627392 121.374425 
L 112.755545 121.495669 
L 112.947775 122.546278 
L 113.011852 122.629968 
L 113.172043 123.920057 
L 113.300196 123.857484 
L 113.556502 123.891502 
L 113.684656 124.000516 
L 113.748732 124.432536 
L 113.812809 124.079055 
L 113.876885 124.057554 
L 113.973 124.342451 
L 114.005038 124.286925 
L 114.101153 124.338287 
L 114.229306 124.798862 
L 114.325421 124.785863 
L 114.389498 124.997354 
L 114.421536 124.923375 
L 114.517651 124.711884 
L 114.645804 125.401326 
L 114.741919 125.366826 
L 114.773957 125.484081 
L 114.90211 126.036281 
L 115.062301 126.574502 
L 115.190455 127.219062 
L 115.318608 127.401017 
L 115.478799 127.501102 
L 115.542876 127.621499 
L 115.606952 127.501102 
L 115.671029 127.325564 
L 115.703067 127.371557 
L 115.767144 127.643961 
L 115.799182 127.542367 
L 115.927335 129.946493 
L 116.087526 130.420374 
L 116.215679 130.204764 
L 116.375871 130.630938 
L 116.471986 130.582558 
L 116.632177 131.083575 
L 116.728292 131.508681 
L 116.76033 131.322701 
L 116.792368 130.919295 
L 116.888483 130.984031 
L 117.176828 130.945974 
L 117.240904 131.153656 
L 117.272943 131.105276 
L 117.337019 130.903495 
L 117.369057 131.122379 
L 117.529249 131.393338 
L 117.817593 131.393338 
L 117.945746 131.738853 
L 118.778742 131.754654 
L 118.906895 131.854197 
L 119.00301 131.827431 
L 119.067086 131.911967 
L 119.099124 131.827431 
L 119.195239 131.811631 
L 119.227278 131.714341 
L 119.323392 131.754654 
L 119.355431 131.754654 
L 119.387469 131.99969 
L 119.451545 131.754654 
L 119.675813 131.738853 
L 119.73989 132.240645 
L 119.803967 132.025035 
L 119.900081 132.475472 
L 119.93212 132.369834 
L 120.028234 132.442426 
L 120.092311 132.355448 
L 120.220464 132.556399 
L 120.380656 132.428225 
L 120.604923 132.847482 
L 120.669 132.850855 
L 120.701038 133.532801 
L 120.765115 133.001767 
L 121.117536 133.01691 
L 121.245689 133.422529 
L 121.40588 133.305273 
L 121.437919 133.279161 
L 121.501995 133.01691 
L 121.566072 133.043534 
L 121.59811 133.199007 
L 121.662187 133.043534 
L 121.79034 133.067661 
L 121.854416 133.043534 
L 121.886455 133.592255 
L 121.918493 133.043534 
L 122.014608 133.123138 
L 122.142761 133.043534 
L 122.270914 133.38876 
L 122.33499 133.152309 
L 122.367029 133.291647 
L 122.399067 133.633799 
L 122.495182 133.526965 
L 122.52722 133.526965 
L 122.559258 133.666304 
L 122.623335 133.609156 
L 122.655373 133.526965 
L 122.687411 133.700079 
L 122.879641 133.724206 
L 123.039833 135.116881 
L 123.103909 135.116881 
L 123.360215 135.805573 
L 123.520407 135.8022 
L 123.64856 135.944471 
L 123.680598 135.944471 
L 123.872828 136.503853 
L 124.033019 136.507569 
L 124.097096 136.823683 
L 124.129134 136.507569 
L 124.161172 136.503853 
L 124.225249 136.87774 
L 124.257287 136.503853 
L 124.321364 136.496675 
L 124.417478 136.823683 
L 124.449517 136.789908 
L 124.641746 136.836963 
L 124.898053 137.21085 
L 126.211622 137.25592 
L 126.275699 137.381466 
L 126.339775 137.3205 
L 126.43589 137.369701 
L 126.62812 137.607499 
L 126.788311 137.658508 
L 126.852388 137.772889 
L 126.884426 137.756553 
L 126.980541 137.607499 
L 127.012579 137.614637 
L 127.076656 137.655135 
L 127.108694 138.169153 
L 127.17277 137.833593 
L 127.300923 137.807975 
L 127.397038 138.410478 
L 127.429077 138.210002 
L 127.493153 138.225145 
L 127.621306 138.550164 
L 127.973727 138.550164 
L 128.10188 138.878038 
L 128.165957 138.92154 
L 128.197995 139.030465 
L 128.262072 138.958664 
L 128.774684 138.865027 
L 128.838761 139.238838 
L 128.902837 139.231701 
L 129.03099 139.25452 
L 129.127105 139.543474 
L 129.159144 139.384128 
L 129.255258 139.374844 
L 129.41545 139.77347 
L 129.447488 139.693744 
L 129.479526 139.687472 
L 129.511565 139.958069 
L 129.575641 139.691199 
L 129.671756 140.198208 
L 129.767871 140.035986 
L 129.831947 140.034687 
L 129.896024 140.295114 
L 129.928062 140.041824 
L 130.120292 140.035986 
L 130.280483 140.35758 
L 130.312522 140.347885 
L 130.34456 140.347885 
L 130.472713 140.07121 
L 130.536789 140.260646 
L 130.600866 140.212527 
L 130.664943 140.054747 
L 130.696981 140.094685 
L 130.825134 140.26858 
L 130.953287 140.238004 
L 131.049402 140.724724 
L 131.08144 140.553865 
L 131.4659 140.663759 
L 131.562014 140.74469 
L 131.594053 140.683186 
L 132.074627 140.764265 
L 132.138703 140.818369 
L 132.20278 140.689047 
L 132.234818 140.779047 
L 132.555201 141.442541 
L 132.683354 141.417667 
L 132.715392 141.652822 
L 132.811507 141.568124 
L 132.907622 141.568124 
L 132.93966 141.803278 
L 133.003737 141.602224 
L 133.035775 141.572586 
L 133.067813 141.64451 
L 133.195967 143.595009 
L 133.292081 143.523085 
L 133.388196 143.359854 
L 133.452273 143.523085 
L 133.516349 143.48278 
L 133.772656 143.651594 
L 133.804694 143.501138 
L 133.86877 143.651594 
L 133.964885 143.651594 
L 134.157115 143.965711 
L 134.381383 143.953338 
L 134.509536 143.767815 
L 134.573612 144.022164 
L 134.669727 143.965711 
L 134.829919 144.054644 
L 135.054187 144.171738 
L 135.086225 143.983157 
L 135.18234 144.078316 
L 135.438646 144.760239 
L 135.470684 144.679854 
L 135.534761 144.78204 
L 135.630876 144.974716 
L 135.662914 144.932587 
L 135.759029 144.78204 
L 135.951258 145.234489 
L 136.239603 145.503053 
L 136.335718 145.45141 
L 136.463871 145.931994 
L 136.976483 146.006836 
L 137.104636 146.129032 
L 137.521134 146.136367 
L 137.553172 146.240157 
L 137.617249 146.129032 
L 137.745402 146.14935 
L 137.937632 146.490282 
L 138.418206 146.56342 
L 138.610435 146.655322 
L 138.642474 146.56342 
L 138.70655 146.707562 
L 138.738589 146.613963 
L 138.770627 146.56342 
L 138.834703 146.651239 
L 139.283239 146.655322 
L 139.315278 146.965806 
L 139.379354 146.655322 
L 139.667699 146.655322 
L 139.699737 146.544197 
L 139.763813 146.667124 
L 140.084196 146.667124 
L 140.148273 146.544197 
L 140.212349 146.599078 
L 140.436617 146.844092 
L 140.532732 146.778249 
L 140.660885 146.864811 
L 142.134646 146.82382 
L 142.262799 147.134304 
L 142.326876 146.82382 
L 142.358914 146.836382 
L 142.390952 146.984222 
L 142.455029 146.883627 
L 142.583182 146.809778 
L 142.711335 147.676716 
L 142.743373 147.676716 
L 142.871526 147.9872 
L 142.903565 147.9872 
L 142.935603 147.872996 
L 142.967641 147.9872 
L 143.095794 148.174207 
L 143.320062 148.785878 
L 143.416177 148.611434 
L 143.448215 148.611434 
L 143.576368 148.785878 
L 144.281211 148.845362 
L 144.377325 148.946651 
L 144.441402 148.859593 
L 144.47344 148.873314 
L 144.537517 148.946841 
L 144.569555 148.849014 
L 146.171469 148.845551 
L 146.203507 149.067867 
L 146.267584 148.845551 
L 146.587967 149.044082 
L 146.652043 149.152325 
L 146.684081 149.058123 
L 147.004464 149.152325 
L 147.068541 149.253615 
L 147.100579 149.152325 
L 147.164656 149.166046 
L 147.26077 149.603672 
L 147.324847 149.166046 
L 147.388923 149.297747 
L 148.125804 149.399037 
L 148.414148 149.412758 
L 148.926761 149.428428 
L 149.022876 149.533784 
L 149.086952 149.635074 
L 149.11899 149.412758 
L 149.375297 151.10039 
L 149.407335 151.10039 
L 149.535488 150.962954 
L 149.599565 150.962954 
L 149.791794 151.561746 
L 149.823833 151.561746 
L 149.951986 151.005991 
L 150.272368 151.005991 
L 150.336445 151.152615 
L 150.368483 151.005991 
L 150.496636 150.958823 
L 150.528675 151.249802 
L 150.624789 151.220862 
L 150.720904 151.180123 
L 150.849057 150.958823 
L 151.073325 151.103406 
L 151.16944 151.103406 
L 151.297593 153.577403 
L 151.36167 153.588957 
L 151.393708 154.018453 
L 151.457785 153.714839 
L 151.617976 153.762008 
L 151.746129 154.206968 
L 151.778167 154.206968 
L 151.906321 154.429284 
L 152.066512 154.477103 
L 152.130589 154.870334 
L 152.162627 154.429284 
L 152.194665 154.579783 
L 152.258742 154.429284 
L 152.29078 154.477103 
L 152.450971 155.277921 
L 152.48301 155.277921 
L 152.547086 155.055606 
L 152.579124 155.539961 
L 152.675239 155.467814 
L 152.707278 155.536477 
L 152.803392 156.01263 
L 152.835431 155.980094 
L 152.867469 156.040222 
L 152.899507 155.980094 
L 152.931545 156.421144 
L 152.995622 156.01263 
L 153.02766 155.980094 
L 153.251928 157.643278 
L 153.283967 157.643278 
L 153.41212 157.877815 
L 153.476196 157.877815 
L 153.604349 158.152106 
L 153.796579 158.177809 
L 154.309191 158.232766 
L 154.597536 159.008609 
L 154.629574 158.921272 
L 154.757727 158.597372 
L 154.821804 158.609137 
L 154.853842 158.739831 
L 154.949957 158.671039 
L 154.981995 158.756492 
L 155.07811 158.717311 
L 155.174225 158.735275 
L 155.366455 159.323827 
L 155.462569 158.778482 
L 155.494608 158.827642 
L 155.622761 158.825314 
L 155.686837 158.80735 
L 155.750914 158.993718 
L 155.782952 158.745946 
L 155.81499 158.745946 
L 155.847029 158.89181 
L 155.911105 158.774862 
L 156.039258 158.87825 
L 156.519833 159.01689 
L 156.615947 158.977857 
L 156.712062 159.026028 
L 156.7441 158.989742 
L 156.968368 159.047211 
L 157.12856 159.340461 
L 157.192636 159.224973 
L 157.288751 159.457752 
L 157.673211 159.693761 
L 157.801364 159.882712 
L 157.961555 159.952237 
L 158.05767 160.517985 
L 158.089708 160.469794 
L 158.185823 160.469794 
L 158.217861 161.166156 
L 158.281938 160.469794 
L 158.313976 160.480049 
L 158.346014 160.698381 
L 158.410091 160.448459 
L 158.858627 160.484745 
L 158.98678 160.698381 
L 159.018818 160.585547 
L 159.146971 160.637733 
L 159.17901 160.743355 
L 159.243086 160.585547 
L 159.307163 160.615117 
L 159.371239 160.765943 
L 159.403278 160.585547 
L 159.499392 160.585547 
L 159.531431 160.704478 
L 159.595507 160.615117 
L 159.627545 160.522063 
L 159.691622 160.585547 
L 159.851813 160.63173 
L 159.979967 160.701256 
L 160.10812 160.701256 
L 160.204234 160.990535 
L 160.236273 160.851271 
L 160.588694 160.851271 
L 160.620732 161.451752 
L 160.684809 160.851271 
L 160.716847 160.851271 
L 160.845 161.565598 
L 160.973153 161.565598 
L 161.069268 162.170156 
L 161.101306 162.158539 
L 161.165383 162.158539 
L 161.197421 162.308743 
L 161.261498 162.170156 
L 161.325574 162.180161 
L 161.485766 162.442119 
L 161.96634 162.442431 
L 162.126531 162.65792 
L 162.254684 162.680232 
L 162.286722 162.779896 
L 162.318761 162.509722 
L 162.414876 162.636404 
L 162.70322 163.169147 
L 162.863411 163.240105 
L 162.959526 163.725338 
L 163.087679 163.295762 
L 163.600292 163.377176 
L 163.63233 163.52738 
L 163.728445 163.47684 
L 163.792522 163.304366 
L 163.82456 163.361334 
L 163.888636 163.40403 
L 163.920675 163.304366 
L 164.337172 163.390185 
L 164.497364 163.429574 
L 164.56144 163.401085 
L 164.593478 163.481437 
L 165.106091 163.56391 
L 165.234244 163.56391 
L 165.394435 164.323575 
L 165.522589 164.095263 
L 165.842971 164.095263 
L 165.971124 164.707754 
L 166.387622 164.768238 
L 166.579852 166.506052 
L 166.61189 165.151347 
L 166.708005 165.167603 
L 166.932273 165.267267 
L 167.060426 165.267267 
L 167.220617 165.324235 
L 167.252656 166.225906 
L 167.284694 165.267267 
L 167.316732 165.267267 
L 167.541 165.27035 
L 167.573038 165.559844 
L 167.669153 165.481164 
L 167.829344 165.439428 
L 167.957498 165.773742 
L 168.502148 165.875091 
L 168.66234 165.838843 
L 168.790493 167.186955 
L 169.174952 167.233515 
L 169.463297 168.24524 
L 169.527373 168.044354 
L 169.943871 168.027768 
L 170.039986 167.765488 
L 170.072024 167.901672 
L 170.1361 167.765488 
L 170.424445 167.765488 
L 170.552598 167.913289 
L 170.808904 168.202369 
L 170.937057 167.868315 
L 171.001134 167.954677 
L 171.161325 168.084936 
L 171.225402 167.954677 
L 171.25744 167.96465 
L 171.321517 168.185298 
L 171.385593 168.161959 
L 171.738014 168.12338 
L 171.834129 168.406342 
L 171.866167 168.392727 
L 171.994321 168.184543 
L 172.218589 168.1865 
L 172.410818 168.955688 
L 172.442856 168.392977 
L 172.506933 169.026091 
L 172.603048 169.113743 
L 172.667124 169.227604 
L 172.699163 169.139952 
L 172.827316 169.041634 
L 172.859354 168.988021 
L 172.923431 169.045939 
L 173.019545 169.063886 
L 173.179737 169.998404 
L 173.211775 169.610093 
L 173.30789 169.667062 
L 173.564196 169.742294 
L 173.756426 170.208978 
L 173.852541 170.247048 
L 173.980694 170.575877 
L 174.076809 170.360909 
L 174.108847 170.376177 
L 174.941842 170.466697 
L 174.97388 170.689738 
L 175.037957 170.466697 
L 175.102033 170.566523 
L 175.134072 170.510911 
L 175.294263 170.466697 
L 175.678722 170.524567 
L 175.806876 170.780258 
L 175.999105 170.780258 
L 176.031144 171.021274 
L 176.09522 170.780258 
L 176.479679 170.836214 
L 176.543756 170.937978 
L 176.607833 170.895696 
L 176.735986 170.83974 
L 177.184522 170.836214 
L 177.21656 171.077229 
L 177.280636 170.836214 
L 177.729172 170.935826 
L 177.857325 171.141164 
L 178.049555 171.241733 
L 178.241785 171.294812 
L 178.305861 171.309055 
L 178.369938 171.455993 
L 178.434014 171.437743 
L 178.466053 171.437743 
L 178.530129 171.24801 
L 178.562167 171.334243 
L 178.722359 171.481117 
L 179.010703 171.580504 
L 179.170895 171.647439 
L 179.299048 171.660981 
L 179.523316 171.621081 
L 179.587392 172.04579 
L 179.651469 171.870204 
L 179.779622 171.895882 
L 179.875737 171.984315 
L 179.971852 172.036232 
L 180.132043 172.432857 
L 180.260196 172.258768 
L 180.388349 172.334 
L 180.420388 172.334 
L 180.548541 172.544033 
L 180.804847 172.586712 
L 180.900962 172.759615 
L 180.933 172.751962 
L 181.093191 172.718122 
L 181.413574 172.792304 
L 181.541727 172.92948 
L 181.605804 172.92948 
L 181.637842 172.752884 
L 181.701919 172.867305 
L 181.798033 173.041162 
L 181.926187 172.92948 
L 182.022301 172.975564 
L 182.118416 173.077499 
L 182.182493 172.975564 
L 182.214531 173.047878 
L 182.342684 173.1215 
L 182.502876 173.3437 
L 182.695105 173.724849 
L 182.727144 173.618992 
L 183.335871 173.728207 
L 183.367909 173.848905 
L 183.431986 173.728207 
L 184.104789 173.769292 
L 184.168866 174.0998 
L 184.264981 173.912586 
L 184.393134 173.769292 
L 184.553325 173.769292 
L 185.322244 173.779507 
L 185.450397 174.186473 
L 185.642627 174.269662 
L 185.930971 174.61663 
L 187.020273 174.682451 
L 187.084349 174.813083 
L 187.180464 174.735191 
L 187.532885 174.785016 
L 187.564923 174.859198 
L 187.596962 174.791601 
L 187.629 175.458313 
L 187.693077 174.892766 
L 187.725115 174.892766 
L 187.757153 175.013751 
L 187.82123 174.892766 
L 188.205689 174.958116 
L 188.269766 175.029403 
L 188.301804 174.958116 
L 188.494033 174.958116 
L 188.654225 175.566063 
L 188.910531 175.601315 
L 189.038684 175.780043 
L 189.134799 175.539921 
L 189.198876 175.624696 
L 189.359067 175.551308 
L 189.48722 175.791941 
L 189.743526 175.473806 
L 189.775565 175.503116 
L 189.807603 175.609007 
L 189.839641 176.462581 
L 189.903718 175.609007 
L 190.672636 175.625944 
L 191.089134 176.843454 
L 191.185249 176.843454 
L 191.217287 177.102878 
L 191.281364 176.87078 
L 191.53767 176.843454 
L 191.569708 177.102878 
L 191.633785 176.843454 
L 192.082321 176.85654 
L 192.242512 177.087899 
L 192.402703 177.135226 
L 192.915316 177.231435 
L 192.947354 177.300628 
L 193.075507 177.066033 
L 193.58812 177.279695 
L 193.748311 177.658558 
L 193.780349 177.558486 
L 193.844426 177.633193 
L 194.036656 177.996136 
L 194.068694 177.792699 
L 194.13277 177.948167 
L 194.164809 177.948167 
L 194.292962 178.162342 
L 194.485191 178.265408 
L 194.581306 178.547507 
L 194.613344 178.275801 
L 194.741498 178.186675 
L 194.837612 178.186675 
L 194.965766 178.596843 
L 194.997804 178.547069 
L 195.157995 178.619228 
L 195.286148 178.829492 
L 195.350225 178.672195 
L 195.414301 178.714389 
L 195.510416 178.672195 
L 195.542455 178.746642 
L 195.606531 178.672195 
L 196.407488 178.58124 
L 196.535641 178.836585 
L 196.727871 178.791952 
L 196.759909 178.951808 
L 196.856024 178.907545 
L 196.888062 178.908352 
L 196.9201 179.104914 
L 197.016215 179.06065 
L 197.048254 179.179098 
L 197.11233 179.104914 
L 197.144368 179.104914 
L 197.176407 178.929546 
L 197.208445 179.13982 
L 197.240483 179.059843 
L 197.432713 179.121092 
L 197.624943 179.447613 
L 197.721057 179.447613 
L 197.849211 179.624115 
L 198.04144 179.580406 
L 198.073478 179.826022 
L 198.137555 179.672413 
L 198.393861 179.77894 
L 198.522014 179.870947 
L 198.586091 179.870947 
L 198.682206 180.128376 
L 198.714244 180.087302 
L 198.778321 179.863435 
L 198.810359 180.028856 
L 198.938512 180.108081 
L 199.066665 180.231397 
L 199.194818 180.155702 
L 199.290933 180.155702 
L 199.419086 180.71038 
L 199.611316 180.737706 
L 200.796732 180.761028 
L 200.924885 181.598669 
L 201.95011 181.648193 
L 202.078263 181.75274 
L 202.751067 181.648193 
L 203.007373 181.635348 
L 203.07145 181.633183 
L 203.199603 181.843725 
L 203.327756 181.633183 
L 203.584062 181.737731 
L 204.032598 181.851618 
L 204.160751 181.795285 
L 204.192789 181.893373 
L 204.256866 181.795285 
L 204.288904 181.795285 
L 204.320943 181.681397 
L 204.352981 181.893373 
L 204.385019 181.893373 
L 204.417057 181.712251 
L 204.481134 181.826138 
L 204.513172 181.826138 
L 204.641325 181.712251 
L 204.833555 181.826138 
L 204.961708 181.929255 
L 205.66655 182.027159 
L 205.794703 182.027159 
L 205.890818 182.367731 
L 205.922856 182.239135 
L 206.083048 182.1933 
L 206.115086 182.1933 
L 206.275278 182.575537 
L 207.620885 182.623458 
L 207.652923 182.796546 
L 207.717 182.623458 
L 208.197574 182.717009 
L 208.261651 182.815896 
L 208.293689 182.699157 
L 208.64611 182.626627 
L 208.678148 182.804954 
L 208.742225 182.626627 
L 208.902416 182.712316 
L 209.062608 183.314497 
L 209.415029 183.389822 
L 209.447067 183.435891 
L 209.479105 183.366625 
L 209.511144 183.332395 
L 209.543182 183.428717 
L 209.671335 183.463322 
L 209.703373 183.299667 
L 209.76745 183.421605 
L 210.023756 183.367059 
L 210.119871 183.309388 
L 210.151909 183.340819 
L 210.760636 183.421605 
L 210.888789 183.452332 
L 210.952866 183.43339 
L 211.016943 183.403203 
L 211.081019 183.567522 
L 211.369364 183.54912 
L 211.689746 183.600956 
L 211.849938 183.753225 
L 212.170321 183.753225 
L 212.298474 184.208652 
L 213.419813 184.211703 
L 213.451852 184.333222 
L 213.48389 184.178026 
L 213.515928 184.241401 
L 213.644081 184.274811 
L 213.740196 184.423122 
L 213.772234 184.3769 
L 213.932426 184.408522 
L 214.124656 184.513361 
L 214.284847 184.544983 
L 214.316885 184.872094 
L 214.380962 184.549838 
L 214.509115 184.662843 
L 214.573191 184.591123 
L 214.60523 184.615119 
L 214.733383 186.394628 
L 214.957651 186.394628 
L 214.989689 186.653333 
L 215.021727 186.294599 
L 215.053766 186.294599 
L 215.374148 186.545431 
L 215.502301 186.39033 
L 215.53434 186.39033 
L 215.662493 186.545431 
L 215.822684 186.548265 
L 215.886761 186.904164 
L 215.918799 186.661738 
L 215.950837 186.548265 
L 216.014914 186.661738 
L 216.303258 186.687203 
L 216.335297 186.80351 
L 216.399373 186.733343 
L 216.559565 186.687203 
L 217.328483 186.758744 
L 217.616828 187.243511 
L 217.777019 187.243511 
L 217.809057 187.382903 
L 217.841096 187.11336 
L 217.873134 187.243511 
L 217.937211 187.162813 
L 217.969249 187.11336 
L 218.033325 187.205419 
L 218.962435 187.233181 
L 218.994474 187.769292 
L 219.05855 187.474123 
L 219.122627 187.286352 
L 219.186703 187.363333 
L 219.314856 187.363333 
L 219.475048 187.467614 
L 219.539124 187.608971 
L 219.571163 187.49824 
L 219.763392 187.467614 
L 219.891545 188.215732 
L 219.923584 187.950553 
L 219.955622 188.500751 
L 219.98766 188.500751 
L 220.083775 188.359393 
L 220.115813 188.4327 
L 220.211928 188.359393 
L 220.340081 188.396936 
L 220.980847 188.407114 
L 221.109 188.587974 
L 221.141038 188.36945 
L 221.205115 188.458694 
L 221.30123 188.600421 
L 221.429383 188.41258 
L 221.653651 188.571737 
L 221.781804 188.453876 
L 221.813842 188.453876 
L 221.84588 188.701896 
L 221.877919 188.321617 
L 221.941995 188.582085 
L 222.134225 188.714344 
L 222.23034 188.582085 
L 222.358493 188.745873 
L 222.390531 188.628199 
L 222.422569 188.830106 
L 223.031297 188.836374 
L 224.344866 188.940775 
L 224.473019 188.972884 
L 224.601172 189.282065 
L 224.665249 189.280631 
L 224.729325 189.399926 
L 224.761364 189.282065 
L 224.857478 189.37885 
L 224.985632 189.448986 
L 225.081746 189.516631 
L 225.2099 189.599268 
L 226.010856 189.706609 
L 226.427354 189.731528 
L 226.491431 189.836509 
L 226.619584 190.040806 
L 226.68366 190.040806 
L 226.811813 189.842701 
L 226.972005 189.892288 
L 227.100158 190.096584 
L 227.196273 190.096584 
L 227.260349 190.289197 
L 227.324426 190.212891 
L 227.484617 190.040806 
L 227.580732 190.072817 
L 227.61277 190.040806 
L 227.869077 190.040806 
L 227.933153 190.384426 
L 227.965191 190.038868 
L 228.670033 190.065185 
L 228.798187 190.233418 
L 228.92634 190.233418 
L 228.990416 190.260796 
L 229.054493 190.144489 
L 229.086531 190.233418 
L 229.47099 190.233418 
L 229.66322 190.757945 
L 229.791373 190.757945 
L 229.919526 190.411949 
L 229.983603 190.386302 
L 230.015641 190.446099 
L 230.047679 190.561119 
L 230.079718 190.400652 
L 230.111756 190.400652 
L 230.720483 190.46199 
L 230.848636 190.807548 
L 231.233096 190.914734 
L 231.329211 190.941876 
L 231.361249 191.196003 
L 231.425325 190.941876 
L 231.71367 190.965161 
L 231.777746 191.093295 
L 231.809785 190.9562 
L 232.066091 190.979076 
L 232.226282 191.116811 
L 232.770933 191.180426 
L 232.899086 191.435319 
L 232.995201 191.203525 
L 233.123354 191.458417 
L 233.251507 191.435319 
L 233.347622 191.614387 
L 233.475775 191.458417 
L 233.603928 191.461061 
L 233.732081 191.435319 
L 234.244694 191.41253 
L 234.276732 191.591599 
L 234.340809 191.41253 
L 234.436923 191.435762 
L 234.565077 191.56882 
L 234.629153 191.41253 
L 234.69323 191.450927 
L 234.757306 191.450927 
L 234.885459 191.613499 
L 234.981574 191.589809 
L 235.141766 191.648078 
L 235.366033 192.042635 
L 235.398072 191.801754 
L 236.006799 191.900767 
L 236.038837 192.249632 
L 236.102914 191.985217 
L 236.35922 191.932811 
L 236.999986 191.990655 
L 237.0961 192.332064 
L 237.128139 191.994144 
L 237.224254 192.055479 
L 237.352407 191.990655 
L 237.48056 191.990655 
L 237.512598 192.12179 
L 237.576675 191.990655 
L 237.736866 191.990655 
L 237.768904 192.421953 
L 237.832981 191.990655 
L 237.929096 191.990655 
L 237.961134 192.44849 
L 238.025211 192.169724 
L 238.377632 192.279273 
L 238.537823 192.301362 
L 238.698014 192.279273 
L 238.826167 192.518254 
L 238.858206 192.650253 
L 238.890244 192.361393 
L 238.954321 192.279273 
L 239.082474 192.737108 
L 239.434895 192.844706 
L 239.595086 192.976344 
L 239.659163 192.91152 
L 239.819354 193.340597 
L 239.851392 193.340597 
L 239.915469 193.579578 
L 239.979545 193.490057 
L 240.07566 193.443468 
L 240.139737 193.643006 
L 240.203813 193.443468 
L 240.235852 193.491588 
L 240.364005 193.579578 
L 240.396043 193.49128 
L 240.46012 193.579271 
L 240.588273 193.714436 
L 240.748464 193.679493 
L 241.132923 193.726082 
L 241.261077 194.918604 
L 241.325153 194.918604 
L 241.453306 194.72917 
L 242.190187 194.797635 
L 242.31834 195.014164 
L 242.414455 194.911432 
L 242.446493 194.923507 
L 242.895029 194.911432 
L 242.927067 195.150274 
L 242.991144 194.911432 
L 243.151335 195.055446 
L 243.535794 195.059374 
L 243.599871 195.201261 
L 243.663947 195.182241 
L 243.728024 195.182241 
L 243.856177 195.064398 
L 243.952292 195.064398 
L 244.016368 195.176736 
L 244.048407 195.064398 
L 244.17656 195.064398 
L 244.208598 195.310645 
L 244.272675 195.064398 
L 244.849364 195.043849 
L 244.977517 195.290096 
L 245.041593 195.354919 
L 245.073632 195.290096 
L 245.10567 195.290096 
L 245.233823 195.402433 
L 245.426053 195.321111 
L 245.586244 195.31151 
L 246.098856 195.402433 
L 246.22701 195.466479 
L 246.259048 195.466479 
L 246.387201 195.594797 
L 246.483316 195.504787 
L 246.707584 195.990005 
L 246.739622 195.904302 
L 246.899813 195.962572 
L 247.124081 195.928592 
L 247.284273 196.08552 
L 247.444464 196.08552 
L 247.572617 196.271258 
L 247.604656 196.271258 
L 247.636694 196.08552 
L 247.70077 196.23761 
L 248.213383 196.23761 
L 248.341536 196.423348 
L 248.565804 196.314367 
L 248.62988 196.415992 
L 248.693957 196.23761 
L 248.725995 196.415992 
L 248.790072 196.23761 
L 248.82211 196.23761 
L 248.854148 196.423348 
L 248.918225 196.267412 
L 248.982301 196.267412 
L 249.110455 196.423348 
L 249.55899 196.99565 
L 249.623067 196.822121 
L 249.847335 196.917098 
L 249.879373 196.814936 
L 249.94345 196.917098 
L 250.648292 196.898696 
L 250.68033 197.10142 
L 250.744407 196.957728 
L 251.064789 196.947472 
L 251.160904 197.150705 
L 251.257019 196.920759 
L 251.224981 197.198805 
L 251.289057 196.945957 
L 251.481287 196.920759 
L 251.673517 197.253752 
L 251.737593 196.973277 
L 251.80167 197.048912 
L 251.929823 196.973277 
L 252.057976 197.296673 
L 252.442435 197.345933 
L 252.474474 197.641663 
L 252.53855 197.432823 
L 252.666703 197.361634 
L 252.826895 197.463321 
L 252.890971 197.408961 
L 252.955048 197.465547 
L 252.987086 197.488505 
L 253.019124 197.398451 
L 253.179316 197.361634 
L 253.211354 197.361634 
L 253.307469 197.671751 
L 253.339507 197.608642 
L 253.46766 197.630099 
L 253.595813 197.882777 
L 253.723967 197.972831 
L 254.044349 197.986501 
L 254.204541 198.331491 
L 254.364732 197.970801 
L 254.428809 197.933984 
L 254.589 198.377619 
L 254.717153 198.275536 
L 254.78123 198.275536 
L 254.877344 198.4322 
L 254.941421 198.288486 
L 254.973459 198.45882 
L 255.069574 198.367264 
L 255.229766 198.275536 
L 255.357919 198.319012 
L 255.421995 198.442579 
L 255.454033 198.284667 
L 256.25499 198.296261 
L 256.415182 198.528873 
L 256.543335 198.403373 
L 257.120024 198.504344 
L 257.152062 198.663769 
L 257.248177 198.625771 
L 257.312254 198.625771 
L 257.440407 198.940052 
L 257.600598 199.011513 
L 257.728751 199.176179 
L 257.856904 199.011513 
L 258.081172 199.011513 
L 258.113211 199.138167 
L 258.177287 199.011513 
L 258.337478 199.055268 
L 258.786014 199.122141 
L 258.914167 199.300007 
L 259.074359 199.213348 
L 259.202512 199.589431 
L 259.42678 199.624092 
L 259.554933 199.825558 
L 260.291813 199.834978 
L 260.323852 199.96826 
L 260.387928 199.834978 
L 260.54812 199.882736 
L 260.740349 200.102861 
L 260.868502 200.102861 
L 260.900541 199.964016 
L 260.964617 200.102861 
L 261.669459 200.312292 
L 261.733536 200.495879 
L 261.797612 200.312292 
L 261.989842 200.304821 
L 262.117995 200.488407 
L 262.374301 200.507106 
L 262.40634 200.615735 
L 262.470416 200.507106 
L 263.14322 200.507106 
L 263.271373 200.706723 
L 263.33545 200.608474 
L 263.399526 201.108331 
L 263.463603 201.086563 
L 263.559718 201.286181 
L 263.591756 201.27403 
L 263.623794 201.359925 
L 263.687871 201.27403 
L 263.944177 201.286181 
L 264.136407 201.251855 
L 264.488828 201.339066 
L 264.520866 201.487266 
L 264.584943 201.346824 
L 264.616981 201.339066 
L 264.745134 201.447136 
L 265.770359 201.690426 
L 265.802397 201.824052 
L 265.866474 201.690426 
L 266.571316 201.757909 
L 266.699469 201.854234 
L 266.763545 201.920594 
L 266.827622 201.798317 
L 266.85966 201.908443 
L 266.923737 201.757909 
L 266.955775 201.844166 
L 267.083928 201.757909 
L 267.532464 201.7761 
L 267.660617 201.879361 
L 268.397498 201.89995 
L 268.557689 202.141337 
L 269.614952 202.173584 
L 269.64699 202.4788 
L 269.711067 202.173584 
L 269.743105 202.173584 
L 269.775144 202.356628 
L 269.83922 202.21812 
L 270.608139 202.305376 
L 270.704254 202.346555 
L 270.800368 202.698383 
L 270.864445 202.346555 
L 270.928522 202.383429 
L 271.088713 202.698383 
L 273.171201 202.603822 
L 273.331392 202.586261 
L 273.523622 202.801878 
L 273.651775 202.586261 
L 273.715852 202.586261 
L 273.74789 202.759212 
L 273.811967 202.586261 
L 273.972158 202.58025 
L 274.100311 202.887987 
L 274.260502 202.921745 
L 274.388656 203.060938 
L 274.580885 203.145228 
L 275.734263 203.115725 
L 275.862416 203.417501 
L 276.118722 203.442698 
L 276.278914 203.460166 
L 276.407067 203.549928 
L 277.047833 203.641054 
L 277.111909 203.755478 
L 277.143947 203.695048 
L 277.304139 203.635202 
L 277.336177 203.946468 
L 277.400254 203.734703 
L 277.944904 203.800771 
L 278.073057 203.888675 
L 278.361402 203.928309 
L 278.489555 204.037977 
L 278.553632 203.906467 
L 278.58567 203.989334 
L 278.7779 203.949325 
L 279.162359 204.031779 
L 279.290512 204.270683 
L 279.386627 204.175553 
L 279.418665 204.189317 
L 279.450703 204.189317 
L 279.578856 204.500583 
L 279.771086 204.52578 
L 279.931278 204.501788 
L 280.059431 204.933754 
L 280.187584 204.932549 
L 280.315737 204.861899 
L 280.700196 204.963408 
L 280.796311 204.950387 
L 280.828349 205.209733 
L 280.892426 204.878427 
L 281.052617 204.913849 
L 281.373 204.913849 
L 281.437077 205.286819 
L 281.501153 205.243408 
L 281.629306 205.314138 
L 282.077842 205.314138 
L 282.205995 205.620139 
L 282.558416 205.715269 
L 282.750646 205.799684 
L 284.096254 205.883699 
L 284.128292 205.966892 
L 284.224407 205.922126 
L 284.320522 205.84445 
L 284.448675 205.935569 
L 284.544789 205.90404 
L 284.576828 205.953292 
L 284.737019 205.985339 
L 284.897211 206.020005 
L 284.993325 206.083382 
L 285.185555 206.244917 
L 285.377785 206.162342 
L 285.409823 206.363666 
L 285.4739 206.244917 
L 285.666129 206.244917 
L 285.698167 206.359013 
L 285.762244 206.244917 
L 286.082627 206.30828 
L 286.114665 206.421883 
L 286.178742 206.251734 
L 286.242818 206.265908 
L 286.435048 206.512887 
L 286.691354 206.512887 
L 286.819507 206.839952 
L 286.915622 206.800525 
L 287.043775 206.860066 
L 287.364158 206.90051 
L 287.492311 207.014113 
L 287.588426 206.993122 
L 287.620464 207.054174 
L 288.004923 207.142083 
L 288.133077 207.142083 
L 288.229191 207.715325 
L 288.26123 207.608776 
L 288.549574 207.642129 
L 289.254416 207.714449 
L 289.350531 207.81749 
L 289.382569 207.795133 
L 289.638876 207.82276 
L 289.831105 208.307653 
L 291.144675 208.329631 
L 291.272828 208.505019 
L 291.849517 208.531153 
L 291.881555 208.378024 
L 291.97767 208.412655 
L 292.137861 208.412655 
L 292.266014 208.533065 
L 292.394167 208.441439 
L 292.426206 208.518781 
L 292.490282 208.441439 
L 293.83589 208.39035 
L 293.964043 209.883293 
L 294.060158 209.929479 
L 294.092196 210.168041 
L 294.156273 210.007599 
L 294.252388 209.917414 
L 294.284426 209.952235 
L 294.316464 209.952235 
L 294.476656 210.257073 
L 295.373727 210.329101 
L 295.565957 210.515302 
L 295.758187 210.56994 
L 295.790225 210.664449 
L 295.822263 211.408728 
L 295.88634 210.710748 
L 296.398952 210.710748 
L 296.527105 210.894415 
L 297.808636 210.874672 
L 297.968828 210.615466 
L 298.129019 211.170616 
L 298.257172 211.71927 
L 298.48144 211.71927 
L 298.545517 211.562559 
L 298.577555 211.604309 
L 298.609593 211.71927 
L 298.67367 211.563787 
L 298.801823 211.639938 
L 298.897938 211.562559 
L 299.058129 211.71927 
L 299.186282 211.896349 
L 299.250359 211.71927 
L 299.314435 211.71927 
L 299.346474 211.896349 
L 299.41055 211.71927 
L 299.442589 211.71927 
L 299.60278 212.044976 
L 300.051316 212.14552 
L 300.179469 212.314516 
L 300.403737 212.227621 
L 300.53189 212.237649 
L 300.72412 212.227621 
L 300.788196 212.432895 
L 300.820234 212.227621 
L 301.557115 212.229375 
L 301.685268 212.510273 
L 301.749344 212.510273 
L 301.781383 212.292231 
L 301.845459 212.420985 
L 302.19788 212.420985 
L 302.229919 212.572767 
L 302.293995 212.412542 
L 302.614378 212.391877 
L 302.902722 212.379739 
L 303.062914 212.433004 
L 303.12699 212.482156 
L 303.159029 212.433004 
L 303.383297 212.367789 
L 303.51145 212.367789 
L 303.639603 212.492864 
L 303.671641 212.492864 
L 303.735718 212.614808 
L 303.767756 212.528287 
L 303.863871 212.528287 
L 303.895909 212.65023 
L 303.959986 212.540196 
L 304.216292 212.536447 
L 304.376483 212.725722 
L 304.536675 212.782855 
L 304.921134 212.883981 
L 305.081325 213.014864 
L 305.209478 212.837784 
L 305.241517 212.837784 
L 305.273555 213.014864 
L 305.337632 212.911371 
L 305.465785 212.837784 
L 305.497823 212.931954 
L 305.5619 212.837784 
L 306.074512 212.840992 
L 306.138589 213.000168 
L 306.170627 212.830273 
L 306.619163 212.833622 
L 306.747316 212.983759 
L 306.875469 212.983759 
L 307.003622 213.115734 
L 307.291967 213.138365 
L 308.317191 213.130766 
L 308.413306 213.259366 
L 308.509421 213.130766 
L 308.541459 213.144788 
L 308.605536 213.130766 
L 308.637574 213.304344 
L 308.733689 213.215589 
L 309.374455 213.304344 
L 309.502608 213.386668 
L 309.951144 213.386668 
L 311.200636 213.495629 
L 311.296751 213.546347 
L 311.328789 213.503228 
L 311.456943 213.495629 
L 311.585096 213.386668 
L 311.809364 213.455223 
L 311.937517 213.672989 
L 312.482167 213.779593 
L 312.642359 213.879268 
L 312.99478 213.904389 
L 313.122933 214.072309 
L 313.283124 213.904389 
L 313.699622 214.176485 
L 313.859813 214.089707 
L 313.987967 214.176485 
L 314.020005 214.139018 
L 314.66077 214.139018 
L 314.692809 214.261852 
L 314.756885 214.147987 
L 315.269498 214.116683 
L 315.397651 214.281787 
L 315.58988 214.266159 
L 316.070455 214.25834 
L 316.486952 214.25834 
L 316.51899 214.426261 
L 316.583067 214.25834 
L 318.793708 214.277665 
L 318.921861 214.380605 
L 319.146129 214.380605 
L 319.210206 214.562637 
L 319.242244 214.380605 
L 320.844158 214.489641 
L 320.908234 214.489641 
L 321.036388 214.310692 
L 321.613077 214.341216 
L 321.645115 214.426304 
L 321.709191 214.303646 
L 321.74123 214.388859 
L 321.901421 214.165419 
L 322.093651 214.165419 
L 322.125689 214.317304 
L 322.221804 214.23992 
L 326.002321 214.256435 
L 326.034359 214.351695 
L 326.130474 214.297843 
L 326.38678 214.40673 
L 326.611048 214.40673 
L 327.50812 214.410758 
L 327.572196 214.859193 
L 327.604234 214.422708 
L 328.020732 214.410839 
L 328.180923 214.60474 
L 328.373153 214.60474 
L 328.565383 214.59119 
L 328.661498 214.430054 
L 328.693536 214.452714 
L 329.077995 214.515815 
L 329.334301 214.731864 
L 329.36634 214.693589 
L 329.430416 214.760033 
L 329.91099 214.819849 
L 330.039144 215.359557 
L 330.167297 215.392336 
L 330.199335 215.519208 
L 330.231373 215.368247 
L 330.263411 215.368247 
L 330.359526 215.368247 
L 330.487679 215.494137 
L 330.615833 215.494137 
L 330.711947 215.368247 
L 330.8401 215.494137 
L 331.737172 215.590157 
L 331.801249 215.784138 
L 331.833287 215.590157 
L 332.057555 215.619063 
L 332.185708 215.872135 
L 332.217746 215.872135 
L 332.249785 216.02128 
L 332.3459 215.942514 
L 333.210933 215.872135 
L 333.307048 215.872054 
L 333.659469 215.958511 
L 334.140043 215.953288 
L 334.268196 216.123085 
L 334.652656 216.125082 
L 334.684694 216.240588 
L 334.74877 216.117861 
L 335.005077 216.43457 
L 335.037115 216.285425 
L 335.13323 216.357974 
L 335.293421 216.278882 
L 335.357498 216.355804 
L 335.549727 216.602767 
L 335.67788 216.466108 
L 336.126416 216.574345 
L 336.350684 216.574345 
L 336.446799 216.574345 
L 336.510876 216.726712 
L 336.574952 216.704787 
L 336.671067 216.624748 
L 336.831258 216.574345 
L 336.99145 216.704787 
L 337.087565 216.601592 
L 337.119603 216.618405 
L 337.279794 216.657343 
L 337.439986 216.657343 
L 337.472024 217.606011 
L 337.5361 216.806487 
L 337.664254 216.690981 
L 338.208904 216.731649 
L 338.337057 217.019548 
L 338.529287 217.164659 
L 338.561325 217.281419 
L 338.593364 217.116665 
L 338.721517 217.060286 
L 339.458397 217.135082 
L 339.554512 218.08375 
L 339.58655 218.01379 
L 340.131201 218.047428 
L 340.195278 218.01379 
L 340.227316 218.130631 
L 340.323431 218.072863 
L 340.451584 218.063341 
L 340.483622 218.145099 
L 340.547699 218.063341 
L 340.643813 218.01379 
L 340.771967 218.282667 
L 340.836043 218.145099 
L 340.90012 218.162691 
L 340.932158 218.145099 
L 341.060311 218.338341 
L 342.534072 218.306071 
L 342.56611 218.209753 
L 342.662225 218.26009 
L 342.75834 218.314318 
L 342.822416 218.363129 
L 342.886493 218.26009 
L 342.918531 218.383856 
L 342.982608 218.26009 
L 343.30299 218.317684 
L 343.431144 218.456121 
L 343.463182 218.421366 
L 344.2321 218.495191 
L 344.392292 218.575315 
L 345.385478 218.516087 
L 345.641785 218.736228 
L 345.769938 218.497952 
L 345.898091 218.843668 
L 346.506818 218.822305 
L 346.506818 218.822305 
" clip-path="url(#p4d574bf309)" style="fill: none; stroke: #1f77b4; stroke-width: 1.5; stroke-linecap: square"/>
   </g>
   <g id="patch_3">
    <path d="M 26.925 228.96 
L 26.925 7.2 
" style="fill: none; stroke: #000000; stroke-width: 0.8; stroke-linejoin: miter; stroke-linecap: square"/>
   </g>
   <g id="patch_4">
    <path d="M 361.725 228.96 
L 361.725 7.2 
" style="fill: none; stroke: #000000; stroke-width: 0.8; stroke-linejoin: miter; stroke-linecap: square"/>
   </g>
   <g id="patch_5">
    <path d="M 26.925 228.96 
L 361.725 228.96 
" style="fill: none; stroke: #000000; stroke-width: 0.8; stroke-linejoin: miter; stroke-linecap: square"/>
   </g>
   <g id="patch_6">
    <path d="M 26.925 7.2 
L 361.725 7.2 
" style="fill: none; stroke: #000000; stroke-width: 0.8; stroke-linejoin: miter; stroke-linecap: square"/>
   </g>
  </g>
 </g>
 <defs>
  <clipPath id="p4d574bf309">
   <rect x="26.925" y="7.2" width="334.8" height="221.76"/>
  </clipPath>
 </defs>
</svg>
