<?xml version="1.0" encoding="utf-8" standalone="no"?>
<!DOCTYPE svg PUBLIC "-//W3C//DTD SVG 1.1//EN"
  "http://www.w3.org/Graphics/SVG/1.1/DTD/svg11.dtd">
<svg xmlns:xlink="http://www.w3.org/1999/xlink" width="369.858322pt" height="252.838125pt" viewBox="0 0 369.858322 252.838125" xmlns="http://www.w3.org/2000/svg" version="1.1">
 <metadata>
  <rdf:RDF xmlns:dc="http://purl.org/dc/elements/1.1/" xmlns:cc="http://creativecommons.org/ns#" xmlns:rdf="http://www.w3.org/1999/02/22-rdf-syntax-ns#">
   <cc:Work>
    <dc:type rdf:resource="http://purl.org/dc/dcmitype/StillImage"/>
    <dc:date>2023-04-18T05:45:43.418377</dc:date>
    <dc:format>image/svg+xml</dc:format>
    <dc:creator>
     <cc:Agent>
      <dc:title>Matplotlib v3.7.1, https://matplotlib.org/</dc:title>
     </cc:Agent>
    </dc:creator>
   </cc:Work>
  </rdf:RDF>
 </metadata>
 <defs>
  <style type="text/css">*{stroke-linejoin: round; stroke-linecap: butt}</style>
 </defs>
 <g id="figure_1">
  <g id="patch_1">
   <path d="M -0 252.838125 
L 369.858322 252.838125 
L 369.858322 0 
L -0 0 
z
" style="fill: #ffffff"/>
  </g>
  <g id="axes_1">
   <g id="patch_2">
    <path d="M 26.925 228.96 
L 361.725 228.96 
L 361.725 7.2 
L 26.925 7.2 
z
" style="fill: #ffffff"/>
   </g>
   <g id="matplotlib.axis_1">
    <g id="xtick_1">
     <g id="line2d_1">
      <defs>
       <path id="m6ed60a58ba" d="M 0 0 
L 0 3.5 
" style="stroke: #000000; stroke-width: 0.8"/>
      </defs>
      <g>
       <use xlink:href="#m6ed60a58ba" x="42.006204" y="228.96" style="stroke: #000000; stroke-width: 0.8"/>
      </g>
     </g>
     <g id="text_1">
      <!-- 0 -->
      <g transform="translate(38.824954 243.558438) scale(0.1 -0.1)">
       <defs>
        <path id="DejaVuSans-30" d="M 2034 4250 
Q 1547 4250 1301 3770 
Q 1056 3291 1056 2328 
Q 1056 1369 1301 889 
Q 1547 409 2034 409 
Q 2525 409 2770 889 
Q 3016 1369 3016 2328 
Q 3016 3291 2770 3770 
Q 2525 4250 2034 4250 
z
M 2034 4750 
Q 2819 4750 3233 4129 
Q 3647 3509 3647 2328 
Q 3647 1150 3233 529 
Q 2819 -91 2034 -91 
Q 1250 -91 836 529 
Q 422 1150 422 2328 
Q 422 3509 836 4129 
Q 1250 4750 2034 4750 
z
" transform="scale(0.015625)"/>
       </defs>
       <use xlink:href="#DejaVuSans-30"/>
      </g>
     </g>
    </g>
    <g id="xtick_2">
     <g id="line2d_2">
      <g>
       <use xlink:href="#m6ed60a58ba" x="103.591628" y="228.96" style="stroke: #000000; stroke-width: 0.8"/>
      </g>
     </g>
     <g id="text_2">
      <!-- 500 -->
      <g transform="translate(94.047878 243.558438) scale(0.1 -0.1)">
       <defs>
        <path id="DejaVuSans-35" d="M 691 4666 
L 3169 4666 
L 3169 4134 
L 1269 4134 
L 1269 2991 
Q 1406 3038 1543 3061 
Q 1681 3084 1819 3084 
Q 2600 3084 3056 2656 
Q 3513 2228 3513 1497 
Q 3513 744 3044 326 
Q 2575 -91 1722 -91 
Q 1428 -91 1123 -41 
Q 819 9 494 109 
L 494 744 
Q 775 591 1075 516 
Q 1375 441 1709 441 
Q 2250 441 2565 725 
Q 2881 1009 2881 1497 
Q 2881 1984 2565 2268 
Q 2250 2553 1709 2553 
Q 1456 2553 1204 2497 
Q 953 2441 691 2322 
L 691 4666 
z
" transform="scale(0.015625)"/>
       </defs>
       <use xlink:href="#DejaVuSans-35"/>
       <use xlink:href="#DejaVuSans-30" x="63.623047"/>
       <use xlink:href="#DejaVuSans-30" x="127.246094"/>
      </g>
     </g>
    </g>
    <g id="xtick_3">
     <g id="line2d_3">
      <g>
       <use xlink:href="#m6ed60a58ba" x="165.177052" y="228.96" style="stroke: #000000; stroke-width: 0.8"/>
      </g>
     </g>
     <g id="text_3">
      <!-- 1000 -->
      <g transform="translate(152.452052 243.558438) scale(0.1 -0.1)">
       <defs>
        <path id="DejaVuSans-31" d="M 794 531 
L 1825 531 
L 1825 4091 
L 703 3866 
L 703 4441 
L 1819 4666 
L 2450 4666 
L 2450 531 
L 3481 531 
L 3481 0 
L 794 0 
L 794 531 
z
" transform="scale(0.015625)"/>
       </defs>
       <use xlink:href="#DejaVuSans-31"/>
       <use xlink:href="#DejaVuSans-30" x="63.623047"/>
       <use xlink:href="#DejaVuSans-30" x="127.246094"/>
       <use xlink:href="#DejaVuSans-30" x="190.869141"/>
      </g>
     </g>
    </g>
    <g id="xtick_4">
     <g id="line2d_4">
      <g>
       <use xlink:href="#m6ed60a58ba" x="226.762475" y="228.96" style="stroke: #000000; stroke-width: 0.8"/>
      </g>
     </g>
     <g id="text_4">
      <!-- 1500 -->
      <g transform="translate(214.037475 243.558438) scale(0.1 -0.1)">
       <use xlink:href="#DejaVuSans-31"/>
       <use xlink:href="#DejaVuSans-35" x="63.623047"/>
       <use xlink:href="#DejaVuSans-30" x="127.246094"/>
       <use xlink:href="#DejaVuSans-30" x="190.869141"/>
      </g>
     </g>
    </g>
    <g id="xtick_5">
     <g id="line2d_5">
      <g>
       <use xlink:href="#m6ed60a58ba" x="288.347899" y="228.96" style="stroke: #000000; stroke-width: 0.8"/>
      </g>
     </g>
     <g id="text_5">
      <!-- 2000 -->
      <g transform="translate(275.622899 243.558438) scale(0.1 -0.1)">
       <defs>
        <path id="DejaVuSans-32" d="M 1228 531 
L 3431 531 
L 3431 0 
L 469 0 
L 469 531 
Q 828 903 1448 1529 
Q 2069 2156 2228 2338 
Q 2531 2678 2651 2914 
Q 2772 3150 2772 3378 
Q 2772 3750 2511 3984 
Q 2250 4219 1831 4219 
Q 1534 4219 1204 4116 
Q 875 4013 500 3803 
L 500 4441 
Q 881 4594 1212 4672 
Q 1544 4750 1819 4750 
Q 2544 4750 2975 4387 
Q 3406 4025 3406 3419 
Q 3406 3131 3298 2873 
Q 3191 2616 2906 2266 
Q 2828 2175 2409 1742 
Q 1991 1309 1228 531 
z
" transform="scale(0.015625)"/>
       </defs>
       <use xlink:href="#DejaVuSans-32"/>
       <use xlink:href="#DejaVuSans-30" x="63.623047"/>
       <use xlink:href="#DejaVuSans-30" x="127.246094"/>
       <use xlink:href="#DejaVuSans-30" x="190.869141"/>
      </g>
     </g>
    </g>
    <g id="xtick_6">
     <g id="line2d_6">
      <g>
       <use xlink:href="#m6ed60a58ba" x="349.933322" y="228.96" style="stroke: #000000; stroke-width: 0.8"/>
      </g>
     </g>
     <g id="text_6">
      <!-- 2500 -->
      <g transform="translate(337.208322 243.558438) scale(0.1 -0.1)">
       <use xlink:href="#DejaVuSans-32"/>
       <use xlink:href="#DejaVuSans-35" x="63.623047"/>
       <use xlink:href="#DejaVuSans-30" x="127.246094"/>
       <use xlink:href="#DejaVuSans-30" x="190.869141"/>
      </g>
     </g>
    </g>
   </g>
   <g id="matplotlib.axis_2">
    <g id="ytick_1">
     <g id="line2d_7">
      <defs>
       <path id="m743452256b" d="M 0 0 
L -3.5 0 
" style="stroke: #000000; stroke-width: 0.8"/>
      </defs>
      <g>
       <use xlink:href="#m743452256b" x="26.925" y="205.163984" style="stroke: #000000; stroke-width: 0.8"/>
      </g>
     </g>
     <g id="text_7">
      <!-- 65 -->
      <g transform="translate(7.2 208.963203) scale(0.1 -0.1)">
       <defs>
        <path id="DejaVuSans-36" d="M 2113 2584 
Q 1688 2584 1439 2293 
Q 1191 2003 1191 1497 
Q 1191 994 1439 701 
Q 1688 409 2113 409 
Q 2538 409 2786 701 
Q 3034 994 3034 1497 
Q 3034 2003 2786 2293 
Q 2538 2584 2113 2584 
z
M 3366 4563 
L 3366 3988 
Q 3128 4100 2886 4159 
Q 2644 4219 2406 4219 
Q 1781 4219 1451 3797 
Q 1122 3375 1075 2522 
Q 1259 2794 1537 2939 
Q 1816 3084 2150 3084 
Q 2853 3084 3261 2657 
Q 3669 2231 3669 1497 
Q 3669 778 3244 343 
Q 2819 -91 2113 -91 
Q 1303 -91 875 529 
Q 447 1150 447 2328 
Q 447 3434 972 4092 
Q 1497 4750 2381 4750 
Q 2619 4750 2861 4703 
Q 3103 4656 3366 4563 
z
" transform="scale(0.015625)"/>
       </defs>
       <use xlink:href="#DejaVuSans-36"/>
       <use xlink:href="#DejaVuSans-35" x="63.623047"/>
      </g>
     </g>
    </g>
    <g id="ytick_2">
     <g id="line2d_8">
      <g>
       <use xlink:href="#m743452256b" x="26.925" y="169.594181" style="stroke: #000000; stroke-width: 0.8"/>
      </g>
     </g>
     <g id="text_8">
      <!-- 70 -->
      <g transform="translate(7.2 173.393399) scale(0.1 -0.1)">
       <defs>
        <path id="DejaVuSans-37" d="M 525 4666 
L 3525 4666 
L 3525 4397 
L 1831 0 
L 1172 0 
L 2766 4134 
L 525 4134 
L 525 4666 
z
" transform="scale(0.015625)"/>
       </defs>
       <use xlink:href="#DejaVuSans-37"/>
       <use xlink:href="#DejaVuSans-30" x="63.623047"/>
      </g>
     </g>
    </g>
    <g id="ytick_3">
     <g id="line2d_9">
      <g>
       <use xlink:href="#m743452256b" x="26.925" y="134.024377" style="stroke: #000000; stroke-width: 0.8"/>
      </g>
     </g>
     <g id="text_9">
      <!-- 75 -->
      <g transform="translate(7.2 137.823596) scale(0.1 -0.1)">
       <use xlink:href="#DejaVuSans-37"/>
       <use xlink:href="#DejaVuSans-35" x="63.623047"/>
      </g>
     </g>
    </g>
    <g id="ytick_4">
     <g id="line2d_10">
      <g>
       <use xlink:href="#m743452256b" x="26.925" y="98.454573" style="stroke: #000000; stroke-width: 0.8"/>
      </g>
     </g>
     <g id="text_10">
      <!-- 80 -->
      <g transform="translate(7.2 102.253792) scale(0.1 -0.1)">
       <defs>
        <path id="DejaVuSans-38" d="M 2034 2216 
Q 1584 2216 1326 1975 
Q 1069 1734 1069 1313 
Q 1069 891 1326 650 
Q 1584 409 2034 409 
Q 2484 409 2743 651 
Q 3003 894 3003 1313 
Q 3003 1734 2745 1975 
Q 2488 2216 2034 2216 
z
M 1403 2484 
Q 997 2584 770 2862 
Q 544 3141 544 3541 
Q 544 4100 942 4425 
Q 1341 4750 2034 4750 
Q 2731 4750 3128 4425 
Q 3525 4100 3525 3541 
Q 3525 3141 3298 2862 
Q 3072 2584 2669 2484 
Q 3125 2378 3379 2068 
Q 3634 1759 3634 1313 
Q 3634 634 3220 271 
Q 2806 -91 2034 -91 
Q 1263 -91 848 271 
Q 434 634 434 1313 
Q 434 1759 690 2068 
Q 947 2378 1403 2484 
z
M 1172 3481 
Q 1172 3119 1398 2916 
Q 1625 2713 2034 2713 
Q 2441 2713 2670 2916 
Q 2900 3119 2900 3481 
Q 2900 3844 2670 4047 
Q 2441 4250 2034 4250 
Q 1625 4250 1398 4047 
Q 1172 3844 1172 3481 
z
" transform="scale(0.015625)"/>
       </defs>
       <use xlink:href="#DejaVuSans-38"/>
       <use xlink:href="#DejaVuSans-30" x="63.623047"/>
      </g>
     </g>
    </g>
    <g id="ytick_5">
     <g id="line2d_11">
      <g>
       <use xlink:href="#m743452256b" x="26.925" y="62.88477" style="stroke: #000000; stroke-width: 0.8"/>
      </g>
     </g>
     <g id="text_11">
      <!-- 85 -->
      <g transform="translate(7.2 66.683988) scale(0.1 -0.1)">
       <use xlink:href="#DejaVuSans-38"/>
       <use xlink:href="#DejaVuSans-35" x="63.623047"/>
      </g>
     </g>
    </g>
    <g id="ytick_6">
     <g id="line2d_12">
      <g>
       <use xlink:href="#m743452256b" x="26.925" y="27.314966" style="stroke: #000000; stroke-width: 0.8"/>
      </g>
     </g>
     <g id="text_12">
      <!-- 90 -->
      <g transform="translate(7.2 31.114185) scale(0.1 -0.1)">
       <defs>
        <path id="DejaVuSans-39" d="M 703 97 
L 703 672 
Q 941 559 1184 500 
Q 1428 441 1663 441 
Q 2288 441 2617 861 
Q 2947 1281 2994 2138 
Q 2813 1869 2534 1725 
Q 2256 1581 1919 1581 
Q 1219 1581 811 2004 
Q 403 2428 403 3163 
Q 403 3881 828 4315 
Q 1253 4750 1959 4750 
Q 2769 4750 3195 4129 
Q 3622 3509 3622 2328 
Q 3622 1225 3098 567 
Q 2575 -91 1691 -91 
Q 1453 -91 1209 -44 
Q 966 3 703 97 
z
M 1959 2075 
Q 2384 2075 2632 2365 
Q 2881 2656 2881 3163 
Q 2881 3666 2632 3958 
Q 2384 4250 1959 4250 
Q 1534 4250 1286 3958 
Q 1038 3666 1038 3163 
Q 1038 2656 1286 2365 
Q 1534 2075 1959 2075 
z
" transform="scale(0.015625)"/>
       </defs>
       <use xlink:href="#DejaVuSans-39"/>
       <use xlink:href="#DejaVuSans-30" x="63.623047"/>
      </g>
     </g>
    </g>
   </g>
   <g id="line2d_13">
    <path d="M 42.143182 17.28 
L 42.47743 17.478369 
L 42.819246 18.856564 
L 43.426592 23.411866 
L 43.677811 24.521281 
L 43.987972 25.377411 
L 44.330219 27.452733 
L 44.609064 30.210246 
L 45.271284 30.210246 
L 45.593011 30.527308 
L 45.938009 32.009826 
L 46.201989 30.210246 
L 46.528801 30.3058 
L 46.858303 31.680434 
L 47.17726 31.852901 
L 47.781394 32.900255 
L 48.075332 34.565841 
L 48.407611 34.650364 
L 48.709158 34.565841 
L 49.277402 37.785902 
L 49.581213 37.799894 
L 49.895515 38.125321 
L 50.140923 38.125321 
L 50.42029 38.608889 
L 50.964433 38.629291 
L 51.890036 39.058786 
L 52.207811 40.054583 
L 52.513263 40.201579 
L 52.82463 40.201579 
L 53.12652 40.383255 
L 53.44841 41.103425 
L 53.772108 42.989607 
L 54.04742 43.04858 
L 54.317097 43.552443 
L 54.602695 45.585872 
L 54.852742 46.217082 
L 55.130976 46.217082 
L 55.430818 46.603008 
L 56.05882 46.685432 
L 56.344463 47.417031 
L 56.658919 47.324109 
L 56.921751 48.55499 
L 57.227829 48.930719 
L 57.819753 48.930719 
L 58.143088 49.57266 
L 58.444609 50.570458 
L 58.766144 50.879296 
L 59.062129 50.879296 
L 59.39542 51.443168 
L 60.01806 53.282398 
L 60.309865 53.282398 
L 60.609785 53.512309 
L 60.919086 53.512956 
L 61.540377 54.865343 
L 61.793788 54.903502 
L 62.090337 55.884684 
L 62.715648 55.916517 
L 62.947466 56.834482 
L 63.268442 58.842862 
L 63.549932 58.842862 
L 63.874818 59.843839 
L 64.117603 59.375106 
L 64.424415 60.009575 
L 64.696142 60.009575 
L 65.021564 60.424795 
L 65.366819 61.515916 
L 65.67568 60.971305 
L 66.541214 62.211088 
L 67.159626 63.286853 
L 67.467749 63.286853 
L 67.791275 62.795764 
L 68.032918 63.085553 
L 68.356631 63.172818 
L 68.956407 63.740886 
L 70.192803 64.028349 
L 70.487648 65.12216 
L 71.086931 65.12347 
L 71.404284 66.685694 
L 71.737043 65.775996 
L 72.043811 65.931062 
L 72.69225 66.802832 
L 72.98646 66.589837 
L 73.309699 67.0888 
L 73.596453 67.244711 
L 73.829792 67.585037 
L 74.759665 68.403617 
L 75.37581 68.313255 
L 75.656517 70.526738 
L 75.924509 70.526738 
L 76.214281 70.968333 
L 76.57053 70.728654 
L 76.879058 71.154556 
L 77.180155 72.376005 
L 77.446228 72.376005 
L 77.780476 72.87807 
L 78.111027 73.901385 
L 78.395778 73.901385 
L 78.704147 74.561853 
L 78.990937 74.695514 
L 79.318438 74.975377 
L 79.632266 74.975377 
L 79.978506 75.109038 
L 80.284664 75.393518 
L 80.861399 75.444315 
L 81.145646 75.667406 
L 81.780298 76.734459 
L 82.133422 77.43213 
L 82.436005 77.462997 
L 83.026154 78.102507 
L 83.330987 78.160303 
L 83.681862 78.502225 
L 83.967991 79.650867 
L 84.601685 79.650867 
L 84.902016 80.335916 
L 85.175062 80.055161 
L 85.478071 80.667702 
L 85.804794 80.667702 
L 86.128869 81.401979 
L 86.469497 81.538942 
L 86.754904 81.401979 
L 87.425239 81.588756 
L 87.76679 81.616375 
L 87.998876 82.103632 
L 88.31634 82.103632 
L 88.655435 82.374938 
L 89.279285 83.60268 
L 89.887517 83.657396 
L 90.465579 84.105593 
L 90.783369 84.99154 
L 91.030551 84.522127 
L 91.680609 85.473009 
L 91.990777 85.473009 
L 92.59046 85.702679 
L 92.922723 85.543199 
L 93.2627 85.928674 
L 93.581414 85.928674 
L 93.860592 86.500893 
L 94.1868 86.899262 
L 94.430525 87.017299 
L 94.755316 87.017299 
L 95.383413 87.56924 
L 95.662306 87.613599 
L 95.966844 88.753029 
L 96.276303 88.419702 
L 96.555645 89.463141 
L 96.885004 89.982114 
L 97.818439 89.982114 
L 98.139929 90.488991 
L 98.413525 90.624732 
L 98.732124 90.573288 
L 99.373194 90.780653 
L 99.689889 91.519805 
L 99.976912 91.78461 
L 100.308034 91.575276 
L 100.583122 92.388176 
L 101.51394 92.388176 
L 101.819428 93.399737 
L 102.145836 93.616893 
L 102.479868 93.103145 
L 102.789345 93.734022 
L 103.422028 94.243851 
L 103.712627 94.016466 
L 103.996012 94.3908 
L 104.334295 94.574823 
L 104.610115 95.357667 
L 104.904829 94.616616 
L 105.169288 95.048411 
L 105.450097 95.280872 
L 105.773469 95.230744 
L 106.052035 95.792502 
L 106.655443 95.792502 
L 106.979062 95.303379 
L 107.241944 95.345172 
L 107.581949 96.079406 
L 107.904972 96.079406 
L 108.20675 96.367456 
L 108.815194 96.592494 
L 109.387763 97.0621 
L 109.715081 97.332439 
L 110.291255 98.531788 
L 110.878716 98.63174 
L 112.142211 99.286029 
L 112.485759 100.138694 
L 112.81156 100.328017 
L 113.120083 100.160581 
L 113.396003 100.190149 
L 113.726616 100.848274 
L 114.276006 100.88654 
L 114.590882 101.139534 
L 114.881145 101.589298 
L 115.233901 101.818127 
L 115.510842 103.144506 
L 116.137636 103.144506 
L 116.460521 103.616034 
L 116.757291 103.388125 
L 117.057349 103.955391 
L 117.657204 104.330027 
L 117.950988 105.07914 
L 118.561377 105.661796 
L 118.848678 105.816519 
L 119.135619 105.662394 
L 119.787533 105.728653 
L 120.976546 106.78509 
L 121.268388 106.916006 
L 121.898923 107.575143 
L 122.175615 107.575143 
L 122.500836 108.973452 
L 122.806685 108.973452 
L 123.087685 109.13209 
L 123.966216 110.869434 
L 124.277362 110.869434 
L 124.593983 110.747556 
L 124.918032 111.00345 
L 125.883735 111.00345 
L 126.136745 111.137906 
L 126.478056 111.608872 
L 126.772585 111.092293 
L 127.049777 111.857433 
L 127.381957 111.706192 
L 127.643597 112.198544 
L 127.994726 111.846263 
L 128.290863 112.854386 
L 128.632585 112.854386 
L 128.886991 113.375529 
L 129.176351 112.854386 
L 129.46408 112.974092 
L 129.768906 113.55336 
L 130.021501 113.560753 
L 130.322849 113.708549 
L 130.65238 115.496008 
L 130.971744 114.889745 
L 131.584954 116.346128 
L 132.853888 116.731193 
L 133.137159 117.485117 
L 133.43468 117.671407 
L 133.75866 118.198362 
L 134.400213 118.203919 
L 134.728222 119.199115 
L 135.048849 119.199115 
L 135.387042 120.148812 
L 135.727478 120.148812 
L 136.039052 120.57203 
L 136.347509 120.16421 
L 136.593826 120.3236 
L 136.92641 120.247814 
L 137.232875 120.664811 
L 137.539394 120.664811 
L 137.862712 120.960569 
L 138.426031 121.936091 
L 138.759515 121.967145 
L 139.111798 122.159573 
L 139.628895 122.060874 
L 139.871843 122.123048 
L 140.845426 123.008307 
L 141.108482 123.008307 
L 141.431409 123.635783 
L 142.635188 123.658297 
L 142.968182 123.748479 
L 143.255375 124.278807 
L 143.865103 124.314724 
L 144.170189 124.473303 
L 144.475941 124.992116 
L 144.764237 124.992116 
L 145.072262 125.429847 
L 145.677392 125.508864 
L 146.894916 126.552595 
L 147.479556 126.552595 
L 148.397331 127.136471 
L 148.723927 127.490041 
L 149.059194 127.490041 
L 149.670575 128.167308 
L 150.272621 128.167308 
L 150.537806 128.296446 
L 150.851977 128.915414 
L 151.117635 128.720355 
L 151.445749 128.933587 
L 151.770492 129.725329 
L 152.103099 129.725329 
L 152.45315 130.105829 
L 152.723071 131.152861 
L 153.550849 131.462935 
L 153.817984 132.073315 
L 154.149965 132.073315 
L 154.47007 131.76527 
L 155.081633 132.144052 
L 155.421972 132.45962 
L 155.770184 132.616846 
L 156.005349 132.93656 
L 156.351741 133.011819 
L 156.6475 133.373828 
L 157.219636 133.401352 
L 157.532764 133.967148 
L 158.126288 134.342541 
L 158.424885 135.044734 
L 159.037761 135.044734 
L 159.326947 135.340663 
L 159.666773 135.505482 
L 160.279383 135.526553 
L 160.581963 136.104141 
L 161.148535 135.567427 
L 161.469736 135.80023 
L 161.815043 136.206991 
L 162.114893 136.206991 
L 162.396412 136.416022 
L 163.040776 136.458375 
L 163.293076 136.597801 
L 163.598482 136.597801 
L 163.909437 136.754484 
L 164.240365 137.085574 
L 164.558968 136.951185 
L 164.87481 137.036 
L 165.164283 137.964914 
L 165.486106 138.05502 
L 165.815482 138.428223 
L 166.093401 138.53164 
L 166.416009 138.860072 
L 167.051213 139.082768 
L 167.638056 139.852407 
L 167.913979 140.825807 
L 168.212418 140.301227 
L 168.550117 140.52123 
L 168.80805 140.52123 
L 169.14387 141.058405 
L 169.730822 141.058405 
L 170.037674 140.735768 
L 170.347567 141.12976 
L 170.667381 141.12976 
L 170.942224 140.996385 
L 171.230302 141.415169 
L 171.880431 141.58907 
L 172.160529 141.888477 
L 172.47998 141.980105 
L 172.799113 142.342932 
L 173.105967 142.116504 
L 173.410804 142.347463 
L 173.910176 142.358305 
L 174.210399 142.849608 
L 174.508974 142.669521 
L 174.833158 143.316981 
L 175.111717 143.437715 
L 175.440159 143.843131 
L 175.740426 143.843131 
L 176.538151 144.12716 
L 176.838599 144.12716 
L 177.158377 144.660387 
L 177.479665 144.660387 
L 177.758591 144.798902 
L 178.027452 145.077665 
L 178.360271 146.194283 
L 178.649249 146.194283 
L 178.979159 145.406947 
L 179.296226 145.343026 
L 179.612512 145.593908 
L 179.902109 145.673356 
L 180.514356 147.526854 
L 180.843847 147.526854 
L 181.109399 147.642244 
L 181.673397 147.526854 
L 181.997758 147.9196 
L 182.287901 147.9196 
L 182.529963 147.690279 
L 182.816994 148.020526 
L 183.428125 148.042119 
L 183.737632 148.897797 
L 184.043473 149.220321 
L 184.875945 149.320591 
L 185.506313 149.466015 
L 185.792311 149.607998 
L 186.066412 149.602267 
L 186.39894 149.912376 
L 186.978133 150.080381 
L 187.306889 150.395766 
L 187.892379 150.647275 
L 188.128836 150.772573 
L 188.472217 150.772573 
L 188.769065 151.007171 
L 189.08863 151.527828 
L 189.375375 151.527828 
L 189.649606 151.99451 
L 189.972751 151.923869 
L 190.309581 152.047502 
L 190.595691 151.436125 
L 190.9036 151.483135 
L 191.534234 151.961672 
L 191.842498 151.961672 
L 192.129531 152.361732 
L 192.437542 152.454486 
L 192.743497 152.730326 
L 193.061182 152.730326 
L 193.369753 152.953321 
L 193.694401 152.730326 
L 194.034838 153.1878 
L 194.63809 153.131201 
L 194.93277 153.353948 
L 195.569605 153.535492 
L 196.481112 154.604479 
L 196.763683 154.604479 
L 197.077092 154.916621 
L 197.404669 155.451149 
L 197.692246 155.011643 
L 198.027765 156.188493 
L 198.64929 155.512958 
L 198.937726 155.521289 
L 199.205082 155.765581 
L 199.748017 155.859658 
L 200.09635 156.459623 
L 200.405527 156.517929 
L 200.718917 156.738499 
L 201.025177 157.28386 
L 201.324309 156.959109 
L 201.637074 156.959109 
L 201.95901 157.978517 
L 202.274384 157.978517 
L 202.581564 157.865927 
L 202.909398 158.52307 
L 203.207335 158.743733 
L 203.7854 158.743733 
L 204.080185 159.320924 
L 205.566276 159.378169 
L 206.745719 160.318196 
L 207.042111 160.743027 
L 207.332757 160.9102 
L 207.647583 160.820443 
L 208.272345 161.121168 
L 208.592833 161.427952 
L 208.925478 161.427952 
L 209.226092 161.752543 
L 209.831155 161.915784 
L 210.15729 162.538019 
L 211.30341 162.537827 
L 212.138157 163.051704 
L 212.445132 163.070009 
L 212.752836 163.347453 
L 213.027752 163.304171 
L 213.337107 163.548688 
L 213.621552 163.548688 
L 213.944963 163.904946 
L 214.189745 163.625312 
L 214.514732 164.052104 
L 215.110581 164.143525 
L 215.397066 164.940549 
L 216.691634 165.465647 
L 216.990401 165.686057 
L 217.603868 166.568651 
L 218.580075 166.610559 
L 219.512664 166.836387 
L 219.810192 167.125598 
L 221.368359 167.75971 
L 221.681287 168.018733 
L 221.946922 168.035803 
L 222.274815 168.176509 
L 222.528184 168.437667 
L 223.14773 168.558222 
L 223.441309 168.792489 
L 223.723259 168.792489 
L 224.034542 169.072211 
L 224.654838 168.990041 
L 224.978122 169.657233 
L 225.581433 169.766598 
L 225.854385 170.243256 
L 226.158847 171.052073 
L 226.445548 171.052073 
L 226.724268 171.242359 
L 227.02599 171.84862 
L 227.347212 171.84862 
L 227.611947 171.699426 
L 228.208745 171.699426 
L 228.523318 171.978036 
L 228.869693 171.749014 
L 229.149428 171.832884 
L 229.457549 172.181241 
L 230.340534 172.319491 
L 230.622295 172.248493 
L 230.883881 172.369276 
L 231.171627 172.785529 
L 231.458865 172.499959 
L 232.091254 172.848881 
L 232.391405 173.407742 
L 233.020769 174.013804 
L 233.657321 174.22979 
L 233.968855 174.123276 
L 234.308829 174.12455 
L 234.612885 174.498598 
L 234.913003 174.477688 
L 235.522652 174.725733 
L 235.831358 174.566476 
L 236.823406 175.073286 
L 237.135614 175.194127 
L 237.442403 175.544514 
L 238.337202 175.546383 
L 238.647071 175.772004 
L 238.947924 176.32992 
L 239.200416 176.32992 
L 239.542564 177.042139 
L 239.850564 177.042139 
L 240.478196 177.672701 
L 241.075423 177.618394 
L 241.350246 177.75733 
L 241.630793 177.733878 
L 241.914842 178.183856 
L 242.542635 178.471226 
L 243.111605 178.515353 
L 243.364559 179.066816 
L 243.674991 178.621357 
L 243.955669 178.737086 
L 244.230376 178.987704 
L 244.511239 179.067675 
L 244.808117 179.318292 
L 245.381893 179.338906 
L 245.991475 179.432685 
L 246.254712 179.869034 
L 246.886605 179.869034 
L 247.191946 180.093247 
L 247.468193 180.093247 
L 248.083949 180.45836 
L 249.097823 180.81555 
L 250.048999 181.006777 
L 250.391526 181.610462 
L 250.999968 181.950958 
L 251.273691 181.950958 
L 251.606143 182.771311 
L 251.852681 182.81039 
L 252.135782 183.180978 
L 252.465145 183.180978 
L 252.731739 184.001352 
L 253.924883 184.106666 
L 254.446496 184.602978 
L 254.723255 184.660946 
L 255.023029 185.237251 
L 255.345665 185.253517 
L 255.963815 185.697162 
L 256.560643 185.769367 
L 256.833814 185.829554 
L 257.386899 186.106175 
L 257.71366 186.106175 
L 258.03348 185.93453 
L 258.348488 186.237743 
L 258.692353 186.020598 
L 259.631621 186.429677 
L 260.787352 186.778628 
L 261.091492 187.134565 
L 262.300259 187.163059 
L 262.619848 187.448766 
L 262.921344 187.341573 
L 263.859992 187.485497 
L 264.148121 187.673004 
L 264.753553 187.764507 
L 265.073654 187.992083 
L 266.571266 187.992708 
L 267.193403 188.299084 
L 268.113013 188.299084 
L 268.423172 188.469365 
L 268.718452 188.299084 
L 269.023442 188.596112 
L 269.286807 188.596112 
L 269.88478 188.940452 
L 270.171221 188.985771 
L 270.517534 190.147757 
L 271.643157 190.252325 
L 271.887012 190.704958 
L 272.176109 190.938287 
L 272.517397 191.477792 
L 273.422078 191.970189 
L 273.733662 191.743455 
L 274.066606 191.896047 
L 274.381319 192.263637 
L 275.020143 192.503306 
L 275.321353 192.559846 
L 275.64776 192.792026 
L 275.927335 192.643541 
L 276.213559 193.046214 
L 276.498324 192.630913 
L 277.466605 193.447412 
L 277.791687 193.176469 
L 278.091264 193.113702 
L 278.38018 193.599582 
L 278.697687 193.450952 
L 278.992949 193.828115 
L 279.277065 193.689961 
L 279.582256 193.996589 
L 280.535834 194.077701 
L 281.19503 194.325291 
L 282.124851 194.671424 
L 282.447235 195.19963 
L 283.093025 195.294879 
L 283.423891 195.729329 
L 283.751436 195.88262 
L 284.072835 195.894255 
L 284.383078 195.645071 
L 284.691497 195.997226 
L 284.983848 195.998751 
L 285.272861 196.266518 
L 285.558199 196.755699 
L 285.889856 196.920994 
L 286.208231 196.755699 
L 286.533256 197.160516 
L 287.13409 197.170436 
L 287.429484 197.892925 
L 287.724882 197.979097 
L 288.034154 198.297741 
L 288.335975 198.253808 
L 288.671659 198.823971 
L 288.989822 198.823971 
L 289.650626 199.024858 
L 289.993485 199.540622 
L 290.465583 199.591505 
L 291.078042 199.540622 
L 292.290697 199.945783 
L 292.629868 199.945783 
L 293.533192 200.372918 
L 294.453449 200.363147 
L 294.773447 200.512835 
L 295.04168 200.876419 
L 295.314195 200.876419 
L 295.63283 201.162012 
L 296.292538 201.162012 
L 296.941746 201.603103 
L 298.095338 202.250217 
L 298.370233 202.250217 
L 299.027548 202.675405 
L 299.315261 202.529381 
L 299.966419 202.602149 
L 300.905536 202.866117 
L 301.206847 203.046461 
L 301.529714 203.070044 
L 301.845499 203.481347 
L 303.410438 204.250182 
L 303.707328 204.099893 
L 304.017963 204.353791 
L 304.677319 204.388727 
L 305.287031 205.101391 
L 305.817061 205.163862 
L 306.105801 205.77189 
L 306.425934 205.77189 
L 306.730818 205.48229 
L 307.065173 206.055416 
L 307.667135 205.496416 
L 307.970479 205.660485 
L 308.277861 205.660485 
L 308.59 206.003867 
L 308.878714 206.003867 
L 309.479687 206.226165 
L 310.36214 206.313411 
L 310.658979 207.110612 
L 311.289712 206.655964 
L 311.564184 206.749226 
L 311.892462 206.614537 
L 312.193966 206.661791 
L 312.542015 207.231698 
L 312.839113 206.942591 
L 313.44499 207.196402 
L 313.758239 207.356078 
L 314.10117 207.373504 
L 314.402748 207.751497 
L 314.695382 208.327922 
L 315.018633 207.97427 
L 315.301449 208.008137 
L 315.946765 208.418767 
L 316.258674 208.265974 
L 316.560985 208.338182 
L 317.164481 208.769207 
L 318.097398 209.005975 
L 318.428572 209.164997 
L 318.780114 209.584492 
L 319.701331 209.830139 
L 320.009668 209.726648 
L 320.313008 209.80777 
L 320.954285 209.759534 
L 321.577594 210.154616 
L 322.474278 210.215352 
L 323.115553 210.489495 
L 323.405077 210.409387 
L 323.73509 210.679822 
L 324.085742 210.547896 
L 324.372652 211.021727 
L 324.70758 211.021727 
L 325.632938 211.361844 
L 325.947025 211.361844 
L 326.267743 211.220613 
L 327.48553 211.368903 
L 328.340196 211.748406 
L 328.649036 211.776152 
L 328.937053 211.971622 
L 329.271082 211.971622 
L 329.596469 212.131547 
L 330.201918 212.099329 
L 330.507018 212.254473 
L 331.11033 213.385386 
L 331.443561 212.956194 
L 331.731564 213.117792 
L 332.378168 213.105725 
L 333.033379 213.553244 
L 333.293891 213.334107 
L 333.931174 213.667665 
L 334.876162 213.774612 
L 335.800261 214.411424 
L 336.110862 214.32775 
L 336.445697 214.780403 
L 336.736057 214.931276 
L 337.076824 214.931276 
L 337.380958 215.139031 
L 338.036655 215.072625 
L 338.355934 215.374988 
L 339.023626 215.353902 
L 339.321897 215.531928 
L 339.584658 215.353902 
L 340.439172 215.842724 
L 340.74121 215.842724 
L 341.048917 216.329801 
L 341.624546 216.329801 
L 342.207927 216.601916 
L 342.541605 216.638085 
L 342.868121 217.102985 
L 343.455818 217.102985 
L 345.571336 218.097828 
L 345.879047 218.428485 
L 346.198387 218.38423 
L 346.506818 218.88 
L 346.506818 218.88 
" clip-path="url(#p55ee952131)" style="fill: none; stroke: #1f77b4; stroke-width: 1.5; stroke-linecap: square"/>
   </g>
   <g id="patch_3">
    <path d="M 26.925 228.96 
L 26.925 7.2 
" style="fill: none; stroke: #000000; stroke-width: 0.8; stroke-linejoin: miter; stroke-linecap: square"/>
   </g>
   <g id="patch_4">
    <path d="M 361.725 228.96 
L 361.725 7.2 
" style="fill: none; stroke: #000000; stroke-width: 0.8; stroke-linejoin: miter; stroke-linecap: square"/>
   </g>
   <g id="patch_5">
    <path d="M 26.925 228.96 
L 361.725 228.96 
" style="fill: none; stroke: #000000; stroke-width: 0.8; stroke-linejoin: miter; stroke-linecap: square"/>
   </g>
   <g id="patch_6">
    <path d="M 26.925 7.2 
L 361.725 7.2 
" style="fill: none; stroke: #000000; stroke-width: 0.8; stroke-linejoin: miter; stroke-linecap: square"/>
   </g>
  </g>
 </g>
 <defs>
  <clipPath id="p55ee952131">
   <rect x="26.925" y="7.2" width="334.8" height="221.76"/>
  </clipPath>
 </defs>
</svg>
