<?xml version="1.0" encoding="utf-8" standalone="no"?>
<!DOCTYPE svg PUBLIC "-//W3C//DTD SVG 1.1//EN"
  "http://www.w3.org/Graphics/SVG/1.1/DTD/svg11.dtd">
<svg xmlns:xlink="http://www.w3.org/1999/xlink" width="378.465625pt" height="252.838125pt" viewBox="0 0 378.465625 252.838125" xmlns="http://www.w3.org/2000/svg" version="1.1">
 <metadata>
  <rdf:RDF xmlns:dc="http://purl.org/dc/elements/1.1/" xmlns:cc="http://creativecommons.org/ns#" xmlns:rdf="http://www.w3.org/1999/02/22-rdf-syntax-ns#">
   <cc:Work>
    <dc:type rdf:resource="http://purl.org/dc/dcmitype/StillImage"/>
    <dc:date>2023-04-19T16:55:16.867569</dc:date>
    <dc:format>image/svg+xml</dc:format>
    <dc:creator>
     <cc:Agent>
      <dc:title>Matplotlib v3.6.2, https://matplotlib.org/</dc:title>
     </cc:Agent>
    </dc:creator>
   </cc:Work>
  </rdf:RDF>
 </metadata>
 <defs>
  <style type="text/css">*{stroke-linejoin: round; stroke-linecap: butt}</style>
 </defs>
 <g id="figure_1">
  <g id="patch_1">
   <path d="M 0 252.838125 
L 378.465625 252.838125 
L 378.465625 0 
L 0 0 
z
" style="fill: #ffffff"/>
  </g>
  <g id="axes_1">
   <g id="patch_2">
    <path d="M 36.465625 228.96 
L 371.265625 228.96 
L 371.265625 7.2 
L 36.465625 7.2 
z
" style="fill: #ffffff"/>
   </g>
   <g id="matplotlib.axis_1">
    <g id="xtick_1">
     <g id="line2d_1">
      <defs>
       <path id="ma590a77956" d="M 0 0 
L 0 3.5 
" style="stroke: #000000; stroke-width: 0.8"/>
      </defs>
      <g>
       <use xlink:href="#ma590a77956" x="51.683807" y="228.96" style="stroke: #000000; stroke-width: 0.8"/>
      </g>
     </g>
     <g id="text_1">
      <!-- 0 -->
      <g transform="translate(48.502557 243.558437) scale(0.1 -0.1)">
       <defs>
        <path id="DejaVuSans-30" d="M 2034 4250 
Q 1547 4250 1301 3770 
Q 1056 3291 1056 2328 
Q 1056 1369 1301 889 
Q 1547 409 2034 409 
Q 2525 409 2770 889 
Q 3016 1369 3016 2328 
Q 3016 3291 2770 3770 
Q 2525 4250 2034 4250 
z
M 2034 4750 
Q 2819 4750 3233 4129 
Q 3647 3509 3647 2328 
Q 3647 1150 3233 529 
Q 2819 -91 2034 -91 
Q 1250 -91 836 529 
Q 422 1150 422 2328 
Q 422 3509 836 4129 
Q 1250 4750 2034 4750 
z
" transform="scale(0.015625)"/>
       </defs>
       <use xlink:href="#DejaVuSans-30"/>
      </g>
     </g>
    </g>
    <g id="xtick_2">
     <g id="line2d_2">
      <g>
       <use xlink:href="#ma590a77956" x="112.556534" y="228.96" style="stroke: #000000; stroke-width: 0.8"/>
      </g>
     </g>
     <g id="text_2">
      <!-- 200 -->
      <g transform="translate(103.012784 243.558437) scale(0.1 -0.1)">
       <defs>
        <path id="DejaVuSans-32" d="M 1228 531 
L 3431 531 
L 3431 0 
L 469 0 
L 469 531 
Q 828 903 1448 1529 
Q 2069 2156 2228 2338 
Q 2531 2678 2651 2914 
Q 2772 3150 2772 3378 
Q 2772 3750 2511 3984 
Q 2250 4219 1831 4219 
Q 1534 4219 1204 4116 
Q 875 4013 500 3803 
L 500 4441 
Q 881 4594 1212 4672 
Q 1544 4750 1819 4750 
Q 2544 4750 2975 4387 
Q 3406 4025 3406 3419 
Q 3406 3131 3298 2873 
Q 3191 2616 2906 2266 
Q 2828 2175 2409 1742 
Q 1991 1309 1228 531 
z
" transform="scale(0.015625)"/>
       </defs>
       <use xlink:href="#DejaVuSans-32"/>
       <use xlink:href="#DejaVuSans-30" x="63.623047"/>
       <use xlink:href="#DejaVuSans-30" x="127.246094"/>
      </g>
     </g>
    </g>
    <g id="xtick_3">
     <g id="line2d_3">
      <g>
       <use xlink:href="#ma590a77956" x="173.429261" y="228.96" style="stroke: #000000; stroke-width: 0.8"/>
      </g>
     </g>
     <g id="text_3">
      <!-- 400 -->
      <g transform="translate(163.885511 243.558437) scale(0.1 -0.1)">
       <defs>
        <path id="DejaVuSans-34" d="M 2419 4116 
L 825 1625 
L 2419 1625 
L 2419 4116 
z
M 2253 4666 
L 3047 4666 
L 3047 1625 
L 3713 1625 
L 3713 1100 
L 3047 1100 
L 3047 0 
L 2419 0 
L 2419 1100 
L 313 1100 
L 313 1709 
L 2253 4666 
z
" transform="scale(0.015625)"/>
       </defs>
       <use xlink:href="#DejaVuSans-34"/>
       <use xlink:href="#DejaVuSans-30" x="63.623047"/>
       <use xlink:href="#DejaVuSans-30" x="127.246094"/>
      </g>
     </g>
    </g>
    <g id="xtick_4">
     <g id="line2d_4">
      <g>
       <use xlink:href="#ma590a77956" x="234.301989" y="228.96" style="stroke: #000000; stroke-width: 0.8"/>
      </g>
     </g>
     <g id="text_4">
      <!-- 600 -->
      <g transform="translate(224.758239 243.558437) scale(0.1 -0.1)">
       <defs>
        <path id="DejaVuSans-36" d="M 2113 2584 
Q 1688 2584 1439 2293 
Q 1191 2003 1191 1497 
Q 1191 994 1439 701 
Q 1688 409 2113 409 
Q 2538 409 2786 701 
Q 3034 994 3034 1497 
Q 3034 2003 2786 2293 
Q 2538 2584 2113 2584 
z
M 3366 4563 
L 3366 3988 
Q 3128 4100 2886 4159 
Q 2644 4219 2406 4219 
Q 1781 4219 1451 3797 
Q 1122 3375 1075 2522 
Q 1259 2794 1537 2939 
Q 1816 3084 2150 3084 
Q 2853 3084 3261 2657 
Q 3669 2231 3669 1497 
Q 3669 778 3244 343 
Q 2819 -91 2113 -91 
Q 1303 -91 875 529 
Q 447 1150 447 2328 
Q 447 3434 972 4092 
Q 1497 4750 2381 4750 
Q 2619 4750 2861 4703 
Q 3103 4656 3366 4563 
z
" transform="scale(0.015625)"/>
       </defs>
       <use xlink:href="#DejaVuSans-36"/>
       <use xlink:href="#DejaVuSans-30" x="63.623047"/>
       <use xlink:href="#DejaVuSans-30" x="127.246094"/>
      </g>
     </g>
    </g>
    <g id="xtick_5">
     <g id="line2d_5">
      <g>
       <use xlink:href="#ma590a77956" x="295.174716" y="228.96" style="stroke: #000000; stroke-width: 0.8"/>
      </g>
     </g>
     <g id="text_5">
      <!-- 800 -->
      <g transform="translate(285.630966 243.558437) scale(0.1 -0.1)">
       <defs>
        <path id="DejaVuSans-38" d="M 2034 2216 
Q 1584 2216 1326 1975 
Q 1069 1734 1069 1313 
Q 1069 891 1326 650 
Q 1584 409 2034 409 
Q 2484 409 2743 651 
Q 3003 894 3003 1313 
Q 3003 1734 2745 1975 
Q 2488 2216 2034 2216 
z
M 1403 2484 
Q 997 2584 770 2862 
Q 544 3141 544 3541 
Q 544 4100 942 4425 
Q 1341 4750 2034 4750 
Q 2731 4750 3128 4425 
Q 3525 4100 3525 3541 
Q 3525 3141 3298 2862 
Q 3072 2584 2669 2484 
Q 3125 2378 3379 2068 
Q 3634 1759 3634 1313 
Q 3634 634 3220 271 
Q 2806 -91 2034 -91 
Q 1263 -91 848 271 
Q 434 634 434 1313 
Q 434 1759 690 2068 
Q 947 2378 1403 2484 
z
M 1172 3481 
Q 1172 3119 1398 2916 
Q 1625 2713 2034 2713 
Q 2441 2713 2670 2916 
Q 2900 3119 2900 3481 
Q 2900 3844 2670 4047 
Q 2441 4250 2034 4250 
Q 1625 4250 1398 4047 
Q 1172 3844 1172 3481 
z
" transform="scale(0.015625)"/>
       </defs>
       <use xlink:href="#DejaVuSans-38"/>
       <use xlink:href="#DejaVuSans-30" x="63.623047"/>
       <use xlink:href="#DejaVuSans-30" x="127.246094"/>
      </g>
     </g>
    </g>
    <g id="xtick_6">
     <g id="line2d_6">
      <g>
       <use xlink:href="#ma590a77956" x="356.047443" y="228.96" style="stroke: #000000; stroke-width: 0.8"/>
      </g>
     </g>
     <g id="text_6">
      <!-- 1000 -->
      <g transform="translate(343.322443 243.558437) scale(0.1 -0.1)">
       <defs>
        <path id="DejaVuSans-31" d="M 794 531 
L 1825 531 
L 1825 4091 
L 703 3866 
L 703 4441 
L 1819 4666 
L 2450 4666 
L 2450 531 
L 3481 531 
L 3481 0 
L 794 0 
L 794 531 
z
" transform="scale(0.015625)"/>
       </defs>
       <use xlink:href="#DejaVuSans-31"/>
       <use xlink:href="#DejaVuSans-30" x="63.623047"/>
       <use xlink:href="#DejaVuSans-30" x="127.246094"/>
       <use xlink:href="#DejaVuSans-30" x="190.869141"/>
      </g>
     </g>
    </g>
   </g>
   <g id="matplotlib.axis_2">
    <g id="ytick_1">
     <g id="line2d_7">
      <defs>
       <path id="m8e5191c618" d="M 0 0 
L -3.5 0 
" style="stroke: #000000; stroke-width: 0.8"/>
      </defs>
      <g>
       <use xlink:href="#m8e5191c618" x="36.465625" y="205.302006" style="stroke: #000000; stroke-width: 0.8"/>
      </g>
     </g>
     <g id="text_7">
      <!-- 1.50 -->
      <g transform="translate(7.2 209.101225) scale(0.1 -0.1)">
       <defs>
        <path id="DejaVuSans-2e" d="M 684 794 
L 1344 794 
L 1344 0 
L 684 0 
L 684 794 
z
" transform="scale(0.015625)"/>
        <path id="DejaVuSans-35" d="M 691 4666 
L 3169 4666 
L 3169 4134 
L 1269 4134 
L 1269 2991 
Q 1406 3038 1543 3061 
Q 1681 3084 1819 3084 
Q 2600 3084 3056 2656 
Q 3513 2228 3513 1497 
Q 3513 744 3044 326 
Q 2575 -91 1722 -91 
Q 1428 -91 1123 -41 
Q 819 9 494 109 
L 494 744 
Q 775 591 1075 516 
Q 1375 441 1709 441 
Q 2250 441 2565 725 
Q 2881 1009 2881 1497 
Q 2881 1984 2565 2268 
Q 2250 2553 1709 2553 
Q 1456 2553 1204 2497 
Q 953 2441 691 2322 
L 691 4666 
z
" transform="scale(0.015625)"/>
       </defs>
       <use xlink:href="#DejaVuSans-31"/>
       <use xlink:href="#DejaVuSans-2e" x="63.623047"/>
       <use xlink:href="#DejaVuSans-35" x="95.410156"/>
       <use xlink:href="#DejaVuSans-30" x="159.033203"/>
      </g>
     </g>
    </g>
    <g id="ytick_2">
     <g id="line2d_8">
      <g>
       <use xlink:href="#m8e5191c618" x="36.465625" y="178.45864" style="stroke: #000000; stroke-width: 0.8"/>
      </g>
     </g>
     <g id="text_8">
      <!-- 1.75 -->
      <g transform="translate(7.2 182.257859) scale(0.1 -0.1)">
       <defs>
        <path id="DejaVuSans-37" d="M 525 4666 
L 3525 4666 
L 3525 4397 
L 1831 0 
L 1172 0 
L 2766 4134 
L 525 4134 
L 525 4666 
z
" transform="scale(0.015625)"/>
       </defs>
       <use xlink:href="#DejaVuSans-31"/>
       <use xlink:href="#DejaVuSans-2e" x="63.623047"/>
       <use xlink:href="#DejaVuSans-37" x="95.410156"/>
       <use xlink:href="#DejaVuSans-35" x="159.033203"/>
      </g>
     </g>
    </g>
    <g id="ytick_3">
     <g id="line2d_9">
      <g>
       <use xlink:href="#m8e5191c618" x="36.465625" y="151.615273" style="stroke: #000000; stroke-width: 0.8"/>
      </g>
     </g>
     <g id="text_9">
      <!-- 2.00 -->
      <g transform="translate(7.2 155.414492) scale(0.1 -0.1)">
       <use xlink:href="#DejaVuSans-32"/>
       <use xlink:href="#DejaVuSans-2e" x="63.623047"/>
       <use xlink:href="#DejaVuSans-30" x="95.410156"/>
       <use xlink:href="#DejaVuSans-30" x="159.033203"/>
      </g>
     </g>
    </g>
    <g id="ytick_4">
     <g id="line2d_10">
      <g>
       <use xlink:href="#m8e5191c618" x="36.465625" y="124.771907" style="stroke: #000000; stroke-width: 0.8"/>
      </g>
     </g>
     <g id="text_10">
      <!-- 2.25 -->
      <g transform="translate(7.2 128.571126) scale(0.1 -0.1)">
       <use xlink:href="#DejaVuSans-32"/>
       <use xlink:href="#DejaVuSans-2e" x="63.623047"/>
       <use xlink:href="#DejaVuSans-32" x="95.410156"/>
       <use xlink:href="#DejaVuSans-35" x="159.033203"/>
      </g>
     </g>
    </g>
    <g id="ytick_5">
     <g id="line2d_11">
      <g>
       <use xlink:href="#m8e5191c618" x="36.465625" y="97.92854" style="stroke: #000000; stroke-width: 0.8"/>
      </g>
     </g>
     <g id="text_11">
      <!-- 2.50 -->
      <g transform="translate(7.2 101.727759) scale(0.1 -0.1)">
       <use xlink:href="#DejaVuSans-32"/>
       <use xlink:href="#DejaVuSans-2e" x="63.623047"/>
       <use xlink:href="#DejaVuSans-35" x="95.410156"/>
       <use xlink:href="#DejaVuSans-30" x="159.033203"/>
      </g>
     </g>
    </g>
    <g id="ytick_6">
     <g id="line2d_12">
      <g>
       <use xlink:href="#m8e5191c618" x="36.465625" y="71.085174" style="stroke: #000000; stroke-width: 0.8"/>
      </g>
     </g>
     <g id="text_12">
      <!-- 2.75 -->
      <g transform="translate(7.2 74.884393) scale(0.1 -0.1)">
       <use xlink:href="#DejaVuSans-32"/>
       <use xlink:href="#DejaVuSans-2e" x="63.623047"/>
       <use xlink:href="#DejaVuSans-37" x="95.410156"/>
       <use xlink:href="#DejaVuSans-35" x="159.033203"/>
      </g>
     </g>
    </g>
    <g id="ytick_7">
     <g id="line2d_13">
      <g>
       <use xlink:href="#m8e5191c618" x="36.465625" y="44.241808" style="stroke: #000000; stroke-width: 0.8"/>
      </g>
     </g>
     <g id="text_13">
      <!-- 3.00 -->
      <g transform="translate(7.2 48.041026) scale(0.1 -0.1)">
       <defs>
        <path id="DejaVuSans-33" d="M 2597 2516 
Q 3050 2419 3304 2112 
Q 3559 1806 3559 1356 
Q 3559 666 3084 287 
Q 2609 -91 1734 -91 
Q 1441 -91 1130 -33 
Q 819 25 488 141 
L 488 750 
Q 750 597 1062 519 
Q 1375 441 1716 441 
Q 2309 441 2620 675 
Q 2931 909 2931 1356 
Q 2931 1769 2642 2001 
Q 2353 2234 1838 2234 
L 1294 2234 
L 1294 2753 
L 1863 2753 
Q 2328 2753 2575 2939 
Q 2822 3125 2822 3475 
Q 2822 3834 2567 4026 
Q 2313 4219 1838 4219 
Q 1578 4219 1281 4162 
Q 984 4106 628 3988 
L 628 4550 
Q 988 4650 1302 4700 
Q 1616 4750 1894 4750 
Q 2613 4750 3031 4423 
Q 3450 4097 3450 3541 
Q 3450 3153 3228 2886 
Q 3006 2619 2597 2516 
z
" transform="scale(0.015625)"/>
       </defs>
       <use xlink:href="#DejaVuSans-33"/>
       <use xlink:href="#DejaVuSans-2e" x="63.623047"/>
       <use xlink:href="#DejaVuSans-30" x="95.410156"/>
       <use xlink:href="#DejaVuSans-30" x="159.033203"/>
      </g>
     </g>
    </g>
    <g id="ytick_8">
     <g id="line2d_14">
      <g>
       <use xlink:href="#m8e5191c618" x="36.465625" y="17.398441" style="stroke: #000000; stroke-width: 0.8"/>
      </g>
     </g>
     <g id="text_14">
      <!-- 3.25 -->
      <g transform="translate(7.2 21.19766) scale(0.1 -0.1)">
       <use xlink:href="#DejaVuSans-33"/>
       <use xlink:href="#DejaVuSans-2e" x="63.623047"/>
       <use xlink:href="#DejaVuSans-32" x="95.410156"/>
       <use xlink:href="#DejaVuSans-35" x="159.033203"/>
      </g>
     </g>
    </g>
   </g>
   <g id="line2d_15">
    <path d="M 51.683807 218.88 
L 51.98817 218.88 
L 52.292534 214.384197 
L 52.596898 214.384197 
L 52.901261 206.9466 
L 53.205625 173.619541 
L 53.509989 179.234657 
L 53.814352 176.018284 
L 54.727443 176.018284 
L 55.031807 178.021599 
L 55.33617 184.795724 
L 55.640534 203.713336 
L 55.944898 205.398955 
L 56.249261 205.398955 
L 56.553625 206.324319 
L 56.857989 203.885045 
L 57.162352 205.409284 
L 57.466716 204.942494 
L 57.77108 204.942494 
L 58.075443 204.695432 
L 58.379807 204.949227 
L 58.68417 204.323954 
L 58.988534 204.076892 
L 60.205989 203.850514 
L 60.510352 203.385579 
L 60.814716 203.850514 
L 61.423443 203.415291 
L 61.727807 202.950357 
L 62.03217 203.188913 
L 62.336534 203.188913 
L 62.640898 202.84385 
L 62.945261 202.971041 
L 63.249625 202.723978 
L 64.162716 202.723978 
L 64.46708 201.826006 
L 64.771443 200.338663 
L 65.075807 202.492463 
L 65.684534 202.492463 
L 65.988898 200.76253 
L 66.293261 200.999569 
L 66.597625 200.768053 
L 67.510716 200.768053 
L 67.81508 199.623019 
L 68.119443 196.675479 
L 68.423807 198.36753 
L 68.72817 198.36753 
L 69.032534 198.162822 
L 69.336898 198.36753 
L 69.945625 198.36753 
L 70.249989 197.617058 
L 70.554352 198.36753 
L 70.858716 197.737297 
L 71.16308 198.162822 
L 71.467443 195.97222 
L 72.380534 195.97222 
L 72.684898 196.698452 
L 72.989261 195.553417 
L 73.293625 197.68359 
L 73.597989 196.538556 
L 73.902352 197.68359 
L 74.206716 200.220949 
L 74.51108 197.171441 
L 74.815443 196.538556 
L 75.728534 196.538556 
L 76.032898 195.619949 
L 76.337261 195.619949 
L 76.641625 195.48315 
L 76.945989 196.160909 
L 77.250352 196.160909 
L 77.554716 197.008718 
L 77.85908 196.568933 
L 78.163443 196.568933 
L 78.467807 195.650327 
L 78.77217 195.650327 
L 79.380898 195.329695 
L 79.685261 195.329695 
L 79.989625 194.127646 
L 80.293989 194.127646 
L 80.598352 193.990846 
L 80.902716 193.990846 
L 81.20708 193.07224 
L 82.12017 193.07224 
L 82.424534 192.830036 
L 82.728898 193.279052 
L 83.033261 192.830036 
L 83.337625 193.367175 
L 83.641989 192.60265 
L 83.946352 192.830036 
L 84.250716 192.360446 
L 84.55508 193.279052 
L 84.859443 193.279052 
L 85.163807 192.442374 
L 85.46817 192.484959 
L 85.772534 192.360446 
L 86.076898 192.484959 
L 86.381261 192.484959 
L 86.685625 193.275118 
L 86.989989 191.943282 
L 87.294352 193.620194 
L 87.598716 193.248658 
L 87.90308 192.15991 
L 88.207443 192.903582 
L 88.511807 192.579359 
L 88.81617 192.579359 
L 89.120534 192.148975 
L 89.424898 191.984976 
L 89.729261 192.115096 
L 90.033625 191.581472 
L 90.337989 191.857497 
L 90.642352 191.814834 
L 90.946716 189.797269 
L 91.25108 189.797269 
L 91.555443 189.563908 
L 91.859807 191.405747 
L 92.16417 192.447005 
L 93.077261 192.447005 
L 93.381625 192.07547 
L 93.685989 192.07547 
L 94.294716 191.838551 
L 94.59908 191.350452 
L 94.903443 191.350452 
L 95.207807 191.842108 
L 95.51217 191.621097 
L 96.120898 191.504534 
L 96.425261 191.013226 
L 96.729625 191.289429 
L 97.642716 191.289429 
L 97.94708 190.917893 
L 98.251443 185.979146 
L 98.555807 190.917893 
L 98.86017 189.969474 
L 99.164534 190.684531 
L 99.468898 190.272675 
L 99.773261 190.190963 
L 100.077625 189.405493 
L 100.381989 189.172132 
L 100.686352 188.110997 
L 100.990716 190.272675 
L 101.29508 188.500068 
L 101.599443 188.500068 
L 101.903807 183.561322 
L 102.20817 188.345987 
L 102.512534 188.345987 
L 102.816898 187.318288 
L 103.121261 187.318288 
L 103.425625 187.766758 
L 103.729989 185.321531 
L 104.034352 187.553404 
L 104.338716 187.553404 
L 104.64308 187.21607 
L 105.251807 187.280739 
L 105.55617 187.280739 
L 105.860534 187.164207 
L 106.164898 185.835281 
L 106.773625 185.835281 
L 107.077989 183.743912 
L 107.686716 183.743912 
L 107.99108 180.896534 
L 108.295443 180.909257 
L 108.599807 180.74609 
L 108.90417 180.896534 
L 109.208534 180.28035 
L 109.512898 185.835281 
L 109.817261 186.377704 
L 110.121625 185.876356 
L 110.425989 185.603691 
L 110.730352 183.208652 
L 111.33908 183.208652 
L 111.643443 180.664944 
L 111.947807 180.664944 
L 112.556534 184.180158 
L 112.860898 182.059062 
L 113.469625 182.059062 
L 113.773989 181.727432 
L 114.078352 182.08315 
L 114.382716 182.08315 
L 114.68708 180.019741 
L 114.991443 178.894341 
L 115.295807 180.019741 
L 115.60017 179.718462 
L 116.208898 179.687802 
L 116.513261 180.019741 
L 116.817625 179.718462 
L 117.121989 181.688733 
L 117.426352 179.513579 
L 117.730716 179.664023 
L 118.03508 179.967161 
L 118.339443 179.967161 
L 118.643807 180.206446 
L 118.94817 177.173432 
L 119.252534 179.513579 
L 119.556898 179.70962 
L 119.861261 178.209687 
L 120.165625 178.209687 
L 120.469989 179.786526 
L 120.774352 180.479393 
L 121.078716 179.167805 
L 121.38308 182.036641 
L 121.687443 182.036641 
L 121.991807 183.137363 
L 122.29617 183.137363 
L 122.600534 176.998004 
L 122.904898 181.825775 
L 123.209261 176.998004 
L 123.513625 176.904866 
L 123.817989 179.728852 
L 124.122352 179.308783 
L 124.73108 179.367949 
L 125.035443 178.44251 
L 125.339807 176.573987 
L 125.64417 177.697063 
L 126.252898 176.783381 
L 126.557261 177.490263 
L 126.861625 177.490263 
L 127.165989 177.095846 
L 127.470352 177.85026 
L 127.774716 177.85026 
L 128.07908 175.280689 
L 129.296534 175.280689 
L 129.600898 172.342784 
L 129.905261 175.280689 
L 130.513989 170.773803 
L 130.818352 175.280689 
L 131.122716 174.155289 
L 131.42708 172.206547 
L 131.731443 173.680652 
L 132.035807 172.332204 
L 132.34017 172.247908 
L 132.644534 174.155289 
L 132.948898 171.589082 
L 133.253261 170.579798 
L 133.557625 170.579798 
L 133.861989 172.230253 
L 134.166352 170.346303 
L 134.470716 172.52307 
L 134.77508 171.370103 
L 135.079443 168.81935 
L 135.383807 171.504785 
L 136.296898 174.417081 
L 136.601261 172.463748 
L 136.905625 172.153627 
L 137.209989 168.315225 
L 139.949261 168.315225 
L 140.253625 167.700673 
L 140.557989 170.091894 
L 140.862352 170.091894 
L 141.166716 167.855743 
L 141.47108 163.664734 
L 141.775443 163.664734 
L 142.079807 165.734183 
L 142.38417 166.525122 
L 142.688534 165.91057 
L 142.992898 168.022445 
L 143.297261 165.772859 
L 144.514716 165.772859 
L 144.81908 167.477916 
L 145.123443 166.948411 
L 145.427807 167.030908 
L 145.73217 167.866651 
L 146.036534 169.3767 
L 146.949625 169.3767 
L 147.253989 170.281396 
L 147.558352 157.13184 
L 147.862716 157.13184 
L 148.16708 167.679204 
L 148.471443 167.679204 
L 148.775807 163.004526 
L 149.08017 162.741538 
L 149.384534 161.98442 
L 149.688898 164.862841 
L 149.993261 164.381702 
L 150.297625 162.625738 
L 150.906352 161.357207 
L 151.210716 164.970001 
L 151.819443 157.847402 
L 152.123807 159.166382 
L 152.732534 159.166382 
L 153.036898 156.758488 
L 153.341261 159.166382 
L 153.949989 155.460043 
L 154.254352 159.022173 
L 154.558716 157.30636 
L 154.86308 157.681991 
L 155.167443 157.010168 
L 155.77617 157.898851 
L 156.080534 151.751345 
L 156.384898 156.821274 
L 156.689261 156.06791 
L 156.993625 156.06791 
L 157.297989 156.821274 
L 157.602352 153.335892 
L 157.906716 154.619463 
L 158.21108 154.004911 
L 158.819807 154.004911 
L 159.12417 153.251547 
L 159.428534 153.251547 
L 160.037261 150.444255 
L 160.645989 150.444255 
L 160.950352 151.200609 
L 161.254716 149.194314 
L 161.55908 148.601056 
L 161.863443 153.251547 
L 162.47217 153.251547 
L 162.776534 149.444645 
L 163.080898 150.852537 
L 163.993989 150.838489 
L 164.298352 147.642733 
L 164.602716 150.838489 
L 165.211443 149.082525 
L 165.515807 150.063127 
L 165.82017 149.753006 
L 167.646352 149.753006 
L 167.950716 148.730933 
L 168.25508 149.753006 
L 168.559443 148.67743 
L 169.16817 148.67743 
L 169.472534 147.997042 
L 169.776898 147.997042 
L 170.385625 149.563728 
L 170.994352 149.563728 
L 171.298716 148.488152 
L 171.907443 149.313284 
L 172.211807 149.313284 
L 172.51617 146.671135 
L 172.820534 149.241517 
L 173.429261 149.156207 
L 173.733625 148.033107 
L 174.037989 148.905763 
L 174.342352 147.549516 
L 174.95108 147.004974 
L 175.255443 147.004974 
L 175.559807 146.75453 
L 175.86417 146.116213 
L 176.168534 145.871281 
L 176.472898 145.871281 
L 176.777261 144.934996 
L 177.081625 142.309994 
L 177.385989 142.309994 
L 177.690352 144.006549 
L 177.994716 140.810794 
L 178.29908 140.653716 
L 178.603443 143.984207 
L 178.907807 140.810794 
L 179.516534 140.873937 
L 179.820898 140.873937 
L 180.125261 140.466415 
L 180.429625 140.466415 
L 180.733989 139.323462 
L 181.038352 139.545238 
L 181.342716 139.522895 
L 181.64708 136.602616 
L 181.951443 136.602616 
L 182.255807 136.413115 
L 182.56017 136.602616 
L 182.864534 136.403182 
L 183.473261 136.413115 
L 183.777625 136.213681 
L 185.90817 136.162671 
L 186.212534 135.690592 
L 186.516898 133.49574 
L 186.821261 133.49574 
L 187.125625 132.10677 
L 187.429989 132.10677 
L 187.734352 133.045862 
L 188.038716 139.979279 
L 188.34308 136.487679 
L 188.647443 130.226138 
L 188.951807 130.226138 
L 189.25617 136.200966 
L 189.560534 135.206192 
L 189.864898 136.200966 
L 190.169261 133.00521 
L 190.473625 126.956751 
L 190.777989 125.567781 
L 191.082352 135.462277 
L 191.386716 135.462277 
L 191.69108 123.948152 
L 191.995443 135.255526 
L 192.299807 131.477213 
L 192.60417 134.529408 
L 193.212898 134.529408 
L 193.517261 133.140438 
L 193.821625 129.611534 
L 194.125989 128.495209 
L 194.430352 128.495209 
L 194.734716 123.75302 
L 195.03908 129.611534 
L 195.343443 129.884179 
L 195.647807 129.884179 
L 195.95217 133.327883 
L 196.560898 133.327883 
L 196.865261 132.79538 
L 197.169625 132.79538 
L 197.473989 133.327883 
L 197.778352 133.327883 
L 198.082716 133.013231 
L 198.995807 133.097245 
L 199.30017 129.624349 
L 199.908898 128.938924 
L 200.213261 128.938924 
L 200.517625 130.86112 
L 200.821989 128.291764 
L 201.126352 128.291764 
L 201.430716 132.782593 
L 201.73508 131.393623 
L 202.039443 131.393623 
L 202.343807 125.660769 
L 202.952534 125.660769 
L 203.256898 124.965897 
L 204.169989 124.965897 
L 204.474352 125.582364 
L 204.778716 124.700367 
L 205.08308 125.366916 
L 205.387443 124.489388 
L 205.691807 124.406513 
L 205.99617 124.188576 
L 206.300534 123.76396 
L 206.604898 131.284641 
L 207.213625 119.382142 
L 207.517989 123.046546 
L 207.822352 123.046546 
L 208.126716 121.827852 
L 208.43108 121.827852 
L 208.735443 127.674174 
L 209.039807 126.480656 
L 209.34417 126.480656 
L 209.648534 127.674174 
L 209.952898 116.632898 
L 210.257261 116.810837 
L 210.561625 116.810837 
L 210.865989 115.617319 
L 211.170352 116.210624 
L 211.474716 122.191231 
L 211.77908 110.284675 
L 212.083443 117.989301 
L 212.69217 117.989301 
L 212.996534 121.98738 
L 213.300898 121.98738 
L 213.909625 109.811843 
L 214.213989 109.811843 
L 214.518352 121.802219 
L 214.822716 111.680698 
L 215.12708 111.680698 
L 215.431443 111.492094 
L 216.344534 111.492094 
L 216.648898 111.314239 
L 216.953261 111.314239 
L 217.257625 111.492094 
L 217.561989 110.103124 
L 217.866352 110.103124 
L 218.170716 108.708734 
L 218.47508 111.081201 
L 218.779443 110.681675 
L 219.083807 111.092567 
L 219.38817 110.430012 
L 219.692534 115.854731 
L 219.996898 108.758242 
L 220.301261 108.492103 
L 220.605625 108.758242 
L 220.909989 108.163518 
L 221.214352 108.263856 
L 221.518716 108.05391 
L 222.127443 108.05391 
L 222.431807 109.76641 
L 222.73617 107.080701 
L 223.040534 107.080701 
L 223.344898 107.851755 
L 223.649261 107.851755 
L 223.953625 107.19885 
L 225.475443 107.252258 
L 225.779807 106.097935 
L 226.08417 106.097935 
L 226.388534 105.753833 
L 227.910352 105.753833 
L 228.214716 104.964644 
L 228.51908 103.426695 
L 228.823443 103.426695 
L 229.127807 103.991435 
L 229.736534 103.036911 
L 230.040898 103.036911 
L 230.345261 103.426695 
L 230.649625 104.574861 
L 230.953989 104.106286 
L 231.562716 104.106286 
L 231.86708 102.681415 
L 232.171443 102.681415 
L 232.475807 102.937281 
L 232.78017 102.937281 
L 233.084534 102.390711 
L 233.388898 102.164196 
L 233.693261 102.164196 
L 233.997625 100.852761 
L 234.301989 100.699472 
L 234.606352 106.423171 
L 234.910716 100.674691 
L 235.21508 106.150538 
L 235.519443 100.360924 
L 235.823807 98.3002 
L 236.432534 101.750056 
L 236.736898 98.569531 
L 237.041261 98.569531 
L 237.345625 99.176365 
L 237.649989 100.653031 
L 237.954352 98.203156 
L 238.258716 98.203156 
L 238.56308 98.716521 
L 239.171807 98.716521 
L 239.47617 97.898338 
L 239.780534 97.898338 
L 240.084898 97.720268 
L 240.389261 99.697956 
L 240.693625 97.276015 
L 240.997989 91.508834 
L 241.91108 91.508834 
L 242.215443 97.414726 
L 242.519807 93.471847 
L 242.82417 93.471847 
L 243.128534 94.992785 
L 243.432898 86.518285 
L 244.041625 86.518285 
L 244.345989 89.234859 
L 244.650352 87.506469 
L 244.954716 88.729504 
L 245.25908 84.235056 
L 245.867807 88.729504 
L 246.17217 88.729504 
L 246.476534 86.457776 
L 247.085261 86.457776 
L 247.389625 87.995725 
L 247.693989 88.157904 
L 247.998352 86.58768 
L 248.302716 86.58768 
L 248.60708 84.315952 
L 248.911443 87.332788 
L 249.215807 83.850615 
L 249.52017 83.268019 
L 249.824534 86.324215 
L 250.128898 85.691509 
L 250.433261 85.887222 
L 250.737625 83.40292 
L 251.041989 83.953639 
L 251.346352 85.887222 
L 251.650716 84.883556 
L 251.95508 83.373708 
L 252.259443 84.883556 
L 252.563807 84.883556 
L 252.86817 83.937204 
L 253.172534 83.937204 
L 253.476898 81.400069 
L 253.781261 83.931729 
L 254.085625 80.617926 
L 254.389989 83.633433 
L 254.694352 80.617926 
L 254.998716 84.615189 
L 255.607443 84.615189 
L 255.911807 84.33142 
L 256.21617 84.33142 
L 256.824898 79.688899 
L 257.129261 79.951239 
L 257.433625 80.551176 
L 258.042352 80.551176 
L 258.346716 80.052663 
L 258.65108 79.302626 
L 258.955443 75.499932 
L 259.259807 75.755584 
L 259.56417 80.67409 
L 259.868534 79.853583 
L 260.477261 79.803109 
L 260.781625 82.826453 
L 261.085989 77.547527 
L 261.390352 79.693287 
L 261.694716 78.202039 
L 261.99908 78.202039 
L 262.303443 76.240311 
L 262.607807 75.45393 
L 262.91217 77.184301 
L 263.216534 76.240311 
L 263.520898 79.3849 
L 263.825261 77.099151 
L 264.129625 78.113898 
L 264.433989 78.280623 
L 265.042716 77.140946 
L 265.34708 78.113898 
L 266.26017 78.113898 
L 266.564534 79.190865 
L 266.868898 76.167521 
L 267.173261 78.529495 
L 267.781989 78.529495 
L 268.086352 78.333223 
L 268.999443 78.333223 
L 269.303807 69.700042 
L 269.60817 75.309879 
L 269.912534 78.049454 
L 270.216898 75.309879 
L 270.521261 74.487134 
L 271.129989 72.361841 
L 271.434352 73.215161 
L 271.738716 76.142228 
L 272.04308 75.36569 
L 272.347443 75.032195 
L 272.95617 73.818739 
L 273.260534 76.117466 
L 273.564898 76.117466 
L 273.869261 74.267498 
L 274.477989 74.267498 
L 274.782352 73.731124 
L 275.695443 73.731124 
L 275.999807 73.125394 
L 276.608534 73.011903 
L 277.217261 73.023645 
L 277.521625 74.158916 
L 277.825989 74.158916 
L 278.130352 70.03762 
L 278.434716 71.948361 
L 278.73908 71.800109 
L 279.043443 70.380628 
L 279.347807 74.118027 
L 280.260898 74.118027 
L 280.565261 74.723628 
L 281.173989 73.425557 
L 281.478352 74.118027 
L 281.782716 73.415748 
L 282.08708 73.325846 
L 282.695807 73.360225 
L 283.00017 72.657946 
L 283.304534 72.77763 
L 283.608898 72.539718 
L 284.521989 72.448784 
L 284.826352 71.917153 
L 285.130716 70.953259 
L 285.43508 71.16119 
L 285.739443 71.16119 
L 286.043807 70.403776 
L 286.34817 71.098966 
L 286.652534 71.098966 
L 286.956898 71.8647 
L 288.174352 71.8647 
L 288.478716 67.172963 
L 288.78308 71.187352 
L 289.087443 71.187352 
L 289.391807 68.459603 
L 289.69617 67.70364 
L 290.304898 67.70364 
L 290.609261 60.028109 
L 290.913625 69.11247 
L 291.217989 69.439882 
L 291.522352 69.439882 
L 291.826716 63.107842 
L 292.13108 63.107842 
L 292.435443 67.935198 
L 292.739807 67.469872 
L 293.04417 64.263983 
L 293.652898 64.263983 
L 293.957261 62.959285 
L 294.565989 61.601722 
L 294.870352 61.601722 
L 295.174716 61.949292 
L 295.47908 61.949292 
L 295.783443 59.681619 
L 296.087807 59.455636 
L 296.39217 59.681619 
L 296.696534 60.86816 
L 297.000898 61.294008 
L 297.305261 57.17233 
L 297.609625 60.86816 
L 297.913989 57.0017 
L 298.522716 57.0017 
L 298.82708 58.549247 
L 299.131443 57.724355 
L 299.435807 56.192442 
L 299.74017 57.005088 
L 300.044534 57.005088 
L 300.348898 58.673853 
L 300.653261 55.951287 
L 300.957625 56.124964 
L 301.261989 58.220809 
L 301.566352 56.180197 
L 302.17508 56.180197 
L 302.479443 55.003399 
L 302.783807 49.04892 
L 303.08817 49.04892 
L 303.392534 54.163072 
L 303.696898 53.67137 
L 304.001261 51.456521 
L 304.609989 56.114902 
L 304.914352 56.114902 
L 305.218716 49.23043 
L 305.52308 53.366153 
L 305.827443 48.925212 
L 306.131807 48.713592 
L 306.740534 48.713592 
L 307.044898 46.425233 
L 307.349261 52.913108 
L 307.653625 53.394455 
L 307.957989 47.748414 
L 308.262352 48.71209 
L 308.566716 48.71209 
L 308.87108 46.497241 
L 309.175443 50.258317 
L 309.479807 43.621632 
L 309.78417 50.258317 
L 310.088534 42.657956 
L 310.392898 46.363036 
L 310.697261 46.361534 
L 311.001625 42.058422 
L 311.305989 42.058422 
L 311.610352 39.927095 
L 311.914716 44.285834 
L 312.21908 44.285834 
L 312.523443 43.598973 
L 312.827807 44.677951 
L 313.13217 44.924006 
L 314.045261 44.924006 
L 314.349625 44.698286 
L 314.653989 42.57345 
L 314.958352 42.57345 
L 315.262716 42.36183 
L 316.784534 42.263444 
L 317.088898 42.013232 
L 317.393261 42.224852 
L 318.306352 42.187531 
L 318.610716 44.505324 
L 318.91508 44.053782 
L 319.219443 44.505324 
L 319.523807 44.256347 
L 319.82817 44.256347 
L 320.132534 41.288955 
L 320.436898 44.044727 
L 320.741261 44.044727 
L 321.045625 43.804805 
L 321.349989 44.044727 
L 321.654352 44.044727 
L 321.958716 43.831767 
L 322.26308 44.044727 
L 322.567443 44.044727 
L 322.871807 43.831767 
L 323.17617 42.190387 
L 323.480534 42.790359 
L 325.306716 42.790359 
L 325.61108 40.936019 
L 326.219807 40.936019 
L 326.52417 42.790359 
L 327.132898 42.790359 
L 327.437261 37.228191 
L 327.741625 40.439803 
L 328.045989 36.30441 
L 328.350352 37.159988 
L 328.654716 41.200595 
L 329.263443 41.200595 
L 329.567807 39.708686 
L 330.176534 39.708686 
L 330.480898 39.51663 
L 330.785261 39.468764 
L 331.089625 38.936558 
L 331.698352 38.936558 
L 332.002716 38.77161 
L 332.30708 38.77161 
L 332.611443 36.556761 
L 333.22017 36.556761 
L 333.524534 30.994593 
L 333.828898 36.556761 
L 334.133261 38.160688 
L 334.437625 36.306347 
L 334.741989 38.160688 
L 335.046352 34.334942 
L 335.350716 33.959977 
L 335.959443 33.959977 
L 336.263807 31.617943 
L 336.56817 37.260011 
L 336.872534 33.228839 
L 337.176898 33.228839 
L 337.481261 31.925307 
L 337.785625 31.313986 
L 338.089989 29.575021 
L 338.394352 31.617943 
L 338.698716 31.617943 
L 339.00308 33.293396 
L 339.307443 32.37511 
L 340.220534 32.37511 
L 340.524898 34.114432 
L 340.829261 32.077694 
L 341.437989 31.488916 
L 341.742352 31.713246 
L 342.046716 30.493681 
L 342.35108 29.769287 
L 342.655443 29.769287 
L 342.959807 30.901675 
L 343.26417 32.746986 
L 343.872898 30.93032 
L 344.177261 26.573487 
L 344.481625 31.924002 
L 344.785989 35.186641 
L 345.090352 32.577155 
L 345.394716 35.665569 
L 345.69908 32.827941 
L 346.003443 28.758193 
L 346.307807 35.375772 
L 346.61217 32.303444 
L 346.916534 32.303444 
L 347.220898 24.88454 
L 347.525261 23.294776 
L 347.829625 23.294776 
L 348.133989 30.143404 
L 348.438352 30.485745 
L 348.742716 30.485745 
L 349.04708 26.140727 
L 349.351443 30.485745 
L 349.655807 28.627692 
L 349.96017 20.279217 
L 350.264534 19.651836 
L 350.568898 22.740251 
L 350.873261 19.417631 
L 351.177625 23.665803 
L 351.481989 24.943717 
L 352.090716 24.952708 
L 352.699443 29.972597 
L 353.30817 17.28 
L 353.612534 27.503827 
L 353.916898 20.466638 
L 354.221261 25.772669 
L 354.525625 21.270011 
L 354.829989 21.270011 
L 355.134352 25.507975 
L 355.438716 25.507975 
L 355.74308 23.897079 
L 356.047443 21.355763 
L 356.047443 21.355763 
" clip-path="url(#pc27cd5d204)" style="fill: none; stroke: #1f77b4; stroke-width: 1.5; stroke-linecap: square"/>
   </g>
   <g id="patch_3">
    <path d="M 36.465625 228.96 
L 36.465625 7.2 
" style="fill: none; stroke: #000000; stroke-width: 0.8; stroke-linejoin: miter; stroke-linecap: square"/>
   </g>
   <g id="patch_4">
    <path d="M 371.265625 228.96 
L 371.265625 7.2 
" style="fill: none; stroke: #000000; stroke-width: 0.8; stroke-linejoin: miter; stroke-linecap: square"/>
   </g>
   <g id="patch_5">
    <path d="M 36.465625 228.96 
L 371.265625 228.96 
" style="fill: none; stroke: #000000; stroke-width: 0.8; stroke-linejoin: miter; stroke-linecap: square"/>
   </g>
   <g id="patch_6">
    <path d="M 36.465625 7.2 
L 371.265625 7.2 
" style="fill: none; stroke: #000000; stroke-width: 0.8; stroke-linejoin: miter; stroke-linecap: square"/>
   </g>
  </g>
 </g>
 <defs>
  <clipPath id="pc27cd5d204">
   <rect x="36.465625" y="7.2" width="334.8" height="221.76"/>
  </clipPath>
 </defs>
</svg>
