<?xml version="1.0" encoding="utf-8" standalone="no"?>
<!DOCTYPE svg PUBLIC "-//W3C//DTD SVG 1.1//EN"
  "http://www.w3.org/Graphics/SVG/1.1/DTD/svg11.dtd">
<svg xmlns:xlink="http://www.w3.org/1999/xlink" width="378.465625pt" height="252.838125pt" viewBox="0 0 378.465625 252.838125" xmlns="http://www.w3.org/2000/svg" version="1.1">
 <metadata>
  <rdf:RDF xmlns:dc="http://purl.org/dc/elements/1.1/" xmlns:cc="http://creativecommons.org/ns#" xmlns:rdf="http://www.w3.org/1999/02/22-rdf-syntax-ns#">
   <cc:Work>
    <dc:type rdf:resource="http://purl.org/dc/dcmitype/StillImage"/>
    <dc:date>2023-04-19T16:57:11.227736</dc:date>
    <dc:format>image/svg+xml</dc:format>
    <dc:creator>
     <cc:Agent>
      <dc:title>Matplotlib v3.6.2, https://matplotlib.org/</dc:title>
     </cc:Agent>
    </dc:creator>
   </cc:Work>
  </rdf:RDF>
 </metadata>
 <defs>
  <style type="text/css">*{stroke-linejoin: round; stroke-linecap: butt}</style>
 </defs>
 <g id="figure_1">
  <g id="patch_1">
   <path d="M 0 252.838125 
L 378.465625 252.838125 
L 378.465625 0 
L 0 0 
z
" style="fill: #ffffff"/>
  </g>
  <g id="axes_1">
   <g id="patch_2">
    <path d="M 36.465625 228.96 
L 371.265625 228.96 
L 371.265625 7.2 
L 36.465625 7.2 
z
" style="fill: #ffffff"/>
   </g>
   <g id="matplotlib.axis_1">
    <g id="xtick_1">
     <g id="line2d_1">
      <defs>
       <path id="m9b0f637b85" d="M 0 0 
L 0 3.5 
" style="stroke: #000000; stroke-width: 0.8"/>
      </defs>
      <g>
       <use xlink:href="#m9b0f637b85" x="51.683807" y="228.96" style="stroke: #000000; stroke-width: 0.8"/>
      </g>
     </g>
     <g id="text_1">
      <!-- 0 -->
      <g transform="translate(48.502557 243.558437) scale(0.1 -0.1)">
       <defs>
        <path id="DejaVuSans-30" d="M 2034 4250 
Q 1547 4250 1301 3770 
Q 1056 3291 1056 2328 
Q 1056 1369 1301 889 
Q 1547 409 2034 409 
Q 2525 409 2770 889 
Q 3016 1369 3016 2328 
Q 3016 3291 2770 3770 
Q 2525 4250 2034 4250 
z
M 2034 4750 
Q 2819 4750 3233 4129 
Q 3647 3509 3647 2328 
Q 3647 1150 3233 529 
Q 2819 -91 2034 -91 
Q 1250 -91 836 529 
Q 422 1150 422 2328 
Q 422 3509 836 4129 
Q 1250 4750 2034 4750 
z
" transform="scale(0.015625)"/>
       </defs>
       <use xlink:href="#DejaVuSans-30"/>
      </g>
     </g>
    </g>
    <g id="xtick_2">
     <g id="line2d_2">
      <g>
       <use xlink:href="#m9b0f637b85" x="115.760362" y="228.96" style="stroke: #000000; stroke-width: 0.8"/>
      </g>
     </g>
     <g id="text_2">
      <!-- 200 -->
      <g transform="translate(106.216612 243.558437) scale(0.1 -0.1)">
       <defs>
        <path id="DejaVuSans-32" d="M 1228 531 
L 3431 531 
L 3431 0 
L 469 0 
L 469 531 
Q 828 903 1448 1529 
Q 2069 2156 2228 2338 
Q 2531 2678 2651 2914 
Q 2772 3150 2772 3378 
Q 2772 3750 2511 3984 
Q 2250 4219 1831 4219 
Q 1534 4219 1204 4116 
Q 875 4013 500 3803 
L 500 4441 
Q 881 4594 1212 4672 
Q 1544 4750 1819 4750 
Q 2544 4750 2975 4387 
Q 3406 4025 3406 3419 
Q 3406 3131 3298 2873 
Q 3191 2616 2906 2266 
Q 2828 2175 2409 1742 
Q 1991 1309 1228 531 
z
" transform="scale(0.015625)"/>
       </defs>
       <use xlink:href="#DejaVuSans-32"/>
       <use xlink:href="#DejaVuSans-30" x="63.623047"/>
       <use xlink:href="#DejaVuSans-30" x="127.246094"/>
      </g>
     </g>
    </g>
    <g id="xtick_3">
     <g id="line2d_3">
      <g>
       <use xlink:href="#m9b0f637b85" x="179.836917" y="228.96" style="stroke: #000000; stroke-width: 0.8"/>
      </g>
     </g>
     <g id="text_3">
      <!-- 400 -->
      <g transform="translate(170.293167 243.558437) scale(0.1 -0.1)">
       <defs>
        <path id="DejaVuSans-34" d="M 2419 4116 
L 825 1625 
L 2419 1625 
L 2419 4116 
z
M 2253 4666 
L 3047 4666 
L 3047 1625 
L 3713 1625 
L 3713 1100 
L 3047 1100 
L 3047 0 
L 2419 0 
L 2419 1100 
L 313 1100 
L 313 1709 
L 2253 4666 
z
" transform="scale(0.015625)"/>
       </defs>
       <use xlink:href="#DejaVuSans-34"/>
       <use xlink:href="#DejaVuSans-30" x="63.623047"/>
       <use xlink:href="#DejaVuSans-30" x="127.246094"/>
      </g>
     </g>
    </g>
    <g id="xtick_4">
     <g id="line2d_4">
      <g>
       <use xlink:href="#m9b0f637b85" x="243.913472" y="228.96" style="stroke: #000000; stroke-width: 0.8"/>
      </g>
     </g>
     <g id="text_4">
      <!-- 600 -->
      <g transform="translate(234.369722 243.558437) scale(0.1 -0.1)">
       <defs>
        <path id="DejaVuSans-36" d="M 2113 2584 
Q 1688 2584 1439 2293 
Q 1191 2003 1191 1497 
Q 1191 994 1439 701 
Q 1688 409 2113 409 
Q 2538 409 2786 701 
Q 3034 994 3034 1497 
Q 3034 2003 2786 2293 
Q 2538 2584 2113 2584 
z
M 3366 4563 
L 3366 3988 
Q 3128 4100 2886 4159 
Q 2644 4219 2406 4219 
Q 1781 4219 1451 3797 
Q 1122 3375 1075 2522 
Q 1259 2794 1537 2939 
Q 1816 3084 2150 3084 
Q 2853 3084 3261 2657 
Q 3669 2231 3669 1497 
Q 3669 778 3244 343 
Q 2819 -91 2113 -91 
Q 1303 -91 875 529 
Q 447 1150 447 2328 
Q 447 3434 972 4092 
Q 1497 4750 2381 4750 
Q 2619 4750 2861 4703 
Q 3103 4656 3366 4563 
z
" transform="scale(0.015625)"/>
       </defs>
       <use xlink:href="#DejaVuSans-36"/>
       <use xlink:href="#DejaVuSans-30" x="63.623047"/>
       <use xlink:href="#DejaVuSans-30" x="127.246094"/>
      </g>
     </g>
    </g>
    <g id="xtick_5">
     <g id="line2d_5">
      <g>
       <use xlink:href="#m9b0f637b85" x="307.990027" y="228.96" style="stroke: #000000; stroke-width: 0.8"/>
      </g>
     </g>
     <g id="text_5">
      <!-- 800 -->
      <g transform="translate(298.446277 243.558437) scale(0.1 -0.1)">
       <defs>
        <path id="DejaVuSans-38" d="M 2034 2216 
Q 1584 2216 1326 1975 
Q 1069 1734 1069 1313 
Q 1069 891 1326 650 
Q 1584 409 2034 409 
Q 2484 409 2743 651 
Q 3003 894 3003 1313 
Q 3003 1734 2745 1975 
Q 2488 2216 2034 2216 
z
M 1403 2484 
Q 997 2584 770 2862 
Q 544 3141 544 3541 
Q 544 4100 942 4425 
Q 1341 4750 2034 4750 
Q 2731 4750 3128 4425 
Q 3525 4100 3525 3541 
Q 3525 3141 3298 2862 
Q 3072 2584 2669 2484 
Q 3125 2378 3379 2068 
Q 3634 1759 3634 1313 
Q 3634 634 3220 271 
Q 2806 -91 2034 -91 
Q 1263 -91 848 271 
Q 434 634 434 1313 
Q 434 1759 690 2068 
Q 947 2378 1403 2484 
z
M 1172 3481 
Q 1172 3119 1398 2916 
Q 1625 2713 2034 2713 
Q 2441 2713 2670 2916 
Q 2900 3119 2900 3481 
Q 2900 3844 2670 4047 
Q 2441 4250 2034 4250 
Q 1625 4250 1398 4047 
Q 1172 3844 1172 3481 
z
" transform="scale(0.015625)"/>
       </defs>
       <use xlink:href="#DejaVuSans-38"/>
       <use xlink:href="#DejaVuSans-30" x="63.623047"/>
       <use xlink:href="#DejaVuSans-30" x="127.246094"/>
      </g>
     </g>
    </g>
   </g>
   <g id="matplotlib.axis_2">
    <g id="ytick_1">
     <g id="line2d_6">
      <defs>
       <path id="me11844427b" d="M 0 0 
L -3.5 0 
" style="stroke: #000000; stroke-width: 0.8"/>
      </defs>
      <g>
       <use xlink:href="#me11844427b" x="36.465625" y="197.240647" style="stroke: #000000; stroke-width: 0.8"/>
      </g>
     </g>
     <g id="text_6">
      <!-- 9.8 -->
      <g transform="translate(13.5625 201.039865) scale(0.1 -0.1)">
       <defs>
        <path id="DejaVuSans-39" d="M 703 97 
L 703 672 
Q 941 559 1184 500 
Q 1428 441 1663 441 
Q 2288 441 2617 861 
Q 2947 1281 2994 2138 
Q 2813 1869 2534 1725 
Q 2256 1581 1919 1581 
Q 1219 1581 811 2004 
Q 403 2428 403 3163 
Q 403 3881 828 4315 
Q 1253 4750 1959 4750 
Q 2769 4750 3195 4129 
Q 3622 3509 3622 2328 
Q 3622 1225 3098 567 
Q 2575 -91 1691 -91 
Q 1453 -91 1209 -44 
Q 966 3 703 97 
z
M 1959 2075 
Q 2384 2075 2632 2365 
Q 2881 2656 2881 3163 
Q 2881 3666 2632 3958 
Q 2384 4250 1959 4250 
Q 1534 4250 1286 3958 
Q 1038 3666 1038 3163 
Q 1038 2656 1286 2365 
Q 1534 2075 1959 2075 
z
" transform="scale(0.015625)"/>
        <path id="DejaVuSans-2e" d="M 684 794 
L 1344 794 
L 1344 0 
L 684 0 
L 684 794 
z
" transform="scale(0.015625)"/>
       </defs>
       <use xlink:href="#DejaVuSans-39"/>
       <use xlink:href="#DejaVuSans-2e" x="63.623047"/>
       <use xlink:href="#DejaVuSans-38" x="95.410156"/>
      </g>
     </g>
    </g>
    <g id="ytick_2">
     <g id="line2d_7">
      <g>
       <use xlink:href="#me11844427b" x="36.465625" y="160.755885" style="stroke: #000000; stroke-width: 0.8"/>
      </g>
     </g>
     <g id="text_7">
      <!-- 9.9 -->
      <g transform="translate(13.5625 164.555104) scale(0.1 -0.1)">
       <use xlink:href="#DejaVuSans-39"/>
       <use xlink:href="#DejaVuSans-2e" x="63.623047"/>
       <use xlink:href="#DejaVuSans-39" x="95.410156"/>
      </g>
     </g>
    </g>
    <g id="ytick_3">
     <g id="line2d_8">
      <g>
       <use xlink:href="#me11844427b" x="36.465625" y="124.271124" style="stroke: #000000; stroke-width: 0.8"/>
      </g>
     </g>
     <g id="text_8">
      <!-- 10.0 -->
      <g transform="translate(7.2 128.070343) scale(0.1 -0.1)">
       <defs>
        <path id="DejaVuSans-31" d="M 794 531 
L 1825 531 
L 1825 4091 
L 703 3866 
L 703 4441 
L 1819 4666 
L 2450 4666 
L 2450 531 
L 3481 531 
L 3481 0 
L 794 0 
L 794 531 
z
" transform="scale(0.015625)"/>
       </defs>
       <use xlink:href="#DejaVuSans-31"/>
       <use xlink:href="#DejaVuSans-30" x="63.623047"/>
       <use xlink:href="#DejaVuSans-2e" x="127.246094"/>
       <use xlink:href="#DejaVuSans-30" x="159.033203"/>
      </g>
     </g>
    </g>
    <g id="ytick_4">
     <g id="line2d_9">
      <g>
       <use xlink:href="#me11844427b" x="36.465625" y="87.786363" style="stroke: #000000; stroke-width: 0.8"/>
      </g>
     </g>
     <g id="text_9">
      <!-- 10.1 -->
      <g transform="translate(7.2 91.585582) scale(0.1 -0.1)">
       <use xlink:href="#DejaVuSans-31"/>
       <use xlink:href="#DejaVuSans-30" x="63.623047"/>
       <use xlink:href="#DejaVuSans-2e" x="127.246094"/>
       <use xlink:href="#DejaVuSans-31" x="159.033203"/>
      </g>
     </g>
    </g>
    <g id="ytick_5">
     <g id="line2d_10">
      <g>
       <use xlink:href="#me11844427b" x="36.465625" y="51.301602" style="stroke: #000000; stroke-width: 0.8"/>
      </g>
     </g>
     <g id="text_10">
      <!-- 10.2 -->
      <g transform="translate(7.2 55.10082) scale(0.1 -0.1)">
       <use xlink:href="#DejaVuSans-31"/>
       <use xlink:href="#DejaVuSans-30" x="63.623047"/>
       <use xlink:href="#DejaVuSans-2e" x="127.246094"/>
       <use xlink:href="#DejaVuSans-32" x="159.033203"/>
      </g>
     </g>
    </g>
    <g id="ytick_6">
     <g id="line2d_11">
      <g>
       <use xlink:href="#me11844427b" x="36.465625" y="14.81684" style="stroke: #000000; stroke-width: 0.8"/>
      </g>
     </g>
     <g id="text_11">
      <!-- 10.3 -->
      <g transform="translate(7.2 18.616059) scale(0.1 -0.1)">
       <defs>
        <path id="DejaVuSans-33" d="M 2597 2516 
Q 3050 2419 3304 2112 
Q 3559 1806 3559 1356 
Q 3559 666 3084 287 
Q 2609 -91 1734 -91 
Q 1441 -91 1130 -33 
Q 819 25 488 141 
L 488 750 
Q 750 597 1062 519 
Q 1375 441 1716 441 
Q 2309 441 2620 675 
Q 2931 909 2931 1356 
Q 2931 1769 2642 2001 
Q 2353 2234 1838 2234 
L 1294 2234 
L 1294 2753 
L 1863 2753 
Q 2328 2753 2575 2939 
Q 2822 3125 2822 3475 
Q 2822 3834 2567 4026 
Q 2313 4219 1838 4219 
Q 1578 4219 1281 4162 
Q 984 4106 628 3988 
L 628 4550 
Q 988 4650 1302 4700 
Q 1616 4750 1894 4750 
Q 2613 4750 3031 4423 
Q 3450 4097 3450 3541 
Q 3450 3153 3228 2886 
Q 3006 2619 2597 2516 
z
" transform="scale(0.015625)"/>
       </defs>
       <use xlink:href="#DejaVuSans-31"/>
       <use xlink:href="#DejaVuSans-30" x="63.623047"/>
       <use xlink:href="#DejaVuSans-2e" x="127.246094"/>
       <use xlink:href="#DejaVuSans-33" x="159.033203"/>
      </g>
     </g>
    </g>
   </g>
   <g id="line2d_12">
    <path d="M 51.683807 218.498191 
L 53.926486 218.498191 
L 54.246869 214.880784 
L 54.567252 214.880784 
L 54.887635 208.823019 
L 55.848783 208.823019 
L 56.169166 204.379513 
L 56.489548 204.379513 
L 56.809931 192.228526 
L 57.450697 192.228526 
L 57.77108 218.88 
L 58.091462 192.228526 
L 58.411845 218.88 
L 59.052611 218.88 
L 59.372993 200.11303 
L 59.693376 214.613517 
L 60.013759 211.666309 
L 61.615673 211.666309 
L 61.936056 215.035544 
L 62.256438 211.666309 
L 62.576821 211.666309 
L 62.897204 215.035544 
L 63.217587 215.035544 
L 63.537969 202.884557 
L 66.421414 202.884557 
L 66.741797 197.045273 
L 67.06218 202.884557 
L 67.382563 202.884557 
L 67.702946 197.045273 
L 68.023328 202.884557 
L 69.945625 202.884557 
L 70.266008 182.081001 
L 70.586391 182.081001 
L 70.906773 200.414508 
L 71.227156 200.414508 
L 71.547539 202.884557 
L 71.867922 182.081001 
L 72.188304 202.884557 
L 72.508687 202.884557 
L 72.82907 179.610952 
L 73.469836 179.610952 
L 73.790218 180.279693 
L 74.110601 180.279693 
L 74.430984 197.715667 
L 74.751367 195.436323 
L 75.071749 195.436323 
L 75.392132 192.29841 
L 75.712515 192.29841 
L 76.032898 185.995341 
L 76.673663 185.995341 
L 76.994046 184.336917 
L 81.479405 184.336917 
L 81.799788 185.15903 
L 82.12017 185.15903 
L 82.440553 183.500606 
L 83.401702 183.500606 
L 83.722084 182.047435 
L 84.042467 183.500606 
L 86.605529 183.500606 
L 86.925912 180.751367 
L 87.566678 180.751367 
L 87.88706 183.500606 
L 88.207443 180.389011 
L 89.488974 180.389011 
L 89.809357 177.429292 
L 90.12974 177.429292 
L 90.450123 177.109525 
L 90.770505 173.92797 
L 91.090888 173.92797 
L 91.411271 178.788739 
L 92.372419 178.788739 
L 92.692802 185.784077 
L 93.013185 186.961278 
L 93.65395 186.961278 
L 93.974333 185.784077 
L 94.294716 185.784077 
L 94.615099 186.961278 
L 95.255864 186.961278 
L 95.576247 148.14464 
L 95.89663 155.139978 
L 96.217013 173.087783 
L 96.537395 198.817385 
L 97.178161 198.817385 
L 97.498544 190.98186 
L 97.818926 159.520625 
L 98.139309 151.346985 
L 98.459692 185.250226 
L 98.780075 144.775165 
L 99.741223 144.775165 
L 100.061606 147.703385 
L 100.381989 156.968286 
L 102.624668 156.968286 
L 102.945051 152.901169 
L 103.265434 152.901169 
L 103.585816 156.968286 
L 103.906199 144.11238 
L 104.226582 144.11238 
L 104.546965 127.338907 
L 104.867347 156.968286 
L 105.18773 155.983166 
L 106.148879 155.983166 
L 106.469261 156.968286 
L 106.789644 144.11238 
L 107.43041 144.11238 
L 107.750792 150.962784 
L 108.071175 130.848845 
L 109.032324 130.848845 
L 109.352706 124.861123 
L 109.993472 124.861123 
L 110.313855 123.876003 
L 110.634237 119.65839 
L 111.595386 119.65839 
L 111.915769 130.258511 
L 112.236151 130.258511 
L 112.556534 123.970041 
L 112.876917 122.984921 
L 113.1973 119.65839 
L 113.517682 123.568021 
L 114.478831 123.568021 
L 114.799214 117.279551 
L 115.119596 117.279551 
L 115.439979 116.29443 
L 115.760362 116.29443 
L 116.080745 112.076818 
L 116.401127 116.29443 
L 117.362276 116.29443 
L 117.682658 112.076818 
L 118.003041 112.076818 
L 118.323424 111.091697 
L 118.643807 98.813283 
L 118.96419 112.669322 
L 119.284572 118.365288 
L 119.604955 112.076818 
L 120.245721 112.076818 
L 120.566103 108.009701 
L 120.886486 112.076818 
L 121.206869 112.076818 
L 121.527252 111.091697 
L 121.847635 107.02458 
L 122.4884 107.02458 
L 122.808783 112.518989 
L 123.129166 107.470234 
L 123.449548 112.518989 
L 124.090314 112.518989 
L 124.410697 113.755059 
L 124.73108 109.687941 
L 125.051462 119.801371 
L 126.012611 119.801371 
L 126.332993 103.399471 
L 126.653376 103.399471 
L 126.973759 96.428052 
L 127.294142 95.342315 
L 127.934907 95.342315 
L 128.25529 91.030664 
L 128.575673 89.790948 
L 128.896056 84.742194 
L 129.536821 84.742194 
L 129.857204 81.631356 
L 130.177587 84.742194 
L 130.497969 81.631356 
L 130.818352 81.631356 
L 131.138735 71.983289 
L 131.459118 71.983289 
L 131.779501 81.631356 
L 132.099883 69.196519 
L 132.420266 81.631356 
L 132.740649 64.147764 
L 133.061032 63.39731 
L 133.381414 69.541506 
L 133.701797 70.719585 
L 134.02218 66.59736 
L 134.342563 58.4726 
L 134.662946 58.4726 
L 134.983328 59.936327 
L 135.303711 56.825489 
L 135.624094 56.825489 
L 135.944477 61.996195 
L 136.264859 61.996195 
L 136.585242 60.567531 
L 136.905625 60.567531 
L 137.226008 98.21301 
L 137.546391 67.04495 
L 138.187156 67.04495 
L 138.507539 65.581223 
L 138.827922 60.532469 
L 139.148304 117.081183 
L 139.78907 117.081183 
L 140.109453 123.714965 
L 140.750218 123.714965 
L 141.070601 115.586516 
L 141.390984 123.714965 
L 142.031749 123.714965 
L 142.352132 122.729844 
L 142.672515 123.714965 
L 142.992898 118.517658 
L 143.313281 115.586516 
L 143.633663 115.586516 
L 143.954046 99.990712 
L 144.274429 113.062919 
L 145.235577 113.062919 
L 145.55596 99.768103 
L 146.196725 111.568252 
L 146.517108 105.698836 
L 146.837491 118.170753 
L 147.157874 122.891423 
L 147.478257 105.698836 
L 147.798639 111.568252 
L 148.119022 107.201086 
L 148.439405 107.201086 
L 148.759788 99.065054 
L 149.08017 94.697888 
L 149.400553 101.33167 
L 149.720936 167.249575 
L 150.041319 167.249575 
L 150.361702 138.985627 
L 150.682084 173.883357 
L 151.002467 159.81564 
L 151.32285 159.81564 
L 151.643233 162.882409 
L 153.245147 162.882409 
L 153.565529 154.484817 
L 153.885912 169.516191 
L 154.206295 157.521772 
L 154.526678 159.81564 
L 154.84706 161.195964 
L 155.167443 161.195964 
L 155.487826 161.627718 
L 155.808209 152.218201 
L 156.128592 147.851035 
L 156.448974 158.851983 
L 157.410123 158.851983 
L 158.050888 168.552533 
L 158.371271 158.851983 
L 158.691654 163.126598 
L 159.012036 159.082953 
L 159.973185 159.082953 
L 160.293568 154.715787 
L 160.934333 154.715787 
L 161.254716 153.186057 
L 161.575099 154.715787 
L 161.895481 154.715787 
L 162.215864 146.552275 
L 162.536247 146.552275 
L 162.85663 164.894608 
L 163.177013 159.374088 
L 163.497395 162.980446 
L 164.138161 162.980446 
L 164.458544 157.459927 
L 164.778926 156.319412 
L 165.740075 156.319412 
L 166.060458 161.737655 
L 166.38084 161.737655 
L 166.701223 156.319412 
L 167.662371 156.319412 
L 167.982754 161.737655 
L 169.584668 161.737655 
L 169.905051 156.319412 
L 170.225434 156.319412 
L 170.545816 169.085736 
L 170.866199 135.489399 
L 171.186582 128.892287 
L 171.506965 135.489399 
L 171.827347 135.489399 
L 172.14773 148.737574 
L 172.468113 148.737574 
L 172.788496 135.489399 
L 173.108879 126.847617 
L 173.429261 126.847617 
L 173.749644 148.737574 
L 174.070027 150.508072 
L 174.710792 150.508072 
L 175.031175 143.91096 
L 175.351558 145.001906 
L 175.992324 145.001906 
L 176.312706 157.159135 
L 176.633089 160.020578 
L 176.953472 147.735038 
L 177.273855 143.99937 
L 177.594237 143.99937 
L 177.91462 171.931065 
L 178.875769 171.931065 
L 179.196151 168.195396 
L 180.1573 168.195396 
L 180.477682 196.472215 
L 180.798065 196.472215 
L 181.118448 180.387084 
L 181.438831 180.387084 
L 181.759214 173.789972 
L 182.399979 173.789972 
L 182.720362 183.214069 
L 183.040745 173.789972 
L 184.001893 173.789972 
L 184.322276 186.949737 
L 184.642658 170.833885 
L 184.963041 173.789972 
L 185.283424 188.808645 
L 186.244572 188.808645 
L 186.564955 173.789972 
L 186.885338 173.789972 
L 187.205721 168.244994 
L 188.166869 168.244994 
L 188.487252 165.288906 
L 188.807635 183.263666 
L 189.128017 183.263666 
L 189.4484 165.288906 
L 189.768783 165.288906 
L 190.089166 183.263666 
L 190.409548 168.244994 
L 190.729931 168.244994 
L 191.050314 177.260131 
L 192.331845 177.260131 
L 192.652228 189.66679 
L 192.972611 177.260131 
L 193.933759 177.260131 
L 194.254142 174.540322 
L 194.574525 170.715877 
L 194.894907 174.540322 
L 195.21529 186.999335 
L 195.535673 186.999335 
L 195.856056 179.853156 
L 196.176438 164.420549 
L 196.496821 164.420549 
L 196.817204 166.814279 
L 197.137587 179.679512 
L 197.457969 164.420549 
L 197.778352 164.420549 
L 198.098735 163.858192 
L 198.419118 186.999335 
L 198.739501 186.999335 
L 199.059883 176.723425 
L 200.021032 176.723425 
L 200.341414 179.679512 
L 200.661797 164.420549 
L 200.98218 164.420549 
L 201.302563 174.540322 
L 201.622946 174.540322 
L 201.943328 168.536787 
L 202.263711 168.244994 
L 202.584094 160.003463 
L 202.904477 164.483853 
L 203.224859 149.359446 
L 203.545242 149.359446 
L 203.865625 160.149663 
L 204.186008 160.810744 
L 204.506391 167.106073 
L 204.826773 167.106073 
L 205.147156 199.4744 
L 205.467539 199.4744 
L 205.787922 156.032789 
L 206.108304 156.986299 
L 206.428687 154.137401 
L 206.74907 152.706686 
L 207.710218 152.706686 
L 208.030601 158.710222 
L 208.671367 147.522758 
L 208.991749 159.002015 
L 209.312132 181.250569 
L 209.632515 157.265255 
L 209.952898 181.250569 
L 210.273281 187.907132 
L 210.593663 181.250569 
L 210.914046 181.250569 
L 211.234429 191.731577 
L 211.554812 173.682415 
L 211.875194 174.635925 
L 212.195577 174.635925 
L 212.51596 179.152573 
L 212.836343 164.865771 
L 213.156725 170.207504 
L 213.477108 170.207504 
L 213.797491 167.759975 
L 214.438257 167.759975 
L 214.758639 183.972449 
L 215.079022 167.759975 
L 215.399405 167.759975 
L 215.719788 158.71524 
L 216.04017 154.547966 
L 216.360553 154.547966 
L 216.680936 167.065512 
L 217.001319 165.429549 
L 217.321702 165.429549 
L 217.642084 154.547966 
L 217.962467 164.735086 
L 218.28285 164.735086 
L 218.603233 152.21754 
L 218.923615 152.21754 
L 219.243998 168.90236 
L 219.564381 170.024752 
L 219.884764 174.192026 
L 220.205147 167.285328 
L 220.525529 151.352335 
L 220.845912 166.933694 
L 221.166295 166.933694 
L 221.486678 163.460883 
L 221.80706 163.041903 
L 222.127443 153.697151 
L 223.088592 153.697151 
L 223.408974 150.248874 
L 223.729357 166.092041 
L 224.04974 162.741886 
L 224.370123 156.544202 
L 225.651654 156.544202 
L 225.972036 160.426097 
L 226.292419 158.762105 
L 226.612802 160.426097 
L 226.933185 148.065152 
L 227.253568 152.566572 
L 227.57395 152.566572 
L 227.894333 161.20255 
L 228.214716 145.167133 
L 228.535099 137.494974 
L 228.855481 163.980008 
L 229.175864 136.525352 
L 229.81663 151.462462 
L 230.137013 144.448136 
L 230.777778 144.411106 
L 231.098161 127.80042 
L 231.418544 136.614877 
L 231.738926 136.800511 
L 232.059309 144.411106 
L 232.379692 144.448136 
L 232.700075 143.871581 
L 233.020458 137.494974 
L 233.34084 137.494974 
L 233.661223 142.272929 
L 233.981606 137.494974 
L 234.301989 142.272929 
L 234.622371 131.682403 
L 234.942754 147.18327 
L 235.263137 153.559877 
L 235.903903 153.559877 
L 236.224285 147.301606 
L 236.544668 153.559877 
L 236.865051 153.559877 
L 237.185434 158.337832 
L 238.146582 158.337832 
L 238.466965 153.559877 
L 238.787347 136.022764 
L 239.10773 159.476407 
L 239.428113 139.517378 
L 239.748496 145.032486 
L 240.068879 142.368822 
L 240.389261 131.278605 
L 241.35041 131.278605 
L 241.670792 140.800719 
L 241.991175 133.815519 
L 242.311558 139.517378 
L 242.631941 139.517378 
L 242.952324 127.373008 
L 243.593089 127.373008 
L 243.913472 116.432982 
L 244.233855 132.216867 
L 244.554237 132.075759 
L 244.87462 132.075759 
L 245.195003 109.066567 
L 245.515386 109.066567 
L 245.835769 99.515624 
L 246.156151 99.515624 
L 246.476534 120.993456 
L 246.796917 114.534296 
L 247.1173 104.846 
L 247.437682 116.031717 
L 247.758065 80.575701 
L 248.078448 91.190232 
L 248.398831 116.015466 
L 248.719214 91.190232 
L 249.039596 99.657638 
L 249.359979 93.060526 
L 249.680362 106.882038 
L 250.000745 90.263997 
L 250.321127 97.630412 
L 250.64151 97.630412 
L 250.961893 90.263997 
L 251.282276 90.263997 
L 251.602658 80.990608 
L 252.243424 80.990608 
L 252.563807 105.958134 
L 252.88419 89.340093 
L 253.204572 105.958134 
L 253.524955 97.630412 
L 253.845338 105.967369 
L 254.165721 105.967369 
L 254.486103 88.357023 
L 254.806486 96.706508 
L 255.126869 96.706508 
L 255.447252 90.263997 
L 255.767635 112.750951 
L 256.088017 80.161552 
L 256.4084 94.273553 
L 256.728783 86.907138 
L 257.049166 109.834856 
L 257.369548 109.834856 
L 257.689931 74.614002 
L 258.010314 70.888163 
L 258.971462 70.888163 
L 259.291845 111.74183 
L 259.932611 111.74183 
L 260.252993 120.993374 
L 260.573376 120.485762 
L 260.893759 97.147908 
L 261.534525 120.485762 
L 261.854907 120.485762 
L 262.17529 110.091254 
L 262.816056 120.485762 
L 263.136438 117.128903 
L 263.456821 89.647 
L 263.777204 103.016902 
L 264.097587 98.071498 
L 264.417969 87.293434 
L 264.738352 108.771267 
L 266.019883 108.771267 
L 266.340266 114.687797 
L 266.660649 130.391169 
L 266.981032 91.302407 
L 268.262563 91.302407 
L 268.582946 103.418011 
L 269.544094 103.418011 
L 269.864477 99.639364 
L 270.184859 105.555894 
L 270.505242 99.639364 
L 270.825625 78.7537 
L 271.466391 78.7537 
L 271.786773 103.418011 
L 272.107156 79.219707 
L 272.427539 79.219707 
L 272.747922 109.900215 
L 273.068304 99.505706 
L 273.70907 99.505706 
L 274.029453 92.173491 
L 275.310984 92.173491 
L 275.631367 114.858761 
L 276.272132 114.858761 
L 276.592515 91.223815 
L 276.912898 82.036846 
L 277.233281 99.780654 
L 278.514812 99.780654 
L 278.835194 90.373803 
L 280.437108 90.373803 
L 280.757491 88.052864 
L 281.077874 88.052864 
L 281.398257 90.373803 
L 281.718639 81.307052 
L 282.039022 91.443697 
L 282.679788 91.443697 
L 283.00017 81.307052 
L 283.320553 81.307052 
L 283.640936 69.330093 
L 284.281702 69.330093 
L 284.602084 101.690621 
L 284.922467 69.330093 
L 285.24285 63.307821 
L 285.563233 63.307821 
L 285.883615 52.816056 
L 286.203998 103.992321 
L 286.524381 52.816056 
L 287.485529 52.816056 
L 287.805912 45.388504 
L 288.126295 45.388504 
L 288.446678 40.113321 
L 288.76706 43.905861 
L 289.087443 66.591131 
L 289.407826 75.501325 
L 289.728209 62.840617 
L 290.048592 40.969366 
L 290.368974 52.816056 
L 291.330123 52.816056 
L 291.650505 44.492083 
L 291.970888 67.177353 
L 292.291271 67.177353 
L 292.611654 86.668852 
L 293.572802 86.668852 
L 293.893185 75.115065 
L 294.213568 74.822162 
L 294.53395 89.723463 
L 294.854333 74.822162 
L 295.174716 68.669622 
L 295.815481 68.669622 
L 296.135864 63.164574 
L 296.77663 63.164574 
L 297.097013 55.26707 
L 297.417395 43.42038 
L 297.737778 47.997005 
L 298.058161 40.982754 
L 298.378544 47.997005 
L 298.698926 47.997005 
L 299.019309 60.106675 
L 299.339692 44.746414 
L 299.660075 47.997005 
L 299.980458 47.997005 
L 300.30084 49.769188 
L 300.621223 49.769188 
L 300.941606 49.542412 
L 301.261989 49.542412 
L 301.582371 80.722076 
L 301.902754 44.592882 
L 302.223137 42.816401 
L 303.184285 42.816401 
L 303.504668 49.438612 
L 303.825051 42.803111 
L 304.145434 42.803111 
L 304.465816 40.735291 
L 304.786199 27.350586 
L 305.106582 40.735291 
L 306.708496 40.735291 
L 307.028879 39.425569 
L 307.349261 39.425569 
L 307.669644 30.01425 
L 307.990027 43.504223 
L 308.31041 40.37545 
L 308.630792 44.200908 
L 308.951175 96.51577 
L 309.271558 81.458914 
L 309.591941 38.122325 
L 310.232706 34.522506 
L 310.553089 46.16346 
L 310.873472 46.16346 
L 311.193855 36.475777 
L 311.514237 41.46394 
L 311.83462 41.46394 
L 312.155003 24.724476 
L 312.475386 17.28 
L 312.795769 24.724476 
L 313.116151 103.911514 
L 313.756917 103.911514 
L 314.0773 86.277729 
L 314.397682 82.886897 
L 315.358831 82.886897 
L 315.679214 92.702703 
L 315.999596 88.019813 
L 317.281127 88.019813 
L 317.60151 87.13447 
L 317.921893 87.13447 
L 318.242276 150.76748 
L 318.562658 140.951674 
L 318.883041 150.76748 
L 319.523807 150.76748 
L 319.84419 140.951674 
L 320.164572 84.62898 
L 320.484955 76.854144 
L 320.805338 76.854144 
L 321.125721 138.510723 
L 321.446103 138.510723 
L 321.766486 130.904647 
L 322.086869 130.701722 
L 322.407252 130.701722 
L 322.727635 130.904647 
L 323.048017 123.132546 
L 323.3684 180.450045 
L 323.688783 131.066247 
L 324.009166 129.178915 
L 324.329548 129.178915 
L 324.649931 138.621277 
L 324.970314 137.585206 
L 325.931462 137.585206 
L 326.251845 124.020974 
L 326.572228 124.020974 
L 326.892611 137.366939 
L 327.212993 137.366939 
L 327.533376 129.760863 
L 327.853759 114.600953 
L 328.174142 133.781976 
L 328.494525 122.207029 
L 328.814907 118.403799 
L 329.13529 122.207029 
L 329.455673 118.403799 
L 329.776056 118.403799 
L 330.096438 126.1759 
L 330.416821 129.407389 
L 330.737204 121.962913 
L 333.620649 121.962913 
L 333.941032 171.508311 
L 334.261414 171.508311 
L 334.581797 153.082926 
L 334.90218 171.508311 
L 335.222563 161.672632 
L 335.542946 171.508311 
L 335.863328 159.501553 
L 336.183711 159.501553 
L 336.504094 156.130133 
L 336.824477 146.294455 
L 337.144859 153.975207 
L 338.746773 153.975207 
L 339.067156 147.342026 
L 339.387539 153.975207 
L 339.707922 156.31228 
L 340.028304 153.975207 
L 340.348687 156.31228 
L 340.66907 149.322247 
L 340.989453 146.52831 
L 341.309836 156.31228 
L 341.950601 156.31228 
L 342.270984 157.187744 
L 342.591367 157.187744 
L 343.232132 147.585921 
L 343.872898 147.585921 
L 344.193281 142.93296 
L 344.834046 142.93296 
L 345.154429 136.36629 
L 345.474812 135.086828 
L 346.115577 135.086828 
L 346.43596 127.733245 
L 347.076725 142.415433 
L 347.397108 142.415433 
L 347.717491 130.433868 
L 348.678639 130.433868 
L 348.999022 118.927521 
L 349.319405 130.433868 
L 349.639788 117.307181 
L 349.96017 117.307181 
L 350.280553 130.433868 
L 351.241702 130.433868 
L 351.562084 125.007247 
L 351.882467 131.469939 
L 352.20285 131.469939 
L 352.523233 123.580481 
L 352.843615 131.469939 
L 353.163998 130.433868 
L 353.484381 137.762473 
L 353.804764 137.762473 
L 354.125147 123.580481 
L 354.765912 123.580481 
L 355.406678 131.469939 
L 355.72706 112.635653 
L 356.047443 114.536971 
L 356.047443 114.536971 
" clip-path="url(#pb4459ff0e3)" style="fill: none; stroke: #1f77b4; stroke-width: 1.5; stroke-linecap: square"/>
   </g>
   <g id="patch_3">
    <path d="M 36.465625 228.96 
L 36.465625 7.2 
" style="fill: none; stroke: #000000; stroke-width: 0.8; stroke-linejoin: miter; stroke-linecap: square"/>
   </g>
   <g id="patch_4">
    <path d="M 371.265625 228.96 
L 371.265625 7.2 
" style="fill: none; stroke: #000000; stroke-width: 0.8; stroke-linejoin: miter; stroke-linecap: square"/>
   </g>
   <g id="patch_5">
    <path d="M 36.465625 228.96 
L 371.265625 228.96 
" style="fill: none; stroke: #000000; stroke-width: 0.8; stroke-linejoin: miter; stroke-linecap: square"/>
   </g>
   <g id="patch_6">
    <path d="M 36.465625 7.2 
L 371.265625 7.2 
" style="fill: none; stroke: #000000; stroke-width: 0.8; stroke-linejoin: miter; stroke-linecap: square"/>
   </g>
  </g>
 </g>
 <defs>
  <clipPath id="pb4459ff0e3">
   <rect x="36.465625" y="7.2" width="334.8" height="221.76"/>
  </clipPath>
 </defs>
</svg>
