<?xml version="1.0" encoding="utf-8" standalone="no"?>
<!DOCTYPE svg PUBLIC "-//W3C//DTD SVG 1.1//EN"
  "http://www.w3.org/Graphics/SVG/1.1/DTD/svg11.dtd">
<svg xmlns:xlink="http://www.w3.org/1999/xlink" width="377.253558pt" height="252.970186pt" viewBox="0 0 377.253558 252.970186" xmlns="http://www.w3.org/2000/svg" version="1.1">
 <metadata>
  <rdf:RDF xmlns:dc="http://purl.org/dc/elements/1.1/" xmlns:cc="http://creativecommons.org/ns#" xmlns:rdf="http://www.w3.org/1999/02/22-rdf-syntax-ns#">
   <cc:Work>
    <dc:type rdf:resource="http://purl.org/dc/dcmitype/StillImage"/>
    <dc:date>2023-04-20T00:28:08.653906</dc:date>
    <dc:format>image/svg+xml</dc:format>
    <dc:creator>
     <cc:Agent>
      <dc:title>Matplotlib v3.6.2, https://matplotlib.org/</dc:title>
     </cc:Agent>
    </dc:creator>
   </cc:Work>
  </rdf:RDF>
 </metadata>
 <defs>
  <style type="text/css">*{stroke-linejoin: round; stroke-linecap: butt}</style>
 </defs>
 <g id="figure_1">
  <g id="patch_1">
   <path d="M -0 252.970186 
L 377.253558 252.970186 
L 377.253558 0 
L -0 0 
z
" style="fill: #ffffff"/>
  </g>
  <g id="axes_1">
   <g id="patch_2">
    <path d="M 26.925 229.092061 
L 361.725 229.092061 
L 361.725 7.332061 
L 26.925 7.332061 
z
" style="fill: #ffffff"/>
   </g>
   <g id="matplotlib.axis_1">
    <g id="xtick_1">
     <g id="line2d_1">
      <defs>
       <path id="m8bc007f8f8" d="M 0 0 
L 0 3.5 
" style="stroke: #000000; stroke-width: 0.8"/>
      </defs>
      <g>
       <use xlink:href="#m8bc007f8f8" x="41.633074" y="229.092061" style="stroke: #000000; stroke-width: 0.8"/>
      </g>
     </g>
     <g id="text_1">
      <!-- 0 -->
      <g transform="translate(38.451824 243.690499) scale(0.1 -0.1)">
       <defs>
        <path id="DejaVuSans-30" d="M 2034 4250 
Q 1547 4250 1301 3770 
Q 1056 3291 1056 2328 
Q 1056 1369 1301 889 
Q 1547 409 2034 409 
Q 2525 409 2770 889 
Q 3016 1369 3016 2328 
Q 3016 3291 2770 3770 
Q 2525 4250 2034 4250 
z
M 2034 4750 
Q 2819 4750 3233 4129 
Q 3647 3509 3647 2328 
Q 3647 1150 3233 529 
Q 2819 -91 2034 -91 
Q 1250 -91 836 529 
Q 422 1150 422 2328 
Q 422 3509 836 4129 
Q 1250 4750 2034 4750 
z
" transform="scale(0.015625)"/>
       </defs>
       <use xlink:href="#DejaVuSans-30"/>
      </g>
     </g>
    </g>
    <g id="xtick_2">
     <g id="line2d_2">
      <g>
       <use xlink:href="#m8bc007f8f8" x="81.492665" y="229.092061" style="stroke: #000000; stroke-width: 0.8"/>
      </g>
     </g>
     <g id="text_2">
      <!-- 100 -->
      <g transform="translate(71.948915 243.690499) scale(0.1 -0.1)">
       <defs>
        <path id="DejaVuSans-31" d="M 794 531 
L 1825 531 
L 1825 4091 
L 703 3866 
L 703 4441 
L 1819 4666 
L 2450 4666 
L 2450 531 
L 3481 531 
L 3481 0 
L 794 0 
L 794 531 
z
" transform="scale(0.015625)"/>
       </defs>
       <use xlink:href="#DejaVuSans-31"/>
       <use xlink:href="#DejaVuSans-30" x="63.623047"/>
       <use xlink:href="#DejaVuSans-30" x="127.246094"/>
      </g>
     </g>
    </g>
    <g id="xtick_3">
     <g id="line2d_3">
      <g>
       <use xlink:href="#m8bc007f8f8" x="121.352257" y="229.092061" style="stroke: #000000; stroke-width: 0.8"/>
      </g>
     </g>
     <g id="text_3">
      <!-- 200 -->
      <g transform="translate(111.808507 243.690499) scale(0.1 -0.1)">
       <defs>
        <path id="DejaVuSans-32" d="M 1228 531 
L 3431 531 
L 3431 0 
L 469 0 
L 469 531 
Q 828 903 1448 1529 
Q 2069 2156 2228 2338 
Q 2531 2678 2651 2914 
Q 2772 3150 2772 3378 
Q 2772 3750 2511 3984 
Q 2250 4219 1831 4219 
Q 1534 4219 1204 4116 
Q 875 4013 500 3803 
L 500 4441 
Q 881 4594 1212 4672 
Q 1544 4750 1819 4750 
Q 2544 4750 2975 4387 
Q 3406 4025 3406 3419 
Q 3406 3131 3298 2873 
Q 3191 2616 2906 2266 
Q 2828 2175 2409 1742 
Q 1991 1309 1228 531 
z
" transform="scale(0.015625)"/>
       </defs>
       <use xlink:href="#DejaVuSans-32"/>
       <use xlink:href="#DejaVuSans-30" x="63.623047"/>
       <use xlink:href="#DejaVuSans-30" x="127.246094"/>
      </g>
     </g>
    </g>
    <g id="xtick_4">
     <g id="line2d_4">
      <g>
       <use xlink:href="#m8bc007f8f8" x="161.211849" y="229.092061" style="stroke: #000000; stroke-width: 0.8"/>
      </g>
     </g>
     <g id="text_4">
      <!-- 300 -->
      <g transform="translate(151.668099 243.690499) scale(0.1 -0.1)">
       <defs>
        <path id="DejaVuSans-33" d="M 2597 2516 
Q 3050 2419 3304 2112 
Q 3559 1806 3559 1356 
Q 3559 666 3084 287 
Q 2609 -91 1734 -91 
Q 1441 -91 1130 -33 
Q 819 25 488 141 
L 488 750 
Q 750 597 1062 519 
Q 1375 441 1716 441 
Q 2309 441 2620 675 
Q 2931 909 2931 1356 
Q 2931 1769 2642 2001 
Q 2353 2234 1838 2234 
L 1294 2234 
L 1294 2753 
L 1863 2753 
Q 2328 2753 2575 2939 
Q 2822 3125 2822 3475 
Q 2822 3834 2567 4026 
Q 2313 4219 1838 4219 
Q 1578 4219 1281 4162 
Q 984 4106 628 3988 
L 628 4550 
Q 988 4650 1302 4700 
Q 1616 4750 1894 4750 
Q 2613 4750 3031 4423 
Q 3450 4097 3450 3541 
Q 3450 3153 3228 2886 
Q 3006 2619 2597 2516 
z
" transform="scale(0.015625)"/>
       </defs>
       <use xlink:href="#DejaVuSans-33"/>
       <use xlink:href="#DejaVuSans-30" x="63.623047"/>
       <use xlink:href="#DejaVuSans-30" x="127.246094"/>
      </g>
     </g>
    </g>
    <g id="xtick_5">
     <g id="line2d_5">
      <g>
       <use xlink:href="#m8bc007f8f8" x="201.071441" y="229.092061" style="stroke: #000000; stroke-width: 0.8"/>
      </g>
     </g>
     <g id="text_5">
      <!-- 400 -->
      <g transform="translate(191.527691 243.690499) scale(0.1 -0.1)">
       <defs>
        <path id="DejaVuSans-34" d="M 2419 4116 
L 825 1625 
L 2419 1625 
L 2419 4116 
z
M 2253 4666 
L 3047 4666 
L 3047 1625 
L 3713 1625 
L 3713 1100 
L 3047 1100 
L 3047 0 
L 2419 0 
L 2419 1100 
L 313 1100 
L 313 1709 
L 2253 4666 
z
" transform="scale(0.015625)"/>
       </defs>
       <use xlink:href="#DejaVuSans-34"/>
       <use xlink:href="#DejaVuSans-30" x="63.623047"/>
       <use xlink:href="#DejaVuSans-30" x="127.246094"/>
      </g>
     </g>
    </g>
    <g id="xtick_6">
     <g id="line2d_6">
      <g>
       <use xlink:href="#m8bc007f8f8" x="240.931033" y="229.092061" style="stroke: #000000; stroke-width: 0.8"/>
      </g>
     </g>
     <g id="text_6">
      <!-- 500 -->
      <g transform="translate(231.387283 243.690499) scale(0.1 -0.1)">
       <defs>
        <path id="DejaVuSans-35" d="M 691 4666 
L 3169 4666 
L 3169 4134 
L 1269 4134 
L 1269 2991 
Q 1406 3038 1543 3061 
Q 1681 3084 1819 3084 
Q 2600 3084 3056 2656 
Q 3513 2228 3513 1497 
Q 3513 744 3044 326 
Q 2575 -91 1722 -91 
Q 1428 -91 1123 -41 
Q 819 9 494 109 
L 494 744 
Q 775 591 1075 516 
Q 1375 441 1709 441 
Q 2250 441 2565 725 
Q 2881 1009 2881 1497 
Q 2881 1984 2565 2268 
Q 2250 2553 1709 2553 
Q 1456 2553 1204 2497 
Q 953 2441 691 2322 
L 691 4666 
z
" transform="scale(0.015625)"/>
       </defs>
       <use xlink:href="#DejaVuSans-35"/>
       <use xlink:href="#DejaVuSans-30" x="63.623047"/>
       <use xlink:href="#DejaVuSans-30" x="127.246094"/>
      </g>
     </g>
    </g>
    <g id="xtick_7">
     <g id="line2d_7">
      <g>
       <use xlink:href="#m8bc007f8f8" x="280.790624" y="229.092061" style="stroke: #000000; stroke-width: 0.8"/>
      </g>
     </g>
     <g id="text_7">
      <!-- 600 -->
      <g transform="translate(271.246874 243.690499) scale(0.1 -0.1)">
       <defs>
        <path id="DejaVuSans-36" d="M 2113 2584 
Q 1688 2584 1439 2293 
Q 1191 2003 1191 1497 
Q 1191 994 1439 701 
Q 1688 409 2113 409 
Q 2538 409 2786 701 
Q 3034 994 3034 1497 
Q 3034 2003 2786 2293 
Q 2538 2584 2113 2584 
z
M 3366 4563 
L 3366 3988 
Q 3128 4100 2886 4159 
Q 2644 4219 2406 4219 
Q 1781 4219 1451 3797 
Q 1122 3375 1075 2522 
Q 1259 2794 1537 2939 
Q 1816 3084 2150 3084 
Q 2853 3084 3261 2657 
Q 3669 2231 3669 1497 
Q 3669 778 3244 343 
Q 2819 -91 2113 -91 
Q 1303 -91 875 529 
Q 447 1150 447 2328 
Q 447 3434 972 4092 
Q 1497 4750 2381 4750 
Q 2619 4750 2861 4703 
Q 3103 4656 3366 4563 
z
" transform="scale(0.015625)"/>
       </defs>
       <use xlink:href="#DejaVuSans-36"/>
       <use xlink:href="#DejaVuSans-30" x="63.623047"/>
       <use xlink:href="#DejaVuSans-30" x="127.246094"/>
      </g>
     </g>
    </g>
    <g id="xtick_8">
     <g id="line2d_8">
      <g>
       <use xlink:href="#m8bc007f8f8" x="320.650216" y="229.092061" style="stroke: #000000; stroke-width: 0.8"/>
      </g>
     </g>
     <g id="text_8">
      <!-- 700 -->
      <g transform="translate(311.106466 243.690499) scale(0.1 -0.1)">
       <defs>
        <path id="DejaVuSans-37" d="M 525 4666 
L 3525 4666 
L 3525 4397 
L 1831 0 
L 1172 0 
L 2766 4134 
L 525 4134 
L 525 4666 
z
" transform="scale(0.015625)"/>
       </defs>
       <use xlink:href="#DejaVuSans-37"/>
       <use xlink:href="#DejaVuSans-30" x="63.623047"/>
       <use xlink:href="#DejaVuSans-30" x="127.246094"/>
      </g>
     </g>
    </g>
    <g id="xtick_9">
     <g id="line2d_9">
      <g>
       <use xlink:href="#m8bc007f8f8" x="360.509808" y="229.092061" style="stroke: #000000; stroke-width: 0.8"/>
      </g>
     </g>
     <g id="text_9">
      <!-- 800 -->
      <g transform="translate(350.966058 243.690499) scale(0.1 -0.1)">
       <defs>
        <path id="DejaVuSans-38" d="M 2034 2216 
Q 1584 2216 1326 1975 
Q 1069 1734 1069 1313 
Q 1069 891 1326 650 
Q 1584 409 2034 409 
Q 2484 409 2743 651 
Q 3003 894 3003 1313 
Q 3003 1734 2745 1975 
Q 2488 2216 2034 2216 
z
M 1403 2484 
Q 997 2584 770 2862 
Q 544 3141 544 3541 
Q 544 4100 942 4425 
Q 1341 4750 2034 4750 
Q 2731 4750 3128 4425 
Q 3525 4100 3525 3541 
Q 3525 3141 3298 2862 
Q 3072 2584 2669 2484 
Q 3125 2378 3379 2068 
Q 3634 1759 3634 1313 
Q 3634 634 3220 271 
Q 2806 -91 2034 -91 
Q 1263 -91 848 271 
Q 434 634 434 1313 
Q 434 1759 690 2068 
Q 947 2378 1403 2484 
z
M 1172 3481 
Q 1172 3119 1398 2916 
Q 1625 2713 2034 2713 
Q 2441 2713 2670 2916 
Q 2900 3119 2900 3481 
Q 2900 3844 2670 4047 
Q 2441 4250 2034 4250 
Q 1625 4250 1398 4047 
Q 1172 3844 1172 3481 
z
" transform="scale(0.015625)"/>
       </defs>
       <use xlink:href="#DejaVuSans-38"/>
       <use xlink:href="#DejaVuSans-30" x="63.623047"/>
       <use xlink:href="#DejaVuSans-30" x="127.246094"/>
      </g>
     </g>
    </g>
   </g>
   <g id="matplotlib.axis_2">
    <g id="ytick_1">
     <g id="line2d_10">
      <defs>
       <path id="mfb1789d954" d="M 0 0 
L -3.5 0 
" style="stroke: #000000; stroke-width: 0.8"/>
      </defs>
      <g>
       <use xlink:href="#mfb1789d954" x="26.925" y="220.549387" style="stroke: #000000; stroke-width: 0.8"/>
      </g>
     </g>
     <g id="text_10">
      <!-- 40 -->
      <g transform="translate(7.2 224.348606) scale(0.1 -0.1)">
       <use xlink:href="#DejaVuSans-34"/>
       <use xlink:href="#DejaVuSans-30" x="63.623047"/>
      </g>
     </g>
    </g>
    <g id="ytick_2">
     <g id="line2d_11">
      <g>
       <use xlink:href="#mfb1789d954" x="26.925" y="178.639353" style="stroke: #000000; stroke-width: 0.8"/>
      </g>
     </g>
     <g id="text_11">
      <!-- 50 -->
      <g transform="translate(7.2 182.438572) scale(0.1 -0.1)">
       <use xlink:href="#DejaVuSans-35"/>
       <use xlink:href="#DejaVuSans-30" x="63.623047"/>
      </g>
     </g>
    </g>
    <g id="ytick_3">
     <g id="line2d_12">
      <g>
       <use xlink:href="#mfb1789d954" x="26.925" y="136.72932" style="stroke: #000000; stroke-width: 0.8"/>
      </g>
     </g>
     <g id="text_12">
      <!-- 60 -->
      <g transform="translate(7.2 140.528538) scale(0.1 -0.1)">
       <use xlink:href="#DejaVuSans-36"/>
       <use xlink:href="#DejaVuSans-30" x="63.623047"/>
      </g>
     </g>
    </g>
    <g id="ytick_4">
     <g id="line2d_13">
      <g>
       <use xlink:href="#mfb1789d954" x="26.925" y="94.819286" style="stroke: #000000; stroke-width: 0.8"/>
      </g>
     </g>
     <g id="text_13">
      <!-- 70 -->
      <g transform="translate(7.2 98.618505) scale(0.1 -0.1)">
       <use xlink:href="#DejaVuSans-37"/>
       <use xlink:href="#DejaVuSans-30" x="63.623047"/>
      </g>
     </g>
    </g>
    <g id="ytick_5">
     <g id="line2d_14">
      <g>
       <use xlink:href="#mfb1789d954" x="26.925" y="52.909252" style="stroke: #000000; stroke-width: 0.8"/>
      </g>
     </g>
     <g id="text_14">
      <!-- 80 -->
      <g transform="translate(7.2 56.708471) scale(0.1 -0.1)">
       <use xlink:href="#DejaVuSans-38"/>
       <use xlink:href="#DejaVuSans-30" x="63.623047"/>
      </g>
     </g>
    </g>
    <g id="ytick_6">
     <g id="line2d_15">
      <g>
       <use xlink:href="#mfb1789d954" x="26.925" y="10.999219" style="stroke: #000000; stroke-width: 0.8"/>
      </g>
     </g>
     <g id="text_15">
      <!-- 90 -->
      <g transform="translate(7.2 14.798437) scale(0.1 -0.1)">
       <defs>
        <path id="DejaVuSans-39" d="M 703 97 
L 703 672 
Q 941 559 1184 500 
Q 1428 441 1663 441 
Q 2288 441 2617 861 
Q 2947 1281 2994 2138 
Q 2813 1869 2534 1725 
Q 2256 1581 1919 1581 
Q 1219 1581 811 2004 
Q 403 2428 403 3163 
Q 403 3881 828 4315 
Q 1253 4750 1959 4750 
Q 2769 4750 3195 4129 
Q 3622 3509 3622 2328 
Q 3622 1225 3098 567 
Q 2575 -91 1691 -91 
Q 1453 -91 1209 -44 
Q 966 3 703 97 
z
M 1959 2075 
Q 2384 2075 2632 2365 
Q 2881 2656 2881 3163 
Q 2881 3666 2632 3958 
Q 2384 4250 1959 4250 
Q 1534 4250 1286 3958 
Q 1038 3666 1038 3163 
Q 1038 2656 1286 2365 
Q 1534 2075 1959 2075 
z
" transform="scale(0.015625)"/>
       </defs>
       <use xlink:href="#DejaVuSans-39"/>
       <use xlink:href="#DejaVuSans-30" x="63.623047"/>
      </g>
     </g>
    </g>
   </g>
   <g id="line2d_16">
    <path d="M 42.143182 19.673734 
L 42.20896 19.673734 
L 42.292489 17.412061 
L 42.461572 24.995835 
L 42.57393 26.456729 
L 42.674584 26.456729 
L 42.79041 27.708871 
L 42.848933 27.553048 
L 43.00198 30.869449 
L 43.253335 32.896882 
L 43.283559 32.896882 
L 43.437419 34.172194 
L 43.467917 33.751766 
L 43.527517 34.20553 
L 43.560315 34.20553 
L 43.681052 33.991801 
L 43.712583 33.991801 
L 43.837499 34.105587 
L 43.961807 35.387155 
L 43.994216 35.387155 
L 44.149194 36.6427 
L 44.177922 36.6427 
L 44.522076 37.667411 
L 44.551706 37.407291 
L 44.612557 37.521718 
L 44.828153 38.407573 
L 44.916457 38.407573 
L 45.094292 39.528479 
L 45.123973 39.036011 
L 45.182266 39.308609 
L 45.326094 40.435407 
L 45.385219 40.710157 
L 45.416595 40.086603 
L 45.597021 41.228198 
L 45.626087 41.228198 
L 45.881704 42.404694 
L 46.006117 42.303129 
L 46.159938 44.71143 
L 46.226484 44.71143 
L 46.410921 45.096068 
L 46.599118 45.197633 
L 46.632018 45.222102 
L 46.663579 46.010618 
L 46.695982 45.197633 
L 46.758023 45.615628 
L 46.787638 45.615628 
L 47.031134 46.244752 
L 47.059728 46.244752 
L 47.209127 46.630007 
L 47.300758 46.788168 
L 47.331042 46.276415 
L 47.514909 47.283622 
L 47.637077 47.236665 
L 47.666728 46.917879 
L 47.725732 47.405484 
L 47.810226 47.283622 
L 47.83885 47.310264 
L 47.917813 47.283622 
L 47.97836 47.460075 
L 48.038126 47.433433 
L 48.243936 47.588993 
L 48.333813 47.474575 
L 48.48316 49.060419 
L 48.542725 49.060419 
L 48.691508 49.386129 
L 48.721938 49.236873 
L 48.814454 49.339173 
L 48.901783 49.424474 
L 49.021725 50.239488 
L 49.050586 50.239488 
L 49.285136 50.69898 
L 49.936575 50.934703 
L 50.149103 52.238796 
L 50.206024 52.238796 
L 50.32523 53.625957 
L 50.354482 52.888145 
L 50.410524 52.853539 
L 50.440526 53.983179 
L 50.524962 53.625957 
L 50.556512 53.66053 
L 50.646235 54.58938 
L 50.677082 54.360311 
L 50.797434 54.256271 
L 50.9437 55.140448 
L 51.089125 55.168094 
L 51.116182 55.441361 
L 51.207719 55.244488 
L 51.351989 55.323734 
L 51.412649 56.008561 
L 51.443748 55.317778 
L 51.475546 55.904521 
L 51.505449 55.983766 
L 51.567087 55.904521 
L 51.627419 55.983766 
L 51.74689 56.749871 
L 51.806809 56.846042 
L 51.839253 56.925702 
L 51.966419 57.547766 
L 51.996114 57.373569 
L 52.057012 57.54675 
L 52.269822 58.048604 
L 52.39381 57.97755 
L 52.578029 58.894352 
L 52.638027 58.896265 
L 53.213673 61.371745 
L 53.35907 61.388868 
L 53.477588 61.562049 
L 53.507916 61.432372 
L 53.566759 61.581889 
L 53.777391 61.660731 
L 53.841079 61.694443 
L 53.872683 61.660731 
L 53.993802 62.27382 
L 54.056171 62.340639 
L 54.086361 62.879327 
L 54.179757 62.583641 
L 54.30023 62.65694 
L 54.357487 62.546977 
L 54.446837 63.162875 
L 54.603342 63.269194 
L 54.632599 63.418711 
L 54.69425 63.40187 
L 54.724499 63.298362 
L 54.78786 63.404723 
L 54.976488 63.756803 
L 55.040614 63.976117 
L 55.06976 64.397382 
L 55.13007 63.976117 
L 55.192972 64.038347 
L 55.441722 64.641999 
L 55.568654 64.209371 
L 55.695997 64.70141 
L 55.887132 66.27746 
L 55.983728 67.541328 
L 56.014228 67.436114 
L 56.205075 67.436114 
L 56.335583 67.939388 
L 56.429808 67.840914 
L 56.494511 67.957187 
L 56.656055 68.639938 
L 56.687934 68.322577 
L 56.721399 68.52409 
L 56.852451 69.620356 
L 56.884697 69.620356 
L 57.041114 70.392991 
L 57.072784 69.904654 
L 57.105662 70.842577 
L 57.173595 70.010869 
L 57.204016 70.091855 
L 57.299582 71.106376 
L 57.329949 70.757428 
L 57.362525 71.066314 
L 57.394165 70.645074 
L 57.42592 70.645074 
L 57.458099 70.649237 
L 57.796342 72.096924 
L 57.856556 72.170213 
L 58.009506 72.837643 
L 58.101136 72.596207 
L 58.130871 72.669496 
L 58.16142 72.596207 
L 58.316171 73.119103 
L 58.786087 74.736179 
L 58.816925 74.65945 
L 58.848782 74.443485 
L 58.912881 74.736179 
L 58.944865 74.567538 
L 58.975513 74.80179 
L 59.006832 74.72978 
L 59.100573 75.024402 
L 59.068749 74.695437 
L 59.162347 74.822166 
L 59.224987 74.858795 
L 59.254678 74.731708 
L 59.286229 74.884267 
L 59.3175 74.762039 
L 59.347728 75.113669 
L 59.377692 74.727451 
L 59.409971 74.806508 
L 59.502213 74.889085 
L 59.654468 75.478411 
L 59.684469 75.25142 
L 59.743386 75.618137 
L 59.774817 75.489117 
L 59.828346 75.618137 
L 59.885975 75.803405 
L 60.03499 76.55168 
L 60.064927 76.52163 
L 60.094501 76.52163 
L 60.215113 77.247865 
L 60.244071 77.056739 
L 60.305324 77.380242 
L 60.335124 77.371027 
L 60.366001 77.473207 
L 60.429052 77.552263 
L 60.743607 78.465728 
L 60.774461 78.440846 
L 60.833731 78.254758 
L 60.865037 78.26623 
L 60.956398 78.67389 
L 60.98667 78.477598 
L 61.019014 78.477598 
L 61.048101 78.73157 
L 61.146576 78.66553 
L 61.178734 78.66553 
L 61.271112 78.477598 
L 61.33172 79.047808 
L 61.42616 78.89673 
L 61.487198 78.89673 
L 61.612425 80.356432 
L 61.673253 80.356432 
L 61.794631 80.585871 
L 61.853856 80.356432 
L 61.918308 80.3897 
L 61.948478 80.356432 
L 61.979548 80.434924 
L 62.072954 80.900159 
L 62.102577 81.369125 
L 62.162751 80.900159 
L 62.49942 80.954081 
L 62.611387 81.423047 
L 62.702505 81.316902 
L 62.731629 81.36317 
L 62.886393 81.854821 
L 62.91543 81.628073 
L 62.975232 81.785252 
L 63.090859 82.35499 
L 63.120891 82.302924 
L 63.148804 82.410471 
L 63.177773 82.410471 
L 63.427532 82.491495 
L 63.459154 83.208466 
L 63.52399 82.546714 
L 63.646589 82.685284 
L 63.677156 82.546714 
L 63.736386 82.585319 
L 63.914329 83.537846 
L 64.183528 84.413447 
L 64.216225 84.32422 
L 64.246122 84.32422 
L 64.360433 84.656555 
L 64.389435 84.567328 
L 64.419686 84.708621 
L 64.450152 85.137011 
L 64.510543 84.835697 
L 64.541764 84.835697 
L 64.745148 85.488055 
L 64.829089 85.332548 
L 64.858816 85.413175 
L 64.889449 85.376621 
L 65.037806 86.579452 
L 65.09934 86.59829 
L 65.218906 86.38895 
L 65.336946 86.537192 
L 65.39436 86.631086 
L 65.521763 87.124478 
L 65.552647 87.097672 
L 65.612351 87.049382 
L 65.765823 87.266587 
L 65.854416 87.250159 
L 66.009098 87.47071 
L 66.311588 87.476136 
L 66.374947 87.810714 
L 66.432717 87.587545 
L 66.556305 87.693473 
L 66.61809 87.674456 
L 66.739635 88.114351 
L 66.770682 88.032315 
L 66.800899 88.07375 
L 66.919311 88.499381 
L 66.949433 88.444444 
L 66.980207 88.33025 
L 67.010451 88.589295 
L 67.071663 88.655415 
L 67.437241 89.944149 
L 67.557775 90.735386 
L 67.589379 90.735386 
L 67.713252 91.027663 
L 67.91397 90.758204 
L 68.03763 91.147359 
L 68.277592 91.090076 
L 68.457363 91.652543 
L 68.625279 91.731015 
L 68.74781 92.139148 
L 69.067047 92.205153 
L 69.19352 92.348965 
L 69.897665 92.368173 
L 69.987806 92.529586 
L 70.108763 92.370918 
L 70.238746 92.6009 
L 70.398821 92.686577 
L 70.531326 92.570562 
L 70.65544 93.749043 
L 70.741226 93.879341 
L 70.774096 93.866842 
L 70.807197 93.866842 
L 70.936209 94.02751 
L 71.15505 94.02751 
L 71.191965 94.549392 
L 71.252472 94.051053 
L 71.316907 94.06085 
L 71.452886 94.664489 
L 71.596196 94.76255 
L 71.685629 94.732812 
L 71.928757 95.497808 
L 71.959355 95.48531 
L 72.342574 95.564365 
L 72.485452 96.093015 
L 72.518051 96.093015 
L 72.647591 96.698847 
L 72.72468 96.698847 
L 72.879237 96.962985 
L 72.942438 97.06949 
L 73.01298 97.482864 
L 73.078758 97.348211 
L 73.150568 97.06949 
L 73.192496 97.214129 
L 73.334627 98.158198 
L 73.370675 98.67361 
L 73.438181 98.323622 
L 73.659576 98.808829 
L 73.794719 98.393415 
L 73.832171 98.424186 
L 73.862721 98.712666 
L 73.937898 98.443865 
L 74.351549 99.48288 
L 74.497654 99.446741 
L 74.530832 99.686887 
L 74.61228 99.560378 
L 74.7828 99.695032 
L 74.818596 99.949071 
L 74.915558 99.921401 
L 75.02487 100.00822 
L 75.05429 100.512856 
L 75.135197 100.087029 
L 75.32882 100.107888 
L 75.485391 101.081411 
L 75.605664 100.972558 
L 75.827672 101.534939 
L 75.887551 101.315227 
L 76.061777 103.821588 
L 76.121317 103.721024 
L 76.15261 103.191745 
L 76.21352 103.248927 
L 76.34648 103.785545 
L 76.485748 103.721024 
L 76.520246 103.984555 
L 76.586945 103.819789 
L 76.626508 103.819789 
L 76.797741 104.244183 
L 77.036325 104.976335 
L 77.066041 104.836264 
L 77.368379 105.3581 
L 77.398401 105.331796 
L 77.431767 105.259616 
L 77.684509 106.506459 
L 77.715324 106.506459 
L 77.752586 106.314947 
L 77.824726 106.386499 
L 78.058131 106.567514 
L 78.186632 106.976207 
L 78.437311 107.029736 
L 78.515543 107.087449 
L 78.548464 107.015811 
L 78.794156 107.098792 
L 78.826551 107.186261 
L 78.858027 107.015811 
L 78.887061 107.036965 
L 79.046611 107.182601 
L 79.187991 107.189301 
L 79.28375 107.21998 
L 79.461699 107.35975 
L 79.634923 107.406516 
L 79.765516 107.508316 
L 80.283916 107.615624 
L 80.45931 107.703092 
L 80.598526 107.648232 
L 80.70786 107.608627 
L 80.948914 107.987741 
L 81.133919 108.041979 
L 81.2629 108.550493 
L 81.359534 108.493967 
L 81.489031 109.986947 
L 81.522073 110.229842 
L 81.598197 109.986947 
L 81.735093 110.022532 
L 81.972816 110.472055 
L 82.145235 110.528581 
L 82.291685 110.611334 
L 83.21916 110.639544 
L 83.247816 111.451065 
L 83.308703 110.682896 
L 83.455791 110.61072 
L 83.520009 110.71435 
L 83.849151 110.887242 
L 83.908122 111.205306 
L 83.982255 111.180797 
L 84.012092 110.753164 
L 84.116961 110.777673 
L 84.176277 110.865291 
L 84.243039 110.777673 
L 84.406437 110.834198 
L 84.438568 111.564684 
L 84.471661 110.824416 
L 84.500512 110.824416 
L 84.615554 110.832706 
L 84.735502 111.028338 
L 85.042612 111.028338 
L 85.161439 111.429858 
L 85.22234 111.402075 
L 85.474762 112.317775 
L 85.748753 112.413401 
L 85.781162 112.495792 
L 85.810294 112.413401 
L 85.94742 113.035444 
L 86.249272 113.078796 
L 86.378359 113.496041 
L 86.527083 113.482891 
L 86.588451 113.482891 
L 86.711054 113.674987 
L 86.866586 113.724003 
L 87.0644 113.792362 
L 87.233935 113.835291 
L 87.30047 113.792362 
L 87.329949 113.954025 
L 87.405027 113.845617 
L 87.528575 113.813419 
L 87.662145 114.091587 
L 87.704546 113.845778 
L 87.743715 114.065164 
L 87.940227 114.124317 
L 88.102691 114.091587 
L 88.262612 114.923268 
L 88.292818 114.624043 
L 88.388134 114.734605 
L 88.498923 114.734605 
L 88.588525 114.955999 
L 88.623431 114.931377 
L 88.694302 114.767336 
L 88.766063 114.818555 
L 88.866461 114.767336 
L 89.008219 114.986305 
L 89.191277 115.074484 
L 89.222208 115.172119 
L 89.310272 115.095541 
L 89.402066 115.110182 
L 89.586146 115.738353 
L 89.627518 115.738353 
L 89.773757 116.021522 
L 89.979685 116.314112 
L 90.179411 116.036458 
L 90.256098 116.209682 
L 90.360722 116.09912 
L 90.432244 116.209682 
L 90.463682 115.917092 
L 90.496693 116.081133 
L 90.59076 116.036458 
L 90.878436 116.031057 
L 91.048007 116.384526 
L 91.346084 116.441054 
L 91.447928 116.682926 
L 91.58509 116.459767 
L 91.723825 116.390041 
L 91.756627 116.786219 
L 91.831628 116.673431 
L 91.864038 116.673431 
L 91.92993 116.373619 
L 92.00737 116.470992 
L 92.074705 116.788938 
L 92.10918 116.590358 
L 92.14697 116.590358 
L 92.280104 116.763582 
L 92.376224 116.849635 
L 92.477865 117.038185 
L 92.631987 117.791248 
L 92.663833 117.791248 
L 92.802881 118.28047 
L 93.01505 118.28047 
L 93.160814 118.418574 
L 93.239213 118.442589 
L 93.551929 120.400823 
L 93.804671 120.494119 
L 94.088513 120.696267 
L 94.118296 120.707361 
L 94.147329 120.865135 
L 94.214092 120.683346 
L 94.272692 121.168322 
L 94.330973 120.74841 
L 94.421959 120.707361 
L 94.549404 120.915536 
L 94.577415 120.876972 
L 94.612227 121.061764 
L 94.668758 120.906516 
L 94.735737 120.726099 
L 94.768163 120.934274 
L 94.996797 120.915536 
L 95.193889 121.569086 
L 95.434354 121.634151 
L 95.550488 121.642971 
L 95.697007 122.11619 
L 95.788422 122.188146 
L 95.907221 122.431286 
L 96.034033 122.548384 
L 96.0642 122.758774 
L 96.093333 122.467842 
L 96.120745 122.477737 
L 96.151716 122.476977 
L 96.181357 122.848002 
L 96.274885 122.80656 
L 96.390055 123.000186 
L 96.421965 122.963498 
L 96.452541 123.362191 
L 96.511528 122.962761 
L 96.541496 122.962761 
L 96.635145 123.103389 
L 96.696396 122.973295 
L 96.753986 122.987088 
L 96.816102 122.98514 
L 96.876196 123.365111 
L 96.93508 123.166184 
L 96.993164 122.981693 
L 97.01998 123.240905 
L 97.197808 123.353669 
L 97.350833 124.125915 
L 97.561501 124.116119 
L 97.711951 124.212427 
L 97.86173 124.294516 
L 97.919946 124.859813 
L 97.949448 124.581669 
L 97.981928 124.286614 
L 98.068395 124.427521 
L 98.096394 124.427521 
L 98.1261 124.812651 
L 98.186439 124.34698 
L 98.304259 124.34698 
L 98.392267 124.459751 
L 98.513688 124.290731 
L 98.54393 124.262008 
L 98.666465 124.48024 
L 98.988733 124.532293 
L 99.137505 125.754467 
L 99.473129 125.755796 
L 99.502775 125.998069 
L 99.565345 125.754467 
L 99.654974 125.761865 
L 99.776956 125.931841 
L 100.696315 126.035833 
L 100.726902 126.419751 
L 100.756824 125.938314 
L 100.78929 125.938314 
L 100.937971 126.035833 
L 100.966955 126.035833 
L 101.111404 126.354721 
L 101.445441 127.079062 
L 101.532163 126.990598 
L 101.56164 127.277083 
L 101.622628 127.077773 
L 102.005983 127.079062 
L 102.427414 127.421624 
L 102.456569 127.378645 
L 102.544904 127.444633 
L 102.724256 127.505305 
L 102.906103 127.812949 
L 103.051478 127.817524 
L 103.080482 128.013954 
L 103.170137 127.867254 
L 103.28849 127.969397 
L 103.319942 128.161676 
L 103.35045 127.957826 
L 103.382143 127.957826 
L 103.567816 127.967918 
L 103.716631 128.51991 
L 103.866471 128.51991 
L 104.048533 128.844484 
L 104.077991 128.844484 
L 104.414384 129.768604 
L 104.444243 129.657924 
L 104.476562 129.864003 
L 104.507484 129.773737 
L 104.62913 129.864003 
L 104.720529 129.96238 
L 104.812393 131.079833 
L 104.842763 131.049341 
L 105.024645 131.089119 
L 105.055868 131.089119 
L 105.203665 132.275014 
L 105.263976 132.006167 
L 105.323054 132.149235 
L 105.446336 132.208899 
L 105.59907 132.435503 
L 105.630643 132.263378 
L 105.692665 132.454379 
L 105.93569 132.456774 
L 106.056496 132.757965 
L 106.085776 132.757965 
L 106.146064 133.163808 
L 106.208579 133.070435 
L 106.45125 133.22207 
L 106.724466 133.319713 
L 106.940862 133.546329 
L 107.154044 133.624869 
L 107.306692 134.278135 
L 107.490575 134.351771 
L 107.610704 134.493636 
L 107.731195 134.484278 
L 107.791124 134.631344 
L 107.851919 134.562925 
L 108.03223 134.564498 
L 108.250828 134.665273 
L 108.28519 134.747517 
L 108.332687 134.665273 
L 108.489394 134.73197 
L 108.524795 134.926832 
L 108.561475 134.665273 
L 108.591809 134.849491 
L 108.642653 134.681406 
L 108.695094 134.730761 
L 108.850105 134.72893 
L 108.974654 135.383151 
L 109.038503 135.582517 
L 109.069072 135.449849 
L 109.101286 135.383151 
L 109.131421 135.449849 
L 109.161965 135.534305 
L 109.195712 135.385458 
L 109.225988 136.310525 
L 109.290942 135.519336 
L 109.323989 135.519336 
L 109.365019 135.768274 
L 109.40629 135.438594 
L 109.574379 135.611663 
L 109.706445 135.640698 
L 109.807043 135.66307 
L 110.095456 135.915407 
L 110.248752 137.04937 
L 110.464848 137.092979 
L 110.616956 137.483279 
L 110.679219 137.388883 
L 110.743023 137.430116 
L 110.863715 137.430116 
L 110.959317 137.388883 
L 111.078755 137.504135 
L 111.233462 137.53949 
L 111.387913 137.884772 
L 111.511557 137.884772 
L 111.671294 138.811179 
L 111.764484 139.608567 
L 111.797038 139.534984 
L 111.828184 139.534984 
L 111.927207 138.95911 
L 111.95934 139.017733 
L 112.057206 138.932303 
L 112.206776 139.97843 
L 112.252549 139.97843 
L 112.404744 140.294234 
L 112.786778 140.326304 
L 112.818712 140.529292 
L 112.851328 140.313774 
L 112.880768 140.313774 
L 113.224902 140.443729 
L 113.441826 141.640873 
L 113.469612 141.464 
L 113.531851 141.623723 
L 113.70839 141.623723 
L 113.855957 141.81218 
L 113.887772 141.81218 
L 114.010664 142.254968 
L 114.072582 142.109045 
L 114.10404 142.261333 
L 114.292235 142.333753 
L 114.380888 142.307917 
L 114.541364 143.053528 
L 114.568182 142.379445 
L 114.656421 142.526814 
L 114.686746 142.526814 
L 114.715256 142.379445 
L 114.805967 142.493695 
L 114.837554 142.493695 
L 114.926869 143.687328 
L 114.959675 143.620312 
L 115.08597 143.602108 
L 115.329491 144.178735 
L 115.598906 144.936827 
L 115.658345 144.524056 
L 115.687526 144.784221 
L 115.864787 144.963578 
L 115.893496 144.90021 
L 115.950017 144.926901 
L 116.071452 145.557715 
L 116.16196 145.586359 
L 116.283188 146.35964 
L 116.373714 146.388683 
L 116.524464 146.752515 
L 116.554538 146.523349 
L 116.646706 146.604109 
L 116.825054 146.653954 
L 116.972146 146.928196 
L 117.278086 147.187328 
L 117.368221 146.963556 
L 117.399818 147.009411 
L 117.548299 146.978181 
L 117.701898 146.963556 
L 117.732147 146.946407 
L 117.762531 147.092055 
L 117.84332 147.048861 
L 117.874243 146.961216 
L 117.965479 147.011123 
L 118.62687 146.946407 
L 118.658886 147.247491 
L 118.741869 147.00562 
L 118.771304 147.065962 
L 118.798923 146.920274 
L 118.828828 146.955926 
L 118.955743 146.973574 
L 119.01075 147.171568 
L 119.068866 147.081089 
L 119.186025 147.054077 
L 119.217255 147.632462 
L 119.307235 147.509704 
L 119.397743 147.792366 
L 119.425594 147.750625 
L 119.488999 147.750625 
L 119.610308 147.513566 
L 119.639145 147.626598 
L 119.719548 147.52433 
L 119.898982 147.575381 
L 120.346892 147.577583 
L 120.49963 148.44688 
L 120.617534 148.594173 
L 120.703828 148.536624 
L 120.853052 149.020927 
L 120.940065 149.036117 
L 121.028494 149.294001 
L 121.057513 149.180163 
L 121.362758 149.076082 
L 121.457173 149.127391 
L 121.669267 149.374965 
L 121.729936 149.374965 
L 121.878446 149.727291 
L 122.030378 149.742034 
L 122.145487 149.855656 
L 122.511003 150.471113 
L 122.629968 150.589481 
L 122.749687 150.655571 
L 122.903548 150.66965 
L 122.932314 150.66965 
L 123.07725 151.175372 
L 123.316507 151.342778 
L 123.437845 151.378484 
L 123.499299 151.994903 
L 123.556463 151.597842 
L 124.071093 151.694249 
L 124.133576 151.834274 
L 124.164685 151.75535 
L 124.227769 151.710372 
L 124.345455 151.931179 
L 124.464477 151.951874 
L 124.60703 152.078782 
L 124.696889 152.217823 
L 124.728033 152.244307 
L 124.884579 152.860726 
L 125.188881 152.895055 
L 125.39645 153.780282 
L 125.428092 153.780282 
L 125.522814 154.060138 
L 125.553109 154.042421 
L 125.614228 154.195042 
L 125.701094 154.422463 
L 125.730275 154.381048 
L 126.00056 154.565224 
L 126.121319 154.527471 
L 126.417574 154.610548 
L 126.478572 154.791351 
L 126.50856 154.625286 
L 126.689057 154.703212 
L 126.843424 154.776491 
L 126.902333 154.759654 
L 126.960734 155.254818 
L 127.020191 155.21735 
L 127.050306 155.250504 
L 127.110196 155.176588 
L 127.229403 155.268988 
L 127.259742 155.394957 
L 127.288633 155.204876 
L 127.320255 155.269252 
L 127.435819 155.213895 
L 127.734784 155.431 
L 127.764307 155.580106 
L 127.822059 155.431 
L 128.094653 155.534598 
L 128.156706 155.694227 
L 128.184782 155.534598 
L 128.272247 155.534598 
L 128.334866 155.978182 
L 128.396477 155.668595 
L 128.870709 156.111489 
L 128.931883 155.884049 
L 128.993608 155.983526 
L 129.196141 156.076759 
L 129.530182 157.679492 
L 129.559993 157.454152 
L 129.765654 157.570319 
L 129.796873 157.570319 
L 129.923374 158.077338 
L 130.071456 158.182068 
L 130.18892 158.571523 
L 130.366321 158.587289 
L 130.661043 158.965142 
L 130.815104 160.876174 
L 130.904951 160.756546 
L 130.935653 160.807783 
L 130.96475 160.756546 
L 131.026415 160.82633 
L 131.273709 160.915918 
L 131.423718 161.442773 
L 131.570839 161.52358 
L 131.781604 161.581891 
L 131.811581 161.444761 
L 131.900945 161.494515 
L 132.20724 161.664184 
L 132.269789 161.736167 
L 132.300574 161.571993 
L 132.390115 161.637803 
L 132.512037 161.518269 
L 132.844784 161.638721 
L 132.902466 161.578312 
L 132.933021 161.593875 
L 133.084554 161.915927 
L 133.262812 161.799684 
L 133.388998 161.951366 
L 133.54119 161.985461 
L 133.633822 161.911172 
L 133.66241 161.93785 
L 133.692167 161.944312 
L 133.811544 162.057191 
L 133.901309 162.084278 
L 134.080613 162.413401 
L 134.293192 162.738194 
L 134.321624 162.692894 
L 134.351925 162.42913 
L 134.445719 162.449395 
L 134.503684 162.449395 
L 134.564027 162.669961 
L 134.592244 162.576561 
L 134.718575 162.452745 
L 135.02366 162.731043 
L 135.180802 162.746398 
L 135.241455 162.746398 
L 135.272367 162.919504 
L 135.332808 162.840325 
L 135.454717 162.761036 
L 135.484384 162.864249 
L 135.57557 162.833676 
L 135.964968 162.915053 
L 136.387898 163.316619 
L 136.513423 163.263036 
L 136.602764 163.481112 
L 136.723959 163.263036 
L 136.755114 163.267388 
L 136.786571 163.490631 
L 136.844216 163.300978 
L 136.907299 163.292836 
L 136.934748 163.440267 
L 137.024523 163.355938 
L 137.210007 163.310199 
L 137.368396 163.577105 
L 137.428784 163.520432 
L 137.520416 163.745771 
L 137.550628 163.59712 
L 137.607962 163.520432 
L 137.671807 163.583534 
L 137.852012 163.659724 
L 137.912025 163.653385 
L 137.942683 163.858015 
L 138.03595 163.775934 
L 138.362524 164.220589 
L 138.393482 164.382233 
L 138.419866 164.098041 
L 138.481118 164.305234 
L 138.510206 164.305234 
L 138.572648 164.537485 
L 138.634299 164.52317 
L 138.72404 164.586272 
L 138.846405 164.762708 
L 139.088551 164.795687 
L 139.238086 165.202517 
L 139.451 165.246676 
L 139.601851 165.37786 
L 139.87002 165.555853 
L 139.957388 166.040805 
L 139.98799 165.842545 
L 140.018052 165.811028 
L 140.048032 165.869899 
L 140.195799 165.971485 
L 140.374268 165.94161 
L 140.493178 166.295423 
L 140.582794 166.313448 
L 140.610978 166.520907 
L 140.672403 166.349219 
L 141.349046 166.401391 
L 141.377526 166.503411 
L 141.468888 166.419416 
L 141.558076 166.418017 
L 141.586825 166.474568 
L 141.616179 166.474568 
L 141.735893 166.706534 
L 142.336843 166.794397 
L 142.455195 166.850438 
L 142.605523 166.88868 
L 142.725752 166.944865 
L 142.757162 166.88868 
L 142.842016 166.946686 
L 143.019036 166.961221 
L 143.049093 166.961221 
L 143.171854 168.074764 
L 143.260622 168.208963 
L 143.31748 168.178955 
L 143.921815 168.262825 
L 144.069104 168.363581 
L 144.09982 168.363581 
L 144.222095 168.516531 
L 144.401878 168.508654 
L 144.549346 168.683201 
L 144.666654 168.574554 
L 144.72255 168.643719 
L 144.814831 168.832583 
L 144.9356 168.643719 
L 145.056379 168.70873 
L 145.088347 168.660933 
L 145.178197 168.934692 
L 145.209984 168.775532 
L 145.242249 168.71183 
L 145.306511 168.80554 
L 145.546506 168.851814 
L 145.575302 168.916825 
L 145.725987 169.414898 
L 146.564102 169.524434 
L 146.696486 169.560545 
L 146.81824 169.561112 
L 146.905253 169.560545 
L 147.026308 169.676137 
L 147.114919 169.640025 
L 147.20256 170.086007 
L 147.231778 169.640025 
L 147.262365 170.201599 
L 147.29122 170.201599 
L 147.476389 170.475358 
L 147.568721 170.232453 
L 147.71999 170.773586 
L 147.899386 170.729246 
L 148.072047 170.7908 
L 148.099687 171.003005 
L 148.188798 170.853951 
L 148.402523 171.099578 
L 148.461992 170.853951 
L 148.493666 171.12771 
L 149.27847 171.182223 
L 149.42811 171.313786 
L 149.5776 171.379175 
L 149.904733 171.371568 
L 150.019778 171.735653 
L 150.231824 171.807399 
L 150.380537 172.12223 
L 150.439739 172.12223 
L 150.503021 172.356835 
L 150.532322 172.11161 
L 150.648154 172.096144 
L 150.733415 172.356835 
L 150.760367 172.158552 
L 150.789259 172.158552 
L 150.928486 172.750232 
L 151.102748 172.797096 
L 151.219849 173.694595 
L 151.25103 173.760055 
L 151.340003 173.694595 
L 151.546668 173.76853 
L 151.691509 173.871459 
L 151.722094 173.812607 
L 151.748541 173.916427 
L 151.779861 173.916427 
L 151.806896 173.916427 
L 151.836591 174.034439 
L 151.898795 173.878067 
L 152.399295 173.897956 
L 152.518484 174.14668 
L 153.38401 174.253321 
L 153.500461 174.350226 
L 153.875407 174.423493 
L 153.968003 174.734081 
L 153.996413 174.701394 
L 154.056488 174.701394 
L 154.202099 174.907008 
L 154.310784 174.936758 
L 154.432815 175.345764 
L 154.581041 175.410611 
L 155.385846 175.462966 
L 155.531616 175.536233 
L 155.562363 175.597775 
L 155.622894 175.524508 
L 155.653184 175.524508 
L 155.797285 175.994082 
L 155.826379 175.954098 
L 155.942904 176.255562 
L 155.972306 176.261158 
L 156.090999 176.438147 
L 157.036332 176.525666 
L 157.158965 176.60341 
L 157.18842 176.573394 
L 157.310981 176.534531 
L 157.642026 176.593015 
L 158.457661 176.648079 
L 158.611044 176.739102 
L 158.782351 176.746057 
L 158.960149 176.773543 
L 158.988908 176.709085 
L 159.017744 176.813751 
L 159.048214 176.813751 
L 159.166957 176.709085 
L 159.319879 176.658087 
L 159.349746 176.700493 
L 159.976533 176.77773 
L 160.096954 177.144957 
L 160.035244 176.699408 
L 160.127725 177.091723 
L 160.21803 176.679948 
L 160.245784 176.70424 
L 160.394642 176.698567 
L 160.829509 176.711459 
L 160.980561 176.654727 
L 161.167014 176.684804 
L 161.319539 177.184302 
L 161.497891 177.237093 
L 161.674443 177.244207 
L 162.004547 177.374238 
L 162.095514 177.487775 
L 162.123109 177.380289 
L 162.301997 177.468261 
L 162.332106 177.502884 
L 162.390876 177.449642 
L 162.509846 177.421818 
L 162.722681 177.596127 
L 162.877464 177.701125 
L 162.99738 177.681373 
L 163.029066 177.723511 
L 163.059447 177.681373 
L 163.11981 177.596127 
L 163.178534 177.637453 
L 163.304084 178.144358 
L 163.394165 177.633798 
L 163.423457 177.662081 
L 163.570683 177.653661 
L 163.600493 177.675562 
L 163.63292 178.179216 
L 163.727217 178.053825 
L 163.845568 178.16056 
L 163.90606 178.202656 
L 163.933904 178.754497 
L 163.96246 178.17916 
L 163.991233 178.17916 
L 164.262217 178.279948 
L 164.384317 178.279948 
L 164.507104 178.495831 
L 164.568001 178.495831 
L 164.687855 178.877019 
L 164.776968 178.934594 
L 164.806313 178.998373 
L 164.89416 178.934594 
L 164.924358 178.848719 
L 165.014631 178.915643 
L 165.04704 179.035012 
L 165.108786 178.918348 
L 165.196368 178.953786 
L 165.31717 179.348311 
L 165.442128 179.392283 
L 165.560872 180.079497 
L 165.677724 180.16615 
L 165.827835 180.200774 
L 166.305947 180.190838 
L 166.42716 180.696439 
L 166.457274 180.580158 
L 166.547714 180.652383 
L 166.701272 180.625574 
L 166.906273 180.879304 
L 166.937273 180.82068 
L 167.137728 180.801603 
L 167.290801 180.994067 
L 167.529959 181.115119 
L 167.652423 181.028198 
L 167.830877 181.20039 
L 167.88826 181.145729 
L 167.946333 181.216125 
L 168.190924 181.260342 
L 168.339523 181.532513 
L 168.398627 181.425729 
L 168.46216 181.502787 
L 168.551267 181.426112 
L 168.581449 181.516797 
L 168.640624 181.425086 
L 171.260553 181.46543 
L 171.37937 181.543597 
L 171.407705 181.455675 
L 171.468596 181.536227 
L 171.565015 181.522518 
L 171.715651 181.455675 
L 171.895191 181.51134 
L 171.925448 181.480503 
L 172.017362 181.786672 
L 172.049056 181.629757 
L 172.284097 181.69612 
L 172.431607 181.797549 
L 172.790699 182.194339 
L 172.819011 182.137391 
L 172.852361 182.226529 
L 172.875113 182.226529 
L 173.474281 182.294987 
L 173.62385 182.405725 
L 173.742272 182.427665 
L 173.855642 182.742684 
L 173.88439 182.729921 
L 174.449334 182.777261 
L 174.479089 182.86479 
L 174.538536 182.777261 
L 174.632864 182.763125 
L 174.780127 183.103699 
L 175.29567 183.084634 
L 175.417898 183.500719 
L 175.629153 183.751025 
L 175.779249 183.649795 
L 176.302437 183.723873 
L 176.423899 183.723873 
L 176.57491 183.793972 
L 176.754061 183.894358 
L 177.12291 184.004255 
L 177.152613 184.046509 
L 177.213163 183.960046 
L 177.580258 183.989538 
L 177.764639 184.094931 
L 178.097892 184.08828 
L 178.129466 184.167406 
L 178.218254 184.094578 
L 178.551771 184.17428 
L 178.583203 184.253051 
L 178.639026 184.167052 
L 179.464685 184.270951 
L 179.642327 184.304408 
L 179.793375 184.343141 
L 179.917589 184.508001 
L 180.066736 184.539299 
L 180.285933 184.683684 
L 180.465965 184.875619 
L 180.652263 184.833473 
L 181.593118 184.881101 
L 181.653119 185.174022 
L 181.683824 184.894659 
L 181.923281 184.904817 
L 182.106163 184.873203 
L 182.136296 185.228567 
L 182.19781 184.873203 
L 182.585394 184.916709 
L 182.64563 185.179115 
L 182.703798 184.976289 
L 182.731825 184.965168 
L 182.853995 185.267402 
L 183.004272 185.213258 
L 183.065888 185.202016 
L 183.184776 185.575476 
L 183.277258 185.708922 
L 183.546382 186.915976 
L 184.088874 187.020701 
L 184.211362 187.015143 
L 184.359684 186.988813 
L 184.541023 187.044634 
L 184.632943 187.100855 
L 184.667808 187.369792 
L 184.701784 187.042422 
L 184.733802 187.042422 
L 185.563666 187.096947 
L 185.750695 187.468542 
L 185.871937 187.44435 
L 186.981796 187.542487 
L 187.166682 187.679088 
L 187.525525 187.76575 
L 187.710385 187.915302 
L 187.950085 187.933954 
L 187.981046 188.055835 
L 188.039343 187.933954 
L 188.800755 188.025016 
L 188.828682 188.107787 
L 188.859043 187.993061 
L 188.918193 188.066261 
L 189.369342 188.071697 
L 189.462518 188.256484 
L 189.523649 188.22769 
L 189.555041 188.224822 
L 189.674888 188.380815 
L 189.701289 188.28492 
L 189.790488 188.346989 
L 190.121541 188.369619 
L 190.299772 188.61665 
L 191.559869 188.685279 
L 191.648557 188.750891 
L 191.678922 188.715179 
L 192.101915 188.715805 
L 192.164278 189.52594 
L 192.224285 189.107344 
L 192.254637 189.107344 
L 192.281186 189.483706 
L 192.342255 189.107344 
L 192.54727 189.127334 
L 192.666367 189.235952 
L 193.547538 189.315206 
L 193.579127 189.465872 
L 193.669332 190.288208 
L 193.699181 190.257682 
L 193.876877 190.287582 
L 194.120728 190.280556 
L 194.236351 190.572783 
L 194.356521 190.587819 
L 194.477603 190.742459 
L 195.163026 190.820375 
L 195.253653 190.937985 
L 195.285308 190.851761 
L 195.404191 190.820375 
L 195.523088 191.347589 
L 196.381436 191.347589 
L 196.410997 191.507181 
L 196.471074 191.357578 
L 197.705639 191.438409 
L 197.794589 191.511744 
L 197.828187 191.473449 
L 198.369741 191.453548 
L 198.401131 191.818889 
L 198.431507 191.438724 
L 198.460608 191.445963 
L 198.582786 191.510398 
L 198.670676 191.581765 
L 198.701227 191.54519 
L 199.443996 191.515075 
L 199.562146 191.674666 
L 200.136247 191.865802 
L 200.349342 191.867246 
L 200.437008 192.299903 
L 200.467048 192.288111 
L 201.693708 192.334242 
L 201.816741 192.426997 
L 203.280141 192.530916 
L 203.52353 192.57545 
L 203.640944 192.581937 
L 204.126456 192.660804 
L 204.244346 192.735013 
L 204.697923 192.660804 
L 204.820369 192.656201 
L 206.327668 192.689437 
L 206.358343 192.79006 
L 206.419143 192.699426 
L 206.607685 192.711929 
L 206.67139 192.795064 
L 206.699795 192.780071 
L 206.757798 192.694176 
L 206.788446 192.780071 
L 207.292222 192.704429 
L 207.439548 193.175517 
L 208.45097 193.25706 
L 208.482513 193.306082 
L 208.544168 193.25706 
L 208.725985 193.223318 
L 208.846248 193.259285 
L 208.966417 193.352272 
L 209.084969 193.427314 
L 209.202499 193.515097 
L 209.446461 193.455537 
L 209.870035 193.593268 
L 209.979808 194.596594 
L 210.102867 194.479462 
L 210.34103 194.462353 
L 210.371271 194.664419 
L 210.432657 194.481204 
L 210.645086 194.481204 
L 210.768191 194.733094 
L 210.982334 194.725035 
L 211.346611 194.783268 
L 211.498935 194.748721 
L 212.918419 194.835229 
L 213.070101 194.942147 
L 213.101555 194.913618 
L 213.131281 194.948702 
L 213.280214 195.077925 
L 213.943756 195.192859 
L 214.098353 195.26324 
L 214.188561 195.217222 
L 214.218188 195.252237 
L 215.154821 195.289431 
L 215.185037 195.364607 
L 215.275409 195.296243 
L 215.461516 195.296243 
L 215.668328 195.296243 
L 215.882312 195.897117 
L 215.974039 195.702137 
L 216.004425 195.722255 
L 216.062964 195.702137 
L 216.214607 195.982813 
L 216.366398 196.031835 
L 216.518562 196.313557 
L 216.872684 196.32981 
L 217.651506 196.351885 
L 217.775472 197.227028 
L 217.927703 197.302803 
L 218.080502 197.21533 
L 218.199995 197.235013 
L 218.321081 197.930262 
L 218.688558 198.119755 
L 218.717383 198.054846 
L 218.775332 197.944252 
L 218.83648 197.967797 
L 219.014323 197.967797 
L 219.890434 198.020945 
L 219.919645 198.11829 
L 219.980145 198.020945 
L 220.041995 197.982089 
L 220.16298 198.171582 
L 221.176074 198.265247 
L 221.23396 198.358761 
L 221.261763 198.295912 
L 221.349003 198.230043 
L 221.380488 198.263384 
L 221.710373 198.230079 
L 221.736975 198.383921 
L 221.827363 198.303192 
L 221.916841 198.380192 
L 222.221675 198.407184 
L 222.313045 198.688939 
L 222.376034 198.407184 
L 222.43642 198.418944 
L 222.802756 198.513005 
L 222.917956 198.592903 
L 223.160202 198.577663 
L 224.091059 198.745509 
L 224.486215 198.754776 
L 224.631522 198.938836 
L 224.870372 199.000258 
L 225.024208 199.066752 
L 225.765487 199.153216 
L 225.887558 199.147668 
L 226.513865 199.277935 
L 226.571643 199.234141 
L 226.634641 199.290537 
L 226.754666 199.447666 
L 227.417108 199.449866 
L 227.506649 199.761187 
L 227.535478 199.754368 
L 229.268822 200.048472 
L 229.658011 200.053893 
L 229.776944 200.627151 
L 230.580214 200.617806 
L 230.611368 200.853693 
L 230.642551 200.572304 
L 230.671542 200.572304 
L 231.142007 200.680793 
L 231.318501 200.738978 
L 231.433647 200.699625 
L 231.462595 200.699625 
L 231.524064 200.816973 
L 231.554771 200.733675 
L 231.700922 200.723842 
L 231.913094 200.723842 
L 232.037815 200.937634 
L 232.891219 200.963454 
L 233.09677 201.065402 
L 233.186333 201.169851 
L 233.217086 201.065402 
L 233.81336 201.140312 
L 233.967439 201.225141 
L 234.128064 201.199534 
L 235.145541 201.284704 
L 235.291983 201.393485 
L 235.3798 201.42902 
L 235.531712 201.795219 
L 235.589536 201.728449 
L 235.706216 201.99197 
L 236.244233 202.085155 
L 236.424968 202.158002 
L 236.515233 202.096984 
L 236.546514 202.135371 
L 237.286936 202.304214 
L 237.469799 202.340975 
L 237.61896 202.34922 
L 238.478017 202.453521 
L 238.596335 202.453521 
L 239.074233 202.684719 
L 239.219068 202.817217 
L 241.444154 203.076721 
L 241.680287 203.072796 
L 241.830066 203.094493 
L 241.948795 203.369527 
L 242.477371 203.464241 
L 242.506614 203.605325 
L 242.566782 203.464241 
L 242.922083 203.565454 
L 242.952005 203.584722 
L 242.982859 203.485422 
L 244.108298 203.583792 
L 244.285378 203.599991 
L 244.374206 203.547716 
L 244.401594 203.576449 
L 244.572995 203.641317 
L 244.808378 203.623795 
L 247.404453 203.912184 
L 248.051654 203.951655 
L 248.139896 204.08461 
L 248.168607 204.069089 
L 248.837376 204.187217 
L 248.866766 204.409045 
L 248.931879 204.210015 
L 249.112991 204.198946 
L 249.171946 204.187217 
L 249.257882 204.321217 
L 249.315354 204.187217 
L 249.344445 204.323127 
L 250.060516 204.404924 
L 250.122019 204.643373 
L 250.151292 204.404924 
L 250.960298 204.463772 
L 251.049643 204.527983 
L 251.08004 204.479118 
L 251.320666 204.570711 
L 251.349199 204.493584 
L 253.20302 204.5839 
L 253.32406 204.5839 
L 253.475782 204.53709 
L 253.743245 204.570541 
L 254.220429 204.596067 
L 254.364674 204.961521 
L 254.599865 205.033537 
L 254.755012 205.258391 
L 254.78496 205.219104 
L 255.359881 205.315223 
L 255.475006 205.344161 
L 255.533494 205.344161 
L 255.683399 205.564146 
L 256.436245 205.658165 
L 256.617598 205.635033 
L 256.921132 205.667226 
L 257.160151 206.186117 
L 259.03683 206.163696 
L 259.153027 206.497845 
L 260.267922 206.594949 
L 260.479048 206.598989 
L 261.284257 206.664952 
L 261.434944 206.710492 
L 261.655347 206.710492 
L 261.688208 206.824798 
L 261.753368 206.710492 
L 262.382614 206.734747 
L 262.506038 207.20154 
L 263.01737 207.271143 
L 263.105896 207.374295 
L 263.135589 207.309358 
L 263.496133 207.372894 
L 263.560422 207.492156 
L 263.684408 207.266985 
L 263.895831 207.340475 
L 264.254543 207.298087 
L 264.284963 207.453426 
L 264.343715 207.300454 
L 264.611519 207.338367 
L 264.731326 207.48182 
L 264.881927 207.609104 
L 265.039726 207.754634 
L 265.243907 207.79822 
L 265.363937 208.180969 
L 265.551971 208.161518 
L 266.260818 208.256137 
L 266.412081 208.363372 
L 266.919088 208.376125 
L 266.94788 208.491853 
L 267.037001 208.42129 
L 267.304369 208.513369 
L 267.423572 208.513369 
L 267.574125 208.555887 
L 267.604393 208.630124 
L 267.633091 208.514675 
L 267.663319 208.513369 
L 268.387906 208.596493 
L 268.537314 208.754148 
L 268.804594 208.716494 
L 268.865916 208.810601 
L 268.892243 208.711805 
L 269.193617 208.711805 
L 269.280204 208.837535 
L 269.311276 208.823592 
L 269.49105 208.793435 
L 270.561531 208.974897 
L 270.719294 209.148708 
L 270.92841 208.992868 
L 270.955669 209.022285 
L 272.071364 209.087127 
L 272.223081 209.170647 
L 273.569927 209.266948 
L 273.59754 209.324465 
L 273.689124 209.266948 
L 274.897531 209.353191 
L 274.991343 209.415976 
L 275.113982 209.374273 
L 275.382622 209.343252 
L 277.276915 209.312521 
L 277.366345 209.552498 
L 277.486869 209.312521 
L 277.607325 209.645562 
L 278.647208 209.723727 
L 278.768651 209.857709 
L 278.856618 209.781751 
L 278.886043 209.814458 
L 279.065518 209.874744 
L 279.243205 209.850245 
L 279.457297 210.011451 
L 279.544904 209.853053 
L 279.575545 209.866099 
L 279.727418 209.866099 
L 279.757616 210.011451 
L 279.850175 209.960997 
L 280.030787 210.002095 
L 280.147896 210.123012 
L 280.269328 209.978622 
L 280.930362 210.120391 
L 281.140325 210.024883 
L 281.168206 210.186089 
L 281.229304 210.036419 
L 281.410421 210.049298 
L 281.441522 210.107474 
L 281.502309 210.031513 
L 281.679991 210.036841 
L 282.464172 210.135598 
L 282.584016 210.140071 
L 282.613347 210.433538 
L 282.671991 210.140071 
L 282.849692 210.137106 
L 282.999371 210.127208 
L 283.290726 210.156974 
L 283.472837 210.247814 
L 283.680703 210.305891 
L 283.953725 210.484564 
L 284.0741 210.6048 
L 284.192769 210.534791 
L 284.224683 210.572848 
L 284.254692 210.659149 
L 284.343471 210.598006 
L 284.524832 210.674984 
L 284.64599 210.697003 
L 284.704751 210.697003 
L 284.798491 210.914961 
L 284.82861 210.816825 
L 284.949339 210.914961 
L 284.980662 210.914961 
L 285.097093 210.696061 
L 285.124816 210.696061 
L 285.157019 210.85407 
L 285.219996 210.717058 
L 285.370545 210.716345 
L 285.75807 210.771581 
L 285.874858 210.891204 
L 286.121465 210.909749 
L 286.274045 211.089738 
L 286.57229 211.086133 
L 286.632488 211.11166 
L 286.75418 211.177403 
L 287.413816 211.266567 
L 287.443121 211.426365 
L 287.505604 211.266567 
L 287.627707 211.440934 
L 287.84674 211.458815 
L 288.169599 211.530664 
L 288.380949 211.659086 
L 288.868663 211.672805 
L 288.956494 212.215308 
L 289.075986 211.658009 
L 289.289376 211.679145 
L 290.074328 211.741058 
L 290.224896 212.23689 
L 290.286813 211.992513 
L 290.315867 212.063075 
L 290.466017 212.22512 
L 290.861436 212.224215 
L 290.982778 212.40884 
L 291.67198 212.462469 
L 291.824693 212.63827 
L 292.212051 212.643856 
L 292.365613 212.588565 
L 292.492239 212.712411 
L 292.62268 212.722339 
L 292.662903 212.848871 
L 292.731288 212.742559 
L 292.866156 212.742559 
L 294.071783 212.848154 
L 294.238573 212.861076 
L 296.538634 212.955797 
L 296.72801 212.975986 
L 296.88306 212.98779 
L 297.04052 212.98779 
L 297.260153 213.000177 
L 297.291237 213.514328 
L 297.349959 213.000177 
L 297.580245 213.070736 
L 297.719703 212.995971 
L 297.985263 212.990618 
L 298.016123 213.544012 
L 298.084508 212.990618 
L 298.384109 213.049602 
L 299.883245 213.1588 
L 299.999384 213.179264 
L 301.448087 213.185554 
L 301.570356 213.704752 
L 302.326688 213.73883 
L 302.445927 213.828793 
L 302.534467 213.899108 
L 302.650238 214.323048 
L 302.803471 214.325976 
L 303.464438 214.32732 
L 303.585791 214.373454 
L 303.762882 214.33329 
L 304.962369 214.381357 
L 305.110222 214.488417 
L 306.974939 214.547545 
L 307.123794 214.609422 
L 310.443804 214.683691 
L 310.560205 215.133964 
L 310.62365 215.127375 
L 310.652833 215.388252 
L 310.715806 215.127375 
L 310.892253 215.118707 
L 313.408346 215.19995 
L 313.617977 215.271251 
L 314.25666 215.314592 
L 314.407372 215.623509 
L 314.930854 215.68558 
L 314.992024 215.854191 
L 315.054405 215.760445 
L 315.695527 215.835695 
L 315.873007 215.919638 
L 316.690277 216.000555 
L 316.83957 216.064329 
L 318.309339 216.10336 
L 318.366601 216.35829 
L 318.419561 216.283211 
L 320.882832 216.359123 
L 321.034734 216.40598 
L 321.307015 216.441079 
L 321.547297 216.441079 
L 321.695092 216.406418 
L 322.263744 216.401698 
L 322.381786 216.633065 
L 324.480022 216.703428 
L 324.510315 216.755165 
L 324.570089 216.675391 
L 325.93599 216.764221 
L 326.210439 216.890451 
L 326.452477 216.881399 
L 327.04861 216.912739 
L 327.108911 217.108043 
L 327.169604 216.978144 
L 328.815741 216.994211 
L 328.935874 217.307496 
L 329.212186 217.334572 
L 330.274862 217.410616 
L 330.305497 217.475437 
L 330.395831 217.421687 
L 331.444058 217.496941 
L 331.651913 217.592791 
L 332.067706 217.696228 
L 332.218268 217.7027 
L 332.310033 217.736393 
L 332.461544 217.748648 
L 332.544377 217.748496 
L 332.573041 217.864897 
L 332.666818 217.787764 
L 333.534284 217.832703 
L 333.680733 217.901559 
L 333.858968 217.907567 
L 334.895978 217.992269 
L 335.22261 218.061818 
L 337.545452 218.146367 
L 337.726458 218.194791 
L 338.325672 218.256789 
L 338.472384 218.321512 
L 338.652243 218.302945 
L 338.778616 218.327786 
L 339.403218 218.343309 
L 339.583439 218.366921 
L 339.705459 218.378171 
L 340.002338 218.398559 
L 341.009739 218.459834 
L 341.041176 218.640202 
L 341.097245 218.459834 
L 341.724435 218.543929 
L 341.870946 218.571727 
L 342.107253 218.554964 
L 342.770475 218.654973 
L 342.829286 218.71074 
L 342.888525 218.654973 
L 343.80305 218.743236 
L 343.927468 218.729644 
L 345.939772 218.821418 
L 346.147744 218.883653 
L 346.330939 218.948225 
L 346.475866 219.012061 
L 346.506818 219.012061 
L 346.506818 219.012061 
" clip-path="url(#pff06df476e)" style="fill: none; stroke: #1f77b4; stroke-width: 1.5; stroke-linecap: square"/>
   </g>
   <g id="patch_3">
    <path d="M 26.925 229.092061 
L 26.925 7.332061 
" style="fill: none; stroke: #000000; stroke-width: 0.8; stroke-linejoin: miter; stroke-linecap: square"/>
   </g>
   <g id="patch_4">
    <path d="M 361.725 229.092061 
L 361.725 7.332061 
" style="fill: none; stroke: #000000; stroke-width: 0.8; stroke-linejoin: miter; stroke-linecap: square"/>
   </g>
   <g id="patch_5">
    <path d="M 26.925 229.092061 
L 361.725 229.092061 
" style="fill: none; stroke: #000000; stroke-width: 0.8; stroke-linejoin: miter; stroke-linecap: square"/>
   </g>
   <g id="patch_6">
    <path d="M 26.925 7.332061 
L 361.725 7.332061 
" style="fill: none; stroke: #000000; stroke-width: 0.8; stroke-linejoin: miter; stroke-linecap: square"/>
   </g>
  </g>
 </g>
 <defs>
  <clipPath id="pff06df476e">
   <rect x="26.925" y="7.332061" width="334.8" height="221.76"/>
  </clipPath>
 </defs>
</svg>
