<?xml version="1.0" encoding="utf-8" standalone="no"?>
<!DOCTYPE svg PUBLIC "-//W3C//DTD SVG 1.1//EN"
  "http://www.w3.org/Graphics/SVG/1.1/DTD/svg11.dtd">
<svg xmlns:xlink="http://www.w3.org/1999/xlink" width="368.925pt" height="252.838125pt" viewBox="0 0 368.925 252.838125" xmlns="http://www.w3.org/2000/svg" version="1.1">
 <metadata>
  <rdf:RDF xmlns:dc="http://purl.org/dc/elements/1.1/" xmlns:cc="http://creativecommons.org/ns#" xmlns:rdf="http://www.w3.org/1999/02/22-rdf-syntax-ns#">
   <cc:Work>
    <dc:type rdf:resource="http://purl.org/dc/dcmitype/StillImage"/>
    <dc:date>2023-04-19T16:55:16.929282</dc:date>
    <dc:format>image/svg+xml</dc:format>
    <dc:creator>
     <cc:Agent>
      <dc:title>Matplotlib v3.6.2, https://matplotlib.org/</dc:title>
     </cc:Agent>
    </dc:creator>
   </cc:Work>
  </rdf:RDF>
 </metadata>
 <defs>
  <style type="text/css">*{stroke-linejoin: round; stroke-linecap: butt}</style>
 </defs>
 <g id="figure_1">
  <g id="patch_1">
   <path d="M -0 252.838125 
L 368.925 252.838125 
L 368.925 0 
L -0 0 
z
" style="fill: #ffffff"/>
  </g>
  <g id="axes_1">
   <g id="patch_2">
    <path d="M 26.925 228.96 
L 361.725 228.96 
L 361.725 7.2 
L 26.925 7.2 
z
" style="fill: #ffffff"/>
   </g>
   <g id="matplotlib.axis_1">
    <g id="xtick_1">
     <g id="line2d_1">
      <defs>
       <path id="m3e86a47d32" d="M 0 0 
L 0 3.5 
" style="stroke: #000000; stroke-width: 0.8"/>
      </defs>
      <g>
       <use xlink:href="#m3e86a47d32" x="37.274279" y="228.96" style="stroke: #000000; stroke-width: 0.8"/>
      </g>
     </g>
     <g id="text_1">
      <!-- 0 -->
      <g transform="translate(34.093029 243.558437) scale(0.1 -0.1)">
       <defs>
        <path id="DejaVuSans-30" d="M 2034 4250 
Q 1547 4250 1301 3770 
Q 1056 3291 1056 2328 
Q 1056 1369 1301 889 
Q 1547 409 2034 409 
Q 2525 409 2770 889 
Q 3016 1369 3016 2328 
Q 3016 3291 2770 3770 
Q 2525 4250 2034 4250 
z
M 2034 4750 
Q 2819 4750 3233 4129 
Q 3647 3509 3647 2328 
Q 3647 1150 3233 529 
Q 2819 -91 2034 -91 
Q 1250 -91 836 529 
Q 422 1150 422 2328 
Q 422 3509 836 4129 
Q 1250 4750 2034 4750 
z
" transform="scale(0.015625)"/>
       </defs>
       <use xlink:href="#DejaVuSans-30"/>
      </g>
     </g>
    </g>
    <g id="xtick_2">
     <g id="line2d_2">
      <g>
       <use xlink:href="#m3e86a47d32" x="75.935387" y="228.96" style="stroke: #000000; stroke-width: 0.8"/>
      </g>
     </g>
     <g id="text_2">
      <!-- 10 -->
      <g transform="translate(69.572887 243.558437) scale(0.1 -0.1)">
       <defs>
        <path id="DejaVuSans-31" d="M 794 531 
L 1825 531 
L 1825 4091 
L 703 3866 
L 703 4441 
L 1819 4666 
L 2450 4666 
L 2450 531 
L 3481 531 
L 3481 0 
L 794 0 
L 794 531 
z
" transform="scale(0.015625)"/>
       </defs>
       <use xlink:href="#DejaVuSans-31"/>
       <use xlink:href="#DejaVuSans-30" x="63.623047"/>
      </g>
     </g>
    </g>
    <g id="xtick_3">
     <g id="line2d_3">
      <g>
       <use xlink:href="#m3e86a47d32" x="114.596495" y="228.96" style="stroke: #000000; stroke-width: 0.8"/>
      </g>
     </g>
     <g id="text_3">
      <!-- 20 -->
      <g transform="translate(108.233995 243.558437) scale(0.1 -0.1)">
       <defs>
        <path id="DejaVuSans-32" d="M 1228 531 
L 3431 531 
L 3431 0 
L 469 0 
L 469 531 
Q 828 903 1448 1529 
Q 2069 2156 2228 2338 
Q 2531 2678 2651 2914 
Q 2772 3150 2772 3378 
Q 2772 3750 2511 3984 
Q 2250 4219 1831 4219 
Q 1534 4219 1204 4116 
Q 875 4013 500 3803 
L 500 4441 
Q 881 4594 1212 4672 
Q 1544 4750 1819 4750 
Q 2544 4750 2975 4387 
Q 3406 4025 3406 3419 
Q 3406 3131 3298 2873 
Q 3191 2616 2906 2266 
Q 2828 2175 2409 1742 
Q 1991 1309 1228 531 
z
" transform="scale(0.015625)"/>
       </defs>
       <use xlink:href="#DejaVuSans-32"/>
       <use xlink:href="#DejaVuSans-30" x="63.623047"/>
      </g>
     </g>
    </g>
    <g id="xtick_4">
     <g id="line2d_4">
      <g>
       <use xlink:href="#m3e86a47d32" x="153.257603" y="228.96" style="stroke: #000000; stroke-width: 0.8"/>
      </g>
     </g>
     <g id="text_4">
      <!-- 30 -->
      <g transform="translate(146.895103 243.558437) scale(0.1 -0.1)">
       <defs>
        <path id="DejaVuSans-33" d="M 2597 2516 
Q 3050 2419 3304 2112 
Q 3559 1806 3559 1356 
Q 3559 666 3084 287 
Q 2609 -91 1734 -91 
Q 1441 -91 1130 -33 
Q 819 25 488 141 
L 488 750 
Q 750 597 1062 519 
Q 1375 441 1716 441 
Q 2309 441 2620 675 
Q 2931 909 2931 1356 
Q 2931 1769 2642 2001 
Q 2353 2234 1838 2234 
L 1294 2234 
L 1294 2753 
L 1863 2753 
Q 2328 2753 2575 2939 
Q 2822 3125 2822 3475 
Q 2822 3834 2567 4026 
Q 2313 4219 1838 4219 
Q 1578 4219 1281 4162 
Q 984 4106 628 3988 
L 628 4550 
Q 988 4650 1302 4700 
Q 1616 4750 1894 4750 
Q 2613 4750 3031 4423 
Q 3450 4097 3450 3541 
Q 3450 3153 3228 2886 
Q 3006 2619 2597 2516 
z
" transform="scale(0.015625)"/>
       </defs>
       <use xlink:href="#DejaVuSans-33"/>
       <use xlink:href="#DejaVuSans-30" x="63.623047"/>
      </g>
     </g>
    </g>
    <g id="xtick_5">
     <g id="line2d_5">
      <g>
       <use xlink:href="#m3e86a47d32" x="191.918711" y="228.96" style="stroke: #000000; stroke-width: 0.8"/>
      </g>
     </g>
     <g id="text_5">
      <!-- 40 -->
      <g transform="translate(185.556211 243.558437) scale(0.1 -0.1)">
       <defs>
        <path id="DejaVuSans-34" d="M 2419 4116 
L 825 1625 
L 2419 1625 
L 2419 4116 
z
M 2253 4666 
L 3047 4666 
L 3047 1625 
L 3713 1625 
L 3713 1100 
L 3047 1100 
L 3047 0 
L 2419 0 
L 2419 1100 
L 313 1100 
L 313 1709 
L 2253 4666 
z
" transform="scale(0.015625)"/>
       </defs>
       <use xlink:href="#DejaVuSans-34"/>
       <use xlink:href="#DejaVuSans-30" x="63.623047"/>
      </g>
     </g>
    </g>
    <g id="xtick_6">
     <g id="line2d_6">
      <g>
       <use xlink:href="#m3e86a47d32" x="230.579819" y="228.96" style="stroke: #000000; stroke-width: 0.8"/>
      </g>
     </g>
     <g id="text_6">
      <!-- 50 -->
      <g transform="translate(224.217319 243.558437) scale(0.1 -0.1)">
       <defs>
        <path id="DejaVuSans-35" d="M 691 4666 
L 3169 4666 
L 3169 4134 
L 1269 4134 
L 1269 2991 
Q 1406 3038 1543 3061 
Q 1681 3084 1819 3084 
Q 2600 3084 3056 2656 
Q 3513 2228 3513 1497 
Q 3513 744 3044 326 
Q 2575 -91 1722 -91 
Q 1428 -91 1123 -41 
Q 819 9 494 109 
L 494 744 
Q 775 591 1075 516 
Q 1375 441 1709 441 
Q 2250 441 2565 725 
Q 2881 1009 2881 1497 
Q 2881 1984 2565 2268 
Q 2250 2553 1709 2553 
Q 1456 2553 1204 2497 
Q 953 2441 691 2322 
L 691 4666 
z
" transform="scale(0.015625)"/>
       </defs>
       <use xlink:href="#DejaVuSans-35"/>
       <use xlink:href="#DejaVuSans-30" x="63.623047"/>
      </g>
     </g>
    </g>
    <g id="xtick_7">
     <g id="line2d_7">
      <g>
       <use xlink:href="#m3e86a47d32" x="269.240927" y="228.96" style="stroke: #000000; stroke-width: 0.8"/>
      </g>
     </g>
     <g id="text_7">
      <!-- 60 -->
      <g transform="translate(262.878427 243.558437) scale(0.1 -0.1)">
       <defs>
        <path id="DejaVuSans-36" d="M 2113 2584 
Q 1688 2584 1439 2293 
Q 1191 2003 1191 1497 
Q 1191 994 1439 701 
Q 1688 409 2113 409 
Q 2538 409 2786 701 
Q 3034 994 3034 1497 
Q 3034 2003 2786 2293 
Q 2538 2584 2113 2584 
z
M 3366 4563 
L 3366 3988 
Q 3128 4100 2886 4159 
Q 2644 4219 2406 4219 
Q 1781 4219 1451 3797 
Q 1122 3375 1075 2522 
Q 1259 2794 1537 2939 
Q 1816 3084 2150 3084 
Q 2853 3084 3261 2657 
Q 3669 2231 3669 1497 
Q 3669 778 3244 343 
Q 2819 -91 2113 -91 
Q 1303 -91 875 529 
Q 447 1150 447 2328 
Q 447 3434 972 4092 
Q 1497 4750 2381 4750 
Q 2619 4750 2861 4703 
Q 3103 4656 3366 4563 
z
" transform="scale(0.015625)"/>
       </defs>
       <use xlink:href="#DejaVuSans-36"/>
       <use xlink:href="#DejaVuSans-30" x="63.623047"/>
      </g>
     </g>
    </g>
    <g id="xtick_8">
     <g id="line2d_8">
      <g>
       <use xlink:href="#m3e86a47d32" x="307.902035" y="228.96" style="stroke: #000000; stroke-width: 0.8"/>
      </g>
     </g>
     <g id="text_8">
      <!-- 70 -->
      <g transform="translate(301.539535 243.558437) scale(0.1 -0.1)">
       <defs>
        <path id="DejaVuSans-37" d="M 525 4666 
L 3525 4666 
L 3525 4397 
L 1831 0 
L 1172 0 
L 2766 4134 
L 525 4134 
L 525 4666 
z
" transform="scale(0.015625)"/>
       </defs>
       <use xlink:href="#DejaVuSans-37"/>
       <use xlink:href="#DejaVuSans-30" x="63.623047"/>
      </g>
     </g>
    </g>
    <g id="xtick_9">
     <g id="line2d_9">
      <g>
       <use xlink:href="#m3e86a47d32" x="346.563143" y="228.96" style="stroke: #000000; stroke-width: 0.8"/>
      </g>
     </g>
     <g id="text_9">
      <!-- 80 -->
      <g transform="translate(340.200643 243.558437) scale(0.1 -0.1)">
       <defs>
        <path id="DejaVuSans-38" d="M 2034 2216 
Q 1584 2216 1326 1975 
Q 1069 1734 1069 1313 
Q 1069 891 1326 650 
Q 1584 409 2034 409 
Q 2484 409 2743 651 
Q 3003 894 3003 1313 
Q 3003 1734 2745 1975 
Q 2488 2216 2034 2216 
z
M 1403 2484 
Q 997 2584 770 2862 
Q 544 3141 544 3541 
Q 544 4100 942 4425 
Q 1341 4750 2034 4750 
Q 2731 4750 3128 4425 
Q 3525 4100 3525 3541 
Q 3525 3141 3298 2862 
Q 3072 2584 2669 2484 
Q 3125 2378 3379 2068 
Q 3634 1759 3634 1313 
Q 3634 634 3220 271 
Q 2806 -91 2034 -91 
Q 1263 -91 848 271 
Q 434 634 434 1313 
Q 434 1759 690 2068 
Q 947 2378 1403 2484 
z
M 1172 3481 
Q 1172 3119 1398 2916 
Q 1625 2713 2034 2713 
Q 2441 2713 2670 2916 
Q 2900 3119 2900 3481 
Q 2900 3844 2670 4047 
Q 2441 4250 2034 4250 
Q 1625 4250 1398 4047 
Q 1172 3844 1172 3481 
z
" transform="scale(0.015625)"/>
       </defs>
       <use xlink:href="#DejaVuSans-38"/>
       <use xlink:href="#DejaVuSans-30" x="63.623047"/>
      </g>
     </g>
    </g>
   </g>
   <g id="matplotlib.axis_2">
    <g id="ytick_1">
     <g id="line2d_10">
      <defs>
       <path id="md69ae1b30c" d="M 0 0 
L -3.5 0 
" style="stroke: #000000; stroke-width: 0.8"/>
      </defs>
      <g>
       <use xlink:href="#md69ae1b30c" x="26.925" y="228.446191" style="stroke: #000000; stroke-width: 0.8"/>
      </g>
     </g>
     <g id="text_10">
      <!-- 65 -->
      <g transform="translate(7.2 232.24541) scale(0.1 -0.1)">
       <use xlink:href="#DejaVuSans-36"/>
       <use xlink:href="#DejaVuSans-35" x="63.623047"/>
      </g>
     </g>
    </g>
    <g id="ytick_2">
     <g id="line2d_11">
      <g>
       <use xlink:href="#md69ae1b30c" x="26.925" y="180.572341" style="stroke: #000000; stroke-width: 0.8"/>
      </g>
     </g>
     <g id="text_11">
      <!-- 70 -->
      <g transform="translate(7.2 184.37156) scale(0.1 -0.1)">
       <use xlink:href="#DejaVuSans-37"/>
       <use xlink:href="#DejaVuSans-30" x="63.623047"/>
      </g>
     </g>
    </g>
    <g id="ytick_3">
     <g id="line2d_12">
      <g>
       <use xlink:href="#md69ae1b30c" x="26.925" y="132.698491" style="stroke: #000000; stroke-width: 0.8"/>
      </g>
     </g>
     <g id="text_12">
      <!-- 75 -->
      <g transform="translate(7.2 136.49771) scale(0.1 -0.1)">
       <use xlink:href="#DejaVuSans-37"/>
       <use xlink:href="#DejaVuSans-35" x="63.623047"/>
      </g>
     </g>
    </g>
    <g id="ytick_4">
     <g id="line2d_13">
      <g>
       <use xlink:href="#md69ae1b30c" x="26.925" y="84.824642" style="stroke: #000000; stroke-width: 0.8"/>
      </g>
     </g>
     <g id="text_13">
      <!-- 80 -->
      <g transform="translate(7.2 88.623861) scale(0.1 -0.1)">
       <use xlink:href="#DejaVuSans-38"/>
       <use xlink:href="#DejaVuSans-30" x="63.623047"/>
      </g>
     </g>
    </g>
    <g id="ytick_5">
     <g id="line2d_14">
      <g>
       <use xlink:href="#md69ae1b30c" x="26.925" y="36.950792" style="stroke: #000000; stroke-width: 0.8"/>
      </g>
     </g>
     <g id="text_14">
      <!-- 85 -->
      <g transform="translate(7.2 40.750011) scale(0.1 -0.1)">
       <use xlink:href="#DejaVuSans-38"/>
       <use xlink:href="#DejaVuSans-35" x="63.623047"/>
      </g>
     </g>
    </g>
   </g>
   <g id="line2d_15">
    <path d="M 42.143182 22.046118 
L 42.759185 22.046118 
L 43.325527 17.28 
L 43.551858 17.28 
L 44.088844 32.334351 
L 44.617845 37.870339 
L 45.185576 37.740273 
L 45.832174 41.364643 
L 47.650812 41.364643 
L 48.869298 43.442582 
L 49.418424 41.399656 
L 49.76297 46.812005 
L 50.090042 46.812005 
L 50.382342 49.24744 
L 50.694721 47.158738 
L 51.001902 47.474203 
L 51.302458 48.908706 
L 51.574003 48.908706 
L 51.867292 49.491627 
L 52.175631 49.495668 
L 53.089379 51.223212 
L 53.400913 52.765251 
L 54.069105 52.765251 
L 54.380694 53.473055 
L 54.679977 52.765251 
L 54.945838 52.890134 
L 55.561648 54.369704 
L 55.89573 55.736282 
L 56.217415 55.736282 
L 56.508189 56.245315 
L 56.799831 55.861165 
L 57.137761 56.444086 
L 58.09883 56.444086 
L 59.017379 57.757824 
L 59.617538 57.757824 
L 59.911737 59.162743 
L 60.210535 58.425019 
L 60.504614 59.738757 
L 61.381212 59.738757 
L 61.968505 62.069263 
L 62.256975 61.06553 
L 62.522325 61.06553 
L 62.801369 61.676677 
L 63.092036 61.06553 
L 63.646309 61.06553 
L 63.944672 62.11279 
L 64.220616 61.06553 
L 64.532174 62.136356 
L 64.817562 61.676677 
L 65.093103 62.734613 
L 66.223744 62.817483 
L 66.530238 63.797054 
L 66.81972 63.907917 
L 67.116754 64.887488 
L 67.403243 63.907917 
L 67.725859 63.890886 
L 68.139819 65.674067 
L 68.510784 64.887488 
L 69.371365 64.887488 
L 69.730638 65.592182 
L 70.090786 65.592182 
L 70.407223 66.647972 
L 70.743165 65.951407 
L 71.075631 65.951407 
L 71.666489 67.430124 
L 71.948627 67.430124 
L 72.237386 68.134818 
L 72.549807 68.134818 
L 73.165933 69.37248 
L 73.456773 69.37248 
L 73.791818 70.178307 
L 74.13654 70.178307 
L 74.451295 71.234098 
L 74.743558 71.234098 
L 75.08504 71.938791 
L 76.039158 71.938791 
L 76.384486 74.901218 
L 76.763841 75.183529 
L 77.075453 74.901218 
L 77.377608 72.468365 
L 77.677321 72.925796 
L 78.0295 74.901218 
L 78.326383 75.888223 
L 78.587698 75.183529 
L 78.878726 75.183529 
L 79.248591 75.687344 
L 79.594502 75.481241 
L 79.890108 75.888223 
L 80.198846 75.481241 
L 80.540439 75.481241 
L 80.845306 77.355222 
L 81.180215 76.280735 
L 81.485502 76.7752 
L 81.795754 77.770011 
L 82.089787 78.279387 
L 82.988657 78.401979 
L 83.316384 80.475522 
L 83.718962 79.054727 
L 84.075595 78.470401 
L 84.418229 79.166586 
L 84.762224 78.782816 
L 85.058894 78.85941 
L 85.426554 79.088846 
L 85.747066 79.088846 
L 86.108291 79.396023 
L 86.42911 79.124009 
L 86.731366 80.354882 
L 87.702173 80.354882 
L 88.017485 81.349694 
L 88.374536 81.349694 
L 88.737749 80.782698 
L 89.352512 81.663859 
L 90.009399 81.65687 
L 90.462526 82.06019 
L 91.061395 81.416595 
L 91.34872 82.129599 
L 91.685745 81.824081 
L 92.589583 81.824081 
L 92.973325 82.818892 
L 93.305297 83.327321 
L 93.608114 82.818892 
L 94.69199 83.404434 
L 95.033707 84.181665 
L 95.324641 84.023139 
L 95.681494 84.330315 
L 95.985799 83.663076 
L 96.272231 83.404434 
L 96.546822 85.357101 
L 96.924537 85.357101 
L 97.241091 85.86553 
L 97.577322 85.604364 
L 97.89645 85.604364 
L 98.222101 85.846133 
L 98.488669 85.846133 
L 98.766886 85.673647 
L 99.092463 86.151841 
L 99.408753 85.833287 
L 99.985967 85.864127 
L 100.334335 86.050663 
L 101.225094 86.093397 
L 101.515497 88.598942 
L 102.053018 88.598942 
L 102.361959 89.195393 
L 103.486124 89.232431 
L 103.781769 89.479695 
L 104.100905 89.10737 
L 104.448112 89.282236 
L 104.767187 88.598942 
L 105.701159 89.096306 
L 106.070123 89.662124 
L 107.72371 89.604735 
L 108.095046 91.679963 
L 108.380052 91.839162 
L 108.681037 92.305781 
L 109.25089 92.305781 
L 109.545096 92.658474 
L 109.82474 92.284341 
L 110.120881 92.284341 
L 110.699919 92.778863 
L 111.004317 92.497465 
L 111.296858 92.924011 
L 111.578516 92.924011 
L 111.8616 92.610749 
L 112.137803 92.497465 
L 112.40441 92.924011 
L 112.687031 92.957552 
L 112.969833 93.243923 
L 113.237167 92.871598 
L 113.82724 92.965557 
L 114.096715 93.014447 
L 114.384447 93.331872 
L 114.95858 93.2434 
L 115.237396 94.435642 
L 115.53981 94.435642 
L 115.825941 93.819376 
L 116.117304 93.5899 
L 116.708942 94.123233 
L 117.567362 94.089557 
L 117.852502 94.780579 
L 118.153333 94.401395 
L 118.79677 95.027244 
L 119.111154 95.099966 
L 119.415184 94.892885 
L 119.723232 94.892885 
L 121.018936 96.498166 
L 121.317995 96.261051 
L 121.622363 97.007509 
L 121.894695 98.370841 
L 122.197493 98.370841 
L 122.50033 99.044052 
L 122.762645 99.227164 
L 123.047938 99.227164 
L 123.332668 100.186746 
L 124.400159 100.186746 
L 124.699968 100.653363 
L 124.98656 100.186746 
L 125.253294 99.999028 
L 125.56205 100.52457 
L 125.845532 100.186746 
L 126.138843 100.468144 
L 126.435999 100.471 
L 126.987477 100.818209 
L 127.306423 100.745485 
L 127.613578 100.468144 
L 127.897033 100.989106 
L 128.473645 100.889538 
L 128.744126 100.828114 
L 129.062446 100.896753 
L 129.389016 100.706219 
L 129.687859 101.166671 
L 129.971515 102.486421 
L 130.257707 100.916383 
L 130.980585 100.632232 
L 131.312588 100.917714 
L 131.629454 100.820898 
L 131.982353 101.566833 
L 132.295485 103.597324 
L 134.933254 103.597324 
L 135.241217 104.039582 
L 135.523413 105.683887 
L 135.822074 105.683887 
L 136.134238 103.871617 
L 136.412746 104.34046 
L 136.723117 104.34046 
L 137.320922 103.87864 
L 137.639235 104.320898 
L 137.96164 105.968038 
L 138.287183 106.523647 
L 139.492977 106.523647 
L 139.792449 106.988491 
L 140.109892 106.684589 
L 140.42041 106.995523 
L 140.719836 107.488431 
L 141.019267 106.427054 
L 141.892247 106.427054 
L 142.190856 106.947189 
L 142.473868 108.077957 
L 142.764735 108.077957 
L 143.057731 107.90796 
L 143.364793 107.90796 
L 143.652499 108.482613 
L 143.945982 108.52762 
L 144.238628 110.550747 
L 144.524905 110.218676 
L 145.127477 111.227642 
L 145.451292 110.801036 
L 146.345217 111.090387 
L 146.633293 112.112903 
L 146.915581 111.891303 
L 147.494037 111.891303 
L 147.7867 113.170813 
L 148.100354 111.891303 
L 148.438631 112.417622 
L 148.793242 113.425426 
L 149.108662 111.989195 
L 149.437348 112.394043 
L 149.734466 113.14411 
L 150.025179 112.423794 
L 150.684711 114.202121 
L 151.010373 116.014382 
L 151.330981 114.17605 
L 151.922372 114.273433 
L 152.237962 114.17605 
L 152.547565 114.885231 
L 152.905721 116.044508 
L 153.271058 116.486766 
L 154.49949 116.584149 
L 155.162204 117.198782 
L 155.752122 117.198782 
L 156.056973 117.085428 
L 156.359299 117.448016 
L 156.640698 117.327285 
L 156.937603 116.584149 
L 157.514929 116.584149 
L 158.094618 118.527374 
L 158.521638 118.144987 
L 159.16833 118.144987 
L 159.470984 118.591487 
L 159.747747 118.144987 
L 160.041772 119.13629 
L 160.337661 118.636534 
L 160.913967 120.029191 
L 162.692212 120.029191 
L 163.030624 120.824799 
L 163.31921 120.029191 
L 163.620388 121.595929 
L 164.222964 121.595929 
L 164.520492 120.520738 
L 164.81398 120.520738 
L 165.120014 121.595929 
L 165.488961 120.622994 
L 166.066716 120.622994 
L 166.360107 122.189732 
L 166.668164 121.257577 
L 167.289362 121.211324 
L 167.629402 121.958516 
L 167.932594 122.092349 
L 168.217248 120.976345 
L 168.504462 120.976345 
L 168.827792 121.572894 
L 169.130524 121.564675 
L 169.413048 122.210846 
L 169.702751 121.991873 
L 169.988711 122.212406 
L 170.277649 122.212406 
L 171.296579 123.904192 
L 171.725056 123.904192 
L 172.485631 124.639694 
L 172.845725 124.639694 
L 173.139817 125.378073 
L 173.534752 125.824572 
L 174.218643 125.258617 
L 174.571236 125.824572 
L 175.187281 125.747668 
L 175.485575 125.747668 
L 175.797791 126.101019 
L 176.101017 126.101019 
L 176.398886 126.349612 
L 176.996335 126.198402 
L 177.277985 127.103189 
L 177.592161 127.103189 
L 177.897649 128.247344 
L 178.190457 127.103189 
L 178.500464 127.254399 
L 178.824298 128.247344 
L 179.138234 128.247344 
L 179.480373 128.398554 
L 181.028793 128.398554 
L 181.381274 128.835674 
L 181.729286 128.835674 
L 182.073282 129.283639 
L 182.395788 131.431233 
L 182.698903 131.431233 
L 182.996326 131.804212 
L 183.301664 131.804212 
L 183.63834 132.170772 
L 183.941877 133.422982 
L 184.549981 135.072034 
L 184.854562 135.072034 
L 185.152886 134.467703 
L 185.466322 134.80077 
L 185.77079 134.467703 
L 186.066436 134.914203 
L 186.374036 135.900541 
L 186.973182 136.501555 
L 187.271515 136.501555 
L 188.193857 139.974102 
L 188.495935 137.947687 
L 189.086062 137.947687 
L 189.386726 138.320667 
L 189.691955 139.289164 
L 190.30558 139.365388 
L 190.611165 139.847432 
L 190.917322 139.289164 
L 191.208935 138.992409 
L 191.525821 138.992409 
L 191.822719 140.70858 
L 193.645826 140.70858 
L 193.9544 143.23153 
L 194.246315 143.23153 
L 194.552302 140.980759 
L 194.849003 140.980759 
L 195.151669 142.107054 
L 195.721711 142.648746 
L 196.021354 142.648746 
L 196.315809 143.924332 
L 196.619086 143.122768 
L 196.913943 143.122768 
L 197.493901 143.876689 
L 197.787869 143.876689 
L 198.078632 145.236947 
L 198.659507 145.236947 
L 198.953521 145.705303 
L 199.844107 145.705303 
L 200.144221 145.961946 
L 201.038112 146.146608 
L 201.346272 146.87363 
L 201.641934 146.443364 
L 201.953086 146.851894 
L 202.246326 145.356111 
L 202.862457 147.359719 
L 203.172121 147.551738 
L 203.491493 147.551738 
L 203.788773 148.668088 
L 204.088671 148.668088 
L 204.396951 148.832666 
L 204.680205 149.525993 
L 204.988949 149.525993 
L 205.296193 148.832666 
L 205.914732 150.212085 
L 206.207629 150.212085 
L 206.514146 150.905412 
L 206.805987 150.959688 
L 207.110187 149.617261 
L 207.401363 150.888181 
L 207.686075 150.471659 
L 208.892553 150.476694 
L 209.179256 150.644429 
L 209.475795 151.68915 
L 209.773965 151.68915 
L 210.055406 150.988747 
L 210.346733 152.616171 
L 210.653188 152.616171 
L 210.952116 153.176031 
L 211.876592 153.176031 
L 212.452264 153.294298 
L 212.750352 153.176031 
L 213.069967 153.549011 
L 213.975461 153.578838 
L 214.268999 153.98248 
L 214.608552 153.579674 
L 214.911995 154.177959 
L 215.200183 154.160891 
L 215.478991 154.023397 
L 215.774246 154.426952 
L 216.076352 154.023397 
L 216.967189 155.412453 
L 217.521659 155.412453 
L 218.934389 156.04948 
L 219.23648 156.414196 
L 219.527876 156.414196 
L 219.821372 157.012147 
L 220.703135 157.012147 
L 221.011466 158.2831 
L 221.277412 158.2831 
L 221.591819 158.604072 
L 223.068828 158.604072 
L 223.359297 161.203517 
L 223.649081 161.476516 
L 224.544634 161.476516 
L 224.840601 162.477578 
L 225.120353 162.477578 
L 225.429069 161.476516 
L 225.735316 162.204579 
L 226.030239 162.38052 
L 227.199145 162.364667 
L 227.801078 162.246194 
L 228.084786 162.685434 
L 228.379388 162.840341 
L 228.664076 162.840341 
L 229.235542 163.159488 
L 229.540686 162.476388 
L 229.839687 163.403659 
L 230.140521 165.410711 
L 230.425426 163.242984 
L 230.750179 163.477236 
L 231.052443 163.242984 
L 231.350381 163.169921 
L 231.651385 164.119582 
L 231.937798 164.119582 
L 232.235763 163.432296 
L 232.542717 166.235262 
L 232.843814 163.763251 
L 234.017445 163.82875 
L 234.306456 164.374394 
L 234.605345 164.374394 
L 234.914317 164.81962 
L 235.198031 166.296753 
L 235.775021 167.543671 
L 236.970925 167.457903 
L 237.565259 167.428423 
L 238.148983 169.098557 
L 238.741689 169.098557 
L 239.621195 169.781872 
L 239.918797 170.259707 
L 240.191671 170.144459 
L 240.491939 169.781872 
L 240.77829 169.781872 
L 241.078772 170.144459 
L 241.640568 170.144459 
L 241.925513 169.87146 
L 242.219793 169.81625 
L 242.522158 170.853842 
L 242.832561 170.853842 
L 243.135795 171.21643 
L 243.417626 170.416804 
L 243.702887 171.238052 
L 243.9884 171.41241 
L 244.268871 171.068544 
L 244.556246 171.335212 
L 244.853129 171.083411 
L 245.06377 171.625877 
L 245.664034 171.083411 
L 245.945893 171.510397 
L 246.241863 172.923044 
L 246.540837 171.510397 
L 246.842304 171.510397 
L 247.146046 171.779864 
L 247.441112 171.779864 
L 247.749426 171.992386 
L 248.029823 171.951712 
L 248.291423 172.419932 
L 248.589718 172.17503 
L 248.872984 172.419932 
L 249.159072 173.630491 
L 249.712006 173.630491 
L 250.001231 173.941833 
L 250.289829 173.941833 
L 250.592685 174.638736 
L 250.87646 174.875377 
L 251.150792 174.898928 
L 251.454359 175.594764 
L 252.294016 175.695939 
L 252.583306 176.136517 
L 252.90178 175.973267 
L 253.183403 176.347845 
L 253.48472 176.247603 
L 253.779794 176.574784 
L 254.072492 176.574784 
L 254.35848 176.385335 
L 254.620653 175.757197 
L 254.908763 176.893386 
L 255.205421 177.04862 
L 255.510759 177.426698 
L 255.788025 177.426698 
L 256.079283 178.435409 
L 256.373064 178.518877 
L 256.658662 178.37733 
L 256.955335 178.435409 
L 257.254213 178.175351 
L 257.536749 178.78995 
L 257.829456 178.592812 
L 258.67753 179.122678 
L 258.956215 178.592812 
L 260.12393 178.527944 
L 260.686171 179.584722 
L 261.283381 179.584722 
L 261.580059 180.036293 
L 262.426307 180.036293 
L 262.725344 180.920713 
L 263.297814 180.347634 
L 264.15133 181.257941 
L 264.44993 180.930088 
L 265.293906 181.931662 
L 265.577535 180.987247 
L 265.868252 182.338296 
L 266.142518 182.59117 
L 266.430678 181.988149 
L 266.723644 181.988149 
L 267.023168 182.58166 
L 267.6119 182.58166 
L 267.908693 183.822738 
L 268.753186 183.822738 
L 269.054685 184.084011 
L 269.655327 183.990428 
L 270.212581 184.012663 
L 270.515155 184.191434 
L 271.090339 184.229087 
L 271.358925 184.05697 
L 271.654191 184.528818 
L 271.914188 184.283611 
L 272.171265 184.768049 
L 273.398457 184.680232 
L 273.682659 184.954525 
L 273.957408 185.042342 
L 274.245538 184.768049 
L 274.862352 185.187944 
L 275.450295 185.194207 
L 275.721496 185.385406 
L 276.014183 185.368565 
L 276.295249 185.521388 
L 277.159805 185.571056 
L 277.449542 185.661336 
L 277.742663 188.06613 
L 278.035344 185.922609 
L 278.341864 185.922609 
L 278.631343 186.196903 
L 279.220809 186.301709 
L 279.512968 187.689282 
L 280.698703 187.689282 
L 280.991665 188.171713 
L 281.567066 188.117047 
L 282.183696 188.85369 
L 282.801423 188.85369 
L 283.11375 190.651165 
L 283.408367 188.525433 
L 284.027556 188.601697 
L 284.32324 189.620271 
L 284.625995 189.620271 
L 284.920538 188.867091 
L 285.23565 189.093474 
L 285.538031 190.955013 
L 286.122729 190.955013 
L 286.719954 191.308135 
L 287.029614 191.611022 
L 287.32964 191.611022 
L 287.610783 192.053821 
L 287.905856 192.053821 
L 288.51487 192.580108 
L 288.796623 192.278758 
L 289.092015 192.43783 
L 289.399765 192.356709 
L 289.706401 192.773259 
L 289.975819 192.43783 
L 290.296157 193.455667 
L 290.881045 193.455667 
L 291.186618 193.05075 
L 291.763776 193.915217 
L 292.050544 193.757017 
L 292.630391 193.658495 
L 292.925437 194.505463 
L 293.196459 194.068689 
L 293.501448 194.219739 
L 294.375503 194.184782 
L 294.958787 195.107016 
L 295.257943 195.107016 
L 295.57428 194.57217 
L 296.179403 195.387353 
L 296.48641 194.999964 
L 297.101386 194.953558 
L 297.40515 195.835992 
L 297.708407 195.852032 
L 298.317915 197.413742 
L 298.910366 197.413742 
L 299.502441 196.413276 
L 299.819463 196.494422 
L 300.136871 197.072069 
L 300.707698 197.166012 
L 301.003969 197.5534 
L 301.288837 197.309371 
L 301.584849 198.016748 
L 301.894501 197.309371 
L 302.209086 197.922805 
L 302.534895 197.891832 
L 302.847334 197.644103 
L 303.137027 198.230895 
L 303.438157 198.230895 
L 303.72647 198.443103 
L 304.328109 198.319964 
L 304.626368 199.176569 
L 304.918032 199.086871 
L 305.792101 199.143602 
L 306.386021 199.215826 
L 306.681859 199.621693 
L 308.478904 199.677088 
L 308.782916 199.933035 
L 309.369808 199.824934 
L 309.989251 199.897728 
L 310.297314 199.897728 
L 310.591337 199.574893 
L 310.879088 199.71358 
L 311.155124 199.574893 
L 311.439251 199.870255 
L 311.753504 199.870255 
L 312.045334 200.052328 
L 312.345646 199.92565 
L 314.713964 199.997874 
L 315.015172 200.207048 
L 315.314734 201.343529 
L 317.080696 201.343529 
L 317.382256 201.624927 
L 317.944628 201.624927 
L 318.223422 201.343529 
L 318.818888 201.343529 
L 319.115029 202.082352 
L 319.438622 201.82162 
L 319.712807 203.008013 
L 320.87247 202.760132 
L 321.1763 202.977526 
L 322.361618 203.060818 
L 322.630011 203.242333 
L 323.768832 203.319181 
L 324.049972 203.70657 
L 324.615398 203.70657 
L 324.924154 204.445393 
L 325.20839 203.70657 
L 325.491285 203.751385 
L 325.790158 204.032783 
L 326.092601 203.751385 
L 326.385543 204.267332 
L 326.661293 205.223985 
L 327.25335 205.223985 
L 327.541669 205.44036 
L 327.832903 204.996296 
L 328.113718 205.311801 
L 328.408045 205.311801 
L 328.693422 205.61129 
L 329.275666 205.721758 
L 329.485534 205.44036 
L 330.062006 205.54546 
L 330.338205 205.806734 
L 331.474811 205.706322 
L 331.777921 206.606435 
L 332.346521 206.82548 
L 332.675535 206.709766 
L 332.95373 207.077838 
L 333.234768 205.836826 
L 333.523876 205.836826 
L 333.827084 205.702617 
L 334.155271 207.053097 
L 334.479087 207.220348 
L 335.347328 208.583777 
L 335.638562 207.16117 
L 335.914489 208.530996 
L 336.219967 208.358702 
L 336.522818 208.723091 
L 337.130545 210.036063 
L 337.409851 209.424341 
L 337.679933 209.424341 
L 337.974485 212.218264 
L 338.292779 212.589832 
L 338.591964 212.589832 
L 338.881667 213.469057 
L 339.471455 213.574593 
L 339.776877 214.480853 
L 340.075952 213.574593 
L 340.36772 214.029453 
L 340.668294 215.016128 
L 340.980753 216.56322 
L 341.27232 216.390926 
L 341.560794 217.874854 
L 341.851541 216.542865 
L 342.146394 216.250018 
L 342.463179 216.443163 
L 342.748761 216.443163 
L 343.612257 217.106827 
L 343.902613 217.677678 
L 344.188145 216.939494 
L 344.472118 217.833126 
L 344.75772 218.109897 
L 345.056566 218.565172 
L 346.202867 218.593607 
L 346.506818 218.88 
L 346.506818 218.88 
" clip-path="url(#p0663e2bbbb)" style="fill: none; stroke: #1f77b4; stroke-width: 1.5; stroke-linecap: square"/>
   </g>
   <g id="patch_3">
    <path d="M 26.925 228.96 
L 26.925 7.2 
" style="fill: none; stroke: #000000; stroke-width: 0.8; stroke-linejoin: miter; stroke-linecap: square"/>
   </g>
   <g id="patch_4">
    <path d="M 361.725 228.96 
L 361.725 7.2 
" style="fill: none; stroke: #000000; stroke-width: 0.8; stroke-linejoin: miter; stroke-linecap: square"/>
   </g>
   <g id="patch_5">
    <path d="M 26.925 228.96 
L 361.725 228.96 
" style="fill: none; stroke: #000000; stroke-width: 0.8; stroke-linejoin: miter; stroke-linecap: square"/>
   </g>
   <g id="patch_6">
    <path d="M 26.925 7.2 
L 361.725 7.2 
" style="fill: none; stroke: #000000; stroke-width: 0.8; stroke-linejoin: miter; stroke-linecap: square"/>
   </g>
  </g>
 </g>
 <defs>
  <clipPath id="p0663e2bbbb">
   <rect x="26.925" y="7.2" width="334.8" height="221.76"/>
  </clipPath>
 </defs>
</svg>
