<?xml version="1.0" encoding="utf-8" standalone="no"?>
<!DOCTYPE svg PUBLIC "-//W3C//DTD SVG 1.1//EN"
  "http://www.w3.org/Graphics/SVG/1.1/DTD/svg11.dtd">
<svg xmlns:xlink="http://www.w3.org/1999/xlink" width="368.925pt" height="252.838125pt" viewBox="0 0 368.925 252.838125" xmlns="http://www.w3.org/2000/svg" version="1.1">
 <metadata>
  <rdf:RDF xmlns:dc="http://purl.org/dc/elements/1.1/" xmlns:cc="http://creativecommons.org/ns#" xmlns:rdf="http://www.w3.org/1999/02/22-rdf-syntax-ns#">
   <cc:Work>
    <dc:type rdf:resource="http://purl.org/dc/dcmitype/StillImage"/>
    <dc:date>2023-04-18T05:45:43.217510</dc:date>
    <dc:format>image/svg+xml</dc:format>
    <dc:creator>
     <cc:Agent>
      <dc:title>Matplotlib v3.7.1, https://matplotlib.org/</dc:title>
     </cc:Agent>
    </dc:creator>
   </cc:Work>
  </rdf:RDF>
 </metadata>
 <defs>
  <style type="text/css">*{stroke-linejoin: round; stroke-linecap: butt}</style>
 </defs>
 <g id="figure_1">
  <g id="patch_1">
   <path d="M -0 252.838125 
L 368.925 252.838125 
L 368.925 0 
L -0 0 
z
" style="fill: #ffffff"/>
  </g>
  <g id="axes_1">
   <g id="patch_2">
    <path d="M 26.925 228.96 
L 361.725 228.96 
L 361.725 7.2 
L 26.925 7.2 
z
" style="fill: #ffffff"/>
   </g>
   <g id="matplotlib.axis_1">
    <g id="xtick_1">
     <g id="line2d_1">
      <defs>
       <path id="m463954ed5a" d="M 0 0 
L 0 3.5 
" style="stroke: #000000; stroke-width: 0.8"/>
      </defs>
      <g>
       <use xlink:href="#m463954ed5a" x="42.143182" y="228.96" style="stroke: #000000; stroke-width: 0.8"/>
      </g>
     </g>
     <g id="text_1">
      <!-- 0 -->
      <g transform="translate(38.961932 243.558438) scale(0.1 -0.1)">
       <defs>
        <path id="DejaVuSans-30" d="M 2034 4250 
Q 1547 4250 1301 3770 
Q 1056 3291 1056 2328 
Q 1056 1369 1301 889 
Q 1547 409 2034 409 
Q 2525 409 2770 889 
Q 3016 1369 3016 2328 
Q 3016 3291 2770 3770 
Q 2525 4250 2034 4250 
z
M 2034 4750 
Q 2819 4750 3233 4129 
Q 3647 3509 3647 2328 
Q 3647 1150 3233 529 
Q 2819 -91 2034 -91 
Q 1250 -91 836 529 
Q 422 1150 422 2328 
Q 422 3509 836 4129 
Q 1250 4750 2034 4750 
z
" transform="scale(0.015625)"/>
       </defs>
       <use xlink:href="#DejaVuSans-30"/>
      </g>
     </g>
    </g>
    <g id="xtick_2">
     <g id="line2d_2">
      <g>
       <use xlink:href="#m463954ed5a" x="103.015909" y="228.96" style="stroke: #000000; stroke-width: 0.8"/>
      </g>
     </g>
     <g id="text_2">
      <!-- 200 -->
      <g transform="translate(93.472159 243.558438) scale(0.1 -0.1)">
       <defs>
        <path id="DejaVuSans-32" d="M 1228 531 
L 3431 531 
L 3431 0 
L 469 0 
L 469 531 
Q 828 903 1448 1529 
Q 2069 2156 2228 2338 
Q 2531 2678 2651 2914 
Q 2772 3150 2772 3378 
Q 2772 3750 2511 3984 
Q 2250 4219 1831 4219 
Q 1534 4219 1204 4116 
Q 875 4013 500 3803 
L 500 4441 
Q 881 4594 1212 4672 
Q 1544 4750 1819 4750 
Q 2544 4750 2975 4387 
Q 3406 4025 3406 3419 
Q 3406 3131 3298 2873 
Q 3191 2616 2906 2266 
Q 2828 2175 2409 1742 
Q 1991 1309 1228 531 
z
" transform="scale(0.015625)"/>
       </defs>
       <use xlink:href="#DejaVuSans-32"/>
       <use xlink:href="#DejaVuSans-30" x="63.623047"/>
       <use xlink:href="#DejaVuSans-30" x="127.246094"/>
      </g>
     </g>
    </g>
    <g id="xtick_3">
     <g id="line2d_3">
      <g>
       <use xlink:href="#m463954ed5a" x="163.888636" y="228.96" style="stroke: #000000; stroke-width: 0.8"/>
      </g>
     </g>
     <g id="text_3">
      <!-- 400 -->
      <g transform="translate(154.344886 243.558438) scale(0.1 -0.1)">
       <defs>
        <path id="DejaVuSans-34" d="M 2419 4116 
L 825 1625 
L 2419 1625 
L 2419 4116 
z
M 2253 4666 
L 3047 4666 
L 3047 1625 
L 3713 1625 
L 3713 1100 
L 3047 1100 
L 3047 0 
L 2419 0 
L 2419 1100 
L 313 1100 
L 313 1709 
L 2253 4666 
z
" transform="scale(0.015625)"/>
       </defs>
       <use xlink:href="#DejaVuSans-34"/>
       <use xlink:href="#DejaVuSans-30" x="63.623047"/>
       <use xlink:href="#DejaVuSans-30" x="127.246094"/>
      </g>
     </g>
    </g>
    <g id="xtick_4">
     <g id="line2d_4">
      <g>
       <use xlink:href="#m463954ed5a" x="224.761364" y="228.96" style="stroke: #000000; stroke-width: 0.8"/>
      </g>
     </g>
     <g id="text_4">
      <!-- 600 -->
      <g transform="translate(215.217614 243.558438) scale(0.1 -0.1)">
       <defs>
        <path id="DejaVuSans-36" d="M 2113 2584 
Q 1688 2584 1439 2293 
Q 1191 2003 1191 1497 
Q 1191 994 1439 701 
Q 1688 409 2113 409 
Q 2538 409 2786 701 
Q 3034 994 3034 1497 
Q 3034 2003 2786 2293 
Q 2538 2584 2113 2584 
z
M 3366 4563 
L 3366 3988 
Q 3128 4100 2886 4159 
Q 2644 4219 2406 4219 
Q 1781 4219 1451 3797 
Q 1122 3375 1075 2522 
Q 1259 2794 1537 2939 
Q 1816 3084 2150 3084 
Q 2853 3084 3261 2657 
Q 3669 2231 3669 1497 
Q 3669 778 3244 343 
Q 2819 -91 2113 -91 
Q 1303 -91 875 529 
Q 447 1150 447 2328 
Q 447 3434 972 4092 
Q 1497 4750 2381 4750 
Q 2619 4750 2861 4703 
Q 3103 4656 3366 4563 
z
" transform="scale(0.015625)"/>
       </defs>
       <use xlink:href="#DejaVuSans-36"/>
       <use xlink:href="#DejaVuSans-30" x="63.623047"/>
       <use xlink:href="#DejaVuSans-30" x="127.246094"/>
      </g>
     </g>
    </g>
    <g id="xtick_5">
     <g id="line2d_5">
      <g>
       <use xlink:href="#m463954ed5a" x="285.634091" y="228.96" style="stroke: #000000; stroke-width: 0.8"/>
      </g>
     </g>
     <g id="text_5">
      <!-- 800 -->
      <g transform="translate(276.090341 243.558438) scale(0.1 -0.1)">
       <defs>
        <path id="DejaVuSans-38" d="M 2034 2216 
Q 1584 2216 1326 1975 
Q 1069 1734 1069 1313 
Q 1069 891 1326 650 
Q 1584 409 2034 409 
Q 2484 409 2743 651 
Q 3003 894 3003 1313 
Q 3003 1734 2745 1975 
Q 2488 2216 2034 2216 
z
M 1403 2484 
Q 997 2584 770 2862 
Q 544 3141 544 3541 
Q 544 4100 942 4425 
Q 1341 4750 2034 4750 
Q 2731 4750 3128 4425 
Q 3525 4100 3525 3541 
Q 3525 3141 3298 2862 
Q 3072 2584 2669 2484 
Q 3125 2378 3379 2068 
Q 3634 1759 3634 1313 
Q 3634 634 3220 271 
Q 2806 -91 2034 -91 
Q 1263 -91 848 271 
Q 434 634 434 1313 
Q 434 1759 690 2068 
Q 947 2378 1403 2484 
z
M 1172 3481 
Q 1172 3119 1398 2916 
Q 1625 2713 2034 2713 
Q 2441 2713 2670 2916 
Q 2900 3119 2900 3481 
Q 2900 3844 2670 4047 
Q 2441 4250 2034 4250 
Q 1625 4250 1398 4047 
Q 1172 3844 1172 3481 
z
" transform="scale(0.015625)"/>
       </defs>
       <use xlink:href="#DejaVuSans-38"/>
       <use xlink:href="#DejaVuSans-30" x="63.623047"/>
       <use xlink:href="#DejaVuSans-30" x="127.246094"/>
      </g>
     </g>
    </g>
    <g id="xtick_6">
     <g id="line2d_6">
      <g>
       <use xlink:href="#m463954ed5a" x="346.506818" y="228.96" style="stroke: #000000; stroke-width: 0.8"/>
      </g>
     </g>
     <g id="text_6">
      <!-- 1000 -->
      <g transform="translate(333.781818 243.558438) scale(0.1 -0.1)">
       <defs>
        <path id="DejaVuSans-31" d="M 794 531 
L 1825 531 
L 1825 4091 
L 703 3866 
L 703 4441 
L 1819 4666 
L 2450 4666 
L 2450 531 
L 3481 531 
L 3481 0 
L 794 0 
L 794 531 
z
" transform="scale(0.015625)"/>
       </defs>
       <use xlink:href="#DejaVuSans-31"/>
       <use xlink:href="#DejaVuSans-30" x="63.623047"/>
       <use xlink:href="#DejaVuSans-30" x="127.246094"/>
       <use xlink:href="#DejaVuSans-30" x="190.869141"/>
      </g>
     </g>
    </g>
   </g>
   <g id="matplotlib.axis_2">
    <g id="ytick_1">
     <g id="line2d_7">
      <defs>
       <path id="m26555bd766" d="M 0 0 
L -3.5 0 
" style="stroke: #000000; stroke-width: 0.8"/>
      </defs>
      <g>
       <use xlink:href="#m26555bd766" x="26.925" y="212.952246" style="stroke: #000000; stroke-width: 0.8"/>
      </g>
     </g>
     <g id="text_7">
      <!-- 60 -->
      <g transform="translate(7.2 216.751465) scale(0.1 -0.1)">
       <use xlink:href="#DejaVuSans-36"/>
       <use xlink:href="#DejaVuSans-30" x="63.623047"/>
      </g>
     </g>
    </g>
    <g id="ytick_2">
     <g id="line2d_8">
      <g>
       <use xlink:href="#m26555bd766" x="26.925" y="180.249519" style="stroke: #000000; stroke-width: 0.8"/>
      </g>
     </g>
     <g id="text_8">
      <!-- 65 -->
      <g transform="translate(7.2 184.048737) scale(0.1 -0.1)">
       <defs>
        <path id="DejaVuSans-35" d="M 691 4666 
L 3169 4666 
L 3169 4134 
L 1269 4134 
L 1269 2991 
Q 1406 3038 1543 3061 
Q 1681 3084 1819 3084 
Q 2600 3084 3056 2656 
Q 3513 2228 3513 1497 
Q 3513 744 3044 326 
Q 2575 -91 1722 -91 
Q 1428 -91 1123 -41 
Q 819 9 494 109 
L 494 744 
Q 775 591 1075 516 
Q 1375 441 1709 441 
Q 2250 441 2565 725 
Q 2881 1009 2881 1497 
Q 2881 1984 2565 2268 
Q 2250 2553 1709 2553 
Q 1456 2553 1204 2497 
Q 953 2441 691 2322 
L 691 4666 
z
" transform="scale(0.015625)"/>
       </defs>
       <use xlink:href="#DejaVuSans-36"/>
       <use xlink:href="#DejaVuSans-35" x="63.623047"/>
      </g>
     </g>
    </g>
    <g id="ytick_3">
     <g id="line2d_9">
      <g>
       <use xlink:href="#m26555bd766" x="26.925" y="147.546791" style="stroke: #000000; stroke-width: 0.8"/>
      </g>
     </g>
     <g id="text_9">
      <!-- 70 -->
      <g transform="translate(7.2 151.34601) scale(0.1 -0.1)">
       <defs>
        <path id="DejaVuSans-37" d="M 525 4666 
L 3525 4666 
L 3525 4397 
L 1831 0 
L 1172 0 
L 2766 4134 
L 525 4134 
L 525 4666 
z
" transform="scale(0.015625)"/>
       </defs>
       <use xlink:href="#DejaVuSans-37"/>
       <use xlink:href="#DejaVuSans-30" x="63.623047"/>
      </g>
     </g>
    </g>
    <g id="ytick_4">
     <g id="line2d_10">
      <g>
       <use xlink:href="#m26555bd766" x="26.925" y="114.844064" style="stroke: #000000; stroke-width: 0.8"/>
      </g>
     </g>
     <g id="text_10">
      <!-- 75 -->
      <g transform="translate(7.2 118.643282) scale(0.1 -0.1)">
       <use xlink:href="#DejaVuSans-37"/>
       <use xlink:href="#DejaVuSans-35" x="63.623047"/>
      </g>
     </g>
    </g>
    <g id="ytick_5">
     <g id="line2d_11">
      <g>
       <use xlink:href="#m26555bd766" x="26.925" y="82.141336" style="stroke: #000000; stroke-width: 0.8"/>
      </g>
     </g>
     <g id="text_11">
      <!-- 80 -->
      <g transform="translate(7.2 85.940555) scale(0.1 -0.1)">
       <use xlink:href="#DejaVuSans-38"/>
       <use xlink:href="#DejaVuSans-30" x="63.623047"/>
      </g>
     </g>
    </g>
    <g id="ytick_6">
     <g id="line2d_12">
      <g>
       <use xlink:href="#m26555bd766" x="26.925" y="49.438609" style="stroke: #000000; stroke-width: 0.8"/>
      </g>
     </g>
     <g id="text_12">
      <!-- 85 -->
      <g transform="translate(7.2 53.237828) scale(0.1 -0.1)">
       <use xlink:href="#DejaVuSans-38"/>
       <use xlink:href="#DejaVuSans-35" x="63.623047"/>
      </g>
     </g>
    </g>
    <g id="ytick_7">
     <g id="line2d_13">
      <g>
       <use xlink:href="#m26555bd766" x="26.925" y="16.735882" style="stroke: #000000; stroke-width: 0.8"/>
      </g>
     </g>
     <g id="text_13">
      <!-- 90 -->
      <g transform="translate(7.2 20.5351) scale(0.1 -0.1)">
       <defs>
        <path id="DejaVuSans-39" d="M 703 97 
L 703 672 
Q 941 559 1184 500 
Q 1428 441 1663 441 
Q 2288 441 2617 861 
Q 2947 1281 2994 2138 
Q 2813 1869 2534 1725 
Q 2256 1581 1919 1581 
Q 1219 1581 811 2004 
Q 403 2428 403 3163 
Q 403 3881 828 4315 
Q 1253 4750 1959 4750 
Q 2769 4750 3195 4129 
Q 3622 3509 3622 2328 
Q 3622 1225 3098 567 
Q 2575 -91 1691 -91 
Q 1453 -91 1209 -44 
Q 966 3 703 97 
z
M 1959 2075 
Q 2384 2075 2632 2365 
Q 2881 2656 2881 3163 
Q 2881 3666 2632 3958 
Q 2384 4250 1959 4250 
Q 1534 4250 1286 3958 
Q 1038 3666 1038 3163 
Q 1038 2656 1286 2365 
Q 1534 2075 1959 2075 
z
" transform="scale(0.015625)"/>
       </defs>
       <use xlink:href="#DejaVuSans-39"/>
       <use xlink:href="#DejaVuSans-30" x="63.623047"/>
      </g>
     </g>
    </g>
   </g>
   <g id="line2d_14">
    <path d="M 42.143182 17.28 
L 42.447545 19.546392 
L 42.751909 19.375809 
L 43.056273 22.322514 
L 43.360636 23.586333 
L 43.665 27.443128 
L 43.969364 25.145382 
L 44.273727 28.671987 
L 44.578091 29.744455 
L 45.186818 29.744455 
L 45.491182 30.072806 
L 45.795545 31.190982 
L 46.099909 29.744455 
L 46.404273 29.84571 
L 46.708636 31.350535 
L 47.317364 32.008814 
L 47.621727 32.42002 
L 47.926091 33.615034 
L 48.230455 34.020431 
L 48.534818 33.615034 
L 49.143545 36.75779 
L 49.447909 36.784744 
L 49.752273 37.102085 
L 50.056636 37.102085 
L 50.361 37.565943 
L 50.969727 37.596852 
L 51.274091 37.681386 
L 51.882818 37.988839 
L 52.187182 39.026072 
L 52.491545 39.168949 
L 52.795909 39.168949 
L 53.100273 39.282079 
L 53.404636 40.104845 
L 53.709 41.856096 
L 54.013364 41.944967 
L 54.317727 42.379069 
L 54.622091 44.252033 
L 54.926455 44.852622 
L 55.230818 44.852622 
L 55.535182 45.232892 
L 55.839545 45.232892 
L 56.143909 45.362244 
L 56.448273 46.005236 
L 56.752636 46.017739 
L 57.057 47.061126 
L 57.361364 47.511943 
L 57.970091 47.511943 
L 58.274455 48.091365 
L 58.578818 49.017986 
L 58.883182 49.417797 
L 59.187545 49.417797 
L 59.796273 50.805675 
L 60.100636 51.782108 
L 60.405 51.782108 
L 60.709364 52.090546 
L 61.013727 52.09977 
L 61.318091 52.554069 
L 61.622455 53.370364 
L 61.926818 53.413137 
L 62.231182 54.235404 
L 62.839909 54.272026 
L 63.144273 55.26012 
L 63.448636 57.020156 
L 63.753 57.020156 
L 64.057364 57.962876 
L 64.361727 57.512034 
L 64.666091 58.106027 
L 64.970455 58.106027 
L 65.274818 58.533218 
L 65.579182 59.51581 
L 65.883545 59.003477 
L 67.405364 61.270071 
L 67.709727 61.270071 
L 68.014091 60.812462 
L 69.231545 61.698131 
L 70.449 62.028166 
L 70.753364 62.979509 
L 71.362091 62.987912 
L 71.666455 64.424376 
L 71.970818 63.768932 
L 72.275182 63.759871 
L 72.883909 64.770556 
L 73.188273 64.350914 
L 73.492636 64.994408 
L 73.797 64.966305 
L 74.405727 65.709884 
L 75.014455 66.210467 
L 75.623182 66.134895 
L 75.927545 68.202854 
L 76.231909 68.202854 
L 76.536273 68.613772 
L 76.840636 68.397105 
L 77.145 68.782081 
L 77.449364 69.921784 
L 77.753727 69.921784 
L 78.362455 71.569284 
L 78.666818 71.569284 
L 78.971182 72.195831 
L 81.406091 73.360148 
L 81.710455 73.70061 
L 82.319182 74.895863 
L 82.623545 74.942532 
L 83.232273 75.541579 
L 83.536636 75.619821 
L 83.841 76.153781 
L 84.145364 77.237804 
L 84.754091 77.237804 
L 85.058455 77.903973 
L 85.362818 77.408872 
L 85.667182 78.23335 
L 85.971545 78.23335 
L 86.275909 78.914624 
L 86.580273 79.048989 
L 86.884636 78.914624 
L 87.493364 79.11472 
L 87.797727 79.121529 
L 88.102091 79.577412 
L 88.406455 79.577412 
L 88.710818 79.927554 
L 89.319545 81.161177 
L 89.928273 81.123102 
L 90.232636 81.686159 
L 90.537 81.60078 
L 90.841364 82.502744 
L 91.145727 82.239156 
L 91.450091 82.502744 
L 91.754455 83.137708 
L 92.363182 83.088441 
L 92.667545 83.366381 
L 92.971909 83.207971 
L 93.276273 83.595127 
L 93.580636 83.595127 
L 94.189364 84.5593 
L 94.493727 84.680204 
L 94.798091 84.680204 
L 95.102455 84.847824 
L 95.406818 85.22298 
L 95.711182 85.228463 
L 96.015545 86.284738 
L 96.319909 86.008361 
L 96.624273 87.063437 
L 96.928636 87.566258 
L 97.841727 87.566258 
L 98.450455 88.270352 
L 98.754818 88.000503 
L 99.059182 88.315481 
L 99.363545 88.406461 
L 99.972273 89.262477 
L 100.276636 88.971318 
L 100.581 89.868292 
L 101.494091 89.868292 
L 101.798455 90.806996 
L 102.102818 91.065448 
L 102.407182 90.534654 
L 102.711545 91.124373 
L 103.015909 91.394256 
L 104.233364 91.788342 
L 104.537727 92.632789 
L 104.842091 91.965321 
L 105.146455 92.371779 
L 105.755182 92.546568 
L 106.059545 93.121021 
L 106.668273 93.121021 
L 106.972636 92.546192 
L 107.277 92.723171 
L 107.581364 93.40676 
L 107.885727 93.40676 
L 108.494455 93.73623 
L 108.798818 93.84145 
L 109.407545 94.467412 
L 109.711909 94.63676 
L 110.320636 95.852871 
L 110.625 95.6422 
L 111.538091 96.040185 
L 111.842455 96.480483 
L 112.146818 96.571535 
L 112.451182 97.283908 
L 112.755545 97.474214 
L 113.059909 97.315753 
L 113.364273 97.341404 
L 113.668636 98.046297 
L 114.581727 98.238107 
L 115.190455 98.861832 
L 115.494818 100.122124 
L 116.103545 100.122124 
L 116.407909 100.564164 
L 116.712273 100.362701 
L 117.016636 100.895153 
L 117.625364 101.212824 
L 117.929727 101.967326 
L 118.842818 102.686823 
L 119.147182 102.53003 
L 119.755909 102.583119 
L 120.973364 103.598281 
L 121.277727 103.742499 
L 121.886455 104.3668 
L 122.190818 104.3668 
L 122.495182 105.663627 
L 122.799545 105.663627 
L 123.103909 105.817773 
L 123.712636 106.757464 
L 124.017 107.443854 
L 124.321364 107.443854 
L 124.625727 107.317566 
L 124.930091 107.56525 
L 125.843182 107.56525 
L 126.147545 107.69374 
L 126.451909 108.135679 
L 126.756273 107.7346 
L 127.060636 108.370561 
L 127.365 108.267488 
L 127.669364 108.677294 
L 127.973727 108.51389 
L 128.278091 109.467178 
L 128.582455 109.467178 
L 128.886818 109.834297 
L 129.191182 109.467178 
L 129.495545 109.622387 
L 129.799909 110.053895 
L 130.104273 110.138804 
L 130.408636 110.385173 
L 130.713 112.032183 
L 131.017364 111.709725 
L 131.626091 112.90456 
L 132.843545 113.315225 
L 133.147909 114.15809 
L 133.452273 114.334306 
L 133.756636 114.827919 
L 134.365364 114.840069 
L 134.669727 115.963652 
L 134.974091 115.963652 
L 135.278455 117.063425 
L 135.582818 117.063425 
L 135.887182 117.25872 
L 136.495909 117.162728 
L 136.800273 117.079757 
L 137.104636 117.458426 
L 137.409 117.458426 
L 137.713364 117.738475 
L 138.322091 118.791379 
L 138.626455 118.83225 
L 138.930818 119.006991 
L 139.539545 118.91948 
L 139.843909 118.987646 
L 140.757 119.802437 
L 141.061364 119.802437 
L 141.365727 120.448944 
L 142.887545 120.551762 
L 143.191909 121.054945 
L 143.800636 121.216601 
L 144.105 121.383807 
L 144.409364 121.791866 
L 144.713727 121.791866 
L 145.018091 122.25714 
L 145.626818 122.37965 
L 146.235545 122.86365 
L 146.539909 122.97894 
L 146.844273 123.430169 
L 147.453 123.430169 
L 148.366091 123.998827 
L 148.670455 124.334376 
L 148.974818 124.334376 
L 149.583545 124.98014 
L 150.192273 124.98014 
L 150.496636 125.138002 
L 150.801 125.68373 
L 151.105364 125.573867 
L 151.409727 125.796419 
L 151.714091 126.531026 
L 152.018455 126.531026 
L 152.322818 126.885925 
L 152.627182 127.871891 
L 152.931545 128.087471 
L 153.235909 128.087471 
L 153.540273 128.247064 
L 153.844636 128.819669 
L 154.149 128.819669 
L 154.453364 128.63835 
L 154.757727 128.85393 
L 155.062091 128.923595 
L 155.366455 129.295939 
L 155.670818 129.472721 
L 156.279545 130.001067 
L 156.583909 130.229641 
L 157.192636 130.27631 
L 157.497 130.91197 
L 157.801364 131.001876 
L 158.105727 131.284954 
L 158.410091 132.075531 
L 159.018818 132.075531 
L 159.323182 132.455241 
L 159.627545 132.620161 
L 160.236273 132.621899 
L 160.540636 133.205067 
L 161.149364 132.848541 
L 161.453727 132.919413 
L 161.758091 133.448239 
L 162.062455 133.448239 
L 162.366818 133.656725 
L 162.975545 133.76394 
L 163.279909 133.918983 
L 163.584273 133.918983 
L 163.888636 134.04199 
L 164.193 134.4105 
L 164.497364 134.309733 
L 164.801727 134.394749 
L 165.106091 135.249301 
L 165.410455 135.342008 
L 166.323545 136.02472 
L 167.236636 136.646836 
L 167.541 136.987696 
L 167.845364 137.99435 
L 168.149727 137.568405 
L 168.454091 137.696124 
L 168.758455 137.696124 
L 169.062818 138.273148 
L 169.671545 138.273148 
L 169.975909 137.952877 
L 170.280273 138.311315 
L 170.584636 138.311315 
L 170.889 138.164875 
L 171.497727 138.741899 
L 171.802091 138.693185 
L 172.715182 139.490345 
L 173.019545 139.393792 
L 173.323909 139.514737 
L 173.932636 139.533104 
L 174.237 140.060793 
L 174.541364 139.826846 
L 174.845727 140.554503 
L 175.150091 140.69374 
L 175.454455 141.03065 
L 175.758818 141.03065 
L 176.063182 141.207606 
L 176.976273 141.352463 
L 177.280636 141.857675 
L 177.585 141.857675 
L 178.193727 142.239532 
L 178.498091 143.286653 
L 178.802455 143.286653 
L 179.106818 142.563808 
L 179.411182 142.49393 
L 179.715545 142.752052 
L 180.019909 142.810666 
L 180.628636 144.530796 
L 180.933 144.530796 
L 181.237364 144.646436 
L 181.846091 144.530796 
L 182.150455 144.927589 
L 182.759182 144.833453 
L 183.063545 145.279527 
L 183.672273 145.288535 
L 183.976636 146.086071 
L 184.281 146.39456 
L 185.498455 146.396219 
L 186.107182 146.777813 
L 186.411545 146.756784 
L 186.715909 147.221888 
L 187.020273 147.146473 
L 187.324636 147.411748 
L 187.933364 147.59173 
L 188.237727 147.955519 
L 188.846455 147.864193 
L 189.150818 148.126491 
L 189.455182 148.784014 
L 189.759545 148.784014 
L 190.063909 149.231726 
L 190.368273 149.184846 
L 190.672636 149.374026 
L 190.977 148.812817 
L 191.281364 148.682536 
L 191.585727 149.047574 
L 191.890091 149.231464 
L 192.194455 149.231464 
L 192.498818 149.61819 
L 192.803182 149.721934 
L 193.107545 150.168499 
L 194.020636 150.168499 
L 194.325 150.743444 
L 195.238091 150.771062 
L 195.846818 151.124548 
L 196.455545 151.687102 
L 196.759909 151.959719 
L 197.064273 151.959719 
L 197.368636 152.256754 
L 197.673 153.003497 
L 197.977364 152.482717 
L 198.281727 153.567566 
L 199.194818 153.080225 
L 199.803545 153.199367 
L 200.107909 153.300559 
L 200.412273 153.866805 
L 200.716636 153.912859 
L 201.021 154.149954 
L 201.325364 154.629767 
L 201.629727 154.333752 
L 201.934091 154.333752 
L 202.238455 155.273848 
L 202.542818 155.273848 
L 203.455909 156.574139 
L 204.064636 156.574139 
L 204.369 157.425066 
L 205.282091 157.425066 
L 205.586455 157.145515 
L 206.499545 158.056065 
L 206.803909 158.02563 
L 207.717 158.940691 
L 208.021364 158.866461 
L 208.630091 159.157478 
L 208.934455 159.565696 
L 209.238818 159.565696 
L 209.847545 160.032396 
L 210.151909 160.041098 
L 210.456273 160.678467 
L 211.065 160.735127 
L 211.369364 161.021266 
L 211.673727 161.021266 
L 211.978091 160.890193 
L 212.282455 161.140708 
L 212.891182 161.230151 
L 213.195545 161.702468 
L 213.499909 161.841934 
L 213.804273 161.676847 
L 214.108636 161.676847 
L 214.413 162.042447 
L 214.717364 161.777635 
L 215.021727 162.627067 
L 215.630455 162.72031 
L 215.934818 163.462986 
L 216.239182 163.596172 
L 216.543545 163.434245 
L 216.847909 163.820739 
L 217.761 164.289945 
L 218.065364 164.676093 
L 218.978455 164.720189 
L 219.891545 164.941753 
L 220.195909 165.220155 
L 221.109 165.605033 
L 221.413364 165.837214 
L 221.717727 165.837214 
L 222.022091 166.324689 
L 222.326455 166.176966 
L 222.935182 166.721488 
L 223.239545 166.859227 
L 223.543909 166.824928 
L 223.848273 167.138261 
L 224.152636 167.138261 
L 224.457 167.371091 
L 224.761364 167.418774 
L 225.065727 167.254584 
L 225.370091 167.968151 
L 225.978818 168.088415 
L 226.283182 168.630675 
L 226.587545 169.417845 
L 226.891909 169.417845 
L 227.196273 169.610939 
L 227.500636 170.108559 
L 228.718091 170.185313 
L 229.022455 170.313275 
L 229.326818 170.100601 
L 229.631182 170.185116 
L 229.935545 170.519483 
L 230.848636 170.79432 
L 231.153 170.601548 
L 231.761727 171.147765 
L 232.066091 170.873437 
L 232.674818 171.24532 
L 233.283545 172.112903 
L 233.587909 172.501534 
L 234.196636 172.823585 
L 234.501 172.458376 
L 234.805364 172.554399 
L 235.109727 172.81761 
L 235.718455 172.91442 
L 236.022818 173.231467 
L 236.327182 173.074682 
L 236.631545 173.206514 
L 236.935909 173.491889 
L 237.240273 173.491889 
L 237.849 174.045627 
L 238.762091 173.938726 
L 239.066455 174.183646 
L 239.370818 174.694632 
L 239.675182 174.694632 
L 239.979545 175.387905 
L 240.283909 175.387905 
L 240.892636 175.978491 
L 241.501364 175.904392 
L 241.805727 176.148101 
L 242.110091 176.046673 
L 242.414455 176.435488 
L 243.327545 176.910615 
L 243.631909 176.920107 
L 243.936273 177.277089 
L 244.240636 177.037771 
L 244.849364 177.485989 
L 245.153727 177.505077 
L 245.762455 178.041192 
L 246.066818 178.085587 
L 246.675545 177.988696 
L 246.979909 178.394903 
L 247.588636 178.394903 
L 247.893 178.518442 
L 248.197364 178.518442 
L 248.501727 178.779794 
L 250.023545 179.295071 
L 250.327909 179.456122 
L 250.632273 179.384699 
L 250.936636 180.038253 
L 251.545364 180.364861 
L 251.849727 180.364861 
L 252.154091 181.137204 
L 252.458455 181.185274 
L 252.762818 181.542528 
L 253.067182 181.542528 
L 253.371545 182.382539 
L 254.284636 182.487903 
L 254.589 182.5146 
L 255.197727 183.074601 
L 255.502091 183.140877 
L 255.806455 183.694509 
L 256.110818 183.709976 
L 256.719545 184.146418 
L 257.328273 184.225094 
L 258.545727 184.543919 
L 258.850091 184.423983 
L 259.154455 184.743999 
L 259.458818 184.500337 
L 259.763182 184.653203 
L 260.067545 185.093322 
L 260.371909 185.093322 
L 260.676273 184.961149 
L 261.285 185.116693 
L 261.893727 185.624016 
L 262.198091 185.624016 
L 263.415545 186.132816 
L 264.024273 186.091499 
L 266.763545 186.840438 
L 267.067909 186.878264 
L 267.372273 186.770902 
L 268.285364 187.081988 
L 268.894091 187.081988 
L 269.198455 187.27539 
L 269.502818 187.081988 
L 269.807182 187.390328 
L 270.111545 187.390328 
L 270.720273 187.810684 
L 271.024636 187.802554 
L 271.329 188.910692 
L 272.242091 188.910692 
L 272.546455 189.058702 
L 272.850818 189.473778 
L 273.155182 189.661138 
L 273.459545 190.224038 
L 274.068273 190.531536 
L 274.372636 190.901621 
L 274.677 190.514352 
L 274.981364 190.719019 
L 275.285727 191.07557 
L 276.503182 191.573284 
L 276.807545 191.475797 
L 277.111909 191.79891 
L 277.416273 191.37065 
L 278.329364 192.276722 
L 278.633727 191.928938 
L 278.938091 191.954982 
L 279.242455 192.448458 
L 279.546818 192.247591 
L 279.851182 192.607458 
L 280.155545 192.440006 
L 280.459909 192.73122 
L 281.373 192.82908 
L 281.677364 193.107615 
L 281.981727 193.070199 
L 282.894818 193.408322 
L 283.199182 193.974842 
L 283.807909 194.0746 
L 284.112273 194.501585 
L 284.721 194.651213 
L 285.025364 194.482986 
L 285.329727 194.627166 
L 285.634091 194.643672 
L 285.938455 194.839578 
L 286.242818 195.487974 
L 286.547182 195.695997 
L 286.851545 195.487974 
L 287.155909 195.884481 
L 287.764636 195.851139 
L 288.069 196.495533 
L 288.373364 196.588363 
L 288.677727 196.892039 
L 288.982091 196.884741 
L 289.286455 197.277823 
L 289.590818 197.277823 
L 289.895182 197.478348 
L 290.199545 197.531295 
L 290.503909 197.977454 
L 291.112636 198.068392 
L 291.721364 197.977454 
L 293.243182 198.470114 
L 293.547545 198.571107 
L 293.851909 198.887661 
L 295.069364 198.887661 
L 295.373727 199.010911 
L 295.678091 199.359548 
L 295.982455 199.359548 
L 296.286818 199.664271 
L 296.895545 199.664271 
L 297.504273 200.194051 
L 297.808636 200.304956 
L 298.113 200.557125 
L 298.417364 200.557125 
L 298.721727 200.752088 
L 299.026091 200.752088 
L 299.634818 201.16115 
L 300.243545 201.057657 
L 300.547909 201.391888 
L 300.852273 201.161136 
L 301.156636 201.161136 
L 301.461 201.644866 
L 301.765364 201.559897 
L 302.069727 201.733271 
L 302.374091 202.155395 
L 302.678455 202.262425 
L 303.895909 203.076314 
L 304.200273 202.978386 
L 304.504636 203.307386 
L 304.809 203.217704 
L 305.113364 203.334519 
L 305.722091 204.040324 
L 306.026455 204.081291 
L 306.330818 203.971202 
L 306.635182 204.554595 
L 306.939545 204.554595 
L 307.243909 204.275416 
L 307.548273 204.87636 
L 307.852636 204.580426 
L 308.157 204.440453 
L 308.461364 204.627211 
L 309.374455 204.722919 
L 309.678818 204.998822 
L 310.287545 204.923182 
L 310.591909 205.034109 
L 310.896273 205.495516 
L 311.200636 206.260857 
L 311.505 205.821544 
L 311.809364 205.699095 
L 312.113727 205.76297 
L 312.418091 205.680079 
L 312.722455 205.750695 
L 313.026818 206.243871 
L 313.331182 206.006313 
L 313.635545 206.092153 
L 314.244273 206.534582 
L 314.548636 206.526284 
L 314.853 206.839502 
L 315.157364 207.598993 
L 315.461727 207.011189 
L 315.766091 207.053536 
L 316.374818 207.621916 
L 316.679182 207.318984 
L 316.983545 207.373833 
L 317.287909 207.833353 
L 318.505364 208.17541 
L 319.114091 208.719942 
L 320.027182 209.012018 
L 320.331545 208.870112 
L 320.635909 209.136432 
L 320.940273 208.921044 
L 321.244636 208.979173 
L 322.462091 209.631668 
L 322.766455 209.703709 
L 323.070818 209.580028 
L 323.375182 209.962901 
L 323.679545 209.679428 
L 323.983909 210.195757 
L 324.288273 210.102403 
L 324.592636 210.498993 
L 324.897 210.498993 
L 325.201364 210.612505 
L 325.505727 210.606738 
L 325.810091 210.853909 
L 326.114455 210.853909 
L 326.418818 210.548907 
L 327.027545 210.874596 
L 327.940636 210.984303 
L 328.853727 211.500557 
L 329.462455 211.552257 
L 329.766818 211.861084 
L 330.071182 211.679699 
L 330.679909 211.707251 
L 330.984273 212.198163 
L 331.288636 213.008009 
L 331.593 212.087319 
L 331.897364 212.259069 
L 332.201727 212.20603 
L 332.506091 212.446269 
L 332.810455 212.473441 
L 333.114818 213.012604 
L 333.419182 212.926332 
L 334.332273 213.368415 
L 334.941 213.395278 
L 335.549727 214.279017 
L 335.854091 214.36227 
L 336.158455 214.279017 
L 336.462818 214.717132 
L 336.767182 214.882726 
L 337.071545 214.882726 
L 337.375909 215.126687 
L 337.680273 215.126687 
L 337.984636 214.99356 
L 338.289 215.345838 
L 338.897727 215.327429 
L 339.202091 215.495608 
L 339.506455 215.327429 
L 340.419545 215.796898 
L 340.723909 215.796898 
L 341.028273 216.244003 
L 341.637 216.244003 
L 342.550091 216.780792 
L 342.854455 217.01535 
L 343.463182 217.01535 
L 343.767545 217.398739 
L 344.376273 217.384123 
L 344.680636 217.720535 
L 344.985 217.720535 
L 345.289364 217.983899 
L 345.593727 217.983899 
L 345.898091 218.334838 
L 346.202455 218.408052 
L 346.506818 218.88 
L 346.506818 218.88 
" clip-path="url(#pb752f93b39)" style="fill: none; stroke: #1f77b4; stroke-width: 1.5; stroke-linecap: square"/>
   </g>
   <g id="patch_3">
    <path d="M 26.925 228.96 
L 26.925 7.2 
" style="fill: none; stroke: #000000; stroke-width: 0.8; stroke-linejoin: miter; stroke-linecap: square"/>
   </g>
   <g id="patch_4">
    <path d="M 361.725 228.96 
L 361.725 7.2 
" style="fill: none; stroke: #000000; stroke-width: 0.8; stroke-linejoin: miter; stroke-linecap: square"/>
   </g>
   <g id="patch_5">
    <path d="M 26.925 228.96 
L 361.725 228.96 
" style="fill: none; stroke: #000000; stroke-width: 0.8; stroke-linejoin: miter; stroke-linecap: square"/>
   </g>
   <g id="patch_6">
    <path d="M 26.925 7.2 
L 361.725 7.2 
" style="fill: none; stroke: #000000; stroke-width: 0.8; stroke-linejoin: miter; stroke-linecap: square"/>
   </g>
  </g>
 </g>
 <defs>
  <clipPath id="pb752f93b39">
   <rect x="26.925" y="7.2" width="334.8" height="221.76"/>
  </clipPath>
 </defs>
</svg>
