<?xml version="1.0" encoding="utf-8" standalone="no"?>
<!DOCTYPE svg PUBLIC "-//W3C//DTD SVG 1.1//EN"
  "http://www.w3.org/Graphics/SVG/1.1/DTD/svg11.dtd">
<svg xmlns:xlink="http://www.w3.org/1999/xlink" width="384.457813pt" height="260.49625pt" viewBox="0 0 384.457813 260.49625" xmlns="http://www.w3.org/2000/svg" version="1.1">
 <metadata>
  <rdf:RDF xmlns:dc="http://purl.org/dc/elements/1.1/" xmlns:cc="http://creativecommons.org/ns#" xmlns:rdf="http://www.w3.org/1999/02/22-rdf-syntax-ns#">
   <cc:Work>
    <dc:type rdf:resource="http://purl.org/dc/dcmitype/StillImage"/>
    <dc:date>2023-01-29T21:26:27.115099</dc:date>
    <dc:format>image/svg+xml</dc:format>
    <dc:creator>
     <cc:Agent>
      <dc:title>Matplotlib v3.5.3, https://matplotlib.org/</dc:title>
     </cc:Agent>
    </dc:creator>
   </cc:Work>
  </rdf:RDF>
 </metadata>
 <defs>
  <style type="text/css">*{stroke-linejoin: round; stroke-linecap: butt}</style>
 </defs>
 <g id="figure_1">
  <g id="patch_1">
   <path d="M 0 260.49625 
L 384.457813 260.49625 
L 384.457813 0 
L 0 0 
z
" style="fill: #ffffff"/>
  </g>
  <g id="axes_1">
   <g id="patch_2">
    <path d="M 42.457813 224.64 
L 377.257812 224.64 
L 377.257812 7.2 
L 42.457813 7.2 
z
" style="fill: #ffffff"/>
   </g>
   <g id="matplotlib.axis_1">
    <g id="xtick_1">
     <g id="line2d_1">
      <defs>
       <path id="mfdfb9c53fc" d="M 0 0 
L 0 3.5 
" style="stroke: #000000; stroke-width: 0.8"/>
      </defs>
      <g>
       <use xlink:href="#mfdfb9c53fc" x="57.675994" y="224.64" style="stroke: #000000; stroke-width: 0.8"/>
      </g>
     </g>
     <g id="text_1">
      <!-- 0 -->
      <g transform="translate(55.175994 238.788438)scale(0.1 -0.1)">
       <defs>
        <path id="SimSun-30" d="M 1600 4225 
Q 1250 4225 1012 3687 
Q 775 3150 775 2250 
Q 775 1300 1012 775 
Q 1250 250 1600 250 
Q 1975 250 2187 775 
Q 2400 1300 2400 2250 
Q 2400 3150 2200 3687 
Q 2000 4225 1600 4225 
z
M 1600 50 
Q 1050 50 675 625 
Q 300 1200 300 2250 
Q 300 3225 662 3825 
Q 1025 4425 1600 4425 
Q 2150 4425 2512 3850 
Q 2875 3275 2875 2250 
Q 2875 1225 2512 637 
Q 2150 50 1600 50 
z
" transform="scale(0.015625)"/>
       </defs>
       <use xlink:href="#SimSun-30"/>
      </g>
     </g>
    </g>
    <g id="xtick_2">
     <g id="line2d_2">
      <g>
       <use xlink:href="#mfdfb9c53fc" x="133.766903" y="224.64" style="stroke: #000000; stroke-width: 0.8"/>
      </g>
     </g>
     <g id="text_2">
      <!-- 250 -->
      <g transform="translate(126.266903 238.788438)scale(0.1 -0.1)">
       <defs>
        <path id="SimSun-32" d="M 2325 3325 
Q 2325 3775 2125 4012 
Q 1925 4250 1525 4250 
Q 1225 4250 1012 4087 
Q 800 3925 800 3675 
Q 800 3525 900 3425 
Q 975 3325 975 3225 
Q 975 3100 912 3037 
Q 850 2975 725 2975 
Q 575 2975 487 3062 
Q 400 3150 400 3350 
Q 400 3875 775 4150 
Q 1150 4425 1575 4425 
Q 2175 4425 2462 4125 
Q 2750 3825 2750 3375 
Q 2750 3075 2612 2775 
Q 2475 2475 2175 2200 
Q 1450 1500 1062 1062 
Q 675 625 600 475 
L 2075 475 
Q 2300 475 2450 650 
Q 2600 825 2650 1175 
L 2800 1175 
L 2650 100 
L 325 100 
L 325 425 
Q 450 650 737 1000 
Q 1025 1350 1500 1825 
Q 1925 2250 2125 2625 
Q 2325 3000 2325 3325 
z
" transform="scale(0.015625)"/>
        <path id="SimSun-35" d="M 1725 2850 
Q 2200 2850 2500 2487 
Q 2800 2125 2800 1525 
Q 2800 850 2487 450 
Q 2175 50 1525 50 
Q 1075 50 725 312 
Q 375 575 375 950 
Q 375 1100 462 1212 
Q 550 1325 700 1325 
Q 850 1325 900 1225 
Q 950 1125 950 1050 
Q 950 900 875 825 
Q 800 725 800 625 
Q 800 425 1037 325 
Q 1275 225 1550 225 
Q 1950 225 2162 550 
Q 2375 875 2375 1475 
Q 2375 1975 2187 2287 
Q 2000 2600 1625 2600 
Q 1350 2600 1150 2500 
Q 950 2400 775 2075 
L 550 2100 
L 675 4375 
L 2725 4375 
L 2650 4000 
L 850 4000 
L 750 2350 
Q 1000 2700 1237 2775 
Q 1475 2850 1725 2850 
z
" transform="scale(0.015625)"/>
       </defs>
       <use xlink:href="#SimSun-32"/>
       <use xlink:href="#SimSun-35" x="50"/>
       <use xlink:href="#SimSun-30" x="100"/>
      </g>
     </g>
    </g>
    <g id="xtick_3">
     <g id="line2d_3">
      <g>
       <use xlink:href="#mfdfb9c53fc" x="209.857813" y="224.64" style="stroke: #000000; stroke-width: 0.8"/>
      </g>
     </g>
     <g id="text_3">
      <!-- 500 -->
      <g transform="translate(202.357813 238.788438)scale(0.1 -0.1)">
       <use xlink:href="#SimSun-35"/>
       <use xlink:href="#SimSun-30" x="50"/>
       <use xlink:href="#SimSun-30" x="100"/>
      </g>
     </g>
    </g>
    <g id="xtick_4">
     <g id="line2d_4">
      <g>
       <use xlink:href="#mfdfb9c53fc" x="285.948722" y="224.64" style="stroke: #000000; stroke-width: 0.8"/>
      </g>
     </g>
     <g id="text_4">
      <!-- 750 -->
      <g transform="translate(278.448722 238.788438)scale(0.1 -0.1)">
       <defs>
        <path id="SimSun-37" d="M 2825 4200 
Q 2300 3350 1987 2537 
Q 1675 1725 1675 1125 
Q 1675 1025 1700 850 
Q 1700 650 1700 400 
Q 1700 200 1637 125 
Q 1575 50 1425 50 
Q 1300 50 1212 137 
Q 1125 225 1125 450 
Q 1125 925 1337 1625 
Q 1550 2325 2475 4000 
L 1225 4000 
Q 950 4000 787 3825 
Q 625 3650 550 3300 
L 400 3325 
L 575 4375 
L 2825 4375 
L 2825 4200 
z
" transform="scale(0.015625)"/>
       </defs>
       <use xlink:href="#SimSun-37"/>
       <use xlink:href="#SimSun-35" x="50"/>
       <use xlink:href="#SimSun-30" x="100"/>
      </g>
     </g>
    </g>
    <g id="xtick_5">
     <g id="line2d_5">
      <g>
       <use xlink:href="#mfdfb9c53fc" x="362.039631" y="224.64" style="stroke: #000000; stroke-width: 0.8"/>
      </g>
     </g>
     <g id="text_5">
      <!-- 1000 -->
      <g transform="translate(352.039631 238.788438)scale(0.1 -0.1)">
       <defs>
        <path id="SimSun-31" d="M 1825 4450 
L 1825 650 
Q 1825 450 1950 350 
Q 2075 250 2300 250 
L 2550 250 
L 2550 100 
L 725 100 
L 725 250 
L 950 250 
Q 1200 250 1312 350 
Q 1425 450 1425 650 
L 1425 3675 
Q 1425 3775 1362 3837 
Q 1300 3900 1175 3900 
L 725 3900 
L 725 4050 
L 950 4050 
Q 1250 4050 1437 4150 
Q 1625 4250 1725 4450 
L 1825 4450 
z
" transform="scale(0.015625)"/>
       </defs>
       <use xlink:href="#SimSun-31"/>
       <use xlink:href="#SimSun-30" x="50"/>
       <use xlink:href="#SimSun-30" x="100"/>
       <use xlink:href="#SimSun-30" x="150"/>
      </g>
     </g>
    </g>
    <g id="text_6">
     <!-- 迭代次数 -->
     <g transform="translate(189.857813 252.007188)scale(0.1 -0.1)">
      <defs>
       <path id="SimSun-8fed" d="M 4075 2425 
L 3975 2025 
Q 5050 1525 5350 1275 
Q 5650 1025 5650 800 
Q 5650 700 5600 587 
Q 5550 475 5500 475 
Q 5425 475 5300 700 
Q 5075 1050 4700 1362 
Q 4325 1675 3950 1950 
Q 3500 900 2175 425 
L 2125 500 
Q 3525 1250 3725 2425 
L 2675 2425 
Q 2450 2425 2175 2350 
L 1950 2575 
L 3750 2575 
Q 3825 3150 3825 3750 
L 2900 3750 
Q 2600 3150 2150 2725 
L 2100 2775 
Q 2400 3275 2562 3737 
Q 2725 4200 2800 4725 
L 3275 4475 
Q 3125 4350 2950 3900 
L 3825 3900 
Q 3825 4400 3800 5150 
L 4375 4900 
L 4175 4725 
L 4175 3900 
L 4900 3900 
L 5200 4200 
L 5625 3750 
L 4175 3750 
Q 4150 3025 4100 2575 
L 5300 2575 
L 5600 2875 
L 6025 2425 
L 4075 2425 
z
M 1575 875 
Q 1800 625 2225 350 
Q 2650 75 3725 37 
Q 4800 0 6125 175 
L 6125 75 
Q 5675 -75 5650 -325 
Q 4475 -350 3725 -312 
Q 2975 -275 2562 -100 
Q 2150 75 1850 400 
Q 1525 725 1437 750 
Q 1350 775 1050 475 
Q 750 175 575 -125 
L 250 225 
Q 725 550 1250 875 
L 1250 2925 
L 925 2925 
Q 725 2925 450 2850 
L 225 3075 
L 1125 3075 
L 1425 3375 
L 1850 2975 
L 1575 2825 
L 1575 875 
z
M 950 5025 
L 975 5100 
Q 1350 4900 1575 4725 
Q 1800 4550 1800 4362 
Q 1800 4175 1712 4100 
Q 1625 4025 1600 4025 
Q 1500 4025 1400 4300 
Q 1275 4675 950 5025 
z
" transform="scale(0.015625)"/>
       <path id="SimSun-4ee3" d="M 5550 -75 
L 5875 1025 
L 5975 1025 
Q 5875 175 5912 -75 
Q 5950 -325 6025 -525 
Q 6075 -650 5950 -650 
Q 5900 -650 5662 -587 
Q 5425 -525 4925 -150 
Q 4425 225 4100 850 
Q 3775 1475 3600 2975 
L 2575 2925 
L 2350 2850 
L 2100 3050 
L 3575 3125 
Q 3525 3750 3500 4175 
Q 3475 4600 3450 5075 
L 4050 4775 
L 3850 4600 
Q 3875 3625 3925 3150 
L 5150 3225 
L 5475 3550 
L 5975 3125 
L 3950 3000 
Q 4100 1525 4550 862 
Q 5000 200 5550 -75 
z
M 4475 4700 
L 4500 4800 
Q 5450 4475 5537 4300 
Q 5625 4125 5625 4050 
Q 5625 3950 5550 3837 
Q 5475 3725 5425 3725 
Q 5325 3725 5225 3950 
Q 5025 4275 4475 4700 
z
M 1800 3100 
L 1800 400 
Q 1800 0 1825 -475 
L 1425 -650 
Q 1450 -25 1450 375 
L 1450 3125 
Q 850 2175 300 1675 
L 225 1750 
Q 550 2175 837 2662 
Q 1125 3150 1412 3787 
Q 1700 4425 1925 5250 
L 2475 4900 
Q 2275 4800 2050 4350 
Q 1825 3875 1625 3500 
L 1975 3275 
L 1800 3100 
z
" transform="scale(0.015625)"/>
       <path id="SimSun-6b21" d="M 4875 2725 
L 5275 3600 
L 3225 3600 
Q 3025 3250 2800 2887 
Q 2575 2525 2075 2025 
L 2000 2100 
Q 2575 2825 2925 3750 
Q 3275 4675 3350 5225 
L 3950 4925 
Q 3750 4825 3650 4600 
Q 3550 4375 3275 3750 
L 5250 3750 
L 5525 4025 
L 5975 3550 
Q 5725 3500 5550 3350 
Q 5375 3200 4950 2675 
L 4875 2725 
z
M 4050 2900 
Q 3900 1225 3175 437 
Q 2450 -350 1450 -650 
L 1400 -575 
Q 2675 0 3175 912 
Q 3675 1825 3700 3400 
L 4275 3100 
L 4125 2975 
Q 4300 1700 4812 912 
Q 5325 125 6150 -175 
L 6125 -250 
Q 5750 -225 5575 -500 
Q 4950 -25 4537 825 
Q 4125 1675 4050 2900 
z
M 750 4950 
Q 1275 4675 1487 4450 
Q 1700 4225 1700 4075 
Q 1700 3925 1587 3775 
Q 1475 3625 1450 3625 
Q 1350 3625 1275 3950 
Q 1150 4400 700 4875 
L 750 4950 
z
M 425 1650 
Q 600 1625 750 1625 
Q 975 1625 1100 1725 
Q 1225 1825 2275 4300 
L 2375 4250 
Q 1400 1700 1350 1600 
Q 1300 1500 1300 1187 
Q 1300 875 1375 350 
Q 1450 -200 1212 -175 
Q 975 -150 925 -25 
Q 875 100 875 200 
Q 875 300 925 575 
Q 1000 975 975 1187 
Q 950 1400 425 1550 
L 425 1650 
z
" transform="scale(0.015625)"/>
       <path id="SimSun-6570" d="M 1875 1525 
Q 1675 1200 1500 900 
Q 1825 825 2275 725 
Q 2500 975 2725 1525 
L 1875 1525 
z
M 850 4900 
Q 1325 4600 1425 4450 
Q 1525 4300 1525 4225 
Q 1525 4100 1437 3975 
Q 1350 3850 1300 3850 
Q 1225 3850 1150 4100 
Q 1050 4450 775 4850 
L 850 4900 
z
M 3000 4975 
L 3450 4675 
Q 3250 4625 3100 4425 
Q 2925 4225 2525 3825 
L 2450 3875 
Q 2925 4625 3000 4975 
z
M 1875 5250 
L 2425 5000 
L 2225 4825 
L 2225 3675 
L 2850 3675 
L 3125 3950 
L 3550 3525 
L 2225 3525 
L 2225 3300 
Q 2800 3175 2937 3062 
Q 3075 2950 3075 2775 
Q 3075 2700 3050 2587 
Q 3025 2475 2975 2475 
Q 2925 2475 2800 2650 
Q 2600 2925 2225 3175 
L 2225 2400 
L 1925 2200 
L 2275 2050 
Q 2150 2000 1950 1675 
L 2725 1675 
L 2900 1900 
L 3275 1575 
L 3050 1450 
Q 2800 875 2600 650 
Q 3000 550 3137 437 
Q 3275 325 3275 150 
Q 3275 -25 3200 -25 
Q 3125 -25 3025 75 
Q 2750 275 2400 425 
Q 1525 -275 325 -500 
L 300 -425 
Q 1450 -50 2100 550 
Q 1600 725 1125 800 
Q 1225 950 1525 1525 
L 1200 1525 
Q 875 1525 600 1450 
L 375 1675 
L 1575 1675 
Q 1675 1925 1775 2275 
L 1900 2225 
L 1900 3250 
Q 1225 2475 350 2050 
L 300 2125 
Q 1225 2775 1700 3525 
L 1250 3525 
Q 925 3525 650 3450 
L 425 3675 
L 1900 3675 
Q 1900 4575 1875 5250 
z
M 3925 3525 
Q 4050 2075 4525 1100 
Q 4925 1950 5025 3525 
L 3925 3525 
z
M 4050 5250 
L 4625 4925 
Q 4425 4850 4325 4625 
Q 4225 4400 3950 3675 
L 5375 3675 
L 5675 3975 
L 6125 3525 
L 5400 3525 
Q 5250 1675 4750 775 
Q 5325 75 6100 -100 
L 6100 -200 
Q 5625 -275 5600 -500 
Q 4950 -50 4525 525 
Q 3700 -275 2550 -650 
L 2500 -575 
Q 3650 -50 4325 800 
Q 3850 1975 3825 3375 
Q 3575 2725 3100 2150 
L 3025 2200 
Q 3625 3200 4050 5250 
z
" transform="scale(0.015625)"/>
      </defs>
      <use xlink:href="#SimSun-8fed"/>
      <use xlink:href="#SimSun-4ee3" x="100"/>
      <use xlink:href="#SimSun-6b21" x="200"/>
      <use xlink:href="#SimSun-6570" x="300"/>
     </g>
    </g>
   </g>
   <g id="matplotlib.axis_2">
    <g id="ytick_1">
     <g id="line2d_6">
      <defs>
       <path id="m6af82d7662" d="M 0 0 
L -3.5 0 
" style="stroke: #000000; stroke-width: 0.8"/>
      </defs>
      <g>
       <use xlink:href="#m6af82d7662" x="42.457813" y="200.171947" style="stroke: #000000; stroke-width: 0.8"/>
      </g>
     </g>
     <g id="text_7">
      <!-- 350 -->
      <g transform="translate(20.457813 203.746166)scale(0.1 -0.1)">
       <defs>
        <path id="SimSun-33" d="M 2800 1250 
Q 2800 775 2450 412 
Q 2100 50 1475 50 
Q 1025 50 700 300 
Q 375 550 375 875 
Q 375 1025 475 1137 
Q 575 1250 675 1250 
Q 825 1250 887 1137 
Q 950 1025 950 950 
Q 950 825 900 750 
Q 850 650 850 575 
Q 850 425 1037 325 
Q 1225 225 1450 225 
Q 1900 225 2125 487 
Q 2350 750 2350 1300 
Q 2350 1750 2112 2025 
Q 1875 2300 1225 2300 
L 1225 2475 
Q 1725 2475 1962 2712 
Q 2200 2950 2200 3375 
Q 2200 3725 2012 3987 
Q 1825 4250 1425 4250 
Q 1250 4250 1050 4162 
Q 850 4075 850 3875 
Q 850 3675 900 3625 
Q 950 3575 950 3500 
Q 950 3375 900 3300 
Q 850 3225 725 3225 
Q 625 3225 537 3300 
Q 450 3375 450 3575 
Q 450 3950 775 4187 
Q 1100 4425 1525 4425 
Q 2025 4425 2325 4112 
Q 2625 3800 2625 3450 
Q 2625 3075 2437 2812 
Q 2250 2550 1850 2425 
Q 2400 2225 2600 1900 
Q 2800 1575 2800 1250 
z
" transform="scale(0.015625)"/>
       </defs>
       <use xlink:href="#SimSun-33"/>
       <use xlink:href="#SimSun-35" x="50"/>
       <use xlink:href="#SimSun-30" x="100"/>
      </g>
     </g>
    </g>
    <g id="ytick_2">
     <g id="line2d_7">
      <g>
       <use xlink:href="#m6af82d7662" x="42.457813" y="148.569468" style="stroke: #000000; stroke-width: 0.8"/>
      </g>
     </g>
     <g id="text_8">
      <!-- 375 -->
      <g transform="translate(20.457813 152.143687)scale(0.1 -0.1)">
       <use xlink:href="#SimSun-33"/>
       <use xlink:href="#SimSun-37" x="50"/>
       <use xlink:href="#SimSun-35" x="100"/>
      </g>
     </g>
    </g>
    <g id="ytick_3">
     <g id="line2d_8">
      <g>
       <use xlink:href="#m6af82d7662" x="42.457813" y="96.966989" style="stroke: #000000; stroke-width: 0.8"/>
      </g>
     </g>
     <g id="text_9">
      <!-- 400 -->
      <g transform="translate(20.457813 100.541208)scale(0.1 -0.1)">
       <defs>
        <path id="SimSun-34" d="M 2300 575 
Q 2300 400 2400 325 
Q 2500 250 2675 250 
L 2900 250 
L 2900 100 
L 1250 100 
L 1250 250 
L 1525 250 
Q 1725 250 1812 325 
Q 1900 400 1900 575 
L 1900 1400 
L 225 1400 
L 225 1525 
L 2050 4425 
L 2300 4425 
L 2300 1550 
L 2975 1550 
L 2975 1400 
L 2300 1400 
L 2300 575 
z
M 1875 3800 
L 450 1550 
L 1900 1550 
L 1900 3800 
L 1875 3800 
z
" transform="scale(0.015625)"/>
       </defs>
       <use xlink:href="#SimSun-34"/>
       <use xlink:href="#SimSun-30" x="50"/>
       <use xlink:href="#SimSun-30" x="100"/>
      </g>
     </g>
    </g>
    <g id="ytick_4">
     <g id="line2d_9">
      <g>
       <use xlink:href="#m6af82d7662" x="42.457813" y="45.36451" style="stroke: #000000; stroke-width: 0.8"/>
      </g>
     </g>
     <g id="text_10">
      <!-- 425 -->
      <g transform="translate(20.457813 48.938729)scale(0.1 -0.1)">
       <use xlink:href="#SimSun-34"/>
       <use xlink:href="#SimSun-32" x="50"/>
       <use xlink:href="#SimSun-35" x="100"/>
      </g>
     </g>
    </g>
    <g id="text_11">
     <!-- 优化目标值 -->
     <g transform="translate(15.16875 140.92)rotate(-90)scale(0.1 -0.1)">
      <defs>
       <path id="SimSun-4f18" d="M 1275 -600 
Q 1300 125 1300 600 
L 1300 3275 
Q 725 2450 300 2025 
L 225 2100 
Q 650 2675 1087 3562 
Q 1525 4450 1750 5225 
L 2275 4900 
Q 2000 4725 1425 3550 
L 1850 3325 
L 1650 3125 
L 1650 475 
Q 1650 225 1675 -400 
L 1275 -600 
z
M 4275 4875 
Q 5225 4550 5287 4400 
Q 5350 4250 5350 4150 
Q 5350 4025 5287 3900 
Q 5225 3775 5175 3775 
Q 5075 3775 4975 4000 
Q 4775 4350 4225 4800 
L 4275 4875 
z
M 3275 3325 
L 3275 4175 
Q 3275 4700 3250 5175 
L 3850 4900 
L 3625 4700 
L 3625 3325 
L 5025 3325 
L 5350 3650 
L 5825 3175 
L 4325 3175 
L 4325 300 
Q 4325 -50 4675 -50 
L 5425 -50 
Q 5600 0 5650 350 
Q 5700 700 5700 1100 
L 5825 1100 
Q 5825 725 5862 387 
Q 5900 50 6125 0 
Q 5925 -350 5575 -350 
L 4575 -350 
Q 4000 -375 4000 125 
L 4000 3175 
L 3625 3175 
Q 3600 2275 3425 1587 
Q 3250 900 2850 362 
Q 2450 -175 1750 -650 
L 1675 -575 
Q 2200 -150 2550 387 
Q 2900 925 3075 1625 
Q 3250 2325 3275 3175 
L 2725 3175 
Q 2400 3175 2125 3100 
L 1900 3325 
L 3275 3325 
z
" transform="scale(0.015625)"/>
       <path id="SimSun-5316" d="M 1375 -600 
Q 1400 200 1400 925 
L 1400 3125 
Q 850 2300 350 1775 
L 275 1850 
Q 825 2625 1300 3650 
Q 1775 4675 1900 5200 
L 2450 4875 
L 2200 4725 
Q 1875 4000 1600 3475 
L 1950 3275 
L 1750 3075 
L 1750 350 
Q 1750 75 1775 -400 
L 1375 -600 
z
M 3450 2125 
L 3450 3925 
Q 3450 4475 3425 5200 
L 4000 4925 
L 3800 4725 
L 3800 2400 
Q 4150 2725 4562 3225 
Q 4975 3725 5150 4025 
L 5600 3600 
L 5325 3525 
Q 4600 2700 3800 2000 
L 3800 425 
Q 3800 0 4225 0 
L 5300 0 
Q 5500 0 5550 325 
Q 5600 650 5600 1325 
L 5725 1325 
Q 5775 650 5850 425 
Q 5925 200 6125 125 
Q 5900 -325 5400 -325 
L 4075 -325 
Q 3450 -325 3450 250 
L 3450 1775 
Q 2800 1275 1950 925 
L 1925 1025 
Q 2800 1525 3450 2125 
z
" transform="scale(0.015625)"/>
       <path id="SimSun-76ee" d="M 1875 1700 
L 1875 325 
L 4550 325 
L 4550 1700 
L 1875 1700 
z
M 1475 -550 
Q 1500 350 1500 2087 
Q 1500 3825 1475 4950 
L 1875 4675 
L 4500 4675 
L 4700 4950 
L 5175 4600 
L 4925 4425 
L 4925 725 
Q 4925 -25 4950 -325 
L 4550 -525 
L 4550 175 
L 1875 175 
L 1875 -325 
L 1475 -550 
z
M 1875 4525 
L 1875 3250 
L 4550 3250 
L 4550 4525 
L 1875 4525 
z
M 1875 3100 
L 1875 1850 
L 4550 1850 
L 4550 3100 
L 1875 3100 
z
" transform="scale(0.015625)"/>
       <path id="SimSun-6807" d="M 4775 2225 
Q 5725 1275 5825 1050 
Q 5925 825 5925 700 
Q 5925 525 5825 375 
Q 5725 225 5700 225 
Q 5575 225 5475 650 
Q 5300 1225 4700 2175 
L 4775 2225 
z
M 2750 4600 
L 4975 4600 
L 5275 4900 
L 5725 4450 
L 3175 4450 
L 2950 4400 
L 2750 4600 
z
M 3100 75 
Q 3775 -50 3900 -25 
Q 4025 0 4025 175 
L 4025 2950 
L 2800 2950 
L 2575 2900 
L 2375 3100 
L 5350 3100 
L 5675 3425 
L 6150 2950 
L 4400 2950 
L 4400 -25 
Q 4375 -425 3850 -600 
Q 3850 -300 3100 -50 
L 3100 75 
z
M 3125 2275 
L 3675 1950 
L 3425 1825 
Q 2800 700 2100 25 
L 2025 100 
Q 2725 1025 3125 2275 
z
M 1675 2725 
Q 1675 25 1700 -475 
L 1300 -625 
Q 1325 450 1325 2325 
Q 950 1450 350 700 
L 275 800 
Q 975 1925 1325 3475 
L 700 3475 
L 475 3425 
L 275 3625 
L 1325 3625 
Q 1325 4575 1300 5275 
L 1900 4975 
L 1675 4800 
L 1675 3625 
L 2000 3625 
L 2275 3900 
L 2700 3475 
L 1675 3475 
L 1675 2850 
Q 2150 2600 2312 2425 
Q 2475 2250 2475 2125 
Q 2475 2050 2400 1912 
Q 2325 1775 2275 1775 
Q 2200 1775 2100 2075 
Q 1925 2475 1675 2725 
z
" transform="scale(0.015625)"/>
       <path id="SimSun-503c" d="M 1525 650 
Q 1525 -225 1550 -525 
L 1175 -650 
Q 1200 250 1200 550 
L 1200 3025 
Q 750 2300 325 1850 
L 250 1900 
Q 725 2625 1100 3525 
Q 1475 4425 1675 5200 
L 2200 4875 
L 1950 4725 
Q 1550 3800 1425 3475 
L 1725 3300 
L 1525 3150 
L 1525 650 
z
M 2875 3225 
L 2875 2475 
L 4800 2475 
L 4800 3225 
L 2875 3225 
z
M 2875 2325 
L 2875 1575 
L 4800 1575 
L 4800 2325 
L 2875 2325 
z
M 2875 1425 
L 2875 675 
L 4800 675 
L 4800 1425 
L 2875 1425 
z
M 2875 525 
L 2875 -225 
L 4800 -225 
L 4800 525 
L 2875 525 
z
M 3550 4250 
Q 3575 4825 3550 5225 
L 4125 4950 
L 3925 4800 
L 3900 4250 
L 5025 4250 
L 5350 4575 
L 5825 4100 
L 3900 4100 
L 3875 3375 
L 4750 3375 
L 4975 3625 
L 5350 3300 
L 5125 3150 
L 5125 -225 
L 5350 -225 
L 5675 100 
L 6150 -375 
L 2450 -375 
Q 2125 -375 1850 -450 
L 1625 -225 
L 2550 -225 
L 2550 2550 
Q 2550 2850 2525 3575 
L 2875 3375 
L 3525 3375 
L 3550 4100 
L 2800 4100 
Q 2475 4100 2200 4025 
L 1975 4250 
L 3550 4250 
z
" transform="scale(0.015625)"/>
      </defs>
      <use xlink:href="#SimSun-4f18"/>
      <use xlink:href="#SimSun-5316" x="100"/>
      <use xlink:href="#SimSun-76ee" x="200"/>
      <use xlink:href="#SimSun-6807" x="300"/>
      <use xlink:href="#SimSun-503c" x="400"/>
     </g>
    </g>
   </g>
   <g id="line2d_10">
    <path d="M 57.675994 17.083636 
L 58.284722 17.083636 
L 58.589085 29.927525 
L 58.893449 29.927525 
L 59.197813 35.730122 
L 59.502176 35.730122 
L 59.80654 41.228736 
L 60.415267 41.228736 
L 60.719631 47.059105 
L 61.023994 50.138233 
L 61.328358 50.138233 
L 61.632722 51.818412 
L 61.937085 56.032514 
L 62.241449 56.420768 
L 62.545813 56.420768 
L 62.850176 57.719088 
L 63.15454 58.295344 
L 63.458903 62.422128 
L 63.763267 62.422128 
L 64.067631 67.542426 
L 65.285085 67.542426 
L 65.589449 67.99298 
L 65.893813 76.140557 
L 66.198176 76.140557 
L 66.50254 79.664437 
L 67.111267 79.664437 
L 67.719994 81.205978 
L 68.024358 80.755878 
L 68.328722 82.21751 
L 68.633085 85.179511 
L 68.937449 85.419492 
L 69.241813 89.350452 
L 69.85054 89.350452 
L 70.154903 91.608174 
L 70.459267 91.875717 
L 70.763631 94.777497 
L 71.067994 94.777497 
L 71.372358 96.483743 
L 71.981085 96.483743 
L 72.285449 98.05525 
L 72.589813 97.335645 
L 72.894176 97.335645 
L 73.502903 101.830505 
L 74.111631 101.830505 
L 74.415994 103.914582 
L 74.720358 103.914582 
L 75.024722 105.281952 
L 75.329085 105.806506 
L 75.633449 110.921754 
L 75.937813 105.994577 
L 76.242176 105.994577 
L 76.54654 109.999264 
L 76.850903 109.999264 
L 77.155267 112.068253 
L 77.459631 115.65167 
L 77.763994 115.65167 
L 78.068358 115.838629 
L 78.372722 117.765643 
L 78.981449 117.765643 
L 79.285813 120.116463 
L 79.590176 123.5298 
L 80.198903 123.5298 
L 80.503267 126.975029 
L 80.807631 126.104467 
L 81.111994 128.455287 
L 81.416358 128.455287 
L 81.720722 130.686095 
L 82.025085 130.686095 
L 82.329449 131.911847 
L 82.633813 132.306215 
L 82.938176 132.306215 
L 83.24254 132.509067 
L 83.546903 132.929178 
L 83.851267 134.379925 
L 84.155631 134.379925 
L 84.459994 135.182385 
L 84.764358 136.358369 
L 85.068722 136.358369 
L 85.373085 136.967593 
L 85.677449 136.358369 
L 85.981813 137.1604 
L 86.59054 137.1604 
L 86.894903 138.257796 
L 87.199267 140.962252 
L 87.807994 140.962252 
L 88.112358 141.328881 
L 88.721085 144.726677 
L 89.025449 144.898295 
L 89.329813 144.898295 
L 89.634176 146.650961 
L 90.547267 146.650961 
L 90.851631 147.162077 
L 91.155994 150.171348 
L 91.460358 147.390736 
L 91.764722 148.556267 
L 92.069085 148.556267 
L 92.373449 149.560504 
L 92.982176 149.612331 
L 93.28654 150.397673 
L 93.590903 150.815003 
L 94.199631 150.815003 
L 94.503994 151.417604 
L 94.808358 151.668645 
L 95.112722 150.082961 
L 95.417085 152.281934 
L 96.025813 152.18541 
L 96.330176 152.782191 
L 96.63454 152.782191 
L 96.938903 154.659304 
L 97.243267 154.659304 
L 97.547631 152.827395 
L 98.156358 154.650975 
L 98.765085 154.720308 
L 99.98254 154.720308 
L 100.286903 156.645783 
L 102.417449 156.645783 
L 102.721812 157.788994 
L 103.634903 157.788994 
L 103.939267 157.935485 
L 105.461085 157.988768 
L 105.765449 158.145176 
L 106.069813 158.145176 
L 106.374176 159.078695 
L 107.591631 159.078695 
L 107.895994 157.935485 
L 108.200358 158.22439 
L 109.722176 158.22439 
L 110.02654 158.512056 
L 110.635267 158.517712 
L 111.243994 158.083326 
L 111.548358 158.083326 
L 111.852722 158.22439 
L 112.157085 158.083326 
L 112.461449 158.22439 
L 115.809449 158.22439 
L 116.113813 158.372231 
L 116.418176 158.372231 
L 116.72254 158.22439 
L 119.461813 158.22439 
L 119.766176 159.945201 
L 120.679267 159.945201 
L 120.983631 160.207478 
L 121.896722 160.207478 
L 122.201085 161.924693 
L 124.027267 161.889661 
L 124.331631 163.772299 
L 124.940358 163.772299 
L 125.244722 163.279155 
L 125.549085 164.057341 
L 125.853449 163.279155 
L 126.157813 163.279155 
L 126.462176 163.772299 
L 126.76654 163.935957 
L 127.070903 164.792564 
L 127.375267 164.223644 
L 127.679631 165.555386 
L 127.983994 168.481139 
L 128.288358 168.481139 
L 128.592722 168.617239 
L 129.505812 168.617239 
L 129.810176 169.866472 
L 130.11454 169.866472 
L 130.418903 170.743278 
L 130.723267 173.581577 
L 138.027994 173.581577 
L 138.332358 173.972136 
L 138.941085 173.972136 
L 139.245449 173.581577 
L 139.549813 174.540246 
L 139.854176 174.540246 
L 140.15854 173.581577 
L 140.462903 173.581577 
L 140.767267 173.80619 
L 141.071631 173.581577 
L 144.419631 173.581577 
L 144.723994 173.799572 
L 145.028358 173.581577 
L 145.332722 175.346483 
L 149.898176 175.438443 
L 150.20254 175.708521 
L 151.724358 175.708521 
L 152.028722 176.023754 
L 152.333085 175.708521 
L 152.637449 175.800481 
L 153.246176 175.708521 
L 153.55054 175.8741 
L 154.463631 175.78977 
L 155.072358 175.708521 
L 155.376722 175.708521 
L 155.681085 179.572116 
L 158.115994 179.572116 
L 158.420358 182.064605 
L 158.724722 180.916705 
L 159.029085 183.129339 
L 162.681449 183.129339 
L 162.985813 183.346512 
L 163.290176 183.129339 
L 167.855631 183.129339 
L 168.159994 183.460953 
L 169.377449 183.460953 
L 169.681813 184.428633 
L 170.594903 184.428633 
L 170.899267 183.460953 
L 173.63854 183.460953 
L 173.942903 184.801565 
L 174.247267 184.801565 
L 174.551631 183.460953 
L 178.203994 183.543027 
L 178.508358 183.79294 
L 179.421449 183.711711 
L 179.725813 183.543027 
L 180.943267 183.543027 
L 181.247631 183.852006 
L 183.378176 183.77676 
L 183.68254 183.543027 
L 185.508722 183.543027 
L 186.421812 186.716805 
L 189.161085 186.627193 
L 189.465449 188.504287 
L 190.37854 188.504287 
L 190.682903 189.064449 
L 192.813449 189.064449 
L 193.117813 188.504287 
L 193.422176 188.853832 
L 195.552722 188.853832 
L 195.857085 189.041071 
L 196.161449 189.041071 
L 196.465813 189.939687 
L 199.205085 190.069774 
L 199.509449 191.671519 
L 200.118176 191.671519 
L 200.42254 190.669467 
L 202.248722 190.586142 
L 202.553085 191.154671 
L 205.901085 191.225802 
L 206.205449 191.889018 
L 211.075267 191.889018 
L 211.379631 194.006658 
L 215.945085 193.921453 
L 216.249449 193.502129 
L 218.379994 193.502129 
L 218.684358 194.006658 
L 219.901813 194.006658 
L 220.206176 194.746676 
L 220.51054 194.746676 
L 220.814903 195.165725 
L 221.119267 196.671042 
L 222.032358 196.697629 
L 222.336722 196.944654 
L 223.85854 196.858227 
L 224.162903 197.116679 
L 225.684722 197.116679 
L 225.989085 200.204814 
L 232.380722 200.204814 
L 232.685085 200.643976 
L 232.989449 200.204814 
L 234.206903 200.204814 
L 234.511267 200.471032 
L 242.120358 200.539482 
L 242.424722 201.285379 
L 242.729085 200.539482 
L 243.033449 200.950376 
L 244.250903 201.015152 
L 244.859631 201.109511 
L 247.903267 201.109511 
L 248.511994 201.222682 
L 257.947267 201.222682 
L 258.251631 201.404694 
L 264.643267 201.404694 
L 264.947631 201.892433 
L 265.251994 201.404694 
L 268.599994 201.424974 
L 268.904358 201.660488 
L 269.208722 201.424974 
L 271.034903 201.404694 
L 275.904722 201.404694 
L 276.209085 201.71893 
L 276.513449 201.404694 
L 279.861449 201.404694 
L 280.165813 201.855144 
L 280.470176 201.855144 
L 280.77454 201.404694 
L 281.383267 201.404694 
L 281.687631 201.71893 
L 282.600722 201.71893 
L 282.905085 201.98372 
L 283.818176 201.98372 
L 284.426903 201.404694 
L 284.731267 201.697155 
L 285.035631 201.404694 
L 285.339994 201.404694 
L 285.644358 201.804075 
L 286.253085 201.71893 
L 287.774903 201.71893 
L 288.079267 201.912492 
L 288.383631 201.71893 
L 289.601085 201.71893 
L 289.905449 201.375099 
L 290.514176 201.375099 
L 290.81854 201.682873 
L 293.557813 201.682873 
L 293.862176 201.892294 
L 295.383994 201.892294 
L 295.688358 202.91314 
L 300.253813 203.01321 
L 300.558176 203.599275 
L 300.86254 203.01321 
L 301.166903 203.087693 
L 301.471267 203.01321 
L 301.775631 206.709747 
L 304.21054 206.78423 
L 304.514903 206.931236 
L 304.819267 206.931236 
L 305.123631 206.78423 
L 305.427994 208.10586 
L 315.471994 208.10586 
L 315.776358 209.666443 
L 316.080722 208.10586 
L 316.993813 208.10586 
L 317.60254 208.218858 
L 318.211267 208.10586 
L 319.124358 208.10586 
L 319.428722 208.338058 
L 319.733085 208.338058 
L 320.037449 208.10586 
L 323.994176 208.10586 
L 324.29854 208.828697 
L 327.950903 208.828697 
L 328.255267 210.386061 
L 328.559631 210.386061 
L 328.863994 208.828697 
L 329.168358 210.542946 
L 330.385813 210.542946 
L 330.690176 210.936955 
L 330.99454 210.542946 
L 334.038176 210.542946 
L 334.34254 211.119831 
L 335.559994 211.119831 
L 335.864358 213.315388 
L 350.473813 213.356611 
L 350.778176 213.557966 
L 351.386903 213.557966 
L 351.691267 214.041197 
L 354.126176 214.041197 
L 354.43054 214.49072 
L 354.734903 214.041197 
L 357.474176 214.041197 
L 357.77854 214.543327 
L 360.517813 214.543327 
L 360.822176 214.756364 
L 361.430903 214.756364 
L 361.735267 214.543327 
L 362.039631 214.543327 
L 362.039631 214.543327 
" clip-path="url(#p6c7f44b8f3)" style="fill: none; stroke: #1f77b4; stroke-width: 1.5; stroke-linecap: square"/>
   </g>
   <g id="patch_3">
    <path d="M 42.457813 224.64 
L 42.457813 7.2 
" style="fill: none; stroke: #000000; stroke-width: 0.8; stroke-linejoin: miter; stroke-linecap: square"/>
   </g>
   <g id="patch_4">
    <path d="M 377.257812 224.64 
L 377.257812 7.2 
" style="fill: none; stroke: #000000; stroke-width: 0.8; stroke-linejoin: miter; stroke-linecap: square"/>
   </g>
   <g id="patch_5">
    <path d="M 42.457813 224.64 
L 377.257813 224.64 
" style="fill: none; stroke: #000000; stroke-width: 0.8; stroke-linejoin: miter; stroke-linecap: square"/>
   </g>
   <g id="patch_6">
    <path d="M 42.457813 7.2 
L 377.257813 7.2 
" style="fill: none; stroke: #000000; stroke-width: 0.8; stroke-linejoin: miter; stroke-linecap: square"/>
   </g>
  </g>
 </g>
 <defs>
  <clipPath id="p6c7f44b8f3">
   <rect x="42.457813" y="7.2" width="334.8" height="217.44"/>
  </clipPath>
 </defs>
</svg>
