<?xml version="1.0" encoding="utf-8" standalone="no"?>
<!DOCTYPE svg PUBLIC "-//W3C//DTD SVG 1.1//EN"
  "http://www.w3.org/Graphics/SVG/1.1/DTD/svg11.dtd">
<svg xmlns:xlink="http://www.w3.org/1999/xlink" width="369.613068pt" height="252.838125pt" viewBox="0 0 369.613068 252.838125" xmlns="http://www.w3.org/2000/svg" version="1.1">
 <metadata>
  <rdf:RDF xmlns:dc="http://purl.org/dc/elements/1.1/" xmlns:cc="http://creativecommons.org/ns#" xmlns:rdf="http://www.w3.org/1999/02/22-rdf-syntax-ns#">
   <cc:Work>
    <dc:type rdf:resource="http://purl.org/dc/dcmitype/StillImage"/>
    <dc:date>2023-04-20T00:28:08.467481</dc:date>
    <dc:format>image/svg+xml</dc:format>
    <dc:creator>
     <cc:Agent>
      <dc:title>Matplotlib v3.6.2, https://matplotlib.org/</dc:title>
     </cc:Agent>
    </dc:creator>
   </cc:Work>
  </rdf:RDF>
 </metadata>
 <defs>
  <style type="text/css">*{stroke-linejoin: round; stroke-linecap: butt}</style>
 </defs>
 <g id="figure_1">
  <g id="patch_1">
   <path d="M -0 252.838125 
L 369.613068 252.838125 
L 369.613068 0 
L -0 0 
z
" style="fill: #ffffff"/>
  </g>
  <g id="axes_1">
   <g id="patch_2">
    <path d="M 26.925 228.96 
L 361.725 228.96 
L 361.725 7.2 
L 26.925 7.2 
z
" style="fill: #ffffff"/>
   </g>
   <g id="matplotlib.axis_1">
    <g id="xtick_1">
     <g id="line2d_1">
      <defs>
       <path id="mfb2a29e684" d="M 0 0 
L 0 3.5 
" style="stroke: #000000; stroke-width: 0.8"/>
      </defs>
      <g>
       <use xlink:href="#mfb2a29e684" x="42.143182" y="228.96" style="stroke: #000000; stroke-width: 0.8"/>
      </g>
     </g>
     <g id="text_1">
      <!-- 0 -->
      <g transform="translate(38.961932 243.558437) scale(0.1 -0.1)">
       <defs>
        <path id="DejaVuSans-30" d="M 2034 4250 
Q 1547 4250 1301 3770 
Q 1056 3291 1056 2328 
Q 1056 1369 1301 889 
Q 1547 409 2034 409 
Q 2525 409 2770 889 
Q 3016 1369 3016 2328 
Q 3016 3291 2770 3770 
Q 2525 4250 2034 4250 
z
M 2034 4750 
Q 2819 4750 3233 4129 
Q 3647 3509 3647 2328 
Q 3647 1150 3233 529 
Q 2819 -91 2034 -91 
Q 1250 -91 836 529 
Q 422 1150 422 2328 
Q 422 3509 836 4129 
Q 1250 4750 2034 4750 
z
" transform="scale(0.015625)"/>
       </defs>
       <use xlink:href="#DejaVuSans-30"/>
      </g>
     </g>
    </g>
    <g id="xtick_2">
     <g id="line2d_2">
      <g>
       <use xlink:href="#mfb2a29e684" x="103.015909" y="228.96" style="stroke: #000000; stroke-width: 0.8"/>
      </g>
     </g>
     <g id="text_2">
      <!-- 2000 -->
      <g transform="translate(90.290909 243.558437) scale(0.1 -0.1)">
       <defs>
        <path id="DejaVuSans-32" d="M 1228 531 
L 3431 531 
L 3431 0 
L 469 0 
L 469 531 
Q 828 903 1448 1529 
Q 2069 2156 2228 2338 
Q 2531 2678 2651 2914 
Q 2772 3150 2772 3378 
Q 2772 3750 2511 3984 
Q 2250 4219 1831 4219 
Q 1534 4219 1204 4116 
Q 875 4013 500 3803 
L 500 4441 
Q 881 4594 1212 4672 
Q 1544 4750 1819 4750 
Q 2544 4750 2975 4387 
Q 3406 4025 3406 3419 
Q 3406 3131 3298 2873 
Q 3191 2616 2906 2266 
Q 2828 2175 2409 1742 
Q 1991 1309 1228 531 
z
" transform="scale(0.015625)"/>
       </defs>
       <use xlink:href="#DejaVuSans-32"/>
       <use xlink:href="#DejaVuSans-30" x="63.623047"/>
       <use xlink:href="#DejaVuSans-30" x="127.246094"/>
       <use xlink:href="#DejaVuSans-30" x="190.869141"/>
      </g>
     </g>
    </g>
    <g id="xtick_3">
     <g id="line2d_3">
      <g>
       <use xlink:href="#mfb2a29e684" x="163.888636" y="228.96" style="stroke: #000000; stroke-width: 0.8"/>
      </g>
     </g>
     <g id="text_3">
      <!-- 4000 -->
      <g transform="translate(151.163636 243.558437) scale(0.1 -0.1)">
       <defs>
        <path id="DejaVuSans-34" d="M 2419 4116 
L 825 1625 
L 2419 1625 
L 2419 4116 
z
M 2253 4666 
L 3047 4666 
L 3047 1625 
L 3713 1625 
L 3713 1100 
L 3047 1100 
L 3047 0 
L 2419 0 
L 2419 1100 
L 313 1100 
L 313 1709 
L 2253 4666 
z
" transform="scale(0.015625)"/>
       </defs>
       <use xlink:href="#DejaVuSans-34"/>
       <use xlink:href="#DejaVuSans-30" x="63.623047"/>
       <use xlink:href="#DejaVuSans-30" x="127.246094"/>
       <use xlink:href="#DejaVuSans-30" x="190.869141"/>
      </g>
     </g>
    </g>
    <g id="xtick_4">
     <g id="line2d_4">
      <g>
       <use xlink:href="#mfb2a29e684" x="224.761364" y="228.96" style="stroke: #000000; stroke-width: 0.8"/>
      </g>
     </g>
     <g id="text_4">
      <!-- 6000 -->
      <g transform="translate(212.036364 243.558437) scale(0.1 -0.1)">
       <defs>
        <path id="DejaVuSans-36" d="M 2113 2584 
Q 1688 2584 1439 2293 
Q 1191 2003 1191 1497 
Q 1191 994 1439 701 
Q 1688 409 2113 409 
Q 2538 409 2786 701 
Q 3034 994 3034 1497 
Q 3034 2003 2786 2293 
Q 2538 2584 2113 2584 
z
M 3366 4563 
L 3366 3988 
Q 3128 4100 2886 4159 
Q 2644 4219 2406 4219 
Q 1781 4219 1451 3797 
Q 1122 3375 1075 2522 
Q 1259 2794 1537 2939 
Q 1816 3084 2150 3084 
Q 2853 3084 3261 2657 
Q 3669 2231 3669 1497 
Q 3669 778 3244 343 
Q 2819 -91 2113 -91 
Q 1303 -91 875 529 
Q 447 1150 447 2328 
Q 447 3434 972 4092 
Q 1497 4750 2381 4750 
Q 2619 4750 2861 4703 
Q 3103 4656 3366 4563 
z
" transform="scale(0.015625)"/>
       </defs>
       <use xlink:href="#DejaVuSans-36"/>
       <use xlink:href="#DejaVuSans-30" x="63.623047"/>
       <use xlink:href="#DejaVuSans-30" x="127.246094"/>
       <use xlink:href="#DejaVuSans-30" x="190.869141"/>
      </g>
     </g>
    </g>
    <g id="xtick_5">
     <g id="line2d_5">
      <g>
       <use xlink:href="#mfb2a29e684" x="285.634091" y="228.96" style="stroke: #000000; stroke-width: 0.8"/>
      </g>
     </g>
     <g id="text_5">
      <!-- 8000 -->
      <g transform="translate(272.909091 243.558437) scale(0.1 -0.1)">
       <defs>
        <path id="DejaVuSans-38" d="M 2034 2216 
Q 1584 2216 1326 1975 
Q 1069 1734 1069 1313 
Q 1069 891 1326 650 
Q 1584 409 2034 409 
Q 2484 409 2743 651 
Q 3003 894 3003 1313 
Q 3003 1734 2745 1975 
Q 2488 2216 2034 2216 
z
M 1403 2484 
Q 997 2584 770 2862 
Q 544 3141 544 3541 
Q 544 4100 942 4425 
Q 1341 4750 2034 4750 
Q 2731 4750 3128 4425 
Q 3525 4100 3525 3541 
Q 3525 3141 3298 2862 
Q 3072 2584 2669 2484 
Q 3125 2378 3379 2068 
Q 3634 1759 3634 1313 
Q 3634 634 3220 271 
Q 2806 -91 2034 -91 
Q 1263 -91 848 271 
Q 434 634 434 1313 
Q 434 1759 690 2068 
Q 947 2378 1403 2484 
z
M 1172 3481 
Q 1172 3119 1398 2916 
Q 1625 2713 2034 2713 
Q 2441 2713 2670 2916 
Q 2900 3119 2900 3481 
Q 2900 3844 2670 4047 
Q 2441 4250 2034 4250 
Q 1625 4250 1398 4047 
Q 1172 3844 1172 3481 
z
" transform="scale(0.015625)"/>
       </defs>
       <use xlink:href="#DejaVuSans-38"/>
       <use xlink:href="#DejaVuSans-30" x="63.623047"/>
       <use xlink:href="#DejaVuSans-30" x="127.246094"/>
       <use xlink:href="#DejaVuSans-30" x="190.869141"/>
      </g>
     </g>
    </g>
    <g id="xtick_6">
     <g id="line2d_6">
      <g>
       <use xlink:href="#mfb2a29e684" x="346.506818" y="228.96" style="stroke: #000000; stroke-width: 0.8"/>
      </g>
     </g>
     <g id="text_6">
      <!-- 10000 -->
      <g transform="translate(330.600568 243.558437) scale(0.1 -0.1)">
       <defs>
        <path id="DejaVuSans-31" d="M 794 531 
L 1825 531 
L 1825 4091 
L 703 3866 
L 703 4441 
L 1819 4666 
L 2450 4666 
L 2450 531 
L 3481 531 
L 3481 0 
L 794 0 
L 794 531 
z
" transform="scale(0.015625)"/>
       </defs>
       <use xlink:href="#DejaVuSans-31"/>
       <use xlink:href="#DejaVuSans-30" x="63.623047"/>
       <use xlink:href="#DejaVuSans-30" x="127.246094"/>
       <use xlink:href="#DejaVuSans-30" x="190.869141"/>
       <use xlink:href="#DejaVuSans-30" x="254.492188"/>
      </g>
     </g>
    </g>
   </g>
   <g id="matplotlib.axis_2">
    <g id="ytick_1">
     <g id="line2d_7">
      <defs>
       <path id="mdca75b82bc" d="M 0 0 
L -3.5 0 
" style="stroke: #000000; stroke-width: 0.8"/>
      </defs>
      <g>
       <use xlink:href="#mdca75b82bc" x="26.925" y="224.183168" style="stroke: #000000; stroke-width: 0.8"/>
      </g>
     </g>
     <g id="text_7">
      <!-- 30 -->
      <g transform="translate(7.2 227.982386) scale(0.1 -0.1)">
       <defs>
        <path id="DejaVuSans-33" d="M 2597 2516 
Q 3050 2419 3304 2112 
Q 3559 1806 3559 1356 
Q 3559 666 3084 287 
Q 2609 -91 1734 -91 
Q 1441 -91 1130 -33 
Q 819 25 488 141 
L 488 750 
Q 750 597 1062 519 
Q 1375 441 1716 441 
Q 2309 441 2620 675 
Q 2931 909 2931 1356 
Q 2931 1769 2642 2001 
Q 2353 2234 1838 2234 
L 1294 2234 
L 1294 2753 
L 1863 2753 
Q 2328 2753 2575 2939 
Q 2822 3125 2822 3475 
Q 2822 3834 2567 4026 
Q 2313 4219 1838 4219 
Q 1578 4219 1281 4162 
Q 984 4106 628 3988 
L 628 4550 
Q 988 4650 1302 4700 
Q 1616 4750 1894 4750 
Q 2613 4750 3031 4423 
Q 3450 4097 3450 3541 
Q 3450 3153 3228 2886 
Q 3006 2619 2597 2516 
z
" transform="scale(0.015625)"/>
       </defs>
       <use xlink:href="#DejaVuSans-33"/>
       <use xlink:href="#DejaVuSans-30" x="63.623047"/>
      </g>
     </g>
    </g>
    <g id="ytick_2">
     <g id="line2d_8">
      <g>
       <use xlink:href="#mdca75b82bc" x="26.925" y="187.919002" style="stroke: #000000; stroke-width: 0.8"/>
      </g>
     </g>
     <g id="text_8">
      <!-- 40 -->
      <g transform="translate(7.2 191.718221) scale(0.1 -0.1)">
       <use xlink:href="#DejaVuSans-34"/>
       <use xlink:href="#DejaVuSans-30" x="63.623047"/>
      </g>
     </g>
    </g>
    <g id="ytick_3">
     <g id="line2d_9">
      <g>
       <use xlink:href="#mdca75b82bc" x="26.925" y="151.654836" style="stroke: #000000; stroke-width: 0.8"/>
      </g>
     </g>
     <g id="text_9">
      <!-- 50 -->
      <g transform="translate(7.2 155.454055) scale(0.1 -0.1)">
       <defs>
        <path id="DejaVuSans-35" d="M 691 4666 
L 3169 4666 
L 3169 4134 
L 1269 4134 
L 1269 2991 
Q 1406 3038 1543 3061 
Q 1681 3084 1819 3084 
Q 2600 3084 3056 2656 
Q 3513 2228 3513 1497 
Q 3513 744 3044 326 
Q 2575 -91 1722 -91 
Q 1428 -91 1123 -41 
Q 819 9 494 109 
L 494 744 
Q 775 591 1075 516 
Q 1375 441 1709 441 
Q 2250 441 2565 725 
Q 2881 1009 2881 1497 
Q 2881 1984 2565 2268 
Q 2250 2553 1709 2553 
Q 1456 2553 1204 2497 
Q 953 2441 691 2322 
L 691 4666 
z
" transform="scale(0.015625)"/>
       </defs>
       <use xlink:href="#DejaVuSans-35"/>
       <use xlink:href="#DejaVuSans-30" x="63.623047"/>
      </g>
     </g>
    </g>
    <g id="ytick_4">
     <g id="line2d_10">
      <g>
       <use xlink:href="#mdca75b82bc" x="26.925" y="115.39067" style="stroke: #000000; stroke-width: 0.8"/>
      </g>
     </g>
     <g id="text_10">
      <!-- 60 -->
      <g transform="translate(7.2 119.189889) scale(0.1 -0.1)">
       <use xlink:href="#DejaVuSans-36"/>
       <use xlink:href="#DejaVuSans-30" x="63.623047"/>
      </g>
     </g>
    </g>
    <g id="ytick_5">
     <g id="line2d_11">
      <g>
       <use xlink:href="#mdca75b82bc" x="26.925" y="79.126505" style="stroke: #000000; stroke-width: 0.8"/>
      </g>
     </g>
     <g id="text_11">
      <!-- 70 -->
      <g transform="translate(7.2 82.925723) scale(0.1 -0.1)">
       <defs>
        <path id="DejaVuSans-37" d="M 525 4666 
L 3525 4666 
L 3525 4397 
L 1831 0 
L 1172 0 
L 2766 4134 
L 525 4134 
L 525 4666 
z
" transform="scale(0.015625)"/>
       </defs>
       <use xlink:href="#DejaVuSans-37"/>
       <use xlink:href="#DejaVuSans-30" x="63.623047"/>
      </g>
     </g>
    </g>
    <g id="ytick_6">
     <g id="line2d_12">
      <g>
       <use xlink:href="#mdca75b82bc" x="26.925" y="42.862339" style="stroke: #000000; stroke-width: 0.8"/>
      </g>
     </g>
     <g id="text_12">
      <!-- 80 -->
      <g transform="translate(7.2 46.661558) scale(0.1 -0.1)">
       <use xlink:href="#DejaVuSans-38"/>
       <use xlink:href="#DejaVuSans-30" x="63.623047"/>
      </g>
     </g>
    </g>
   </g>
   <g id="line2d_13">
    <path d="M 42.143182 19.085153 
L 42.173618 19.085153 
L 42.234491 17.28 
L 42.386673 26.401989 
L 42.447545 26.401989 
L 42.9954 31.614885 
L 43.056273 31.614885 
L 43.238891 32.364291 
L 43.269327 32.174113 
L 43.391073 32.174113 
L 44.182418 35.545375 
L 44.212855 35.313904 
L 44.273727 35.445406 
L 44.486782 36.242393 
L 44.578091 36.242393 
L 44.760709 37.309862 
L 44.791145 36.862765 
L 44.852018 37.129666 
L 45.0042 38.078269 
L 45.034636 37.7825 
L 45.065073 38.577971 
L 45.156382 38.478959 
L 45.217255 38.478959 
L 45.369436 39.24718 
L 45.399873 39.28138 
L 45.582491 39.910537 
L 45.6738 39.816887 
L 45.825982 41.965234 
L 45.886855 41.965234 
L 46.069473 42.321663 
L 46.252091 42.415313 
L 46.282527 42.438005 
L 46.312964 43.103544 
L 46.3434 42.415313 
L 46.404273 42.792095 
L 46.434709 42.792095 
L 46.6782 43.330217 
L 46.769509 43.330217 
L 46.860818 43.687547 
L 46.891255 43.445536 
L 46.921691 43.445536 
L 47.104309 44.498557 
L 47.286927 44.42968 
L 47.317364 43.943763 
L 47.378236 44.412445 
L 47.530418 44.528064 
L 47.591291 44.498557 
L 47.652164 44.742366 
L 47.713036 44.712859 
L 47.743473 44.520293 
L 47.804345 44.639574 
L 47.956527 45.095679 
L 48.0174 44.691515 
L 48.047836 45.14762 
L 48.230455 46.195104 
L 48.382636 46.570959 
L 48.413073 46.438913 
L 48.504382 46.502081 
L 48.656564 47.101348 
L 48.778309 47.381008 
L 48.808745 47.381008 
L 48.930491 47.917602 
L 48.991364 47.836882 
L 49.0218 47.917602 
L 49.265291 47.998435 
L 49.295727 48.049648 
L 49.326164 47.925483 
L 49.387036 47.954989 
L 49.447909 48.091858 
L 49.508782 48.063713 
L 49.660964 48.129385 
L 49.874018 49.309663 
L 49.934891 49.309663 
L 50.056636 50.529126 
L 50.087073 49.924947 
L 50.147945 49.90481 
L 50.178382 50.823551 
L 50.269691 50.529126 
L 50.300127 50.574015 
L 50.391436 51.418895 
L 50.421873 51.181557 
L 50.543618 51.086761 
L 50.6958 51.869951 
L 50.787109 51.869951 
L 50.878418 52.469344 
L 50.908855 51.964747 
L 51.121909 52.071326 
L 51.182782 52.73379 
L 51.243655 52.638994 
L 51.274091 52.745573 
L 51.334964 52.638994 
L 51.395836 52.745573 
L 51.487145 53.433869 
L 51.517582 53.431136 
L 51.578455 53.537756 
L 51.730636 54.29584 
L 51.761073 54.01438 
L 51.821945 54.181883 
L 52.065436 54.729826 
L 52.156745 54.663477 
L 52.3698 55.627012 
L 52.400236 55.617921 
L 52.917655 58.09778 
L 53.130709 58.134664 
L 53.252455 58.302168 
L 53.282891 58.079404 
L 53.343764 58.265576 
L 53.495945 58.283952 
L 53.617691 58.451456 
L 53.648127 58.384237 
L 53.769873 59.001275 
L 53.800309 58.978921 
L 53.830745 58.978921 
L 53.861182 59.573925 
L 53.922055 59.148031 
L 54.074236 59.34674 
L 54.135109 59.180743 
L 54.226418 59.846239 
L 54.348164 59.77414 
L 54.409036 60.212292 
L 54.469909 60.129995 
L 54.500345 59.970093 
L 54.561218 60.159951 
L 54.622091 60.452071 
L 54.652527 60.099023 
L 54.682964 60.287105 
L 54.7134 60.287105 
L 54.835145 61.041026 
L 54.896018 60.699791 
L 55.017764 60.763936 
L 55.200382 61.319967 
L 55.322127 60.943891 
L 55.474309 61.782392 
L 55.504745 61.782392 
L 55.687364 63.916238 
L 55.7178 64.031933 
L 55.748236 63.898991 
L 55.778673 63.898991 
L 55.991727 64.025139 
L 56.0526 64.456179 
L 56.143909 64.400945 
L 56.204782 64.527093 
L 56.356964 65.304168 
L 56.3874 64.891393 
L 56.417836 65.175238 
L 56.539582 66.079384 
L 56.570018 66.079384 
L 56.691764 66.611952 
L 56.783073 67.405335 
L 56.843945 66.640761 
L 56.874382 66.782026 
L 56.965691 67.684385 
L 56.996127 67.260771 
L 57.026564 67.625191 
L 57.057 67.164121 
L 57.087436 67.164121 
L 57.117873 67.167421 
L 57.361364 68.370563 
L 57.3918 68.286588 
L 57.422236 68.459962 
L 57.513545 68.536409 
L 57.665727 69.150867 
L 57.757036 69.066652 
L 58.0614 69.821328 
L 58.213582 70.642139 
L 58.244018 70.62987 
L 58.426636 71.352033 
L 58.457073 71.243663 
L 58.487509 71.082097 
L 58.548382 71.352033 
L 58.578818 71.164409 
L 58.639691 71.061591 
L 58.731 71.582638 
L 58.761436 71.359858 
L 58.852745 71.397042 
L 58.883182 71.312702 
L 58.913618 71.447859 
L 58.944055 71.337621 
L 58.974491 71.657435 
L 59.004927 71.279807 
L 59.035364 71.383204 
L 59.0658 71.391341 
L 59.096236 71.208768 
L 59.126673 71.253562 
L 59.278855 71.785421 
L 59.309291 71.560355 
L 59.370164 71.893968 
L 59.4006 71.772401 
L 59.461473 71.893968 
L 59.613655 72.46656 
L 59.796273 73.23309 
L 59.826709 73.23309 
L 60.009327 73.590447 
L 60.0702 73.693845 
L 60.374564 74.550061 
L 60.405 74.510066 
L 60.496309 74.276352 
L 60.678927 74.801774 
L 60.709364 74.491971 
L 60.770236 74.742991 
L 60.831109 74.633034 
L 60.891982 74.574363 
L 60.952855 75.141042 
L 61.0746 75.014145 
L 61.105036 75.014145 
L 61.226782 76.29414 
L 61.287655 76.29414 
L 61.4094 76.515441 
L 61.561582 76.29414 
L 61.713764 77.306018 
L 61.805073 76.805832 
L 61.835509 76.945991 
L 61.957255 77.15471 
L 62.109436 77.15471 
L 62.231182 77.654896 
L 62.322491 77.50652 
L 62.352927 77.541889 
L 62.505109 78.198821 
L 62.596418 77.926589 
L 62.718164 78.517049 
L 62.7486 78.451011 
L 62.779036 78.57493 
L 62.809473 78.57493 
L 62.961655 78.644707 
L 63.052964 78.725085 
L 63.0834 79.381408 
L 63.144273 78.748304 
L 63.235582 78.776913 
L 63.266018 78.879574 
L 63.296455 78.748304 
L 63.357327 78.67689 
L 63.509509 79.514063 
L 63.570382 79.647016 
L 63.692127 80.150261 
L 63.813873 80.860083 
L 63.874745 80.622178 
L 63.966055 80.567048 
L 64.0878 81.364492 
L 64.118236 80.870991 
L 64.209545 80.983067 
L 64.392164 81.633804 
L 64.483473 81.442274 
L 64.544345 81.427074 
L 64.7574 82.58339 
L 64.909582 82.391203 
L 65.031327 82.407488 
L 65.183509 83.017538 
L 65.213945 82.996321 
L 65.274818 83.030652 
L 65.305255 83.255443 
L 65.396564 83.189687 
L 65.548745 83.305605 
L 65.609618 83.184703 
L 65.640055 83.327212 
L 65.7618 83.481909 
L 65.853109 83.409493 
L 65.883545 83.443687 
L 65.974855 83.434769 
L 66.035727 83.684455 
L 66.0966 83.498106 
L 66.187909 83.526118 
L 66.370527 83.888573 
L 66.553145 84.225096 
L 66.644455 84.171463 
L 66.7662 84.713628 
L 66.827073 84.697536 
L 67.009691 85.465981 
L 67.070564 85.606576 
L 67.253182 86.643648 
L 67.314055 86.616949 
L 67.4358 86.912217 
L 67.557545 86.674459 
L 67.679291 86.988064 
L 67.831473 87.070125 
L 67.983655 87.516581 
L 68.014091 87.289832 
L 68.044527 87.535573 
L 68.074964 87.535573 
L 68.348891 87.973422 
L 68.531509 88.061541 
L 68.653255 88.163014 
L 68.744564 88.250116 
L 68.835873 88.369113 
L 68.866309 88.31254 
L 68.988055 88.131467 
L 69.048927 88.162278 
L 69.079364 88.392861 
L 69.140236 88.193824 
L 69.201109 88.189633 
L 69.231545 88.51702 
L 69.292418 88.189633 
L 69.383727 88.4879 
L 69.4446 88.338374 
L 69.566345 88.190369 
L 69.718527 88.462537 
L 69.962018 88.366276 
L 70.083764 89.417936 
L 70.175073 89.565706 
L 70.205509 89.529803 
L 70.235945 89.529803 
L 70.388127 89.678544 
L 70.449 89.766664 
L 70.479436 89.792207 
L 70.509873 89.678544 
L 70.570745 89.678544 
L 70.601182 90.228446 
L 70.662055 89.767779 
L 70.722927 89.733674 
L 70.844673 90.301755 
L 70.996855 90.464907 
L 71.027291 90.358328 
L 71.088164 90.387434 
L 71.270782 91.093852 
L 71.301218 91.064745 
L 71.483836 91.134753 
L 71.544709 91.134753 
L 71.575145 90.969823 
L 71.605582 91.171324 
L 71.636018 91.171324 
L 71.696891 91.16504 
L 71.818636 91.636589 
L 71.849073 91.636589 
L 71.970818 92.187224 
L 72.031691 92.187224 
L 72.153436 92.541023 
L 72.183873 92.489593 
L 72.214309 92.527879 
L 72.275182 93.0635 
L 72.336055 92.821871 
L 72.396927 92.527879 
L 72.427364 92.79337 
L 72.579545 93.873524 
L 72.640418 93.645677 
L 72.701291 93.785083 
L 72.823036 94.065646 
L 72.975218 93.765666 
L 73.005655 94.013202 
L 73.066527 93.789881 
L 73.1274 93.732599 
L 73.431764 94.70581 
L 73.553509 94.671643 
L 73.583945 94.965984 
L 73.675255 94.913272 
L 73.736127 94.83876 
L 73.827436 95.117702 
L 73.888309 95.120034 
L 74.040491 95.736971 
L 74.1318 95.440391 
L 74.192673 95.383121 
L 74.223109 95.651142 
L 74.283982 95.40636 
L 74.314418 95.40636 
L 74.4666 96.257232 
L 74.588345 96.204652 
L 74.8014 96.771204 
L 74.862273 96.412742 
L 75.044891 98.765741 
L 75.075327 98.645752 
L 75.105764 98.645752 
L 75.197073 98.246018 
L 75.318818 99.240589 
L 75.349255 99.240589 
L 75.440564 98.645752 
L 75.471 98.953187 
L 75.562309 98.748803 
L 75.653618 98.642255 
L 75.775364 99.708518 
L 75.927545 100.282529 
L 75.988418 100.20725 
L 76.049291 100.081757 
L 76.201473 100.568724 
L 76.231909 100.568724 
L 76.384091 100.938685 
L 76.414527 100.938685 
L 76.566709 101.919964 
L 76.597145 101.919964 
L 76.718891 101.719147 
L 76.749327 102.028241 
L 76.840636 101.84464 
L 76.992818 101.97387 
L 77.145 102.213112 
L 77.175436 102.113345 
L 77.236309 102.213112 
L 77.358055 102.156366 
L 77.540673 102.243387 
L 77.601545 102.156366 
L 77.631982 102.540608 
L 77.753727 102.263538 
L 77.875473 102.423358 
L 77.905909 102.384464 
L 77.936345 102.480514 
L 78.210273 102.727821 
L 78.240709 102.604384 
L 78.271145 102.788824 
L 78.362455 102.763116 
L 78.575509 102.763116 
L 78.666818 102.895443 
L 78.697255 102.763116 
L 78.727691 102.964828 
L 78.758127 102.895443 
L 79.275545 102.995394 
L 79.549473 103.29064 
L 79.640782 103.376024 
L 79.762527 103.925236 
L 79.853836 103.86666 
L 79.945145 105.538836 
L 79.975582 105.493057 
L 80.006018 105.794312 
L 80.097327 105.62422 
L 80.279945 105.756162 
L 80.401691 106.057417 
L 80.462564 106.144268 
L 80.675618 106.32853 
L 81.619145 106.40836 
L 81.649582 107.122739 
L 81.710455 106.496736 
L 81.8322 106.120764 
L 81.984382 106.525877 
L 82.075691 106.473058 
L 82.106127 106.369849 
L 82.136564 106.584453 
L 82.227873 106.672828 
L 82.258309 106.445159 
L 82.288745 106.929985 
L 82.380055 106.823985 
L 82.410491 106.251005 
L 82.5018 106.357004 
L 82.593109 106.30958 
L 82.562673 106.412387 
L 82.623545 106.357004 
L 82.775727 106.41558 
L 82.806164 106.965384 
L 82.867036 106.425641 
L 82.988782 106.446846 
L 83.110527 106.695354 
L 83.1714 106.685293 
L 83.232273 106.882026 
L 83.262709 106.685293 
L 83.414891 106.695354 
L 83.567073 107.244275 
L 83.597509 106.978893 
L 83.627945 107.173614 
L 83.749691 107.812511 
L 83.780127 107.724135 
L 83.871436 107.758167 
L 84.114927 107.864377 
L 84.388855 108.412565 
L 84.571473 108.50094 
L 84.693218 108.825694 
L 84.754091 108.773753 
L 84.784527 108.871844 
L 84.875836 108.871844 
L 85.028018 109.09835 
L 85.058455 109.036694 
L 85.088891 109.139501 
L 85.119327 109.139501 
L 85.332382 109.242298 
L 85.454127 109.29424 
L 85.667182 109.242298 
L 85.819364 109.52737 
L 85.8498 109.563815 
L 85.880236 109.314347 
L 85.910673 109.622441 
L 85.941109 109.563815 
L 86.062855 109.563815 
L 86.093291 109.760548 
L 86.154164 109.563815 
L 86.245473 109.563815 
L 86.397655 110.299834 
L 86.428091 109.978318 
L 86.5194 110.101785 
L 86.610709 110.101785 
L 86.702018 110.496567 
L 86.732455 110.426876 
L 86.762891 110.153726 
L 86.823764 110.369989 
L 86.945509 110.298518 
L 86.975945 110.398866 
L 87.097691 110.502515 
L 87.249873 110.826548 
L 87.371618 110.527504 
L 87.432491 110.527504 
L 87.584673 111.222623 
L 87.615109 111.222623 
L 87.767291 111.650349 
L 87.797727 111.586483 
L 87.828164 111.754237 
L 87.8586 111.754237 
L 87.919473 111.870466 
L 87.949909 111.771495 
L 88.071655 111.566207 
L 88.132527 111.561622 
L 88.162964 111.771495 
L 88.254273 111.648027 
L 88.345582 111.449978 
L 88.315145 111.771495 
L 88.376018 111.578336 
L 88.436891 111.439654 
L 88.467327 111.566207 
L 88.5282 111.537187 
L 88.649945 111.322483 
L 88.741255 111.296669 
L 88.832564 111.823503 
L 88.863 111.776053 
L 89.015182 111.776053 
L 89.045618 111.604676 
L 89.076055 111.87198 
L 89.106491 111.811955 
L 89.228236 112.123805 
L 89.289109 111.895128 
L 89.349982 111.906718 
L 89.471727 111.985651 
L 89.502164 111.678928 
L 89.563036 112.035982 
L 89.593473 112.035982 
L 89.623909 112.197206 
L 89.654345 111.898209 
L 89.684782 111.746234 
L 89.715218 112.113549 
L 89.745655 112.104269 
L 89.8674 112.435065 
L 90.050018 112.517882 
L 90.2022 112.686031 
L 90.232636 112.686031 
L 90.476127 113.861838 
L 90.537 113.73762 
L 90.597873 113.73762 
L 90.810927 114.141254 
L 90.8718 113.906901 
L 90.963109 115.344492 
L 90.993545 115.343632 
L 91.054418 115.202542 
L 91.084855 115.321944 
L 91.2066 115.400993 
L 91.237036 115.219975 
L 91.267473 115.550692 
L 91.297909 115.426474 
L 91.328345 115.550692 
L 91.358782 115.340062 
L 91.389218 115.520663 
L 91.419655 115.340062 
L 91.510964 115.397423 
L 91.571836 115.590918 
L 91.632709 115.411533 
L 91.693582 115.942811 
L 91.784891 115.446211 
L 91.815327 115.498772 
L 91.906636 115.477835 
L 92.028382 115.921089 
L 92.150127 115.57472 
L 92.180564 115.772577 
L 92.271873 115.678747 
L 92.302309 115.807255 
L 92.363182 115.678747 
L 92.393618 115.644068 
L 92.5458 116.359116 
L 92.971909 116.455233 
L 93.093655 116.861986 
L 93.337145 117.213976 
L 93.367582 117.098734 
L 93.398018 117.303687 
L 93.458891 117.410998 
L 93.489327 117.514687 
L 93.519764 117.252178 
L 93.5502 117.091227 
L 93.580636 117.136936 
L 93.611073 117.604169 
L 93.702382 117.43874 
L 93.885 118.101645 
L 93.976309 117.732494 
L 94.006745 117.934168 
L 94.128491 117.768896 
L 94.311109 118.143521 
L 94.432855 117.662045 
L 94.524164 118.106755 
L 94.5546 118.074344 
L 94.615473 118.003895 
L 94.798091 118.923715 
L 94.828527 118.878921 
L 94.8894 118.904534 
L 94.919836 119.042435 
L 94.950273 118.878921 
L 94.980709 118.878921 
L 95.132891 118.935907 
L 95.376382 119.634955 
L 95.437255 119.218579 
L 95.498127 119.255686 
L 95.589436 119.575766 
L 95.619873 119.501309 
L 95.741618 119.204177 
L 95.772055 119.204177 
L 95.863364 119.322808 
L 95.8938 119.302034 
L 96.015545 119.090382 
L 96.076418 119.271299 
L 96.167727 119.442615 
L 96.198164 119.271299 
L 96.259036 119.474454 
L 96.441655 119.475026 
L 96.776455 120.68283 
L 96.837327 120.662019 
L 96.867764 120.729179 
L 96.8982 120.842973 
L 96.928636 120.828221 
L 97.050382 120.569036 
L 97.263436 120.915057 
L 97.324309 120.82532 
L 97.5678 120.832037 
L 97.689545 120.942946 
L 97.780855 120.793521 
L 97.811291 121.039712 
L 97.9026 120.92502 
L 97.933036 120.92502 
L 97.963473 120.793521 
L 97.993909 121.039712 
L 98.024345 120.900832 
L 98.206964 120.970349 
L 98.2374 121.279394 
L 98.267836 120.793521 
L 98.328709 121.191575 
L 98.480891 120.970349 
L 98.511327 121.108894 
L 98.602636 121.108894 
L 98.846127 121.960001 
L 98.937436 121.972995 
L 98.967873 122.23218 
L 99.028745 121.905172 
L 99.059182 121.905172 
L 99.089618 122.246807 
L 99.180927 122.052442 
L 99.485291 122.065978 
L 99.667909 122.429246 
L 99.941836 122.515172 
L 100.063582 122.582441 
L 100.276636 122.674882 
L 100.489691 122.991624 
L 100.520127 122.844473 
L 100.581 123.004563 
L 100.611436 123.004563 
L 100.641873 123.338202 
L 100.672309 122.893416 
L 100.702745 122.937456 
L 100.824491 123.047938 
L 100.854927 123.049947 
L 100.885364 123.224262 
L 100.946236 123.047938 
L 101.128855 122.980115 
L 101.281036 123.625917 
L 101.433218 123.625917 
L 101.5854 123.922725 
L 101.646273 123.922725 
L 101.981073 125.169725 
L 102.072382 125.233027 
L 102.285436 125.333973 
L 102.376745 126.311599 
L 102.407182 126.308483 
L 102.620236 126.382693 
L 102.772418 127.607114 
L 102.833291 127.223266 
L 102.894164 127.307366 
L 102.955036 127.335982 
L 103.107218 127.655785 
L 103.198527 127.687263 
L 103.228964 127.543069 
L 103.289836 127.712367 
L 103.350709 127.587962 
L 103.381145 127.701568 
L 103.442018 127.760834 
L 103.502891 127.619928 
L 103.624636 127.913358 
L 103.655073 127.913358 
L 103.776818 128.519629 
L 103.868127 128.519629 
L 103.989873 128.690976 
L 104.111618 128.512227 
L 104.233364 128.56117 
L 104.385545 129.273997 
L 104.507291 129.390622 
L 104.689909 129.45134 
L 104.720345 129.503338 
L 104.811655 130.374078 
L 104.842091 130.19816 
L 105.085582 130.478936 
L 105.329073 130.541754 
L 105.359509 130.61358 
L 105.420382 130.559681 
L 105.542127 130.467463 
L 105.755182 130.558757 
L 105.907364 130.632003 
L 105.998673 130.699225 
L 106.029109 130.872078 
L 106.059545 130.632003 
L 106.120418 130.791857 
L 106.242164 130.704106 
L 106.394345 131.615091 
L 106.424782 131.72787 
L 106.485655 131.284419 
L 106.546527 131.431655 
L 106.576964 131.353297 
L 106.6074 132.311673 
L 106.668273 131.683969 
L 106.729145 131.782082 
L 106.759582 131.473334 
L 106.850891 131.553011 
L 106.972636 131.61373 
L 107.033509 131.886848 
L 107.063945 131.497105 
L 107.124818 131.61373 
L 107.337873 132.678126 
L 107.398745 132.678126 
L 107.6118 133.431375 
L 107.763982 133.524687 
L 107.824855 133.611846 
L 107.916164 133.242706 
L 107.977036 133.778168 
L 108.037909 133.625087 
L 108.068345 133.92427 
L 108.129218 133.625087 
L 108.159655 133.625087 
L 108.190091 134.039586 
L 108.2814 133.951032 
L 108.311836 134.039586 
L 108.342273 133.907823 
L 108.372709 133.907823 
L 108.403145 133.907823 
L 108.494455 133.850271 
L 108.585764 134.220358 
L 108.707509 133.956548 
L 108.768382 133.893763 
L 108.798818 133.956548 
L 109.042309 135.59083 
L 109.103182 135.44964 
L 109.164055 134.956452 
L 109.224927 135.008809 
L 109.2858 135.008809 
L 109.316236 134.645569 
L 109.377109 135.712619 
L 109.437982 135.60284 
L 109.468418 135.60284 
L 109.590164 136.182608 
L 109.711909 136.182608 
L 109.742345 136.416652 
L 109.833655 136.276118 
L 109.9554 136.342909 
L 109.985836 136.390153 
L 110.046709 136.315083 
L 110.168455 136.235912 
L 110.259764 136.554818 
L 110.2902 136.413997 
L 110.381509 136.413997 
L 110.533691 137.393666 
L 110.564127 136.887901 
L 110.594564 137.548965 
L 110.625 137.283085 
L 110.655436 137.679694 
L 110.746745 137.533736 
L 110.990236 137.438816 
L 111.172855 138.072816 
L 111.233727 137.927967 
L 111.325036 138.260937 
L 111.355473 138.173407 
L 111.446782 138.164082 
L 111.507655 138.037174 
L 111.538091 138.38514 
L 111.6294 138.206119 
L 111.659836 138.206119 
L 111.690273 138.423751 
L 111.781582 138.353355 
L 111.842455 138.353355 
L 111.872891 138.206119 
L 111.903327 138.320222 
L 112.085945 139.458066 
L 112.116382 139.384323 
L 112.146818 139.384323 
L 112.177255 139.264382 
L 112.207691 139.497102 
L 112.238127 139.403476 
L 112.420745 139.778552 
L 112.481618 139.540622 
L 112.542491 139.614064 
L 112.664236 139.703269 
L 112.755545 140.211894 
L 112.785982 139.865709 
L 112.816418 139.865709 
L 112.907727 140.352624 
L 112.938164 140.091206 
L 112.9686 140.091206 
L 113.090345 140.371938 
L 113.120782 140.281829 
L 113.181655 140.868775 
L 113.242527 140.829956 
L 113.333836 140.909135 
L 113.455582 141.599375 
L 113.546891 141.664106 
L 113.699073 142.00908 
L 113.759945 141.808483 
L 113.790382 141.983218 
L 113.973 142.153779 
L 114.003436 142.040998 
L 114.064309 142.166119 
L 114.3078 142.46012 
L 114.399109 142.321504 
L 114.429545 142.345476 
L 114.459982 142.638763 
L 114.520855 142.413464 
L 114.581727 142.482342 
L 114.6426 142.266374 
L 114.764345 142.404668 
L 114.855655 142.266374 
L 114.886091 142.321504 
L 115.038273 142.518945 
L 115.068709 142.335252 
L 115.129582 142.508723 
L 115.190455 142.508723 
L 115.342636 142.342585 
L 115.373073 142.342585 
L 115.433945 142.46012 
L 115.494818 142.390382 
L 115.738309 142.390382 
L 115.860055 142.825087 
L 115.890491 142.6518 
L 116.012236 142.418137 
L 116.133982 142.85174 
L 116.164418 142.583735 
L 116.255727 142.753132 
L 116.377473 143.026652 
L 116.407909 142.67783 
L 116.468782 143.086882 
L 116.529655 143.086882 
L 116.620964 143.428817 
L 116.681836 143.335263 
L 116.712273 143.335263 
L 116.742709 142.966941 
L 116.834018 143.071907 
L 116.864455 143.196701 
L 116.925327 143.064388 
L 116.955764 143.049116 
L 117.107945 143.225198 
L 117.260127 143.182335 
L 117.594927 143.164665 
L 117.716673 143.93609 
L 117.747109 143.908336 
L 117.868855 144.123925 
L 117.960164 144.066764 
L 118.081909 144.688337 
L 118.203655 144.720755 
L 118.447145 145.392197 
L 118.477582 145.392197 
L 118.538455 144.915374 
L 118.599327 144.963685 
L 118.6602 144.821695 
L 118.690636 145.004792 
L 118.812382 145.253173 
L 118.842818 145.22843 
L 118.964564 145.449113 
L 118.995 145.449113 
L 119.147182 145.742886 
L 119.177618 145.84884 
L 119.208055 145.56526 
L 119.360236 145.810309 
L 119.481982 145.723759 
L 119.634164 146.335946 
L 119.695036 146.335946 
L 119.786345 146.183304 
L 119.816782 146.233499 
L 119.847218 146.233499 
L 119.938527 146.61419 
L 119.968964 146.452547 
L 120.029836 146.567102 
L 120.060273 146.641352 
L 120.121145 146.563187 
L 120.212455 146.563187 
L 120.364636 147.010935 
L 120.516818 147.16099 
L 120.729873 147.205061 
L 120.790745 147.758793 
L 120.851618 147.431775 
L 121.064673 147.474638 
L 121.155982 147.665835 
L 121.186418 147.60036 
L 121.277727 147.665835 
L 121.308164 147.712084 
L 121.3386 147.563387 
L 121.369036 147.563387 
L 121.429909 147.802428 
L 121.460345 147.673336 
L 121.521218 147.497912 
L 121.6734 147.911708 
L 121.734273 147.932318 
L 121.764709 147.74467 
L 121.886455 148.043072 
L 121.947327 147.969076 
L 121.977764 148.083577 
L 122.038636 148.175835 
L 122.099509 148.979746 
L 122.160382 148.527499 
L 122.312564 149.101919 
L 122.373436 148.894927 
L 122.403873 149.233284 
L 122.434309 148.963998 
L 122.464745 148.963998 
L 122.6778 150.022253 
L 122.738673 150.022253 
L 122.829982 150.421811 
L 122.860418 150.371123 
L 122.890855 150.370108 
L 123.103909 151.01069 
L 123.225655 150.850119 
L 123.256091 150.900313 
L 123.316964 151.092637 
L 123.3474 150.850119 
L 123.408273 150.977449 
L 123.469145 151.123776 
L 123.530018 151.036095 
L 123.590891 150.765301 
L 123.621327 151.002747 
L 123.6822 150.944115 
L 123.773509 151.311746 
L 123.895255 151.122415 
L 123.925691 151.155984 
L 124.199618 151.390887 
L 124.230055 151.219102 
L 124.382236 151.827803 
L 124.473545 151.657633 
L 124.595291 151.847399 
L 124.777909 151.733306 
L 124.899655 151.964409 
L 124.990964 152.019367 
L 125.0214 151.838687 
L 125.112709 152.027748 
L 125.173582 151.879591 
L 125.264891 151.879591 
L 125.295327 152.126052 
L 125.386636 152.041234 
L 125.447509 152.041234 
L 125.477945 152.168891 
L 125.538818 152.041234 
L 125.630127 152.041234 
L 125.691 152.50593 
L 125.751873 152.275576 
L 125.843182 152.183239 
L 125.873618 152.254413 
L 125.964927 152.254413 
L 126.117109 152.477691 
L 126.238855 152.550343 
L 126.299727 152.442682 
L 126.330164 152.558545 
L 126.543218 152.609233 
L 126.725836 153.027942 
L 126.847582 154.101507 
L 126.908455 154.585598 
L 126.999764 154.483729 
L 127.091073 154.570944 
L 127.638927 155.562908 
L 127.851982 155.608914 
L 128.004164 155.935123 
L 128.065036 155.974861 
L 128.217218 157.618337 
L 128.308527 157.568353 
L 128.338964 157.692272 
L 128.430273 157.651432 
L 128.521582 157.726229 
L 128.552018 157.800478 
L 128.582455 157.589134 
L 128.612891 157.511262 
L 128.643327 157.598656 
L 128.795509 158.423265 
L 128.825945 158.423265 
L 128.886818 158.547568 
L 128.917255 158.413609 
L 128.978127 158.360481 
L 129.008564 158.444066 
L 129.039 158.787765 
L 129.099873 158.486964 
L 129.191182 158.488663 
L 129.252055 158.629801 
L 129.312927 158.270683 
L 129.678164 158.680822 
L 129.739036 158.445383 
L 129.799909 158.550415 
L 129.830345 158.554469 
L 129.860782 158.336812 
L 129.921655 158.357753 
L 130.073836 158.723115 
L 130.165145 158.723115 
L 130.317327 158.451642 
L 130.408636 158.866085 
L 130.499945 158.823043 
L 130.530382 158.929756 
L 130.591255 158.839844 
L 130.682564 158.683005 
L 130.804309 158.961521 
L 130.956491 158.969783 
L 131.0478 158.644324 
L 131.078236 158.870372 
L 131.260855 158.792481 
L 131.321727 158.851437 
L 131.565218 159.373407 
L 131.595655 159.284121 
L 131.656527 159.416731 
L 131.747836 159.503947 
L 131.869582 159.226852 
L 131.930455 159.226852 
L 131.991327 159.612566 
L 132.021764 159.512249 
L 132.143509 159.271019 
L 132.265255 159.381349 
L 132.447873 159.779921 
L 132.539182 159.819499 
L 132.600055 159.512068 
L 132.660927 159.512068 
L 132.752236 159.772456 
L 132.782673 159.604264 
L 132.873982 159.611053 
L 132.904418 159.759524 
L 132.934855 159.564495 
L 132.995727 159.684532 
L 133.0566 159.684532 
L 133.117473 159.912226 
L 133.178345 159.771893 
L 133.513145 159.87098 
L 133.695764 160.248983 
L 133.817509 160.326133 
L 133.939255 160.510401 
L 134.000127 160.46488 
L 134.030564 160.46488 
L 134.061 160.292031 
L 134.091436 160.31724 
L 134.213182 160.726299 
L 134.334927 160.571017 
L 134.365364 160.839526 
L 134.426236 160.648167 
L 134.517545 160.629353 
L 134.547982 160.52813 
L 134.578418 160.76062 
L 134.608855 160.76062 
L 134.639291 160.565276 
L 134.700164 160.786915 
L 134.761036 160.786915 
L 134.882782 161.029607 
L 135.0654 160.781174 
L 135.095836 160.864065 
L 135.156709 161.059705 
L 135.217582 160.975496 
L 135.248018 161.013132 
L 135.278455 161.330476 
L 135.308891 160.965774 
L 135.369764 161.208466 
L 135.4002 161.042924 
L 135.461073 161.092327 
L 135.643691 161.439572 
L 135.704564 161.439572 
L 135.826309 161.941364 
L 135.856745 161.439572 
L 135.948055 161.50368 
L 136.008927 161.777232 
L 136.0698 161.767619 
L 136.161109 161.844769 
L 136.282855 162.105767 
L 136.4046 162.105767 
L 136.587218 162.526099 
L 136.648091 162.476757 
L 136.769836 162.768948 
L 136.800273 162.622609 
L 136.861145 162.719605 
L 137.317691 163.136257 
L 137.409 163.737664 
L 137.439436 163.475744 
L 137.469873 163.421611 
L 137.591618 163.716733 
L 137.835109 163.821019 
L 138.169909 164.002715 
L 138.230782 163.895489 
L 138.261218 164.069049 
L 138.352527 164.05693 
L 138.382964 163.841356 
L 138.443836 164.022581 
L 138.596018 164.135212 
L 138.7482 164.025391 
L 138.869945 164.166676 
L 138.900382 164.079954 
L 138.930818 164.256763 
L 138.991691 164.13989 
L 139.022127 164.079954 
L 139.083 164.163868 
L 139.204745 164.383565 
L 139.509109 164.383565 
L 139.600418 164.611259 
L 139.722164 164.383565 
L 139.813473 164.779366 
L 139.843909 164.678687 
L 139.874345 164.540125 
L 139.935218 164.71253 
L 140.056964 164.79141 
L 140.0874 164.87643 
L 140.148273 164.79141 
L 140.178709 164.708688 
L 140.239582 164.78541 
L 140.513509 164.886803 
L 140.604818 165.857433 
L 140.635255 165.741228 
L 140.726564 166.018873 
L 140.787436 165.968922 
L 141.000491 165.941373 
L 141.061364 166.19735 
L 141.0918 165.941373 
L 141.122236 165.941373 
L 141.183109 166.008801 
L 141.243982 165.79062 
L 141.274418 165.79062 
L 141.4266 166.126676 
L 141.578782 166.16275 
L 141.670091 166.348053 
L 141.700527 166.32715 
L 142.035327 166.65175 
L 142.065764 166.563427 
L 142.157073 166.441091 
L 142.187509 166.521913 
L 142.248382 166.494033 
L 142.309255 166.702483 
L 142.339691 166.521913 
L 142.431 166.521913 
L 142.552745 166.640866 
L 142.644055 166.710197 
L 142.674491 166.976691 
L 142.704927 166.554607 
L 142.735364 166.508049 
L 142.7658 166.733789 
L 142.826673 166.604558 
L 142.857109 166.554607 
L 142.887545 166.843648 
L 142.948418 166.710197 
L 142.978855 166.643738 
L 143.039727 166.760149 
L 143.313655 167.495303 
L 143.374527 167.355183 
L 143.4354 167.427267 
L 143.861509 167.355183 
L 143.983255 167.539927 
L 144.165873 167.539927 
L 144.257182 167.389174 
L 144.287618 167.421343 
L 144.318055 167.529294 
L 144.348491 167.389174 
L 144.378927 167.389174 
L 144.409364 167.389174 
L 144.531109 167.262786 
L 144.561545 167.262786 
L 144.713727 168.053443 
L 144.744164 167.41354 
L 144.805036 167.927056 
L 144.987655 168.248384 
L 145.078964 167.949189 
L 145.231145 168.553809 
L 145.352891 168.414726 
L 145.474636 168.548176 
L 145.505073 168.397423 
L 145.535509 168.687259 
L 145.596382 168.687259 
L 145.626818 168.869504 
L 145.687691 168.694315 
L 145.839873 168.783446 
L 145.931182 169.152998 
L 145.992055 168.694315 
L 146.022491 169.015643 
L 146.1138 169.015643 
L 146.235545 169.137963 
L 146.326855 168.86489 
L 146.357291 169.005805 
L 146.387727 169.065595 
L 146.418164 169.005805 
L 146.539909 168.86489 
L 146.813836 168.966506 
L 146.905145 169.076201 
L 146.935582 169.032972 
L 146.966018 169.032972 
L 147.087764 169.181295 
L 147.179073 169.181295 
L 147.331255 169.426452 
L 147.422564 169.426452 
L 147.483436 169.635024 
L 147.544309 169.283784 
L 147.666055 169.6947 
L 147.696491 169.410259 
L 147.757364 169.548927 
L 148.031291 170.182674 
L 148.061727 170.182674 
L 148.1226 169.833783 
L 148.183473 169.931899 
L 148.213909 169.947769 
L 148.305218 170.182674 
L 148.366091 169.932367 
L 148.487836 170.471177 
L 148.609582 170.471177 
L 148.883509 171.460079 
L 148.974818 171.321411 
L 149.005255 171.391697 
L 149.066127 171.487399 
L 149.127 171.443731 
L 149.218309 171.445629 
L 149.309618 171.536581 
L 149.340055 171.445629 
L 149.370491 171.581819 
L 149.400927 171.581819 
L 149.431364 171.581819 
L 149.4618 171.706037 
L 149.522673 171.567949 
L 149.979218 171.648746 
L 150.314018 171.927351 
L 150.344455 171.790058 
L 150.405327 171.879101 
L 150.527073 172.185435 
L 150.587945 172.11419 
L 150.648818 172.11419 
L 150.801 172.339046 
L 150.983618 172.211044 
L 151.014055 172.239725 
L 151.166236 172.468775 
L 151.440164 172.427904 
L 151.531473 172.634763 
L 151.561909 172.411677 
L 151.592345 172.768551 
L 151.622782 172.768551 
L 151.744527 172.695736 
L 151.866273 173.007009 
L 152.018455 172.954922 
L 152.1402 173.318068 
L 152.322818 173.409029 
L 153.1446 173.433552 
L 153.205473 173.569895 
L 153.235909 173.480853 
L 153.327218 173.452172 
L 153.540273 174.033906 
L 153.570709 173.885215 
L 153.601145 174.104681 
L 153.631582 174.104681 
L 153.722891 174.019077 
L 153.844636 174.601579 
L 154.8186 174.644896 
L 154.879473 174.846631 
L 154.909909 174.587797 
L 154.940345 174.807838 
L 155.092527 174.587972 
L 155.244709 174.802332 
L 155.853436 174.848747 
L 155.914309 174.956058 
L 155.944745 174.885703 
L 156.036055 174.802332 
L 156.066491 174.881577 
L 156.096927 175.048656 
L 156.127364 174.856668 
L 156.1578 174.856668 
L 156.249109 174.887047 
L 156.279545 175.07463 
L 156.370855 175.051574 
L 156.736091 174.941562 
L 156.766527 174.694561 
L 156.8274 175.102942 
L 156.949145 175.102942 
L 157.010018 174.841779 
L 157.101327 174.886277 
L 157.223073 175.129411 
L 157.253509 175.062848 
L 157.283945 174.799594 
L 157.344818 175.024945 
L 157.588309 175.123028 
L 157.618745 174.805682 
L 157.679618 174.941857 
L 157.740491 175.146599 
L 157.801364 175.037003 
L 157.8318 175.116303 
L 157.862236 175.025227 
L 157.892673 174.851457 
L 157.923109 175.541631 
L 157.983982 175.088621 
L 158.318782 175.191678 
L 158.440527 175.236478 
L 158.470964 175.191678 
L 158.744891 175.258112 
L 158.8362 175.362578 
L 158.866636 175.168451 
L 158.897073 175.401016 
L 158.957945 175.277637 
L 159.018818 175.308017 
L 159.049255 175.108951 
L 159.079691 175.701667 
L 159.140564 175.108951 
L 159.323182 175.385932 
L 159.353618 175.237475 
L 159.444927 175.286339 
L 159.627545 175.365675 
L 159.779727 175.418718 
L 159.8406 175.362524 
L 159.871036 175.382241 
L 159.901473 175.614414 
L 159.962345 175.472637 
L 160.053655 175.390492 
L 160.084091 175.556773 
L 160.114527 175.328245 
L 160.144964 175.328245 
L 160.388455 175.373038 
L 160.449327 175.735722 
L 160.5102 175.690929 
L 160.662382 175.558271 
L 160.753691 175.831459 
L 160.784127 175.653818 
L 160.905873 175.952317 
L 160.997182 175.603396 
L 161.088491 176.003435 
L 161.149364 175.657731 
L 161.1798 176.241587 
L 161.240673 175.617683 
L 161.392855 175.814393 
L 161.453727 175.606374 
L 161.484164 175.663337 
L 161.605909 176.124533 
L 161.636345 176.124533 
L 161.727655 176.305424 
L 161.758091 176.26324 
L 161.788527 176.26324 
L 161.818964 176.777882 
L 161.8494 176.165617 
L 161.879836 176.165617 
L 161.971145 176.419925 
L 162.092891 176.172766 
L 162.275509 176.172766 
L 162.336382 176.589373 
L 162.397255 176.52155 
L 162.671182 176.580613 
L 162.732055 176.894071 
L 162.762491 176.670723 
L 162.823364 176.463759 
L 162.914673 176.522195 
L 162.945109 176.703707 
L 163.005982 176.629477 
L 163.097291 176.488425 
L 163.219036 177.034077 
L 163.249473 177.034077 
L 163.279909 176.922668 
L 163.340782 176.989579 
L 163.462527 177.653367 
L 163.5234 177.673084 
L 163.584273 177.825148 
L 163.645145 177.804062 
L 164.071255 177.804062 
L 164.101691 177.644045 
L 164.193 177.753915 
L 164.223436 177.753915 
L 164.345182 178.318993 
L 164.375618 178.181931 
L 164.466927 178.278393 
L 164.619109 178.373655 
L 164.679982 178.237575 
L 164.710418 178.367809 
L 164.8626 178.616078 
L 164.984345 178.474716 
L 165.014782 178.493494 
L 165.349582 178.9186 
L 165.380018 178.822045 
L 165.410455 178.822045 
L 165.471327 179.100009 
L 165.5322 178.968747 
L 165.623509 178.967377 
L 165.775691 179.154587 
L 165.927873 179.3153 
L 166.049618 179.22031 
L 166.140927 179.180262 
L 166.232236 179.619479 
L 166.262673 179.603079 
L 166.323545 179.736079 
L 166.353982 179.472367 
L 166.414855 179.567071 
L 166.445291 179.72861 
L 166.5366 179.687758 
L 166.567036 179.579431 
L 166.627909 179.619479 
L 166.658345 179.736079 
L 166.688782 179.567071 
L 166.719218 179.567071 
L 166.780091 179.567071 
L 166.810527 179.742575 
L 166.840964 179.470516 
L 166.8714 179.551656 
L 166.901836 179.551656 
L 166.932273 179.741766 
L 167.023582 179.682264 
L 167.084455 179.579431 
L 167.236636 179.546477 
L 167.297509 179.742575 
L 167.358382 179.663077 
L 167.510564 179.567071 
L 167.693182 179.421984 
L 167.723618 179.686233 
L 167.814927 179.627441 
L 167.936673 179.749729 
L 168.241036 179.74527 
L 168.271473 179.929428 
L 168.362782 179.835796 
L 168.423655 179.91676 
L 168.454091 179.654335 
L 168.5454 179.820298 
L 168.697582 179.668764 
L 168.758455 179.778191 
L 168.819327 179.879567 
L 168.849764 179.811744 
L 169.001945 179.778191 
L 169.062818 179.778191 
L 169.093255 179.894791 
L 169.154127 179.827177 
L 169.184564 179.71128 
L 169.215 179.888078 
L 169.245436 179.894791 
L 169.367182 179.955528 
L 169.458491 179.912043 
L 169.519364 179.955966 
L 169.641109 179.785271 
L 169.671545 179.970894 
L 169.732418 179.77491 
L 169.854164 179.856397 
L 169.8846 179.507486 
L 169.945473 179.881297 
L 169.975909 180.058635 
L 170.067218 179.934144 
L 170.097655 179.842487 
L 170.128091 179.934144 
L 170.158527 180.129537 
L 170.188964 179.842487 
L 170.2194 179.842487 
L 170.523764 180.366259 
L 170.645509 180.329604 
L 170.736818 180.758625 
L 170.797691 180.691747 
L 170.949873 180.94448 
L 171.071618 180.709417 
L 171.254236 180.638847 
L 171.315109 180.536041 
L 171.345545 180.650269 
L 171.436855 180.650269 
L 171.467291 180.500598 
L 171.497727 180.554832 
L 171.528164 180.771677 
L 171.619473 180.623694 
L 171.862964 181.278379 
L 171.954273 181.214699 
L 172.258636 181.160644 
L 172.349945 181.404015 
L 172.380382 181.321568 
L 172.532564 181.738164 
L 172.623873 181.376981 
L 172.654309 181.462275 
L 172.715182 181.498244 
L 172.776055 181.586752 
L 172.867364 181.291745 
L 172.8978 181.358656 
L 173.110855 181.288335 
L 173.141291 181.221424 
L 173.202164 181.704528 
L 173.263036 181.40611 
L 173.323909 181.352055 
L 173.354345 181.933592 
L 173.445655 181.925669 
L 173.476091 181.925669 
L 173.536964 182.155557 
L 173.597836 182.088646 
L 173.689145 181.867052 
L 173.719582 181.976551 
L 173.9022 182.025474 
L 173.963073 181.839496 
L 174.023945 181.90312 
L 174.176127 181.985936 
L 174.328309 181.985936 
L 174.450055 182.167847 
L 174.632673 182.102166 
L 174.754418 182.305556 
L 174.876164 182.218275 
L 174.997909 182.320621 
L 175.119655 182.411385 
L 175.180527 182.411385 
L 175.210964 182.614776 
L 175.271836 182.479374 
L 175.393582 182.377123 
L 175.484891 182.47993 
L 175.606636 182.738306 
L 175.637073 182.68425 
L 175.667509 182.798029 
L 175.697945 182.781484 
L 176.154491 182.916653 
L 176.184927 182.87379 
L 176.215364 182.916653 
L 176.337109 182.98491 
L 176.489291 182.996311 
L 176.550164 183.099271 
L 176.611036 182.714599 
L 176.763218 183.120687 
L 176.824091 183.120687 
L 176.854527 182.794257 
L 176.9154 183.1476 
L 176.945836 183.079169 
L 176.976273 183.307702 
L 177.037145 183.120687 
L 177.098018 183.120687 
L 177.128455 182.9294 
L 177.189327 183.120687 
L 177.219764 183.120687 
L 177.311073 182.812718 
L 177.341509 183.077824 
L 177.432818 183.072988 
L 177.463255 182.812718 
L 177.493691 183.236797 
L 177.524127 183.010913 
L 177.615436 183.134381 
L 177.645873 183.010913 
L 177.676309 182.969395 
L 177.706745 183.074444 
L 177.767618 183.113259 
L 177.858927 182.87595 
L 177.950236 183.376208 
L 177.980673 183.316272 
L 178.163291 183.62682 
L 178.224164 183.242856 
L 178.2546 183.561019 
L 178.315473 183.561019 
L 178.345909 183.201337 
L 178.437218 183.296262 
L 178.528527 183.196278 
L 178.5894 183.236326 
L 178.741582 183.309329 
L 178.772018 183.236326 
L 178.802455 183.194961 
L 178.832891 183.301799 
L 179.106818 183.409463 
L 179.198127 183.255538 
L 179.228564 183.359794 
L 179.350309 183.359794 
L 179.380745 183.56123 
L 179.441618 183.359794 
L 179.654673 183.470286 
L 179.715545 183.633081 
L 179.745982 183.557806 
L 179.806855 183.516121 
L 179.837291 183.618553 
L 180.050345 183.650046 
L 180.080782 183.8559 
L 180.141655 183.708546 
L 180.172091 183.631631 
L 180.202527 184.042492 
L 180.2634 183.631631 
L 180.446018 183.737506 
L 180.506891 183.737506 
L 180.5982 183.662811 
L 180.719945 184.039296 
L 180.811255 183.718867 
L 180.841691 184.213039 
L 180.933 184.091722 
L 181.085182 184.278512 
L 181.115618 184.119675 
L 181.146055 184.428329 
L 181.2678 184.728062 
L 181.298236 184.653368 
L 181.419982 185.210124 
L 181.480855 185.168439 
L 181.6026 186.287271 
L 181.724345 186.149703 
L 181.846091 186.467568 
L 181.906964 186.832669 
L 181.967836 186.735435 
L 181.998273 186.735435 
L 182.089582 186.557399 
L 182.120018 186.67007 
L 182.302636 186.681101 
L 182.393945 186.144113 
L 182.485255 186.711755 
L 182.515691 186.595375 
L 182.546127 186.616855 
L 182.698309 186.414315 
L 182.728745 186.414315 
L 182.759182 186.56958 
L 182.850491 186.146448 
L 182.911364 186.595375 
L 182.972236 186.344516 
L 183.124418 186.684589 
L 183.246164 186.430085 
L 183.367909 186.680172 
L 183.428782 186.430085 
L 183.459218 186.726703 
L 183.550527 186.726703 
L 183.641836 186.394801 
L 183.702709 186.332316 
L 183.763582 186.790892 
L 183.885327 186.974538 
L 183.915764 186.612571 
L 184.007073 186.709805 
L 184.037509 187.068562 
L 184.098382 186.647856 
L 184.128818 186.764713 
L 184.189691 186.593753 
L 184.372309 186.60886 
L 184.402745 186.723196 
L 184.433182 186.553041 
L 184.463618 186.553041 
L 184.707109 186.650275 
L 184.737545 186.855338 
L 184.767982 186.618513 
L 184.798418 186.707159 
L 184.920164 186.618513 
L 185.041909 186.740734 
L 185.133218 186.78563 
L 185.254964 186.51657 
L 185.2854 186.51657 
L 185.437582 186.693398 
L 185.498455 186.644336 
L 185.650636 186.969288 
L 185.741945 186.988819 
L 185.772382 187.16557 
L 185.863691 187.057933 
L 185.924564 186.983781 
L 185.955 187.057933 
L 186.046309 186.983781 
L 186.107182 187.530906 
L 186.137618 186.983781 
L 186.2898 186.983781 
L 186.411545 187.30713 
L 186.563727 187.364562 
L 186.898527 187.294204 
L 186.989836 187.247971 
L 187.020273 187.498403 
L 187.050709 187.498403 
L 187.081145 187.34765 
L 187.172455 187.413756 
L 187.385509 187.597115 
L 187.415945 187.499726 
L 187.476818 187.602053 
L 187.598564 187.774622 
L 187.659436 187.646575 
L 187.689873 187.813692 
L 187.781182 187.733419 
L 187.842055 187.624083 
L 187.9638 187.807572 
L 188.024673 187.705226 
L 188.055109 187.790952 
L 188.176855 187.928021 
L 188.2986 187.9772 
L 188.359473 188.127827 
L 188.420345 188.085643 
L 188.602964 188.025576 
L 188.694273 187.953972 
L 188.876891 188.127827 
L 188.907327 188.025576 
L 188.937764 188.233469 
L 188.9682 188.233469 
L 189.029073 187.951424 
L 189.089945 188.025576 
L 189.181255 187.967481 
L 189.242127 188.137008 
L 189.272564 187.915352 
L 189.303 188.078912 
L 189.424745 187.983458 
L 189.729109 188.093974 
L 189.789982 188.17068 
L 189.942164 187.843475 
L 190.063909 187.956694 
L 190.185655 187.907632 
L 190.3074 189.004932 
L 190.337836 188.4661 
L 190.398709 188.458406 
L 190.429145 189.138935 
L 190.490018 188.458406 
L 190.611764 188.458406 
L 190.733509 188.261673 
L 191.3118 188.32174 
L 191.433545 188.124035 
L 191.463982 188.124035 
L 191.585727 188.345168 
L 191.737909 188.341788 
L 191.890091 189.398931 
L 191.920527 189.350865 
L 192.133582 189.350865 
L 192.164018 189.488145 
L 192.194455 189.276708 
L 192.224891 189.32577 
L 192.255327 189.32577 
L 192.285764 189.575682 
L 192.3162 189.276708 
L 192.377073 189.551786 
L 192.620564 189.458636 
L 192.803182 189.428276 
L 193.077109 189.513108 
L 193.107545 189.629955 
L 193.168418 189.513108 
L 193.351036 189.550343 
L 193.472782 189.735122 
L 193.533655 189.505803 
L 193.564091 189.732961 
L 193.624964 189.732961 
L 193.716273 190.345946 
L 193.746709 190.271793 
L 194.446745 190.361008 
L 194.507618 190.477855 
L 194.538055 190.361008 
L 194.781545 190.38864 
L 194.811982 190.232515 
L 194.872855 190.38864 
L 194.964164 190.38864 
L 194.9946 190.172201 
L 195.085909 190.289047 
L 195.238091 190.454348 
L 195.268527 190.357114 
L 195.359836 190.412069 
L 195.481582 190.412069 
L 195.999 190.501283 
L 196.090309 190.613976 
L 196.181618 190.449242 
L 196.212055 190.477855 
L 196.272927 190.896373 
L 196.303364 190.516621 
L 196.577291 190.41485 
L 196.638164 190.360496 
L 196.699036 191.019556 
L 196.729473 190.360496 
L 196.820782 190.445048 
L 196.881655 190.380568 
L 196.912091 190.876842 
L 196.972964 190.635107 
L 197.094709 190.348057 
L 197.246891 190.348057 
L 197.368636 190.146213 
L 197.399073 190.146213 
L 197.551255 190.611387 
L 197.673 190.563835 
L 197.825182 190.816739 
L 197.977364 190.816739 
L 198.068673 190.660614 
L 198.129545 191.076497 
L 198.190418 190.976904 
L 198.3426 191.076497 
L 198.403473 191.16968 
L 198.433909 191.076497 
L 198.6774 190.90849 
L 198.707836 191.484027 
L 198.799145 191.453667 
L 198.890455 191.453667 
L 198.920891 191.278679 
L 198.951327 191.484027 
L 198.981764 191.484027 
L 199.773109 191.488617 
L 199.803545 191.719035 
L 199.864418 191.625212 
L 199.986164 191.324926 
L 200.0166 191.523367 
L 200.047036 191.523367 
L 200.168782 191.871718 
L 200.199218 191.871718 
L 200.229655 191.680843 
L 200.320964 191.715593 
L 200.442709 192.180047 
L 200.503582 191.793105 
L 200.564455 191.823464 
L 200.716636 191.823464 
L 200.838382 191.566778 
L 201.447109 191.616795 
L 201.477545 191.692082 
L 201.538418 191.616795 
L 201.660164 191.71717 
L 201.6906 191.407464 
L 201.751473 191.729488 
L 201.781909 191.500646 
L 201.812345 191.70409 
L 201.842782 191.47748 
L 201.873218 191.47748 
L 201.903655 191.47748 
L 201.964527 191.968445 
L 202.0254 191.784783 
L 202.055836 191.784783 
L 202.177582 192.017197 
L 202.208018 191.986837 
L 202.329764 192.302745 
L 202.390636 191.986837 
L 202.421073 192.302745 
L 202.664564 192.120223 
L 202.816745 192.415438 
L 202.938491 192.272386 
L 202.999364 192.272386 
L 203.0298 192.516699 
L 203.090673 192.272386 
L 203.121109 192.115026 
L 203.151545 192.299368 
L 203.181982 192.299368 
L 203.3646 192.161209 
L 203.486345 192.241585 
L 203.516782 192.322158 
L 203.547218 192.063237 
L 203.638527 192.226684 
L 203.882018 192.063237 
L 203.912455 192.216318 
L 204.064636 192.445598 
L 204.155945 192.119308 
L 204.216818 192.236155 
L 204.247255 192.236155 
L 204.338564 192.119308 
L 204.369 192.291264 
L 204.399436 191.938363 
L 204.612491 191.938363 
L 204.7038 192.236155 
L 204.764673 192.201085 
L 204.977727 192.080523 
L 205.7082 192.01217 
L 205.738636 192.512399 
L 205.829945 192.464145 
L 205.890818 192.378818 
L 205.921255 192.684981 
L 205.982127 192.25965 
L 206.134309 192.378818 
L 206.195182 192.330563 
L 206.256055 192.491511 
L 206.286491 192.378818 
L 206.3778 192.314719 
L 206.408236 192.450408 
L 206.499545 192.369348 
L 206.7126 192.40147 
L 206.834345 192.526982 
L 206.925655 192.374516 
L 206.956091 192.398824 
L 207.108273 192.321739 
L 207.230018 192.659017 
L 207.290891 192.569975 
L 207.443073 192.804459 
L 207.503945 192.706173 
L 207.534382 192.769143 
L 207.625691 192.881836 
L 207.656127 192.838798 
L 207.686564 192.654142 
L 207.777873 192.767756 
L 207.838745 192.619701 
L 207.899618 192.807344 
L 207.930055 192.900942 
L 207.960491 192.741684 
L 208.112673 192.563736 
L 208.143109 192.676429 
L 208.173545 192.727725 
L 208.203982 192.566598 
L 208.234418 192.686937 
L 208.295291 192.566598 
L 208.447473 193.890756 
L 208.508345 193.350766 
L 208.569218 193.543053 
L 208.599655 193.617345 
L 208.630091 193.459683 
L 208.751836 193.381567 
L 208.843145 193.780771 
L 208.873582 193.494028 
L 209.117073 193.494028 
L 209.238818 193.854101 
L 209.391 193.725769 
L 209.421436 193.934296 
L 209.482309 193.665153 
L 209.543182 193.665153 
L 209.573618 193.44351 
L 209.604055 193.542764 
L 209.634491 193.933189 
L 209.695364 193.777033 
L 209.756236 193.44351 
L 209.847545 193.611437 
L 210.182345 193.673059 
L 210.273655 193.469582 
L 210.3954 193.642925 
L 210.699764 193.537112 
L 210.760636 193.619362 
L 210.791073 193.537112 
L 210.882382 193.537112 
L 210.912818 193.677842 
L 210.973691 193.506753 
L 211.034564 193.506753 
L 211.065 193.283115 
L 211.125873 193.475402 
L 211.247618 193.475402 
L 211.278055 193.616132 
L 211.338927 193.432381 
L 211.369364 193.587646 
L 211.430236 193.638224 
L 211.521545 193.573 
L 211.7346 194.162336 
L 211.917218 194.130985 
L 212.008527 194.130985 
L 212.130273 194.303066 
L 212.160709 194.011818 
L 212.191145 194.318284 
L 212.221582 194.278678 
L 212.373764 194.295208 
L 212.465073 194.507958 
L 212.495509 194.433012 
L 212.799873 194.489223 
L 212.860745 194.330375 
L 212.891182 194.507958 
L 213.012927 194.496143 
L 213.043364 194.683064 
L 213.104236 194.549609 
L 213.347727 194.454693 
L 213.469473 194.663906 
L 213.652091 194.654468 
L 213.682527 194.790966 
L 213.7434 194.608037 
L 213.773836 194.608037 
L 213.834709 194.989447 
L 213.865145 194.577678 
L 214.047764 194.608037 
L 214.169509 194.608037 
L 214.352127 195.480736 
L 214.504309 195.145726 
L 214.534745 195.206342 
L 214.565182 195.206342 
L 214.7478 195.772149 
L 214.869545 195.520146 
L 214.991291 195.870572 
L 215.021727 195.751405 
L 215.052164 195.900706 
L 215.0826 195.870572 
L 215.326091 195.809956 
L 215.447836 196.022708 
L 215.630455 195.936059 
L 215.782636 195.936059 
L 215.904382 195.921144 
L 215.934818 195.694481 
L 215.995691 195.930495 
L 216.026127 196.281771 
L 216.087 195.960629 
L 216.178309 195.982153 
L 216.300055 197.131047 
L 216.330491 197.229019 
L 216.391364 197.131047 
L 216.513109 197.131047 
L 216.573982 197.522421 
L 216.634855 197.35874 
L 216.726164 196.912395 
L 216.847909 197.660731 
L 216.908782 197.62938 
L 216.939218 197.751808 
L 217.000091 197.62938 
L 217.060964 197.408536 
L 217.182709 197.869625 
L 217.213145 197.869625 
L 217.304455 197.57736 
L 217.334891 197.675333 
L 217.456636 197.896168 
L 217.578382 197.798196 
L 217.669691 197.91858 
L 217.730564 197.871528 
L 217.913182 197.826311 
L 217.974055 197.668438 
L 218.004491 197.798196 
L 218.126236 197.830811 
L 218.156673 197.773887 
L 218.217545 197.830811 
L 218.461036 198.101168 
L 218.521909 197.974109 
L 218.582782 197.915693 
L 218.643655 198.352281 
L 218.704527 198.124587 
L 218.856709 198.166238 
L 218.887145 198.276102 
L 218.917582 198.063971 
L 218.978455 198.100279 
L 219.069764 198.475863 
L 219.1002 198.391135 
L 219.161073 198.549196 
L 219.191509 198.432842 
L 219.221945 198.432842 
L 219.313255 198.594586 
L 219.404564 198.659954 
L 219.435 198.475863 
L 219.587182 198.632251 
L 219.708927 198.534279 
L 219.739364 198.473662 
L 219.800236 198.71023 
L 219.861109 198.534279 
L 219.891545 198.16125 
L 219.952418 198.408613 
L 219.982855 198.408613 
L 220.043727 198.536581 
L 220.074164 198.384888 
L 220.135036 198.384888 
L 220.165473 198.16125 
L 220.226345 198.319823 
L 220.287218 198.319823 
L 220.317655 198.54955 
L 220.408964 198.49583 
L 220.4394 198.438547 
L 220.469836 198.569058 
L 220.652455 198.672643 
L 220.7742 198.498014 
L 220.804636 198.498014 
L 220.895945 198.967281 
L 220.926382 198.466663 
L 221.017691 198.561026 
L 221.200309 198.625073 
L 221.291618 198.688085 
L 221.322055 198.625073 
L 221.504673 198.730137 
L 221.535109 198.807624 
L 221.595982 198.730137 
L 221.656855 198.730137 
L 221.7786 198.917487 
L 221.839473 198.501461 
L 221.869909 198.928008 
L 221.961218 198.928008 
L 221.991655 199.134051 
L 222.052527 198.928008 
L 222.143836 198.934683 
L 222.235145 198.621845 
L 222.265582 198.748904 
L 222.843873 198.805828 
L 222.874309 198.87916 
L 222.935182 198.805828 
L 223.087364 198.68866 
L 223.209109 199.014293 
L 223.269982 198.97781 
L 223.300418 199.146029 
L 223.361291 199.045047 
L 223.483036 198.96756 
L 223.635218 199.253345 
L 223.756964 199.175858 
L 223.878709 199.437436 
L 224.061327 199.437436 
L 224.091764 199.156741 
L 224.183073 199.253345 
L 224.213509 199.602653 
L 224.304818 199.558137 
L 224.426564 199.69214 
L 224.457 199.370836 
L 224.548309 199.461533 
L 224.761364 199.558137 
L 224.7918 199.66444 
L 224.822236 199.501213 
L 224.852673 199.501213 
L 224.883109 199.526786 
L 224.913545 199.778784 
L 224.974418 199.594693 
L 225.065727 199.641129 
L 225.157036 199.775132 
L 225.217909 199.453829 
L 225.248345 199.739102 
L 225.339655 199.760037 
L 225.370091 199.727625 
L 225.735327 199.727625 
L 225.826636 200.00143 
L 225.857073 199.94133 
L 225.887509 199.86985 
L 225.978818 200.149922 
L 226.070127 199.75403 
L 226.191873 200.429061 
L 226.313618 200.24176 
L 226.374491 200.344962 
L 226.435364 200.219948 
L 226.496236 200.610975 
L 226.617982 200.669519 
L 226.648418 201.051958 
L 226.709291 200.727934 
L 226.922345 200.784966 
L 227.044091 201.034722 
L 227.074527 200.935153 
L 227.500636 200.963826 
L 227.531073 201.209932 
L 227.591945 200.935153 
L 227.652818 200.935153 
L 227.774564 201.082203 
L 227.896309 201.082203 
L 227.926745 201.216206 
L 227.987618 201.082203 
L 228.322418 201.130191 
L 228.535473 201.655975 
L 228.748527 201.709725 
L 228.778964 201.829851 
L 228.839836 201.709725 
L 229.083327 201.684173 
L 229.1442 201.578188 
L 229.205073 201.623877 
L 229.296382 201.663975 
L 229.326818 202.147712 
L 229.418127 201.879431 
L 229.479 201.790234 
L 229.570309 201.747841 
L 229.600745 201.837037 
L 229.661618 201.747841 
L 229.722491 201.549692 
L 229.752927 201.747841 
L 230.087727 201.855921 
L 230.239909 202.10471 
L 230.270345 202.10471 
L 230.331218 201.801371 
L 230.392091 201.930074 
L 230.574709 202.176179 
L 230.666018 201.970423 
L 230.787764 202.219907 
L 230.848636 202.125008 
L 230.879073 202.237962 
L 230.970382 202.13434 
L 231.031255 201.948306 
L 231.092127 202.050241 
L 231.183436 202.050241 
L 231.244309 201.841128 
L 231.335618 202.308157 
L 231.457364 201.957011 
L 231.518236 202.234338 
L 231.579109 202.139438 
L 231.883473 202.19325 
L 231.974782 202.395369 
L 232.096527 202.19325 
L 232.218273 202.38886 
L 232.461764 202.372321 
L 232.553073 202.46722 
L 232.613945 202.243582 
L 232.644382 202.525689 
L 232.766127 202.577957 
L 232.796564 202.638324 
L 232.857436 202.552331 
L 233.040055 202.378713 
L 233.070491 202.552331 
L 233.100927 202.345935 
L 233.131364 202.345935 
L 233.527036 202.414173 
L 233.557473 202.487505 
L 233.618345 202.414173 
L 233.679218 202.074548 
L 233.709655 202.581767 
L 233.740091 202.282393 
L 233.861836 202.487505 
L 233.922709 202.383618 
L 234.044455 202.833135 
L 234.105327 202.950046 
L 234.196636 202.45598 
L 234.227073 202.45598 
L 234.257509 202.62726 
L 234.287945 202.522505 
L 234.318382 202.313392 
L 234.379255 202.522505 
L 234.501 202.855359 
L 234.774927 202.830336 
L 234.8358 203.325074 
L 234.927109 203.171215 
L 234.957545 203.171215 
L 235.109727 203.486593 
L 235.140164 203.486593 
L 235.1706 203.246529 
L 235.201036 203.54308 
L 235.231473 203.283195 
L 235.353218 203.786198 
L 235.383655 203.570825 
L 235.474964 203.717455 
L 235.748891 203.827593 
L 235.809764 203.986542 
L 235.870636 203.909488 
L 235.931509 203.844016 
L 235.992382 203.988704 
L 236.022818 203.844016 
L 236.053255 203.844016 
L 236.205436 204.129893 
L 236.296745 203.687415 
L 236.327182 204.004634 
L 236.418491 203.911053 
L 236.448927 203.985205 
L 236.479364 203.985205 
L 236.570673 203.669828 
L 236.661982 203.985205 
L 236.783727 203.711749 
L 236.935909 203.671355 
L 237.057655 203.861365 
L 237.270709 203.768135 
L 237.301145 203.452757 
L 237.331582 203.730648 
L 237.362018 204.181134 
L 237.422891 203.730648 
L 237.453327 203.730648 
L 237.483764 203.914739 
L 237.544636 203.767749 
L 237.605509 203.767749 
L 237.635945 203.914739 
L 237.696818 203.767749 
L 237.757691 203.767749 
L 237.879436 204.097181 
L 237.940309 203.980356 
L 238.062055 204.326388 
L 238.092491 204.326388 
L 238.153364 204.10275 
L 238.1838 204.326388 
L 238.244673 204.326388 
L 238.396855 204.626746 
L 238.488164 204.442655 
L 238.5186 204.498235 
L 238.609909 204.19594 
L 238.701218 204.353961 
L 238.8534 204.678017 
L 238.944709 204.551874 
L 239.066455 204.79512 
L 239.127327 204.28683 
L 239.1882 204.3302 
L 239.279509 204.549442 
L 239.249073 204.246729 
L 239.309945 204.415743 
L 239.431691 204.415743 
L 239.462127 204.529849 
L 239.523 204.443898 
L 239.705618 204.415743 
L 239.736055 204.415743 
L 239.8578 204.102533 
L 239.918673 204.491057 
L 239.979545 204.415743 
L 240.009982 204.100366 
L 240.040418 204.480999 
L 240.070855 204.480999 
L 240.223036 204.388021 
L 240.344782 204.167788 
L 240.375218 204.167788 
L 240.5274 204.53926 
L 240.618709 204.451577 
L 240.649145 204.507157 
L 240.770891 204.466612 
L 240.801327 204.926689 
L 240.892636 204.840781 
L 241.105691 204.840781 
L 241.166564 204.775837 
L 241.197 205.101218 
L 241.318745 204.766357 
L 241.470927 205.016715 
L 241.501364 204.969492 
L 241.592673 204.969492 
L 241.653545 205.120815 
L 241.744855 204.760379 
L 241.775291 204.825323 
L 241.836164 205.198364 
L 241.897036 204.925728 
L 241.927473 205.001042 
L 241.957909 204.848062 
L 242.049218 204.848062 
L 242.170964 204.969492 
L 242.444891 204.896159 
L 242.505764 204.606028 
L 242.5362 205.094002 
L 242.627509 204.824339 
L 242.657945 204.983843 
L 242.718818 204.900571 
L 242.931873 204.547262 
L 243.053618 204.459579 
L 243.175364 204.9889 
L 243.327545 204.618135 
L 243.418855 204.832684 
L 243.5406 204.966051 
L 243.662345 204.509962 
L 243.784091 204.612742 
L 243.844964 204.85273 
L 243.905836 204.738243 
L 243.936273 204.738243 
L 243.966709 204.917124 
L 244.058018 204.824967 
L 244.2102 205.086864 
L 244.240636 204.879432 
L 244.331945 204.984738 
L 244.362382 205.06833 
L 244.392818 204.917505 
L 244.514564 204.915543 
L 244.636309 205.056732 
L 244.727618 204.884733 
L 244.788491 205.210785 
L 244.849364 205.004061 
L 244.910236 204.914864 
L 244.940673 205.004061 
L 244.971109 205.004061 
L 245.092855 204.721117 
L 245.2146 205.252346 
L 245.336345 204.988939 
L 245.5494 205.182824 
L 245.701582 205.182824 
L 245.8842 205.182824 
L 246.005945 204.973711 
L 246.036382 204.973711 
L 246.066818 205.218271 
L 246.127691 204.973711 
L 246.310309 204.973711 
L 246.340745 205.217796 
L 246.371182 204.886027 
L 246.401618 204.886027 
L 246.614673 204.886027 
L 246.645109 205.248407 
L 246.736418 205.09514 
L 247.010345 205.038915 
L 247.071218 205.354459 
L 247.132091 205.257776 
L 247.314709 205.313999 
L 247.436455 205.424173 
L 247.740818 205.494882 
L 247.801691 205.454784 
L 247.893 205.678973 
L 248.045182 205.678973 
L 248.075618 205.547939 
L 248.136491 205.678973 
L 248.319109 205.678973 
L 248.410418 205.804844 
L 248.471291 205.678973 
L 248.501727 205.8701 
L 248.623473 205.918992 
L 248.653909 205.720198 
L 248.714782 205.91375 
L 248.836527 206.070125 
L 248.958273 205.986368 
L 249.110455 206.030018 
L 249.2322 205.973792 
L 249.293073 206.301166 
L 249.323509 205.973792 
L 249.962673 206.081619 
L 250.084418 206.140947 
L 250.145291 206.140947 
L 250.2366 206.298096 
L 250.358345 206.110815 
L 250.510527 206.31686 
L 250.632273 206.149878 
L 250.693145 206.149878 
L 250.723582 206.038499 
L 250.754018 206.149878 
L 250.784455 206.602556 
L 250.845327 206.149878 
L 250.9062 206.267369 
L 250.967073 206.219048 
L 251.088818 206.184698 
L 251.210564 206.341847 
L 251.271436 206.241713 
L 251.301873 206.724848 
L 251.362745 206.367108 
L 251.5758 206.200943 
L 251.727982 206.299536 
L 251.788855 206.200943 
L 251.880164 206.376955 
L 251.9106 206.376955 
L 252.001909 206.557736 
L 252.123655 206.376955 
L 252.154091 206.376955 
L 252.184527 206.238088 
L 252.214964 206.418917 
L 252.2454 206.418917 
L 252.488891 206.430698 
L 252.5802 206.49961 
L 252.610636 206.243279 
L 252.641073 206.223562 
L 252.671509 206.320245 
L 253.401982 206.398296 
L 253.706345 206.892495 
L 253.828091 207.05451 
L 253.9194 206.975034 
L 254.041145 207.333191 
L 254.162891 207.094024 
L 254.284636 207.150947 
L 254.345509 207.056109 
L 254.375945 207.110848 
L 254.406382 207.468589 
L 254.467255 207.247933 
L 254.528127 207.217122 
L 254.649873 207.323163 
L 254.741182 207.22648 
L 254.771618 207.267753 
L 254.832491 207.267753 
L 254.954236 207.725232 
L 254.984673 207.725232 
L 255.106418 207.463785 
L 255.228164 207.922404 
L 255.349909 207.789745 
L 255.471655 207.92182 
L 255.715145 208.004078 
L 255.745582 208.248886 
L 255.806455 207.838015 
L 255.836891 207.838015 
L 255.989073 208.00222 
L 256.049945 208.00222 
L 256.080382 208.121247 
L 256.141255 208.00222 
L 256.232564 207.96224 
L 256.263 207.869302 
L 256.384745 208.18119 
L 256.415182 208.18119 
L 256.536927 208.485408 
L 256.719545 208.56808 
L 256.749982 208.883543 
L 256.780418 208.56808 
L 256.810855 208.344219 
L 256.841291 208.735197 
L 256.902164 208.485408 
L 256.9326 208.497228 
L 256.963036 208.892347 
L 256.993473 208.428485 
L 257.054345 208.854968 
L 257.328273 208.783794 
L 257.450018 208.554343 
L 257.480455 208.912083 
L 257.510891 208.407189 
L 257.541327 208.480864 
L 257.997873 208.42394 
L 258.028309 208.327257 
L 258.058745 208.42394 
L 258.180491 208.688649 
L 258.2718 208.42394 
L 258.302236 208.482396 
L 258.363109 208.42394 
L 258.576164 208.782806 
L 258.697909 208.625656 
L 258.819655 208.652127 
L 259.337073 208.706014 
L 259.367509 208.873131 
L 259.397945 208.649789 
L 259.428382 208.649789 
L 259.702309 208.651699 
L 259.793618 208.636945 
L 259.824055 208.871038 
L 259.976236 208.829076 
L 260.006673 208.986226 
L 260.037109 208.763436 
L 260.189291 208.706421 
L 260.432782 208.706421 
L 260.493655 208.842935 
L 260.524091 208.823912 
L 260.676273 208.640766 
L 261.163255 208.633503 
L 261.254564 208.633503 
L 261.315436 208.883539 
L 261.345873 208.633503 
L 261.771982 208.599934 
L 261.893727 209.058569 
L 262.472018 209.036316 
L 262.502455 209.185571 
L 262.593764 209.153807 
L 262.6242 209.153807 
L 262.685073 208.977861 
L 262.745945 208.994401 
L 262.867691 209.262261 
L 262.898127 209.158504 
L 262.928564 209.295018 
L 262.959 209.398775 
L 263.050309 208.879704 
L 263.080745 208.977511 
L 263.385109 209.209476 
L 263.415545 209.014392 
L 263.476418 209.095382 
L 263.537291 209.231896 
L 263.598164 209.195677 
L 263.659036 209.237638 
L 263.689473 208.799894 
L 263.719909 209.24699 
L 263.750345 209.24699 
L 263.780782 209.461254 
L 263.841655 209.287235 
L 263.9634 209.287235 
L 264.024273 209.126581 
L 264.054709 209.278551 
L 264.176455 209.319824 
L 264.206891 209.445668 
L 264.267764 209.319824 
L 264.328636 209.100554 
L 264.359073 209.141828 
L 264.480818 209.273267 
L 264.663436 209.205672 
L 264.785182 209.638196 
L 264.815618 209.520705 
L 264.846055 209.688237 
L 264.876491 209.688237 
L 264.906927 209.688237 
L 265.028673 209.484203 
L 265.363473 209.520705 
L 265.485218 209.794552 
L 265.515655 209.783044 
L 265.667836 209.730901 
L 266.033073 209.637963 
L 266.093945 209.601462 
L 266.124382 209.637963 
L 266.154818 209.805496 
L 266.215691 209.637963 
L 266.246127 209.637963 
L 266.276564 209.805081 
L 266.337436 209.621422 
L 266.367873 209.621422 
L 266.398309 209.757937 
L 266.428745 209.480554 
L 266.459182 209.466285 
L 266.580927 209.580848 
L 266.6418 209.580848 
L 266.763545 209.744674 
L 266.824418 209.582167 
L 266.854855 209.744674 
L 266.915727 209.744674 
L 267.037473 210.008229 
L 267.159218 209.744674 
L 267.3114 210.198852 
L 267.372273 210.198852 
L 267.524455 209.862632 
L 267.767945 209.826131 
L 267.859255 209.71241 
L 268.011436 210.154512 
L 268.041873 210.156393 
L 268.133182 209.908485 
L 268.163618 210.061823 
L 268.346236 210.068622 
L 268.437545 209.908485 
L 268.467982 209.92251 
L 268.681036 209.908485 
L 268.802782 209.584863 
L 268.894091 209.908981 
L 268.954964 209.584863 
L 268.9854 209.908981 
L 269.107145 209.813527 
L 269.198455 210.199272 
L 269.228891 209.886505 
L 269.563691 210.045495 
L 269.685436 209.97602 
L 269.959364 210.044933 
L 269.9898 210.194824 
L 270.050673 209.97602 
L 270.081109 209.97602 
L 270.141982 210.279208 
L 270.202855 210.210295 
L 270.233291 210.294609 
L 270.294164 210.210295 
L 270.355036 210.192479 
L 270.415909 210.363438 
L 270.446345 210.296927 
L 270.568091 210.192479 
L 271.055073 210.234865 
L 271.085509 210.370235 
L 271.115945 210.15949 
L 271.146382 210.26146 
L 271.572491 210.278009 
L 271.602927 210.137972 
L 271.694236 210.208534 
L 271.785545 210.303829 
L 271.815982 210.455594 
L 271.876855 210.303829 
L 272.029036 210.385955 
L 272.059473 210.456761 
L 272.120345 210.368407 
L 272.181218 210.368407 
L 272.272527 210.629216 
L 272.3334 210.598857 
L 273.155182 210.683936 
L 273.185618 210.723665 
L 273.216055 210.598857 
L 273.459545 210.668638 
L 273.550855 210.598857 
L 273.581291 210.972183 
L 273.976964 210.972183 
L 274.0074 211.152105 
L 274.068273 210.969875 
L 274.220455 210.972183 
L 274.311764 211.043708 
L 274.3422 210.347934 
L 274.463945 210.970094 
L 274.616127 210.970094 
L 274.768309 211.194261 
L 274.859618 210.954801 
L 274.890055 211.043708 
L 275.042236 210.948254 
L 275.224855 211.043708 
L 275.316164 211.159574 
L 275.3466 211.077277 
L 275.590091 211.249797 
L 275.742273 211.111401 
L 276.0162 211.038108 
L 276.046636 211.297726 
L 276.107509 211.038108 
L 276.229255 211.038108 
L 276.290127 211.263494 
L 276.320564 211.038108 
L 276.351 211.038108 
L 276.381436 211.230234 
L 276.442309 210.980747 
L 276.533618 210.980747 
L 276.594491 211.173528 
L 276.624927 211.04872 
L 276.716236 210.848672 
L 276.746673 210.980747 
L 276.777109 211.082947 
L 276.807545 210.980747 
L 276.898855 210.848672 
L 276.990164 211.139244 
L 277.111909 210.848672 
L 277.233655 211.227116 
L 278.116309 211.180806 
L 278.146745 211.415613 
L 278.238055 211.275796 
L 278.298927 211.275796 
L 278.420673 211.538837 
L 278.481545 211.62522 
L 278.542418 211.497051 
L 278.572855 211.648861 
L 278.664164 211.592016 
L 278.846782 211.536868 
L 279.059836 211.605085 
L 279.090273 211.351232 
L 279.151145 211.536868 
L 279.212018 211.579278 
L 279.333764 211.453381 
L 279.638127 211.517698 
L 279.820745 211.912484 
L 279.942491 211.424795 
L 280.125109 211.606312 
L 280.185982 211.496701 
L 280.216418 211.484308 
L 280.3686 211.644868 
L 280.612091 211.60348 
L 280.642527 211.4448 
L 280.7034 211.576875 
L 280.733836 211.838109 
L 280.764273 211.552089 
L 280.825145 211.669611 
L 280.977327 211.669611 
L 281.129509 211.640314 
L 281.190382 211.785477 
L 281.251255 211.772407 
L 281.281691 211.530025 
L 281.373 211.575197 
L 281.738236 211.469261 
L 281.829545 211.261366 
L 281.859982 211.629999 
L 281.890418 211.159989 
L 281.951291 211.417286 
L 281.981727 211.417286 
L 282.194782 211.99662 
L 282.225218 211.871812 
L 282.255655 212.111246 
L 282.286091 212.111246 
L 282.316527 212.346784 
L 282.3774 212.111246 
L 282.499145 211.871812 
L 282.529582 211.871812 
L 282.560018 212.062929 
L 282.590455 211.861617 
L 282.620891 211.861617 
L 282.651327 211.788324 
L 282.7122 211.873781 
L 282.864382 211.823364 
L 282.894818 212.124981 
L 282.955691 211.95503 
L 282.986127 211.79825 
L 283.077436 211.851379 
L 283.199182 212.28736 
L 283.229618 212.412168 
L 283.290491 212.308383 
L 283.412236 212.344659 
L 283.473109 212.544999 
L 283.503545 212.410995 
L 283.533982 212.019263 
L 283.625291 212.069284 
L 283.686164 212.069284 
L 283.807909 212.425293 
L 283.838345 212.541262 
L 283.868782 211.940281 
L 283.960091 212.284315 
L 284.020964 211.853902 
L 284.081836 211.993596 
L 284.112273 211.993596 
L 284.203582 211.744329 
L 284.234018 212.050271 
L 284.294891 211.819604 
L 284.447073 211.861341 
L 284.538382 212.034901 
L 284.568818 211.797418 
L 284.629691 212.034901 
L 284.721 212.034901 
L 284.842745 211.75409 
L 285.177545 211.679788 
L 285.238418 211.480012 
L 285.299291 211.611537 
L 285.694964 211.61607 
L 285.7254 211.745505 
L 285.786273 211.625364 
L 285.877582 211.61607 
L 285.908018 211.755804 
L 285.999327 211.692274 
L 286.151509 211.796721 
L 286.334127 212.26741 
L 286.364564 211.856234 
L 286.395 212.47891 
L 286.425436 212.47387 
L 286.455873 212.164599 
L 286.516745 212.47387 
L 286.547182 212.531578 
L 286.668927 212.0534 
L 286.699364 212.0534 
L 286.790673 211.906042 
L 286.821109 212.209504 
L 286.912418 212.065641 
L 287.0646 212.065641 
L 287.125473 211.914725 
L 287.186345 212.322598 
L 287.308091 212.218151 
L 287.490709 212.493247 
L 287.642891 212.485113 
L 287.764636 212.642263 
L 287.947255 212.642263 
L 287.977691 212.520029 
L 288.008127 212.642263 
L 288.038564 212.858687 
L 288.129873 212.830006 
L 288.373364 212.830006 
L 288.495109 212.950147 
L 288.525545 212.950147 
L 288.647291 212.725559 
L 288.7386 213.375552 
L 288.769036 212.894062 
L 288.860345 213.084343 
L 288.890782 212.982967 
L 288.951655 213.150854 
L 289.103836 212.982967 
L 289.134273 213.186138 
L 289.225582 213.084343 
L 289.377764 212.876789 
L 289.438636 213.087303 
L 289.469073 212.876789 
L 289.682127 212.987718 
L 289.773436 213.094174 
L 289.834309 212.824814 
L 289.864745 212.859552 
L 290.016927 213.253818 
L 290.108236 213.073873 
L 290.229982 213.418307 
L 290.290855 213.327297 
L 290.321291 213.418307 
L 290.473473 213.574469 
L 290.503909 213.514956 
L 290.564782 213.205684 
L 290.595218 213.373741 
L 290.7474 213.877863 
L 290.777836 213.778869 
L 290.869145 213.782165 
L 290.899582 213.940287 
L 290.990891 213.855637 
L 291.112636 214.212942 
L 291.143073 213.910403 
L 291.173509 214.247679 
L 291.203945 214.247679 
L 291.234382 214.321297 
L 291.295255 214.247679 
L 291.417 214.143232 
L 291.447436 214.118962 
L 291.599618 214.388293 
L 291.782236 214.317023 
L 291.812673 214.182756 
L 291.903982 214.272979 
L 292.390964 214.270147 
L 292.4214 214.531794 
L 292.482273 214.206182 
L 292.512709 214.1657 
L 292.543145 214.270147 
L 292.573582 214.244204 
L 293.821473 214.117431 
L 293.851909 214.038759 
L 293.912782 214.117431 
L 294.034527 214.223609 
L 294.278018 214.202629 
L 294.338891 214.34375 
L 294.369327 214.223609 
L 294.4302 214.223609 
L 294.491073 214.253988 
L 294.521509 214.012984 
L 294.643255 214.312331 
L 294.795436 214.367266 
L 294.856309 214.202619 
L 294.886745 214.367266 
L 294.978055 214.539228 
L 295.008491 214.367266 
L 295.0998 214.281093 
L 295.130236 214.367266 
L 295.282418 214.263655 
L 295.312855 214.426251 
L 295.404164 214.32346 
L 295.617218 214.288594 
L 295.738964 214.457489 
L 295.799836 214.335657 
L 295.830273 214.457489 
L 296.043327 214.554044 
L 296.165073 214.153787 
L 296.317255 214.298945 
L 296.378127 214.212947 
L 296.439 214.265064 
L 296.621618 214.212947 
L 296.743364 214.146869 
L 296.7738 214.508324 
L 296.834673 214.146869 
L 296.895545 214.178078 
L 296.925982 214.146869 
L 296.956418 214.100579 
L 296.986855 214.124224 
L 297.047727 214.361211 
L 297.078164 214.320379 
L 297.169473 214.166657 
L 297.199909 214.212947 
L 297.412964 214.259415 
L 297.4434 214.758493 
L 297.504273 214.259415 
L 297.534709 214.387268 
L 297.565145 214.166657 
L 297.626018 214.309483 
L 297.808636 214.309483 
L 297.839073 214.541846 
L 297.899945 214.172154 
L 297.960818 214.383101 
L 298.021691 214.309483 
L 298.143436 214.401059 
L 298.204309 214.254361 
L 298.234745 214.437644 
L 298.752164 214.509249 
L 298.7826 214.550011 
L 298.813036 214.30703 
L 298.904345 214.391354 
L 298.934782 214.432117 
L 298.965218 214.691629 
L 298.995655 214.62729 
L 299.056527 214.637673 
L 299.1174 214.153372 
L 299.178273 214.53248 
L 299.239145 214.403743 
L 299.360891 214.476344 
L 299.421764 214.3263 
L 299.513073 214.661219 
L 299.573945 214.53248 
L 299.604382 214.661219 
L 299.817436 214.629034 
L 299.847873 214.53248 
L 299.939182 214.576906 
L 299.969618 214.576906 
L 300.000055 214.719257 
L 300.030491 214.4998 
L 300.091364 214.629034 
L 300.639218 214.551929 
L 300.760964 214.551929 
L 300.882709 214.986314 
L 301.065327 215.042234 
L 301.187073 215.190589 
L 301.521873 215.23915 
L 301.552309 215.375355 
L 301.582745 215.190589 
L 301.613182 215.190589 
L 301.826236 215.187437 
L 302.008855 215.759866 
L 302.1306 215.468003 
L 302.191473 215.669782 
L 302.252345 215.561295 
L 302.4654 215.551598 
L 302.495836 215.744428 
L 302.556709 215.551598 
L 302.739327 215.596164 
L 302.861073 215.692813 
L 303.013255 215.433559 
L 303.165436 215.707093 
L 303.256745 215.570888 
L 303.287182 215.596164 
L 303.408927 215.692813 
L 303.439364 215.692813 
L 303.561109 215.564652 
L 303.591545 215.564652 
L 303.682855 215.788542 
L 303.8046 215.498574 
L 303.956782 215.816348 
L 303.987218 215.60409 
L 304.048091 215.637995 
L 304.078527 215.77176 
L 304.1394 215.637995 
L 304.230709 215.520086 
L 304.443764 215.943687 
L 304.717691 216.033456 
L 304.748127 216.080297 
L 304.809 216.025479 
L 305.113364 215.832169 
L 305.235109 215.920891 
L 305.265545 216.041032 
L 305.326418 215.832169 
L 305.4786 215.961961 
L 306.239509 215.966681 
L 306.269945 216.095421 
L 306.330818 215.966681 
L 306.361255 215.910206 
L 306.391691 216.083707 
L 306.756927 216.17393 
L 306.878673 216.251036 
L 306.909109 216.251036 
L 307.000418 216.433683 
L 307.122164 216.17393 
L 307.335218 216.17393 
L 307.396091 216.028772 
L 307.456964 216.118995 
L 307.548273 216.028772 
L 307.578709 216.083707 
L 307.670018 216.155464 
L 307.761327 216.403579 
L 307.791764 216.104193 
L 307.852636 216.514142 
L 307.883073 216.514142 
L 308.004818 216.15448 
L 308.096127 216.057164 
L 308.126564 216.352891 
L 308.217873 216.286813 
L 308.309182 216.286813 
L 308.400491 216.147885 
L 308.430927 216.213352 
L 308.461364 216.387721 
L 308.522236 216.221346 
L 308.583109 216.311569 
L 308.643982 216.097197 
L 308.704855 216.097197 
L 308.735291 216.400774 
L 308.765727 216.0896 
L 308.796164 216.0896 
L 308.8266 216.0896 
L 308.948345 216.272034 
L 309.130964 216.343208 
L 309.191836 216.39557 
L 309.222273 216.294704 
L 309.313582 216.217216 
L 309.344018 216.351478 
L 309.374455 216.183658 
L 309.435327 216.313246 
L 309.557073 216.147885 
L 309.617945 216.39557 
L 309.648382 216.147885 
L 309.770127 216.147885 
L 309.952745 216.796655 
L 309.983182 216.625665 
L 310.044055 216.796655 
L 310.074491 217.09206 
L 310.135364 216.796655 
L 310.1658 216.596076 
L 310.226673 216.821419 
L 310.257109 216.848945 
L 310.287545 216.621653 
L 310.378855 216.749814 
L 310.439727 216.584902 
L 310.470164 216.87335 
L 310.531036 216.631744 
L 311.1702 216.634132 
L 311.200636 216.509982 
L 311.261509 216.634132 
L 311.657182 216.667261 
L 311.687618 216.845274 
L 311.748491 216.667261 
L 311.931109 216.621281 
L 311.961545 216.485946 
L 312.022418 216.614967 
L 312.1746 216.851064 
L 312.205036 216.700786 
L 312.296345 216.744748 
L 312.357218 216.69406 
L 312.478964 216.464151 
L 312.570273 216.717565 
L 312.600709 216.640459 
L 312.783327 216.655706 
L 312.8442 216.519929 
L 312.874636 216.769839 
L 312.935509 216.48506 
L 312.996382 216.48506 
L 313.026818 216.356041 
L 313.118127 216.430801 
L 313.209436 216.430801 
L 313.270309 216.62386 
L 313.331182 216.561092 
L 313.574673 216.488551 
L 313.635545 216.599982 
L 313.665982 216.546683 
L 313.696418 216.500856 
L 313.818164 216.883847 
L 314.061655 216.895665 
L 314.092091 216.740331 
L 314.122527 216.953993 
L 314.152964 216.911826 
L 314.366018 216.889715 
L 314.426891 216.760005 
L 314.457327 216.863368 
L 314.5182 216.863368 
L 314.548636 216.739219 
L 314.579073 217.046016 
L 314.822564 217.046016 
L 315.005182 216.650843 
L 315.035618 216.650843 
L 315.157364 217.102855 
L 315.279109 216.844574 
L 315.400855 217.037239 
L 315.5226 216.986551 
L 315.644345 216.822966 
L 315.674782 216.822966 
L 315.735655 216.943931 
L 315.766091 216.822966 
L 315.796527 216.698069 
L 315.8574 216.822966 
L 316.222636 217.153 
L 316.313945 217.153 
L 316.344382 217.264431 
L 316.405255 217.153 
L 316.435691 217.153 
L 316.527 216.905315 
L 316.557436 217.005095 
L 316.618309 217.005095 
L 316.770491 217.264431 
L 316.800927 217.267134 
L 316.831364 217.081657 
L 316.922673 217.153 
L 317.044418 217.153 
L 317.105291 217.267134 
L 317.135727 217.153 
L 317.166164 217.153 
L 317.1966 217.369925 
L 317.257473 217.267134 
L 317.287909 217.153 
L 317.379218 217.178758 
L 317.500964 217.32865 
L 317.561836 217.32865 
L 317.683582 217.178758 
L 317.774891 217.268281 
L 317.835764 217.545325 
L 317.896636 217.471896 
L 318.109691 217.530028 
L 318.140127 217.611983 
L 318.201 217.530028 
L 318.322745 217.530028 
L 318.444491 217.720803 
L 318.474927 217.538211 
L 318.566236 217.655704 
L 318.961909 217.64688 
L 318.992345 217.526079 
L 319.022782 217.754313 
L 319.174964 217.81978 
L 319.235836 217.754313 
L 319.296709 217.81978 
L 319.479327 217.794503 
L 319.509764 218.29423 
L 319.570636 217.687071 
L 319.601073 217.687071 
L 319.631509 217.81978 
L 319.692382 217.705436 
L 319.966309 217.672779 
L 319.996745 217.951499 
L 320.088055 217.905175 
L 320.148927 217.982359 
L 320.2098 217.814274 
L 320.240236 217.951499 
L 320.301109 217.951499 
L 320.422855 217.73785 
L 320.483727 217.657518 
L 320.514164 217.875075 
L 320.5446 217.73785 
L 320.605473 217.878275 
L 320.666345 217.875075 
L 320.788091 217.683591 
L 320.909836 217.612001 
L 321.153327 217.809024 
L 321.183764 217.809024 
L 321.2142 217.613701 
L 321.275073 217.809024 
L 321.609873 217.90707 
L 321.640309 217.680489 
L 321.731618 217.801905 
L 322.066418 217.700163 
L 322.096855 217.394406 
L 322.157727 217.611787 
L 322.249036 217.700163 
L 322.279473 217.638812 
L 322.522964 217.700163 
L 322.583836 217.530447 
L 322.644709 217.86471 
L 322.705582 217.692566 
L 322.736018 217.380609 
L 322.766455 217.843922 
L 322.827327 217.700163 
L 322.857764 218.088812 
L 322.949073 217.641878 
L 322.979509 217.680453 
L 323.040382 217.680453 
L 323.070818 217.805462 
L 323.131691 217.762843 
L 323.253436 217.656221 
L 323.496927 217.749903 
L 323.527364 217.71925 
L 323.588236 218.017292 
L 323.618673 217.87185 
L 323.770855 217.651772 
L 323.831727 217.651772 
L 323.8926 217.769263 
L 323.953473 217.722192 
L 324.014345 217.674152 
L 324.044782 217.598925 
L 324.075218 217.717091 
L 324.105655 217.717091 
L 324.166527 217.616508 
L 324.196964 217.507631 
L 324.2274 217.687973 
L 324.288273 217.588279 
L 324.318709 217.687973 
L 324.379582 217.648787 
L 324.531764 217.448269 
L 324.5622 217.52978 
L 324.653509 217.541208 
L 324.683945 217.606464 
L 324.775255 217.541208 
L 324.866564 217.448269 
L 324.897 217.596822 
L 324.957873 217.448269 
L 325.262236 217.367937 
L 325.383982 217.313678 
L 325.536164 217.514635 
L 325.5666 217.460376 
L 325.688345 217.431695 
L 325.718782 217.431695 
L 325.779655 217.577138 
L 325.810091 217.431695 
L 325.992709 217.431695 
L 326.114455 217.558348 
L 326.418818 217.558348 
L 326.449255 217.740996 
L 326.479691 217.50766 
L 326.510127 217.558348 
L 326.601436 217.658423 
L 326.692745 217.977044 
L 326.723182 217.658423 
L 326.814491 217.675847 
L 326.966673 217.733986 
L 326.997109 217.792271 
L 327.027545 217.477698 
L 327.088418 217.792271 
L 327.179727 217.792271 
L 327.210164 217.955855 
L 327.2406 217.730921 
L 327.271036 217.730921 
L 328.123255 217.792271 
L 328.153691 217.937713 
L 328.214564 217.848412 
L 328.366745 217.717351 
L 328.427618 217.792271 
L 328.458055 218.245047 
L 328.549364 218.13617 
L 328.640673 218.257135 
L 328.671109 218.206446 
L 328.762418 218.206446 
L 328.884164 218.078808 
L 329.005909 218.257135 
L 329.340709 218.257135 
L 329.371145 217.87814 
L 329.462455 218.072518 
L 329.614636 218.552276 
L 329.645073 218.378101 
L 329.675509 218.715861 
L 329.705945 218.46655 
L 329.827691 218.552276 
L 329.888564 218.480173 
L 329.919 218.552276 
L 330.010309 218.552276 
L 330.040745 218.742074 
L 330.101618 218.553423 
L 330.132055 218.553423 
L 330.162491 218.393217 
L 330.223364 218.553423 
L 330.314673 218.553423 
L 330.375545 218.818182 
L 330.405982 218.717007 
L 330.436418 218.527201 
L 330.527727 218.553423 
L 330.619036 218.594651 
L 330.649473 218.431924 
L 330.740782 218.492072 
L 330.862527 218.492072 
L 330.9234 218.492072 
L 330.953836 218.60948 
L 331.014709 218.492072 
L 331.045145 218.403696 
L 331.075582 218.637514 
L 331.106018 218.492072 
L 331.136455 218.492072 
L 331.166891 218.293923 
L 331.197327 218.620233 
L 331.227764 218.620233 
L 331.2582 218.575667 
L 331.319073 218.656208 
L 331.440818 218.656208 
L 331.562564 218.800145 
L 331.593 218.800145 
L 331.623436 218.63452 
L 331.714745 218.681592 
L 331.745182 218.687717 
L 331.775618 218.858789 
L 331.806055 218.397524 
L 331.836491 218.610815 
L 331.866927 218.610815 
L 331.897364 218.88 
L 331.958236 218.603823 
L 332.019109 218.666028 
L 332.079982 218.271789 
L 332.110418 218.530017 
L 332.201727 218.675544 
L 332.232164 218.623997 
L 332.2626 218.623997 
L 332.293036 218.497327 
L 332.323473 218.649322 
L 332.353909 218.620641 
L 332.475655 218.754943 
L 332.627836 218.354123 
L 332.810455 218.720074 
L 332.9322 218.626903 
L 332.962636 218.349691 
L 333.053945 218.53277 
L 333.114818 218.634146 
L 333.145255 218.53277 
L 333.206127 218.53277 
L 333.236564 218.82145 
L 333.267 218.604428 
L 333.388745 218.227013 
L 333.419182 218.227013 
L 333.449618 218.456107 
L 333.510491 218.227013 
L 333.540927 218.227013 
L 333.632236 218.484193 
L 333.662673 218.418393 
L 333.693109 218.510327 
L 333.723545 218.355174 
L 333.753982 218.355174 
L 333.875727 218.269448 
L 333.906164 218.421761 
L 333.9366 218.269448 
L 333.967036 218.137984 
L 334.058345 218.616918 
L 334.088782 218.33225 
L 334.119218 218.33225 
L 334.149655 218.071299 
L 334.180091 218.370825 
L 334.210527 218.370825 
L 334.362709 218.246972 
L 334.454018 218.189049 
L 334.514891 218.318068 
L 334.545327 218.090456 
L 334.575764 218.407698 
L 334.636636 218.189049 
L 334.667073 218.290426 
L 334.788818 217.9909 
L 334.819255 217.9909 
L 334.849691 218.218423 
L 334.910564 217.9444 
L 335.093182 217.918178 
L 335.184491 217.918178 
L 335.214927 217.720029 
L 335.2758 217.868743 
L 335.306236 217.868743 
L 335.336673 218.154457 
L 335.397545 217.957438 
L 336.523691 218.021493 
L 336.615 218.179456 
L 336.645436 218.089829 
L 336.706309 218.089829 
L 336.858491 217.673987 
L 336.980236 217.929771 
L 337.010673 217.900333 
L 337.071545 218.130265 
L 337.101982 217.900333 
L 337.132418 217.900333 
L 337.223727 217.761577 
L 337.315036 218.111933 
L 337.345473 217.802362 
L 337.406345 217.702216 
L 337.436782 217.94415 
L 337.497655 217.702216 
L 337.6194 217.613522 
L 337.741145 217.742541 
L 337.893327 217.714898 
L 337.923764 217.415373 
L 337.984636 217.714898 
L 338.015073 217.621727 
L 338.136818 217.950318 
L 338.228127 217.897471 
L 338.349873 218.095216 
L 338.380309 218.040541 
L 338.471618 218.095216 
L 338.502055 218.095216 
L 338.562927 218.238723 
L 338.6238 218.19529 
L 338.928164 218.002044 
L 338.9586 217.732305 
L 339.049909 217.810648 
L 339.141218 217.825476 
L 339.262964 217.632526 
L 339.323836 217.822528 
L 339.384709 217.792789 
L 339.445582 217.68774 
L 339.476018 217.732305 
L 339.6282 217.950689 
L 339.932564 217.950689 
L 339.963 218.079708 
L 339.993436 217.807912 
L 340.054309 218.008406 
L 340.176055 218.008406 
L 340.2978 218.171991 
L 340.328236 218.171991 
L 340.358673 217.893909 
L 340.419545 218.171991 
L 340.449982 218.272065 
L 340.480418 217.997331 
L 340.510855 218.171991 
L 340.571727 218.171991 
L 340.6326 218.317433 
L 340.693473 218.243581 
L 340.754345 218.157374 
L 340.876091 218.272065 
L 340.906527 218.272065 
L 340.936964 218.149713 
L 340.997836 218.272065 
L 341.089145 218.272065 
L 341.119582 218.031889 
L 341.210891 218.082995 
L 341.637 218.00015 
L 341.667436 217.92523 
L 341.728309 218.00015 
L 341.880491 218.162592 
L 342.337036 218.263895 
L 342.458782 218.390023 
L 342.6414 218.262512 
L 342.793582 218.480557 
L 342.945764 218.291178 
L 343.006636 218.217947 
L 343.067509 218.308956 
L 343.128382 218.321285 
L 343.250127 218.129571 
L 343.402309 218.222968 
L 343.432745 218.249453 
L 343.554491 218.083835 
L 343.584927 218.083835 
L 343.615364 218.398391 
L 343.676236 218.083835 
L 344.224091 218.069219 
L 344.254527 217.943365 
L 344.3154 218.083835 
L 344.498018 218.083835 
L 344.528455 218.211996 
L 344.589327 218.18391 
L 344.711073 218.072759 
L 345.045873 218.083835 
L 345.258927 218.069219 
L 345.289364 217.832576 
L 345.350236 218.069219 
L 345.928527 218.169293 
L 346.080709 218.297261 
L 346.141582 218.297261 
L 346.232891 218.136033 
L 346.3242 218.264 
L 346.354636 218.231763 
L 346.506818 218.231763 
L 346.506818 218.231763 
" clip-path="url(#p11883d4c86)" style="fill: none; stroke: #1f77b4; stroke-width: 1.5; stroke-linecap: square"/>
   </g>
   <g id="patch_3">
    <path d="M 26.925 228.96 
L 26.925 7.2 
" style="fill: none; stroke: #000000; stroke-width: 0.8; stroke-linejoin: miter; stroke-linecap: square"/>
   </g>
   <g id="patch_4">
    <path d="M 361.725 228.96 
L 361.725 7.2 
" style="fill: none; stroke: #000000; stroke-width: 0.8; stroke-linejoin: miter; stroke-linecap: square"/>
   </g>
   <g id="patch_5">
    <path d="M 26.925 228.96 
L 361.725 228.96 
" style="fill: none; stroke: #000000; stroke-width: 0.8; stroke-linejoin: miter; stroke-linecap: square"/>
   </g>
   <g id="patch_6">
    <path d="M 26.925 7.2 
L 361.725 7.2 
" style="fill: none; stroke: #000000; stroke-width: 0.8; stroke-linejoin: miter; stroke-linecap: square"/>
   </g>
  </g>
 </g>
 <defs>
  <clipPath id="p11883d4c86">
   <rect x="26.925" y="7.2" width="334.8" height="221.76"/>
  </clipPath>
 </defs>
</svg>
