<?xml version="1.0" encoding="utf-8" standalone="no"?>
<!DOCTYPE svg PUBLIC "-//W3C//DTD SVG 1.1//EN"
  "http://www.w3.org/Graphics/SVG/1.1/DTD/svg11.dtd">
<svg xmlns:xlink="http://www.w3.org/1999/xlink" width="373.423672pt" height="252.838125pt" viewBox="0 0 373.423672 252.838125" xmlns="http://www.w3.org/2000/svg" version="1.1">
 <metadata>
  <rdf:RDF xmlns:dc="http://purl.org/dc/elements/1.1/" xmlns:cc="http://creativecommons.org/ns#" xmlns:rdf="http://www.w3.org/1999/02/22-rdf-syntax-ns#">
   <cc:Work>
    <dc:type rdf:resource="http://purl.org/dc/dcmitype/StillImage"/>
    <dc:date>2023-04-19T17:34:10.067147</dc:date>
    <dc:format>image/svg+xml</dc:format>
    <dc:creator>
     <cc:Agent>
      <dc:title>Matplotlib v3.6.2, https://matplotlib.org/</dc:title>
     </cc:Agent>
    </dc:creator>
   </cc:Work>
  </rdf:RDF>
 </metadata>
 <defs>
  <style type="text/css">*{stroke-linejoin: round; stroke-linecap: butt}</style>
 </defs>
 <g id="figure_1">
  <g id="patch_1">
   <path d="M -0 252.838125 
L 373.423672 252.838125 
L 373.423672 0 
L -0 0 
z
" style="fill: #ffffff"/>
  </g>
  <g id="axes_1">
   <g id="patch_2">
    <path d="M 26.925 228.96 
L 361.725 228.96 
L 361.725 7.2 
L 26.925 7.2 
z
" style="fill: #ffffff"/>
   </g>
   <g id="matplotlib.axis_1">
    <g id="xtick_1">
     <g id="line2d_1">
      <defs>
       <path id="ma360a47021" d="M 0 0 
L 0 3.5 
" style="stroke: #000000; stroke-width: 0.8"/>
      </defs>
      <g>
       <use xlink:href="#ma360a47021" x="61.914439" y="228.96" style="stroke: #000000; stroke-width: 0.8"/>
      </g>
     </g>
     <g id="text_1">
      <!-- 500 -->
      <g transform="translate(52.370689 243.558437) scale(0.1 -0.1)">
       <defs>
        <path id="DejaVuSans-35" d="M 691 4666 
L 3169 4666 
L 3169 4134 
L 1269 4134 
L 1269 2991 
Q 1406 3038 1543 3061 
Q 1681 3084 1819 3084 
Q 2600 3084 3056 2656 
Q 3513 2228 3513 1497 
Q 3513 744 3044 326 
Q 2575 -91 1722 -91 
Q 1428 -91 1123 -41 
Q 819 9 494 109 
L 494 744 
Q 775 591 1075 516 
Q 1375 441 1709 441 
Q 2250 441 2565 725 
Q 2881 1009 2881 1497 
Q 2881 1984 2565 2268 
Q 2250 2553 1709 2553 
Q 1456 2553 1204 2497 
Q 953 2441 691 2322 
L 691 4666 
z
" transform="scale(0.015625)"/>
        <path id="DejaVuSans-30" d="M 2034 4250 
Q 1547 4250 1301 3770 
Q 1056 3291 1056 2328 
Q 1056 1369 1301 889 
Q 1547 409 2034 409 
Q 2525 409 2770 889 
Q 3016 1369 3016 2328 
Q 3016 3291 2770 3770 
Q 2525 4250 2034 4250 
z
M 2034 4750 
Q 2819 4750 3233 4129 
Q 3647 3509 3647 2328 
Q 3647 1150 3233 529 
Q 2819 -91 2034 -91 
Q 1250 -91 836 529 
Q 422 1150 422 2328 
Q 422 3509 836 4129 
Q 1250 4750 2034 4750 
z
" transform="scale(0.015625)"/>
       </defs>
       <use xlink:href="#DejaVuSans-35"/>
       <use xlink:href="#DejaVuSans-30" x="63.623047"/>
       <use xlink:href="#DejaVuSans-30" x="127.246094"/>
      </g>
     </g>
    </g>
    <g id="xtick_2">
     <g id="line2d_2">
      <g>
       <use xlink:href="#ma360a47021" x="103.569329" y="228.96" style="stroke: #000000; stroke-width: 0.8"/>
      </g>
     </g>
     <g id="text_2">
      <!-- 600 -->
      <g transform="translate(94.025579 243.558437) scale(0.1 -0.1)">
       <defs>
        <path id="DejaVuSans-36" d="M 2113 2584 
Q 1688 2584 1439 2293 
Q 1191 2003 1191 1497 
Q 1191 994 1439 701 
Q 1688 409 2113 409 
Q 2538 409 2786 701 
Q 3034 994 3034 1497 
Q 3034 2003 2786 2293 
Q 2538 2584 2113 2584 
z
M 3366 4563 
L 3366 3988 
Q 3128 4100 2886 4159 
Q 2644 4219 2406 4219 
Q 1781 4219 1451 3797 
Q 1122 3375 1075 2522 
Q 1259 2794 1537 2939 
Q 1816 3084 2150 3084 
Q 2853 3084 3261 2657 
Q 3669 2231 3669 1497 
Q 3669 778 3244 343 
Q 2819 -91 2113 -91 
Q 1303 -91 875 529 
Q 447 1150 447 2328 
Q 447 3434 972 4092 
Q 1497 4750 2381 4750 
Q 2619 4750 2861 4703 
Q 3103 4656 3366 4563 
z
" transform="scale(0.015625)"/>
       </defs>
       <use xlink:href="#DejaVuSans-36"/>
       <use xlink:href="#DejaVuSans-30" x="63.623047"/>
       <use xlink:href="#DejaVuSans-30" x="127.246094"/>
      </g>
     </g>
    </g>
    <g id="xtick_3">
     <g id="line2d_3">
      <g>
       <use xlink:href="#ma360a47021" x="145.22422" y="228.96" style="stroke: #000000; stroke-width: 0.8"/>
      </g>
     </g>
     <g id="text_3">
      <!-- 700 -->
      <g transform="translate(135.68047 243.558437) scale(0.1 -0.1)">
       <defs>
        <path id="DejaVuSans-37" d="M 525 4666 
L 3525 4666 
L 3525 4397 
L 1831 0 
L 1172 0 
L 2766 4134 
L 525 4134 
L 525 4666 
z
" transform="scale(0.015625)"/>
       </defs>
       <use xlink:href="#DejaVuSans-37"/>
       <use xlink:href="#DejaVuSans-30" x="63.623047"/>
       <use xlink:href="#DejaVuSans-30" x="127.246094"/>
      </g>
     </g>
    </g>
    <g id="xtick_4">
     <g id="line2d_4">
      <g>
       <use xlink:href="#ma360a47021" x="186.87911" y="228.96" style="stroke: #000000; stroke-width: 0.8"/>
      </g>
     </g>
     <g id="text_4">
      <!-- 800 -->
      <g transform="translate(177.33536 243.558437) scale(0.1 -0.1)">
       <defs>
        <path id="DejaVuSans-38" d="M 2034 2216 
Q 1584 2216 1326 1975 
Q 1069 1734 1069 1313 
Q 1069 891 1326 650 
Q 1584 409 2034 409 
Q 2484 409 2743 651 
Q 3003 894 3003 1313 
Q 3003 1734 2745 1975 
Q 2488 2216 2034 2216 
z
M 1403 2484 
Q 997 2584 770 2862 
Q 544 3141 544 3541 
Q 544 4100 942 4425 
Q 1341 4750 2034 4750 
Q 2731 4750 3128 4425 
Q 3525 4100 3525 3541 
Q 3525 3141 3298 2862 
Q 3072 2584 2669 2484 
Q 3125 2378 3379 2068 
Q 3634 1759 3634 1313 
Q 3634 634 3220 271 
Q 2806 -91 2034 -91 
Q 1263 -91 848 271 
Q 434 634 434 1313 
Q 434 1759 690 2068 
Q 947 2378 1403 2484 
z
M 1172 3481 
Q 1172 3119 1398 2916 
Q 1625 2713 2034 2713 
Q 2441 2713 2670 2916 
Q 2900 3119 2900 3481 
Q 2900 3844 2670 4047 
Q 2441 4250 2034 4250 
Q 1625 4250 1398 4047 
Q 1172 3844 1172 3481 
z
" transform="scale(0.015625)"/>
       </defs>
       <use xlink:href="#DejaVuSans-38"/>
       <use xlink:href="#DejaVuSans-30" x="63.623047"/>
       <use xlink:href="#DejaVuSans-30" x="127.246094"/>
      </g>
     </g>
    </g>
    <g id="xtick_5">
     <g id="line2d_5">
      <g>
       <use xlink:href="#ma360a47021" x="228.534001" y="228.96" style="stroke: #000000; stroke-width: 0.8"/>
      </g>
     </g>
     <g id="text_5">
      <!-- 900 -->
      <g transform="translate(218.990251 243.558437) scale(0.1 -0.1)">
       <defs>
        <path id="DejaVuSans-39" d="M 703 97 
L 703 672 
Q 941 559 1184 500 
Q 1428 441 1663 441 
Q 2288 441 2617 861 
Q 2947 1281 2994 2138 
Q 2813 1869 2534 1725 
Q 2256 1581 1919 1581 
Q 1219 1581 811 2004 
Q 403 2428 403 3163 
Q 403 3881 828 4315 
Q 1253 4750 1959 4750 
Q 2769 4750 3195 4129 
Q 3622 3509 3622 2328 
Q 3622 1225 3098 567 
Q 2575 -91 1691 -91 
Q 1453 -91 1209 -44 
Q 966 3 703 97 
z
M 1959 2075 
Q 2384 2075 2632 2365 
Q 2881 2656 2881 3163 
Q 2881 3666 2632 3958 
Q 2384 4250 1959 4250 
Q 1534 4250 1286 3958 
Q 1038 3666 1038 3163 
Q 1038 2656 1286 2365 
Q 1534 2075 1959 2075 
z
" transform="scale(0.015625)"/>
       </defs>
       <use xlink:href="#DejaVuSans-39"/>
       <use xlink:href="#DejaVuSans-30" x="63.623047"/>
       <use xlink:href="#DejaVuSans-30" x="127.246094"/>
      </g>
     </g>
    </g>
    <g id="xtick_6">
     <g id="line2d_6">
      <g>
       <use xlink:href="#ma360a47021" x="270.188891" y="228.96" style="stroke: #000000; stroke-width: 0.8"/>
      </g>
     </g>
     <g id="text_6">
      <!-- 1000 -->
      <g transform="translate(257.463891 243.558437) scale(0.1 -0.1)">
       <defs>
        <path id="DejaVuSans-31" d="M 794 531 
L 1825 531 
L 1825 4091 
L 703 3866 
L 703 4441 
L 1819 4666 
L 2450 4666 
L 2450 531 
L 3481 531 
L 3481 0 
L 794 0 
L 794 531 
z
" transform="scale(0.015625)"/>
       </defs>
       <use xlink:href="#DejaVuSans-31"/>
       <use xlink:href="#DejaVuSans-30" x="63.623047"/>
       <use xlink:href="#DejaVuSans-30" x="127.246094"/>
       <use xlink:href="#DejaVuSans-30" x="190.869141"/>
      </g>
     </g>
    </g>
    <g id="xtick_7">
     <g id="line2d_7">
      <g>
       <use xlink:href="#ma360a47021" x="311.843782" y="228.96" style="stroke: #000000; stroke-width: 0.8"/>
      </g>
     </g>
     <g id="text_7">
      <!-- 1100 -->
      <g transform="translate(299.118782 243.558437) scale(0.1 -0.1)">
       <use xlink:href="#DejaVuSans-31"/>
       <use xlink:href="#DejaVuSans-31" x="63.623047"/>
       <use xlink:href="#DejaVuSans-30" x="127.246094"/>
       <use xlink:href="#DejaVuSans-30" x="190.869141"/>
      </g>
     </g>
    </g>
    <g id="xtick_8">
     <g id="line2d_8">
      <g>
       <use xlink:href="#ma360a47021" x="353.498672" y="228.96" style="stroke: #000000; stroke-width: 0.8"/>
      </g>
     </g>
     <g id="text_8">
      <!-- 1200 -->
      <g transform="translate(340.773672 243.558437) scale(0.1 -0.1)">
       <defs>
        <path id="DejaVuSans-32" d="M 1228 531 
L 3431 531 
L 3431 0 
L 469 0 
L 469 531 
Q 828 903 1448 1529 
Q 2069 2156 2228 2338 
Q 2531 2678 2651 2914 
Q 2772 3150 2772 3378 
Q 2772 3750 2511 3984 
Q 2250 4219 1831 4219 
Q 1534 4219 1204 4116 
Q 875 4013 500 3803 
L 500 4441 
Q 881 4594 1212 4672 
Q 1544 4750 1819 4750 
Q 2544 4750 2975 4387 
Q 3406 4025 3406 3419 
Q 3406 3131 3298 2873 
Q 3191 2616 2906 2266 
Q 2828 2175 2409 1742 
Q 1991 1309 1228 531 
z
" transform="scale(0.015625)"/>
       </defs>
       <use xlink:href="#DejaVuSans-31"/>
       <use xlink:href="#DejaVuSans-32" x="63.623047"/>
       <use xlink:href="#DejaVuSans-30" x="127.246094"/>
       <use xlink:href="#DejaVuSans-30" x="190.869141"/>
      </g>
     </g>
    </g>
   </g>
   <g id="matplotlib.axis_2">
    <g id="ytick_1">
     <g id="line2d_9">
      <defs>
       <path id="m6ef920f989" d="M 0 0 
L -3.5 0 
" style="stroke: #000000; stroke-width: 0.8"/>
      </defs>
      <g>
       <use xlink:href="#m6ef920f989" x="26.925" y="210.69398" style="stroke: #000000; stroke-width: 0.8"/>
      </g>
     </g>
     <g id="text_9">
      <!-- 40 -->
      <g transform="translate(7.2 214.493199) scale(0.1 -0.1)">
       <defs>
        <path id="DejaVuSans-34" d="M 2419 4116 
L 825 1625 
L 2419 1625 
L 2419 4116 
z
M 2253 4666 
L 3047 4666 
L 3047 1625 
L 3713 1625 
L 3713 1100 
L 3047 1100 
L 3047 0 
L 2419 0 
L 2419 1100 
L 313 1100 
L 313 1709 
L 2253 4666 
z
" transform="scale(0.015625)"/>
       </defs>
       <use xlink:href="#DejaVuSans-34"/>
       <use xlink:href="#DejaVuSans-30" x="63.623047"/>
      </g>
     </g>
    </g>
    <g id="ytick_2">
     <g id="line2d_10">
      <g>
       <use xlink:href="#m6ef920f989" x="26.925" y="164.410959" style="stroke: #000000; stroke-width: 0.8"/>
      </g>
     </g>
     <g id="text_10">
      <!-- 45 -->
      <g transform="translate(7.2 168.210178) scale(0.1 -0.1)">
       <use xlink:href="#DejaVuSans-34"/>
       <use xlink:href="#DejaVuSans-35" x="63.623047"/>
      </g>
     </g>
    </g>
    <g id="ytick_3">
     <g id="line2d_11">
      <g>
       <use xlink:href="#m6ef920f989" x="26.925" y="118.127937" style="stroke: #000000; stroke-width: 0.8"/>
      </g>
     </g>
     <g id="text_11">
      <!-- 50 -->
      <g transform="translate(7.2 121.927156) scale(0.1 -0.1)">
       <use xlink:href="#DejaVuSans-35"/>
       <use xlink:href="#DejaVuSans-30" x="63.623047"/>
      </g>
     </g>
    </g>
    <g id="ytick_4">
     <g id="line2d_12">
      <g>
       <use xlink:href="#m6ef920f989" x="26.925" y="71.844916" style="stroke: #000000; stroke-width: 0.8"/>
      </g>
     </g>
     <g id="text_12">
      <!-- 55 -->
      <g transform="translate(7.2 75.644135) scale(0.1 -0.1)">
       <use xlink:href="#DejaVuSans-35"/>
       <use xlink:href="#DejaVuSans-35" x="63.623047"/>
      </g>
     </g>
    </g>
    <g id="ytick_5">
     <g id="line2d_13">
      <g>
       <use xlink:href="#m6ef920f989" x="26.925" y="25.561894" style="stroke: #000000; stroke-width: 0.8"/>
      </g>
     </g>
     <g id="text_13">
      <!-- 60 -->
      <g transform="translate(7.2 29.361113) scale(0.1 -0.1)">
       <use xlink:href="#DejaVuSans-36"/>
       <use xlink:href="#DejaVuSans-30" x="63.623047"/>
      </g>
     </g>
    </g>
   </g>
   <g id="line2d_14">
    <path d="M 42.143182 17.28 
L 42.543866 17.28 
L 42.762097 17.841288 
L 42.959743 17.841288 
L 43.090815 17.980965 
L 43.122538 17.965695 
L 43.186813 18.363764 
L 43.250538 18.314926 
L 43.658813 18.794883 
L 43.691354 18.794883 
L 43.821956 19.531175 
L 43.887212 19.531175 
L 43.920863 19.682963 
L 43.984041 19.531175 
L 44.015468 19.531175 
L 44.113993 19.831216 
L 44.176721 19.745508 
L 44.272369 19.815796 
L 44.338036 19.878517 
L 44.36996 19.718386 
L 44.401385 19.84709 
L 44.549603 20.248633 
L 44.701737 20.248633 
L 44.825389 20.637133 
L 44.888991 20.637133 
L 45.012058 21.011597 
L 45.138896 20.818289 
L 45.293957 20.818289 
L 45.421341 21.011597 
L 45.57309 21.032622 
L 45.699988 22.014682 
L 45.829496 22.188674 
L 45.95961 22.014682 
L 45.990974 22.167649 
L 46.022187 22.014682 
L 46.151119 23.39365 
L 46.217243 23.561292 
L 46.314514 23.39365 
L 46.347917 23.39365 
L 46.539505 24.548119 
L 46.670155 24.353075 
L 46.702221 24.353075 
L 46.732928 24.569144 
L 46.830108 24.539882 
L 46.92449 24.353075 
L 46.95798 24.543394 
L 47.052253 24.543394 
L 47.08564 24.354852 
L 47.150946 24.543394 
L 47.21887 24.54517 
L 47.375263 24.923947 
L 47.438113 24.685428 
L 47.501755 24.703525 
L 47.533126 24.683652 
L 47.691512 24.923947 
L 47.720765 24.683652 
L 47.782595 24.810365 
L 47.842895 24.683652 
L 47.905135 25.155528 
L 47.969269 24.683652 
L 48.031268 24.85658 
L 48.094831 24.85658 
L 48.124487 25.518774 
L 48.187581 24.908468 
L 48.308813 24.866545 
L 48.460141 25.371169 
L 48.614911 26.071267 
L 48.737725 26.071267 
L 48.859257 26.697414 
L 48.980549 27.298271 
L 49.011372 27.125343 
L 49.137428 29.554335 
L 49.263288 29.972298 
L 49.38869 29.727263 
L 49.634307 29.727263 
L 49.692111 30.278642 
L 49.753344 30.065601 
L 49.80634 30.026171 
L 49.895737 30.346993 
L 49.926891 30.318071 
L 50.1705 30.390403 
L 50.326048 30.706593 
L 50.452092 30.20751 
L 50.483204 30.278642 
L 50.515728 29.729016 
L 50.578562 30.095162 
L 50.978584 31.363624 
L 51.006938 31.363624 
L 51.156071 30.89554 
L 51.311739 31.61258 
L 51.343354 31.592622 
L 51.499121 32.112595 
L 51.530548 31.975399 
L 51.592039 32.439003 
L 51.656816 32.399574 
L 51.68579 32.430392 
L 51.841041 33.590908 
L 51.872152 33.590908 
L 52.084167 35.157663 
L 52.238572 35.157663 
L 52.396791 35.472184 
L 52.490499 35.368667 
L 52.619215 35.89837 
L 52.65221 35.903315 
L 52.684245 35.489354 
L 52.7165 36.012663 
L 52.844295 36.290298 
L 52.969178 36.290298 
L 53.030886 36.850496 
L 53.06411 36.290298 
L 53.249519 36.732736 
L 53.281025 36.732736 
L 53.373149 36.94374 
L 53.404529 36.732736 
L 53.43759 37.364095 
L 53.498067 36.94374 
L 53.528974 36.94374 
L 53.623557 37.815052 
L 53.653453 37.30096 
L 53.774404 37.364095 
L 53.929732 39.459392 
L 53.989022 39.459392 
L 54.020769 39.670396 
L 54.10855 39.599235 
L 54.171257 39.670396 
L 54.20432 39.599235 
L 54.328457 39.599235 
L 54.358957 40.616818 
L 54.420513 40.414059 
L 54.454652 40.006183 
L 54.518226 40.49264 
L 54.580561 40.006183 
L 54.645102 40.297852 
L 54.67733 40.369013 
L 54.70759 40.006183 
L 54.768816 40.297852 
L 54.798163 40.297852 
L 54.925044 40.616818 
L 54.988911 40.705727 
L 55.114948 41.04339 
L 55.464254 41.073154 
L 55.591856 41.585102 
L 56.116168 41.585102 
L 56.179042 41.704667 
L 56.212152 41.617757 
L 56.342636 41.585102 
L 56.374567 41.674903 
L 56.472128 41.617757 
L 56.635504 41.588352 
L 56.701209 41.588352 
L 56.829881 41.707917 
L 56.86269 41.707917 
L 56.991506 41.588352 
L 57.09041 41.650125 
L 57.158286 41.953471 
L 57.228837 41.713218 
L 57.295664 41.619683 
L 57.426227 42.518811 
L 57.522197 42.169798 
L 57.814919 43.378596 
L 57.847728 43.378596 
L 57.914057 44.034123 
L 57.94638 43.742148 
L 57.97994 43.409039 
L 58.043074 43.711913 
L 58.074429 43.897915 
L 58.137304 43.711913 
L 58.301565 43.791576 
L 58.333031 43.824232 
L 58.395669 44.165186 
L 58.42812 43.844421 
L 58.459984 43.857678 
L 58.554825 44.360193 
L 58.620955 43.910446 
L 58.653118 44.360193 
L 58.909118 44.470591 
L 59.035179 44.552797 
L 59.231768 45.570293 
L 59.353186 44.872905 
L 59.514366 44.908038 
L 59.610118 44.887859 
L 59.712367 45.397075 
L 59.776146 44.823669 
L 59.837334 44.849269 
L 59.903632 45.177166 
L 59.965527 45.153721 
L 60.091703 45.186377 
L 60.124313 45.975187 
L 60.185811 45.287252 
L 60.216454 45.287252 
L 60.339191 44.983669 
L 60.465049 45.398737 
L 60.590049 47.42749 
L 60.621584 47.42749 
L 60.712226 48.26545 
L 60.744558 48.092708 
L 60.842185 48.26545 
L 60.872774 48.092708 
L 60.935744 48.111129 
L 61.282166 48.78134 
L 61.314663 48.850573 
L 61.34736 48.733841 
L 61.378775 48.733841 
L 61.40958 48.503452 
L 61.470457 48.58871 
L 61.563817 48.742717 
L 61.690274 48.604254 
L 61.914816 48.68467 
L 62.073041 48.975996 
L 62.136572 48.867148 
L 62.326834 50.001639 
L 62.35946 50.125068 
L 62.422948 50.001639 
L 62.51753 50.001639 
L 62.708593 50.487083 
L 62.77761 50.131278 
L 62.811218 50.297905 
L 62.940106 50.279333 
L 63.068826 50.95503 
L 63.099969 50.352434 
L 63.166542 50.474028 
L 63.310153 51.361976 
L 63.343929 51.045768 
L 63.535247 51.104197 
L 63.664119 51.836412 
L 63.891121 51.836412 
L 63.922749 52.280862 
L 63.985884 51.80727 
L 64.082328 51.878449 
L 64.114517 52.722992 
L 64.210184 52.477144 
L 64.389229 52.477144 
L 64.576268 52.866428 
L 64.638029 52.866428 
L 64.702144 53.272352 
L 64.763006 53.010505 
L 64.917834 52.660841 
L 64.82482 53.053847 
L 64.945586 52.676888 
L 65.073916 52.735317 
L 65.104967 53.503345 
L 65.167942 52.762707 
L 65.290726 52.614021 
L 65.32246 52.614021 
L 65.421365 53.292989 
L 65.450574 53.233363 
L 65.569384 53.30668 
L 65.728386 54.3076 
L 65.758872 54.3076 
L 66.191244 57.761031 
L 66.222471 57.761031 
L 66.252427 58.162062 
L 66.314528 57.761031 
L 66.34381 57.761031 
L 66.373838 57.912773 
L 66.47048 57.831636 
L 66.503454 57.831636 
L 66.534964 58.400114 
L 66.627779 58.097 
L 66.658954 58.097 
L 66.784132 60.908245 
L 66.907127 60.955866 
L 67.028245 62.059769 
L 67.122104 62.065165 
L 67.186996 63.340909 
L 67.248518 63.280169 
L 67.282712 63.280169 
L 67.31327 63.999485 
L 67.377213 63.280169 
L 67.50544 63.496892 
L 67.534398 63.441496 
L 67.56695 63.986979 
L 67.630981 63.586691 
L 67.66269 63.586691 
L 67.824912 63.279596 
L 67.85495 63.367058 
L 67.98957 64.340287 
L 68.146337 64.427749 
L 68.209116 64.589076 
L 68.24027 64.427749 
L 68.339271 64.415242 
L 68.43679 64.186665 
L 68.468474 64.488489 
L 68.532199 64.411626 
L 68.563912 64.247405 
L 68.595173 64.466727 
L 68.62655 64.466727 
L 68.658178 64.544714 
L 68.722895 64.4283 
L 68.882742 64.468584 
L 69.010599 65.223739 
L 69.072133 65.282168 
L 69.265908 65.632253 
L 69.391169 65.325158 
L 69.486525 65.409682 
L 69.55041 65.805029 
L 69.58651 65.409682 
L 69.681397 65.51811 
L 69.713346 65.899309 
L 69.776938 65.51811 
L 69.806761 65.603936 
L 69.932057 66.116492 
L 70.063664 66.271413 
L 70.193994 66.271413 
L 70.412661 67.117008 
L 70.540489 66.627381 
L 70.828605 67.705587 
L 70.958328 67.325749 
L 70.989785 67.535793 
L 71.022443 67.325749 
L 71.118795 67.19296 
L 71.149887 67.424103 
L 71.242578 67.283865 
L 71.274826 67.228698 
L 71.336468 67.292594 
L 71.367733 67.292594 
L 71.496638 67.535793 
L 71.525867 67.500056 
L 71.587246 67.19296 
L 71.619401 67.723751 
L 71.715229 67.705587 
L 71.747515 67.705587 
L 71.870191 68.240126 
L 71.901863 67.687663 
L 71.962655 67.975245 
L 72.178372 69.134879 
L 72.2112 68.064884 
L 72.307373 68.120054 
L 72.428683 68.120054 
L 72.458989 68.650844 
L 72.556264 68.630055 
L 72.61872 68.630055 
L 72.708172 68.796912 
L 72.738753 68.710662 
L 72.835521 68.690794 
L 72.988674 69.160845 
L 73.017496 69.184583 
L 73.078045 68.731473 
L 73.1419 68.796912 
L 73.329463 69.585499 
L 73.36246 69.585499 
L 73.45272 69.933721 
L 73.48398 69.876241 
L 73.577699 69.876241 
L 73.701486 70.054815 
L 73.734936 70.054815 
L 73.890569 70.4776 
L 73.980846 70.447334 
L 74.260731 71.484749 
L 74.291973 71.072601 
L 74.382985 71.273344 
L 74.502284 71.273344 
L 74.598329 72.122324 
L 74.629167 71.92783 
L 74.751748 71.921582 
L 74.910069 72.33373 
L 74.942233 72.122324 
L 74.972772 72.183064 
L 75.124569 72.835681 
L 75.222031 72.835681 
L 75.381342 73.083569 
L 75.630964 73.083569 
L 75.723572 73.692007 
L 75.752906 73.495142 
L 75.815717 73.495142 
L 75.94282 74.941474 
L 76.004893 74.911209 
L 76.036567 75.003769 
L 76.128754 74.911209 
L 76.285352 74.773328 
L 76.410659 74.941474 
L 76.536542 75.835459 
L 76.632179 75.938958 
L 76.728502 75.982681 
L 76.790159 76.480943 
L 76.853495 76.361387 
L 76.882251 76.361387 
L 76.912095 76.245905 
L 76.941859 76.392369 
L 76.972244 76.333498 
L 77.158735 76.373305 
L 77.253033 76.361387 
L 77.316478 76.393127 
L 77.379395 76.257823 
L 77.606001 76.353543 
L 77.730286 76.80224 
L 77.855823 76.80224 
L 77.924672 77.412026 
L 78.019416 77.176492 
L 78.051714 77.074037 
L 78.183145 77.938292 
L 78.214361 77.938292 
L 78.35063 77.76476 
L 78.468329 77.528993 
L 78.498298 77.565432 
L 78.610966 77.953664 
L 78.918097 78.085513 
L 78.984144 78.085513 
L 79.015429 78.200995 
L 79.045076 78.085513 
L 79.182576 79.444954 
L 79.317651 79.444954 
L 79.405945 79.582254 
L 79.539423 79.313105 
L 79.613272 79.313105 
L 79.646793 79.459568 
L 79.711441 79.313105 
L 79.746321 79.313105 
L 79.78135 79.428586 
L 79.853711 79.331345 
L 79.986172 79.104288 
L 80.190589 79.38889 
L 80.267978 79.175165 
L 80.404997 79.557091 
L 80.569106 79.557091 
L 80.70873 79.819036 
L 80.934356 79.895496 
L 81.071209 80.420013 
L 81.107581 80.177729 
L 81.177641 80.420013 
L 81.407483 80.420013 
L 81.442353 81.022675 
L 81.542465 80.998054 
L 81.676794 80.80194 
L 81.743165 80.80194 
L 81.846107 81.217377 
L 81.878882 81.022675 
L 81.91767 81.022675 
L 82.095484 81.76707 
L 82.159713 81.76707 
L 82.416864 83.194335 
L 82.48054 83.221054 
L 82.509143 83.087533 
L 82.64639 84.053333 
L 82.949579 84.053333 
L 82.985981 83.85863 
L 83.024578 83.873199 
L 83.166267 84.168898 
L 83.273117 84.264132 
L 83.312704 84.168043 
L 83.346746 84.272131 
L 83.423693 84.727197 
L 83.48891 84.362745 
L 83.735028 84.469547 
L 83.771896 85.6257 
L 83.840171 84.469547 
L 84.272211 84.467621 
L 84.343599 84.656386 
L 84.40442 84.631507 
L 84.60585 84.826134 
L 84.640582 84.826134 
L 84.705295 85.085186 
L 84.846746 86.829882 
L 84.882399 87.099714 
L 84.947464 86.829882 
L 85.04344 86.986589 
L 85.078817 86.879787 
L 85.144181 86.879787 
L 85.180763 87.839035 
L 85.247637 86.879787 
L 85.310474 86.879787 
L 85.439213 88.179056 
L 85.847413 88.213354 
L 85.882116 88.899475 
L 85.949203 88.43495 
L 86.061462 88.474623 
L 86.162717 89.005111 
L 86.195033 88.856019 
L 86.236441 89.025002 
L 86.301925 88.970813 
L 86.402652 89.005111 
L 86.469217 89.473867 
L 86.504285 89.005111 
L 86.758371 89.005111 
L 86.902198 89.227561 
L 87.104702 89.227561 
L 87.31641 89.591323 
L 87.492237 89.557025 
L 87.621006 89.292621 
L 87.749822 89.320322 
L 87.941738 90.062264 
L 88.004337 90.094648 
L 88.157815 89.651061 
L 88.190183 90.558885 
L 88.285383 90.173434 
L 88.412803 89.651061 
L 89.151588 89.729317 
L 89.275438 90.347165 
L 89.408095 90.420139 
L 89.442572 91.28933 
L 89.478512 90.347165 
L 89.513934 90.516149 
L 89.6494 90.411274 
L 90.127419 90.516149 
L 90.262307 90.566439 
L 90.364233 90.820926 
L 90.493502 90.484398 
L 90.52601 90.815173 
L 90.603145 90.576106 
L 90.633699 90.576106 
L 90.81604 91.429953 
L 91.18743 91.429953 
L 91.3298 92.575457 
L 91.362829 91.687825 
L 91.397815 92.650817 
L 91.429959 92.650817 
L 91.610254 93.306787 
L 91.752458 92.784414 
L 92.088114 92.784414 
L 92.22509 93.306787 
L 92.324831 93.567485 
L 92.360337 93.527057 
L 92.473918 93.527057 
L 92.659773 94.118519 
L 92.732492 94.150269 
L 92.883868 95.280952 
L 93.51986 95.337786 
L 93.552892 95.44362 
L 93.690326 96.014994 
L 93.825607 96.061421 
L 93.972886 96.530094 
L 94.107233 96.463405 
L 94.184149 96.736742 
L 94.299047 96.463405 
L 94.365785 96.978504 
L 94.405985 96.957011 
L 94.440515 96.463405 
L 94.514448 96.703797 
L 94.553441 96.939031 
L 94.588598 96.664323 
L 94.735747 96.64283 
L 94.829711 97.049674 
L 94.859623 96.863968 
L 94.923625 97.049674 
L 94.95541 96.917538 
L 95.090371 97.642393 
L 95.161801 97.862663 
L 95.228151 97.642393 
L 95.288848 97.642393 
L 95.420331 98.157493 
L 95.554168 98.157493 
L 95.681851 98.471713 
L 95.846895 98.377762 
L 95.953177 98.655364 
L 96.101072 98.499473 
L 96.557556 98.520966 
L 96.601676 99.064091 
L 96.638213 98.515332 
L 96.671335 98.515332 
L 96.749709 98.684381 
L 96.783543 98.644729 
L 96.8208 98.554984 
L 96.859643 98.676935 
L 96.958726 98.685357 
L 97.093887 99.581241 
L 97.273483 99.679172 
L 97.426433 99.627668 
L 97.868655 99.663555 
L 98.015414 99.663555 
L 98.175031 100.591101 
L 98.216759 100.429499 
L 98.252253 100.633115 
L 98.286042 100.638663 
L 98.424806 100.46309 
L 98.635126 100.453939 
L 98.783623 102.669393 
L 99.098126 103.175209 
L 99.162614 103.222787 
L 99.349095 103.552109 
L 99.411034 103.552109 
L 99.540902 104.33493 
L 99.607755 103.598536 
L 99.674658 103.606768 
L 99.773673 103.598536 
L 99.970018 104.381357 
L 100.038729 104.33493 
L 100.105247 104.33493 
L 100.137746 104.497939 
L 100.198232 104.33493 
L 100.786841 104.355686 
L 100.855781 104.54691 
L 100.888599 104.403263 
L 100.964911 104.372899 
L 101.178693 105.076462 
L 101.24729 105.076462 
L 101.283843 105.217991 
L 101.358007 105.170413 
L 101.461241 105.187626 
L 101.530111 105.556795 
L 101.562388 105.096417 
L 101.71249 105.170413 
L 101.996439 105.170413 
L 102.138806 105.285158 
L 102.50266 105.302371 
L 102.644416 105.52118 
L 102.709189 105.52118 
L 102.93456 106.057219 
L 103.010965 105.853059 
L 103.043025 105.899486 
L 103.150635 106.041549 
L 103.448001 106.041549 
L 103.517138 107.051928 
L 103.556164 106.107122 
L 103.594447 106.122844 
L 103.635352 107.051928 
L 103.695122 106.957897 
L 103.852341 106.082996 
L 104.143462 106.107122 
L 104.24278 107.051928 
L 104.281153 106.822259 
L 104.363475 106.822259 
L 104.502647 107.093375 
L 104.619547 106.984603 
L 104.760912 107.093375 
L 105.188106 107.050177 
L 105.333761 107.260048 
L 105.532564 107.254337 
L 105.572511 108.105111 
L 105.64877 107.672963 
L 105.758776 107.389163 
L 105.800922 107.389163 
L 105.916671 107.574685 
L 106.038171 107.386195 
L 106.202914 108.425459 
L 106.280148 107.493672 
L 106.343436 107.574685 
L 106.422317 107.47303 
L 106.538492 108.381886 
L 106.687405 108.452831 
L 106.90986 108.381886 
L 106.943576 108.323804 
L 107.016903 108.417184 
L 107.20509 108.452831 
L 107.349267 108.347349 
L 107.424229 108.375342 
L 107.573354 108.504368 
L 107.605061 108.452831 
L 107.641327 108.504368 
L 107.681625 109.295161 
L 107.74723 108.504368 
L 107.816418 108.504368 
L 107.9488 108.99307 
L 108.046234 108.869803 
L 108.090349 108.927885 
L 108.27024 108.913376 
L 108.334581 109.004629 
L 108.401036 108.979422 
L 108.531756 108.979422 
L 108.885864 110.04738 
L 109.167298 110.113635 
L 109.3183 113.809138 
L 109.497678 113.809138 
L 109.574867 114.579935 
L 109.613519 114.463832 
L 109.786873 114.476702 
L 109.918696 114.655198 
L 110.061909 114.544905 
L 110.2618 114.494987 
L 110.980673 114.594297 
L 111.12095 115.365094 
L 111.153651 115.365094 
L 111.296264 115.547354 
L 111.331908 115.547354 
L 111.478556 115.317321 
L 111.511856 115.317321 
L 111.612024 115.60288 
L 111.680405 115.406632 
L 111.714895 115.60288 
L 111.88544 115.406632 
L 112.11407 115.849805 
L 112.194768 115.699146 
L 112.302595 115.728682 
L 112.334882 115.646453 
L 112.409141 115.699146 
L 113.268775 115.748001 
L 113.379918 115.799847 
L 113.519119 115.755201 
L 113.601643 116.211617 
L 113.742329 115.740857 
L 114.308493 115.760603 
L 114.440622 116.211617 
L 114.587059 115.888795 
L 114.651113 116.359555 
L 114.714209 116.011153 
L 114.745911 115.895939 
L 114.781658 115.905961 
L 114.919196 116.323732 
L 114.952341 116.323732 
L 115.021169 116.185378 
L 115.085909 116.211617 
L 115.159048 116.211617 
L 115.317914 119.358945 
L 115.358363 119.358945 
L 115.47092 120.47373 
L 115.744706 121.276072 
L 115.851695 121.374425 
L 115.990963 121.495669 
L 116.210928 122.546278 
L 116.277293 122.629968 
L 116.388795 123.459482 
L 116.428151 123.546461 
L 116.462192 123.920057 
L 116.56658 123.857484 
L 116.995933 123.891502 
L 117.117966 124.432536 
L 117.155644 124.079055 
L 117.278673 124.057554 
L 117.382547 124.342451 
L 117.422155 124.286925 
L 117.528182 124.338287 
L 117.641461 124.711884 
L 117.767168 124.798862 
L 117.811911 124.785863 
L 117.900483 124.997354 
L 117.942641 124.923375 
L 118.050844 124.711884 
L 118.199323 125.401326 
L 118.309266 125.366826 
L 118.342211 125.484081 
L 118.458059 126.036281 
L 118.493219 126.036281 
L 118.984991 127.401017 
L 119.151054 127.501102 
L 119.219061 127.621499 
L 119.290805 127.501102 
L 119.352762 127.325564 
L 119.388702 127.371557 
L 119.471689 127.643961 
L 119.508153 127.542367 
L 119.634511 129.946493 
L 119.67631 129.946493 
L 119.837627 130.420374 
L 119.953095 130.204764 
L 119.987547 130.204764 
L 120.12179 130.582558 
L 120.422496 131.083575 
L 120.5386 131.508681 
L 120.612158 130.919295 
L 120.733031 130.984031 
L 120.976555 130.967675 
L 121.04163 130.945974 
L 121.106736 131.153656 
L 121.139097 131.105276 
L 121.202151 130.903495 
L 121.232875 131.122379 
L 121.427126 131.393338 
L 121.769694 131.393338 
L 121.90641 131.738853 
L 122.832713 131.754654 
L 122.96138 131.854197 
L 123.063105 131.827431 
L 123.129727 131.911967 
L 123.166905 131.827431 
L 123.280874 131.811631 
L 123.420859 131.754654 
L 123.46089 131.754654 
L 123.496458 131.99969 
L 123.562961 131.754654 
L 123.833616 131.738853 
L 123.907864 132.240645 
L 123.943411 132.025035 
L 123.974699 132.025035 
L 124.072972 132.475472 
L 124.108532 132.369834 
L 124.210931 132.442426 
L 124.276843 132.355448 
L 124.414399 132.556399 
L 124.597921 132.428225 
L 124.809702 132.847482 
L 124.910613 132.850855 
L 124.950741 133.532801 
L 125.029359 133.001767 
L 125.447881 133.01691 
L 125.589219 133.422529 
L 125.741243 133.305273 
L 125.800158 133.279161 
L 125.875926 133.01691 
L 125.948032 133.043534 
L 125.980122 133.199007 
L 126.040993 133.043534 
L 126.184069 133.067661 
L 126.250175 133.043534 
L 126.283532 133.592255 
L 126.316962 133.043534 
L 126.415542 133.123138 
L 126.585057 133.043534 
L 126.718744 133.38876 
L 126.782208 133.152309 
L 126.815974 133.291647 
L 126.849712 133.633799 
L 126.919401 133.526965 
L 126.988602 133.526965 
L 127.025574 133.666304 
L 127.099948 133.609156 
L 127.131906 133.526965 
L 127.166475 133.700079 
L 127.370361 133.724206 
L 127.536084 135.116881 
L 127.608284 135.116881 
L 127.854329 135.8022 
L 128.077617 135.8022 
L 128.219004 135.944471 
L 128.254086 135.944471 
L 128.440126 136.503853 
L 128.648331 136.507569 
L 128.717276 136.823683 
L 128.749757 136.507569 
L 128.783382 136.503853 
L 128.869939 136.87774 
L 128.977276 136.496675 
L 129.090846 136.823683 
L 129.246361 136.823683 
L 129.343452 136.919209 
L 129.377119 136.840336 
L 129.520772 137.21085 
L 130.694825 137.233599 
L 130.831076 137.160394 
L 130.934489 137.296338 
L 130.967374 137.25592 
L 131.004023 137.25592 
L 131.074821 137.381466 
L 131.109526 137.3205 
L 131.252238 137.369701 
L 131.466419 137.607499 
L 131.620672 137.658508 
L 131.688567 137.772889 
L 131.726463 137.756553 
L 131.876812 137.614637 
L 131.943019 137.655135 
L 131.975151 138.169153 
L 132.039193 137.833593 
L 132.167913 137.807975 
L 132.272145 138.410478 
L 132.304731 138.210002 
L 132.371078 138.225145 
L 132.495531 138.550164 
L 132.863092 138.550164 
L 132.996797 138.878038 
L 133.064438 138.92154 
L 133.104215 139.030465 
L 133.179822 138.958664 
L 133.743436 138.865027 
L 133.806899 139.238838 
L 133.87101 139.231701 
L 134.003918 139.25452 
L 134.105199 139.543474 
L 134.143483 139.384128 
L 134.252322 139.374844 
L 134.437709 139.77347 
L 134.476264 139.693744 
L 134.518095 139.687472 
L 134.557935 139.958069 
L 134.623053 139.691199 
L 134.732931 140.198208 
L 134.84486 140.035986 
L 134.928261 140.034687 
L 135.001099 140.295114 
L 135.036247 140.041824 
L 135.256712 140.035986 
L 135.442748 140.35758 
L 135.512392 140.347885 
L 135.656073 140.07121 
L 135.722719 140.260646 
L 135.791649 140.212527 
L 135.85661 140.054747 
L 135.892413 140.094685 
L 136.024442 140.26858 
L 136.157122 140.238004 
L 136.259936 140.724724 
L 136.292613 140.553865 
L 136.690884 140.663759 
L 136.786144 140.74469 
L 136.850217 140.683186 
L 136.878686 140.663759 
L 136.9125 140.74469 
L 137.138787 140.7375 
L 137.172794 140.663759 
L 137.205006 140.689047 
L 137.34016 140.818369 
L 137.373122 140.818369 
L 137.4373 140.689047 
L 137.471179 140.779047 
L 137.802593 141.442541 
L 137.83601 141.417667 
L 137.933262 141.417667 
L 137.9675 141.652822 
L 138.066358 141.568124 
L 138.160545 141.568124 
L 138.195235 141.803278 
L 138.265134 141.602224 
L 138.298644 141.572586 
L 138.332884 141.64451 
L 138.470909 143.595009 
L 138.569088 143.523085 
L 138.681822 143.359854 
L 138.752662 143.523085 
L 138.822782 143.48278 
L 139.379791 143.774521 
L 139.516384 143.965711 
L 139.709584 143.953338 
L 139.834236 143.767815 
L 139.896951 144.022164 
L 139.962829 143.965711 
L 140.164324 144.054644 
L 140.401953 144.171738 
L 140.435456 143.983157 
L 140.505937 144.078316 
L 140.573858 144.185995 
L 140.605221 144.216411 
L 140.736051 144.685398 
L 140.90245 144.78204 
L 141.011894 144.974716 
L 141.044024 144.932587 
L 141.141473 144.78204 
L 141.254089 145.163935 
L 141.291123 145.113533 
L 141.32604 145.113533 
L 141.528766 145.45068 
L 141.794068 145.45141 
L 141.949583 145.931994 
L 142.523855 146.006836 
L 142.669741 146.129032 
L 143.129329 146.136367 
L 143.16216 146.240157 
L 143.229486 146.129032 
L 143.361584 146.14935 
L 143.551916 146.490282 
L 144.033581 146.56342 
L 144.224751 146.655322 
L 144.259643 146.56342 
L 144.293314 146.593367 
L 144.325972 146.707562 
L 144.391039 146.56342 
L 144.618343 146.778249 
L 144.746658 146.655322 
L 144.78015 146.655322 
L 144.812687 146.774165 
L 144.877931 146.655322 
L 144.910769 146.655322 
L 144.938296 146.965806 
L 145.003195 146.655322 
L 145.300271 146.655322 
L 145.331423 146.544197 
L 145.395659 146.667124 
L 145.705253 146.667124 
L 145.768478 146.544197 
L 145.829837 146.599078 
L 146.049797 146.844092 
L 146.145676 146.778249 
L 146.298304 146.864811 
L 147.722682 146.82382 
L 147.850897 147.134304 
L 147.910625 146.82382 
L 147.975572 146.984222 
L 148.132428 146.809778 
L 148.162972 146.809778 
L 148.286351 147.676716 
L 148.316033 147.676716 
L 148.444066 147.9872 
L 148.475278 147.9872 
L 148.505664 147.872996 
L 148.538327 147.9872 
L 148.691226 148.235907 
L 148.722558 148.175365 
L 148.756366 148.217817 
L 148.879657 148.785878 
L 149.003138 148.611434 
L 149.123823 148.785878 
L 149.822643 148.845362 
L 149.915108 148.946651 
L 149.979631 148.859593 
L 150.033245 148.946841 
L 150.467251 148.845551 
L 150.715661 148.845551 
L 151.653743 148.845551 
L 151.683303 149.067867 
L 151.746701 148.845551 
L 152.058877 149.044082 
L 152.120311 149.152325 
L 152.152433 149.058123 
L 152.474947 149.152325 
L 152.534474 149.253615 
L 152.568572 149.152325 
L 152.630202 149.166046 
L 152.723782 149.603672 
L 152.784856 149.166046 
L 152.844322 149.297747 
L 153.560651 149.399037 
L 153.838765 149.412758 
L 154.347787 149.428428 
L 154.436585 149.533784 
L 154.497874 149.635074 
L 154.528752 149.412758 
L 154.775264 151.10039 
L 154.80786 151.10039 
L 154.931704 150.962954 
L 154.996559 150.962954 
L 155.183802 151.561746 
L 155.216245 151.561746 
L 155.340723 151.005991 
L 155.6566 151.005991 
L 155.719225 151.152615 
L 155.750463 151.005991 
L 155.874217 150.958823 
L 155.90861 151.249802 
L 156.004566 151.220862 
L 156.095304 151.180123 
L 156.218595 150.958823 
L 156.429318 151.103406 
L 156.527008 151.103406 
L 156.651007 153.577403 
L 156.711169 153.588957 
L 156.742852 154.018453 
L 156.806529 153.714839 
L 156.955712 153.762008 
L 157.080454 154.206968 
L 157.110842 154.206968 
L 157.235501 154.429284 
L 157.388635 154.477103 
L 157.453653 154.870334 
L 157.484893 154.429284 
L 157.516921 154.579783 
L 157.578563 154.429284 
L 157.610476 154.477103 
L 157.765953 155.277921 
L 157.797051 155.277921 
L 157.862014 155.055606 
L 157.896291 155.539961 
L 157.985279 155.467814 
L 158.016804 155.536477 
L 158.113761 156.01263 
L 158.142586 155.980094 
L 158.233005 156.421144 
L 158.263704 156.01263 
L 158.324882 155.980094 
L 158.545619 157.643278 
L 158.578827 157.643278 
L 158.701955 157.877815 
L 158.76442 157.877815 
L 158.893384 158.152106 
L 159.081985 158.177809 
L 159.585465 158.232766 
L 159.866612 159.008609 
L 159.896358 158.921272 
L 160.021428 158.597372 
L 160.082015 158.609137 
L 160.112029 158.739831 
L 160.205632 158.671039 
L 160.236983 158.756492 
L 160.326949 158.717311 
L 160.420346 158.735275 
L 160.603756 159.323827 
L 160.696277 158.778482 
L 160.729961 158.827642 
L 160.862031 158.825314 
L 160.923155 158.80735 
L 160.983596 158.993718 
L 161.01537 158.745946 
L 161.047397 158.745946 
L 161.079532 158.89181 
L 161.143582 158.774862 
L 161.269872 158.87825 
L 161.642522 158.951532 
L 162.053426 158.989474 
L 162.237348 159.224973 
L 162.26901 159.185833 
L 162.30006 159.224973 
L 162.456661 159.392496 
L 162.611801 159.620442 
L 162.645876 159.56264 
L 162.739534 159.550916 
L 162.895338 159.864271 
L 163.139636 159.952237 
L 163.232143 160.517985 
L 163.261605 160.469794 
L 163.357631 160.469794 
L 163.389665 161.166156 
L 163.45203 160.469794 
L 163.484453 160.480049 
L 163.515727 160.698381 
L 163.575875 160.448459 
L 164.003777 160.484745 
L 164.127407 160.698381 
L 164.157983 160.585547 
L 164.280602 160.637733 
L 164.314354 160.743355 
L 164.373922 160.585547 
L 164.431783 160.615117 
L 164.492885 160.765943 
L 164.523357 160.585547 
L 164.613468 160.585547 
L 164.644222 160.704478 
L 164.705512 160.615117 
L 164.733779 160.522063 
L 164.799647 160.585547 
L 164.953201 160.63173 
L 165.078433 160.701256 
L 165.206029 160.701256 
L 165.299056 160.990535 
L 165.330618 160.851271 
L 165.676646 160.851271 
L 165.709382 161.451752 
L 165.769441 160.851271 
L 165.803169 160.851271 
L 165.926633 161.565598 
L 166.051244 161.565598 
L 166.143034 162.170156 
L 166.174056 162.158539 
L 166.237848 162.158539 
L 166.269362 162.308743 
L 166.333007 162.170156 
L 166.394494 162.180161 
L 166.549636 162.442119 
L 167.010359 162.442431 
L 167.164798 162.65792 
L 167.290187 162.680232 
L 167.322765 162.779896 
L 167.354124 162.509722 
L 167.447066 162.636404 
L 167.760196 163.20167 
L 167.85336 163.169147 
L 167.887007 163.240105 
L 167.988838 163.725338 
L 168.114758 163.295762 
L 168.60759 163.377176 
L 168.637394 163.52738 
L 168.730432 163.47684 
L 168.790439 163.304366 
L 168.853334 163.40403 
L 168.980645 163.36545 
L 169.044284 163.265786 
L 169.105167 163.304366 
L 169.160842 163.384717 
L 169.251635 163.315983 
L 169.316525 163.390185 
L 169.475713 163.429574 
L 169.53911 163.401085 
L 169.572776 163.481437 
L 170.068477 163.56391 
L 170.184306 163.56391 
L 170.341554 164.323575 
L 170.467409 164.095263 
L 170.781024 164.095263 
L 170.907424 164.707754 
L 171.313865 164.768238 
L 171.5076 166.506052 
L 171.539219 165.151347 
L 171.632017 165.167603 
L 171.84911 165.267267 
L 171.97429 165.267267 
L 172.130814 165.324235 
L 172.161341 166.225906 
L 172.192845 165.267267 
L 172.224018 165.267267 
L 172.443574 165.27035 
L 172.47461 165.559844 
L 172.572352 165.481164 
L 172.730863 165.439428 
L 172.858561 165.773742 
L 173.389614 165.875091 
L 173.544427 165.838843 
L 173.668489 167.186955 
L 174.042082 167.233515 
L 174.321375 168.24524 
L 174.386697 168.044354 
L 174.786776 168.027768 
L 174.878315 167.765488 
L 174.91126 167.901672 
L 175.00362 167.765488 
L 175.127288 167.865314 
L 175.253437 167.765488 
L 175.380595 167.913289 
L 175.623562 168.202369 
L 175.75254 167.868315 
L 175.81763 167.954677 
L 175.973957 168.084936 
L 176.037552 167.954677 
L 176.067404 167.96465 
L 176.128587 168.185298 
L 176.192746 168.161959 
L 176.529951 168.12338 
L 176.623379 168.406342 
L 176.657119 168.392727 
L 176.784814 168.184543 
L 177.000292 168.1865 
L 177.187206 168.955688 
L 177.216728 168.392977 
L 177.279587 169.026091 
L 177.368081 169.113743 
L 177.43011 169.227604 
L 177.460704 169.139952 
L 177.587899 169.041634 
L 177.618021 168.988021 
L 177.683078 169.045939 
L 177.781337 169.063886 
L 177.935261 169.998404 
L 177.966399 169.610093 
L 178.060663 169.667062 
L 178.307581 169.742294 
L 178.497692 170.208978 
L 178.593043 170.247048 
L 178.719977 170.575877 
L 178.81385 170.360909 
L 178.843807 170.376177 
L 179.66703 170.466697 
L 179.697413 170.689738 
L 179.792268 170.566523 
L 179.884846 170.466697 
L 180.115133 170.466697 
L 180.30309 170.507385 
L 180.399645 170.524567 
L 180.526059 170.780258 
L 180.713006 170.780258 
L 180.745287 171.021274 
L 180.80459 170.780258 
L 181.182128 170.836214 
L 181.245648 170.937978 
L 181.305569 170.895696 
L 181.459755 170.83974 
L 181.584926 170.836214 
L 181.718778 170.836214 
L 181.748031 170.94857 
L 181.808626 170.836214 
L 181.879148 170.836214 
L 181.909406 171.077229 
L 181.973173 170.836214 
L 182.402648 170.935826 
L 182.526593 171.141164 
L 182.716423 171.241733 
L 182.894584 171.294812 
L 182.957225 171.309055 
L 183.016599 171.455993 
L 183.079747 171.437743 
L 183.109145 171.437743 
L 183.171905 171.24801 
L 183.202424 171.334243 
L 183.360145 171.481117 
L 183.643113 171.580504 
L 183.796127 171.647439 
L 183.918407 171.660981 
L 184.142986 171.621081 
L 184.201242 172.04579 
L 184.264472 171.870204 
L 184.386197 171.895882 
L 184.481251 171.984315 
L 184.576276 172.036232 
L 184.732719 172.432857 
L 184.859859 172.258768 
L 184.986875 172.334 
L 185.018434 172.334 
L 185.172843 172.544033 
L 185.397508 172.586712 
L 185.490435 172.759615 
L 185.523579 172.751962 
L 185.681267 172.718122 
L 185.993943 172.792304 
L 186.120078 172.92948 
L 186.181178 172.92948 
L 186.211019 172.752884 
L 186.274366 172.867305 
L 186.370249 173.041162 
L 186.498659 172.92948 
L 186.595776 172.975564 
L 186.688907 173.077499 
L 186.752613 172.975564 
L 186.813202 173.047878 
L 186.874664 173.037347 
L 187.189953 173.618992 
L 187.883577 173.728207 
L 187.91564 173.848905 
L 187.977298 173.728207 
L 188.654648 173.769292 
L 188.714237 174.0998 
L 188.809379 173.912586 
L 188.934732 173.769292 
L 189.091916 173.769292 
L 189.84395 173.779507 
L 189.967089 174.186473 
L 190.15149 174.269662 
L 190.410267 174.61663 
L 191.506241 174.682451 
L 191.568376 174.813083 
L 191.666197 174.735191 
L 192.005422 174.785016 
L 192.037706 174.859198 
L 192.06816 174.791601 
L 192.102863 175.458313 
L 192.165366 174.892766 
L 192.200067 174.892766 
L 192.229774 175.013751 
L 192.293373 174.892766 
L 192.669351 174.958116 
L 192.734768 175.029403 
L 192.76869 174.958116 
L 192.962606 174.958116 
L 193.149721 175.566063 
L 193.376499 175.601315 
L 193.504697 175.780043 
L 193.5997 175.539921 
L 193.662079 175.624696 
L 193.819397 175.551308 
L 193.939257 175.791941 
L 194.196531 175.473806 
L 194.228054 175.503116 
L 194.260704 175.609007 
L 194.29265 176.462581 
L 194.355203 175.609007 
L 195.112587 175.625944 
L 195.23728 175.773978 
L 195.269543 175.808099 
L 195.395845 176.61472 
L 195.458866 176.61472 
L 195.581531 176.843454 
L 195.614696 176.843454 
L 195.645098 177.102878 
L 195.708596 176.87078 
L 195.958428 176.843454 
L 195.991654 177.102878 
L 196.055772 176.843454 
L 196.491633 176.85654 
L 196.650402 177.087899 
L 196.774908 177.135226 
L 197.323845 177.231435 
L 197.356777 177.300628 
L 197.482039 177.066033 
L 197.98351 177.279695 
L 198.1395 177.658558 
L 198.172405 177.558486 
L 198.232307 177.633193 
L 198.414609 177.996136 
L 198.4483 177.792699 
L 198.510618 177.948167 
L 198.54042 177.948167 
L 198.66611 178.162342 
L 198.854321 178.265408 
L 198.945708 178.547507 
L 198.975831 178.275801 
L 199.104002 178.186675 
L 199.194081 178.186675 
L 199.314788 178.596843 
L 199.346155 178.547069 
L 199.498681 178.619228 
L 199.625774 178.829492 
L 199.687404 178.672195 
L 199.75269 178.714389 
L 199.846157 178.672195 
L 199.877598 178.746642 
L 199.943526 178.672195 
L 200.72273 178.58124 
L 200.84916 178.836585 
L 201.030057 178.791952 
L 201.060284 178.951808 
L 201.155521 178.907545 
L 201.185666 178.908352 
L 201.217125 179.104914 
L 201.309636 179.06065 
L 201.343092 179.179098 
L 201.434065 179.104914 
L 201.465117 178.929546 
L 201.49561 179.13982 
L 201.547366 179.059843 
L 201.702966 179.121092 
L 201.887708 179.447613 
L 201.979972 179.447613 
L 202.105378 179.624115 
L 202.29613 179.580406 
L 202.328047 179.826022 
L 202.39274 179.672413 
L 202.645679 179.77894 
L 202.774802 179.870947 
L 202.836071 179.870947 
L 202.933221 180.128376 
L 202.964945 180.087302 
L 203.023781 179.863435 
L 203.084952 180.028856 
L 203.183681 180.108081 
L 203.309241 180.231397 
L 203.43499 180.155702 
L 203.528336 180.155702 
L 203.6528 180.71038 
L 203.83439 180.737706 
L 204.996072 180.761028 
L 205.12263 181.598669 
L 206.120119 181.648193 
L 206.24444 181.75274 
L 206.900027 181.648193 
L 207.149292 181.635348 
L 207.212807 181.633183 
L 207.339582 181.843725 
L 207.463547 181.633183 
L 207.696509 181.737731 
L 208.13623 181.851618 
L 208.421818 181.681397 
L 208.482466 181.893373 
L 208.513059 181.712251 
L 208.609243 181.826138 
L 208.640954 181.712251 
L 208.792237 181.719763 
L 208.946903 181.929255 
L 209.728872 182.027159 
L 209.854261 182.027159 
L 209.944494 182.367731 
L 209.977176 182.239135 
L 210.132282 182.1933 
L 210.163337 182.1933 
L 210.316893 182.575537 
L 211.608289 182.623458 
L 211.640276 182.796546 
L 211.698635 182.623458 
L 212.166194 182.717009 
L 212.229451 182.815896 
L 212.261192 182.699157 
L 212.605247 182.626627 
L 212.636637 182.804954 
L 212.701406 182.626627 
L 212.856542 182.712316 
L 213.012987 183.314497 
L 213.356428 183.389822 
L 213.507985 183.428717 
L 213.600573 183.463322 
L 213.632144 183.299667 
L 213.700314 183.421605 
L 213.951823 183.367059 
L 214.049591 183.309388 
L 214.078983 183.340819 
L 214.663591 183.421605 
L 214.789317 183.452332 
L 214.850771 183.43339 
L 214.91486 183.403203 
L 214.977186 183.567522 
L 215.262743 183.54912 
L 215.577957 183.600956 
L 215.733568 183.753225 
L 216.050842 183.753225 
L 216.171934 184.208652 
L 217.311839 184.211703 
L 217.343257 184.333222 
L 217.373689 184.178026 
L 217.434248 184.241401 
L 217.531286 184.274811 
L 217.686987 184.408522 
L 218.017097 184.513361 
L 218.176887 184.544983 
L 218.207975 184.872094 
L 218.27219 184.549838 
L 218.399834 184.662843 
L 218.46249 184.591123 
L 218.492982 184.615119 
L 218.621868 186.394628 
L 218.83881 186.394628 
L 218.872689 186.653333 
L 218.904334 186.294599 
L 218.936692 186.294599 
L 219.250275 186.545431 
L 219.406133 186.39033 
L 219.528703 186.545431 
L 219.69121 186.548265 
L 219.752845 186.904164 
L 219.784617 186.661738 
L 219.815822 186.548265 
L 219.879948 186.661738 
L 220.167929 186.687203 
L 220.199936 186.80351 
L 220.263839 186.733343 
L 220.424364 186.687203 
L 221.181341 186.758744 
L 221.491312 187.243511 
L 221.616299 187.243511 
L 221.648965 187.382903 
L 221.67912 187.11336 
L 221.710101 187.243511 
L 221.770273 187.162813 
L 221.800929 187.11336 
L 221.866749 187.205419 
L 222.782292 187.233181 
L 222.817328 187.769292 
L 222.877923 187.474123 
L 222.941376 187.286352 
L 223.006576 187.363333 
L 223.127528 187.363333 
L 223.283285 187.467614 
L 223.35034 187.608971 
L 223.381943 187.49824 
L 223.566454 187.467614 
L 223.696394 188.215732 
L 223.730869 187.950553 
L 223.7622 188.500751 
L 223.794762 188.500751 
L 223.884408 188.359393 
L 223.914465 188.4327 
L 224.003271 188.359393 
L 224.03527 188.420422 
L 224.188513 188.359393 
L 224.220229 188.359393 
L 224.253191 188.500751 
L 224.314101 188.346144 
L 224.439495 188.346144 
L 224.470413 188.487502 
L 224.559093 188.462451 
L 224.589935 188.346144 
L 224.621782 188.50374 
L 224.683402 188.37535 
L 224.871903 188.587974 
L 224.90368 188.36945 
L 224.964935 188.458694 
L 225.066607 188.600421 
L 225.194544 188.41258 
L 225.410382 188.571737 
L 225.537698 188.453876 
L 225.570452 188.453876 
L 225.601722 188.701896 
L 225.633132 188.321617 
L 225.69567 188.582085 
L 225.884088 188.714344 
L 225.976327 188.582085 
L 226.103229 188.745873 
L 226.134874 188.628199 
L 226.165525 188.830106 
L 226.801242 188.836374 
L 228.06075 188.940775 
L 228.184504 188.972884 
L 228.308036 189.282065 
L 228.370653 189.280631 
L 228.433709 189.399926 
L 228.4657 189.282065 
L 228.560746 189.37885 
L 228.683032 189.448986 
L 228.776364 189.516631 
L 228.900455 189.599268 
L 229.678988 189.706609 
L 230.139244 189.836509 
L 230.264547 190.040806 
L 230.327457 190.040806 
L 230.456642 189.842701 
L 230.610827 189.892288 
L 230.762451 190.096584 
L 230.825889 190.096584 
L 230.889982 190.289197 
L 230.953757 190.212891 
L 231.106649 190.040806 
L 231.199712 190.072817 
L 231.227802 190.040806 
L 231.475608 190.040806 
L 231.536938 190.384426 
L 231.567217 190.038868 
L 232.253426 190.065185 
L 232.380665 190.233418 
L 232.504262 190.233418 
L 232.568408 190.260796 
L 232.626278 190.144489 
L 232.659066 190.233418 
L 233.038139 190.233418 
L 233.225265 190.757945 
L 233.349539 190.757945 
L 233.503638 190.386302 
L 233.564228 190.446099 
L 233.594042 190.561119 
L 233.62518 190.400652 
L 233.656997 190.400652 
L 234.242543 190.46199 
L 234.365651 190.807548 
L 234.748094 190.914734 
L 234.841724 190.941876 
L 234.873517 191.196003 
L 234.937041 190.941876 
L 235.213587 190.965161 
L 235.274929 191.093295 
L 235.302757 190.9562 
L 235.543458 190.979076 
L 235.672528 191.079611 
L 235.827796 191.110243 
L 236.233762 191.180426 
L 236.362272 191.435319 
L 236.454561 191.203525 
L 236.584361 191.458417 
L 236.708522 191.435319 
L 236.813326 191.614387 
L 236.965284 191.435319 
L 237.090299 191.485485 
L 237.122465 191.435319 
L 237.684818 191.41253 
L 237.714345 191.591599 
L 237.776001 191.41253 
L 237.870011 191.435762 
L 237.996318 191.56882 
L 238.059609 191.41253 
L 238.121414 191.450927 
L 238.18459 191.450927 
L 238.312227 191.613499 
L 238.40717 191.589809 
L 238.655028 191.801754 
L 238.686137 191.648078 
L 238.751504 191.702999 
L 238.783082 192.042635 
L 238.876158 191.863567 
L 239.393484 191.900767 
L 239.424937 192.249632 
L 239.48411 191.985217 
L 239.734566 191.932811 
L 240.357682 191.990655 
L 240.456652 192.332064 
L 240.488705 191.994144 
L 240.577545 192.055479 
L 240.701455 191.990655 
L 240.825425 191.990655 
L 240.855494 192.12179 
L 240.917288 191.990655 
L 241.067377 191.990655 
L 241.097466 192.421953 
L 241.164641 191.990655 
L 241.259006 191.990655 
L 241.289322 192.44849 
L 241.381003 192.169724 
L 241.684987 192.279273 
L 241.837382 192.301362 
L 241.990645 192.279273 
L 242.114543 192.518254 
L 242.146101 192.650253 
L 242.176015 192.361393 
L 242.238413 192.279273 
L 242.36116 192.737108 
L 242.701143 192.844706 
L 242.860268 192.976344 
L 242.919674 192.91152 
L 243.075366 193.340597 
L 243.104855 193.340597 
L 243.164743 193.579578 
L 243.227486 193.490057 
L 243.322739 193.443468 
L 243.385308 193.643006 
L 243.450206 193.443468 
L 243.480698 193.491588 
L 243.604423 193.579578 
L 243.633442 193.49128 
L 243.69435 193.579271 
L 243.815326 193.714436 
L 243.971218 193.679493 
L 244.339855 193.726082 
L 244.468673 194.918604 
L 244.529269 194.918604 
L 244.651299 194.72917 
L 245.359922 194.797635 
L 245.48162 195.014164 
L 245.574451 194.911432 
L 245.604667 194.923507 
L 246.04334 194.911432 
L 246.075361 195.150274 
L 246.166623 195.012822 
L 246.527908 195.061166 
L 246.559413 195.133263 
L 246.623775 195.055446 
L 246.656076 195.059374 
L 246.799971 195.182241 
L 246.831895 195.182241 
L 246.955485 195.064398 
L 247.047946 195.064398 
L 247.112482 195.176736 
L 247.144749 195.064398 
L 247.27426 195.064398 
L 247.305108 195.310645 
L 247.367656 195.064398 
L 247.923618 195.043849 
L 248.048799 195.290096 
L 248.108015 195.354919 
L 248.140313 195.290096 
L 248.172058 195.290096 
L 248.292378 195.402433 
L 248.478991 195.321111 
L 248.630597 195.31151 
L 249.128458 195.402433 
L 249.256023 195.466479 
L 249.286315 195.466479 
L 249.405931 195.594797 
L 249.495513 195.504787 
L 249.708772 195.990005 
L 249.740959 195.904302 
L 249.893859 195.962572 
L 250.110306 195.928592 
L 250.263763 196.08552 
L 250.417072 196.08552 
L 250.574203 196.271258 
L 250.607291 196.08552 
L 250.667608 196.23761 
L 251.157329 196.23761 
L 251.284048 196.423348 
L 251.502639 196.314367 
L 251.561908 196.415992 
L 251.621583 196.23761 
L 251.652235 196.415992 
L 251.715584 196.23761 
L 251.744843 196.23761 
L 251.775616 196.423348 
L 251.83576 196.267412 
L 251.894557 196.267412 
L 252.020127 196.423348 
L 252.442164 196.99565 
L 252.472106 196.822121 
L 253.413435 196.912366 
L 253.507292 197.10142 
L 253.599022 196.957728 
L 253.864491 196.947472 
L 253.956838 197.150705 
L 254.050846 196.920759 
L 254.018431 197.198805 
L 254.08222 196.945957 
L 254.266725 196.920759 
L 254.451943 197.253752 
L 254.514869 196.973277 
L 254.57488 197.048912 
L 254.697532 196.973277 
L 254.816343 197.296673 
L 255.177078 197.345933 
L 255.208372 197.641663 
L 255.266654 197.432823 
L 255.390164 197.361634 
L 255.541629 197.463321 
L 255.60303 197.408961 
L 255.662147 197.465547 
L 255.692981 197.488505 
L 255.722297 197.398451 
L 255.876004 197.361634 
L 255.903777 197.361634 
L 255.995231 197.671751 
L 256.027593 197.608642 
L 256.149215 197.630099 
L 256.27188 197.882777 
L 256.395138 197.972831 
L 256.691992 197.986501 
L 256.843431 198.331491 
L 256.996502 197.970801 
L 257.060793 197.933984 
L 257.213993 198.377619 
L 257.338375 198.275536 
L 257.402268 198.275536 
L 257.493909 198.4322 
L 257.55568 198.288486 
L 257.587411 198.45882 
L 257.679066 198.367264 
L 257.828216 198.275536 
L 257.946173 198.319012 
L 258.007296 198.442579 
L 258.038323 198.284667 
L 258.81105 198.296261 
L 258.966759 198.528873 
L 259.0924 198.403373 
L 259.647007 198.504344 
L 259.678317 198.663769 
L 259.773018 198.625771 
L 259.833108 198.625771 
L 259.959911 198.940052 
L 260.111171 199.011513 
L 260.234899 199.176179 
L 260.362413 199.011513 
L 260.571316 199.011513 
L 260.601872 199.138167 
L 260.695127 199.055268 
L 261.248924 199.122141 
L 261.372042 199.300007 
L 261.529084 199.213348 
L 261.652915 199.589431 
L 261.875972 199.624092 
L 261.998083 199.825558 
L 262.710453 199.834978 
L 262.741728 199.96826 
L 262.80428 199.834978 
L 262.951763 199.882736 
L 263.13983 200.102861 
L 263.26051 200.102861 
L 263.290827 199.964016 
L 263.354747 200.102861 
L 263.907166 200.281051 
L 264.102265 200.495879 
L 264.132667 200.312292 
L 264.344204 200.304821 
L 264.467111 200.488407 
L 264.711882 200.507106 
L 264.744276 200.615735 
L 264.802971 200.507106 
L 265.449317 200.507106 
L 265.573249 200.706723 
L 265.637484 200.608474 
L 265.792539 201.286181 
L 266.741715 201.339066 
L 266.773832 201.487266 
L 266.835059 201.346824 
L 266.867224 201.339066 
L 266.995985 201.447136 
L 268.003358 201.690426 
L 268.036353 201.824052 
L 268.108739 201.690426 
L 268.791926 201.757909 
L 268.910009 201.854234 
L 268.97236 201.920594 
L 269.033576 201.798317 
L 269.064786 201.908443 
L 269.131352 201.757909 
L 269.232595 201.836618 
L 269.433794 201.745757 
L 269.748012 201.7761 
L 269.880846 201.879361 
L 270.595281 201.89995 
L 270.751528 202.141337 
L 271.768141 202.173584 
L 271.799881 202.4788 
L 271.859889 202.173584 
L 271.893232 202.173584 
L 271.925732 202.356628 
L 271.989449 202.21812 
L 272.752842 202.305376 
L 272.846591 202.346555 
L 272.940401 202.698383 
L 273.000105 202.346555 
L 273.063693 202.383429 
L 273.222401 202.698383 
L 275.240659 202.603822 
L 275.396871 202.586261 
L 275.582174 202.801878 
L 275.702929 202.586261 
L 275.761994 202.586261 
L 275.795955 202.759212 
L 275.855507 202.586261 
L 276.021925 202.58025 
L 276.152298 202.887987 
L 276.312744 202.921745 
L 276.472277 203.103604 
L 277.659713 203.085383 
L 277.754825 203.115725 
L 277.870315 203.417501 
L 278.114434 203.442698 
L 278.266859 203.460166 
L 278.388442 203.549928 
L 279.006821 203.641054 
L 279.059568 203.755478 
L 279.121425 203.642428 
L 279.240693 203.635202 
L 279.271989 203.946468 
L 279.334848 203.734703 
L 279.862327 203.800771 
L 280.016752 203.888675 
L 280.133833 203.923554 
L 280.257972 203.928309 
L 280.380599 204.037977 
L 280.441754 203.906467 
L 280.472023 203.989334 
L 280.694828 203.949325 
L 281.036611 204.031779 
L 281.156567 204.270683 
L 281.250277 204.175553 
L 281.2801 204.189317 
L 281.311067 204.189317 
L 281.436449 204.500583 
L 281.617737 204.52578 
L 281.775491 204.501788 
L 281.89881 204.933754 
L 282.021582 204.932549 
L 282.175251 204.861899 
L 282.5197 204.963408 
L 282.611212 204.950387 
L 282.641406 205.209733 
L 282.703228 204.878427 
L 282.854479 204.913849 
L 283.16739 204.913849 
L 283.229343 205.286819 
L 283.291533 205.243408 
L 283.447437 205.314138 
L 283.852746 205.314138 
L 283.975212 205.620139 
L 284.321523 205.715269 
L 284.507739 205.799684 
L 285.814695 205.883699 
L 285.845329 205.966892 
L 285.936241 205.922126 
L 286.028536 205.84445 
L 286.05846 205.90404 
L 286.428573 205.985339 
L 286.58692 206.020005 
L 286.680989 206.083382 
L 286.868423 206.244917 
L 287.060311 206.162342 
L 287.092975 206.363666 
L 287.156759 206.244917 
L 287.347275 206.244917 
L 287.379704 206.359013 
L 287.440366 206.244917 
L 287.746261 206.30828 
L 287.777164 206.421883 
L 287.840875 206.251734 
L 287.904266 206.265908 
L 288.08893 206.512887 
L 288.338849 206.512887 
L 288.462808 206.839952 
L 288.55647 206.800525 
L 288.711243 206.860066 
L 288.99543 206.90051 
L 289.121739 207.014113 
L 289.214517 206.993122 
L 289.248152 207.054174 
L 289.624124 207.142083 
L 289.746583 207.142083 
L 289.840564 207.715325 
L 289.871291 207.608776 
L 290.154393 207.642129 
L 290.835993 207.714449 
L 290.927128 207.81749 
L 290.959893 207.795133 
L 291.205439 207.82276 
L 291.398291 208.307653 
L 292.729806 208.329631 
L 292.857392 208.505019 
L 293.419526 208.531153 
L 293.450596 208.378024 
L 293.541116 208.412655 
L 293.698166 208.412655 
L 293.821738 208.533065 
L 293.945917 208.441439 
L 293.977647 208.518781 
L 294.039085 208.441439 
L 295.327682 208.39035 
L 295.447673 209.883293 
L 295.543269 209.929479 
L 295.575661 210.168041 
L 295.636052 210.007599 
L 295.727793 209.917414 
L 295.759964 209.952235 
L 295.792084 209.952235 
L 295.949053 210.257073 
L 296.834426 210.329101 
L 297.021944 210.515302 
L 297.210541 210.56994 
L 297.240608 210.664449 
L 297.273167 211.408728 
L 297.341679 210.710748 
L 297.850196 210.710748 
L 297.977864 210.894415 
L 299.218169 210.874672 
L 299.374791 210.615466 
L 299.53363 211.170616 
L 299.658806 211.71927 
L 299.880272 211.71927 
L 299.942406 211.562559 
L 299.973529 211.604309 
L 300.00406 211.71927 
L 300.065303 211.563787 
L 300.192837 211.639938 
L 300.288844 211.562559 
L 300.441114 211.71927 
L 300.564928 211.896349 
L 300.629241 211.71927 
L 300.691991 211.71927 
L 300.723724 211.896349 
L 300.785744 211.71927 
L 300.819761 211.71927 
L 300.978018 212.044976 
L 301.414145 212.14552 
L 301.53958 212.314516 
L 301.755984 212.227621 
L 301.880863 212.237649 
L 302.061238 212.227621 
L 302.125392 212.432895 
L 302.156322 212.227621 
L 302.868885 212.229375 
L 302.998647 212.510273 
L 303.062588 212.510273 
L 303.092438 212.292231 
L 303.155869 212.420985 
L 303.504383 212.420985 
L 303.536055 212.572767 
L 303.602491 212.412542 
L 303.919041 212.391877 
L 304.20182 212.379739 
L 304.386433 212.482156 
L 304.542992 212.402326 
L 304.730438 212.367789 
L 304.794519 212.367789 
L 304.918823 212.492864 
L 304.948419 212.492864 
L 305.013722 212.614808 
L 305.045299 212.528287 
L 305.137569 212.528287 
L 305.169057 212.65023 
L 305.22988 212.540196 
L 305.48197 212.536447 
L 305.636643 212.725722 
L 305.79527 212.782855 
L 306.160983 212.883981 
L 306.316552 213.014864 
L 306.472989 212.837784 
L 306.501261 213.014864 
L 306.562482 212.911371 
L 306.686948 212.837784 
L 306.716045 212.931954 
L 306.778601 212.837784 
L 307.27683 212.840992 
L 307.33786 213.000168 
L 307.371204 212.830273 
L 307.797503 212.833622 
L 307.919437 212.983759 
L 308.041841 212.983759 
L 308.164473 213.115734 
L 308.472074 213.138365 
L 309.433138 213.130766 
L 309.52668 213.259366 
L 309.62514 213.130766 
L 309.653309 213.144788 
L 309.716794 213.130766 
L 309.743864 213.304344 
L 309.839839 213.215589 
L 310.46074 213.304344 
L 310.5865 213.386668 
L 310.99562 213.386668 
L 312.225394 213.495629 
L 312.318447 213.546347 
L 312.350586 213.503228 
L 312.473131 213.495629 
L 312.595307 213.386668 
L 312.812084 213.455223 
L 312.934443 213.672989 
L 313.46588 213.779593 
L 313.619913 213.879268 
L 313.954653 213.904389 
L 314.076211 214.072309 
L 314.233823 213.904389 
L 314.639183 214.176485 
L 314.787705 214.089707 
L 314.905413 214.176485 
L 314.935701 214.139018 
L 315.56592 214.139018 
L 315.59723 214.261852 
L 315.659559 214.147987 
L 316.157725 214.116683 
L 316.283298 214.281787 
L 316.468701 214.266159 
L 316.941385 214.25834 
L 317.34814 214.25834 
L 317.380461 214.426261 
L 317.441675 214.25834 
L 319.631482 214.277665 
L 319.748675 214.380605 
L 319.966536 214.380605 
L 320.024708 214.562637 
L 320.057076 214.380605 
L 321.613564 214.489641 
L 321.674736 214.489641 
L 321.798918 214.310692 
L 322.370351 214.341216 
L 322.403208 214.426304 
L 322.46625 214.303646 
L 322.496213 214.388859 
L 322.656342 214.165419 
L 322.837333 214.165419 
L 322.86958 214.317304 
L 322.962083 214.23992 
L 326.624711 214.256435 
L 326.657259 214.351695 
L 326.747697 214.297843 
L 326.994583 214.40673 
L 327.211404 214.40673 
L 328.093959 214.410758 
L 328.15559 214.859193 
L 328.185479 214.422708 
L 328.596674 214.410839 
L 328.75216 214.60474 
L 328.934307 214.60474 
L 329.118695 214.59119 
L 329.20653 214.430054 
L 329.239748 214.452714 
L 329.620916 214.515815 
L 329.868062 214.731864 
L 329.89787 214.693589 
L 329.963761 214.760033 
L 330.42887 214.819849 
L 330.556273 215.359557 
L 330.682858 215.392336 
L 330.713499 215.519208 
L 330.744293 215.368247 
L 330.776696 215.368247 
L 330.869593 215.368247 
L 330.993201 215.494137 
L 331.119304 215.494137 
L 331.213372 215.368247 
L 331.330878 215.494137 
L 332.20358 215.590157 
L 332.269509 215.784138 
L 332.299772 215.590157 
L 332.512924 215.619063 
L 332.643547 215.872135 
L 332.67594 215.872135 
L 332.70624 216.02128 
L 332.773463 215.872135 
L 332.898248 215.93598 
L 334.557461 215.953288 
L 334.71249 216.123085 
L 334.804853 216.123085 
L 334.931791 216.200988 
L 335.057609 216.125082 
L 335.213187 216.285425 
L 335.333588 216.285425 
L 335.45909 216.43457 
L 335.522322 216.357974 
L 335.668 216.278882 
L 335.727748 216.355804 
L 335.910274 216.602767 
L 336.033103 216.466108 
L 336.466006 216.574345 
L 336.677388 216.574345 
L 336.770258 216.574345 
L 336.830032 216.726712 
L 336.892552 216.704787 
L 336.987315 216.624748 
L 337.14605 216.574345 
L 337.300605 216.704787 
L 337.39418 216.601592 
L 337.417228 216.618405 
L 337.567907 216.657343 
L 337.728384 216.657343 
L 337.760361 217.606011 
L 337.821555 216.806487 
L 337.943966 216.690981 
L 338.460428 216.731649 
L 338.578421 217.019548 
L 338.76388 217.164659 
L 338.794366 217.281419 
L 338.825404 217.116665 
L 338.9522 217.060286 
L 339.67163 217.135082 
L 339.760748 218.08375 
L 339.790582 218.01379 
L 340.31184 218.047428 
L 340.374604 218.01379 
L 340.40689 218.130631 
L 340.496849 218.072863 
L 340.619082 218.063341 
L 340.650268 218.145099 
L 340.712738 218.063341 
L 340.806607 218.01379 
L 340.932484 218.282667 
L 340.995156 218.145099 
L 341.060453 218.162691 
L 341.093296 218.145099 
L 341.216242 218.338341 
L 342.650122 218.306071 
L 342.681122 218.209753 
L 342.777408 218.26009 
L 342.867417 218.314318 
L 342.929112 218.363129 
L 342.992058 218.26009 
L 343.023569 218.383856 
L 343.085253 218.26009 
L 343.396949 218.317684 
L 343.523409 218.456121 
L 343.557818 218.421366 
L 344.309845 218.495191 
L 344.464393 218.575315 
L 345.42707 218.516087 
L 345.671152 218.736228 
L 345.789459 218.497952 
L 345.916502 218.843668 
L 346.506818 218.822305 
L 346.506818 218.822305 
" clip-path="url(#pbc4eeab99a)" style="fill: none; stroke: #1f77b4; stroke-width: 1.5; stroke-linecap: square"/>
   </g>
   <g id="patch_3">
    <path d="M 26.925 228.96 
L 26.925 7.2 
" style="fill: none; stroke: #000000; stroke-width: 0.8; stroke-linejoin: miter; stroke-linecap: square"/>
   </g>
   <g id="patch_4">
    <path d="M 361.725 228.96 
L 361.725 7.2 
" style="fill: none; stroke: #000000; stroke-width: 0.8; stroke-linejoin: miter; stroke-linecap: square"/>
   </g>
   <g id="patch_5">
    <path d="M 26.925 228.96 
L 361.725 228.96 
" style="fill: none; stroke: #000000; stroke-width: 0.8; stroke-linejoin: miter; stroke-linecap: square"/>
   </g>
   <g id="patch_6">
    <path d="M 26.925 7.2 
L 361.725 7.2 
" style="fill: none; stroke: #000000; stroke-width: 0.8; stroke-linejoin: miter; stroke-linecap: square"/>
   </g>
  </g>
 </g>
 <defs>
  <clipPath id="pbc4eeab99a">
   <rect x="26.925" y="7.2" width="334.8" height="221.76"/>
  </clipPath>
 </defs>
</svg>
