<?xml version="1.0" encoding="utf-8" standalone="no"?>
<!DOCTYPE svg PUBLIC "-//W3C//DTD SVG 1.1//EN"
  "http://www.w3.org/Graphics/SVG/1.1/DTD/svg11.dtd">
<svg xmlns:xlink="http://www.w3.org/1999/xlink" width="377.253558pt" height="252.838125pt" viewBox="0 0 377.253558 252.838125" xmlns="http://www.w3.org/2000/svg" version="1.1">
 <metadata>
  <rdf:RDF xmlns:dc="http://purl.org/dc/elements/1.1/" xmlns:cc="http://creativecommons.org/ns#" xmlns:rdf="http://www.w3.org/1999/02/22-rdf-syntax-ns#">
   <cc:Work>
    <dc:type rdf:resource="http://purl.org/dc/dcmitype/StillImage"/>
    <dc:date>2023-04-20T00:28:08.592276</dc:date>
    <dc:format>image/svg+xml</dc:format>
    <dc:creator>
     <cc:Agent>
      <dc:title>Matplotlib v3.6.2, https://matplotlib.org/</dc:title>
     </cc:Agent>
    </dc:creator>
   </cc:Work>
  </rdf:RDF>
 </metadata>
 <defs>
  <style type="text/css">*{stroke-linejoin: round; stroke-linecap: butt}</style>
 </defs>
 <g id="figure_1">
  <g id="patch_1">
   <path d="M -0 252.838125 
L 377.253558 252.838125 
L 377.253558 0 
L -0 0 
z
" style="fill: #ffffff"/>
  </g>
  <g id="axes_1">
   <g id="patch_2">
    <path d="M 26.925 228.96 
L 361.725 228.96 
L 361.725 7.2 
L 26.925 7.2 
z
" style="fill: #ffffff"/>
   </g>
   <g id="matplotlib.axis_1">
    <g id="xtick_1">
     <g id="line2d_1">
      <defs>
       <path id="m5339a2b141" d="M 0 0 
L 0 3.5 
" style="stroke: #000000; stroke-width: 0.8"/>
      </defs>
      <g>
       <use xlink:href="#m5339a2b141" x="41.633074" y="228.96" style="stroke: #000000; stroke-width: 0.8"/>
      </g>
     </g>
     <g id="text_1">
      <!-- 0 -->
      <g transform="translate(38.451824 243.558437) scale(0.1 -0.1)">
       <defs>
        <path id="DejaVuSans-30" d="M 2034 4250 
Q 1547 4250 1301 3770 
Q 1056 3291 1056 2328 
Q 1056 1369 1301 889 
Q 1547 409 2034 409 
Q 2525 409 2770 889 
Q 3016 1369 3016 2328 
Q 3016 3291 2770 3770 
Q 2525 4250 2034 4250 
z
M 2034 4750 
Q 2819 4750 3233 4129 
Q 3647 3509 3647 2328 
Q 3647 1150 3233 529 
Q 2819 -91 2034 -91 
Q 1250 -91 836 529 
Q 422 1150 422 2328 
Q 422 3509 836 4129 
Q 1250 4750 2034 4750 
z
" transform="scale(0.015625)"/>
       </defs>
       <use xlink:href="#DejaVuSans-30"/>
      </g>
     </g>
    </g>
    <g id="xtick_2">
     <g id="line2d_2">
      <g>
       <use xlink:href="#m5339a2b141" x="81.492665" y="228.96" style="stroke: #000000; stroke-width: 0.8"/>
      </g>
     </g>
     <g id="text_2">
      <!-- 100 -->
      <g transform="translate(71.948915 243.558437) scale(0.1 -0.1)">
       <defs>
        <path id="DejaVuSans-31" d="M 794 531 
L 1825 531 
L 1825 4091 
L 703 3866 
L 703 4441 
L 1819 4666 
L 2450 4666 
L 2450 531 
L 3481 531 
L 3481 0 
L 794 0 
L 794 531 
z
" transform="scale(0.015625)"/>
       </defs>
       <use xlink:href="#DejaVuSans-31"/>
       <use xlink:href="#DejaVuSans-30" x="63.623047"/>
       <use xlink:href="#DejaVuSans-30" x="127.246094"/>
      </g>
     </g>
    </g>
    <g id="xtick_3">
     <g id="line2d_3">
      <g>
       <use xlink:href="#m5339a2b141" x="121.352257" y="228.96" style="stroke: #000000; stroke-width: 0.8"/>
      </g>
     </g>
     <g id="text_3">
      <!-- 200 -->
      <g transform="translate(111.808507 243.558437) scale(0.1 -0.1)">
       <defs>
        <path id="DejaVuSans-32" d="M 1228 531 
L 3431 531 
L 3431 0 
L 469 0 
L 469 531 
Q 828 903 1448 1529 
Q 2069 2156 2228 2338 
Q 2531 2678 2651 2914 
Q 2772 3150 2772 3378 
Q 2772 3750 2511 3984 
Q 2250 4219 1831 4219 
Q 1534 4219 1204 4116 
Q 875 4013 500 3803 
L 500 4441 
Q 881 4594 1212 4672 
Q 1544 4750 1819 4750 
Q 2544 4750 2975 4387 
Q 3406 4025 3406 3419 
Q 3406 3131 3298 2873 
Q 3191 2616 2906 2266 
Q 2828 2175 2409 1742 
Q 1991 1309 1228 531 
z
" transform="scale(0.015625)"/>
       </defs>
       <use xlink:href="#DejaVuSans-32"/>
       <use xlink:href="#DejaVuSans-30" x="63.623047"/>
       <use xlink:href="#DejaVuSans-30" x="127.246094"/>
      </g>
     </g>
    </g>
    <g id="xtick_4">
     <g id="line2d_4">
      <g>
       <use xlink:href="#m5339a2b141" x="161.211849" y="228.96" style="stroke: #000000; stroke-width: 0.8"/>
      </g>
     </g>
     <g id="text_4">
      <!-- 300 -->
      <g transform="translate(151.668099 243.558437) scale(0.1 -0.1)">
       <defs>
        <path id="DejaVuSans-33" d="M 2597 2516 
Q 3050 2419 3304 2112 
Q 3559 1806 3559 1356 
Q 3559 666 3084 287 
Q 2609 -91 1734 -91 
Q 1441 -91 1130 -33 
Q 819 25 488 141 
L 488 750 
Q 750 597 1062 519 
Q 1375 441 1716 441 
Q 2309 441 2620 675 
Q 2931 909 2931 1356 
Q 2931 1769 2642 2001 
Q 2353 2234 1838 2234 
L 1294 2234 
L 1294 2753 
L 1863 2753 
Q 2328 2753 2575 2939 
Q 2822 3125 2822 3475 
Q 2822 3834 2567 4026 
Q 2313 4219 1838 4219 
Q 1578 4219 1281 4162 
Q 984 4106 628 3988 
L 628 4550 
Q 988 4650 1302 4700 
Q 1616 4750 1894 4750 
Q 2613 4750 3031 4423 
Q 3450 4097 3450 3541 
Q 3450 3153 3228 2886 
Q 3006 2619 2597 2516 
z
" transform="scale(0.015625)"/>
       </defs>
       <use xlink:href="#DejaVuSans-33"/>
       <use xlink:href="#DejaVuSans-30" x="63.623047"/>
       <use xlink:href="#DejaVuSans-30" x="127.246094"/>
      </g>
     </g>
    </g>
    <g id="xtick_5">
     <g id="line2d_5">
      <g>
       <use xlink:href="#m5339a2b141" x="201.071441" y="228.96" style="stroke: #000000; stroke-width: 0.8"/>
      </g>
     </g>
     <g id="text_5">
      <!-- 400 -->
      <g transform="translate(191.527691 243.558437) scale(0.1 -0.1)">
       <defs>
        <path id="DejaVuSans-34" d="M 2419 4116 
L 825 1625 
L 2419 1625 
L 2419 4116 
z
M 2253 4666 
L 3047 4666 
L 3047 1625 
L 3713 1625 
L 3713 1100 
L 3047 1100 
L 3047 0 
L 2419 0 
L 2419 1100 
L 313 1100 
L 313 1709 
L 2253 4666 
z
" transform="scale(0.015625)"/>
       </defs>
       <use xlink:href="#DejaVuSans-34"/>
       <use xlink:href="#DejaVuSans-30" x="63.623047"/>
       <use xlink:href="#DejaVuSans-30" x="127.246094"/>
      </g>
     </g>
    </g>
    <g id="xtick_6">
     <g id="line2d_6">
      <g>
       <use xlink:href="#m5339a2b141" x="240.931033" y="228.96" style="stroke: #000000; stroke-width: 0.8"/>
      </g>
     </g>
     <g id="text_6">
      <!-- 500 -->
      <g transform="translate(231.387283 243.558437) scale(0.1 -0.1)">
       <defs>
        <path id="DejaVuSans-35" d="M 691 4666 
L 3169 4666 
L 3169 4134 
L 1269 4134 
L 1269 2991 
Q 1406 3038 1543 3061 
Q 1681 3084 1819 3084 
Q 2600 3084 3056 2656 
Q 3513 2228 3513 1497 
Q 3513 744 3044 326 
Q 2575 -91 1722 -91 
Q 1428 -91 1123 -41 
Q 819 9 494 109 
L 494 744 
Q 775 591 1075 516 
Q 1375 441 1709 441 
Q 2250 441 2565 725 
Q 2881 1009 2881 1497 
Q 2881 1984 2565 2268 
Q 2250 2553 1709 2553 
Q 1456 2553 1204 2497 
Q 953 2441 691 2322 
L 691 4666 
z
" transform="scale(0.015625)"/>
       </defs>
       <use xlink:href="#DejaVuSans-35"/>
       <use xlink:href="#DejaVuSans-30" x="63.623047"/>
       <use xlink:href="#DejaVuSans-30" x="127.246094"/>
      </g>
     </g>
    </g>
    <g id="xtick_7">
     <g id="line2d_7">
      <g>
       <use xlink:href="#m5339a2b141" x="280.790624" y="228.96" style="stroke: #000000; stroke-width: 0.8"/>
      </g>
     </g>
     <g id="text_7">
      <!-- 600 -->
      <g transform="translate(271.246874 243.558437) scale(0.1 -0.1)">
       <defs>
        <path id="DejaVuSans-36" d="M 2113 2584 
Q 1688 2584 1439 2293 
Q 1191 2003 1191 1497 
Q 1191 994 1439 701 
Q 1688 409 2113 409 
Q 2538 409 2786 701 
Q 3034 994 3034 1497 
Q 3034 2003 2786 2293 
Q 2538 2584 2113 2584 
z
M 3366 4563 
L 3366 3988 
Q 3128 4100 2886 4159 
Q 2644 4219 2406 4219 
Q 1781 4219 1451 3797 
Q 1122 3375 1075 2522 
Q 1259 2794 1537 2939 
Q 1816 3084 2150 3084 
Q 2853 3084 3261 2657 
Q 3669 2231 3669 1497 
Q 3669 778 3244 343 
Q 2819 -91 2113 -91 
Q 1303 -91 875 529 
Q 447 1150 447 2328 
Q 447 3434 972 4092 
Q 1497 4750 2381 4750 
Q 2619 4750 2861 4703 
Q 3103 4656 3366 4563 
z
" transform="scale(0.015625)"/>
       </defs>
       <use xlink:href="#DejaVuSans-36"/>
       <use xlink:href="#DejaVuSans-30" x="63.623047"/>
       <use xlink:href="#DejaVuSans-30" x="127.246094"/>
      </g>
     </g>
    </g>
    <g id="xtick_8">
     <g id="line2d_8">
      <g>
       <use xlink:href="#m5339a2b141" x="320.650216" y="228.96" style="stroke: #000000; stroke-width: 0.8"/>
      </g>
     </g>
     <g id="text_8">
      <!-- 700 -->
      <g transform="translate(311.106466 243.558437) scale(0.1 -0.1)">
       <defs>
        <path id="DejaVuSans-37" d="M 525 4666 
L 3525 4666 
L 3525 4397 
L 1831 0 
L 1172 0 
L 2766 4134 
L 525 4134 
L 525 4666 
z
" transform="scale(0.015625)"/>
       </defs>
       <use xlink:href="#DejaVuSans-37"/>
       <use xlink:href="#DejaVuSans-30" x="63.623047"/>
       <use xlink:href="#DejaVuSans-30" x="127.246094"/>
      </g>
     </g>
    </g>
    <g id="xtick_9">
     <g id="line2d_9">
      <g>
       <use xlink:href="#m5339a2b141" x="360.509808" y="228.96" style="stroke: #000000; stroke-width: 0.8"/>
      </g>
     </g>
     <g id="text_9">
      <!-- 800 -->
      <g transform="translate(350.966058 243.558437) scale(0.1 -0.1)">
       <defs>
        <path id="DejaVuSans-38" d="M 2034 2216 
Q 1584 2216 1326 1975 
Q 1069 1734 1069 1313 
Q 1069 891 1326 650 
Q 1584 409 2034 409 
Q 2484 409 2743 651 
Q 3003 894 3003 1313 
Q 3003 1734 2745 1975 
Q 2488 2216 2034 2216 
z
M 1403 2484 
Q 997 2584 770 2862 
Q 544 3141 544 3541 
Q 544 4100 942 4425 
Q 1341 4750 2034 4750 
Q 2731 4750 3128 4425 
Q 3525 4100 3525 3541 
Q 3525 3141 3298 2862 
Q 3072 2584 2669 2484 
Q 3125 2378 3379 2068 
Q 3634 1759 3634 1313 
Q 3634 634 3220 271 
Q 2806 -91 2034 -91 
Q 1263 -91 848 271 
Q 434 634 434 1313 
Q 434 1759 690 2068 
Q 947 2378 1403 2484 
z
M 1172 3481 
Q 1172 3119 1398 2916 
Q 1625 2713 2034 2713 
Q 2441 2713 2670 2916 
Q 2900 3119 2900 3481 
Q 2900 3844 2670 4047 
Q 2441 4250 2034 4250 
Q 1625 4250 1398 4047 
Q 1172 3844 1172 3481 
z
" transform="scale(0.015625)"/>
       </defs>
       <use xlink:href="#DejaVuSans-38"/>
       <use xlink:href="#DejaVuSans-30" x="63.623047"/>
       <use xlink:href="#DejaVuSans-30" x="127.246094"/>
      </g>
     </g>
    </g>
   </g>
   <g id="matplotlib.axis_2">
    <g id="ytick_1">
     <g id="line2d_10">
      <defs>
       <path id="m71a61ccfc9" d="M 0 0 
L -3.5 0 
" style="stroke: #000000; stroke-width: 0.8"/>
      </defs>
      <g>
       <use xlink:href="#m71a61ccfc9" x="26.925" y="224.183168" style="stroke: #000000; stroke-width: 0.8"/>
      </g>
     </g>
     <g id="text_10">
      <!-- 30 -->
      <g transform="translate(7.2 227.982386) scale(0.1 -0.1)">
       <use xlink:href="#DejaVuSans-33"/>
       <use xlink:href="#DejaVuSans-30" x="63.623047"/>
      </g>
     </g>
    </g>
    <g id="ytick_2">
     <g id="line2d_11">
      <g>
       <use xlink:href="#m71a61ccfc9" x="26.925" y="187.919002" style="stroke: #000000; stroke-width: 0.8"/>
      </g>
     </g>
     <g id="text_11">
      <!-- 40 -->
      <g transform="translate(7.2 191.718221) scale(0.1 -0.1)">
       <use xlink:href="#DejaVuSans-34"/>
       <use xlink:href="#DejaVuSans-30" x="63.623047"/>
      </g>
     </g>
    </g>
    <g id="ytick_3">
     <g id="line2d_12">
      <g>
       <use xlink:href="#m71a61ccfc9" x="26.925" y="151.654836" style="stroke: #000000; stroke-width: 0.8"/>
      </g>
     </g>
     <g id="text_12">
      <!-- 50 -->
      <g transform="translate(7.2 155.454055) scale(0.1 -0.1)">
       <use xlink:href="#DejaVuSans-35"/>
       <use xlink:href="#DejaVuSans-30" x="63.623047"/>
      </g>
     </g>
    </g>
    <g id="ytick_4">
     <g id="line2d_13">
      <g>
       <use xlink:href="#m71a61ccfc9" x="26.925" y="115.39067" style="stroke: #000000; stroke-width: 0.8"/>
      </g>
     </g>
     <g id="text_13">
      <!-- 60 -->
      <g transform="translate(7.2 119.189889) scale(0.1 -0.1)">
       <use xlink:href="#DejaVuSans-36"/>
       <use xlink:href="#DejaVuSans-30" x="63.623047"/>
      </g>
     </g>
    </g>
    <g id="ytick_5">
     <g id="line2d_14">
      <g>
       <use xlink:href="#m71a61ccfc9" x="26.925" y="79.126505" style="stroke: #000000; stroke-width: 0.8"/>
      </g>
     </g>
     <g id="text_14">
      <!-- 70 -->
      <g transform="translate(7.2 82.925723) scale(0.1 -0.1)">
       <use xlink:href="#DejaVuSans-37"/>
       <use xlink:href="#DejaVuSans-30" x="63.623047"/>
      </g>
     </g>
    </g>
    <g id="ytick_6">
     <g id="line2d_15">
      <g>
       <use xlink:href="#m71a61ccfc9" x="26.925" y="42.862339" style="stroke: #000000; stroke-width: 0.8"/>
      </g>
     </g>
     <g id="text_15">
      <!-- 80 -->
      <g transform="translate(7.2 46.661558) scale(0.1 -0.1)">
       <use xlink:href="#DejaVuSans-38"/>
       <use xlink:href="#DejaVuSans-30" x="63.623047"/>
      </g>
     </g>
    </g>
   </g>
   <g id="line2d_16">
    <path d="M 42.143182 19.085153 
L 42.20896 19.085153 
L 42.292489 17.28 
L 42.409585 25.078532 
L 42.461572 25.029269 
L 42.57393 26.401989 
L 42.674584 26.401989 
L 42.79041 27.189003 
L 42.848933 26.41525 
L 43.00198 29.394146 
L 43.560315 32.364291 
L 43.681052 32.174113 
L 43.712583 32.174113 
L 44.522076 35.545375 
L 44.551706 35.313904 
L 44.612557 35.445406 
L 44.828153 36.242393 
L 44.916457 36.242393 
L 45.094292 37.309862 
L 45.123973 36.862765 
L 45.182266 37.129666 
L 45.326094 38.078269 
L 45.357667 37.7825 
L 45.385219 38.577971 
L 45.478615 38.478959 
L 45.539109 38.478959 
L 45.690855 39.24718 
L 45.723004 39.28138 
L 45.914139 39.910537 
L 46.006117 39.816887 
L 46.159938 41.965234 
L 46.226484 41.965234 
L 46.410921 42.321663 
L 46.599118 42.415313 
L 46.632018 42.438005 
L 46.663579 43.103544 
L 46.695982 42.415313 
L 46.758023 42.792095 
L 46.787638 42.792095 
L 47.031134 43.330217 
L 47.120792 43.330217 
L 47.209127 43.687547 
L 47.241038 43.445536 
L 47.27074 43.445536 
L 47.452216 44.498557 
L 47.637077 44.42968 
L 47.666728 43.943763 
L 47.725732 44.412445 
L 47.866328 44.528064 
L 47.917813 44.498557 
L 47.97836 44.742366 
L 48.038126 44.712859 
L 48.066794 44.520293 
L 48.125928 44.639574 
L 48.275161 45.095679 
L 48.333813 44.691515 
L 48.364834 45.14762 
L 48.573102 46.409406 
L 48.691508 46.570959 
L 48.721938 46.438913 
L 48.814454 46.502081 
L 48.961651 47.101348 
L 49.142256 47.746296 
L 49.170005 47.746296 
L 49.227455 47.917602 
L 49.285136 47.836882 
L 49.425171 47.907849 
L 49.543568 47.998435 
L 49.572827 48.049648 
L 49.60233 47.925483 
L 49.66243 47.954989 
L 49.722936 48.091858 
L 49.784228 48.063713 
L 49.936575 48.129385 
L 50.149103 49.309663 
L 50.206024 49.309663 
L 50.32523 50.529126 
L 50.354482 49.924947 
L 50.410524 49.90481 
L 50.440526 50.823551 
L 50.524962 50.529126 
L 50.556512 50.574015 
L 50.646235 51.418895 
L 50.677082 51.181557 
L 50.797434 51.086761 
L 50.9437 51.869951 
L 51.02864 51.869951 
L 51.116182 52.469344 
L 51.14783 51.964747 
L 51.351989 52.071326 
L 51.412649 52.73379 
L 51.475546 52.638994 
L 51.505449 52.745573 
L 51.567087 52.638994 
L 51.627419 52.745573 
L 51.715879 53.433869 
L 51.74689 53.431136 
L 51.806809 53.537756 
L 51.966419 54.29584 
L 51.996114 54.01438 
L 52.057012 54.181883 
L 52.300111 54.729826 
L 52.39381 54.663477 
L 52.608005 55.627012 
L 52.638027 55.617921 
L 53.183957 58.09778 
L 53.35907 58.134664 
L 53.477588 58.302168 
L 53.507916 58.079404 
L 53.566759 58.265576 
L 53.7173 58.283952 
L 53.841079 58.451456 
L 53.872683 58.384237 
L 53.993802 59.001275 
L 54.024825 58.978921 
L 54.056171 58.978921 
L 54.086361 59.573925 
L 54.149682 59.148031 
L 54.30023 59.34674 
L 54.357487 59.180743 
L 54.446837 59.846239 
L 54.572944 59.77414 
L 54.632599 60.212292 
L 54.69425 60.129995 
L 54.724499 59.970093 
L 54.78786 60.159951 
L 54.849867 60.452071 
L 54.882004 60.099023 
L 54.912347 60.287105 
L 54.944398 60.287105 
L 55.06976 61.041026 
L 55.13007 60.699791 
L 55.256514 60.763936 
L 55.441722 61.319967 
L 55.568654 60.943891 
L 55.728281 61.782392 
L 55.760236 61.782392 
L 55.950766 63.916238 
L 55.983728 64.031933 
L 56.046939 63.898991 
L 56.269928 64.025139 
L 56.335583 64.456179 
L 56.398394 64.400945 
L 56.462294 64.422381 
L 56.656055 65.304168 
L 56.721399 65.175238 
L 56.852451 66.079384 
L 56.884697 66.079384 
L 57.009022 66.611952 
L 57.105662 67.405335 
L 57.173595 66.640761 
L 57.204016 66.782026 
L 57.299582 67.684385 
L 57.329949 67.260771 
L 57.362525 67.625191 
L 57.394165 67.164121 
L 57.42592 67.164121 
L 57.458099 67.167421 
L 57.704102 68.370563 
L 57.733528 68.286588 
L 57.764194 68.459962 
L 57.856556 68.536409 
L 58.009506 69.150867 
L 58.101136 69.066652 
L 58.411611 69.821328 
L 58.569841 70.642139 
L 58.601956 70.62987 
L 58.786087 71.352033 
L 58.816925 71.243663 
L 58.848782 71.082097 
L 58.880296 71.126928 
L 58.912881 71.352033 
L 58.975513 71.338974 
L 59.006832 71.061591 
L 59.068749 71.244164 
L 59.100573 71.582638 
L 59.193345 71.397042 
L 59.3175 71.337621 
L 59.347728 71.657435 
L 59.377692 71.279807 
L 59.409971 71.383204 
L 59.442019 71.391341 
L 59.472729 71.208768 
L 59.502213 71.253562 
L 59.654468 71.785421 
L 59.684469 71.560355 
L 59.743386 71.893968 
L 59.774817 71.772401 
L 59.828346 71.893968 
L 59.974962 72.46656 
L 60.155461 73.23309 
L 60.184312 73.23309 
L 60.366001 73.590447 
L 60.429052 73.693845 
L 60.743607 74.550061 
L 60.774461 74.510066 
L 60.865037 74.276352 
L 60.894781 74.465339 
L 61.048101 74.801774 
L 61.078727 74.491971 
L 61.146576 74.742991 
L 61.21 74.633034 
L 61.271112 74.574363 
L 61.33172 75.141042 
L 61.455821 75.014145 
L 61.487198 75.014145 
L 61.612425 76.29414 
L 61.673253 76.29414 
L 61.794631 76.515441 
L 61.853856 76.29414 
L 61.918308 76.342042 
L 61.948478 76.29414 
L 62.102577 77.306018 
L 62.194555 76.805832 
L 62.224496 76.945991 
L 62.347411 77.15471 
L 62.49942 77.15471 
L 62.611387 77.654896 
L 62.702505 77.50652 
L 62.731629 77.541889 
L 62.886393 78.198821 
L 62.975232 77.926589 
L 63.090859 78.517049 
L 63.120891 78.451011 
L 63.148804 78.57493 
L 63.177773 78.57493 
L 63.332844 78.644707 
L 63.427532 78.725085 
L 63.459154 79.381408 
L 63.52399 78.748304 
L 63.615748 78.776913 
L 63.646589 78.879574 
L 63.677156 78.748304 
L 63.736386 78.67689 
L 63.884273 79.514063 
L 63.944612 79.647016 
L 64.0661 80.150261 
L 64.183528 80.860083 
L 64.246122 80.622178 
L 64.33133 80.567048 
L 64.450152 81.364492 
L 64.479366 80.870991 
L 64.745148 81.633804 
L 64.829089 81.442274 
L 64.889449 81.427074 
L 65.09934 82.58339 
L 65.247464 82.391203 
L 65.367324 82.407488 
L 65.521763 83.017538 
L 65.552647 82.996321 
L 65.612351 83.030652 
L 65.64371 83.255443 
L 65.734559 83.189687 
L 65.88487 83.305605 
L 65.949773 83.184703 
L 65.979872 83.327212 
L 66.100326 83.481909 
L 66.24957 83.409493 
L 66.311588 83.434769 
L 66.374947 83.684455 
L 66.432717 83.498106 
L 66.526073 83.526118 
L 66.709864 83.888573 
L 66.888826 84.225096 
L 66.980207 84.171463 
L 67.101604 84.713628 
L 67.161308 84.697536 
L 67.346291 85.465981 
L 67.407574 85.606576 
L 67.589379 86.643648 
L 67.649895 86.616949 
L 67.789145 86.912217 
L 67.91397 86.674459 
L 68.03763 86.988064 
L 68.246727 87.070125 
L 68.39937 87.516581 
L 68.429647 87.289832 
L 68.457363 87.535573 
L 68.486732 87.535573 
L 68.792252 87.973422 
L 69.067047 88.061541 
L 69.19352 88.163014 
L 69.285539 88.250116 
L 69.37816 88.369113 
L 69.409082 88.31254 
L 69.532526 88.131467 
L 69.592744 88.162278 
L 69.624249 88.392861 
L 69.685674 88.193824 
L 69.748913 88.189633 
L 69.778835 88.51702 
L 69.83853 88.189633 
L 69.928774 88.4879 
L 69.987806 88.338374 
L 70.108763 88.190369 
L 70.238746 88.457249 
L 70.498074 88.402915 
L 70.531326 88.366276 
L 70.65544 89.417936 
L 70.741226 89.565706 
L 70.774096 89.529803 
L 70.807197 89.529803 
L 70.936209 89.678544 
L 71.027761 89.766664 
L 71.059225 89.792207 
L 71.087152 89.678544 
L 71.15505 89.678544 
L 71.191965 90.228446 
L 71.252472 89.767779 
L 71.316907 89.733674 
L 71.452886 90.301755 
L 71.596196 90.464907 
L 71.62418 90.358328 
L 71.685629 90.387434 
L 71.861353 91.093852 
L 71.892306 91.064745 
L 72.025351 91.141737 
L 72.060531 91.072871 
L 72.135046 91.134753 
L 72.17476 91.134753 
L 72.209578 90.969823 
L 72.247852 91.171324 
L 72.280112 91.171324 
L 72.342574 91.16504 
L 72.485452 91.636589 
L 72.518051 91.636589 
L 72.647591 92.187224 
L 72.72468 92.187224 
L 72.879237 92.541023 
L 72.910013 92.489593 
L 72.942438 92.527879 
L 73.01298 93.0635 
L 73.078758 92.821871 
L 73.150568 92.527879 
L 73.192496 92.79337 
L 73.334627 93.479689 
L 73.370675 93.873524 
L 73.438181 93.645677 
L 73.659576 94.065646 
L 73.794719 93.841307 
L 73.832171 93.765666 
L 73.862721 94.013202 
L 73.937898 93.789881 
L 74.00585 93.732599 
L 74.351549 94.70581 
L 74.497654 94.671643 
L 74.530832 94.965984 
L 74.61228 94.83876 
L 74.818596 95.117702 
L 74.848076 95.095819 
L 75.02487 95.308388 
L 75.05429 95.736971 
L 75.135197 95.440391 
L 75.204782 95.383121 
L 75.239002 95.651142 
L 75.301764 95.40636 
L 75.32882 95.40636 
L 75.485391 96.257232 
L 75.605664 96.204652 
L 75.827672 96.771204 
L 75.887551 96.412742 
L 75.915821 97.022075 
L 76.061777 98.765741 
L 76.21352 98.246018 
L 76.34648 99.240589 
L 76.375071 99.240589 
L 76.485748 98.645752 
L 76.520246 98.953187 
L 76.586945 98.748803 
L 76.626508 98.748803 
L 76.658066 99.017497 
L 76.688422 98.914447 
L 76.73106 98.642255 
L 76.869289 99.708518 
L 77.036325 100.282529 
L 77.097254 100.20725 
L 77.156286 100.081757 
L 77.303197 100.568724 
L 77.336118 100.568724 
L 77.461162 100.938685 
L 77.529167 100.938685 
L 77.684509 101.919964 
L 77.715324 101.919964 
L 77.857009 101.719147 
L 77.888011 102.028241 
L 77.96068 101.84464 
L 78.058131 101.91362 
L 78.322825 102.213112 
L 78.358583 102.113345 
L 78.437311 102.213112 
L 78.579871 102.156366 
L 78.794156 102.243387 
L 78.887061 102.540608 
L 78.858027 102.156366 
L 78.916093 102.263538 
L 79.00769 102.263538 
L 79.152399 102.423358 
L 79.187991 102.384464 
L 79.220795 102.480514 
L 79.977454 102.895443 
L 80.080441 102.763116 
L 80.114729 102.964828 
L 80.212154 102.895443 
L 80.747407 102.995394 
L 81.04281 103.29064 
L 81.133919 103.376024 
L 81.2629 103.925236 
L 81.359534 103.86666 
L 81.453201 105.538836 
L 81.489031 105.493057 
L 81.522073 105.794312 
L 81.598197 105.493057 
L 81.775871 105.840091 
L 81.839293 105.756162 
L 81.972816 106.057417 
L 82.03807 106.144268 
L 82.222766 106.289637 
L 82.803817 106.348212 
L 82.925198 106.387106 
L 83.017381 106.32853 
L 83.131648 106.40836 
L 83.21916 106.40836 
L 83.247816 107.122739 
L 83.308703 106.496736 
L 83.425111 106.120764 
L 83.580517 106.525877 
L 83.667577 106.473058 
L 83.698482 106.369849 
L 83.729592 106.584453 
L 83.821112 106.672828 
L 83.849151 106.445159 
L 83.878536 106.929985 
L 83.982255 106.823985 
L 84.012092 106.251005 
L 84.116961 106.357004 
L 84.208266 106.30958 
L 84.176277 106.412387 
L 84.243039 106.357004 
L 84.406437 106.41558 
L 84.438568 106.965384 
L 84.500512 106.425641 
L 84.615554 106.446846 
L 84.735502 106.695354 
L 84.792057 106.685293 
L 84.853806 106.882026 
L 84.88324 106.685293 
L 85.042612 106.695354 
L 85.192291 107.244275 
L 85.22234 106.978893 
L 85.252183 107.173614 
L 85.387263 107.812511 
L 85.411433 107.724135 
L 85.50378 107.758167 
L 85.748753 107.864377 
L 86.046595 108.412565 
L 86.249272 108.50094 
L 86.378359 108.825694 
L 86.45706 108.773753 
L 86.649911 109.036694 
L 86.95531 109.139491 
L 87.098205 109.313769 
L 87.128962 109.29424 
L 87.446275 109.242298 
L 87.593621 109.52737 
L 87.662145 109.563815 
L 87.704546 109.314347 
L 87.743715 109.622441 
L 87.875377 109.563815 
L 87.907681 109.563815 
L 87.940227 109.760548 
L 88.002508 109.563815 
L 88.102691 109.563815 
L 88.262612 110.299834 
L 88.292818 109.978318 
L 88.388134 110.101785 
L 88.498923 110.101785 
L 88.588525 110.496567 
L 88.623431 110.426876 
L 88.661903 110.153726 
L 88.729859 110.369989 
L 88.866461 110.298518 
L 88.898073 110.398866 
L 89.04244 110.502515 
L 89.222208 110.826548 
L 89.340435 110.527504 
L 89.402066 110.527504 
L 89.546044 111.222623 
L 89.627518 111.222623 
L 89.735332 111.556188 
L 89.773757 111.54895 
L 89.979685 111.870466 
L 90.215697 111.561622 
L 90.256098 111.771495 
L 90.324878 111.566207 
L 90.360722 111.648027 
L 90.432244 111.771495 
L 90.463682 111.449978 
L 90.59076 111.566207 
L 90.655528 111.537187 
L 90.803698 111.322483 
L 90.912133 111.296669 
L 91.014733 111.823503 
L 91.048007 111.776053 
L 91.212739 111.776053 
L 91.240939 111.604676 
L 91.277843 111.87198 
L 91.310007 111.811955 
L 91.447928 112.123805 
L 91.58509 111.906718 
L 91.723825 111.985651 
L 91.756627 111.678928 
L 91.794002 111.784537 
L 91.895697 112.197206 
L 91.969322 111.746234 
L 92.00737 112.113549 
L 92.04304 112.104269 
L 92.179493 112.435065 
L 92.376224 112.517882 
L 92.604142 112.839399 
L 92.736582 113.70847 
L 92.769173 113.70847 
L 92.839297 113.861838 
L 92.876264 113.73762 
L 92.985451 113.73762 
L 93.160814 114.106576 
L 93.239213 114.141254 
L 93.317161 113.906901 
L 93.439224 115.344492 
L 93.477496 115.343632 
L 93.551929 115.202542 
L 93.588282 115.321944 
L 93.73207 115.400993 
L 93.764986 115.219975 
L 93.804671 115.550692 
L 93.912734 115.340062 
L 93.954292 115.520663 
L 94.023398 115.411533 
L 94.118296 115.446211 
L 94.182173 115.812016 
L 94.214092 115.411533 
L 94.24275 115.494349 
L 94.272692 115.942811 
L 94.301391 115.446211 
L 94.330973 115.477056 
L 94.483705 115.477835 
L 94.612227 115.921089 
L 94.735737 115.57472 
L 94.768163 115.772577 
L 94.834604 115.678747 
L 94.868663 115.678747 
L 94.904042 115.807255 
L 94.965494 115.678747 
L 94.996797 115.644068 
L 95.142029 116.359116 
L 95.550488 116.455233 
L 95.697007 116.927508 
L 95.788422 117.02429 
L 95.907221 117.213976 
L 95.935769 117.098734 
L 95.966745 117.303687 
L 96.034033 117.410998 
L 96.0642 117.514687 
L 96.093333 117.252178 
L 96.120745 117.091227 
L 96.151716 117.136936 
L 96.181357 117.604169 
L 96.274885 117.43874 
L 96.452541 118.101645 
L 96.541496 117.732494 
L 96.573729 117.934168 
L 96.696396 117.768896 
L 96.876196 118.143521 
L 96.993164 117.662045 
L 97.078672 118.106755 
L 97.110344 118.074344 
L 97.167926 118.003895 
L 97.350833 118.923715 
L 97.412295 118.878921 
L 97.442157 118.904534 
L 97.472498 119.042435 
L 97.501313 118.878921 
L 97.531951 118.878921 
L 97.681863 118.935907 
L 97.919946 119.634955 
L 97.981928 119.218579 
L 98.038017 119.255686 
L 98.1261 119.575766 
L 98.156112 119.501309 
L 98.274754 119.204177 
L 98.304259 119.204177 
L 98.392267 119.322808 
L 98.423824 119.302034 
L 98.54393 119.090382 
L 98.60545 119.271299 
L 98.695416 119.442615 
L 98.725375 119.271299 
L 98.780387 119.474454 
L 98.957918 119.475026 
L 99.287524 120.68283 
L 99.346271 120.662019 
L 99.379094 120.729179 
L 99.411311 120.842973 
L 99.442106 120.828221 
L 99.565345 120.569036 
L 99.776956 120.915057 
L 99.836069 120.82532 
L 100.075576 120.832037 
L 100.195196 120.942946 
L 100.279821 120.793521 
L 100.308633 121.039712 
L 100.39719 120.92502 
L 100.426503 120.92502 
L 100.457176 120.793521 
L 100.486825 121.039712 
L 100.545732 120.900832 
L 100.726902 121.279394 
L 100.78929 120.793521 
L 100.819287 121.191575 
L 100.966955 120.970349 
L 100.998155 121.108894 
L 101.081835 121.108894 
L 101.320181 121.960001 
L 101.414026 121.972995 
L 101.445441 122.23218 
L 101.502221 121.905172 
L 101.532163 121.905172 
L 101.56164 122.246807 
L 101.652758 122.052442 
L 101.94427 122.065978 
L 102.122757 122.429246 
L 102.397861 122.515172 
L 102.544904 122.587563 
L 102.724256 122.674882 
L 102.936138 122.991624 
L 102.962613 122.844473 
L 103.021362 123.004563 
L 103.051478 123.004563 
L 103.080482 123.338202 
L 103.108995 122.893416 
L 103.140642 122.937456 
L 103.258704 123.047938 
L 103.28849 123.049947 
L 103.319942 123.224262 
L 103.382143 123.047938 
L 103.567816 122.980115 
L 103.716631 123.625917 
L 103.866471 123.625917 
L 104.018519 123.922725 
L 104.077991 123.922725 
L 104.414384 125.169725 
L 104.507484 125.233027 
L 104.720529 125.333973 
L 104.812393 126.311599 
L 104.842763 126.308483 
L 105.055868 126.382693 
L 105.203665 127.607114 
L 105.263976 127.223266 
L 105.323054 127.307366 
L 105.386782 127.335982 
L 105.537263 127.655785 
L 105.630643 127.687263 
L 105.660489 127.543069 
L 105.723194 127.712367 
L 105.78252 127.587962 
L 105.813674 127.701568 
L 105.872793 127.760834 
L 105.93569 127.619928 
L 106.056496 127.913358 
L 106.085776 127.913358 
L 106.208579 128.519629 
L 106.299737 128.519629 
L 106.420583 128.690976 
L 106.54511 128.512227 
L 106.663326 128.56117 
L 106.817937 129.273997 
L 106.940862 129.390622 
L 107.121537 129.45134 
L 107.154044 129.503338 
L 107.245668 130.374078 
L 107.275837 130.19816 
L 107.520721 130.478936 
L 107.761922 130.541754 
L 107.791124 130.61358 
L 107.851919 130.559681 
L 107.970777 130.467463 
L 108.187831 130.558757 
L 108.332687 130.632003 
L 108.489394 130.699225 
L 108.524795 130.872078 
L 108.561475 130.632003 
L 108.591809 130.817607 
L 108.850105 130.704106 
L 109.006498 131.615091 
L 109.038503 131.72787 
L 109.101286 131.284419 
L 109.161965 131.431655 
L 109.195712 131.353297 
L 109.225988 132.311673 
L 109.290942 131.683969 
L 109.365019 131.782082 
L 109.40629 131.473334 
L 109.502983 131.553011 
L 109.638027 131.61373 
L 109.706445 131.886848 
L 109.735824 131.497105 
L 109.807043 131.61373 
L 110.034597 132.678126 
L 110.095456 132.678126 
L 110.31108 133.431375 
L 110.464848 133.524687 
L 110.524707 133.611846 
L 110.616956 133.242706 
L 110.679219 133.778168 
L 110.743023 133.625087 
L 110.772345 133.92427 
L 110.832213 133.625087 
L 110.863715 133.625087 
L 110.894597 134.039586 
L 110.989638 133.951032 
L 111.018177 134.039586 
L 111.050407 133.907823 
L 111.078755 133.907823 
L 111.109648 133.907823 
L 111.172161 134.211993 
L 111.201451 133.850271 
L 111.295364 134.220358 
L 111.326742 133.956548 
L 111.511557 133.956548 
L 111.764484 135.59083 
L 111.828184 135.44964 
L 111.894841 134.956452 
L 111.95934 135.008809 
L 112.023073 135.008809 
L 112.057206 134.645569 
L 112.132411 135.712619 
L 112.173748 135.258977 
L 112.330656 136.123095 
L 112.547697 136.182608 
L 112.579485 136.416652 
L 112.668624 136.276118 
L 112.786778 136.342909 
L 112.818712 136.390153 
L 112.880768 136.315083 
L 113.00661 136.235912 
L 113.101405 136.554818 
L 113.132544 136.413997 
L 113.224902 136.413997 
L 113.3806 137.393666 
L 113.410341 136.887901 
L 113.441826 137.548965 
L 113.469612 137.283085 
L 113.500922 137.679694 
L 113.592432 137.533736 
L 113.826096 137.438816 
L 114.010664 138.072816 
L 114.072582 137.927967 
L 114.164087 138.260937 
L 114.196214 138.173407 
L 114.292235 138.164082 
L 114.352503 138.037174 
L 114.380888 138.38514 
L 114.476829 138.206119 
L 114.507968 138.206119 
L 114.541364 138.423751 
L 114.626589 138.353355 
L 114.686746 138.353355 
L 114.715256 138.206119 
L 114.746797 138.320222 
L 114.926869 139.458066 
L 114.959675 139.384323 
L 114.989451 139.384323 
L 115.021295 139.264382 
L 115.052371 139.497102 
L 115.08597 139.403476 
L 115.267313 139.778552 
L 115.329491 139.540622 
L 115.390691 139.614064 
L 115.507916 139.703269 
L 115.598906 140.211894 
L 115.628345 139.865709 
L 115.658345 139.865709 
L 115.744618 140.352624 
L 115.771535 140.091206 
L 115.804899 140.091206 
L 115.921947 140.371938 
L 115.950017 140.281829 
L 116.010753 140.868775 
L 116.071452 140.829956 
L 116.16196 140.909135 
L 116.283188 141.599375 
L 116.373714 141.664106 
L 116.524464 142.00908 
L 116.582818 141.808483 
L 116.614974 141.983218 
L 116.796555 142.153779 
L 116.825054 142.040998 
L 116.883914 142.166119 
L 117.127878 142.46012 
L 117.216561 142.321504 
L 117.246381 142.345476 
L 117.278086 142.638763 
L 117.338255 142.413464 
L 117.399818 142.482342 
L 117.462116 142.266374 
L 117.580682 142.404668 
L 117.672082 142.266374 
L 117.701898 142.321504 
L 117.84332 142.518945 
L 117.874243 142.335252 
L 117.932197 142.508723 
L 117.998443 142.508723 
L 118.14795 142.342585 
L 118.175849 142.342585 
L 118.236825 142.46012 
L 118.297946 142.390382 
L 118.535595 142.390382 
L 118.658886 142.825087 
L 118.686259 142.6518 
L 118.798923 142.418137 
L 118.924515 142.85174 
L 118.955743 142.583735 
L 119.03971 142.753132 
L 119.156071 143.026652 
L 119.186025 142.67783 
L 119.248359 143.086882 
L 119.307235 143.086882 
L 119.397743 143.428817 
L 119.458531 143.335263 
L 119.488999 143.335263 
L 119.520038 142.966941 
L 119.610308 143.071907 
L 119.639145 143.196701 
L 119.690975 143.064388 
L 119.719548 143.049116 
L 119.868432 143.225198 
L 120.020352 143.182335 
L 120.346892 143.164665 
L 120.472093 143.93609 
L 120.49963 143.908336 
L 120.617534 144.123925 
L 120.703828 144.066764 
L 120.821462 144.688337 
L 120.940065 144.720755 
L 121.181999 145.392197 
L 121.211727 145.392197 
L 121.267918 144.915374 
L 121.331877 144.963685 
L 121.394602 144.821695 
L 121.426177 145.004792 
L 121.548014 145.253173 
L 121.577336 145.22843 
L 121.699481 145.449113 
L 121.729936 145.449113 
L 121.909206 145.84884 
L 121.939114 145.56526 
L 122.00007 145.793081 
L 122.206211 145.723759 
L 122.357984 146.335946 
L 122.419525 146.335946 
L 122.511003 146.183304 
L 122.540872 146.233499 
L 122.569371 146.233499 
L 122.659702 146.61419 
L 122.689739 146.452547 
L 122.749687 146.567102 
L 122.780441 146.641352 
L 122.84404 146.563187 
L 122.932314 146.563187 
L 123.07725 147.010935 
L 123.22385 147.16099 
L 123.437845 147.205061 
L 123.499299 147.758793 
L 123.556463 147.431775 
L 123.769122 147.474638 
L 123.857956 147.665835 
L 123.888579 147.60036 
L 123.980158 147.665835 
L 124.009734 147.712084 
L 124.039787 147.563387 
L 124.071093 147.563387 
L 124.133576 147.802428 
L 124.164685 147.673336 
L 124.227769 147.497912 
L 124.374063 147.911708 
L 124.435892 147.932318 
L 124.464477 147.74467 
L 124.577967 148.043072 
L 124.63903 147.969076 
L 124.669016 148.083577 
L 124.728033 148.175835 
L 124.793164 148.979746 
L 124.855418 148.527499 
L 125.00547 149.101919 
L 125.068178 148.894927 
L 125.216931 149.428076 
L 125.247348 149.385213 
L 125.39645 150.022253 
L 125.428092 150.022253 
L 125.522814 150.421811 
L 125.553109 150.371123 
L 125.582654 150.370108 
L 125.792617 151.01069 
L 125.912294 150.850119 
L 125.941553 150.900313 
L 126.00056 151.092637 
L 126.030872 150.850119 
L 126.090068 150.977449 
L 126.150139 151.123776 
L 126.20868 151.036095 
L 126.268893 150.765301 
L 126.299112 151.002747 
L 126.358736 150.944115 
L 126.449208 151.311746 
L 126.566596 151.122415 
L 126.596106 151.155984 
L 126.873493 151.390887 
L 126.902333 151.219102 
L 127.050306 151.827803 
L 127.138717 151.657633 
L 127.259742 151.847399 
L 127.288633 151.827494 
L 127.435819 151.733306 
L 127.55041 151.964409 
L 127.644111 152.019367 
L 127.673824 151.838687 
L 127.764307 152.027748 
L 127.822059 151.879591 
L 127.914497 151.879591 
L 127.946402 152.126052 
L 128.035497 152.041234 
L 128.094653 152.041234 
L 128.12523 152.168891 
L 128.184782 152.041234 
L 128.272247 152.041234 
L 128.334866 152.50593 
L 128.396477 152.275576 
L 128.489559 152.183239 
L 128.521577 152.254413 
L 128.612138 152.254413 
L 128.75656 152.477691 
L 128.870709 152.550343 
L 128.931883 152.442682 
L 128.96301 152.558545 
L 129.166099 152.609233 
L 129.351521 153.027942 
L 129.471643 154.101507 
L 129.530182 154.585598 
L 129.617307 154.483729 
L 129.706657 154.570944 
L 130.247922 155.562908 
L 130.453941 155.608914 
L 130.601526 155.935123 
L 130.661043 155.974861 
L 130.815104 157.618337 
L 130.904951 157.568353 
L 130.935653 157.692272 
L 131.026415 157.651432 
L 131.115045 157.726229 
L 131.14875 157.800478 
L 131.208214 157.511262 
L 131.24067 157.598656 
L 131.423718 158.423265 
L 131.480638 158.547568 
L 131.510676 158.413609 
L 131.570839 158.360481 
L 131.601817 158.444066 
L 131.63175 158.787765 
L 131.691874 158.486964 
L 131.781604 158.488663 
L 131.841395 158.629801 
L 131.900945 158.270683 
L 132.269789 158.680822 
L 132.328796 158.445383 
L 132.390115 158.550415 
L 132.419832 158.554469 
L 132.449946 158.336812 
L 132.512037 158.357753 
L 132.665154 158.723115 
L 132.753352 158.723115 
L 132.902466 158.451642 
L 132.994681 158.866085 
L 133.084554 158.823043 
L 133.115402 158.929756 
L 133.175088 158.839844 
L 133.262812 158.683005 
L 133.388998 158.961521 
L 133.54119 158.969783 
L 133.633822 158.644324 
L 133.66241 158.870372 
L 133.842141 158.792481 
L 133.901309 158.851437 
L 134.139522 159.373407 
L 134.171553 159.284121 
L 134.235965 159.416731 
L 134.321624 159.503947 
L 134.445719 159.226852 
L 134.503684 159.226852 
L 134.564027 159.612566 
L 134.592244 159.512249 
L 134.718575 159.271019 
L 134.840545 159.381349 
L 135.02366 159.779921 
L 135.122603 159.819499 
L 135.180802 159.512068 
L 135.241455 159.512068 
L 135.332808 159.772456 
L 135.363116 159.604264 
L 135.454717 159.611053 
L 135.484384 159.759524 
L 135.512865 159.564495 
L 135.57557 159.684532 
L 135.636478 159.684532 
L 135.697045 159.912226 
L 135.753399 159.771893 
L 136.085344 159.87098 
L 136.26659 160.248983 
L 136.387898 160.326133 
L 136.513423 160.510401 
L 136.573476 160.46488 
L 136.602764 160.46488 
L 136.633742 160.292031 
L 136.665044 160.31724 
L 136.786571 160.726299 
L 136.907299 160.571017 
L 136.934748 160.839526 
L 137.024523 160.648167 
L 137.087643 160.629353 
L 137.118168 160.52813 
L 137.150504 160.76062 
L 137.181362 160.76062 
L 137.210007 160.565276 
L 137.274822 160.786915 
L 137.339004 160.786915 
L 137.460285 161.029607 
L 137.639859 160.781174 
L 137.671807 160.864065 
L 137.730797 161.059705 
L 137.793007 160.975496 
L 137.82265 161.013132 
L 137.852012 161.330476 
L 137.883389 160.965774 
L 137.942683 161.208466 
L 137.974729 161.042924 
L 138.03595 161.092327 
L 138.187513 161.442837 
L 138.277095 161.439572 
L 138.393482 161.941364 
L 138.419866 161.439572 
L 138.510206 161.50368 
L 138.572648 161.777232 
L 138.634299 161.767619 
L 138.72404 161.844769 
L 138.846405 162.105767 
L 138.967446 162.105767 
L 139.148325 162.526099 
L 139.208238 162.476757 
L 139.330463 162.768948 
L 139.3608 162.622609 
L 139.421085 162.719605 
L 139.87002 163.136257 
L 139.957388 163.737664 
L 139.98799 163.475744 
L 140.018052 163.421611 
L 140.138203 163.716733 
L 140.374268 163.821019 
L 140.702114 164.002715 
L 140.753481 163.895489 
L 140.784735 164.069049 
L 140.88012 164.05693 
L 140.910798 163.841356 
L 140.980929 164.022581 
L 141.133583 164.135212 
L 141.284962 164.025391 
L 141.407063 164.166676 
L 141.438592 164.079954 
L 141.468888 164.256763 
L 141.527204 164.13989 
L 141.558076 164.079954 
L 141.616179 164.163868 
L 141.735893 164.383565 
L 142.044968 164.383565 
L 142.129404 164.611259 
L 142.25377 164.383565 
L 142.336843 164.779366 
L 142.395908 164.540125 
L 142.842016 164.892141 
L 142.871907 164.78541 
L 142.930264 164.886803 
L 143.049093 164.886803 
L 143.141295 165.857433 
L 143.171854 165.741228 
L 143.260622 166.018873 
L 143.31748 165.968922 
L 143.525207 165.941373 
L 143.582587 166.19735 
L 143.611269 165.941373 
L 143.638573 165.941373 
L 143.696401 166.008801 
L 143.755006 165.79062 
L 143.787073 165.79062 
L 143.921815 166.022195 
L 144.069104 166.16275 
L 144.09982 166.16275 
L 144.191456 166.348053 
L 144.222095 166.32715 
L 144.549346 166.65175 
L 144.580404 166.563427 
L 144.666654 166.441091 
L 144.695168 166.521913 
L 144.752127 166.494033 
L 144.814831 166.702483 
L 144.845608 166.521913 
L 144.9356 166.521913 
L 145.056379 166.640866 
L 145.145013 166.710197 
L 145.178197 166.976691 
L 145.209984 166.554607 
L 145.242249 166.508049 
L 145.27584 166.733789 
L 145.338534 166.604558 
L 145.369578 166.554607 
L 145.399359 166.843648 
L 145.487567 166.643738 
L 145.575302 166.879101 
L 145.725987 167.355183 
L 145.782141 167.355183 
L 145.813675 167.495303 
L 145.90642 167.427267 
L 146.358516 167.355183 
L 146.472129 167.539927 
L 146.665975 167.539927 
L 146.757418 167.389174 
L 146.787956 167.421343 
L 146.81824 167.529294 
L 146.846413 167.389174 
L 146.876656 167.389174 
L 146.905253 167.389174 
L 147.026308 167.262786 
L 147.054026 167.262786 
L 147.20256 168.053443 
L 147.231778 167.41354 
L 147.29122 167.927056 
L 147.476389 168.248384 
L 147.568721 167.949189 
L 147.71999 168.553809 
L 147.840216 168.414726 
L 147.957595 168.548176 
L 147.985365 168.397423 
L 148.014171 168.687259 
L 148.042605 168.687259 
L 148.072047 168.687259 
L 148.099687 168.869504 
L 148.160442 168.694315 
L 148.311593 168.783446 
L 148.402523 169.152998 
L 148.461992 168.694315 
L 148.493666 169.015643 
L 148.583255 169.015643 
L 148.706068 169.137963 
L 148.792472 168.86489 
L 148.823146 169.005805 
L 148.857552 169.065595 
L 148.901478 169.005805 
L 149.014054 168.86489 
L 149.27847 168.966506 
L 149.36831 169.076201 
L 149.39812 169.032972 
L 149.42811 169.032972 
L 149.545104 169.181295 
L 149.637382 169.181295 
L 149.782582 169.426452 
L 149.8753 169.426452 
L 149.932757 169.635024 
L 149.991896 169.283784 
L 150.113576 169.6947 
L 150.142997 169.410259 
L 150.20255 169.548927 
L 150.470898 170.182674 
L 150.503021 170.182674 
L 150.560902 169.833783 
L 150.618836 169.931899 
L 150.648154 169.947769 
L 150.733415 170.182674 
L 150.789259 169.932367 
L 150.928486 170.471177 
L 151.014014 170.471177 
L 151.28104 171.460079 
L 151.370253 171.321411 
L 151.39931 171.391697 
L 151.455368 171.487399 
L 151.515512 171.443731 
L 151.606274 171.445629 
L 151.748541 171.581819 
L 151.806896 171.581819 
L 151.836591 171.706037 
L 151.898795 171.567949 
L 152.340363 171.648746 
L 152.668026 171.927351 
L 152.698446 171.790058 
L 152.757594 171.879101 
L 152.876926 172.185435 
L 152.93398 172.11419 
L 152.993685 172.11419 
L 153.148908 172.339046 
L 153.326528 172.211044 
L 153.354731 172.239725 
L 153.500461 172.468775 
L 153.764638 172.427904 
L 153.844655 172.634763 
L 153.875407 172.411677 
L 153.905346 172.768551 
L 153.935032 172.768551 
L 154.056488 172.695736 
L 154.202099 173.007009 
L 154.310784 172.954922 
L 154.432815 173.318068 
L 154.611183 173.409029 
L 155.413511 173.433552 
L 155.471345 173.569895 
L 155.500288 173.480853 
L 155.593177 173.452172 
L 155.797285 174.033906 
L 155.826379 173.885215 
L 155.855448 174.104681 
L 155.88359 174.104681 
L 155.972306 174.019077 
L 156.119894 174.601579 
L 156.272691 174.698813 
L 156.389598 174.608018 
L 156.887553 174.591558 
L 157.097611 174.846631 
L 157.127574 174.587797 
L 157.218487 174.644896 
L 157.462501 174.802332 
L 158.059194 174.848747 
L 158.118702 174.956058 
L 158.150429 174.885703 
L 158.239535 174.802332 
L 158.270045 174.881577 
L 158.298349 175.048656 
L 158.331962 174.856668 
L 158.363227 174.856668 
L 158.457661 174.887047 
L 158.488783 175.07463 
L 158.581193 175.051574 
L 158.930427 174.941562 
L 158.960149 174.694561 
L 159.017744 175.102942 
L 159.13822 175.102942 
L 159.199046 174.841779 
L 159.291932 174.886277 
L 159.409214 175.129411 
L 159.438119 175.062848 
L 159.467731 174.799594 
L 159.529304 175.024945 
L 159.767813 175.123028 
L 159.798126 174.805682 
L 159.85735 174.941857 
L 159.916503 175.146599 
L 160.004112 175.116303 
L 160.066715 174.851457 
L 160.096954 175.541631 
L 160.18712 175.088621 
L 160.479655 175.191678 
L 160.598705 175.236478 
L 160.629177 175.191678 
L 160.888555 175.258112 
L 160.980561 175.362578 
L 161.013346 175.168451 
L 161.044545 175.401016 
L 161.104945 175.277637 
L 161.167014 175.308017 
L 161.199037 175.108951 
L 161.231396 175.701667 
L 161.290263 175.108951 
L 161.467077 175.385932 
L 161.497891 175.237475 
L 161.585542 175.286339 
L 161.762388 175.365675 
L 161.915394 175.418718 
L 161.974215 175.362524 
L 162.004547 175.382241 
L 162.034606 175.614414 
L 162.095514 175.472637 
L 162.183253 175.390492 
L 162.211645 175.556773 
L 162.240573 175.328245 
L 162.270352 175.328245 
L 162.509846 175.373038 
L 162.569715 175.735722 
L 162.632206 175.690929 
L 162.785426 175.558271 
L 162.877464 175.831459 
L 162.905851 175.653818 
L 163.029066 175.952317 
L 163.11981 175.603396 
L 163.211452 176.003435 
L 163.274894 175.657731 
L 163.304084 176.241587 
L 163.363985 175.617683 
L 163.513593 175.814393 
L 163.570683 175.606374 
L 163.600493 175.663337 
L 163.727217 176.124533 
L 163.755932 176.124533 
L 163.845568 176.305424 
L 163.875702 176.26324 
L 163.90606 176.26324 
L 163.933904 176.777882 
L 163.96246 176.165617 
L 163.991233 176.165617 
L 164.08082 176.419925 
L 164.20216 176.172766 
L 164.384317 176.172766 
L 164.444453 176.589373 
L 164.507104 176.52155 
L 164.776968 176.580613 
L 164.837135 176.894071 
L 164.865841 176.670723 
L 164.924358 176.463759 
L 165.014631 176.522195 
L 165.04704 176.703707 
L 165.108786 176.629477 
L 165.196368 176.488425 
L 165.31717 177.034077 
L 165.347271 177.034077 
L 165.381872 176.922668 
L 165.442128 176.989579 
L 165.591422 177.653367 
L 166.0083 177.804062 
L 166.15593 177.804062 
L 166.186548 177.644045 
L 166.248374 177.753915 
L 166.305947 177.753915 
L 166.42716 178.318993 
L 166.457274 178.181931 
L 166.547714 178.278393 
L 166.701272 178.373655 
L 166.762533 178.237575 
L 166.790363 178.367809 
L 166.937273 178.616078 
L 167.052329 178.474716 
L 167.079071 178.493494 
L 167.408335 178.9186 
L 167.438632 178.822045 
L 167.469128 178.822045 
L 167.529959 179.100009 
L 167.5905 178.968747 
L 167.682451 178.967377 
L 167.830877 179.154587 
L 167.977112 179.3153 
L 168.100964 179.22031 
L 168.190924 179.180262 
L 168.339523 179.742575 
L 168.370208 179.736079 
L 168.398627 179.472367 
L 168.46216 179.567071 
L 168.493586 179.72861 
L 168.581449 179.687758 
L 168.611234 179.579431 
L 168.670272 179.619479 
L 168.698074 179.736079 
L 168.726943 179.567071 
L 168.757705 179.567071 
L 168.816865 179.567071 
L 168.846589 179.742575 
L 168.877957 179.470516 
L 168.910328 179.551656 
L 168.941598 179.551656 
L 168.971451 179.741766 
L 169.064029 179.682264 
L 169.1241 179.579431 
L 169.270384 179.546477 
L 169.334145 179.742575 
L 169.395317 179.663077 
L 169.546134 179.567071 
L 169.729982 179.421984 
L 169.760657 179.686233 
L 169.851718 179.627441 
L 169.973031 179.749729 
L 170.271195 179.74527 
L 170.300739 179.929428 
L 170.392466 179.835796 
L 170.450343 179.91676 
L 170.477545 179.654335 
L 170.567537 179.820298 
L 170.717711 179.668764 
L 170.780658 179.778191 
L 170.840589 179.879567 
L 170.871714 179.811744 
L 171.021589 179.778191 
L 171.084634 179.778191 
L 171.114546 179.894791 
L 171.170477 179.827177 
L 171.199852 179.71128 
L 171.231311 179.888078 
L 171.260553 179.894791 
L 171.37937 179.955528 
L 171.468596 179.912043 
L 171.533639 179.955966 
L 171.6545 179.785271 
L 171.684444 179.970894 
L 171.746155 179.77491 
L 171.865007 179.856397 
L 171.895191 179.507486 
L 171.955405 179.881297 
L 171.988045 180.058635 
L 172.049056 179.934144 
L 172.139592 179.934144 
L 172.167645 180.129537 
L 172.198274 179.842487 
L 172.226815 179.842487 
L 172.520848 180.366259 
L 172.642076 180.329604 
L 172.72955 180.758625 
L 172.790699 180.691747 
L 172.935631 180.94448 
L 173.058145 180.709417 
L 173.2389 180.638847 
L 173.298962 180.536041 
L 173.327068 180.650269 
L 173.415513 180.650269 
L 173.445297 180.500598 
L 173.504057 180.771677 
L 173.592365 180.623694 
L 173.62385 180.705542 
L 173.827845 181.278379 
L 173.855642 181.140789 
L 173.943038 181.214699 
L 173.973277 181.139672 
L 174.002766 181.280172 
L 174.031632 181.214699 
L 174.210611 181.160644 
L 174.298824 181.404015 
L 174.325984 181.321568 
L 174.479089 181.738164 
L 174.569647 181.376981 
L 174.601532 181.462275 
L 174.661847 181.498244 
L 174.720331 181.586752 
L 174.80967 181.291745 
L 174.837695 181.358656 
L 175.054402 181.288335 
L 175.084866 181.221424 
L 175.143689 181.704528 
L 175.206395 181.40611 
L 175.264922 181.352055 
L 175.29567 181.933592 
L 175.387242 181.925669 
L 175.417898 181.925669 
L 175.480118 182.155557 
L 175.539571 182.088646 
L 175.629153 181.867052 
L 175.661222 181.976551 
L 175.839147 182.025474 
L 175.902225 181.839496 
L 175.965663 181.90312 
L 176.115843 181.985936 
L 176.270799 181.985936 
L 176.394924 182.167847 
L 176.57491 182.102166 
L 176.693035 182.305556 
L 176.817691 182.218275 
L 176.938343 182.320621 
L 177.059614 182.411385 
L 177.12291 182.411385 
L 177.152613 182.614776 
L 177.213163 182.479374 
L 177.335512 182.377123 
L 177.431153 182.47993 
L 177.548405 182.738306 
L 177.580258 182.68425 
L 177.61062 182.798029 
L 177.642331 182.781484 
L 178.097892 182.916653 
L 178.129466 182.87379 
L 178.158071 182.916653 
L 178.305728 182.98491 
L 178.36528 182.916653 
L 178.426529 182.996311 
L 178.486881 183.099271 
L 178.551771 182.714599 
L 178.698276 183.120687 
L 178.755228 183.120687 
L 178.785564 182.794257 
L 178.847291 183.1476 
L 178.877469 183.079169 
L 178.907533 183.307702 
L 178.969347 183.120687 
L 179.032059 183.120687 
L 179.06336 182.9294 
L 179.123596 183.120687 
L 179.155378 183.120687 
L 179.248103 182.812718 
L 179.278225 183.077824 
L 179.367277 183.072988 
L 179.401673 182.812718 
L 179.433609 183.236797 
L 179.464685 183.010913 
L 179.554865 183.134381 
L 179.582615 183.010913 
L 179.612859 182.969395 
L 179.642327 183.074444 
L 179.670707 183.074444 
L 179.701784 183.113259 
L 179.793375 182.87595 
L 179.887755 183.376208 
L 179.917589 183.316272 
L 180.100798 183.62682 
L 180.161001 183.242856 
L 180.1902 183.561019 
L 180.254363 183.561019 
L 180.285933 183.201337 
L 180.377169 183.296262 
L 180.465965 183.196278 
L 180.528386 183.236326 
L 180.682881 183.309329 
L 180.714081 183.236326 
L 180.745114 183.194961 
L 180.775589 183.301799 
L 181.047159 183.409463 
L 181.13504 183.255538 
L 181.166611 183.359794 
L 181.291687 183.359794 
L 181.320797 183.56123 
L 181.383116 183.359794 
L 181.593118 183.470286 
L 181.653119 183.633081 
L 181.713478 183.516121 
L 181.923281 183.612812 
L 181.981696 183.650046 
L 182.011364 183.8559 
L 182.075531 183.708546 
L 182.106163 183.631631 
L 182.136296 184.042492 
L 182.19781 183.631631 
L 182.369913 183.737506 
L 182.43002 183.737506 
L 182.523482 183.662811 
L 182.64563 184.039296 
L 182.731825 183.718867 
L 182.764592 184.213039 
L 182.853995 184.091722 
L 183.004272 184.278512 
L 183.034172 184.119675 
L 183.065888 184.428329 
L 183.184776 184.728062 
L 183.216744 184.653368 
L 183.334326 185.210124 
L 183.396988 185.168439 
L 183.517968 186.287271 
L 183.635866 186.149703 
L 183.754017 186.467568 
L 183.8178 186.832669 
L 183.877207 186.735435 
L 183.907649 186.735435 
L 183.999413 186.557399 
L 184.028174 186.67007 
L 184.211362 186.681101 
L 184.299175 186.144113 
L 184.389327 186.711755 
L 184.420027 186.595375 
L 184.451294 186.616855 
L 184.602733 186.414315 
L 184.632943 186.414315 
L 184.667808 186.56958 
L 184.763775 186.146448 
L 184.824424 186.595375 
L 184.885478 186.344516 
L 185.039243 186.684589 
L 185.161852 186.430085 
L 185.285736 186.680172 
L 185.347059 186.430085 
L 185.380109 186.726703 
L 185.472231 186.726703 
L 185.563666 186.394801 
L 185.627231 186.332316 
L 185.719254 186.852626 
L 185.750695 186.798523 
L 185.781261 186.852626 
L 185.812721 186.974538 
L 185.843608 186.612571 
L 185.93128 186.709805 
L 185.96134 187.068562 
L 186.021016 186.647856 
L 186.051395 186.764713 
L 186.114518 186.593753 
L 186.293027 186.60886 
L 186.323035 186.723196 
L 186.354109 186.553041 
L 186.38227 186.553041 
L 186.61875 186.650275 
L 186.648109 186.855338 
L 186.679699 186.618513 
L 186.710092 186.707159 
L 186.828446 186.618513 
L 186.952538 186.740734 
L 187.043671 186.78563 
L 187.166682 186.51657 
L 187.19602 186.51657 
L 187.350463 186.693398 
L 187.409181 186.644336 
L 187.555447 186.969288 
L 187.64826 186.988819 
L 187.679182 187.16557 
L 187.772761 187.057933 
L 187.919362 186.983781 
L 187.950085 186.983781 
L 188.009595 187.530906 
L 188.039343 186.983781 
L 188.192525 186.983781 
L 188.312329 187.30713 
L 188.341695 187.295898 
L 188.800755 187.294204 
L 188.888293 187.247971 
L 188.918193 187.498403 
L 188.949539 187.498403 
L 188.971731 187.34765 
L 189.063991 187.413756 
L 189.275675 187.597115 
L 189.30706 187.499726 
L 189.369342 187.602053 
L 189.4929 187.774622 
L 189.555041 187.646575 
L 189.582474 187.813692 
L 189.674888 187.733419 
L 189.730987 187.624083 
L 189.850489 187.807572 
L 189.910539 187.705226 
L 189.939369 187.790952 
L 190.062144 187.928021 
L 190.179399 187.9772 
L 190.239667 188.127827 
L 190.299772 188.085643 
L 190.477456 188.025576 
L 190.565384 187.953972 
L 190.593856 188.025576 
L 190.774287 188.025576 
L 190.839698 188.233469 
L 190.870735 187.951424 
L 191.051838 187.967481 
L 191.110323 188.137008 
L 191.138286 187.915352 
L 191.168583 188.078912 
L 191.292586 187.983458 
L 191.591275 188.093974 
L 191.648557 188.17068 
L 191.798222 187.843475 
L 191.919035 187.956694 
L 192.040189 187.907632 
L 192.164278 189.004932 
L 192.194504 188.4661 
L 192.254637 188.458406 
L 192.281186 189.138935 
L 192.342255 188.458406 
L 192.457897 188.458406 
L 192.577747 188.261673 
L 193.140388 188.32174 
L 193.256598 188.124035 
L 193.286859 188.124035 
L 193.399812 188.345168 
L 193.547538 188.341788 
L 193.699181 189.398931 
L 193.730681 189.350865 
L 193.939172 189.350865 
L 193.969525 189.488145 
L 194.000937 189.276708 
L 194.029054 189.32577 
L 194.059242 189.32577 
L 194.089849 189.575682 
L 194.120728 189.276708 
L 194.175421 189.551786 
L 194.416055 189.458636 
L 194.596566 189.428276 
L 194.864775 189.513108 
L 194.894854 189.629955 
L 194.949966 189.513108 
L 195.132801 189.550343 
L 195.253653 189.735122 
L 195.315533 189.505803 
L 195.345444 189.732961 
L 195.404191 189.732961 
L 195.492355 190.345946 
L 195.523088 190.271793 
L 196.202894 190.361008 
L 196.262609 190.477855 
L 196.292305 190.361008 
L 196.531407 190.38864 
L 196.55995 190.232515 
L 196.617296 190.38864 
L 196.703492 190.38864 
L 196.734173 190.172201 
L 196.819726 190.289047 
L 196.966467 190.454348 
L 196.994661 190.357114 
L 197.086142 190.412069 
L 197.289485 190.477855 
L 197.705639 190.501283 
L 197.794589 190.613976 
L 197.890417 190.449242 
L 197.91904 190.477855 
L 197.980062 190.896373 
L 198.010195 190.516621 
L 198.278059 190.41485 
L 198.339785 190.360496 
L 198.401131 191.019556 
L 198.431507 190.360496 
L 198.52132 190.445048 
L 198.582786 190.380568 
L 198.608413 190.876842 
L 198.670676 190.635107 
L 198.792844 190.348057 
L 198.936888 190.348057 
L 199.055553 190.146213 
L 199.087937 190.146213 
L 199.237526 190.611387 
L 199.354806 190.563835 
L 199.501936 190.816739 
L 199.649776 190.816739 
L 199.740326 190.660614 
L 199.800833 191.076497 
L 199.862242 190.976904 
L 200.015692 191.076497 
L 200.077983 191.16968 
L 200.105749 191.076497 
L 200.349342 190.90849 
L 200.381177 191.484027 
L 200.467048 191.453667 
L 200.560766 191.453667 
L 200.588657 191.278679 
L 200.617805 191.484027 
L 200.648614 191.484027 
L 201.428894 191.488617 
L 201.458973 191.719035 
L 201.517335 191.625212 
L 201.633396 191.324926 
L 201.664813 191.523367 
L 201.693708 191.523367 
L 201.816741 191.871718 
L 201.845607 191.871718 
L 201.874834 191.680843 
L 201.966845 191.715593 
L 202.086527 192.180047 
L 202.14746 191.793105 
L 202.209092 191.823464 
L 202.357131 191.823464 
L 202.475007 191.566778 
L 203.082866 191.616795 
L 203.113277 191.692082 
L 203.198212 191.616795 
L 203.280141 191.71717 
L 203.311833 191.407464 
L 203.371418 191.729488 
L 203.402155 191.500646 
L 203.432672 191.70409 
L 203.464725 191.47748 
L 203.494017 191.47748 
L 203.52353 191.47748 
L 203.58698 191.968445 
L 203.640944 191.784783 
L 203.671655 191.784783 
L 203.792567 192.017197 
L 203.820862 191.986837 
L 203.941733 192.302745 
L 204.004617 191.986837 
L 204.035896 192.302745 
L 204.275689 192.120223 
L 204.426123 192.415438 
L 204.54378 192.272386 
L 204.606491 192.272386 
L 204.638204 192.516699 
L 204.697923 192.272386 
L 204.728463 192.115026 
L 204.759136 192.299368 
L 204.79088 192.299368 
L 204.96947 192.161209 
L 205.09052 192.241585 
L 205.119219 192.322158 
L 205.150053 192.063237 
L 205.23611 192.226684 
L 205.478452 192.063237 
L 205.509382 192.216318 
L 205.661153 192.445598 
L 205.756361 192.119308 
L 205.813391 192.236155 
L 205.84265 192.236155 
L 205.933662 192.119308 
L 205.963275 192.291264 
L 205.992343 191.938363 
L 206.208245 191.938363 
L 206.299684 192.236155 
L 206.358343 192.201085 
L 206.544532 192.080523 
L 207.292222 192.01217 
L 207.322969 192.512399 
L 207.411029 192.464145 
L 207.46937 192.378818 
L 207.49993 192.684981 
L 207.559345 192.25965 
L 207.70721 192.378818 
L 207.768145 192.330563 
L 207.825759 192.491511 
L 207.856305 192.378818 
L 207.947201 192.314719 
L 207.977111 192.450408 
L 208.065491 192.369348 
L 208.265942 192.40147 
L 208.389822 192.526982 
L 208.482513 192.374516 
L 208.512662 192.398824 
L 208.666288 192.321739 
L 208.786262 192.659017 
L 208.846248 192.569975 
L 208.996299 192.804459 
L 209.056215 192.706173 
L 209.084969 192.769143 
L 209.172089 192.881836 
L 209.202499 192.838798 
L 209.233149 192.654142 
L 209.322564 192.767756 
L 209.383448 192.619701 
L 209.414895 192.760751 
L 209.476561 192.900942 
L 209.506998 192.741684 
L 209.658523 192.563736 
L 209.687396 192.676429 
L 209.718382 192.727725 
L 209.749694 192.566598 
L 209.7795 192.686937 
L 209.840561 192.566598 
L 209.979808 193.890756 
L 210.008406 193.350766 
L 210.070692 193.455237 
L 210.132617 193.617345 
L 210.162619 193.459683 
L 210.280913 193.381567 
L 210.371271 193.780771 
L 210.401553 193.494028 
L 210.645086 193.494028 
L 210.768191 193.854101 
L 210.919386 193.725769 
L 210.951152 193.934296 
L 211.015288 193.665153 
L 211.076062 193.665153 
L 211.107305 193.44351 
L 211.135873 193.542764 
L 211.167371 193.933189 
L 211.227965 193.777033 
L 211.287203 193.44351 
L 211.375677 193.611437 
L 211.707792 193.673059 
L 211.797019 193.469582 
L 211.915896 193.642925 
L 212.221167 193.537112 
L 212.278347 193.619362 
L 212.311023 193.537112 
L 212.402259 193.537112 
L 212.432678 193.677842 
L 212.49104 193.506753 
L 212.550712 193.506753 
L 212.580667 193.283115 
L 212.643531 193.475402 
L 212.765504 193.475402 
L 212.796297 193.616132 
L 212.856637 193.432381 
L 212.888739 193.587646 
L 212.94838 193.638224 
L 213.041589 193.573 
L 213.252068 194.162336 
L 213.401476 194.130985 
L 213.52122 194.130985 
L 213.642469 194.303066 
L 213.672949 194.011818 
L 213.702753 194.318284 
L 213.730931 194.278678 
L 213.880081 194.295208 
L 213.974486 194.507958 
L 214.004395 194.433012 
L 214.305481 194.489223 
L 214.366329 194.330375 
L 214.395976 194.507958 
L 214.520174 194.496143 
L 214.549244 194.683064 
L 214.609675 194.549609 
L 214.85124 194.454693 
L 214.973428 194.663906 
L 215.154821 194.654468 
L 215.185037 194.790966 
L 215.246182 194.608037 
L 215.275409 194.608037 
L 215.338438 194.989447 
L 215.369585 194.577678 
L 215.550127 194.608037 
L 215.668328 194.608037 
L 215.852685 195.480736 
L 216.004425 195.145726 
L 216.035493 195.206342 
L 216.062964 195.206342 
L 216.244466 195.772149 
L 216.366398 195.520146 
L 216.488372 195.870572 
L 216.518562 195.751405 
L 216.549387 195.900706 
L 216.575585 195.870572 
L 216.814459 195.809956 
L 216.932045 196.022708 
L 217.116603 195.936059 
L 217.289684 195.932371 
L 217.372657 195.921144 
L 217.40394 195.694481 
L 217.465057 195.930495 
L 217.494952 196.281771 
L 217.558353 195.960629 
L 217.651506 195.982153 
L 217.775472 197.131047 
L 217.805456 197.229019 
L 217.865651 197.131047 
L 217.991156 197.131047 
L 218.050208 197.522421 
L 218.110973 197.35874 
L 218.199995 196.912395 
L 218.321081 197.660731 
L 218.381979 197.62938 
L 218.412624 197.751808 
L 218.477516 197.62938 
L 218.537969 197.408536 
L 218.659736 197.869625 
L 218.688558 197.869625 
L 218.775332 197.57736 
L 218.806242 197.675333 
L 218.925866 197.896168 
L 219.045236 197.798196 
L 219.137052 197.91858 
L 219.195312 197.871528 
L 219.378639 197.826311 
L 219.438659 197.668438 
L 219.468258 197.798196 
L 219.586762 197.830811 
L 219.616327 197.773887 
L 219.678525 197.830811 
L 219.919645 198.101168 
L 219.980145 197.974109 
L 220.041995 197.915693 
L 220.101507 198.352281 
L 220.16298 198.124587 
L 220.313007 198.166238 
L 220.343359 198.276102 
L 220.372956 198.063971 
L 220.432073 198.100279 
L 220.518382 198.475863 
L 220.549506 198.391135 
L 220.612268 198.549196 
L 220.643845 198.432842 
L 220.674886 198.432842 
L 220.76241 198.594586 
L 220.789456 198.475863 
L 220.817108 198.475863 
L 220.848221 198.659954 
L 220.935208 198.632251 
L 221.147192 198.534279 
L 221.176074 198.473662 
L 221.204198 198.661338 
L 221.23396 198.71023 
L 221.261763 198.579507 
L 221.291869 198.534279 
L 221.320707 198.16125 
L 221.411213 198.408613 
L 221.471925 198.536581 
L 221.501319 198.384888 
L 221.56058 198.384888 
L 221.590798 198.16125 
L 221.680301 198.319823 
L 221.710373 198.319823 
L 221.736975 198.54955 
L 221.827363 198.49583 
L 221.856688 198.438547 
L 221.886605 198.569058 
L 222.07027 198.672643 
L 222.191444 198.498014 
L 222.221675 198.498014 
L 222.313045 198.967281 
L 222.344688 198.466663 
L 222.43642 198.561026 
L 222.616584 198.625073 
L 222.705572 198.688085 
L 222.737113 198.625073 
L 222.917956 198.730137 
L 222.948029 198.807624 
L 223.01048 198.730137 
L 223.070675 198.730137 
L 223.190885 198.917487 
L 223.250199 198.501461 
L 223.278535 198.928008 
L 223.367961 198.928008 
L 223.395455 199.134051 
L 223.456553 198.928008 
L 223.548919 198.934683 
L 223.639925 198.621845 
L 223.6706 198.748904 
L 224.243289 198.805828 
L 224.273152 198.87916 
L 224.334503 198.805828 
L 224.486215 198.68866 
L 224.601284 199.014293 
L 224.659873 198.97781 
L 224.690325 199.146029 
L 224.750921 199.045047 
L 224.870372 198.96756 
L 225.024208 199.253345 
L 225.142297 199.175858 
L 225.262235 199.437436 
L 225.439405 199.437436 
L 225.469683 199.156741 
L 225.562043 199.253345 
L 225.593115 199.602653 
L 225.682763 199.558137 
L 225.795424 199.69214 
L 225.823159 199.370836 
L 225.917675 199.461533 
L 226.127144 199.558137 
L 226.15734 199.66444 
L 226.185928 199.501213 
L 226.216059 199.501213 
L 226.24403 199.526786 
L 226.27407 199.778784 
L 226.334827 199.594693 
L 226.424405 199.641129 
L 226.513865 199.775132 
L 226.571643 199.453829 
L 226.601981 199.739102 
L 226.691681 199.760037 
L 226.722775 199.727625 
L 227.093305 199.727625 
L 227.184292 200.00143 
L 227.214276 199.94133 
L 227.242657 199.86985 
L 227.332205 200.149922 
L 227.417108 199.75403 
L 227.535478 200.429061 
L 227.658848 200.24176 
L 227.719181 200.344962 
L 227.778636 200.219948 
L 227.868692 200.617323 
L 227.953433 200.669519 
L 227.983899 201.051958 
L 228.043629 200.727934 
L 228.250988 200.784966 
L 228.36888 201.034722 
L 228.397483 200.935153 
L 228.825097 200.963826 
L 228.856384 201.209932 
L 228.915507 200.935153 
L 228.979857 200.935153 
L 229.096046 201.082203 
L 229.21023 201.082203 
L 229.239268 201.216206 
L 229.298564 201.082203 
L 229.6263 201.130191 
L 229.836108 201.655975 
L 230.045432 201.709725 
L 230.076757 201.829851 
L 230.133123 201.709725 
L 230.376923 201.684173 
L 230.433708 201.578188 
L 230.491387 201.623877 
L 230.580214 201.663975 
L 230.611368 202.147712 
L 230.701942 201.879431 
L 230.760013 201.790234 
L 230.85047 201.747841 
L 230.879504 201.837037 
L 230.936076 201.747841 
L 230.997794 201.549692 
L 231.028825 201.747841 
L 231.347324 201.855921 
L 231.493176 202.10471 
L 231.524064 202.10471 
L 231.584302 201.801371 
L 231.673423 201.970423 
L 231.793703 201.970423 
L 231.824219 202.176179 
L 231.884349 201.970423 
L 231.913094 201.970423 
L 232.037815 202.219907 
L 232.09687 202.125008 
L 232.125933 202.237962 
L 232.2123 202.13434 
L 232.268934 201.948306 
L 232.327238 202.050241 
L 232.417675 202.050241 
L 232.474982 201.841128 
L 232.56229 202.308157 
L 232.682405 201.957011 
L 232.739671 202.234338 
L 232.79888 202.139438 
L 233.09677 202.19325 
L 233.186333 202.395369 
L 233.305733 202.19325 
L 233.430155 202.38886 
L 233.66286 202.372321 
L 233.750856 202.46722 
L 233.81336 202.243582 
L 233.846903 202.525689 
L 233.967439 202.577957 
L 233.999382 202.638324 
L 234.063279 202.552331 
L 234.158577 202.354182 
L 234.288656 202.552331 
L 234.410058 202.321404 
L 234.674662 202.414173 
L 234.829203 202.414173 
L 234.895356 202.074548 
L 234.925357 202.581767 
L 235.019208 202.487505 
L 235.145541 202.383618 
L 235.262253 202.833135 
L 235.322377 202.950046 
L 235.410765 202.45598 
L 235.439864 202.45598 
L 235.470956 202.62726 
L 235.500621 202.522505 
L 235.531712 202.313392 
L 235.589536 202.522505 
L 235.706216 202.855359 
L 235.979927 202.830336 
L 236.037182 203.325074 
L 236.124247 203.171215 
L 236.154065 203.171215 
L 236.303961 203.486593 
L 236.331745 203.486593 
L 236.364464 203.246529 
L 236.393879 203.54308 
L 236.424968 203.283195 
L 236.546514 203.786198 
L 236.575651 203.570825 
L 236.664604 203.717455 
L 236.932387 203.827593 
L 236.990474 203.986542 
L 237.047809 203.909488 
L 237.105679 203.844016 
L 237.165116 203.988704 
L 237.196548 203.844016 
L 237.227239 203.844016 
L 237.286936 204.050677 
L 237.351988 203.990031 
L 237.382235 204.129893 
L 237.412419 203.911053 
L 237.439568 204.043451 
L 237.469799 203.687415 
L 237.560303 203.911053 
L 237.646086 203.985205 
L 237.738031 203.669828 
L 237.826489 203.985205 
L 237.94681 203.711749 
L 238.097254 203.671355 
L 238.215331 203.861365 
L 238.419944 203.768135 
L 238.448447 203.452757 
L 238.478017 203.730648 
L 238.506864 204.181134 
L 238.563659 203.730648 
L 238.596335 203.730648 
L 238.627991 203.914739 
L 238.68774 203.767749 
L 238.745636 203.767749 
L 238.776201 203.914739 
L 238.834909 203.767749 
L 238.892078 203.767749 
L 239.011228 204.097181 
L 239.074233 203.980356 
L 239.189956 204.326388 
L 239.219068 204.326388 
L 239.27922 204.10275 
L 239.30567 204.326388 
L 239.36608 204.326388 
L 239.517627 204.626746 
L 239.603833 204.442655 
L 239.634367 204.498235 
L 239.720199 204.19594 
L 239.808689 204.353961 
L 239.96302 204.678017 
L 240.048885 204.551874 
L 240.165838 204.79512 
L 240.219965 204.28683 
L 240.278845 204.3302 
L 240.368235 204.549442 
L 240.338808 204.246729 
L 240.425598 204.415743 
L 240.51955 204.415743 
L 240.551889 204.529849 
L 240.610986 204.443898 
L 240.786981 204.415743 
L 240.817691 204.415743 
L 240.936403 204.102533 
L 240.992929 204.491057 
L 241.049744 204.415743 
L 241.078429 204.100366 
L 241.105199 204.480999 
L 241.136656 204.480999 
L 241.288495 204.388021 
L 241.412056 204.167788 
L 241.444154 204.167788 
L 241.590291 204.53926 
L 241.680287 204.451577 
L 241.711076 204.507157 
L 241.830066 204.466612 
L 241.860334 204.926689 
L 241.948795 204.840781 
L 242.160414 204.840781 
L 242.218193 204.775837 
L 242.246043 205.101218 
L 242.362091 204.766357 
L 242.506614 205.016715 
L 242.566782 204.969492 
L 242.624535 204.969492 
L 242.683957 205.120815 
L 242.767589 204.760379 
L 242.796329 204.825323 
L 242.862212 205.198364 
L 242.922083 204.925728 
L 242.952005 205.001042 
L 242.982859 204.848062 
L 243.073253 204.848062 
L 243.19185 204.969492 
L 243.45513 204.896159 
L 243.512251 204.606028 
L 243.541796 205.094002 
L 243.630156 204.824339 
L 243.659326 204.983843 
L 243.720969 204.900571 
L 243.958976 204.547262 
L 244.016485 204.605523 
L 244.046448 204.459579 
L 244.168002 204.9889 
L 244.313485 204.618135 
L 244.401594 204.832684 
L 244.515566 204.966051 
L 244.631764 204.509962 
L 244.750929 204.612742 
L 244.808378 204.85273 
L 244.866906 204.738243 
L 244.89697 204.738243 
L 244.928297 204.917124 
L 245.015584 204.824967 
L 245.150412 205.086864 
L 245.180582 204.879432 
L 245.267535 204.984738 
L 245.294639 205.06833 
L 245.324462 204.917505 
L 245.444911 204.915543 
L 245.563487 205.056732 
L 245.652344 204.884733 
L 245.714389 205.210785 
L 245.772783 205.004061 
L 245.833918 204.914864 
L 245.862867 205.004061 
L 245.894658 205.004061 
L 246.008508 204.721117 
L 246.129958 205.252346 
L 246.244592 204.988939 
L 246.455246 205.182824 
L 246.594312 205.182824 
L 246.771001 205.182824 
L 246.888637 204.973711 
L 246.917491 204.973711 
L 246.947284 205.218271 
L 247.007163 204.973711 
L 247.185665 204.973711 
L 247.215532 205.217796 
L 247.242826 204.886027 
L 247.275569 204.886027 
L 247.495917 204.886027 
L 247.52722 205.248407 
L 247.614942 205.09514 
L 247.872537 205.038915 
L 247.931008 205.354459 
L 247.993054 205.257776 
L 248.168607 205.313999 
L 248.29629 205.424173 
L 248.593972 205.494882 
L 248.655639 205.454784 
L 248.748144 205.678973 
L 248.900461 205.678973 
L 248.931879 205.547939 
L 248.993691 205.678973 
L 249.171946 205.678973 
L 249.257882 205.804844 
L 249.285523 205.678973 
L 249.315354 205.678973 
L 249.461156 205.918992 
L 249.491642 205.720198 
L 249.550724 205.91375 
L 249.672261 206.070125 
L 249.79333 205.986368 
L 249.938532 206.030018 
L 250.060516 205.973792 
L 250.122019 206.301166 
L 250.151292 205.973792 
L 250.780054 206.081619 
L 250.808601 206.171721 
L 250.899417 206.140947 
L 250.960298 206.140947 
L 251.049643 206.298096 
L 251.16991 206.110815 
L 251.320666 206.31686 
L 251.439349 206.149878 
L 251.49516 206.149878 
L 251.52441 206.038499 
L 251.55592 206.149878 
L 251.584873 206.602556 
L 251.671312 206.267369 
L 251.6997 206.267369 
L 251.730659 206.149878 
L 251.820186 206.184698 
L 251.879719 206.184698 
L 252.000787 206.341847 
L 252.05837 206.241713 
L 252.08769 206.724848 
L 252.147233 206.367108 
L 252.35796 206.200943 
L 252.511465 206.299536 
L 252.565788 206.200943 
L 252.65324 206.376955 
L 252.683692 206.376955 
L 252.769564 206.557736 
L 252.882388 206.376955 
L 252.91308 206.376955 
L 252.942073 206.238088 
L 252.97119 206.418917 
L 252.99892 206.418917 
L 253.234054 206.430698 
L 253.32406 206.49961 
L 253.353452 206.243279 
L 253.384818 206.223562 
L 253.414047 206.320245 
L 254.130495 206.398296 
L 254.426471 206.892495 
L 254.542764 207.05451 
L 254.629326 206.975034 
L 254.755012 207.333191 
L 254.879719 207.094024 
L 255.00179 207.150947 
L 255.064195 207.056109 
L 255.095449 207.110848 
L 255.125711 207.468589 
L 255.213296 207.217122 
L 255.533494 207.267753 
L 255.655548 207.725232 
L 255.683399 207.725232 
L 255.809503 207.463785 
L 255.927889 207.922404 
L 255.954217 207.882975 
L 256.04444 207.789745 
L 256.166265 207.92182 
L 256.404646 208.004078 
L 256.436245 208.248886 
L 256.466403 207.9618 
L 256.524149 207.838015 
L 256.554442 207.964098 
L 256.73918 208.00222 
L 256.768655 208.121247 
L 256.828491 208.00222 
L 256.921132 207.96224 
L 256.950521 207.869302 
L 257.073706 208.18119 
L 257.104274 208.18119 
L 257.221709 208.485408 
L 257.398632 208.56808 
L 257.429965 208.883543 
L 257.460147 208.56808 
L 257.489159 208.344219 
L 257.518713 208.735197 
L 257.579985 208.485408 
L 257.611197 208.497228 
L 257.640656 208.892347 
L 257.670593 208.428485 
L 257.731617 208.854968 
L 258.002651 208.783794 
L 258.118186 208.554343 
L 258.148499 208.912083 
L 258.178466 208.407189 
L 258.207583 208.480864 
L 258.648416 208.42394 
L 258.680009 208.327257 
L 258.709663 208.42394 
L 258.830681 208.688649 
L 258.923583 208.42394 
L 258.953914 208.482396 
L 259.008225 208.42394 
L 259.216308 208.782806 
L 259.339851 208.625656 
L 259.458069 208.652127 
L 259.969402 208.706014 
L 259.997889 208.873131 
L 260.02699 208.649789 
L 260.057262 208.649789 
L 260.329914 208.651699 
L 260.421176 208.636945 
L 260.44904 208.871038 
L 260.606178 208.829076 
L 260.634967 208.986226 
L 260.693479 208.706421 
L 261.045488 208.706421 
L 261.107161 208.842935 
L 261.136887 208.823912 
L 261.284257 208.640766 
L 261.753368 208.633503 
L 261.876208 208.633503 
L 261.932725 208.883539 
L 261.963269 208.633503 
L 262.382614 208.599934 
L 262.506038 209.058569 
L 263.075459 209.036316 
L 263.105896 209.185571 
L 263.195872 209.153807 
L 263.225487 209.153807 
L 263.286121 208.977861 
L 263.346235 208.994401 
L 263.465281 209.262261 
L 263.496133 209.158504 
L 263.529131 209.295018 
L 263.560422 209.398775 
L 263.654546 208.879704 
L 263.684408 208.977511 
L 263.986788 209.209476 
L 264.01767 209.014392 
L 264.076025 209.095382 
L 264.135333 209.231896 
L 264.191926 209.195677 
L 264.254543 209.237638 
L 264.284963 208.799894 
L 264.313129 209.24699 
L 264.343715 209.24699 
L 264.373035 209.461254 
L 264.431575 209.287235 
L 264.552135 209.287235 
L 264.611519 209.126581 
L 264.642012 209.278551 
L 264.763688 209.319824 
L 264.79098 209.445668 
L 264.85374 209.319824 
L 264.911617 209.100554 
L 264.943513 209.141828 
L 265.069917 209.273267 
L 265.243907 209.205672 
L 265.363937 209.638196 
L 265.395534 209.520705 
L 265.428042 209.688237 
L 265.459515 209.688237 
L 265.490094 209.688237 
L 265.637708 209.484203 
L 265.933097 209.520705 
L 266.051808 209.794552 
L 266.080153 209.783044 
L 266.228531 209.730901 
L 266.588543 209.637963 
L 266.647577 209.601462 
L 266.678416 209.637963 
L 266.711338 209.805496 
L 266.772646 209.637963 
L 266.801709 209.637963 
L 266.830269 209.805081 
L 266.889731 209.621422 
L 266.919088 209.621422 
L 266.94788 209.757937 
L 266.976753 209.480554 
L 267.006492 209.466285 
L 267.128873 209.580848 
L 267.187962 209.580848 
L 267.304369 209.744674 
L 267.36273 209.582167 
L 267.393279 209.744674 
L 267.453558 209.744674 
L 267.574125 210.008229 
L 267.692874 209.744674 
L 267.844316 210.198852 
L 267.903411 210.198852 
L 268.056774 209.862632 
L 268.296703 209.826131 
L 268.387906 209.71241 
L 268.537314 210.154512 
L 268.56746 210.156393 
L 268.656649 209.908485 
L 268.685883 210.061823 
L 268.865916 210.068622 
L 268.955235 209.908485 
L 268.98534 209.92251 
L 269.193617 209.908485 
L 269.311276 209.584863 
L 269.39996 209.908981 
L 269.461092 209.584863 
L 269.520342 209.812544 
L 269.638177 209.908981 
L 269.698928 210.199272 
L 269.72989 209.886505 
L 270.053435 210.045495 
L 270.200703 209.97602 
L 270.440578 210.044933 
L 270.470227 210.194824 
L 270.531926 209.97602 
L 270.561531 209.97602 
L 270.623739 210.279208 
L 270.687774 210.210295 
L 270.719294 210.294609 
L 270.778716 210.210295 
L 270.838776 210.192479 
L 270.898328 210.363438 
L 270.92841 210.296927 
L 271.042803 210.192479 
L 271.523598 210.234865 
L 271.554088 210.370235 
L 271.584561 210.15949 
L 271.642708 210.26146 
L 272.042174 210.278009 
L 272.071364 210.137972 
L 272.161287 210.208534 
L 272.253517 210.303829 
L 272.282169 210.455594 
L 272.34052 210.303829 
L 272.494245 210.385955 
L 272.523757 210.456761 
L 272.582061 210.368407 
L 272.643704 210.368407 
L 272.733555 210.629216 
L 272.793795 210.598857 
L 273.59754 210.683936 
L 273.628389 210.723665 
L 273.658143 210.598857 
L 273.897252 210.668638 
L 273.986582 210.598857 
L 274.017482 210.972183 
L 274.405701 210.972183 
L 274.43668 211.152105 
L 274.495297 210.969875 
L 274.64657 210.972183 
L 274.728025 211.043708 
L 274.758615 210.347934 
L 274.897531 210.970094 
L 275.175501 211.194261 
L 275.264491 210.954801 
L 275.294316 211.043708 
L 275.4443 210.948254 
L 275.625791 211.043708 
L 275.717935 211.159574 
L 275.747794 211.077277 
L 275.930211 211.111401 
L 275.959564 211.111401 
L 275.990149 211.249797 
L 276.046757 211.111401 
L 276.404741 211.038108 
L 276.435626 211.297726 
L 276.49706 211.038108 
L 276.615805 211.038108 
L 276.677327 211.263494 
L 276.706995 211.038108 
L 276.736401 211.038108 
L 276.763984 211.230234 
L 276.830763 210.980747 
L 276.923456 210.980747 
L 276.980953 211.173528 
L 277.010651 211.04872 
L 277.097461 210.848672 
L 277.128943 210.980747 
L 277.157409 211.082947 
L 277.213923 210.896433 
L 277.276915 210.848672 
L 277.366345 211.139244 
L 277.395913 210.929004 
L 277.486869 210.848672 
L 277.607325 211.227116 
L 278.465116 211.180806 
L 278.495144 211.415613 
L 278.58651 211.275796 
L 278.647208 211.275796 
L 278.768651 211.538837 
L 278.828023 211.62522 
L 278.886043 211.497051 
L 278.914641 211.648861 
L 279.002183 211.592016 
L 279.184494 211.536868 
L 279.393287 211.605085 
L 279.425175 211.351232 
L 279.485709 211.536868 
L 279.544904 211.579278 
L 279.667396 211.453381 
L 279.972929 211.517698 
L 280.147896 211.912484 
L 280.269328 211.424795 
L 280.459816 211.606312 
L 280.519933 211.496701 
L 280.549854 211.484308 
L 280.694931 211.644868 
L 280.930362 211.60348 
L 280.96036 211.4448 
L 281.017216 211.576875 
L 281.04565 211.838109 
L 281.07745 211.552089 
L 281.108573 211.669611 
L 281.441522 211.640314 
L 281.502309 211.785477 
L 281.560978 211.772407 
L 281.588391 211.530025 
L 281.679991 211.575197 
L 282.041352 211.469261 
L 282.132066 211.261366 
L 282.163861 211.629999 
L 282.194045 211.159989 
L 282.254879 211.417286 
L 282.282506 211.417286 
L 282.495584 211.99662 
L 282.522891 211.871812 
L 282.553369 212.111246 
L 282.584016 212.111246 
L 282.613347 212.346784 
L 282.671991 212.111246 
L 282.791404 211.871812 
L 282.821888 211.871812 
L 282.849692 212.062929 
L 282.878872 211.861617 
L 282.90912 211.861617 
L 282.938204 211.788324 
L 282.999371 211.873781 
L 283.145685 211.823364 
L 283.17644 212.124981 
L 283.23526 211.95503 
L 283.262272 211.79825 
L 283.351877 211.851379 
L 283.472837 212.28736 
L 283.502399 212.412168 
L 283.590133 212.308383 
L 283.680703 212.344659 
L 283.737551 212.544999 
L 283.769478 212.410995 
L 283.801107 212.019263 
L 283.891884 212.069284 
L 283.953725 212.069284 
L 284.0741 212.425293 
L 284.10503 212.541262 
L 284.132171 211.940281 
L 284.224683 212.284315 
L 284.286741 211.853902 
L 284.343471 211.993596 
L 284.375133 211.993596 
L 284.465551 211.744329 
L 284.496872 212.050271 
L 284.556172 211.819604 
L 284.704751 211.861341 
L 284.798491 212.034901 
L 284.82861 211.797418 
L 284.886911 212.034901 
L 284.980662 212.034901 
L 285.124816 211.75409 
L 285.310139 211.811313 
L 285.338959 211.811313 
L 285.486012 211.480012 
L 285.513664 211.553304 
L 285.697992 211.673445 
L 286.362489 211.692274 
L 286.57229 212.26741 
L 286.60184 211.856234 
L 286.632488 212.47891 
L 286.663151 212.47387 
L 286.692979 212.164599 
L 286.75418 212.47387 
L 286.787533 212.531578 
L 286.906962 212.0534 
L 286.937795 212.0534 
L 287.02337 211.906042 
L 287.052806 212.209504 
L 287.14456 212.065641 
L 287.29519 212.065641 
L 287.413816 212.322598 
L 287.356506 211.914725 
L 287.443121 212.260918 
L 287.657944 212.485113 
L 287.876761 212.485113 
L 287.990102 212.642263 
L 288.169599 212.642263 
L 288.20115 212.520029 
L 288.232501 212.642263 
L 288.261369 212.858687 
L 288.350586 212.830006 
L 288.591431 212.830006 
L 288.715951 212.950147 
L 288.745923 212.950147 
L 288.868663 212.725559 
L 288.956494 213.375552 
L 288.98726 212.894062 
L 289.015899 213.203333 
L 289.106328 212.982967 
L 289.13646 212.998886 
L 289.166495 213.150854 
L 289.258675 213.084343 
L 289.319418 212.982967 
L 289.35145 213.186138 
L 289.439124 213.084343 
L 289.586627 212.876789 
L 289.650794 213.087303 
L 289.679963 212.876789 
L 289.888642 212.987718 
L 289.979372 213.094174 
L 290.042828 212.824814 
L 290.074328 212.859552 
L 290.224896 213.253818 
L 290.315867 213.073873 
L 290.432562 213.418307 
L 290.500296 213.327297 
L 290.529651 213.418307 
L 290.683329 213.574469 
L 290.775251 213.205684 
L 290.804385 213.373741 
L 290.954 213.877863 
L 291.07389 213.782165 
L 291.101816 213.940287 
L 291.189597 213.855637 
L 291.306416 214.212942 
L 291.335332 213.910403 
L 291.365962 214.247679 
L 291.395831 214.247679 
L 291.424956 214.321297 
L 291.485433 214.247679 
L 291.608462 214.143232 
L 291.640072 214.118962 
L 291.792214 214.388293 
L 291.97317 214.317023 
L 292.005251 214.182756 
L 292.092477 214.272979 
L 292.593379 214.270147 
L 292.62268 214.531794 
L 292.662903 214.484918 
L 292.731288 214.1657 
L 292.797801 214.244204 
L 294.071783 214.117431 
L 294.103556 214.038759 
L 294.170052 214.117431 
L 294.305118 214.223609 
L 294.575733 214.202629 
L 294.641489 214.34375 
L 294.675204 214.223609 
L 294.734743 214.223609 
L 294.799443 214.253988 
L 294.830606 214.012984 
L 294.957078 214.312331 
L 295.097279 214.367266 
L 295.237965 214.202619 
L 295.376034 214.539228 
L 295.511883 214.281093 
L 295.646497 214.340546 
L 295.716143 214.263655 
L 295.755147 214.426251 
L 295.828402 214.281809 
L 295.999092 214.372032 
L 296.027797 214.263903 
L 296.094633 214.288594 
L 296.224082 214.457489 
L 296.285602 214.335657 
L 296.320802 214.457489 
L 296.538634 214.554044 
L 296.664505 214.153787 
L 296.823618 214.298945 
L 296.88306 214.212947 
L 296.944383 214.265064 
L 297.131635 214.212947 
L 297.260153 214.146869 
L 297.291237 214.508324 
L 297.349959 214.146869 
L 297.445578 214.146869 
L 297.512102 214.124224 
L 297.580245 214.361211 
L 297.61164 214.320379 
L 297.719703 214.166657 
L 297.923464 214.259415 
L 297.985263 214.259415 
L 298.016123 214.758493 
L 298.084508 214.259415 
L 298.115497 214.387268 
L 298.145529 214.166657 
L 298.17721 214.208727 
L 298.312552 214.309483 
L 298.420764 214.309483 
L 298.461244 214.541846 
L 298.498633 214.468367 
L 298.635016 214.172154 
L 298.737779 214.355738 
L 298.814187 214.401059 
L 298.879766 214.254361 
L 299.011958 214.437644 
L 299.455273 214.509249 
L 299.487351 214.550011 
L 299.515133 214.30703 
L 299.605754 214.391354 
L 299.634131 214.432117 
L 299.66498 214.691629 
L 299.695977 214.62729 
L 299.761432 214.637673 
L 299.819821 214.153372 
L 299.883245 214.53248 
L 299.940025 214.403743 
L 300.060841 214.476344 
L 300.120164 214.3263 
L 300.210521 214.661219 
L 300.271957 214.53248 
L 300.30343 214.661219 
L 300.525412 214.629034 
L 300.556731 214.53248 
L 300.64983 214.576906 
L 300.680257 214.576906 
L 300.710509 214.719257 
L 300.741525 214.4998 
L 300.800513 214.629034 
L 301.326411 214.551929 
L 301.448087 214.551929 
L 301.570356 214.986314 
L 301.755084 215.042234 
L 301.879251 215.190589 
L 302.204489 215.23915 
L 302.236595 215.375355 
L 302.267216 215.190589 
L 302.297852 215.190589 
L 302.506254 215.187437 
L 302.681589 215.759866 
L 302.803471 215.468003 
L 302.865639 215.669782 
L 302.924128 215.561295 
L 303.127948 215.551598 
L 303.157618 215.744428 
L 303.218603 215.551598 
L 303.40314 215.596164 
L 303.525617 215.692813 
L 303.676529 215.433559 
L 303.82396 215.707093 
L 303.913017 215.570888 
L 303.943665 215.596164 
L 304.066094 215.692813 
L 304.092567 215.692813 
L 304.211617 215.564652 
L 304.242038 215.564652 
L 304.330469 215.788542 
L 304.447246 215.498574 
L 304.598094 215.816348 
L 304.628296 215.60409 
L 304.689658 215.637995 
L 304.718287 215.77176 
L 304.779731 215.637995 
L 304.871568 215.520086 
L 304.962369 215.889222 
L 305.051867 215.867655 
L 305.173666 216.033113 
L 305.20607 215.991805 
L 305.475577 215.991805 
L 305.563887 215.854476 
L 305.593444 215.920891 
L 305.866817 215.920891 
L 305.897088 216.041032 
L 305.928199 215.920891 
L 306.040838 215.832169 
L 306.156519 215.961961 
L 306.245675 215.920891 
L 306.305949 215.878555 
L 306.391852 215.997997 
L 306.454852 216.056128 
L 306.516005 215.997997 
L 306.578537 215.997997 
L 306.607618 215.86222 
L 306.668402 215.997997 
L 306.732122 215.966758 
L 306.760504 215.878722 
L 306.848578 215.966681 
L 306.882248 216.095421 
L 306.94239 215.966681 
L 306.974939 215.910206 
L 307.092057 216.083707 
L 307.361547 216.17393 
L 307.480695 216.251036 
L 307.510172 216.251036 
L 307.604984 216.433683 
L 307.730395 216.17393 
L 307.938358 216.17393 
L 307.99848 216.028772 
L 308.061177 216.118995 
L 308.154817 216.028772 
L 308.185466 216.083707 
L 308.275356 216.155464 
L 308.363783 216.403579 
L 308.393797 216.104193 
L 308.452852 216.514142 
L 308.484997 216.514142 
L 308.606613 216.15448 
L 308.696049 216.057164 
L 308.726263 216.352891 
L 308.814461 216.286813 
L 308.905733 216.286813 
L 308.99206 216.147885 
L 309.022178 216.213352 
L 309.052746 216.387721 
L 309.114754 216.221346 
L 309.175533 216.311569 
L 309.235607 216.097197 
L 309.295648 216.097197 
L 309.330351 216.400774 
L 309.360967 216.0896 
L 309.389999 216.0896 
L 309.42029 216.0896 
L 309.53875 216.272034 
L 309.716691 216.343208 
L 309.780119 216.39557 
L 309.809339 216.294704 
L 309.902381 216.217216 
L 309.931612 216.351478 
L 309.962789 216.183658 
L 310.025414 216.313246 
L 310.144821 216.147885 
L 310.205477 216.39557 
L 310.237589 216.147885 
L 310.355079 216.147885 
L 310.53195 216.796655 
L 310.560205 216.625665 
L 310.62365 216.796655 
L 310.652833 217.09206 
L 310.715806 216.796655 
L 310.743036 216.596076 
L 310.802861 216.821419 
L 310.832237 216.848945 
L 310.863203 216.621653 
L 310.952733 216.749814 
L 311.013683 216.584902 
L 311.047433 216.87335 
L 311.107293 216.631744 
L 311.733778 216.634132 
L 311.765923 216.509982 
L 311.825638 216.634132 
L 312.224467 216.667261 
L 312.254842 216.845274 
L 312.316674 216.667261 
L 312.495235 216.621281 
L 312.525975 216.485946 
L 312.583827 216.614967 
L 312.736183 216.851064 
L 312.767457 216.700786 
L 312.861508 216.744748 
L 312.921824 216.69406 
L 313.043739 216.464151 
L 313.134052 216.717565 
L 313.164022 216.640459 
L 313.34844 216.655706 
L 313.408346 216.519929 
L 313.439201 216.769839 
L 313.497831 216.48506 
L 313.559367 216.48506 
L 313.590183 216.356041 
L 313.679043 216.430801 
L 313.768042 216.430801 
L 313.828219 216.62386 
L 313.890441 216.561092 
L 314.135599 216.488551 
L 314.195784 216.599982 
L 314.226127 216.546683 
L 314.25666 216.500856 
L 314.37791 216.883847 
L 314.621913 216.895665 
L 314.65147 216.740331 
L 314.685005 216.953993 
L 314.715319 216.911826 
L 314.930854 216.889715 
L 314.992024 216.760005 
L 315.024199 216.863368 
L 315.081641 216.863368 
L 315.113161 216.739219 
L 315.143609 217.046016 
L 315.386174 217.046016 
L 315.574939 216.650843 
L 315.604997 216.650843 
L 315.723386 217.102855 
L 315.842535 216.844574 
L 315.966035 217.037239 
L 316.08313 216.986551 
L 316.201391 216.822966 
L 316.230713 216.822966 
L 316.295203 216.943931 
L 316.324653 216.822966 
L 316.358015 216.698069 
L 316.417307 216.822966 
L 316.777433 217.153 
L 316.871402 217.153 
L 316.901298 217.264431 
L 316.95956 217.153 
L 316.989467 217.153 
L 317.081903 216.905315 
L 317.112298 217.005095 
L 317.169672 217.005095 
L 317.322972 217.264431 
L 317.353591 217.267134 
L 317.382438 217.081657 
L 317.47464 217.153 
L 317.593678 217.153 
L 317.653454 217.267134 
L 317.68605 217.153 
L 317.715061 217.153 
L 317.742544 217.369925 
L 317.802479 217.267134 
L 317.831253 217.153 
L 317.917369 217.178758 
L 318.037545 217.32865 
L 318.099019 217.32865 
L 318.2189 217.178758 
L 318.309339 217.268281 
L 318.366601 217.545325 
L 318.419561 217.471896 
L 318.634575 217.530028 
L 318.665695 217.611983 
L 318.727065 217.530028 
L 318.846894 217.530028 
L 318.960346 217.720803 
L 318.993005 217.538211 
L 319.078637 217.655704 
L 319.472461 217.64688 
L 319.498746 217.526079 
L 319.528575 217.754313 
L 319.685236 217.81978 
L 319.74505 217.754313 
L 319.777432 217.81978 
L 319.990454 217.794503 
L 320.019526 218.29423 
L 320.081583 217.687071 
L 320.112066 217.687071 
L 320.141304 217.81978 
L 320.201176 217.705436 
L 320.480775 217.672779 
L 320.510686 217.951499 
L 320.601072 217.905175 
L 320.663823 217.982359 
L 320.732188 217.814274 
L 320.764615 217.951499 
L 320.823128 217.951499 
L 320.943824 217.73785 
L 321.004017 217.657518 
L 321.034734 217.875075 
L 321.066546 217.73785 
L 321.12679 217.878275 
L 321.185379 217.875075 
L 321.307015 217.683591 
L 321.430959 217.612001 
L 321.666621 217.809024 
L 321.695092 217.809024 
L 321.723373 217.613701 
L 321.782385 217.809024 
L 322.113179 217.90707 
L 322.144466 217.680489 
L 322.234834 217.801905 
L 322.564515 217.700163 
L 322.594878 217.394406 
L 322.657727 217.611787 
L 322.746706 217.700163 
L 322.775487 217.638812 
L 323.017733 217.700163 
L 323.074312 217.530447 
L 323.134024 217.86471 
L 323.192031 217.692566 
L 323.224077 217.380609 
L 323.252214 217.843922 
L 323.31224 217.700163 
L 323.342663 218.088812 
L 323.428982 217.641878 
L 323.460624 217.680453 
L 323.518418 217.680453 
L 323.551971 217.805462 
L 323.614303 217.762843 
L 323.732955 217.656221 
L 323.972302 217.749903 
L 324.003724 217.71925 
L 324.063601 218.017292 
L 324.093503 217.87185 
L 324.243235 217.651772 
L 324.302265 217.651772 
L 324.359389 217.769263 
L 324.422013 217.722192 
L 324.480022 217.674152 
L 324.510315 217.598925 
L 324.540581 217.717091 
L 324.570089 217.717091 
L 324.630422 217.616508 
L 324.658444 217.507631 
L 324.688792 217.687973 
L 324.749337 217.588279 
L 324.77671 217.687973 
L 324.835553 217.648787 
L 324.983073 217.448269 
L 325.014154 217.52978 
L 325.099248 217.541208 
L 325.12948 217.606464 
L 325.219901 217.541208 
L 325.309512 217.448269 
L 325.337196 217.596822 
L 325.395328 217.448269 
L 325.697715 217.367937 
L 325.819446 217.313678 
L 325.967068 217.514635 
L 325.998967 217.460376 
L 326.121092 217.431695 
L 326.151231 217.431695 
L 326.210439 217.577138 
L 326.240821 217.431695 
L 326.425555 217.431695 
L 326.543038 217.558348 
L 326.838449 217.558348 
L 326.869008 217.740996 
L 326.89979 217.50766 
L 326.928355 217.558348 
L 327.018361 217.658423 
L 327.108911 217.977044 
L 327.139464 217.658423 
L 327.229464 217.675847 
L 327.375103 217.733986 
L 327.405691 217.792271 
L 327.435402 217.477698 
L 327.495859 217.792271 
L 327.587881 217.792271 
L 327.61689 217.955855 
L 327.648003 217.730921 
L 327.677875 217.730921 
L 328.517399 217.792271 
L 328.550565 217.937713 
L 328.608066 217.848412 
L 328.753973 217.717351 
L 328.815741 217.792271 
L 328.846886 218.245047 
L 328.935874 218.13617 
L 329.020332 218.257135 
L 329.047887 218.206446 
L 329.123632 218.206446 
L 329.24155 218.078808 
L 329.383702 218.257135 
L 329.680463 218.257135 
L 329.708692 217.87814 
L 329.800893 218.072518 
L 329.946436 218.552276 
L 329.975809 218.378101 
L 330.003604 218.715861 
L 330.034332 218.46655 
L 330.153778 218.552276 
L 330.216439 218.480173 
L 330.274862 218.552276 
L 330.336605 218.552276 
L 330.367323 218.742074 
L 330.422774 218.553423 
L 330.452575 218.553423 
L 330.483452 218.393217 
L 330.544914 218.553423 
L 330.6391 218.553423 
L 330.698143 218.818182 
L 330.723824 218.717007 
L 330.753067 218.527201 
L 330.842055 218.553423 
L 330.931292 218.594651 
L 330.962439 218.431924 
L 331.051511 218.492072 
L 331.170922 218.492072 
L 331.234262 218.492072 
L 331.264922 218.60948 
L 331.321866 218.492072 
L 331.351954 218.403696 
L 331.382956 218.637514 
L 331.414571 218.492072 
L 331.444058 218.492072 
L 331.471394 218.293923 
L 331.502566 218.620233 
L 331.533521 218.620233 
L 331.563819 218.575667 
L 331.622554 218.656208 
L 331.741482 218.656208 
L 331.856986 218.800145 
L 331.887871 218.800145 
L 331.918596 218.63452 
L 332.007686 218.681592 
L 332.036152 218.687717 
L 332.067706 218.858789 
L 332.097343 218.397524 
L 332.156506 218.610815 
L 332.186997 218.88 
L 332.247113 218.603823 
L 332.310033 218.666028 
L 332.370342 218.271789 
L 332.40062 218.530017 
L 332.491432 218.675544 
L 332.516794 218.623997 
L 332.544377 218.623997 
L 332.573041 218.497327 
L 332.604428 218.649322 
L 332.635287 218.620641 
L 332.757369 218.754943 
L 332.909042 218.354123 
L 333.084334 218.720074 
L 333.19887 218.626903 
L 333.228675 218.349691 
L 333.290132 218.53277 
L 333.473613 218.53277 
L 333.504511 218.82145 
L 333.534284 218.604428 
L 333.649071 218.227013 
L 333.680733 218.227013 
L 333.710673 218.456107 
L 333.770236 218.227013 
L 333.800321 218.227013 
L 333.887927 218.484193 
L 333.915893 218.418393 
L 333.945904 218.510327 
L 333.976234 218.355174 
L 334.005048 218.355174 
L 334.117735 218.269448 
L 334.149567 218.421761 
L 334.182635 218.269448 
L 334.210054 218.137984 
L 334.305567 218.616918 
L 334.39079 218.071299 
L 334.421779 218.370825 
L 334.481112 218.272888 
L 334.684778 218.189049 
L 334.747121 218.318068 
L 334.778612 218.090456 
L 334.808103 218.407698 
L 334.865216 218.189049 
L 334.895978 218.290426 
L 335.015171 217.9909 
L 335.043555 217.9909 
L 335.073986 218.218423 
L 335.130886 217.9444 
L 335.337508 217.918178 
L 335.395448 217.918178 
L 335.425182 217.720029 
L 335.513904 217.868743 
L 335.547569 218.154457 
L 335.610822 217.957438 
L 336.712241 218.021493 
L 336.80396 218.179456 
L 336.863616 218.089829 
L 336.894499 218.089829 
L 337.041834 217.673987 
L 337.156704 217.929771 
L 337.18757 217.900333 
L 337.250052 218.130265 
L 337.279785 217.900333 
L 337.313939 217.900333 
L 337.401567 217.761577 
L 337.493791 218.111933 
L 337.516639 217.802362 
L 337.575946 217.702216 
L 337.60468 217.94415 
L 337.665235 217.702216 
L 337.785161 217.613522 
L 337.903714 217.742541 
L 338.054847 217.714898 
L 338.083198 217.415373 
L 338.174637 217.621727 
L 338.296611 217.950318 
L 338.382751 217.897471 
L 338.503349 218.095216 
L 338.533376 218.040541 
L 338.623731 218.095216 
L 338.652243 218.095216 
L 338.714608 218.238723 
L 338.778616 218.19529 
L 339.080012 218.002044 
L 339.108231 217.732305 
L 339.197054 217.810648 
L 339.28409 217.825476 
L 339.403218 217.632526 
L 339.462548 217.822528 
L 339.524574 217.792789 
L 339.583439 217.68774 
L 339.61296 217.732305 
L 339.791746 217.950689 
L 340.058842 217.950689 
L 340.089101 218.079708 
L 340.120278 217.807912 
L 340.178498 218.008406 
L 340.295551 218.008406 
L 340.416602 218.171991 
L 340.446058 218.171991 
L 340.475756 217.893909 
L 340.53506 218.171991 
L 340.563899 218.272065 
L 340.594519 217.997331 
L 340.625066 218.171991 
L 340.686237 218.171991 
L 340.744294 218.317433 
L 340.805714 218.243581 
L 340.865843 218.157374 
L 340.98185 218.272065 
L 341.009739 218.272065 
L 341.041176 218.149713 
L 341.097245 218.272065 
L 341.187424 218.272065 
L 341.216214 218.031889 
L 341.305215 218.082995 
L 341.724435 218.00015 
L 341.753933 217.92523 
L 341.815874 218.00015 
L 341.960841 218.162592 
L 342.413282 218.263895 
L 342.529178 218.390023 
L 342.556415 218.353522 
L 342.829286 218.391863 
L 342.857964 218.480557 
L 342.888525 218.353522 
L 342.920105 218.353522 
L 343.047308 218.265146 
L 343.076736 218.217947 
L 343.107516 218.308956 
L 343.136794 218.308956 
L 343.196891 218.321285 
L 343.319718 218.129571 
L 343.463532 218.222968 
L 343.491711 218.249453 
L 343.613256 218.083835 
L 343.64983 218.083835 
L 343.681839 218.398391 
L 343.744338 218.083835 
L 344.286186 218.069219 
L 344.315786 217.943365 
L 344.347249 218.083835 
L 344.377089 218.083835 
L 344.55419 218.083835 
L 344.581208 218.211996 
L 344.640427 218.18391 
L 344.758065 218.072759 
L 345.110236 218.083835 
L 345.285816 218.069219 
L 345.314742 217.832576 
L 345.374679 218.069219 
L 345.939772 218.169293 
L 346.087517 218.297261 
L 346.147744 218.297261 
L 346.240273 218.136033 
L 346.330939 218.264 
L 346.360114 218.231763 
L 346.506818 218.231763 
L 346.506818 218.231763 
" clip-path="url(#pdb97477c4e)" style="fill: none; stroke: #1f77b4; stroke-width: 1.5; stroke-linecap: square"/>
   </g>
   <g id="patch_3">
    <path d="M 26.925 228.96 
L 26.925 7.2 
" style="fill: none; stroke: #000000; stroke-width: 0.8; stroke-linejoin: miter; stroke-linecap: square"/>
   </g>
   <g id="patch_4">
    <path d="M 361.725 228.96 
L 361.725 7.2 
" style="fill: none; stroke: #000000; stroke-width: 0.8; stroke-linejoin: miter; stroke-linecap: square"/>
   </g>
   <g id="patch_5">
    <path d="M 26.925 228.96 
L 361.725 228.96 
" style="fill: none; stroke: #000000; stroke-width: 0.8; stroke-linejoin: miter; stroke-linecap: square"/>
   </g>
   <g id="patch_6">
    <path d="M 26.925 7.2 
L 361.725 7.2 
" style="fill: none; stroke: #000000; stroke-width: 0.8; stroke-linejoin: miter; stroke-linecap: square"/>
   </g>
  </g>
 </g>
 <defs>
  <clipPath id="pdb97477c4e">
   <rect x="26.925" y="7.2" width="334.8" height="221.76"/>
  </clipPath>
 </defs>
</svg>
