<?xml version="1.0" encoding="utf-8" standalone="no"?>
<!DOCTYPE svg PUBLIC "-//W3C//DTD SVG 1.1//EN"
  "http://www.w3.org/Graphics/SVG/1.1/DTD/svg11.dtd">
<svg xmlns:xlink="http://www.w3.org/1999/xlink" width="368.925pt" height="252.838125pt" viewBox="0 0 368.925 252.838125" xmlns="http://www.w3.org/2000/svg" version="1.1">
 <metadata>
  <rdf:RDF xmlns:dc="http://purl.org/dc/elements/1.1/" xmlns:cc="http://creativecommons.org/ns#" xmlns:rdf="http://www.w3.org/1999/02/22-rdf-syntax-ns#">
   <cc:Work>
    <dc:type rdf:resource="http://purl.org/dc/dcmitype/StillImage"/>
    <dc:date>2023-04-19T15:36:51.079758</dc:date>
    <dc:format>image/svg+xml</dc:format>
    <dc:creator>
     <cc:Agent>
      <dc:title>Matplotlib v3.6.2, https://matplotlib.org/</dc:title>
     </cc:Agent>
    </dc:creator>
   </cc:Work>
  </rdf:RDF>
 </metadata>
 <defs>
  <style type="text/css">*{stroke-linejoin: round; stroke-linecap: butt}</style>
 </defs>
 <g id="figure_1">
  <g id="patch_1">
   <path d="M -0 252.838125 
L 368.925 252.838125 
L 368.925 0 
L -0 0 
z
" style="fill: #ffffff"/>
  </g>
  <g id="axes_1">
   <g id="patch_2">
    <path d="M 26.925 228.96 
L 361.725 228.96 
L 361.725 7.2 
L 26.925 7.2 
z
" style="fill: #ffffff"/>
   </g>
   <g id="matplotlib.axis_1">
    <g id="xtick_1">
     <g id="line2d_1">
      <defs>
       <path id="m95f7f9a1ea" d="M 0 0 
L 0 3.5 
" style="stroke: #000000; stroke-width: 0.8"/>
      </defs>
      <g>
       <use xlink:href="#m95f7f9a1ea" x="40.447035" y="228.96" style="stroke: #000000; stroke-width: 0.8"/>
      </g>
     </g>
     <g id="text_1">
      <!-- 0 -->
      <g transform="translate(37.265785 243.558438) scale(0.1 -0.1)">
       <defs>
        <path id="DejaVuSans-30" d="M 2034 4250 
Q 1547 4250 1301 3770 
Q 1056 3291 1056 2328 
Q 1056 1369 1301 889 
Q 1547 409 2034 409 
Q 2525 409 2770 889 
Q 3016 1369 3016 2328 
Q 3016 3291 2770 3770 
Q 2525 4250 2034 4250 
z
M 2034 4750 
Q 2819 4750 3233 4129 
Q 3647 3509 3647 2328 
Q 3647 1150 3233 529 
Q 2819 -91 2034 -91 
Q 1250 -91 836 529 
Q 422 1150 422 2328 
Q 422 3509 836 4129 
Q 1250 4750 2034 4750 
z
" transform="scale(0.015625)"/>
       </defs>
       <use xlink:href="#DejaVuSans-30"/>
      </g>
     </g>
    </g>
    <g id="xtick_2">
     <g id="line2d_2">
      <g>
       <use xlink:href="#m95f7f9a1ea" x="111.778642" y="228.96" style="stroke: #000000; stroke-width: 0.8"/>
      </g>
     </g>
     <g id="text_2">
      <!-- 50 -->
      <g transform="translate(105.416142 243.558438) scale(0.1 -0.1)">
       <defs>
        <path id="DejaVuSans-35" d="M 691 4666 
L 3169 4666 
L 3169 4134 
L 1269 4134 
L 1269 2991 
Q 1406 3038 1543 3061 
Q 1681 3084 1819 3084 
Q 2600 3084 3056 2656 
Q 3513 2228 3513 1497 
Q 3513 744 3044 326 
Q 2575 -91 1722 -91 
Q 1428 -91 1123 -41 
Q 819 9 494 109 
L 494 744 
Q 775 591 1075 516 
Q 1375 441 1709 441 
Q 2250 441 2565 725 
Q 2881 1009 2881 1497 
Q 2881 1984 2565 2268 
Q 2250 2553 1709 2553 
Q 1456 2553 1204 2497 
Q 953 2441 691 2322 
L 691 4666 
z
" transform="scale(0.015625)"/>
       </defs>
       <use xlink:href="#DejaVuSans-35"/>
       <use xlink:href="#DejaVuSans-30" x="63.623047"/>
      </g>
     </g>
    </g>
    <g id="xtick_3">
     <g id="line2d_3">
      <g>
       <use xlink:href="#m95f7f9a1ea" x="183.110249" y="228.96" style="stroke: #000000; stroke-width: 0.8"/>
      </g>
     </g>
     <g id="text_3">
      <!-- 100 -->
      <g transform="translate(173.566499 243.558438) scale(0.1 -0.1)">
       <defs>
        <path id="DejaVuSans-31" d="M 794 531 
L 1825 531 
L 1825 4091 
L 703 3866 
L 703 4441 
L 1819 4666 
L 2450 4666 
L 2450 531 
L 3481 531 
L 3481 0 
L 794 0 
L 794 531 
z
" transform="scale(0.015625)"/>
       </defs>
       <use xlink:href="#DejaVuSans-31"/>
       <use xlink:href="#DejaVuSans-30" x="63.623047"/>
       <use xlink:href="#DejaVuSans-30" x="127.246094"/>
      </g>
     </g>
    </g>
    <g id="xtick_4">
     <g id="line2d_4">
      <g>
       <use xlink:href="#m95f7f9a1ea" x="254.441856" y="228.96" style="stroke: #000000; stroke-width: 0.8"/>
      </g>
     </g>
     <g id="text_4">
      <!-- 150 -->
      <g transform="translate(244.898106 243.558438) scale(0.1 -0.1)">
       <use xlink:href="#DejaVuSans-31"/>
       <use xlink:href="#DejaVuSans-35" x="63.623047"/>
       <use xlink:href="#DejaVuSans-30" x="127.246094"/>
      </g>
     </g>
    </g>
    <g id="xtick_5">
     <g id="line2d_5">
      <g>
       <use xlink:href="#m95f7f9a1ea" x="325.773462" y="228.96" style="stroke: #000000; stroke-width: 0.8"/>
      </g>
     </g>
     <g id="text_5">
      <!-- 200 -->
      <g transform="translate(316.229712 243.558438) scale(0.1 -0.1)">
       <defs>
        <path id="DejaVuSans-32" d="M 1228 531 
L 3431 531 
L 3431 0 
L 469 0 
L 469 531 
Q 828 903 1448 1529 
Q 2069 2156 2228 2338 
Q 2531 2678 2651 2914 
Q 2772 3150 2772 3378 
Q 2772 3750 2511 3984 
Q 2250 4219 1831 4219 
Q 1534 4219 1204 4116 
Q 875 4013 500 3803 
L 500 4441 
Q 881 4594 1212 4672 
Q 1544 4750 1819 4750 
Q 2544 4750 2975 4387 
Q 3406 4025 3406 3419 
Q 3406 3131 3298 2873 
Q 3191 2616 2906 2266 
Q 2828 2175 2409 1742 
Q 1991 1309 1228 531 
z
" transform="scale(0.015625)"/>
       </defs>
       <use xlink:href="#DejaVuSans-32"/>
       <use xlink:href="#DejaVuSans-30" x="63.623047"/>
       <use xlink:href="#DejaVuSans-30" x="127.246094"/>
      </g>
     </g>
    </g>
   </g>
   <g id="matplotlib.axis_2">
    <g id="ytick_1">
     <g id="line2d_6">
      <defs>
       <path id="m7913fdd188" d="M 0 0 
L -3.5 0 
" style="stroke: #000000; stroke-width: 0.8"/>
      </defs>
      <g>
       <use xlink:href="#m7913fdd188" x="26.925" y="205.84624" style="stroke: #000000; stroke-width: 0.8"/>
      </g>
     </g>
     <g id="text_6">
      <!-- 70 -->
      <g transform="translate(7.2 209.645458) scale(0.1 -0.1)">
       <defs>
        <path id="DejaVuSans-37" d="M 525 4666 
L 3525 4666 
L 3525 4397 
L 1831 0 
L 1172 0 
L 2766 4134 
L 525 4134 
L 525 4666 
z
" transform="scale(0.015625)"/>
       </defs>
       <use xlink:href="#DejaVuSans-37"/>
       <use xlink:href="#DejaVuSans-30" x="63.623047"/>
      </g>
     </g>
    </g>
    <g id="ytick_2">
     <g id="line2d_7">
      <g>
       <use xlink:href="#m7913fdd188" x="26.925" y="157.750556" style="stroke: #000000; stroke-width: 0.8"/>
      </g>
     </g>
     <g id="text_7">
      <!-- 75 -->
      <g transform="translate(7.2 161.549775) scale(0.1 -0.1)">
       <use xlink:href="#DejaVuSans-37"/>
       <use xlink:href="#DejaVuSans-35" x="63.623047"/>
      </g>
     </g>
    </g>
    <g id="ytick_3">
     <g id="line2d_8">
      <g>
       <use xlink:href="#m7913fdd188" x="26.925" y="109.654873" style="stroke: #000000; stroke-width: 0.8"/>
      </g>
     </g>
     <g id="text_8">
      <!-- 80 -->
      <g transform="translate(7.2 113.454091) scale(0.1 -0.1)">
       <defs>
        <path id="DejaVuSans-38" d="M 2034 2216 
Q 1584 2216 1326 1975 
Q 1069 1734 1069 1313 
Q 1069 891 1326 650 
Q 1584 409 2034 409 
Q 2484 409 2743 651 
Q 3003 894 3003 1313 
Q 3003 1734 2745 1975 
Q 2488 2216 2034 2216 
z
M 1403 2484 
Q 997 2584 770 2862 
Q 544 3141 544 3541 
Q 544 4100 942 4425 
Q 1341 4750 2034 4750 
Q 2731 4750 3128 4425 
Q 3525 4100 3525 3541 
Q 3525 3141 3298 2862 
Q 3072 2584 2669 2484 
Q 3125 2378 3379 2068 
Q 3634 1759 3634 1313 
Q 3634 634 3220 271 
Q 2806 -91 2034 -91 
Q 1263 -91 848 271 
Q 434 634 434 1313 
Q 434 1759 690 2068 
Q 947 2378 1403 2484 
z
M 1172 3481 
Q 1172 3119 1398 2916 
Q 1625 2713 2034 2713 
Q 2441 2713 2670 2916 
Q 2900 3119 2900 3481 
Q 2900 3844 2670 4047 
Q 2441 4250 2034 4250 
Q 1625 4250 1398 4047 
Q 1172 3844 1172 3481 
z
" transform="scale(0.015625)"/>
       </defs>
       <use xlink:href="#DejaVuSans-38"/>
       <use xlink:href="#DejaVuSans-30" x="63.623047"/>
      </g>
     </g>
    </g>
    <g id="ytick_4">
     <g id="line2d_9">
      <g>
       <use xlink:href="#m7913fdd188" x="26.925" y="61.559189" style="stroke: #000000; stroke-width: 0.8"/>
      </g>
     </g>
     <g id="text_9">
      <!-- 85 -->
      <g transform="translate(7.2 65.358408) scale(0.1 -0.1)">
       <use xlink:href="#DejaVuSans-38"/>
       <use xlink:href="#DejaVuSans-35" x="63.623047"/>
      </g>
     </g>
    </g>
    <g id="ytick_5">
     <g id="line2d_10">
      <g>
       <use xlink:href="#m7913fdd188" x="26.925" y="13.463506" style="stroke: #000000; stroke-width: 0.8"/>
      </g>
     </g>
     <g id="text_10">
      <!-- 90 -->
      <g transform="translate(7.2 17.262724) scale(0.1 -0.1)">
       <defs>
        <path id="DejaVuSans-39" d="M 703 97 
L 703 672 
Q 941 559 1184 500 
Q 1428 441 1663 441 
Q 2288 441 2617 861 
Q 2947 1281 2994 2138 
Q 2813 1869 2534 1725 
Q 2256 1581 1919 1581 
Q 1219 1581 811 2004 
Q 403 2428 403 3163 
Q 403 3881 828 4315 
Q 1253 4750 1959 4750 
Q 2769 4750 3195 4129 
Q 3622 3509 3622 2328 
Q 3622 1225 3098 567 
Q 2575 -91 1691 -91 
Q 1453 -91 1209 -44 
Q 966 3 703 97 
z
M 1959 2075 
Q 2384 2075 2632 2365 
Q 2881 2656 2881 3163 
Q 2881 3666 2632 3958 
Q 2384 4250 1959 4250 
Q 1534 4250 1286 3958 
Q 1038 3666 1038 3163 
Q 1038 2656 1286 2365 
Q 1534 2075 1959 2075 
z
" transform="scale(0.015625)"/>
       </defs>
       <use xlink:href="#DejaVuSans-39"/>
       <use xlink:href="#DejaVuSans-30" x="63.623047"/>
      </g>
     </g>
    </g>
   </g>
   <g id="line2d_11">
    <path d="M 42.143182 33.373141 
L 42.449756 33.373141 
L 43.059403 28.843798 
L 43.365412 25.269512 
L 43.670116 24.671608 
L 43.975838 23.555604 
L 44.280682 24.459437 
L 44.589784 28.087187 
L 44.895261 28.087187 
L 45.20404 31.802134 
L 45.512556 30.371102 
L 45.821366 33.473093 
L 46.12823 30.862691 
L 46.432376 22.060352 
L 46.743246 31.533697 
L 47.051728 22.26993 
L 47.674484 28.800306 
L 48.289494 31.068837 
L 48.598959 33.03121 
L 48.906942 27.601128 
L 49.216226 27.734363 
L 49.525324 26.846194 
L 49.842627 25.522952 
L 50.153935 18.744783 
L 50.470261 26.771283 
L 50.785435 18.449914 
L 51.09684 17.28 
L 51.704135 17.293251 
L 52.343008 23.106544 
L 52.648493 28.700548 
L 52.956383 28.700548 
L 53.262558 21.890543 
L 53.573183 21.890543 
L 53.881799 30.152236 
L 54.187181 31.759433 
L 54.494791 29.107734 
L 54.802591 35.869425 
L 55.111261 32.675851 
L 55.415149 31.5595 
L 55.720813 33.030995 
L 56.029151 35.231456 
L 56.336832 40.828383 
L 56.646388 39.786686 
L 56.956915 40.893198 
L 57.258717 36.724938 
L 57.564404 43.211099 
L 57.873352 38.371965 
L 58.176913 39.078716 
L 58.481455 38.46378 
L 58.785904 36.216171 
L 59.394996 36.216171 
L 59.701956 36.518524 
L 60.011688 38.028241 
L 60.625385 38.028241 
L 60.933478 37.013959 
L 61.239217 37.891444 
L 61.544443 35.029716 
L 61.856243 40.279939 
L 62.163531 43.273465 
L 62.467665 37.317698 
L 62.775823 36.392709 
L 63.081679 36.392709 
L 63.385941 34.888446 
L 63.691708 45.262292 
L 64.003178 45.262292 
L 64.316486 43.350066 
L 64.623205 48.069733 
L 65.238319 42.193653 
L 65.547513 43.746622 
L 65.855055 43.255412 
L 66.219412 47.060644 
L 66.580217 54.76012 
L 66.901979 51.734715 
L 67.211656 53.433644 
L 67.517657 54.206208 
L 67.828382 52.635841 
L 68.131974 54.966925 
L 68.439779 54.966925 
L 68.750169 59.287917 
L 69.057536 59.287917 
L 69.362457 55.925378 
L 69.665374 55.065738 
L 69.972995 57.153525 
L 70.284499 54.891368 
L 70.59015 57.73188 
L 71.198903 57.73188 
L 71.868248 50.242592 
L 72.200981 50.242592 
L 72.524911 51.861498 
L 72.835998 52.785583 
L 73.14263 51.427569 
L 73.453773 53.137966 
L 73.764543 49.829277 
L 74.387814 56.850148 
L 74.69468 52.991271 
L 75.003853 55.779876 
L 75.310737 53.778806 
L 75.621308 52.989543 
L 75.927145 56.678044 
L 76.235709 56.601012 
L 76.542702 53.034082 
L 76.853117 54.363628 
L 77.162724 63.497361 
L 77.781319 58.958734 
L 78.088247 59.656912 
L 78.399093 58.207883 
L 78.704588 57.735309 
L 79.0119 57.770391 
L 79.31677 62.73333 
L 79.630874 60.324872 
L 79.939071 59.860671 
L 80.252073 61.384427 
L 80.567046 61.384427 
L 80.872471 65.712886 
L 81.187189 68.364212 
L 81.501817 65.549456 
L 81.809901 65.554027 
L 82.120505 63.744963 
L 82.429534 59.493174 
L 82.735565 62.511055 
L 83.357162 60.170566 
L 83.665142 60.173806 
L 83.98052 60.476787 
L 84.286721 61.323542 
L 84.598955 67.438231 
L 84.904972 67.438231 
L 85.209835 70.269816 
L 85.529276 68.181862 
L 85.842094 72.003697 
L 86.144884 69.115775 
L 86.452468 73.305077 
L 86.763357 69.348935 
L 87.082035 76.129452 
L 87.397628 75.446887 
L 87.707072 73.821212 
L 88.019443 72.823735 
L 88.326549 74.634067 
L 88.637557 72.839991 
L 88.95063 74.092702 
L 89.270672 73.11148 
L 89.581452 73.836589 
L 89.897343 72.983576 
L 90.212822 78.781742 
L 90.525773 78.781742 
L 90.838121 70.090101 
L 91.147746 70.15093 
L 91.459254 73.594848 
L 91.768905 73.525029 
L 92.385723 76.881356 
L 92.694633 74.923892 
L 93.002185 75.413122 
L 93.3128 76.766449 
L 93.622055 81.188711 
L 93.935304 77.0164 
L 94.245157 78.951042 
L 94.557335 78.969681 
L 94.87159 81.619264 
L 95.179889 79.625258 
L 95.49104 81.963129 
L 96.112863 91.149489 
L 96.427483 91.149489 
L 97.043236 83.367529 
L 97.355111 84.192572 
L 97.669789 84.192572 
L 97.980388 81.258443 
L 98.290438 81.306275 
L 98.598558 86.47653 
L 98.907305 86.966274 
L 99.220465 86.44045 
L 99.847326 86.290418 
L 100.162873 90.044457 
L 100.470349 89.077073 
L 100.783586 87.590829 
L 101.093563 87.410626 
L 101.409173 87.530262 
L 101.720745 89.631869 
L 102.033855 90.089875 
L 102.358922 97.971173 
L 102.679553 97.971173 
L 102.985665 97.444917 
L 103.297446 95.134165 
L 103.917821 95.134165 
L 104.226517 96.124781 
L 104.535569 94.830663 
L 104.848346 94.627256 
L 105.157964 94.930905 
L 105.471787 94.930905 
L 105.78379 96.26745 
L 106.085011 95.012204 
L 106.392252 89.208079 
L 107.023141 89.282367 
L 107.337434 89.062856 
L 107.651463 93.090742 
L 108.270527 93.689929 
L 108.58097 91.059556 
L 108.891339 91.713265 
L 109.199388 90.484381 
L 109.503853 90.168645 
L 109.809655 90.884056 
L 110.119273 90.884056 
L 110.427281 91.109807 
L 110.734454 97.601797 
L 111.034677 95.905427 
L 111.338246 95.724462 
L 111.648466 95.724462 
L 111.959922 94.9987 
L 112.268912 95.174321 
L 112.57652 96.299673 
L 112.887993 96.218389 
L 113.197738 100.946132 
L 113.50819 100.946132 
L 113.821141 91.854278 
L 114.132402 93.057337 
L 114.450622 94.735777 
L 114.762935 94.735777 
L 115.072788 100.731964 
L 115.3847 99.195333 
L 115.69543 98.964131 
L 116.000026 99.493367 
L 116.307164 99.108613 
L 116.615785 99.945213 
L 116.930107 103.596618 
L 117.24217 104.217862 
L 117.553186 105.527061 
L 117.864454 104.163579 
L 118.169729 103.347414 
L 118.475736 105.773832 
L 118.779703 97.637071 
L 119.088747 99.849463 
L 119.398629 97.248012 
L 119.712178 97.438638 
L 120.01812 98.432057 
L 120.327151 100.169198 
L 120.636124 100.888551 
L 120.944308 99.880618 
L 121.254269 100.431653 
L 121.565997 101.575045 
L 121.875324 99.722329 
L 122.18692 104.667738 
L 122.495937 98.660485 
L 122.808237 97.20252 
L 123.431044 101.3923 
L 123.737933 97.869688 
L 124.048266 99.058283 
L 124.351801 101.205583 
L 124.973964 101.682808 
L 125.283528 96.727229 
L 125.598425 97.064978 
L 125.907226 105.326505 
L 126.216277 102.506851 
L 126.527926 102.371792 
L 126.840003 101.34978 
L 127.151066 106.042261 
L 127.767604 106.034299 
L 128.393903 109.18051 
L 128.704569 109.425181 
L 129.02036 108.307621 
L 129.329175 110.963631 
L 129.636756 110.963631 
L 129.946041 112.333122 
L 130.252964 111.338276 
L 130.56143 114.157115 
L 130.869439 111.889889 
L 131.175032 116.009185 
L 131.482353 116.009185 
L 131.785805 115.164625 
L 132.090309 111.740734 
L 132.393175 117.865519 
L 132.703511 115.74495 
L 133.011058 116.643355 
L 133.32072 115.134471 
L 133.623876 115.122825 
L 133.929352 114.358 
L 134.244193 115.558204 
L 134.550291 115.558204 
L 134.854536 114.47283 
L 135.162215 114.424744 
L 135.473569 112.339592 
L 135.778494 112.164397 
L 136.390858 115.278604 
L 136.697244 117.595477 
L 137.004283 113.631962 
L 137.30897 112.573603 
L 137.614216 113.768499 
L 137.918741 113.625533 
L 138.222379 116.798355 
L 138.834556 116.789833 
L 139.144901 117.730132 
L 139.449807 118.104278 
L 139.751436 117.671935 
L 140.058104 120.806646 
L 140.666727 122.652733 
L 140.966873 122.652733 
L 141.27054 121.872868 
L 141.57676 122.458293 
L 141.885861 117.23719 
L 142.499108 118.309629 
L 142.802961 119.711471 
L 143.10796 112.507482 
L 143.417206 118.681705 
L 143.723456 118.561745 
L 144.028093 116.869718 
L 144.333887 116.869718 
L 144.945952 120.877523 
L 145.256652 120.662482 
L 145.865082 117.782664 
L 146.168543 117.782664 
L 146.474235 116.212104 
L 146.776936 116.129373 
L 147.076536 117.346477 
L 147.381 116.475292 
L 147.988197 117.246613 
L 148.293286 121.631626 
L 148.595115 121.631626 
L 148.899001 122.009966 
L 149.198468 124.259377 
L 149.50239 129.877152 
L 149.80306 129.43531 
L 150.103845 130.466503 
L 150.706957 128.499983 
L 151.006647 132.188722 
L 151.306997 132.481731 
L 151.609873 132.448053 
L 151.911527 133.406127 
L 152.212547 133.602234 
L 152.514689 133.602234 
L 152.814913 132.930879 
L 153.12008 131.470804 
L 153.421972 135.83538 
L 153.726247 133.482032 
L 154.030609 137.752544 
L 154.339289 129.416812 
L 154.643215 127.533789 
L 154.948282 134.885821 
L 155.243731 134.366811 
L 155.54734 134.366811 
L 155.8493 129.761565 
L 156.149417 132.542891 
L 156.449438 131.179273 
L 156.750512 131.141529 
L 157.05766 128.31327 
L 157.36043 130.205801 
L 157.669711 135.090983 
L 157.975318 136.276068 
L 158.276697 136.364129 
L 158.578785 131.505499 
L 158.881977 132.999941 
L 159.185365 128.293625 
L 159.488158 131.150608 
L 159.801614 130.057272 
L 160.112697 130.057272 
L 160.416105 128.735671 
L 160.721548 132.280788 
L 161.02596 131.061875 
L 161.330489 132.624877 
L 161.638406 132.414252 
L 161.94056 133.369574 
L 162.244371 136.199449 
L 162.546072 136.199449 
L 162.851769 133.796841 
L 163.155345 138.619881 
L 163.457538 136.129993 
L 163.76116 129.314979 
L 164.063114 129.460531 
L 164.366683 131.806788 
L 164.66749 130.937109 
L 165.273453 131.562589 
L 165.578001 132.067839 
L 165.881153 134.184333 
L 166.184809 135.399897 
L 166.484103 137.207123 
L 166.793354 137.114983 
L 167.09918 137.204563 
L 167.401536 143.401748 
L 167.706011 142.257193 
L 168.007786 138.806824 
L 168.318656 138.806824 
L 168.652586 136.026267 
L 168.957096 138.759777 
L 169.265468 136.910512 
L 169.563224 134.251275 
L 170.162584 137.024205 
L 170.467216 133.77007 
L 170.770518 137.662589 
L 171.075466 137.610703 
L 171.383883 138.241595 
L 171.685793 138.00047 
L 171.989615 139.207487 
L 172.293789 138.153436 
L 172.597182 138.933256 
L 172.903957 138.85714 
L 173.211906 137.139928 
L 173.513334 138.554791 
L 173.818111 142.351621 
L 174.120021 142.715252 
L 174.423619 143.374822 
L 175.031317 146.73424 
L 175.336182 149.292162 
L 175.641078 148.226621 
L 175.946405 146.174386 
L 176.247654 146.263601 
L 176.550438 143.000613 
L 176.854272 143.191679 
L 177.153454 143.624696 
L 177.453087 143.231203 
L 177.756219 141.784637 
L 178.06241 143.132092 
L 178.366475 143.834226 
L 178.668588 144.030679 
L 178.965735 146.502586 
L 179.265905 145.253081 
L 179.56539 145.118029 
L 179.869452 146.591962 
L 180.169302 141.112033 
L 180.468314 142.520413 
L 180.767252 142.695635 
L 181.068137 142.695635 
L 181.373612 143.989062 
L 181.671272 142.085298 
L 181.971773 146.47817 
L 182.272827 147.829605 
L 182.574084 145.345203 
L 182.875756 141.763437 
L 183.17725 141.763437 
L 183.477658 142.745564 
L 184.077232 146.090333 
L 184.381299 144.242636 
L 184.680319 144.732299 
L 184.981332 140.269969 
L 185.283641 141.739516 
L 185.584849 140.288964 
L 186.194604 144.452407 
L 186.492414 143.622212 
L 186.794714 141.678286 
L 187.092702 142.280509 
L 187.394074 144.527783 
L 187.699545 142.896479 
L 187.996619 143.267182 
L 188.601283 148.729753 
L 188.908629 149.307318 
L 189.211831 151.133644 
L 189.51443 149.760052 
L 190.733713 149.762226 
L 191.032091 149.194251 
L 191.329273 152.946861 
L 191.627135 154.856317 
L 191.927156 155.012629 
L 192.229237 155.012629 
L 192.526254 155.371869 
L 192.825987 155.451291 
L 193.125247 156.127868 
L 193.425623 151.180892 
L 194.025229 154.709844 
L 194.325653 151.906716 
L 194.628313 151.457986 
L 194.928767 151.457986 
L 195.23375 153.225053 
L 195.532996 153.225053 
L 195.834101 155.00638 
L 196.13552 155.00638 
L 196.4325 155.456003 
L 196.729477 155.456003 
L 197.029721 156.287663 
L 197.329736 153.030663 
L 197.630373 153.810753 
L 197.93219 152.476289 
L 198.233462 156.317392 
L 198.529955 151.273849 
L 199.126 149.158127 
L 199.422664 148.207058 
L 199.725335 148.342023 
L 200.024851 153.679567 
L 200.327491 155.572998 
L 200.626869 156.30971 
L 200.92457 156.30971 
L 201.223671 159.603633 
L 201.523309 159.485439 
L 201.82215 150.018409 
L 202.12427 152.729148 
L 202.424784 152.729148 
L 202.730452 155.54653 
L 203.031849 153.952632 
L 203.331658 153.952632 
L 203.632557 156.519604 
L 203.931489 156.949225 
L 204.230602 154.485826 
L 204.530415 154.485826 
L 204.830473 153.462858 
L 205.139691 157.416102 
L 205.440637 156.018411 
L 205.744532 156.018411 
L 206.048521 159.115705 
L 206.645278 157.73082 
L 206.950905 157.561837 
L 207.251958 158.03238 
L 207.550744 158.03238 
L 207.853387 155.736164 
L 208.153966 155.103856 
L 208.451659 151.222969 
L 208.754001 151.552823 
L 209.348667 158.182682 
L 209.654883 155.349286 
L 209.956133 160.872863 
L 210.259938 159.773401 
L 210.868531 156.454257 
L 211.16881 156.24841 
L 211.470872 159.308158 
L 212.072861 159.205227 
L 212.371401 159.091154 
L 212.670566 157.133862 
L 212.972258 158.369923 
L 213.271674 157.387106 
L 213.570044 157.005339 
L 213.869964 157.714229 
L 214.173829 157.473866 
L 214.475756 158.791295 
L 214.777276 161.238531 
L 215.078351 161.238531 
L 215.379855 157.594789 
L 215.680999 158.274292 
L 215.982469 157.189279 
L 216.288402 157.189279 
L 217.192621 159.635141 
L 217.495067 157.579829 
L 217.795453 157.908055 
L 218.096319 157.77614 
L 218.398091 157.77614 
L 218.703188 156.967818 
L 219.002333 156.967818 
L 219.303189 154.60392 
L 219.604259 154.60392 
L 219.903635 156.356322 
L 220.203788 155.956419 
L 220.503053 155.956419 
L 220.802683 153.656917 
L 221.105624 156.946882 
L 221.407614 157.306894 
L 221.706513 159.38763 
L 222.003781 159.525979 
L 222.30754 158.466766 
L 222.610211 158.99132 
L 222.907688 158.7974 
L 223.209291 161.190484 
L 223.510513 161.190484 
L 223.808951 158.987612 
L 224.110517 159.777711 
L 224.411162 157.970911 
L 224.71184 159.818948 
L 225.011517 162.987657 
L 225.310955 159.416269 
L 225.916929 155.280664 
L 226.223766 155.045986 
L 226.522051 155.179009 
L 226.822059 155.64407 
L 227.12306 155.0655 
L 227.423475 158.845629 
L 227.726148 158.026765 
L 228.027826 162.253562 
L 228.328129 159.79088 
L 228.631395 159.084499 
L 228.932102 159.599939 
L 229.230278 158.773188 
L 229.826239 159.696714 
L 230.130828 159.696714 
L 230.429067 159.23764 
L 230.728575 156.381309 
L 231.031927 155.450343 
L 231.930725 164.803125 
L 232.233006 162.174665 
L 232.530142 162.174665 
L 232.826507 159.030685 
L 233.433484 160.382685 
L 233.735067 159.959377 
L 234.336889 159.940738 
L 234.635472 161.291893 
L 234.9312 165.488656 
L 235.231121 166.006687 
L 236.435759 165.95331 
L 236.733918 163.012223 
L 237.035502 157.42169 
L 237.333744 155.886738 
L 237.638544 159.642239 
L 237.944939 156.702536 
L 238.251063 160.313437 
L 238.552735 161.361278 
L 238.853172 164.108636 
L 239.155533 161.223417 
L 239.456881 165.3967 
L 239.754583 165.339677 
L 240.057086 166.329514 
L 240.357775 167.80502 
L 240.660489 167.788009 
L 240.961146 165.672344 
L 241.261269 165.63079 
L 241.560508 168.284129 
L 241.858567 169.736715 
L 242.164898 166.038021 
L 242.461942 166.038034 
L 242.760179 161.635094 
L 243.061298 159.132247 
L 243.36455 162.875705 
L 243.664538 159.378427 
L 243.965897 161.028025 
L 244.27292 161.420389 
L 244.573008 160.818508 
L 245.179043 168.081339 
L 245.482732 168.081339 
L 245.782239 163.751214 
L 246.083022 171.482187 
L 246.678234 174.329693 
L 246.981224 177.55423 
L 247.282851 177.55423 
L 247.583568 178.777696 
L 247.88512 183.650597 
L 248.185052 182.428839 
L 248.486963 171.362243 
L 248.7873 171.362243 
L 249.085749 171.023435 
L 249.386967 176.126226 
L 249.689947 175.463311 
L 249.991914 180.531143 
L 250.293888 180.902595 
L 250.593208 182.368046 
L 250.894002 181.146288 
L 251.195545 181.539438 
L 251.496365 178.319877 
L 251.798343 179.578162 
L 252.102939 179.498941 
L 252.412819 179.80591 
L 253.01317 179.801141 
L 253.313556 180.401727 
L 253.615844 176.87643 
L 253.918801 178.959238 
L 254.220489 187.032785 
L 254.520517 185.108918 
L 254.819696 179.296801 
L 255.121357 178.102201 
L 255.42176 179.341142 
L 255.723205 178.412199 
L 256.024962 175.07915 
L 256.328883 175.07915 
L 256.6284 174.436422 
L 256.926694 179.655474 
L 257.233441 179.771121 
L 257.538529 179.149612 
L 257.844113 184.349033 
L 258.146227 184.280562 
L 258.44643 185.091075 
L 258.746006 183.120568 
L 259.351924 181.042573 
L 259.651388 182.689951 
L 259.953539 183.140307 
L 260.257736 183.87976 
L 260.561973 183.307205 
L 260.862417 183.596903 
L 261.16251 185.272781 
L 261.466747 177.627114 
L 261.772672 177.038716 
L 262.073956 177.038716 
L 262.376043 181.040911 
L 262.675427 181.040911 
L 262.97775 183.254127 
L 263.275768 181.55139 
L 263.574943 180.587891 
L 263.875841 179.044628 
L 264.475439 178.953959 
L 264.773432 181.770344 
L 265.072826 181.958416 
L 265.372931 183.919793 
L 265.674708 183.415897 
L 265.971672 183.648284 
L 266.269252 178.961024 
L 266.571207 181.727007 
L 266.874132 182.772048 
L 267.178095 182.600266 
L 267.478042 182.660704 
L 268.090844 177.286537 
L 268.392999 176.914055 
L 268.69498 178.1387 
L 268.996833 178.207632 
L 269.299831 174.096649 
L 269.604529 177.515178 
L 270.204038 181.384686 
L 270.505271 181.216069 
L 270.810302 180.449611 
L 271.113253 183.327531 
L 271.414094 182.096607 
L 271.71873 184.574245 
L 272.018552 183.338316 
L 272.321349 180.416676 
L 272.620063 180.986797 
L 272.923665 179.698122 
L 273.222293 179.610689 
L 273.520248 179.908627 
L 273.82069 178.438517 
L 274.124036 178.438517 
L 274.431725 186.388357 
L 274.732121 183.878962 
L 275.032544 183.878962 
L 275.333136 183.243969 
L 275.644957 179.912086 
L 275.953646 179.957633 
L 276.56051 186.934902 
L 276.860844 182.724887 
L 277.165784 183.553349 
L 277.766863 176.852901 
L 278.065286 173.759814 
L 278.366816 176.402084 
L 278.667937 177.008898 
L 279.264931 175.405786 
L 279.565187 175.763911 
L 279.870736 176.645858 
L 280.17102 176.645858 
L 280.475459 176.362973 
L 280.777907 175.454453 
L 281.083761 171.371362 
L 281.383917 176.925365 
L 281.682802 171.516853 
L 281.979568 174.087861 
L 282.277671 172.260308 
L 282.579521 172.145648 
L 283.182452 176.084423 
L 283.487622 176.842086 
L 283.786287 176.921283 
L 284.089089 175.164614 
L 284.389709 176.821105 
L 284.691169 176.871138 
L 284.988751 176.006828 
L 285.297796 179.450097 
L 285.9041 181.955898 
L 286.511583 181.955898 
L 286.811001 182.261131 
L 287.110714 184.472596 
L 287.412049 183.240719 
L 287.719584 185.062588 
L 288.02154 182.984172 
L 288.320341 183.336371 
L 288.622244 185.461691 
L 288.924473 184.410453 
L 289.228748 184.233223 
L 289.532746 184.96994 
L 289.836882 186.32207 
L 290.139645 183.325359 
L 290.442341 184.186032 
L 290.744196 187.882716 
L 291.046033 187.882716 
L 291.346039 187.425586 
L 291.645768 188.609802 
L 291.942835 184.474315 
L 292.245714 186.162953 
L 292.550786 186.162953 
L 292.850961 184.548925 
L 293.151243 184.548925 
L 293.453171 184.055314 
L 293.754926 180.983094 
L 294.055428 183.639727 
L 294.65195 183.639727 
L 294.956626 181.466013 
L 295.260593 181.465471 
L 295.562939 182.605294 
L 295.865934 184.193039 
L 296.167557 184.228326 
L 296.471718 184.375836 
L 297.079523 186.730853 
L 297.383448 189.617315 
L 297.684154 189.558371 
L 297.984961 189.180629 
L 298.284021 191.77956 
L 298.587048 190.856494 
L 298.889648 189.245496 
L 299.192497 188.69354 
L 299.492316 191.60339 
L 299.79484 191.60339 
L 300.096141 193.91855 
L 300.394735 191.273649 
L 300.695631 190.985641 
L 300.998255 188.538573 
L 301.298063 189.005679 
L 301.598678 190.570501 
L 301.901035 190.561239 
L 302.501578 195.938211 
L 302.804906 193.290704 
L 303.104647 193.290704 
L 303.406575 191.261913 
L 303.708771 190.427761 
L 304.009286 188.77077 
L 304.312715 188.77077 
L 304.616148 187.705023 
L 304.914982 186.059073 
L 305.214239 187.752724 
L 305.51336 187.026892 
L 305.810373 187.447569 
L 306.110248 187.569587 
L 306.407235 188.604671 
L 306.711663 187.792227 
L 307.011342 188.986654 
L 307.315302 188.896951 
L 307.615569 190.173111 
L 307.918518 187.341522 
L 308.217714 187.350188 
L 308.519082 188.470563 
L 308.819965 193.114329 
L 309.119344 189.809496 
L 309.422636 190.34049 
L 309.718884 192.62801 
L 310.016842 189.60378 
L 310.317526 189.60378 
L 310.620769 188.962064 
L 310.921457 189.449863 
L 311.219674 192.286029 
L 312.12684 197.30194 
L 312.424552 196.828294 
L 312.723339 195.249912 
L 313.029305 197.35032 
L 313.331345 197.080794 
L 313.632279 196.546611 
L 313.937106 198.312618 
L 314.23929 196.711564 
L 314.540756 196.677716 
L 314.844383 196.368158 
L 315.143844 199.279548 
L 315.444459 199.279548 
L 315.743254 199.44652 
L 316.044044 197.494541 
L 316.346564 197.629321 
L 316.948537 201.382798 
L 317.246976 203.055443 
L 317.54813 203.055443 
L 317.851307 203.338669 
L 318.154619 203.418019 
L 318.457245 201.056829 
L 319.064625 203.181773 
L 319.370943 203.834238 
L 319.672592 205.830279 
L 319.976482 204.018431 
L 320.276708 204.018431 
L 320.577503 205.819761 
L 320.876254 206.106029 
L 321.179381 205.506089 
L 321.479174 205.506089 
L 321.778175 205.623287 
L 322.083562 205.29472 
L 322.387623 205.773239 
L 322.992017 205.875168 
L 323.291975 205.035922 
L 323.595096 205.328474 
L 323.891108 207.376123 
L 324.494332 209.854716 
L 324.797453 206.655461 
L 325.100367 206.046785 
L 325.400793 207.804722 
L 325.709863 207.804722 
L 326.01036 210.137518 
L 326.314855 210.737413 
L 326.615169 210.107523 
L 326.916766 210.755574 
L 327.22148 211.051547 
L 327.520101 211.051547 
L 327.822789 215.854249 
L 328.125785 216.131675 
L 328.430967 218.88 
L 328.734965 211.958084 
L 329.036163 210.102691 
L 329.332695 210.286986 
L 329.631435 210.960205 
L 329.934245 210.960205 
L 330.239444 207.789792 
L 330.54241 208.667355 
L 331.140462 212.232632 
L 331.441132 209.30312 
L 331.746206 204.033159 
L 332.046342 202.951084 
L 332.345923 202.951084 
L 332.646649 202.725448 
L 332.949696 201.322815 
L 333.254018 203.007376 
L 333.559478 203.007376 
L 333.859593 204.438098 
L 334.158063 204.438098 
L 334.458943 203.524526 
L 334.764042 204.513475 
L 335.067658 206.277259 
L 335.366157 205.548758 
L 335.662029 200.046964 
L 335.965834 199.944352 
L 336.268908 200.12914 
L 336.568568 198.900554 
L 336.867441 198.900554 
L 337.169106 199.695703 
L 337.466052 199.695703 
L 337.769829 193.818863 
L 338.072743 199.143207 
L 338.377208 199.219083 
L 338.679406 196.631823 
L 338.982084 197.179448 
L 339.283145 193.062327 
L 339.583204 197.273151 
L 339.882359 195.083549 
L 340.187521 197.788555 
L 340.48837 196.330137 
L 340.789854 199.76175 
L 341.090512 199.76175 
L 341.38988 203.947295 
L 341.688538 203.14402 
L 342.288558 203.14402 
L 342.590938 204.832786 
L 342.891062 209.863129 
L 343.191641 209.863129 
L 343.491811 204.56652 
L 343.791125 196.907705 
L 344.093678 201.972326 
L 344.39609 195.286424 
L 344.696655 195.286424 
L 344.999808 195.132788 
L 345.299589 190.214973 
L 345.59881 189.50684 
L 345.901293 189.50684 
L 346.204164 190.185611 
L 346.506818 188.535146 
L 346.506818 188.535146 
" clip-path="url(#pb9014f88a0)" style="fill: none; stroke: #1f77b4; stroke-width: 1.5; stroke-linecap: square"/>
   </g>
   <g id="patch_3">
    <path d="M 26.925 228.96 
L 26.925 7.2 
" style="fill: none; stroke: #000000; stroke-width: 0.8; stroke-linejoin: miter; stroke-linecap: square"/>
   </g>
   <g id="patch_4">
    <path d="M 361.725 228.96 
L 361.725 7.2 
" style="fill: none; stroke: #000000; stroke-width: 0.8; stroke-linejoin: miter; stroke-linecap: square"/>
   </g>
   <g id="patch_5">
    <path d="M 26.925 228.96 
L 361.725 228.96 
" style="fill: none; stroke: #000000; stroke-width: 0.8; stroke-linejoin: miter; stroke-linecap: square"/>
   </g>
   <g id="patch_6">
    <path d="M 26.925 7.2 
L 361.725 7.2 
" style="fill: none; stroke: #000000; stroke-width: 0.8; stroke-linejoin: miter; stroke-linecap: square"/>
   </g>
  </g>
 </g>
 <defs>
  <clipPath id="pb9014f88a0">
   <rect x="26.925" y="7.2" width="334.8" height="221.76"/>
  </clipPath>
 </defs>
</svg>
