<?xml version="1.0" encoding="utf-8" standalone="no"?>
<!DOCTYPE svg PUBLIC "-//W3C//DTD SVG 1.1//EN"
  "http://www.w3.org/Graphics/SVG/1.1/DTD/svg11.dtd">
<svg xmlns:xlink="http://www.w3.org/1999/xlink" width="378.465625pt" height="255.651593pt" viewBox="0 0 378.465625 255.651593" xmlns="http://www.w3.org/2000/svg" version="1.1">
 <metadata>
  <rdf:RDF xmlns:dc="http://purl.org/dc/elements/1.1/" xmlns:cc="http://creativecommons.org/ns#" xmlns:rdf="http://www.w3.org/1999/02/22-rdf-syntax-ns#">
   <cc:Work>
    <dc:type rdf:resource="http://purl.org/dc/dcmitype/StillImage"/>
    <dc:date>2023-04-19T15:40:43.609736</dc:date>
    <dc:format>image/svg+xml</dc:format>
    <dc:creator>
     <cc:Agent>
      <dc:title>Matplotlib v3.6.2, https://matplotlib.org/</dc:title>
     </cc:Agent>
    </dc:creator>
   </cc:Work>
  </rdf:RDF>
 </metadata>
 <defs>
  <style type="text/css">*{stroke-linejoin: round; stroke-linecap: butt}</style>
 </defs>
 <g id="figure_1">
  <g id="patch_1">
   <path d="M 0 255.651593 
L 378.465625 255.651593 
L 378.465625 0 
L 0 0 
z
" style="fill: #ffffff"/>
  </g>
  <g id="axes_1">
   <g id="patch_2">
    <path d="M 36.465625 231.773468 
L 371.265625 231.773468 
L 371.265625 10.013468 
L 36.465625 10.013468 
z
" style="fill: #ffffff"/>
   </g>
   <g id="matplotlib.axis_1">
    <g id="xtick_1">
     <g id="line2d_1">
      <defs>
       <path id="mbf2029dee1" d="M 0 0 
L 0 3.5 
" style="stroke: #000000; stroke-width: 0.8"/>
      </defs>
      <g>
       <use xlink:href="#mbf2029dee1" x="40.36121" y="231.773468" style="stroke: #000000; stroke-width: 0.8"/>
      </g>
     </g>
     <g id="text_1">
      <!-- 0 -->
      <g transform="translate(37.17996 246.371906) scale(0.1 -0.1)">
       <defs>
        <path id="DejaVuSans-30" d="M 2034 4250 
Q 1547 4250 1301 3770 
Q 1056 3291 1056 2328 
Q 1056 1369 1301 889 
Q 1547 409 2034 409 
Q 2525 409 2770 889 
Q 3016 1369 3016 2328 
Q 3016 3291 2770 3770 
Q 2525 4250 2034 4250 
z
M 2034 4750 
Q 2819 4750 3233 4129 
Q 3647 3509 3647 2328 
Q 3647 1150 3233 529 
Q 2819 -91 2034 -91 
Q 1250 -91 836 529 
Q 422 1150 422 2328 
Q 422 3509 836 4129 
Q 1250 4750 2034 4750 
z
" transform="scale(0.015625)"/>
       </defs>
       <use xlink:href="#DejaVuSans-30"/>
      </g>
     </g>
    </g>
    <g id="xtick_2">
     <g id="line2d_2">
      <g>
       <use xlink:href="#mbf2029dee1" x="85.0948" y="231.773468" style="stroke: #000000; stroke-width: 0.8"/>
      </g>
     </g>
     <g id="text_2">
      <!-- 5 -->
      <g transform="translate(81.91355 246.371906) scale(0.1 -0.1)">
       <defs>
        <path id="DejaVuSans-35" d="M 691 4666 
L 3169 4666 
L 3169 4134 
L 1269 4134 
L 1269 2991 
Q 1406 3038 1543 3061 
Q 1681 3084 1819 3084 
Q 2600 3084 3056 2656 
Q 3513 2228 3513 1497 
Q 3513 744 3044 326 
Q 2575 -91 1722 -91 
Q 1428 -91 1123 -41 
Q 819 9 494 109 
L 494 744 
Q 775 591 1075 516 
Q 1375 441 1709 441 
Q 2250 441 2565 725 
Q 2881 1009 2881 1497 
Q 2881 1984 2565 2268 
Q 2250 2553 1709 2553 
Q 1456 2553 1204 2497 
Q 953 2441 691 2322 
L 691 4666 
z
" transform="scale(0.015625)"/>
       </defs>
       <use xlink:href="#DejaVuSans-35"/>
      </g>
     </g>
    </g>
    <g id="xtick_3">
     <g id="line2d_3">
      <g>
       <use xlink:href="#mbf2029dee1" x="129.82839" y="231.773468" style="stroke: #000000; stroke-width: 0.8"/>
      </g>
     </g>
     <g id="text_3">
      <!-- 10 -->
      <g transform="translate(123.46589 246.371906) scale(0.1 -0.1)">
       <defs>
        <path id="DejaVuSans-31" d="M 794 531 
L 1825 531 
L 1825 4091 
L 703 3866 
L 703 4441 
L 1819 4666 
L 2450 4666 
L 2450 531 
L 3481 531 
L 3481 0 
L 794 0 
L 794 531 
z
" transform="scale(0.015625)"/>
       </defs>
       <use xlink:href="#DejaVuSans-31"/>
       <use xlink:href="#DejaVuSans-30" x="63.623047"/>
      </g>
     </g>
    </g>
    <g id="xtick_4">
     <g id="line2d_4">
      <g>
       <use xlink:href="#mbf2029dee1" x="174.561981" y="231.773468" style="stroke: #000000; stroke-width: 0.8"/>
      </g>
     </g>
     <g id="text_4">
      <!-- 15 -->
      <g transform="translate(168.199481 246.371906) scale(0.1 -0.1)">
       <use xlink:href="#DejaVuSans-31"/>
       <use xlink:href="#DejaVuSans-35" x="63.623047"/>
      </g>
     </g>
    </g>
    <g id="xtick_5">
     <g id="line2d_5">
      <g>
       <use xlink:href="#mbf2029dee1" x="219.295571" y="231.773468" style="stroke: #000000; stroke-width: 0.8"/>
      </g>
     </g>
     <g id="text_5">
      <!-- 20 -->
      <g transform="translate(212.933071 246.371906) scale(0.1 -0.1)">
       <defs>
        <path id="DejaVuSans-32" d="M 1228 531 
L 3431 531 
L 3431 0 
L 469 0 
L 469 531 
Q 828 903 1448 1529 
Q 2069 2156 2228 2338 
Q 2531 2678 2651 2914 
Q 2772 3150 2772 3378 
Q 2772 3750 2511 3984 
Q 2250 4219 1831 4219 
Q 1534 4219 1204 4116 
Q 875 4013 500 3803 
L 500 4441 
Q 881 4594 1212 4672 
Q 1544 4750 1819 4750 
Q 2544 4750 2975 4387 
Q 3406 4025 3406 3419 
Q 3406 3131 3298 2873 
Q 3191 2616 2906 2266 
Q 2828 2175 2409 1742 
Q 1991 1309 1228 531 
z
" transform="scale(0.015625)"/>
       </defs>
       <use xlink:href="#DejaVuSans-32"/>
       <use xlink:href="#DejaVuSans-30" x="63.623047"/>
      </g>
     </g>
    </g>
    <g id="xtick_6">
     <g id="line2d_6">
      <g>
       <use xlink:href="#mbf2029dee1" x="264.029161" y="231.773468" style="stroke: #000000; stroke-width: 0.8"/>
      </g>
     </g>
     <g id="text_6">
      <!-- 25 -->
      <g transform="translate(257.666661 246.371906) scale(0.1 -0.1)">
       <use xlink:href="#DejaVuSans-32"/>
       <use xlink:href="#DejaVuSans-35" x="63.623047"/>
      </g>
     </g>
    </g>
    <g id="xtick_7">
     <g id="line2d_7">
      <g>
       <use xlink:href="#mbf2029dee1" x="308.762751" y="231.773468" style="stroke: #000000; stroke-width: 0.8"/>
      </g>
     </g>
     <g id="text_7">
      <!-- 30 -->
      <g transform="translate(302.400251 246.371906) scale(0.1 -0.1)">
       <defs>
        <path id="DejaVuSans-33" d="M 2597 2516 
Q 3050 2419 3304 2112 
Q 3559 1806 3559 1356 
Q 3559 666 3084 287 
Q 2609 -91 1734 -91 
Q 1441 -91 1130 -33 
Q 819 25 488 141 
L 488 750 
Q 750 597 1062 519 
Q 1375 441 1716 441 
Q 2309 441 2620 675 
Q 2931 909 2931 1356 
Q 2931 1769 2642 2001 
Q 2353 2234 1838 2234 
L 1294 2234 
L 1294 2753 
L 1863 2753 
Q 2328 2753 2575 2939 
Q 2822 3125 2822 3475 
Q 2822 3834 2567 4026 
Q 2313 4219 1838 4219 
Q 1578 4219 1281 4162 
Q 984 4106 628 3988 
L 628 4550 
Q 988 4650 1302 4700 
Q 1616 4750 1894 4750 
Q 2613 4750 3031 4423 
Q 3450 4097 3450 3541 
Q 3450 3153 3228 2886 
Q 3006 2619 2597 2516 
z
" transform="scale(0.015625)"/>
       </defs>
       <use xlink:href="#DejaVuSans-33"/>
       <use xlink:href="#DejaVuSans-30" x="63.623047"/>
      </g>
     </g>
    </g>
    <g id="xtick_8">
     <g id="line2d_8">
      <g>
       <use xlink:href="#mbf2029dee1" x="353.496342" y="231.773468" style="stroke: #000000; stroke-width: 0.8"/>
      </g>
     </g>
     <g id="text_8">
      <!-- 35 -->
      <g transform="translate(347.133842 246.371906) scale(0.1 -0.1)">
       <use xlink:href="#DejaVuSans-33"/>
       <use xlink:href="#DejaVuSans-35" x="63.623047"/>
      </g>
     </g>
    </g>
   </g>
   <g id="matplotlib.axis_2">
    <g id="ytick_1">
     <g id="line2d_9">
      <defs>
       <path id="m32779a42ed" d="M 0 0 
L -3.5 0 
" style="stroke: #000000; stroke-width: 0.8"/>
      </defs>
      <g>
       <use xlink:href="#m32779a42ed" x="36.465625" y="208.102684" style="stroke: #000000; stroke-width: 0.8"/>
      </g>
     </g>
     <g id="text_9">
      <!-- 72.5 -->
      <g transform="translate(7.2 211.901903) scale(0.1 -0.1)">
       <defs>
        <path id="DejaVuSans-37" d="M 525 4666 
L 3525 4666 
L 3525 4397 
L 1831 0 
L 1172 0 
L 2766 4134 
L 525 4134 
L 525 4666 
z
" transform="scale(0.015625)"/>
        <path id="DejaVuSans-2e" d="M 684 794 
L 1344 794 
L 1344 0 
L 684 0 
L 684 794 
z
" transform="scale(0.015625)"/>
       </defs>
       <use xlink:href="#DejaVuSans-37"/>
       <use xlink:href="#DejaVuSans-32" x="63.623047"/>
       <use xlink:href="#DejaVuSans-2e" x="127.246094"/>
       <use xlink:href="#DejaVuSans-35" x="159.033203"/>
      </g>
     </g>
    </g>
    <g id="ytick_2">
     <g id="line2d_10">
      <g>
       <use xlink:href="#m32779a42ed" x="36.465625" y="179.945047" style="stroke: #000000; stroke-width: 0.8"/>
      </g>
     </g>
     <g id="text_10">
      <!-- 75.0 -->
      <g transform="translate(7.2 183.744265) scale(0.1 -0.1)">
       <use xlink:href="#DejaVuSans-37"/>
       <use xlink:href="#DejaVuSans-35" x="63.623047"/>
       <use xlink:href="#DejaVuSans-2e" x="127.246094"/>
       <use xlink:href="#DejaVuSans-30" x="159.033203"/>
      </g>
     </g>
    </g>
    <g id="ytick_3">
     <g id="line2d_11">
      <g>
       <use xlink:href="#m32779a42ed" x="36.465625" y="151.787409" style="stroke: #000000; stroke-width: 0.8"/>
      </g>
     </g>
     <g id="text_11">
      <!-- 77.5 -->
      <g transform="translate(7.2 155.586627) scale(0.1 -0.1)">
       <use xlink:href="#DejaVuSans-37"/>
       <use xlink:href="#DejaVuSans-37" x="63.623047"/>
       <use xlink:href="#DejaVuSans-2e" x="127.246094"/>
       <use xlink:href="#DejaVuSans-35" x="159.033203"/>
      </g>
     </g>
    </g>
    <g id="ytick_4">
     <g id="line2d_12">
      <g>
       <use xlink:href="#m32779a42ed" x="36.465625" y="123.629771" style="stroke: #000000; stroke-width: 0.8"/>
      </g>
     </g>
     <g id="text_12">
      <!-- 80.0 -->
      <g transform="translate(7.2 127.428989) scale(0.1 -0.1)">
       <defs>
        <path id="DejaVuSans-38" d="M 2034 2216 
Q 1584 2216 1326 1975 
Q 1069 1734 1069 1313 
Q 1069 891 1326 650 
Q 1584 409 2034 409 
Q 2484 409 2743 651 
Q 3003 894 3003 1313 
Q 3003 1734 2745 1975 
Q 2488 2216 2034 2216 
z
M 1403 2484 
Q 997 2584 770 2862 
Q 544 3141 544 3541 
Q 544 4100 942 4425 
Q 1341 4750 2034 4750 
Q 2731 4750 3128 4425 
Q 3525 4100 3525 3541 
Q 3525 3141 3298 2862 
Q 3072 2584 2669 2484 
Q 3125 2378 3379 2068 
Q 3634 1759 3634 1313 
Q 3634 634 3220 271 
Q 2806 -91 2034 -91 
Q 1263 -91 848 271 
Q 434 634 434 1313 
Q 434 1759 690 2068 
Q 947 2378 1403 2484 
z
M 1172 3481 
Q 1172 3119 1398 2916 
Q 1625 2713 2034 2713 
Q 2441 2713 2670 2916 
Q 2900 3119 2900 3481 
Q 2900 3844 2670 4047 
Q 2441 4250 2034 4250 
Q 1625 4250 1398 4047 
Q 1172 3844 1172 3481 
z
" transform="scale(0.015625)"/>
       </defs>
       <use xlink:href="#DejaVuSans-38"/>
       <use xlink:href="#DejaVuSans-30" x="63.623047"/>
       <use xlink:href="#DejaVuSans-2e" x="127.246094"/>
       <use xlink:href="#DejaVuSans-30" x="159.033203"/>
      </g>
     </g>
    </g>
    <g id="ytick_5">
     <g id="line2d_13">
      <g>
       <use xlink:href="#m32779a42ed" x="36.465625" y="95.472133" style="stroke: #000000; stroke-width: 0.8"/>
      </g>
     </g>
     <g id="text_13">
      <!-- 82.5 -->
      <g transform="translate(7.2 99.271351) scale(0.1 -0.1)">
       <use xlink:href="#DejaVuSans-38"/>
       <use xlink:href="#DejaVuSans-32" x="63.623047"/>
       <use xlink:href="#DejaVuSans-2e" x="127.246094"/>
       <use xlink:href="#DejaVuSans-35" x="159.033203"/>
      </g>
     </g>
    </g>
    <g id="ytick_6">
     <g id="line2d_14">
      <g>
       <use xlink:href="#m32779a42ed" x="36.465625" y="67.314495" style="stroke: #000000; stroke-width: 0.8"/>
      </g>
     </g>
     <g id="text_14">
      <!-- 85.0 -->
      <g transform="translate(7.2 71.113713) scale(0.1 -0.1)">
       <use xlink:href="#DejaVuSans-38"/>
       <use xlink:href="#DejaVuSans-35" x="63.623047"/>
       <use xlink:href="#DejaVuSans-2e" x="127.246094"/>
       <use xlink:href="#DejaVuSans-30" x="159.033203"/>
      </g>
     </g>
    </g>
    <g id="ytick_7">
     <g id="line2d_15">
      <g>
       <use xlink:href="#m32779a42ed" x="36.465625" y="39.156857" style="stroke: #000000; stroke-width: 0.8"/>
      </g>
     </g>
     <g id="text_15">
      <!-- 87.5 -->
      <g transform="translate(7.2 42.956075) scale(0.1 -0.1)">
       <use xlink:href="#DejaVuSans-38"/>
       <use xlink:href="#DejaVuSans-37" x="63.623047"/>
       <use xlink:href="#DejaVuSans-2e" x="127.246094"/>
       <use xlink:href="#DejaVuSans-35" x="159.033203"/>
      </g>
     </g>
    </g>
    <g id="ytick_8">
     <g id="line2d_16">
      <g>
       <use xlink:href="#m32779a42ed" x="36.465625" y="10.999219" style="stroke: #000000; stroke-width: 0.8"/>
      </g>
     </g>
     <g id="text_16">
      <!-- 90.0 -->
      <g transform="translate(7.2 14.798438) scale(0.1 -0.1)">
       <defs>
        <path id="DejaVuSans-39" d="M 703 97 
L 703 672 
Q 941 559 1184 500 
Q 1428 441 1663 441 
Q 2288 441 2617 861 
Q 2947 1281 2994 2138 
Q 2813 1869 2534 1725 
Q 2256 1581 1919 1581 
Q 1219 1581 811 2004 
Q 403 2428 403 3163 
Q 403 3881 828 4315 
Q 1253 4750 1959 4750 
Q 2769 4750 3195 4129 
Q 3622 3509 3622 2328 
Q 3622 1225 3098 567 
Q 2575 -91 1691 -91 
Q 1453 -91 1209 -44 
Q 966 3 703 97 
z
M 1959 2075 
Q 2384 2075 2632 2365 
Q 2881 2656 2881 3163 
Q 2881 3666 2632 3958 
Q 2384 4250 1959 4250 
Q 1534 4250 1286 3958 
Q 1038 3666 1038 3163 
Q 1038 2656 1286 2365 
Q 1534 2075 1959 2075 
z
" transform="scale(0.015625)"/>
       </defs>
       <use xlink:href="#DejaVuSans-39"/>
       <use xlink:href="#DejaVuSans-30" x="63.623047"/>
       <use xlink:href="#DejaVuSans-2e" x="127.246094"/>
       <use xlink:href="#DejaVuSans-30" x="159.033203"/>
      </g>
     </g>
    </g>
   </g>
   <g id="line2d_17">
    <path d="M 51.683807 34.311428 
L 52.033465 26.269141 
L 52.329278 34.755087 
L 52.620845 34.755087 
L 52.930813 34.192958 
L 53.225274 39.093697 
L 53.524105 33.363683 
L 54.097554 47.722169 
L 54.665292 47.927149 
L 54.955007 47.927149 
L 55.257083 45.524855 
L 55.533117 35.411721 
L 55.803994 35.462007 
L 56.081291 36.617612 
L 56.352689 30.857691 
L 56.630941 32.825233 
L 56.906151 28.556719 
L 57.192544 27.603201 
L 57.977565 27.603201 
L 58.261194 26.543 
L 58.537253 28.868078 
L 58.811401 28.868078 
L 59.365057 30.984026 
L 59.64092 37.677667 
L 59.918269 38.554096 
L 60.194768 37.883992 
L 60.471588 38.161325 
L 60.749661 38.630715 
L 61.027358 34.840755 
L 61.306469 34.709677 
L 61.585651 34.115591 
L 61.868483 34.419472 
L 62.150126 20.093468 
L 62.709161 23.279052 
L 62.978655 22.81626 
L 63.252451 24.259478 
L 63.543962 25.140238 
L 64.09542 25.140238 
L 64.387074 25.898384 
L 65.271771 25.898384 
L 65.548886 25.304213 
L 65.831058 25.304213 
L 66.103188 26.699864 
L 66.384528 25.898384 
L 66.672995 25.704906 
L 67.227451 28.2776 
L 67.502294 28.889868 
L 67.769631 27.893558 
L 68.318119 27.893558 
L 68.596415 29.837321 
L 68.880019 29.460574 
L 69.178443 30.433402 
L 69.455078 30.575112 
L 69.763568 29.465925 
L 70.869016 29.465925 
L 71.146811 30.651465 
L 71.436255 30.651465 
L 71.718713 31.563004 
L 72.018767 31.563004 
L 72.328228 28.289306 
L 72.599419 29.652984 
L 72.88295 35.576422 
L 73.170122 35.973528 
L 73.447094 40.41729 
L 73.721658 42.190578 
L 74.030814 41.209485 
L 74.888589 41.209485 
L 75.454399 44.354523 
L 75.725501 44.345815 
L 75.999924 47.496784 
L 76.545386 47.496784 
L 76.818969 49.626954 
L 77.093068 50.55767 
L 77.373702 48.664989 
L 77.930024 48.664989 
L 78.213547 47.214786 
L 78.50445 47.214786 
L 78.792051 46.93766 
L 79.067476 48.1232 
L 79.349655 47.616536 
L 79.922605 47.616536 
L 80.199263 49.574527 
L 80.495112 49.878145 
L 81.049148 49.72871 
L 81.330333 49.72871 
L 81.883543 51.235089 
L 82.162582 51.235089 
L 82.43994 53.969762 
L 82.723857 51.000783 
L 83.006053 51.000783 
L 83.294701 52.1481 
L 83.571801 56.553499 
L 83.878465 56.553499 
L 84.184551 56.79068 
L 84.469245 56.553499 
L 84.746511 59.743042 
L 85.026572 60.802592 
L 85.579874 63.81713 
L 85.866338 56.442667 
L 86.165587 56.442667 
L 86.452435 57.451499 
L 86.742607 58.046114 
L 87.304129 58.046114 
L 87.581925 58.374257 
L 87.879063 58.046114 
L 88.164258 60.361539 
L 88.441955 65.370482 
L 88.718498 65.370482 
L 89.009326 66.771419 
L 89.291311 66.974501 
L 89.842356 66.974501 
L 90.121422 62.085743 
L 90.396526 64.440771 
L 90.683331 62.423595 
L 90.96279 63.730915 
L 91.240944 62.338782 
L 91.515591 62.594003 
L 91.804687 62.676675 
L 92.08292 63.071407 
L 92.366897 63.255988 
L 92.648708 63.650719 
L 92.958239 62.92969 
L 93.257562 64.031891 
L 93.537066 64.235887 
L 94.103447 65.386382 
L 94.380985 67.109142 
L 94.6541 67.109142 
L 94.933469 67.684036 
L 95.219407 67.907232 
L 95.515399 68.921026 
L 95.796432 71.805974 
L 96.085814 70.959876 
L 96.357509 71.845383 
L 96.626975 71.806252 
L 96.915194 72.908453 
L 97.200146 73.46857 
L 97.490209 75.36885 
L 98.33163 75.36885 
L 98.611181 77.33943 
L 99.173845 77.77072 
L 99.515173 79.950725 
L 99.812633 79.098659 
L 100.099438 79.098659 
L 100.378541 82.343673 
L 100.657552 82.343673 
L 100.934911 81.936269 
L 101.21572 83.430814 
L 101.491083 83.629709 
L 101.772304 83.629709 
L 102.060782 83.421188 
L 102.658102 83.421188 
L 102.949736 83.832232 
L 103.296592 83.673538 
L 103.655697 83.808321 
L 104.666631 86.741687 
L 105.232957 86.741687 
L 105.558706 86.17535 
L 105.851972 89.451876 
L 106.135305 89.130365 
L 106.420186 89.56113 
L 106.746422 90.482669 
L 107.105435 92.670199 
L 107.445141 93.646941 
L 107.727972 92.520754 
L 108.040001 92.466917 
L 108.350219 97.812617 
L 108.640316 98.097525 
L 108.941506 91.502089 
L 109.576931 91.502089 
L 109.870899 90.530323 
L 110.463496 93.039514 
L 110.754604 91.475227 
L 111.087842 92.656962 
L 111.386038 91.895336 
L 111.672519 92.579593 
L 112.347862 91.898087 
L 112.689393 93.128116 
L 113.012424 92.054938 
L 113.360818 94.856385 
L 113.753105 94.856385 
L 114.172617 91.894765 
L 114.566381 93.406163 
L 114.889902 93.406163 
L 115.217281 95.239645 
L 115.547146 93.574942 
L 115.886342 94.664424 
L 116.229449 97.924217 
L 116.566668 97.906032 
L 116.896964 95.936724 
L 117.477616 97.759617 
L 117.756806 100.213069 
L 118.525722 100.260456 
L 118.908017 98.481549 
L 119.263515 98.481549 
L 119.640583 98.26531 
L 119.984602 98.525506 
L 120.337722 98.999001 
L 120.697224 98.468585 
L 120.996574 98.469217 
L 121.340298 98.667261 
L 121.718744 97.345565 
L 122.100341 101.559827 
L 122.469964 101.054579 
L 122.847971 101.031345 
L 123.228072 101.169409 
L 123.603978 101.101966 
L 124.026271 106.141392 
L 124.366437 102.755535 
L 124.656918 103.087854 
L 124.945457 101.942825 
L 125.222101 105.194134 
L 125.509951 105.99166 
L 125.8098 107.16349 
L 126.090192 104.819519 
L 126.377756 105.428651 
L 126.657252 103.720713 
L 126.946875 103.058934 
L 127.277063 106.144419 
L 127.56589 106.441788 
L 128.184493 106.538824 
L 128.484153 105.52884 
L 129.07156 105.52884 
L 129.352935 111.578216 
L 129.656397 109.866199 
L 129.947006 109.254474 
L 130.227459 109.772801 
L 130.518343 109.772801 
L 130.797025 115.238344 
L 131.08747 115.595711 
L 131.376557 109.772801 
L 131.663416 108.895244 
L 131.951277 111.64415 
L 132.565708 111.725826 
L 132.860485 111.946947 
L 133.140947 115.714378 
L 133.444179 112.454668 
L 133.733345 114.544948 
L 134.010569 114.544948 
L 134.289439 112.763196 
L 134.577898 114.330659 
L 134.858127 112.327645 
L 135.151167 113.273348 
L 135.723876 112.113221 
L 136.010598 114.553479 
L 136.292644 114.932957 
L 136.572042 113.517865 
L 137.227933 113.517865 
L 137.586277 112.38466 
L 137.929553 112.398205 
L 138.268267 112.551199 
L 138.567597 112.513185 
L 138.849757 113.507776 
L 139.136545 112.677263 
L 139.42116 118.328697 
L 139.710632 117.987557 
L 140.054962 115.728454 
L 140.401077 117.507205 
L 140.711312 117.507205 
L 141.024134 117.117559 
L 141.947749 117.09016 
L 142.278275 118.151783 
L 142.560079 117.351054 
L 142.843108 118.00918 
L 143.137188 118.21246 
L 143.712577 120.402943 
L 143.993952 118.70811 
L 144.28141 121.812698 
L 144.87607 121.72558 
L 145.163547 121.332724 
L 145.449136 122.567704 
L 145.744824 115.773816 
L 146.025904 115.833296 
L 146.356307 116.268683 
L 146.94425 118.660733 
L 147.237674 121.20117 
L 147.55947 119.291019 
L 148.141165 119.291019 
L 148.481402 120.862136 
L 148.779954 121.083287 
L 149.079739 120.943143 
L 149.724118 119.347326 
L 150.05523 123.443307 
L 150.405939 123.664458 
L 150.789844 121.09826 
L 151.508721 121.066437 
L 152.051893 122.982171 
L 152.627777 121.39637 
L 153.013525 122.202007 
L 153.366973 122.4827 
L 153.696005 122.484308 
L 154.043961 123.873487 
L 154.380993 124.474501 
L 154.748953 133.792604 
L 155.071206 133.792604 
L 155.421272 131.033613 
L 155.821449 130.424926 
L 156.350308 130.109505 
L 156.877664 130.448506 
L 157.452767 131.797791 
L 158.024642 131.55708 
L 158.590755 131.778021 
L 159.078619 133.279571 
L 159.56311 135.153959 
L 160.082423 135.843235 
L 160.890087 139.928372 
L 161.274725 140.443782 
L 161.763064 140.443782 
L 162.165695 138.5561 
L 162.445045 138.313864 
L 162.728442 140.489011 
L 163.019981 140.489011 
L 163.29774 138.873431 
L 163.604997 136.408707 
L 163.896903 137.907469 
L 164.556595 136.755596 
L 164.859452 136.518966 
L 165.247079 137.23922 
L 165.547132 138.530632 
L 165.844004 138.949009 
L 166.144889 139.161667 
L 166.464137 130.062228 
L 166.758804 130.497897 
L 167.047352 130.062228 
L 167.635009 130.248669 
L 167.924722 130.248669 
L 168.215804 130.509758 
L 168.504209 130.971747 
L 168.786791 131.075193 
L 169.100294 129.998561 
L 169.741764 131.040619 
L 170.035493 131.040619 
L 170.321486 130.408386 
L 170.61331 132.374018 
L 170.895077 132.718738 
L 171.19992 133.790536 
L 171.54181 136.826304 
L 171.82228 133.529812 
L 172.106374 135.869122 
L 172.392734 136.958263 
L 172.694353 136.789903 
L 173.273973 135.189697 
L 173.612117 138.05545 
L 173.921609 139.145721 
L 174.203869 138.714967 
L 174.478783 137.232653 
L 174.769346 137.092551 
L 175.347547 138.145054 
L 175.927436 140.96242 
L 176.524041 138.562941 
L 177.15219 137.932491 
L 177.44674 137.946009 
L 178.019188 137.399826 
L 178.305778 137.871921 
L 178.58887 138.652841 
L 178.872777 140.552918 
L 179.166032 140.231037 
L 179.461632 138.296973 
L 179.747693 137.645153 
L 180.040691 138.372257 
L 180.325973 140.376628 
L 180.612117 139.926374 
L 181.231542 140.932465 
L 181.56209 139.31411 
L 181.886862 140.875138 
L 182.177927 140.507031 
L 182.460803 141.659531 
L 182.749844 141.090754 
L 183.041169 141.303301 
L 183.326292 143.517634 
L 183.617786 141.331183 
L 183.899821 141.429554 
L 184.191288 140.779584 
L 184.760809 142.955322 
L 185.05886 142.248105 
L 185.396008 140.623555 
L 185.69168 141.469918 
L 186.02007 141.469918 
L 186.317519 140.889923 
L 186.89553 144.446194 
L 187.172933 143.577752 
L 187.466441 143.89382 
L 188.048816 142.6682 
L 188.630631 144.930609 
L 188.922242 144.499878 
L 189.2039 145.97199 
L 189.487576 145.315475 
L 189.77462 147.867161 
L 190.060442 148.895989 
L 190.387104 149.25726 
L 190.684735 144.308906 
L 190.973095 145.264256 
L 191.260511 147.857766 
L 191.559643 147.872462 
L 191.840855 147.261487 
L 192.119109 149.597491 
L 192.403997 150.867289 
L 192.690231 150.994397 
L 192.979263 150.834478 
L 193.28168 147.45295 
L 193.58272 147.336943 
L 193.872432 147.439737 
L 194.169099 149.683616 
L 194.45279 150.023988 
L 194.736541 147.812696 
L 195.036159 151.589614 
L 195.329138 152.368738 
L 195.608955 160.025141 
L 195.906023 159.247233 
L 196.192092 159.32517 
L 196.480312 151.089702 
L 196.772173 152.950881 
L 197.060059 152.950881 
L 197.346658 158.839502 
L 197.634545 159.3871 
L 197.925091 160.444492 
L 198.214194 159.363691 
L 198.849216 156.099081 
L 199.145601 155.057503 
L 199.471074 155.242947 
L 199.764187 159.067704 
L 200.665227 159.128082 
L 200.950207 159.421753 
L 201.235948 159.308351 
L 201.528399 160.121464 
L 202.397992 160.155613 
L 202.67926 160.330311 
L 203.26527 158.075383 
L 204.152533 159.943731 
L 204.441889 160.011563 
L 204.72058 160.611319 
L 205.012143 160.611319 
L 205.315707 158.705234 
L 205.593616 160.16717 
L 205.879404 160.382417 
L 206.18751 160.841847 
L 206.806595 160.352112 
L 207.097176 160.352112 
L 207.384833 161.112984 
L 207.68722 161.403543 
L 207.972342 160.717671 
L 208.579451 160.821084 
L 208.867419 162.580213 
L 209.449788 168.579454 
L 210.06577 163.649018 
L 210.349102 163.016885 
L 210.933037 163.016885 
L 211.2257 164.245526 
L 211.514975 161.539719 
L 211.79414 163.765819 
L 212.084382 162.831489 
L 212.382951 163.173703 
L 212.66479 162.966862 
L 212.965811 162.274346 
L 213.536881 162.65216 
L 213.852465 165.251392 
L 214.137206 164.956248 
L 214.430426 163.160851 
L 214.724648 164.060773 
L 215.008375 164.342967 
L 215.898052 164.333728 
L 216.194064 164.779945 
L 216.479466 164.341005 
L 217.668768 165.423373 
L 217.964611 165.828851 
L 218.294656 166.039111 
L 218.899105 166.858876 
L 219.204018 166.858876 
L 219.503071 167.979517 
L 219.798607 168.196935 
L 220.088059 167.825796 
L 220.40134 170.095337 
L 220.699971 170.48549 
L 220.973599 169.874303 
L 221.258917 167.19208 
L 221.54234 170.835156 
L 221.859217 172.165981 
L 222.144992 172.165981 
L 222.43748 169.44084 
L 222.738024 168.499851 
L 223.025446 168.499851 
L 223.60668 169.890376 
L 223.899667 169.645022 
L 224.195696 171.697283 
L 224.760798 168.548085 
L 225.046772 168.233937 
L 225.624704 167.109862 
L 225.911196 167.342071 
L 226.223854 169.414819 
L 226.802823 168.372057 
L 227.090163 169.104828 
L 227.380049 169.097596 
L 227.681668 168.570914 
L 227.980033 170.498402 
L 228.274121 170.498402 
L 228.577451 172.547926 
L 228.869881 172.563298 
L 229.460795 173.769799 
L 229.786751 173.846962 
L 230.110853 174.489446 
L 230.38448 174.489446 
L 230.696543 175.256776 
L 230.992956 175.339666 
L 231.285943 175.645751 
L 231.571916 175.454842 
L 231.859912 175.454842 
L 232.140525 174.763853 
L 232.442631 174.763853 
L 232.724818 176.177258 
L 233.008876 176.42372 
L 233.289167 176.177258 
L 233.575731 175.310324 
L 233.863217 178.002957 
L 234.148222 179.16384 
L 234.452216 179.16384 
L 234.740979 179.662279 
L 235.032748 180.637673 
L 235.319632 179.658497 
L 235.608989 180.208661 
L 235.905768 178.094098 
L 236.189379 178.870724 
L 236.483835 178.736084 
L 237.059225 178.736084 
L 237.345378 180.891905 
L 237.632825 180.111773 
L 237.927629 181.102483 
L 238.224498 181.314006 
L 238.511545 181.314006 
L 238.809043 181.484761 
L 239.098135 183.704863 
L 239.761913 183.79478 
L 240.077875 180.699117 
L 240.379665 181.282931 
L 240.701997 181.282931 
L 240.984088 179.63502 
L 241.265202 181.301761 
L 241.855971 181.204396 
L 242.147546 184.506038 
L 242.729341 184.506038 
L 243.016369 185.174424 
L 243.309671 185.243904 
L 243.612839 185.160819 
L 243.904169 184.382054 
L 244.212663 184.41422 
L 244.498001 184.179985 
L 244.791632 183.514066 
L 245.366101 183.585006 
L 245.957987 182.974777 
L 246.823369 182.974777 
L 247.104735 183.643163 
L 247.3899 183.778315 
L 247.684581 184.647225 
L 247.970787 184.647225 
L 248.252714 183.778315 
L 248.872945 184.385947 
L 249.221276 183.720029 
L 249.513899 183.720029 
L 249.79869 184.385947 
L 250.701567 184.423014 
L 251.035609 181.272465 
L 251.354123 183.157533 
L 251.637526 183.157533 
L 251.979586 182.388692 
L 252.623419 183.995396 
L 253.150469 183.26615 
L 253.911201 183.337487 
L 254.367609 183.853775 
L 254.746825 183.853775 
L 255.249255 184.926104 
L 255.568043 184.057194 
L 255.971818 179.965704 
L 256.851672 181.010858 
L 257.243798 180.344939 
L 257.581161 178.186698 
L 257.956495 179.568473 
L 258.280294 178.212385 
L 258.78557 179.169198 
L 259.154496 179.429527 
L 259.489775 180.095446 
L 259.793954 182.599963 
L 260.102105 182.599963 
L 260.413415 181.218187 
L 260.717827 180.593914 
L 261.374732 182.538996 
L 261.670841 185.302817 
L 261.980148 184.811104 
L 262.275497 184.565647 
L 262.561737 184.502665 
L 262.879676 185.760179 
L 263.203126 185.03482 
L 263.491936 184.812568 
L 263.774608 186.836325 
L 264.063883 186.994636 
L 264.349291 186.994636 
L 264.637063 185.877621 
L 264.93294 186.60298 
L 265.218679 186.60298 
L 265.509842 188.782749 
L 265.80104 189.407022 
L 266.095511 190.78688 
L 267.56782 190.78688 
L 268.182012 189.322105 
L 268.518219 189.483456 
L 268.849356 188.324358 
L 269.147068 188.809922 
L 269.439814 186.501106 
L 269.734448 186.555344 
L 270.020016 188.105047 
L 270.316296 187.891786 
L 270.614159 187.051232 
L 270.913221 187.051232 
L 271.209252 185.422717 
L 271.498963 184.989983 
L 271.793669 188.104953 
L 272.089258 187.87299 
L 272.380215 188.043823 
L 272.67475 188.043823 
L 272.958727 187.152693 
L 273.258307 190.169619 
L 273.552538 189.169627 
L 273.843861 189.159765 
L 274.138764 187.608965 
L 274.437111 188.683922 
L 275.020453 188.683922 
L 275.308521 187.216555 
L 275.600399 189.39085 
L 275.888303 189.286807 
L 276.179752 189.793722 
L 276.484539 192.074839 
L 277.080096 194.531029 
L 277.87205 194.334849 
L 278.285873 196.032947 
L 278.619979 196.032947 
L 278.952063 195.383078 
L 279.276659 195.42296 
L 279.885511 198.815973 
L 280.185671 194.020208 
L 280.480627 194.020208 
L 280.791446 191.347199 
L 281.081792 192.774211 
L 281.697783 191.039748 
L 282.149743 191.039748 
L 282.50602 196.901444 
L 282.83111 197.715802 
L 283.484631 198.604413 
L 283.823569 201.168651 
L 284.175827 200.160853 
L 284.484684 196.623485 
L 284.820725 198.158307 
L 285.115655 197.29413 
L 285.417326 198.679043 
L 285.713116 203.536443 
L 286.004178 204.167016 
L 286.871858 204.183891 
L 287.166589 205.792486 
L 287.475314 205.922591 
L 287.787179 205.922591 
L 288.395 203.979793 
L 288.689832 203.387401 
L 288.99198 200.486815 
L 289.280351 202.238449 
L 289.578411 202.285417 
L 289.872999 201.354472 
L 290.160735 201.500551 
L 290.452423 203.006018 
L 290.760764 197.98267 
L 291.04986 199.308329 
L 291.921878 205.172706 
L 292.202207 204.782877 
L 292.498861 203.939131 
L 292.799569 204.074761 
L 293.097755 201.67578 
L 293.700298 202.42365 
L 293.994985 202.032975 
L 294.287838 201.886895 
L 294.573579 204.117403 
L 294.878125 202.251941 
L 295.460726 202.291692 
L 296.085985 206.944079 
L 296.37404 207.858014 
L 296.693047 207.858014 
L 297.007776 205.630496 
L 297.320255 204.888954 
L 297.602542 204.691227 
L 297.892812 201.764663 
L 298.182021 206.167131 
L 298.471386 205.640895 
L 298.743625 206.029434 
L 299.041667 204.376695 
L 299.328758 205.778002 
L 299.623006 206.232354 
L 299.919474 203.16331 
L 300.213875 205.155728 
L 300.500841 205.083314 
L 300.799913 205.675706 
L 301.087764 205.675706 
L 301.381493 202.913771 
L 301.678908 206.273694 
L 301.975726 206.273694 
L 302.278402 206.532612 
L 302.57894 206.532612 
L 302.875809 206.032142 
L 303.165263 206.032142 
L 303.466023 206.451777 
L 303.750388 206.058244 
L 304.047375 204.923752 
L 304.356366 205.673043 
L 304.646169 205.24765 
L 304.930084 205.24765 
L 305.229244 205.667285 
L 305.525183 206.896454 
L 305.814529 207.120174 
L 306.102401 207.120174 
L 306.431048 206.773299 
L 306.753256 209.657163 
L 307.066454 209.597275 
L 307.363592 208.239428 
L 307.668594 208.239428 
L 308.259069 208.71484 
L 308.558084 209.410693 
L 308.869189 210.87302 
L 309.16044 210.980694 
L 309.45188 210.749129 
L 309.740322 210.118676 
L 310.028236 210.118676 
L 310.37096 209.469114 
L 310.719675 207.93246 
L 311.066057 208.164025 
L 311.988193 208.149339 
L 312.277844 207.117929 
L 312.568199 207.301757 
L 313.150794 207.222362 
L 313.462104 203.625 
L 313.760548 201.921978 
L 314.100398 205.06605 
L 314.394048 204.549516 
L 314.98749 204.549516 
L 315.26934 205.71201 
L 315.562229 206.140581 
L 315.872099 205.665718 
L 316.190201 204.151873 
L 316.502539 207.091824 
L 317.175056 210.761328 
L 317.48105 210.382849 
L 317.803032 211.026281 
L 318.102309 211.026281 
L 318.675124 207.831179 
L 318.981413 208.892338 
L 319.26446 210.737292 
L 319.559819 211.058963 
L 319.860967 209.85846 
L 320.155189 210.443264 
L 320.449524 209.831756 
L 320.750092 208.207775 
L 321.036307 208.628723 
L 321.332139 208.207775 
L 321.624676 208.030339 
L 321.907574 210.252245 
L 322.201608 209.051741 
L 322.491623 210.959742 
L 322.77569 210.959742 
L 323.072525 213.161338 
L 323.654 210.260372 
L 324.264899 209.444542 
L 324.561589 209.444542 
L 324.8447 210.798571 
L 325.143852 210.798571 
L 325.432749 209.715272 
L 325.721871 209.239548 
L 326.020692 210.489164 
L 326.313788 210.023197 
L 326.607624 211.605558 
L 326.941747 209.949082 
L 327.260098 210.808754 
L 327.569395 210.545457 
L 327.860451 210.859759 
L 328.15606 212.34684 
L 328.439241 212.34684 
L 328.721492 212.639088 
L 329.031817 212.399046 
L 329.328812 211.440507 
L 329.627311 210.871272 
L 329.917203 210.713566 
L 330.213413 210.713566 
L 330.505467 211.717104 
L 330.794446 213.292594 
L 331.085893 213.292594 
L 331.374273 211.578315 
L 331.672413 210.984091 
L 332.251796 211.57805 
L 332.557808 211.430029 
L 332.851091 214.568906 
L 333.145322 214.220055 
L 334.032691 214.220055 
L 334.318807 213.964673 
L 334.899005 213.964673 
L 335.184394 212.374109 
L 335.476515 212.569597 
L 335.766979 211.796568 
L 336.368671 212.176064 
L 336.988635 212.241897 
L 337.290846 213.299361 
L 337.875263 212.653161 
L 338.159805 212.426469 
L 338.753249 212.330109 
L 339.04503 212.036055 
L 339.33944 212.916502 
L 339.660635 212.669619 
L 339.944283 212.669619 
L 340.240973 213.50775 
L 340.576709 213.800034 
L 340.874704 214.74417 
L 341.167629 214.908045 
L 341.463479 216.491484 
L 341.750097 216.308202 
L 342.042216 216.308202 
L 342.343227 215.675071 
L 342.658234 218.65482 
L 342.960864 218.622498 
L 343.25361 217.342925 
L 343.531934 217.556267 
L 344.109024 218.478423 
L 344.41747 218.480846 
L 344.721147 216.409213 
L 345.01361 216.510912 
L 345.59424 220.265777 
L 345.923999 217.531526 
L 346.250437 217.873118 
L 346.549456 217.503928 
L 347.144297 217.522861 
L 347.43764 216.508118 
L 347.730083 216.659793 
L 348.024869 215.682287 
L 348.317764 216.737579 
L 348.617973 216.211099 
L 348.910879 215.261043 
L 349.199169 215.376005 
L 349.495164 216.147195 
L 349.786639 216.147195 
L 350.079519 217.957678 
L 350.38332 217.082117 
L 350.674249 217.913107 
L 350.964275 217.927829 
L 351.266095 217.296306 
L 351.565639 217.098185 
L 351.856478 216.503556 
L 352.141012 217.115613 
L 352.451202 216.964926 
L 352.769824 217.214327 
L 353.051491 217.75704 
L 353.346464 217.75704 
L 353.661417 218.627565 
L 353.949758 219.069233 
L 354.230679 219.069233 
L 354.530643 218.039062 
L 354.826503 218.201564 
L 355.121845 219.080177 
L 355.430657 219.546543 
L 355.749446 219.022565 
L 356.047443 221.693468 
L 356.047443 221.693468 
" clip-path="url(#p37522bc360)" style="fill: none; stroke: #1f77b4; stroke-width: 1.5; stroke-linecap: square"/>
   </g>
   <g id="patch_3">
    <path d="M 36.465625 231.773468 
L 36.465625 10.013468 
" style="fill: none; stroke: #000000; stroke-width: 0.8; stroke-linejoin: miter; stroke-linecap: square"/>
   </g>
   <g id="patch_4">
    <path d="M 371.265625 231.773468 
L 371.265625 10.013468 
" style="fill: none; stroke: #000000; stroke-width: 0.8; stroke-linejoin: miter; stroke-linecap: square"/>
   </g>
   <g id="patch_5">
    <path d="M 36.465625 231.773468 
L 371.265625 231.773468 
" style="fill: none; stroke: #000000; stroke-width: 0.8; stroke-linejoin: miter; stroke-linecap: square"/>
   </g>
   <g id="patch_6">
    <path d="M 36.465625 10.013468 
L 371.265625 10.013468 
" style="fill: none; stroke: #000000; stroke-width: 0.8; stroke-linejoin: miter; stroke-linecap: square"/>
   </g>
  </g>
 </g>
 <defs>
  <clipPath id="p37522bc360">
   <rect x="36.465625" y="10.013468" width="334.8" height="221.76"/>
  </clipPath>
 </defs>
</svg>
