<?xml version="1.0" encoding="utf-8" standalone="no"?>
<!DOCTYPE svg PUBLIC "-//W3C//DTD SVG 1.1//EN"
  "http://www.w3.org/Graphics/SVG/1.1/DTD/svg11.dtd">
<svg xmlns:xlink="http://www.w3.org/1999/xlink" width="375.2875pt" height="248.518125pt" viewBox="0 0 375.2875 248.518125" xmlns="http://www.w3.org/2000/svg" version="1.1">
 <metadata>
  <rdf:RDF xmlns:dc="http://purl.org/dc/elements/1.1/" xmlns:cc="http://creativecommons.org/ns#" xmlns:rdf="http://www.w3.org/1999/02/22-rdf-syntax-ns#">
   <cc:Work>
    <dc:type rdf:resource="http://purl.org/dc/dcmitype/StillImage"/>
    <dc:date>2023-01-02T16:40:24.396234</dc:date>
    <dc:format>image/svg+xml</dc:format>
    <dc:creator>
     <cc:Agent>
      <dc:title>Matplotlib v3.5.3, https://matplotlib.org/</dc:title>
     </cc:Agent>
    </dc:creator>
   </cc:Work>
  </rdf:RDF>
 </metadata>
 <defs>
  <style type="text/css">*{stroke-linejoin: round; stroke-linecap: butt}</style>
 </defs>
 <g id="figure_1">
  <g id="patch_1">
   <path d="M 0 248.518125 
L 375.2875 248.518125 
L 375.2875 0 
L 0 0 
z
" style="fill: #ffffff"/>
  </g>
  <g id="axes_1">
   <g id="patch_2">
    <path d="M 33.2875 224.64 
L 368.0875 224.64 
L 368.0875 7.2 
L 33.2875 7.2 
z
" style="fill: #ffffff"/>
   </g>
   <g id="matplotlib.axis_1">
    <g id="xtick_1">
     <g id="line2d_1">
      <defs>
       <path id="m3b61bfad7c" d="M 0 0 
L 0 3.5 
" style="stroke: #000000; stroke-width: 0.8"/>
      </defs>
      <g>
       <use xlink:href="#m3b61bfad7c" x="48.505682" y="224.64" style="stroke: #000000; stroke-width: 0.8"/>
      </g>
     </g>
     <g id="text_1">
      <!-- 0 -->
      <g transform="translate(45.324432 239.238438)scale(0.1 -0.1)">
       <defs>
        <path id="DejaVuSans-30" d="M 2034 4250 
Q 1547 4250 1301 3770 
Q 1056 3291 1056 2328 
Q 1056 1369 1301 889 
Q 1547 409 2034 409 
Q 2525 409 2770 889 
Q 3016 1369 3016 2328 
Q 3016 3291 2770 3770 
Q 2525 4250 2034 4250 
z
M 2034 4750 
Q 2819 4750 3233 4129 
Q 3647 3509 3647 2328 
Q 3647 1150 3233 529 
Q 2819 -91 2034 -91 
Q 1250 -91 836 529 
Q 422 1150 422 2328 
Q 422 3509 836 4129 
Q 1250 4750 2034 4750 
z
" transform="scale(0.015625)"/>
       </defs>
       <use xlink:href="#DejaVuSans-30"/>
      </g>
     </g>
    </g>
    <g id="xtick_2">
     <g id="line2d_2">
      <g>
       <use xlink:href="#m3b61bfad7c" x="109.378409" y="224.64" style="stroke: #000000; stroke-width: 0.8"/>
      </g>
     </g>
     <g id="text_2">
      <!-- 200 -->
      <g transform="translate(99.834659 239.238438)scale(0.1 -0.1)">
       <defs>
        <path id="DejaVuSans-32" d="M 1228 531 
L 3431 531 
L 3431 0 
L 469 0 
L 469 531 
Q 828 903 1448 1529 
Q 2069 2156 2228 2338 
Q 2531 2678 2651 2914 
Q 2772 3150 2772 3378 
Q 2772 3750 2511 3984 
Q 2250 4219 1831 4219 
Q 1534 4219 1204 4116 
Q 875 4013 500 3803 
L 500 4441 
Q 881 4594 1212 4672 
Q 1544 4750 1819 4750 
Q 2544 4750 2975 4387 
Q 3406 4025 3406 3419 
Q 3406 3131 3298 2873 
Q 3191 2616 2906 2266 
Q 2828 2175 2409 1742 
Q 1991 1309 1228 531 
z
" transform="scale(0.015625)"/>
       </defs>
       <use xlink:href="#DejaVuSans-32"/>
       <use xlink:href="#DejaVuSans-30" x="63.623047"/>
       <use xlink:href="#DejaVuSans-30" x="127.246094"/>
      </g>
     </g>
    </g>
    <g id="xtick_3">
     <g id="line2d_3">
      <g>
       <use xlink:href="#m3b61bfad7c" x="170.251136" y="224.64" style="stroke: #000000; stroke-width: 0.8"/>
      </g>
     </g>
     <g id="text_3">
      <!-- 400 -->
      <g transform="translate(160.707386 239.238438)scale(0.1 -0.1)">
       <defs>
        <path id="DejaVuSans-34" d="M 2419 4116 
L 825 1625 
L 2419 1625 
L 2419 4116 
z
M 2253 4666 
L 3047 4666 
L 3047 1625 
L 3713 1625 
L 3713 1100 
L 3047 1100 
L 3047 0 
L 2419 0 
L 2419 1100 
L 313 1100 
L 313 1709 
L 2253 4666 
z
" transform="scale(0.015625)"/>
       </defs>
       <use xlink:href="#DejaVuSans-34"/>
       <use xlink:href="#DejaVuSans-30" x="63.623047"/>
       <use xlink:href="#DejaVuSans-30" x="127.246094"/>
      </g>
     </g>
    </g>
    <g id="xtick_4">
     <g id="line2d_4">
      <g>
       <use xlink:href="#m3b61bfad7c" x="231.123864" y="224.64" style="stroke: #000000; stroke-width: 0.8"/>
      </g>
     </g>
     <g id="text_4">
      <!-- 600 -->
      <g transform="translate(221.580114 239.238438)scale(0.1 -0.1)">
       <defs>
        <path id="DejaVuSans-36" d="M 2113 2584 
Q 1688 2584 1439 2293 
Q 1191 2003 1191 1497 
Q 1191 994 1439 701 
Q 1688 409 2113 409 
Q 2538 409 2786 701 
Q 3034 994 3034 1497 
Q 3034 2003 2786 2293 
Q 2538 2584 2113 2584 
z
M 3366 4563 
L 3366 3988 
Q 3128 4100 2886 4159 
Q 2644 4219 2406 4219 
Q 1781 4219 1451 3797 
Q 1122 3375 1075 2522 
Q 1259 2794 1537 2939 
Q 1816 3084 2150 3084 
Q 2853 3084 3261 2657 
Q 3669 2231 3669 1497 
Q 3669 778 3244 343 
Q 2819 -91 2113 -91 
Q 1303 -91 875 529 
Q 447 1150 447 2328 
Q 447 3434 972 4092 
Q 1497 4750 2381 4750 
Q 2619 4750 2861 4703 
Q 3103 4656 3366 4563 
z
" transform="scale(0.015625)"/>
       </defs>
       <use xlink:href="#DejaVuSans-36"/>
       <use xlink:href="#DejaVuSans-30" x="63.623047"/>
       <use xlink:href="#DejaVuSans-30" x="127.246094"/>
      </g>
     </g>
    </g>
    <g id="xtick_5">
     <g id="line2d_5">
      <g>
       <use xlink:href="#m3b61bfad7c" x="291.996591" y="224.64" style="stroke: #000000; stroke-width: 0.8"/>
      </g>
     </g>
     <g id="text_5">
      <!-- 800 -->
      <g transform="translate(282.452841 239.238438)scale(0.1 -0.1)">
       <defs>
        <path id="DejaVuSans-38" d="M 2034 2216 
Q 1584 2216 1326 1975 
Q 1069 1734 1069 1313 
Q 1069 891 1326 650 
Q 1584 409 2034 409 
Q 2484 409 2743 651 
Q 3003 894 3003 1313 
Q 3003 1734 2745 1975 
Q 2488 2216 2034 2216 
z
M 1403 2484 
Q 997 2584 770 2862 
Q 544 3141 544 3541 
Q 544 4100 942 4425 
Q 1341 4750 2034 4750 
Q 2731 4750 3128 4425 
Q 3525 4100 3525 3541 
Q 3525 3141 3298 2862 
Q 3072 2584 2669 2484 
Q 3125 2378 3379 2068 
Q 3634 1759 3634 1313 
Q 3634 634 3220 271 
Q 2806 -91 2034 -91 
Q 1263 -91 848 271 
Q 434 634 434 1313 
Q 434 1759 690 2068 
Q 947 2378 1403 2484 
z
M 1172 3481 
Q 1172 3119 1398 2916 
Q 1625 2713 2034 2713 
Q 2441 2713 2670 2916 
Q 2900 3119 2900 3481 
Q 2900 3844 2670 4047 
Q 2441 4250 2034 4250 
Q 1625 4250 1398 4047 
Q 1172 3844 1172 3481 
z
" transform="scale(0.015625)"/>
       </defs>
       <use xlink:href="#DejaVuSans-38"/>
       <use xlink:href="#DejaVuSans-30" x="63.623047"/>
       <use xlink:href="#DejaVuSans-30" x="127.246094"/>
      </g>
     </g>
    </g>
    <g id="xtick_6">
     <g id="line2d_6">
      <g>
       <use xlink:href="#m3b61bfad7c" x="352.869318" y="224.64" style="stroke: #000000; stroke-width: 0.8"/>
      </g>
     </g>
     <g id="text_6">
      <!-- 1000 -->
      <g transform="translate(340.144318 239.238438)scale(0.1 -0.1)">
       <defs>
        <path id="DejaVuSans-31" d="M 794 531 
L 1825 531 
L 1825 4091 
L 703 3866 
L 703 4441 
L 1819 4666 
L 2450 4666 
L 2450 531 
L 3481 531 
L 3481 0 
L 794 0 
L 794 531 
z
" transform="scale(0.015625)"/>
       </defs>
       <use xlink:href="#DejaVuSans-31"/>
       <use xlink:href="#DejaVuSans-30" x="63.623047"/>
       <use xlink:href="#DejaVuSans-30" x="127.246094"/>
       <use xlink:href="#DejaVuSans-30" x="190.869141"/>
      </g>
     </g>
    </g>
   </g>
   <g id="matplotlib.axis_2">
    <g id="ytick_1">
     <g id="line2d_7">
      <defs>
       <path id="m755a4769eb" d="M 0 0 
L -3.5 0 
" style="stroke: #000000; stroke-width: 0.8"/>
      </defs>
      <g>
       <use xlink:href="#m755a4769eb" x="33.2875" y="220.812939" style="stroke: #000000; stroke-width: 0.8"/>
      </g>
     </g>
     <g id="text_7">
      <!-- 340 -->
      <g transform="translate(7.2 224.612158)scale(0.1 -0.1)">
       <defs>
        <path id="DejaVuSans-33" d="M 2597 2516 
Q 3050 2419 3304 2112 
Q 3559 1806 3559 1356 
Q 3559 666 3084 287 
Q 2609 -91 1734 -91 
Q 1441 -91 1130 -33 
Q 819 25 488 141 
L 488 750 
Q 750 597 1062 519 
Q 1375 441 1716 441 
Q 2309 441 2620 675 
Q 2931 909 2931 1356 
Q 2931 1769 2642 2001 
Q 2353 2234 1838 2234 
L 1294 2234 
L 1294 2753 
L 1863 2753 
Q 2328 2753 2575 2939 
Q 2822 3125 2822 3475 
Q 2822 3834 2567 4026 
Q 2313 4219 1838 4219 
Q 1578 4219 1281 4162 
Q 984 4106 628 3988 
L 628 4550 
Q 988 4650 1302 4700 
Q 1616 4750 1894 4750 
Q 2613 4750 3031 4423 
Q 3450 4097 3450 3541 
Q 3450 3153 3228 2886 
Q 3006 2619 2597 2516 
z
" transform="scale(0.015625)"/>
       </defs>
       <use xlink:href="#DejaVuSans-33"/>
       <use xlink:href="#DejaVuSans-34" x="63.623047"/>
       <use xlink:href="#DejaVuSans-30" x="127.246094"/>
      </g>
     </g>
    </g>
    <g id="ytick_2">
     <g id="line2d_8">
      <g>
       <use xlink:href="#m755a4769eb" x="33.2875" y="179.530956" style="stroke: #000000; stroke-width: 0.8"/>
      </g>
     </g>
     <g id="text_8">
      <!-- 360 -->
      <g transform="translate(7.2 183.330175)scale(0.1 -0.1)">
       <use xlink:href="#DejaVuSans-33"/>
       <use xlink:href="#DejaVuSans-36" x="63.623047"/>
       <use xlink:href="#DejaVuSans-30" x="127.246094"/>
      </g>
     </g>
    </g>
    <g id="ytick_3">
     <g id="line2d_9">
      <g>
       <use xlink:href="#m755a4769eb" x="33.2875" y="138.248972" style="stroke: #000000; stroke-width: 0.8"/>
      </g>
     </g>
     <g id="text_9">
      <!-- 380 -->
      <g transform="translate(7.2 142.048191)scale(0.1 -0.1)">
       <use xlink:href="#DejaVuSans-33"/>
       <use xlink:href="#DejaVuSans-38" x="63.623047"/>
       <use xlink:href="#DejaVuSans-30" x="127.246094"/>
      </g>
     </g>
    </g>
    <g id="ytick_4">
     <g id="line2d_10">
      <g>
       <use xlink:href="#m755a4769eb" x="33.2875" y="96.966989" style="stroke: #000000; stroke-width: 0.8"/>
      </g>
     </g>
     <g id="text_10">
      <!-- 400 -->
      <g transform="translate(7.2 100.766208)scale(0.1 -0.1)">
       <use xlink:href="#DejaVuSans-34"/>
       <use xlink:href="#DejaVuSans-30" x="63.623047"/>
       <use xlink:href="#DejaVuSans-30" x="127.246094"/>
      </g>
     </g>
    </g>
    <g id="ytick_5">
     <g id="line2d_11">
      <g>
       <use xlink:href="#m755a4769eb" x="33.2875" y="55.685006" style="stroke: #000000; stroke-width: 0.8"/>
      </g>
     </g>
     <g id="text_11">
      <!-- 420 -->
      <g transform="translate(7.2 59.484225)scale(0.1 -0.1)">
       <use xlink:href="#DejaVuSans-34"/>
       <use xlink:href="#DejaVuSans-32" x="63.623047"/>
       <use xlink:href="#DejaVuSans-30" x="127.246094"/>
      </g>
     </g>
    </g>
    <g id="ytick_6">
     <g id="line2d_12">
      <g>
       <use xlink:href="#m755a4769eb" x="33.2875" y="14.403023" style="stroke: #000000; stroke-width: 0.8"/>
      </g>
     </g>
     <g id="text_12">
      <!-- 440 -->
      <g transform="translate(7.2 18.202241)scale(0.1 -0.1)">
       <use xlink:href="#DejaVuSans-34"/>
       <use xlink:href="#DejaVuSans-34" x="63.623047"/>
       <use xlink:href="#DejaVuSans-30" x="127.246094"/>
      </g>
     </g>
    </g>
   </g>
   <g id="line2d_13">
    <path d="M 48.505682 17.083636 
L 49.114409 17.083636 
L 49.418773 29.927525 
L 49.723136 29.927525 
L 50.0275 35.730122 
L 50.331864 35.730122 
L 50.636227 41.228736 
L 51.244955 41.228736 
L 51.549318 47.059105 
L 51.853682 50.138233 
L 52.158045 50.138233 
L 52.462409 51.818412 
L 52.766773 56.032514 
L 53.071136 56.420768 
L 53.3755 56.420768 
L 53.679864 57.719088 
L 53.984227 58.295344 
L 54.288591 62.422128 
L 54.592955 62.422128 
L 54.897318 67.542426 
L 56.114773 67.542426 
L 56.419136 67.99298 
L 56.7235 76.140557 
L 57.027864 76.140557 
L 57.332227 79.664437 
L 57.940955 79.664437 
L 58.549682 81.205978 
L 58.854045 80.755878 
L 59.158409 82.21751 
L 59.462773 85.179511 
L 59.767136 85.419492 
L 60.0715 89.350452 
L 60.680227 89.350452 
L 60.984591 91.608174 
L 61.288955 91.875717 
L 61.593318 94.777497 
L 61.897682 94.777497 
L 62.202045 96.483743 
L 62.810773 96.483743 
L 63.115136 98.05525 
L 63.4195 97.335645 
L 63.723864 97.335645 
L 64.332591 101.830505 
L 64.941318 101.830505 
L 65.245682 103.914582 
L 65.550045 103.914582 
L 65.854409 105.281952 
L 66.158773 105.806506 
L 66.463136 110.921754 
L 66.7675 105.994577 
L 67.071864 105.994577 
L 67.376227 109.999264 
L 67.680591 109.999264 
L 67.984955 112.068253 
L 68.289318 115.65167 
L 68.593682 115.65167 
L 68.898045 115.838629 
L 69.202409 117.765643 
L 69.811136 117.765643 
L 70.1155 120.116463 
L 70.419864 123.5298 
L 71.028591 123.5298 
L 71.332955 126.975029 
L 71.637318 126.104467 
L 71.941682 128.455287 
L 72.246045 128.455287 
L 72.550409 130.686095 
L 72.854773 130.686095 
L 73.159136 131.911847 
L 73.4635 132.306215 
L 73.767864 132.306215 
L 74.072227 132.509067 
L 74.376591 132.929178 
L 74.680955 134.379925 
L 74.985318 134.379925 
L 75.289682 135.182385 
L 75.594045 136.358369 
L 75.898409 136.358369 
L 76.202773 136.967593 
L 76.507136 136.358369 
L 76.8115 137.1604 
L 77.420227 137.1604 
L 77.724591 138.257796 
L 78.028955 140.962252 
L 78.637682 140.962252 
L 78.942045 141.328881 
L 79.550773 144.726677 
L 79.855136 144.898295 
L 80.1595 144.898295 
L 80.463864 146.650961 
L 81.376955 146.650961 
L 81.681318 147.162077 
L 81.985682 150.171348 
L 82.290045 147.390736 
L 82.594409 148.556267 
L 82.898773 148.556267 
L 83.203136 149.560504 
L 83.811864 149.612331 
L 84.116227 150.397673 
L 84.420591 150.815003 
L 85.029318 150.815003 
L 85.333682 151.417604 
L 85.638045 151.668645 
L 85.942409 150.082961 
L 86.246773 152.281934 
L 86.8555 152.18541 
L 87.159864 152.782191 
L 87.464227 152.782191 
L 87.768591 154.659304 
L 88.072955 154.659304 
L 88.377318 152.827395 
L 88.986045 154.650975 
L 89.594773 154.720308 
L 90.812227 154.720308 
L 91.116591 156.645783 
L 93.247136 156.645783 
L 93.5515 157.788994 
L 94.464591 157.788994 
L 94.768955 157.935485 
L 96.290773 157.988768 
L 96.595136 158.145176 
L 96.8995 158.145176 
L 97.203864 159.078695 
L 98.421318 159.078695 
L 98.725682 157.935485 
L 99.030045 158.22439 
L 100.551864 158.22439 
L 100.856227 158.512056 
L 101.464955 158.517712 
L 102.073682 158.083326 
L 102.378045 158.083326 
L 102.682409 158.22439 
L 102.986773 158.083326 
L 103.291136 158.22439 
L 106.639136 158.22439 
L 106.9435 158.372231 
L 107.247864 158.372231 
L 107.552227 158.22439 
L 110.2915 158.22439 
L 110.595864 159.945201 
L 111.508955 159.945201 
L 111.813318 160.207478 
L 112.726409 160.207478 
L 113.030773 161.924693 
L 114.856955 161.889661 
L 115.161318 163.772299 
L 115.770045 163.772299 
L 116.074409 163.279155 
L 116.378773 164.057341 
L 116.683136 163.279155 
L 116.9875 163.279155 
L 117.291864 163.772299 
L 117.596227 163.935957 
L 117.900591 164.792564 
L 118.204955 164.223644 
L 118.509318 165.555386 
L 118.813682 168.481139 
L 119.118045 168.481139 
L 119.422409 168.617239 
L 120.3355 168.617239 
L 120.639864 169.866472 
L 120.944227 169.866472 
L 121.248591 170.743278 
L 121.552955 173.581577 
L 128.857682 173.581577 
L 129.162045 173.972136 
L 129.770773 173.972136 
L 130.075136 173.581577 
L 130.3795 174.540246 
L 130.683864 174.540246 
L 130.988227 173.581577 
L 131.292591 173.581577 
L 131.596955 173.80619 
L 131.901318 173.581577 
L 135.249318 173.581577 
L 135.553682 173.799572 
L 135.858045 173.581577 
L 136.162409 175.346483 
L 140.727864 175.438443 
L 141.032227 175.708521 
L 142.554045 175.708521 
L 142.858409 176.023754 
L 143.162773 175.708521 
L 143.467136 175.800481 
L 144.075864 175.708521 
L 144.380227 175.8741 
L 145.293318 175.78977 
L 145.902045 175.708521 
L 146.206409 175.708521 
L 146.510773 179.572116 
L 148.945682 179.572116 
L 149.250045 182.064605 
L 149.554409 180.916705 
L 149.858773 183.129339 
L 153.511136 183.129339 
L 153.8155 183.346512 
L 154.119864 183.129339 
L 158.685318 183.129339 
L 158.989682 183.460953 
L 160.207136 183.460953 
L 160.5115 184.428633 
L 161.424591 184.428633 
L 161.728955 183.460953 
L 164.468227 183.460953 
L 164.772591 184.801565 
L 165.076955 184.801565 
L 165.381318 183.460953 
L 169.033682 183.543027 
L 169.338045 183.79294 
L 170.251136 183.711711 
L 170.5555 183.543027 
L 171.772955 183.543027 
L 172.077318 183.852006 
L 174.207864 183.77676 
L 174.512227 183.543027 
L 176.338409 183.543027 
L 177.2515 186.716805 
L 179.990773 186.627193 
L 180.295136 188.504287 
L 181.208227 188.504287 
L 181.512591 189.064449 
L 183.643136 189.064449 
L 183.9475 188.504287 
L 184.251864 188.853832 
L 186.382409 188.853832 
L 186.686773 189.041071 
L 186.991136 189.041071 
L 187.2955 189.939687 
L 190.034773 190.069774 
L 190.339136 191.671519 
L 190.947864 191.671519 
L 191.252227 190.669467 
L 193.078409 190.586142 
L 193.382773 191.154671 
L 196.730773 191.225802 
L 197.035136 191.889018 
L 201.904955 191.889018 
L 202.209318 194.006658 
L 206.774773 193.921453 
L 207.079136 193.502129 
L 209.209682 193.502129 
L 209.514045 194.006658 
L 210.7315 194.006658 
L 211.035864 194.746676 
L 211.340227 194.746676 
L 211.644591 195.165725 
L 211.948955 196.671042 
L 212.862045 196.697629 
L 213.166409 196.944654 
L 214.688227 196.858227 
L 214.992591 197.116679 
L 216.514409 197.116679 
L 216.818773 200.204814 
L 223.210409 200.204814 
L 223.514773 200.643976 
L 223.819136 200.204814 
L 225.036591 200.204814 
L 225.340955 200.471032 
L 232.950045 200.539482 
L 233.254409 201.285379 
L 233.558773 200.539482 
L 233.863136 200.950376 
L 235.080591 201.015152 
L 235.689318 201.109511 
L 238.732955 201.109511 
L 239.341682 201.222682 
L 248.776955 201.222682 
L 249.081318 201.404694 
L 255.472955 201.404694 
L 255.777318 201.892433 
L 256.081682 201.404694 
L 259.429682 201.424974 
L 259.734045 201.660488 
L 260.038409 201.424974 
L 261.864591 201.404694 
L 266.734409 201.404694 
L 267.038773 201.71893 
L 267.343136 201.404694 
L 270.691136 201.404694 
L 270.9955 201.855144 
L 271.299864 201.855144 
L 271.604227 201.404694 
L 272.212955 201.404694 
L 272.517318 201.71893 
L 273.430409 201.71893 
L 273.734773 201.98372 
L 274.647864 201.98372 
L 275.256591 201.404694 
L 275.560955 201.697155 
L 275.865318 201.404694 
L 276.169682 201.404694 
L 276.474045 201.804075 
L 277.082773 201.71893 
L 278.604591 201.71893 
L 278.908955 201.912492 
L 279.213318 201.71893 
L 280.430773 201.71893 
L 280.735136 201.375099 
L 281.343864 201.375099 
L 281.648227 201.682873 
L 284.3875 201.682873 
L 284.691864 201.892294 
L 286.213682 201.892294 
L 286.518045 202.91314 
L 291.0835 203.01321 
L 291.387864 203.599275 
L 291.692227 203.01321 
L 291.996591 203.087693 
L 292.300955 203.01321 
L 292.605318 206.709747 
L 295.040227 206.78423 
L 295.344591 206.931236 
L 295.648955 206.931236 
L 295.953318 206.78423 
L 296.257682 208.10586 
L 306.301682 208.10586 
L 306.606045 209.666443 
L 306.910409 208.10586 
L 307.8235 208.10586 
L 308.432227 208.218858 
L 309.040955 208.10586 
L 309.954045 208.10586 
L 310.258409 208.338058 
L 310.562773 208.338058 
L 310.867136 208.10586 
L 314.823864 208.10586 
L 315.128227 208.828697 
L 318.780591 208.828697 
L 319.084955 210.386061 
L 319.389318 210.386061 
L 319.693682 208.828697 
L 319.998045 210.542946 
L 321.2155 210.542946 
L 321.519864 210.936955 
L 321.824227 210.542946 
L 324.867864 210.542946 
L 325.172227 211.119831 
L 326.389682 211.119831 
L 326.694045 213.315388 
L 341.3035 213.356611 
L 341.607864 213.557966 
L 342.216591 213.557966 
L 342.520955 214.041197 
L 344.955864 214.041197 
L 345.260227 214.49072 
L 345.564591 214.041197 
L 348.303864 214.041197 
L 348.608227 214.543327 
L 351.3475 214.543327 
L 351.651864 214.756364 
L 352.260591 214.756364 
L 352.564955 214.543327 
L 352.869318 214.543327 
L 352.869318 214.543327 
" clip-path="url(#pce52f00441)" style="fill: none; stroke: #1f77b4; stroke-width: 1.5; stroke-linecap: square"/>
   </g>
   <g id="patch_3">
    <path d="M 33.2875 224.64 
L 33.2875 7.2 
" style="fill: none; stroke: #000000; stroke-width: 0.8; stroke-linejoin: miter; stroke-linecap: square"/>
   </g>
   <g id="patch_4">
    <path d="M 368.0875 224.64 
L 368.0875 7.2 
" style="fill: none; stroke: #000000; stroke-width: 0.8; stroke-linejoin: miter; stroke-linecap: square"/>
   </g>
   <g id="patch_5">
    <path d="M 33.2875 224.64 
L 368.0875 224.64 
" style="fill: none; stroke: #000000; stroke-width: 0.8; stroke-linejoin: miter; stroke-linecap: square"/>
   </g>
   <g id="patch_6">
    <path d="M 33.2875 7.2 
L 368.0875 7.2 
" style="fill: none; stroke: #000000; stroke-width: 0.8; stroke-linejoin: miter; stroke-linecap: square"/>
   </g>
  </g>
 </g>
 <defs>
  <clipPath id="pce52f00441">
   <rect x="33.2875" y="7.2" width="334.8" height="217.44"/>
  </clipPath>
 </defs>
</svg>
