<?xml version="1.0" encoding="utf-8" standalone="no"?>
<!DOCTYPE svg PUBLIC "-//W3C//DTD SVG 1.1//EN"
  "http://www.w3.org/Graphics/SVG/1.1/DTD/svg11.dtd">
<svg xmlns:xlink="http://www.w3.org/1999/xlink" width="378.465625pt" height="252.838125pt" viewBox="0 0 378.465625 252.838125" xmlns="http://www.w3.org/2000/svg" version="1.1">
 <metadata>
  <rdf:RDF xmlns:dc="http://purl.org/dc/elements/1.1/" xmlns:cc="http://creativecommons.org/ns#" xmlns:rdf="http://www.w3.org/1999/02/22-rdf-syntax-ns#">
   <cc:Work>
    <dc:type rdf:resource="http://purl.org/dc/dcmitype/StillImage"/>
    <dc:date>2023-04-19T16:55:16.996683</dc:date>
    <dc:format>image/svg+xml</dc:format>
    <dc:creator>
     <cc:Agent>
      <dc:title>Matplotlib v3.6.2, https://matplotlib.org/</dc:title>
     </cc:Agent>
    </dc:creator>
   </cc:Work>
  </rdf:RDF>
 </metadata>
 <defs>
  <style type="text/css">*{stroke-linejoin: round; stroke-linecap: butt}</style>
 </defs>
 <g id="figure_1">
  <g id="patch_1">
   <path d="M 0 252.838125 
L 378.465625 252.838125 
L 378.465625 0 
L 0 0 
z
" style="fill: #ffffff"/>
  </g>
  <g id="axes_1">
   <g id="patch_2">
    <path d="M 36.465625 228.96 
L 371.265625 228.96 
L 371.265625 7.2 
L 36.465625 7.2 
z
" style="fill: #ffffff"/>
   </g>
   <g id="matplotlib.axis_1">
    <g id="xtick_1">
     <g id="line2d_1">
      <defs>
       <path id="mfb9c859ebb" d="M 0 0 
L 0 3.5 
" style="stroke: #000000; stroke-width: 0.8"/>
      </defs>
      <g>
       <use xlink:href="#mfb9c859ebb" x="46.814904" y="228.96" style="stroke: #000000; stroke-width: 0.8"/>
      </g>
     </g>
     <g id="text_1">
      <!-- 0 -->
      <g transform="translate(43.633654 243.558437) scale(0.1 -0.1)">
       <defs>
        <path id="DejaVuSans-30" d="M 2034 4250 
Q 1547 4250 1301 3770 
Q 1056 3291 1056 2328 
Q 1056 1369 1301 889 
Q 1547 409 2034 409 
Q 2525 409 2770 889 
Q 3016 1369 3016 2328 
Q 3016 3291 2770 3770 
Q 2525 4250 2034 4250 
z
M 2034 4750 
Q 2819 4750 3233 4129 
Q 3647 3509 3647 2328 
Q 3647 1150 3233 529 
Q 2819 -91 2034 -91 
Q 1250 -91 836 529 
Q 422 1150 422 2328 
Q 422 3509 836 4129 
Q 1250 4750 2034 4750 
z
" transform="scale(0.015625)"/>
       </defs>
       <use xlink:href="#DejaVuSans-30"/>
      </g>
     </g>
    </g>
    <g id="xtick_2">
     <g id="line2d_2">
      <g>
       <use xlink:href="#mfb9c859ebb" x="85.476012" y="228.96" style="stroke: #000000; stroke-width: 0.8"/>
      </g>
     </g>
     <g id="text_2">
      <!-- 10 -->
      <g transform="translate(79.113512 243.558437) scale(0.1 -0.1)">
       <defs>
        <path id="DejaVuSans-31" d="M 794 531 
L 1825 531 
L 1825 4091 
L 703 3866 
L 703 4441 
L 1819 4666 
L 2450 4666 
L 2450 531 
L 3481 531 
L 3481 0 
L 794 0 
L 794 531 
z
" transform="scale(0.015625)"/>
       </defs>
       <use xlink:href="#DejaVuSans-31"/>
       <use xlink:href="#DejaVuSans-30" x="63.623047"/>
      </g>
     </g>
    </g>
    <g id="xtick_3">
     <g id="line2d_3">
      <g>
       <use xlink:href="#mfb9c859ebb" x="124.13712" y="228.96" style="stroke: #000000; stroke-width: 0.8"/>
      </g>
     </g>
     <g id="text_3">
      <!-- 20 -->
      <g transform="translate(117.77462 243.558437) scale(0.1 -0.1)">
       <defs>
        <path id="DejaVuSans-32" d="M 1228 531 
L 3431 531 
L 3431 0 
L 469 0 
L 469 531 
Q 828 903 1448 1529 
Q 2069 2156 2228 2338 
Q 2531 2678 2651 2914 
Q 2772 3150 2772 3378 
Q 2772 3750 2511 3984 
Q 2250 4219 1831 4219 
Q 1534 4219 1204 4116 
Q 875 4013 500 3803 
L 500 4441 
Q 881 4594 1212 4672 
Q 1544 4750 1819 4750 
Q 2544 4750 2975 4387 
Q 3406 4025 3406 3419 
Q 3406 3131 3298 2873 
Q 3191 2616 2906 2266 
Q 2828 2175 2409 1742 
Q 1991 1309 1228 531 
z
" transform="scale(0.015625)"/>
       </defs>
       <use xlink:href="#DejaVuSans-32"/>
       <use xlink:href="#DejaVuSans-30" x="63.623047"/>
      </g>
     </g>
    </g>
    <g id="xtick_4">
     <g id="line2d_4">
      <g>
       <use xlink:href="#mfb9c859ebb" x="162.798228" y="228.96" style="stroke: #000000; stroke-width: 0.8"/>
      </g>
     </g>
     <g id="text_4">
      <!-- 30 -->
      <g transform="translate(156.435728 243.558437) scale(0.1 -0.1)">
       <defs>
        <path id="DejaVuSans-33" d="M 2597 2516 
Q 3050 2419 3304 2112 
Q 3559 1806 3559 1356 
Q 3559 666 3084 287 
Q 2609 -91 1734 -91 
Q 1441 -91 1130 -33 
Q 819 25 488 141 
L 488 750 
Q 750 597 1062 519 
Q 1375 441 1716 441 
Q 2309 441 2620 675 
Q 2931 909 2931 1356 
Q 2931 1769 2642 2001 
Q 2353 2234 1838 2234 
L 1294 2234 
L 1294 2753 
L 1863 2753 
Q 2328 2753 2575 2939 
Q 2822 3125 2822 3475 
Q 2822 3834 2567 4026 
Q 2313 4219 1838 4219 
Q 1578 4219 1281 4162 
Q 984 4106 628 3988 
L 628 4550 
Q 988 4650 1302 4700 
Q 1616 4750 1894 4750 
Q 2613 4750 3031 4423 
Q 3450 4097 3450 3541 
Q 3450 3153 3228 2886 
Q 3006 2619 2597 2516 
z
" transform="scale(0.015625)"/>
       </defs>
       <use xlink:href="#DejaVuSans-33"/>
       <use xlink:href="#DejaVuSans-30" x="63.623047"/>
      </g>
     </g>
    </g>
    <g id="xtick_5">
     <g id="line2d_5">
      <g>
       <use xlink:href="#mfb9c859ebb" x="201.459336" y="228.96" style="stroke: #000000; stroke-width: 0.8"/>
      </g>
     </g>
     <g id="text_5">
      <!-- 40 -->
      <g transform="translate(195.096836 243.558437) scale(0.1 -0.1)">
       <defs>
        <path id="DejaVuSans-34" d="M 2419 4116 
L 825 1625 
L 2419 1625 
L 2419 4116 
z
M 2253 4666 
L 3047 4666 
L 3047 1625 
L 3713 1625 
L 3713 1100 
L 3047 1100 
L 3047 0 
L 2419 0 
L 2419 1100 
L 313 1100 
L 313 1709 
L 2253 4666 
z
" transform="scale(0.015625)"/>
       </defs>
       <use xlink:href="#DejaVuSans-34"/>
       <use xlink:href="#DejaVuSans-30" x="63.623047"/>
      </g>
     </g>
    </g>
    <g id="xtick_6">
     <g id="line2d_6">
      <g>
       <use xlink:href="#mfb9c859ebb" x="240.120444" y="228.96" style="stroke: #000000; stroke-width: 0.8"/>
      </g>
     </g>
     <g id="text_6">
      <!-- 50 -->
      <g transform="translate(233.757944 243.558437) scale(0.1 -0.1)">
       <defs>
        <path id="DejaVuSans-35" d="M 691 4666 
L 3169 4666 
L 3169 4134 
L 1269 4134 
L 1269 2991 
Q 1406 3038 1543 3061 
Q 1681 3084 1819 3084 
Q 2600 3084 3056 2656 
Q 3513 2228 3513 1497 
Q 3513 744 3044 326 
Q 2575 -91 1722 -91 
Q 1428 -91 1123 -41 
Q 819 9 494 109 
L 494 744 
Q 775 591 1075 516 
Q 1375 441 1709 441 
Q 2250 441 2565 725 
Q 2881 1009 2881 1497 
Q 2881 1984 2565 2268 
Q 2250 2553 1709 2553 
Q 1456 2553 1204 2497 
Q 953 2441 691 2322 
L 691 4666 
z
" transform="scale(0.015625)"/>
       </defs>
       <use xlink:href="#DejaVuSans-35"/>
       <use xlink:href="#DejaVuSans-30" x="63.623047"/>
      </g>
     </g>
    </g>
    <g id="xtick_7">
     <g id="line2d_7">
      <g>
       <use xlink:href="#mfb9c859ebb" x="278.781552" y="228.96" style="stroke: #000000; stroke-width: 0.8"/>
      </g>
     </g>
     <g id="text_7">
      <!-- 60 -->
      <g transform="translate(272.419052 243.558437) scale(0.1 -0.1)">
       <defs>
        <path id="DejaVuSans-36" d="M 2113 2584 
Q 1688 2584 1439 2293 
Q 1191 2003 1191 1497 
Q 1191 994 1439 701 
Q 1688 409 2113 409 
Q 2538 409 2786 701 
Q 3034 994 3034 1497 
Q 3034 2003 2786 2293 
Q 2538 2584 2113 2584 
z
M 3366 4563 
L 3366 3988 
Q 3128 4100 2886 4159 
Q 2644 4219 2406 4219 
Q 1781 4219 1451 3797 
Q 1122 3375 1075 2522 
Q 1259 2794 1537 2939 
Q 1816 3084 2150 3084 
Q 2853 3084 3261 2657 
Q 3669 2231 3669 1497 
Q 3669 778 3244 343 
Q 2819 -91 2113 -91 
Q 1303 -91 875 529 
Q 447 1150 447 2328 
Q 447 3434 972 4092 
Q 1497 4750 2381 4750 
Q 2619 4750 2861 4703 
Q 3103 4656 3366 4563 
z
" transform="scale(0.015625)"/>
       </defs>
       <use xlink:href="#DejaVuSans-36"/>
       <use xlink:href="#DejaVuSans-30" x="63.623047"/>
      </g>
     </g>
    </g>
    <g id="xtick_8">
     <g id="line2d_8">
      <g>
       <use xlink:href="#mfb9c859ebb" x="317.44266" y="228.96" style="stroke: #000000; stroke-width: 0.8"/>
      </g>
     </g>
     <g id="text_8">
      <!-- 70 -->
      <g transform="translate(311.08016 243.558437) scale(0.1 -0.1)">
       <defs>
        <path id="DejaVuSans-37" d="M 525 4666 
L 3525 4666 
L 3525 4397 
L 1831 0 
L 1172 0 
L 2766 4134 
L 525 4134 
L 525 4666 
z
" transform="scale(0.015625)"/>
       </defs>
       <use xlink:href="#DejaVuSans-37"/>
       <use xlink:href="#DejaVuSans-30" x="63.623047"/>
      </g>
     </g>
    </g>
    <g id="xtick_9">
     <g id="line2d_9">
      <g>
       <use xlink:href="#mfb9c859ebb" x="356.103768" y="228.96" style="stroke: #000000; stroke-width: 0.8"/>
      </g>
     </g>
     <g id="text_9">
      <!-- 80 -->
      <g transform="translate(349.741268 243.558437) scale(0.1 -0.1)">
       <defs>
        <path id="DejaVuSans-38" d="M 2034 2216 
Q 1584 2216 1326 1975 
Q 1069 1734 1069 1313 
Q 1069 891 1326 650 
Q 1584 409 2034 409 
Q 2484 409 2743 651 
Q 3003 894 3003 1313 
Q 3003 1734 2745 1975 
Q 2488 2216 2034 2216 
z
M 1403 2484 
Q 997 2584 770 2862 
Q 544 3141 544 3541 
Q 544 4100 942 4425 
Q 1341 4750 2034 4750 
Q 2731 4750 3128 4425 
Q 3525 4100 3525 3541 
Q 3525 3141 3298 2862 
Q 3072 2584 2669 2484 
Q 3125 2378 3379 2068 
Q 3634 1759 3634 1313 
Q 3634 634 3220 271 
Q 2806 -91 2034 -91 
Q 1263 -91 848 271 
Q 434 634 434 1313 
Q 434 1759 690 2068 
Q 947 2378 1403 2484 
z
M 1172 3481 
Q 1172 3119 1398 2916 
Q 1625 2713 2034 2713 
Q 2441 2713 2670 2916 
Q 2900 3119 2900 3481 
Q 2900 3844 2670 4047 
Q 2441 4250 2034 4250 
Q 1625 4250 1398 4047 
Q 1172 3844 1172 3481 
z
" transform="scale(0.015625)"/>
       </defs>
       <use xlink:href="#DejaVuSans-38"/>
       <use xlink:href="#DejaVuSans-30" x="63.623047"/>
      </g>
     </g>
    </g>
   </g>
   <g id="matplotlib.axis_2">
    <g id="ytick_1">
     <g id="line2d_10">
      <defs>
       <path id="m004e1bebd7" d="M 0 0 
L -3.5 0 
" style="stroke: #000000; stroke-width: 0.8"/>
      </defs>
      <g>
       <use xlink:href="#m004e1bebd7" x="36.465625" y="210.63335" style="stroke: #000000; stroke-width: 0.8"/>
      </g>
     </g>
     <g id="text_10">
      <!-- 70.0 -->
      <g transform="translate(7.2 214.432569) scale(0.1 -0.1)">
       <defs>
        <path id="DejaVuSans-2e" d="M 684 794 
L 1344 794 
L 1344 0 
L 684 0 
L 684 794 
z
" transform="scale(0.015625)"/>
       </defs>
       <use xlink:href="#DejaVuSans-37"/>
       <use xlink:href="#DejaVuSans-30" x="63.623047"/>
       <use xlink:href="#DejaVuSans-2e" x="127.246094"/>
       <use xlink:href="#DejaVuSans-30" x="159.033203"/>
      </g>
     </g>
    </g>
    <g id="ytick_2">
     <g id="line2d_11">
      <g>
       <use xlink:href="#m004e1bebd7" x="36.465625" y="184.461874" style="stroke: #000000; stroke-width: 0.8"/>
      </g>
     </g>
     <g id="text_11">
      <!-- 72.5 -->
      <g transform="translate(7.2 188.261093) scale(0.1 -0.1)">
       <use xlink:href="#DejaVuSans-37"/>
       <use xlink:href="#DejaVuSans-32" x="63.623047"/>
       <use xlink:href="#DejaVuSans-2e" x="127.246094"/>
       <use xlink:href="#DejaVuSans-35" x="159.033203"/>
      </g>
     </g>
    </g>
    <g id="ytick_3">
     <g id="line2d_12">
      <g>
       <use xlink:href="#m004e1bebd7" x="36.465625" y="158.290398" style="stroke: #000000; stroke-width: 0.8"/>
      </g>
     </g>
     <g id="text_12">
      <!-- 75.0 -->
      <g transform="translate(7.2 162.089616) scale(0.1 -0.1)">
       <use xlink:href="#DejaVuSans-37"/>
       <use xlink:href="#DejaVuSans-35" x="63.623047"/>
       <use xlink:href="#DejaVuSans-2e" x="127.246094"/>
       <use xlink:href="#DejaVuSans-30" x="159.033203"/>
      </g>
     </g>
    </g>
    <g id="ytick_4">
     <g id="line2d_13">
      <g>
       <use xlink:href="#m004e1bebd7" x="36.465625" y="132.118921" style="stroke: #000000; stroke-width: 0.8"/>
      </g>
     </g>
     <g id="text_13">
      <!-- 77.5 -->
      <g transform="translate(7.2 135.91814) scale(0.1 -0.1)">
       <use xlink:href="#DejaVuSans-37"/>
       <use xlink:href="#DejaVuSans-37" x="63.623047"/>
       <use xlink:href="#DejaVuSans-2e" x="127.246094"/>
       <use xlink:href="#DejaVuSans-35" x="159.033203"/>
      </g>
     </g>
    </g>
    <g id="ytick_5">
     <g id="line2d_14">
      <g>
       <use xlink:href="#m004e1bebd7" x="36.465625" y="105.947445" style="stroke: #000000; stroke-width: 0.8"/>
      </g>
     </g>
     <g id="text_14">
      <!-- 80.0 -->
      <g transform="translate(7.2 109.746664) scale(0.1 -0.1)">
       <use xlink:href="#DejaVuSans-38"/>
       <use xlink:href="#DejaVuSans-30" x="63.623047"/>
       <use xlink:href="#DejaVuSans-2e" x="127.246094"/>
       <use xlink:href="#DejaVuSans-30" x="159.033203"/>
      </g>
     </g>
    </g>
    <g id="ytick_6">
     <g id="line2d_15">
      <g>
       <use xlink:href="#m004e1bebd7" x="36.465625" y="79.775969" style="stroke: #000000; stroke-width: 0.8"/>
      </g>
     </g>
     <g id="text_15">
      <!-- 82.5 -->
      <g transform="translate(7.2 83.575187) scale(0.1 -0.1)">
       <use xlink:href="#DejaVuSans-38"/>
       <use xlink:href="#DejaVuSans-32" x="63.623047"/>
       <use xlink:href="#DejaVuSans-2e" x="127.246094"/>
       <use xlink:href="#DejaVuSans-35" x="159.033203"/>
      </g>
     </g>
    </g>
    <g id="ytick_7">
     <g id="line2d_16">
      <g>
       <use xlink:href="#m004e1bebd7" x="36.465625" y="53.604492" style="stroke: #000000; stroke-width: 0.8"/>
      </g>
     </g>
     <g id="text_16">
      <!-- 85.0 -->
      <g transform="translate(7.2 57.403711) scale(0.1 -0.1)">
       <use xlink:href="#DejaVuSans-38"/>
       <use xlink:href="#DejaVuSans-35" x="63.623047"/>
       <use xlink:href="#DejaVuSans-2e" x="127.246094"/>
       <use xlink:href="#DejaVuSans-30" x="159.033203"/>
      </g>
     </g>
    </g>
    <g id="ytick_8">
     <g id="line2d_17">
      <g>
       <use xlink:href="#m004e1bebd7" x="36.465625" y="27.433016" style="stroke: #000000; stroke-width: 0.8"/>
      </g>
     </g>
     <g id="text_17">
      <!-- 87.5 -->
      <g transform="translate(7.2 31.232235) scale(0.1 -0.1)">
       <use xlink:href="#DejaVuSans-38"/>
       <use xlink:href="#DejaVuSans-37" x="63.623047"/>
       <use xlink:href="#DejaVuSans-2e" x="127.246094"/>
       <use xlink:href="#DejaVuSans-35" x="159.033203"/>
      </g>
     </g>
    </g>
   </g>
   <g id="line2d_18">
    <path d="M 51.683807 22.92937 
L 52.29981 22.92937 
L 52.866152 17.28 
L 53.092483 17.28 
L 53.629469 33.014556 
L 54.15847 35.818049 
L 54.726201 36.223298 
L 55.372799 39.872423 
L 57.191437 39.872423 
L 57.748061 41.049478 
L 58.409923 43.000114 
L 58.959049 42.610889 
L 59.303595 48.692832 
L 59.630667 48.692832 
L 59.922967 51.445839 
L 60.235346 48.924331 
L 60.542527 49.417854 
L 60.843083 50.94076 
L 61.114628 50.94076 
L 61.407917 51.55401 
L 61.716256 51.583173 
L 62.630004 53.380633 
L 62.941538 55.050855 
L 63.60973 55.050855 
L 63.921319 55.779404 
L 64.220602 55.050855 
L 64.486463 55.166154 
L 65.102273 56.717324 
L 65.436355 58.234733 
L 65.75804 58.234733 
L 66.048814 58.757642 
L 66.340456 58.350033 
L 66.678386 58.963282 
L 67.639455 58.963282 
L 68.255005 59.593633 
L 68.558004 60.377087 
L 69.158163 60.377087 
L 69.452362 61.744495 
L 69.75116 60.961014 
L 70.045239 62.374819 
L 70.921837 62.374819 
L 71.50913 64.523867 
L 71.7976 63.591405 
L 72.06295 63.591405 
L 72.341994 64.239645 
L 72.632661 63.591405 
L 73.186934 63.591405 
L 73.485297 64.663259 
L 73.761241 63.591405 
L 74.072799 64.700748 
L 74.358187 64.239645 
L 74.633728 65.182764 
L 75.474666 65.182764 
L 75.764369 65.344176 
L 76.070863 66.303554 
L 76.360345 66.632451 
L 76.657379 67.591829 
L 76.943868 66.632451 
L 77.266484 66.861215 
L 77.680444 68.513541 
L 78.051409 67.591829 
L 78.91199 67.591829 
L 79.271263 68.272746 
L 79.631411 68.272746 
L 79.947848 69.413758 
L 80.28379 68.718247 
L 80.616256 68.718247 
L 81.207114 70.374786 
L 81.489252 70.374786 
L 81.778011 71.055703 
L 82.090432 71.055703 
L 82.706558 72.377642 
L 82.997398 72.377642 
L 83.332443 73.141499 
L 83.677165 73.141499 
L 83.99192 74.282511 
L 84.284183 74.282511 
L 84.625665 74.963428 
L 85.579783 74.963428 
L 85.925111 78.178788 
L 86.304466 78.531231 
L 86.616078 78.178788 
L 86.918233 75.571194 
L 87.217946 75.996787 
L 87.570125 78.178788 
L 87.867008 79.212148 
L 88.128323 78.531231 
L 88.419351 78.531231 
L 88.789216 79.000505 
L 89.135127 78.779313 
L 89.430733 79.212148 
L 89.739471 78.779313 
L 90.081064 78.779313 
L 90.385931 80.905271 
L 90.72084 79.600629 
L 91.026127 80.304747 
L 91.336379 81.356202 
L 91.630412 81.80698 
L 91.930891 81.956726 
L 92.529282 81.981911 
L 92.857009 84.207061 
L 93.259587 82.637643 
L 93.61622 82.011455 
L 93.958854 82.720603 
L 94.302849 82.32792 
L 94.967179 82.461653 
L 95.287691 82.461653 
L 95.648916 82.774752 
L 95.969735 82.65692 
L 96.271991 84.104216 
L 97.242798 84.104216 
L 97.55811 85.155671 
L 97.915161 85.155671 
L 98.278374 84.52016 
L 98.893137 85.428477 
L 99.550024 85.468771 
L 100.003151 85.888194 
L 100.60202 85.173154 
L 100.889345 85.904817 
L 101.22637 85.597707 
L 102.130208 85.597707 
L 102.51395 86.649162 
L 102.845922 86.72354 
L 103.148739 86.649162 
L 103.932605 86.962262 
L 104.232615 87.226458 
L 104.574332 88.068279 
L 104.865266 87.818372 
L 105.222119 88.131472 
L 105.526424 87.298487 
L 105.812856 87.226458 
L 106.087447 89.188586 
L 106.781716 89.262964 
L 107.117947 89.443909 
L 107.437075 89.443909 
L 107.762726 89.60805 
L 108.029294 89.60805 
L 108.307511 89.463186 
L 108.633088 89.747619 
L 109.204105 89.616928 
L 109.526592 89.617758 
L 109.87496 89.828013 
L 110.765719 89.863374 
L 111.056122 92.473249 
L 111.593643 92.473249 
L 111.902584 92.921478 
L 112.466541 92.921478 
L 112.745694 92.547627 
L 113.322394 92.940041 
L 113.64153 92.547627 
L 113.988737 92.678741 
L 114.307812 92.473249 
L 115.610748 93.379593 
L 116.583799 93.379593 
L 116.888318 93.068842 
L 117.264335 93.068842 
L 117.635671 95.494011 
L 118.221662 96.157958 
L 118.791515 96.157958 
L 119.085721 96.511243 
L 119.365365 96.136865 
L 119.943492 96.168708 
L 120.240544 96.366652 
L 120.544942 96.168708 
L 120.837483 96.605699 
L 121.119141 96.605699 
L 121.402225 96.260204 
L 121.678428 96.168708 
L 121.945035 96.605699 
L 122.510458 96.9355 
L 122.777792 96.543086 
L 123.074698 96.675371 
L 123.63734 96.752154 
L 124.499205 96.954041 
L 124.778021 98.111342 
L 125.080435 98.111342 
L 125.366566 97.591284 
L 125.657929 97.407938 
L 125.940463 97.621011 
L 126.249567 98.142886 
L 127.107987 98.213383 
L 127.693958 98.426456 
L 128.000683 98.370344 
L 128.651779 98.985796 
L 128.955809 98.718428 
L 129.263857 98.718428 
L 130.559561 100.316428 
L 130.85862 100.017445 
L 131.162988 100.784237 
L 131.43532 102.343757 
L 131.738118 102.343757 
L 132.040955 103.041359 
L 132.30327 103.315118 
L 132.588563 103.315118 
L 132.873293 104.113753 
L 133.940784 104.113753 
L 134.240593 104.337493 
L 134.527185 104.113753 
L 134.793919 103.662173 
L 135.102675 104.043705 
L 135.386157 104.113753 
L 135.679468 104.311697 
L 135.976624 104.124822 
L 136.246463 104.510082 
L 136.847048 104.428965 
L 137.154203 104.311697 
L 137.437658 104.631094 
L 137.714348 104.423829 
L 138.929641 104.41286 
L 139.228484 104.803886 
L 139.51214 105.998145 
L 139.798332 104.543363 
L 140.52121 104.434452 
L 140.853213 104.828759 
L 141.170079 104.532461 
L 141.522978 105.317794 
L 141.83611 107.163602 
L 144.473879 107.163602 
L 144.781842 107.587228 
L 145.064038 109.618169 
L 145.362699 109.618169 
L 145.674863 107.418703 
L 146.263742 107.522702 
L 146.861547 107.29665 
L 147.17986 107.720276 
L 147.502265 109.727081 
L 147.827808 110.11523 
L 149.033602 110.11523 
L 149.333074 110.789705 
L 149.650517 110.405808 
L 149.961035 110.753811 
L 150.260461 111.374216 
L 150.559892 110.360983 
L 151.432872 110.360983 
L 151.731481 111.017878 
L 152.30536 110.972164 
L 152.598356 111.814633 
L 152.905418 111.814633 
L 153.193124 111.987164 
L 153.486607 112.010732 
L 153.779253 114.148904 
L 154.06553 114.066471 
L 154.668102 114.951515 
L 154.991917 114.409427 
L 155.283105 114.431033 
L 155.591832 114.822931 
L 155.885842 114.605553 
L 156.173918 115.453544 
L 156.742372 115.339854 
L 157.034662 115.339854 
L 157.327325 116.504045 
L 157.640979 115.339854 
L 157.979256 115.73685 
L 158.333867 116.655832 
L 158.649287 115.432824 
L 158.977973 115.708179 
L 159.275091 116.564888 
L 159.565804 115.711829 
L 160.225336 117.74281 
L 160.550998 119.124885 
L 160.871606 117.609244 
L 161.778587 117.609244 
L 162.08819 118.044814 
L 162.446346 119.437456 
L 162.811683 119.861082 
L 164.040115 119.894105 
L 164.702829 120.292412 
L 165.597598 120.242219 
L 165.899924 120.443047 
L 166.181323 120.253205 
L 166.478228 119.894105 
L 167.055554 119.894105 
L 167.340638 120.608452 
L 167.635243 121.784837 
L 168.062263 121.365385 
L 168.708955 121.365385 
L 169.011609 121.541989 
L 169.288372 121.365385 
L 169.582397 122.374597 
L 169.878286 121.731617 
L 170.154077 122.720733 
L 170.454592 123.31965 
L 172.232837 123.31965 
L 172.571249 124.089881 
L 172.859835 123.31965 
L 173.161013 124.92778 
L 173.763589 124.92778 
L 174.061117 123.685883 
L 174.354605 123.685883 
L 174.660639 124.92778 
L 175.029586 123.950432 
L 175.607341 123.950432 
L 175.900732 125.558562 
L 176.208789 124.584736 
L 176.829987 124.569266 
L 177.473219 125.525539 
L 177.757873 124.297037 
L 178.045087 124.297037 
L 178.368417 124.839776 
L 178.671149 124.91587 
L 178.953673 125.490133 
L 179.243376 125.215842 
L 179.529336 125.438747 
L 179.818274 125.438747 
L 180.837204 127.177932 
L 181.265681 127.177932 
L 181.624812 127.497766 
L 182.026256 127.63488 
L 182.38635 127.63488 
L 182.680442 128.607597 
L 183.075377 128.784202 
L 183.438438 128.511973 
L 183.759268 128.474811 
L 184.111861 128.784202 
L 184.727906 128.706274 
L 185.0262 128.706274 
L 185.338416 129.052879 
L 185.641642 129.052879 
L 185.939511 129.213244 
L 186.235457 129.200148 
L 186.53696 129.067362 
L 186.81861 129.771894 
L 187.132786 129.771894 
L 187.438274 131.004383 
L 187.731082 129.771894 
L 188.041089 129.917775 
L 188.364923 131.004383 
L 188.678859 131.004383 
L 189.020998 131.150264 
L 190.569418 131.150264 
L 190.921899 131.623216 
L 191.269911 131.623216 
L 191.613907 132.066973 
L 191.936413 134.201057 
L 192.239528 134.201057 
L 192.536951 134.473435 
L 192.842289 134.473435 
L 193.178965 134.965772 
L 193.482502 137.010865 
L 194.090606 137.862957 
L 194.693511 137.784739 
L 195.006947 138.05191 
L 195.311415 137.784739 
L 195.607061 137.961343 
L 195.914661 138.450051 
L 196.219828 138.722429 
L 196.513807 139.936434 
L 196.81214 139.936434 
L 197.120117 140.145651 
L 197.437579 142.570744 
L 197.734482 143.344617 
L 198.03656 141.426613 
L 198.626687 141.426613 
L 198.927351 141.69899 
L 199.23258 142.413841 
L 199.846205 142.388342 
L 200.457947 142.413841 
L 200.74956 142.115965 
L 201.066446 142.115965 
L 201.363344 144.328094 
L 203.186451 144.328094 
L 203.495025 147.055889 
L 203.78694 147.055889 
L 204.092927 144.603196 
L 204.389628 144.603196 
L 204.692294 145.496035 
L 205.262336 146.021468 
L 205.561979 146.021468 
L 205.856434 147.60354 
L 206.159711 146.476644 
L 206.454568 146.476644 
L 206.731486 147.33099 
L 207.034526 147.603367 
L 207.328494 147.603367 
L 207.619257 148.531671 
L 208.200132 148.531671 
L 208.494146 148.976001 
L 209.384732 148.976001 
L 209.684846 149.316706 
L 209.978683 149.269501 
L 210.275263 149.461026 
L 210.578737 149.412045 
L 210.886897 150.198856 
L 211.182559 149.707174 
L 211.493711 150.112443 
L 211.786951 149.21027 
L 212.403082 150.24046 
L 212.712746 150.807673 
L 213.032118 150.807673 
L 213.329398 151.909418 
L 213.629296 151.909418 
L 214.22083 153.301044 
L 214.529574 153.301044 
L 214.836818 152.659357 
L 215.136337 152.357225 
L 215.455357 153.108405 
L 215.748254 153.108405 
L 216.054771 153.750091 
L 216.346612 153.867279 
L 216.650812 152.982625 
L 217.2267 153.507108 
L 217.8235 153.507108 
L 218.119431 153.902413 
L 218.433178 153.902413 
L 218.719881 153.44544 
L 219.01642 154.040976 
L 219.31459 154.040976 
L 219.596031 154.444215 
L 219.887358 155.236743 
L 220.193813 155.236743 
L 220.492741 155.830479 
L 221.417217 155.830479 
L 221.992889 155.942446 
L 222.290977 155.830479 
L 222.610592 156.102856 
L 223.222231 156.00281 
L 223.516086 156.230827 
L 223.809624 156.633198 
L 224.149177 156.232849 
L 224.740808 157.332622 
L 225.019616 156.490405 
L 225.314871 156.905685 
L 225.616977 156.490405 
L 226.215273 157.280493 
L 226.507814 157.940462 
L 227.062284 157.940462 
L 227.348264 158.25796 
L 227.91812 158.207427 
L 228.195534 158.617247 
L 228.475014 158.617247 
L 228.777105 158.952353 
L 229.068501 158.952353 
L 229.361997 159.611332 
L 230.24376 159.611332 
L 230.552091 160.888387 
L 230.818037 160.888387 
L 231.132444 161.205774 
L 232.609453 161.205774 
L 232.899922 163.970937 
L 233.189706 164.119475 
L 233.497139 164.119475 
L 233.779755 164.237902 
L 234.085259 164.119475 
L 234.381226 165.175986 
L 234.660978 165.175986 
L 234.969694 164.119475 
L 235.275941 165.027447 
L 235.570864 165.174128 
L 236.143322 165.174128 
L 236.443022 165.017874 
L 237.341703 164.913288 
L 237.625411 165.340242 
L 237.920013 165.487526 
L 238.488539 165.488781 
L 238.776167 165.69366 
L 239.081311 165.504835 
L 239.380312 165.958208 
L 239.681146 168.686501 
L 239.966051 165.751943 
L 240.891006 165.807496 
L 241.19201 166.535718 
L 241.478423 166.535718 
L 241.776388 165.843437 
L 242.083342 169.052035 
L 242.384439 166.110402 
L 242.676156 166.110402 
L 242.969331 166.232066 
L 243.55807 166.232066 
L 243.847081 166.748876 
L 244.14597 166.748876 
L 244.454942 167.218304 
L 244.738656 169.026149 
L 245.025824 169.550814 
L 245.904822 169.591053 
L 246.205537 169.591053 
L 246.51155 170.073086 
L 246.806299 169.656435 
L 247.105884 169.656435 
L 247.403799 170.597751 
L 247.689608 170.804528 
L 248.282314 170.804528 
L 248.591704 171.330071 
L 248.878987 171.408706 
L 249.16182 171.767218 
L 249.732296 171.942167 
L 250.032564 171.767218 
L 250.318915 171.767218 
L 250.619397 171.942167 
L 251.181193 171.942167 
L 251.760418 171.749076 
L 252.062783 172.730437 
L 252.373186 172.730437 
L 252.67642 172.905387 
L 252.958251 172.325247 
L 253.243512 172.883658 
L 253.529025 173.017491 
L 253.809496 172.939494 
L 254.096871 173.169369 
L 254.393754 172.913144 
L 254.604395 173.264038 
L 255.204659 172.913144 
L 255.486518 173.282136 
L 255.782488 174.67945 
L 256.081462 173.282136 
L 256.382929 173.282136 
L 256.686671 173.484491 
L 257.290051 173.46949 
L 257.832048 173.860691 
L 258.413609 173.860691 
L 258.699697 175.573979 
L 259.252631 175.573979 
L 259.541856 175.886719 
L 259.830454 175.886719 
L 260.13331 176.439943 
L 260.691417 176.506106 
L 260.994984 177.32539 
L 261.834641 177.387407 
L 262.123931 177.795987 
L 262.442405 177.246746 
L 263.025345 178.051157 
L 263.320419 178.328884 
L 263.613117 178.328884 
L 263.899105 178.116828 
L 264.161278 177.72482 
L 264.449388 178.452394 
L 265.051384 179.099305 
L 265.32865 179.099305 
L 265.619908 180.010918 
L 266.794838 180.033171 
L 267.077374 180.482291 
L 267.370081 180.365685 
L 267.668695 180.623638 
L 268.218155 180.850155 
L 268.49684 180.365685 
L 269.664555 180.399762 
L 269.94503 180.79177 
L 270.226796 181.49071 
L 270.824006 181.49071 
L 271.120684 181.9653 
L 271.966932 181.9653 
L 272.265969 182.090573 
L 272.569203 182.357308 
L 272.838439 182.278039 
L 273.118426 182.357308 
L 273.411648 182.743034 
L 273.691955 182.801995 
L 273.990555 182.360341 
L 274.834531 183.748279 
L 275.11816 182.683187 
L 275.408877 184.093999 
L 275.683143 184.31853 
L 275.971303 183.883335 
L 276.264269 183.883335 
L 276.563793 184.351885 
L 277.152525 184.351885 
L 277.449318 185.656525 
L 278.293811 185.656525 
L 278.59531 185.883132 
L 279.195952 185.769748 
L 279.753206 185.795203 
L 280.05578 186.101348 
L 280.341195 186.101348 
L 280.630964 185.740702 
L 280.89955 185.738809 
L 281.194816 186.240251 
L 281.454813 185.833758 
L 281.71189 186.727804 
L 282.939082 186.690834 
L 283.223284 186.923219 
L 283.498033 186.960189 
L 283.786163 186.727804 
L 284.692194 187.119862 
L 284.99092 187.119862 
L 285.262121 187.26044 
L 285.554808 187.253695 
L 285.835874 187.397589 
L 286.990167 187.489902 
L 287.283288 190.025212 
L 287.575969 187.701862 
L 287.882489 187.701862 
L 288.475411 188.110284 
L 288.761434 188.110284 
L 289.053593 189.702047 
L 290.53229 189.772083 
L 290.800621 190.103705 
L 291.107691 190.103705 
L 291.724321 190.569463 
L 292.342048 190.569463 
L 292.654375 191.786394 
L 292.948992 190.34792 
L 293.251357 190.463225 
L 293.568181 190.463225 
L 293.863865 190.95953 
L 294.16662 190.95953 
L 294.461163 190.606692 
L 294.776275 190.80884 
L 295.078656 192.531592 
L 295.970373 192.581426 
L 296.870265 192.989279 
L 297.151408 193.5073 
L 297.750335 193.532144 
L 298.055495 193.839592 
L 298.337248 193.532144 
L 298.63264 193.82175 
L 299.247026 193.82816 
L 299.516444 193.82175 
L 299.836782 194.557636 
L 300.42167 194.557636 
L 300.727243 194.2658 
L 301.304401 194.981185 
L 301.882786 194.887447 
L 302.171016 194.942428 
L 302.466062 195.603019 
L 302.737084 195.142405 
L 303.042073 195.511894 
L 303.336741 195.27472 
L 303.916128 195.27472 
L 304.213208 195.579843 
L 305.114905 195.501608 
L 305.422809 195.921398 
L 305.720028 196.129009 
L 306.027035 195.921398 
L 306.334633 196.108897 
L 306.642011 196.108897 
L 307.249032 196.82325 
L 307.559887 197.304344 
L 307.85854 198.077137 
L 308.450991 198.077137 
L 308.749157 197.376969 
L 309.043066 197.392716 
L 311.125474 198.239984 
L 311.749711 198.043316 
L 312.07552 198.370686 
L 312.387959 198.099684 
L 312.677652 198.321714 
L 313.267095 198.345935 
L 313.575312 198.636264 
L 313.868734 198.636264 
L 314.166993 199.505868 
L 315.926646 199.655969 
L 316.222484 199.892559 
L 318.019529 199.932493 
L 318.323541 200.20274 
L 318.910433 200.080786 
L 319.529876 200.156736 
L 319.837939 200.156736 
L 320.131962 200.029742 
L 320.419713 200.137352 
L 320.695749 200.029742 
L 320.979876 200.328402 
L 324.254589 200.42654 
L 324.555797 200.495211 
L 324.855359 201.796279 
L 326.621321 201.796279 
L 327.206867 201.923154 
L 327.485253 201.923154 
L 327.764047 201.796279 
L 328.359513 201.796279 
L 328.655654 202.061778 
L 328.979247 202.089828 
L 329.253432 202.983785 
L 329.545207 202.988661 
L 329.822735 203.190127 
L 331.308095 203.282359 
L 334.156023 203.772156 
L 334.464779 204.037655 
L 334.749015 203.772156 
L 335.330783 204.104408 
L 335.633226 203.977533 
L 335.926168 204.168646 
L 336.201918 205.178046 
L 337.94867 205.202777 
L 338.234047 205.403133 
L 338.53608 205.439466 
L 339.026159 205.186279 
L 339.3076 205.186279 
L 339.87883 205.660676 
L 341.015436 205.720469 
L 341.318546 206.506033 
L 341.887146 206.688123 
L 342.21616 206.583478 
L 342.494355 206.867006 
L 342.775393 205.439517 
L 343.367709 205.403184 
L 343.695896 207.059646 
L 344.019712 207.141235 
L 344.32127 207.598631 
L 344.59956 207.6377 
L 344.887953 208.652979 
L 345.179187 207.415667 
L 345.455114 208.658951 
L 346.063443 208.89343 
L 346.369407 209.285376 
L 346.67117 210.577376 
L 346.950476 209.609005 
L 347.220558 209.609005 
L 347.51511 211.940425 
L 347.833404 212.191682 
L 348.132589 212.191682 
L 348.422292 213.820705 
L 348.7231 213.96947 
L 349.01208 213.96947 
L 349.317502 214.536705 
L 349.616577 213.96947 
L 350.208919 214.550469 
L 350.521378 216.180817 
L 350.812945 216.293551 
L 351.101419 217.59206 
L 351.392166 216.549912 
L 351.687019 216.35432 
L 352.003804 216.566372 
L 352.289386 216.566372 
L 352.847501 217.518633 
L 353.152882 217.123784 
L 353.443238 217.168064 
L 354.012743 217.648712 
L 354.298345 218.468641 
L 354.881527 218.527421 
L 355.19108 218.831141 
L 356.047443 218.88 
L 356.047443 218.88 
" clip-path="url(#pcb7e1ab8b1)" style="fill: none; stroke: #1f77b4; stroke-width: 1.5; stroke-linecap: square"/>
   </g>
   <g id="patch_3">
    <path d="M 36.465625 228.96 
L 36.465625 7.2 
" style="fill: none; stroke: #000000; stroke-width: 0.8; stroke-linejoin: miter; stroke-linecap: square"/>
   </g>
   <g id="patch_4">
    <path d="M 371.265625 228.96 
L 371.265625 7.2 
" style="fill: none; stroke: #000000; stroke-width: 0.8; stroke-linejoin: miter; stroke-linecap: square"/>
   </g>
   <g id="patch_5">
    <path d="M 36.465625 228.96 
L 371.265625 228.96 
" style="fill: none; stroke: #000000; stroke-width: 0.8; stroke-linejoin: miter; stroke-linecap: square"/>
   </g>
   <g id="patch_6">
    <path d="M 36.465625 7.2 
L 371.265625 7.2 
" style="fill: none; stroke: #000000; stroke-width: 0.8; stroke-linejoin: miter; stroke-linecap: square"/>
   </g>
  </g>
 </g>
 <defs>
  <clipPath id="pcb7e1ab8b1">
   <rect x="36.465625" y="7.2" width="334.8" height="221.76"/>
  </clipPath>
 </defs>
</svg>
