<?xml version="1.0" encoding="utf-8" standalone="no"?>
<!DOCTYPE svg PUBLIC "-//W3C//DTD SVG 1.1//EN"
  "http://www.w3.org/Graphics/SVG/1.1/DTD/svg11.dtd">
<svg xmlns:xlink="http://www.w3.org/1999/xlink" width="368.925pt" height="252.838125pt" viewBox="0 0 368.925 252.838125" xmlns="http://www.w3.org/2000/svg" version="1.1">
 <metadata>
  <rdf:RDF xmlns:dc="http://purl.org/dc/elements/1.1/" xmlns:cc="http://creativecommons.org/ns#" xmlns:rdf="http://www.w3.org/1999/02/22-rdf-syntax-ns#">
   <cc:Work>
    <dc:type rdf:resource="http://purl.org/dc/dcmitype/StillImage"/>
    <dc:date>2023-04-19T16:55:16.810369</dc:date>
    <dc:format>image/svg+xml</dc:format>
    <dc:creator>
     <cc:Agent>
      <dc:title>Matplotlib v3.6.2, https://matplotlib.org/</dc:title>
     </cc:Agent>
    </dc:creator>
   </cc:Work>
  </rdf:RDF>
 </metadata>
 <defs>
  <style type="text/css">*{stroke-linejoin: round; stroke-linecap: butt}</style>
 </defs>
 <g id="figure_1">
  <g id="patch_1">
   <path d="M -0 252.838125 
L 368.925 252.838125 
L 368.925 0 
L -0 0 
z
" style="fill: #ffffff"/>
  </g>
  <g id="axes_1">
   <g id="patch_2">
    <path d="M 26.925 228.96 
L 361.725 228.96 
L 361.725 7.2 
L 26.925 7.2 
z
" style="fill: #ffffff"/>
   </g>
   <g id="matplotlib.axis_1">
    <g id="xtick_1">
     <g id="line2d_1">
      <defs>
       <path id="m8e8c5def0f" d="M 0 0 
L 0 3.5 
" style="stroke: #000000; stroke-width: 0.8"/>
      </defs>
      <g>
       <use xlink:href="#m8e8c5def0f" x="42.143182" y="228.96" style="stroke: #000000; stroke-width: 0.8"/>
      </g>
     </g>
     <g id="text_1">
      <!-- 0 -->
      <g transform="translate(38.961932 243.558437) scale(0.1 -0.1)">
       <defs>
        <path id="DejaVuSans-30" d="M 2034 4250 
Q 1547 4250 1301 3770 
Q 1056 3291 1056 2328 
Q 1056 1369 1301 889 
Q 1547 409 2034 409 
Q 2525 409 2770 889 
Q 3016 1369 3016 2328 
Q 3016 3291 2770 3770 
Q 2525 4250 2034 4250 
z
M 2034 4750 
Q 2819 4750 3233 4129 
Q 3647 3509 3647 2328 
Q 3647 1150 3233 529 
Q 2819 -91 2034 -91 
Q 1250 -91 836 529 
Q 422 1150 422 2328 
Q 422 3509 836 4129 
Q 1250 4750 2034 4750 
z
" transform="scale(0.015625)"/>
       </defs>
       <use xlink:href="#DejaVuSans-30"/>
      </g>
     </g>
    </g>
    <g id="xtick_2">
     <g id="line2d_2">
      <g>
       <use xlink:href="#m8e8c5def0f" x="103.015909" y="228.96" style="stroke: #000000; stroke-width: 0.8"/>
      </g>
     </g>
     <g id="text_2">
      <!-- 200 -->
      <g transform="translate(93.472159 243.558437) scale(0.1 -0.1)">
       <defs>
        <path id="DejaVuSans-32" d="M 1228 531 
L 3431 531 
L 3431 0 
L 469 0 
L 469 531 
Q 828 903 1448 1529 
Q 2069 2156 2228 2338 
Q 2531 2678 2651 2914 
Q 2772 3150 2772 3378 
Q 2772 3750 2511 3984 
Q 2250 4219 1831 4219 
Q 1534 4219 1204 4116 
Q 875 4013 500 3803 
L 500 4441 
Q 881 4594 1212 4672 
Q 1544 4750 1819 4750 
Q 2544 4750 2975 4387 
Q 3406 4025 3406 3419 
Q 3406 3131 3298 2873 
Q 3191 2616 2906 2266 
Q 2828 2175 2409 1742 
Q 1991 1309 1228 531 
z
" transform="scale(0.015625)"/>
       </defs>
       <use xlink:href="#DejaVuSans-32"/>
       <use xlink:href="#DejaVuSans-30" x="63.623047"/>
       <use xlink:href="#DejaVuSans-30" x="127.246094"/>
      </g>
     </g>
    </g>
    <g id="xtick_3">
     <g id="line2d_3">
      <g>
       <use xlink:href="#m8e8c5def0f" x="163.888636" y="228.96" style="stroke: #000000; stroke-width: 0.8"/>
      </g>
     </g>
     <g id="text_3">
      <!-- 400 -->
      <g transform="translate(154.344886 243.558437) scale(0.1 -0.1)">
       <defs>
        <path id="DejaVuSans-34" d="M 2419 4116 
L 825 1625 
L 2419 1625 
L 2419 4116 
z
M 2253 4666 
L 3047 4666 
L 3047 1625 
L 3713 1625 
L 3713 1100 
L 3047 1100 
L 3047 0 
L 2419 0 
L 2419 1100 
L 313 1100 
L 313 1709 
L 2253 4666 
z
" transform="scale(0.015625)"/>
       </defs>
       <use xlink:href="#DejaVuSans-34"/>
       <use xlink:href="#DejaVuSans-30" x="63.623047"/>
       <use xlink:href="#DejaVuSans-30" x="127.246094"/>
      </g>
     </g>
    </g>
    <g id="xtick_4">
     <g id="line2d_4">
      <g>
       <use xlink:href="#m8e8c5def0f" x="224.761364" y="228.96" style="stroke: #000000; stroke-width: 0.8"/>
      </g>
     </g>
     <g id="text_4">
      <!-- 600 -->
      <g transform="translate(215.217614 243.558437) scale(0.1 -0.1)">
       <defs>
        <path id="DejaVuSans-36" d="M 2113 2584 
Q 1688 2584 1439 2293 
Q 1191 2003 1191 1497 
Q 1191 994 1439 701 
Q 1688 409 2113 409 
Q 2538 409 2786 701 
Q 3034 994 3034 1497 
Q 3034 2003 2786 2293 
Q 2538 2584 2113 2584 
z
M 3366 4563 
L 3366 3988 
Q 3128 4100 2886 4159 
Q 2644 4219 2406 4219 
Q 1781 4219 1451 3797 
Q 1122 3375 1075 2522 
Q 1259 2794 1537 2939 
Q 1816 3084 2150 3084 
Q 2853 3084 3261 2657 
Q 3669 2231 3669 1497 
Q 3669 778 3244 343 
Q 2819 -91 2113 -91 
Q 1303 -91 875 529 
Q 447 1150 447 2328 
Q 447 3434 972 4092 
Q 1497 4750 2381 4750 
Q 2619 4750 2861 4703 
Q 3103 4656 3366 4563 
z
" transform="scale(0.015625)"/>
       </defs>
       <use xlink:href="#DejaVuSans-36"/>
       <use xlink:href="#DejaVuSans-30" x="63.623047"/>
       <use xlink:href="#DejaVuSans-30" x="127.246094"/>
      </g>
     </g>
    </g>
    <g id="xtick_5">
     <g id="line2d_5">
      <g>
       <use xlink:href="#m8e8c5def0f" x="285.634091" y="228.96" style="stroke: #000000; stroke-width: 0.8"/>
      </g>
     </g>
     <g id="text_5">
      <!-- 800 -->
      <g transform="translate(276.090341 243.558437) scale(0.1 -0.1)">
       <defs>
        <path id="DejaVuSans-38" d="M 2034 2216 
Q 1584 2216 1326 1975 
Q 1069 1734 1069 1313 
Q 1069 891 1326 650 
Q 1584 409 2034 409 
Q 2484 409 2743 651 
Q 3003 894 3003 1313 
Q 3003 1734 2745 1975 
Q 2488 2216 2034 2216 
z
M 1403 2484 
Q 997 2584 770 2862 
Q 544 3141 544 3541 
Q 544 4100 942 4425 
Q 1341 4750 2034 4750 
Q 2731 4750 3128 4425 
Q 3525 4100 3525 3541 
Q 3525 3141 3298 2862 
Q 3072 2584 2669 2484 
Q 3125 2378 3379 2068 
Q 3634 1759 3634 1313 
Q 3634 634 3220 271 
Q 2806 -91 2034 -91 
Q 1263 -91 848 271 
Q 434 634 434 1313 
Q 434 1759 690 2068 
Q 947 2378 1403 2484 
z
M 1172 3481 
Q 1172 3119 1398 2916 
Q 1625 2713 2034 2713 
Q 2441 2713 2670 2916 
Q 2900 3119 2900 3481 
Q 2900 3844 2670 4047 
Q 2441 4250 2034 4250 
Q 1625 4250 1398 4047 
Q 1172 3844 1172 3481 
z
" transform="scale(0.015625)"/>
       </defs>
       <use xlink:href="#DejaVuSans-38"/>
       <use xlink:href="#DejaVuSans-30" x="63.623047"/>
       <use xlink:href="#DejaVuSans-30" x="127.246094"/>
      </g>
     </g>
    </g>
    <g id="xtick_6">
     <g id="line2d_6">
      <g>
       <use xlink:href="#m8e8c5def0f" x="346.506818" y="228.96" style="stroke: #000000; stroke-width: 0.8"/>
      </g>
     </g>
     <g id="text_6">
      <!-- 1000 -->
      <g transform="translate(333.781818 243.558437) scale(0.1 -0.1)">
       <defs>
        <path id="DejaVuSans-31" d="M 794 531 
L 1825 531 
L 1825 4091 
L 703 3866 
L 703 4441 
L 1819 4666 
L 2450 4666 
L 2450 531 
L 3481 531 
L 3481 0 
L 794 0 
L 794 531 
z
" transform="scale(0.015625)"/>
       </defs>
       <use xlink:href="#DejaVuSans-31"/>
       <use xlink:href="#DejaVuSans-30" x="63.623047"/>
       <use xlink:href="#DejaVuSans-30" x="127.246094"/>
       <use xlink:href="#DejaVuSans-30" x="190.869141"/>
      </g>
     </g>
    </g>
   </g>
   <g id="matplotlib.axis_2">
    <g id="ytick_1">
     <g id="line2d_7">
      <defs>
       <path id="m02fdd322ed" d="M 0 0 
L -3.5 0 
" style="stroke: #000000; stroke-width: 0.8"/>
      </defs>
      <g>
       <use xlink:href="#m02fdd322ed" x="26.925" y="228.446191" style="stroke: #000000; stroke-width: 0.8"/>
      </g>
     </g>
     <g id="text_7">
      <!-- 65 -->
      <g transform="translate(7.2 232.24541) scale(0.1 -0.1)">
       <defs>
        <path id="DejaVuSans-35" d="M 691 4666 
L 3169 4666 
L 3169 4134 
L 1269 4134 
L 1269 2991 
Q 1406 3038 1543 3061 
Q 1681 3084 1819 3084 
Q 2600 3084 3056 2656 
Q 3513 2228 3513 1497 
Q 3513 744 3044 326 
Q 2575 -91 1722 -91 
Q 1428 -91 1123 -41 
Q 819 9 494 109 
L 494 744 
Q 775 591 1075 516 
Q 1375 441 1709 441 
Q 2250 441 2565 725 
Q 2881 1009 2881 1497 
Q 2881 1984 2565 2268 
Q 2250 2553 1709 2553 
Q 1456 2553 1204 2497 
Q 953 2441 691 2322 
L 691 4666 
z
" transform="scale(0.015625)"/>
       </defs>
       <use xlink:href="#DejaVuSans-36"/>
       <use xlink:href="#DejaVuSans-35" x="63.623047"/>
      </g>
     </g>
    </g>
    <g id="ytick_2">
     <g id="line2d_8">
      <g>
       <use xlink:href="#m02fdd322ed" x="26.925" y="180.572341" style="stroke: #000000; stroke-width: 0.8"/>
      </g>
     </g>
     <g id="text_8">
      <!-- 70 -->
      <g transform="translate(7.2 184.37156) scale(0.1 -0.1)">
       <defs>
        <path id="DejaVuSans-37" d="M 525 4666 
L 3525 4666 
L 3525 4397 
L 1831 0 
L 1172 0 
L 2766 4134 
L 525 4134 
L 525 4666 
z
" transform="scale(0.015625)"/>
       </defs>
       <use xlink:href="#DejaVuSans-37"/>
       <use xlink:href="#DejaVuSans-30" x="63.623047"/>
      </g>
     </g>
    </g>
    <g id="ytick_3">
     <g id="line2d_9">
      <g>
       <use xlink:href="#m02fdd322ed" x="26.925" y="132.698491" style="stroke: #000000; stroke-width: 0.8"/>
      </g>
     </g>
     <g id="text_9">
      <!-- 75 -->
      <g transform="translate(7.2 136.49771) scale(0.1 -0.1)">
       <use xlink:href="#DejaVuSans-37"/>
       <use xlink:href="#DejaVuSans-35" x="63.623047"/>
      </g>
     </g>
    </g>
    <g id="ytick_4">
     <g id="line2d_10">
      <g>
       <use xlink:href="#m02fdd322ed" x="26.925" y="84.824642" style="stroke: #000000; stroke-width: 0.8"/>
      </g>
     </g>
     <g id="text_10">
      <!-- 80 -->
      <g transform="translate(7.2 88.623861) scale(0.1 -0.1)">
       <use xlink:href="#DejaVuSans-38"/>
       <use xlink:href="#DejaVuSans-30" x="63.623047"/>
      </g>
     </g>
    </g>
    <g id="ytick_5">
     <g id="line2d_11">
      <g>
       <use xlink:href="#m02fdd322ed" x="26.925" y="36.950792" style="stroke: #000000; stroke-width: 0.8"/>
      </g>
     </g>
     <g id="text_11">
      <!-- 85 -->
      <g transform="translate(7.2 40.750011) scale(0.1 -0.1)">
       <use xlink:href="#DejaVuSans-38"/>
       <use xlink:href="#DejaVuSans-35" x="63.623047"/>
      </g>
     </g>
    </g>
   </g>
   <g id="line2d_12">
    <path d="M 42.143182 22.046118 
L 42.447545 22.046118 
L 42.751909 17.28 
L 43.056273 17.28 
L 43.360636 32.334351 
L 43.665 37.870339 
L 43.969364 37.740273 
L 44.273727 41.364643 
L 45.186818 41.364643 
L 45.795545 43.442582 
L 46.099909 41.399656 
L 46.404273 46.812005 
L 46.708636 46.812005 
L 47.013 49.24744 
L 47.317364 47.158738 
L 47.621727 47.474203 
L 47.926091 48.908706 
L 48.230455 48.908706 
L 48.534818 49.491627 
L 48.839182 49.495668 
L 49.752273 51.223212 
L 50.056636 52.765251 
L 50.665364 52.765251 
L 50.969727 53.473055 
L 51.274091 52.765251 
L 51.578455 52.890134 
L 52.187182 54.369704 
L 52.491545 55.736282 
L 52.795909 55.736282 
L 53.100273 56.245315 
L 53.404636 55.861165 
L 53.709 56.444086 
L 54.622091 56.444086 
L 55.535182 57.757824 
L 56.143909 57.757824 
L 56.448273 59.162743 
L 56.752636 58.425019 
L 57.057 59.738757 
L 57.970091 59.738757 
L 58.578818 62.069263 
L 58.883182 61.06553 
L 59.187545 61.06553 
L 59.491909 61.676677 
L 59.796273 61.06553 
L 60.405 61.06553 
L 60.709364 62.11279 
L 61.013727 61.06553 
L 61.318091 62.136356 
L 61.622455 61.676677 
L 61.926818 62.734613 
L 63.144273 62.817483 
L 63.448636 63.797054 
L 63.753 63.907917 
L 64.057364 64.887488 
L 64.361727 63.907917 
L 64.666091 63.890886 
L 64.970455 65.674067 
L 65.274818 64.887488 
L 66.187909 64.887488 
L 66.492273 65.592182 
L 66.796636 65.592182 
L 67.101 66.647972 
L 67.405364 65.951407 
L 67.709727 65.951407 
L 68.318455 67.430124 
L 68.622818 67.430124 
L 68.927182 68.134818 
L 69.231545 68.134818 
L 69.840273 69.37248 
L 70.144636 69.37248 
L 70.449 70.178307 
L 70.753364 70.178307 
L 71.057727 71.234098 
L 71.362091 71.234098 
L 71.666455 71.938791 
L 72.579545 71.938791 
L 72.883909 74.901218 
L 73.188273 75.183529 
L 73.492636 74.901218 
L 73.797 72.468365 
L 74.101364 72.925796 
L 74.405727 74.901218 
L 74.710091 75.888223 
L 75.014455 75.183529 
L 75.318818 75.183529 
L 75.623182 75.687344 
L 75.927545 75.481241 
L 76.231909 75.888223 
L 76.536273 75.481241 
L 76.840636 75.481241 
L 77.145 77.355222 
L 77.449364 76.280735 
L 77.753727 76.7752 
L 78.058091 77.770011 
L 78.362455 78.279387 
L 79.275545 78.401979 
L 79.579909 80.475522 
L 79.884273 79.054727 
L 80.188636 78.470401 
L 80.493 79.166586 
L 80.797364 78.782816 
L 81.101727 78.85941 
L 81.406091 79.088846 
L 81.710455 79.088846 
L 82.014818 79.396023 
L 82.319182 79.124009 
L 82.623545 80.354882 
L 83.536636 80.354882 
L 83.841 81.349694 
L 84.145364 81.349694 
L 84.449727 80.782698 
L 85.058455 81.663859 
L 85.667182 81.65687 
L 85.971545 82.06019 
L 86.580273 81.416595 
L 86.884636 82.129599 
L 87.189 81.824081 
L 88.102091 81.824081 
L 88.406455 82.818892 
L 88.710818 83.327321 
L 89.015182 82.818892 
L 89.928273 83.404434 
L 90.232636 84.181665 
L 90.537 84.023139 
L 90.841364 84.330315 
L 91.145727 83.663076 
L 91.450091 83.404434 
L 91.754455 85.357101 
L 92.058818 85.357101 
L 92.363182 85.86553 
L 92.667545 85.604364 
L 92.971909 85.604364 
L 93.276273 85.846133 
L 93.580636 85.846133 
L 93.885 85.673647 
L 94.189364 86.151841 
L 94.493727 85.833287 
L 95.102455 85.864127 
L 95.406818 86.050663 
L 96.319909 86.093397 
L 96.624273 88.598942 
L 97.233 88.598942 
L 97.537364 89.195393 
L 98.754818 89.232431 
L 99.059182 89.479695 
L 99.363545 89.10737 
L 99.667909 89.282236 
L 99.972273 88.598942 
L 100.885364 89.096306 
L 101.189727 89.662124 
L 102.407182 89.604735 
L 102.711545 91.679963 
L 103.015909 91.839162 
L 103.320273 92.305781 
L 103.929 92.305781 
L 104.233364 92.658474 
L 104.537727 92.284341 
L 104.842091 92.284341 
L 105.450818 92.778863 
L 105.755182 92.497465 
L 106.059545 92.924011 
L 106.363909 92.924011 
L 106.668273 92.610749 
L 106.972636 92.497465 
L 107.277 92.924011 
L 107.581364 92.957552 
L 107.885727 93.243923 
L 108.190091 92.871598 
L 108.798818 92.965557 
L 109.103182 93.014447 
L 109.407545 93.331872 
L 110.016273 93.2434 
L 110.320636 94.435642 
L 110.625 94.435642 
L 110.929364 93.819376 
L 111.233727 93.5899 
L 111.842455 94.123233 
L 112.755545 94.089557 
L 113.059909 94.780579 
L 113.364273 94.401395 
L 113.973 95.027244 
L 114.277364 95.099966 
L 114.581727 94.892885 
L 114.886091 94.892885 
L 116.103545 96.498166 
L 116.407909 96.261051 
L 116.712273 97.007509 
L 117.016636 98.370841 
L 117.321 98.370841 
L 117.625364 99.044052 
L 117.929727 99.227164 
L 118.234091 99.227164 
L 118.538455 100.186746 
L 119.755909 100.186746 
L 120.060273 100.653363 
L 120.364636 100.186746 
L 120.669 99.999028 
L 120.973364 100.52457 
L 121.277727 100.186746 
L 121.582091 100.468144 
L 121.886455 100.471 
L 122.495182 100.818209 
L 122.799545 100.745485 
L 123.103909 100.468144 
L 123.408273 100.989106 
L 124.017 100.889538 
L 124.321364 100.828114 
L 124.625727 100.896753 
L 124.930091 100.706219 
L 125.234455 101.166671 
L 125.538818 102.486421 
L 125.843182 100.916383 
L 126.451909 100.632232 
L 126.756273 100.917714 
L 127.060636 100.820898 
L 127.365 101.566833 
L 127.669364 103.597324 
L 130.408636 103.597324 
L 130.713 104.039582 
L 131.017364 105.683887 
L 131.321727 105.683887 
L 131.626091 103.871617 
L 131.930455 104.34046 
L 132.234818 104.34046 
L 132.843545 103.87864 
L 133.147909 104.320898 
L 133.452273 105.968038 
L 133.756636 106.523647 
L 134.974091 106.523647 
L 135.278455 106.988491 
L 135.582818 106.684589 
L 135.887182 106.995523 
L 136.191545 107.488431 
L 136.495909 106.427054 
L 137.409 106.427054 
L 137.713364 106.947189 
L 138.017727 108.077957 
L 138.322091 108.077957 
L 138.626455 107.90796 
L 138.930818 107.90796 
L 139.235182 108.482613 
L 139.539545 108.52762 
L 139.843909 110.550747 
L 140.148273 110.218676 
L 140.757 111.227642 
L 141.061364 110.801036 
L 141.974455 111.090387 
L 142.278818 112.112903 
L 142.583182 111.891303 
L 143.191909 111.891303 
L 143.496273 113.170813 
L 143.800636 111.891303 
L 144.105 112.417622 
L 144.409364 113.425426 
L 144.713727 111.989195 
L 145.018091 112.394043 
L 145.322455 113.14411 
L 145.626818 112.423794 
L 146.235545 114.202121 
L 146.539909 116.014382 
L 146.844273 114.17605 
L 147.453 114.273433 
L 147.757364 114.17605 
L 148.061727 114.885231 
L 148.366091 116.044508 
L 148.670455 116.486766 
L 149.887909 116.584149 
L 150.496636 117.198782 
L 151.105364 117.198782 
L 151.409727 117.085428 
L 151.714091 117.448016 
L 152.018455 117.327285 
L 152.322818 116.584149 
L 152.931545 116.584149 
L 153.540273 118.527374 
L 153.844636 118.144987 
L 154.453364 118.144987 
L 154.757727 118.591487 
L 155.062091 118.144987 
L 155.366455 119.13629 
L 155.670818 118.636534 
L 156.279545 120.029191 
L 158.105727 120.029191 
L 158.410091 120.824799 
L 158.714455 120.029191 
L 159.018818 121.595929 
L 159.627545 121.595929 
L 159.931909 120.520738 
L 160.236273 120.520738 
L 160.540636 121.595929 
L 160.845 120.622994 
L 161.453727 120.622994 
L 161.758091 122.189732 
L 162.062455 121.257577 
L 162.671182 121.211324 
L 162.975545 121.958516 
L 163.279909 122.092349 
L 163.584273 120.976345 
L 163.888636 120.976345 
L 164.193 121.572894 
L 164.497364 121.564675 
L 164.801727 122.210846 
L 165.106091 121.991873 
L 165.410455 122.212406 
L 165.714818 122.212406 
L 166.627909 123.904192 
L 166.932273 123.904192 
L 167.541 124.639694 
L 167.845364 124.639694 
L 168.149727 125.378073 
L 168.454091 125.824572 
L 169.062818 125.258617 
L 169.367182 125.824572 
L 169.975909 125.747668 
L 170.280273 125.747668 
L 170.584636 126.101019 
L 170.889 126.101019 
L 171.193364 126.349612 
L 171.802091 126.198402 
L 172.106455 127.103189 
L 172.410818 127.103189 
L 172.715182 128.247344 
L 173.019545 127.103189 
L 173.323909 127.254399 
L 173.628273 128.247344 
L 173.932636 128.247344 
L 174.237 128.398554 
L 175.758818 128.398554 
L 176.063182 128.835674 
L 176.367545 128.835674 
L 176.671909 129.283639 
L 176.976273 131.431233 
L 177.280636 131.431233 
L 177.585 131.804212 
L 177.889364 131.804212 
L 178.193727 132.170772 
L 178.498091 133.422982 
L 179.106818 135.072034 
L 179.411182 135.072034 
L 179.715545 134.467703 
L 180.019909 134.80077 
L 180.324273 134.467703 
L 180.628636 134.914203 
L 180.933 135.900541 
L 181.541727 136.501555 
L 181.846091 136.501555 
L 182.759182 139.974102 
L 183.063545 137.947687 
L 183.672273 137.947687 
L 183.976636 138.320667 
L 184.281 139.289164 
L 184.889727 139.365388 
L 185.194091 139.847432 
L 185.498455 139.289164 
L 185.802818 138.992409 
L 186.107182 138.992409 
L 186.411545 140.70858 
L 188.237727 140.70858 
L 188.542091 143.23153 
L 188.846455 143.23153 
L 189.150818 140.980759 
L 189.455182 140.980759 
L 189.759545 142.107054 
L 190.368273 142.648746 
L 190.672636 142.648746 
L 190.977 143.924332 
L 191.281364 143.122768 
L 191.585727 143.122768 
L 192.194455 143.876689 
L 192.498818 143.876689 
L 192.803182 145.236947 
L 193.411909 145.236947 
L 193.716273 145.705303 
L 194.629364 145.705303 
L 194.933727 145.961946 
L 195.846818 146.146608 
L 196.151182 146.87363 
L 196.455545 146.443364 
L 196.759909 146.851894 
L 197.064273 145.356111 
L 197.673 147.359719 
L 197.977364 147.551738 
L 198.281727 147.551738 
L 198.586091 148.668088 
L 198.890455 148.668088 
L 199.194818 148.832666 
L 199.499182 149.525993 
L 199.803545 149.525993 
L 200.107909 148.832666 
L 200.716636 150.212085 
L 201.021 150.212085 
L 201.325364 150.905412 
L 201.629727 150.959688 
L 201.934091 149.617261 
L 202.238455 150.888181 
L 202.542818 150.471659 
L 203.760273 150.476694 
L 204.064636 150.644429 
L 204.369 151.68915 
L 204.673364 151.68915 
L 204.977727 150.988747 
L 205.282091 152.616171 
L 205.586455 152.616171 
L 205.890818 153.176031 
L 206.803909 153.176031 
L 207.412636 153.294298 
L 207.717 153.176031 
L 208.021364 153.549011 
L 208.934455 153.578838 
L 209.238818 153.98248 
L 209.543182 153.579674 
L 209.847545 154.177959 
L 210.151909 154.160891 
L 210.456273 154.023397 
L 210.760636 154.426952 
L 211.065 154.023397 
L 211.978091 155.412453 
L 212.586818 155.412453 
L 214.108636 156.04948 
L 214.413 156.414196 
L 214.717364 156.414196 
L 215.021727 157.012147 
L 215.934818 157.012147 
L 216.239182 158.2831 
L 216.543545 158.2831 
L 216.847909 158.604072 
L 218.369727 158.604072 
L 218.674091 161.203517 
L 218.978455 161.476516 
L 219.891545 161.476516 
L 220.195909 162.477578 
L 220.500273 162.477578 
L 220.804636 161.476516 
L 221.109 162.204579 
L 221.413364 162.38052 
L 222.630818 162.364667 
L 223.239545 162.246194 
L 223.543909 162.685434 
L 223.848273 162.840341 
L 224.152636 162.840341 
L 224.761364 163.159488 
L 225.065727 162.476388 
L 225.370091 163.403659 
L 225.674455 165.410711 
L 225.978818 163.242984 
L 226.283182 163.477236 
L 226.587545 163.242984 
L 226.891909 163.169921 
L 227.196273 164.119582 
L 227.500636 164.119582 
L 227.805 163.432296 
L 228.109364 166.235262 
L 228.413727 163.763251 
L 229.631182 163.82875 
L 229.935545 164.374394 
L 230.239909 164.374394 
L 230.544273 164.81962 
L 230.848636 166.296753 
L 231.457364 167.543671 
L 232.674818 167.457903 
L 233.283545 167.428423 
L 233.892273 169.098557 
L 234.501 169.098557 
L 235.414091 169.781872 
L 235.718455 170.259707 
L 236.022818 170.144459 
L 236.327182 169.781872 
L 236.631545 169.781872 
L 236.935909 170.144459 
L 237.544636 170.144459 
L 237.849 169.87146 
L 238.153364 169.81625 
L 238.457727 170.853842 
L 238.762091 170.853842 
L 239.066455 171.21643 
L 239.370818 170.416804 
L 239.675182 171.238052 
L 239.979545 171.41241 
L 240.283909 171.068544 
L 240.588273 171.335212 
L 240.892636 171.083411 
L 241.197 171.625877 
L 241.805727 171.083411 
L 242.110091 171.510397 
L 242.414455 172.923044 
L 242.718818 171.510397 
L 243.023182 171.510397 
L 243.327545 171.779864 
L 243.631909 171.779864 
L 243.936273 171.992386 
L 244.240636 171.951712 
L 244.545 172.419932 
L 244.849364 172.17503 
L 245.153727 172.419932 
L 245.458091 173.630491 
L 246.066818 173.630491 
L 246.371182 173.941833 
L 246.675545 173.941833 
L 246.979909 174.638736 
L 247.284273 174.875377 
L 247.588636 174.898928 
L 247.893 175.594764 
L 248.806091 175.695939 
L 249.110455 176.136517 
L 249.414818 175.973267 
L 249.719182 176.347845 
L 250.023545 176.247603 
L 250.327909 176.574784 
L 250.632273 176.574784 
L 250.936636 176.385335 
L 251.241 175.757197 
L 251.545364 176.893386 
L 251.849727 177.04862 
L 252.154091 177.426698 
L 252.458455 177.426698 
L 252.762818 178.435409 
L 253.067182 178.518877 
L 253.371545 178.37733 
L 253.675909 178.435409 
L 253.980273 178.175351 
L 254.284636 178.78995 
L 254.589 178.592812 
L 255.502091 179.122678 
L 255.806455 178.592812 
L 257.023909 178.527944 
L 257.632636 179.584722 
L 258.241364 179.584722 
L 258.545727 180.036293 
L 259.458818 180.036293 
L 259.763182 180.920713 
L 260.371909 180.347634 
L 261.285 181.257941 
L 261.589364 180.930088 
L 261.893727 181.257941 
L 262.198091 181.414005 
L 262.502455 181.931662 
L 262.806818 180.987247 
L 263.111182 182.338296 
L 263.415545 182.59117 
L 263.719909 181.988149 
L 264.024273 181.988149 
L 264.328636 182.58166 
L 264.937364 182.58166 
L 265.241727 183.822738 
L 266.154818 183.822738 
L 266.459182 184.084011 
L 267.067909 183.990428 
L 267.676636 184.012663 
L 267.981 184.191434 
L 268.589727 184.229087 
L 268.894091 184.05697 
L 269.198455 184.528818 
L 269.502818 184.283611 
L 269.807182 184.768049 
L 271.024636 184.680232 
L 271.329 184.954525 
L 271.633364 185.042342 
L 271.937727 184.768049 
L 272.546455 185.187944 
L 273.155182 185.194207 
L 273.459545 185.385406 
L 273.763909 185.368565 
L 274.068273 185.521388 
L 274.981364 185.571056 
L 275.285727 185.661336 
L 275.590091 188.06613 
L 275.894455 185.922609 
L 276.198818 185.922609 
L 276.503182 186.196903 
L 277.111909 186.301709 
L 277.416273 187.689282 
L 278.633727 187.689282 
L 278.938091 188.171713 
L 279.546818 188.117047 
L 279.851182 188.592417 
L 280.155545 188.85369 
L 280.764273 188.85369 
L 281.068636 190.651165 
L 281.373 188.525433 
L 281.981727 188.601697 
L 282.286091 189.620271 
L 282.590455 189.620271 
L 282.894818 188.867091 
L 283.199182 189.093474 
L 283.503545 190.955013 
L 284.112273 190.955013 
L 284.721 191.308135 
L 285.025364 191.611022 
L 285.329727 191.611022 
L 285.634091 192.053821 
L 285.938455 192.053821 
L 286.547182 192.580108 
L 286.851545 192.278758 
L 287.155909 192.43783 
L 287.460273 192.356709 
L 287.764636 192.773259 
L 288.069 192.43783 
L 288.373364 193.455667 
L 288.982091 193.455667 
L 289.286455 193.05075 
L 289.895182 193.915217 
L 290.199545 193.757017 
L 290.808273 193.658495 
L 291.112636 194.505463 
L 291.417 194.068689 
L 291.721364 194.219739 
L 292.634455 194.184782 
L 293.243182 195.107016 
L 293.547545 195.107016 
L 293.851909 194.57217 
L 294.460636 195.387353 
L 294.765 194.999964 
L 295.373727 194.953558 
L 295.678091 195.835992 
L 295.982455 195.852032 
L 296.591182 197.413742 
L 297.199909 197.413742 
L 297.808636 196.413276 
L 298.113 196.494422 
L 298.417364 197.072069 
L 299.026091 197.166012 
L 299.330455 197.5534 
L 299.634818 197.309371 
L 299.939182 198.016748 
L 300.243545 197.309371 
L 300.547909 197.922805 
L 300.852273 197.891832 
L 301.156636 197.644103 
L 301.461 198.230895 
L 301.765364 198.230895 
L 302.069727 198.443103 
L 302.374091 198.319964 
L 302.678455 198.319964 
L 302.982818 199.176569 
L 303.287182 199.086871 
L 303.895909 199.143602 
L 304.809 199.215826 
L 305.113364 199.621693 
L 306.939545 199.677088 
L 307.243909 199.933035 
L 307.852636 199.824934 
L 308.461364 199.897728 
L 308.765727 199.897728 
L 309.070091 199.574893 
L 309.374455 199.71358 
L 309.678818 199.574893 
L 309.983182 199.870255 
L 310.287545 199.870255 
L 310.591909 200.052328 
L 310.896273 199.92565 
L 313.331182 199.997874 
L 313.635545 200.207048 
L 313.939909 201.343529 
L 315.766091 201.343529 
L 316.070455 201.624927 
L 316.679182 201.624927 
L 316.983545 201.343529 
L 317.592273 201.343529 
L 317.896636 202.082352 
L 318.201 201.82162 
L 318.505364 203.008013 
L 319.722818 202.760132 
L 320.027182 202.977526 
L 321.244636 203.060818 
L 321.549 203.242333 
L 322.766455 203.319181 
L 323.070818 203.70657 
L 323.679545 203.70657 
L 323.983909 204.445393 
L 324.288273 203.70657 
L 324.592636 203.751385 
L 324.897 204.032783 
L 325.201364 203.751385 
L 325.505727 204.267332 
L 325.810091 205.223985 
L 326.418818 205.223985 
L 326.723182 205.44036 
L 327.027545 204.996296 
L 327.331909 205.311801 
L 327.636273 205.311801 
L 327.940636 205.61129 
L 328.549364 205.721758 
L 328.853727 205.44036 
L 329.462455 205.54546 
L 329.766818 205.806734 
L 330.984273 205.706322 
L 331.288636 206.606435 
L 331.897364 206.82548 
L 332.201727 206.709766 
L 332.506091 207.077838 
L 332.810455 205.836826 
L 333.114818 205.836826 
L 333.419182 205.702617 
L 333.723545 207.053097 
L 334.027909 207.220348 
L 334.941 208.583777 
L 335.245364 207.16117 
L 335.549727 208.530996 
L 335.854091 208.358702 
L 336.158455 208.723091 
L 336.767182 210.036063 
L 337.071545 209.424341 
L 337.375909 209.424341 
L 337.680273 212.218264 
L 337.984636 212.589832 
L 338.289 212.589832 
L 338.593364 213.469057 
L 339.202091 213.574593 
L 339.506455 214.480853 
L 339.810818 213.574593 
L 340.115182 214.029453 
L 340.419545 215.016128 
L 340.723909 216.56322 
L 341.028273 216.390926 
L 341.332636 217.874854 
L 341.637 216.542865 
L 341.941364 216.250018 
L 342.245727 216.443163 
L 342.550091 216.443163 
L 343.463182 217.106827 
L 343.767545 217.677678 
L 344.071909 216.939494 
L 344.376273 217.833126 
L 344.680636 218.109897 
L 344.985 218.565172 
L 346.202455 218.593607 
L 346.506818 218.88 
L 346.506818 218.88 
" clip-path="url(#p9391244603)" style="fill: none; stroke: #1f77b4; stroke-width: 1.5; stroke-linecap: square"/>
   </g>
   <g id="patch_3">
    <path d="M 26.925 228.96 
L 26.925 7.2 
" style="fill: none; stroke: #000000; stroke-width: 0.8; stroke-linejoin: miter; stroke-linecap: square"/>
   </g>
   <g id="patch_4">
    <path d="M 361.725 228.96 
L 361.725 7.2 
" style="fill: none; stroke: #000000; stroke-width: 0.8; stroke-linejoin: miter; stroke-linecap: square"/>
   </g>
   <g id="patch_5">
    <path d="M 26.925 228.96 
L 361.725 228.96 
" style="fill: none; stroke: #000000; stroke-width: 0.8; stroke-linejoin: miter; stroke-linecap: square"/>
   </g>
   <g id="patch_6">
    <path d="M 26.925 7.2 
L 361.725 7.2 
" style="fill: none; stroke: #000000; stroke-width: 0.8; stroke-linejoin: miter; stroke-linecap: square"/>
   </g>
  </g>
 </g>
 <defs>
  <clipPath id="p9391244603">
   <rect x="26.925" y="7.2" width="334.8" height="221.76"/>
  </clipPath>
 </defs>
</svg>
