<?xml version="1.0" encoding="utf-8" standalone="no"?>
<!DOCTYPE svg PUBLIC "-//W3C//DTD SVG 1.1//EN"
  "http://www.w3.org/Graphics/SVG/1.1/DTD/svg11.dtd">
<svg xmlns:xlink="http://www.w3.org/1999/xlink" width="378.465625pt" height="252.838125pt" viewBox="0 0 378.465625 252.838125" xmlns="http://www.w3.org/2000/svg" version="1.1">
 <metadata>
  <rdf:RDF xmlns:dc="http://purl.org/dc/elements/1.1/" xmlns:cc="http://creativecommons.org/ns#" xmlns:rdf="http://www.w3.org/1999/02/22-rdf-syntax-ns#">
   <cc:Work>
    <dc:type rdf:resource="http://purl.org/dc/dcmitype/StillImage"/>
    <dc:date>2023-04-19T16:55:17.066940</dc:date>
    <dc:format>image/svg+xml</dc:format>
    <dc:creator>
     <cc:Agent>
      <dc:title>Matplotlib v3.6.2, https://matplotlib.org/</dc:title>
     </cc:Agent>
    </dc:creator>
   </cc:Work>
  </rdf:RDF>
 </metadata>
 <defs>
  <style type="text/css">*{stroke-linejoin: round; stroke-linecap: butt}</style>
 </defs>
 <g id="figure_1">
  <g id="patch_1">
   <path d="M 0 252.838125 
L 378.465625 252.838125 
L 378.465625 0 
L 0 0 
z
" style="fill: #ffffff"/>
  </g>
  <g id="axes_1">
   <g id="patch_2">
    <path d="M 36.465625 228.96 
L 371.265625 228.96 
L 371.265625 7.2 
L 36.465625 7.2 
z
" style="fill: #ffffff"/>
   </g>
   <g id="matplotlib.axis_1">
    <g id="xtick_1">
     <g id="line2d_1">
      <defs>
       <path id="mb15f1fbad2" d="M 0 0 
L 0 3.5 
" style="stroke: #000000; stroke-width: 0.8"/>
      </defs>
      <g>
       <use xlink:href="#mb15f1fbad2" x="46.814904" y="228.96" style="stroke: #000000; stroke-width: 0.8"/>
      </g>
     </g>
     <g id="text_1">
      <!-- 0 -->
      <g transform="translate(43.633654 243.558437) scale(0.1 -0.1)">
       <defs>
        <path id="DejaVuSans-30" d="M 2034 4250 
Q 1547 4250 1301 3770 
Q 1056 3291 1056 2328 
Q 1056 1369 1301 889 
Q 1547 409 2034 409 
Q 2525 409 2770 889 
Q 3016 1369 3016 2328 
Q 3016 3291 2770 3770 
Q 2525 4250 2034 4250 
z
M 2034 4750 
Q 2819 4750 3233 4129 
Q 3647 3509 3647 2328 
Q 3647 1150 3233 529 
Q 2819 -91 2034 -91 
Q 1250 -91 836 529 
Q 422 1150 422 2328 
Q 422 3509 836 4129 
Q 1250 4750 2034 4750 
z
" transform="scale(0.015625)"/>
       </defs>
       <use xlink:href="#DejaVuSans-30"/>
      </g>
     </g>
    </g>
    <g id="xtick_2">
     <g id="line2d_2">
      <g>
       <use xlink:href="#mb15f1fbad2" x="85.476012" y="228.96" style="stroke: #000000; stroke-width: 0.8"/>
      </g>
     </g>
     <g id="text_2">
      <!-- 10 -->
      <g transform="translate(79.113512 243.558437) scale(0.1 -0.1)">
       <defs>
        <path id="DejaVuSans-31" d="M 794 531 
L 1825 531 
L 1825 4091 
L 703 3866 
L 703 4441 
L 1819 4666 
L 2450 4666 
L 2450 531 
L 3481 531 
L 3481 0 
L 794 0 
L 794 531 
z
" transform="scale(0.015625)"/>
       </defs>
       <use xlink:href="#DejaVuSans-31"/>
       <use xlink:href="#DejaVuSans-30" x="63.623047"/>
      </g>
     </g>
    </g>
    <g id="xtick_3">
     <g id="line2d_3">
      <g>
       <use xlink:href="#mb15f1fbad2" x="124.13712" y="228.96" style="stroke: #000000; stroke-width: 0.8"/>
      </g>
     </g>
     <g id="text_3">
      <!-- 20 -->
      <g transform="translate(117.77462 243.558437) scale(0.1 -0.1)">
       <defs>
        <path id="DejaVuSans-32" d="M 1228 531 
L 3431 531 
L 3431 0 
L 469 0 
L 469 531 
Q 828 903 1448 1529 
Q 2069 2156 2228 2338 
Q 2531 2678 2651 2914 
Q 2772 3150 2772 3378 
Q 2772 3750 2511 3984 
Q 2250 4219 1831 4219 
Q 1534 4219 1204 4116 
Q 875 4013 500 3803 
L 500 4441 
Q 881 4594 1212 4672 
Q 1544 4750 1819 4750 
Q 2544 4750 2975 4387 
Q 3406 4025 3406 3419 
Q 3406 3131 3298 2873 
Q 3191 2616 2906 2266 
Q 2828 2175 2409 1742 
Q 1991 1309 1228 531 
z
" transform="scale(0.015625)"/>
       </defs>
       <use xlink:href="#DejaVuSans-32"/>
       <use xlink:href="#DejaVuSans-30" x="63.623047"/>
      </g>
     </g>
    </g>
    <g id="xtick_4">
     <g id="line2d_4">
      <g>
       <use xlink:href="#mb15f1fbad2" x="162.798228" y="228.96" style="stroke: #000000; stroke-width: 0.8"/>
      </g>
     </g>
     <g id="text_4">
      <!-- 30 -->
      <g transform="translate(156.435728 243.558437) scale(0.1 -0.1)">
       <defs>
        <path id="DejaVuSans-33" d="M 2597 2516 
Q 3050 2419 3304 2112 
Q 3559 1806 3559 1356 
Q 3559 666 3084 287 
Q 2609 -91 1734 -91 
Q 1441 -91 1130 -33 
Q 819 25 488 141 
L 488 750 
Q 750 597 1062 519 
Q 1375 441 1716 441 
Q 2309 441 2620 675 
Q 2931 909 2931 1356 
Q 2931 1769 2642 2001 
Q 2353 2234 1838 2234 
L 1294 2234 
L 1294 2753 
L 1863 2753 
Q 2328 2753 2575 2939 
Q 2822 3125 2822 3475 
Q 2822 3834 2567 4026 
Q 2313 4219 1838 4219 
Q 1578 4219 1281 4162 
Q 984 4106 628 3988 
L 628 4550 
Q 988 4650 1302 4700 
Q 1616 4750 1894 4750 
Q 2613 4750 3031 4423 
Q 3450 4097 3450 3541 
Q 3450 3153 3228 2886 
Q 3006 2619 2597 2516 
z
" transform="scale(0.015625)"/>
       </defs>
       <use xlink:href="#DejaVuSans-33"/>
       <use xlink:href="#DejaVuSans-30" x="63.623047"/>
      </g>
     </g>
    </g>
    <g id="xtick_5">
     <g id="line2d_5">
      <g>
       <use xlink:href="#mb15f1fbad2" x="201.459336" y="228.96" style="stroke: #000000; stroke-width: 0.8"/>
      </g>
     </g>
     <g id="text_5">
      <!-- 40 -->
      <g transform="translate(195.096836 243.558437) scale(0.1 -0.1)">
       <defs>
        <path id="DejaVuSans-34" d="M 2419 4116 
L 825 1625 
L 2419 1625 
L 2419 4116 
z
M 2253 4666 
L 3047 4666 
L 3047 1625 
L 3713 1625 
L 3713 1100 
L 3047 1100 
L 3047 0 
L 2419 0 
L 2419 1100 
L 313 1100 
L 313 1709 
L 2253 4666 
z
" transform="scale(0.015625)"/>
       </defs>
       <use xlink:href="#DejaVuSans-34"/>
       <use xlink:href="#DejaVuSans-30" x="63.623047"/>
      </g>
     </g>
    </g>
    <g id="xtick_6">
     <g id="line2d_6">
      <g>
       <use xlink:href="#mb15f1fbad2" x="240.120444" y="228.96" style="stroke: #000000; stroke-width: 0.8"/>
      </g>
     </g>
     <g id="text_6">
      <!-- 50 -->
      <g transform="translate(233.757944 243.558437) scale(0.1 -0.1)">
       <defs>
        <path id="DejaVuSans-35" d="M 691 4666 
L 3169 4666 
L 3169 4134 
L 1269 4134 
L 1269 2991 
Q 1406 3038 1543 3061 
Q 1681 3084 1819 3084 
Q 2600 3084 3056 2656 
Q 3513 2228 3513 1497 
Q 3513 744 3044 326 
Q 2575 -91 1722 -91 
Q 1428 -91 1123 -41 
Q 819 9 494 109 
L 494 744 
Q 775 591 1075 516 
Q 1375 441 1709 441 
Q 2250 441 2565 725 
Q 2881 1009 2881 1497 
Q 2881 1984 2565 2268 
Q 2250 2553 1709 2553 
Q 1456 2553 1204 2497 
Q 953 2441 691 2322 
L 691 4666 
z
" transform="scale(0.015625)"/>
       </defs>
       <use xlink:href="#DejaVuSans-35"/>
       <use xlink:href="#DejaVuSans-30" x="63.623047"/>
      </g>
     </g>
    </g>
    <g id="xtick_7">
     <g id="line2d_7">
      <g>
       <use xlink:href="#mb15f1fbad2" x="278.781552" y="228.96" style="stroke: #000000; stroke-width: 0.8"/>
      </g>
     </g>
     <g id="text_7">
      <!-- 60 -->
      <g transform="translate(272.419052 243.558437) scale(0.1 -0.1)">
       <defs>
        <path id="DejaVuSans-36" d="M 2113 2584 
Q 1688 2584 1439 2293 
Q 1191 2003 1191 1497 
Q 1191 994 1439 701 
Q 1688 409 2113 409 
Q 2538 409 2786 701 
Q 3034 994 3034 1497 
Q 3034 2003 2786 2293 
Q 2538 2584 2113 2584 
z
M 3366 4563 
L 3366 3988 
Q 3128 4100 2886 4159 
Q 2644 4219 2406 4219 
Q 1781 4219 1451 3797 
Q 1122 3375 1075 2522 
Q 1259 2794 1537 2939 
Q 1816 3084 2150 3084 
Q 2853 3084 3261 2657 
Q 3669 2231 3669 1497 
Q 3669 778 3244 343 
Q 2819 -91 2113 -91 
Q 1303 -91 875 529 
Q 447 1150 447 2328 
Q 447 3434 972 4092 
Q 1497 4750 2381 4750 
Q 2619 4750 2861 4703 
Q 3103 4656 3366 4563 
z
" transform="scale(0.015625)"/>
       </defs>
       <use xlink:href="#DejaVuSans-36"/>
       <use xlink:href="#DejaVuSans-30" x="63.623047"/>
      </g>
     </g>
    </g>
    <g id="xtick_8">
     <g id="line2d_8">
      <g>
       <use xlink:href="#mb15f1fbad2" x="317.44266" y="228.96" style="stroke: #000000; stroke-width: 0.8"/>
      </g>
     </g>
     <g id="text_8">
      <!-- 70 -->
      <g transform="translate(311.08016 243.558437) scale(0.1 -0.1)">
       <defs>
        <path id="DejaVuSans-37" d="M 525 4666 
L 3525 4666 
L 3525 4397 
L 1831 0 
L 1172 0 
L 2766 4134 
L 525 4134 
L 525 4666 
z
" transform="scale(0.015625)"/>
       </defs>
       <use xlink:href="#DejaVuSans-37"/>
       <use xlink:href="#DejaVuSans-30" x="63.623047"/>
      </g>
     </g>
    </g>
    <g id="xtick_9">
     <g id="line2d_9">
      <g>
       <use xlink:href="#mb15f1fbad2" x="356.103768" y="228.96" style="stroke: #000000; stroke-width: 0.8"/>
      </g>
     </g>
     <g id="text_9">
      <!-- 80 -->
      <g transform="translate(349.741268 243.558437) scale(0.1 -0.1)">
       <defs>
        <path id="DejaVuSans-38" d="M 2034 2216 
Q 1584 2216 1326 1975 
Q 1069 1734 1069 1313 
Q 1069 891 1326 650 
Q 1584 409 2034 409 
Q 2484 409 2743 651 
Q 3003 894 3003 1313 
Q 3003 1734 2745 1975 
Q 2488 2216 2034 2216 
z
M 1403 2484 
Q 997 2584 770 2862 
Q 544 3141 544 3541 
Q 544 4100 942 4425 
Q 1341 4750 2034 4750 
Q 2731 4750 3128 4425 
Q 3525 4100 3525 3541 
Q 3525 3141 3298 2862 
Q 3072 2584 2669 2484 
Q 3125 2378 3379 2068 
Q 3634 1759 3634 1313 
Q 3634 634 3220 271 
Q 2806 -91 2034 -91 
Q 1263 -91 848 271 
Q 434 634 434 1313 
Q 434 1759 690 2068 
Q 947 2378 1403 2484 
z
M 1172 3481 
Q 1172 3119 1398 2916 
Q 1625 2713 2034 2713 
Q 2441 2713 2670 2916 
Q 2900 3119 2900 3481 
Q 2900 3844 2670 4047 
Q 2441 4250 2034 4250 
Q 1625 4250 1398 4047 
Q 1172 3844 1172 3481 
z
" transform="scale(0.015625)"/>
       </defs>
       <use xlink:href="#DejaVuSans-38"/>
       <use xlink:href="#DejaVuSans-30" x="63.623047"/>
      </g>
     </g>
    </g>
   </g>
   <g id="matplotlib.axis_2">
    <g id="ytick_1">
     <g id="line2d_10">
      <defs>
       <path id="m2ed7af5528" d="M 0 0 
L -3.5 0 
" style="stroke: #000000; stroke-width: 0.8"/>
      </defs>
      <g>
       <use xlink:href="#m2ed7af5528" x="36.465625" y="205.302006" style="stroke: #000000; stroke-width: 0.8"/>
      </g>
     </g>
     <g id="text_10">
      <!-- 1.50 -->
      <g transform="translate(7.2 209.101225) scale(0.1 -0.1)">
       <defs>
        <path id="DejaVuSans-2e" d="M 684 794 
L 1344 794 
L 1344 0 
L 684 0 
L 684 794 
z
" transform="scale(0.015625)"/>
       </defs>
       <use xlink:href="#DejaVuSans-31"/>
       <use xlink:href="#DejaVuSans-2e" x="63.623047"/>
       <use xlink:href="#DejaVuSans-35" x="95.410156"/>
       <use xlink:href="#DejaVuSans-30" x="159.033203"/>
      </g>
     </g>
    </g>
    <g id="ytick_2">
     <g id="line2d_11">
      <g>
       <use xlink:href="#m2ed7af5528" x="36.465625" y="178.45864" style="stroke: #000000; stroke-width: 0.8"/>
      </g>
     </g>
     <g id="text_11">
      <!-- 1.75 -->
      <g transform="translate(7.2 182.257859) scale(0.1 -0.1)">
       <use xlink:href="#DejaVuSans-31"/>
       <use xlink:href="#DejaVuSans-2e" x="63.623047"/>
       <use xlink:href="#DejaVuSans-37" x="95.410156"/>
       <use xlink:href="#DejaVuSans-35" x="159.033203"/>
      </g>
     </g>
    </g>
    <g id="ytick_3">
     <g id="line2d_12">
      <g>
       <use xlink:href="#m2ed7af5528" x="36.465625" y="151.615273" style="stroke: #000000; stroke-width: 0.8"/>
      </g>
     </g>
     <g id="text_12">
      <!-- 2.00 -->
      <g transform="translate(7.2 155.414492) scale(0.1 -0.1)">
       <use xlink:href="#DejaVuSans-32"/>
       <use xlink:href="#DejaVuSans-2e" x="63.623047"/>
       <use xlink:href="#DejaVuSans-30" x="95.410156"/>
       <use xlink:href="#DejaVuSans-30" x="159.033203"/>
      </g>
     </g>
    </g>
    <g id="ytick_4">
     <g id="line2d_13">
      <g>
       <use xlink:href="#m2ed7af5528" x="36.465625" y="124.771907" style="stroke: #000000; stroke-width: 0.8"/>
      </g>
     </g>
     <g id="text_13">
      <!-- 2.25 -->
      <g transform="translate(7.2 128.571126) scale(0.1 -0.1)">
       <use xlink:href="#DejaVuSans-32"/>
       <use xlink:href="#DejaVuSans-2e" x="63.623047"/>
       <use xlink:href="#DejaVuSans-32" x="95.410156"/>
       <use xlink:href="#DejaVuSans-35" x="159.033203"/>
      </g>
     </g>
    </g>
    <g id="ytick_5">
     <g id="line2d_14">
      <g>
       <use xlink:href="#m2ed7af5528" x="36.465625" y="97.92854" style="stroke: #000000; stroke-width: 0.8"/>
      </g>
     </g>
     <g id="text_14">
      <!-- 2.50 -->
      <g transform="translate(7.2 101.727759) scale(0.1 -0.1)">
       <use xlink:href="#DejaVuSans-32"/>
       <use xlink:href="#DejaVuSans-2e" x="63.623047"/>
       <use xlink:href="#DejaVuSans-35" x="95.410156"/>
       <use xlink:href="#DejaVuSans-30" x="159.033203"/>
      </g>
     </g>
    </g>
    <g id="ytick_6">
     <g id="line2d_15">
      <g>
       <use xlink:href="#m2ed7af5528" x="36.465625" y="71.085174" style="stroke: #000000; stroke-width: 0.8"/>
      </g>
     </g>
     <g id="text_15">
      <!-- 2.75 -->
      <g transform="translate(7.2 74.884393) scale(0.1 -0.1)">
       <use xlink:href="#DejaVuSans-32"/>
       <use xlink:href="#DejaVuSans-2e" x="63.623047"/>
       <use xlink:href="#DejaVuSans-37" x="95.410156"/>
       <use xlink:href="#DejaVuSans-35" x="159.033203"/>
      </g>
     </g>
    </g>
    <g id="ytick_7">
     <g id="line2d_16">
      <g>
       <use xlink:href="#m2ed7af5528" x="36.465625" y="44.241808" style="stroke: #000000; stroke-width: 0.8"/>
      </g>
     </g>
     <g id="text_16">
      <!-- 3.00 -->
      <g transform="translate(7.2 48.041026) scale(0.1 -0.1)">
       <use xlink:href="#DejaVuSans-33"/>
       <use xlink:href="#DejaVuSans-2e" x="63.623047"/>
       <use xlink:href="#DejaVuSans-30" x="95.410156"/>
       <use xlink:href="#DejaVuSans-30" x="159.033203"/>
      </g>
     </g>
    </g>
    <g id="ytick_8">
     <g id="line2d_17">
      <g>
       <use xlink:href="#m2ed7af5528" x="36.465625" y="17.398441" style="stroke: #000000; stroke-width: 0.8"/>
      </g>
     </g>
     <g id="text_17">
      <!-- 3.25 -->
      <g transform="translate(7.2 21.19766) scale(0.1 -0.1)">
       <use xlink:href="#DejaVuSans-33"/>
       <use xlink:href="#DejaVuSans-2e" x="63.623047"/>
       <use xlink:href="#DejaVuSans-32" x="95.410156"/>
       <use xlink:href="#DejaVuSans-35" x="159.033203"/>
      </g>
     </g>
    </g>
   </g>
   <g id="line2d_18">
    <path d="M 51.683807 218.88 
L 52.29981 218.88 
L 52.866152 214.384197 
L 53.092483 214.384197 
L 53.629469 206.9466 
L 54.15847 173.619541 
L 54.726201 179.234657 
L 55.372799 176.018284 
L 57.191437 176.018284 
L 57.748061 178.021599 
L 58.409923 184.795724 
L 58.959049 203.713336 
L 59.303595 205.398955 
L 59.630667 205.398955 
L 59.922967 206.324319 
L 60.235346 203.885045 
L 60.542527 205.409284 
L 60.843083 204.942494 
L 61.114628 204.942494 
L 61.407917 204.695432 
L 61.716256 204.949227 
L 62.030452 204.323954 
L 62.32924 204.076892 
L 63.60973 203.850514 
L 63.921319 203.385579 
L 64.220602 203.850514 
L 64.785755 203.415291 
L 65.102273 202.950357 
L 65.436355 203.188913 
L 65.75804 203.188913 
L 66.048814 202.84385 
L 66.340456 202.971041 
L 66.678386 202.723978 
L 67.639455 202.723978 
L 67.950576 201.826006 
L 68.255005 200.338663 
L 68.558004 202.492463 
L 69.158163 202.492463 
L 69.452362 200.76253 
L 69.75116 200.999569 
L 70.045239 200.768053 
L 70.921837 200.768053 
L 71.212004 199.623019 
L 71.50913 196.675479 
L 71.7976 198.36753 
L 72.06295 198.36753 
L 72.341994 198.162822 
L 72.632661 198.36753 
L 73.186934 198.36753 
L 73.485297 197.617058 
L 73.761241 198.36753 
L 74.072799 197.737297 
L 74.358187 198.162822 
L 74.633728 195.97222 
L 75.474666 195.97222 
L 75.764369 196.698452 
L 76.070863 195.553417 
L 76.360345 197.68359 
L 76.657379 196.538556 
L 76.943868 197.68359 
L 77.266484 200.220949 
L 77.680444 197.171441 
L 78.051409 196.538556 
L 78.91199 196.538556 
L 79.271263 195.619949 
L 79.631411 195.619949 
L 79.947848 195.48315 
L 80.28379 196.160909 
L 80.616256 196.160909 
L 80.927115 197.008718 
L 81.207114 196.568933 
L 81.489252 196.568933 
L 81.778011 195.650327 
L 82.090432 195.650327 
L 82.706558 195.329695 
L 82.997398 195.329695 
L 83.332443 194.127646 
L 83.677165 194.127646 
L 83.99192 193.990846 
L 84.284183 193.990846 
L 84.625665 193.07224 
L 85.579783 193.07224 
L 85.925111 192.830036 
L 86.304466 193.279052 
L 86.616078 192.830036 
L 86.918233 193.367175 
L 87.217946 192.60265 
L 87.570125 192.830036 
L 87.867008 192.360446 
L 88.128323 193.279052 
L 88.419351 193.279052 
L 88.789216 192.442374 
L 89.135127 192.484959 
L 89.430733 192.360446 
L 89.739471 192.484959 
L 90.081064 192.484959 
L 90.385931 193.275118 
L 90.72084 191.943282 
L 91.026127 193.620194 
L 91.336379 193.248658 
L 91.630412 192.15991 
L 91.930891 192.903582 
L 92.232988 192.579359 
L 92.529282 192.579359 
L 92.857009 192.148975 
L 93.259587 191.984976 
L 93.61622 192.115096 
L 93.958854 191.581472 
L 94.302849 191.857497 
L 94.599519 191.814834 
L 94.967179 189.797269 
L 95.287691 189.797269 
L 95.648916 189.563908 
L 95.969735 191.405747 
L 96.271991 192.447005 
L 97.242798 192.447005 
L 97.55811 192.07547 
L 97.915161 192.07547 
L 98.606167 191.838551 
L 98.893137 191.350452 
L 99.259301 191.350452 
L 99.550024 191.842108 
L 100.303525 191.587371 
L 100.60202 191.504534 
L 100.889345 191.013226 
L 101.22637 191.289429 
L 102.130208 191.289429 
L 102.51395 190.917893 
L 102.845922 185.979146 
L 103.148739 190.917893 
L 103.559482 189.969474 
L 103.932605 190.684531 
L 104.232615 190.272675 
L 104.574332 190.190963 
L 104.865266 189.405493 
L 105.222119 189.172132 
L 105.526424 188.110997 
L 105.812856 190.272675 
L 106.087447 188.500068 
L 106.465162 188.500068 
L 106.781716 183.561322 
L 107.117947 188.345987 
L 107.437075 188.345987 
L 107.762726 187.318288 
L 108.029294 187.318288 
L 108.307511 187.766758 
L 108.633088 185.321531 
L 108.949378 187.553404 
L 109.204105 187.553404 
L 109.526592 187.21607 
L 110.483096 187.280739 
L 110.765719 187.164207 
L 111.056122 185.835281 
L 111.593643 185.835281 
L 111.902584 183.743912 
L 112.466541 183.743912 
L 112.745694 180.896534 
L 113.026749 180.909257 
L 113.322394 180.74609 
L 113.64153 180.896534 
L 113.988737 180.28035 
L 114.307812 185.835281 
L 114.617353 186.377704 
L 114.926997 185.876356 
L 115.241784 185.603691 
L 115.610748 183.208652 
L 116.583799 183.208652 
L 116.888318 180.664944 
L 117.264335 180.664944 
L 117.635671 182.267193 
L 117.920677 184.180158 
L 118.221662 182.059062 
L 118.791515 182.059062 
L 119.085721 181.727432 
L 119.365365 182.08315 
L 119.661506 182.08315 
L 119.943492 180.019741 
L 120.240544 178.894341 
L 120.544942 180.019741 
L 120.837483 179.718462 
L 121.402225 179.687802 
L 121.678428 180.019741 
L 121.945035 179.718462 
L 122.227656 181.688733 
L 122.510458 179.513579 
L 122.777792 179.664023 
L 123.074698 179.967161 
L 123.367865 179.967161 
L 123.63734 180.206446 
L 123.925072 177.173432 
L 124.200428 179.513579 
L 124.499205 179.70962 
L 124.778021 178.209687 
L 125.080435 178.209687 
L 125.366566 179.786526 
L 125.657929 180.479393 
L 125.940463 179.167805 
L 126.249567 182.036641 
L 126.537727 182.036641 
L 126.825022 183.137363 
L 127.107987 183.137363 
L 127.393127 176.998004 
L 127.693958 181.825775 
L 128.000683 176.998004 
L 128.337395 176.904866 
L 128.651779 179.728852 
L 128.955809 179.308783 
L 129.584416 179.367949 
L 129.899079 178.44251 
L 130.252777 176.573987 
L 130.559561 177.697063 
L 131.162988 176.783381 
L 131.43532 177.490263 
L 131.738118 177.490263 
L 132.040955 177.095846 
L 132.30327 177.85026 
L 132.588563 177.85026 
L 132.873293 175.280689 
L 133.940784 175.280689 
L 134.240593 172.342784 
L 134.527185 175.280689 
L 135.102675 170.773803 
L 135.386157 175.280689 
L 135.679468 174.155289 
L 135.976624 172.206547 
L 136.246463 173.680652 
L 136.528102 172.332204 
L 136.847048 172.247908 
L 137.154203 174.155289 
L 137.437658 171.589082 
L 137.714348 170.579798 
L 138.01427 170.579798 
L 138.284751 172.230253 
L 138.603071 170.346303 
L 138.929641 172.52307 
L 139.228484 171.370103 
L 139.51214 168.81935 
L 139.798332 171.504785 
L 140.853213 174.417081 
L 141.170079 172.463748 
L 141.522978 172.153627 
L 141.83611 168.315225 
L 144.473879 168.315225 
L 144.781842 167.700673 
L 145.064038 170.091894 
L 145.362699 170.091894 
L 145.674863 167.855743 
L 145.953371 163.664734 
L 146.263742 163.664734 
L 146.582832 165.734183 
L 146.861547 166.525122 
L 147.17986 165.91057 
L 147.502265 168.022445 
L 147.827808 165.772859 
L 149.033602 165.772859 
L 149.333074 167.477916 
L 149.650517 166.948411 
L 149.961035 167.030908 
L 150.260461 167.866651 
L 150.559892 169.3767 
L 151.432872 169.3767 
L 151.731481 170.281396 
L 152.014493 157.13184 
L 152.30536 157.13184 
L 152.598356 167.679204 
L 152.905418 167.679204 
L 153.193124 163.004526 
L 153.486607 162.741538 
L 153.779253 161.98442 
L 154.06553 164.862841 
L 154.361872 164.381702 
L 154.668102 162.625738 
L 155.283105 161.357207 
L 155.591832 164.970001 
L 156.173918 157.847402 
L 156.456206 159.166382 
L 157.034662 159.166382 
L 157.327325 156.758488 
L 157.640979 159.166382 
L 158.333867 155.460043 
L 158.649287 159.022173 
L 158.977973 157.30636 
L 159.275091 157.681991 
L 159.565804 157.010168 
L 160.225336 157.898851 
L 160.550998 151.751345 
L 160.871606 156.821274 
L 161.169115 156.06791 
L 161.462997 156.06791 
L 161.778587 156.821274 
L 162.08819 153.335892 
L 162.446346 154.619463 
L 162.811683 154.004911 
L 163.464962 154.004911 
L 163.752586 153.251547 
L 164.040115 153.251547 
L 164.702829 150.444255 
L 165.292747 150.444255 
L 165.597598 151.200609 
L 165.899924 149.194314 
L 166.181323 148.601056 
L 166.478228 153.251547 
L 167.055554 153.251547 
L 167.340638 149.444645 
L 167.635243 150.852537 
L 168.708955 150.838489 
L 169.011609 147.642733 
L 169.288372 150.838489 
L 169.878286 149.082525 
L 170.154077 150.063127 
L 170.454592 149.753006 
L 172.232837 149.753006 
L 172.571249 148.730933 
L 172.859835 149.753006 
L 173.161013 148.67743 
L 173.763589 148.67743 
L 174.061117 147.997042 
L 174.354605 147.997042 
L 175.029586 149.563728 
L 175.607341 149.563728 
L 175.900732 148.488152 
L 176.51696 149.313284 
L 176.829987 149.313284 
L 177.170027 146.671135 
L 177.473219 149.241517 
L 178.045087 149.156207 
L 178.368417 148.033107 
L 178.671149 148.905763 
L 178.953673 147.549516 
L 179.529336 147.004974 
L 179.818274 147.004974 
L 180.13869 146.75453 
L 180.455978 146.116213 
L 180.837204 145.871281 
L 181.265681 145.871281 
L 181.624812 144.934996 
L 182.026256 142.309994 
L 182.38635 142.309994 
L 182.680442 144.006549 
L 183.075377 140.810794 
L 183.438438 140.653716 
L 183.759268 143.984207 
L 184.111861 140.810794 
L 184.727906 140.873937 
L 185.0262 140.873937 
L 185.338416 140.466415 
L 185.641642 140.466415 
L 185.939511 139.323462 
L 186.235457 139.545238 
L 186.53696 139.522895 
L 186.81861 136.602616 
L 187.132786 136.602616 
L 187.438274 136.413115 
L 187.731082 136.602616 
L 188.041089 136.403182 
L 188.678859 136.413115 
L 189.020998 136.213681 
L 191.269911 136.162671 
L 191.613907 135.690592 
L 191.936413 133.49574 
L 192.239528 133.49574 
L 192.536951 132.10677 
L 192.842289 132.10677 
L 193.178965 133.045862 
L 193.482502 139.979279 
L 193.785029 136.487679 
L 194.090606 130.226138 
L 194.395187 130.226138 
L 194.693511 136.200966 
L 195.006947 135.206192 
L 195.311415 136.200966 
L 195.607061 133.00521 
L 195.914661 126.956751 
L 196.219828 125.567781 
L 196.513807 135.462277 
L 196.81214 135.462277 
L 197.120117 123.948152 
L 197.437579 135.255526 
L 197.734482 131.477213 
L 198.03656 134.529408 
L 198.626687 134.529408 
L 198.927351 133.140438 
L 199.23258 129.611534 
L 199.533931 128.495209 
L 199.846205 128.495209 
L 200.15179 123.75302 
L 200.457947 129.611534 
L 200.74956 129.884179 
L 201.066446 129.884179 
L 201.363344 133.327883 
L 201.98297 133.327883 
L 202.281793 132.79538 
L 202.586956 132.79538 
L 202.884496 133.327883 
L 203.186451 133.327883 
L 203.495025 133.013231 
L 204.389628 133.097245 
L 204.692294 129.624349 
L 205.262336 128.938924 
L 205.561979 128.938924 
L 205.856434 130.86112 
L 206.159711 128.291764 
L 206.454568 128.291764 
L 206.731486 132.782593 
L 207.034526 131.393623 
L 207.328494 131.393623 
L 207.619257 125.660769 
L 208.200132 125.660769 
L 208.494146 124.965897 
L 209.384732 124.965897 
L 209.684846 125.582364 
L 209.978683 124.700367 
L 210.275263 125.366916 
L 210.578737 124.489388 
L 210.886897 124.406513 
L 211.182559 124.188576 
L 211.493711 123.76396 
L 211.786951 131.284641 
L 212.403082 119.382142 
L 212.712746 123.046546 
L 213.032118 123.046546 
L 213.329398 121.827852 
L 213.629296 121.827852 
L 213.937576 127.674174 
L 214.22083 126.480656 
L 214.529574 126.480656 
L 214.836818 127.674174 
L 215.136337 116.632898 
L 215.455357 116.810837 
L 215.748254 116.810837 
L 216.054771 115.617319 
L 216.346612 116.210624 
L 216.650812 122.191231 
L 216.941988 110.284675 
L 217.2267 117.989301 
L 217.8235 117.989301 
L 218.119431 121.98738 
L 218.433178 121.98738 
L 219.01642 109.811843 
L 219.31459 109.811843 
L 219.596031 121.802219 
L 219.887358 111.680698 
L 220.193813 111.680698 
L 220.492741 111.492094 
L 221.417217 111.492094 
L 221.711486 111.314239 
L 221.992889 111.314239 
L 222.290977 111.492094 
L 222.610592 110.103124 
L 222.925313 110.103124 
L 223.222231 108.708734 
L 223.516086 111.081201 
L 223.809624 110.681675 
L 224.149177 111.092567 
L 224.45262 110.430012 
L 224.740808 115.854731 
L 225.019616 108.758242 
L 225.314871 108.492103 
L 225.616977 108.758242 
L 225.914462 108.163518 
L 226.215273 108.263856 
L 226.507814 108.05391 
L 227.062284 108.05391 
L 227.348264 109.76641 
L 227.617751 107.080701 
L 227.91812 107.080701 
L 228.195534 107.851755 
L 228.475014 107.851755 
L 228.777105 107.19885 
L 230.24376 107.252258 
L 230.552091 106.097935 
L 230.818037 106.097935 
L 231.132444 105.753833 
L 232.609453 105.753833 
L 232.899922 104.964644 
L 233.189706 103.426695 
L 233.497139 103.426695 
L 233.779755 103.991435 
L 234.381226 103.036911 
L 234.660978 103.036911 
L 234.969694 103.426695 
L 235.275941 104.574861 
L 235.570864 104.106286 
L 236.143322 104.106286 
L 236.443022 102.681415 
L 236.73977 102.681415 
L 237.042757 102.937281 
L 237.341703 102.937281 
L 237.625411 102.390711 
L 237.920013 102.164196 
L 238.204701 102.164196 
L 238.488539 100.852761 
L 238.776167 100.699472 
L 239.081311 106.423171 
L 239.380312 100.674691 
L 239.681146 106.150538 
L 239.966051 100.360924 
L 240.290804 98.3002 
L 240.891006 101.750056 
L 241.19201 98.569531 
L 241.478423 98.569531 
L 241.776388 99.176365 
L 242.083342 100.653031 
L 242.384439 98.203156 
L 242.676156 98.203156 
L 242.969331 98.716521 
L 243.55807 98.716521 
L 243.847081 97.898338 
L 244.14597 97.898338 
L 244.454942 97.720268 
L 244.738656 99.697956 
L 245.025824 97.276015 
L 245.315646 91.508834 
L 246.205537 91.508834 
L 246.51155 97.414726 
L 246.806299 93.471847 
L 247.105884 93.471847 
L 247.403799 94.992785 
L 247.689608 86.518285 
L 248.282314 86.518285 
L 248.591704 89.234859 
L 248.878987 87.506469 
L 249.16182 88.729504 
L 249.459422 84.235056 
L 250.032564 88.729504 
L 250.318915 88.729504 
L 250.619397 86.457776 
L 251.181193 86.457776 
L 251.466138 87.995725 
L 251.760418 88.157904 
L 252.062783 86.58768 
L 252.373186 86.58768 
L 252.67642 84.315952 
L 252.958251 87.332788 
L 253.243512 83.850615 
L 253.529025 83.268019 
L 253.809496 86.324215 
L 254.096871 85.691509 
L 254.393754 85.887222 
L 254.604395 83.40292 
L 254.916351 83.953639 
L 255.204659 85.887222 
L 255.486518 84.883556 
L 255.782488 83.373708 
L 256.081462 84.883556 
L 256.382929 84.883556 
L 256.686671 83.937204 
L 256.981737 83.937204 
L 257.290051 81.400069 
L 257.570448 83.931729 
L 257.832048 80.617926 
L 258.130343 83.633433 
L 258.413609 80.617926 
L 258.699697 84.615189 
L 259.252631 84.615189 
L 259.541856 84.33142 
L 259.830454 84.33142 
L 260.417085 79.688899 
L 260.691417 79.951239 
L 260.994984 80.551176 
L 261.566475 80.551176 
L 262.123931 79.302626 
L 262.442405 75.499932 
L 262.724028 75.755584 
L 263.025345 80.67409 
L 263.320419 79.853583 
L 263.899105 79.803109 
L 264.161278 82.826453 
L 264.449388 77.547527 
L 264.746046 79.693287 
L 265.051384 78.202039 
L 265.32865 78.202039 
L 265.619908 76.240311 
L 265.913689 75.45393 
L 266.199287 77.184301 
L 266.49596 76.240311 
L 266.794838 79.3849 
L 267.077374 77.099151 
L 267.370081 78.113898 
L 267.668695 78.280623 
L 268.218155 77.140946 
L 268.49684 78.113898 
L 269.380458 78.113898 
L 269.664555 79.190865 
L 269.94503 76.167521 
L 270.226796 78.529495 
L 270.824006 78.529495 
L 271.120684 78.333223 
L 271.966932 78.333223 
L 272.265969 69.700042 
L 272.569203 75.309879 
L 272.838439 78.049454 
L 273.118426 75.309879 
L 273.411648 74.487134 
L 273.990555 72.361841 
L 274.287364 73.215161 
L 274.566377 76.142228 
L 274.834531 75.36569 
L 275.11816 75.032195 
L 275.683143 73.818739 
L 275.971303 76.117466 
L 276.264269 76.117466 
L 276.563793 74.267498 
L 277.152525 74.267498 
L 277.449318 73.731124 
L 278.293811 73.731124 
L 278.59531 73.125394 
L 279.195952 73.011903 
L 279.753206 73.023645 
L 280.05578 74.158916 
L 280.341195 74.158916 
L 280.630964 70.03762 
L 280.89955 71.948361 
L 281.194816 71.800109 
L 281.454813 70.380628 
L 281.71189 74.118027 
L 282.62474 74.118027 
L 282.939082 74.723628 
L 283.498033 73.425557 
L 283.786163 74.118027 
L 284.084379 73.415748 
L 284.402977 73.325846 
L 284.99092 73.360225 
L 285.262121 72.657946 
L 285.554808 72.77763 
L 285.835874 72.539718 
L 286.70043 72.448784 
L 286.990167 71.917153 
L 287.283288 70.953259 
L 287.575969 71.16119 
L 287.882489 71.16119 
L 288.171968 70.403776 
L 288.475411 71.098966 
L 288.761434 71.098966 
L 289.053593 71.8647 
L 290.239328 71.8647 
L 290.53229 67.172963 
L 290.800621 71.187352 
L 291.107691 71.187352 
L 291.425668 68.459603 
L 291.724321 67.70364 
L 292.342048 67.70364 
L 292.654375 60.028109 
L 292.948992 69.11247 
L 293.251357 69.439882 
L 293.568181 69.439882 
L 293.863865 63.107842 
L 294.16662 63.107842 
L 294.461163 67.935198 
L 294.776275 67.469872 
L 295.078656 64.263983 
L 295.663354 64.263983 
L 295.970373 62.959285 
L 296.570239 61.601722 
L 296.870265 61.601722 
L 297.151408 61.949292 
L 297.446481 61.949292 
L 297.750335 59.681619 
L 298.055495 59.455636 
L 298.337248 59.681619 
L 298.63264 60.86816 
L 298.94039 61.294008 
L 299.247026 57.17233 
L 299.516444 60.86816 
L 299.836782 57.0017 
L 300.42167 57.0017 
L 300.727243 58.549247 
L 301.019855 57.724355 
L 301.304401 56.192442 
L 301.591169 57.005088 
L 301.882786 57.005088 
L 302.171016 58.673853 
L 302.466062 55.951287 
L 302.737084 56.124964 
L 303.042073 58.220809 
L 303.336741 56.180197 
L 303.916128 56.180197 
L 304.213208 55.003399 
L 304.499412 49.04892 
L 304.798568 49.04892 
L 305.114905 54.163072 
L 305.422809 53.67137 
L 305.720028 51.456521 
L 306.334633 56.114902 
L 306.642011 56.114902 
L 306.945775 49.23043 
L 307.249032 53.366153 
L 307.559887 48.925212 
L 307.85854 48.713592 
L 308.450991 48.713592 
L 308.749157 46.425233 
L 309.043066 52.913108 
L 309.360088 53.394455 
L 309.677496 47.748414 
L 309.941527 48.71209 
L 310.248323 48.71209 
L 310.544594 46.497241 
L 310.829462 50.258317 
L 311.125474 43.621632 
L 311.435126 50.258317 
L 311.749711 42.657956 
L 312.07552 46.363036 
L 312.387959 46.361534 
L 312.677652 42.058422 
L 312.978782 42.058422 
L 313.267095 39.927095 
L 313.575312 44.285834 
L 313.868734 44.285834 
L 314.166993 43.598973 
L 314.458657 44.677951 
L 314.757635 44.924006 
L 315.625291 44.924006 
L 315.926646 44.698286 
L 316.222484 42.57345 
L 316.537526 42.57345 
L 316.846688 42.36183 
L 318.323541 42.263444 
L 318.619805 42.013232 
L 318.910433 42.224852 
L 319.837939 42.187531 
L 320.131962 44.505324 
L 320.419713 44.053782 
L 320.695749 44.505324 
L 320.979876 44.256347 
L 321.294129 44.256347 
L 321.585959 41.288955 
L 321.886271 44.044727 
L 322.193318 44.044727 
L 322.48998 43.804805 
L 322.79084 44.044727 
L 323.083938 44.044727 
L 323.393489 43.831767 
L 323.689796 44.044727 
L 323.974192 44.044727 
L 324.254589 43.831767 
L 324.555797 42.190387 
L 324.855359 42.790359 
L 326.621321 42.790359 
L 326.922881 40.936019 
L 327.485253 40.936019 
L 327.764047 42.790359 
L 328.359513 42.790359 
L 328.655654 37.228191 
L 328.979247 40.439803 
L 329.253432 36.30441 
L 329.545207 37.159988 
L 329.822735 41.200595 
L 330.413095 41.200595 
L 330.716925 39.708686 
L 331.308095 39.708686 
L 331.598671 39.51663 
L 331.902243 39.468764 
L 332.170636 38.936558 
L 332.729371 38.936558 
L 332.998294 38.77161 
L 333.309457 38.77161 
L 333.590597 36.556761 
L 334.156023 36.556761 
L 334.464779 30.994593 
L 334.749015 36.556761 
L 335.03191 38.160688 
L 335.330783 36.306347 
L 335.633226 38.160688 
L 335.926168 34.334942 
L 336.201918 33.959977 
L 336.793975 33.959977 
L 337.082294 31.617943 
L 337.373528 37.260011 
L 337.654343 33.228839 
L 337.94867 33.228839 
L 338.234047 31.925307 
L 338.53608 31.313986 
L 338.816291 29.575021 
L 339.026159 31.617943 
L 339.3076 31.617943 
L 339.602631 33.293396 
L 339.87883 32.37511 
L 340.734953 32.37511 
L 341.015436 34.114432 
L 341.318546 32.077694 
L 341.887146 31.488916 
L 342.21616 31.713246 
L 342.494355 30.493681 
L 342.775393 29.769287 
L 343.064501 29.769287 
L 343.367709 30.901675 
L 343.695896 32.746986 
L 344.32127 30.93032 
L 344.59956 26.573487 
L 344.887953 31.924002 
L 345.179187 35.186641 
L 345.455114 32.577155 
L 345.760592 35.665569 
L 346.063443 32.827941 
L 346.369407 28.758193 
L 346.67117 35.375772 
L 346.950476 32.303444 
L 347.220558 32.303444 
L 347.51511 24.88454 
L 347.833404 23.294776 
L 348.132589 23.294776 
L 348.422292 30.143404 
L 348.7231 30.485745 
L 349.01208 30.485745 
L 349.317502 26.140727 
L 349.616577 30.485745 
L 349.908345 28.627692 
L 350.208919 20.279217 
L 350.521378 19.651836 
L 350.812945 22.740251 
L 351.101419 19.417631 
L 351.392166 23.665803 
L 351.687019 24.943717 
L 352.289386 24.952708 
L 352.847501 29.972597 
L 353.443238 17.28 
L 353.72877 27.503827 
L 354.012743 20.466638 
L 354.298345 25.772669 
L 354.597191 21.270011 
L 354.881527 21.270011 
L 355.19108 25.507975 
L 355.459125 25.507975 
L 355.743492 23.897079 
L 356.047443 21.355763 
L 356.047443 21.355763 
" clip-path="url(#p0d8a9ce376)" style="fill: none; stroke: #1f77b4; stroke-width: 1.5; stroke-linecap: square"/>
   </g>
   <g id="patch_3">
    <path d="M 36.465625 228.96 
L 36.465625 7.2 
" style="fill: none; stroke: #000000; stroke-width: 0.8; stroke-linejoin: miter; stroke-linecap: square"/>
   </g>
   <g id="patch_4">
    <path d="M 371.265625 228.96 
L 371.265625 7.2 
" style="fill: none; stroke: #000000; stroke-width: 0.8; stroke-linejoin: miter; stroke-linecap: square"/>
   </g>
   <g id="patch_5">
    <path d="M 36.465625 228.96 
L 371.265625 228.96 
" style="fill: none; stroke: #000000; stroke-width: 0.8; stroke-linejoin: miter; stroke-linecap: square"/>
   </g>
   <g id="patch_6">
    <path d="M 36.465625 7.2 
L 371.265625 7.2 
" style="fill: none; stroke: #000000; stroke-width: 0.8; stroke-linejoin: miter; stroke-linecap: square"/>
   </g>
   <g id="legend_1">
    <g id="patch_7">
     <path d="M 43.465625 29.878125 
L 196.854688 29.878125 
Q 198.854688 29.878125 198.854688 27.878125 
L 198.854688 14.2 
Q 198.854688 12.2 196.854688 12.2 
L 43.465625 12.2 
Q 41.465625 12.2 41.465625 14.2 
L 41.465625 27.878125 
Q 41.465625 29.878125 43.465625 29.878125 
z
" style="fill: #ffffff; opacity: 0.8; stroke: #cccccc; stroke-linejoin: miter"/>
    </g>
    <g id="line2d_19">
     <path d="M 45.465625 20.298437 
L 55.465625 20.298437 
L 65.465625 20.298437 
" style="fill: none; stroke: #1f77b4; stroke-width: 1.5; stroke-linecap: square"/>
    </g>
    <g id="text_18">
     <!-- node storage proportion -->
     <g transform="translate(73.465625 23.798437) scale(0.1 -0.1)">
      <defs>
       <path id="DejaVuSans-6e" d="M 3513 2113 
L 3513 0 
L 2938 0 
L 2938 2094 
Q 2938 2591 2744 2837 
Q 2550 3084 2163 3084 
Q 1697 3084 1428 2787 
Q 1159 2491 1159 1978 
L 1159 0 
L 581 0 
L 581 3500 
L 1159 3500 
L 1159 2956 
Q 1366 3272 1645 3428 
Q 1925 3584 2291 3584 
Q 2894 3584 3203 3211 
Q 3513 2838 3513 2113 
z
" transform="scale(0.015625)"/>
       <path id="DejaVuSans-6f" d="M 1959 3097 
Q 1497 3097 1228 2736 
Q 959 2375 959 1747 
Q 959 1119 1226 758 
Q 1494 397 1959 397 
Q 2419 397 2687 759 
Q 2956 1122 2956 1747 
Q 2956 2369 2687 2733 
Q 2419 3097 1959 3097 
z
M 1959 3584 
Q 2709 3584 3137 3096 
Q 3566 2609 3566 1747 
Q 3566 888 3137 398 
Q 2709 -91 1959 -91 
Q 1206 -91 779 398 
Q 353 888 353 1747 
Q 353 2609 779 3096 
Q 1206 3584 1959 3584 
z
" transform="scale(0.015625)"/>
       <path id="DejaVuSans-64" d="M 2906 2969 
L 2906 4863 
L 3481 4863 
L 3481 0 
L 2906 0 
L 2906 525 
Q 2725 213 2448 61 
Q 2172 -91 1784 -91 
Q 1150 -91 751 415 
Q 353 922 353 1747 
Q 353 2572 751 3078 
Q 1150 3584 1784 3584 
Q 2172 3584 2448 3432 
Q 2725 3281 2906 2969 
z
M 947 1747 
Q 947 1113 1208 752 
Q 1469 391 1925 391 
Q 2381 391 2643 752 
Q 2906 1113 2906 1747 
Q 2906 2381 2643 2742 
Q 2381 3103 1925 3103 
Q 1469 3103 1208 2742 
Q 947 2381 947 1747 
z
" transform="scale(0.015625)"/>
       <path id="DejaVuSans-65" d="M 3597 1894 
L 3597 1613 
L 953 1613 
Q 991 1019 1311 708 
Q 1631 397 2203 397 
Q 2534 397 2845 478 
Q 3156 559 3463 722 
L 3463 178 
Q 3153 47 2828 -22 
Q 2503 -91 2169 -91 
Q 1331 -91 842 396 
Q 353 884 353 1716 
Q 353 2575 817 3079 
Q 1281 3584 2069 3584 
Q 2775 3584 3186 3129 
Q 3597 2675 3597 1894 
z
M 3022 2063 
Q 3016 2534 2758 2815 
Q 2500 3097 2075 3097 
Q 1594 3097 1305 2825 
Q 1016 2553 972 2059 
L 3022 2063 
z
" transform="scale(0.015625)"/>
       <path id="DejaVuSans-20" transform="scale(0.015625)"/>
       <path id="DejaVuSans-73" d="M 2834 3397 
L 2834 2853 
Q 2591 2978 2328 3040 
Q 2066 3103 1784 3103 
Q 1356 3103 1142 2972 
Q 928 2841 928 2578 
Q 928 2378 1081 2264 
Q 1234 2150 1697 2047 
L 1894 2003 
Q 2506 1872 2764 1633 
Q 3022 1394 3022 966 
Q 3022 478 2636 193 
Q 2250 -91 1575 -91 
Q 1294 -91 989 -36 
Q 684 19 347 128 
L 347 722 
Q 666 556 975 473 
Q 1284 391 1588 391 
Q 1994 391 2212 530 
Q 2431 669 2431 922 
Q 2431 1156 2273 1281 
Q 2116 1406 1581 1522 
L 1381 1569 
Q 847 1681 609 1914 
Q 372 2147 372 2553 
Q 372 3047 722 3315 
Q 1072 3584 1716 3584 
Q 2034 3584 2315 3537 
Q 2597 3491 2834 3397 
z
" transform="scale(0.015625)"/>
       <path id="DejaVuSans-74" d="M 1172 4494 
L 1172 3500 
L 2356 3500 
L 2356 3053 
L 1172 3053 
L 1172 1153 
Q 1172 725 1289 603 
Q 1406 481 1766 481 
L 2356 481 
L 2356 0 
L 1766 0 
Q 1100 0 847 248 
Q 594 497 594 1153 
L 594 3053 
L 172 3053 
L 172 3500 
L 594 3500 
L 594 4494 
L 1172 4494 
z
" transform="scale(0.015625)"/>
       <path id="DejaVuSans-72" d="M 2631 2963 
Q 2534 3019 2420 3045 
Q 2306 3072 2169 3072 
Q 1681 3072 1420 2755 
Q 1159 2438 1159 1844 
L 1159 0 
L 581 0 
L 581 3500 
L 1159 3500 
L 1159 2956 
Q 1341 3275 1631 3429 
Q 1922 3584 2338 3584 
Q 2397 3584 2469 3576 
Q 2541 3569 2628 3553 
L 2631 2963 
z
" transform="scale(0.015625)"/>
       <path id="DejaVuSans-61" d="M 2194 1759 
Q 1497 1759 1228 1600 
Q 959 1441 959 1056 
Q 959 750 1161 570 
Q 1363 391 1709 391 
Q 2188 391 2477 730 
Q 2766 1069 2766 1631 
L 2766 1759 
L 2194 1759 
z
M 3341 1997 
L 3341 0 
L 2766 0 
L 2766 531 
Q 2569 213 2275 61 
Q 1981 -91 1556 -91 
Q 1019 -91 701 211 
Q 384 513 384 1019 
Q 384 1609 779 1909 
Q 1175 2209 1959 2209 
L 2766 2209 
L 2766 2266 
Q 2766 2663 2505 2880 
Q 2244 3097 1772 3097 
Q 1472 3097 1187 3025 
Q 903 2953 641 2809 
L 641 3341 
Q 956 3463 1253 3523 
Q 1550 3584 1831 3584 
Q 2591 3584 2966 3190 
Q 3341 2797 3341 1997 
z
" transform="scale(0.015625)"/>
       <path id="DejaVuSans-67" d="M 2906 1791 
Q 2906 2416 2648 2759 
Q 2391 3103 1925 3103 
Q 1463 3103 1205 2759 
Q 947 2416 947 1791 
Q 947 1169 1205 825 
Q 1463 481 1925 481 
Q 2391 481 2648 825 
Q 2906 1169 2906 1791 
z
M 3481 434 
Q 3481 -459 3084 -895 
Q 2688 -1331 1869 -1331 
Q 1566 -1331 1297 -1286 
Q 1028 -1241 775 -1147 
L 775 -588 
Q 1028 -725 1275 -790 
Q 1522 -856 1778 -856 
Q 2344 -856 2625 -561 
Q 2906 -266 2906 331 
L 2906 616 
Q 2728 306 2450 153 
Q 2172 0 1784 0 
Q 1141 0 747 490 
Q 353 981 353 1791 
Q 353 2603 747 3093 
Q 1141 3584 1784 3584 
Q 2172 3584 2450 3431 
Q 2728 3278 2906 2969 
L 2906 3500 
L 3481 3500 
L 3481 434 
z
" transform="scale(0.015625)"/>
       <path id="DejaVuSans-70" d="M 1159 525 
L 1159 -1331 
L 581 -1331 
L 581 3500 
L 1159 3500 
L 1159 2969 
Q 1341 3281 1617 3432 
Q 1894 3584 2278 3584 
Q 2916 3584 3314 3078 
Q 3713 2572 3713 1747 
Q 3713 922 3314 415 
Q 2916 -91 2278 -91 
Q 1894 -91 1617 61 
Q 1341 213 1159 525 
z
M 3116 1747 
Q 3116 2381 2855 2742 
Q 2594 3103 2138 3103 
Q 1681 3103 1420 2742 
Q 1159 2381 1159 1747 
Q 1159 1113 1420 752 
Q 1681 391 2138 391 
Q 2594 391 2855 752 
Q 3116 1113 3116 1747 
z
" transform="scale(0.015625)"/>
       <path id="DejaVuSans-69" d="M 603 3500 
L 1178 3500 
L 1178 0 
L 603 0 
L 603 3500 
z
M 603 4863 
L 1178 4863 
L 1178 4134 
L 603 4134 
L 603 4863 
z
" transform="scale(0.015625)"/>
      </defs>
      <use xlink:href="#DejaVuSans-6e"/>
      <use xlink:href="#DejaVuSans-6f" x="63.378906"/>
      <use xlink:href="#DejaVuSans-64" x="124.560547"/>
      <use xlink:href="#DejaVuSans-65" x="188.037109"/>
      <use xlink:href="#DejaVuSans-20" x="249.560547"/>
      <use xlink:href="#DejaVuSans-73" x="281.347656"/>
      <use xlink:href="#DejaVuSans-74" x="333.447266"/>
      <use xlink:href="#DejaVuSans-6f" x="372.65625"/>
      <use xlink:href="#DejaVuSans-72" x="433.837891"/>
      <use xlink:href="#DejaVuSans-61" x="474.951172"/>
      <use xlink:href="#DejaVuSans-67" x="536.230469"/>
      <use xlink:href="#DejaVuSans-65" x="599.707031"/>
      <use xlink:href="#DejaVuSans-20" x="661.230469"/>
      <use xlink:href="#DejaVuSans-70" x="693.017578"/>
      <use xlink:href="#DejaVuSans-72" x="756.494141"/>
      <use xlink:href="#DejaVuSans-6f" x="795.357422"/>
      <use xlink:href="#DejaVuSans-70" x="856.539062"/>
      <use xlink:href="#DejaVuSans-6f" x="920.015625"/>
      <use xlink:href="#DejaVuSans-72" x="981.197266"/>
      <use xlink:href="#DejaVuSans-74" x="1022.310547"/>
      <use xlink:href="#DejaVuSans-69" x="1061.519531"/>
      <use xlink:href="#DejaVuSans-6f" x="1089.302734"/>
      <use xlink:href="#DejaVuSans-6e" x="1150.484375"/>
     </g>
    </g>
   </g>
  </g>
 </g>
 <defs>
  <clipPath id="p0d8a9ce376">
   <rect x="36.465625" y="7.2" width="334.8" height="221.76"/>
  </clipPath>
 </defs>
</svg>
