<?xml version="1.0" encoding="utf-8" standalone="no"?>
<!DOCTYPE svg PUBLIC "-//W3C//DTD SVG 1.1//EN"
  "http://www.w3.org/Graphics/SVG/1.1/DTD/svg11.dtd">
<svg xmlns:xlink="http://www.w3.org/1999/xlink" width="378.465625pt" height="255.651593pt" viewBox="0 0 378.465625 255.651593" xmlns="http://www.w3.org/2000/svg" version="1.1">
 <metadata>
  <rdf:RDF xmlns:dc="http://purl.org/dc/elements/1.1/" xmlns:cc="http://creativecommons.org/ns#" xmlns:rdf="http://www.w3.org/1999/02/22-rdf-syntax-ns#">
   <cc:Work>
    <dc:type rdf:resource="http://purl.org/dc/dcmitype/StillImage"/>
    <dc:date>2023-04-19T15:40:43.397452</dc:date>
    <dc:format>image/svg+xml</dc:format>
    <dc:creator>
     <cc:Agent>
      <dc:title>Matplotlib v3.6.2, https://matplotlib.org/</dc:title>
     </cc:Agent>
    </dc:creator>
   </cc:Work>
  </rdf:RDF>
 </metadata>
 <defs>
  <style type="text/css">*{stroke-linejoin: round; stroke-linecap: butt}</style>
 </defs>
 <g id="figure_1">
  <g id="patch_1">
   <path d="M 0 255.651593 
L 378.465625 255.651593 
L 378.465625 0 
L 0 0 
z
" style="fill: #ffffff"/>
  </g>
  <g id="axes_1">
   <g id="patch_2">
    <path d="M 36.465625 231.773468 
L 371.265625 231.773468 
L 371.265625 10.013468 
L 36.465625 10.013468 
z
" style="fill: #ffffff"/>
   </g>
   <g id="matplotlib.axis_1">
    <g id="xtick_1">
     <g id="line2d_1">
      <defs>
       <path id="m0fd87edd33" d="M 0 0 
L 0 3.5 
" style="stroke: #000000; stroke-width: 0.8"/>
      </defs>
      <g>
       <use xlink:href="#m0fd87edd33" x="51.683807" y="231.773468" style="stroke: #000000; stroke-width: 0.8"/>
      </g>
     </g>
     <g id="text_1">
      <!-- 0 -->
      <g transform="translate(48.502557 246.371906) scale(0.1 -0.1)">
       <defs>
        <path id="DejaVuSans-30" d="M 2034 4250 
Q 1547 4250 1301 3770 
Q 1056 3291 1056 2328 
Q 1056 1369 1301 889 
Q 1547 409 2034 409 
Q 2525 409 2770 889 
Q 3016 1369 3016 2328 
Q 3016 3291 2770 3770 
Q 2525 4250 2034 4250 
z
M 2034 4750 
Q 2819 4750 3233 4129 
Q 3647 3509 3647 2328 
Q 3647 1150 3233 529 
Q 2819 -91 2034 -91 
Q 1250 -91 836 529 
Q 422 1150 422 2328 
Q 422 3509 836 4129 
Q 1250 4750 2034 4750 
z
" transform="scale(0.015625)"/>
       </defs>
       <use xlink:href="#DejaVuSans-30"/>
      </g>
     </g>
    </g>
    <g id="xtick_2">
     <g id="line2d_2">
      <g>
       <use xlink:href="#m0fd87edd33" x="112.556534" y="231.773468" style="stroke: #000000; stroke-width: 0.8"/>
      </g>
     </g>
     <g id="text_2">
      <!-- 200 -->
      <g transform="translate(103.012784 246.371906) scale(0.1 -0.1)">
       <defs>
        <path id="DejaVuSans-32" d="M 1228 531 
L 3431 531 
L 3431 0 
L 469 0 
L 469 531 
Q 828 903 1448 1529 
Q 2069 2156 2228 2338 
Q 2531 2678 2651 2914 
Q 2772 3150 2772 3378 
Q 2772 3750 2511 3984 
Q 2250 4219 1831 4219 
Q 1534 4219 1204 4116 
Q 875 4013 500 3803 
L 500 4441 
Q 881 4594 1212 4672 
Q 1544 4750 1819 4750 
Q 2544 4750 2975 4387 
Q 3406 4025 3406 3419 
Q 3406 3131 3298 2873 
Q 3191 2616 2906 2266 
Q 2828 2175 2409 1742 
Q 1991 1309 1228 531 
z
" transform="scale(0.015625)"/>
       </defs>
       <use xlink:href="#DejaVuSans-32"/>
       <use xlink:href="#DejaVuSans-30" x="63.623047"/>
       <use xlink:href="#DejaVuSans-30" x="127.246094"/>
      </g>
     </g>
    </g>
    <g id="xtick_3">
     <g id="line2d_3">
      <g>
       <use xlink:href="#m0fd87edd33" x="173.429261" y="231.773468" style="stroke: #000000; stroke-width: 0.8"/>
      </g>
     </g>
     <g id="text_3">
      <!-- 400 -->
      <g transform="translate(163.885511 246.371906) scale(0.1 -0.1)">
       <defs>
        <path id="DejaVuSans-34" d="M 2419 4116 
L 825 1625 
L 2419 1625 
L 2419 4116 
z
M 2253 4666 
L 3047 4666 
L 3047 1625 
L 3713 1625 
L 3713 1100 
L 3047 1100 
L 3047 0 
L 2419 0 
L 2419 1100 
L 313 1100 
L 313 1709 
L 2253 4666 
z
" transform="scale(0.015625)"/>
       </defs>
       <use xlink:href="#DejaVuSans-34"/>
       <use xlink:href="#DejaVuSans-30" x="63.623047"/>
       <use xlink:href="#DejaVuSans-30" x="127.246094"/>
      </g>
     </g>
    </g>
    <g id="xtick_4">
     <g id="line2d_4">
      <g>
       <use xlink:href="#m0fd87edd33" x="234.301989" y="231.773468" style="stroke: #000000; stroke-width: 0.8"/>
      </g>
     </g>
     <g id="text_4">
      <!-- 600 -->
      <g transform="translate(224.758239 246.371906) scale(0.1 -0.1)">
       <defs>
        <path id="DejaVuSans-36" d="M 2113 2584 
Q 1688 2584 1439 2293 
Q 1191 2003 1191 1497 
Q 1191 994 1439 701 
Q 1688 409 2113 409 
Q 2538 409 2786 701 
Q 3034 994 3034 1497 
Q 3034 2003 2786 2293 
Q 2538 2584 2113 2584 
z
M 3366 4563 
L 3366 3988 
Q 3128 4100 2886 4159 
Q 2644 4219 2406 4219 
Q 1781 4219 1451 3797 
Q 1122 3375 1075 2522 
Q 1259 2794 1537 2939 
Q 1816 3084 2150 3084 
Q 2853 3084 3261 2657 
Q 3669 2231 3669 1497 
Q 3669 778 3244 343 
Q 2819 -91 2113 -91 
Q 1303 -91 875 529 
Q 447 1150 447 2328 
Q 447 3434 972 4092 
Q 1497 4750 2381 4750 
Q 2619 4750 2861 4703 
Q 3103 4656 3366 4563 
z
" transform="scale(0.015625)"/>
       </defs>
       <use xlink:href="#DejaVuSans-36"/>
       <use xlink:href="#DejaVuSans-30" x="63.623047"/>
       <use xlink:href="#DejaVuSans-30" x="127.246094"/>
      </g>
     </g>
    </g>
    <g id="xtick_5">
     <g id="line2d_5">
      <g>
       <use xlink:href="#m0fd87edd33" x="295.174716" y="231.773468" style="stroke: #000000; stroke-width: 0.8"/>
      </g>
     </g>
     <g id="text_5">
      <!-- 800 -->
      <g transform="translate(285.630966 246.371906) scale(0.1 -0.1)">
       <defs>
        <path id="DejaVuSans-38" d="M 2034 2216 
Q 1584 2216 1326 1975 
Q 1069 1734 1069 1313 
Q 1069 891 1326 650 
Q 1584 409 2034 409 
Q 2484 409 2743 651 
Q 3003 894 3003 1313 
Q 3003 1734 2745 1975 
Q 2488 2216 2034 2216 
z
M 1403 2484 
Q 997 2584 770 2862 
Q 544 3141 544 3541 
Q 544 4100 942 4425 
Q 1341 4750 2034 4750 
Q 2731 4750 3128 4425 
Q 3525 4100 3525 3541 
Q 3525 3141 3298 2862 
Q 3072 2584 2669 2484 
Q 3125 2378 3379 2068 
Q 3634 1759 3634 1313 
Q 3634 634 3220 271 
Q 2806 -91 2034 -91 
Q 1263 -91 848 271 
Q 434 634 434 1313 
Q 434 1759 690 2068 
Q 947 2378 1403 2484 
z
M 1172 3481 
Q 1172 3119 1398 2916 
Q 1625 2713 2034 2713 
Q 2441 2713 2670 2916 
Q 2900 3119 2900 3481 
Q 2900 3844 2670 4047 
Q 2441 4250 2034 4250 
Q 1625 4250 1398 4047 
Q 1172 3844 1172 3481 
z
" transform="scale(0.015625)"/>
       </defs>
       <use xlink:href="#DejaVuSans-38"/>
       <use xlink:href="#DejaVuSans-30" x="63.623047"/>
       <use xlink:href="#DejaVuSans-30" x="127.246094"/>
      </g>
     </g>
    </g>
    <g id="xtick_6">
     <g id="line2d_6">
      <g>
       <use xlink:href="#m0fd87edd33" x="356.047443" y="231.773468" style="stroke: #000000; stroke-width: 0.8"/>
      </g>
     </g>
     <g id="text_6">
      <!-- 1000 -->
      <g transform="translate(343.322443 246.371906) scale(0.1 -0.1)">
       <defs>
        <path id="DejaVuSans-31" d="M 794 531 
L 1825 531 
L 1825 4091 
L 703 3866 
L 703 4441 
L 1819 4666 
L 2450 4666 
L 2450 531 
L 3481 531 
L 3481 0 
L 794 0 
L 794 531 
z
" transform="scale(0.015625)"/>
       </defs>
       <use xlink:href="#DejaVuSans-31"/>
       <use xlink:href="#DejaVuSans-30" x="63.623047"/>
       <use xlink:href="#DejaVuSans-30" x="127.246094"/>
       <use xlink:href="#DejaVuSans-30" x="190.869141"/>
      </g>
     </g>
    </g>
   </g>
   <g id="matplotlib.axis_2">
    <g id="ytick_1">
     <g id="line2d_7">
      <defs>
       <path id="m1de726b75c" d="M 0 0 
L -3.5 0 
" style="stroke: #000000; stroke-width: 0.8"/>
      </defs>
      <g>
       <use xlink:href="#m1de726b75c" x="36.465625" y="208.102684" style="stroke: #000000; stroke-width: 0.8"/>
      </g>
     </g>
     <g id="text_7">
      <!-- 72.5 -->
      <g transform="translate(7.2 211.901903) scale(0.1 -0.1)">
       <defs>
        <path id="DejaVuSans-37" d="M 525 4666 
L 3525 4666 
L 3525 4397 
L 1831 0 
L 1172 0 
L 2766 4134 
L 525 4134 
L 525 4666 
z
" transform="scale(0.015625)"/>
        <path id="DejaVuSans-2e" d="M 684 794 
L 1344 794 
L 1344 0 
L 684 0 
L 684 794 
z
" transform="scale(0.015625)"/>
        <path id="DejaVuSans-35" d="M 691 4666 
L 3169 4666 
L 3169 4134 
L 1269 4134 
L 1269 2991 
Q 1406 3038 1543 3061 
Q 1681 3084 1819 3084 
Q 2600 3084 3056 2656 
Q 3513 2228 3513 1497 
Q 3513 744 3044 326 
Q 2575 -91 1722 -91 
Q 1428 -91 1123 -41 
Q 819 9 494 109 
L 494 744 
Q 775 591 1075 516 
Q 1375 441 1709 441 
Q 2250 441 2565 725 
Q 2881 1009 2881 1497 
Q 2881 1984 2565 2268 
Q 2250 2553 1709 2553 
Q 1456 2553 1204 2497 
Q 953 2441 691 2322 
L 691 4666 
z
" transform="scale(0.015625)"/>
       </defs>
       <use xlink:href="#DejaVuSans-37"/>
       <use xlink:href="#DejaVuSans-32" x="63.623047"/>
       <use xlink:href="#DejaVuSans-2e" x="127.246094"/>
       <use xlink:href="#DejaVuSans-35" x="159.033203"/>
      </g>
     </g>
    </g>
    <g id="ytick_2">
     <g id="line2d_8">
      <g>
       <use xlink:href="#m1de726b75c" x="36.465625" y="179.945047" style="stroke: #000000; stroke-width: 0.8"/>
      </g>
     </g>
     <g id="text_8">
      <!-- 75.0 -->
      <g transform="translate(7.2 183.744265) scale(0.1 -0.1)">
       <use xlink:href="#DejaVuSans-37"/>
       <use xlink:href="#DejaVuSans-35" x="63.623047"/>
       <use xlink:href="#DejaVuSans-2e" x="127.246094"/>
       <use xlink:href="#DejaVuSans-30" x="159.033203"/>
      </g>
     </g>
    </g>
    <g id="ytick_3">
     <g id="line2d_9">
      <g>
       <use xlink:href="#m1de726b75c" x="36.465625" y="151.787409" style="stroke: #000000; stroke-width: 0.8"/>
      </g>
     </g>
     <g id="text_9">
      <!-- 77.5 -->
      <g transform="translate(7.2 155.586627) scale(0.1 -0.1)">
       <use xlink:href="#DejaVuSans-37"/>
       <use xlink:href="#DejaVuSans-37" x="63.623047"/>
       <use xlink:href="#DejaVuSans-2e" x="127.246094"/>
       <use xlink:href="#DejaVuSans-35" x="159.033203"/>
      </g>
     </g>
    </g>
    <g id="ytick_4">
     <g id="line2d_10">
      <g>
       <use xlink:href="#m1de726b75c" x="36.465625" y="123.629771" style="stroke: #000000; stroke-width: 0.8"/>
      </g>
     </g>
     <g id="text_10">
      <!-- 80.0 -->
      <g transform="translate(7.2 127.428989) scale(0.1 -0.1)">
       <use xlink:href="#DejaVuSans-38"/>
       <use xlink:href="#DejaVuSans-30" x="63.623047"/>
       <use xlink:href="#DejaVuSans-2e" x="127.246094"/>
       <use xlink:href="#DejaVuSans-30" x="159.033203"/>
      </g>
     </g>
    </g>
    <g id="ytick_5">
     <g id="line2d_11">
      <g>
       <use xlink:href="#m1de726b75c" x="36.465625" y="95.472133" style="stroke: #000000; stroke-width: 0.8"/>
      </g>
     </g>
     <g id="text_11">
      <!-- 82.5 -->
      <g transform="translate(7.2 99.271351) scale(0.1 -0.1)">
       <use xlink:href="#DejaVuSans-38"/>
       <use xlink:href="#DejaVuSans-32" x="63.623047"/>
       <use xlink:href="#DejaVuSans-2e" x="127.246094"/>
       <use xlink:href="#DejaVuSans-35" x="159.033203"/>
      </g>
     </g>
    </g>
    <g id="ytick_6">
     <g id="line2d_12">
      <g>
       <use xlink:href="#m1de726b75c" x="36.465625" y="67.314495" style="stroke: #000000; stroke-width: 0.8"/>
      </g>
     </g>
     <g id="text_12">
      <!-- 85.0 -->
      <g transform="translate(7.2 71.113713) scale(0.1 -0.1)">
       <use xlink:href="#DejaVuSans-38"/>
       <use xlink:href="#DejaVuSans-35" x="63.623047"/>
       <use xlink:href="#DejaVuSans-2e" x="127.246094"/>
       <use xlink:href="#DejaVuSans-30" x="159.033203"/>
      </g>
     </g>
    </g>
    <g id="ytick_7">
     <g id="line2d_13">
      <g>
       <use xlink:href="#m1de726b75c" x="36.465625" y="39.156857" style="stroke: #000000; stroke-width: 0.8"/>
      </g>
     </g>
     <g id="text_13">
      <!-- 87.5 -->
      <g transform="translate(7.2 42.956075) scale(0.1 -0.1)">
       <use xlink:href="#DejaVuSans-38"/>
       <use xlink:href="#DejaVuSans-37" x="63.623047"/>
       <use xlink:href="#DejaVuSans-2e" x="127.246094"/>
       <use xlink:href="#DejaVuSans-35" x="159.033203"/>
      </g>
     </g>
    </g>
    <g id="ytick_8">
     <g id="line2d_14">
      <g>
       <use xlink:href="#m1de726b75c" x="36.465625" y="10.999219" style="stroke: #000000; stroke-width: 0.8"/>
      </g>
     </g>
     <g id="text_14">
      <!-- 90.0 -->
      <g transform="translate(7.2 14.798438) scale(0.1 -0.1)">
       <defs>
        <path id="DejaVuSans-39" d="M 703 97 
L 703 672 
Q 941 559 1184 500 
Q 1428 441 1663 441 
Q 2288 441 2617 861 
Q 2947 1281 2994 2138 
Q 2813 1869 2534 1725 
Q 2256 1581 1919 1581 
Q 1219 1581 811 2004 
Q 403 2428 403 3163 
Q 403 3881 828 4315 
Q 1253 4750 1959 4750 
Q 2769 4750 3195 4129 
Q 3622 3509 3622 2328 
Q 3622 1225 3098 567 
Q 2575 -91 1691 -91 
Q 1453 -91 1209 -44 
Q 966 3 703 97 
z
M 1959 2075 
Q 2384 2075 2632 2365 
Q 2881 2656 2881 3163 
Q 2881 3666 2632 3958 
Q 2384 4250 1959 4250 
Q 1534 4250 1286 3958 
Q 1038 3666 1038 3163 
Q 1038 2656 1286 2365 
Q 1534 2075 1959 2075 
z
" transform="scale(0.015625)"/>
       </defs>
       <use xlink:href="#DejaVuSans-39"/>
       <use xlink:href="#DejaVuSans-30" x="63.623047"/>
       <use xlink:href="#DejaVuSans-2e" x="127.246094"/>
       <use xlink:href="#DejaVuSans-30" x="159.033203"/>
      </g>
     </g>
    </g>
   </g>
   <g id="line2d_15">
    <path d="M 51.683807 34.311428 
L 51.98817 26.269141 
L 52.292534 34.755087 
L 52.596898 34.755087 
L 52.901261 34.192958 
L 53.205625 39.093697 
L 53.509989 33.363683 
L 54.118716 47.722169 
L 54.727443 47.927149 
L 55.031807 47.927149 
L 55.33617 45.524855 
L 55.640534 35.411721 
L 55.944898 35.462007 
L 56.249261 36.617612 
L 56.553625 30.857691 
L 56.857989 32.825233 
L 57.162352 28.556719 
L 57.466716 27.603201 
L 58.075443 27.603201 
L 58.379807 26.543 
L 58.68417 28.868078 
L 58.988534 28.868078 
L 59.597261 30.984026 
L 59.901625 37.677667 
L 60.205989 38.554096 
L 60.510352 37.883992 
L 60.814716 38.161325 
L 61.11908 38.630715 
L 61.423443 34.840755 
L 61.727807 34.709677 
L 62.03217 34.115591 
L 62.336534 34.419472 
L 62.640898 20.093468 
L 63.249625 23.279052 
L 63.553989 22.81626 
L 63.858352 24.259478 
L 64.162716 25.140238 
L 64.771443 25.140238 
L 65.075807 25.898384 
L 65.988898 25.898384 
L 66.293261 25.304213 
L 66.597625 25.304213 
L 66.901989 26.699864 
L 67.206352 25.898384 
L 67.510716 25.704906 
L 68.119443 28.2776 
L 68.423807 28.889868 
L 68.72817 27.893558 
L 69.336898 27.893558 
L 69.641261 29.837321 
L 69.945625 29.460574 
L 70.249989 30.433402 
L 70.554352 30.575112 
L 70.858716 29.465925 
L 72.07617 29.465925 
L 72.380534 30.651465 
L 72.684898 30.651465 
L 72.989261 31.563004 
L 73.293625 31.563004 
L 73.597989 28.289306 
L 73.902352 29.652984 
L 74.206716 35.576422 
L 74.51108 35.973528 
L 74.815443 40.41729 
L 75.119807 42.190578 
L 75.42417 41.209485 
L 76.337261 41.209485 
L 76.945989 44.354523 
L 77.250352 44.345815 
L 77.554716 47.496784 
L 78.163443 47.496784 
L 78.467807 49.626954 
L 78.77217 50.55767 
L 79.076534 48.664989 
L 79.685261 48.664989 
L 79.989625 47.214786 
L 80.293989 47.214786 
L 80.598352 46.93766 
L 80.902716 48.1232 
L 81.20708 47.616536 
L 81.815807 47.616536 
L 82.12017 49.574527 
L 82.424534 49.878145 
L 83.033261 49.72871 
L 83.337625 49.72871 
L 83.946352 51.235089 
L 84.250716 51.235089 
L 84.55508 53.969762 
L 84.859443 51.000783 
L 85.163807 51.000783 
L 85.46817 52.1481 
L 85.772534 56.553499 
L 86.076898 56.553499 
L 86.381261 56.79068 
L 86.685625 56.553499 
L 86.989989 59.743042 
L 87.294352 60.802592 
L 87.90308 63.81713 
L 88.207443 56.442667 
L 88.511807 56.442667 
L 88.81617 57.451499 
L 89.120534 58.046114 
L 89.729261 58.046114 
L 90.033625 58.374257 
L 90.337989 58.046114 
L 90.642352 60.361539 
L 90.946716 65.370482 
L 91.25108 65.370482 
L 91.555443 66.771419 
L 91.859807 66.974501 
L 92.468534 66.974501 
L 92.772898 62.085743 
L 93.077261 64.440771 
L 93.381625 62.423595 
L 93.685989 63.730915 
L 93.990352 62.338782 
L 94.294716 62.594003 
L 94.59908 62.676675 
L 94.903443 63.071407 
L 95.207807 63.255988 
L 95.51217 63.650719 
L 95.816534 62.92969 
L 96.120898 64.031891 
L 96.425261 64.235887 
L 97.033989 65.386382 
L 97.338352 67.109142 
L 97.642716 67.109142 
L 97.94708 67.684036 
L 98.251443 67.907232 
L 98.555807 68.921026 
L 98.86017 71.805974 
L 99.164534 70.959876 
L 99.468898 71.845383 
L 99.773261 71.806252 
L 100.077625 72.908453 
L 100.381989 73.46857 
L 100.686352 75.36885 
L 101.599443 75.36885 
L 101.903807 77.33943 
L 102.512534 77.77072 
L 102.816898 79.950725 
L 103.121261 79.098659 
L 103.425625 79.098659 
L 103.729989 82.343673 
L 104.034352 82.343673 
L 104.338716 81.936269 
L 104.64308 83.430814 
L 104.947443 83.629709 
L 105.251807 83.629709 
L 105.55617 83.421188 
L 106.164898 83.421188 
L 106.469261 83.832232 
L 106.773625 83.673538 
L 107.077989 83.808321 
L 107.99108 86.741687 
L 108.599807 86.741687 
L 108.90417 86.17535 
L 109.208534 89.451876 
L 109.512898 89.130365 
L 109.817261 89.56113 
L 110.121625 90.482669 
L 110.425989 92.670199 
L 110.730352 93.646941 
L 111.034716 92.520754 
L 111.33908 92.466917 
L 111.643443 97.812617 
L 111.947807 98.097525 
L 112.25217 91.502089 
L 112.860898 91.502089 
L 113.165261 90.530323 
L 113.773989 93.039514 
L 114.078352 91.475227 
L 114.382716 92.656962 
L 114.68708 91.895336 
L 114.991443 92.579593 
L 115.60017 91.898087 
L 115.904534 93.128116 
L 116.208898 92.054938 
L 116.513261 94.856385 
L 116.817625 94.856385 
L 117.121989 91.894765 
L 117.426352 93.406163 
L 117.730716 93.406163 
L 118.03508 95.239645 
L 118.339443 93.574942 
L 118.643807 94.664424 
L 118.94817 97.924217 
L 119.252534 97.906032 
L 119.556898 95.936724 
L 120.165625 97.759617 
L 120.469989 100.213069 
L 121.078716 100.260456 
L 121.38308 98.481549 
L 121.687443 98.481549 
L 121.991807 98.26531 
L 122.29617 98.525506 
L 122.600534 98.999001 
L 122.904898 98.468585 
L 123.209261 98.469217 
L 123.513625 98.667261 
L 123.817989 97.345565 
L 124.122352 101.559827 
L 124.426716 101.054579 
L 124.73108 101.031345 
L 125.035443 101.169409 
L 125.339807 101.101966 
L 125.64417 106.141392 
L 125.948534 102.755535 
L 126.252898 103.087854 
L 126.557261 101.942825 
L 126.861625 105.194134 
L 127.165989 105.99166 
L 127.470352 107.16349 
L 127.774716 104.819519 
L 128.07908 105.428651 
L 128.383443 103.720713 
L 128.687807 103.058934 
L 128.99217 106.144419 
L 129.296534 106.441788 
L 129.905261 106.538824 
L 130.209625 105.52884 
L 130.818352 105.52884 
L 131.122716 111.578216 
L 131.42708 109.866199 
L 131.731443 109.254474 
L 132.035807 109.772801 
L 132.34017 109.772801 
L 132.644534 115.238344 
L 132.948898 115.595711 
L 133.253261 109.772801 
L 133.557625 108.895244 
L 133.861989 111.64415 
L 134.470716 111.725826 
L 134.77508 111.946947 
L 135.079443 115.714378 
L 135.383807 112.454668 
L 135.68817 114.544948 
L 135.992534 114.544948 
L 136.296898 112.763196 
L 136.601261 114.330659 
L 136.905625 112.327645 
L 137.209989 113.273348 
L 137.818716 112.113221 
L 138.12308 114.553479 
L 138.427443 114.932957 
L 138.731807 113.517865 
L 139.340534 113.517865 
L 139.644898 112.38466 
L 139.949261 112.398205 
L 140.253625 112.551199 
L 140.557989 112.513185 
L 140.862352 113.507776 
L 141.166716 112.677263 
L 141.47108 118.328697 
L 141.775443 117.987557 
L 142.079807 115.728454 
L 142.38417 117.507205 
L 142.688534 117.507205 
L 142.992898 117.117559 
L 143.905989 117.09016 
L 144.210352 118.151783 
L 144.514716 117.351054 
L 144.81908 118.00918 
L 145.123443 118.21246 
L 145.73217 120.402943 
L 146.036534 118.70811 
L 146.340898 121.812698 
L 146.949625 121.72558 
L 147.253989 121.332724 
L 147.558352 122.567704 
L 147.862716 115.773816 
L 148.16708 115.833296 
L 148.471443 116.268683 
L 149.08017 118.660733 
L 149.384534 121.20117 
L 149.688898 119.291019 
L 150.297625 119.291019 
L 150.601989 120.862136 
L 150.906352 121.083287 
L 151.210716 120.943143 
L 151.819443 119.347326 
L 152.123807 123.443307 
L 152.42817 123.664458 
L 152.732534 121.09826 
L 153.036898 121.066437 
L 153.341261 122.982171 
L 153.645625 121.39637 
L 153.949989 122.202007 
L 154.254352 122.4827 
L 154.558716 122.484308 
L 154.86308 123.873487 
L 155.167443 124.474501 
L 155.471807 133.792604 
L 155.77617 133.792604 
L 156.080534 131.033613 
L 156.384898 130.424926 
L 156.689261 130.109505 
L 156.993625 130.448506 
L 157.297989 131.797791 
L 157.602352 131.55708 
L 157.906716 131.778021 
L 158.819807 135.843235 
L 159.12417 139.928372 
L 159.428534 140.443782 
L 159.732898 140.443782 
L 160.037261 138.5561 
L 160.341625 138.313864 
L 160.645989 140.489011 
L 160.950352 140.489011 
L 161.254716 138.873431 
L 161.55908 136.408707 
L 161.863443 137.907469 
L 162.47217 136.755596 
L 162.776534 136.518966 
L 163.080898 137.23922 
L 163.385261 138.530632 
L 163.689625 138.949009 
L 163.993989 139.161667 
L 164.298352 130.062228 
L 164.602716 130.497897 
L 164.90708 130.062228 
L 165.515807 130.248669 
L 165.82017 130.248669 
L 166.124534 130.509758 
L 166.428898 130.971747 
L 166.733261 131.075193 
L 167.037625 129.998561 
L 167.646352 131.040619 
L 167.950716 131.040619 
L 168.25508 130.408386 
L 168.559443 132.374018 
L 168.863807 132.718738 
L 169.16817 133.790536 
L 169.472534 136.826304 
L 169.776898 133.529812 
L 170.081261 135.869122 
L 170.385625 136.958263 
L 170.689989 136.789903 
L 171.298716 135.189697 
L 171.60308 138.05545 
L 171.907443 139.145721 
L 172.211807 138.714967 
L 172.51617 137.232653 
L 172.820534 137.092551 
L 173.429261 138.145054 
L 174.037989 140.96242 
L 174.646716 138.562941 
L 175.255443 137.932491 
L 175.559807 137.946009 
L 176.168534 137.399826 
L 176.472898 137.871921 
L 176.777261 138.652841 
L 177.081625 140.552918 
L 177.385989 140.231037 
L 177.690352 138.296973 
L 177.994716 137.645153 
L 178.29908 138.372257 
L 178.603443 140.376628 
L 178.907807 139.926374 
L 179.21217 140.562538 
L 179.516534 140.932465 
L 179.820898 139.31411 
L 180.125261 140.875138 
L 180.429625 140.507031 
L 180.733989 141.659531 
L 181.038352 141.090754 
L 181.342716 141.303301 
L 181.64708 143.517634 
L 181.951443 141.331183 
L 182.255807 141.429554 
L 182.56017 140.779584 
L 183.168898 142.955322 
L 183.473261 142.248105 
L 183.777625 140.623555 
L 184.081989 141.469918 
L 184.386352 141.469918 
L 184.690716 140.889923 
L 184.99508 142.385863 
L 185.299443 144.446194 
L 185.603807 143.577752 
L 185.90817 143.89382 
L 186.516898 142.6682 
L 187.125625 144.930609 
L 187.429989 144.499878 
L 187.734352 145.97199 
L 188.038716 145.315475 
L 188.34308 147.867161 
L 188.647443 148.895989 
L 188.951807 149.25726 
L 189.25617 144.308906 
L 189.560534 145.264256 
L 189.864898 147.857766 
L 190.169261 147.872462 
L 190.473625 147.261487 
L 190.777989 149.597491 
L 191.082352 150.867289 
L 191.386716 150.994397 
L 191.69108 150.834478 
L 191.995443 147.45295 
L 192.299807 147.336943 
L 192.60417 147.439737 
L 192.908534 149.683616 
L 193.212898 150.023988 
L 193.517261 147.812696 
L 193.821625 151.589614 
L 194.125989 152.368738 
L 194.430352 160.025141 
L 194.734716 159.247233 
L 195.03908 159.32517 
L 195.343443 151.089702 
L 195.647807 152.950881 
L 195.95217 152.950881 
L 196.256534 158.839502 
L 196.560898 159.3871 
L 196.865261 160.444492 
L 197.169625 159.363691 
L 198.082716 155.057503 
L 198.38708 155.242947 
L 198.691443 159.067704 
L 199.30017 159.128082 
L 199.604534 159.128082 
L 199.908898 159.421753 
L 200.213261 159.308351 
L 200.517625 160.121464 
L 201.430716 160.155613 
L 201.73508 160.330311 
L 202.343807 158.075383 
L 203.256898 159.943731 
L 203.561261 160.011563 
L 203.865625 160.611319 
L 204.169989 160.611319 
L 204.474352 158.705234 
L 204.778716 160.16717 
L 205.08308 160.382417 
L 205.387443 160.841847 
L 205.99617 160.352112 
L 206.300534 160.352112 
L 206.604898 161.112984 
L 206.909261 161.403543 
L 207.213625 160.717671 
L 207.822352 160.821084 
L 208.126716 162.580213 
L 208.735443 168.579454 
L 209.34417 163.649018 
L 209.648534 163.016885 
L 210.257261 163.016885 
L 210.561625 164.245526 
L 210.865989 161.539719 
L 211.170352 163.765819 
L 211.474716 162.831489 
L 211.77908 163.173703 
L 212.083443 162.966862 
L 212.387807 162.274346 
L 212.996534 162.65216 
L 213.300898 165.251392 
L 213.605261 164.956248 
L 213.909625 163.160851 
L 214.213989 164.060773 
L 214.518352 164.342967 
L 215.431443 164.333728 
L 215.735807 164.779945 
L 216.04017 164.341005 
L 216.648898 164.922238 
L 216.953261 164.945264 
L 217.561989 165.828851 
L 217.866352 166.039111 
L 218.47508 166.858876 
L 218.779443 166.858876 
L 219.083807 167.979517 
L 219.38817 168.196935 
L 219.692534 167.825796 
L 219.996898 170.095337 
L 220.301261 170.48549 
L 220.605625 169.874303 
L 220.909989 167.19208 
L 221.214352 170.835156 
L 221.518716 172.165981 
L 221.82308 172.165981 
L 222.127443 169.44084 
L 222.431807 168.499851 
L 222.73617 168.499851 
L 223.344898 169.890376 
L 223.649261 169.645022 
L 223.953625 171.697283 
L 224.562352 168.548085 
L 224.866716 168.233937 
L 225.475443 167.109862 
L 225.779807 167.342071 
L 226.08417 169.414819 
L 226.692898 168.372057 
L 226.997261 169.104828 
L 227.301625 169.097596 
L 227.605989 168.570914 
L 227.910352 170.498402 
L 228.214716 170.498402 
L 228.51908 172.547926 
L 228.823443 172.563298 
L 229.43217 173.769799 
L 229.736534 173.846962 
L 230.040898 174.489446 
L 230.345261 174.489446 
L 230.649625 175.256776 
L 230.953989 175.339666 
L 231.258352 175.645751 
L 231.562716 175.454842 
L 231.86708 175.454842 
L 232.171443 174.763853 
L 232.475807 174.763853 
L 232.78017 176.177258 
L 233.084534 176.42372 
L 233.388898 176.177258 
L 233.693261 175.310324 
L 233.997625 178.002957 
L 234.301989 179.16384 
L 234.606352 179.16384 
L 234.910716 179.662279 
L 235.21508 180.637673 
L 235.519443 179.658497 
L 235.823807 180.208661 
L 236.12817 178.094098 
L 236.432534 178.870724 
L 236.736898 178.736084 
L 237.345625 178.736084 
L 237.649989 180.891905 
L 237.954352 180.111773 
L 238.258716 181.102483 
L 238.56308 181.314006 
L 238.867443 181.314006 
L 239.171807 181.484761 
L 239.47617 183.704863 
L 240.084898 183.79478 
L 240.389261 180.699117 
L 240.693625 181.282931 
L 240.997989 181.282931 
L 241.302352 179.63502 
L 241.606716 181.301761 
L 242.215443 181.204396 
L 242.519807 184.506038 
L 243.128534 184.506038 
L 243.432898 185.174424 
L 243.737261 185.243904 
L 244.041625 185.160819 
L 244.345989 184.382054 
L 244.650352 184.41422 
L 244.954716 184.179985 
L 245.25908 183.514066 
L 245.867807 183.585006 
L 246.476534 182.974777 
L 247.389625 182.974777 
L 247.693989 183.643163 
L 247.998352 183.778315 
L 248.302716 184.647225 
L 248.60708 184.647225 
L 248.911443 183.778315 
L 249.52017 184.385947 
L 249.824534 183.720029 
L 250.128898 183.720029 
L 250.433261 184.385947 
L 251.346352 184.423014 
L 251.650716 181.272465 
L 251.95508 183.157533 
L 252.259443 183.157533 
L 252.563807 182.388692 
L 253.172534 183.995396 
L 253.476898 183.26615 
L 254.085625 183.337487 
L 254.389989 183.853775 
L 254.694352 183.853775 
L 254.998716 184.926104 
L 255.30308 184.057194 
L 255.607443 179.965704 
L 256.21617 181.010858 
L 256.520534 180.344939 
L 256.824898 178.186698 
L 257.129261 179.568473 
L 257.433625 178.212385 
L 257.737989 179.169198 
L 258.042352 179.429527 
L 258.346716 180.095446 
L 258.65108 182.599963 
L 258.955443 182.599963 
L 259.259807 181.218187 
L 259.56417 180.593914 
L 260.172898 182.538996 
L 260.477261 185.302817 
L 260.781625 184.811104 
L 261.085989 184.565647 
L 261.390352 184.502665 
L 261.694716 185.760179 
L 261.99908 185.03482 
L 262.303443 184.812568 
L 262.607807 186.836325 
L 262.91217 186.994636 
L 263.216534 186.994636 
L 263.520898 185.877621 
L 263.825261 186.60298 
L 264.129625 186.60298 
L 264.433989 188.782749 
L 264.738352 189.407022 
L 265.042716 190.78688 
L 266.564534 190.78688 
L 267.173261 189.322105 
L 267.477625 189.483456 
L 267.781989 188.324358 
L 268.086352 188.809922 
L 268.390716 186.501106 
L 268.69508 186.555344 
L 268.999443 188.105047 
L 269.303807 187.891786 
L 269.60817 187.051232 
L 269.912534 187.051232 
L 270.216898 185.422717 
L 270.521261 184.989983 
L 270.825625 188.104953 
L 271.129989 187.87299 
L 271.434352 188.043823 
L 271.738716 188.043823 
L 272.04308 187.152693 
L 272.347443 190.169619 
L 272.651807 189.169627 
L 272.95617 189.159765 
L 273.260534 187.608965 
L 273.564898 188.683922 
L 274.173625 188.683922 
L 274.477989 187.216555 
L 274.782352 189.39085 
L 275.086716 189.286807 
L 275.39108 189.793722 
L 275.695443 192.074839 
L 276.30417 194.531029 
L 276.912898 194.334849 
L 277.217261 196.032947 
L 277.521625 196.032947 
L 277.825989 195.383078 
L 278.130352 195.42296 
L 278.73908 198.815973 
L 279.043443 194.020208 
L 279.347807 194.020208 
L 279.65217 191.347199 
L 279.956534 192.774211 
L 280.565261 191.039748 
L 280.869625 191.039748 
L 281.173989 196.901444 
L 281.782716 198.218705 
L 282.08708 198.604413 
L 282.391443 201.168651 
L 282.695807 200.160853 
L 283.00017 196.623485 
L 283.304534 198.158307 
L 283.608898 197.29413 
L 283.913261 198.679043 
L 284.217625 203.536443 
L 284.521989 204.167016 
L 285.43508 204.183891 
L 285.739443 205.792486 
L 286.043807 205.922591 
L 286.34817 205.922591 
L 286.956898 203.979793 
L 287.261261 203.387401 
L 287.565625 200.486815 
L 287.869989 202.238449 
L 288.174352 202.285417 
L 288.478716 201.354472 
L 288.78308 201.500551 
L 289.087443 203.006018 
L 289.391807 197.98267 
L 289.69617 199.308329 
L 290.609261 205.172706 
L 290.913625 204.782877 
L 291.217989 203.939131 
L 291.522352 204.074761 
L 291.826716 201.67578 
L 292.435443 202.42365 
L 292.739807 202.032975 
L 293.04417 201.886895 
L 293.348534 204.117403 
L 293.652898 202.251941 
L 294.261625 202.291692 
L 294.870352 206.944079 
L 295.174716 207.858014 
L 295.47908 207.858014 
L 295.783443 205.630496 
L 296.087807 204.888954 
L 296.39217 204.691227 
L 296.696534 201.764663 
L 297.000898 206.167131 
L 297.305261 205.640895 
L 297.609625 206.029434 
L 297.913989 204.376695 
L 298.218352 205.778002 
L 298.522716 206.232354 
L 298.82708 203.16331 
L 299.131443 205.155728 
L 299.435807 205.083314 
L 299.74017 205.675706 
L 300.044534 205.675706 
L 300.348898 202.913771 
L 300.653261 206.273694 
L 300.957625 206.273694 
L 301.261989 206.532612 
L 301.566352 206.532612 
L 301.870716 206.032142 
L 302.17508 206.032142 
L 302.479443 206.451777 
L 302.783807 206.058244 
L 303.08817 204.923752 
L 303.392534 205.673043 
L 303.696898 205.24765 
L 304.001261 205.24765 
L 304.305625 205.667285 
L 304.609989 206.896454 
L 304.914352 207.120174 
L 305.218716 207.120174 
L 305.52308 206.773299 
L 305.827443 209.657163 
L 306.131807 209.597275 
L 306.43617 208.239428 
L 306.740534 208.239428 
L 307.349261 208.71484 
L 307.653625 209.410693 
L 307.957989 210.87302 
L 308.262352 210.980694 
L 308.566716 210.749129 
L 308.87108 210.118676 
L 309.175443 210.118676 
L 309.479807 209.469114 
L 309.78417 207.93246 
L 310.088534 208.164025 
L 311.001625 208.149339 
L 311.305989 207.117929 
L 311.610352 207.301757 
L 312.21908 207.222362 
L 312.523443 203.625 
L 312.827807 201.921978 
L 313.13217 205.06605 
L 313.436534 204.549516 
L 314.045261 204.549516 
L 314.349625 205.71201 
L 314.653989 206.140581 
L 314.958352 205.665718 
L 315.262716 204.151873 
L 315.56708 207.091824 
L 316.175807 210.761328 
L 316.48017 210.382849 
L 316.784534 211.026281 
L 317.088898 211.026281 
L 317.697625 207.831179 
L 318.001989 208.892338 
L 318.306352 210.737292 
L 318.610716 211.058963 
L 318.91508 209.85846 
L 319.219443 210.443264 
L 319.523807 209.831756 
L 319.82817 208.207775 
L 320.132534 208.628723 
L 320.436898 208.207775 
L 320.741261 208.030339 
L 321.045625 210.252245 
L 321.349989 209.051741 
L 321.654352 210.959742 
L 321.958716 210.959742 
L 322.26308 213.161338 
L 322.871807 210.260372 
L 323.480534 209.444542 
L 323.784898 209.444542 
L 324.089261 210.798571 
L 324.393625 210.798571 
L 324.697989 209.715272 
L 325.002352 209.239548 
L 325.306716 210.489164 
L 325.61108 210.023197 
L 325.915443 211.605558 
L 326.219807 209.949082 
L 326.52417 210.808754 
L 326.828534 210.545457 
L 327.132898 210.859759 
L 327.437261 212.34684 
L 327.741625 212.34684 
L 328.045989 212.639088 
L 328.350352 212.399046 
L 328.654716 211.440507 
L 328.95908 210.871272 
L 329.263443 210.713566 
L 329.567807 210.713566 
L 329.87217 211.717104 
L 330.176534 213.292594 
L 330.480898 213.292594 
L 330.785261 211.578315 
L 331.089625 210.984091 
L 331.698352 211.57805 
L 332.002716 211.430029 
L 332.30708 214.568906 
L 332.611443 214.220055 
L 333.524534 214.220055 
L 333.828898 213.964673 
L 334.437625 213.964673 
L 334.741989 212.374109 
L 335.046352 212.569597 
L 335.350716 211.796568 
L 335.959443 212.176064 
L 336.56817 212.241897 
L 336.872534 213.299361 
L 337.481261 212.653161 
L 337.785625 212.426469 
L 338.394352 212.330109 
L 338.698716 212.036055 
L 339.00308 212.916502 
L 339.307443 212.669619 
L 339.611807 212.669619 
L 339.91617 213.50775 
L 340.220534 213.800034 
L 340.524898 214.74417 
L 340.829261 214.908045 
L 341.133625 216.491484 
L 341.437989 216.308202 
L 341.742352 216.308202 
L 342.046716 215.675071 
L 342.35108 218.65482 
L 342.655443 218.622498 
L 342.959807 217.342925 
L 343.26417 217.556267 
L 343.872898 218.478423 
L 344.177261 218.480846 
L 344.481625 216.409213 
L 344.785989 216.510912 
L 345.394716 220.265777 
L 345.69908 217.531526 
L 346.003443 217.873118 
L 346.307807 217.503928 
L 346.916534 217.522861 
L 347.220898 216.508118 
L 347.525261 216.659793 
L 347.829625 215.682287 
L 348.133989 216.737579 
L 348.438352 216.211099 
L 348.742716 215.261043 
L 349.04708 215.376005 
L 349.351443 216.147195 
L 349.655807 216.147195 
L 349.96017 217.957678 
L 350.264534 217.082117 
L 350.568898 217.913107 
L 350.873261 217.927829 
L 351.177625 217.296306 
L 351.481989 217.098185 
L 351.786352 216.503556 
L 352.090716 217.115613 
L 352.39508 216.964926 
L 352.699443 217.214327 
L 353.003807 217.75704 
L 353.30817 217.75704 
L 353.612534 218.627565 
L 353.916898 219.069233 
L 354.221261 219.069233 
L 354.525625 218.039062 
L 354.829989 218.201564 
L 355.134352 219.080177 
L 355.438716 219.546543 
L 355.74308 219.022565 
L 356.047443 221.693468 
L 356.047443 221.693468 
" clip-path="url(#pfb51ac011a)" style="fill: none; stroke: #1f77b4; stroke-width: 1.5; stroke-linecap: square"/>
   </g>
   <g id="patch_3">
    <path d="M 36.465625 231.773468 
L 36.465625 10.013468 
" style="fill: none; stroke: #000000; stroke-width: 0.8; stroke-linejoin: miter; stroke-linecap: square"/>
   </g>
   <g id="patch_4">
    <path d="M 371.265625 231.773468 
L 371.265625 10.013468 
" style="fill: none; stroke: #000000; stroke-width: 0.8; stroke-linejoin: miter; stroke-linecap: square"/>
   </g>
   <g id="patch_5">
    <path d="M 36.465625 231.773468 
L 371.265625 231.773468 
" style="fill: none; stroke: #000000; stroke-width: 0.8; stroke-linejoin: miter; stroke-linecap: square"/>
   </g>
   <g id="patch_6">
    <path d="M 36.465625 10.013468 
L 371.265625 10.013468 
" style="fill: none; stroke: #000000; stroke-width: 0.8; stroke-linejoin: miter; stroke-linecap: square"/>
   </g>
  </g>
 </g>
 <defs>
  <clipPath id="pfb51ac011a">
   <rect x="36.465625" y="10.013468" width="334.8" height="221.76"/>
  </clipPath>
 </defs>
</svg>
