<?xml version="1.0" encoding="utf-8" standalone="no"?>
<!DOCTYPE svg PUBLIC "-//W3C//DTD SVG 1.1//EN"
  "http://www.w3.org/Graphics/SVG/1.1/DTD/svg11.dtd">
<svg xmlns:xlink="http://www.w3.org/1999/xlink" width="368.925pt" height="252.838125pt" viewBox="0 0 368.925 252.838125" xmlns="http://www.w3.org/2000/svg" version="1.1">
 <metadata>
  <rdf:RDF xmlns:dc="http://purl.org/dc/elements/1.1/" xmlns:cc="http://creativecommons.org/ns#" xmlns:rdf="http://www.w3.org/1999/02/22-rdf-syntax-ns#">
   <cc:Work>
    <dc:type rdf:resource="http://purl.org/dc/dcmitype/StillImage"/>
    <dc:date>2023-04-19T16:57:11.335495</dc:date>
    <dc:format>image/svg+xml</dc:format>
    <dc:creator>
     <cc:Agent>
      <dc:title>Matplotlib v3.6.2, https://matplotlib.org/</dc:title>
     </cc:Agent>
    </dc:creator>
   </cc:Work>
  </rdf:RDF>
 </metadata>
 <defs>
  <style type="text/css">*{stroke-linejoin: round; stroke-linecap: butt}</style>
 </defs>
 <g id="figure_1">
  <g id="patch_1">
   <path d="M -0 252.838125 
L 368.925 252.838125 
L 368.925 0 
L -0 0 
z
" style="fill: #ffffff"/>
  </g>
  <g id="axes_1">
   <g id="patch_2">
    <path d="M 26.925 228.96 
L 361.725 228.96 
L 361.725 7.2 
L 26.925 7.2 
z
" style="fill: #ffffff"/>
   </g>
   <g id="matplotlib.axis_1">
    <g id="xtick_1">
     <g id="line2d_1">
      <defs>
       <path id="m17de7f28e0" d="M 0 0 
L 0 3.5 
" style="stroke: #000000; stroke-width: 0.8"/>
      </defs>
      <g>
       <use xlink:href="#m17de7f28e0" x="49.827977" y="228.96" style="stroke: #000000; stroke-width: 0.8"/>
      </g>
     </g>
     <g id="text_1">
      <!-- 40 -->
      <g transform="translate(43.465477 243.558437) scale(0.1 -0.1)">
       <defs>
        <path id="DejaVuSans-34" d="M 2419 4116 
L 825 1625 
L 2419 1625 
L 2419 4116 
z
M 2253 4666 
L 3047 4666 
L 3047 1625 
L 3713 1625 
L 3713 1100 
L 3047 1100 
L 3047 0 
L 2419 0 
L 2419 1100 
L 313 1100 
L 313 1709 
L 2253 4666 
z
" transform="scale(0.015625)"/>
        <path id="DejaVuSans-30" d="M 2034 4250 
Q 1547 4250 1301 3770 
Q 1056 3291 1056 2328 
Q 1056 1369 1301 889 
Q 1547 409 2034 409 
Q 2525 409 2770 889 
Q 3016 1369 3016 2328 
Q 3016 3291 2770 3770 
Q 2525 4250 2034 4250 
z
M 2034 4750 
Q 2819 4750 3233 4129 
Q 3647 3509 3647 2328 
Q 3647 1150 3233 529 
Q 2819 -91 2034 -91 
Q 1250 -91 836 529 
Q 422 1150 422 2328 
Q 422 3509 836 4129 
Q 1250 4750 2034 4750 
z
" transform="scale(0.015625)"/>
       </defs>
       <use xlink:href="#DejaVuSans-34"/>
       <use xlink:href="#DejaVuSans-30" x="63.623047"/>
      </g>
     </g>
    </g>
    <g id="xtick_2">
     <g id="line2d_2">
      <g>
       <use xlink:href="#m17de7f28e0" x="90.523561" y="228.96" style="stroke: #000000; stroke-width: 0.8"/>
      </g>
     </g>
     <g id="text_2">
      <!-- 50 -->
      <g transform="translate(84.161061 243.558437) scale(0.1 -0.1)">
       <defs>
        <path id="DejaVuSans-35" d="M 691 4666 
L 3169 4666 
L 3169 4134 
L 1269 4134 
L 1269 2991 
Q 1406 3038 1543 3061 
Q 1681 3084 1819 3084 
Q 2600 3084 3056 2656 
Q 3513 2228 3513 1497 
Q 3513 744 3044 326 
Q 2575 -91 1722 -91 
Q 1428 -91 1123 -41 
Q 819 9 494 109 
L 494 744 
Q 775 591 1075 516 
Q 1375 441 1709 441 
Q 2250 441 2565 725 
Q 2881 1009 2881 1497 
Q 2881 1984 2565 2268 
Q 2250 2553 1709 2553 
Q 1456 2553 1204 2497 
Q 953 2441 691 2322 
L 691 4666 
z
" transform="scale(0.015625)"/>
       </defs>
       <use xlink:href="#DejaVuSans-35"/>
       <use xlink:href="#DejaVuSans-30" x="63.623047"/>
      </g>
     </g>
    </g>
    <g id="xtick_3">
     <g id="line2d_3">
      <g>
       <use xlink:href="#m17de7f28e0" x="131.219144" y="228.96" style="stroke: #000000; stroke-width: 0.8"/>
      </g>
     </g>
     <g id="text_3">
      <!-- 60 -->
      <g transform="translate(124.856644 243.558437) scale(0.1 -0.1)">
       <defs>
        <path id="DejaVuSans-36" d="M 2113 2584 
Q 1688 2584 1439 2293 
Q 1191 2003 1191 1497 
Q 1191 994 1439 701 
Q 1688 409 2113 409 
Q 2538 409 2786 701 
Q 3034 994 3034 1497 
Q 3034 2003 2786 2293 
Q 2538 2584 2113 2584 
z
M 3366 4563 
L 3366 3988 
Q 3128 4100 2886 4159 
Q 2644 4219 2406 4219 
Q 1781 4219 1451 3797 
Q 1122 3375 1075 2522 
Q 1259 2794 1537 2939 
Q 1816 3084 2150 3084 
Q 2853 3084 3261 2657 
Q 3669 2231 3669 1497 
Q 3669 778 3244 343 
Q 2819 -91 2113 -91 
Q 1303 -91 875 529 
Q 447 1150 447 2328 
Q 447 3434 972 4092 
Q 1497 4750 2381 4750 
Q 2619 4750 2861 4703 
Q 3103 4656 3366 4563 
z
" transform="scale(0.015625)"/>
       </defs>
       <use xlink:href="#DejaVuSans-36"/>
       <use xlink:href="#DejaVuSans-30" x="63.623047"/>
      </g>
     </g>
    </g>
    <g id="xtick_4">
     <g id="line2d_4">
      <g>
       <use xlink:href="#m17de7f28e0" x="171.914728" y="228.96" style="stroke: #000000; stroke-width: 0.8"/>
      </g>
     </g>
     <g id="text_4">
      <!-- 70 -->
      <g transform="translate(165.552228 243.558437) scale(0.1 -0.1)">
       <defs>
        <path id="DejaVuSans-37" d="M 525 4666 
L 3525 4666 
L 3525 4397 
L 1831 0 
L 1172 0 
L 2766 4134 
L 525 4134 
L 525 4666 
z
" transform="scale(0.015625)"/>
       </defs>
       <use xlink:href="#DejaVuSans-37"/>
       <use xlink:href="#DejaVuSans-30" x="63.623047"/>
      </g>
     </g>
    </g>
    <g id="xtick_5">
     <g id="line2d_5">
      <g>
       <use xlink:href="#m17de7f28e0" x="212.610311" y="228.96" style="stroke: #000000; stroke-width: 0.8"/>
      </g>
     </g>
     <g id="text_5">
      <!-- 80 -->
      <g transform="translate(206.247811 243.558437) scale(0.1 -0.1)">
       <defs>
        <path id="DejaVuSans-38" d="M 2034 2216 
Q 1584 2216 1326 1975 
Q 1069 1734 1069 1313 
Q 1069 891 1326 650 
Q 1584 409 2034 409 
Q 2484 409 2743 651 
Q 3003 894 3003 1313 
Q 3003 1734 2745 1975 
Q 2488 2216 2034 2216 
z
M 1403 2484 
Q 997 2584 770 2862 
Q 544 3141 544 3541 
Q 544 4100 942 4425 
Q 1341 4750 2034 4750 
Q 2731 4750 3128 4425 
Q 3525 4100 3525 3541 
Q 3525 3141 3298 2862 
Q 3072 2584 2669 2484 
Q 3125 2378 3379 2068 
Q 3634 1759 3634 1313 
Q 3634 634 3220 271 
Q 2806 -91 2034 -91 
Q 1263 -91 848 271 
Q 434 634 434 1313 
Q 434 1759 690 2068 
Q 947 2378 1403 2484 
z
M 1172 3481 
Q 1172 3119 1398 2916 
Q 1625 2713 2034 2713 
Q 2441 2713 2670 2916 
Q 2900 3119 2900 3481 
Q 2900 3844 2670 4047 
Q 2441 4250 2034 4250 
Q 1625 4250 1398 4047 
Q 1172 3844 1172 3481 
z
" transform="scale(0.015625)"/>
       </defs>
       <use xlink:href="#DejaVuSans-38"/>
       <use xlink:href="#DejaVuSans-30" x="63.623047"/>
      </g>
     </g>
    </g>
    <g id="xtick_6">
     <g id="line2d_6">
      <g>
       <use xlink:href="#m17de7f28e0" x="253.305895" y="228.96" style="stroke: #000000; stroke-width: 0.8"/>
      </g>
     </g>
     <g id="text_6">
      <!-- 90 -->
      <g transform="translate(246.943395 243.558437) scale(0.1 -0.1)">
       <defs>
        <path id="DejaVuSans-39" d="M 703 97 
L 703 672 
Q 941 559 1184 500 
Q 1428 441 1663 441 
Q 2288 441 2617 861 
Q 2947 1281 2994 2138 
Q 2813 1869 2534 1725 
Q 2256 1581 1919 1581 
Q 1219 1581 811 2004 
Q 403 2428 403 3163 
Q 403 3881 828 4315 
Q 1253 4750 1959 4750 
Q 2769 4750 3195 4129 
Q 3622 3509 3622 2328 
Q 3622 1225 3098 567 
Q 2575 -91 1691 -91 
Q 1453 -91 1209 -44 
Q 966 3 703 97 
z
M 1959 2075 
Q 2384 2075 2632 2365 
Q 2881 2656 2881 3163 
Q 2881 3666 2632 3958 
Q 2384 4250 1959 4250 
Q 1534 4250 1286 3958 
Q 1038 3666 1038 3163 
Q 1038 2656 1286 2365 
Q 1534 2075 1959 2075 
z
" transform="scale(0.015625)"/>
       </defs>
       <use xlink:href="#DejaVuSans-39"/>
       <use xlink:href="#DejaVuSans-30" x="63.623047"/>
      </g>
     </g>
    </g>
    <g id="xtick_7">
     <g id="line2d_7">
      <g>
       <use xlink:href="#m17de7f28e0" x="294.001478" y="228.96" style="stroke: #000000; stroke-width: 0.8"/>
      </g>
     </g>
     <g id="text_7">
      <!-- 100 -->
      <g transform="translate(284.457728 243.558437) scale(0.1 -0.1)">
       <defs>
        <path id="DejaVuSans-31" d="M 794 531 
L 1825 531 
L 1825 4091 
L 703 3866 
L 703 4441 
L 1819 4666 
L 2450 4666 
L 2450 531 
L 3481 531 
L 3481 0 
L 794 0 
L 794 531 
z
" transform="scale(0.015625)"/>
       </defs>
       <use xlink:href="#DejaVuSans-31"/>
       <use xlink:href="#DejaVuSans-30" x="63.623047"/>
       <use xlink:href="#DejaVuSans-30" x="127.246094"/>
      </g>
     </g>
    </g>
    <g id="xtick_8">
     <g id="line2d_8">
      <g>
       <use xlink:href="#m17de7f28e0" x="334.697062" y="228.96" style="stroke: #000000; stroke-width: 0.8"/>
      </g>
     </g>
     <g id="text_8">
      <!-- 110 -->
      <g transform="translate(325.153312 243.558437) scale(0.1 -0.1)">
       <use xlink:href="#DejaVuSans-31"/>
       <use xlink:href="#DejaVuSans-31" x="63.623047"/>
       <use xlink:href="#DejaVuSans-30" x="127.246094"/>
      </g>
     </g>
    </g>
   </g>
   <g id="matplotlib.axis_2">
    <g id="ytick_1">
     <g id="line2d_9">
      <defs>
       <path id="mb391727f73" d="M 0 0 
L -3.5 0 
" style="stroke: #000000; stroke-width: 0.8"/>
      </defs>
      <g>
       <use xlink:href="#mb391727f73" x="26.925" y="217.898371" style="stroke: #000000; stroke-width: 0.8"/>
      </g>
     </g>
     <g id="text_9">
      <!-- 55 -->
      <g transform="translate(7.2 221.697589) scale(0.1 -0.1)">
       <use xlink:href="#DejaVuSans-35"/>
       <use xlink:href="#DejaVuSans-35" x="63.623047"/>
      </g>
     </g>
    </g>
    <g id="ytick_2">
     <g id="line2d_10">
      <g>
       <use xlink:href="#mb391727f73" x="26.925" y="168.90814" style="stroke: #000000; stroke-width: 0.8"/>
      </g>
     </g>
     <g id="text_10">
      <!-- 56 -->
      <g transform="translate(7.2 172.707359) scale(0.1 -0.1)">
       <use xlink:href="#DejaVuSans-35"/>
       <use xlink:href="#DejaVuSans-36" x="63.623047"/>
      </g>
     </g>
    </g>
    <g id="ytick_3">
     <g id="line2d_11">
      <g>
       <use xlink:href="#mb391727f73" x="26.925" y="119.91791" style="stroke: #000000; stroke-width: 0.8"/>
      </g>
     </g>
     <g id="text_11">
      <!-- 57 -->
      <g transform="translate(7.2 123.717129) scale(0.1 -0.1)">
       <use xlink:href="#DejaVuSans-35"/>
       <use xlink:href="#DejaVuSans-37" x="63.623047"/>
      </g>
     </g>
    </g>
    <g id="ytick_4">
     <g id="line2d_12">
      <g>
       <use xlink:href="#mb391727f73" x="26.925" y="70.92768" style="stroke: #000000; stroke-width: 0.8"/>
      </g>
     </g>
     <g id="text_12">
      <!-- 58 -->
      <g transform="translate(7.2 74.726899) scale(0.1 -0.1)">
       <use xlink:href="#DejaVuSans-35"/>
       <use xlink:href="#DejaVuSans-38" x="63.623047"/>
      </g>
     </g>
    </g>
    <g id="ytick_5">
     <g id="line2d_13">
      <g>
       <use xlink:href="#mb391727f73" x="26.925" y="21.93745" style="stroke: #000000; stroke-width: 0.8"/>
      </g>
     </g>
     <g id="text_13">
      <!-- 59 -->
      <g transform="translate(7.2 25.736669) scale(0.1 -0.1)">
       <use xlink:href="#DejaVuSans-35"/>
       <use xlink:href="#DejaVuSans-39" x="63.623047"/>
      </g>
     </g>
    </g>
   </g>
   <g id="line2d_14">
    <path d="M 42.143182 17.28 
L 46.378232 17.28 
L 46.986838 18.594707 
L 47.60437 18.594707 
L 48.029232 20.065263 
L 49.982489 20.065263 
L 50.380969 22.34821 
L 50.703635 22.34821 
L 51.02415 22.86222 
L 51.701776 22.86222 
L 52.035435 23.272603 
L 52.348893 22.86222 
L 52.689803 23.272603 
L 53.345825 23.272603 
L 54.325526 25.733745 
L 55.966649 25.733745 
L 56.316329 26.169743 
L 56.674862 25.733745 
L 56.968249 25.733745 
L 57.288295 26.169743 
L 57.640767 26.169743 
L 58.013511 26.683754 
L 61.086483 26.683754 
L 61.438317 27.077542 
L 61.855666 26.683754 
L 62.221898 26.683754 
L 62.574822 27.077542 
L 62.942992 26.683754 
L 64.953862 26.683754 
L 65.286902 27.725195 
L 65.587367 27.725195 
L 65.9565 27.51354 
L 66.283102 27.51354 
L 66.602277 26.683754 
L 66.912723 27.725195 
L 67.216923 26.683754 
L 67.514009 26.683754 
L 67.847981 28.554981 
L 68.472683 28.554981 
L 68.816361 29.438225 
L 69.123918 29.438225 
L 69.420516 33.460584 
L 69.721533 34.315978 
L 70.005555 34.315978 
L 70.307651 34.921771 
L 70.591038 34.921771 
L 70.878598 36.887606 
L 71.489686 36.887606 
L 71.795648 37.05185 
L 76.040503 37.05185 
L 76.333625 42.088924 
L 76.62319 42.088924 
L 76.93174 42.253168 
L 77.862432 42.253168 
L 78.181134 43.088724 
L 78.514188 42.253168 
L 81.032088 42.253168 
L 81.350011 43.254115 
L 81.979095 43.254115 
L 82.289838 42.253168 
L 82.60951 43.252968 
L 83.90897 43.252968 
L 84.217246 44.225652 
L 84.53446 44.225652 
L 84.855296 50.316185 
L 85.162592 51.259082 
L 86.750038 51.322088 
L 87.385361 52.063831 
L 88.030683 52.063831 
L 88.355743 51.682708 
L 88.677076 51.682708 
L 89.001883 52.063831 
L 89.611292 52.063831 
L 90.238976 52.97354 
L 90.544433 52.01511 
L 90.860557 52.487457 
L 91.479203 52.487457 
L 91.790552 52.882865 
L 92.106142 52.440006 
L 92.411758 52.840171 
L 92.72045 52.912352 
L 93.020494 53.625686 
L 93.94586 53.625686 
L 94.284621 53.821525 
L 94.586661 55.186464 
L 96.799894 55.186464 
L 97.101378 55.021683 
L 97.423049 55.021683 
L 97.74384 55.186464 
L 98.074203 59.250347 
L 98.403092 59.250347 
L 98.697793 57.695939 
L 99.007278 55.186464 
L 99.298778 55.677021 
L 100.190816 55.677021 
L 100.481199 55.186464 
L 100.794551 59.250347 
L 101.722684 59.345497 
L 102.048374 59.644979 
L 102.968151 59.644979 
L 103.23894 61.577195 
L 103.81311 61.577195 
L 104.129411 62.067753 
L 104.415544 64.081428 
L 105.332505 64.081428 
L 105.649933 61.628438 
L 105.931689 61.628438 
L 106.208444 62.637849 
L 106.536316 63.128407 
L 106.844845 64.081428 
L 107.154673 66.096358 
L 108.040872 66.096358 
L 108.356577 67.105769 
L 108.654077 67.105769 
L 108.980411 67.596327 
L 109.262069 67.596327 
L 109.576333 69.610002 
L 109.876776 67.596327 
L 110.81094 67.596327 
L 111.109466 69.610002 
L 111.403716 69.610002 
L 111.725544 70.10056 
L 112.007406 70.004634 
L 112.311968 67.975702 
L 112.63011 68.600591 
L 112.94712 69.610002 
L 113.539977 69.610002 
L 113.761068 69.445221 
L 114.067323 69.610002 
L 114.352151 69.610002 
L 114.647934 70.10056 
L 114.913033 69.935779 
L 115.498907 69.935779 
L 115.788677 69.613143 
L 116.110213 70.424192 
L 116.414623 69.613143 
L 117.059637 69.613143 
L 117.654419 69.305743 
L 117.957772 68.725048 
L 118.847971 68.725048 
L 119.165026 70.315154 
L 119.475151 70.315154 
L 119.782232 69.644633 
L 120.088242 68.149811 
L 120.733985 68.149811 
L 121.03885 69.59339 
L 121.276232 69.791751 
L 121.585833 70.602801 
L 122.216307 70.602801 
L 122.510917 71.496417 
L 122.790035 70.602801 
L 123.085521 71.496417 
L 123.375375 71.496417 
L 123.660143 73.773171 
L 123.967094 73.773171 
L 124.264586 71.496417 
L 124.583135 73.35753 
L 124.873368 71.496417 
L 125.457719 77.212762 
L 125.765382 74.275565 
L 126.07329 73.383065 
L 126.373228 76.03623 
L 126.698523 77.742905 
L 127.019571 77.742905 
L 127.324291 77.104662 
L 127.626147 77.998278 
L 127.917051 77.998278 
L 128.227266 79.117516 
L 128.542562 79.117516 
L 128.845001 80.758735 
L 129.137003 80.758735 
L 129.432033 81.709086 
L 129.731891 78.306466 
L 130.329392 78.306466 
L 130.95793 79.755759 
L 131.243785 85.278358 
L 131.818736 85.278358 
L 132.118874 86.136297 
L 132.711757 86.136297 
L 133.004003 86.910714 
L 133.309786 86.136297 
L 133.931911 86.136297 
L 134.23034 86.626855 
L 134.520878 86.136297 
L 135.148 86.910714 
L 135.428727 86.910714 
L 135.733184 86.250956 
L 136.043954 87.272604 
L 136.951759 87.272604 
L 137.265344 87.483096 
L 137.580767 86.414665 
L 138.225357 90.945406 
L 138.527322 89.578759 
L 138.839364 89.358005 
L 139.135566 90.945406 
L 139.442374 88.90496 
L 139.754969 89.778646 
L 140.044115 89.778646 
L 140.357329 90.087467 
L 140.971148 91.819092 
L 141.283845 97.155048 
L 141.606719 97.155048 
L 141.905723 97.396349 
L 142.216005 98.012987 
L 142.515253 97.816863 
L 142.818736 97.816863 
L 143.141595 98.028734 
L 144.681728 98.028734 
L 145.003596 101.327786 
L 145.332682 98.886673 
L 145.678378 98.011609 
L 146.009351 97.816863 
L 146.337122 99.829895 
L 146.625637 99.829895 
L 146.947848 100.588873 
L 147.256337 99.596161 
L 147.584355 100.469847 
L 148.862202 100.4541 
L 149.196759 101.326714 
L 149.514442 101.52391 
L 149.835819 100.4541 
L 150.160895 101.326714 
L 150.508667 103.82426 
L 151.526085 103.82426 
L 151.907265 104.697946 
L 152.542767 104.697946 
L 152.835438 104.993412 
L 153.136568 104.697946 
L 153.481691 104.697946 
L 153.782061 104.135473 
L 154.116525 104.135473 
L 154.69858 105.951914 
L 155.010135 109.39998 
L 155.614527 109.39998 
L 155.896942 110.147683 
L 156.208158 110.468411 
L 161.558328 110.468411 
L 161.870194 111.540088 
L 162.170838 110.047897 
L 162.47334 110.175627 
L 162.805274 110.047897 
L 163.12613 110.047897 
L 163.416125 111.201464 
L 163.721774 111.201464 
L 164.01298 110.047897 
L 164.636701 110.048968 
L 164.950265 111.201464 
L 165.269314 111.42201 
L 165.874794 111.42201 
L 166.178432 111.549741 
L 167.081281 111.520829 
L 167.387039 112.703308 
L 167.691938 112.894942 
L 168.002307 111.856956 
L 168.315817 112.176321 
L 168.646494 112.176321 
L 168.964394 114.290016 
L 169.911361 114.290016 
L 170.208442 114.609382 
L 171.134878 114.609382 
L 171.433535 114.787333 
L 171.741653 114.787333 
L 172.07919 115.009413 
L 172.40364 115.009413 
L 172.714509 115.137143 
L 173.33701 115.137143 
L 173.649715 115.983495 
L 173.979626 115.137143 
L 174.90831 115.137143 
L 175.223596 115.66413 
L 175.547187 115.162219 
L 175.865658 115.137143 
L 176.184142 116.511257 
L 177.150804 116.511257 
L 177.483429 115.137143 
L 177.827031 115.137143 
L 178.143834 121.76251 
L 179.410439 121.787586 
L 179.734107 123.136624 
L 180.052879 123.136624 
L 180.372157 121.787586 
L 180.680028 121.787586 
L 180.997264 123.136624 
L 181.309258 121.76251 
L 181.617548 121.76251 
L 181.935527 123.044418 
L 183.236312 123.044418 
L 183.562084 122.269949 
L 183.894953 123.044418 
L 184.877972 123.044418 
L 185.210675 122.035891 
L 185.849559 122.035891 
L 186.168644 122.817258 
L 186.506263 122.817258 
L 186.813222 122.51524 
L 187.167925 121.820059 
L 187.484992 121.820059 
L 187.810923 122.474809 
L 188.137444 121.975556 
L 188.457038 121.820059 
L 188.785818 121.820059 
L 189.089765 122.499885 
L 189.409637 122.817258 
L 189.718476 122.817258 
L 190.036182 122.000632 
L 191.341432 121.975556 
L 191.672434 121.820059 
L 192.004317 121.820059 
L 192.326354 122.035891 
L 192.970362 121.943686 
L 193.294226 121.76251 
L 193.617996 121.915032 
L 194.257835 123.66525 
L 194.881337 123.651179 
L 195.187795 122.382604 
L 195.513758 122.655985 
L 195.847067 122.655985 
L 196.182249 125.839163 
L 196.522203 125.839163 
L 196.860013 122.306753 
L 197.174473 122.440152 
L 197.480377 123.741101 
L 197.797469 124.4534 
L 199.432756 124.4534 
L 199.754861 124.730032 
L 200.076213 124.726781 
L 200.733447 130.889902 
L 201.079291 127.694126 
L 201.389216 127.831321 
L 201.710601 127.694126 
L 202.335445 127.773773 
L 202.635702 128.549658 
L 202.963875 128.683057 
L 203.269914 128.683057 
L 203.586542 133.993433 
L 203.909592 135.426453 
L 204.21891 135.21468 
L 204.542082 135.21468 
L 204.85652 134.906514 
L 205.494985 134.906514 
L 205.807649 135.19541 
L 206.108716 134.906514 
L 206.405178 134.906514 
L 206.71276 135.395257 
L 207.369131 135.441531 
L 207.679174 135.371304 
L 208.003718 135.138829 
L 208.324928 135.138829 
L 208.97309 135.603619 
L 210.232647 135.557345 
L 210.549388 135.24404 
L 210.861508 135.197765 
L 212.090099 135.864634 
L 212.408103 135.446118 
L 212.72672 135.975927 
L 213.055809 136.740662 
L 213.999227 136.740662 
L 214.31749 135.981136 
L 214.632596 136.761264 
L 214.954962 136.251919 
L 216.487248 136.254517 
L 217.066721 136.658658 
L 217.347866 136.534833 
L 217.647866 136.24385 
L 217.98251 137.179451 
L 218.300689 137.179451 
L 218.645136 135.737219 
L 219.277631 136.823423 
L 219.921017 136.380406 
L 220.222286 136.379335 
L 220.545425 136.652716 
L 220.868454 137.185135 
L 221.18487 137.05756 
L 221.482376 137.05756 
L 221.802007 139.512481 
L 222.121191 137.390279 
L 222.44238 137.288213 
L 222.73676 137.05756 
L 223.066297 137.185135 
L 223.345464 136.856308 
L 223.945927 136.823423 
L 224.264326 136.899274 
L 224.54412 136.823423 
L 224.850179 136.899274 
L 225.164345 138.158556 
L 225.474624 137.893414 
L 226.668539 138.067056 
L 226.981264 137.926299 
L 228.832421 137.926299 
L 229.156069 140.303284 
L 229.437784 138.085188 
L 229.744401 139.197601 
L 230.047787 138.160841 
L 230.342305 138.463674 
L 230.664584 139.48121 
L 231.561865 139.48121 
L 231.881342 140.379135 
L 232.493811 139.197601 
L 232.800627 139.197601 
L 233.108883 139.391292 
L 233.74124 139.391292 
L 234.056745 141.348973 
L 234.363313 139.723583 
L 234.658568 139.424583 
L 234.951226 139.424583 
L 235.287664 141.618514 
L 235.59181 141.618514 
L 235.902318 141.868323 
L 236.223377 141.868323 
L 236.548662 143.836041 
L 236.872757 143.242436 
L 237.16399 142.172445 
L 237.482006 142.59007 
L 237.795746 140.935626 
L 238.103867 140.10506 
L 238.398663 140.414955 
L 238.722709 140.10506 
L 239.034881 141.824733 
L 239.348786 141.952463 
L 239.659965 141.598781 
L 239.956575 142.005617 
L 240.255207 141.736076 
L 240.615001 141.736076 
L 240.957076 142.005617 
L 241.287825 142.005617 
L 241.629436 143.70021 
L 242.25601 143.70021 
L 242.565512 142.157648 
L 242.874997 142.564484 
L 243.482099 141.736076 
L 243.799951 142.283598 
L 244.112603 142.283598 
L 244.410763 143.430669 
L 244.726358 142.294942 
L 245.032617 142.294942 
L 245.324343 142.005617 
L 245.67894 142.318869 
L 246.328295 143.589558 
L 246.640144 143.859099 
L 246.947625 145.398386 
L 247.254412 145.398386 
L 247.553351 143.667326 
L 247.870328 144.82995 
L 248.787399 144.82995 
L 249.092693 143.973335 
L 249.723137 143.973335 
L 250.028854 144.173303 
L 250.346914 144.523243 
L 250.665219 145.5397 
L 250.968182 144.801565 
L 251.266952 144.523243 
L 251.600864 144.523243 
L 252.197937 144.960453 
L 252.494615 144.523243 
L 252.792126 146.376725 
L 253.111561 145.182825 
L 253.41611 145.922525 
L 253.72114 144.797641 
L 254.027732 149.822896 
L 254.348296 151.790613 
L 255.6155 151.790613 
L 256.230417 152.227483 
L 256.538923 153.189895 
L 257.740154 153.189895 
L 258.042116 154.578013 
L 259.023754 154.578013 
L 259.316706 153.737417 
L 259.632898 153.896306 
L 259.955699 153.737417 
L 260.277146 153.913642 
L 260.899995 153.913642 
L 261.474992 154.953774 
L 261.778731 154.953774 
L 262.089047 154.149996 
L 262.305894 154.428318 
L 262.909392 154.428318 
L 263.226668 155.248611 
L 264.482652 155.248611 
L 264.792886 157.408474 
L 265.415056 157.408474 
L 265.722028 155.982846 
L 266.047894 155.827599 
L 266.356072 156.256179 
L 267.556645 156.256179 
L 268.180517 156.375122 
L 269.297855 156.375122 
L 269.602779 156.899189 
L 269.912374 156.899189 
L 270.18357 156.375122 
L 270.500027 156.287645 
L 270.799249 155.708656 
L 271.390222 155.708656 
L 271.687788 156.287645 
L 271.984423 156.287645 
L 272.29659 156.776676 
L 272.927478 156.776676 
L 273.220022 157.235771 
L 273.489916 156.776676 
L 273.798327 157.892636 
L 274.1132 157.892636 
L 274.391375 157.716173 
L 274.683651 158.447508 
L 274.997829 157.716173 
L 275.925419 157.716173 
L 276.228288 158.164968 
L 276.520226 158.164968 
L 277.117368 157.857928 
L 277.429614 160.017791 
L 278.045428 159.747281 
L 278.350592 158.079324 
L 278.633897 157.716173 
L 279.921433 157.620395 
L 280.21517 159.780259 
L 280.502634 159.780259 
L 280.815942 160.826785 
L 281.749649 160.826785 
L 282.051444 162.27896 
L 282.35887 161.189936 
L 282.684264 161.864501 
L 283.060312 161.189936 
L 283.401201 162.431776 
L 284.058029 162.431776 
L 284.387923 162.786352 
L 285.061024 162.786352 
L 285.405264 173.560229 
L 285.749036 173.923379 
L 286.118964 175.182358 
L 286.48555 175.258797 
L 287.227478 175.182358 
L 287.590531 177.378927 
L 287.908933 175.256426 
L 288.599306 175.182358 
L 288.893979 178.020214 
L 289.228619 178.020214 
L 289.556681 175.941937 
L 289.879309 175.941937 
L 290.22201 181.581402 
L 290.582691 177.153365 
L 290.908996 175.946682 
L 291.941659 175.946682 
L 292.317116 176.086179 
L 292.697079 176.727157 
L 293.099636 176.727157 
L 293.445576 177.309432 
L 293.764898 181.517339 
L 294.163198 177.309432 
L 294.531375 177.309432 
L 294.855333 177.111363 
L 295.220551 177.309432 
L 295.920856 177.309432 
L 296.261588 177.137214 
L 296.644514 177.137214 
L 296.976887 181.214507 
L 297.29973 177.360498 
L 297.629664 179.78988 
L 297.955212 180.890621 
L 298.335179 177.556759 
L 298.71491 178.023408 
L 299.080198 176.716035 
L 299.445893 176.567042 
L 299.789883 177.537101 
L 300.149209 179.954446 
L 300.542715 179.954446 
L 300.923918 177.812904 
L 301.254538 179.98808 
L 301.609534 179.98808 
L 301.95952 180.503853 
L 302.268273 181.539106 
L 302.614466 180.503853 
L 302.93 185.758938 
L 303.630001 185.758938 
L 304.311611 188.290921 
L 305.303843 188.290921 
L 305.604216 187.785191 
L 305.93652 188.443793 
L 307.284444 188.443793 
L 307.613064 188.831324 
L 308.286446 188.841392 
L 308.724542 189.347122 
L 309.139661 188.841392 
L 309.870578 188.841392 
L 310.551879 189.634325 
L 310.880475 191.289545 
L 311.195586 191.289545 
L 311.514603 193.19032 
L 311.885311 193.19032 
L 312.223279 193.529266 
L 312.934666 193.587895 
L 313.254587 193.529266 
L 313.568395 195.45329 
L 313.901284 199.02349 
L 314.220224 194.225574 
L 314.529099 197.049195 
L 314.856621 197.049195 
L 315.166234 196.774666 
L 315.462904 197.061718 
L 316.435106 197.061718 
L 316.74801 200.317984 
L 317.068279 200.317984 
L 317.40747 197.904229 
L 317.699233 197.904229 
L 318.003416 198.243175 
L 318.322844 199.663635 
L 318.63742 199.068694 
L 318.93615 199.324688 
L 319.260527 201.331664 
L 319.577977 199.324688 
L 319.932781 201.331664 
L 320.255554 201.331664 
L 320.575991 199.407641 
L 320.900811 199.419545 
L 321.198922 200.454799 
L 324.139915 200.454799 
L 324.456844 205.949023 
L 324.792029 205.949023 
L 325.109244 208.052982 
L 325.440001 205.949023 
L 326.076484 205.949023 
L 326.370387 209.606929 
L 326.690182 209.606929 
L 326.994799 208.211993 
L 327.325003 208.229477 
L 327.633391 209.122336 
L 329.243255 209.122336 
L 329.53943 210.915251 
L 329.861856 209.122336 
L 330.190147 209.29443 
L 330.487465 209.122336 
L 330.818297 209.29443 
L 331.169144 209.837145 
L 331.48605 211.914102 
L 331.815522 209.29443 
L 332.435636 209.29443 
L 332.697386 210.002453 
L 333.308719 210.00924 
L 333.599828 213.704562 
L 334.239228 213.704562 
L 334.562343 214.419372 
L 335.201443 214.419372 
L 335.536457 215.19926 
L 335.959272 216.817626 
L 336.561411 216.817626 
L 336.864443 217.153751 
L 337.21204 218.88 
L 337.519349 217.178079 
L 337.827683 217.178079 
L 338.124207 217.532436 
L 338.962488 217.532436 
L 339.395241 218.405649 
L 339.800792 217.532436 
L 340.32762 218.012215 
L 340.663173 218.012215 
L 340.965654 217.532436 
L 342.168229 217.481227 
L 342.470411 217.245384 
L 342.764917 217.245384 
L 343.073405 217.690839 
L 343.393651 217.245384 
L 344.016407 217.892888 
L 344.330239 217.892888 
L 344.661021 217.690839 
L 345.265465 217.690839 
L 345.563768 217.373425 
L 345.858982 217.245384 
L 346.176126 216.898668 
L 346.506818 218.067388 
L 346.506818 218.067388 
" clip-path="url(#p11a1ef5a8c)" style="fill: none; stroke: #1f77b4; stroke-width: 1.5; stroke-linecap: square"/>
   </g>
   <g id="patch_3">
    <path d="M 26.925 228.96 
L 26.925 7.2 
" style="fill: none; stroke: #000000; stroke-width: 0.8; stroke-linejoin: miter; stroke-linecap: square"/>
   </g>
   <g id="patch_4">
    <path d="M 361.725 228.96 
L 361.725 7.2 
" style="fill: none; stroke: #000000; stroke-width: 0.8; stroke-linejoin: miter; stroke-linecap: square"/>
   </g>
   <g id="patch_5">
    <path d="M 26.925 228.96 
L 361.725 228.96 
" style="fill: none; stroke: #000000; stroke-width: 0.8; stroke-linejoin: miter; stroke-linecap: square"/>
   </g>
   <g id="patch_6">
    <path d="M 26.925 7.2 
L 361.725 7.2 
" style="fill: none; stroke: #000000; stroke-width: 0.8; stroke-linejoin: miter; stroke-linecap: square"/>
   </g>
  </g>
 </g>
 <defs>
  <clipPath id="p11a1ef5a8c">
   <rect x="26.925" y="7.2" width="334.8" height="221.76"/>
  </clipPath>
 </defs>
</svg>
