<?xml version="1.0" encoding="utf-8" standalone="no"?>
<!DOCTYPE svg PUBLIC "-//W3C//DTD SVG 1.1//EN"
  "http://www.w3.org/Graphics/SVG/1.1/DTD/svg11.dtd">
<svg xmlns:xlink="http://www.w3.org/1999/xlink" width="368.925pt" height="248.518125pt" viewBox="0 0 368.925 248.518125" xmlns="http://www.w3.org/2000/svg" version="1.1">
 <metadata>
  <rdf:RDF xmlns:dc="http://purl.org/dc/elements/1.1/" xmlns:cc="http://creativecommons.org/ns#" xmlns:rdf="http://www.w3.org/1999/02/22-rdf-syntax-ns#">
   <cc:Work>
    <dc:type rdf:resource="http://purl.org/dc/dcmitype/StillImage"/>
    <dc:date>2023-02-15T20:07:12.144867</dc:date>
    <dc:format>image/svg+xml</dc:format>
    <dc:creator>
     <cc:Agent>
      <dc:title>Matplotlib v3.5.3, https://matplotlib.org/</dc:title>
     </cc:Agent>
    </dc:creator>
   </cc:Work>
  </rdf:RDF>
 </metadata>
 <defs>
  <style type="text/css">*{stroke-linejoin: round; stroke-linecap: butt}</style>
 </defs>
 <g id="figure_1">
  <g id="patch_1">
   <path d="M -0 248.518125 
L 368.925 248.518125 
L 368.925 0 
L -0 0 
z
" style="fill: #ffffff"/>
  </g>
  <g id="axes_1">
   <g id="patch_2">
    <path d="M 26.925 224.64 
L 361.725 224.64 
L 361.725 7.2 
L 26.925 7.2 
z
" style="fill: #ffffff"/>
   </g>
   <g id="matplotlib.axis_1">
    <g id="xtick_1">
     <g id="line2d_1">
      <defs>
       <path id="m888dcb0cbc" d="M 0 0 
L 0 3.5 
" style="stroke: #000000; stroke-width: 0.8"/>
      </defs>
      <g>
       <use xlink:href="#m888dcb0cbc" x="42.143182" y="224.64" style="stroke: #000000; stroke-width: 0.8"/>
      </g>
     </g>
     <g id="text_1">
      <!-- 0 -->
      <g transform="translate(38.961932 239.238437)scale(0.1 -0.1)">
       <defs>
        <path id="DejaVuSans-30" d="M 2034 4250 
Q 1547 4250 1301 3770 
Q 1056 3291 1056 2328 
Q 1056 1369 1301 889 
Q 1547 409 2034 409 
Q 2525 409 2770 889 
Q 3016 1369 3016 2328 
Q 3016 3291 2770 3770 
Q 2525 4250 2034 4250 
z
M 2034 4750 
Q 2819 4750 3233 4129 
Q 3647 3509 3647 2328 
Q 3647 1150 3233 529 
Q 2819 -91 2034 -91 
Q 1250 -91 836 529 
Q 422 1150 422 2328 
Q 422 3509 836 4129 
Q 1250 4750 2034 4750 
z
" transform="scale(0.015625)"/>
       </defs>
       <use xlink:href="#DejaVuSans-30"/>
      </g>
     </g>
    </g>
    <g id="xtick_2">
     <g id="line2d_2">
      <g>
       <use xlink:href="#m888dcb0cbc" x="103.015909" y="224.64" style="stroke: #000000; stroke-width: 0.8"/>
      </g>
     </g>
     <g id="text_2">
      <!-- 20 -->
      <g transform="translate(96.653409 239.238437)scale(0.1 -0.1)">
       <defs>
        <path id="DejaVuSans-32" d="M 1228 531 
L 3431 531 
L 3431 0 
L 469 0 
L 469 531 
Q 828 903 1448 1529 
Q 2069 2156 2228 2338 
Q 2531 2678 2651 2914 
Q 2772 3150 2772 3378 
Q 2772 3750 2511 3984 
Q 2250 4219 1831 4219 
Q 1534 4219 1204 4116 
Q 875 4013 500 3803 
L 500 4441 
Q 881 4594 1212 4672 
Q 1544 4750 1819 4750 
Q 2544 4750 2975 4387 
Q 3406 4025 3406 3419 
Q 3406 3131 3298 2873 
Q 3191 2616 2906 2266 
Q 2828 2175 2409 1742 
Q 1991 1309 1228 531 
z
" transform="scale(0.015625)"/>
       </defs>
       <use xlink:href="#DejaVuSans-32"/>
       <use xlink:href="#DejaVuSans-30" x="63.623047"/>
      </g>
     </g>
    </g>
    <g id="xtick_3">
     <g id="line2d_3">
      <g>
       <use xlink:href="#m888dcb0cbc" x="163.888636" y="224.64" style="stroke: #000000; stroke-width: 0.8"/>
      </g>
     </g>
     <g id="text_3">
      <!-- 40 -->
      <g transform="translate(157.526136 239.238437)scale(0.1 -0.1)">
       <defs>
        <path id="DejaVuSans-34" d="M 2419 4116 
L 825 1625 
L 2419 1625 
L 2419 4116 
z
M 2253 4666 
L 3047 4666 
L 3047 1625 
L 3713 1625 
L 3713 1100 
L 3047 1100 
L 3047 0 
L 2419 0 
L 2419 1100 
L 313 1100 
L 313 1709 
L 2253 4666 
z
" transform="scale(0.015625)"/>
       </defs>
       <use xlink:href="#DejaVuSans-34"/>
       <use xlink:href="#DejaVuSans-30" x="63.623047"/>
      </g>
     </g>
    </g>
    <g id="xtick_4">
     <g id="line2d_4">
      <g>
       <use xlink:href="#m888dcb0cbc" x="224.761364" y="224.64" style="stroke: #000000; stroke-width: 0.8"/>
      </g>
     </g>
     <g id="text_4">
      <!-- 60 -->
      <g transform="translate(218.398864 239.238437)scale(0.1 -0.1)">
       <defs>
        <path id="DejaVuSans-36" d="M 2113 2584 
Q 1688 2584 1439 2293 
Q 1191 2003 1191 1497 
Q 1191 994 1439 701 
Q 1688 409 2113 409 
Q 2538 409 2786 701 
Q 3034 994 3034 1497 
Q 3034 2003 2786 2293 
Q 2538 2584 2113 2584 
z
M 3366 4563 
L 3366 3988 
Q 3128 4100 2886 4159 
Q 2644 4219 2406 4219 
Q 1781 4219 1451 3797 
Q 1122 3375 1075 2522 
Q 1259 2794 1537 2939 
Q 1816 3084 2150 3084 
Q 2853 3084 3261 2657 
Q 3669 2231 3669 1497 
Q 3669 778 3244 343 
Q 2819 -91 2113 -91 
Q 1303 -91 875 529 
Q 447 1150 447 2328 
Q 447 3434 972 4092 
Q 1497 4750 2381 4750 
Q 2619 4750 2861 4703 
Q 3103 4656 3366 4563 
z
" transform="scale(0.015625)"/>
       </defs>
       <use xlink:href="#DejaVuSans-36"/>
       <use xlink:href="#DejaVuSans-30" x="63.623047"/>
      </g>
     </g>
    </g>
    <g id="xtick_5">
     <g id="line2d_5">
      <g>
       <use xlink:href="#m888dcb0cbc" x="285.634091" y="224.64" style="stroke: #000000; stroke-width: 0.8"/>
      </g>
     </g>
     <g id="text_5">
      <!-- 80 -->
      <g transform="translate(279.271591 239.238437)scale(0.1 -0.1)">
       <defs>
        <path id="DejaVuSans-38" d="M 2034 2216 
Q 1584 2216 1326 1975 
Q 1069 1734 1069 1313 
Q 1069 891 1326 650 
Q 1584 409 2034 409 
Q 2484 409 2743 651 
Q 3003 894 3003 1313 
Q 3003 1734 2745 1975 
Q 2488 2216 2034 2216 
z
M 1403 2484 
Q 997 2584 770 2862 
Q 544 3141 544 3541 
Q 544 4100 942 4425 
Q 1341 4750 2034 4750 
Q 2731 4750 3128 4425 
Q 3525 4100 3525 3541 
Q 3525 3141 3298 2862 
Q 3072 2584 2669 2484 
Q 3125 2378 3379 2068 
Q 3634 1759 3634 1313 
Q 3634 634 3220 271 
Q 2806 -91 2034 -91 
Q 1263 -91 848 271 
Q 434 634 434 1313 
Q 434 1759 690 2068 
Q 947 2378 1403 2484 
z
M 1172 3481 
Q 1172 3119 1398 2916 
Q 1625 2713 2034 2713 
Q 2441 2713 2670 2916 
Q 2900 3119 2900 3481 
Q 2900 3844 2670 4047 
Q 2441 4250 2034 4250 
Q 1625 4250 1398 4047 
Q 1172 3844 1172 3481 
z
" transform="scale(0.015625)"/>
       </defs>
       <use xlink:href="#DejaVuSans-38"/>
       <use xlink:href="#DejaVuSans-30" x="63.623047"/>
      </g>
     </g>
    </g>
    <g id="xtick_6">
     <g id="line2d_6">
      <g>
       <use xlink:href="#m888dcb0cbc" x="346.506818" y="224.64" style="stroke: #000000; stroke-width: 0.8"/>
      </g>
     </g>
     <g id="text_6">
      <!-- 100 -->
      <g transform="translate(336.963068 239.238437)scale(0.1 -0.1)">
       <defs>
        <path id="DejaVuSans-31" d="M 794 531 
L 1825 531 
L 1825 4091 
L 703 3866 
L 703 4441 
L 1819 4666 
L 2450 4666 
L 2450 531 
L 3481 531 
L 3481 0 
L 794 0 
L 794 531 
z
" transform="scale(0.015625)"/>
       </defs>
       <use xlink:href="#DejaVuSans-31"/>
       <use xlink:href="#DejaVuSans-30" x="63.623047"/>
       <use xlink:href="#DejaVuSans-30" x="127.246094"/>
      </g>
     </g>
    </g>
   </g>
   <g id="matplotlib.axis_2">
    <g id="ytick_1">
     <g id="line2d_7">
      <defs>
       <path id="m7503639b13" d="M 0 0 
L -3.5 0 
" style="stroke: #000000; stroke-width: 0.8"/>
      </defs>
      <g>
       <use xlink:href="#m7503639b13" x="26.925" y="217.540066" style="stroke: #000000; stroke-width: 0.8"/>
      </g>
     </g>
     <g id="text_7">
      <!-- 0 -->
      <g transform="translate(13.5625 221.339284)scale(0.1 -0.1)">
       <use xlink:href="#DejaVuSans-30"/>
      </g>
     </g>
    </g>
    <g id="ytick_2">
     <g id="line2d_8">
      <g>
       <use xlink:href="#m7503639b13" x="26.925" y="171.945625" style="stroke: #000000; stroke-width: 0.8"/>
      </g>
     </g>
     <g id="text_8">
      <!-- 20 -->
      <g transform="translate(7.2 175.744843)scale(0.1 -0.1)">
       <use xlink:href="#DejaVuSans-32"/>
       <use xlink:href="#DejaVuSans-30" x="63.623047"/>
      </g>
     </g>
    </g>
    <g id="ytick_3">
     <g id="line2d_9">
      <g>
       <use xlink:href="#m7503639b13" x="26.925" y="126.351183" style="stroke: #000000; stroke-width: 0.8"/>
      </g>
     </g>
     <g id="text_9">
      <!-- 40 -->
      <g transform="translate(7.2 130.150402)scale(0.1 -0.1)">
       <use xlink:href="#DejaVuSans-34"/>
       <use xlink:href="#DejaVuSans-30" x="63.623047"/>
      </g>
     </g>
    </g>
    <g id="ytick_4">
     <g id="line2d_10">
      <g>
       <use xlink:href="#m7503639b13" x="26.925" y="80.756742" style="stroke: #000000; stroke-width: 0.8"/>
      </g>
     </g>
     <g id="text_10">
      <!-- 60 -->
      <g transform="translate(7.2 84.555961)scale(0.1 -0.1)">
       <use xlink:href="#DejaVuSans-36"/>
       <use xlink:href="#DejaVuSans-30" x="63.623047"/>
      </g>
     </g>
    </g>
    <g id="ytick_5">
     <g id="line2d_11">
      <g>
       <use xlink:href="#m7503639b13" x="26.925" y="35.162301" style="stroke: #000000; stroke-width: 0.8"/>
      </g>
     </g>
     <g id="text_11">
      <!-- 80 -->
      <g transform="translate(7.2 38.96152)scale(0.1 -0.1)">
       <use xlink:href="#DejaVuSans-38"/>
       <use xlink:href="#DejaVuSans-30" x="63.623047"/>
      </g>
     </g>
    </g>
   </g>
   <g id="line2d_12">
    <path d="M 42.143182 17.083636 
L 45.186818 17.102472 
L 48.230455 17.102472 
L 51.274091 18.112004 
L 54.317727 19.48406 
L 57.361364 19.395502 
L 60.405 22.20863 
L 63.448636 20.061398 
L 66.492273 20.705478 
L 69.535909 20.705478 
L 72.579545 22.230854 
L 75.623182 22.230854 
L 78.666818 24.209273 
L 81.710455 23.506664 
L 84.754091 23.730345 
L 87.797727 24.011141 
L 90.841364 24.368958 
L 93.885 24.383822 
L 96.928636 25.163818 
L 99.972273 25.942169 
L 103.015909 26.554575 
L 106.059545 26.57429 
L 109.103182 26.729495 
L 112.146818 27.334243 
L 115.190455 27.448944 
L 118.234091 27.741243 
L 121.277727 27.741243 
L 124.321364 27.85148 
L 127.365 28.425045 
L 130.408636 28.425045 
L 133.452273 28.508764 
L 136.495909 28.678915 
L 139.539545 28.965778 
L 142.583182 29.357152 
L 145.626818 29.790918 
L 148.670455 29.790918 
L 151.714091 29.876056 
L 154.757727 29.790918 
L 157.801364 30.114413 
L 160.845 30.21281 
L 163.888636 30.452137 
L 166.932273 30.722915 
L 169.975909 30.469316 
L 173.019545 30.624584 
L 176.063182 30.987023 
L 179.106818 30.987023 
L 182.150455 31.020009 
L 185.194091 31.039962 
L 188.237727 31.453066 
L 191.281364 31.769243 
L 194.325 31.903138 
L 197.368636 31.903138 
L 200.412273 32.19511 
L 203.455909 32.376145 
L 206.499545 32.666586 
L 209.543182 33.235359 
L 212.586818 33.31757 
L 215.630455 33.757372 
L 218.674091 34.148298 
L 221.717727 34.226807 
L 224.761364 34.226807 
L 227.805 34.269893 
L 230.848636 34.226807 
L 233.892273 34.40464 
L 236.935909 34.596995 
L 239.979545 34.684845 
L 243.023182 34.979131 
L 246.066818 35.617367 
L 249.110455 35.617367 
L 252.154091 35.748278 
L 255.197727 35.748278 
L 258.241364 36.140375 
L 261.285 36.591426 
L 264.328636 36.656634 
L 267.372273 36.833789 
L 270.415909 37.21293 
L 273.459545 37.696631 
L 276.503182 37.996903 
L 279.546818 38.148757 
L 282.590455 38.393018 
L 285.634091 38.736107 
L 288.677727 38.736107 
L 291.721364 39.090665 
L 294.765 39.090665 
L 297.808636 39.471362 
L 300.852273 39.531002 
L 303.895909 39.70341 
L 306.939545 39.70341 
L 309.983182 39.70341 
L 313.026818 40.117094 
L 316.070455 40.636315 
L 319.114091 40.757496 
L 322.157727 41.144324 
L 325.201364 41.441938 
L 328.245 41.522044 
L 331.288636 41.785546 
L 334.332273 41.441938 
L 337.375909 41.482347 
L 340.419545 41.768358 
L 343.463182 41.852133 
L 346.506818 42.087627 
" clip-path="url(#p901b975a37)" style="fill: none; stroke: #1f77b4; stroke-width: 1.5; stroke-linecap: square"/>
   </g>
   <g id="line2d_13">
    <path d="M 42.143182 20.214935 
L 45.186818 19.886174 
L 48.230455 19.886174 
L 51.274091 21.031325 
L 54.317727 22.576862 
L 57.361364 22.633595 
L 60.405 25.430632 
L 63.448636 23.508893 
L 66.492273 24.13987 
L 69.535909 24.13987 
L 72.579545 25.561379 
L 75.623182 25.561379 
L 78.666818 27.459525 
L 81.710455 27.109435 
L 84.754091 27.295936 
L 87.797727 27.237931 
L 90.841364 27.682586 
L 93.885 27.651279 
L 96.928636 28.36877 
L 99.972273 28.900634 
L 103.015909 29.678911 
L 106.059545 29.772921 
L 109.103182 29.823663 
L 112.146818 30.43833 
L 115.190455 30.558856 
L 118.234091 30.775501 
L 121.277727 30.775501 
L 124.321364 30.865644 
L 127.365 31.462531 
L 130.408636 31.462531 
L 133.452273 31.620338 
L 136.495909 31.792504 
L 139.539545 32.027465 
L 142.583182 32.424469 
L 145.626818 32.881416 
L 148.670455 32.881416 
L 151.714091 32.970931 
L 154.757727 32.881416 
L 157.801364 33.214127 
L 160.845 33.317258 
L 163.888636 33.555623 
L 166.932273 33.823852 
L 169.975909 33.573564 
L 173.019545 33.737916 
L 176.063182 34.146015 
L 179.106818 34.146015 
L 182.150455 34.137208 
L 185.194091 34.197746 
L 188.237727 34.588698 
L 191.281364 34.919238 
L 194.325 35.04961 
L 197.368636 35.04961 
L 200.412273 35.413264 
L 203.455909 35.52976 
L 206.499545 35.823155 
L 209.543182 36.404003 
L 212.586818 36.523904 
L 215.630455 36.979063 
L 218.674091 37.380502 
L 221.717727 37.466052 
L 224.761364 37.466052 
L 227.805 37.516302 
L 230.848636 37.466052 
L 233.892273 37.649111 
L 236.935909 37.848528 
L 239.979545 37.947831 
L 243.023182 38.30102 
L 246.066818 38.956879 
L 249.110455 38.956879 
L 252.154091 39.103012 
L 255.197727 39.103012 
L 258.241364 39.498704 
L 261.285 39.969834 
L 264.328636 40.039786 
L 267.372273 40.237901 
L 270.415909 40.607427 
L 273.459545 41.102376 
L 276.503182 41.402175 
L 279.546818 41.607848 
L 282.590455 41.802095 
L 285.634091 42.151006 
L 288.677727 42.151006 
L 291.721364 42.549968 
L 294.765 42.549968 
L 297.808636 42.935979 
L 300.852273 43.047393 
L 303.895909 43.22411 
L 306.939545 43.22411 
L 309.983182 43.22411 
L 313.026818 43.642335 
L 316.070455 44.161256 
L 319.114091 44.303292 
L 322.157727 44.68003 
L 325.201364 44.974299 
L 328.245 45.061937 
L 331.288636 45.337426 
L 334.332273 44.974299 
L 337.375909 45.023881 
L 340.419545 45.309824 
L 343.463182 45.390813 
L 346.506818 45.636761 
" clip-path="url(#p901b975a37)" style="fill: none; stroke: #ff7f0e; stroke-width: 1.5; stroke-linecap: square"/>
   </g>
   <g id="line2d_14">
    <path d="M 42.143182 214.408767 
L 45.186818 214.756364 
L 48.230455 214.756364 
L 51.274091 214.620745 
L 54.317727 214.447264 
L 57.361364 214.301973 
L 60.405 214.318064 
L 63.448636 214.092571 
L 66.492273 214.105674 
L 69.535909 214.105674 
L 72.579545 214.20954 
L 75.623182 214.20954 
L 78.666818 214.289814 
L 81.710455 213.937295 
L 84.754091 213.974475 
L 87.797727 214.313276 
L 90.841364 214.226438 
L 93.885 214.272608 
L 96.928636 214.335114 
L 99.972273 214.581601 
L 103.015909 214.415729 
L 106.059545 214.341435 
L 109.103182 214.445897 
L 112.146818 214.435979 
L 115.190455 214.430154 
L 118.234091 214.505808 
L 121.277727 214.505808 
L 124.321364 214.525901 
L 127.365 214.50258 
L 130.408636 214.50258 
L 133.452273 214.428491 
L 136.495909 214.426477 
L 139.539545 214.478379 
L 142.583182 214.472749 
L 145.626818 214.449567 
L 148.670455 214.449567 
L 151.714091 214.44519 
L 154.757727 214.449567 
L 157.801364 214.440351 
L 160.845 214.435618 
L 163.888636 214.43658 
L 166.932273 214.439128 
L 169.975909 214.435818 
L 173.019545 214.426734 
L 176.063182 214.381074 
L 179.106818 214.381074 
L 182.150455 214.422866 
L 185.194091 214.382281 
L 188.237727 214.404434 
L 191.281364 214.390071 
L 194.325 214.393594 
L 197.368636 214.393594 
L 200.412273 214.321912 
L 203.455909 214.386451 
L 206.499545 214.383496 
L 209.543182 214.371422 
L 212.586818 214.333731 
L 215.630455 214.318375 
L 218.674091 214.307862 
L 221.717727 214.300821 
L 224.761364 214.300821 
L 227.805 214.293657 
L 230.848636 214.300821 
L 233.892273 214.295595 
L 236.935909 214.288532 
L 239.979545 214.277079 
L 243.023182 214.218177 
L 246.066818 214.200554 
L 249.110455 214.200554 
L 252.154091 214.185332 
L 255.197727 214.185332 
L 258.241364 214.181737 
L 261.285 214.161658 
L 264.328636 214.156914 
L 267.372273 214.135954 
L 270.415909 214.145569 
L 273.459545 214.13432 
L 276.503182 214.134794 
L 279.546818 214.080975 
L 282.590455 214.130989 
L 285.634091 214.125167 
L 288.677727 214.125167 
L 291.721364 214.080763 
L 294.765 214.080763 
L 297.808636 214.075449 
L 300.852273 214.023675 
L 303.895909 214.019366 
L 306.939545 214.019366 
L 309.983182 214.019366 
L 313.026818 214.014826 
L 316.070455 214.015125 
L 319.114091 213.994269 
L 322.157727 214.004359 
L 325.201364 214.007705 
L 328.245 214.000173 
L 331.288636 213.988186 
L 334.332273 214.007705 
L 337.375909 213.998532 
L 340.419545 213.998599 
L 343.463182 214.001386 
L 346.506818 213.990931 
" clip-path="url(#p901b975a37)" style="fill: none; stroke: #2ca02c; stroke-width: 1.5; stroke-linecap: square"/>
   </g>
   <g id="patch_3">
    <path d="M 26.925 224.64 
L 26.925 7.2 
" style="fill: none; stroke: #000000; stroke-width: 0.8; stroke-linejoin: miter; stroke-linecap: square"/>
   </g>
   <g id="patch_4">
    <path d="M 361.725 224.64 
L 361.725 7.2 
" style="fill: none; stroke: #000000; stroke-width: 0.8; stroke-linejoin: miter; stroke-linecap: square"/>
   </g>
   <g id="patch_5">
    <path d="M 26.925 224.64 
L 361.725 224.64 
" style="fill: none; stroke: #000000; stroke-width: 0.8; stroke-linejoin: miter; stroke-linecap: square"/>
   </g>
   <g id="patch_6">
    <path d="M 26.925 7.2 
L 361.725 7.2 
" style="fill: none; stroke: #000000; stroke-width: 0.8; stroke-linejoin: miter; stroke-linecap: square"/>
   </g>
   <g id="legend_1">
    <g id="patch_7">
     <path d="M 201.335938 139.437187 
L 354.725 139.437187 
Q 356.725 139.437187 356.725 137.437187 
L 356.725 94.402812 
Q 356.725 92.402812 354.725 92.402812 
L 201.335938 92.402812 
Q 199.335938 92.402812 199.335938 94.402812 
L 199.335938 137.437187 
Q 199.335938 139.437187 201.335938 139.437187 
z
" style="fill: #ffffff; opacity: 0.8; stroke: #cccccc; stroke-linejoin: miter"/>
    </g>
    <g id="line2d_15">
     <path d="M 203.335938 100.50125 
L 213.335938 100.50125 
L 223.335938 100.50125 
" style="fill: none; stroke: #1f77b4; stroke-width: 1.5; stroke-linecap: square"/>
    </g>
    <g id="text_12">
     <!-- target value -->
     <g transform="translate(231.335938 104.00125)scale(0.1 -0.1)">
      <defs>
       <path id="DejaVuSans-74" d="M 1172 4494 
L 1172 3500 
L 2356 3500 
L 2356 3053 
L 1172 3053 
L 1172 1153 
Q 1172 725 1289 603 
Q 1406 481 1766 481 
L 2356 481 
L 2356 0 
L 1766 0 
Q 1100 0 847 248 
Q 594 497 594 1153 
L 594 3053 
L 172 3053 
L 172 3500 
L 594 3500 
L 594 4494 
L 1172 4494 
z
" transform="scale(0.015625)"/>
       <path id="DejaVuSans-61" d="M 2194 1759 
Q 1497 1759 1228 1600 
Q 959 1441 959 1056 
Q 959 750 1161 570 
Q 1363 391 1709 391 
Q 2188 391 2477 730 
Q 2766 1069 2766 1631 
L 2766 1759 
L 2194 1759 
z
M 3341 1997 
L 3341 0 
L 2766 0 
L 2766 531 
Q 2569 213 2275 61 
Q 1981 -91 1556 -91 
Q 1019 -91 701 211 
Q 384 513 384 1019 
Q 384 1609 779 1909 
Q 1175 2209 1959 2209 
L 2766 2209 
L 2766 2266 
Q 2766 2663 2505 2880 
Q 2244 3097 1772 3097 
Q 1472 3097 1187 3025 
Q 903 2953 641 2809 
L 641 3341 
Q 956 3463 1253 3523 
Q 1550 3584 1831 3584 
Q 2591 3584 2966 3190 
Q 3341 2797 3341 1997 
z
" transform="scale(0.015625)"/>
       <path id="DejaVuSans-72" d="M 2631 2963 
Q 2534 3019 2420 3045 
Q 2306 3072 2169 3072 
Q 1681 3072 1420 2755 
Q 1159 2438 1159 1844 
L 1159 0 
L 581 0 
L 581 3500 
L 1159 3500 
L 1159 2956 
Q 1341 3275 1631 3429 
Q 1922 3584 2338 3584 
Q 2397 3584 2469 3576 
Q 2541 3569 2628 3553 
L 2631 2963 
z
" transform="scale(0.015625)"/>
       <path id="DejaVuSans-67" d="M 2906 1791 
Q 2906 2416 2648 2759 
Q 2391 3103 1925 3103 
Q 1463 3103 1205 2759 
Q 947 2416 947 1791 
Q 947 1169 1205 825 
Q 1463 481 1925 481 
Q 2391 481 2648 825 
Q 2906 1169 2906 1791 
z
M 3481 434 
Q 3481 -459 3084 -895 
Q 2688 -1331 1869 -1331 
Q 1566 -1331 1297 -1286 
Q 1028 -1241 775 -1147 
L 775 -588 
Q 1028 -725 1275 -790 
Q 1522 -856 1778 -856 
Q 2344 -856 2625 -561 
Q 2906 -266 2906 331 
L 2906 616 
Q 2728 306 2450 153 
Q 2172 0 1784 0 
Q 1141 0 747 490 
Q 353 981 353 1791 
Q 353 2603 747 3093 
Q 1141 3584 1784 3584 
Q 2172 3584 2450 3431 
Q 2728 3278 2906 2969 
L 2906 3500 
L 3481 3500 
L 3481 434 
z
" transform="scale(0.015625)"/>
       <path id="DejaVuSans-65" d="M 3597 1894 
L 3597 1613 
L 953 1613 
Q 991 1019 1311 708 
Q 1631 397 2203 397 
Q 2534 397 2845 478 
Q 3156 559 3463 722 
L 3463 178 
Q 3153 47 2828 -22 
Q 2503 -91 2169 -91 
Q 1331 -91 842 396 
Q 353 884 353 1716 
Q 353 2575 817 3079 
Q 1281 3584 2069 3584 
Q 2775 3584 3186 3129 
Q 3597 2675 3597 1894 
z
M 3022 2063 
Q 3016 2534 2758 2815 
Q 2500 3097 2075 3097 
Q 1594 3097 1305 2825 
Q 1016 2553 972 2059 
L 3022 2063 
z
" transform="scale(0.015625)"/>
       <path id="DejaVuSans-20" transform="scale(0.015625)"/>
       <path id="DejaVuSans-76" d="M 191 3500 
L 800 3500 
L 1894 563 
L 2988 3500 
L 3597 3500 
L 2284 0 
L 1503 0 
L 191 3500 
z
" transform="scale(0.015625)"/>
       <path id="DejaVuSans-6c" d="M 603 4863 
L 1178 4863 
L 1178 0 
L 603 0 
L 603 4863 
z
" transform="scale(0.015625)"/>
       <path id="DejaVuSans-75" d="M 544 1381 
L 544 3500 
L 1119 3500 
L 1119 1403 
Q 1119 906 1312 657 
Q 1506 409 1894 409 
Q 2359 409 2629 706 
Q 2900 1003 2900 1516 
L 2900 3500 
L 3475 3500 
L 3475 0 
L 2900 0 
L 2900 538 
Q 2691 219 2414 64 
Q 2138 -91 1772 -91 
Q 1169 -91 856 284 
Q 544 659 544 1381 
z
M 1991 3584 
L 1991 3584 
z
" transform="scale(0.015625)"/>
      </defs>
      <use xlink:href="#DejaVuSans-74"/>
      <use xlink:href="#DejaVuSans-61" x="39.208984"/>
      <use xlink:href="#DejaVuSans-72" x="100.488281"/>
      <use xlink:href="#DejaVuSans-67" x="139.851562"/>
      <use xlink:href="#DejaVuSans-65" x="203.328125"/>
      <use xlink:href="#DejaVuSans-74" x="264.851562"/>
      <use xlink:href="#DejaVuSans-20" x="304.060547"/>
      <use xlink:href="#DejaVuSans-76" x="335.847656"/>
      <use xlink:href="#DejaVuSans-61" x="395.027344"/>
      <use xlink:href="#DejaVuSans-6c" x="456.306641"/>
      <use xlink:href="#DejaVuSans-75" x="484.089844"/>
      <use xlink:href="#DejaVuSans-65" x="547.46875"/>
     </g>
    </g>
    <g id="line2d_16">
     <path d="M 203.335938 115.179375 
L 213.335938 115.179375 
L 223.335938 115.179375 
" style="fill: none; stroke: #ff7f0e; stroke-width: 1.5; stroke-linecap: square"/>
    </g>
    <g id="text_13">
     <!-- communication cost -->
     <g transform="translate(231.335938 118.679375)scale(0.1 -0.1)">
      <defs>
       <path id="DejaVuSans-63" d="M 3122 3366 
L 3122 2828 
Q 2878 2963 2633 3030 
Q 2388 3097 2138 3097 
Q 1578 3097 1268 2742 
Q 959 2388 959 1747 
Q 959 1106 1268 751 
Q 1578 397 2138 397 
Q 2388 397 2633 464 
Q 2878 531 3122 666 
L 3122 134 
Q 2881 22 2623 -34 
Q 2366 -91 2075 -91 
Q 1284 -91 818 406 
Q 353 903 353 1747 
Q 353 2603 823 3093 
Q 1294 3584 2113 3584 
Q 2378 3584 2631 3529 
Q 2884 3475 3122 3366 
z
" transform="scale(0.015625)"/>
       <path id="DejaVuSans-6f" d="M 1959 3097 
Q 1497 3097 1228 2736 
Q 959 2375 959 1747 
Q 959 1119 1226 758 
Q 1494 397 1959 397 
Q 2419 397 2687 759 
Q 2956 1122 2956 1747 
Q 2956 2369 2687 2733 
Q 2419 3097 1959 3097 
z
M 1959 3584 
Q 2709 3584 3137 3096 
Q 3566 2609 3566 1747 
Q 3566 888 3137 398 
Q 2709 -91 1959 -91 
Q 1206 -91 779 398 
Q 353 888 353 1747 
Q 353 2609 779 3096 
Q 1206 3584 1959 3584 
z
" transform="scale(0.015625)"/>
       <path id="DejaVuSans-6d" d="M 3328 2828 
Q 3544 3216 3844 3400 
Q 4144 3584 4550 3584 
Q 5097 3584 5394 3201 
Q 5691 2819 5691 2113 
L 5691 0 
L 5113 0 
L 5113 2094 
Q 5113 2597 4934 2840 
Q 4756 3084 4391 3084 
Q 3944 3084 3684 2787 
Q 3425 2491 3425 1978 
L 3425 0 
L 2847 0 
L 2847 2094 
Q 2847 2600 2669 2842 
Q 2491 3084 2119 3084 
Q 1678 3084 1418 2786 
Q 1159 2488 1159 1978 
L 1159 0 
L 581 0 
L 581 3500 
L 1159 3500 
L 1159 2956 
Q 1356 3278 1631 3431 
Q 1906 3584 2284 3584 
Q 2666 3584 2933 3390 
Q 3200 3197 3328 2828 
z
" transform="scale(0.015625)"/>
       <path id="DejaVuSans-6e" d="M 3513 2113 
L 3513 0 
L 2938 0 
L 2938 2094 
Q 2938 2591 2744 2837 
Q 2550 3084 2163 3084 
Q 1697 3084 1428 2787 
Q 1159 2491 1159 1978 
L 1159 0 
L 581 0 
L 581 3500 
L 1159 3500 
L 1159 2956 
Q 1366 3272 1645 3428 
Q 1925 3584 2291 3584 
Q 2894 3584 3203 3211 
Q 3513 2838 3513 2113 
z
" transform="scale(0.015625)"/>
       <path id="DejaVuSans-69" d="M 603 3500 
L 1178 3500 
L 1178 0 
L 603 0 
L 603 3500 
z
M 603 4863 
L 1178 4863 
L 1178 4134 
L 603 4134 
L 603 4863 
z
" transform="scale(0.015625)"/>
       <path id="DejaVuSans-73" d="M 2834 3397 
L 2834 2853 
Q 2591 2978 2328 3040 
Q 2066 3103 1784 3103 
Q 1356 3103 1142 2972 
Q 928 2841 928 2578 
Q 928 2378 1081 2264 
Q 1234 2150 1697 2047 
L 1894 2003 
Q 2506 1872 2764 1633 
Q 3022 1394 3022 966 
Q 3022 478 2636 193 
Q 2250 -91 1575 -91 
Q 1294 -91 989 -36 
Q 684 19 347 128 
L 347 722 
Q 666 556 975 473 
Q 1284 391 1588 391 
Q 1994 391 2212 530 
Q 2431 669 2431 922 
Q 2431 1156 2273 1281 
Q 2116 1406 1581 1522 
L 1381 1569 
Q 847 1681 609 1914 
Q 372 2147 372 2553 
Q 372 3047 722 3315 
Q 1072 3584 1716 3584 
Q 2034 3584 2315 3537 
Q 2597 3491 2834 3397 
z
" transform="scale(0.015625)"/>
      </defs>
      <use xlink:href="#DejaVuSans-63"/>
      <use xlink:href="#DejaVuSans-6f" x="54.980469"/>
      <use xlink:href="#DejaVuSans-6d" x="116.162109"/>
      <use xlink:href="#DejaVuSans-6d" x="213.574219"/>
      <use xlink:href="#DejaVuSans-75" x="310.986328"/>
      <use xlink:href="#DejaVuSans-6e" x="374.365234"/>
      <use xlink:href="#DejaVuSans-69" x="437.744141"/>
      <use xlink:href="#DejaVuSans-63" x="465.527344"/>
      <use xlink:href="#DejaVuSans-61" x="520.507812"/>
      <use xlink:href="#DejaVuSans-74" x="581.787109"/>
      <use xlink:href="#DejaVuSans-69" x="620.996094"/>
      <use xlink:href="#DejaVuSans-6f" x="648.779297"/>
      <use xlink:href="#DejaVuSans-6e" x="709.960938"/>
      <use xlink:href="#DejaVuSans-20" x="773.339844"/>
      <use xlink:href="#DejaVuSans-63" x="805.126953"/>
      <use xlink:href="#DejaVuSans-6f" x="860.107422"/>
      <use xlink:href="#DejaVuSans-73" x="921.289062"/>
      <use xlink:href="#DejaVuSans-74" x="973.388672"/>
     </g>
    </g>
    <g id="line2d_17">
     <path d="M 203.335938 129.8575 
L 213.335938 129.8575 
L 223.335938 129.8575 
" style="fill: none; stroke: #2ca02c; stroke-width: 1.5; stroke-linecap: square"/>
    </g>
    <g id="text_14">
     <!-- node storage proportion -->
     <g transform="translate(231.335938 133.3575)scale(0.1 -0.1)">
      <defs>
       <path id="DejaVuSans-64" d="M 2906 2969 
L 2906 4863 
L 3481 4863 
L 3481 0 
L 2906 0 
L 2906 525 
Q 2725 213 2448 61 
Q 2172 -91 1784 -91 
Q 1150 -91 751 415 
Q 353 922 353 1747 
Q 353 2572 751 3078 
Q 1150 3584 1784 3584 
Q 2172 3584 2448 3432 
Q 2725 3281 2906 2969 
z
M 947 1747 
Q 947 1113 1208 752 
Q 1469 391 1925 391 
Q 2381 391 2643 752 
Q 2906 1113 2906 1747 
Q 2906 2381 2643 2742 
Q 2381 3103 1925 3103 
Q 1469 3103 1208 2742 
Q 947 2381 947 1747 
z
" transform="scale(0.015625)"/>
       <path id="DejaVuSans-70" d="M 1159 525 
L 1159 -1331 
L 581 -1331 
L 581 3500 
L 1159 3500 
L 1159 2969 
Q 1341 3281 1617 3432 
Q 1894 3584 2278 3584 
Q 2916 3584 3314 3078 
Q 3713 2572 3713 1747 
Q 3713 922 3314 415 
Q 2916 -91 2278 -91 
Q 1894 -91 1617 61 
Q 1341 213 1159 525 
z
M 3116 1747 
Q 3116 2381 2855 2742 
Q 2594 3103 2138 3103 
Q 1681 3103 1420 2742 
Q 1159 2381 1159 1747 
Q 1159 1113 1420 752 
Q 1681 391 2138 391 
Q 2594 391 2855 752 
Q 3116 1113 3116 1747 
z
" transform="scale(0.015625)"/>
      </defs>
      <use xlink:href="#DejaVuSans-6e"/>
      <use xlink:href="#DejaVuSans-6f" x="63.378906"/>
      <use xlink:href="#DejaVuSans-64" x="124.560547"/>
      <use xlink:href="#DejaVuSans-65" x="188.037109"/>
      <use xlink:href="#DejaVuSans-20" x="249.560547"/>
      <use xlink:href="#DejaVuSans-73" x="281.347656"/>
      <use xlink:href="#DejaVuSans-74" x="333.447266"/>
      <use xlink:href="#DejaVuSans-6f" x="372.65625"/>
      <use xlink:href="#DejaVuSans-72" x="433.837891"/>
      <use xlink:href="#DejaVuSans-61" x="474.951172"/>
      <use xlink:href="#DejaVuSans-67" x="536.230469"/>
      <use xlink:href="#DejaVuSans-65" x="599.707031"/>
      <use xlink:href="#DejaVuSans-20" x="661.230469"/>
      <use xlink:href="#DejaVuSans-70" x="693.017578"/>
      <use xlink:href="#DejaVuSans-72" x="756.494141"/>
      <use xlink:href="#DejaVuSans-6f" x="795.357422"/>
      <use xlink:href="#DejaVuSans-70" x="856.539062"/>
      <use xlink:href="#DejaVuSans-6f" x="920.015625"/>
      <use xlink:href="#DejaVuSans-72" x="981.197266"/>
      <use xlink:href="#DejaVuSans-74" x="1022.310547"/>
      <use xlink:href="#DejaVuSans-69" x="1061.519531"/>
      <use xlink:href="#DejaVuSans-6f" x="1089.302734"/>
      <use xlink:href="#DejaVuSans-6e" x="1150.484375"/>
     </g>
    </g>
   </g>
  </g>
 </g>
 <defs>
  <clipPath id="p901b975a37">
   <rect x="26.925" y="7.2" width="334.8" height="217.44"/>
  </clipPath>
 </defs>
</svg>
