<?xml version="1.0" encoding="utf-8" standalone="no"?>
<!DOCTYPE svg PUBLIC "-//W3C//DTD SVG 1.1//EN"
  "http://www.w3.org/Graphics/SVG/1.1/DTD/svg11.dtd">
<svg xmlns:xlink="http://www.w3.org/1999/xlink" width="368.925pt" height="252.838125pt" viewBox="0 0 368.925 252.838125" xmlns="http://www.w3.org/2000/svg" version="1.1">
 <metadata>
  <rdf:RDF xmlns:dc="http://purl.org/dc/elements/1.1/" xmlns:cc="http://creativecommons.org/ns#" xmlns:rdf="http://www.w3.org/1999/02/22-rdf-syntax-ns#">
   <cc:Work>
    <dc:type rdf:resource="http://purl.org/dc/dcmitype/StillImage"/>
    <dc:date>2023-04-19T16:57:11.132233</dc:date>
    <dc:format>image/svg+xml</dc:format>
    <dc:creator>
     <cc:Agent>
      <dc:title>Matplotlib v3.6.2, https://matplotlib.org/</dc:title>
     </cc:Agent>
    </dc:creator>
   </cc:Work>
  </rdf:RDF>
 </metadata>
 <defs>
  <style type="text/css">*{stroke-linejoin: round; stroke-linecap: butt}</style>
 </defs>
 <g id="figure_1">
  <g id="patch_1">
   <path d="M -0 252.838125 
L 368.925 252.838125 
L 368.925 0 
L -0 0 
z
" style="fill: #ffffff"/>
  </g>
  <g id="axes_1">
   <g id="patch_2">
    <path d="M 26.925 228.96 
L 361.725 228.96 
L 361.725 7.2 
L 26.925 7.2 
z
" style="fill: #ffffff"/>
   </g>
   <g id="matplotlib.axis_1">
    <g id="xtick_1">
     <g id="line2d_1">
      <defs>
       <path id="mbbe58a73c0" d="M 0 0 
L 0 3.5 
" style="stroke: #000000; stroke-width: 0.8"/>
      </defs>
      <g>
       <use xlink:href="#mbbe58a73c0" x="42.143182" y="228.96" style="stroke: #000000; stroke-width: 0.8"/>
      </g>
     </g>
     <g id="text_1">
      <!-- 0 -->
      <g transform="translate(38.961932 243.558437) scale(0.1 -0.1)">
       <defs>
        <path id="DejaVuSans-30" d="M 2034 4250 
Q 1547 4250 1301 3770 
Q 1056 3291 1056 2328 
Q 1056 1369 1301 889 
Q 1547 409 2034 409 
Q 2525 409 2770 889 
Q 3016 1369 3016 2328 
Q 3016 3291 2770 3770 
Q 2525 4250 2034 4250 
z
M 2034 4750 
Q 2819 4750 3233 4129 
Q 3647 3509 3647 2328 
Q 3647 1150 3233 529 
Q 2819 -91 2034 -91 
Q 1250 -91 836 529 
Q 422 1150 422 2328 
Q 422 3509 836 4129 
Q 1250 4750 2034 4750 
z
" transform="scale(0.015625)"/>
       </defs>
       <use xlink:href="#DejaVuSans-30"/>
      </g>
     </g>
    </g>
    <g id="xtick_2">
     <g id="line2d_2">
      <g>
       <use xlink:href="#mbbe58a73c0" x="106.219737" y="228.96" style="stroke: #000000; stroke-width: 0.8"/>
      </g>
     </g>
     <g id="text_2">
      <!-- 200 -->
      <g transform="translate(96.675987 243.558437) scale(0.1 -0.1)">
       <defs>
        <path id="DejaVuSans-32" d="M 1228 531 
L 3431 531 
L 3431 0 
L 469 0 
L 469 531 
Q 828 903 1448 1529 
Q 2069 2156 2228 2338 
Q 2531 2678 2651 2914 
Q 2772 3150 2772 3378 
Q 2772 3750 2511 3984 
Q 2250 4219 1831 4219 
Q 1534 4219 1204 4116 
Q 875 4013 500 3803 
L 500 4441 
Q 881 4594 1212 4672 
Q 1544 4750 1819 4750 
Q 2544 4750 2975 4387 
Q 3406 4025 3406 3419 
Q 3406 3131 3298 2873 
Q 3191 2616 2906 2266 
Q 2828 2175 2409 1742 
Q 1991 1309 1228 531 
z
" transform="scale(0.015625)"/>
       </defs>
       <use xlink:href="#DejaVuSans-32"/>
       <use xlink:href="#DejaVuSans-30" x="63.623047"/>
       <use xlink:href="#DejaVuSans-30" x="127.246094"/>
      </g>
     </g>
    </g>
    <g id="xtick_3">
     <g id="line2d_3">
      <g>
       <use xlink:href="#mbbe58a73c0" x="170.296292" y="228.96" style="stroke: #000000; stroke-width: 0.8"/>
      </g>
     </g>
     <g id="text_3">
      <!-- 400 -->
      <g transform="translate(160.752542 243.558437) scale(0.1 -0.1)">
       <defs>
        <path id="DejaVuSans-34" d="M 2419 4116 
L 825 1625 
L 2419 1625 
L 2419 4116 
z
M 2253 4666 
L 3047 4666 
L 3047 1625 
L 3713 1625 
L 3713 1100 
L 3047 1100 
L 3047 0 
L 2419 0 
L 2419 1100 
L 313 1100 
L 313 1709 
L 2253 4666 
z
" transform="scale(0.015625)"/>
       </defs>
       <use xlink:href="#DejaVuSans-34"/>
       <use xlink:href="#DejaVuSans-30" x="63.623047"/>
       <use xlink:href="#DejaVuSans-30" x="127.246094"/>
      </g>
     </g>
    </g>
    <g id="xtick_4">
     <g id="line2d_4">
      <g>
       <use xlink:href="#mbbe58a73c0" x="234.372847" y="228.96" style="stroke: #000000; stroke-width: 0.8"/>
      </g>
     </g>
     <g id="text_4">
      <!-- 600 -->
      <g transform="translate(224.829097 243.558437) scale(0.1 -0.1)">
       <defs>
        <path id="DejaVuSans-36" d="M 2113 2584 
Q 1688 2584 1439 2293 
Q 1191 2003 1191 1497 
Q 1191 994 1439 701 
Q 1688 409 2113 409 
Q 2538 409 2786 701 
Q 3034 994 3034 1497 
Q 3034 2003 2786 2293 
Q 2538 2584 2113 2584 
z
M 3366 4563 
L 3366 3988 
Q 3128 4100 2886 4159 
Q 2644 4219 2406 4219 
Q 1781 4219 1451 3797 
Q 1122 3375 1075 2522 
Q 1259 2794 1537 2939 
Q 1816 3084 2150 3084 
Q 2853 3084 3261 2657 
Q 3669 2231 3669 1497 
Q 3669 778 3244 343 
Q 2819 -91 2113 -91 
Q 1303 -91 875 529 
Q 447 1150 447 2328 
Q 447 3434 972 4092 
Q 1497 4750 2381 4750 
Q 2619 4750 2861 4703 
Q 3103 4656 3366 4563 
z
" transform="scale(0.015625)"/>
       </defs>
       <use xlink:href="#DejaVuSans-36"/>
       <use xlink:href="#DejaVuSans-30" x="63.623047"/>
       <use xlink:href="#DejaVuSans-30" x="127.246094"/>
      </g>
     </g>
    </g>
    <g id="xtick_5">
     <g id="line2d_5">
      <g>
       <use xlink:href="#mbbe58a73c0" x="298.449402" y="228.96" style="stroke: #000000; stroke-width: 0.8"/>
      </g>
     </g>
     <g id="text_5">
      <!-- 800 -->
      <g transform="translate(288.905652 243.558437) scale(0.1 -0.1)">
       <defs>
        <path id="DejaVuSans-38" d="M 2034 2216 
Q 1584 2216 1326 1975 
Q 1069 1734 1069 1313 
Q 1069 891 1326 650 
Q 1584 409 2034 409 
Q 2484 409 2743 651 
Q 3003 894 3003 1313 
Q 3003 1734 2745 1975 
Q 2488 2216 2034 2216 
z
M 1403 2484 
Q 997 2584 770 2862 
Q 544 3141 544 3541 
Q 544 4100 942 4425 
Q 1341 4750 2034 4750 
Q 2731 4750 3128 4425 
Q 3525 4100 3525 3541 
Q 3525 3141 3298 2862 
Q 3072 2584 2669 2484 
Q 3125 2378 3379 2068 
Q 3634 1759 3634 1313 
Q 3634 634 3220 271 
Q 2806 -91 2034 -91 
Q 1263 -91 848 271 
Q 434 634 434 1313 
Q 434 1759 690 2068 
Q 947 2378 1403 2484 
z
M 1172 3481 
Q 1172 3119 1398 2916 
Q 1625 2713 2034 2713 
Q 2441 2713 2670 2916 
Q 2900 3119 2900 3481 
Q 2900 3844 2670 4047 
Q 2441 4250 2034 4250 
Q 1625 4250 1398 4047 
Q 1172 3844 1172 3481 
z
" transform="scale(0.015625)"/>
       </defs>
       <use xlink:href="#DejaVuSans-38"/>
       <use xlink:href="#DejaVuSans-30" x="63.623047"/>
       <use xlink:href="#DejaVuSans-30" x="127.246094"/>
      </g>
     </g>
    </g>
   </g>
   <g id="matplotlib.axis_2">
    <g id="ytick_1">
     <g id="line2d_6">
      <defs>
       <path id="m95d1fbbc42" d="M 0 0 
L -3.5 0 
" style="stroke: #000000; stroke-width: 0.8"/>
      </defs>
      <g>
       <use xlink:href="#m95d1fbbc42" x="26.925" y="217.898371" style="stroke: #000000; stroke-width: 0.8"/>
      </g>
     </g>
     <g id="text_6">
      <!-- 55 -->
      <g transform="translate(7.2 221.697589) scale(0.1 -0.1)">
       <defs>
        <path id="DejaVuSans-35" d="M 691 4666 
L 3169 4666 
L 3169 4134 
L 1269 4134 
L 1269 2991 
Q 1406 3038 1543 3061 
Q 1681 3084 1819 3084 
Q 2600 3084 3056 2656 
Q 3513 2228 3513 1497 
Q 3513 744 3044 326 
Q 2575 -91 1722 -91 
Q 1428 -91 1123 -41 
Q 819 9 494 109 
L 494 744 
Q 775 591 1075 516 
Q 1375 441 1709 441 
Q 2250 441 2565 725 
Q 2881 1009 2881 1497 
Q 2881 1984 2565 2268 
Q 2250 2553 1709 2553 
Q 1456 2553 1204 2497 
Q 953 2441 691 2322 
L 691 4666 
z
" transform="scale(0.015625)"/>
       </defs>
       <use xlink:href="#DejaVuSans-35"/>
       <use xlink:href="#DejaVuSans-35" x="63.623047"/>
      </g>
     </g>
    </g>
    <g id="ytick_2">
     <g id="line2d_7">
      <g>
       <use xlink:href="#m95d1fbbc42" x="26.925" y="168.90814" style="stroke: #000000; stroke-width: 0.8"/>
      </g>
     </g>
     <g id="text_7">
      <!-- 56 -->
      <g transform="translate(7.2 172.707359) scale(0.1 -0.1)">
       <use xlink:href="#DejaVuSans-35"/>
       <use xlink:href="#DejaVuSans-36" x="63.623047"/>
      </g>
     </g>
    </g>
    <g id="ytick_3">
     <g id="line2d_8">
      <g>
       <use xlink:href="#m95d1fbbc42" x="26.925" y="119.91791" style="stroke: #000000; stroke-width: 0.8"/>
      </g>
     </g>
     <g id="text_8">
      <!-- 57 -->
      <g transform="translate(7.2 123.717129) scale(0.1 -0.1)">
       <defs>
        <path id="DejaVuSans-37" d="M 525 4666 
L 3525 4666 
L 3525 4397 
L 1831 0 
L 1172 0 
L 2766 4134 
L 525 4134 
L 525 4666 
z
" transform="scale(0.015625)"/>
       </defs>
       <use xlink:href="#DejaVuSans-35"/>
       <use xlink:href="#DejaVuSans-37" x="63.623047"/>
      </g>
     </g>
    </g>
    <g id="ytick_4">
     <g id="line2d_9">
      <g>
       <use xlink:href="#m95d1fbbc42" x="26.925" y="70.92768" style="stroke: #000000; stroke-width: 0.8"/>
      </g>
     </g>
     <g id="text_9">
      <!-- 58 -->
      <g transform="translate(7.2 74.726899) scale(0.1 -0.1)">
       <use xlink:href="#DejaVuSans-35"/>
       <use xlink:href="#DejaVuSans-38" x="63.623047"/>
      </g>
     </g>
    </g>
    <g id="ytick_5">
     <g id="line2d_10">
      <g>
       <use xlink:href="#m95d1fbbc42" x="26.925" y="21.93745" style="stroke: #000000; stroke-width: 0.8"/>
      </g>
     </g>
     <g id="text_10">
      <!-- 59 -->
      <g transform="translate(7.2 25.736669) scale(0.1 -0.1)">
       <defs>
        <path id="DejaVuSans-39" d="M 703 97 
L 703 672 
Q 941 559 1184 500 
Q 1428 441 1663 441 
Q 2288 441 2617 861 
Q 2947 1281 2994 2138 
Q 2813 1869 2534 1725 
Q 2256 1581 1919 1581 
Q 1219 1581 811 2004 
Q 403 2428 403 3163 
Q 403 3881 828 4315 
Q 1253 4750 1959 4750 
Q 2769 4750 3195 4129 
Q 3622 3509 3622 2328 
Q 3622 1225 3098 567 
Q 2575 -91 1691 -91 
Q 1453 -91 1209 -44 
Q 966 3 703 97 
z
M 1959 2075 
Q 2384 2075 2632 2365 
Q 2881 2656 2881 3163 
Q 2881 3666 2632 3958 
Q 2384 4250 1959 4250 
Q 1534 4250 1286 3958 
Q 1038 3666 1038 3163 
Q 1038 2656 1286 2365 
Q 1534 2075 1959 2075 
z
" transform="scale(0.015625)"/>
       </defs>
       <use xlink:href="#DejaVuSans-35"/>
       <use xlink:href="#DejaVuSans-39" x="63.623047"/>
      </g>
     </g>
    </g>
   </g>
   <g id="line2d_11">
    <path d="M 42.143182 17.28 
L 44.385861 17.28 
L 44.706244 18.594707 
L 45.026627 18.594707 
L 45.34701 20.065263 
L 46.308158 20.065263 
L 46.628541 22.34821 
L 46.948923 22.34821 
L 47.269306 22.86222 
L 47.910072 22.86222 
L 48.230455 23.272603 
L 48.550837 22.86222 
L 48.87122 23.272603 
L 49.511986 23.272603 
L 50.473134 25.733745 
L 52.075048 25.733745 
L 52.395431 26.169743 
L 52.715813 25.733745 
L 53.036196 25.733745 
L 53.356579 26.169743 
L 53.676962 26.169743 
L 53.997344 26.683754 
L 56.880789 26.683754 
L 57.201172 27.077542 
L 57.521555 26.683754 
L 57.841938 26.683754 
L 58.162321 27.077542 
L 58.482703 26.683754 
L 60.405 26.683754 
L 60.725383 27.725195 
L 61.045766 27.725195 
L 61.366148 27.51354 
L 61.686531 27.51354 
L 62.006914 26.683754 
L 62.327297 27.725195 
L 62.647679 26.683754 
L 62.968062 26.683754 
L 63.288445 28.554981 
L 63.929211 28.554981 
L 64.249593 29.438225 
L 64.569976 29.438225 
L 64.890359 33.460584 
L 65.210742 34.315978 
L 65.531124 34.315978 
L 65.851507 34.921771 
L 66.17189 34.921771 
L 66.492273 36.887606 
L 67.133038 36.887606 
L 67.453421 37.05185 
L 71.93878 37.05185 
L 72.259163 42.088924 
L 72.579545 42.088924 
L 72.899928 42.253168 
L 73.861077 42.253168 
L 74.181459 43.088724 
L 74.501842 42.253168 
L 77.064904 42.253168 
L 77.385287 43.254115 
L 78.026053 43.254115 
L 78.346435 42.253168 
L 78.666818 43.252968 
L 79.948349 43.252968 
L 80.268732 44.225652 
L 80.589115 44.225652 
L 80.909498 50.316185 
L 81.22988 51.259082 
L 82.831794 51.322088 
L 83.47256 52.063831 
L 84.113325 52.063831 
L 84.433708 51.682708 
L 84.754091 51.682708 
L 85.074474 52.063831 
L 85.715239 52.063831 
L 86.356005 52.97354 
L 86.676388 52.01511 
L 86.99677 52.487457 
L 87.637536 52.487457 
L 87.957919 52.882865 
L 88.278301 52.440006 
L 88.598684 52.840171 
L 88.919067 52.912352 
L 89.23945 53.625686 
L 90.200598 53.625686 
L 90.520981 53.821525 
L 90.841364 55.186464 
L 93.084043 55.186464 
L 93.404426 55.021683 
L 93.724809 55.021683 
L 94.045191 55.186464 
L 94.365574 59.250347 
L 94.685957 59.250347 
L 95.00634 57.695939 
L 95.326722 55.186464 
L 95.647105 55.677021 
L 96.608254 55.677021 
L 96.928636 55.186464 
L 97.249019 59.250347 
L 98.210167 59.345497 
L 98.53055 59.644979 
L 99.491699 59.644979 
L 99.812081 61.577195 
L 100.452847 61.577195 
L 100.77323 62.067753 
L 101.093612 64.081428 
L 102.054761 64.081428 
L 102.375144 61.628438 
L 102.695526 61.628438 
L 103.015909 62.637849 
L 103.336292 63.128407 
L 103.656675 64.081428 
L 103.977057 66.096358 
L 104.938206 66.096358 
L 105.258589 67.105769 
L 105.578971 67.105769 
L 105.899354 67.596327 
L 106.219737 67.596327 
L 106.54012 69.610002 
L 106.860502 67.596327 
L 107.821651 67.596327 
L 108.142033 69.610002 
L 108.462416 69.610002 
L 108.782799 70.10056 
L 109.103182 70.004634 
L 109.423565 67.975702 
L 109.743947 68.600591 
L 110.06433 69.610002 
L 110.705096 69.610002 
L 111.025478 69.445221 
L 111.345861 69.610002 
L 111.666244 69.610002 
L 111.986627 70.10056 
L 112.30701 69.935779 
L 112.947775 69.935779 
L 113.268158 69.613143 
L 113.588541 70.424192 
L 113.908923 69.613143 
L 114.549689 69.613143 
L 115.190455 69.305743 
L 115.510837 68.725048 
L 116.471986 68.725048 
L 116.792368 70.315154 
L 117.112751 70.315154 
L 117.433134 69.644633 
L 117.753517 68.149811 
L 118.394282 68.149811 
L 118.714665 69.59339 
L 119.035048 69.791751 
L 119.355431 70.602801 
L 119.996196 70.602801 
L 120.316579 71.496417 
L 120.636962 70.602801 
L 120.957344 71.496417 
L 121.277727 71.496417 
L 121.59811 73.773171 
L 121.918493 73.773171 
L 122.238876 71.496417 
L 122.559258 73.35753 
L 122.879641 71.496417 
L 123.520407 77.212762 
L 123.840789 74.275565 
L 124.161172 73.383065 
L 124.481555 76.03623 
L 124.801938 77.742905 
L 125.122321 77.742905 
L 125.442703 77.104662 
L 125.763086 77.998278 
L 126.083469 77.998278 
L 126.403852 79.117516 
L 126.724234 79.117516 
L 127.044617 80.758735 
L 127.365 80.758735 
L 127.685383 81.709086 
L 128.005766 78.306466 
L 128.646531 78.306466 
L 129.287297 79.755759 
L 129.607679 85.278358 
L 130.248445 85.278358 
L 130.568828 86.136297 
L 131.209593 86.136297 
L 131.529976 86.910714 
L 131.850359 86.136297 
L 132.491124 86.136297 
L 132.811507 86.626855 
L 133.13189 86.136297 
L 133.772656 86.910714 
L 134.093038 86.910714 
L 134.413421 86.250956 
L 134.733804 87.272604 
L 135.694952 87.272604 
L 136.015335 87.483096 
L 136.335718 86.414665 
L 136.976483 90.945406 
L 137.296866 89.578759 
L 137.617249 89.358005 
L 137.937632 90.945406 
L 138.258014 88.90496 
L 138.578397 89.778646 
L 138.89878 89.778646 
L 139.219163 90.087467 
L 139.859928 91.819092 
L 140.180311 97.155048 
L 140.500694 97.155048 
L 140.821077 97.396349 
L 141.141459 98.012987 
L 141.461842 97.816863 
L 141.782225 97.816863 
L 142.102608 98.028734 
L 143.704522 98.028734 
L 144.024904 101.327786 
L 144.345287 98.886673 
L 144.66567 98.011609 
L 144.986053 97.816863 
L 145.306435 99.829895 
L 145.626818 99.829895 
L 145.947201 100.588873 
L 146.267584 99.596161 
L 146.587967 100.469847 
L 147.869498 100.4541 
L 148.18988 101.326714 
L 148.510263 101.52391 
L 148.830646 100.4541 
L 149.151029 101.326714 
L 149.471411 103.82426 
L 150.43256 103.82426 
L 150.752943 104.697946 
L 151.393708 104.697946 
L 151.714091 104.993412 
L 152.034474 104.697946 
L 152.354856 104.697946 
L 152.675239 104.135473 
L 152.995622 104.135473 
L 153.636388 105.951914 
L 153.95677 109.39998 
L 154.597536 109.39998 
L 154.917919 110.147683 
L 155.238301 110.468411 
L 160.684809 110.468411 
L 161.005191 111.540088 
L 161.325574 110.047897 
L 161.645957 110.175627 
L 161.96634 110.047897 
L 162.286722 110.047897 
L 162.607105 111.201464 
L 162.927488 111.201464 
L 163.247871 110.047897 
L 163.888636 110.048968 
L 164.209019 111.201464 
L 164.529402 111.42201 
L 165.170167 111.42201 
L 165.49055 111.549741 
L 166.451699 111.520829 
L 166.772081 112.703308 
L 167.092464 112.894942 
L 167.412847 111.856956 
L 167.73323 112.176321 
L 168.053612 112.176321 
L 168.373995 114.290016 
L 169.335144 114.290016 
L 169.655526 114.609382 
L 170.616675 114.609382 
L 170.937057 114.787333 
L 171.25744 114.787333 
L 171.577823 115.009413 
L 171.898206 115.009413 
L 172.218589 115.137143 
L 172.859354 115.137143 
L 173.179737 115.983495 
L 173.50012 115.137143 
L 174.461268 115.137143 
L 174.781651 115.66413 
L 175.102033 115.162219 
L 175.422416 115.137143 
L 175.742799 116.511257 
L 176.703947 116.511257 
L 177.02433 115.137143 
L 177.344713 115.137143 
L 177.665096 121.76251 
L 178.946627 121.787586 
L 179.26701 123.136624 
L 179.587392 123.136624 
L 179.907775 121.787586 
L 180.228158 121.787586 
L 180.548541 123.136624 
L 180.868923 121.76251 
L 181.189306 121.76251 
L 181.509689 123.044418 
L 182.79122 123.044418 
L 183.111603 122.269949 
L 183.431986 123.044418 
L 184.393134 123.044418 
L 184.713517 122.035891 
L 185.0339 122.09344 
L 185.354282 122.035891 
L 185.674665 122.817258 
L 185.995048 122.817258 
L 186.315431 122.51524 
L 186.635813 121.820059 
L 186.956196 121.820059 
L 187.276579 122.474809 
L 187.596962 121.975556 
L 187.917344 121.820059 
L 188.237727 121.820059 
L 188.55811 122.499885 
L 188.878493 122.817258 
L 189.198876 122.817258 
L 189.519258 122.000632 
L 190.800789 121.975556 
L 191.121172 121.820059 
L 191.441555 121.820059 
L 191.761938 122.035891 
L 192.402703 121.943686 
L 192.723086 121.76251 
L 193.043469 121.915032 
L 193.684234 123.66525 
L 194.325 123.651179 
L 194.645383 122.382604 
L 194.965766 122.655985 
L 195.286148 122.655985 
L 195.606531 125.839163 
L 195.926914 125.839163 
L 196.247297 122.306753 
L 196.567679 122.440152 
L 196.888062 123.741101 
L 197.208445 124.4534 
L 198.810359 124.4534 
L 199.130742 124.730032 
L 199.451124 124.726781 
L 200.09189 130.889902 
L 200.412273 127.694126 
L 200.732656 127.831321 
L 201.053038 127.694126 
L 201.693804 127.773773 
L 202.014187 128.549658 
L 202.334569 128.683057 
L 202.654952 128.683057 
L 202.975335 133.993433 
L 203.295718 135.426453 
L 203.6161 135.21468 
L 203.936483 135.21468 
L 204.256866 134.906514 
L 204.897632 134.906514 
L 205.218014 135.19541 
L 205.538397 134.906514 
L 205.85878 134.906514 
L 206.179163 135.395257 
L 206.819928 135.441531 
L 207.140311 135.371304 
L 207.460694 135.138829 
L 207.781077 135.138829 
L 208.421842 135.603619 
L 209.703373 135.557345 
L 210.023756 135.24404 
L 210.344139 135.197765 
L 211.62567 135.864634 
L 211.946053 135.446118 
L 212.266435 135.975927 
L 212.586818 136.740662 
L 213.547967 136.740662 
L 213.868349 135.981136 
L 214.188732 136.761264 
L 214.509115 136.251919 
L 216.111029 136.254517 
L 216.431411 136.534833 
L 216.751794 136.658658 
L 217.072177 136.534833 
L 217.39256 136.24385 
L 217.712943 137.179451 
L 218.033325 137.179451 
L 218.353708 135.737219 
L 218.994474 136.823423 
L 219.635239 136.380406 
L 219.955622 136.379335 
L 220.276005 136.652716 
L 220.596388 137.185135 
L 220.91677 137.05756 
L 221.237153 137.05756 
L 221.557536 139.512481 
L 221.877919 137.390279 
L 222.198301 137.288213 
L 222.518684 137.05756 
L 222.839067 137.185135 
L 223.15945 136.856308 
L 223.800215 136.823423 
L 224.120598 136.899274 
L 224.440981 136.823423 
L 224.761364 136.899274 
L 225.081746 138.158556 
L 225.402129 137.893414 
L 226.68366 138.067056 
L 227.004043 137.926299 
L 228.92634 137.926299 
L 229.246722 140.303284 
L 229.567105 138.085188 
L 229.887488 139.197601 
L 230.207871 138.160841 
L 230.528254 138.463674 
L 230.848636 139.48121 
L 231.809785 139.48121 
L 232.130167 140.379135 
L 232.770933 139.197601 
L 233.091316 139.197601 
L 233.411699 139.391292 
L 234.052464 139.391292 
L 234.372847 141.348973 
L 234.69323 139.723583 
L 235.013612 139.424583 
L 235.333995 139.424583 
L 235.654378 141.618514 
L 235.974761 141.618514 
L 236.295144 141.868323 
L 236.615526 141.868323 
L 236.935909 143.836041 
L 237.256292 143.242436 
L 237.576675 142.172445 
L 237.897057 142.59007 
L 238.21744 140.935626 
L 238.537823 140.10506 
L 238.858206 140.414955 
L 239.178589 140.10506 
L 239.498971 141.824733 
L 239.819354 141.952463 
L 240.139737 141.598781 
L 240.46012 142.005617 
L 240.780502 141.736076 
L 241.100885 141.736076 
L 241.421268 142.005617 
L 241.741651 142.005617 
L 242.062033 143.70021 
L 242.702799 143.70021 
L 243.023182 142.157648 
L 243.343565 142.564484 
L 243.98433 141.736076 
L 244.304713 142.283598 
L 244.625096 142.283598 
L 244.945478 143.430669 
L 245.265861 142.294942 
L 245.586244 142.294942 
L 245.906627 142.005617 
L 246.22701 142.318869 
L 246.547392 143.135357 
L 247.188158 143.859099 
L 247.508541 145.398386 
L 247.828923 145.398386 
L 248.149306 143.667326 
L 248.469689 144.82995 
L 249.430837 144.82995 
L 249.75122 143.973335 
L 250.391986 143.973335 
L 250.712368 144.173303 
L 251.032751 144.523243 
L 251.353134 145.5397 
L 251.673517 144.801565 
L 251.9939 144.523243 
L 252.314282 144.523243 
L 252.955048 144.960453 
L 253.275431 144.523243 
L 253.595813 146.376725 
L 253.916196 145.182825 
L 254.236579 145.922525 
L 254.556962 144.797641 
L 254.877344 149.822896 
L 255.197727 151.790613 
L 256.479258 151.790613 
L 257.120024 152.227483 
L 257.440407 153.189895 
L 258.721938 153.189895 
L 259.042321 154.578013 
L 260.003469 154.578013 
L 260.323852 153.737417 
L 260.644234 153.896306 
L 260.964617 153.737417 
L 261.285 153.913642 
L 261.925766 153.913642 
L 262.246148 154.578013 
L 262.566531 154.953774 
L 262.886914 154.953774 
L 263.207297 154.149996 
L 263.527679 154.428318 
L 264.168445 154.428318 
L 264.488828 155.248611 
L 265.770359 155.248611 
L 266.090742 157.408474 
L 266.731507 157.408474 
L 267.05189 155.982846 
L 267.372273 155.827599 
L 267.692656 156.256179 
L 268.974187 156.256179 
L 269.294569 156.375122 
L 270.896483 156.375122 
L 271.216866 156.899189 
L 271.537249 156.899189 
L 271.857632 156.375122 
L 272.178014 156.287645 
L 272.498397 155.708656 
L 273.139163 155.708656 
L 273.459545 156.287645 
L 273.779928 156.287645 
L 274.100311 156.776676 
L 274.741077 156.776676 
L 275.061459 157.235771 
L 275.381842 156.776676 
L 275.702225 157.892636 
L 276.022608 157.892636 
L 276.34299 157.716173 
L 276.663373 158.447508 
L 276.983756 157.716173 
L 277.944904 157.716173 
L 278.265287 158.164968 
L 278.58567 158.164968 
L 279.226435 157.857928 
L 279.546818 160.017791 
L 280.187584 159.747281 
L 280.507967 158.079324 
L 280.828349 157.716173 
L 282.10988 157.620395 
L 282.430263 159.780259 
L 282.750646 159.780259 
L 283.071029 160.826785 
L 284.032177 160.826785 
L 284.35256 162.27896 
L 284.672943 161.189936 
L 284.993325 161.864501 
L 285.313708 161.189936 
L 285.634091 162.431776 
L 286.274856 162.431776 
L 286.595239 162.786352 
L 287.236005 162.786352 
L 287.556388 173.560229 
L 287.87677 173.923379 
L 288.197153 175.182358 
L 288.517536 175.258797 
L 289.158301 175.182358 
L 289.478684 177.378927 
L 289.799067 175.256426 
L 290.439833 175.182358 
L 290.760215 178.020214 
L 291.080598 178.020214 
L 291.400981 175.941937 
L 291.721364 175.941937 
L 292.041746 181.581402 
L 292.362129 177.153365 
L 292.682512 175.946682 
L 293.64366 175.946682 
L 293.964043 176.086179 
L 294.284426 176.727157 
L 294.604809 176.727157 
L 294.925191 177.309432 
L 295.245574 181.517339 
L 295.565957 177.309432 
L 295.88634 177.309432 
L 296.206722 177.111363 
L 296.527105 177.309432 
L 297.167871 177.309432 
L 297.488254 177.137214 
L 297.808636 177.137214 
L 298.129019 181.214507 
L 298.449402 177.360498 
L 298.769785 179.78988 
L 299.090167 180.890621 
L 299.41055 177.556759 
L 299.730933 178.023408 
L 300.051316 176.716035 
L 300.371699 176.567042 
L 300.692081 177.537101 
L 301.012464 179.954446 
L 301.332847 179.954446 
L 301.65323 177.812904 
L 301.973612 179.98808 
L 302.293995 179.98808 
L 302.614378 180.503853 
L 302.934761 181.539106 
L 303.255144 180.503853 
L 303.575526 185.758938 
L 304.216292 185.758938 
L 304.857057 188.290921 
L 305.818206 188.290921 
L 306.138589 187.785191 
L 306.458971 188.443793 
L 307.740502 188.443793 
L 308.060885 188.831324 
L 308.701651 188.841392 
L 309.022033 189.347122 
L 309.342416 188.841392 
L 309.983182 188.841392 
L 310.303565 189.347122 
L 310.623947 189.634325 
L 310.94433 191.289545 
L 311.264713 191.289545 
L 311.585096 193.19032 
L 311.905478 193.19032 
L 312.225861 193.529266 
L 312.866627 193.587895 
L 313.18701 193.529266 
L 313.507392 195.45329 
L 313.827775 199.02349 
L 314.148158 194.225574 
L 314.468541 197.049195 
L 314.788923 197.049195 
L 315.109306 196.774666 
L 315.429689 197.061718 
L 316.390837 197.061718 
L 316.71122 200.317984 
L 317.031603 200.317984 
L 317.351986 197.904229 
L 317.672368 197.904229 
L 317.992751 198.243175 
L 318.313134 199.663635 
L 318.633517 199.068694 
L 318.9539 199.324688 
L 319.274282 201.331664 
L 319.594665 199.324688 
L 319.915048 201.331664 
L 320.235431 201.331664 
L 320.555813 199.407641 
L 320.876196 199.419545 
L 321.196579 200.454799 
L 324.080024 200.454799 
L 324.400407 205.949023 
L 324.720789 205.949023 
L 325.041172 208.052982 
L 325.361555 205.949023 
L 326.002321 205.949023 
L 326.322703 209.606929 
L 326.643086 209.606929 
L 326.963469 208.211993 
L 327.283852 208.229477 
L 327.604234 209.122336 
L 329.206148 209.122336 
L 329.526531 210.915251 
L 329.846914 209.122336 
L 330.167297 209.29443 
L 330.487679 209.122336 
L 330.808062 209.29443 
L 331.128445 209.837145 
L 331.448828 211.914102 
L 331.769211 209.29443 
L 332.409976 209.29443 
L 332.730359 210.002453 
L 333.371124 210.00924 
L 333.691507 213.704562 
L 334.332273 213.704562 
L 334.652656 214.419372 
L 335.293421 214.419372 
L 335.613804 215.19926 
L 335.934187 216.817626 
L 336.574952 216.817626 
L 336.895335 217.153751 
L 337.215718 218.88 
L 337.5361 217.178079 
L 337.856483 217.178079 
L 338.176866 217.532436 
L 339.138014 217.532436 
L 339.458397 218.405649 
L 339.77878 217.532436 
L 340.099163 218.012215 
L 340.419545 218.012215 
L 340.739928 217.532436 
L 342.021459 217.481227 
L 342.341842 217.245384 
L 342.662225 217.245384 
L 342.982608 217.690839 
L 343.30299 217.245384 
L 343.943756 217.892888 
L 344.264139 217.892888 
L 344.584522 217.690839 
L 345.225287 217.690839 
L 345.54567 217.373425 
L 345.866053 217.245384 
L 346.186435 216.898668 
L 346.506818 218.067388 
L 346.506818 218.067388 
" clip-path="url(#pfc6e6fe3eb)" style="fill: none; stroke: #1f77b4; stroke-width: 1.5; stroke-linecap: square"/>
   </g>
   <g id="patch_3">
    <path d="M 26.925 228.96 
L 26.925 7.2 
" style="fill: none; stroke: #000000; stroke-width: 0.8; stroke-linejoin: miter; stroke-linecap: square"/>
   </g>
   <g id="patch_4">
    <path d="M 361.725 228.96 
L 361.725 7.2 
" style="fill: none; stroke: #000000; stroke-width: 0.8; stroke-linejoin: miter; stroke-linecap: square"/>
   </g>
   <g id="patch_5">
    <path d="M 26.925 228.96 
L 361.725 228.96 
" style="fill: none; stroke: #000000; stroke-width: 0.8; stroke-linejoin: miter; stroke-linecap: square"/>
   </g>
   <g id="patch_6">
    <path d="M 26.925 7.2 
L 361.725 7.2 
" style="fill: none; stroke: #000000; stroke-width: 0.8; stroke-linejoin: miter; stroke-linecap: square"/>
   </g>
  </g>
 </g>
 <defs>
  <clipPath id="pfc6e6fe3eb">
   <rect x="26.925" y="7.2" width="334.8" height="221.76"/>
  </clipPath>
 </defs>
</svg>
