<?xml version="1.0" encoding="utf-8" standalone="no"?>
<!DOCTYPE svg PUBLIC "-//W3C//DTD SVG 1.1//EN"
  "http://www.w3.org/Graphics/SVG/1.1/DTD/svg11.dtd">
<svg xmlns:xlink="http://www.w3.org/1999/xlink" width="368.925pt" height="252.838125pt" viewBox="0 0 368.925 252.838125" xmlns="http://www.w3.org/2000/svg" version="1.1">
 <metadata>
  <rdf:RDF xmlns:dc="http://purl.org/dc/elements/1.1/" xmlns:cc="http://creativecommons.org/ns#" xmlns:rdf="http://www.w3.org/1999/02/22-rdf-syntax-ns#">
   <cc:Work>
    <dc:type rdf:resource="http://purl.org/dc/dcmitype/StillImage"/>
    <dc:date>2023-04-06T12:17:58.283732</dc:date>
    <dc:format>image/svg+xml</dc:format>
    <dc:creator>
     <cc:Agent>
      <dc:title>Matplotlib v3.7.1, https://matplotlib.org/</dc:title>
     </cc:Agent>
    </dc:creator>
   </cc:Work>
  </rdf:RDF>
 </metadata>
 <defs>
  <style type="text/css">*{stroke-linejoin: round; stroke-linecap: butt}</style>
 </defs>
 <g id="figure_1">
  <g id="patch_1">
   <path d="M -0 252.838125 
L 368.925 252.838125 
L 368.925 0 
L -0 0 
z
" style="fill: #ffffff"/>
  </g>
  <g id="axes_1">
   <g id="patch_2">
    <path d="M 26.925 228.96 
L 361.725 228.96 
L 361.725 7.2 
L 26.925 7.2 
z
" style="fill: #ffffff"/>
   </g>
   <g id="matplotlib.axis_1">
    <g id="xtick_1">
     <g id="line2d_1">
      <defs>
       <path id="m237f4c025c" d="M 0 0 
L 0 3.5 
" style="stroke: #000000; stroke-width: 0.8"/>
      </defs>
      <g>
       <use xlink:href="#m237f4c025c" x="42.143182" y="228.96" style="stroke: #000000; stroke-width: 0.8"/>
      </g>
     </g>
     <g id="text_1">
      <!-- 0 -->
      <g transform="translate(38.961932 243.558437) scale(0.1 -0.1)">
       <defs>
        <path id="DejaVuSans-30" d="M 2034 4250 
Q 1547 4250 1301 3770 
Q 1056 3291 1056 2328 
Q 1056 1369 1301 889 
Q 1547 409 2034 409 
Q 2525 409 2770 889 
Q 3016 1369 3016 2328 
Q 3016 3291 2770 3770 
Q 2525 4250 2034 4250 
z
M 2034 4750 
Q 2819 4750 3233 4129 
Q 3647 3509 3647 2328 
Q 3647 1150 3233 529 
Q 2819 -91 2034 -91 
Q 1250 -91 836 529 
Q 422 1150 422 2328 
Q 422 3509 836 4129 
Q 1250 4750 2034 4750 
z
" transform="scale(0.015625)"/>
       </defs>
       <use xlink:href="#DejaVuSans-30"/>
      </g>
     </g>
    </g>
    <g id="xtick_2">
     <g id="line2d_2">
      <g>
       <use xlink:href="#m237f4c025c" x="103.015909" y="228.96" style="stroke: #000000; stroke-width: 0.8"/>
      </g>
     </g>
     <g id="text_2">
      <!-- 200 -->
      <g transform="translate(93.472159 243.558437) scale(0.1 -0.1)">
       <defs>
        <path id="DejaVuSans-32" d="M 1228 531 
L 3431 531 
L 3431 0 
L 469 0 
L 469 531 
Q 828 903 1448 1529 
Q 2069 2156 2228 2338 
Q 2531 2678 2651 2914 
Q 2772 3150 2772 3378 
Q 2772 3750 2511 3984 
Q 2250 4219 1831 4219 
Q 1534 4219 1204 4116 
Q 875 4013 500 3803 
L 500 4441 
Q 881 4594 1212 4672 
Q 1544 4750 1819 4750 
Q 2544 4750 2975 4387 
Q 3406 4025 3406 3419 
Q 3406 3131 3298 2873 
Q 3191 2616 2906 2266 
Q 2828 2175 2409 1742 
Q 1991 1309 1228 531 
z
" transform="scale(0.015625)"/>
       </defs>
       <use xlink:href="#DejaVuSans-32"/>
       <use xlink:href="#DejaVuSans-30" x="63.623047"/>
       <use xlink:href="#DejaVuSans-30" x="127.246094"/>
      </g>
     </g>
    </g>
    <g id="xtick_3">
     <g id="line2d_3">
      <g>
       <use xlink:href="#m237f4c025c" x="163.888636" y="228.96" style="stroke: #000000; stroke-width: 0.8"/>
      </g>
     </g>
     <g id="text_3">
      <!-- 400 -->
      <g transform="translate(154.344886 243.558437) scale(0.1 -0.1)">
       <defs>
        <path id="DejaVuSans-34" d="M 2419 4116 
L 825 1625 
L 2419 1625 
L 2419 4116 
z
M 2253 4666 
L 3047 4666 
L 3047 1625 
L 3713 1625 
L 3713 1100 
L 3047 1100 
L 3047 0 
L 2419 0 
L 2419 1100 
L 313 1100 
L 313 1709 
L 2253 4666 
z
" transform="scale(0.015625)"/>
       </defs>
       <use xlink:href="#DejaVuSans-34"/>
       <use xlink:href="#DejaVuSans-30" x="63.623047"/>
       <use xlink:href="#DejaVuSans-30" x="127.246094"/>
      </g>
     </g>
    </g>
    <g id="xtick_4">
     <g id="line2d_4">
      <g>
       <use xlink:href="#m237f4c025c" x="224.761364" y="228.96" style="stroke: #000000; stroke-width: 0.8"/>
      </g>
     </g>
     <g id="text_4">
      <!-- 600 -->
      <g transform="translate(215.217614 243.558437) scale(0.1 -0.1)">
       <defs>
        <path id="DejaVuSans-36" d="M 2113 2584 
Q 1688 2584 1439 2293 
Q 1191 2003 1191 1497 
Q 1191 994 1439 701 
Q 1688 409 2113 409 
Q 2538 409 2786 701 
Q 3034 994 3034 1497 
Q 3034 2003 2786 2293 
Q 2538 2584 2113 2584 
z
M 3366 4563 
L 3366 3988 
Q 3128 4100 2886 4159 
Q 2644 4219 2406 4219 
Q 1781 4219 1451 3797 
Q 1122 3375 1075 2522 
Q 1259 2794 1537 2939 
Q 1816 3084 2150 3084 
Q 2853 3084 3261 2657 
Q 3669 2231 3669 1497 
Q 3669 778 3244 343 
Q 2819 -91 2113 -91 
Q 1303 -91 875 529 
Q 447 1150 447 2328 
Q 447 3434 972 4092 
Q 1497 4750 2381 4750 
Q 2619 4750 2861 4703 
Q 3103 4656 3366 4563 
z
" transform="scale(0.015625)"/>
       </defs>
       <use xlink:href="#DejaVuSans-36"/>
       <use xlink:href="#DejaVuSans-30" x="63.623047"/>
       <use xlink:href="#DejaVuSans-30" x="127.246094"/>
      </g>
     </g>
    </g>
    <g id="xtick_5">
     <g id="line2d_5">
      <g>
       <use xlink:href="#m237f4c025c" x="285.634091" y="228.96" style="stroke: #000000; stroke-width: 0.8"/>
      </g>
     </g>
     <g id="text_5">
      <!-- 800 -->
      <g transform="translate(276.090341 243.558437) scale(0.1 -0.1)">
       <defs>
        <path id="DejaVuSans-38" d="M 2034 2216 
Q 1584 2216 1326 1975 
Q 1069 1734 1069 1313 
Q 1069 891 1326 650 
Q 1584 409 2034 409 
Q 2484 409 2743 651 
Q 3003 894 3003 1313 
Q 3003 1734 2745 1975 
Q 2488 2216 2034 2216 
z
M 1403 2484 
Q 997 2584 770 2862 
Q 544 3141 544 3541 
Q 544 4100 942 4425 
Q 1341 4750 2034 4750 
Q 2731 4750 3128 4425 
Q 3525 4100 3525 3541 
Q 3525 3141 3298 2862 
Q 3072 2584 2669 2484 
Q 3125 2378 3379 2068 
Q 3634 1759 3634 1313 
Q 3634 634 3220 271 
Q 2806 -91 2034 -91 
Q 1263 -91 848 271 
Q 434 634 434 1313 
Q 434 1759 690 2068 
Q 947 2378 1403 2484 
z
M 1172 3481 
Q 1172 3119 1398 2916 
Q 1625 2713 2034 2713 
Q 2441 2713 2670 2916 
Q 2900 3119 2900 3481 
Q 2900 3844 2670 4047 
Q 2441 4250 2034 4250 
Q 1625 4250 1398 4047 
Q 1172 3844 1172 3481 
z
" transform="scale(0.015625)"/>
       </defs>
       <use xlink:href="#DejaVuSans-38"/>
       <use xlink:href="#DejaVuSans-30" x="63.623047"/>
       <use xlink:href="#DejaVuSans-30" x="127.246094"/>
      </g>
     </g>
    </g>
    <g id="xtick_6">
     <g id="line2d_6">
      <g>
       <use xlink:href="#m237f4c025c" x="346.506818" y="228.96" style="stroke: #000000; stroke-width: 0.8"/>
      </g>
     </g>
     <g id="text_6">
      <!-- 1000 -->
      <g transform="translate(333.781818 243.558437) scale(0.1 -0.1)">
       <defs>
        <path id="DejaVuSans-31" d="M 794 531 
L 1825 531 
L 1825 4091 
L 703 3866 
L 703 4441 
L 1819 4666 
L 2450 4666 
L 2450 531 
L 3481 531 
L 3481 0 
L 794 0 
L 794 531 
z
" transform="scale(0.015625)"/>
       </defs>
       <use xlink:href="#DejaVuSans-31"/>
       <use xlink:href="#DejaVuSans-30" x="63.623047"/>
       <use xlink:href="#DejaVuSans-30" x="127.246094"/>
       <use xlink:href="#DejaVuSans-30" x="190.869141"/>
      </g>
     </g>
    </g>
   </g>
   <g id="matplotlib.axis_2">
    <g id="ytick_1">
     <g id="line2d_7">
      <defs>
       <path id="ma5a260d7c4" d="M 0 0 
L -3.5 0 
" style="stroke: #000000; stroke-width: 0.8"/>
      </defs>
      <g>
       <use xlink:href="#ma5a260d7c4" x="26.925" y="221.719007" style="stroke: #000000; stroke-width: 0.8"/>
      </g>
     </g>
     <g id="text_7">
      <!-- 0 -->
      <g transform="translate(13.5625 225.518226) scale(0.1 -0.1)">
       <use xlink:href="#DejaVuSans-30"/>
      </g>
     </g>
    </g>
    <g id="ytick_2">
     <g id="line2d_8">
      <g>
       <use xlink:href="#ma5a260d7c4" x="26.925" y="175.218716" style="stroke: #000000; stroke-width: 0.8"/>
      </g>
     </g>
     <g id="text_8">
      <!-- 20 -->
      <g transform="translate(7.2 179.017935) scale(0.1 -0.1)">
       <use xlink:href="#DejaVuSans-32"/>
       <use xlink:href="#DejaVuSans-30" x="63.623047"/>
      </g>
     </g>
    </g>
    <g id="ytick_3">
     <g id="line2d_9">
      <g>
       <use xlink:href="#ma5a260d7c4" x="26.925" y="128.718425" style="stroke: #000000; stroke-width: 0.8"/>
      </g>
     </g>
     <g id="text_9">
      <!-- 40 -->
      <g transform="translate(7.2 132.517644) scale(0.1 -0.1)">
       <use xlink:href="#DejaVuSans-34"/>
       <use xlink:href="#DejaVuSans-30" x="63.623047"/>
      </g>
     </g>
    </g>
    <g id="ytick_4">
     <g id="line2d_10">
      <g>
       <use xlink:href="#ma5a260d7c4" x="26.925" y="82.218134" style="stroke: #000000; stroke-width: 0.8"/>
      </g>
     </g>
     <g id="text_10">
      <!-- 60 -->
      <g transform="translate(7.2 86.017353) scale(0.1 -0.1)">
       <use xlink:href="#DejaVuSans-36"/>
       <use xlink:href="#DejaVuSans-30" x="63.623047"/>
      </g>
     </g>
    </g>
    <g id="ytick_5">
     <g id="line2d_11">
      <g>
       <use xlink:href="#ma5a260d7c4" x="26.925" y="35.717843" style="stroke: #000000; stroke-width: 0.8"/>
      </g>
     </g>
     <g id="text_11">
      <!-- 80 -->
      <g transform="translate(7.2 39.517062) scale(0.1 -0.1)">
       <use xlink:href="#DejaVuSans-38"/>
       <use xlink:href="#DejaVuSans-30" x="63.623047"/>
      </g>
     </g>
    </g>
   </g>
   <g id="line2d_12">
    <path d="M 42.143182 17.28 
L 42.751909 17.29921 
L 43.360636 19.728115 
L 43.665 19.637796 
L 43.969364 22.506815 
L 44.273727 20.316923 
L 44.578091 20.973799 
L 44.882455 20.973799 
L 45.186818 22.52948 
L 45.491182 22.52948 
L 45.795545 24.547205 
L 46.099909 23.830637 
L 46.708636 24.345137 
L 47.013 24.710064 
L 47.317364 24.725223 
L 48.230455 26.939103 
L 48.534818 26.95921 
L 48.839182 27.117498 
L 49.143545 27.734261 
L 49.447909 27.851241 
L 49.752273 28.149347 
L 50.056636 28.149347 
L 50.361 28.261774 
L 50.665364 28.846735 
L 51.274091 28.932117 
L 51.882818 29.398211 
L 52.491545 30.239744 
L 53.404636 30.239744 
L 53.709 30.569666 
L 54.013364 30.670018 
L 54.622091 31.190258 
L 54.926455 30.93162 
L 55.230818 31.089973 
L 55.535182 31.459613 
L 56.448273 31.513604 
L 57.057 32.257374 
L 57.361364 32.393929 
L 57.665727 32.393929 
L 58.578818 33.172544 
L 58.883182 33.752618 
L 59.187545 33.836462 
L 59.796273 34.683695 
L 60.405 34.763763 
L 61.318091 34.94513 
L 62.231182 35.531034 
L 62.535545 36.18195 
L 62.839909 36.18195 
L 63.144273 36.315463 
L 63.448636 36.315463 
L 64.057364 37.175362 
L 64.361727 37.241865 
L 64.666091 37.42254 
L 65.579182 38.608762 
L 66.187909 39.012747 
L 66.492273 39.362652 
L 66.796636 39.362652 
L 67.101 39.724254 
L 67.405364 39.724254 
L 67.709727 40.112515 
L 68.014091 40.17334 
L 68.318455 40.349173 
L 68.927182 40.349173 
L 69.535909 41.300613 
L 69.840273 41.424201 
L 70.449 42.122242 
L 70.753364 42.203939 
L 71.057727 42.472676 
L 71.362091 42.122242 
L 71.666455 42.163453 
L 71.970818 42.455146 
L 72.275182 42.540586 
L 72.579545 42.780759 
L 72.883909 43.199142 
L 73.188273 42.802418 
L 73.492636 43.021676 
L 74.101364 43.079585 
L 74.405727 43.478162 
L 74.710091 43.590165 
L 75.014455 43.549762 
L 75.318818 43.825434 
L 75.927545 43.947164 
L 77.145 44.785557 
L 77.449364 44.819148 
L 78.058091 45.404406 
L 78.362455 45.404406 
L 78.971182 45.760941 
L 79.275545 46.106935 
L 79.579909 46.622019 
L 80.188636 46.536045 
L 80.493 47.223947 
L 80.797364 47.242337 
L 81.101727 47.629069 
L 81.710455 47.598965 
L 82.014818 48.538857 
L 82.319182 48.947047 
L 82.927909 48.977066 
L 83.841 49.264022 
L 84.449727 49.338578 
L 84.754091 49.612352 
L 85.058455 49.335551 
L 85.362818 49.430301 
L 85.667182 49.698524 
L 86.275909 49.731537 
L 86.580273 50.034218 
L 86.884636 50.625123 
L 87.189 50.693633 
L 87.493364 51.161507 
L 89.623909 51.55007 
L 89.928273 51.957222 
L 90.232636 51.979302 
L 90.537 52.405967 
L 90.841364 52.405967 
L 91.145727 52.94769 
L 91.450091 52.94769 
L 92.058818 53.128985 
L 92.667545 53.237481 
L 92.971909 53.576574 
L 93.885 53.914725 
L 94.798091 54.458296 
L 95.102455 54.553213 
L 95.406818 54.917221 
L 95.711182 54.959794 
L 96.015545 55.320937 
L 96.319909 55.449281 
L 96.624273 55.320937 
L 96.928636 55.541763 
L 97.537364 55.57215 
L 97.841727 55.754218 
L 98.146091 55.754218 
L 98.450455 56.009654 
L 99.667909 56.174022 
L 99.972273 56.503086 
L 100.276636 56.423886 
L 100.581 56.556381 
L 100.885364 56.879926 
L 101.189727 56.985722 
L 101.494091 57.248255 
L 101.798455 56.995225 
L 102.407182 56.995225 
L 103.015909 57.521325 
L 103.320273 57.177876 
L 103.929 57.228282 
L 104.233364 57.619555 
L 104.537727 57.313888 
L 105.450818 57.880286 
L 106.363909 57.969713 
L 106.668273 58.26269 
L 108.494455 58.686699 
L 108.798818 58.990859 
L 109.103182 58.863385 
L 109.711909 58.938628 
L 110.016273 59.290659 
L 110.320636 59.290659 
L 110.625 59.166926 
L 111.538091 59.492828 
L 112.146818 59.508907 
L 112.755545 60.217277 
L 113.059909 60.269816 
L 113.364273 60.775466 
L 113.973 60.81674 
L 114.277364 61.11697 
L 115.190455 61.359831 
L 115.494818 61.630209 
L 115.799182 61.576256 
L 117.016636 62.468352 
L 117.321 62.669508 
L 117.625364 62.701721 
L 117.929727 62.904606 
L 119.147182 62.906997 
L 119.755909 63.284957 
L 120.364636 63.392421 
L 120.669 63.392421 
L 120.973364 63.580975 
L 121.277727 63.519322 
L 121.886455 63.892288 
L 122.190818 64.125344 
L 122.495182 64.726067 
L 123.103909 64.726067 
L 123.712636 65.37304 
L 124.321364 65.774152 
L 124.625727 65.951645 
L 125.538818 65.961843 
L 125.843182 66.249023 
L 126.147545 66.249023 
L 126.756273 66.447839 
L 127.365 66.525885 
L 127.669364 66.7072 
L 127.973727 66.7072 
L 128.582455 66.863401 
L 129.191182 66.913231 
L 129.495545 67.305283 
L 129.799909 67.305283 
L 130.104273 67.190795 
L 131.321727 68.37231 
L 132.539182 68.419585 
L 132.843545 68.56453 
L 133.452273 69.066738 
L 134.061 69.105914 
L 134.365364 69.593294 
L 136.191545 69.670649 
L 136.495909 69.535222 
L 136.800273 69.81639 
L 137.104636 69.823355 
L 137.409 70.252503 
L 138.017727 70.278877 
L 139.539545 70.71565 
L 139.843909 71.056301 
L 140.148273 70.71565 
L 140.452636 71.048907 
L 140.757 71.048907 
L 141.061364 71.220436 
L 142.278818 71.193882 
L 143.496273 71.781626 
L 143.800636 71.641663 
L 144.105 72.12771 
L 144.713727 72.199342 
L 145.322455 72.305832 
L 145.626818 72.711017 
L 145.931182 72.543413 
L 146.844273 72.572718 
L 147.148636 72.746955 
L 147.757364 72.856942 
L 148.670455 72.957703 
L 148.974818 73.420269 
L 150.801 73.561942 
L 151.105364 73.806758 
L 151.409727 73.806758 
L 151.714091 74.07195 
L 152.627182 73.992075 
L 152.931545 74.261764 
L 153.235909 74.272869 
L 153.540273 74.481594 
L 153.844636 74.53597 
L 154.149 74.933479 
L 154.453364 74.720842 
L 154.757727 74.720842 
L 155.062091 74.992479 
L 155.366455 74.876514 
L 155.975182 74.990586 
L 156.279545 74.990586 
L 157.497 75.554634 
L 157.801364 75.458756 
L 158.105727 75.624661 
L 158.410091 75.624661 
L 159.018818 76.084694 
L 159.323182 75.959216 
L 160.236273 76.032506 
L 160.845 76.264361 
L 161.149364 76.530125 
L 161.453727 76.349218 
L 161.758091 76.361897 
L 162.366818 76.919194 
L 162.671182 76.920978 
L 162.975545 77.469263 
L 163.279909 77.564927 
L 163.888636 77.469263 
L 166.019182 77.539723 
L 166.323545 77.633063 
L 166.932273 78.13291 
L 167.236636 78.13291 
L 167.845364 78.573915 
L 168.149727 78.303126 
L 168.454091 78.573915 
L 170.584636 78.738449 
L 171.802091 78.976993 
L 172.106455 78.933026 
L 172.410818 79.063795 
L 173.019545 79.063795 
L 174.237 79.592929 
L 174.845727 79.639884 
L 175.454455 79.762084 
L 176.367545 79.851771 
L 176.671909 80.3572 
L 176.976273 80.3572 
L 177.280636 80.233845 
L 177.585 80.448338 
L 178.498091 80.691291 
L 178.802455 81.02959 
L 179.106818 80.847967 
L 180.019909 81.011405 
L 180.324273 81.179779 
L 180.628636 81.179779 
L 180.933 81.404935 
L 181.541727 81.632493 
L 181.846091 81.855354 
L 182.150455 81.691364 
L 183.976636 81.771165 
L 184.585364 81.863262 
L 186.411545 82.023203 
L 186.715909 82.336704 
L 188.542091 82.501477 
L 189.455182 82.537536 
L 191.281364 83.013758 
L 192.194455 83.046656 
L 192.498818 83.344359 
L 193.107545 83.287568 
L 193.411909 83.491745 
L 193.716273 83.413079 
L 194.020636 83.556944 
L 194.629364 83.58534 
L 194.933727 83.76971 
L 195.542455 83.774254 
L 196.151182 84.086402 
L 196.759909 84.199873 
L 197.064273 84.150974 
L 197.977364 84.722707 
L 198.586091 84.744421 
L 198.890455 84.884317 
L 199.194818 84.884317 
L 199.499182 85.242634 
L 201.325364 85.283581 
L 201.934091 85.77285 
L 202.238455 85.77285 
L 202.542818 86.028246 
L 203.151545 86.028246 
L 203.455909 86.443068 
L 204.064636 86.460688 
L 204.369 86.582979 
L 204.673364 86.582979 
L 204.977727 86.992918 
L 206.803909 87.209124 
L 207.412636 87.13895 
L 208.021364 87.200747 
L 208.325727 87.246148 
L 209.238818 87.607509 
L 210.151909 87.709019 
L 210.456273 87.895975 
L 211.065 87.945345 
L 212.282455 88.199429 
L 212.586818 88.534235 
L 213.195545 88.584118 
L 213.499909 88.938213 
L 213.804273 88.730144 
L 214.108636 88.730144 
L 215.630455 89.51356 
L 216.239182 89.479463 
L 216.543545 89.990235 
L 216.847909 90.207553 
L 217.152273 90.207553 
L 217.456636 90.348631 
L 217.761 90.348631 
L 218.369727 90.484049 
L 218.978455 90.498765 
L 219.282818 90.73239 
L 219.587182 90.624703 
L 219.891545 90.846844 
L 220.500273 90.846844 
L 221.413364 91.112385 
L 221.717727 91.122169 
L 222.022091 91.590825 
L 222.630818 91.590825 
L 222.935182 91.760164 
L 223.543909 91.646134 
L 223.848273 91.763927 
L 224.152636 91.751597 
L 224.761364 91.998779 
L 225.065727 92.012393 
L 225.370091 92.224533 
L 226.891909 92.246289 
L 227.500636 92.357944 
L 228.109364 92.45896 
L 228.413727 92.724588 
L 229.022455 92.724588 
L 229.631182 93.227493 
L 230.848636 93.631177 
L 231.457364 93.687551 
L 231.761727 93.946985 
L 232.370455 93.994741 
L 233.587909 94.297843 
L 234.501 94.265228 
L 234.805364 94.495384 
L 235.414091 94.596963 
L 236.327182 94.70843 
L 236.935909 94.811684 
L 237.544636 94.905594 
L 237.849 94.912558 
L 238.153364 94.787814 
L 238.762091 94.953182 
L 239.675182 95.181202 
L 240.283909 95.350725 
L 240.892636 95.429896 
L 241.197 95.494888 
L 241.501364 95.43239 
L 241.805727 95.669191 
L 242.110091 95.583672 
L 242.718818 95.798066 
L 243.327545 95.798066 
L 245.153727 96.387599 
L 246.066818 96.363548 
L 246.371182 96.574108 
L 246.675545 96.984068 
L 246.979909 96.833775 
L 247.284273 96.833775 
L 247.588636 96.685244 
L 248.197364 96.823152 
L 248.501727 97.148547 
L 248.806091 97.308887 
L 249.414818 97.308887 
L 249.719182 97.852742 
L 250.023545 97.609836 
L 251.241 97.915215 
L 251.545364 97.750406 
L 251.849727 97.752266 
L 252.154091 98.053915 
L 253.067182 98.158979 
L 253.980273 98.271441 
L 254.284636 98.591844 
L 254.589 98.46486 
L 256.110818 98.736161 
L 256.415182 98.720857 
L 257.328273 98.981349 
L 257.632636 99.061548 
L 258.241364 99.54285 
L 260.067545 99.714694 
L 262.806818 100.012846 
L 263.111182 100.295245 
L 264.024273 100.363643 
L 264.328636 100.682084 
L 264.633 100.707165 
L 264.937364 100.944764 
L 266.763545 101.049047 
L 267.067909 101.215401 
L 267.676636 101.131744 
L 267.981 101.280095 
L 268.285364 101.237277 
L 268.589727 101.350256 
L 268.894091 101.592892 
L 271.633364 101.79857 
L 271.937727 101.892952 
L 272.242091 101.724399 
L 272.546455 101.731987 
L 273.459545 102.272327 
L 274.068273 102.381335 
L 274.981364 102.459934 
L 275.590091 102.567306 
L 275.894455 102.723733 
L 278.329364 102.814254 
L 280.155545 103.053516 
L 280.764273 103.133702 
L 282.286091 103.279776 
L 282.590455 103.425707 
L 283.503545 103.48633 
L 284.112273 103.468792 
L 284.416636 103.607935 
L 285.329727 103.596265 
L 285.634091 103.775274 
L 286.242818 103.704303 
L 287.155909 104.514181 
L 288.373364 104.540603 
L 288.982091 104.865688 
L 289.895182 105.037889 
L 290.199545 104.797839 
L 291.112636 104.882004 
L 291.721364 105.103416 
L 292.634455 105.185101 
L 292.938818 105.401198 
L 293.851909 105.439981 
L 294.156273 105.685999 
L 296.286818 105.786649 
L 298.113 105.952407 
L 298.721727 106.059368 
L 299.330455 106.158401 
L 300.243545 106.345703 
L 301.461 106.39071 
L 301.765364 106.533771 
L 302.069727 106.504552 
L 302.374091 106.746532 
L 302.678455 106.746532 
L 302.982818 106.906729 
L 303.287182 106.780509 
L 303.591545 106.925887 
L 304.504636 106.841256 
L 306.026455 107.153821 
L 306.330818 107.356468 
L 308.461364 107.47275 
L 309.070091 107.459991 
L 309.678818 107.564069 
L 309.983182 107.510294 
L 310.591909 107.642707 
L 311.505 107.644271 
L 311.809364 107.883687 
L 312.113727 107.883687 
L 312.418091 107.724228 
L 313.026818 107.763681 
L 313.331182 107.758882 
L 313.939909 107.959304 
L 315.461727 108.201892 
L 315.766091 108.413004 
L 316.070455 108.413004 
L 316.374818 108.602638 
L 317.896636 108.673274 
L 318.201 108.806655 
L 318.809727 108.726699 
L 320.331545 108.829735 
L 321.853364 108.9785 
L 322.766455 109.06349 
L 323.679545 109.20976 
L 327.331909 109.495495 
L 327.940636 109.440413 
L 328.853727 109.510549 
L 330.071182 109.474023 
L 330.375545 109.500553 
L 330.679909 109.758792 
L 330.984273 109.561542 
L 331.288636 109.742594 
L 331.593 109.742594 
L 331.897364 109.898096 
L 334.636636 109.974647 
L 335.245364 110.066592 
L 336.158455 110.100248 
L 337.375909 110.233878 
L 338.897727 110.586353 
L 339.506455 110.675475 
L 340.115182 110.761335 
L 341.332636 110.836096 
L 341.941364 111.053215 
L 342.550091 111.084625 
L 342.854455 111.089516 
L 343.158818 111.231115 
L 345.289364 111.326715 
L 345.898091 111.403884 
L 346.506818 111.430014 
L 346.506818 111.430014 
" clip-path="url(#pf1251cefc7)" style="fill: none; stroke: #1f77b4; stroke-width: 1.5; stroke-linecap: square"/>
   </g>
   <g id="line2d_13">
    <path d="M 42.143182 20.47351 
L 42.447545 20.138217 
L 42.751909 20.138217 
L 43.360636 22.882362 
L 43.665 22.940222 
L 43.969364 25.79283 
L 44.273727 23.832911 
L 44.578091 24.476424 
L 44.882455 24.476424 
L 45.186818 25.926175 
L 45.491182 25.926175 
L 45.795545 27.862032 
L 46.099909 27.504987 
L 46.404273 27.695193 
L 46.708636 27.636035 
L 47.013 28.089524 
L 47.317364 28.057596 
L 48.230455 30.125512 
L 48.839182 30.27314 
L 49.143545 30.900019 
L 50.361 31.335822 
L 50.665364 31.944568 
L 50.969727 31.944568 
L 51.882818 32.520726 
L 52.491545 33.391643 
L 53.404636 33.391643 
L 53.709 33.730964 
L 54.013364 33.836144 
L 54.622091 34.352803 
L 54.926455 34.097542 
L 55.230818 34.265159 
L 55.535182 34.681366 
L 56.448273 34.734125 
L 57.057 35.469951 
L 57.361364 35.602913 
L 57.665727 35.602913 
L 57.970091 35.973793 
L 58.274455 36.092603 
L 58.578818 36.391827 
L 58.883182 36.984215 
L 59.187545 37.106498 
L 59.796273 37.980115 
L 60.405 38.067364 
L 61.318091 38.25406 
L 62.231182 38.918921 
L 62.535545 39.58781 
L 62.839909 39.58781 
L 63.144273 39.736847 
L 63.448636 39.736847 
L 64.057364 40.62089 
L 64.361727 40.692232 
L 64.666091 40.894283 
L 65.883545 42.291447 
L 66.187909 42.489554 
L 66.492273 42.845397 
L 66.796636 42.845397 
L 67.101 43.252285 
L 67.405364 43.252285 
L 67.709727 43.645965 
L 68.622818 43.93982 
L 68.927182 43.93982 
L 69.840273 45.040444 
L 70.449 45.724781 
L 70.753364 45.814161 
L 71.057727 46.095123 
L 71.362091 45.724781 
L 71.666455 45.775349 
L 71.970818 46.066973 
L 72.275182 46.149571 
L 72.579545 46.400406 
L 72.883909 46.826053 
L 73.188273 46.448717 
L 73.492636 46.707976 
L 74.101364 46.740864 
L 74.405727 47.216045 
L 74.710091 47.345625 
L 75.014455 47.206268 
L 75.318818 47.59779 
L 75.927545 47.700686 
L 76.536273 48.222689 
L 77.449364 48.604433 
L 77.753727 49.081317 
L 78.058091 49.316778 
L 78.666818 49.406814 
L 78.971182 49.644772 
L 79.579909 50.616397 
L 80.188636 50.536681 
L 80.493 51.21312 
L 80.797364 51.238164 
L 81.101727 51.630145 
L 81.710455 51.595871 
L 82.014818 52.594485 
L 82.319182 53.006512 
L 82.927909 53.048304 
L 83.536636 53.349892 
L 84.449727 53.429517 
L 84.754091 53.697147 
L 85.058455 53.523459 
L 85.362818 53.535302 
L 85.667182 53.80032 
L 86.275909 53.848354 
L 86.580273 54.221938 
L 86.884636 54.819126 
L 87.189 54.898867 
L 87.493364 55.392841 
L 89.623909 55.846284 
L 89.928273 56.253686 
L 90.232636 56.302579 
L 90.537 56.731803 
L 90.841364 56.731803 
L 91.145727 57.287137 
L 91.450091 57.287137 
L 91.754455 57.499141 
L 92.667545 57.602332 
L 92.971909 57.930352 
L 93.885 58.300243 
L 94.189364 58.4988 
L 94.493727 58.556809 
L 96.319909 59.828853 
L 96.624273 59.693624 
L 96.928636 60.067669 
L 97.537364 59.948991 
L 97.841727 60.198796 
L 98.146091 60.198796 
L 98.450455 60.396539 
L 99.667909 60.576685 
L 99.972273 60.936739 
L 100.276636 60.85953 
L 100.581 61.123774 
L 100.885364 61.560526 
L 101.189727 61.436355 
L 101.494091 61.85088 
L 101.798455 61.43595 
L 102.102818 61.543876 
L 102.407182 61.43595 
L 102.711545 61.652739 
L 103.015909 62.138975 
L 103.320273 61.781871 
L 103.929 61.756907 
L 104.233364 62.189501 
L 104.537727 61.920329 
L 105.146455 62.235573 
L 105.450818 62.428866 
L 106.363909 62.528712 
L 106.668273 62.904275 
L 107.581364 62.995965 
L 107.885727 63.193142 
L 108.190091 63.193142 
L 108.494455 63.368236 
L 108.798818 63.686395 
L 109.103182 63.464265 
L 109.407545 63.677952 
L 109.711909 63.677952 
L 110.016273 63.971202 
L 110.929364 64.016409 
L 111.233727 64.224301 
L 112.146818 64.323455 
L 113.059909 65.046085 
L 113.364273 65.623989 
L 113.973 65.700358 
L 114.277364 65.966646 
L 115.190455 66.181374 
L 115.494818 66.505073 
L 116.103545 66.677131 
L 116.407909 67.068457 
L 116.712273 67.187015 
L 117.321 67.671281 
L 117.625364 67.728129 
L 117.929727 67.912151 
L 119.147182 67.951259 
L 119.755909 68.335738 
L 120.060273 68.47131 
L 120.669 68.47131 
L 120.973364 68.642658 
L 121.277727 68.584656 
L 121.886455 68.944042 
L 122.190818 69.203504 
L 122.495182 69.820884 
L 123.103909 69.820884 
L 123.712636 70.480905 
L 124.321364 70.98344 
L 124.930091 71.097998 
L 125.538818 71.09177 
L 125.843182 71.391802 
L 126.147545 71.391802 
L 127.669364 71.949401 
L 127.973727 71.949401 
L 128.582455 72.142332 
L 129.191182 72.123461 
L 129.495545 72.540283 
L 129.799909 72.540283 
L 130.104273 72.409324 
L 131.321727 73.677951 
L 132.539182 73.732349 
L 133.452273 74.40915 
L 134.061 74.519627 
L 134.365364 74.978917 
L 135.278455 75.03397 
L 136.191545 75.053199 
L 136.495909 74.923833 
L 136.800273 75.201999 
L 137.104636 75.284088 
L 137.409 75.64216 
L 137.713364 75.768926 
L 138.017727 75.676135 
L 138.626455 76.036784 
L 138.930818 76.036784 
L 139.843909 76.688291 
L 140.148273 76.338216 
L 140.452636 76.691422 
L 140.757 76.691422 
L 141.061364 76.934544 
L 141.670091 76.881861 
L 141.974455 76.964464 
L 142.278818 76.881861 
L 142.583182 77.06062 
L 142.887545 77.059042 
L 143.496273 77.540796 
L 143.800636 77.370193 
L 144.105 77.88193 
L 144.713727 77.968492 
L 145.322455 78.018428 
L 145.626818 78.428994 
L 145.931182 78.272009 
L 146.539909 78.376118 
L 146.844273 78.459204 
L 147.148636 78.731652 
L 148.670455 78.936548 
L 148.974818 79.405737 
L 150.801 79.593739 
L 151.105364 79.84737 
L 151.409727 79.84737 
L 151.714091 80.121082 
L 152.627182 80.050886 
L 152.931545 80.348934 
L 153.235909 80.331659 
L 153.540273 80.570687 
L 153.844636 80.606994 
L 154.149 81.029211 
L 154.453364 80.849202 
L 154.757727 80.849202 
L 155.062091 81.216822 
L 155.366455 81.069426 
L 155.670818 81.164732 
L 156.279545 81.14189 
L 157.192636 81.463898 
L 157.497 81.77682 
L 157.801364 81.649417 
L 158.105727 81.974306 
L 158.410091 81.974306 
L 159.018818 82.354151 
L 159.627545 82.271188 
L 160.540636 82.422033 
L 160.845 82.584969 
L 161.149364 82.930743 
L 161.453727 82.680275 
L 161.758091 82.726229 
L 162.366818 83.325769 
L 162.671182 83.377882 
L 162.975545 83.914993 
L 163.279909 84.024252 
L 163.888636 83.914993 
L 166.019182 84.024412 
L 166.323545 84.128434 
L 166.932273 84.639389 
L 167.236636 84.639389 
L 167.541 84.824286 
L 167.845364 85.184166 
L 168.149727 84.824286 
L 168.454091 85.184166 
L 168.758455 85.315886 
L 170.584636 85.350391 
L 170.889 85.490012 
L 171.497727 85.566688 
L 171.802091 85.714992 
L 172.106455 85.61031 
L 172.410818 85.759356 
L 173.019545 85.759356 
L 173.628273 86.135282 
L 174.845727 86.423905 
L 175.150091 86.692597 
L 175.454455 86.466636 
L 176.367545 86.548128 
L 176.671909 87.117211 
L 176.976273 87.117211 
L 177.280636 86.995283 
L 178.193727 87.501551 
L 178.498091 87.501551 
L 178.802455 87.851626 
L 179.106818 87.645759 
L 179.411182 87.634336 
L 180.324273 88.113983 
L 180.628636 88.113983 
L 181.237364 88.4666 
L 181.541727 88.532199 
L 181.846091 88.820521 
L 182.150455 88.608253 
L 183.063545 88.500937 
L 183.367909 88.808774 
L 183.672273 88.639477 
L 184.281 88.732953 
L 185.194091 88.917422 
L 185.802818 89.123502 
L 186.411545 89.061657 
L 186.715909 89.391611 
L 188.542091 89.600276 
L 189.150818 89.516522 
L 189.455182 89.731551 
L 190.368273 89.852853 
L 190.672636 90.149397 
L 191.585727 90.202032 
L 191.890091 90.149397 
L 192.194455 90.266795 
L 192.498818 90.532382 
L 193.107545 90.48684 
L 193.411909 90.768928 
L 193.716273 90.644875 
L 194.325 90.761201 
L 194.629364 90.795746 
L 194.933727 91.019891 
L 195.542455 91.035406 
L 196.455545 91.433736 
L 197.368636 91.616275 
L 197.673 91.937911 
L 198.281727 92.040442 
L 199.194818 92.213909 
L 199.499182 92.664373 
L 199.803545 92.664373 
L 200.107909 92.519384 
L 201.325364 92.666916 
L 201.934091 93.180771 
L 202.238455 93.180771 
L 202.542818 93.478198 
L 203.151545 93.478198 
L 203.455909 93.900701 
L 204.064636 93.924273 
L 204.369 94.061347 
L 204.673364 94.061347 
L 204.977727 94.52092 
L 205.586455 94.542961 
L 205.890818 94.542961 
L 206.195182 94.757376 
L 206.499545 94.538947 
L 206.803909 94.772336 
L 207.717 94.69374 
L 208.325727 94.891404 
L 208.630091 95.132864 
L 208.934455 95.066822 
L 209.238818 95.192742 
L 210.151909 95.28262 
L 210.456273 95.485772 
L 211.065 95.548983 
L 211.978091 95.83141 
L 212.282455 95.799992 
L 212.586818 96.288244 
L 213.195545 96.349826 
L 213.499909 96.759038 
L 213.804273 96.44781 
L 214.108636 96.44781 
L 214.413 96.742043 
L 214.717364 96.812818 
L 215.021727 97.17802 
L 215.630455 97.442551 
L 216.239182 97.459942 
L 216.543545 98.002294 
L 216.847909 98.230103 
L 217.152273 98.230103 
L 217.456636 98.37827 
L 217.761 98.37827 
L 218.369727 98.524647 
L 218.978455 98.547535 
L 219.282818 98.793272 
L 219.587182 98.672814 
L 219.891545 98.948491 
L 220.500273 98.948491 
L 221.413364 99.218501 
L 221.717727 99.160856 
L 222.022091 99.806466 
L 222.630818 99.806466 
L 222.935182 100.013207 
L 223.543909 99.883107 
L 223.848273 100.013134 
L 224.152636 100.009312 
L 224.761364 100.293946 
L 225.065727 100.302327 
L 225.370091 100.533989 
L 226.891909 100.618354 
L 227.500636 100.807086 
L 228.109364 100.80807 
L 228.413727 101.104524 
L 229.022455 101.104524 
L 229.631182 101.684012 
L 230.544273 102.102647 
L 231.153 102.178616 
L 231.457364 102.219984 
L 231.761727 102.432601 
L 232.370455 102.540349 
L 232.674818 102.694089 
L 233.283545 102.680109 
L 233.587909 102.905031 
L 234.196636 102.780406 
L 234.501 102.871212 
L 234.805364 103.103451 
L 235.109727 103.103451 
L 235.414091 103.294555 
L 235.718455 103.24145 
L 237.544636 103.626925 
L 238.762091 103.634589 
L 239.979545 104.074336 
L 243.023182 104.715825 
L 243.327545 104.715825 
L 243.631909 104.9925 
L 243.936273 104.940169 
L 244.849364 105.44105 
L 245.458091 105.508421 
L 245.762455 105.508421 
L 246.371182 105.844842 
L 246.675545 106.270857 
L 246.979909 106.028799 
L 248.197364 106.101509 
L 248.806091 106.643181 
L 249.414818 106.643181 
L 249.719182 107.107922 
L 250.023545 106.843304 
L 250.936636 107.099671 
L 251.241 107.310489 
L 251.545364 107.014841 
L 251.849727 107.035152 
L 252.154091 107.309875 
L 252.458455 107.309875 
L 252.762818 107.448299 
L 253.980273 107.5556 
L 254.284636 108.002298 
L 254.589 107.785051 
L 254.893364 108.159927 
L 255.197727 108.03376 
L 256.110818 108.139738 
L 257.023909 108.486083 
L 257.328273 108.377324 
L 258.241364 109.25415 
L 258.850091 109.145391 
L 259.458818 109.187196 
L 259.763182 109.520851 
L 260.067545 109.464459 
L 260.676273 109.661569 
L 260.980636 109.706952 
L 261.285 109.593488 
L 261.589364 109.707551 
L 262.198091 109.645604 
L 262.806818 109.968745 
L 263.415545 110.139947 
L 263.719909 110.166464 
L 264.024273 110.001471 
L 264.328636 110.600218 
L 264.633 110.435225 
L 264.937364 110.737098 
L 265.850455 110.759332 
L 266.154818 110.940968 
L 266.763545 110.963202 
L 267.372273 111.078964 
L 268.285364 111.180144 
L 269.502818 111.6505 
L 270.720273 111.752617 
L 271.024636 111.720054 
L 271.937727 111.998436 
L 272.242091 111.81215 
L 272.850818 111.901603 
L 273.459545 112.45624 
L 273.763909 112.45624 
L 274.677 112.976602 
L 274.981364 112.74263 
L 275.590091 112.884123 
L 275.894455 113.117009 
L 278.025 113.225498 
L 278.329364 113.265991 
L 278.633727 113.158798 
L 279.546818 113.547024 
L 279.851182 113.459033 
L 280.764273 113.669407 
L 281.068636 113.289287 
L 281.373 113.723621 
L 281.677364 113.596421 
L 282.286091 113.596421 
L 282.590455 114.037351 
L 283.199182 113.96652 
L 283.807909 114.068262 
L 284.112273 114.050961 
L 284.416636 114.194475 
L 285.938455 114.268077 
L 286.851545 114.867217 
L 287.155909 115.28157 
L 287.460273 115.28157 
L 287.764636 115.15777 
L 288.677727 115.377005 
L 289.286455 115.591965 
L 289.590818 115.667032 
L 289.895182 115.904278 
L 290.199545 115.650572 
L 290.503909 115.650572 
L 290.808273 115.871068 
L 291.112636 115.772636 
L 291.417 115.89002 
L 291.721364 116.147727 
L 292.634455 116.110999 
L 292.938818 116.339095 
L 293.547545 116.339095 
L 294.156273 116.749851 
L 295.069364 116.712257 
L 295.373727 116.871888 
L 295.678091 116.712257 
L 295.982455 116.712257 
L 296.286818 116.897109 
L 296.591182 116.880725 
L 297.199909 116.990721 
L 298.113 117.038942 
L 298.721727 117.14319 
L 299.026091 117.14319 
L 299.634818 117.487748 
L 300.243545 117.568984 
L 300.852273 117.578358 
L 301.156636 117.562339 
L 302.374091 118.030976 
L 302.678455 118.030976 
L 302.982818 118.197957 
L 303.287182 118.114811 
L 303.591545 118.290799 
L 304.200273 118.183445 
L 304.809 118.280417 
L 306.026455 118.533402 
L 306.939545 118.661626 
L 308.157 118.75291 
L 308.461364 118.904397 
L 308.765727 118.75291 
L 309.070091 118.75291 
L 309.374455 118.912206 
L 309.678818 118.912206 
L 310.287545 119.241954 
L 310.591909 119.026576 
L 311.505 119.095279 
L 311.809364 119.335336 
L 312.113727 119.335336 
L 312.418091 119.193459 
L 313.026818 119.303096 
L 313.331182 119.201736 
L 314.244273 119.733388 
L 314.548636 119.605173 
L 315.766091 120.096638 
L 316.070455 120.096638 
L 316.374818 120.431085 
L 317.896636 120.464592 
L 318.201 120.583383 
L 318.809727 120.50215 
L 319.418455 120.50215 
L 319.722818 120.655371 
L 320.027182 120.529883 
L 320.331545 120.709009 
L 320.940273 120.638777 
L 321.244636 120.638777 
L 321.549 120.782445 
L 322.766455 120.81826 
L 323.983909 121.185793 
L 324.288273 121.116544 
L 325.201364 121.166225 
L 326.114455 121.266779 
L 326.723182 121.347708 
L 328.549364 121.289492 
L 328.853727 121.56667 
L 329.462455 121.435406 
L 330.375545 121.525359 
L 330.679909 121.804579 
L 330.984273 121.561127 
L 331.288636 121.707492 
L 332.201727 121.767029 
L 332.506091 121.967067 
L 332.810455 121.767029 
L 334.332273 121.8237 
L 334.941 121.89083 
L 335.854091 121.959919 
L 336.462818 122.12006 
L 336.767182 122.03376 
L 337.071545 122.286366 
L 337.680273 122.267703 
L 338.593364 122.65769 
L 339.506455 122.635617 
L 339.810818 122.816853 
L 341.332636 122.857642 
L 341.637 123.10634 
L 342.245727 123.310946 
L 342.550091 123.184497 
L 344.376273 123.613427 
L 344.680636 123.454521 
L 345.289364 123.454521 
L 345.593727 123.597283 
L 346.506818 123.581349 
L 346.506818 123.581349 
" clip-path="url(#pf1251cefc7)" style="fill: none; stroke: #ff7f0e; stroke-width: 1.5; stroke-linecap: square"/>
   </g>
   <g id="line2d_14">
    <path d="M 42.143182 218.525497 
L 42.447545 218.88 
L 42.751909 218.88 
L 44.273727 218.20302 
L 45.491182 218.322313 
L 45.795545 218.404181 
L 46.099909 218.044658 
L 46.404273 218.082577 
L 46.708636 218.428109 
L 47.013 218.339547 
L 47.621727 218.450381 
L 47.926091 218.701765 
L 48.534818 218.456828 
L 49.143545 218.55325 
L 50.056636 218.624466 
L 50.969727 218.621174 
L 51.578455 218.543559 
L 52.187182 218.590751 
L 54.013364 218.552882 
L 57.665727 218.510023 
L 57.970091 218.436916 
L 58.578818 218.499724 
L 71.057727 218.09656 
L 72.579545 218.09936 
L 75.927545 217.965486 
L 76.231909 217.880321 
L 76.840636 217.992816 
L 78.362455 217.806636 
L 78.666818 217.88823 
L 80.188636 217.718372 
L 81.710455 217.722101 
L 82.319182 217.659543 
L 84.754091 217.634212 
L 85.058455 217.531099 
L 85.667182 217.617211 
L 92.971909 217.365229 
L 98.146091 217.274429 
L 98.754818 217.321636 
L 100.276636 217.283364 
L 100.885364 217.038408 
L 101.189727 217.268375 
L 101.494091 217.116383 
L 101.798455 217.278282 
L 102.102818 217.197509 
L 102.711545 217.292106 
L 103.015909 217.101357 
L 106.363909 217.160009 
L 106.972636 217.099738 
L 107.885727 217.131399 
L 109.103182 217.118128 
L 109.407545 216.979684 
L 113.668636 216.870484 
L 114.581727 216.867065 
L 115.494818 216.844144 
L 115.799182 216.758382 
L 116.103545 216.868554 
L 116.712273 216.73877 
L 123.103909 216.62419 
L 127.060636 216.486034 
L 127.365 216.36684 
L 127.973727 216.476807 
L 128.582455 216.440076 
L 129.191182 216.508777 
L 131.626091 216.413366 
L 137.104636 216.258274 
L 137.409 216.329351 
L 137.713364 216.181916 
L 138.017727 216.321749 
L 138.322091 216.169081 
L 140.757 216.076492 
L 141.365727 216.031029 
L 146.235545 215.990411 
L 146.539909 215.844415 
L 147.148636 215.73431 
L 147.453 215.694819 
L 147.757364 215.855061 
L 148.061727 215.700206 
L 148.366091 215.843535 
L 148.974818 215.733539 
L 150.801 215.687211 
L 168.454091 215.108756 
L 168.758455 214.986694 
L 169.062818 214.986694 
L 169.367182 215.101974 
L 173.323909 214.958564 
L 173.932636 215.002684 
L 174.845727 214.934987 
L 175.150091 214.746873 
L 175.454455 215.014455 
L 178.498091 214.908747 
L 183.367909 214.633743 
L 183.672273 214.850696 
L 184.585364 214.817687 
L 185.194091 214.726311 
L 185.498455 214.7072 
L 185.802818 214.561675 
L 186.411545 214.680554 
L 188.846455 214.620208 
L 189.150818 214.714216 
L 189.455182 214.524992 
L 190.063909 214.611869 
L 190.368273 214.659874 
L 190.977 214.547147 
L 193.716273 214.487211 
L 194.629364 214.508601 
L 195.542455 214.457856 
L 196.455545 214.456982 
L 198.890455 214.389416 
L 202.238455 214.311086 
L 203.151545 214.269055 
L 208.325727 214.073752 
L 208.630091 213.991197 
L 208.934455 214.140607 
L 213.195545 213.953299 
L 213.499909 213.898182 
L 214.108636 214.001342 
L 214.717364 213.843945 
L 215.021727 213.735214 
L 216.239182 213.738529 
L 217.761 213.689369 
L 225.978818 213.409551 
L 226.587545 213.393727 
L 227.805 213.273853 
L 228.109364 213.369898 
L 230.239909 213.193094 
L 230.848636 213.247538 
L 231.457364 213.186574 
L 232.066091 213.233392 
L 232.979182 213.102942 
L 233.283545 213.202548 
L 233.587909 213.111819 
L 234.196636 213.137754 
L 235.718455 213.088435 
L 236.327182 213.10343 
L 236.935909 213.00018 
L 238.153364 212.990942 
L 243.327545 212.801248 
L 243.631909 212.637655 
L 243.936273 212.722133 
L 244.849364 212.571349 
L 245.762455 212.598185 
L 246.066818 212.38099 
L 246.979909 212.523984 
L 247.588636 212.434023 
L 247.893 212.380101 
L 248.501727 212.423566 
L 249.414818 212.384713 
L 250.023545 212.485538 
L 250.936636 212.356155 
L 251.241 212.323733 
L 251.545364 212.454572 
L 253.371545 212.407151 
L 253.980273 212.434848 
L 254.284636 212.308554 
L 254.589 212.398816 
L 254.893364 212.092052 
L 255.197727 212.32495 
L 256.110818 212.315431 
L 256.719545 212.120658 
L 257.328273 212.323032 
L 257.632636 212.107977 
L 259.458818 212.151187 
L 259.763182 211.986509 
L 260.067545 211.969243 
L 260.676273 211.820844 
L 262.502455 211.832353 
L 262.806818 211.763109 
L 263.111182 211.898541 
L 263.719909 211.891105 
L 264.024273 212.08118 
L 264.328636 211.800873 
L 264.633 211.990948 
L 265.546091 211.910423 
L 267.067909 211.880387 
L 267.676636 211.771787 
L 267.981 211.879455 
L 268.589727 211.75698 
L 268.894091 211.84286 
L 269.198455 211.674652 
L 273.155182 211.611554 
L 274.068273 211.450098 
L 274.372636 211.431086 
L 274.677 211.241911 
L 274.981364 211.436311 
L 278.329364 211.26727 
L 278.633727 211.400324 
L 279.546818 211.175221 
L 279.851182 211.309191 
L 280.459909 211.183303 
L 280.764273 211.183303 
L 281.068636 211.580918 
L 281.373 211.115442 
L 281.677364 211.402362 
L 282.286091 211.402362 
L 282.590455 211.107364 
L 283.199182 211.162409 
L 284.721 211.132467 
L 285.938455 211.135106 
L 286.242818 210.994901 
L 286.547182 211.116837 
L 287.155909 210.951618 
L 287.460273 210.951618 
L 287.764636 211.085554 
L 289.286455 211.015128 
L 289.590818 210.997743 
L 289.895182 210.852618 
L 290.503909 210.866274 
L 290.808273 210.708052 
L 291.417 210.833997 
L 291.721364 210.674697 
L 292.330091 210.674697 
L 292.634455 210.793109 
L 293.547545 210.781111 
L 293.851909 210.625837 
L 295.069364 210.726011 
L 295.373727 210.581853 
L 295.678091 210.726011 
L 295.982455 210.726011 
L 296.286818 210.608547 
L 297.808636 210.643838 
L 306.026455 210.339426 
L 306.330818 210.477909 
L 307.243909 210.445702 
L 308.157 210.426088 
L 308.461364 210.287361 
L 308.765727 210.426088 
L 309.678818 210.37087 
L 309.983182 210.142691 
L 310.287545 210.090871 
L 310.591909 210.335138 
L 310.896273 210.335138 
L 311.200636 210.190356 
L 311.809364 210.267358 
L 313.635545 210.184764 
L 313.939909 210.149403 
L 314.244273 209.997529 
L 314.548636 210.12976 
L 315.157364 209.978039 
L 316.070455 210.035373 
L 316.374818 209.89056 
L 321.853364 209.915063 
L 322.157727 210.004921 
L 324.288273 209.812223 
L 325.505727 209.846094 
L 328.245 209.77785 
L 328.549364 209.919692 
L 328.853727 209.662886 
L 329.766818 209.747736 
L 331.593 209.754109 
L 332.201727 209.850075 
L 332.506091 209.710095 
L 332.810455 209.850075 
L 335.854091 209.847388 
L 336.462818 209.716078 
L 336.767182 209.882114 
L 337.071545 209.666519 
L 341.941364 209.581382 
L 342.245727 209.533355 
L 342.550091 209.619135 
L 342.854455 209.551026 
L 343.463182 209.615039 
L 344.071909 209.499599 
L 344.376273 209.411925 
L 344.680636 209.591201 
L 346.506818 209.567673 
L 346.506818 209.567673 
" clip-path="url(#pf1251cefc7)" style="fill: none; stroke: #2ca02c; stroke-width: 1.5; stroke-linecap: square"/>
   </g>
   <g id="patch_3">
    <path d="M 26.925 228.96 
L 26.925 7.2 
" style="fill: none; stroke: #000000; stroke-width: 0.8; stroke-linejoin: miter; stroke-linecap: square"/>
   </g>
   <g id="patch_4">
    <path d="M 361.725 228.96 
L 361.725 7.2 
" style="fill: none; stroke: #000000; stroke-width: 0.8; stroke-linejoin: miter; stroke-linecap: square"/>
   </g>
   <g id="patch_5">
    <path d="M 26.925 228.96 
L 361.725 228.96 
" style="fill: none; stroke: #000000; stroke-width: 0.8; stroke-linejoin: miter; stroke-linecap: square"/>
   </g>
   <g id="patch_6">
    <path d="M 26.925 7.2 
L 361.725 7.2 
" style="fill: none; stroke: #000000; stroke-width: 0.8; stroke-linejoin: miter; stroke-linecap: square"/>
   </g>
   <g id="legend_1">
    <g id="patch_7">
     <path d="M 201.335938 59.234375 
L 354.725 59.234375 
Q 356.725 59.234375 356.725 57.234375 
L 356.725 14.2 
Q 356.725 12.2 354.725 12.2 
L 201.335938 12.2 
Q 199.335938 12.2 199.335938 14.2 
L 199.335938 57.234375 
Q 199.335938 59.234375 201.335938 59.234375 
z
" style="fill: #ffffff; opacity: 0.8; stroke: #cccccc; stroke-linejoin: miter"/>
    </g>
    <g id="line2d_15">
     <path d="M 203.335938 20.298437 
L 213.335938 20.298437 
L 223.335938 20.298437 
" style="fill: none; stroke: #1f77b4; stroke-width: 1.5; stroke-linecap: square"/>
    </g>
    <g id="text_12">
     <!-- target value -->
     <g transform="translate(231.335938 23.798437) scale(0.1 -0.1)">
      <defs>
       <path id="DejaVuSans-74" d="M 1172 4494 
L 1172 3500 
L 2356 3500 
L 2356 3053 
L 1172 3053 
L 1172 1153 
Q 1172 725 1289 603 
Q 1406 481 1766 481 
L 2356 481 
L 2356 0 
L 1766 0 
Q 1100 0 847 248 
Q 594 497 594 1153 
L 594 3053 
L 172 3053 
L 172 3500 
L 594 3500 
L 594 4494 
L 1172 4494 
z
" transform="scale(0.015625)"/>
       <path id="DejaVuSans-61" d="M 2194 1759 
Q 1497 1759 1228 1600 
Q 959 1441 959 1056 
Q 959 750 1161 570 
Q 1363 391 1709 391 
Q 2188 391 2477 730 
Q 2766 1069 2766 1631 
L 2766 1759 
L 2194 1759 
z
M 3341 1997 
L 3341 0 
L 2766 0 
L 2766 531 
Q 2569 213 2275 61 
Q 1981 -91 1556 -91 
Q 1019 -91 701 211 
Q 384 513 384 1019 
Q 384 1609 779 1909 
Q 1175 2209 1959 2209 
L 2766 2209 
L 2766 2266 
Q 2766 2663 2505 2880 
Q 2244 3097 1772 3097 
Q 1472 3097 1187 3025 
Q 903 2953 641 2809 
L 641 3341 
Q 956 3463 1253 3523 
Q 1550 3584 1831 3584 
Q 2591 3584 2966 3190 
Q 3341 2797 3341 1997 
z
" transform="scale(0.015625)"/>
       <path id="DejaVuSans-72" d="M 2631 2963 
Q 2534 3019 2420 3045 
Q 2306 3072 2169 3072 
Q 1681 3072 1420 2755 
Q 1159 2438 1159 1844 
L 1159 0 
L 581 0 
L 581 3500 
L 1159 3500 
L 1159 2956 
Q 1341 3275 1631 3429 
Q 1922 3584 2338 3584 
Q 2397 3584 2469 3576 
Q 2541 3569 2628 3553 
L 2631 2963 
z
" transform="scale(0.015625)"/>
       <path id="DejaVuSans-67" d="M 2906 1791 
Q 2906 2416 2648 2759 
Q 2391 3103 1925 3103 
Q 1463 3103 1205 2759 
Q 947 2416 947 1791 
Q 947 1169 1205 825 
Q 1463 481 1925 481 
Q 2391 481 2648 825 
Q 2906 1169 2906 1791 
z
M 3481 434 
Q 3481 -459 3084 -895 
Q 2688 -1331 1869 -1331 
Q 1566 -1331 1297 -1286 
Q 1028 -1241 775 -1147 
L 775 -588 
Q 1028 -725 1275 -790 
Q 1522 -856 1778 -856 
Q 2344 -856 2625 -561 
Q 2906 -266 2906 331 
L 2906 616 
Q 2728 306 2450 153 
Q 2172 0 1784 0 
Q 1141 0 747 490 
Q 353 981 353 1791 
Q 353 2603 747 3093 
Q 1141 3584 1784 3584 
Q 2172 3584 2450 3431 
Q 2728 3278 2906 2969 
L 2906 3500 
L 3481 3500 
L 3481 434 
z
" transform="scale(0.015625)"/>
       <path id="DejaVuSans-65" d="M 3597 1894 
L 3597 1613 
L 953 1613 
Q 991 1019 1311 708 
Q 1631 397 2203 397 
Q 2534 397 2845 478 
Q 3156 559 3463 722 
L 3463 178 
Q 3153 47 2828 -22 
Q 2503 -91 2169 -91 
Q 1331 -91 842 396 
Q 353 884 353 1716 
Q 353 2575 817 3079 
Q 1281 3584 2069 3584 
Q 2775 3584 3186 3129 
Q 3597 2675 3597 1894 
z
M 3022 2063 
Q 3016 2534 2758 2815 
Q 2500 3097 2075 3097 
Q 1594 3097 1305 2825 
Q 1016 2553 972 2059 
L 3022 2063 
z
" transform="scale(0.015625)"/>
       <path id="DejaVuSans-20" transform="scale(0.015625)"/>
       <path id="DejaVuSans-76" d="M 191 3500 
L 800 3500 
L 1894 563 
L 2988 3500 
L 3597 3500 
L 2284 0 
L 1503 0 
L 191 3500 
z
" transform="scale(0.015625)"/>
       <path id="DejaVuSans-6c" d="M 603 4863 
L 1178 4863 
L 1178 0 
L 603 0 
L 603 4863 
z
" transform="scale(0.015625)"/>
       <path id="DejaVuSans-75" d="M 544 1381 
L 544 3500 
L 1119 3500 
L 1119 1403 
Q 1119 906 1312 657 
Q 1506 409 1894 409 
Q 2359 409 2629 706 
Q 2900 1003 2900 1516 
L 2900 3500 
L 3475 3500 
L 3475 0 
L 2900 0 
L 2900 538 
Q 2691 219 2414 64 
Q 2138 -91 1772 -91 
Q 1169 -91 856 284 
Q 544 659 544 1381 
z
M 1991 3584 
L 1991 3584 
z
" transform="scale(0.015625)"/>
      </defs>
      <use xlink:href="#DejaVuSans-74"/>
      <use xlink:href="#DejaVuSans-61" x="39.208984"/>
      <use xlink:href="#DejaVuSans-72" x="100.488281"/>
      <use xlink:href="#DejaVuSans-67" x="139.851562"/>
      <use xlink:href="#DejaVuSans-65" x="203.328125"/>
      <use xlink:href="#DejaVuSans-74" x="264.851562"/>
      <use xlink:href="#DejaVuSans-20" x="304.060547"/>
      <use xlink:href="#DejaVuSans-76" x="335.847656"/>
      <use xlink:href="#DejaVuSans-61" x="395.027344"/>
      <use xlink:href="#DejaVuSans-6c" x="456.306641"/>
      <use xlink:href="#DejaVuSans-75" x="484.089844"/>
      <use xlink:href="#DejaVuSans-65" x="547.46875"/>
     </g>
    </g>
    <g id="line2d_16">
     <path d="M 203.335938 34.976562 
L 213.335938 34.976562 
L 223.335938 34.976562 
" style="fill: none; stroke: #ff7f0e; stroke-width: 1.5; stroke-linecap: square"/>
    </g>
    <g id="text_13">
     <!-- communication cost -->
     <g transform="translate(231.335938 38.476562) scale(0.1 -0.1)">
      <defs>
       <path id="DejaVuSans-63" d="M 3122 3366 
L 3122 2828 
Q 2878 2963 2633 3030 
Q 2388 3097 2138 3097 
Q 1578 3097 1268 2742 
Q 959 2388 959 1747 
Q 959 1106 1268 751 
Q 1578 397 2138 397 
Q 2388 397 2633 464 
Q 2878 531 3122 666 
L 3122 134 
Q 2881 22 2623 -34 
Q 2366 -91 2075 -91 
Q 1284 -91 818 406 
Q 353 903 353 1747 
Q 353 2603 823 3093 
Q 1294 3584 2113 3584 
Q 2378 3584 2631 3529 
Q 2884 3475 3122 3366 
z
" transform="scale(0.015625)"/>
       <path id="DejaVuSans-6f" d="M 1959 3097 
Q 1497 3097 1228 2736 
Q 959 2375 959 1747 
Q 959 1119 1226 758 
Q 1494 397 1959 397 
Q 2419 397 2687 759 
Q 2956 1122 2956 1747 
Q 2956 2369 2687 2733 
Q 2419 3097 1959 3097 
z
M 1959 3584 
Q 2709 3584 3137 3096 
Q 3566 2609 3566 1747 
Q 3566 888 3137 398 
Q 2709 -91 1959 -91 
Q 1206 -91 779 398 
Q 353 888 353 1747 
Q 353 2609 779 3096 
Q 1206 3584 1959 3584 
z
" transform="scale(0.015625)"/>
       <path id="DejaVuSans-6d" d="M 3328 2828 
Q 3544 3216 3844 3400 
Q 4144 3584 4550 3584 
Q 5097 3584 5394 3201 
Q 5691 2819 5691 2113 
L 5691 0 
L 5113 0 
L 5113 2094 
Q 5113 2597 4934 2840 
Q 4756 3084 4391 3084 
Q 3944 3084 3684 2787 
Q 3425 2491 3425 1978 
L 3425 0 
L 2847 0 
L 2847 2094 
Q 2847 2600 2669 2842 
Q 2491 3084 2119 3084 
Q 1678 3084 1418 2786 
Q 1159 2488 1159 1978 
L 1159 0 
L 581 0 
L 581 3500 
L 1159 3500 
L 1159 2956 
Q 1356 3278 1631 3431 
Q 1906 3584 2284 3584 
Q 2666 3584 2933 3390 
Q 3200 3197 3328 2828 
z
" transform="scale(0.015625)"/>
       <path id="DejaVuSans-6e" d="M 3513 2113 
L 3513 0 
L 2938 0 
L 2938 2094 
Q 2938 2591 2744 2837 
Q 2550 3084 2163 3084 
Q 1697 3084 1428 2787 
Q 1159 2491 1159 1978 
L 1159 0 
L 581 0 
L 581 3500 
L 1159 3500 
L 1159 2956 
Q 1366 3272 1645 3428 
Q 1925 3584 2291 3584 
Q 2894 3584 3203 3211 
Q 3513 2838 3513 2113 
z
" transform="scale(0.015625)"/>
       <path id="DejaVuSans-69" d="M 603 3500 
L 1178 3500 
L 1178 0 
L 603 0 
L 603 3500 
z
M 603 4863 
L 1178 4863 
L 1178 4134 
L 603 4134 
L 603 4863 
z
" transform="scale(0.015625)"/>
       <path id="DejaVuSans-73" d="M 2834 3397 
L 2834 2853 
Q 2591 2978 2328 3040 
Q 2066 3103 1784 3103 
Q 1356 3103 1142 2972 
Q 928 2841 928 2578 
Q 928 2378 1081 2264 
Q 1234 2150 1697 2047 
L 1894 2003 
Q 2506 1872 2764 1633 
Q 3022 1394 3022 966 
Q 3022 478 2636 193 
Q 2250 -91 1575 -91 
Q 1294 -91 989 -36 
Q 684 19 347 128 
L 347 722 
Q 666 556 975 473 
Q 1284 391 1588 391 
Q 1994 391 2212 530 
Q 2431 669 2431 922 
Q 2431 1156 2273 1281 
Q 2116 1406 1581 1522 
L 1381 1569 
Q 847 1681 609 1914 
Q 372 2147 372 2553 
Q 372 3047 722 3315 
Q 1072 3584 1716 3584 
Q 2034 3584 2315 3537 
Q 2597 3491 2834 3397 
z
" transform="scale(0.015625)"/>
      </defs>
      <use xlink:href="#DejaVuSans-63"/>
      <use xlink:href="#DejaVuSans-6f" x="54.980469"/>
      <use xlink:href="#DejaVuSans-6d" x="116.162109"/>
      <use xlink:href="#DejaVuSans-6d" x="213.574219"/>
      <use xlink:href="#DejaVuSans-75" x="310.986328"/>
      <use xlink:href="#DejaVuSans-6e" x="374.365234"/>
      <use xlink:href="#DejaVuSans-69" x="437.744141"/>
      <use xlink:href="#DejaVuSans-63" x="465.527344"/>
      <use xlink:href="#DejaVuSans-61" x="520.507812"/>
      <use xlink:href="#DejaVuSans-74" x="581.787109"/>
      <use xlink:href="#DejaVuSans-69" x="620.996094"/>
      <use xlink:href="#DejaVuSans-6f" x="648.779297"/>
      <use xlink:href="#DejaVuSans-6e" x="709.960938"/>
      <use xlink:href="#DejaVuSans-20" x="773.339844"/>
      <use xlink:href="#DejaVuSans-63" x="805.126953"/>
      <use xlink:href="#DejaVuSans-6f" x="860.107422"/>
      <use xlink:href="#DejaVuSans-73" x="921.289062"/>
      <use xlink:href="#DejaVuSans-74" x="973.388672"/>
     </g>
    </g>
    <g id="line2d_17">
     <path d="M 203.335938 49.654687 
L 213.335938 49.654687 
L 223.335938 49.654687 
" style="fill: none; stroke: #2ca02c; stroke-width: 1.5; stroke-linecap: square"/>
    </g>
    <g id="text_14">
     <!-- node storage proportion -->
     <g transform="translate(231.335938 53.154687) scale(0.1 -0.1)">
      <defs>
       <path id="DejaVuSans-64" d="M 2906 2969 
L 2906 4863 
L 3481 4863 
L 3481 0 
L 2906 0 
L 2906 525 
Q 2725 213 2448 61 
Q 2172 -91 1784 -91 
Q 1150 -91 751 415 
Q 353 922 353 1747 
Q 353 2572 751 3078 
Q 1150 3584 1784 3584 
Q 2172 3584 2448 3432 
Q 2725 3281 2906 2969 
z
M 947 1747 
Q 947 1113 1208 752 
Q 1469 391 1925 391 
Q 2381 391 2643 752 
Q 2906 1113 2906 1747 
Q 2906 2381 2643 2742 
Q 2381 3103 1925 3103 
Q 1469 3103 1208 2742 
Q 947 2381 947 1747 
z
" transform="scale(0.015625)"/>
       <path id="DejaVuSans-70" d="M 1159 525 
L 1159 -1331 
L 581 -1331 
L 581 3500 
L 1159 3500 
L 1159 2969 
Q 1341 3281 1617 3432 
Q 1894 3584 2278 3584 
Q 2916 3584 3314 3078 
Q 3713 2572 3713 1747 
Q 3713 922 3314 415 
Q 2916 -91 2278 -91 
Q 1894 -91 1617 61 
Q 1341 213 1159 525 
z
M 3116 1747 
Q 3116 2381 2855 2742 
Q 2594 3103 2138 3103 
Q 1681 3103 1420 2742 
Q 1159 2381 1159 1747 
Q 1159 1113 1420 752 
Q 1681 391 2138 391 
Q 2594 391 2855 752 
Q 3116 1113 3116 1747 
z
" transform="scale(0.015625)"/>
      </defs>
      <use xlink:href="#DejaVuSans-6e"/>
      <use xlink:href="#DejaVuSans-6f" x="63.378906"/>
      <use xlink:href="#DejaVuSans-64" x="124.560547"/>
      <use xlink:href="#DejaVuSans-65" x="188.037109"/>
      <use xlink:href="#DejaVuSans-20" x="249.560547"/>
      <use xlink:href="#DejaVuSans-73" x="281.347656"/>
      <use xlink:href="#DejaVuSans-74" x="333.447266"/>
      <use xlink:href="#DejaVuSans-6f" x="372.65625"/>
      <use xlink:href="#DejaVuSans-72" x="433.837891"/>
      <use xlink:href="#DejaVuSans-61" x="474.951172"/>
      <use xlink:href="#DejaVuSans-67" x="536.230469"/>
      <use xlink:href="#DejaVuSans-65" x="599.707031"/>
      <use xlink:href="#DejaVuSans-20" x="661.230469"/>
      <use xlink:href="#DejaVuSans-70" x="693.017578"/>
      <use xlink:href="#DejaVuSans-72" x="756.494141"/>
      <use xlink:href="#DejaVuSans-6f" x="795.357422"/>
      <use xlink:href="#DejaVuSans-70" x="856.539062"/>
      <use xlink:href="#DejaVuSans-6f" x="920.015625"/>
      <use xlink:href="#DejaVuSans-72" x="981.197266"/>
      <use xlink:href="#DejaVuSans-74" x="1022.310547"/>
      <use xlink:href="#DejaVuSans-69" x="1061.519531"/>
      <use xlink:href="#DejaVuSans-6f" x="1089.302734"/>
      <use xlink:href="#DejaVuSans-6e" x="1150.484375"/>
     </g>
    </g>
   </g>
  </g>
 </g>
 <defs>
  <clipPath id="pf1251cefc7">
   <rect x="26.925" y="7.2" width="334.8" height="221.76"/>
  </clipPath>
 </defs>
</svg>
