<?xml version="1.0" encoding="utf-8" standalone="no"?>
<!DOCTYPE svg PUBLIC "-//W3C//DTD SVG 1.1//EN"
  "http://www.w3.org/Graphics/SVG/1.1/DTD/svg11.dtd">
<svg xmlns:xlink="http://www.w3.org/1999/xlink" width="368.925pt" height="252.838125pt" viewBox="0 0 368.925 252.838125" xmlns="http://www.w3.org/2000/svg" version="1.1">
 <metadata>
  <rdf:RDF xmlns:dc="http://purl.org/dc/elements/1.1/" xmlns:cc="http://creativecommons.org/ns#" xmlns:rdf="http://www.w3.org/1999/02/22-rdf-syntax-ns#">
   <cc:Work>
    <dc:type rdf:resource="http://purl.org/dc/dcmitype/StillImage"/>
    <dc:date>2023-04-19T15:36:50.880638</dc:date>
    <dc:format>image/svg+xml</dc:format>
    <dc:creator>
     <cc:Agent>
      <dc:title>Matplotlib v3.6.2, https://matplotlib.org/</dc:title>
     </cc:Agent>
    </dc:creator>
   </cc:Work>
  </rdf:RDF>
 </metadata>
 <defs>
  <style type="text/css">*{stroke-linejoin: round; stroke-linecap: butt}</style>
 </defs>
 <g id="figure_1">
  <g id="patch_1">
   <path d="M -0 252.838125 
L 368.925 252.838125 
L 368.925 0 
L -0 0 
z
" style="fill: #ffffff"/>
  </g>
  <g id="axes_1">
   <g id="patch_2">
    <path d="M 26.925 228.96 
L 361.725 228.96 
L 361.725 7.2 
L 26.925 7.2 
z
" style="fill: #ffffff"/>
   </g>
   <g id="matplotlib.axis_1">
    <g id="xtick_1">
     <g id="line2d_1">
      <defs>
       <path id="mb8feec79ce" d="M 0 0 
L 0 3.5 
" style="stroke: #000000; stroke-width: 0.8"/>
      </defs>
      <g>
       <use xlink:href="#mb8feec79ce" x="42.143182" y="228.96" style="stroke: #000000; stroke-width: 0.8"/>
      </g>
     </g>
     <g id="text_1">
      <!-- 0 -->
      <g transform="translate(38.961932 243.558438) scale(0.1 -0.1)">
       <defs>
        <path id="DejaVuSans-30" d="M 2034 4250 
Q 1547 4250 1301 3770 
Q 1056 3291 1056 2328 
Q 1056 1369 1301 889 
Q 1547 409 2034 409 
Q 2525 409 2770 889 
Q 3016 1369 3016 2328 
Q 3016 3291 2770 3770 
Q 2525 4250 2034 4250 
z
M 2034 4750 
Q 2819 4750 3233 4129 
Q 3647 3509 3647 2328 
Q 3647 1150 3233 529 
Q 2819 -91 2034 -91 
Q 1250 -91 836 529 
Q 422 1150 422 2328 
Q 422 3509 836 4129 
Q 1250 4750 2034 4750 
z
" transform="scale(0.015625)"/>
       </defs>
       <use xlink:href="#DejaVuSans-30"/>
      </g>
     </g>
    </g>
    <g id="xtick_2">
     <g id="line2d_2">
      <g>
       <use xlink:href="#mb8feec79ce" x="103.015909" y="228.96" style="stroke: #000000; stroke-width: 0.8"/>
      </g>
     </g>
     <g id="text_2">
      <!-- 200 -->
      <g transform="translate(93.472159 243.558438) scale(0.1 -0.1)">
       <defs>
        <path id="DejaVuSans-32" d="M 1228 531 
L 3431 531 
L 3431 0 
L 469 0 
L 469 531 
Q 828 903 1448 1529 
Q 2069 2156 2228 2338 
Q 2531 2678 2651 2914 
Q 2772 3150 2772 3378 
Q 2772 3750 2511 3984 
Q 2250 4219 1831 4219 
Q 1534 4219 1204 4116 
Q 875 4013 500 3803 
L 500 4441 
Q 881 4594 1212 4672 
Q 1544 4750 1819 4750 
Q 2544 4750 2975 4387 
Q 3406 4025 3406 3419 
Q 3406 3131 3298 2873 
Q 3191 2616 2906 2266 
Q 2828 2175 2409 1742 
Q 1991 1309 1228 531 
z
" transform="scale(0.015625)"/>
       </defs>
       <use xlink:href="#DejaVuSans-32"/>
       <use xlink:href="#DejaVuSans-30" x="63.623047"/>
       <use xlink:href="#DejaVuSans-30" x="127.246094"/>
      </g>
     </g>
    </g>
    <g id="xtick_3">
     <g id="line2d_3">
      <g>
       <use xlink:href="#mb8feec79ce" x="163.888636" y="228.96" style="stroke: #000000; stroke-width: 0.8"/>
      </g>
     </g>
     <g id="text_3">
      <!-- 400 -->
      <g transform="translate(154.344886 243.558438) scale(0.1 -0.1)">
       <defs>
        <path id="DejaVuSans-34" d="M 2419 4116 
L 825 1625 
L 2419 1625 
L 2419 4116 
z
M 2253 4666 
L 3047 4666 
L 3047 1625 
L 3713 1625 
L 3713 1100 
L 3047 1100 
L 3047 0 
L 2419 0 
L 2419 1100 
L 313 1100 
L 313 1709 
L 2253 4666 
z
" transform="scale(0.015625)"/>
       </defs>
       <use xlink:href="#DejaVuSans-34"/>
       <use xlink:href="#DejaVuSans-30" x="63.623047"/>
       <use xlink:href="#DejaVuSans-30" x="127.246094"/>
      </g>
     </g>
    </g>
    <g id="xtick_4">
     <g id="line2d_4">
      <g>
       <use xlink:href="#mb8feec79ce" x="224.761364" y="228.96" style="stroke: #000000; stroke-width: 0.8"/>
      </g>
     </g>
     <g id="text_4">
      <!-- 600 -->
      <g transform="translate(215.217614 243.558438) scale(0.1 -0.1)">
       <defs>
        <path id="DejaVuSans-36" d="M 2113 2584 
Q 1688 2584 1439 2293 
Q 1191 2003 1191 1497 
Q 1191 994 1439 701 
Q 1688 409 2113 409 
Q 2538 409 2786 701 
Q 3034 994 3034 1497 
Q 3034 2003 2786 2293 
Q 2538 2584 2113 2584 
z
M 3366 4563 
L 3366 3988 
Q 3128 4100 2886 4159 
Q 2644 4219 2406 4219 
Q 1781 4219 1451 3797 
Q 1122 3375 1075 2522 
Q 1259 2794 1537 2939 
Q 1816 3084 2150 3084 
Q 2853 3084 3261 2657 
Q 3669 2231 3669 1497 
Q 3669 778 3244 343 
Q 2819 -91 2113 -91 
Q 1303 -91 875 529 
Q 447 1150 447 2328 
Q 447 3434 972 4092 
Q 1497 4750 2381 4750 
Q 2619 4750 2861 4703 
Q 3103 4656 3366 4563 
z
" transform="scale(0.015625)"/>
       </defs>
       <use xlink:href="#DejaVuSans-36"/>
       <use xlink:href="#DejaVuSans-30" x="63.623047"/>
       <use xlink:href="#DejaVuSans-30" x="127.246094"/>
      </g>
     </g>
    </g>
    <g id="xtick_5">
     <g id="line2d_5">
      <g>
       <use xlink:href="#mb8feec79ce" x="285.634091" y="228.96" style="stroke: #000000; stroke-width: 0.8"/>
      </g>
     </g>
     <g id="text_5">
      <!-- 800 -->
      <g transform="translate(276.090341 243.558438) scale(0.1 -0.1)">
       <defs>
        <path id="DejaVuSans-38" d="M 2034 2216 
Q 1584 2216 1326 1975 
Q 1069 1734 1069 1313 
Q 1069 891 1326 650 
Q 1584 409 2034 409 
Q 2484 409 2743 651 
Q 3003 894 3003 1313 
Q 3003 1734 2745 1975 
Q 2488 2216 2034 2216 
z
M 1403 2484 
Q 997 2584 770 2862 
Q 544 3141 544 3541 
Q 544 4100 942 4425 
Q 1341 4750 2034 4750 
Q 2731 4750 3128 4425 
Q 3525 4100 3525 3541 
Q 3525 3141 3298 2862 
Q 3072 2584 2669 2484 
Q 3125 2378 3379 2068 
Q 3634 1759 3634 1313 
Q 3634 634 3220 271 
Q 2806 -91 2034 -91 
Q 1263 -91 848 271 
Q 434 634 434 1313 
Q 434 1759 690 2068 
Q 947 2378 1403 2484 
z
M 1172 3481 
Q 1172 3119 1398 2916 
Q 1625 2713 2034 2713 
Q 2441 2713 2670 2916 
Q 2900 3119 2900 3481 
Q 2900 3844 2670 4047 
Q 2441 4250 2034 4250 
Q 1625 4250 1398 4047 
Q 1172 3844 1172 3481 
z
" transform="scale(0.015625)"/>
       </defs>
       <use xlink:href="#DejaVuSans-38"/>
       <use xlink:href="#DejaVuSans-30" x="63.623047"/>
       <use xlink:href="#DejaVuSans-30" x="127.246094"/>
      </g>
     </g>
    </g>
    <g id="xtick_6">
     <g id="line2d_6">
      <g>
       <use xlink:href="#mb8feec79ce" x="346.506818" y="228.96" style="stroke: #000000; stroke-width: 0.8"/>
      </g>
     </g>
     <g id="text_6">
      <!-- 1000 -->
      <g transform="translate(333.781818 243.558438) scale(0.1 -0.1)">
       <defs>
        <path id="DejaVuSans-31" d="M 794 531 
L 1825 531 
L 1825 4091 
L 703 3866 
L 703 4441 
L 1819 4666 
L 2450 4666 
L 2450 531 
L 3481 531 
L 3481 0 
L 794 0 
L 794 531 
z
" transform="scale(0.015625)"/>
       </defs>
       <use xlink:href="#DejaVuSans-31"/>
       <use xlink:href="#DejaVuSans-30" x="63.623047"/>
       <use xlink:href="#DejaVuSans-30" x="127.246094"/>
       <use xlink:href="#DejaVuSans-30" x="190.869141"/>
      </g>
     </g>
    </g>
   </g>
   <g id="matplotlib.axis_2">
    <g id="ytick_1">
     <g id="line2d_7">
      <defs>
       <path id="m6179263676" d="M 0 0 
L -3.5 0 
" style="stroke: #000000; stroke-width: 0.8"/>
      </defs>
      <g>
       <use xlink:href="#m6179263676" x="26.925" y="205.84624" style="stroke: #000000; stroke-width: 0.8"/>
      </g>
     </g>
     <g id="text_7">
      <!-- 70 -->
      <g transform="translate(7.2 209.645458) scale(0.1 -0.1)">
       <defs>
        <path id="DejaVuSans-37" d="M 525 4666 
L 3525 4666 
L 3525 4397 
L 1831 0 
L 1172 0 
L 2766 4134 
L 525 4134 
L 525 4666 
z
" transform="scale(0.015625)"/>
       </defs>
       <use xlink:href="#DejaVuSans-37"/>
       <use xlink:href="#DejaVuSans-30" x="63.623047"/>
      </g>
     </g>
    </g>
    <g id="ytick_2">
     <g id="line2d_8">
      <g>
       <use xlink:href="#m6179263676" x="26.925" y="157.750556" style="stroke: #000000; stroke-width: 0.8"/>
      </g>
     </g>
     <g id="text_8">
      <!-- 75 -->
      <g transform="translate(7.2 161.549775) scale(0.1 -0.1)">
       <defs>
        <path id="DejaVuSans-35" d="M 691 4666 
L 3169 4666 
L 3169 4134 
L 1269 4134 
L 1269 2991 
Q 1406 3038 1543 3061 
Q 1681 3084 1819 3084 
Q 2600 3084 3056 2656 
Q 3513 2228 3513 1497 
Q 3513 744 3044 326 
Q 2575 -91 1722 -91 
Q 1428 -91 1123 -41 
Q 819 9 494 109 
L 494 744 
Q 775 591 1075 516 
Q 1375 441 1709 441 
Q 2250 441 2565 725 
Q 2881 1009 2881 1497 
Q 2881 1984 2565 2268 
Q 2250 2553 1709 2553 
Q 1456 2553 1204 2497 
Q 953 2441 691 2322 
L 691 4666 
z
" transform="scale(0.015625)"/>
       </defs>
       <use xlink:href="#DejaVuSans-37"/>
       <use xlink:href="#DejaVuSans-35" x="63.623047"/>
      </g>
     </g>
    </g>
    <g id="ytick_3">
     <g id="line2d_9">
      <g>
       <use xlink:href="#m6179263676" x="26.925" y="109.654873" style="stroke: #000000; stroke-width: 0.8"/>
      </g>
     </g>
     <g id="text_9">
      <!-- 80 -->
      <g transform="translate(7.2 113.454091) scale(0.1 -0.1)">
       <use xlink:href="#DejaVuSans-38"/>
       <use xlink:href="#DejaVuSans-30" x="63.623047"/>
      </g>
     </g>
    </g>
    <g id="ytick_4">
     <g id="line2d_10">
      <g>
       <use xlink:href="#m6179263676" x="26.925" y="61.559189" style="stroke: #000000; stroke-width: 0.8"/>
      </g>
     </g>
     <g id="text_10">
      <!-- 85 -->
      <g transform="translate(7.2 65.358408) scale(0.1 -0.1)">
       <use xlink:href="#DejaVuSans-38"/>
       <use xlink:href="#DejaVuSans-35" x="63.623047"/>
      </g>
     </g>
    </g>
    <g id="ytick_5">
     <g id="line2d_11">
      <g>
       <use xlink:href="#m6179263676" x="26.925" y="13.463506" style="stroke: #000000; stroke-width: 0.8"/>
      </g>
     </g>
     <g id="text_11">
      <!-- 90 -->
      <g transform="translate(7.2 17.262724) scale(0.1 -0.1)">
       <defs>
        <path id="DejaVuSans-39" d="M 703 97 
L 703 672 
Q 941 559 1184 500 
Q 1428 441 1663 441 
Q 2288 441 2617 861 
Q 2947 1281 2994 2138 
Q 2813 1869 2534 1725 
Q 2256 1581 1919 1581 
Q 1219 1581 811 2004 
Q 403 2428 403 3163 
Q 403 3881 828 4315 
Q 1253 4750 1959 4750 
Q 2769 4750 3195 4129 
Q 3622 3509 3622 2328 
Q 3622 1225 3098 567 
Q 2575 -91 1691 -91 
Q 1453 -91 1209 -44 
Q 966 3 703 97 
z
M 1959 2075 
Q 2384 2075 2632 2365 
Q 2881 2656 2881 3163 
Q 2881 3666 2632 3958 
Q 2384 4250 1959 4250 
Q 1534 4250 1286 3958 
Q 1038 3666 1038 3163 
Q 1038 2656 1286 2365 
Q 1534 2075 1959 2075 
z
" transform="scale(0.015625)"/>
       </defs>
       <use xlink:href="#DejaVuSans-39"/>
       <use xlink:href="#DejaVuSans-30" x="63.623047"/>
      </g>
     </g>
    </g>
   </g>
   <g id="line2d_12">
    <path d="M 42.143182 33.373141 
L 42.447545 33.373141 
L 43.056273 28.843798 
L 43.360636 25.269512 
L 43.665 24.671608 
L 43.969364 23.555604 
L 44.273727 24.459437 
L 44.578091 28.087187 
L 44.882455 28.087187 
L 45.186818 31.802134 
L 45.491182 30.371102 
L 45.795545 33.473093 
L 46.099909 30.862691 
L 46.404273 22.060352 
L 46.708636 31.533697 
L 47.013 22.26993 
L 47.621727 28.800306 
L 48.230455 31.068837 
L 48.534818 33.03121 
L 48.839182 27.601128 
L 49.143545 27.734363 
L 49.447909 26.846194 
L 49.752273 25.522952 
L 50.056636 18.744783 
L 50.361 26.771283 
L 50.665364 18.449914 
L 50.969727 17.28 
L 51.578455 17.293251 
L 52.187182 23.106544 
L 52.491545 28.700548 
L 52.795909 28.700548 
L 53.100273 21.890543 
L 53.404636 21.890543 
L 53.709 30.152236 
L 54.013364 31.759433 
L 54.317727 29.107734 
L 54.622091 35.869425 
L 54.926455 32.675851 
L 55.230818 31.5595 
L 55.535182 33.030995 
L 55.839545 35.231456 
L 56.143909 40.828383 
L 56.448273 39.786686 
L 56.752636 40.893198 
L 57.057 36.724938 
L 57.361364 43.211099 
L 57.665727 38.371965 
L 57.970091 39.078716 
L 58.274455 38.46378 
L 58.578818 36.216171 
L 59.187545 36.216171 
L 59.491909 36.518524 
L 59.796273 38.028241 
L 60.405 38.028241 
L 60.709364 37.013959 
L 61.013727 37.891444 
L 61.318091 35.029716 
L 61.622455 40.279939 
L 61.926818 43.273465 
L 62.231182 37.317698 
L 62.535545 36.392709 
L 62.839909 36.392709 
L 63.144273 34.888446 
L 63.448636 45.262292 
L 63.753 45.262292 
L 64.057364 43.350066 
L 64.361727 48.069733 
L 64.970455 42.193653 
L 65.274818 43.746622 
L 65.579182 43.255412 
L 65.883545 47.060644 
L 66.187909 54.76012 
L 66.492273 51.734715 
L 66.796636 53.433644 
L 67.101 54.206208 
L 67.405364 52.635841 
L 67.709727 54.966925 
L 68.014091 54.966925 
L 68.318455 59.287917 
L 68.622818 59.287917 
L 68.927182 55.925378 
L 69.231545 55.065738 
L 69.535909 57.153525 
L 69.840273 54.891368 
L 70.144636 57.73188 
L 70.753364 57.73188 
L 71.362091 50.242592 
L 71.666455 50.242592 
L 71.970818 51.861498 
L 72.275182 52.785583 
L 72.579545 51.427569 
L 72.883909 53.137966 
L 73.188273 49.829277 
L 73.797 56.850148 
L 74.101364 52.991271 
L 74.405727 55.779876 
L 74.710091 53.778806 
L 75.014455 52.989543 
L 75.318818 56.678044 
L 75.623182 56.601012 
L 75.927545 53.034082 
L 76.231909 54.363628 
L 76.536273 63.497361 
L 77.145 58.958734 
L 77.449364 59.656912 
L 77.753727 58.207883 
L 78.058091 57.735309 
L 78.362455 57.770391 
L 78.666818 62.73333 
L 78.971182 60.324872 
L 79.275545 59.860671 
L 79.579909 61.384427 
L 79.884273 61.384427 
L 80.188636 65.712886 
L 80.493 68.364212 
L 80.797364 65.549456 
L 81.101727 65.554027 
L 81.406091 63.744963 
L 81.710455 59.493174 
L 82.014818 62.511055 
L 82.623545 60.170566 
L 82.927909 60.173806 
L 83.232273 60.476787 
L 83.536636 61.323542 
L 83.841 67.438231 
L 84.145364 67.438231 
L 84.449727 70.269816 
L 84.754091 68.181862 
L 85.058455 72.003697 
L 85.362818 69.115775 
L 85.667182 73.305077 
L 85.971545 69.348935 
L 86.275909 76.129452 
L 86.580273 75.446887 
L 86.884636 73.821212 
L 87.189 72.823735 
L 87.493364 74.634067 
L 87.797727 72.839991 
L 88.102091 74.092702 
L 88.406455 73.11148 
L 88.710818 73.836589 
L 89.015182 72.983576 
L 89.319545 78.781742 
L 89.623909 78.781742 
L 89.928273 70.090101 
L 90.232636 70.15093 
L 90.537 73.594848 
L 90.841364 73.525029 
L 91.450091 76.881356 
L 91.754455 74.923892 
L 92.058818 75.413122 
L 92.363182 76.766449 
L 92.667545 81.188711 
L 92.971909 77.0164 
L 93.276273 78.951042 
L 93.580636 78.969681 
L 93.885 81.619264 
L 94.189364 79.625258 
L 94.493727 81.963129 
L 95.102455 91.149489 
L 95.406818 91.149489 
L 96.015545 83.367529 
L 96.319909 84.192572 
L 96.624273 84.192572 
L 96.928636 81.258443 
L 97.233 81.306275 
L 97.537364 86.47653 
L 97.841727 86.966274 
L 98.146091 86.44045 
L 98.754818 86.290418 
L 99.059182 90.044457 
L 99.363545 89.077073 
L 99.667909 87.590829 
L 99.972273 87.410626 
L 100.276636 87.530262 
L 100.581 89.631869 
L 100.885364 90.089875 
L 101.189727 97.971173 
L 101.494091 97.971173 
L 101.798455 97.444917 
L 102.102818 95.134165 
L 102.711545 95.134165 
L 103.015909 96.124781 
L 103.320273 94.830663 
L 103.624636 94.627256 
L 103.929 94.930905 
L 104.233364 94.930905 
L 104.537727 96.26745 
L 104.842091 95.012204 
L 105.146455 89.208079 
L 105.755182 89.282367 
L 106.059545 89.062856 
L 106.363909 93.090742 
L 106.972636 93.689929 
L 107.277 91.059556 
L 107.581364 91.713265 
L 107.885727 90.484381 
L 108.190091 90.168645 
L 108.494455 90.884056 
L 108.798818 90.884056 
L 109.103182 91.109807 
L 109.407545 97.601797 
L 109.711909 95.905427 
L 110.016273 95.724462 
L 110.320636 95.724462 
L 110.625 94.9987 
L 110.929364 95.174321 
L 111.233727 96.299673 
L 111.538091 96.218389 
L 111.842455 100.946132 
L 112.146818 100.946132 
L 112.451182 91.854278 
L 112.755545 93.057337 
L 113.059909 94.735777 
L 113.364273 94.735777 
L 113.668636 100.731964 
L 113.973 99.195333 
L 114.277364 98.964131 
L 114.581727 99.493367 
L 114.886091 99.108613 
L 115.190455 99.945213 
L 115.494818 103.596618 
L 115.799182 104.217862 
L 116.103545 105.527061 
L 116.407909 104.163579 
L 116.712273 103.347414 
L 117.016636 105.773832 
L 117.321 97.637071 
L 117.625364 99.849463 
L 117.929727 97.248012 
L 118.234091 97.438638 
L 118.538455 98.432057 
L 118.842818 100.169198 
L 119.147182 100.888551 
L 119.451545 99.880618 
L 119.755909 100.431653 
L 120.060273 101.575045 
L 120.364636 99.722329 
L 120.669 104.667738 
L 120.973364 98.660485 
L 121.277727 97.20252 
L 121.886455 101.3923 
L 122.190818 97.869688 
L 122.495182 99.058283 
L 122.799545 101.205583 
L 123.408273 101.682808 
L 123.712636 96.727229 
L 124.017 97.064978 
L 124.321364 105.326505 
L 124.625727 102.506851 
L 124.930091 102.371792 
L 125.234455 101.34978 
L 125.538818 106.042261 
L 126.147545 106.034299 
L 126.756273 109.18051 
L 127.060636 109.425181 
L 127.365 108.307621 
L 127.669364 110.963631 
L 127.973727 110.963631 
L 128.278091 112.333122 
L 128.582455 111.338276 
L 128.886818 114.157115 
L 129.191182 111.889889 
L 129.495545 116.009185 
L 129.799909 116.009185 
L 130.104273 115.164625 
L 130.408636 111.740734 
L 130.713 117.865519 
L 131.017364 115.74495 
L 131.321727 116.643355 
L 131.626091 115.134471 
L 131.930455 115.122825 
L 132.234818 114.358 
L 132.539182 115.558204 
L 132.843545 115.558204 
L 133.147909 114.47283 
L 133.452273 114.424744 
L 133.756636 112.339592 
L 134.061 112.164397 
L 134.669727 115.278604 
L 134.974091 117.595477 
L 135.278455 113.631962 
L 135.582818 112.573603 
L 135.887182 113.768499 
L 136.191545 113.625533 
L 136.495909 116.798355 
L 137.104636 116.789833 
L 137.409 117.730132 
L 137.713364 118.104278 
L 138.017727 117.671935 
L 138.322091 120.806646 
L 138.930818 122.652733 
L 139.235182 122.652733 
L 139.539545 121.872868 
L 139.843909 122.458293 
L 140.148273 117.23719 
L 140.757 118.309629 
L 141.061364 119.711471 
L 141.365727 112.507482 
L 141.670091 118.681705 
L 141.974455 118.561745 
L 142.278818 116.869718 
L 142.583182 116.869718 
L 143.191909 120.877523 
L 143.496273 120.662482 
L 143.800636 119.45964 
L 144.105 117.782664 
L 144.409364 117.782664 
L 144.713727 116.212104 
L 145.018091 116.129373 
L 145.322455 117.346477 
L 145.626818 116.475292 
L 146.235545 117.246613 
L 146.539909 121.631626 
L 146.844273 121.631626 
L 147.148636 122.009966 
L 147.453 124.259377 
L 147.757364 129.877152 
L 148.061727 129.43531 
L 148.366091 130.466503 
L 148.974818 128.499983 
L 149.279182 132.188722 
L 149.583545 132.481731 
L 149.887909 132.448053 
L 150.192273 133.406127 
L 150.496636 133.602234 
L 150.801 133.602234 
L 151.105364 132.930879 
L 151.409727 131.470804 
L 151.714091 135.83538 
L 152.018455 133.482032 
L 152.322818 137.752544 
L 152.627182 129.416812 
L 152.931545 127.533789 
L 153.235909 134.885821 
L 153.540273 134.366811 
L 153.844636 134.366811 
L 154.149 129.761565 
L 154.453364 132.542891 
L 154.757727 131.179273 
L 155.062091 131.141529 
L 155.366455 128.31327 
L 155.670818 130.205801 
L 155.975182 135.090983 
L 156.279545 136.276068 
L 156.583909 136.364129 
L 156.888273 131.505499 
L 157.192636 132.999941 
L 157.497 128.293625 
L 157.801364 131.150608 
L 158.105727 130.057272 
L 158.410091 130.057272 
L 158.714455 128.735671 
L 159.018818 132.280788 
L 159.323182 131.061875 
L 159.627545 132.624877 
L 159.931909 132.414252 
L 160.236273 133.369574 
L 160.540636 136.199449 
L 160.845 136.199449 
L 161.149364 133.796841 
L 161.453727 138.619881 
L 161.758091 136.129993 
L 162.062455 129.314979 
L 162.366818 129.460531 
L 162.671182 131.806788 
L 162.975545 130.937109 
L 163.584273 131.562589 
L 163.888636 132.067839 
L 164.193 134.184333 
L 164.497364 135.399897 
L 164.801727 137.207123 
L 165.106091 137.114983 
L 165.410455 137.204563 
L 165.714818 143.401748 
L 166.019182 142.257193 
L 166.323545 138.806824 
L 166.627909 138.806824 
L 166.932273 136.026267 
L 167.236636 138.759777 
L 167.541 136.910512 
L 167.845364 134.251275 
L 168.454091 137.024205 
L 168.758455 133.77007 
L 169.062818 137.662589 
L 169.367182 137.610703 
L 169.671545 138.241595 
L 169.975909 138.00047 
L 170.280273 139.207487 
L 170.584636 138.153436 
L 170.889 138.933256 
L 171.193364 138.85714 
L 171.497727 137.139928 
L 171.802091 138.554791 
L 172.106455 142.351621 
L 172.410818 142.715252 
L 172.715182 143.374822 
L 173.323909 146.73424 
L 173.628273 149.292162 
L 173.932636 148.226621 
L 174.237 146.174386 
L 174.541364 146.263601 
L 174.845727 143.000613 
L 175.150091 143.191679 
L 175.454455 143.624696 
L 175.758818 143.231203 
L 176.063182 141.784637 
L 176.367545 143.132092 
L 176.671909 143.834226 
L 176.976273 144.030679 
L 177.280636 146.502586 
L 177.585 145.253081 
L 177.889364 145.118029 
L 178.193727 146.591962 
L 178.498091 141.112033 
L 178.802455 142.520413 
L 179.106818 142.695635 
L 179.411182 142.695635 
L 179.715545 143.989062 
L 180.019909 142.085298 
L 180.324273 146.47817 
L 180.628636 147.829605 
L 180.933 145.345203 
L 181.237364 141.763437 
L 181.541727 141.763437 
L 181.846091 142.745564 
L 182.454818 146.090333 
L 182.759182 144.242636 
L 183.063545 144.732299 
L 183.367909 140.269969 
L 183.672273 141.739516 
L 183.976636 140.288964 
L 184.585364 144.452407 
L 184.889727 143.622212 
L 185.194091 141.678286 
L 185.498455 142.280509 
L 185.802818 144.527783 
L 186.107182 142.896479 
L 186.411545 143.267182 
L 187.020273 148.729753 
L 187.324636 149.307318 
L 187.629 151.133644 
L 187.933364 149.760052 
L 189.150818 149.762226 
L 189.455182 149.194251 
L 189.759545 152.946861 
L 190.063909 154.856317 
L 190.368273 155.012629 
L 190.672636 155.012629 
L 190.977 155.371869 
L 191.281364 155.451291 
L 191.585727 156.127868 
L 191.890091 151.180892 
L 192.498818 154.709844 
L 192.803182 151.906716 
L 193.107545 151.457986 
L 193.411909 151.457986 
L 193.716273 153.225053 
L 194.020636 153.225053 
L 194.325 155.00638 
L 194.629364 155.00638 
L 194.933727 155.456003 
L 195.238091 155.456003 
L 195.542455 156.287663 
L 195.846818 153.030663 
L 196.151182 153.810753 
L 196.455545 152.476289 
L 196.759909 156.317392 
L 197.064273 151.273849 
L 197.673 149.158127 
L 197.977364 148.207058 
L 198.281727 148.342023 
L 198.586091 153.679567 
L 198.890455 155.572998 
L 199.194818 156.30971 
L 199.499182 156.30971 
L 199.803545 159.603633 
L 200.107909 159.485439 
L 200.412273 150.018409 
L 200.716636 152.729148 
L 201.021 152.729148 
L 201.325364 155.54653 
L 201.629727 153.952632 
L 201.934091 153.952632 
L 202.238455 156.519604 
L 202.542818 156.949225 
L 202.847182 154.485826 
L 203.151545 154.485826 
L 203.455909 153.462858 
L 203.760273 157.416102 
L 204.064636 156.018411 
L 204.369 156.018411 
L 204.673364 159.115705 
L 205.282091 157.73082 
L 205.586455 157.561837 
L 205.890818 158.03238 
L 206.195182 158.03238 
L 206.499545 155.736164 
L 206.803909 155.103856 
L 207.108273 151.222969 
L 207.412636 151.552823 
L 208.021364 158.182682 
L 208.325727 155.349286 
L 208.630091 160.872863 
L 208.934455 159.773401 
L 209.543182 156.454257 
L 209.847545 156.24841 
L 210.151909 159.308158 
L 210.760636 159.205227 
L 211.065 159.091154 
L 211.369364 157.133862 
L 211.673727 158.369923 
L 211.978091 157.387106 
L 212.282455 157.005339 
L 212.586818 157.714229 
L 212.891182 157.473866 
L 213.195545 158.791295 
L 213.499909 161.238531 
L 213.804273 161.238531 
L 214.108636 157.594789 
L 214.413 158.274292 
L 214.717364 157.189279 
L 215.021727 157.189279 
L 215.934818 159.635141 
L 216.239182 157.579829 
L 216.543545 157.908055 
L 216.847909 157.77614 
L 217.152273 157.77614 
L 217.456636 156.967818 
L 217.761 156.967818 
L 218.065364 154.60392 
L 218.369727 154.60392 
L 218.674091 156.356322 
L 218.978455 155.956419 
L 219.282818 155.956419 
L 219.587182 153.656917 
L 219.891545 156.946882 
L 220.195909 157.306894 
L 220.500273 159.38763 
L 220.804636 159.525979 
L 221.109 158.466766 
L 221.413364 158.99132 
L 221.717727 158.7974 
L 222.022091 161.190484 
L 222.326455 161.190484 
L 222.630818 158.987612 
L 222.935182 159.777711 
L 223.239545 157.970911 
L 223.543909 159.818948 
L 223.848273 162.987657 
L 224.152636 159.416269 
L 224.761364 155.280664 
L 225.065727 155.045986 
L 225.370091 155.179009 
L 225.674455 155.64407 
L 225.978818 155.0655 
L 226.283182 158.845629 
L 226.587545 158.026765 
L 226.891909 162.253562 
L 227.196273 159.79088 
L 227.500636 159.084499 
L 227.805 159.599939 
L 228.109364 158.773188 
L 228.718091 159.696714 
L 229.022455 159.696714 
L 229.326818 159.23764 
L 229.631182 156.381309 
L 229.935545 155.450343 
L 230.848636 164.803125 
L 231.153 162.174665 
L 231.457364 162.174665 
L 231.761727 159.030685 
L 232.370455 160.382685 
L 232.674818 159.959377 
L 233.283545 159.940738 
L 233.587909 161.291893 
L 233.892273 165.488656 
L 234.196636 166.006687 
L 235.414091 165.95331 
L 235.718455 163.012223 
L 236.022818 157.42169 
L 236.327182 155.886738 
L 236.631545 159.642239 
L 236.935909 156.702536 
L 237.240273 160.313437 
L 237.544636 161.361278 
L 237.849 164.108636 
L 238.153364 161.223417 
L 238.457727 165.3967 
L 238.762091 165.339677 
L 239.066455 166.329514 
L 239.370818 167.80502 
L 239.675182 167.788009 
L 239.979545 165.672344 
L 240.283909 165.63079 
L 240.588273 168.284129 
L 240.892636 169.736715 
L 241.197 166.038021 
L 241.501364 166.038034 
L 241.805727 161.635094 
L 242.110091 159.132247 
L 242.414455 162.875705 
L 242.718818 159.378427 
L 243.023182 161.028025 
L 243.327545 161.420389 
L 243.631909 160.818508 
L 244.240636 168.081339 
L 244.545 168.081339 
L 244.849364 163.751214 
L 245.153727 171.482187 
L 245.762455 174.329693 
L 246.066818 177.55423 
L 246.371182 177.55423 
L 246.675545 178.777696 
L 246.979909 183.650597 
L 247.284273 182.428839 
L 247.588636 171.362243 
L 247.893 171.362243 
L 248.197364 171.023435 
L 248.501727 176.126226 
L 248.806091 175.463311 
L 249.110455 180.531143 
L 249.414818 180.902595 
L 249.719182 182.368046 
L 250.023545 181.146288 
L 250.327909 181.539438 
L 250.632273 178.319877 
L 250.936636 179.578162 
L 251.241 179.498941 
L 251.545364 179.80591 
L 252.154091 179.801141 
L 252.458455 180.401727 
L 252.762818 176.87643 
L 253.067182 178.959238 
L 253.371545 187.032785 
L 253.675909 185.108918 
L 253.980273 179.296801 
L 254.284636 178.102201 
L 254.589 179.341142 
L 254.893364 178.412199 
L 255.197727 175.07915 
L 255.502091 175.07915 
L 255.806455 174.436422 
L 256.110818 179.655474 
L 256.415182 179.771121 
L 256.719545 179.149612 
L 257.023909 184.349033 
L 257.328273 184.280562 
L 257.632636 185.091075 
L 257.937 183.120568 
L 258.545727 181.042573 
L 258.850091 182.689951 
L 259.154455 183.140307 
L 259.458818 183.87976 
L 259.763182 183.307205 
L 260.067545 183.596903 
L 260.371909 185.272781 
L 260.676273 177.627114 
L 260.980636 177.038716 
L 261.285 177.038716 
L 261.589364 181.040911 
L 261.893727 181.040911 
L 262.198091 183.254127 
L 262.502455 181.55139 
L 262.806818 180.587891 
L 263.111182 179.044628 
L 263.719909 178.953959 
L 264.024273 181.770344 
L 264.328636 181.958416 
L 264.633 183.919793 
L 264.937364 183.415897 
L 265.241727 183.648284 
L 265.546091 178.961024 
L 265.850455 181.727007 
L 266.154818 182.772048 
L 266.459182 182.600266 
L 266.763545 182.660704 
L 267.372273 177.286537 
L 267.676636 176.914055 
L 267.981 178.1387 
L 268.285364 178.207632 
L 268.589727 174.096649 
L 268.894091 177.515178 
L 269.502818 181.384686 
L 269.807182 181.216069 
L 270.111545 180.449611 
L 270.415909 183.327531 
L 270.720273 182.096607 
L 271.024636 184.574245 
L 271.329 183.338316 
L 271.633364 180.416676 
L 271.937727 180.986797 
L 272.242091 179.698122 
L 272.546455 179.610689 
L 272.850818 179.908627 
L 273.155182 178.438517 
L 273.459545 178.438517 
L 273.763909 186.388357 
L 274.068273 183.878962 
L 274.372636 183.878962 
L 274.677 183.243969 
L 274.981364 179.912086 
L 275.285727 179.957633 
L 275.894455 186.934902 
L 276.198818 182.724887 
L 276.503182 183.553349 
L 277.416273 173.759814 
L 277.720636 176.402084 
L 278.025 177.008898 
L 278.633727 175.405786 
L 278.938091 175.763911 
L 279.242455 176.645858 
L 279.546818 176.645858 
L 279.851182 176.362973 
L 280.155545 175.454453 
L 280.459909 171.371362 
L 280.764273 176.925365 
L 281.068636 171.516853 
L 281.373 174.087861 
L 281.677364 172.260308 
L 281.981727 172.145648 
L 282.590455 176.084423 
L 282.894818 176.842086 
L 283.199182 176.921283 
L 283.503545 175.164614 
L 283.807909 176.821105 
L 284.112273 176.871138 
L 284.416636 176.006828 
L 284.721 179.450097 
L 285.329727 181.955898 
L 285.938455 181.955898 
L 286.242818 182.261131 
L 286.547182 184.472596 
L 286.851545 183.240719 
L 287.155909 185.062588 
L 287.460273 182.984172 
L 287.764636 183.336371 
L 288.069 185.461691 
L 288.373364 184.410453 
L 288.677727 184.233223 
L 288.982091 184.96994 
L 289.286455 186.32207 
L 289.590818 183.325359 
L 289.895182 184.186032 
L 290.199545 187.882716 
L 290.503909 187.882716 
L 290.808273 187.425586 
L 291.112636 188.609802 
L 291.417 184.474315 
L 291.721364 186.162953 
L 292.025727 186.162953 
L 292.330091 184.548925 
L 292.634455 184.548925 
L 292.938818 184.055314 
L 293.243182 180.983094 
L 293.547545 183.639727 
L 294.156273 183.639727 
L 294.460636 181.466013 
L 294.765 181.465471 
L 295.069364 182.605294 
L 295.373727 184.193039 
L 295.678091 184.228326 
L 295.982455 184.375836 
L 296.591182 186.730853 
L 296.895545 189.617315 
L 297.199909 189.558371 
L 297.504273 189.180629 
L 297.808636 191.77956 
L 298.113 190.856494 
L 298.417364 189.245496 
L 298.721727 188.69354 
L 299.026091 191.60339 
L 299.330455 191.60339 
L 299.634818 193.91855 
L 299.939182 191.273649 
L 300.243545 190.985641 
L 300.547909 188.538573 
L 300.852273 189.005679 
L 301.156636 190.570501 
L 301.461 190.561239 
L 302.069727 195.938211 
L 302.374091 193.290704 
L 302.678455 193.290704 
L 302.982818 191.261913 
L 303.287182 190.427761 
L 303.591545 188.77077 
L 303.895909 188.77077 
L 304.200273 187.705023 
L 304.504636 186.059073 
L 304.809 187.752724 
L 305.113364 187.026892 
L 305.417727 187.447569 
L 305.722091 187.569587 
L 306.026455 188.604671 
L 306.330818 187.792227 
L 306.635182 188.986654 
L 306.939545 188.896951 
L 307.243909 190.173111 
L 307.548273 187.341522 
L 307.852636 187.350188 
L 308.157 188.470563 
L 308.461364 193.114329 
L 308.765727 189.809496 
L 309.070091 190.34049 
L 309.374455 192.62801 
L 309.678818 189.60378 
L 309.983182 189.60378 
L 310.287545 188.962064 
L 310.591909 189.449863 
L 310.896273 192.286029 
L 311.809364 197.30194 
L 312.113727 196.828294 
L 312.418091 195.249912 
L 312.722455 197.35032 
L 313.026818 197.080794 
L 313.331182 196.546611 
L 313.635545 198.312618 
L 313.939909 196.711564 
L 314.244273 196.677716 
L 314.548636 196.368158 
L 314.853 199.279548 
L 315.157364 199.279548 
L 315.461727 199.44652 
L 315.766091 197.494541 
L 316.070455 197.629321 
L 316.679182 201.382798 
L 316.983545 203.055443 
L 317.287909 203.055443 
L 317.592273 203.338669 
L 317.896636 203.418019 
L 318.201 201.056829 
L 318.809727 203.181773 
L 319.114091 203.834238 
L 319.418455 205.830279 
L 319.722818 204.018431 
L 320.027182 204.018431 
L 320.331545 205.819761 
L 320.635909 206.106029 
L 320.940273 205.506089 
L 321.244636 205.506089 
L 321.549 205.623287 
L 321.853364 205.29472 
L 322.157727 205.773239 
L 322.766455 205.875168 
L 323.070818 205.035922 
L 323.375182 205.328474 
L 323.679545 207.376123 
L 324.288273 209.854716 
L 324.592636 206.655461 
L 324.897 206.046785 
L 325.201364 207.804722 
L 325.505727 207.804722 
L 325.810091 210.137518 
L 326.114455 210.737413 
L 326.418818 210.107523 
L 326.723182 210.755574 
L 327.027545 211.051547 
L 327.331909 211.051547 
L 327.636273 215.854249 
L 327.940636 216.131675 
L 328.245 218.88 
L 328.549364 211.958084 
L 328.853727 210.102691 
L 329.158091 210.286986 
L 329.462455 210.960205 
L 329.766818 210.960205 
L 330.071182 207.789792 
L 330.375545 208.667355 
L 330.984273 212.232632 
L 331.288636 209.30312 
L 331.593 204.033159 
L 331.897364 202.951084 
L 332.201727 202.951084 
L 332.506091 202.725448 
L 332.810455 201.322815 
L 333.114818 203.007376 
L 333.419182 203.007376 
L 333.723545 204.438098 
L 334.027909 204.438098 
L 334.332273 203.524526 
L 334.636636 204.513475 
L 334.941 206.277259 
L 335.245364 205.548758 
L 335.549727 200.046964 
L 335.854091 199.944352 
L 336.158455 200.12914 
L 336.462818 198.900554 
L 336.767182 198.900554 
L 337.071545 199.695703 
L 337.375909 199.695703 
L 337.680273 193.818863 
L 337.984636 199.143207 
L 338.289 199.219083 
L 338.593364 196.631823 
L 338.897727 197.179448 
L 339.202091 193.062327 
L 339.506455 197.273151 
L 339.810818 195.083549 
L 340.115182 197.788555 
L 340.419545 196.330137 
L 340.723909 199.76175 
L 341.028273 199.76175 
L 341.332636 203.947295 
L 341.637 203.14402 
L 342.245727 203.14402 
L 342.550091 204.832786 
L 342.854455 209.863129 
L 343.158818 209.863129 
L 343.463182 204.56652 
L 343.767545 196.907705 
L 344.071909 201.972326 
L 344.376273 195.286424 
L 344.680636 195.286424 
L 344.985 195.132788 
L 345.289364 190.214973 
L 345.593727 189.50684 
L 345.898091 189.50684 
L 346.202455 190.185611 
L 346.506818 188.535146 
L 346.506818 188.535146 
" clip-path="url(#p3bda566988)" style="fill: none; stroke: #1f77b4; stroke-width: 1.5; stroke-linecap: square"/>
   </g>
   <g id="patch_3">
    <path d="M 26.925 228.96 
L 26.925 7.2 
" style="fill: none; stroke: #000000; stroke-width: 0.8; stroke-linejoin: miter; stroke-linecap: square"/>
   </g>
   <g id="patch_4">
    <path d="M 361.725 228.96 
L 361.725 7.2 
" style="fill: none; stroke: #000000; stroke-width: 0.8; stroke-linejoin: miter; stroke-linecap: square"/>
   </g>
   <g id="patch_5">
    <path d="M 26.925 228.96 
L 361.725 228.96 
" style="fill: none; stroke: #000000; stroke-width: 0.8; stroke-linejoin: miter; stroke-linecap: square"/>
   </g>
   <g id="patch_6">
    <path d="M 26.925 7.2 
L 361.725 7.2 
" style="fill: none; stroke: #000000; stroke-width: 0.8; stroke-linejoin: miter; stroke-linecap: square"/>
   </g>
  </g>
 </g>
 <defs>
  <clipPath id="p3bda566988">
   <rect x="26.925" y="7.2" width="334.8" height="221.76"/>
  </clipPath>
 </defs>
</svg>
