<?xml version="1.0" encoding="utf-8" standalone="no"?>
<!DOCTYPE svg PUBLIC "-//W3C//DTD SVG 1.1//EN"
  "http://www.w3.org/Graphics/SVG/1.1/DTD/svg11.dtd">
<svg xmlns:xlink="http://www.w3.org/1999/xlink" width="378.465625pt" height="252.838125pt" viewBox="0 0 378.465625 252.838125" xmlns="http://www.w3.org/2000/svg" version="1.1">
 <metadata>
  <rdf:RDF xmlns:dc="http://purl.org/dc/elements/1.1/" xmlns:cc="http://creativecommons.org/ns#" xmlns:rdf="http://www.w3.org/1999/02/22-rdf-syntax-ns#">
   <cc:Work>
    <dc:type rdf:resource="http://purl.org/dc/dcmitype/StillImage"/>
    <dc:date>2023-04-19T16:57:11.399240</dc:date>
    <dc:format>image/svg+xml</dc:format>
    <dc:creator>
     <cc:Agent>
      <dc:title>Matplotlib v3.6.2, https://matplotlib.org/</dc:title>
     </cc:Agent>
    </dc:creator>
   </cc:Work>
  </rdf:RDF>
 </metadata>
 <defs>
  <style type="text/css">*{stroke-linejoin: round; stroke-linecap: butt}</style>
 </defs>
 <g id="figure_1">
  <g id="patch_1">
   <path d="M 0 252.838125 
L 378.465625 252.838125 
L 378.465625 0 
L 0 0 
z
" style="fill: #ffffff"/>
  </g>
  <g id="axes_1">
   <g id="patch_2">
    <path d="M 36.465625 228.96 
L 371.265625 228.96 
L 371.265625 7.2 
L 36.465625 7.2 
z
" style="fill: #ffffff"/>
   </g>
   <g id="matplotlib.axis_1">
    <g id="xtick_1">
     <g id="line2d_1">
      <defs>
       <path id="m4558644e6a" d="M 0 0 
L 0 3.5 
" style="stroke: #000000; stroke-width: 0.8"/>
      </defs>
      <g>
       <use xlink:href="#m4558644e6a" x="59.368602" y="228.96" style="stroke: #000000; stroke-width: 0.8"/>
      </g>
     </g>
     <g id="text_1">
      <!-- 40 -->
      <g transform="translate(53.006102 243.558437) scale(0.1 -0.1)">
       <defs>
        <path id="DejaVuSans-34" d="M 2419 4116 
L 825 1625 
L 2419 1625 
L 2419 4116 
z
M 2253 4666 
L 3047 4666 
L 3047 1625 
L 3713 1625 
L 3713 1100 
L 3047 1100 
L 3047 0 
L 2419 0 
L 2419 1100 
L 313 1100 
L 313 1709 
L 2253 4666 
z
" transform="scale(0.015625)"/>
        <path id="DejaVuSans-30" d="M 2034 4250 
Q 1547 4250 1301 3770 
Q 1056 3291 1056 2328 
Q 1056 1369 1301 889 
Q 1547 409 2034 409 
Q 2525 409 2770 889 
Q 3016 1369 3016 2328 
Q 3016 3291 2770 3770 
Q 2525 4250 2034 4250 
z
M 2034 4750 
Q 2819 4750 3233 4129 
Q 3647 3509 3647 2328 
Q 3647 1150 3233 529 
Q 2819 -91 2034 -91 
Q 1250 -91 836 529 
Q 422 1150 422 2328 
Q 422 3509 836 4129 
Q 1250 4750 2034 4750 
z
" transform="scale(0.015625)"/>
       </defs>
       <use xlink:href="#DejaVuSans-34"/>
       <use xlink:href="#DejaVuSans-30" x="63.623047"/>
      </g>
     </g>
    </g>
    <g id="xtick_2">
     <g id="line2d_2">
      <g>
       <use xlink:href="#m4558644e6a" x="100.064186" y="228.96" style="stroke: #000000; stroke-width: 0.8"/>
      </g>
     </g>
     <g id="text_2">
      <!-- 50 -->
      <g transform="translate(93.701686 243.558437) scale(0.1 -0.1)">
       <defs>
        <path id="DejaVuSans-35" d="M 691 4666 
L 3169 4666 
L 3169 4134 
L 1269 4134 
L 1269 2991 
Q 1406 3038 1543 3061 
Q 1681 3084 1819 3084 
Q 2600 3084 3056 2656 
Q 3513 2228 3513 1497 
Q 3513 744 3044 326 
Q 2575 -91 1722 -91 
Q 1428 -91 1123 -41 
Q 819 9 494 109 
L 494 744 
Q 775 591 1075 516 
Q 1375 441 1709 441 
Q 2250 441 2565 725 
Q 2881 1009 2881 1497 
Q 2881 1984 2565 2268 
Q 2250 2553 1709 2553 
Q 1456 2553 1204 2497 
Q 953 2441 691 2322 
L 691 4666 
z
" transform="scale(0.015625)"/>
       </defs>
       <use xlink:href="#DejaVuSans-35"/>
       <use xlink:href="#DejaVuSans-30" x="63.623047"/>
      </g>
     </g>
    </g>
    <g id="xtick_3">
     <g id="line2d_3">
      <g>
       <use xlink:href="#m4558644e6a" x="140.759769" y="228.96" style="stroke: #000000; stroke-width: 0.8"/>
      </g>
     </g>
     <g id="text_3">
      <!-- 60 -->
      <g transform="translate(134.397269 243.558437) scale(0.1 -0.1)">
       <defs>
        <path id="DejaVuSans-36" d="M 2113 2584 
Q 1688 2584 1439 2293 
Q 1191 2003 1191 1497 
Q 1191 994 1439 701 
Q 1688 409 2113 409 
Q 2538 409 2786 701 
Q 3034 994 3034 1497 
Q 3034 2003 2786 2293 
Q 2538 2584 2113 2584 
z
M 3366 4563 
L 3366 3988 
Q 3128 4100 2886 4159 
Q 2644 4219 2406 4219 
Q 1781 4219 1451 3797 
Q 1122 3375 1075 2522 
Q 1259 2794 1537 2939 
Q 1816 3084 2150 3084 
Q 2853 3084 3261 2657 
Q 3669 2231 3669 1497 
Q 3669 778 3244 343 
Q 2819 -91 2113 -91 
Q 1303 -91 875 529 
Q 447 1150 447 2328 
Q 447 3434 972 4092 
Q 1497 4750 2381 4750 
Q 2619 4750 2861 4703 
Q 3103 4656 3366 4563 
z
" transform="scale(0.015625)"/>
       </defs>
       <use xlink:href="#DejaVuSans-36"/>
       <use xlink:href="#DejaVuSans-30" x="63.623047"/>
      </g>
     </g>
    </g>
    <g id="xtick_4">
     <g id="line2d_4">
      <g>
       <use xlink:href="#m4558644e6a" x="181.455353" y="228.96" style="stroke: #000000; stroke-width: 0.8"/>
      </g>
     </g>
     <g id="text_4">
      <!-- 70 -->
      <g transform="translate(175.092853 243.558437) scale(0.1 -0.1)">
       <defs>
        <path id="DejaVuSans-37" d="M 525 4666 
L 3525 4666 
L 3525 4397 
L 1831 0 
L 1172 0 
L 2766 4134 
L 525 4134 
L 525 4666 
z
" transform="scale(0.015625)"/>
       </defs>
       <use xlink:href="#DejaVuSans-37"/>
       <use xlink:href="#DejaVuSans-30" x="63.623047"/>
      </g>
     </g>
    </g>
    <g id="xtick_5">
     <g id="line2d_5">
      <g>
       <use xlink:href="#m4558644e6a" x="222.150936" y="228.96" style="stroke: #000000; stroke-width: 0.8"/>
      </g>
     </g>
     <g id="text_5">
      <!-- 80 -->
      <g transform="translate(215.788436 243.558437) scale(0.1 -0.1)">
       <defs>
        <path id="DejaVuSans-38" d="M 2034 2216 
Q 1584 2216 1326 1975 
Q 1069 1734 1069 1313 
Q 1069 891 1326 650 
Q 1584 409 2034 409 
Q 2484 409 2743 651 
Q 3003 894 3003 1313 
Q 3003 1734 2745 1975 
Q 2488 2216 2034 2216 
z
M 1403 2484 
Q 997 2584 770 2862 
Q 544 3141 544 3541 
Q 544 4100 942 4425 
Q 1341 4750 2034 4750 
Q 2731 4750 3128 4425 
Q 3525 4100 3525 3541 
Q 3525 3141 3298 2862 
Q 3072 2584 2669 2484 
Q 3125 2378 3379 2068 
Q 3634 1759 3634 1313 
Q 3634 634 3220 271 
Q 2806 -91 2034 -91 
Q 1263 -91 848 271 
Q 434 634 434 1313 
Q 434 1759 690 2068 
Q 947 2378 1403 2484 
z
M 1172 3481 
Q 1172 3119 1398 2916 
Q 1625 2713 2034 2713 
Q 2441 2713 2670 2916 
Q 2900 3119 2900 3481 
Q 2900 3844 2670 4047 
Q 2441 4250 2034 4250 
Q 1625 4250 1398 4047 
Q 1172 3844 1172 3481 
z
" transform="scale(0.015625)"/>
       </defs>
       <use xlink:href="#DejaVuSans-38"/>
       <use xlink:href="#DejaVuSans-30" x="63.623047"/>
      </g>
     </g>
    </g>
    <g id="xtick_6">
     <g id="line2d_6">
      <g>
       <use xlink:href="#m4558644e6a" x="262.84652" y="228.96" style="stroke: #000000; stroke-width: 0.8"/>
      </g>
     </g>
     <g id="text_6">
      <!-- 90 -->
      <g transform="translate(256.48402 243.558437) scale(0.1 -0.1)">
       <defs>
        <path id="DejaVuSans-39" d="M 703 97 
L 703 672 
Q 941 559 1184 500 
Q 1428 441 1663 441 
Q 2288 441 2617 861 
Q 2947 1281 2994 2138 
Q 2813 1869 2534 1725 
Q 2256 1581 1919 1581 
Q 1219 1581 811 2004 
Q 403 2428 403 3163 
Q 403 3881 828 4315 
Q 1253 4750 1959 4750 
Q 2769 4750 3195 4129 
Q 3622 3509 3622 2328 
Q 3622 1225 3098 567 
Q 2575 -91 1691 -91 
Q 1453 -91 1209 -44 
Q 966 3 703 97 
z
M 1959 2075 
Q 2384 2075 2632 2365 
Q 2881 2656 2881 3163 
Q 2881 3666 2632 3958 
Q 2384 4250 1959 4250 
Q 1534 4250 1286 3958 
Q 1038 3666 1038 3163 
Q 1038 2656 1286 2365 
Q 1534 2075 1959 2075 
z
" transform="scale(0.015625)"/>
       </defs>
       <use xlink:href="#DejaVuSans-39"/>
       <use xlink:href="#DejaVuSans-30" x="63.623047"/>
      </g>
     </g>
    </g>
    <g id="xtick_7">
     <g id="line2d_7">
      <g>
       <use xlink:href="#m4558644e6a" x="303.542103" y="228.96" style="stroke: #000000; stroke-width: 0.8"/>
      </g>
     </g>
     <g id="text_7">
      <!-- 100 -->
      <g transform="translate(293.998353 243.558437) scale(0.1 -0.1)">
       <defs>
        <path id="DejaVuSans-31" d="M 794 531 
L 1825 531 
L 1825 4091 
L 703 3866 
L 703 4441 
L 1819 4666 
L 2450 4666 
L 2450 531 
L 3481 531 
L 3481 0 
L 794 0 
L 794 531 
z
" transform="scale(0.015625)"/>
       </defs>
       <use xlink:href="#DejaVuSans-31"/>
       <use xlink:href="#DejaVuSans-30" x="63.623047"/>
       <use xlink:href="#DejaVuSans-30" x="127.246094"/>
      </g>
     </g>
    </g>
    <g id="xtick_8">
     <g id="line2d_8">
      <g>
       <use xlink:href="#m4558644e6a" x="344.237687" y="228.96" style="stroke: #000000; stroke-width: 0.8"/>
      </g>
     </g>
     <g id="text_8">
      <!-- 110 -->
      <g transform="translate(334.693937 243.558437) scale(0.1 -0.1)">
       <use xlink:href="#DejaVuSans-31"/>
       <use xlink:href="#DejaVuSans-31" x="63.623047"/>
       <use xlink:href="#DejaVuSans-30" x="127.246094"/>
      </g>
     </g>
    </g>
   </g>
   <g id="matplotlib.axis_2">
    <g id="ytick_1">
     <g id="line2d_9">
      <defs>
       <path id="m3865b83d12" d="M 0 0 
L -3.5 0 
" style="stroke: #000000; stroke-width: 0.8"/>
      </defs>
      <g>
       <use xlink:href="#m3865b83d12" x="36.465625" y="197.240647" style="stroke: #000000; stroke-width: 0.8"/>
      </g>
     </g>
     <g id="text_9">
      <!-- 9.8 -->
      <g transform="translate(13.5625 201.039865) scale(0.1 -0.1)">
       <defs>
        <path id="DejaVuSans-2e" d="M 684 794 
L 1344 794 
L 1344 0 
L 684 0 
L 684 794 
z
" transform="scale(0.015625)"/>
       </defs>
       <use xlink:href="#DejaVuSans-39"/>
       <use xlink:href="#DejaVuSans-2e" x="63.623047"/>
       <use xlink:href="#DejaVuSans-38" x="95.410156"/>
      </g>
     </g>
    </g>
    <g id="ytick_2">
     <g id="line2d_10">
      <g>
       <use xlink:href="#m3865b83d12" x="36.465625" y="160.755885" style="stroke: #000000; stroke-width: 0.8"/>
      </g>
     </g>
     <g id="text_10">
      <!-- 9.9 -->
      <g transform="translate(13.5625 164.555104) scale(0.1 -0.1)">
       <use xlink:href="#DejaVuSans-39"/>
       <use xlink:href="#DejaVuSans-2e" x="63.623047"/>
       <use xlink:href="#DejaVuSans-39" x="95.410156"/>
      </g>
     </g>
    </g>
    <g id="ytick_3">
     <g id="line2d_11">
      <g>
       <use xlink:href="#m3865b83d12" x="36.465625" y="124.271124" style="stroke: #000000; stroke-width: 0.8"/>
      </g>
     </g>
     <g id="text_11">
      <!-- 10.0 -->
      <g transform="translate(7.2 128.070343) scale(0.1 -0.1)">
       <use xlink:href="#DejaVuSans-31"/>
       <use xlink:href="#DejaVuSans-30" x="63.623047"/>
       <use xlink:href="#DejaVuSans-2e" x="127.246094"/>
       <use xlink:href="#DejaVuSans-30" x="159.033203"/>
      </g>
     </g>
    </g>
    <g id="ytick_4">
     <g id="line2d_12">
      <g>
       <use xlink:href="#m3865b83d12" x="36.465625" y="87.786363" style="stroke: #000000; stroke-width: 0.8"/>
      </g>
     </g>
     <g id="text_12">
      <!-- 10.1 -->
      <g transform="translate(7.2 91.585582) scale(0.1 -0.1)">
       <use xlink:href="#DejaVuSans-31"/>
       <use xlink:href="#DejaVuSans-30" x="63.623047"/>
       <use xlink:href="#DejaVuSans-2e" x="127.246094"/>
       <use xlink:href="#DejaVuSans-31" x="159.033203"/>
      </g>
     </g>
    </g>
    <g id="ytick_5">
     <g id="line2d_13">
      <g>
       <use xlink:href="#m3865b83d12" x="36.465625" y="51.301602" style="stroke: #000000; stroke-width: 0.8"/>
      </g>
     </g>
     <g id="text_13">
      <!-- 10.2 -->
      <g transform="translate(7.2 55.10082) scale(0.1 -0.1)">
       <defs>
        <path id="DejaVuSans-32" d="M 1228 531 
L 3431 531 
L 3431 0 
L 469 0 
L 469 531 
Q 828 903 1448 1529 
Q 2069 2156 2228 2338 
Q 2531 2678 2651 2914 
Q 2772 3150 2772 3378 
Q 2772 3750 2511 3984 
Q 2250 4219 1831 4219 
Q 1534 4219 1204 4116 
Q 875 4013 500 3803 
L 500 4441 
Q 881 4594 1212 4672 
Q 1544 4750 1819 4750 
Q 2544 4750 2975 4387 
Q 3406 4025 3406 3419 
Q 3406 3131 3298 2873 
Q 3191 2616 2906 2266 
Q 2828 2175 2409 1742 
Q 1991 1309 1228 531 
z
" transform="scale(0.015625)"/>
       </defs>
       <use xlink:href="#DejaVuSans-31"/>
       <use xlink:href="#DejaVuSans-30" x="63.623047"/>
       <use xlink:href="#DejaVuSans-2e" x="127.246094"/>
       <use xlink:href="#DejaVuSans-32" x="159.033203"/>
      </g>
     </g>
    </g>
    <g id="ytick_6">
     <g id="line2d_14">
      <g>
       <use xlink:href="#m3865b83d12" x="36.465625" y="14.81684" style="stroke: #000000; stroke-width: 0.8"/>
      </g>
     </g>
     <g id="text_14">
      <!-- 10.3 -->
      <g transform="translate(7.2 18.616059) scale(0.1 -0.1)">
       <defs>
        <path id="DejaVuSans-33" d="M 2597 2516 
Q 3050 2419 3304 2112 
Q 3559 1806 3559 1356 
Q 3559 666 3084 287 
Q 2609 -91 1734 -91 
Q 1441 -91 1130 -33 
Q 819 25 488 141 
L 488 750 
Q 750 597 1062 519 
Q 1375 441 1716 441 
Q 2309 441 2620 675 
Q 2931 909 2931 1356 
Q 2931 1769 2642 2001 
Q 2353 2234 1838 2234 
L 1294 2234 
L 1294 2753 
L 1863 2753 
Q 2328 2753 2575 2939 
Q 2822 3125 2822 3475 
Q 2822 3834 2567 4026 
Q 2313 4219 1838 4219 
Q 1578 4219 1281 4162 
Q 984 4106 628 3988 
L 628 4550 
Q 988 4650 1302 4700 
Q 1616 4750 1894 4750 
Q 2613 4750 3031 4423 
Q 3450 4097 3450 3541 
Q 3450 3153 3228 2886 
Q 3006 2619 2597 2516 
z
" transform="scale(0.015625)"/>
       </defs>
       <use xlink:href="#DejaVuSans-31"/>
       <use xlink:href="#DejaVuSans-30" x="63.623047"/>
       <use xlink:href="#DejaVuSans-2e" x="127.246094"/>
       <use xlink:href="#DejaVuSans-33" x="159.033203"/>
      </g>
     </g>
    </g>
   </g>
   <g id="line2d_15">
    <path d="M 51.683807 218.498191 
L 55.918857 218.498191 
L 56.527463 214.880784 
L 57.144995 214.880784 
L 57.569857 208.823019 
L 59.523114 208.823019 
L 59.921594 204.379513 
L 60.24426 204.379513 
L 60.564775 192.228526 
L 61.242401 192.228526 
L 61.57606 218.88 
L 61.889518 192.228526 
L 62.230428 218.88 
L 62.88645 218.88 
L 63.231154 200.11303 
L 63.547526 214.613517 
L 63.866151 211.666309 
L 65.507274 211.666309 
L 65.856954 215.035544 
L 66.215487 211.666309 
L 66.508874 211.666309 
L 66.82892 215.035544 
L 67.181392 215.035544 
L 67.554136 202.884557 
L 70.627108 202.884557 
L 70.978942 197.045273 
L 71.396291 202.884557 
L 71.762523 202.884557 
L 72.115447 197.045273 
L 72.483617 202.884557 
L 74.494487 202.884557 
L 74.827527 182.081001 
L 75.127992 182.081001 
L 75.497125 200.414508 
L 75.823727 200.414508 
L 76.142902 202.884557 
L 76.453348 182.081001 
L 76.757548 202.884557 
L 77.054634 202.884557 
L 77.388606 179.610952 
L 78.013308 179.610952 
L 78.356986 180.279693 
L 78.664543 180.279693 
L 78.961141 197.715667 
L 79.262158 195.436323 
L 79.54618 195.436323 
L 79.848276 192.29841 
L 80.131663 192.29841 
L 80.419223 185.995341 
L 81.030311 185.995341 
L 81.336273 184.336917 
L 85.581128 184.336917 
L 85.87425 185.15903 
L 86.163815 185.15903 
L 86.472365 183.500606 
L 87.403057 183.500606 
L 87.721759 182.047435 
L 88.054813 183.500606 
L 90.572713 183.500606 
L 90.890636 180.751367 
L 91.51972 180.751367 
L 91.830463 183.500606 
L 92.150135 180.389011 
L 93.449595 180.389011 
L 93.757871 177.429292 
L 94.075085 177.429292 
L 94.395921 177.109525 
L 94.703217 173.92797 
L 95.032628 173.92797 
L 95.337829 178.788739 
L 96.290663 178.788739 
L 96.610831 185.784077 
L 96.925986 186.961278 
L 97.571308 186.961278 
L 97.896368 185.784077 
L 98.217701 185.784077 
L 98.542508 186.961278 
L 99.151917 186.961278 
L 99.454439 148.14464 
L 99.779601 155.139978 
L 100.085058 173.087783 
L 100.401182 198.817385 
L 101.019828 198.817385 
L 101.331177 190.98186 
L 101.646767 159.520625 
L 101.952383 151.346985 
L 102.261075 185.250226 
L 102.561119 144.775165 
L 103.486485 144.775165 
L 103.825246 147.703385 
L 104.127286 156.968286 
L 106.340519 156.968286 
L 106.642003 152.901169 
L 106.963674 152.901169 
L 107.284465 156.968286 
L 107.614828 144.11238 
L 107.943717 144.11238 
L 108.238418 127.338907 
L 108.547903 156.968286 
L 108.839403 155.983166 
L 109.731441 155.983166 
L 110.021824 156.968286 
L 110.335176 144.11238 
L 110.949221 144.11238 
L 111.263309 150.962784 
L 111.588999 130.848845 
L 112.508776 130.848845 
L 112.779565 124.861123 
L 113.353735 124.861123 
L 113.670036 123.876003 
L 113.956169 119.65839 
L 114.87313 119.65839 
L 115.190558 130.258511 
L 115.472314 130.258511 
L 115.749069 123.970041 
L 116.076941 122.984921 
L 116.38547 119.65839 
L 116.695298 123.568021 
L 117.581497 123.568021 
L 117.897202 117.279551 
L 118.194702 117.279551 
L 118.521036 116.29443 
L 118.802694 116.29443 
L 119.116958 112.076818 
L 119.417401 116.29443 
L 120.351565 116.29443 
L 120.650091 112.076818 
L 120.944341 112.076818 
L 121.266169 111.091697 
L 121.548031 98.813283 
L 121.852593 112.669322 
L 122.170735 118.365288 
L 122.487745 112.076818 
L 123.080602 112.076818 
L 123.301693 108.009701 
L 123.607948 112.076818 
L 123.892776 112.076818 
L 124.188559 111.091697 
L 124.453658 107.02458 
L 125.039532 107.02458 
L 125.329302 112.518989 
L 125.650838 107.470234 
L 125.955248 112.518989 
L 126.600262 112.518989 
L 126.895349 113.755059 
L 127.195044 109.687941 
L 127.498397 119.801371 
L 128.388596 119.801371 
L 128.705651 103.399471 
L 129.015776 103.399471 
L 129.322857 96.428052 
L 129.628867 95.342315 
L 130.27461 95.342315 
L 130.579475 91.030664 
L 130.816857 89.790948 
L 131.126458 84.742194 
L 131.756932 84.742194 
L 132.051542 81.631356 
L 132.33066 84.742194 
L 132.626146 81.631356 
L 132.916 81.631356 
L 133.200768 71.983289 
L 133.507719 71.983289 
L 133.805211 81.631356 
L 134.12376 69.196519 
L 134.413993 81.631356 
L 134.706907 64.147764 
L 134.998344 63.39731 
L 135.306007 69.541506 
L 135.613915 70.719585 
L 135.913853 66.59736 
L 136.239148 58.4726 
L 136.560196 58.4726 
L 136.864916 59.936327 
L 137.166772 56.825489 
L 137.457676 56.825489 
L 137.767891 61.996195 
L 138.083187 61.996195 
L 138.385626 60.567531 
L 138.677628 60.567531 
L 138.972658 98.21301 
L 139.272516 67.04495 
L 139.870017 67.04495 
L 140.165479 65.581223 
L 140.498555 60.532469 
L 140.78441 117.081183 
L 141.359361 117.081183 
L 141.659499 123.714965 
L 142.252382 123.714965 
L 142.544628 115.586516 
L 142.850411 123.714965 
L 143.472536 123.714965 
L 143.770965 122.729844 
L 144.061503 123.714965 
L 144.688625 115.586516 
L 144.969352 115.586516 
L 145.273809 99.990712 
L 145.584579 113.062919 
L 146.492384 113.062919 
L 146.805969 99.768103 
L 147.464488 111.568252 
L 147.765982 105.698836 
L 148.067947 118.170753 
L 148.379989 122.891423 
L 148.676191 105.698836 
L 148.982999 111.568252 
L 149.295594 107.201086 
L 149.58474 107.201086 
L 149.897954 99.065054 
L 150.202837 94.697888 
L 150.511773 101.33167 
L 150.82447 167.249575 
L 151.147344 167.249575 
L 151.446348 138.985627 
L 151.75663 173.883357 
L 152.055878 159.81564 
L 152.359361 159.81564 
L 152.68222 162.882409 
L 154.222353 162.882409 
L 154.544221 154.484817 
L 154.873307 169.516191 
L 155.219003 157.521772 
L 155.549976 159.81564 
L 155.877747 161.195964 
L 156.166262 161.195964 
L 156.488473 161.627718 
L 156.796962 152.218201 
L 157.12498 147.851035 
L 157.447795 158.851983 
L 158.402827 158.851983 
L 159.055067 168.552533 
L 159.376444 158.851983 
L 159.70152 163.126598 
L 160.049292 159.082953 
L 161.06671 159.082953 
L 161.44789 154.715787 
L 162.083392 154.715787 
L 162.376063 153.186057 
L 162.677193 154.715787 
L 163.022316 154.715787 
L 163.322686 146.552275 
L 163.65715 146.552275 
L 163.945545 164.894608 
L 164.239205 159.374088 
L 164.55076 162.980446 
L 165.155152 162.980446 
L 165.437567 157.459927 
L 165.748783 156.319412 
L 166.686298 156.319412 
L 167.007061 161.737655 
L 167.314405 161.737655 
L 167.642376 156.319412 
L 168.628658 156.319412 
L 168.92528 161.737655 
L 170.499418 161.737655 
L 170.798167 156.319412 
L 171.098953 156.319412 
L 171.410819 169.085736 
L 171.711463 135.489399 
L 172.013965 128.892287 
L 172.345899 135.489399 
L 172.666755 135.489399 
L 172.95675 148.737574 
L 173.262399 148.737574 
L 173.553605 135.489399 
L 173.862891 126.847617 
L 174.177326 126.847617 
L 174.49089 148.737574 
L 174.809939 150.508072 
L 175.415419 150.508072 
L 175.719057 143.91096 
L 176.034216 145.001906 
L 176.621906 145.001906 
L 176.927664 157.159135 
L 177.232563 160.020578 
L 177.542932 147.735038 
L 177.856442 143.99937 
L 178.187119 143.99937 
L 178.505019 171.931065 
L 179.451986 171.931065 
L 179.749067 168.195396 
L 180.675503 168.195396 
L 180.97416 196.472215 
L 181.282278 196.472215 
L 181.619815 180.387084 
L 181.944265 180.387084 
L 182.255134 173.789972 
L 182.877635 173.789972 
L 183.19034 183.214069 
L 183.520251 173.789972 
L 184.448935 173.789972 
L 184.764221 186.949737 
L 185.087812 170.833885 
L 185.406283 173.789972 
L 185.724767 188.808645 
L 186.691429 188.808645 
L 187.024054 173.789972 
L 187.367656 173.789972 
L 187.684459 168.244994 
L 188.643812 168.244994 
L 188.951064 165.288906 
L 189.274732 183.263666 
L 189.593504 183.263666 
L 189.912782 165.288906 
L 190.220653 165.288906 
L 190.537889 183.263666 
L 190.849883 168.244994 
L 191.158173 168.244994 
L 191.476152 177.260131 
L 192.776937 177.260131 
L 193.102709 189.66679 
L 193.435578 177.260131 
L 194.418597 177.260131 
L 194.7513 174.540322 
L 195.08913 170.715877 
L 195.390184 174.540322 
L 195.709269 186.999335 
L 196.046888 186.999335 
L 196.353847 179.853156 
L 196.70855 164.420549 
L 197.025617 164.420549 
L 197.351548 166.814279 
L 197.678069 179.679512 
L 197.997663 164.420549 
L 198.326443 164.420549 
L 198.63039 163.858192 
L 198.950262 186.999335 
L 199.259101 186.999335 
L 199.576807 176.723425 
L 200.574674 176.723425 
L 200.882057 179.679512 
L 201.213059 164.420549 
L 201.544942 164.420549 
L 201.866979 174.540322 
L 202.18447 174.540322 
L 202.510987 168.536787 
L 202.834851 168.244994 
L 203.158621 160.003463 
L 203.4773 164.483853 
L 203.79846 149.359446 
L 204.108097 149.359446 
L 204.421962 160.149663 
L 204.72842 160.810744 
L 205.054383 167.106073 
L 205.387692 167.106073 
L 205.722874 199.4744 
L 206.062828 199.4744 
L 206.400638 156.032789 
L 206.715098 156.986299 
L 207.021002 154.137401 
L 207.338094 152.706686 
L 208.344584 152.706686 
L 208.653212 158.710222 
L 209.295486 147.522758 
L 209.616838 159.002015 
L 209.947738 181.250569 
L 210.274072 157.265255 
L 210.619916 181.250569 
L 210.929841 187.907132 
L 211.251226 181.250569 
L 211.549265 181.250569 
L 211.87607 191.731577 
L 212.176327 173.682415 
L 212.5045 174.635925 
L 212.810539 174.635925 
L 213.127167 179.152573 
L 213.450217 164.865771 
L 213.759535 170.207504 
L 214.082707 170.207504 
L 214.397145 167.759975 
L 215.03561 167.759975 
L 215.348274 183.972449 
L 215.649341 167.759975 
L 215.945803 167.759975 
L 216.253385 158.71524 
L 216.584444 154.547966 
L 216.909756 154.547966 
L 217.219799 167.065512 
L 217.544343 165.429549 
L 217.865553 165.429549 
L 218.184349 154.547966 
L 218.513715 164.735086 
L 218.81345 164.735086 
L 219.126073 152.21754 
L 219.462028 152.21754 
L 219.773272 168.90236 
L 220.090013 170.024752 
L 220.402133 174.192026 
L 220.71008 167.285328 
L 221.027941 151.352335 
L 221.347227 166.933694 
L 221.630724 166.933694 
L 221.948728 163.460883 
L 222.267345 163.041903 
L 222.596434 153.697151 
L 223.539852 153.697151 
L 223.858115 150.248874 
L 224.173221 166.092041 
L 224.495587 162.741886 
L 224.810266 156.544202 
L 226.027873 156.544202 
L 226.335806 160.426097 
L 226.607346 158.762105 
L 226.888491 160.426097 
L 227.188491 148.065152 
L 227.523135 152.566572 
L 227.841314 152.566572 
L 228.185761 161.20255 
L 228.50129 145.167133 
L 228.818256 137.494974 
L 229.137855 163.980008 
L 229.461642 136.525352 
L 230.08605 151.462462 
L 230.409079 144.448136 
L 231.023001 144.411106 
L 231.342632 127.80042 
L 231.661816 136.614877 
L 231.983005 136.800511 
L 232.277385 144.411106 
L 232.606922 144.448136 
L 232.886089 143.871581 
L 233.164008 137.494974 
L 233.486552 137.494974 
L 233.804951 142.272929 
L 234.084745 137.494974 
L 234.390804 142.272929 
L 234.70497 131.682403 
L 235.015249 147.18327 
L 235.330217 153.559877 
L 235.928861 153.559877 
L 236.209164 147.301606 
L 236.521889 153.559877 
L 236.852277 153.559877 
L 237.139291 158.337832 
L 238.06369 158.337832 
L 238.373046 153.559877 
L 238.696694 136.022764 
L 238.978409 159.476407 
L 239.285026 139.517378 
L 239.588412 145.032486 
L 239.88293 142.368822 
L 240.205209 131.278605 
L 241.10249 131.278605 
L 241.421967 140.800719 
L 241.748891 133.815519 
L 242.034436 139.517378 
L 242.341252 139.517378 
L 242.649508 127.373008 
L 243.281865 127.373008 
L 243.59737 116.432982 
L 243.903938 132.216867 
L 244.199193 132.075759 
L 244.491851 132.075759 
L 244.828289 109.066567 
L 245.132435 109.066567 
L 245.442943 99.515624 
L 245.764002 99.515624 
L 246.089287 120.993456 
L 246.413382 114.534296 
L 246.704615 104.846 
L 247.022631 116.031717 
L 247.336371 80.575701 
L 247.644492 91.190232 
L 247.939288 116.015466 
L 248.263334 91.190232 
L 248.575506 99.657638 
L 248.889411 93.060526 
L 249.20059 106.882038 
L 249.4972 90.263997 
L 249.795832 97.630412 
L 250.155626 97.630412 
L 250.497701 90.263997 
L 250.82845 90.263997 
L 251.170061 80.990608 
L 251.796635 80.990608 
L 252.106137 105.958134 
L 252.415622 89.340093 
L 252.710271 105.958134 
L 253.022724 97.630412 
L 253.340576 105.967369 
L 253.653228 105.967369 
L 253.951388 88.357023 
L 254.266983 96.706508 
L 254.573242 96.706508 
L 254.864968 90.263997 
L 255.219565 112.750951 
L 255.562714 80.161552 
L 255.86892 94.273553 
L 256.180769 86.907138 
L 256.48825 109.834856 
L 256.795037 109.834856 
L 257.093976 74.614002 
L 257.410953 70.888163 
L 258.328024 70.888163 
L 258.633318 111.74183 
L 259.263762 111.74183 
L 259.569479 120.993374 
L 259.887539 120.485762 
L 260.205844 97.147908 
L 260.807577 120.485762 
L 261.141489 120.485762 
L 261.423097 110.091254 
L 262.03524 120.485762 
L 262.332751 117.128903 
L 262.652186 89.647 
L 262.956735 103.016902 
L 263.261765 98.071498 
L 263.568357 87.293434 
L 263.888921 108.771267 
L 265.156125 108.771267 
L 265.466526 114.687797 
L 265.771042 130.391169 
L 266.079548 91.302407 
L 267.280779 91.302407 
L 267.582741 103.418011 
L 268.564379 103.418011 
L 268.857331 99.639364 
L 269.173523 105.555894 
L 269.496324 99.639364 
L 269.817771 78.7537 
L 270.44062 78.7537 
L 270.733413 103.418011 
L 271.015617 79.219707 
L 271.319356 79.219707 
L 271.629672 109.900215 
L 271.846519 99.505706 
L 272.450017 99.505706 
L 272.767293 92.173491 
L 274.023277 92.173491 
L 274.333511 114.858761 
L 274.955681 114.858761 
L 275.262653 91.223815 
L 275.588519 82.036846 
L 275.896697 99.780654 
L 277.09727 99.780654 
L 277.427202 90.373803 
L 278.83848 90.373803 
L 279.143404 88.052864 
L 279.452999 88.052864 
L 279.724195 90.373803 
L 280.040652 81.307052 
L 280.339874 91.443697 
L 280.930847 91.443697 
L 281.228413 81.307052 
L 281.525048 81.307052 
L 281.837215 69.330093 
L 282.468103 69.330093 
L 282.760647 101.690621 
L 283.030541 69.330093 
L 283.338952 63.307821 
L 283.653825 63.307821 
L 283.932 52.816056 
L 284.224276 103.992321 
L 284.538454 52.816056 
L 285.466044 52.816056 
L 285.768913 45.388504 
L 286.060851 45.388504 
L 286.37312 40.113321 
L 286.657993 43.905861 
L 286.970239 66.591131 
L 287.277617 75.501325 
L 287.586053 62.840617 
L 287.891217 40.969366 
L 288.174522 52.816056 
L 289.137038 52.816056 
L 289.462058 44.492083 
L 289.755795 67.177353 
L 290.043259 67.177353 
L 290.356567 86.668852 
L 291.290274 86.668852 
L 291.592069 75.115065 
L 291.899495 74.822162 
L 292.224889 89.723463 
L 292.600937 74.822162 
L 292.941826 68.669622 
L 293.598654 68.669622 
L 293.928548 63.164574 
L 294.601649 63.164574 
L 294.945889 55.26707 
L 295.289661 43.42038 
L 295.659589 47.997005 
L 296.026175 40.982754 
L 296.395698 47.997005 
L 296.768103 47.997005 
L 297.131156 60.106675 
L 297.449558 44.746414 
L 297.832244 47.997005 
L 298.139931 47.997005 
L 298.434604 49.769188 
L 298.769244 49.769188 
L 299.097306 49.542412 
L 299.419934 49.542412 
L 299.762635 80.722076 
L 300.123316 44.592882 
L 300.449621 42.816401 
L 301.482284 42.816401 
L 301.857741 49.438612 
L 302.237704 42.803111 
L 302.640261 42.803111 
L 302.986201 40.735291 
L 303.305523 27.350586 
L 303.703823 40.735291 
L 305.461481 40.735291 
L 305.802213 39.425569 
L 306.185139 39.425569 
L 306.517512 30.01425 
L 306.840355 43.504223 
L 307.170289 40.37545 
L 307.495837 44.200908 
L 307.875804 96.51577 
L 308.255535 81.458914 
L 308.620823 38.122325 
L 309.330508 34.522506 
L 309.689834 46.16346 
L 310.08334 46.16346 
L 310.464543 36.475777 
L 310.795163 41.46394 
L 311.150159 41.46394 
L 311.500145 24.724476 
L 311.808898 17.28 
L 312.155091 24.724476 
L 312.470625 103.911514 
L 313.170626 103.911514 
L 313.504288 86.277729 
L 313.852236 82.886897 
L 314.844468 82.886897 
L 315.144841 92.702703 
L 315.477145 88.019813 
L 316.825069 88.019813 
L 317.153689 87.13447 
L 317.434801 87.13447 
L 317.827071 150.76748 
L 318.265167 140.951674 
L 318.680286 150.76748 
L 319.411203 150.76748 
L 319.762239 140.951674 
L 320.092504 84.62898 
L 320.4211 76.854144 
L 320.736211 76.854144 
L 321.055228 138.510723 
L 321.425936 138.510723 
L 321.763904 130.904647 
L 322.114404 130.701722 
L 322.475291 130.701722 
L 322.795212 130.904647 
L 323.10902 123.132546 
L 323.441909 180.450045 
L 323.760849 131.066247 
L 324.069724 129.178915 
L 324.397246 129.178915 
L 324.706859 138.621277 
L 325.003529 137.585206 
L 325.975731 137.585206 
L 326.288635 124.020974 
L 326.608904 124.020974 
L 326.948095 137.366939 
L 327.239858 137.366939 
L 327.544041 129.760863 
L 327.863469 114.600953 
L 328.178045 133.781976 
L 328.476775 122.207029 
L 328.801152 118.403799 
L 329.118602 122.207029 
L 329.473406 118.403799 
L 329.796179 118.403799 
L 330.116616 126.1759 
L 330.441436 129.407389 
L 330.739547 121.962913 
L 333.68054 121.962913 
L 333.997469 171.508311 
L 334.332654 171.508311 
L 334.649869 153.082926 
L 334.980626 171.508311 
L 335.298955 161.672632 
L 335.617109 171.508311 
L 335.911012 159.501553 
L 336.230807 159.501553 
L 336.535424 156.130133 
L 336.865628 146.294455 
L 337.174016 153.975207 
L 338.78388 153.975207 
L 339.080055 147.342026 
L 339.402481 153.975207 
L 339.730772 156.31228 
L 340.02809 153.975207 
L 340.358922 156.31228 
L 340.709769 149.322247 
L 341.026675 146.52831 
L 341.356147 156.31228 
L 341.976261 156.31228 
L 342.238011 157.187744 
L 342.541356 157.187744 
L 343.140453 147.585921 
L 343.779853 147.585921 
L 344.102968 142.93296 
L 344.742068 142.93296 
L 345.077082 136.36629 
L 345.499897 135.086828 
L 346.102036 135.086828 
L 346.405068 127.733245 
L 346.752665 133.990581 
L 347.059974 142.415433 
L 347.368308 142.415433 
L 347.664832 130.433868 
L 348.503113 130.433868 
L 348.935866 118.927521 
L 349.341417 130.433868 
L 349.868245 117.307181 
L 350.203798 117.307181 
L 350.506279 130.433868 
L 351.378899 130.433868 
L 351.708854 125.007247 
L 352.011036 131.469939 
L 352.305542 131.469939 
L 352.61403 123.580481 
L 352.934276 131.469939 
L 353.251278 130.433868 
L 353.557032 137.762473 
L 353.870864 137.762473 
L 354.201646 123.580481 
L 354.80609 123.580481 
L 355.399607 131.469939 
L 355.716751 112.635653 
L 356.047443 114.536971 
L 356.047443 114.536971 
" clip-path="url(#p1dfc556411)" style="fill: none; stroke: #1f77b4; stroke-width: 1.5; stroke-linecap: square"/>
   </g>
   <g id="patch_3">
    <path d="M 36.465625 228.96 
L 36.465625 7.2 
" style="fill: none; stroke: #000000; stroke-width: 0.8; stroke-linejoin: miter; stroke-linecap: square"/>
   </g>
   <g id="patch_4">
    <path d="M 371.265625 228.96 
L 371.265625 7.2 
" style="fill: none; stroke: #000000; stroke-width: 0.8; stroke-linejoin: miter; stroke-linecap: square"/>
   </g>
   <g id="patch_5">
    <path d="M 36.465625 228.96 
L 371.265625 228.96 
" style="fill: none; stroke: #000000; stroke-width: 0.8; stroke-linejoin: miter; stroke-linecap: square"/>
   </g>
   <g id="patch_6">
    <path d="M 36.465625 7.2 
L 371.265625 7.2 
" style="fill: none; stroke: #000000; stroke-width: 0.8; stroke-linejoin: miter; stroke-linecap: square"/>
   </g>
   <g id="legend_1">
    <g id="patch_7">
     <path d="M 43.465625 29.878125 
L 196.854688 29.878125 
Q 198.854688 29.878125 198.854688 27.878125 
L 198.854688 14.2 
Q 198.854688 12.2 196.854688 12.2 
L 43.465625 12.2 
Q 41.465625 12.2 41.465625 14.2 
L 41.465625 27.878125 
Q 41.465625 29.878125 43.465625 29.878125 
z
" style="fill: #ffffff; opacity: 0.8; stroke: #cccccc; stroke-linejoin: miter"/>
    </g>
    <g id="line2d_16">
     <path d="M 45.465625 20.298437 
L 55.465625 20.298437 
L 65.465625 20.298437 
" style="fill: none; stroke: #1f77b4; stroke-width: 1.5; stroke-linecap: square"/>
    </g>
    <g id="text_15">
     <!-- node storage proportion -->
     <g transform="translate(73.465625 23.798437) scale(0.1 -0.1)">
      <defs>
       <path id="DejaVuSans-6e" d="M 3513 2113 
L 3513 0 
L 2938 0 
L 2938 2094 
Q 2938 2591 2744 2837 
Q 2550 3084 2163 3084 
Q 1697 3084 1428 2787 
Q 1159 2491 1159 1978 
L 1159 0 
L 581 0 
L 581 3500 
L 1159 3500 
L 1159 2956 
Q 1366 3272 1645 3428 
Q 1925 3584 2291 3584 
Q 2894 3584 3203 3211 
Q 3513 2838 3513 2113 
z
" transform="scale(0.015625)"/>
       <path id="DejaVuSans-6f" d="M 1959 3097 
Q 1497 3097 1228 2736 
Q 959 2375 959 1747 
Q 959 1119 1226 758 
Q 1494 397 1959 397 
Q 2419 397 2687 759 
Q 2956 1122 2956 1747 
Q 2956 2369 2687 2733 
Q 2419 3097 1959 3097 
z
M 1959 3584 
Q 2709 3584 3137 3096 
Q 3566 2609 3566 1747 
Q 3566 888 3137 398 
Q 2709 -91 1959 -91 
Q 1206 -91 779 398 
Q 353 888 353 1747 
Q 353 2609 779 3096 
Q 1206 3584 1959 3584 
z
" transform="scale(0.015625)"/>
       <path id="DejaVuSans-64" d="M 2906 2969 
L 2906 4863 
L 3481 4863 
L 3481 0 
L 2906 0 
L 2906 525 
Q 2725 213 2448 61 
Q 2172 -91 1784 -91 
Q 1150 -91 751 415 
Q 353 922 353 1747 
Q 353 2572 751 3078 
Q 1150 3584 1784 3584 
Q 2172 3584 2448 3432 
Q 2725 3281 2906 2969 
z
M 947 1747 
Q 947 1113 1208 752 
Q 1469 391 1925 391 
Q 2381 391 2643 752 
Q 2906 1113 2906 1747 
Q 2906 2381 2643 2742 
Q 2381 3103 1925 3103 
Q 1469 3103 1208 2742 
Q 947 2381 947 1747 
z
" transform="scale(0.015625)"/>
       <path id="DejaVuSans-65" d="M 3597 1894 
L 3597 1613 
L 953 1613 
Q 991 1019 1311 708 
Q 1631 397 2203 397 
Q 2534 397 2845 478 
Q 3156 559 3463 722 
L 3463 178 
Q 3153 47 2828 -22 
Q 2503 -91 2169 -91 
Q 1331 -91 842 396 
Q 353 884 353 1716 
Q 353 2575 817 3079 
Q 1281 3584 2069 3584 
Q 2775 3584 3186 3129 
Q 3597 2675 3597 1894 
z
M 3022 2063 
Q 3016 2534 2758 2815 
Q 2500 3097 2075 3097 
Q 1594 3097 1305 2825 
Q 1016 2553 972 2059 
L 3022 2063 
z
" transform="scale(0.015625)"/>
       <path id="DejaVuSans-20" transform="scale(0.015625)"/>
       <path id="DejaVuSans-73" d="M 2834 3397 
L 2834 2853 
Q 2591 2978 2328 3040 
Q 2066 3103 1784 3103 
Q 1356 3103 1142 2972 
Q 928 2841 928 2578 
Q 928 2378 1081 2264 
Q 1234 2150 1697 2047 
L 1894 2003 
Q 2506 1872 2764 1633 
Q 3022 1394 3022 966 
Q 3022 478 2636 193 
Q 2250 -91 1575 -91 
Q 1294 -91 989 -36 
Q 684 19 347 128 
L 347 722 
Q 666 556 975 473 
Q 1284 391 1588 391 
Q 1994 391 2212 530 
Q 2431 669 2431 922 
Q 2431 1156 2273 1281 
Q 2116 1406 1581 1522 
L 1381 1569 
Q 847 1681 609 1914 
Q 372 2147 372 2553 
Q 372 3047 722 3315 
Q 1072 3584 1716 3584 
Q 2034 3584 2315 3537 
Q 2597 3491 2834 3397 
z
" transform="scale(0.015625)"/>
       <path id="DejaVuSans-74" d="M 1172 4494 
L 1172 3500 
L 2356 3500 
L 2356 3053 
L 1172 3053 
L 1172 1153 
Q 1172 725 1289 603 
Q 1406 481 1766 481 
L 2356 481 
L 2356 0 
L 1766 0 
Q 1100 0 847 248 
Q 594 497 594 1153 
L 594 3053 
L 172 3053 
L 172 3500 
L 594 3500 
L 594 4494 
L 1172 4494 
z
" transform="scale(0.015625)"/>
       <path id="DejaVuSans-72" d="M 2631 2963 
Q 2534 3019 2420 3045 
Q 2306 3072 2169 3072 
Q 1681 3072 1420 2755 
Q 1159 2438 1159 1844 
L 1159 0 
L 581 0 
L 581 3500 
L 1159 3500 
L 1159 2956 
Q 1341 3275 1631 3429 
Q 1922 3584 2338 3584 
Q 2397 3584 2469 3576 
Q 2541 3569 2628 3553 
L 2631 2963 
z
" transform="scale(0.015625)"/>
       <path id="DejaVuSans-61" d="M 2194 1759 
Q 1497 1759 1228 1600 
Q 959 1441 959 1056 
Q 959 750 1161 570 
Q 1363 391 1709 391 
Q 2188 391 2477 730 
Q 2766 1069 2766 1631 
L 2766 1759 
L 2194 1759 
z
M 3341 1997 
L 3341 0 
L 2766 0 
L 2766 531 
Q 2569 213 2275 61 
Q 1981 -91 1556 -91 
Q 1019 -91 701 211 
Q 384 513 384 1019 
Q 384 1609 779 1909 
Q 1175 2209 1959 2209 
L 2766 2209 
L 2766 2266 
Q 2766 2663 2505 2880 
Q 2244 3097 1772 3097 
Q 1472 3097 1187 3025 
Q 903 2953 641 2809 
L 641 3341 
Q 956 3463 1253 3523 
Q 1550 3584 1831 3584 
Q 2591 3584 2966 3190 
Q 3341 2797 3341 1997 
z
" transform="scale(0.015625)"/>
       <path id="DejaVuSans-67" d="M 2906 1791 
Q 2906 2416 2648 2759 
Q 2391 3103 1925 3103 
Q 1463 3103 1205 2759 
Q 947 2416 947 1791 
Q 947 1169 1205 825 
Q 1463 481 1925 481 
Q 2391 481 2648 825 
Q 2906 1169 2906 1791 
z
M 3481 434 
Q 3481 -459 3084 -895 
Q 2688 -1331 1869 -1331 
Q 1566 -1331 1297 -1286 
Q 1028 -1241 775 -1147 
L 775 -588 
Q 1028 -725 1275 -790 
Q 1522 -856 1778 -856 
Q 2344 -856 2625 -561 
Q 2906 -266 2906 331 
L 2906 616 
Q 2728 306 2450 153 
Q 2172 0 1784 0 
Q 1141 0 747 490 
Q 353 981 353 1791 
Q 353 2603 747 3093 
Q 1141 3584 1784 3584 
Q 2172 3584 2450 3431 
Q 2728 3278 2906 2969 
L 2906 3500 
L 3481 3500 
L 3481 434 
z
" transform="scale(0.015625)"/>
       <path id="DejaVuSans-70" d="M 1159 525 
L 1159 -1331 
L 581 -1331 
L 581 3500 
L 1159 3500 
L 1159 2969 
Q 1341 3281 1617 3432 
Q 1894 3584 2278 3584 
Q 2916 3584 3314 3078 
Q 3713 2572 3713 1747 
Q 3713 922 3314 415 
Q 2916 -91 2278 -91 
Q 1894 -91 1617 61 
Q 1341 213 1159 525 
z
M 3116 1747 
Q 3116 2381 2855 2742 
Q 2594 3103 2138 3103 
Q 1681 3103 1420 2742 
Q 1159 2381 1159 1747 
Q 1159 1113 1420 752 
Q 1681 391 2138 391 
Q 2594 391 2855 752 
Q 3116 1113 3116 1747 
z
" transform="scale(0.015625)"/>
       <path id="DejaVuSans-69" d="M 603 3500 
L 1178 3500 
L 1178 0 
L 603 0 
L 603 3500 
z
M 603 4863 
L 1178 4863 
L 1178 4134 
L 603 4134 
L 603 4863 
z
" transform="scale(0.015625)"/>
      </defs>
      <use xlink:href="#DejaVuSans-6e"/>
      <use xlink:href="#DejaVuSans-6f" x="63.378906"/>
      <use xlink:href="#DejaVuSans-64" x="124.560547"/>
      <use xlink:href="#DejaVuSans-65" x="188.037109"/>
      <use xlink:href="#DejaVuSans-20" x="249.560547"/>
      <use xlink:href="#DejaVuSans-73" x="281.347656"/>
      <use xlink:href="#DejaVuSans-74" x="333.447266"/>
      <use xlink:href="#DejaVuSans-6f" x="372.65625"/>
      <use xlink:href="#DejaVuSans-72" x="433.837891"/>
      <use xlink:href="#DejaVuSans-61" x="474.951172"/>
      <use xlink:href="#DejaVuSans-67" x="536.230469"/>
      <use xlink:href="#DejaVuSans-65" x="599.707031"/>
      <use xlink:href="#DejaVuSans-20" x="661.230469"/>
      <use xlink:href="#DejaVuSans-70" x="693.017578"/>
      <use xlink:href="#DejaVuSans-72" x="756.494141"/>
      <use xlink:href="#DejaVuSans-6f" x="795.357422"/>
      <use xlink:href="#DejaVuSans-70" x="856.539062"/>
      <use xlink:href="#DejaVuSans-6f" x="920.015625"/>
      <use xlink:href="#DejaVuSans-72" x="981.197266"/>
      <use xlink:href="#DejaVuSans-74" x="1022.310547"/>
      <use xlink:href="#DejaVuSans-69" x="1061.519531"/>
      <use xlink:href="#DejaVuSans-6f" x="1089.302734"/>
      <use xlink:href="#DejaVuSans-6e" x="1150.484375"/>
     </g>
    </g>
   </g>
  </g>
 </g>
 <defs>
  <clipPath id="p1dfc556411">
   <rect x="36.465625" y="7.2" width="334.8" height="221.76"/>
  </clipPath>
 </defs>
</svg>
