<?xml version="1.0" encoding="utf-8" standalone="no"?>
<!DOCTYPE svg PUBLIC "-//W3C//DTD SVG 1.1//EN"
  "http://www.w3.org/Graphics/SVG/1.1/DTD/svg11.dtd">
<svg xmlns:xlink="http://www.w3.org/1999/xlink" width="368.925pt" height="252.838125pt" viewBox="0 0 368.925 252.838125" xmlns="http://www.w3.org/2000/svg" version="1.1">
 <metadata>
  <rdf:RDF xmlns:dc="http://purl.org/dc/elements/1.1/" xmlns:cc="http://creativecommons.org/ns#" xmlns:rdf="http://www.w3.org/1999/02/22-rdf-syntax-ns#">
   <cc:Work>
    <dc:type rdf:resource="http://purl.org/dc/dcmitype/StillImage"/>
    <dc:date>2023-04-19T15:36:51.132788</dc:date>
    <dc:format>image/svg+xml</dc:format>
    <dc:creator>
     <cc:Agent>
      <dc:title>Matplotlib v3.6.2, https://matplotlib.org/</dc:title>
     </cc:Agent>
    </dc:creator>
   </cc:Work>
  </rdf:RDF>
 </metadata>
 <defs>
  <style type="text/css">*{stroke-linejoin: round; stroke-linecap: butt}</style>
 </defs>
 <g id="figure_1">
  <g id="patch_1">
   <path d="M -0 252.838125 
L 368.925 252.838125 
L 368.925 0 
L -0 0 
z
" style="fill: #ffffff"/>
  </g>
  <g id="axes_1">
   <g id="patch_2">
    <path d="M 26.925 228.96 
L 361.725 228.96 
L 361.725 7.2 
L 26.925 7.2 
z
" style="fill: #ffffff"/>
   </g>
   <g id="matplotlib.axis_1">
    <g id="xtick_1">
     <g id="line2d_1">
      <defs>
       <path id="m69e8137b03" d="M 0 0 
L 0 3.5 
" style="stroke: #000000; stroke-width: 0.8"/>
      </defs>
      <g>
       <use xlink:href="#m69e8137b03" x="40.447035" y="228.96" style="stroke: #000000; stroke-width: 0.8"/>
      </g>
     </g>
     <g id="text_1">
      <!-- 0 -->
      <g transform="translate(37.265785 243.558437) scale(0.1 -0.1)">
       <defs>
        <path id="DejaVuSans-30" d="M 2034 4250 
Q 1547 4250 1301 3770 
Q 1056 3291 1056 2328 
Q 1056 1369 1301 889 
Q 1547 409 2034 409 
Q 2525 409 2770 889 
Q 3016 1369 3016 2328 
Q 3016 3291 2770 3770 
Q 2525 4250 2034 4250 
z
M 2034 4750 
Q 2819 4750 3233 4129 
Q 3647 3509 3647 2328 
Q 3647 1150 3233 529 
Q 2819 -91 2034 -91 
Q 1250 -91 836 529 
Q 422 1150 422 2328 
Q 422 3509 836 4129 
Q 1250 4750 2034 4750 
z
" transform="scale(0.015625)"/>
       </defs>
       <use xlink:href="#DejaVuSans-30"/>
      </g>
     </g>
    </g>
    <g id="xtick_2">
     <g id="line2d_2">
      <g>
       <use xlink:href="#m69e8137b03" x="111.778642" y="228.96" style="stroke: #000000; stroke-width: 0.8"/>
      </g>
     </g>
     <g id="text_2">
      <!-- 50 -->
      <g transform="translate(105.416142 243.558437) scale(0.1 -0.1)">
       <defs>
        <path id="DejaVuSans-35" d="M 691 4666 
L 3169 4666 
L 3169 4134 
L 1269 4134 
L 1269 2991 
Q 1406 3038 1543 3061 
Q 1681 3084 1819 3084 
Q 2600 3084 3056 2656 
Q 3513 2228 3513 1497 
Q 3513 744 3044 326 
Q 2575 -91 1722 -91 
Q 1428 -91 1123 -41 
Q 819 9 494 109 
L 494 744 
Q 775 591 1075 516 
Q 1375 441 1709 441 
Q 2250 441 2565 725 
Q 2881 1009 2881 1497 
Q 2881 1984 2565 2268 
Q 2250 2553 1709 2553 
Q 1456 2553 1204 2497 
Q 953 2441 691 2322 
L 691 4666 
z
" transform="scale(0.015625)"/>
       </defs>
       <use xlink:href="#DejaVuSans-35"/>
       <use xlink:href="#DejaVuSans-30" x="63.623047"/>
      </g>
     </g>
    </g>
    <g id="xtick_3">
     <g id="line2d_3">
      <g>
       <use xlink:href="#m69e8137b03" x="183.110249" y="228.96" style="stroke: #000000; stroke-width: 0.8"/>
      </g>
     </g>
     <g id="text_3">
      <!-- 100 -->
      <g transform="translate(173.566499 243.558437) scale(0.1 -0.1)">
       <defs>
        <path id="DejaVuSans-31" d="M 794 531 
L 1825 531 
L 1825 4091 
L 703 3866 
L 703 4441 
L 1819 4666 
L 2450 4666 
L 2450 531 
L 3481 531 
L 3481 0 
L 794 0 
L 794 531 
z
" transform="scale(0.015625)"/>
       </defs>
       <use xlink:href="#DejaVuSans-31"/>
       <use xlink:href="#DejaVuSans-30" x="63.623047"/>
       <use xlink:href="#DejaVuSans-30" x="127.246094"/>
      </g>
     </g>
    </g>
    <g id="xtick_4">
     <g id="line2d_4">
      <g>
       <use xlink:href="#m69e8137b03" x="254.441856" y="228.96" style="stroke: #000000; stroke-width: 0.8"/>
      </g>
     </g>
     <g id="text_4">
      <!-- 150 -->
      <g transform="translate(244.898106 243.558437) scale(0.1 -0.1)">
       <use xlink:href="#DejaVuSans-31"/>
       <use xlink:href="#DejaVuSans-35" x="63.623047"/>
       <use xlink:href="#DejaVuSans-30" x="127.246094"/>
      </g>
     </g>
    </g>
    <g id="xtick_5">
     <g id="line2d_5">
      <g>
       <use xlink:href="#m69e8137b03" x="325.773462" y="228.96" style="stroke: #000000; stroke-width: 0.8"/>
      </g>
     </g>
     <g id="text_5">
      <!-- 200 -->
      <g transform="translate(316.229712 243.558437) scale(0.1 -0.1)">
       <defs>
        <path id="DejaVuSans-32" d="M 1228 531 
L 3431 531 
L 3431 0 
L 469 0 
L 469 531 
Q 828 903 1448 1529 
Q 2069 2156 2228 2338 
Q 2531 2678 2651 2914 
Q 2772 3150 2772 3378 
Q 2772 3750 2511 3984 
Q 2250 4219 1831 4219 
Q 1534 4219 1204 4116 
Q 875 4013 500 3803 
L 500 4441 
Q 881 4594 1212 4672 
Q 1544 4750 1819 4750 
Q 2544 4750 2975 4387 
Q 3406 4025 3406 3419 
Q 3406 3131 3298 2873 
Q 3191 2616 2906 2266 
Q 2828 2175 2409 1742 
Q 1991 1309 1228 531 
z
" transform="scale(0.015625)"/>
       </defs>
       <use xlink:href="#DejaVuSans-32"/>
       <use xlink:href="#DejaVuSans-30" x="63.623047"/>
       <use xlink:href="#DejaVuSans-30" x="127.246094"/>
      </g>
     </g>
    </g>
   </g>
   <g id="matplotlib.axis_2">
    <g id="ytick_1">
     <g id="line2d_6">
      <defs>
       <path id="m8603f81ed8" d="M 0 0 
L -3.5 0 
" style="stroke: #000000; stroke-width: 0.8"/>
      </defs>
      <g>
       <use xlink:href="#m8603f81ed8" x="26.925" y="206.16137" style="stroke: #000000; stroke-width: 0.8"/>
      </g>
     </g>
     <g id="text_6">
      <!-- 2 -->
      <g transform="translate(13.5625 209.960589) scale(0.1 -0.1)">
       <use xlink:href="#DejaVuSans-32"/>
      </g>
     </g>
    </g>
    <g id="ytick_2">
     <g id="line2d_7">
      <g>
       <use xlink:href="#m8603f81ed8" x="26.925" y="167.304953" style="stroke: #000000; stroke-width: 0.8"/>
      </g>
     </g>
     <g id="text_7">
      <!-- 4 -->
      <g transform="translate(13.5625 171.104171) scale(0.1 -0.1)">
       <defs>
        <path id="DejaVuSans-34" d="M 2419 4116 
L 825 1625 
L 2419 1625 
L 2419 4116 
z
M 2253 4666 
L 3047 4666 
L 3047 1625 
L 3713 1625 
L 3713 1100 
L 3047 1100 
L 3047 0 
L 2419 0 
L 2419 1100 
L 313 1100 
L 313 1709 
L 2253 4666 
z
" transform="scale(0.015625)"/>
       </defs>
       <use xlink:href="#DejaVuSans-34"/>
      </g>
     </g>
    </g>
    <g id="ytick_3">
     <g id="line2d_8">
      <g>
       <use xlink:href="#m8603f81ed8" x="26.925" y="128.448535" style="stroke: #000000; stroke-width: 0.8"/>
      </g>
     </g>
     <g id="text_8">
      <!-- 6 -->
      <g transform="translate(13.5625 132.247754) scale(0.1 -0.1)">
       <defs>
        <path id="DejaVuSans-36" d="M 2113 2584 
Q 1688 2584 1439 2293 
Q 1191 2003 1191 1497 
Q 1191 994 1439 701 
Q 1688 409 2113 409 
Q 2538 409 2786 701 
Q 3034 994 3034 1497 
Q 3034 2003 2786 2293 
Q 2538 2584 2113 2584 
z
M 3366 4563 
L 3366 3988 
Q 3128 4100 2886 4159 
Q 2644 4219 2406 4219 
Q 1781 4219 1451 3797 
Q 1122 3375 1075 2522 
Q 1259 2794 1537 2939 
Q 1816 3084 2150 3084 
Q 2853 3084 3261 2657 
Q 3669 2231 3669 1497 
Q 3669 778 3244 343 
Q 2819 -91 2113 -91 
Q 1303 -91 875 529 
Q 447 1150 447 2328 
Q 447 3434 972 4092 
Q 1497 4750 2381 4750 
Q 2619 4750 2861 4703 
Q 3103 4656 3366 4563 
z
" transform="scale(0.015625)"/>
       </defs>
       <use xlink:href="#DejaVuSans-36"/>
      </g>
     </g>
    </g>
    <g id="ytick_4">
     <g id="line2d_9">
      <g>
       <use xlink:href="#m8603f81ed8" x="26.925" y="89.592117" style="stroke: #000000; stroke-width: 0.8"/>
      </g>
     </g>
     <g id="text_9">
      <!-- 8 -->
      <g transform="translate(13.5625 93.391336) scale(0.1 -0.1)">
       <defs>
        <path id="DejaVuSans-38" d="M 2034 2216 
Q 1584 2216 1326 1975 
Q 1069 1734 1069 1313 
Q 1069 891 1326 650 
Q 1584 409 2034 409 
Q 2484 409 2743 651 
Q 3003 894 3003 1313 
Q 3003 1734 2745 1975 
Q 2488 2216 2034 2216 
z
M 1403 2484 
Q 997 2584 770 2862 
Q 544 3141 544 3541 
Q 544 4100 942 4425 
Q 1341 4750 2034 4750 
Q 2731 4750 3128 4425 
Q 3525 4100 3525 3541 
Q 3525 3141 3298 2862 
Q 3072 2584 2669 2484 
Q 3125 2378 3379 2068 
Q 3634 1759 3634 1313 
Q 3634 634 3220 271 
Q 2806 -91 2034 -91 
Q 1263 -91 848 271 
Q 434 634 434 1313 
Q 434 1759 690 2068 
Q 947 2378 1403 2484 
z
M 1172 3481 
Q 1172 3119 1398 2916 
Q 1625 2713 2034 2713 
Q 2441 2713 2670 2916 
Q 2900 3119 2900 3481 
Q 2900 3844 2670 4047 
Q 2441 4250 2034 4250 
Q 1625 4250 1398 4047 
Q 1172 3844 1172 3481 
z
" transform="scale(0.015625)"/>
       </defs>
       <use xlink:href="#DejaVuSans-38"/>
      </g>
     </g>
    </g>
    <g id="ytick_5">
     <g id="line2d_10">
      <g>
       <use xlink:href="#m8603f81ed8" x="26.925" y="50.7357" style="stroke: #000000; stroke-width: 0.8"/>
      </g>
     </g>
     <g id="text_10">
      <!-- 10 -->
      <g transform="translate(7.2 54.534918) scale(0.1 -0.1)">
       <use xlink:href="#DejaVuSans-31"/>
       <use xlink:href="#DejaVuSans-30" x="63.623047"/>
      </g>
     </g>
    </g>
    <g id="ytick_6">
     <g id="line2d_11">
      <g>
       <use xlink:href="#m8603f81ed8" x="26.925" y="11.879282" style="stroke: #000000; stroke-width: 0.8"/>
      </g>
     </g>
     <g id="text_11">
      <!-- 12 -->
      <g transform="translate(7.2 15.678501) scale(0.1 -0.1)">
       <use xlink:href="#DejaVuSans-31"/>
       <use xlink:href="#DejaVuSans-32" x="63.623047"/>
      </g>
     </g>
    </g>
   </g>
   <g id="line2d_12">
    <path d="M 42.143182 218.332284 
L 42.449756 218.332284 
L 42.753236 218.88 
L 43.059403 218.253705 
L 43.365412 217.940813 
L 43.670116 208.19796 
L 43.975838 205.587262 
L 44.280682 209.806625 
L 44.589784 218.090489 
L 44.895261 218.090489 
L 45.512556 214.685315 
L 45.821366 216.648764 
L 46.12823 216.04241 
L 46.432376 214.565902 
L 46.743246 211.856015 
L 47.051728 205.543809 
L 47.363094 205.398281 
L 47.674484 213.361886 
L 47.98215 211.239053 
L 48.289494 210.428379 
L 48.598959 208.252213 
L 48.906942 208.943023 
L 49.216226 204.927994 
L 49.525324 214.071374 
L 49.842627 199.849249 
L 50.470261 209.995866 
L 50.785435 198.038041 
L 51.09684 217.144668 
L 51.401555 217.144668 
L 51.704135 212.649615 
L 52.01677 211.509196 
L 52.343008 212.501173 
L 52.648493 205.168571 
L 52.956383 205.168571 
L 53.262558 215.049388 
L 53.573183 215.049388 
L 54.187181 211.871306 
L 54.494791 205.431871 
L 54.802591 208.571473 
L 55.111261 204.798294 
L 55.415149 204.914956 
L 55.720813 209.203149 
L 56.336832 205.931705 
L 56.646388 209.61917 
L 56.956915 206.881188 
L 57.258717 211.990941 
L 57.564404 211.806298 
L 58.176913 211.773301 
L 58.481455 211.96822 
L 58.785904 211.438633 
L 59.701956 211.358801 
L 60.011688 210.360078 
L 60.625385 210.360078 
L 61.239217 205.024644 
L 61.544443 207.06932 
L 61.856243 206.571388 
L 62.163531 202.428604 
L 62.467665 209.076365 
L 62.775823 207.751334 
L 63.081679 207.751334 
L 63.385941 205.073691 
L 63.691708 205.503092 
L 64.003178 205.503092 
L 64.316486 205.788868 
L 64.623205 207.782338 
L 64.932929 208.724488 
L 65.238319 210.367685 
L 65.547513 206.906926 
L 65.855055 207.917924 
L 66.219412 206.406871 
L 66.580217 209.022761 
L 66.901979 209.381428 
L 67.211656 208.263145 
L 67.517657 207.727541 
L 67.828382 205.9343 
L 68.439779 205.866974 
L 68.750169 206.521961 
L 69.057536 206.521961 
L 69.362457 208.661461 
L 69.972995 208.295842 
L 70.284499 207.33664 
L 70.59015 205.164785 
L 71.198903 205.164785 
L 71.512125 208.765046 
L 71.868248 197.871903 
L 72.200981 197.871903 
L 72.524911 198.176696 
L 72.835998 203.946697 
L 73.14263 204.202976 
L 73.453773 206.718576 
L 73.764543 207.487313 
L 74.387814 201.512306 
L 74.69468 201.758629 
L 75.003853 201.301289 
L 75.310737 197.201359 
L 75.621308 203.422161 
L 75.927145 198.680928 
L 76.235709 199.280729 
L 76.853117 204.661538 
L 77.781319 205.843167 
L 78.088247 206.562867 
L 78.399093 196.903071 
L 78.704588 206.617171 
L 79.0119 206.604318 
L 79.31677 198.075023 
L 79.630874 206.573207 
L 79.939071 207.713338 
L 80.252073 202.970793 
L 80.567046 202.970793 
L 80.872471 198.888742 
L 81.187189 201.719842 
L 81.501817 202.859995 
L 81.809901 205.209662 
L 82.120505 199.671279 
L 82.429534 201.822552 
L 82.735565 195.214248 
L 83.046672 202.374245 
L 83.357162 192.706141 
L 83.98052 192.571794 
L 84.286721 196.729358 
L 84.598955 195.596287 
L 84.904972 195.596287 
L 85.209835 192.438444 
L 85.529276 192.293994 
L 85.842094 194.270265 
L 86.144884 193.931629 
L 86.452468 195.151699 
L 86.763357 191.74493 
L 87.082035 191.204368 
L 87.397628 192.679709 
L 87.707072 195.59908 
L 88.019443 195.32567 
L 88.326549 195.456053 
L 88.637557 195.920869 
L 88.95063 197.000566 
L 89.270672 199.377922 
L 89.581452 197.33262 
L 89.897343 194.315844 
L 90.212822 195.119369 
L 90.838121 195.069954 
L 91.147746 193.76889 
L 91.459254 193.421197 
L 91.768905 194.861536 
L 92.077254 196.943763 
L 92.385723 196.928672 
L 92.694633 199.211373 
L 93.002185 192.101229 
L 93.3128 190.249815 
L 93.622055 195.016961 
L 93.935304 197.338724 
L 94.245157 197.316582 
L 94.557335 191.958582 
L 94.87159 192.81054 
L 95.179889 194.72578 
L 95.49104 194.672162 
L 95.80225 188.489539 
L 96.112863 190.31209 
L 96.427483 190.31209 
L 96.735018 191.967041 
L 97.043236 192.138233 
L 97.355111 195.034064 
L 97.669789 195.034064 
L 97.980388 193.18618 
L 98.598558 192.729979 
L 98.907305 192.580613 
L 99.220465 192.601815 
L 99.531628 192.160727 
L 100.162873 192.809417 
L 100.783586 192.138409 
L 101.093563 192.210954 
L 101.409173 192.140458 
L 101.720745 192.648689 
L 102.358922 192.187181 
L 102.679553 192.187181 
L 102.985665 192.0161 
L 103.297446 189.527832 
L 103.917821 189.527832 
L 104.226517 190.697639 
L 104.535569 189.522129 
L 104.848346 192.098863 
L 105.157964 189.081063 
L 105.471787 189.081063 
L 105.78379 187.000094 
L 106.085011 189.739197 
L 106.392252 189.206636 
L 106.714623 191.443412 
L 107.023141 189.145403 
L 107.337434 185.420603 
L 107.651463 187.439334 
L 107.962663 186.515424 
L 108.891339 185.919346 
L 109.199388 181.127973 
L 109.503853 182.392491 
L 109.809655 189.006882 
L 110.119273 189.006882 
L 110.427281 187.96087 
L 110.734454 193.987648 
L 111.034677 191.199215 
L 111.338246 189.830729 
L 111.648466 189.830729 
L 111.959922 185.160585 
L 112.268912 185.037072 
L 112.57652 186.514379 
L 112.887993 189.939851 
L 113.197738 190.458586 
L 113.50819 190.458586 
L 113.821141 186.156067 
L 114.132402 186.105779 
L 114.450622 185.819244 
L 114.762935 185.819244 
L 115.072788 185.648138 
L 115.3847 179.54394 
L 115.69543 190.509689 
L 116.000026 185.391887 
L 116.307164 190.294747 
L 116.615785 190.219834 
L 116.930107 187.370231 
L 117.24217 187.290753 
L 117.553186 192.360395 
L 117.864454 191.278221 
L 118.169729 190.907327 
L 118.475736 190.869169 
L 118.779703 187.71687 
L 119.088747 179.237202 
L 119.398629 186.932999 
L 119.712178 184.596135 
L 120.01812 183.49295 
L 120.327151 185.011661 
L 120.944308 184.73724 
L 121.254269 183.08296 
L 121.565997 183.24206 
L 121.875324 186.497415 
L 122.18692 187.449851 
L 122.495937 189.175238 
L 122.808237 183.939959 
L 123.115943 183.324906 
L 123.431044 184.471147 
L 123.737933 176.7448 
L 124.048266 181.989938 
L 124.351801 176.566016 
L 124.66316 176.365312 
L 124.973964 171.031725 
L 125.283528 181.141348 
L 125.598425 182.900033 
L 125.907226 181.569314 
L 126.216277 183.237116 
L 126.527926 180.503234 
L 126.840003 178.977427 
L 127.151066 184.475414 
L 127.460243 184.475414 
L 127.767604 184.361708 
L 128.077255 183.825621 
L 128.393903 183.772488 
L 128.704569 183.959506 
L 129.02036 181.363599 
L 129.946041 181.24688 
L 130.252964 180.983245 
L 130.56143 181.429697 
L 130.869439 177.805377 
L 131.175032 181.761953 
L 131.482353 181.761953 
L 131.785805 181.986765 
L 132.090309 185.452851 
L 132.393175 185.098648 
L 132.703511 183.728467 
L 133.011058 183.536548 
L 133.32072 184.01753 
L 133.929352 177.025636 
L 134.244193 182.699668 
L 134.550291 182.699668 
L 135.162215 183.174382 
L 135.473569 170.897239 
L 135.778494 184.902673 
L 136.08452 177.858777 
L 136.390858 180.288696 
L 137.004283 171.503973 
L 137.30897 171.689952 
L 137.614216 175.196405 
L 137.918741 175.350434 
L 138.222379 177.059501 
L 138.834556 177.083631 
L 139.144901 179.65366 
L 139.449807 179.184442 
L 139.751436 186.429911 
L 140.058104 185.970205 
L 140.966873 185.656831 
L 141.27054 182.779578 
L 141.57676 182.917047 
L 141.885861 178.43142 
L 142.192637 178.464151 
L 142.499108 179.021418 
L 142.802961 174.674798 
L 143.10796 176.997417 
L 143.417206 168.582632 
L 143.723456 168.787113 
L 144.028093 171.805234 
L 144.639281 171.73066 
L 144.945952 171.538939 
L 145.256652 170.996252 
L 145.558228 170.961605 
L 145.865082 171.195762 
L 146.168543 171.195762 
L 146.474235 174.304462 
L 146.776936 172.151043 
L 147.076536 172.137331 
L 147.381 172.403336 
L 147.685246 177.841615 
L 147.988197 165.407937 
L 148.293286 174.910436 
L 148.595115 174.910436 
L 148.899001 177.758712 
L 149.198468 177.613265 
L 149.50239 173.761991 
L 149.80306 180.304867 
L 150.103845 176.487474 
L 150.402787 163.630989 
L 151.006647 172.423625 
L 151.609873 172.163091 
L 151.911527 178.914775 
L 152.212547 178.60216 
L 152.514689 178.60216 
L 152.814913 172.308469 
L 153.12008 178.951899 
L 153.421972 178.669513 
L 153.726247 172.107092 
L 154.030609 176.673219 
L 154.339289 168.285744 
L 154.643215 176.043991 
L 154.948282 175.586024 
L 155.243731 175.3477 
L 155.8493 175.445482 
L 156.149417 165.90579 
L 156.449438 163.048028 
L 156.750512 170.702714 
L 157.05766 159.400278 
L 157.36043 167.232411 
L 157.669711 167.196955 
L 157.975318 167.594052 
L 158.276697 167.38943 
L 158.578785 165.471376 
L 158.881977 165.493375 
L 159.185365 167.441311 
L 159.488158 167.434509 
L 159.801614 161.519666 
L 160.112697 161.519666 
L 160.721548 168.50247 
L 161.02596 164.074814 
L 161.330489 164.991734 
L 161.638406 165.10912 
L 161.94056 163.858124 
L 162.546072 163.967422 
L 162.851769 163.99883 
L 163.155345 164.640788 
L 163.457538 161.511032 
L 163.76116 167.315823 
L 164.366683 167.180228 
L 164.66749 167.414299 
L 164.967506 156.055034 
L 165.273453 157.210918 
L 165.881153 164.776009 
L 166.484103 164.244489 
L 166.793354 164.197832 
L 167.09918 160.444625 
L 167.401536 159.782559 
L 167.706011 159.66232 
L 168.007786 159.379991 
L 168.318656 159.379991 
L 168.652586 151.476905 
L 168.957096 163.478647 
L 169.265468 159.787797 
L 169.563224 160.437405 
L 170.162584 160.470613 
L 170.467216 155.253284 
L 170.770518 162.089975 
L 171.075466 162.241449 
L 171.383883 159.770334 
L 171.685793 159.755087 
L 171.989615 159.521017 
L 172.293789 166.508801 
L 172.597182 166.355536 
L 172.903957 156.013106 
L 173.211906 162.197831 
L 173.513334 159.988792 
L 173.818111 162.018994 
L 174.120021 156.383953 
L 174.423619 156.237199 
L 174.727792 154.438992 
L 175.031317 153.794527 
L 175.336182 153.459472 
L 175.641078 154.252708 
L 175.946405 153.977103 
L 176.247654 159.015244 
L 176.550438 159.569417 
L 176.854272 159.638121 
L 177.153454 164.908258 
L 177.453087 147.314465 
L 177.756219 147.46451 
L 178.06241 150.290229 
L 178.668588 150.158674 
L 178.965735 146.747117 
L 179.265905 147.257442 
L 179.56539 147.144235 
L 179.869452 146.683392 
L 180.169302 147.061339 
L 180.468314 153.868417 
L 180.767252 148.479865 
L 181.068137 148.479865 
L 181.373612 148.21777 
L 181.671272 149.059476 
L 181.971773 148.962831 
L 182.272827 148.58807 
L 182.574084 148.881418 
L 182.875756 138.234076 
L 183.17725 138.234076 
L 183.477658 139.191629 
L 184.077232 138.636857 
L 184.381299 137.757161 
L 184.680319 145.675442 
L 184.981332 138.934836 
L 185.283641 145.106747 
L 185.584849 138.876551 
L 185.888068 147.992662 
L 186.194604 148.550028 
L 186.492414 148.672242 
L 187.092702 137.567617 
L 187.394074 137.503734 
L 187.699545 142.984894 
L 187.996619 142.93805 
L 188.299443 146.607647 
L 188.601283 148.220736 
L 188.908629 148.144873 
L 189.211831 147.888589 
L 189.819926 147.957664 
L 190.124821 147.273493 
L 190.733713 147.273493 
L 191.032091 146.477761 
L 191.329273 146.006478 
L 191.627135 146.511705 
L 191.927156 146.235525 
L 192.526254 146.148475 
L 192.825987 146.096021 
L 193.125247 146.517558 
L 193.425623 147.859674 
L 193.726369 146.318236 
L 194.025229 145.816247 
L 194.325653 147.865889 
L 194.628313 138.778652 
L 194.928767 138.778652 
L 195.23375 147.311343 
L 195.532996 147.311343 
L 196.13552 147.423451 
L 196.4325 147.290433 
L 197.029721 147.183937 
L 197.329736 143.768558 
L 197.93219 142.980757 
L 198.233462 145.664769 
L 198.529955 146.212926 
L 198.828398 142.731661 
L 199.422664 143.764872 
L 200.024851 142.99063 
L 200.327491 143.516268 
L 200.626869 142.856681 
L 200.92457 142.856681 
L 201.223671 142.62985 
L 201.523309 142.604911 
L 201.82215 146.256215 
L 202.12427 143.443107 
L 202.424784 143.443107 
L 202.730452 146.408725 
L 203.031849 146.612024 
L 203.331658 146.612024 
L 203.632557 142.586515 
L 203.931489 142.370287 
L 204.230602 133.751371 
L 204.830473 133.722563 
L 205.139691 146.792854 
L 205.440637 146.373343 
L 205.744532 146.373343 
L 206.048521 152.645977 
L 206.34804 142.596544 
L 206.645278 143.098845 
L 206.950905 143.148667 
L 207.251958 146.988076 
L 207.550744 146.988076 
L 207.853387 149.357474 
L 208.451659 137.89805 
L 208.754001 146.581372 
L 209.051355 144.847577 
L 209.348667 143.811084 
L 209.654883 136.273594 
L 209.956133 144.398313 
L 210.259938 145.501816 
L 210.565125 145.163451 
L 210.868531 145.897665 
L 211.16881 143.979553 
L 211.470872 145.420963 
L 212.072861 145.330692 
L 212.371401 145.664618 
L 212.670566 144.78298 
L 212.972258 144.653514 
L 213.271674 144.005967 
L 213.570044 144.480782 
L 213.869964 144.139489 
L 214.173829 140.786027 
L 214.475756 144.07381 
L 214.777276 143.469967 
L 215.078351 143.469967 
L 215.379855 144.115769 
L 215.680999 144.015536 
L 215.982469 144.854175 
L 216.288402 144.854175 
L 216.587415 144.390786 
L 216.889366 143.674347 
L 217.192621 139.054802 
L 217.495067 144.375345 
L 217.795453 144.137175 
L 218.096319 144.484503 
L 219.002333 144.442087 
L 219.303189 143.434776 
L 219.604259 143.434776 
L 220.203788 142.51973 
L 220.503053 142.51973 
L 220.802683 137.995694 
L 221.105624 136.585624 
L 221.407614 137.370184 
L 221.706513 144.560214 
L 222.003781 144.47766 
L 222.30754 144.197078 
L 222.610211 138.866871 
L 222.907688 138.89483 
L 223.209291 142.592876 
L 223.510513 142.592876 
L 223.808951 143.948538 
L 224.110517 144.435336 
L 224.411162 144.442416 
L 224.71184 143.708892 
L 225.011517 143.877831 
L 225.310955 143.395537 
L 225.615597 143.568009 
L 225.916929 138.409717 
L 226.223766 138.039761 
L 226.522051 127.347178 
L 226.822059 136.701712 
L 227.12306 137.585024 
L 227.423475 136.488663 
L 227.726148 136.785801 
L 228.027826 136.294744 
L 228.328129 136.131017 
L 228.932102 136.730293 
L 229.230278 129.6136 
L 229.526728 130.185001 
L 229.826239 129.050925 
L 230.429067 129.140531 
L 230.728575 133.517895 
L 231.031927 139.868202 
L 231.331719 139.237262 
L 231.633952 134.515446 
L 231.930725 134.042963 
L 232.233006 134.304924 
L 232.530142 134.304924 
L 232.826507 134.932858 
L 233.132004 134.899161 
L 233.433484 135.529264 
L 234.336889 135.421082 
L 234.635472 134.421419 
L 234.9312 133.893962 
L 235.231121 133.673719 
L 235.533789 133.673719 
L 236.135688 133.315458 
L 236.435759 132.90305 
L 237.035502 133.559944 
L 237.333744 137.581443 
L 237.638544 136.671128 
L 237.944939 126.825802 
L 238.251063 137.856911 
L 238.552735 133.210799 
L 238.853172 132.001208 
L 239.155533 132.348249 
L 239.754583 131.19813 
L 240.057086 133.801178 
L 240.660489 133.171766 
L 240.961146 133.589742 
L 241.261269 133.116431 
L 241.560508 126.397918 
L 241.858567 126.159602 
L 242.164898 132.448733 
L 242.461942 132.262277 
L 242.760179 134.786504 
L 243.061298 129.158132 
L 243.36455 134.19809 
L 243.664538 117.108234 
L 243.965897 121.51849 
L 244.27292 131.808185 
L 244.573008 133.053062 
L 244.876635 127.691679 
L 245.179043 127.537309 
L 245.482732 127.537309 
L 245.782239 132.807576 
L 246.38211 131.657464 
L 246.678234 138.131377 
L 246.981224 137.284153 
L 247.282851 137.284153 
L 247.583568 137.689902 
L 247.88512 137.025307 
L 248.185052 137.152868 
L 248.486963 131.463212 
L 248.7873 131.463212 
L 249.085749 127.591875 
L 249.386967 137.276981 
L 249.689947 138.478281 
L 249.991914 137.432331 
L 250.293888 137.058052 
L 250.593208 129.434812 
L 250.894002 129.562372 
L 251.195545 128.413118 
L 252.102939 128.217026 
L 252.412819 118.693367 
L 252.711432 128.218239 
L 253.01317 128.218239 
L 253.313556 128.04993 
L 253.615844 115.991814 
L 253.918801 114.991716 
L 254.220489 138.51099 
L 254.520517 134.777747 
L 254.819696 137.1232 
L 255.121357 135.284051 
L 255.42176 135.227381 
L 255.723205 130.857547 
L 256.024962 131.634697 
L 256.328883 131.634697 
L 256.6284 111.91662 
L 256.926694 123.895515 
L 257.233441 123.645222 
L 257.538529 121.66407 
L 257.844113 123.080738 
L 258.146227 122.606785 
L 258.746006 123.124259 
L 259.045958 133.035305 
L 259.351924 129.101275 
L 259.651388 128.568711 
L 259.953539 128.356581 
L 260.257736 118.381034 
L 260.561973 119.380842 
L 260.862417 118.953039 
L 261.16251 123.214947 
L 261.466747 118.848071 
L 261.772672 116.796977 
L 262.073956 116.796977 
L 262.376043 128.061358 
L 262.675427 128.061358 
L 262.97775 128.605323 
L 263.275768 128.732156 
L 263.574943 128.6303 
L 263.875841 122.254773 
L 264.475439 122.312473 
L 264.773432 127.311368 
L 265.072826 121.897383 
L 265.674708 118.753801 
L 265.971672 118.65646 
L 266.269252 118.91607 
L 266.571207 121.266786 
L 266.874132 125.443776 
L 267.178095 125.558076 
L 267.478042 124.984023 
L 267.781163 119.992637 
L 268.090844 123.102697 
L 268.392999 121.668319 
L 268.69498 121.286471 
L 268.996833 125.359706 
L 269.299831 125.453057 
L 269.604529 123.692172 
L 269.904157 123.130249 
L 270.204038 122.896884 
L 270.505271 117.003584 
L 270.810302 120.230059 
L 271.113253 121.259739 
L 271.414094 120.271232 
L 271.71873 121.150094 
L 272.018552 121.004593 
L 272.321349 121.927759 
L 272.620063 121.640746 
L 272.923665 113.709526 
L 273.222293 121.110453 
L 273.520248 121.062112 
L 273.82069 124.834488 
L 274.124036 124.834488 
L 274.431725 114.097247 
L 274.732121 113.032062 
L 275.032544 113.032062 
L 275.333136 122.062611 
L 275.953646 121.606606 
L 276.259727 121.505019 
L 276.56051 121.024407 
L 276.860844 115.370598 
L 277.165784 114.902994 
L 277.466574 109.263922 
L 277.766863 111.758462 
L 278.065286 111.719046 
L 278.366816 118.929076 
L 278.667937 111.738034 
L 278.965271 110.871962 
L 279.264931 104.021268 
L 279.565187 103.826885 
L 279.870736 104.315356 
L 280.17102 104.315356 
L 280.475459 103.741121 
L 280.777907 103.806279 
L 281.083761 95.983031 
L 281.383917 112.283799 
L 281.682802 100.523628 
L 281.979568 98.824541 
L 282.277671 98.836962 
L 282.579521 99.933919 
L 282.881673 113.944151 
L 283.182452 113.935933 
L 283.786287 112.873087 
L 284.089089 113.631641 
L 284.691169 111.823775 
L 284.988751 111.542019 
L 285.297796 117.43451 
L 285.600871 116.230113 
L 285.9041 116.75707 
L 286.511583 116.75707 
L 286.811001 116.541639 
L 287.110714 116.491358 
L 287.412049 116.553619 
L 287.719584 115.749983 
L 288.02154 115.629774 
L 288.320341 108.08652 
L 288.622244 115.675631 
L 288.924473 106.814195 
L 289.228748 106.954385 
L 289.532746 106.281726 
L 289.836882 105.942042 
L 290.139645 94.216277 
L 290.744196 117.964563 
L 291.046033 117.964563 
L 291.346039 117.034766 
L 291.645768 109.516595 
L 291.942835 93.967527 
L 292.245714 99.856783 
L 292.550786 99.856783 
L 292.850961 100.15448 
L 293.151243 100.15448 
L 293.453171 91.980597 
L 293.754926 93.231229 
L 294.055428 92.709051 
L 294.65195 92.709051 
L 295.260593 93.598979 
L 295.562939 100.020516 
L 295.865934 99.677368 
L 296.167557 92.973825 
L 296.471718 92.830322 
L 296.774544 94.75026 
L 297.079523 99.941028 
L 297.383448 111.618334 
L 297.684154 106.316563 
L 297.984961 106.195793 
L 298.284021 108.211166 
L 298.587048 108.215608 
L 298.889648 97.322163 
L 299.192497 96.890448 
L 299.492316 97.061314 
L 299.79484 97.061314 
L 300.394735 97.957674 
L 300.695631 96.873124 
L 300.998255 92.62791 
L 301.298063 100.404421 
L 301.598678 94.030276 
L 301.901035 93.515516 
L 302.201305 90.873088 
L 302.501578 97.679535 
L 302.804906 91.714782 
L 303.104647 91.714782 
L 303.406575 92.068933 
L 303.708771 85.845572 
L 304.312715 85.829976 
L 304.616148 91.9632 
L 304.914982 91.968686 
L 305.214239 92.216023 
L 305.810373 83.469036 
L 306.110248 91.601267 
L 306.407235 89.594336 
L 306.711663 89.610172 
L 307.011342 91.839949 
L 307.615569 91.086521 
L 307.918518 91.789154 
L 308.217714 83.121595 
L 308.819965 100.369565 
L 309.422636 83.553543 
L 309.718884 80.092413 
L 310.016842 80.356201 
L 310.317526 80.356201 
L 310.620769 91.59119 
L 310.921457 92.069034 
L 311.219674 82.739222 
L 311.523052 97.089064 
L 311.823835 102.857764 
L 312.12684 103.847056 
L 312.424552 96.550067 
L 312.723339 99.416296 
L 313.029305 98.982751 
L 313.331345 98.040704 
L 313.632279 99.107986 
L 313.937106 91.700753 
L 314.23929 91.44388 
L 314.540756 96.163631 
L 314.844383 91.155542 
L 315.143844 104.524464 
L 315.444459 104.524464 
L 315.743254 103.917452 
L 316.044044 80.551913 
L 316.346564 80.455148 
L 316.648786 79.204565 
L 316.948537 79.471435 
L 317.246976 87.902618 
L 317.54813 87.902618 
L 317.851307 97.576292 
L 318.154619 96.870404 
L 318.457245 96.962803 
L 318.763588 87.2178 
L 319.064625 82.09072 
L 319.370943 98.987515 
L 319.672592 97.969731 
L 320.276708 97.99716 
L 320.577503 105.047961 
L 320.876254 104.749165 
L 321.179381 96.675733 
L 321.479174 96.675733 
L 321.778175 96.181597 
L 322.083562 95.305834 
L 322.387623 95.116758 
L 322.992017 95.183337 
L 323.291975 95.384312 
L 323.595096 97.444298 
L 323.891108 94.785825 
L 324.192163 85.38539 
L 324.494332 91.909657 
L 324.797453 93.105992 
L 325.100367 95.554893 
L 325.400793 104.500253 
L 325.709863 104.500253 
L 326.01036 103.966938 
L 326.314855 103.917677 
L 326.615169 104.83088 
L 326.916766 104.58356 
L 327.22148 96.138983 
L 327.520101 96.138983 
L 327.822789 84.647751 
L 328.125785 84.212725 
L 328.430967 84.622704 
L 328.734965 93.586967 
L 329.036163 87.892436 
L 329.332695 87.854137 
L 329.631435 79.779164 
L 329.934245 79.779164 
L 330.54241 70.32768 
L 330.842858 81.190179 
L 331.140462 80.444041 
L 331.441132 72.737674 
L 331.746206 57.352664 
L 332.046342 63.184653 
L 332.345923 63.184653 
L 332.646649 54.493836 
L 332.949696 57.053973 
L 333.254018 50.832315 
L 333.559478 50.832315 
L 333.859593 49.904141 
L 334.158063 49.904141 
L 334.458943 58.303273 
L 334.764042 57.227868 
L 335.067658 69.015486 
L 335.366157 67.970291 
L 335.662029 49.312682 
L 335.965834 48.847973 
L 336.268908 30.884614 
L 336.568568 54.14612 
L 336.867441 54.14612 
L 337.169106 52.941751 
L 337.466052 52.941751 
L 337.769829 30.206806 
L 338.072743 38.70875 
L 338.377208 38.57261 
L 338.679406 39.427457 
L 338.982084 47.481489 
L 339.283145 37.276804 
L 339.583204 52.790423 
L 339.882359 37.911206 
L 340.187521 36.236395 
L 340.789854 60.262409 
L 341.090512 60.262409 
L 341.38988 50.671319 
L 341.688538 51.559973 
L 342.590938 51.461188 
L 342.891062 49.638624 
L 343.191641 49.638624 
L 343.491811 40.496287 
L 343.791125 41.619535 
L 344.093678 52.703979 
L 344.39609 44.31545 
L 344.696655 44.31545 
L 344.999808 47.815268 
L 345.299589 33.196538 
L 345.59881 33.88942 
L 345.901293 33.88942 
L 346.204164 36.190325 
L 346.506818 17.28 
L 346.506818 17.28 
" clip-path="url(#p0b6af88682)" style="fill: none; stroke: #1f77b4; stroke-width: 1.5; stroke-linecap: square"/>
   </g>
   <g id="patch_3">
    <path d="M 26.925 228.96 
L 26.925 7.2 
" style="fill: none; stroke: #000000; stroke-width: 0.8; stroke-linejoin: miter; stroke-linecap: square"/>
   </g>
   <g id="patch_4">
    <path d="M 361.725 228.96 
L 361.725 7.2 
" style="fill: none; stroke: #000000; stroke-width: 0.8; stroke-linejoin: miter; stroke-linecap: square"/>
   </g>
   <g id="patch_5">
    <path d="M 26.925 228.96 
L 361.725 228.96 
" style="fill: none; stroke: #000000; stroke-width: 0.8; stroke-linejoin: miter; stroke-linecap: square"/>
   </g>
   <g id="patch_6">
    <path d="M 26.925 7.2 
L 361.725 7.2 
" style="fill: none; stroke: #000000; stroke-width: 0.8; stroke-linejoin: miter; stroke-linecap: square"/>
   </g>
   <g id="legend_1">
    <g id="patch_7">
     <path d="M 33.925 29.878125 
L 187.314063 29.878125 
Q 189.314063 29.878125 189.314063 27.878125 
L 189.314063 14.2 
Q 189.314063 12.2 187.314063 12.2 
L 33.925 12.2 
Q 31.925 12.2 31.925 14.2 
L 31.925 27.878125 
Q 31.925 29.878125 33.925 29.878125 
z
" style="fill: #ffffff; opacity: 0.8; stroke: #cccccc; stroke-linejoin: miter"/>
    </g>
    <g id="line2d_13">
     <path d="M 35.925 20.298437 
L 45.925 20.298437 
L 55.925 20.298437 
" style="fill: none; stroke: #1f77b4; stroke-width: 1.5; stroke-linecap: square"/>
    </g>
    <g id="text_12">
     <!-- node storage proportion -->
     <g transform="translate(63.925 23.798437) scale(0.1 -0.1)">
      <defs>
       <path id="DejaVuSans-6e" d="M 3513 2113 
L 3513 0 
L 2938 0 
L 2938 2094 
Q 2938 2591 2744 2837 
Q 2550 3084 2163 3084 
Q 1697 3084 1428 2787 
Q 1159 2491 1159 1978 
L 1159 0 
L 581 0 
L 581 3500 
L 1159 3500 
L 1159 2956 
Q 1366 3272 1645 3428 
Q 1925 3584 2291 3584 
Q 2894 3584 3203 3211 
Q 3513 2838 3513 2113 
z
" transform="scale(0.015625)"/>
       <path id="DejaVuSans-6f" d="M 1959 3097 
Q 1497 3097 1228 2736 
Q 959 2375 959 1747 
Q 959 1119 1226 758 
Q 1494 397 1959 397 
Q 2419 397 2687 759 
Q 2956 1122 2956 1747 
Q 2956 2369 2687 2733 
Q 2419 3097 1959 3097 
z
M 1959 3584 
Q 2709 3584 3137 3096 
Q 3566 2609 3566 1747 
Q 3566 888 3137 398 
Q 2709 -91 1959 -91 
Q 1206 -91 779 398 
Q 353 888 353 1747 
Q 353 2609 779 3096 
Q 1206 3584 1959 3584 
z
" transform="scale(0.015625)"/>
       <path id="DejaVuSans-64" d="M 2906 2969 
L 2906 4863 
L 3481 4863 
L 3481 0 
L 2906 0 
L 2906 525 
Q 2725 213 2448 61 
Q 2172 -91 1784 -91 
Q 1150 -91 751 415 
Q 353 922 353 1747 
Q 353 2572 751 3078 
Q 1150 3584 1784 3584 
Q 2172 3584 2448 3432 
Q 2725 3281 2906 2969 
z
M 947 1747 
Q 947 1113 1208 752 
Q 1469 391 1925 391 
Q 2381 391 2643 752 
Q 2906 1113 2906 1747 
Q 2906 2381 2643 2742 
Q 2381 3103 1925 3103 
Q 1469 3103 1208 2742 
Q 947 2381 947 1747 
z
" transform="scale(0.015625)"/>
       <path id="DejaVuSans-65" d="M 3597 1894 
L 3597 1613 
L 953 1613 
Q 991 1019 1311 708 
Q 1631 397 2203 397 
Q 2534 397 2845 478 
Q 3156 559 3463 722 
L 3463 178 
Q 3153 47 2828 -22 
Q 2503 -91 2169 -91 
Q 1331 -91 842 396 
Q 353 884 353 1716 
Q 353 2575 817 3079 
Q 1281 3584 2069 3584 
Q 2775 3584 3186 3129 
Q 3597 2675 3597 1894 
z
M 3022 2063 
Q 3016 2534 2758 2815 
Q 2500 3097 2075 3097 
Q 1594 3097 1305 2825 
Q 1016 2553 972 2059 
L 3022 2063 
z
" transform="scale(0.015625)"/>
       <path id="DejaVuSans-20" transform="scale(0.015625)"/>
       <path id="DejaVuSans-73" d="M 2834 3397 
L 2834 2853 
Q 2591 2978 2328 3040 
Q 2066 3103 1784 3103 
Q 1356 3103 1142 2972 
Q 928 2841 928 2578 
Q 928 2378 1081 2264 
Q 1234 2150 1697 2047 
L 1894 2003 
Q 2506 1872 2764 1633 
Q 3022 1394 3022 966 
Q 3022 478 2636 193 
Q 2250 -91 1575 -91 
Q 1294 -91 989 -36 
Q 684 19 347 128 
L 347 722 
Q 666 556 975 473 
Q 1284 391 1588 391 
Q 1994 391 2212 530 
Q 2431 669 2431 922 
Q 2431 1156 2273 1281 
Q 2116 1406 1581 1522 
L 1381 1569 
Q 847 1681 609 1914 
Q 372 2147 372 2553 
Q 372 3047 722 3315 
Q 1072 3584 1716 3584 
Q 2034 3584 2315 3537 
Q 2597 3491 2834 3397 
z
" transform="scale(0.015625)"/>
       <path id="DejaVuSans-74" d="M 1172 4494 
L 1172 3500 
L 2356 3500 
L 2356 3053 
L 1172 3053 
L 1172 1153 
Q 1172 725 1289 603 
Q 1406 481 1766 481 
L 2356 481 
L 2356 0 
L 1766 0 
Q 1100 0 847 248 
Q 594 497 594 1153 
L 594 3053 
L 172 3053 
L 172 3500 
L 594 3500 
L 594 4494 
L 1172 4494 
z
" transform="scale(0.015625)"/>
       <path id="DejaVuSans-72" d="M 2631 2963 
Q 2534 3019 2420 3045 
Q 2306 3072 2169 3072 
Q 1681 3072 1420 2755 
Q 1159 2438 1159 1844 
L 1159 0 
L 581 0 
L 581 3500 
L 1159 3500 
L 1159 2956 
Q 1341 3275 1631 3429 
Q 1922 3584 2338 3584 
Q 2397 3584 2469 3576 
Q 2541 3569 2628 3553 
L 2631 2963 
z
" transform="scale(0.015625)"/>
       <path id="DejaVuSans-61" d="M 2194 1759 
Q 1497 1759 1228 1600 
Q 959 1441 959 1056 
Q 959 750 1161 570 
Q 1363 391 1709 391 
Q 2188 391 2477 730 
Q 2766 1069 2766 1631 
L 2766 1759 
L 2194 1759 
z
M 3341 1997 
L 3341 0 
L 2766 0 
L 2766 531 
Q 2569 213 2275 61 
Q 1981 -91 1556 -91 
Q 1019 -91 701 211 
Q 384 513 384 1019 
Q 384 1609 779 1909 
Q 1175 2209 1959 2209 
L 2766 2209 
L 2766 2266 
Q 2766 2663 2505 2880 
Q 2244 3097 1772 3097 
Q 1472 3097 1187 3025 
Q 903 2953 641 2809 
L 641 3341 
Q 956 3463 1253 3523 
Q 1550 3584 1831 3584 
Q 2591 3584 2966 3190 
Q 3341 2797 3341 1997 
z
" transform="scale(0.015625)"/>
       <path id="DejaVuSans-67" d="M 2906 1791 
Q 2906 2416 2648 2759 
Q 2391 3103 1925 3103 
Q 1463 3103 1205 2759 
Q 947 2416 947 1791 
Q 947 1169 1205 825 
Q 1463 481 1925 481 
Q 2391 481 2648 825 
Q 2906 1169 2906 1791 
z
M 3481 434 
Q 3481 -459 3084 -895 
Q 2688 -1331 1869 -1331 
Q 1566 -1331 1297 -1286 
Q 1028 -1241 775 -1147 
L 775 -588 
Q 1028 -725 1275 -790 
Q 1522 -856 1778 -856 
Q 2344 -856 2625 -561 
Q 2906 -266 2906 331 
L 2906 616 
Q 2728 306 2450 153 
Q 2172 0 1784 0 
Q 1141 0 747 490 
Q 353 981 353 1791 
Q 353 2603 747 3093 
Q 1141 3584 1784 3584 
Q 2172 3584 2450 3431 
Q 2728 3278 2906 2969 
L 2906 3500 
L 3481 3500 
L 3481 434 
z
" transform="scale(0.015625)"/>
       <path id="DejaVuSans-70" d="M 1159 525 
L 1159 -1331 
L 581 -1331 
L 581 3500 
L 1159 3500 
L 1159 2969 
Q 1341 3281 1617 3432 
Q 1894 3584 2278 3584 
Q 2916 3584 3314 3078 
Q 3713 2572 3713 1747 
Q 3713 922 3314 415 
Q 2916 -91 2278 -91 
Q 1894 -91 1617 61 
Q 1341 213 1159 525 
z
M 3116 1747 
Q 3116 2381 2855 2742 
Q 2594 3103 2138 3103 
Q 1681 3103 1420 2742 
Q 1159 2381 1159 1747 
Q 1159 1113 1420 752 
Q 1681 391 2138 391 
Q 2594 391 2855 752 
Q 3116 1113 3116 1747 
z
" transform="scale(0.015625)"/>
       <path id="DejaVuSans-69" d="M 603 3500 
L 1178 3500 
L 1178 0 
L 603 0 
L 603 3500 
z
M 603 4863 
L 1178 4863 
L 1178 4134 
L 603 4134 
L 603 4863 
z
" transform="scale(0.015625)"/>
      </defs>
      <use xlink:href="#DejaVuSans-6e"/>
      <use xlink:href="#DejaVuSans-6f" x="63.378906"/>
      <use xlink:href="#DejaVuSans-64" x="124.560547"/>
      <use xlink:href="#DejaVuSans-65" x="188.037109"/>
      <use xlink:href="#DejaVuSans-20" x="249.560547"/>
      <use xlink:href="#DejaVuSans-73" x="281.347656"/>
      <use xlink:href="#DejaVuSans-74" x="333.447266"/>
      <use xlink:href="#DejaVuSans-6f" x="372.65625"/>
      <use xlink:href="#DejaVuSans-72" x="433.837891"/>
      <use xlink:href="#DejaVuSans-61" x="474.951172"/>
      <use xlink:href="#DejaVuSans-67" x="536.230469"/>
      <use xlink:href="#DejaVuSans-65" x="599.707031"/>
      <use xlink:href="#DejaVuSans-20" x="661.230469"/>
      <use xlink:href="#DejaVuSans-70" x="693.017578"/>
      <use xlink:href="#DejaVuSans-72" x="756.494141"/>
      <use xlink:href="#DejaVuSans-6f" x="795.357422"/>
      <use xlink:href="#DejaVuSans-70" x="856.539062"/>
      <use xlink:href="#DejaVuSans-6f" x="920.015625"/>
      <use xlink:href="#DejaVuSans-72" x="981.197266"/>
      <use xlink:href="#DejaVuSans-74" x="1022.310547"/>
      <use xlink:href="#DejaVuSans-69" x="1061.519531"/>
      <use xlink:href="#DejaVuSans-6f" x="1089.302734"/>
      <use xlink:href="#DejaVuSans-6e" x="1150.484375"/>
     </g>
    </g>
   </g>
  </g>
 </g>
 <defs>
  <clipPath id="p0b6af88682">
   <rect x="26.925" y="7.2" width="334.8" height="221.76"/>
  </clipPath>
 </defs>
</svg>
