<?xml version="1.0" encoding="utf-8" standalone="no"?>
<!DOCTYPE svg PUBLIC "-//W3C//DTD SVG 1.1//EN"
  "http://www.w3.org/Graphics/SVG/1.1/DTD/svg11.dtd">
<svg xmlns:xlink="http://www.w3.org/1999/xlink" width="378.465625pt" height="252.838125pt" viewBox="0 0 378.465625 252.838125" xmlns="http://www.w3.org/2000/svg" version="1.1">
 <metadata>
  <rdf:RDF xmlns:dc="http://purl.org/dc/elements/1.1/" xmlns:cc="http://creativecommons.org/ns#" xmlns:rdf="http://www.w3.org/1999/02/22-rdf-syntax-ns#">
   <cc:Work>
    <dc:type rdf:resource="http://purl.org/dc/dcmitype/StillImage"/>
    <dc:date>2023-04-19T16:55:16.757964</dc:date>
    <dc:format>image/svg+xml</dc:format>
    <dc:creator>
     <cc:Agent>
      <dc:title>Matplotlib v3.6.2, https://matplotlib.org/</dc:title>
     </cc:Agent>
    </dc:creator>
   </cc:Work>
  </rdf:RDF>
 </metadata>
 <defs>
  <style type="text/css">*{stroke-linejoin: round; stroke-linecap: butt}</style>
 </defs>
 <g id="figure_1">
  <g id="patch_1">
   <path d="M 0 252.838125 
L 378.465625 252.838125 
L 378.465625 0 
L 0 0 
z
" style="fill: #ffffff"/>
  </g>
  <g id="axes_1">
   <g id="patch_2">
    <path d="M 36.465625 228.96 
L 371.265625 228.96 
L 371.265625 7.2 
L 36.465625 7.2 
z
" style="fill: #ffffff"/>
   </g>
   <g id="matplotlib.axis_1">
    <g id="xtick_1">
     <g id="line2d_1">
      <defs>
       <path id="md4a4d1c9d1" d="M 0 0 
L 0 3.5 
" style="stroke: #000000; stroke-width: 0.8"/>
      </defs>
      <g>
       <use xlink:href="#md4a4d1c9d1" x="51.683807" y="228.96" style="stroke: #000000; stroke-width: 0.8"/>
      </g>
     </g>
     <g id="text_1">
      <!-- 0 -->
      <g transform="translate(48.502557 243.558437) scale(0.1 -0.1)">
       <defs>
        <path id="DejaVuSans-30" d="M 2034 4250 
Q 1547 4250 1301 3770 
Q 1056 3291 1056 2328 
Q 1056 1369 1301 889 
Q 1547 409 2034 409 
Q 2525 409 2770 889 
Q 3016 1369 3016 2328 
Q 3016 3291 2770 3770 
Q 2525 4250 2034 4250 
z
M 2034 4750 
Q 2819 4750 3233 4129 
Q 3647 3509 3647 2328 
Q 3647 1150 3233 529 
Q 2819 -91 2034 -91 
Q 1250 -91 836 529 
Q 422 1150 422 2328 
Q 422 3509 836 4129 
Q 1250 4750 2034 4750 
z
" transform="scale(0.015625)"/>
       </defs>
       <use xlink:href="#DejaVuSans-30"/>
      </g>
     </g>
    </g>
    <g id="xtick_2">
     <g id="line2d_2">
      <g>
       <use xlink:href="#md4a4d1c9d1" x="112.556534" y="228.96" style="stroke: #000000; stroke-width: 0.8"/>
      </g>
     </g>
     <g id="text_2">
      <!-- 200 -->
      <g transform="translate(103.012784 243.558437) scale(0.1 -0.1)">
       <defs>
        <path id="DejaVuSans-32" d="M 1228 531 
L 3431 531 
L 3431 0 
L 469 0 
L 469 531 
Q 828 903 1448 1529 
Q 2069 2156 2228 2338 
Q 2531 2678 2651 2914 
Q 2772 3150 2772 3378 
Q 2772 3750 2511 3984 
Q 2250 4219 1831 4219 
Q 1534 4219 1204 4116 
Q 875 4013 500 3803 
L 500 4441 
Q 881 4594 1212 4672 
Q 1544 4750 1819 4750 
Q 2544 4750 2975 4387 
Q 3406 4025 3406 3419 
Q 3406 3131 3298 2873 
Q 3191 2616 2906 2266 
Q 2828 2175 2409 1742 
Q 1991 1309 1228 531 
z
" transform="scale(0.015625)"/>
       </defs>
       <use xlink:href="#DejaVuSans-32"/>
       <use xlink:href="#DejaVuSans-30" x="63.623047"/>
       <use xlink:href="#DejaVuSans-30" x="127.246094"/>
      </g>
     </g>
    </g>
    <g id="xtick_3">
     <g id="line2d_3">
      <g>
       <use xlink:href="#md4a4d1c9d1" x="173.429261" y="228.96" style="stroke: #000000; stroke-width: 0.8"/>
      </g>
     </g>
     <g id="text_3">
      <!-- 400 -->
      <g transform="translate(163.885511 243.558437) scale(0.1 -0.1)">
       <defs>
        <path id="DejaVuSans-34" d="M 2419 4116 
L 825 1625 
L 2419 1625 
L 2419 4116 
z
M 2253 4666 
L 3047 4666 
L 3047 1625 
L 3713 1625 
L 3713 1100 
L 3047 1100 
L 3047 0 
L 2419 0 
L 2419 1100 
L 313 1100 
L 313 1709 
L 2253 4666 
z
" transform="scale(0.015625)"/>
       </defs>
       <use xlink:href="#DejaVuSans-34"/>
       <use xlink:href="#DejaVuSans-30" x="63.623047"/>
       <use xlink:href="#DejaVuSans-30" x="127.246094"/>
      </g>
     </g>
    </g>
    <g id="xtick_4">
     <g id="line2d_4">
      <g>
       <use xlink:href="#md4a4d1c9d1" x="234.301989" y="228.96" style="stroke: #000000; stroke-width: 0.8"/>
      </g>
     </g>
     <g id="text_4">
      <!-- 600 -->
      <g transform="translate(224.758239 243.558437) scale(0.1 -0.1)">
       <defs>
        <path id="DejaVuSans-36" d="M 2113 2584 
Q 1688 2584 1439 2293 
Q 1191 2003 1191 1497 
Q 1191 994 1439 701 
Q 1688 409 2113 409 
Q 2538 409 2786 701 
Q 3034 994 3034 1497 
Q 3034 2003 2786 2293 
Q 2538 2584 2113 2584 
z
M 3366 4563 
L 3366 3988 
Q 3128 4100 2886 4159 
Q 2644 4219 2406 4219 
Q 1781 4219 1451 3797 
Q 1122 3375 1075 2522 
Q 1259 2794 1537 2939 
Q 1816 3084 2150 3084 
Q 2853 3084 3261 2657 
Q 3669 2231 3669 1497 
Q 3669 778 3244 343 
Q 2819 -91 2113 -91 
Q 1303 -91 875 529 
Q 447 1150 447 2328 
Q 447 3434 972 4092 
Q 1497 4750 2381 4750 
Q 2619 4750 2861 4703 
Q 3103 4656 3366 4563 
z
" transform="scale(0.015625)"/>
       </defs>
       <use xlink:href="#DejaVuSans-36"/>
       <use xlink:href="#DejaVuSans-30" x="63.623047"/>
       <use xlink:href="#DejaVuSans-30" x="127.246094"/>
      </g>
     </g>
    </g>
    <g id="xtick_5">
     <g id="line2d_5">
      <g>
       <use xlink:href="#md4a4d1c9d1" x="295.174716" y="228.96" style="stroke: #000000; stroke-width: 0.8"/>
      </g>
     </g>
     <g id="text_5">
      <!-- 800 -->
      <g transform="translate(285.630966 243.558437) scale(0.1 -0.1)">
       <defs>
        <path id="DejaVuSans-38" d="M 2034 2216 
Q 1584 2216 1326 1975 
Q 1069 1734 1069 1313 
Q 1069 891 1326 650 
Q 1584 409 2034 409 
Q 2484 409 2743 651 
Q 3003 894 3003 1313 
Q 3003 1734 2745 1975 
Q 2488 2216 2034 2216 
z
M 1403 2484 
Q 997 2584 770 2862 
Q 544 3141 544 3541 
Q 544 4100 942 4425 
Q 1341 4750 2034 4750 
Q 2731 4750 3128 4425 
Q 3525 4100 3525 3541 
Q 3525 3141 3298 2862 
Q 3072 2584 2669 2484 
Q 3125 2378 3379 2068 
Q 3634 1759 3634 1313 
Q 3634 634 3220 271 
Q 2806 -91 2034 -91 
Q 1263 -91 848 271 
Q 434 634 434 1313 
Q 434 1759 690 2068 
Q 947 2378 1403 2484 
z
M 1172 3481 
Q 1172 3119 1398 2916 
Q 1625 2713 2034 2713 
Q 2441 2713 2670 2916 
Q 2900 3119 2900 3481 
Q 2900 3844 2670 4047 
Q 2441 4250 2034 4250 
Q 1625 4250 1398 4047 
Q 1172 3844 1172 3481 
z
" transform="scale(0.015625)"/>
       </defs>
       <use xlink:href="#DejaVuSans-38"/>
       <use xlink:href="#DejaVuSans-30" x="63.623047"/>
       <use xlink:href="#DejaVuSans-30" x="127.246094"/>
      </g>
     </g>
    </g>
    <g id="xtick_6">
     <g id="line2d_6">
      <g>
       <use xlink:href="#md4a4d1c9d1" x="356.047443" y="228.96" style="stroke: #000000; stroke-width: 0.8"/>
      </g>
     </g>
     <g id="text_6">
      <!-- 1000 -->
      <g transform="translate(343.322443 243.558437) scale(0.1 -0.1)">
       <defs>
        <path id="DejaVuSans-31" d="M 794 531 
L 1825 531 
L 1825 4091 
L 703 3866 
L 703 4441 
L 1819 4666 
L 2450 4666 
L 2450 531 
L 3481 531 
L 3481 0 
L 794 0 
L 794 531 
z
" transform="scale(0.015625)"/>
       </defs>
       <use xlink:href="#DejaVuSans-31"/>
       <use xlink:href="#DejaVuSans-30" x="63.623047"/>
       <use xlink:href="#DejaVuSans-30" x="127.246094"/>
       <use xlink:href="#DejaVuSans-30" x="190.869141"/>
      </g>
     </g>
    </g>
   </g>
   <g id="matplotlib.axis_2">
    <g id="ytick_1">
     <g id="line2d_7">
      <defs>
       <path id="m04c7cf4940" d="M 0 0 
L -3.5 0 
" style="stroke: #000000; stroke-width: 0.8"/>
      </defs>
      <g>
       <use xlink:href="#m04c7cf4940" x="36.465625" y="210.63335" style="stroke: #000000; stroke-width: 0.8"/>
      </g>
     </g>
     <g id="text_7">
      <!-- 70.0 -->
      <g transform="translate(7.2 214.432569) scale(0.1 -0.1)">
       <defs>
        <path id="DejaVuSans-37" d="M 525 4666 
L 3525 4666 
L 3525 4397 
L 1831 0 
L 1172 0 
L 2766 4134 
L 525 4134 
L 525 4666 
z
" transform="scale(0.015625)"/>
        <path id="DejaVuSans-2e" d="M 684 794 
L 1344 794 
L 1344 0 
L 684 0 
L 684 794 
z
" transform="scale(0.015625)"/>
       </defs>
       <use xlink:href="#DejaVuSans-37"/>
       <use xlink:href="#DejaVuSans-30" x="63.623047"/>
       <use xlink:href="#DejaVuSans-2e" x="127.246094"/>
       <use xlink:href="#DejaVuSans-30" x="159.033203"/>
      </g>
     </g>
    </g>
    <g id="ytick_2">
     <g id="line2d_8">
      <g>
       <use xlink:href="#m04c7cf4940" x="36.465625" y="184.461874" style="stroke: #000000; stroke-width: 0.8"/>
      </g>
     </g>
     <g id="text_8">
      <!-- 72.5 -->
      <g transform="translate(7.2 188.261093) scale(0.1 -0.1)">
       <defs>
        <path id="DejaVuSans-35" d="M 691 4666 
L 3169 4666 
L 3169 4134 
L 1269 4134 
L 1269 2991 
Q 1406 3038 1543 3061 
Q 1681 3084 1819 3084 
Q 2600 3084 3056 2656 
Q 3513 2228 3513 1497 
Q 3513 744 3044 326 
Q 2575 -91 1722 -91 
Q 1428 -91 1123 -41 
Q 819 9 494 109 
L 494 744 
Q 775 591 1075 516 
Q 1375 441 1709 441 
Q 2250 441 2565 725 
Q 2881 1009 2881 1497 
Q 2881 1984 2565 2268 
Q 2250 2553 1709 2553 
Q 1456 2553 1204 2497 
Q 953 2441 691 2322 
L 691 4666 
z
" transform="scale(0.015625)"/>
       </defs>
       <use xlink:href="#DejaVuSans-37"/>
       <use xlink:href="#DejaVuSans-32" x="63.623047"/>
       <use xlink:href="#DejaVuSans-2e" x="127.246094"/>
       <use xlink:href="#DejaVuSans-35" x="159.033203"/>
      </g>
     </g>
    </g>
    <g id="ytick_3">
     <g id="line2d_9">
      <g>
       <use xlink:href="#m04c7cf4940" x="36.465625" y="158.290398" style="stroke: #000000; stroke-width: 0.8"/>
      </g>
     </g>
     <g id="text_9">
      <!-- 75.0 -->
      <g transform="translate(7.2 162.089616) scale(0.1 -0.1)">
       <use xlink:href="#DejaVuSans-37"/>
       <use xlink:href="#DejaVuSans-35" x="63.623047"/>
       <use xlink:href="#DejaVuSans-2e" x="127.246094"/>
       <use xlink:href="#DejaVuSans-30" x="159.033203"/>
      </g>
     </g>
    </g>
    <g id="ytick_4">
     <g id="line2d_10">
      <g>
       <use xlink:href="#m04c7cf4940" x="36.465625" y="132.118921" style="stroke: #000000; stroke-width: 0.8"/>
      </g>
     </g>
     <g id="text_10">
      <!-- 77.5 -->
      <g transform="translate(7.2 135.91814) scale(0.1 -0.1)">
       <use xlink:href="#DejaVuSans-37"/>
       <use xlink:href="#DejaVuSans-37" x="63.623047"/>
       <use xlink:href="#DejaVuSans-2e" x="127.246094"/>
       <use xlink:href="#DejaVuSans-35" x="159.033203"/>
      </g>
     </g>
    </g>
    <g id="ytick_5">
     <g id="line2d_11">
      <g>
       <use xlink:href="#m04c7cf4940" x="36.465625" y="105.947445" style="stroke: #000000; stroke-width: 0.8"/>
      </g>
     </g>
     <g id="text_11">
      <!-- 80.0 -->
      <g transform="translate(7.2 109.746664) scale(0.1 -0.1)">
       <use xlink:href="#DejaVuSans-38"/>
       <use xlink:href="#DejaVuSans-30" x="63.623047"/>
       <use xlink:href="#DejaVuSans-2e" x="127.246094"/>
       <use xlink:href="#DejaVuSans-30" x="159.033203"/>
      </g>
     </g>
    </g>
    <g id="ytick_6">
     <g id="line2d_12">
      <g>
       <use xlink:href="#m04c7cf4940" x="36.465625" y="79.775969" style="stroke: #000000; stroke-width: 0.8"/>
      </g>
     </g>
     <g id="text_12">
      <!-- 82.5 -->
      <g transform="translate(7.2 83.575187) scale(0.1 -0.1)">
       <use xlink:href="#DejaVuSans-38"/>
       <use xlink:href="#DejaVuSans-32" x="63.623047"/>
       <use xlink:href="#DejaVuSans-2e" x="127.246094"/>
       <use xlink:href="#DejaVuSans-35" x="159.033203"/>
      </g>
     </g>
    </g>
    <g id="ytick_7">
     <g id="line2d_13">
      <g>
       <use xlink:href="#m04c7cf4940" x="36.465625" y="53.604492" style="stroke: #000000; stroke-width: 0.8"/>
      </g>
     </g>
     <g id="text_13">
      <!-- 85.0 -->
      <g transform="translate(7.2 57.403711) scale(0.1 -0.1)">
       <use xlink:href="#DejaVuSans-38"/>
       <use xlink:href="#DejaVuSans-35" x="63.623047"/>
       <use xlink:href="#DejaVuSans-2e" x="127.246094"/>
       <use xlink:href="#DejaVuSans-30" x="159.033203"/>
      </g>
     </g>
    </g>
    <g id="ytick_8">
     <g id="line2d_14">
      <g>
       <use xlink:href="#m04c7cf4940" x="36.465625" y="27.433016" style="stroke: #000000; stroke-width: 0.8"/>
      </g>
     </g>
     <g id="text_14">
      <!-- 87.5 -->
      <g transform="translate(7.2 31.232235) scale(0.1 -0.1)">
       <use xlink:href="#DejaVuSans-38"/>
       <use xlink:href="#DejaVuSans-37" x="63.623047"/>
       <use xlink:href="#DejaVuSans-2e" x="127.246094"/>
       <use xlink:href="#DejaVuSans-35" x="159.033203"/>
      </g>
     </g>
    </g>
   </g>
   <g id="line2d_15">
    <path d="M 51.683807 22.92937 
L 51.98817 22.92937 
L 52.292534 17.28 
L 52.596898 17.28 
L 52.901261 33.014556 
L 53.205625 35.818049 
L 53.509989 36.223298 
L 53.814352 39.872423 
L 54.727443 39.872423 
L 55.031807 41.049478 
L 55.33617 43.000114 
L 55.640534 42.610889 
L 55.944898 48.692832 
L 56.249261 48.692832 
L 56.553625 51.445839 
L 56.857989 48.924331 
L 57.162352 49.417854 
L 57.466716 50.94076 
L 57.77108 50.94076 
L 58.075443 51.55401 
L 58.379807 51.583173 
L 59.292898 53.380633 
L 59.597261 55.050855 
L 60.205989 55.050855 
L 60.510352 55.779404 
L 60.814716 55.050855 
L 61.11908 55.166154 
L 61.727807 56.717324 
L 62.03217 58.234733 
L 62.336534 58.234733 
L 62.640898 58.757642 
L 62.945261 58.350033 
L 63.249625 58.963282 
L 64.162716 58.963282 
L 64.771443 59.593633 
L 65.075807 60.377087 
L 65.684534 60.377087 
L 65.988898 61.744495 
L 66.293261 60.961014 
L 66.597625 62.374819 
L 67.510716 62.374819 
L 68.119443 64.523867 
L 68.423807 63.591405 
L 68.72817 63.591405 
L 69.032534 64.239645 
L 69.336898 63.591405 
L 69.945625 63.591405 
L 70.249989 64.663259 
L 70.554352 63.591405 
L 70.858716 64.700748 
L 71.16308 64.239645 
L 71.467443 65.182764 
L 72.380534 65.182764 
L 72.684898 65.344176 
L 72.989261 66.303554 
L 73.293625 66.632451 
L 73.597989 67.591829 
L 73.902352 66.632451 
L 74.206716 66.861215 
L 74.51108 68.513541 
L 74.815443 67.591829 
L 75.728534 67.591829 
L 76.032898 68.272746 
L 76.337261 68.272746 
L 76.641625 69.413758 
L 76.945989 68.718247 
L 77.250352 68.718247 
L 77.85908 70.374786 
L 78.163443 70.374786 
L 78.467807 71.055703 
L 78.77217 71.055703 
L 79.380898 72.377642 
L 79.685261 72.377642 
L 79.989625 73.141499 
L 80.293989 73.141499 
L 80.598352 74.282511 
L 80.902716 74.282511 
L 81.20708 74.963428 
L 82.12017 74.963428 
L 82.424534 78.178788 
L 82.728898 78.531231 
L 83.033261 78.178788 
L 83.337625 75.571194 
L 83.641989 75.996787 
L 83.946352 78.178788 
L 84.250716 79.212148 
L 84.55508 78.531231 
L 84.859443 78.531231 
L 85.163807 79.000505 
L 85.46817 78.779313 
L 85.772534 79.212148 
L 86.076898 78.779313 
L 86.381261 78.779313 
L 86.685625 80.905271 
L 86.989989 79.600629 
L 87.294352 80.304747 
L 87.598716 81.356202 
L 87.90308 81.80698 
L 88.207443 81.956726 
L 88.81617 81.981911 
L 89.120534 84.207061 
L 89.424898 82.637643 
L 89.729261 82.011455 
L 90.033625 82.720603 
L 90.337989 82.32792 
L 91.25108 82.461653 
L 91.555443 82.774752 
L 91.859807 82.65692 
L 92.16417 84.104216 
L 93.077261 84.104216 
L 93.381625 85.155671 
L 93.685989 85.155671 
L 93.990352 84.52016 
L 94.59908 85.428477 
L 95.207807 85.468771 
L 95.51217 85.888194 
L 96.120898 85.173154 
L 96.425261 85.904817 
L 96.729625 85.597707 
L 97.642716 85.597707 
L 97.94708 86.649162 
L 98.251443 86.72354 
L 98.555807 86.649162 
L 99.164534 86.962262 
L 99.468898 87.226458 
L 99.773261 88.068279 
L 100.077625 87.818372 
L 100.381989 88.131472 
L 100.686352 87.298487 
L 100.990716 87.226458 
L 101.29508 89.188586 
L 101.903807 89.262964 
L 102.20817 89.443909 
L 102.512534 89.443909 
L 102.816898 89.60805 
L 103.121261 89.60805 
L 103.425625 89.463186 
L 103.729989 89.747619 
L 104.034352 89.616928 
L 104.64308 89.617758 
L 104.947443 89.828013 
L 105.860534 89.863374 
L 106.164898 92.473249 
L 106.773625 92.473249 
L 107.077989 92.921478 
L 107.686716 92.921478 
L 107.99108 92.547627 
L 108.599807 92.940041 
L 108.90417 92.547627 
L 109.208534 92.678741 
L 109.512898 92.473249 
L 110.730352 93.379593 
L 111.33908 93.379593 
L 111.643443 93.068842 
L 111.947807 93.068842 
L 112.25217 95.494011 
L 112.860898 96.157958 
L 113.469625 96.157958 
L 113.773989 96.511243 
L 114.078352 96.136865 
L 114.68708 96.168708 
L 114.991443 96.366652 
L 115.295807 96.168708 
L 115.60017 96.605699 
L 115.904534 96.605699 
L 116.208898 96.260204 
L 116.513261 96.168708 
L 116.817625 96.605699 
L 117.426352 96.9355 
L 117.730716 96.543086 
L 118.03508 96.675371 
L 118.643807 96.752154 
L 119.556898 96.954041 
L 119.861261 98.111342 
L 120.165625 98.111342 
L 120.469989 97.591284 
L 120.774352 97.407938 
L 121.078716 97.621011 
L 121.38308 98.142886 
L 122.29617 98.213383 
L 122.904898 98.426456 
L 123.209261 98.370344 
L 123.817989 98.985796 
L 124.122352 98.718428 
L 124.426716 98.718428 
L 125.64417 100.316428 
L 125.948534 100.017445 
L 126.252898 100.784237 
L 126.557261 102.343757 
L 126.861625 102.343757 
L 127.165989 103.041359 
L 127.470352 103.315118 
L 127.774716 103.315118 
L 128.07908 104.113753 
L 129.296534 104.113753 
L 129.600898 104.337493 
L 129.905261 104.113753 
L 130.209625 103.662173 
L 130.513989 104.043705 
L 130.818352 104.113753 
L 131.122716 104.311697 
L 131.42708 104.124822 
L 131.731443 104.510082 
L 132.34017 104.428965 
L 132.644534 104.311697 
L 132.948898 104.631094 
L 133.253261 104.423829 
L 134.470716 104.41286 
L 134.77508 104.803886 
L 135.079443 105.998145 
L 135.383807 104.543363 
L 135.992534 104.434452 
L 136.296898 104.828759 
L 136.601261 104.532461 
L 136.905625 105.317794 
L 137.209989 107.163602 
L 139.949261 107.163602 
L 140.253625 107.587228 
L 140.557989 109.618169 
L 140.862352 109.618169 
L 141.166716 107.418703 
L 141.775443 107.522702 
L 142.38417 107.29665 
L 142.688534 107.720276 
L 142.992898 109.727081 
L 143.297261 110.11523 
L 144.514716 110.11523 
L 144.81908 110.789705 
L 145.123443 110.405808 
L 145.427807 110.753811 
L 145.73217 111.374216 
L 146.036534 110.360983 
L 146.949625 110.360983 
L 147.253989 111.017878 
L 147.862716 110.972164 
L 148.16708 111.814633 
L 148.471443 111.814633 
L 148.775807 111.987164 
L 149.08017 112.010732 
L 149.384534 114.148904 
L 149.688898 114.066471 
L 150.297625 114.951515 
L 150.601989 114.409427 
L 150.906352 114.431033 
L 151.210716 114.822931 
L 151.51508 114.605553 
L 151.819443 115.453544 
L 152.42817 115.339854 
L 152.732534 115.339854 
L 153.036898 116.504045 
L 153.341261 115.339854 
L 153.645625 115.73685 
L 153.949989 116.655832 
L 154.254352 115.432824 
L 154.558716 115.708179 
L 154.86308 116.564888 
L 155.167443 115.711829 
L 155.77617 117.74281 
L 156.080534 119.124885 
L 156.384898 117.609244 
L 157.297989 117.609244 
L 157.602352 118.044814 
L 157.906716 119.437456 
L 158.21108 119.861082 
L 159.428534 119.894105 
L 160.037261 120.292412 
L 160.950352 120.242219 
L 161.254716 120.443047 
L 161.55908 120.253205 
L 161.863443 119.894105 
L 162.47217 119.894105 
L 162.776534 120.608452 
L 163.080898 121.784837 
L 163.385261 121.365385 
L 163.993989 121.365385 
L 164.298352 121.541989 
L 164.602716 121.365385 
L 164.90708 122.374597 
L 165.211443 121.731617 
L 165.515807 122.720733 
L 165.82017 123.31965 
L 167.646352 123.31965 
L 167.950716 124.089881 
L 168.25508 123.31965 
L 168.559443 124.92778 
L 169.16817 124.92778 
L 169.472534 123.685883 
L 169.776898 123.685883 
L 170.081261 124.92778 
L 170.385625 123.950432 
L 170.994352 123.950432 
L 171.298716 125.558562 
L 171.60308 124.584736 
L 172.211807 124.569266 
L 172.820534 125.525539 
L 173.124898 124.297037 
L 173.429261 124.297037 
L 173.733625 124.839776 
L 174.037989 124.91587 
L 174.342352 125.490133 
L 174.646716 125.215842 
L 174.95108 125.438747 
L 175.255443 125.438747 
L 176.168534 127.177932 
L 176.472898 127.177932 
L 176.777261 127.497766 
L 177.081625 127.63488 
L 177.385989 127.63488 
L 177.690352 128.607597 
L 177.994716 128.784202 
L 178.29908 128.511973 
L 178.603443 128.474811 
L 178.907807 128.784202 
L 179.516534 128.706274 
L 179.820898 128.706274 
L 180.125261 129.052879 
L 180.429625 129.052879 
L 180.733989 129.213244 
L 181.038352 129.200148 
L 181.342716 129.067362 
L 181.64708 129.771894 
L 181.951443 129.771894 
L 182.255807 131.004383 
L 182.56017 129.771894 
L 182.864534 129.917775 
L 183.168898 131.004383 
L 183.473261 131.004383 
L 183.777625 131.150264 
L 185.299443 131.150264 
L 185.603807 131.623216 
L 185.90817 131.623216 
L 186.212534 132.066973 
L 186.516898 134.201057 
L 186.821261 134.201057 
L 187.125625 134.473435 
L 187.429989 134.473435 
L 187.734352 134.965772 
L 188.038716 137.010865 
L 188.647443 137.862957 
L 189.25617 137.784739 
L 189.560534 138.05191 
L 189.864898 137.784739 
L 190.169261 137.961343 
L 190.473625 138.450051 
L 190.777989 138.722429 
L 191.082352 139.936434 
L 191.386716 139.936434 
L 191.69108 140.145651 
L 191.995443 142.570744 
L 192.299807 143.344617 
L 192.60417 141.426613 
L 193.212898 141.426613 
L 193.517261 141.69899 
L 193.821625 142.413841 
L 194.430352 142.388342 
L 195.03908 142.413841 
L 195.343443 142.115965 
L 195.647807 142.115965 
L 195.95217 144.328094 
L 197.778352 144.328094 
L 198.082716 147.055889 
L 198.38708 147.055889 
L 198.691443 144.603196 
L 198.995807 144.603196 
L 199.30017 145.496035 
L 199.908898 146.021468 
L 200.213261 146.021468 
L 200.517625 147.60354 
L 200.821989 146.476644 
L 201.126352 146.476644 
L 201.430716 147.33099 
L 201.73508 147.603367 
L 202.039443 147.603367 
L 202.343807 148.531671 
L 202.952534 148.531671 
L 203.256898 148.976001 
L 204.169989 148.976001 
L 204.474352 149.316706 
L 204.778716 149.269501 
L 205.08308 149.461026 
L 205.387443 149.412045 
L 205.691807 150.198856 
L 205.99617 149.707174 
L 206.300534 150.112443 
L 206.604898 149.21027 
L 207.213625 150.24046 
L 207.517989 150.807673 
L 207.822352 150.807673 
L 208.126716 151.909418 
L 208.43108 151.909418 
L 209.039807 153.301044 
L 209.34417 153.301044 
L 209.648534 152.659357 
L 209.952898 152.357225 
L 210.257261 153.108405 
L 210.561625 153.108405 
L 210.865989 153.750091 
L 211.170352 153.867279 
L 211.474716 152.982625 
L 212.083443 153.507108 
L 212.69217 153.507108 
L 212.996534 153.902413 
L 213.300898 153.902413 
L 213.605261 153.44544 
L 213.909625 154.040976 
L 214.213989 154.040976 
L 214.518352 154.444215 
L 214.822716 155.236743 
L 215.12708 155.236743 
L 215.431443 155.830479 
L 216.344534 155.830479 
L 216.953261 155.942446 
L 217.257625 155.830479 
L 217.561989 156.102856 
L 218.170716 156.00281 
L 218.47508 156.230827 
L 218.779443 156.633198 
L 219.083807 156.232849 
L 219.692534 157.332622 
L 219.996898 156.490405 
L 220.301261 156.905685 
L 220.605625 156.490405 
L 221.214352 157.280493 
L 221.518716 157.940462 
L 222.127443 157.940462 
L 222.431807 158.25796 
L 223.040534 158.207427 
L 223.344898 158.617247 
L 223.649261 158.617247 
L 223.953625 158.952353 
L 224.257989 158.952353 
L 224.562352 159.611332 
L 225.475443 159.611332 
L 225.779807 160.888387 
L 226.08417 160.888387 
L 226.388534 161.205774 
L 227.910352 161.205774 
L 228.214716 163.970937 
L 228.51908 164.119475 
L 228.823443 164.119475 
L 229.127807 164.237902 
L 229.43217 164.119475 
L 229.736534 165.175986 
L 230.040898 165.175986 
L 230.345261 164.119475 
L 230.649625 165.027447 
L 230.953989 165.174128 
L 231.562716 165.174128 
L 231.86708 165.017874 
L 232.78017 164.913288 
L 233.084534 165.340242 
L 233.388898 165.487526 
L 233.997625 165.488781 
L 234.301989 165.69366 
L 234.606352 165.504835 
L 234.910716 165.958208 
L 235.21508 168.686501 
L 235.519443 165.751943 
L 236.432534 165.807496 
L 236.736898 166.535718 
L 237.041261 166.535718 
L 237.345625 165.843437 
L 237.649989 169.052035 
L 237.954352 166.110402 
L 238.258716 166.110402 
L 238.56308 166.232066 
L 239.171807 166.232066 
L 239.47617 166.748876 
L 239.780534 166.748876 
L 240.084898 167.218304 
L 240.389261 169.026149 
L 240.693625 169.550814 
L 241.606716 169.591053 
L 241.91108 169.591053 
L 242.215443 170.073086 
L 242.519807 169.656435 
L 242.82417 169.656435 
L 243.128534 170.597751 
L 243.432898 170.804528 
L 244.041625 170.804528 
L 244.345989 171.330071 
L 244.650352 171.408706 
L 244.954716 171.767218 
L 245.563443 171.942167 
L 245.867807 171.767218 
L 246.17217 171.767218 
L 246.476534 171.942167 
L 247.085261 171.942167 
L 247.693989 171.749076 
L 247.998352 172.730437 
L 248.302716 172.730437 
L 248.60708 172.905387 
L 248.911443 172.325247 
L 249.215807 172.883658 
L 249.52017 173.017491 
L 249.824534 172.939494 
L 250.128898 173.169369 
L 250.433261 172.913144 
L 250.737625 173.264038 
L 251.346352 172.913144 
L 251.650716 173.282136 
L 251.95508 174.67945 
L 252.259443 173.282136 
L 252.563807 173.282136 
L 252.86817 173.484491 
L 253.476898 173.46949 
L 254.085625 173.860691 
L 254.694352 173.860691 
L 254.998716 175.573979 
L 255.607443 175.573979 
L 255.911807 175.886719 
L 256.21617 175.886719 
L 256.520534 176.439943 
L 257.129261 176.506106 
L 257.433625 177.32539 
L 258.346716 177.387407 
L 258.65108 177.795987 
L 258.955443 177.246746 
L 259.56417 178.051157 
L 259.868534 178.328884 
L 260.172898 178.328884 
L 260.477261 178.116828 
L 260.781625 177.72482 
L 261.085989 178.452394 
L 261.694716 179.099305 
L 261.99908 179.099305 
L 262.303443 180.010918 
L 263.520898 180.033171 
L 263.825261 180.482291 
L 264.129625 180.365685 
L 264.433989 180.623638 
L 265.042716 180.850155 
L 265.34708 180.365685 
L 266.564534 180.399762 
L 266.868898 180.79177 
L 267.173261 181.49071 
L 267.781989 181.49071 
L 268.086352 181.9653 
L 268.999443 181.9653 
L 269.303807 182.090573 
L 269.60817 182.357308 
L 269.912534 182.278039 
L 270.216898 182.357308 
L 270.521261 182.743034 
L 270.825625 182.801995 
L 271.129989 182.360341 
L 272.04308 183.748279 
L 272.347443 182.683187 
L 272.651807 184.093999 
L 272.95617 184.31853 
L 273.260534 183.883335 
L 273.564898 183.883335 
L 273.869261 184.351885 
L 274.477989 184.351885 
L 274.782352 185.656525 
L 275.695443 185.656525 
L 275.999807 185.883132 
L 276.608534 185.769748 
L 277.217261 185.795203 
L 277.521625 186.101348 
L 277.825989 186.101348 
L 278.130352 185.740702 
L 278.434716 185.738809 
L 278.73908 186.240251 
L 279.043443 185.833758 
L 279.347807 186.727804 
L 280.565261 186.690834 
L 280.869625 186.923219 
L 281.173989 186.960189 
L 281.478352 186.727804 
L 282.391443 187.119862 
L 282.695807 187.119862 
L 283.00017 187.26044 
L 283.304534 187.253695 
L 283.608898 187.397589 
L 284.826352 187.489902 
L 285.130716 190.025212 
L 285.43508 187.701862 
L 285.739443 187.701862 
L 286.34817 188.110284 
L 286.652534 188.110284 
L 286.956898 189.702047 
L 288.478716 189.772083 
L 288.78308 190.103705 
L 289.087443 190.103705 
L 289.69617 190.569463 
L 290.304898 190.569463 
L 290.609261 191.786394 
L 290.913625 190.34792 
L 291.522352 190.463225 
L 291.826716 190.95953 
L 292.13108 190.95953 
L 292.435443 190.606692 
L 292.739807 190.80884 
L 293.04417 192.531592 
L 293.957261 192.581426 
L 294.261625 192.722004 
L 294.565989 192.989279 
L 294.870352 192.989279 
L 295.174716 193.5073 
L 295.783443 193.532144 
L 296.087807 193.839592 
L 296.39217 193.532144 
L 296.696534 193.82175 
L 297.305261 193.82816 
L 297.609625 193.82175 
L 297.913989 194.557636 
L 298.522716 194.557636 
L 298.82708 194.2658 
L 299.435807 194.981185 
L 300.044534 194.887447 
L 300.348898 194.942428 
L 300.653261 195.603019 
L 300.957625 195.142405 
L 301.261989 195.511894 
L 301.566352 195.27472 
L 302.17508 195.27472 
L 302.479443 195.579843 
L 303.392534 195.501608 
L 303.696898 195.921398 
L 304.001261 196.129009 
L 304.305625 195.921398 
L 304.609989 196.108897 
L 304.914352 196.108897 
L 305.52308 196.82325 
L 305.827443 197.304344 
L 306.131807 198.077137 
L 306.740534 198.077137 
L 307.044898 197.376969 
L 307.349261 197.392716 
L 308.262352 197.806135 
L 308.566716 197.806135 
L 309.175443 198.113629 
L 309.479807 198.239984 
L 310.088534 198.043316 
L 310.392898 198.370686 
L 310.697261 198.099684 
L 311.001625 198.321714 
L 311.610352 198.345935 
L 311.914716 198.636264 
L 312.21908 198.636264 
L 312.523443 199.505868 
L 314.349625 199.655969 
L 314.653989 199.892559 
L 316.48017 199.932493 
L 316.784534 200.20274 
L 317.393261 200.080786 
L 318.001989 200.156736 
L 318.306352 200.156736 
L 318.610716 200.029742 
L 318.91508 200.137352 
L 319.219443 200.029742 
L 319.523807 200.328402 
L 322.871807 200.42654 
L 323.17617 200.495211 
L 323.480534 201.796279 
L 325.306716 201.796279 
L 325.61108 201.923154 
L 326.219807 201.923154 
L 326.52417 201.796279 
L 327.132898 201.796279 
L 327.437261 202.061778 
L 327.741625 202.089828 
L 328.045989 202.983785 
L 328.350352 202.988661 
L 328.654716 203.190127 
L 330.176534 203.282359 
L 333.22017 203.772156 
L 333.524534 204.037655 
L 333.828898 203.772156 
L 334.437625 204.104408 
L 334.741989 203.977533 
L 335.046352 204.168646 
L 335.350716 205.178046 
L 337.176898 205.202777 
L 337.481261 205.403133 
L 337.785625 205.439466 
L 338.394352 205.186279 
L 338.698716 205.186279 
L 339.307443 205.660676 
L 340.524898 205.720469 
L 340.829261 206.506033 
L 341.437989 206.688123 
L 341.742352 206.583478 
L 342.046716 206.867006 
L 342.35108 205.439517 
L 342.959807 205.403184 
L 343.26417 207.059646 
L 343.568534 207.141235 
L 343.872898 207.598631 
L 344.177261 207.6377 
L 344.481625 208.652979 
L 344.785989 207.415667 
L 345.090352 208.658951 
L 345.69908 208.89343 
L 346.003443 209.285376 
L 346.307807 210.577376 
L 346.61217 209.609005 
L 346.916534 209.609005 
L 347.220898 211.940425 
L 347.525261 212.191682 
L 347.829625 212.191682 
L 348.133989 213.820705 
L 348.438352 213.96947 
L 348.742716 213.96947 
L 349.04708 214.536705 
L 349.351443 213.96947 
L 349.96017 214.550469 
L 350.264534 216.180817 
L 350.568898 216.293551 
L 350.873261 217.59206 
L 351.177625 216.549912 
L 351.481989 216.35432 
L 351.786352 216.566372 
L 352.090716 216.566372 
L 352.699443 217.518633 
L 353.003807 217.123784 
L 353.30817 217.168064 
L 353.916898 217.648712 
L 354.221261 218.468641 
L 354.829989 218.527421 
L 355.134352 218.831141 
L 356.047443 218.88 
L 356.047443 218.88 
" clip-path="url(#p3b9b2b2054)" style="fill: none; stroke: #1f77b4; stroke-width: 1.5; stroke-linecap: square"/>
   </g>
   <g id="patch_3">
    <path d="M 36.465625 228.96 
L 36.465625 7.2 
" style="fill: none; stroke: #000000; stroke-width: 0.8; stroke-linejoin: miter; stroke-linecap: square"/>
   </g>
   <g id="patch_4">
    <path d="M 371.265625 228.96 
L 371.265625 7.2 
" style="fill: none; stroke: #000000; stroke-width: 0.8; stroke-linejoin: miter; stroke-linecap: square"/>
   </g>
   <g id="patch_5">
    <path d="M 36.465625 228.96 
L 371.265625 228.96 
" style="fill: none; stroke: #000000; stroke-width: 0.8; stroke-linejoin: miter; stroke-linecap: square"/>
   </g>
   <g id="patch_6">
    <path d="M 36.465625 7.2 
L 371.265625 7.2 
" style="fill: none; stroke: #000000; stroke-width: 0.8; stroke-linejoin: miter; stroke-linecap: square"/>
   </g>
  </g>
 </g>
 <defs>
  <clipPath id="p3b9b2b2054">
   <rect x="36.465625" y="7.2" width="334.8" height="221.76"/>
  </clipPath>
 </defs>
</svg>
