<?xml version="1.0" encoding="utf-8" standalone="no"?>
<!DOCTYPE svg PUBLIC "-//W3C//DTD SVG 1.1//EN"
  "http://www.w3.org/Graphics/SVG/1.1/DTD/svg11.dtd">
<svg xmlns:xlink="http://www.w3.org/1999/xlink" width="368.925pt" height="252.838125pt" viewBox="0 0 368.925 252.838125" xmlns="http://www.w3.org/2000/svg" version="1.1">
 <metadata>
  <rdf:RDF xmlns:dc="http://purl.org/dc/elements/1.1/" xmlns:cc="http://creativecommons.org/ns#" xmlns:rdf="http://www.w3.org/1999/02/22-rdf-syntax-ns#">
   <cc:Work>
    <dc:type rdf:resource="http://purl.org/dc/dcmitype/StillImage"/>
    <dc:date>2023-04-06T12:13:44.334277</dc:date>
    <dc:format>image/svg+xml</dc:format>
    <dc:creator>
     <cc:Agent>
      <dc:title>Matplotlib v3.7.1, https://matplotlib.org/</dc:title>
     </cc:Agent>
    </dc:creator>
   </cc:Work>
  </rdf:RDF>
 </metadata>
 <defs>
  <style type="text/css">*{stroke-linejoin: round; stroke-linecap: butt}</style>
 </defs>
 <g id="figure_1">
  <g id="patch_1">
   <path d="M -0 252.838125 
L 368.925 252.838125 
L 368.925 0 
L -0 0 
z
" style="fill: #ffffff"/>
  </g>
  <g id="axes_1">
   <g id="patch_2">
    <path d="M 26.925 228.96 
L 361.725 228.96 
L 361.725 7.2 
L 26.925 7.2 
z
" style="fill: #ffffff"/>
   </g>
   <g id="matplotlib.axis_1">
    <g id="xtick_1">
     <g id="line2d_1">
      <defs>
       <path id="m4fd178bb24" d="M 0 0 
L 0 3.5 
" style="stroke: #000000; stroke-width: 0.8"/>
      </defs>
      <g>
       <use xlink:href="#m4fd178bb24" x="42.143182" y="228.96" style="stroke: #000000; stroke-width: 0.8"/>
      </g>
     </g>
     <g id="text_1">
      <!-- 0 -->
      <g transform="translate(38.961932 243.558437) scale(0.1 -0.1)">
       <defs>
        <path id="DejaVuSans-30" d="M 2034 4250 
Q 1547 4250 1301 3770 
Q 1056 3291 1056 2328 
Q 1056 1369 1301 889 
Q 1547 409 2034 409 
Q 2525 409 2770 889 
Q 3016 1369 3016 2328 
Q 3016 3291 2770 3770 
Q 2525 4250 2034 4250 
z
M 2034 4750 
Q 2819 4750 3233 4129 
Q 3647 3509 3647 2328 
Q 3647 1150 3233 529 
Q 2819 -91 2034 -91 
Q 1250 -91 836 529 
Q 422 1150 422 2328 
Q 422 3509 836 4129 
Q 1250 4750 2034 4750 
z
" transform="scale(0.015625)"/>
       </defs>
       <use xlink:href="#DejaVuSans-30"/>
      </g>
     </g>
    </g>
    <g id="xtick_2">
     <g id="line2d_2">
      <g>
       <use xlink:href="#m4fd178bb24" x="80.188636" y="228.96" style="stroke: #000000; stroke-width: 0.8"/>
      </g>
     </g>
     <g id="text_2">
      <!-- 25 -->
      <g transform="translate(73.826136 243.558437) scale(0.1 -0.1)">
       <defs>
        <path id="DejaVuSans-32" d="M 1228 531 
L 3431 531 
L 3431 0 
L 469 0 
L 469 531 
Q 828 903 1448 1529 
Q 2069 2156 2228 2338 
Q 2531 2678 2651 2914 
Q 2772 3150 2772 3378 
Q 2772 3750 2511 3984 
Q 2250 4219 1831 4219 
Q 1534 4219 1204 4116 
Q 875 4013 500 3803 
L 500 4441 
Q 881 4594 1212 4672 
Q 1544 4750 1819 4750 
Q 2544 4750 2975 4387 
Q 3406 4025 3406 3419 
Q 3406 3131 3298 2873 
Q 3191 2616 2906 2266 
Q 2828 2175 2409 1742 
Q 1991 1309 1228 531 
z
" transform="scale(0.015625)"/>
        <path id="DejaVuSans-35" d="M 691 4666 
L 3169 4666 
L 3169 4134 
L 1269 4134 
L 1269 2991 
Q 1406 3038 1543 3061 
Q 1681 3084 1819 3084 
Q 2600 3084 3056 2656 
Q 3513 2228 3513 1497 
Q 3513 744 3044 326 
Q 2575 -91 1722 -91 
Q 1428 -91 1123 -41 
Q 819 9 494 109 
L 494 744 
Q 775 591 1075 516 
Q 1375 441 1709 441 
Q 2250 441 2565 725 
Q 2881 1009 2881 1497 
Q 2881 1984 2565 2268 
Q 2250 2553 1709 2553 
Q 1456 2553 1204 2497 
Q 953 2441 691 2322 
L 691 4666 
z
" transform="scale(0.015625)"/>
       </defs>
       <use xlink:href="#DejaVuSans-32"/>
       <use xlink:href="#DejaVuSans-35" x="63.623047"/>
      </g>
     </g>
    </g>
    <g id="xtick_3">
     <g id="line2d_3">
      <g>
       <use xlink:href="#m4fd178bb24" x="118.234091" y="228.96" style="stroke: #000000; stroke-width: 0.8"/>
      </g>
     </g>
     <g id="text_3">
      <!-- 50 -->
      <g transform="translate(111.871591 243.558437) scale(0.1 -0.1)">
       <use xlink:href="#DejaVuSans-35"/>
       <use xlink:href="#DejaVuSans-30" x="63.623047"/>
      </g>
     </g>
    </g>
    <g id="xtick_4">
     <g id="line2d_4">
      <g>
       <use xlink:href="#m4fd178bb24" x="156.279545" y="228.96" style="stroke: #000000; stroke-width: 0.8"/>
      </g>
     </g>
     <g id="text_4">
      <!-- 75 -->
      <g transform="translate(149.917045 243.558437) scale(0.1 -0.1)">
       <defs>
        <path id="DejaVuSans-37" d="M 525 4666 
L 3525 4666 
L 3525 4397 
L 1831 0 
L 1172 0 
L 2766 4134 
L 525 4134 
L 525 4666 
z
" transform="scale(0.015625)"/>
       </defs>
       <use xlink:href="#DejaVuSans-37"/>
       <use xlink:href="#DejaVuSans-35" x="63.623047"/>
      </g>
     </g>
    </g>
    <g id="xtick_5">
     <g id="line2d_5">
      <g>
       <use xlink:href="#m4fd178bb24" x="194.325" y="228.96" style="stroke: #000000; stroke-width: 0.8"/>
      </g>
     </g>
     <g id="text_5">
      <!-- 100 -->
      <g transform="translate(184.78125 243.558437) scale(0.1 -0.1)">
       <defs>
        <path id="DejaVuSans-31" d="M 794 531 
L 1825 531 
L 1825 4091 
L 703 3866 
L 703 4441 
L 1819 4666 
L 2450 4666 
L 2450 531 
L 3481 531 
L 3481 0 
L 794 0 
L 794 531 
z
" transform="scale(0.015625)"/>
       </defs>
       <use xlink:href="#DejaVuSans-31"/>
       <use xlink:href="#DejaVuSans-30" x="63.623047"/>
       <use xlink:href="#DejaVuSans-30" x="127.246094"/>
      </g>
     </g>
    </g>
    <g id="xtick_6">
     <g id="line2d_6">
      <g>
       <use xlink:href="#m4fd178bb24" x="232.370455" y="228.96" style="stroke: #000000; stroke-width: 0.8"/>
      </g>
     </g>
     <g id="text_6">
      <!-- 125 -->
      <g transform="translate(222.826705 243.558437) scale(0.1 -0.1)">
       <use xlink:href="#DejaVuSans-31"/>
       <use xlink:href="#DejaVuSans-32" x="63.623047"/>
       <use xlink:href="#DejaVuSans-35" x="127.246094"/>
      </g>
     </g>
    </g>
    <g id="xtick_7">
     <g id="line2d_7">
      <g>
       <use xlink:href="#m4fd178bb24" x="270.415909" y="228.96" style="stroke: #000000; stroke-width: 0.8"/>
      </g>
     </g>
     <g id="text_7">
      <!-- 150 -->
      <g transform="translate(260.872159 243.558437) scale(0.1 -0.1)">
       <use xlink:href="#DejaVuSans-31"/>
       <use xlink:href="#DejaVuSans-35" x="63.623047"/>
       <use xlink:href="#DejaVuSans-30" x="127.246094"/>
      </g>
     </g>
    </g>
    <g id="xtick_8">
     <g id="line2d_8">
      <g>
       <use xlink:href="#m4fd178bb24" x="308.461364" y="228.96" style="stroke: #000000; stroke-width: 0.8"/>
      </g>
     </g>
     <g id="text_8">
      <!-- 175 -->
      <g transform="translate(298.917614 243.558437) scale(0.1 -0.1)">
       <use xlink:href="#DejaVuSans-31"/>
       <use xlink:href="#DejaVuSans-37" x="63.623047"/>
       <use xlink:href="#DejaVuSans-35" x="127.246094"/>
      </g>
     </g>
    </g>
    <g id="xtick_9">
     <g id="line2d_9">
      <g>
       <use xlink:href="#m4fd178bb24" x="346.506818" y="228.96" style="stroke: #000000; stroke-width: 0.8"/>
      </g>
     </g>
     <g id="text_9">
      <!-- 200 -->
      <g transform="translate(336.963068 243.558437) scale(0.1 -0.1)">
       <use xlink:href="#DejaVuSans-32"/>
       <use xlink:href="#DejaVuSans-30" x="63.623047"/>
       <use xlink:href="#DejaVuSans-30" x="127.246094"/>
      </g>
     </g>
    </g>
   </g>
   <g id="matplotlib.axis_2">
    <g id="ytick_1">
     <g id="line2d_10">
      <defs>
       <path id="mda12e83c55" d="M 0 0 
L -3.5 0 
" style="stroke: #000000; stroke-width: 0.8"/>
      </defs>
      <g>
       <use xlink:href="#mda12e83c55" x="26.925" y="221.719007" style="stroke: #000000; stroke-width: 0.8"/>
      </g>
     </g>
     <g id="text_10">
      <!-- 0 -->
      <g transform="translate(13.5625 225.518226) scale(0.1 -0.1)">
       <use xlink:href="#DejaVuSans-30"/>
      </g>
     </g>
    </g>
    <g id="ytick_2">
     <g id="line2d_11">
      <g>
       <use xlink:href="#mda12e83c55" x="26.925" y="175.218716" style="stroke: #000000; stroke-width: 0.8"/>
      </g>
     </g>
     <g id="text_11">
      <!-- 20 -->
      <g transform="translate(7.2 179.017935) scale(0.1 -0.1)">
       <use xlink:href="#DejaVuSans-32"/>
       <use xlink:href="#DejaVuSans-30" x="63.623047"/>
      </g>
     </g>
    </g>
    <g id="ytick_3">
     <g id="line2d_12">
      <g>
       <use xlink:href="#mda12e83c55" x="26.925" y="128.718425" style="stroke: #000000; stroke-width: 0.8"/>
      </g>
     </g>
     <g id="text_12">
      <!-- 40 -->
      <g transform="translate(7.2 132.517644) scale(0.1 -0.1)">
       <defs>
        <path id="DejaVuSans-34" d="M 2419 4116 
L 825 1625 
L 2419 1625 
L 2419 4116 
z
M 2253 4666 
L 3047 4666 
L 3047 1625 
L 3713 1625 
L 3713 1100 
L 3047 1100 
L 3047 0 
L 2419 0 
L 2419 1100 
L 313 1100 
L 313 1709 
L 2253 4666 
z
" transform="scale(0.015625)"/>
       </defs>
       <use xlink:href="#DejaVuSans-34"/>
       <use xlink:href="#DejaVuSans-30" x="63.623047"/>
      </g>
     </g>
    </g>
    <g id="ytick_4">
     <g id="line2d_13">
      <g>
       <use xlink:href="#mda12e83c55" x="26.925" y="82.218134" style="stroke: #000000; stroke-width: 0.8"/>
      </g>
     </g>
     <g id="text_13">
      <!-- 60 -->
      <g transform="translate(7.2 86.017353) scale(0.1 -0.1)">
       <defs>
        <path id="DejaVuSans-36" d="M 2113 2584 
Q 1688 2584 1439 2293 
Q 1191 2003 1191 1497 
Q 1191 994 1439 701 
Q 1688 409 2113 409 
Q 2538 409 2786 701 
Q 3034 994 3034 1497 
Q 3034 2003 2786 2293 
Q 2538 2584 2113 2584 
z
M 3366 4563 
L 3366 3988 
Q 3128 4100 2886 4159 
Q 2644 4219 2406 4219 
Q 1781 4219 1451 3797 
Q 1122 3375 1075 2522 
Q 1259 2794 1537 2939 
Q 1816 3084 2150 3084 
Q 2853 3084 3261 2657 
Q 3669 2231 3669 1497 
Q 3669 778 3244 343 
Q 2819 -91 2113 -91 
Q 1303 -91 875 529 
Q 447 1150 447 2328 
Q 447 3434 972 4092 
Q 1497 4750 2381 4750 
Q 2619 4750 2861 4703 
Q 3103 4656 3366 4563 
z
" transform="scale(0.015625)"/>
       </defs>
       <use xlink:href="#DejaVuSans-36"/>
       <use xlink:href="#DejaVuSans-30" x="63.623047"/>
      </g>
     </g>
    </g>
    <g id="ytick_5">
     <g id="line2d_14">
      <g>
       <use xlink:href="#mda12e83c55" x="26.925" y="35.717843" style="stroke: #000000; stroke-width: 0.8"/>
      </g>
     </g>
     <g id="text_14">
      <!-- 80 -->
      <g transform="translate(7.2 39.517062) scale(0.1 -0.1)">
       <defs>
        <path id="DejaVuSans-38" d="M 2034 2216 
Q 1584 2216 1326 1975 
Q 1069 1734 1069 1313 
Q 1069 891 1326 650 
Q 1584 409 2034 409 
Q 2484 409 2743 651 
Q 3003 894 3003 1313 
Q 3003 1734 2745 1975 
Q 2488 2216 2034 2216 
z
M 1403 2484 
Q 997 2584 770 2862 
Q 544 3141 544 3541 
Q 544 4100 942 4425 
Q 1341 4750 2034 4750 
Q 2731 4750 3128 4425 
Q 3525 4100 3525 3541 
Q 3525 3141 3298 2862 
Q 3072 2584 2669 2484 
Q 3125 2378 3379 2068 
Q 3634 1759 3634 1313 
Q 3634 634 3220 271 
Q 2806 -91 2034 -91 
Q 1263 -91 848 271 
Q 434 634 434 1313 
Q 434 1759 690 2068 
Q 947 2378 1403 2484 
z
M 1172 3481 
Q 1172 3119 1398 2916 
Q 1625 2713 2034 2713 
Q 2441 2713 2670 2916 
Q 2900 3119 2900 3481 
Q 2900 3844 2670 4047 
Q 2441 4250 2034 4250 
Q 1625 4250 1398 4047 
Q 1172 3844 1172 3481 
z
" transform="scale(0.015625)"/>
       </defs>
       <use xlink:href="#DejaVuSans-38"/>
       <use xlink:href="#DejaVuSans-30" x="63.623047"/>
      </g>
     </g>
    </g>
   </g>
   <g id="line2d_15">
    <path d="M 42.143182 17.28 
L 45.186818 17.29921 
L 46.708636 18.328799 
L 48.230455 19.728115 
L 49.752273 19.637796 
L 51.274091 22.506815 
L 52.795909 20.316923 
L 54.317727 20.973799 
L 55.839545 20.973799 
L 57.361364 22.52948 
L 58.883182 22.52948 
L 60.405 24.547205 
L 61.926818 23.830637 
L 64.970455 24.345137 
L 66.492273 24.710064 
L 68.014091 24.725223 
L 71.057727 26.31453 
L 72.579545 26.939103 
L 74.101364 26.95921 
L 75.623182 27.117498 
L 77.145 27.734261 
L 78.666818 27.851241 
L 80.188636 28.149347 
L 81.710455 28.149347 
L 83.232273 28.261774 
L 84.754091 28.846735 
L 87.797727 28.932117 
L 89.319545 29.105648 
L 92.363182 29.797361 
L 93.885 30.239744 
L 98.450455 30.239744 
L 99.972273 30.569666 
L 101.494091 30.670018 
L 104.537727 31.190258 
L 106.059545 30.93162 
L 107.581364 31.089973 
L 109.103182 31.459613 
L 113.668636 31.513604 
L 116.712273 32.257374 
L 118.234091 32.393929 
L 119.755909 32.393929 
L 122.799545 32.876333 
L 124.321364 33.172544 
L 125.843182 33.752618 
L 127.365 33.836462 
L 130.408636 34.683695 
L 133.452273 34.763763 
L 138.017727 34.94513 
L 142.583182 35.531034 
L 144.105 36.18195 
L 145.626818 36.18195 
L 147.148636 36.315463 
L 148.670455 36.315463 
L 151.714091 37.175362 
L 153.235909 37.241865 
L 154.757727 37.42254 
L 159.323182 38.608762 
L 162.366818 39.012747 
L 163.888636 39.362652 
L 165.410455 39.362652 
L 166.932273 39.724254 
L 168.454091 39.724254 
L 169.975909 40.112515 
L 171.497727 40.17334 
L 173.019545 40.349173 
L 176.063182 40.349173 
L 179.106818 41.300613 
L 180.628636 41.424201 
L 183.672273 42.122242 
L 185.194091 42.203939 
L 186.715909 42.472676 
L 188.237727 42.122242 
L 189.759545 42.163453 
L 191.281364 42.455146 
L 192.803182 42.540586 
L 194.325 42.780759 
L 195.846818 43.199142 
L 197.368636 42.802418 
L 198.890455 43.021676 
L 201.934091 43.079585 
L 203.455909 43.478162 
L 204.977727 43.590165 
L 206.499545 43.549762 
L 208.021364 43.825434 
L 211.065 43.947164 
L 217.152273 44.785557 
L 218.674091 44.819148 
L 220.195909 45.193891 
L 221.717727 45.404406 
L 223.239545 45.404406 
L 226.283182 45.760941 
L 227.805 46.106935 
L 229.326818 46.622019 
L 232.370455 46.536045 
L 233.892273 47.223947 
L 235.414091 47.242337 
L 236.935909 47.629069 
L 239.979545 47.598965 
L 241.501364 48.538857 
L 243.023182 48.947047 
L 246.066818 48.977066 
L 250.632273 49.264022 
L 253.675909 49.338578 
L 255.197727 49.612352 
L 256.719545 49.335551 
L 258.241364 49.430301 
L 259.763182 49.698524 
L 262.806818 49.731537 
L 264.328636 50.034218 
L 265.850455 50.625123 
L 267.372273 50.693633 
L 268.894091 51.161507 
L 279.546818 51.55007 
L 281.068636 51.957222 
L 282.590455 51.979302 
L 284.112273 52.405967 
L 285.634091 52.405967 
L 287.155909 52.94769 
L 288.677727 52.94769 
L 290.199545 53.095943 
L 294.765 53.237481 
L 296.286818 53.576574 
L 300.852273 53.914725 
L 302.374091 54.138757 
L 306.939545 54.553213 
L 308.461364 54.917221 
L 309.983182 54.959794 
L 311.505 55.320937 
L 313.026818 55.449281 
L 314.548636 55.320937 
L 316.070455 55.541763 
L 319.114091 55.57215 
L 320.635909 55.754218 
L 322.157727 55.754218 
L 323.679545 56.009654 
L 329.766818 56.174022 
L 331.288636 56.503086 
L 332.810455 56.423886 
L 334.332273 56.556381 
L 335.854091 56.879926 
L 337.375909 56.985722 
L 338.897727 57.248255 
L 340.419545 56.995225 
L 343.463182 56.995225 
L 346.506818 57.521325 
L 346.506818 57.521325 
" clip-path="url(#p57f10ff225)" style="fill: none; stroke: #1f77b4; stroke-width: 1.5; stroke-linecap: square"/>
   </g>
   <g id="line2d_16">
    <path d="M 42.143182 20.47351 
L 43.665 20.138217 
L 45.186818 20.138217 
L 46.708636 21.306119 
L 48.230455 22.882362 
L 49.752273 22.940222 
L 51.274091 25.79283 
L 52.795909 23.832911 
L 54.317727 24.476424 
L 55.839545 24.476424 
L 57.361364 25.926175 
L 58.883182 25.926175 
L 60.405 27.862032 
L 61.926818 27.504987 
L 63.448636 27.695193 
L 64.970455 27.636035 
L 66.492273 28.089524 
L 68.014091 28.057596 
L 69.535909 28.789342 
L 71.057727 29.331773 
L 72.579545 30.125512 
L 75.623182 30.27314 
L 77.145 30.900019 
L 83.232273 31.335822 
L 84.754091 31.944568 
L 86.275909 31.944568 
L 90.841364 32.520726 
L 93.885 33.391643 
L 98.450455 33.391643 
L 99.972273 33.730964 
L 101.494091 33.836144 
L 104.537727 34.352803 
L 106.059545 34.097542 
L 107.581364 34.265159 
L 109.103182 34.681366 
L 113.668636 34.734125 
L 116.712273 35.469951 
L 118.234091 35.602913 
L 119.755909 35.602913 
L 121.277727 35.973793 
L 122.799545 36.092603 
L 124.321364 36.391827 
L 125.843182 36.984215 
L 127.365 37.106498 
L 130.408636 37.980115 
L 133.452273 38.067364 
L 138.017727 38.25406 
L 142.583182 38.918921 
L 144.105 39.58781 
L 145.626818 39.58781 
L 147.148636 39.736847 
L 148.670455 39.736847 
L 151.714091 40.62089 
L 153.235909 40.692232 
L 154.757727 40.894283 
L 156.279545 41.27115 
L 157.801364 41.775933 
L 160.845 42.291447 
L 162.366818 42.489554 
L 163.888636 42.845397 
L 165.410455 42.845397 
L 166.932273 43.252285 
L 168.454091 43.252285 
L 169.975909 43.645965 
L 174.541364 43.93982 
L 176.063182 43.93982 
L 179.106818 44.895585 
L 180.628636 45.040444 
L 183.672273 45.724781 
L 185.194091 45.814161 
L 186.715909 46.095123 
L 188.237727 45.724781 
L 189.759545 45.775349 
L 191.281364 46.066973 
L 192.803182 46.149571 
L 194.325 46.400406 
L 195.846818 46.826053 
L 197.368636 46.448717 
L 198.890455 46.707976 
L 201.934091 46.740864 
L 203.455909 47.216045 
L 204.977727 47.345625 
L 206.499545 47.206268 
L 208.021364 47.59779 
L 211.065 47.700686 
L 214.108636 48.222689 
L 218.674091 48.604433 
L 220.195909 49.081317 
L 221.717727 49.316778 
L 224.761364 49.406814 
L 226.283182 49.644772 
L 227.805 50.053134 
L 229.326818 50.616397 
L 232.370455 50.536681 
L 233.892273 51.21312 
L 235.414091 51.238164 
L 236.935909 51.630145 
L 239.979545 51.595871 
L 241.501364 52.594485 
L 243.023182 53.006512 
L 246.066818 53.048304 
L 249.110455 53.349892 
L 253.675909 53.429517 
L 255.197727 53.697147 
L 256.719545 53.523459 
L 258.241364 53.535302 
L 259.763182 53.80032 
L 262.806818 53.848354 
L 264.328636 54.221938 
L 265.850455 54.819126 
L 267.372273 54.898867 
L 268.894091 55.392841 
L 279.546818 55.846284 
L 281.068636 56.253686 
L 282.590455 56.302579 
L 284.112273 56.731803 
L 285.634091 56.731803 
L 287.155909 57.287137 
L 288.677727 57.287137 
L 290.199545 57.499141 
L 294.765 57.602332 
L 296.286818 57.930352 
L 300.852273 58.300243 
L 302.374091 58.4988 
L 303.895909 58.556809 
L 313.026818 59.828853 
L 314.548636 59.693624 
L 316.070455 60.067669 
L 319.114091 59.948991 
L 320.635909 60.198796 
L 322.157727 60.198796 
L 323.679545 60.396539 
L 329.766818 60.576685 
L 331.288636 60.936739 
L 332.810455 60.85953 
L 334.332273 61.123774 
L 335.854091 61.560526 
L 337.375909 61.436355 
L 338.897727 61.85088 
L 340.419545 61.43595 
L 341.941364 61.543876 
L 343.463182 61.43595 
L 344.985 61.652739 
L 346.506818 62.138975 
L 346.506818 62.138975 
" clip-path="url(#p57f10ff225)" style="fill: none; stroke: #ff7f0e; stroke-width: 1.5; stroke-linecap: square"/>
   </g>
   <g id="line2d_17">
    <path d="M 42.143182 218.525497 
L 43.665 218.88 
L 45.186818 218.88 
L 52.795909 218.20302 
L 58.883182 218.322313 
L 60.405 218.404181 
L 61.926818 218.044658 
L 63.448636 218.082577 
L 64.970455 218.428109 
L 66.492273 218.339547 
L 69.535909 218.450381 
L 71.057727 218.701765 
L 74.101364 218.456828 
L 75.623182 218.563365 
L 81.710455 218.624466 
L 86.275909 218.621174 
L 89.319545 218.543559 
L 92.363182 218.590751 
L 101.494091 218.552882 
L 119.755909 218.510023 
L 121.277727 218.436916 
L 124.321364 218.499724 
L 186.715909 218.09656 
L 194.325 218.09936 
L 211.065 217.965486 
L 212.586818 217.880321 
L 215.630455 217.992816 
L 223.239545 217.806636 
L 224.761364 217.88823 
L 232.370455 217.718372 
L 239.979545 217.722101 
L 243.023182 217.659543 
L 255.197727 217.634212 
L 256.719545 217.531099 
L 259.763182 217.617211 
L 296.286818 217.365229 
L 322.157727 217.274429 
L 325.201364 217.321636 
L 332.810455 217.283364 
L 335.854091 217.038408 
L 337.375909 217.268375 
L 338.897727 217.116383 
L 340.419545 217.278282 
L 341.941364 217.197509 
L 344.985 217.292106 
L 346.506818 217.101357 
L 346.506818 217.101357 
" clip-path="url(#p57f10ff225)" style="fill: none; stroke: #2ca02c; stroke-width: 1.5; stroke-linecap: square"/>
   </g>
   <g id="patch_3">
    <path d="M 26.925 228.96 
L 26.925 7.2 
" style="fill: none; stroke: #000000; stroke-width: 0.8; stroke-linejoin: miter; stroke-linecap: square"/>
   </g>
   <g id="patch_4">
    <path d="M 361.725 228.96 
L 361.725 7.2 
" style="fill: none; stroke: #000000; stroke-width: 0.8; stroke-linejoin: miter; stroke-linecap: square"/>
   </g>
   <g id="patch_5">
    <path d="M 26.925 228.96 
L 361.725 228.96 
" style="fill: none; stroke: #000000; stroke-width: 0.8; stroke-linejoin: miter; stroke-linecap: square"/>
   </g>
   <g id="patch_6">
    <path d="M 26.925 7.2 
L 361.725 7.2 
" style="fill: none; stroke: #000000; stroke-width: 0.8; stroke-linejoin: miter; stroke-linecap: square"/>
   </g>
   <g id="legend_1">
    <g id="patch_7">
     <path d="M 201.335938 141.597187 
L 354.725 141.597187 
Q 356.725 141.597187 356.725 139.597187 
L 356.725 96.562812 
Q 356.725 94.562812 354.725 94.562812 
L 201.335938 94.562812 
Q 199.335938 94.562812 199.335938 96.562812 
L 199.335938 139.597187 
Q 199.335938 141.597187 201.335938 141.597187 
z
" style="fill: #ffffff; opacity: 0.8; stroke: #cccccc; stroke-linejoin: miter"/>
    </g>
    <g id="line2d_18">
     <path d="M 203.335938 102.66125 
L 213.335938 102.66125 
L 223.335938 102.66125 
" style="fill: none; stroke: #1f77b4; stroke-width: 1.5; stroke-linecap: square"/>
    </g>
    <g id="text_15">
     <!-- target value -->
     <g transform="translate(231.335938 106.16125) scale(0.1 -0.1)">
      <defs>
       <path id="DejaVuSans-74" d="M 1172 4494 
L 1172 3500 
L 2356 3500 
L 2356 3053 
L 1172 3053 
L 1172 1153 
Q 1172 725 1289 603 
Q 1406 481 1766 481 
L 2356 481 
L 2356 0 
L 1766 0 
Q 1100 0 847 248 
Q 594 497 594 1153 
L 594 3053 
L 172 3053 
L 172 3500 
L 594 3500 
L 594 4494 
L 1172 4494 
z
" transform="scale(0.015625)"/>
       <path id="DejaVuSans-61" d="M 2194 1759 
Q 1497 1759 1228 1600 
Q 959 1441 959 1056 
Q 959 750 1161 570 
Q 1363 391 1709 391 
Q 2188 391 2477 730 
Q 2766 1069 2766 1631 
L 2766 1759 
L 2194 1759 
z
M 3341 1997 
L 3341 0 
L 2766 0 
L 2766 531 
Q 2569 213 2275 61 
Q 1981 -91 1556 -91 
Q 1019 -91 701 211 
Q 384 513 384 1019 
Q 384 1609 779 1909 
Q 1175 2209 1959 2209 
L 2766 2209 
L 2766 2266 
Q 2766 2663 2505 2880 
Q 2244 3097 1772 3097 
Q 1472 3097 1187 3025 
Q 903 2953 641 2809 
L 641 3341 
Q 956 3463 1253 3523 
Q 1550 3584 1831 3584 
Q 2591 3584 2966 3190 
Q 3341 2797 3341 1997 
z
" transform="scale(0.015625)"/>
       <path id="DejaVuSans-72" d="M 2631 2963 
Q 2534 3019 2420 3045 
Q 2306 3072 2169 3072 
Q 1681 3072 1420 2755 
Q 1159 2438 1159 1844 
L 1159 0 
L 581 0 
L 581 3500 
L 1159 3500 
L 1159 2956 
Q 1341 3275 1631 3429 
Q 1922 3584 2338 3584 
Q 2397 3584 2469 3576 
Q 2541 3569 2628 3553 
L 2631 2963 
z
" transform="scale(0.015625)"/>
       <path id="DejaVuSans-67" d="M 2906 1791 
Q 2906 2416 2648 2759 
Q 2391 3103 1925 3103 
Q 1463 3103 1205 2759 
Q 947 2416 947 1791 
Q 947 1169 1205 825 
Q 1463 481 1925 481 
Q 2391 481 2648 825 
Q 2906 1169 2906 1791 
z
M 3481 434 
Q 3481 -459 3084 -895 
Q 2688 -1331 1869 -1331 
Q 1566 -1331 1297 -1286 
Q 1028 -1241 775 -1147 
L 775 -588 
Q 1028 -725 1275 -790 
Q 1522 -856 1778 -856 
Q 2344 -856 2625 -561 
Q 2906 -266 2906 331 
L 2906 616 
Q 2728 306 2450 153 
Q 2172 0 1784 0 
Q 1141 0 747 490 
Q 353 981 353 1791 
Q 353 2603 747 3093 
Q 1141 3584 1784 3584 
Q 2172 3584 2450 3431 
Q 2728 3278 2906 2969 
L 2906 3500 
L 3481 3500 
L 3481 434 
z
" transform="scale(0.015625)"/>
       <path id="DejaVuSans-65" d="M 3597 1894 
L 3597 1613 
L 953 1613 
Q 991 1019 1311 708 
Q 1631 397 2203 397 
Q 2534 397 2845 478 
Q 3156 559 3463 722 
L 3463 178 
Q 3153 47 2828 -22 
Q 2503 -91 2169 -91 
Q 1331 -91 842 396 
Q 353 884 353 1716 
Q 353 2575 817 3079 
Q 1281 3584 2069 3584 
Q 2775 3584 3186 3129 
Q 3597 2675 3597 1894 
z
M 3022 2063 
Q 3016 2534 2758 2815 
Q 2500 3097 2075 3097 
Q 1594 3097 1305 2825 
Q 1016 2553 972 2059 
L 3022 2063 
z
" transform="scale(0.015625)"/>
       <path id="DejaVuSans-20" transform="scale(0.015625)"/>
       <path id="DejaVuSans-76" d="M 191 3500 
L 800 3500 
L 1894 563 
L 2988 3500 
L 3597 3500 
L 2284 0 
L 1503 0 
L 191 3500 
z
" transform="scale(0.015625)"/>
       <path id="DejaVuSans-6c" d="M 603 4863 
L 1178 4863 
L 1178 0 
L 603 0 
L 603 4863 
z
" transform="scale(0.015625)"/>
       <path id="DejaVuSans-75" d="M 544 1381 
L 544 3500 
L 1119 3500 
L 1119 1403 
Q 1119 906 1312 657 
Q 1506 409 1894 409 
Q 2359 409 2629 706 
Q 2900 1003 2900 1516 
L 2900 3500 
L 3475 3500 
L 3475 0 
L 2900 0 
L 2900 538 
Q 2691 219 2414 64 
Q 2138 -91 1772 -91 
Q 1169 -91 856 284 
Q 544 659 544 1381 
z
M 1991 3584 
L 1991 3584 
z
" transform="scale(0.015625)"/>
      </defs>
      <use xlink:href="#DejaVuSans-74"/>
      <use xlink:href="#DejaVuSans-61" x="39.208984"/>
      <use xlink:href="#DejaVuSans-72" x="100.488281"/>
      <use xlink:href="#DejaVuSans-67" x="139.851562"/>
      <use xlink:href="#DejaVuSans-65" x="203.328125"/>
      <use xlink:href="#DejaVuSans-74" x="264.851562"/>
      <use xlink:href="#DejaVuSans-20" x="304.060547"/>
      <use xlink:href="#DejaVuSans-76" x="335.847656"/>
      <use xlink:href="#DejaVuSans-61" x="395.027344"/>
      <use xlink:href="#DejaVuSans-6c" x="456.306641"/>
      <use xlink:href="#DejaVuSans-75" x="484.089844"/>
      <use xlink:href="#DejaVuSans-65" x="547.46875"/>
     </g>
    </g>
    <g id="line2d_19">
     <path d="M 203.335938 117.339375 
L 213.335938 117.339375 
L 223.335938 117.339375 
" style="fill: none; stroke: #ff7f0e; stroke-width: 1.5; stroke-linecap: square"/>
    </g>
    <g id="text_16">
     <!-- communication cost -->
     <g transform="translate(231.335938 120.839375) scale(0.1 -0.1)">
      <defs>
       <path id="DejaVuSans-63" d="M 3122 3366 
L 3122 2828 
Q 2878 2963 2633 3030 
Q 2388 3097 2138 3097 
Q 1578 3097 1268 2742 
Q 959 2388 959 1747 
Q 959 1106 1268 751 
Q 1578 397 2138 397 
Q 2388 397 2633 464 
Q 2878 531 3122 666 
L 3122 134 
Q 2881 22 2623 -34 
Q 2366 -91 2075 -91 
Q 1284 -91 818 406 
Q 353 903 353 1747 
Q 353 2603 823 3093 
Q 1294 3584 2113 3584 
Q 2378 3584 2631 3529 
Q 2884 3475 3122 3366 
z
" transform="scale(0.015625)"/>
       <path id="DejaVuSans-6f" d="M 1959 3097 
Q 1497 3097 1228 2736 
Q 959 2375 959 1747 
Q 959 1119 1226 758 
Q 1494 397 1959 397 
Q 2419 397 2687 759 
Q 2956 1122 2956 1747 
Q 2956 2369 2687 2733 
Q 2419 3097 1959 3097 
z
M 1959 3584 
Q 2709 3584 3137 3096 
Q 3566 2609 3566 1747 
Q 3566 888 3137 398 
Q 2709 -91 1959 -91 
Q 1206 -91 779 398 
Q 353 888 353 1747 
Q 353 2609 779 3096 
Q 1206 3584 1959 3584 
z
" transform="scale(0.015625)"/>
       <path id="DejaVuSans-6d" d="M 3328 2828 
Q 3544 3216 3844 3400 
Q 4144 3584 4550 3584 
Q 5097 3584 5394 3201 
Q 5691 2819 5691 2113 
L 5691 0 
L 5113 0 
L 5113 2094 
Q 5113 2597 4934 2840 
Q 4756 3084 4391 3084 
Q 3944 3084 3684 2787 
Q 3425 2491 3425 1978 
L 3425 0 
L 2847 0 
L 2847 2094 
Q 2847 2600 2669 2842 
Q 2491 3084 2119 3084 
Q 1678 3084 1418 2786 
Q 1159 2488 1159 1978 
L 1159 0 
L 581 0 
L 581 3500 
L 1159 3500 
L 1159 2956 
Q 1356 3278 1631 3431 
Q 1906 3584 2284 3584 
Q 2666 3584 2933 3390 
Q 3200 3197 3328 2828 
z
" transform="scale(0.015625)"/>
       <path id="DejaVuSans-6e" d="M 3513 2113 
L 3513 0 
L 2938 0 
L 2938 2094 
Q 2938 2591 2744 2837 
Q 2550 3084 2163 3084 
Q 1697 3084 1428 2787 
Q 1159 2491 1159 1978 
L 1159 0 
L 581 0 
L 581 3500 
L 1159 3500 
L 1159 2956 
Q 1366 3272 1645 3428 
Q 1925 3584 2291 3584 
Q 2894 3584 3203 3211 
Q 3513 2838 3513 2113 
z
" transform="scale(0.015625)"/>
       <path id="DejaVuSans-69" d="M 603 3500 
L 1178 3500 
L 1178 0 
L 603 0 
L 603 3500 
z
M 603 4863 
L 1178 4863 
L 1178 4134 
L 603 4134 
L 603 4863 
z
" transform="scale(0.015625)"/>
       <path id="DejaVuSans-73" d="M 2834 3397 
L 2834 2853 
Q 2591 2978 2328 3040 
Q 2066 3103 1784 3103 
Q 1356 3103 1142 2972 
Q 928 2841 928 2578 
Q 928 2378 1081 2264 
Q 1234 2150 1697 2047 
L 1894 2003 
Q 2506 1872 2764 1633 
Q 3022 1394 3022 966 
Q 3022 478 2636 193 
Q 2250 -91 1575 -91 
Q 1294 -91 989 -36 
Q 684 19 347 128 
L 347 722 
Q 666 556 975 473 
Q 1284 391 1588 391 
Q 1994 391 2212 530 
Q 2431 669 2431 922 
Q 2431 1156 2273 1281 
Q 2116 1406 1581 1522 
L 1381 1569 
Q 847 1681 609 1914 
Q 372 2147 372 2553 
Q 372 3047 722 3315 
Q 1072 3584 1716 3584 
Q 2034 3584 2315 3537 
Q 2597 3491 2834 3397 
z
" transform="scale(0.015625)"/>
      </defs>
      <use xlink:href="#DejaVuSans-63"/>
      <use xlink:href="#DejaVuSans-6f" x="54.980469"/>
      <use xlink:href="#DejaVuSans-6d" x="116.162109"/>
      <use xlink:href="#DejaVuSans-6d" x="213.574219"/>
      <use xlink:href="#DejaVuSans-75" x="310.986328"/>
      <use xlink:href="#DejaVuSans-6e" x="374.365234"/>
      <use xlink:href="#DejaVuSans-69" x="437.744141"/>
      <use xlink:href="#DejaVuSans-63" x="465.527344"/>
      <use xlink:href="#DejaVuSans-61" x="520.507812"/>
      <use xlink:href="#DejaVuSans-74" x="581.787109"/>
      <use xlink:href="#DejaVuSans-69" x="620.996094"/>
      <use xlink:href="#DejaVuSans-6f" x="648.779297"/>
      <use xlink:href="#DejaVuSans-6e" x="709.960938"/>
      <use xlink:href="#DejaVuSans-20" x="773.339844"/>
      <use xlink:href="#DejaVuSans-63" x="805.126953"/>
      <use xlink:href="#DejaVuSans-6f" x="860.107422"/>
      <use xlink:href="#DejaVuSans-73" x="921.289062"/>
      <use xlink:href="#DejaVuSans-74" x="973.388672"/>
     </g>
    </g>
    <g id="line2d_20">
     <path d="M 203.335938 132.0175 
L 213.335938 132.0175 
L 223.335938 132.0175 
" style="fill: none; stroke: #2ca02c; stroke-width: 1.5; stroke-linecap: square"/>
    </g>
    <g id="text_17">
     <!-- node storage proportion -->
     <g transform="translate(231.335938 135.5175) scale(0.1 -0.1)">
      <defs>
       <path id="DejaVuSans-64" d="M 2906 2969 
L 2906 4863 
L 3481 4863 
L 3481 0 
L 2906 0 
L 2906 525 
Q 2725 213 2448 61 
Q 2172 -91 1784 -91 
Q 1150 -91 751 415 
Q 353 922 353 1747 
Q 353 2572 751 3078 
Q 1150 3584 1784 3584 
Q 2172 3584 2448 3432 
Q 2725 3281 2906 2969 
z
M 947 1747 
Q 947 1113 1208 752 
Q 1469 391 1925 391 
Q 2381 391 2643 752 
Q 2906 1113 2906 1747 
Q 2906 2381 2643 2742 
Q 2381 3103 1925 3103 
Q 1469 3103 1208 2742 
Q 947 2381 947 1747 
z
" transform="scale(0.015625)"/>
       <path id="DejaVuSans-70" d="M 1159 525 
L 1159 -1331 
L 581 -1331 
L 581 3500 
L 1159 3500 
L 1159 2969 
Q 1341 3281 1617 3432 
Q 1894 3584 2278 3584 
Q 2916 3584 3314 3078 
Q 3713 2572 3713 1747 
Q 3713 922 3314 415 
Q 2916 -91 2278 -91 
Q 1894 -91 1617 61 
Q 1341 213 1159 525 
z
M 3116 1747 
Q 3116 2381 2855 2742 
Q 2594 3103 2138 3103 
Q 1681 3103 1420 2742 
Q 1159 2381 1159 1747 
Q 1159 1113 1420 752 
Q 1681 391 2138 391 
Q 2594 391 2855 752 
Q 3116 1113 3116 1747 
z
" transform="scale(0.015625)"/>
      </defs>
      <use xlink:href="#DejaVuSans-6e"/>
      <use xlink:href="#DejaVuSans-6f" x="63.378906"/>
      <use xlink:href="#DejaVuSans-64" x="124.560547"/>
      <use xlink:href="#DejaVuSans-65" x="188.037109"/>
      <use xlink:href="#DejaVuSans-20" x="249.560547"/>
      <use xlink:href="#DejaVuSans-73" x="281.347656"/>
      <use xlink:href="#DejaVuSans-74" x="333.447266"/>
      <use xlink:href="#DejaVuSans-6f" x="372.65625"/>
      <use xlink:href="#DejaVuSans-72" x="433.837891"/>
      <use xlink:href="#DejaVuSans-61" x="474.951172"/>
      <use xlink:href="#DejaVuSans-67" x="536.230469"/>
      <use xlink:href="#DejaVuSans-65" x="599.707031"/>
      <use xlink:href="#DejaVuSans-20" x="661.230469"/>
      <use xlink:href="#DejaVuSans-70" x="693.017578"/>
      <use xlink:href="#DejaVuSans-72" x="756.494141"/>
      <use xlink:href="#DejaVuSans-6f" x="795.357422"/>
      <use xlink:href="#DejaVuSans-70" x="856.539062"/>
      <use xlink:href="#DejaVuSans-6f" x="920.015625"/>
      <use xlink:href="#DejaVuSans-72" x="981.197266"/>
      <use xlink:href="#DejaVuSans-74" x="1022.310547"/>
      <use xlink:href="#DejaVuSans-69" x="1061.519531"/>
      <use xlink:href="#DejaVuSans-6f" x="1089.302734"/>
      <use xlink:href="#DejaVuSans-6e" x="1150.484375"/>
     </g>
    </g>
   </g>
  </g>
 </g>
 <defs>
  <clipPath id="p57f10ff225">
   <rect x="26.925" y="7.2" width="334.8" height="221.76"/>
  </clipPath>
 </defs>
</svg>
