<?xml version="1.0" encoding="utf-8" standalone="no"?>
<!DOCTYPE svg PUBLIC "-//W3C//DTD SVG 1.1//EN"
  "http://www.w3.org/Graphics/SVG/1.1/DTD/svg11.dtd">
<svg xmlns:xlink="http://www.w3.org/1999/xlink" width="368.925pt" height="252.838125pt" viewBox="0 0 368.925 252.838125" xmlns="http://www.w3.org/2000/svg" version="1.1">
 <metadata>
  <rdf:RDF xmlns:dc="http://purl.org/dc/elements/1.1/" xmlns:cc="http://creativecommons.org/ns#" xmlns:rdf="http://www.w3.org/1999/02/22-rdf-syntax-ns#">
   <cc:Work>
    <dc:type rdf:resource="http://purl.org/dc/dcmitype/StillImage"/>
    <dc:date>2023-04-19T15:40:43.447074</dc:date>
    <dc:format>image/svg+xml</dc:format>
    <dc:creator>
     <cc:Agent>
      <dc:title>Matplotlib v3.6.2, https://matplotlib.org/</dc:title>
     </cc:Agent>
    </dc:creator>
   </cc:Work>
  </rdf:RDF>
 </metadata>
 <defs>
  <style type="text/css">*{stroke-linejoin: round; stroke-linecap: butt}</style>
 </defs>
 <g id="figure_1">
  <g id="patch_1">
   <path d="M -0 252.838125 
L 368.925 252.838125 
L 368.925 0 
L -0 0 
z
" style="fill: #ffffff"/>
  </g>
  <g id="axes_1">
   <g id="patch_2">
    <path d="M 26.925 228.96 
L 361.725 228.96 
L 361.725 7.2 
L 26.925 7.2 
z
" style="fill: #ffffff"/>
   </g>
   <g id="matplotlib.axis_1">
    <g id="xtick_1">
     <g id="line2d_1">
      <defs>
       <path id="m61feeb28ba" d="M 0 0 
L 0 3.5 
" style="stroke: #000000; stroke-width: 0.8"/>
      </defs>
      <g>
       <use xlink:href="#m61feeb28ba" x="42.143182" y="228.96" style="stroke: #000000; stroke-width: 0.8"/>
      </g>
     </g>
     <g id="text_1">
      <!-- 0 -->
      <g transform="translate(38.961932 243.558437) scale(0.1 -0.1)">
       <defs>
        <path id="DejaVuSans-30" d="M 2034 4250 
Q 1547 4250 1301 3770 
Q 1056 3291 1056 2328 
Q 1056 1369 1301 889 
Q 1547 409 2034 409 
Q 2525 409 2770 889 
Q 3016 1369 3016 2328 
Q 3016 3291 2770 3770 
Q 2525 4250 2034 4250 
z
M 2034 4750 
Q 2819 4750 3233 4129 
Q 3647 3509 3647 2328 
Q 3647 1150 3233 529 
Q 2819 -91 2034 -91 
Q 1250 -91 836 529 
Q 422 1150 422 2328 
Q 422 3509 836 4129 
Q 1250 4750 2034 4750 
z
" transform="scale(0.015625)"/>
       </defs>
       <use xlink:href="#DejaVuSans-30"/>
      </g>
     </g>
    </g>
    <g id="xtick_2">
     <g id="line2d_2">
      <g>
       <use xlink:href="#m61feeb28ba" x="103.015909" y="228.96" style="stroke: #000000; stroke-width: 0.8"/>
      </g>
     </g>
     <g id="text_2">
      <!-- 200 -->
      <g transform="translate(93.472159 243.558437) scale(0.1 -0.1)">
       <defs>
        <path id="DejaVuSans-32" d="M 1228 531 
L 3431 531 
L 3431 0 
L 469 0 
L 469 531 
Q 828 903 1448 1529 
Q 2069 2156 2228 2338 
Q 2531 2678 2651 2914 
Q 2772 3150 2772 3378 
Q 2772 3750 2511 3984 
Q 2250 4219 1831 4219 
Q 1534 4219 1204 4116 
Q 875 4013 500 3803 
L 500 4441 
Q 881 4594 1212 4672 
Q 1544 4750 1819 4750 
Q 2544 4750 2975 4387 
Q 3406 4025 3406 3419 
Q 3406 3131 3298 2873 
Q 3191 2616 2906 2266 
Q 2828 2175 2409 1742 
Q 1991 1309 1228 531 
z
" transform="scale(0.015625)"/>
       </defs>
       <use xlink:href="#DejaVuSans-32"/>
       <use xlink:href="#DejaVuSans-30" x="63.623047"/>
       <use xlink:href="#DejaVuSans-30" x="127.246094"/>
      </g>
     </g>
    </g>
    <g id="xtick_3">
     <g id="line2d_3">
      <g>
       <use xlink:href="#m61feeb28ba" x="163.888636" y="228.96" style="stroke: #000000; stroke-width: 0.8"/>
      </g>
     </g>
     <g id="text_3">
      <!-- 400 -->
      <g transform="translate(154.344886 243.558437) scale(0.1 -0.1)">
       <defs>
        <path id="DejaVuSans-34" d="M 2419 4116 
L 825 1625 
L 2419 1625 
L 2419 4116 
z
M 2253 4666 
L 3047 4666 
L 3047 1625 
L 3713 1625 
L 3713 1100 
L 3047 1100 
L 3047 0 
L 2419 0 
L 2419 1100 
L 313 1100 
L 313 1709 
L 2253 4666 
z
" transform="scale(0.015625)"/>
       </defs>
       <use xlink:href="#DejaVuSans-34"/>
       <use xlink:href="#DejaVuSans-30" x="63.623047"/>
       <use xlink:href="#DejaVuSans-30" x="127.246094"/>
      </g>
     </g>
    </g>
    <g id="xtick_4">
     <g id="line2d_4">
      <g>
       <use xlink:href="#m61feeb28ba" x="224.761364" y="228.96" style="stroke: #000000; stroke-width: 0.8"/>
      </g>
     </g>
     <g id="text_4">
      <!-- 600 -->
      <g transform="translate(215.217614 243.558437) scale(0.1 -0.1)">
       <defs>
        <path id="DejaVuSans-36" d="M 2113 2584 
Q 1688 2584 1439 2293 
Q 1191 2003 1191 1497 
Q 1191 994 1439 701 
Q 1688 409 2113 409 
Q 2538 409 2786 701 
Q 3034 994 3034 1497 
Q 3034 2003 2786 2293 
Q 2538 2584 2113 2584 
z
M 3366 4563 
L 3366 3988 
Q 3128 4100 2886 4159 
Q 2644 4219 2406 4219 
Q 1781 4219 1451 3797 
Q 1122 3375 1075 2522 
Q 1259 2794 1537 2939 
Q 1816 3084 2150 3084 
Q 2853 3084 3261 2657 
Q 3669 2231 3669 1497 
Q 3669 778 3244 343 
Q 2819 -91 2113 -91 
Q 1303 -91 875 529 
Q 447 1150 447 2328 
Q 447 3434 972 4092 
Q 1497 4750 2381 4750 
Q 2619 4750 2861 4703 
Q 3103 4656 3366 4563 
z
" transform="scale(0.015625)"/>
       </defs>
       <use xlink:href="#DejaVuSans-36"/>
       <use xlink:href="#DejaVuSans-30" x="63.623047"/>
       <use xlink:href="#DejaVuSans-30" x="127.246094"/>
      </g>
     </g>
    </g>
    <g id="xtick_5">
     <g id="line2d_5">
      <g>
       <use xlink:href="#m61feeb28ba" x="285.634091" y="228.96" style="stroke: #000000; stroke-width: 0.8"/>
      </g>
     </g>
     <g id="text_5">
      <!-- 800 -->
      <g transform="translate(276.090341 243.558437) scale(0.1 -0.1)">
       <defs>
        <path id="DejaVuSans-38" d="M 2034 2216 
Q 1584 2216 1326 1975 
Q 1069 1734 1069 1313 
Q 1069 891 1326 650 
Q 1584 409 2034 409 
Q 2484 409 2743 651 
Q 3003 894 3003 1313 
Q 3003 1734 2745 1975 
Q 2488 2216 2034 2216 
z
M 1403 2484 
Q 997 2584 770 2862 
Q 544 3141 544 3541 
Q 544 4100 942 4425 
Q 1341 4750 2034 4750 
Q 2731 4750 3128 4425 
Q 3525 4100 3525 3541 
Q 3525 3141 3298 2862 
Q 3072 2584 2669 2484 
Q 3125 2378 3379 2068 
Q 3634 1759 3634 1313 
Q 3634 634 3220 271 
Q 2806 -91 2034 -91 
Q 1263 -91 848 271 
Q 434 634 434 1313 
Q 434 1759 690 2068 
Q 947 2378 1403 2484 
z
M 1172 3481 
Q 1172 3119 1398 2916 
Q 1625 2713 2034 2713 
Q 2441 2713 2670 2916 
Q 2900 3119 2900 3481 
Q 2900 3844 2670 4047 
Q 2441 4250 2034 4250 
Q 1625 4250 1398 4047 
Q 1172 3844 1172 3481 
z
" transform="scale(0.015625)"/>
       </defs>
       <use xlink:href="#DejaVuSans-38"/>
       <use xlink:href="#DejaVuSans-30" x="63.623047"/>
       <use xlink:href="#DejaVuSans-30" x="127.246094"/>
      </g>
     </g>
    </g>
    <g id="xtick_6">
     <g id="line2d_6">
      <g>
       <use xlink:href="#m61feeb28ba" x="346.506818" y="228.96" style="stroke: #000000; stroke-width: 0.8"/>
      </g>
     </g>
     <g id="text_6">
      <!-- 1000 -->
      <g transform="translate(333.781818 243.558437) scale(0.1 -0.1)">
       <defs>
        <path id="DejaVuSans-31" d="M 794 531 
L 1825 531 
L 1825 4091 
L 703 3866 
L 703 4441 
L 1819 4666 
L 2450 4666 
L 2450 531 
L 3481 531 
L 3481 0 
L 794 0 
L 794 531 
z
" transform="scale(0.015625)"/>
       </defs>
       <use xlink:href="#DejaVuSans-31"/>
       <use xlink:href="#DejaVuSans-30" x="63.623047"/>
       <use xlink:href="#DejaVuSans-30" x="127.246094"/>
       <use xlink:href="#DejaVuSans-30" x="190.869141"/>
      </g>
     </g>
    </g>
   </g>
   <g id="matplotlib.axis_2">
    <g id="ytick_1">
     <g id="line2d_7">
      <defs>
       <path id="m406f46b07d" d="M 0 0 
L -3.5 0 
" style="stroke: #000000; stroke-width: 0.8"/>
      </defs>
      <g>
       <use xlink:href="#m406f46b07d" x="26.925" y="189.035588" style="stroke: #000000; stroke-width: 0.8"/>
      </g>
     </g>
     <g id="text_7">
      <!-- 70 -->
      <g transform="translate(7.2 192.834807) scale(0.1 -0.1)">
       <defs>
        <path id="DejaVuSans-37" d="M 525 4666 
L 3525 4666 
L 3525 4397 
L 1831 0 
L 1172 0 
L 2766 4134 
L 525 4134 
L 525 4666 
z
" transform="scale(0.015625)"/>
       </defs>
       <use xlink:href="#DejaVuSans-37"/>
       <use xlink:href="#DejaVuSans-30" x="63.623047"/>
      </g>
     </g>
    </g>
    <g id="ytick_2">
     <g id="line2d_8">
      <g>
       <use xlink:href="#m406f46b07d" x="26.925" y="140.569627" style="stroke: #000000; stroke-width: 0.8"/>
      </g>
     </g>
     <g id="text_8">
      <!-- 75 -->
      <g transform="translate(7.2 144.368846) scale(0.1 -0.1)">
       <defs>
        <path id="DejaVuSans-35" d="M 691 4666 
L 3169 4666 
L 3169 4134 
L 1269 4134 
L 1269 2991 
Q 1406 3038 1543 3061 
Q 1681 3084 1819 3084 
Q 2600 3084 3056 2656 
Q 3513 2228 3513 1497 
Q 3513 744 3044 326 
Q 2575 -91 1722 -91 
Q 1428 -91 1123 -41 
Q 819 9 494 109 
L 494 744 
Q 775 591 1075 516 
Q 1375 441 1709 441 
Q 2250 441 2565 725 
Q 2881 1009 2881 1497 
Q 2881 1984 2565 2268 
Q 2250 2553 1709 2553 
Q 1456 2553 1204 2497 
Q 953 2441 691 2322 
L 691 4666 
z
" transform="scale(0.015625)"/>
       </defs>
       <use xlink:href="#DejaVuSans-37"/>
       <use xlink:href="#DejaVuSans-35" x="63.623047"/>
      </g>
     </g>
    </g>
    <g id="ytick_3">
     <g id="line2d_9">
      <g>
       <use xlink:href="#m406f46b07d" x="26.925" y="92.103667" style="stroke: #000000; stroke-width: 0.8"/>
      </g>
     </g>
     <g id="text_9">
      <!-- 80 -->
      <g transform="translate(7.2 95.902885) scale(0.1 -0.1)">
       <use xlink:href="#DejaVuSans-38"/>
       <use xlink:href="#DejaVuSans-30" x="63.623047"/>
      </g>
     </g>
    </g>
    <g id="ytick_4">
     <g id="line2d_10">
      <g>
       <use xlink:href="#m406f46b07d" x="26.925" y="43.637706" style="stroke: #000000; stroke-width: 0.8"/>
      </g>
     </g>
     <g id="text_10">
      <!-- 85 -->
      <g transform="translate(7.2 47.436924) scale(0.1 -0.1)">
       <use xlink:href="#DejaVuSans-38"/>
       <use xlink:href="#DejaVuSans-35" x="63.623047"/>
      </g>
     </g>
    </g>
   </g>
   <g id="line2d_11">
    <path d="M 42.143182 28.548688 
L 42.447545 21.639959 
L 42.751909 29.035072 
L 43.056273 29.035072 
L 43.360636 28.312245 
L 43.665 33.263217 
L 43.969364 27.965887 
L 44.273727 33.104895 
L 44.578091 40.762386 
L 45.186818 41.037643 
L 45.491182 41.037643 
L 45.795545 39.136821 
L 46.099909 31.800153 
L 46.404273 31.943697 
L 46.708636 33.040889 
L 47.013 27.540805 
L 47.317364 29.087832 
L 47.621727 25.416953 
L 47.926091 24.395298 
L 48.534818 24.395298 
L 48.839182 23.028031 
L 49.143545 25.936365 
L 49.447909 25.936365 
L 49.752273 26.181154 
L 50.056636 27.714894 
L 50.361 32.603398 
L 50.665364 33.426683 
L 50.969727 32.525879 
L 51.578455 32.737323 
L 51.882818 29.738432 
L 52.187182 29.552891 
L 52.491545 29.080518 
L 52.795909 29.549987 
L 53.100273 17.28 
L 53.709 20.686621 
L 54.013364 19.529977 
L 54.317727 20.884006 
L 54.622091 21.707291 
L 55.230818 21.707291 
L 55.535182 22.396447 
L 56.448273 22.396447 
L 56.752636 22.138101 
L 57.057 22.138101 
L 57.361364 23.109857 
L 57.665727 22.396447 
L 57.970091 22.399754 
L 58.274455 23.819949 
L 58.883182 25.047516 
L 59.187545 24.337414 
L 59.796273 24.337414 
L 60.100636 26.077258 
L 60.405 25.666279 
L 60.709364 26.718619 
L 61.013727 26.897203 
L 61.318091 25.723468 
L 62.535545 25.723468 
L 62.839909 26.79434 
L 63.144273 26.79434 
L 63.448636 27.601902 
L 63.753 27.601902 
L 64.057364 24.78841 
L 64.361727 25.941934 
L 64.666091 31.418265 
L 64.970455 31.460753 
L 65.274818 35.310376 
L 65.579182 37.029992 
L 65.883545 35.931618 
L 66.796636 35.931618 
L 67.405364 38.806155 
L 67.709727 38.787938 
L 68.014091 41.727888 
L 68.622818 41.727888 
L 68.927182 43.559226 
L 69.231545 44.562924 
L 69.535909 42.573696 
L 70.144636 42.573696 
L 70.449 41.323936 
L 71.057727 41.315535 
L 71.362091 42.386407 
L 71.666455 41.685925 
L 72.275182 41.685925 
L 72.579545 43.486004 
L 72.883909 43.812211 
L 73.188273 43.698907 
L 73.797 43.806634 
L 74.405727 45.114755 
L 74.710091 45.114755 
L 75.014455 47.541737 
L 75.318818 44.853403 
L 75.623182 44.853403 
L 75.927545 45.793032 
L 76.231909 49.579079 
L 76.536273 49.579079 
L 76.840636 49.86732 
L 77.145 49.579079 
L 77.449364 52.428766 
L 78.058091 54.837264 
L 78.362455 56.151454 
L 78.666818 49.635606 
L 78.971182 49.635606 
L 79.275545 50.528694 
L 79.579909 51.075315 
L 80.188636 51.075315 
L 80.493 51.441813 
L 80.797364 51.075315 
L 81.101727 53.27084 
L 81.406091 57.638054 
L 81.710455 57.638054 
L 82.014818 58.876313 
L 82.623545 58.779284 
L 82.927909 58.779284 
L 83.232273 54.838852 
L 83.536636 57.019229 
L 83.841 55.115324 
L 84.145364 56.353833 
L 84.449727 54.859377 
L 84.754091 55.501287 
L 85.058455 55.501038 
L 85.362818 55.868306 
L 85.667182 55.979149 
L 85.971545 56.346417 
L 86.275909 55.732484 
L 86.580273 56.727986 
L 87.189 57.399126 
L 87.493364 58.061814 
L 87.797727 59.666571 
L 88.102091 59.666571 
L 88.710818 60.374945 
L 89.015182 61.085689 
L 89.319545 63.781409 
L 89.623909 62.904862 
L 89.928273 63.800664 
L 90.232636 63.676923 
L 90.537 64.672425 
L 90.841364 65.162078 
L 91.145727 66.781574 
L 92.058818 66.781574 
L 92.363182 68.72145 
L 92.667545 68.945317 
L 92.971909 68.938613 
L 93.276273 70.892018 
L 93.580636 70.109963 
L 93.885 70.109963 
L 94.189364 72.964531 
L 94.493727 72.964531 
L 94.798091 72.570978 
L 95.102455 73.92606 
L 95.406818 74.293132 
L 95.711182 74.293132 
L 96.015545 74.431154 
L 96.624273 74.431154 
L 96.928636 74.928781 
L 97.233 74.678889 
L 97.537364 74.828458 
L 98.146091 76.029475 
L 98.450455 77.676904 
L 99.059182 77.676904 
L 99.363545 77.517713 
L 99.667909 79.478584 
L 99.972273 79.193646 
L 100.581 80.741935 
L 100.885364 82.764507 
L 101.189727 83.645535 
L 101.494091 82.449226 
L 101.798455 82.522866 
L 102.102818 87.16171 
L 102.407182 87.452464 
L 102.711545 81.789533 
L 103.320273 81.789533 
L 103.624636 80.908504 
L 104.233364 83.084966 
L 104.537727 82.23895 
L 104.842091 83.530835 
L 105.146455 83.188111 
L 105.450818 84.090848 
L 105.755182 83.270211 
L 106.059545 82.855648 
L 106.363909 83.525122 
L 106.668273 82.901742 
L 106.972636 85.790045 
L 107.277 85.790045 
L 107.581364 83.14171 
L 107.885727 84.462872 
L 108.190091 84.462872 
L 108.494455 86.17911 
L 108.798818 84.525206 
L 109.103182 85.530596 
L 109.407545 88.532459 
L 109.711909 88.573588 
L 110.016273 86.635789 
L 110.625 88.234733 
L 110.929364 90.433206 
L 111.538091 90.497515 
L 111.842455 88.90019 
L 112.146818 88.90019 
L 112.451182 88.299364 
L 113.059909 89.178152 
L 113.364273 88.391486 
L 113.973 88.713644 
L 114.277364 87.488846 
L 114.581727 91.709771 
L 114.886091 91.193299 
L 115.494818 91.598546 
L 115.799182 91.257608 
L 116.103545 96.283517 
L 116.407909 92.869393 
L 116.712273 93.252664 
L 117.016636 91.88634 
L 117.321 95.058848 
L 117.625364 95.629166 
L 117.929727 97.000254 
L 118.234091 95.06225 
L 118.538455 95.606826 
L 118.842818 93.652051 
L 119.147182 93.356754 
L 119.451545 95.99858 
L 119.755909 96.303823 
L 120.364636 96.408792 
L 120.669 95.913683 
L 121.277727 95.913683 
L 121.582091 101.135081 
L 121.886455 99.83291 
L 122.190818 99.334618 
L 122.495182 99.58047 
L 122.799545 99.58047 
L 123.103909 103.717669 
L 123.408273 104.220927 
L 123.712636 99.58047 
L 124.017 98.428425 
L 124.321364 101.433211 
L 124.625727 101.433211 
L 124.930091 101.31468 
L 125.234455 100.963583 
L 125.538818 104.439533 
L 125.843182 101.766426 
L 126.147545 103.586315 
L 126.451909 103.586315 
L 126.756273 101.934387 
L 127.060636 103.655116 
L 127.365 101.847425 
L 127.669364 102.578996 
L 127.973727 102.295723 
L 128.278091 101.731707 
L 128.582455 104.159468 
L 128.886818 104.552223 
L 129.191182 103.224403 
L 129.799909 103.224403 
L 130.104273 102.426756 
L 130.408636 102.461995 
L 130.713 102.900993 
L 131.017364 102.93105 
L 131.321727 103.317588 
L 131.626091 102.534049 
L 131.930455 107.424791 
L 132.234818 107.245084 
L 132.539182 105.247282 
L 132.843545 107.354274 
L 133.147909 107.354274 
L 133.452273 106.556372 
L 134.365364 106.511075 
L 134.669727 108.159418 
L 134.974091 107.36418 
L 135.278455 107.573425 
L 135.582818 108.043085 
L 135.887182 109.650342 
L 136.191545 110.430043 
L 136.495909 108.290543 
L 136.800273 111.03318 
L 137.104636 111.080758 
L 137.409 110.962454 
L 137.713364 110.388478 
L 138.017727 111.47567 
L 138.322091 105.808828 
L 138.626455 105.53973 
L 138.930818 105.969038 
L 139.539545 108.773982 
L 139.843909 109.60853 
L 140.148273 107.859545 
L 140.757 107.859545 
L 141.061364 109.808631 
L 141.365727 110.042026 
L 141.670091 109.92482 
L 141.974455 110.081223 
L 142.278818 108.963917 
L 142.583182 112.93077 
L 142.887545 113.164164 
L 143.191909 110.818742 
L 143.496273 110.861736 
L 143.800636 113.262911 
L 144.105 111.58544 
L 144.409364 112.62037 
L 144.713727 113.232476 
L 145.018091 112.834746 
L 145.322455 114.881858 
L 145.626818 114.838772 
L 145.931182 123.075065 
L 146.235545 123.075065 
L 146.539909 119.634758 
L 147.148636 118.705265 
L 147.453 119.317371 
L 147.757364 120.268293 
L 148.366091 120.466878 
L 149.279182 124.125491 
L 149.583545 128.876523 
L 149.887909 129.361938 
L 150.192273 129.361938 
L 150.496636 126.349909 
L 150.801 126.126523 
L 151.105364 128.202361 
L 151.409727 128.202361 
L 151.714091 126.719769 
L 152.018455 124.260522 
L 152.322818 125.645794 
L 153.235909 124.614297 
L 153.540273 125.30294 
L 153.844636 127.700836 
L 154.149 128.193079 
L 154.453364 128.397849 
L 154.757727 120.847127 
L 155.062091 121.278588 
L 155.366455 120.847127 
L 155.670818 120.994534 
L 155.975182 120.662085 
L 156.279545 120.662085 
L 156.583909 120.280576 
L 156.888273 120.772819 
L 157.497 119.832153 
L 157.801364 120.263614 
L 158.105727 120.902941 
L 158.410091 120.902941 
L 158.714455 120.027772 
L 159.018818 121.488801 
L 159.627545 122.668087 
L 159.931909 126.271877 
L 160.236273 123.069777 
L 160.540636 125.106559 
L 160.845 126.321918 
L 161.149364 126.251799 
L 161.453727 125.771199 
L 161.758091 125.040591 
L 162.062455 127.479261 
L 162.366818 128.242126 
L 162.671182 127.803667 
L 162.975545 127.677531 
L 163.279909 127.178118 
L 163.584273 127.689822 
L 164.193 129.332843 
L 164.497364 130.663349 
L 165.106091 128.543455 
L 165.410455 128.290062 
L 166.323545 128.025043 
L 166.627909 127.309649 
L 167.236636 129.036112 
L 167.541 130.833753 
L 167.845364 130.476088 
L 168.149727 128.827166 
L 168.454091 128.003922 
L 168.758455 128.655313 
L 169.062818 130.597624 
L 169.367182 129.73545 
L 169.671545 130.943305 
L 169.975909 131.589121 
L 170.280273 129.420247 
L 170.584636 130.865131 
L 170.889 130.516684 
L 171.193364 131.263109 
L 171.497727 130.235494 
L 171.802091 130.783913 
L 172.106455 132.905617 
L 172.410818 130.89225 
L 172.715182 131.370805 
L 173.019545 130.376379 
L 173.323909 131.380452 
L 173.628273 132.851864 
L 173.932636 131.893523 
L 174.237 129.954426 
L 174.541364 130.733605 
L 174.845727 130.733605 
L 175.150091 130.226353 
L 175.758818 134.662851 
L 176.063182 133.828929 
L 176.367545 134.117092 
L 176.671909 133.519002 
L 176.976273 133.777101 
L 177.585 135.778573 
L 177.889364 135.679958 
L 178.193727 135.88196 
L 178.498091 135.091065 
L 178.802455 140.195752 
L 179.106818 140.0197 
L 179.411182 140.396666 
L 179.715545 135.62507 
L 180.019909 135.441493 
L 180.324273 137.571138 
L 180.628636 137.531882 
L 180.933 137.096689 
L 181.237364 139.658509 
L 181.541727 141.201412 
L 181.846091 141.104351 
L 182.150455 141.156548 
L 182.454818 137.139781 
L 182.759182 137.009632 
L 183.063545 137.422014 
L 183.367909 138.982765 
L 183.672273 139.276973 
L 183.976636 137.295544 
L 184.281 142.330422 
L 184.585364 143.284558 
L 184.889727 149.623061 
L 185.194091 148.859898 
L 185.498455 148.979978 
L 185.802818 140.259645 
L 186.107182 141.075994 
L 186.411545 141.075994 
L 186.715909 147.322279 
L 187.020273 147.897807 
L 187.324636 149.300164 
L 187.629 148.189287 
L 187.933364 145.696825 
L 188.237727 144.453695 
L 188.542091 144.414433 
L 188.846455 143.587159 
L 189.150818 147.738568 
L 189.455182 147.943339 
L 190.063909 147.943339 
L 190.368273 147.762808 
L 190.977 148.356151 
L 191.281364 148.356151 
L 191.890091 148.714133 
L 192.194455 148.953592 
L 192.803182 147.437038 
L 193.107545 148.142976 
L 193.411909 148.416066 
L 193.716273 149.110245 
L 194.020636 149.364117 
L 194.325 149.166563 
L 194.629364 149.166563 
L 194.933727 148.351676 
L 195.542455 149.320057 
L 195.846818 149.905496 
L 196.151182 149.670568 
L 196.455545 149.050519 
L 196.759909 149.050519 
L 197.064273 150.09297 
L 197.368636 150.309721 
L 197.673 149.22969 
L 197.977364 149.22969 
L 198.281727 149.727261 
L 198.890455 154.096751 
L 199.194818 157.281749 
L 199.803545 152.586142 
L 200.107909 151.242773 
L 200.716636 151.242773 
L 201.021 152.990951 
L 201.325364 150.602462 
L 201.629727 152.748161 
L 201.934091 151.629438 
L 202.238455 151.839501 
L 202.847182 150.78776 
L 203.151545 150.90084 
L 203.455909 151.715429 
L 203.760273 153.24202 
L 204.064636 152.957141 
L 204.369 151.550486 
L 204.673364 152.87671 
L 204.977727 153.155468 
L 206.195182 153.198662 
L 206.499545 152.812886 
L 206.803909 153.11001 
L 207.412636 153.189817 
L 208.021364 154.513974 
L 208.325727 154.35411 
L 208.630091 154.9855 
L 208.934455 155.2535 
L 209.238818 155.2535 
L 209.543182 156.834556 
L 209.847545 157.481176 
L 210.151909 157.42394 
L 210.456273 159.491389 
L 210.760636 159.395413 
L 211.065 158.393313 
L 211.369364 155.982354 
L 211.673727 159.972767 
L 211.978091 160.882555 
L 212.282455 160.882555 
L 212.586818 158.371206 
L 212.891182 157.701759 
L 213.195545 157.701759 
L 213.804273 158.901299 
L 214.108636 159.451448 
L 214.413 161.272907 
L 215.021727 158.024943 
L 215.326091 157.5144 
L 215.630455 157.292946 
L 215.934818 156.225951 
L 216.239182 156.717249 
L 216.543545 158.713659 
L 217.152273 157.796589 
L 217.456636 158.434079 
L 217.761 157.838333 
L 218.065364 157.617209 
L 218.369727 158.933553 
L 218.674091 158.933553 
L 218.978455 160.579826 
L 219.282818 160.638906 
L 219.587182 161.146507 
L 219.891545 162.020316 
L 220.195909 162.316052 
L 220.500273 164.769112 
L 220.804636 164.769112 
L 221.109 164.921332 
L 221.413364 164.219817 
L 221.717727 165.219541 
L 222.022091 164.986938 
L 222.326455 164.986938 
L 222.630818 164.399996 
L 222.935182 164.399996 
L 223.239545 165.801704 
L 223.543909 165.920165 
L 223.848273 165.801704 
L 224.152636 164.873665 
L 224.457 168.138843 
L 224.761364 169.34424 
L 225.065727 169.34424 
L 225.370091 169.62834 
L 225.674455 170.651282 
L 225.978818 169.181799 
L 226.283182 170.186466 
L 226.587545 166.62851 
L 226.891909 167.718894 
L 227.196273 167.512893 
L 227.805 167.512893 
L 228.109364 170.328279 
L 228.413727 169.603508 
L 228.718091 170.646712 
L 229.022455 170.935427 
L 229.326818 170.935427 
L 229.631182 171.078052 
L 229.935545 173.009364 
L 230.544273 173.129668 
L 230.848636 170.3539 
L 231.153 170.964006 
L 231.457364 170.964006 
L 231.761727 169.344249 
L 232.066091 171.330865 
L 232.674818 171.220345 
L 232.979182 174.083536 
L 233.587909 174.083536 
L 233.892273 173.943334 
L 234.501 174.681377 
L 234.805364 174.167145 
L 235.109727 174.607943 
L 235.414091 174.284398 
L 235.718455 173.683251 
L 236.022818 173.683251 
L 236.327182 173.445767 
L 236.631545 173.544354 
L 236.935909 174.339045 
L 237.849 174.339045 
L 238.153364 174.198843 
L 238.457727 174.411868 
L 238.762091 175.39508 
L 239.066455 175.39508 
L 239.370818 174.411868 
L 239.675182 174.9378 
L 239.979545 175.211111 
L 240.283909 174.609963 
L 240.588273 174.609963 
L 240.892636 175.211111 
L 241.197 175.211111 
L 241.501364 174.710594 
L 241.805727 174.611879 
L 242.110091 173.3815 
L 242.718818 173.346395 
L 243.023182 171.67362 
L 243.631909 173.259848 
L 244.240636 174.937227 
L 244.545 174.937227 
L 244.849364 175.298088 
L 245.153727 175.298088 
L 245.458091 176.528016 
L 245.762455 175.544804 
L 246.066818 173.225196 
L 246.371182 172.256315 
L 246.675545 174.180072 
L 246.979909 173.578924 
L 247.284273 170.378125 
L 247.588636 171.932009 
L 247.893 169.612215 
L 248.197364 171.404734 
L 248.501727 170.358053 
L 248.806091 170.959201 
L 249.110455 176.049796 
L 249.414818 176.049796 
L 249.719182 174.495913 
L 250.023545 173.89695 
L 250.327909 173.71621 
L 250.632273 174.21343 
L 250.936636 177.447375 
L 251.241 177.021083 
L 251.545364 176.79053 
L 251.849727 176.833524 
L 252.154091 178.271404 
L 252.458455 178.303393 
L 252.762818 177.984961 
L 253.067182 179.411996 
L 253.371545 179.894454 
L 253.675909 179.894454 
L 253.980273 178.933597 
L 254.589 178.901608 
L 254.893364 180.811101 
L 255.197727 181.410063 
L 255.502091 182.629441 
L 257.023909 182.629441 
L 257.632636 181.400274 
L 258.241364 181.787725 
L 258.545727 180.709076 
L 258.850091 177.207233 
L 259.458818 180.980104 
L 259.763182 181.469752 
L 260.067545 178.213789 
L 260.371909 178.213789 
L 260.676273 176.972628 
L 260.980636 177.631691 
L 261.285 182.574259 
L 261.589364 182.358228 
L 261.893727 181.047849 
L 262.198091 181.047849 
L 262.502455 180.357222 
L 262.806818 182.478402 
L 263.111182 182.203684 
L 263.719909 179.455202 
L 264.024273 181.911856 
L 264.633 181.911856 
L 264.937364 179.929256 
L 265.546091 181.962573 
L 265.850455 181.673778 
L 266.459182 185.978074 
L 266.763545 186.102828 
L 267.067909 185.903777 
L 267.372273 186.344084 
L 267.676636 187.700058 
L 268.285364 187.700745 
L 268.589727 187.132275 
L 268.894091 188.006646 
L 269.198455 190.333431 
L 269.502818 186.171431 
L 269.807182 186.171431 
L 270.111545 184.487412 
L 270.720273 185.824925 
L 271.024636 183.374138 
L 271.329 183.374138 
L 271.633364 189.901798 
L 271.937727 189.029012 
L 272.546455 190.175405 
L 272.850818 191.533147 
L 273.155182 190.69798 
L 273.459545 188.43686 
L 273.763909 189.868135 
L 274.068273 190.350303 
L 274.372636 190.266184 
L 274.677 195.330117 
L 275.285727 195.158901 
L 275.894455 195.158901 
L 276.198818 196.548873 
L 276.503182 196.747924 
L 276.807545 196.747924 
L 277.416273 195.010164 
L 277.720636 194.464892 
L 278.025 193.222225 
L 278.329364 194.206855 
L 278.633727 193.178173 
L 278.938091 195.024479 
L 279.242455 195.642694 
L 279.546818 196.995589 
L 279.851182 189.485524 
L 280.155545 190.31695 
L 280.764273 194.31097 
L 281.068636 197.397133 
L 281.981727 196.451684 
L 282.286091 192.109703 
L 282.590455 192.503487 
L 282.894818 195.046032 
L 283.503545 193.893394 
L 283.807909 195.837194 
L 284.112273 194.15356 
L 284.416636 194.15356 
L 284.721 192.743874 
L 285.025364 197.09166 
L 285.329727 199.012813 
L 285.634091 199.867312 
L 285.938455 199.867312 
L 286.242818 197.923512 
L 286.547182 196.935053 
L 286.851545 197.167934 
L 287.155909 192.123863 
L 287.460273 197.370964 
L 287.764636 197.969759 
L 288.069 199.59461 
L 288.373364 199.391579 
L 288.677727 196.97177 
L 288.982091 197.901211 
L 289.286455 195.122648 
L 289.590818 196.359008 
L 289.895182 196.359257 
L 290.199545 196.90453 
L 290.503909 196.90453 
L 290.808273 197.6908 
L 291.112636 196.671416 
L 291.417 196.671416 
L 291.721364 197.017658 
L 292.025727 197.017658 
L 292.330091 198.758877 
L 292.634455 198.758877 
L 292.938818 199.013263 
L 293.243182 198.644354 
L 293.547545 196.67453 
L 293.851909 197.390432 
L 294.156273 198.980341 
L 294.460636 198.980341 
L 294.765 199.234728 
L 295.069364 198.643611 
L 295.373727 200.534669 
L 295.678091 200.534669 
L 295.982455 199.589045 
L 296.286818 201.771837 
L 296.591182 201.662062 
L 296.895545 200.34356 
L 297.199909 200.34356 
L 297.504273 200.985022 
L 297.808636 201.271891 
L 298.417364 202.611797 
L 298.721727 202.721572 
L 299.026091 202.484567 
L 299.330455 202.655782 
L 299.634818 202.655782 
L 300.243545 201.20287 
L 300.547909 201.439875 
L 300.852273 201.439875 
L 301.156636 201.260932 
L 301.461 201.260932 
L 301.765364 199.297988 
L 302.069727 199.537448 
L 302.374091 199.537448 
L 302.678455 199.351736 
L 302.982818 197.09166 
L 303.287182 196.192437 
L 303.591545 199.126545 
L 303.895909 198.712973 
L 304.504636 198.712973 
L 304.809 199.034567 
L 305.113364 200.151426 
L 305.722091 197.935606 
L 306.026455 200.551387 
L 306.635182 203.845867 
L 306.939545 203.427184 
L 307.243909 204.00048 
L 307.548273 204.00048 
L 307.852636 202.358813 
L 308.157 202.499983 
L 308.461364 200.544943 
L 308.765727 202.148846 
L 309.070091 201.648975 
L 309.374455 200.552507 
L 309.678818 202.86693 
L 309.983182 203.019594 
L 310.287545 201.695494 
L 310.591909 201.091887 
L 311.200636 202.124017 
L 311.505 204.810055 
L 311.809364 203.713586 
L 312.113727 205.011855 
L 312.418091 205.011855 
L 312.722455 206.762235 
L 313.026818 205.11817 
L 313.331182 205.153575 
L 313.635545 203.333972 
L 313.939909 203.937578 
L 314.244273 203.937578 
L 314.548636 205.97024 
L 314.853 205.97024 
L 315.157364 204.181797 
L 315.461727 204.569286 
L 315.766091 205.584521 
L 316.070455 204.517429 
L 316.374818 205.936863 
L 316.679182 204.278772 
L 316.983545 205.789039 
L 317.287909 206.305172 
L 317.592273 204.336842 
L 317.896636 205.488798 
L 318.201 205.488798 
L 318.505364 205.322047 
L 319.114091 204.846956 
L 319.418455 206.751185 
L 319.722818 206.595534 
L 320.027182 206.595534 
L 320.331545 206.286542 
L 320.635909 207.705977 
L 320.940273 207.705977 
L 321.244636 207.895225 
L 321.549 207.624795 
L 321.853364 207.969417 
L 322.157727 207.29385 
L 322.462091 207.253393 
L 322.766455 210.36869 
L 323.375182 210.302492 
L 323.983909 210.302492 
L 324.288273 209.438488 
L 324.897 209.438488 
L 325.201364 207.74841 
L 325.505727 208.054826 
L 325.810091 207.341295 
L 326.114455 209.523407 
L 326.418818 207.685917 
L 326.723182 207.714057 
L 327.027545 206.48355 
L 327.331909 207.361531 
L 327.636273 206.992622 
L 327.940636 210.976903 
L 328.245 210.747229 
L 328.853727 210.817319 
L 329.158091 208.374177 
L 329.462455 210.363563 
L 329.766818 208.117901 
L 330.071182 208.117901 
L 330.375545 208.851051 
L 330.679909 208.310188 
L 330.984273 208.865871 
L 331.288636 209.831532 
L 331.593 211.269985 
L 331.897364 212.108477 
L 332.201727 212.108477 
L 332.506091 212.605421 
L 332.810455 215.202831 
L 333.114818 216.816779 
L 333.419182 215.68282 
L 333.723545 215.526923 
L 334.332273 216.347288 
L 334.636636 216.395509 
L 335.245364 213.099254 
L 335.854091 218.88 
L 336.158455 215.524892 
L 336.462818 215.760932 
L 336.767182 216.180689 
L 337.071545 216.180689 
L 337.375909 215.639663 
L 337.680273 214.143028 
L 337.984636 214.642037 
L 338.289 213.506521 
L 338.593364 214.208908 
L 338.897727 213.608011 
L 339.202091 212.576896 
L 339.506455 212.542927 
L 339.810818 213.422351 
L 340.115182 213.422351 
L 340.419545 216.520246 
L 341.028273 214.677655 
L 341.332636 214.744734 
L 341.637 214.634124 
L 341.941364 214.024666 
L 342.245727 214.933691 
L 342.550091 214.984504 
L 342.854455 214.520924 
L 343.158818 214.645828 
L 343.463182 215.15985 
L 343.767545 215.15985 
L 344.071909 216.049604 
L 344.376273 216.445705 
L 344.680636 216.445705 
L 344.985 215.43665 
L 345.289364 215.611249 
L 345.593727 216.559939 
L 345.898091 216.005445 
L 346.202455 216.94939 
L 346.506818 217.409358 
L 346.506818 217.409358 
" clip-path="url(#pf15c3596c0)" style="fill: none; stroke: #1f77b4; stroke-width: 1.5; stroke-linecap: square"/>
   </g>
   <g id="patch_3">
    <path d="M 26.925 228.96 
L 26.925 7.2 
" style="fill: none; stroke: #000000; stroke-width: 0.8; stroke-linejoin: miter; stroke-linecap: square"/>
   </g>
   <g id="patch_4">
    <path d="M 361.725 228.96 
L 361.725 7.2 
" style="fill: none; stroke: #000000; stroke-width: 0.8; stroke-linejoin: miter; stroke-linecap: square"/>
   </g>
   <g id="patch_5">
    <path d="M 26.925 228.96 
L 361.725 228.96 
" style="fill: none; stroke: #000000; stroke-width: 0.8; stroke-linejoin: miter; stroke-linecap: square"/>
   </g>
   <g id="patch_6">
    <path d="M 26.925 7.2 
L 361.725 7.2 
" style="fill: none; stroke: #000000; stroke-width: 0.8; stroke-linejoin: miter; stroke-linecap: square"/>
   </g>
  </g>
 </g>
 <defs>
  <clipPath id="pf15c3596c0">
   <rect x="26.925" y="7.2" width="334.8" height="221.76"/>
  </clipPath>
 </defs>
</svg>
