<?xml version="1.0" encoding="utf-8" standalone="no"?>
<!DOCTYPE svg PUBLIC "-//W3C//DTD SVG 1.1//EN"
  "http://www.w3.org/Graphics/SVG/1.1/DTD/svg11.dtd">
<svg xmlns:xlink="http://www.w3.org/1999/xlink" width="369.858322pt" height="252.838125pt" viewBox="0 0 369.858322 252.838125" xmlns="http://www.w3.org/2000/svg" version="1.1">
 <metadata>
  <rdf:RDF xmlns:dc="http://purl.org/dc/elements/1.1/" xmlns:cc="http://creativecommons.org/ns#" xmlns:rdf="http://www.w3.org/1999/02/22-rdf-syntax-ns#">
   <cc:Work>
    <dc:type rdf:resource="http://purl.org/dc/dcmitype/StillImage"/>
    <dc:date>2023-04-18T05:45:43.351723</dc:date>
    <dc:format>image/svg+xml</dc:format>
    <dc:creator>
     <cc:Agent>
      <dc:title>Matplotlib v3.7.1, https://matplotlib.org/</dc:title>
     </cc:Agent>
    </dc:creator>
   </cc:Work>
  </rdf:RDF>
 </metadata>
 <defs>
  <style type="text/css">*{stroke-linejoin: round; stroke-linecap: butt}</style>
 </defs>
 <g id="figure_1">
  <g id="patch_1">
   <path d="M -0 252.838125 
L 369.858322 252.838125 
L 369.858322 0 
L -0 0 
z
" style="fill: #ffffff"/>
  </g>
  <g id="axes_1">
   <g id="patch_2">
    <path d="M 26.925 228.96 
L 361.725 228.96 
L 361.725 7.2 
L 26.925 7.2 
z
" style="fill: #ffffff"/>
   </g>
   <g id="matplotlib.axis_1">
    <g id="xtick_1">
     <g id="line2d_1">
      <defs>
       <path id="mdc1d59a9c1" d="M 0 0 
L 0 3.5 
" style="stroke: #000000; stroke-width: 0.8"/>
      </defs>
      <g>
       <use xlink:href="#mdc1d59a9c1" x="42.006204" y="228.96" style="stroke: #000000; stroke-width: 0.8"/>
      </g>
     </g>
     <g id="text_1">
      <!-- 0 -->
      <g transform="translate(38.824954 243.558438) scale(0.1 -0.1)">
       <defs>
        <path id="DejaVuSans-30" d="M 2034 4250 
Q 1547 4250 1301 3770 
Q 1056 3291 1056 2328 
Q 1056 1369 1301 889 
Q 1547 409 2034 409 
Q 2525 409 2770 889 
Q 3016 1369 3016 2328 
Q 3016 3291 2770 3770 
Q 2525 4250 2034 4250 
z
M 2034 4750 
Q 2819 4750 3233 4129 
Q 3647 3509 3647 2328 
Q 3647 1150 3233 529 
Q 2819 -91 2034 -91 
Q 1250 -91 836 529 
Q 422 1150 422 2328 
Q 422 3509 836 4129 
Q 1250 4750 2034 4750 
z
" transform="scale(0.015625)"/>
       </defs>
       <use xlink:href="#DejaVuSans-30"/>
      </g>
     </g>
    </g>
    <g id="xtick_2">
     <g id="line2d_2">
      <g>
       <use xlink:href="#mdc1d59a9c1" x="103.591628" y="228.96" style="stroke: #000000; stroke-width: 0.8"/>
      </g>
     </g>
     <g id="text_2">
      <!-- 500 -->
      <g transform="translate(94.047878 243.558438) scale(0.1 -0.1)">
       <defs>
        <path id="DejaVuSans-35" d="M 691 4666 
L 3169 4666 
L 3169 4134 
L 1269 4134 
L 1269 2991 
Q 1406 3038 1543 3061 
Q 1681 3084 1819 3084 
Q 2600 3084 3056 2656 
Q 3513 2228 3513 1497 
Q 3513 744 3044 326 
Q 2575 -91 1722 -91 
Q 1428 -91 1123 -41 
Q 819 9 494 109 
L 494 744 
Q 775 591 1075 516 
Q 1375 441 1709 441 
Q 2250 441 2565 725 
Q 2881 1009 2881 1497 
Q 2881 1984 2565 2268 
Q 2250 2553 1709 2553 
Q 1456 2553 1204 2497 
Q 953 2441 691 2322 
L 691 4666 
z
" transform="scale(0.015625)"/>
       </defs>
       <use xlink:href="#DejaVuSans-35"/>
       <use xlink:href="#DejaVuSans-30" x="63.623047"/>
       <use xlink:href="#DejaVuSans-30" x="127.246094"/>
      </g>
     </g>
    </g>
    <g id="xtick_3">
     <g id="line2d_3">
      <g>
       <use xlink:href="#mdc1d59a9c1" x="165.177052" y="228.96" style="stroke: #000000; stroke-width: 0.8"/>
      </g>
     </g>
     <g id="text_3">
      <!-- 1000 -->
      <g transform="translate(152.452052 243.558438) scale(0.1 -0.1)">
       <defs>
        <path id="DejaVuSans-31" d="M 794 531 
L 1825 531 
L 1825 4091 
L 703 3866 
L 703 4441 
L 1819 4666 
L 2450 4666 
L 2450 531 
L 3481 531 
L 3481 0 
L 794 0 
L 794 531 
z
" transform="scale(0.015625)"/>
       </defs>
       <use xlink:href="#DejaVuSans-31"/>
       <use xlink:href="#DejaVuSans-30" x="63.623047"/>
       <use xlink:href="#DejaVuSans-30" x="127.246094"/>
       <use xlink:href="#DejaVuSans-30" x="190.869141"/>
      </g>
     </g>
    </g>
    <g id="xtick_4">
     <g id="line2d_4">
      <g>
       <use xlink:href="#mdc1d59a9c1" x="226.762475" y="228.96" style="stroke: #000000; stroke-width: 0.8"/>
      </g>
     </g>
     <g id="text_4">
      <!-- 1500 -->
      <g transform="translate(214.037475 243.558438) scale(0.1 -0.1)">
       <use xlink:href="#DejaVuSans-31"/>
       <use xlink:href="#DejaVuSans-35" x="63.623047"/>
       <use xlink:href="#DejaVuSans-30" x="127.246094"/>
       <use xlink:href="#DejaVuSans-30" x="190.869141"/>
      </g>
     </g>
    </g>
    <g id="xtick_5">
     <g id="line2d_5">
      <g>
       <use xlink:href="#mdc1d59a9c1" x="288.347899" y="228.96" style="stroke: #000000; stroke-width: 0.8"/>
      </g>
     </g>
     <g id="text_5">
      <!-- 2000 -->
      <g transform="translate(275.622899 243.558438) scale(0.1 -0.1)">
       <defs>
        <path id="DejaVuSans-32" d="M 1228 531 
L 3431 531 
L 3431 0 
L 469 0 
L 469 531 
Q 828 903 1448 1529 
Q 2069 2156 2228 2338 
Q 2531 2678 2651 2914 
Q 2772 3150 2772 3378 
Q 2772 3750 2511 3984 
Q 2250 4219 1831 4219 
Q 1534 4219 1204 4116 
Q 875 4013 500 3803 
L 500 4441 
Q 881 4594 1212 4672 
Q 1544 4750 1819 4750 
Q 2544 4750 2975 4387 
Q 3406 4025 3406 3419 
Q 3406 3131 3298 2873 
Q 3191 2616 2906 2266 
Q 2828 2175 2409 1742 
Q 1991 1309 1228 531 
z
" transform="scale(0.015625)"/>
       </defs>
       <use xlink:href="#DejaVuSans-32"/>
       <use xlink:href="#DejaVuSans-30" x="63.623047"/>
       <use xlink:href="#DejaVuSans-30" x="127.246094"/>
       <use xlink:href="#DejaVuSans-30" x="190.869141"/>
      </g>
     </g>
    </g>
    <g id="xtick_6">
     <g id="line2d_6">
      <g>
       <use xlink:href="#mdc1d59a9c1" x="349.933322" y="228.96" style="stroke: #000000; stroke-width: 0.8"/>
      </g>
     </g>
     <g id="text_6">
      <!-- 2500 -->
      <g transform="translate(337.208322 243.558438) scale(0.1 -0.1)">
       <use xlink:href="#DejaVuSans-32"/>
       <use xlink:href="#DejaVuSans-35" x="63.623047"/>
       <use xlink:href="#DejaVuSans-30" x="127.246094"/>
       <use xlink:href="#DejaVuSans-30" x="190.869141"/>
      </g>
     </g>
    </g>
   </g>
   <g id="matplotlib.axis_2">
    <g id="ytick_1">
     <g id="line2d_7">
      <defs>
       <path id="mb21b1b855b" d="M 0 0 
L -3.5 0 
" style="stroke: #000000; stroke-width: 0.8"/>
      </defs>
      <g>
       <use xlink:href="#mb21b1b855b" x="26.925" y="212.952246" style="stroke: #000000; stroke-width: 0.8"/>
      </g>
     </g>
     <g id="text_7">
      <!-- 60 -->
      <g transform="translate(7.2 216.751465) scale(0.1 -0.1)">
       <defs>
        <path id="DejaVuSans-36" d="M 2113 2584 
Q 1688 2584 1439 2293 
Q 1191 2003 1191 1497 
Q 1191 994 1439 701 
Q 1688 409 2113 409 
Q 2538 409 2786 701 
Q 3034 994 3034 1497 
Q 3034 2003 2786 2293 
Q 2538 2584 2113 2584 
z
M 3366 4563 
L 3366 3988 
Q 3128 4100 2886 4159 
Q 2644 4219 2406 4219 
Q 1781 4219 1451 3797 
Q 1122 3375 1075 2522 
Q 1259 2794 1537 2939 
Q 1816 3084 2150 3084 
Q 2853 3084 3261 2657 
Q 3669 2231 3669 1497 
Q 3669 778 3244 343 
Q 2819 -91 2113 -91 
Q 1303 -91 875 529 
Q 447 1150 447 2328 
Q 447 3434 972 4092 
Q 1497 4750 2381 4750 
Q 2619 4750 2861 4703 
Q 3103 4656 3366 4563 
z
" transform="scale(0.015625)"/>
       </defs>
       <use xlink:href="#DejaVuSans-36"/>
       <use xlink:href="#DejaVuSans-30" x="63.623047"/>
      </g>
     </g>
    </g>
    <g id="ytick_2">
     <g id="line2d_8">
      <g>
       <use xlink:href="#mb21b1b855b" x="26.925" y="180.249519" style="stroke: #000000; stroke-width: 0.8"/>
      </g>
     </g>
     <g id="text_8">
      <!-- 65 -->
      <g transform="translate(7.2 184.048737) scale(0.1 -0.1)">
       <use xlink:href="#DejaVuSans-36"/>
       <use xlink:href="#DejaVuSans-35" x="63.623047"/>
      </g>
     </g>
    </g>
    <g id="ytick_3">
     <g id="line2d_9">
      <g>
       <use xlink:href="#mb21b1b855b" x="26.925" y="147.546791" style="stroke: #000000; stroke-width: 0.8"/>
      </g>
     </g>
     <g id="text_9">
      <!-- 70 -->
      <g transform="translate(7.2 151.34601) scale(0.1 -0.1)">
       <defs>
        <path id="DejaVuSans-37" d="M 525 4666 
L 3525 4666 
L 3525 4397 
L 1831 0 
L 1172 0 
L 2766 4134 
L 525 4134 
L 525 4666 
z
" transform="scale(0.015625)"/>
       </defs>
       <use xlink:href="#DejaVuSans-37"/>
       <use xlink:href="#DejaVuSans-30" x="63.623047"/>
      </g>
     </g>
    </g>
    <g id="ytick_4">
     <g id="line2d_10">
      <g>
       <use xlink:href="#mb21b1b855b" x="26.925" y="114.844064" style="stroke: #000000; stroke-width: 0.8"/>
      </g>
     </g>
     <g id="text_10">
      <!-- 75 -->
      <g transform="translate(7.2 118.643282) scale(0.1 -0.1)">
       <use xlink:href="#DejaVuSans-37"/>
       <use xlink:href="#DejaVuSans-35" x="63.623047"/>
      </g>
     </g>
    </g>
    <g id="ytick_5">
     <g id="line2d_11">
      <g>
       <use xlink:href="#mb21b1b855b" x="26.925" y="82.141336" style="stroke: #000000; stroke-width: 0.8"/>
      </g>
     </g>
     <g id="text_11">
      <!-- 80 -->
      <g transform="translate(7.2 85.940555) scale(0.1 -0.1)">
       <defs>
        <path id="DejaVuSans-38" d="M 2034 2216 
Q 1584 2216 1326 1975 
Q 1069 1734 1069 1313 
Q 1069 891 1326 650 
Q 1584 409 2034 409 
Q 2484 409 2743 651 
Q 3003 894 3003 1313 
Q 3003 1734 2745 1975 
Q 2488 2216 2034 2216 
z
M 1403 2484 
Q 997 2584 770 2862 
Q 544 3141 544 3541 
Q 544 4100 942 4425 
Q 1341 4750 2034 4750 
Q 2731 4750 3128 4425 
Q 3525 4100 3525 3541 
Q 3525 3141 3298 2862 
Q 3072 2584 2669 2484 
Q 3125 2378 3379 2068 
Q 3634 1759 3634 1313 
Q 3634 634 3220 271 
Q 2806 -91 2034 -91 
Q 1263 -91 848 271 
Q 434 634 434 1313 
Q 434 1759 690 2068 
Q 947 2378 1403 2484 
z
M 1172 3481 
Q 1172 3119 1398 2916 
Q 1625 2713 2034 2713 
Q 2441 2713 2670 2916 
Q 2900 3119 2900 3481 
Q 2900 3844 2670 4047 
Q 2441 4250 2034 4250 
Q 1625 4250 1398 4047 
Q 1172 3844 1172 3481 
z
" transform="scale(0.015625)"/>
       </defs>
       <use xlink:href="#DejaVuSans-38"/>
       <use xlink:href="#DejaVuSans-30" x="63.623047"/>
      </g>
     </g>
    </g>
    <g id="ytick_6">
     <g id="line2d_12">
      <g>
       <use xlink:href="#mb21b1b855b" x="26.925" y="49.438609" style="stroke: #000000; stroke-width: 0.8"/>
      </g>
     </g>
     <g id="text_12">
      <!-- 85 -->
      <g transform="translate(7.2 53.237828) scale(0.1 -0.1)">
       <use xlink:href="#DejaVuSans-38"/>
       <use xlink:href="#DejaVuSans-35" x="63.623047"/>
      </g>
     </g>
    </g>
    <g id="ytick_7">
     <g id="line2d_13">
      <g>
       <use xlink:href="#mb21b1b855b" x="26.925" y="16.735882" style="stroke: #000000; stroke-width: 0.8"/>
      </g>
     </g>
     <g id="text_13">
      <!-- 90 -->
      <g transform="translate(7.2 20.5351) scale(0.1 -0.1)">
       <defs>
        <path id="DejaVuSans-39" d="M 703 97 
L 703 672 
Q 941 559 1184 500 
Q 1428 441 1663 441 
Q 2288 441 2617 861 
Q 2947 1281 2994 2138 
Q 2813 1869 2534 1725 
Q 2256 1581 1919 1581 
Q 1219 1581 811 2004 
Q 403 2428 403 3163 
Q 403 3881 828 4315 
Q 1253 4750 1959 4750 
Q 2769 4750 3195 4129 
Q 3622 3509 3622 2328 
Q 3622 1225 3098 567 
Q 2575 -91 1691 -91 
Q 1453 -91 1209 -44 
Q 966 3 703 97 
z
M 1959 2075 
Q 2384 2075 2632 2365 
Q 2881 2656 2881 3163 
Q 2881 3666 2632 3958 
Q 2384 4250 1959 4250 
Q 1534 4250 1286 3958 
Q 1038 3666 1038 3163 
Q 1038 2656 1286 2365 
Q 1534 2075 1959 2075 
z
" transform="scale(0.015625)"/>
       </defs>
       <use xlink:href="#DejaVuSans-39"/>
       <use xlink:href="#DejaVuSans-30" x="63.623047"/>
      </g>
     </g>
    </g>
   </g>
   <g id="line2d_14">
    <path d="M 42.143182 17.28 
L 42.47743 19.546392 
L 42.819246 19.375809 
L 43.108106 22.322514 
L 43.426592 23.586333 
L 43.677811 27.443128 
L 43.987972 25.145382 
L 44.330219 28.671987 
L 44.609064 29.744455 
L 45.271284 29.744455 
L 45.593011 30.072806 
L 45.938009 31.190982 
L 46.201989 29.744455 
L 46.528801 29.84571 
L 46.858303 31.350535 
L 47.781394 32.42002 
L 48.075332 33.615034 
L 48.407611 34.020431 
L 48.709158 33.615034 
L 49.277402 36.75779 
L 49.581213 36.784744 
L 49.895515 37.102085 
L 50.140923 37.102085 
L 50.42029 37.565943 
L 50.964433 37.596852 
L 51.890036 37.988839 
L 52.207811 39.026072 
L 52.513263 39.168949 
L 52.82463 39.168949 
L 53.12652 39.282079 
L 53.44841 40.104845 
L 53.772108 41.856096 
L 54.04742 41.944967 
L 54.317097 42.379069 
L 54.602695 44.252033 
L 54.852742 44.852622 
L 55.130976 44.852622 
L 55.430818 45.232892 
L 55.718153 45.232892 
L 56.05882 45.362244 
L 56.344463 46.005236 
L 56.658919 46.017739 
L 56.921751 47.061126 
L 57.227829 47.511943 
L 57.819753 47.511943 
L 58.143088 48.091365 
L 58.444609 49.017986 
L 58.766144 49.417797 
L 59.062129 49.417797 
L 59.714894 50.805675 
L 60.01806 51.782108 
L 60.309865 51.782108 
L 60.609785 52.090546 
L 60.919086 52.09977 
L 61.222373 52.554069 
L 61.540377 53.370364 
L 61.793788 53.413137 
L 62.090337 54.235404 
L 62.715648 54.272026 
L 63.268442 57.020156 
L 63.549932 57.020156 
L 63.874818 57.962876 
L 64.117603 57.512034 
L 64.424415 58.106027 
L 64.696142 58.106027 
L 65.021564 58.533218 
L 65.366819 59.51581 
L 65.67568 59.003477 
L 67.159626 61.270071 
L 67.467749 61.270071 
L 67.791275 60.812462 
L 68.032918 61.058447 
L 68.356631 61.167115 
L 68.956407 61.698131 
L 70.192803 62.028166 
L 70.487648 62.979509 
L 71.086931 62.987912 
L 71.404284 64.424376 
L 71.737043 63.768932 
L 72.043811 63.759871 
L 72.344832 64.366105 
L 72.69225 64.770556 
L 72.98646 64.350914 
L 73.309699 64.994408 
L 73.596453 64.966305 
L 74.137182 65.709884 
L 74.759665 66.210467 
L 75.37581 66.134895 
L 75.656517 68.202854 
L 75.924509 68.202854 
L 76.214281 68.613772 
L 76.57053 68.397105 
L 76.879058 68.782081 
L 77.180155 69.921784 
L 77.446228 69.921784 
L 77.780476 70.620606 
L 78.111027 71.569284 
L 78.395778 71.569284 
L 78.704147 72.195831 
L 80.284664 72.934555 
L 80.549899 72.934555 
L 80.861399 73.054188 
L 81.500399 73.70061 
L 82.133422 74.895863 
L 82.436005 74.942532 
L 83.681862 76.153781 
L 83.967991 77.237804 
L 84.601685 77.237804 
L 84.902016 77.903973 
L 85.175062 77.408872 
L 85.478071 78.23335 
L 85.804794 78.23335 
L 86.128869 78.914624 
L 86.469497 79.048989 
L 86.754904 78.914624 
L 87.425239 79.11472 
L 87.76679 79.121529 
L 87.998876 79.577412 
L 88.31634 79.577412 
L 88.655435 79.927554 
L 89.279285 81.161177 
L 89.887517 81.123102 
L 90.14369 81.686159 
L 90.465579 81.60078 
L 90.783369 82.502744 
L 91.030551 82.239156 
L 91.371791 82.502744 
L 91.680609 83.137708 
L 92.270459 83.088441 
L 92.59046 83.366381 
L 92.922723 83.207971 
L 93.2627 83.595127 
L 93.581414 83.595127 
L 94.1868 84.5593 
L 94.430525 84.680204 
L 94.755316 84.680204 
L 95.043384 84.847824 
L 95.383413 85.22298 
L 95.662306 85.228463 
L 95.966844 86.284738 
L 96.276303 86.008361 
L 96.555645 87.063437 
L 96.885004 87.566258 
L 97.818439 87.566258 
L 98.413525 88.270352 
L 98.732124 88.000503 
L 99.038016 88.315481 
L 99.373194 88.406461 
L 99.976912 89.262477 
L 100.308034 88.971318 
L 100.583122 89.868292 
L 101.51394 89.868292 
L 101.819428 90.806996 
L 102.145836 91.065448 
L 102.479868 90.534654 
L 102.789345 91.124373 
L 103.127286 91.394256 
L 104.334295 91.788342 
L 104.610115 92.632789 
L 104.904829 91.965321 
L 105.169288 92.371779 
L 105.773469 92.546568 
L 106.052035 93.121021 
L 106.655443 93.121021 
L 106.979062 92.546192 
L 107.241944 92.723171 
L 107.581949 93.40676 
L 107.904972 93.40676 
L 108.503517 93.73623 
L 108.815194 93.84145 
L 109.387763 94.467412 
L 109.715081 94.63676 
L 110.291255 95.852871 
L 110.580038 95.6422 
L 111.520344 96.040185 
L 111.838244 96.480483 
L 112.142211 96.571535 
L 112.485759 97.283908 
L 112.81156 97.474214 
L 113.120083 97.315753 
L 113.396003 97.341404 
L 113.726616 98.046297 
L 114.590882 98.238107 
L 114.881145 98.641571 
L 115.233901 98.861832 
L 115.510842 100.122124 
L 116.137636 100.122124 
L 116.460521 100.564164 
L 116.757291 100.362701 
L 117.057349 100.895153 
L 117.657204 101.212824 
L 117.950988 101.967326 
L 118.848678 102.686823 
L 119.135619 102.53003 
L 119.787533 102.583119 
L 120.976546 103.598281 
L 121.268388 103.742499 
L 121.898923 104.3668 
L 122.175615 104.3668 
L 122.500836 105.663627 
L 122.806685 105.663627 
L 123.087685 105.817773 
L 123.966216 107.443854 
L 124.277362 107.443854 
L 124.593983 107.317566 
L 124.918032 107.56525 
L 125.883735 107.56525 
L 126.136745 107.69374 
L 126.478056 108.135679 
L 126.772585 107.7346 
L 127.049777 108.370561 
L 127.381957 108.267488 
L 127.643597 108.677294 
L 127.994726 108.51389 
L 128.290863 109.467178 
L 128.632585 109.467178 
L 128.886991 109.834297 
L 129.176351 109.467178 
L 129.46408 109.622387 
L 129.768906 110.053895 
L 130.021501 110.138804 
L 130.322849 110.385173 
L 130.65238 112.032183 
L 130.971744 111.709725 
L 131.584954 112.90456 
L 132.853888 113.315225 
L 133.137159 114.15809 
L 133.43468 114.334306 
L 133.75866 114.827919 
L 134.400213 114.840069 
L 134.728222 115.963652 
L 135.048849 115.963652 
L 135.387042 117.063425 
L 135.727478 117.063425 
L 136.039052 117.25872 
L 136.593826 117.162728 
L 136.92641 117.079757 
L 137.232875 117.458426 
L 137.539394 117.458426 
L 137.862712 117.738475 
L 138.426031 118.791379 
L 138.759515 118.83225 
L 139.111798 119.006991 
L 139.628895 118.91948 
L 139.871843 118.987646 
L 140.845426 119.802437 
L 141.108482 119.802437 
L 141.431409 120.448944 
L 142.968182 120.551762 
L 143.255375 121.054945 
L 143.865103 121.216601 
L 144.170189 121.383807 
L 144.475941 121.791866 
L 144.764237 121.791866 
L 145.072262 122.25714 
L 145.677392 122.37965 
L 146.294795 122.86365 
L 146.567496 122.97894 
L 146.894916 123.430169 
L 147.479556 123.430169 
L 148.397331 123.998827 
L 148.723927 124.334376 
L 149.059194 124.334376 
L 149.670575 124.98014 
L 150.272621 124.98014 
L 150.537806 125.138002 
L 150.851977 125.68373 
L 151.117635 125.573867 
L 151.445749 125.796419 
L 151.770492 126.531026 
L 152.103099 126.531026 
L 152.45315 126.885925 
L 152.723071 127.871891 
L 153.022685 128.087471 
L 153.266858 128.087471 
L 153.550849 128.247064 
L 153.817984 128.819669 
L 154.149965 128.819669 
L 154.47007 128.63835 
L 154.754598 128.85393 
L 155.081633 128.923595 
L 155.421972 129.295939 
L 155.770184 129.472721 
L 156.005349 129.818776 
L 156.965592 130.27631 
L 157.219636 130.27631 
L 157.532764 130.91197 
L 157.796301 131.001876 
L 158.126288 131.284954 
L 158.424885 132.075531 
L 159.037761 132.075531 
L 159.326947 132.455241 
L 159.666773 132.620161 
L 160.279383 132.621899 
L 160.581963 133.205067 
L 161.148535 132.848541 
L 161.469736 132.919413 
L 161.815043 133.448239 
L 162.114893 133.448239 
L 162.396412 133.656725 
L 163.040776 133.76394 
L 163.293076 133.918983 
L 163.598482 133.918983 
L 163.909437 134.04199 
L 164.240365 134.4105 
L 164.558968 134.309733 
L 164.87481 134.394749 
L 165.164283 135.249301 
L 165.486106 135.342008 
L 166.416009 136.02472 
L 167.335306 136.646836 
L 167.638056 136.987696 
L 167.913979 137.99435 
L 168.212418 137.568405 
L 168.80805 137.696124 
L 169.14387 138.273148 
L 169.730822 138.273148 
L 170.037674 137.952877 
L 170.347567 138.311315 
L 170.667381 138.311315 
L 170.942224 138.164875 
L 171.230302 138.522775 
L 171.556664 138.741899 
L 171.880431 138.693185 
L 172.160529 138.994283 
L 172.47998 139.146268 
L 172.799113 139.490345 
L 173.105967 139.393792 
L 173.679388 139.514737 
L 173.910176 139.533104 
L 174.210399 140.060793 
L 174.508974 139.826846 
L 174.833158 140.554503 
L 175.111717 140.69374 
L 175.440159 141.03065 
L 175.740426 141.03065 
L 175.984366 141.207606 
L 176.838599 141.352463 
L 177.158377 141.857675 
L 177.479665 141.857675 
L 178.027452 142.239532 
L 178.360271 143.286653 
L 178.649249 143.286653 
L 178.979159 142.563808 
L 179.296226 142.49393 
L 179.612512 142.752052 
L 179.902109 142.810666 
L 180.514356 144.530796 
L 180.843847 144.530796 
L 181.109399 144.646436 
L 181.673397 144.530796 
L 181.997758 144.927589 
L 182.529963 144.833453 
L 182.816994 145.279527 
L 183.428125 145.288535 
L 183.737632 146.086071 
L 184.043473 146.39456 
L 185.20033 146.396219 
L 185.792311 146.777813 
L 186.066412 146.756784 
L 186.39894 147.221888 
L 186.661043 147.146473 
L 186.978133 147.411748 
L 187.601081 147.59173 
L 187.892379 147.955519 
L 188.128836 147.864193 
L 188.472217 147.864193 
L 188.769065 148.126491 
L 189.08863 148.784014 
L 189.375375 148.784014 
L 189.649606 149.231726 
L 189.972751 149.184846 
L 190.309581 149.374026 
L 190.595691 148.812817 
L 190.9036 148.682536 
L 191.216504 149.047574 
L 191.534234 149.231464 
L 191.842498 149.231464 
L 192.129531 149.61819 
L 192.437542 149.721934 
L 192.743497 150.168499 
L 193.694401 150.168499 
L 194.034838 150.743444 
L 194.93277 150.771062 
L 195.274272 150.895023 
L 197.077092 152.256754 
L 197.404669 153.003497 
L 197.692246 152.482717 
L 198.027765 153.567566 
L 198.937726 153.080225 
L 199.205082 153.199367 
L 199.748017 153.300559 
L 200.09635 153.866805 
L 200.405527 153.912859 
L 200.718917 154.149954 
L 201.025177 154.629767 
L 201.324309 154.333752 
L 201.637074 154.333752 
L 201.95901 155.273848 
L 202.274384 155.273848 
L 203.207335 156.574139 
L 203.7854 156.574139 
L 204.080185 157.425066 
L 204.941487 157.425066 
L 205.239039 157.145515 
L 206.152355 158.056065 
L 206.396684 158.02563 
L 207.332757 158.940691 
L 207.647583 158.866461 
L 208.272345 159.157478 
L 208.592833 159.565696 
L 208.925478 159.565696 
L 209.531179 160.032396 
L 209.831155 160.041098 
L 210.15729 160.678467 
L 210.742037 160.735127 
L 211.006538 161.021266 
L 211.30341 161.021266 
L 211.599651 160.890193 
L 211.885364 161.140708 
L 212.445132 161.230151 
L 212.752836 161.702468 
L 213.027752 161.841934 
L 213.337107 161.676847 
L 213.621552 161.676847 
L 213.944963 162.042447 
L 214.189745 161.777635 
L 214.514732 162.627067 
L 215.110581 162.72031 
L 215.397066 163.462986 
L 215.706679 163.596172 
L 216.0018 163.434245 
L 216.348725 163.820739 
L 217.306679 164.289945 
L 217.603868 164.676093 
L 218.580075 164.720189 
L 219.512664 164.941753 
L 219.810192 165.220155 
L 220.761226 165.605033 
L 221.068388 165.837214 
L 221.368359 165.837214 
L 221.681287 166.324689 
L 221.946922 166.176966 
L 222.838646 166.859227 
L 223.14773 166.824928 
L 223.441309 167.138261 
L 223.723259 167.138261 
L 224.034542 167.371091 
L 224.309193 167.418774 
L 224.654838 167.254584 
L 224.978122 167.968151 
L 225.581433 168.088415 
L 226.158847 169.417845 
L 226.445548 169.417845 
L 226.724268 169.610939 
L 227.02599 170.108559 
L 228.208745 170.185313 
L 228.523318 170.313275 
L 228.869693 170.100601 
L 229.149428 170.185116 
L 229.457549 170.519483 
L 230.340534 170.79432 
L 230.622295 170.601548 
L 231.171627 171.147765 
L 231.458865 170.873437 
L 232.091254 171.24532 
L 232.723765 172.112903 
L 233.020769 172.501534 
L 233.657321 172.823585 
L 233.968855 172.458376 
L 234.308829 172.554399 
L 234.612885 172.81761 
L 235.17059 172.91442 
L 235.522652 173.231467 
L 235.831358 173.074682 
L 236.175698 173.206514 
L 236.510721 173.491889 
L 236.823406 173.491889 
L 237.442403 174.045627 
L 238.337202 173.938726 
L 238.647071 174.183646 
L 238.947924 174.694632 
L 239.200416 174.694632 
L 239.542564 175.387905 
L 239.850564 175.387905 
L 240.478196 175.978491 
L 241.075423 175.904392 
L 241.350246 176.148101 
L 241.630793 176.046673 
L 241.914842 176.435488 
L 242.826984 176.910615 
L 243.111605 176.920107 
L 243.364559 177.277089 
L 243.674991 177.037771 
L 244.230376 177.485989 
L 244.511239 177.505077 
L 245.381893 178.085587 
L 245.991475 177.988696 
L 246.254712 178.394903 
L 246.886605 178.394903 
L 249.097823 179.199715 
L 250.048999 179.384699 
L 250.391526 180.038253 
L 250.999968 180.364861 
L 251.273691 180.364861 
L 251.606143 181.137204 
L 251.852681 181.185274 
L 252.135782 181.542528 
L 252.465145 181.542528 
L 252.731739 182.382539 
L 253.60338 182.487903 
L 253.924883 182.5146 
L 254.446496 183.074601 
L 254.723255 183.140877 
L 255.023029 183.694509 
L 255.345665 183.709976 
L 255.963815 184.146418 
L 256.560643 184.225094 
L 257.71366 184.543919 
L 258.03348 184.423983 
L 258.348488 184.743999 
L 258.692353 184.500337 
L 258.994993 184.653203 
L 259.31997 185.093322 
L 259.631621 185.093322 
L 259.923353 184.961149 
L 260.533734 185.116693 
L 261.091492 185.624016 
L 261.402636 185.624016 
L 262.007463 185.861303 
L 262.300259 185.861303 
L 262.619848 186.132816 
L 262.921344 186.055306 
L 263.859992 186.195656 
L 264.148121 186.414134 
L 264.753553 186.519851 
L 265.073654 186.747288 
L 265.950689 186.840438 
L 266.259888 186.878264 
L 266.571266 186.770902 
L 267.193403 187.081988 
L 268.113013 187.081988 
L 268.423172 187.27539 
L 268.718452 187.081988 
L 269.023442 187.390328 
L 269.286807 187.390328 
L 269.88478 187.810684 
L 270.171221 187.802554 
L 270.517534 188.910692 
L 271.330197 188.910692 
L 271.643157 189.058702 
L 271.887012 189.473778 
L 272.176109 189.661138 
L 272.517397 190.224038 
L 273.11971 190.531536 
L 273.422078 190.901621 
L 273.733662 190.514352 
L 274.066606 190.719019 
L 274.381319 191.07557 
L 275.927335 191.475797 
L 276.213559 191.79891 
L 276.498324 191.37065 
L 277.466605 192.276722 
L 277.791687 191.928938 
L 278.091264 191.954982 
L 278.38018 192.448458 
L 278.697687 192.247591 
L 278.992949 192.607458 
L 279.277065 192.440006 
L 279.582256 192.73122 
L 280.535834 192.82908 
L 280.876331 193.107615 
L 281.19503 193.070199 
L 282.124851 193.408322 
L 282.447235 193.974842 
L 283.093025 194.0746 
L 283.423891 194.501585 
L 284.072835 194.651213 
L 284.383078 194.482986 
L 285.272861 194.839578 
L 285.558199 195.487974 
L 285.889856 195.695997 
L 286.208231 195.487974 
L 286.533256 195.884481 
L 287.13409 195.851139 
L 287.429484 196.495533 
L 287.724882 196.588363 
L 288.034154 196.892039 
L 288.335975 196.884741 
L 288.671659 197.277823 
L 288.989822 197.277823 
L 289.650626 197.531295 
L 290.192367 198.068392 
L 291.3876 198.098089 
L 292.955676 198.571107 
L 293.269954 198.887661 
L 294.453449 198.887661 
L 294.773447 199.010911 
L 295.04168 199.359548 
L 295.314195 199.359548 
L 295.63283 199.664271 
L 296.292538 199.664271 
L 296.941746 200.194051 
L 297.243011 200.304956 
L 297.560862 200.557125 
L 297.826715 200.557125 
L 298.095338 200.752088 
L 298.370233 200.752088 
L 299.027548 201.16115 
L 299.623595 201.057657 
L 299.966419 201.391888 
L 300.251602 201.161136 
L 300.549624 201.161136 
L 300.905536 201.644866 
L 301.206847 201.559897 
L 301.529714 201.733271 
L 301.845499 202.155395 
L 302.181487 202.262425 
L 303.410438 203.076314 
L 303.707328 202.978386 
L 304.017963 203.307386 
L 304.351868 203.217704 
L 304.677319 203.334519 
L 305.287031 204.040324 
L 305.532198 204.081291 
L 305.817061 203.971202 
L 306.105801 204.554595 
L 306.425934 204.554595 
L 306.730818 204.275416 
L 307.065173 204.87636 
L 307.354952 204.580426 
L 307.667135 204.440453 
L 307.970479 204.627211 
L 308.878714 204.722919 
L 309.170212 204.998822 
L 309.783572 204.923182 
L 310.078702 205.034109 
L 310.36214 205.495516 
L 310.658979 206.260857 
L 310.995857 205.821544 
L 311.289712 205.699095 
L 311.564184 205.76297 
L 311.892462 205.680079 
L 312.193966 205.750695 
L 312.542015 206.243871 
L 312.839113 206.006313 
L 313.160269 206.092153 
L 313.758239 206.534582 
L 314.10117 206.526284 
L 314.402748 206.839502 
L 314.695382 207.598993 
L 315.018633 207.011189 
L 315.301449 207.053536 
L 315.946765 207.621916 
L 316.258674 207.318984 
L 316.560985 207.373833 
L 316.910988 207.833353 
L 318.428572 208.438753 
L 318.780114 208.719942 
L 319.701331 209.012018 
L 320.009668 208.870112 
L 320.313008 209.136432 
L 320.625165 208.921044 
L 320.954285 208.979173 
L 322.183347 209.631668 
L 322.474278 209.703709 
L 322.762192 209.580028 
L 323.115553 209.962901 
L 323.405077 209.679428 
L 323.73509 210.195757 
L 324.085742 210.102403 
L 324.372652 210.498993 
L 324.70758 210.498993 
L 325.017208 210.612505 
L 325.36775 210.606738 
L 325.632938 210.853909 
L 325.947025 210.853909 
L 326.267743 210.548907 
L 326.925557 210.874596 
L 327.718373 210.984303 
L 328.937053 211.552257 
L 329.271082 211.552257 
L 329.596469 211.861084 
L 329.919459 211.679699 
L 330.507018 211.707251 
L 330.8245 212.198163 
L 331.11033 213.008009 
L 331.443561 212.087319 
L 331.731564 212.259069 
L 332.06702 212.20603 
L 332.378168 212.446269 
L 332.677437 212.473441 
L 333.033379 213.012604 
L 333.293891 212.926332 
L 334.269697 213.368415 
L 334.876162 213.395278 
L 335.494285 214.279017 
L 335.800261 214.36227 
L 336.110862 214.279017 
L 336.445697 214.717132 
L 336.736057 214.882726 
L 337.076824 214.882726 
L 337.380958 215.126687 
L 337.681885 215.126687 
L 338.036655 214.99356 
L 338.355934 215.345838 
L 339.023626 215.327429 
L 339.321897 215.495608 
L 339.584658 215.327429 
L 340.439172 215.796898 
L 340.74121 215.796898 
L 341.048917 216.244003 
L 341.624546 216.244003 
L 343.143149 217.01535 
L 343.455818 217.01535 
L 343.784056 217.398739 
L 344.418052 217.384123 
L 344.716313 217.720535 
L 345.018843 217.720535 
L 345.27581 217.983899 
L 345.571336 217.983899 
L 345.879047 218.334838 
L 346.198387 218.408052 
L 346.506818 218.88 
L 346.506818 218.88 
" clip-path="url(#p6c11ad9939)" style="fill: none; stroke: #1f77b4; stroke-width: 1.5; stroke-linecap: square"/>
   </g>
   <g id="patch_3">
    <path d="M 26.925 228.96 
L 26.925 7.2 
" style="fill: none; stroke: #000000; stroke-width: 0.8; stroke-linejoin: miter; stroke-linecap: square"/>
   </g>
   <g id="patch_4">
    <path d="M 361.725 228.96 
L 361.725 7.2 
" style="fill: none; stroke: #000000; stroke-width: 0.8; stroke-linejoin: miter; stroke-linecap: square"/>
   </g>
   <g id="patch_5">
    <path d="M 26.925 228.96 
L 361.725 228.96 
" style="fill: none; stroke: #000000; stroke-width: 0.8; stroke-linejoin: miter; stroke-linecap: square"/>
   </g>
   <g id="patch_6">
    <path d="M 26.925 7.2 
L 361.725 7.2 
" style="fill: none; stroke: #000000; stroke-width: 0.8; stroke-linejoin: miter; stroke-linecap: square"/>
   </g>
  </g>
 </g>
 <defs>
  <clipPath id="p6c11ad9939">
   <rect x="26.925" y="7.2" width="334.8" height="221.76"/>
  </clipPath>
 </defs>
</svg>
