<?xml version="1.0" encoding="utf-8" standalone="no"?>
<!DOCTYPE svg PUBLIC "-//W3C//DTD SVG 1.1//EN"
  "http://www.w3.org/Graphics/SVG/1.1/DTD/svg11.dtd">
<svg xmlns:xlink="http://www.w3.org/1999/xlink" width="375.2875pt" height="248.518125pt" viewBox="0 0 375.2875 248.518125" xmlns="http://www.w3.org/2000/svg" version="1.1">
 <metadata>
  <rdf:RDF xmlns:dc="http://purl.org/dc/elements/1.1/" xmlns:cc="http://creativecommons.org/ns#" xmlns:rdf="http://www.w3.org/1999/02/22-rdf-syntax-ns#">
   <cc:Work>
    <dc:type rdf:resource="http://purl.org/dc/dcmitype/StillImage"/>
    <dc:date>2023-02-15T19:55:07.157140</dc:date>
    <dc:format>image/svg+xml</dc:format>
    <dc:creator>
     <cc:Agent>
      <dc:title>Matplotlib v3.5.3, https://matplotlib.org/</dc:title>
     </cc:Agent>
    </dc:creator>
   </cc:Work>
  </rdf:RDF>
 </metadata>
 <defs>
  <style type="text/css">*{stroke-linejoin: round; stroke-linecap: butt}</style>
 </defs>
 <g id="figure_1">
  <g id="patch_1">
   <path d="M 0 248.518125 
L 375.2875 248.518125 
L 375.2875 0 
L 0 0 
z
" style="fill: #ffffff"/>
  </g>
  <g id="axes_1">
   <g id="patch_2">
    <path d="M 33.2875 224.64 
L 368.0875 224.64 
L 368.0875 7.2 
L 33.2875 7.2 
z
" style="fill: #ffffff"/>
   </g>
   <g id="matplotlib.axis_1">
    <g id="xtick_1">
     <g id="line2d_1">
      <defs>
       <path id="ma746fcec59" d="M 0 0 
L 0 3.5 
" style="stroke: #000000; stroke-width: 0.8"/>
      </defs>
      <g>
       <use xlink:href="#ma746fcec59" x="48.505682" y="224.64" style="stroke: #000000; stroke-width: 0.8"/>
      </g>
     </g>
     <g id="text_1">
      <!-- 0 -->
      <g transform="translate(45.324432 239.238437)scale(0.1 -0.1)">
       <defs>
        <path id="DejaVuSans-30" d="M 2034 4250 
Q 1547 4250 1301 3770 
Q 1056 3291 1056 2328 
Q 1056 1369 1301 889 
Q 1547 409 2034 409 
Q 2525 409 2770 889 
Q 3016 1369 3016 2328 
Q 3016 3291 2770 3770 
Q 2525 4250 2034 4250 
z
M 2034 4750 
Q 2819 4750 3233 4129 
Q 3647 3509 3647 2328 
Q 3647 1150 3233 529 
Q 2819 -91 2034 -91 
Q 1250 -91 836 529 
Q 422 1150 422 2328 
Q 422 3509 836 4129 
Q 1250 4750 2034 4750 
z
" transform="scale(0.015625)"/>
       </defs>
       <use xlink:href="#DejaVuSans-30"/>
      </g>
     </g>
    </g>
    <g id="xtick_2">
     <g id="line2d_2">
      <g>
       <use xlink:href="#ma746fcec59" x="109.378409" y="224.64" style="stroke: #000000; stroke-width: 0.8"/>
      </g>
     </g>
     <g id="text_2">
      <!-- 20 -->
      <g transform="translate(103.015909 239.238437)scale(0.1 -0.1)">
       <defs>
        <path id="DejaVuSans-32" d="M 1228 531 
L 3431 531 
L 3431 0 
L 469 0 
L 469 531 
Q 828 903 1448 1529 
Q 2069 2156 2228 2338 
Q 2531 2678 2651 2914 
Q 2772 3150 2772 3378 
Q 2772 3750 2511 3984 
Q 2250 4219 1831 4219 
Q 1534 4219 1204 4116 
Q 875 4013 500 3803 
L 500 4441 
Q 881 4594 1212 4672 
Q 1544 4750 1819 4750 
Q 2544 4750 2975 4387 
Q 3406 4025 3406 3419 
Q 3406 3131 3298 2873 
Q 3191 2616 2906 2266 
Q 2828 2175 2409 1742 
Q 1991 1309 1228 531 
z
" transform="scale(0.015625)"/>
       </defs>
       <use xlink:href="#DejaVuSans-32"/>
       <use xlink:href="#DejaVuSans-30" x="63.623047"/>
      </g>
     </g>
    </g>
    <g id="xtick_3">
     <g id="line2d_3">
      <g>
       <use xlink:href="#ma746fcec59" x="170.251136" y="224.64" style="stroke: #000000; stroke-width: 0.8"/>
      </g>
     </g>
     <g id="text_3">
      <!-- 40 -->
      <g transform="translate(163.888636 239.238437)scale(0.1 -0.1)">
       <defs>
        <path id="DejaVuSans-34" d="M 2419 4116 
L 825 1625 
L 2419 1625 
L 2419 4116 
z
M 2253 4666 
L 3047 4666 
L 3047 1625 
L 3713 1625 
L 3713 1100 
L 3047 1100 
L 3047 0 
L 2419 0 
L 2419 1100 
L 313 1100 
L 313 1709 
L 2253 4666 
z
" transform="scale(0.015625)"/>
       </defs>
       <use xlink:href="#DejaVuSans-34"/>
       <use xlink:href="#DejaVuSans-30" x="63.623047"/>
      </g>
     </g>
    </g>
    <g id="xtick_4">
     <g id="line2d_4">
      <g>
       <use xlink:href="#ma746fcec59" x="231.123864" y="224.64" style="stroke: #000000; stroke-width: 0.8"/>
      </g>
     </g>
     <g id="text_4">
      <!-- 60 -->
      <g transform="translate(224.761364 239.238437)scale(0.1 -0.1)">
       <defs>
        <path id="DejaVuSans-36" d="M 2113 2584 
Q 1688 2584 1439 2293 
Q 1191 2003 1191 1497 
Q 1191 994 1439 701 
Q 1688 409 2113 409 
Q 2538 409 2786 701 
Q 3034 994 3034 1497 
Q 3034 2003 2786 2293 
Q 2538 2584 2113 2584 
z
M 3366 4563 
L 3366 3988 
Q 3128 4100 2886 4159 
Q 2644 4219 2406 4219 
Q 1781 4219 1451 3797 
Q 1122 3375 1075 2522 
Q 1259 2794 1537 2939 
Q 1816 3084 2150 3084 
Q 2853 3084 3261 2657 
Q 3669 2231 3669 1497 
Q 3669 778 3244 343 
Q 2819 -91 2113 -91 
Q 1303 -91 875 529 
Q 447 1150 447 2328 
Q 447 3434 972 4092 
Q 1497 4750 2381 4750 
Q 2619 4750 2861 4703 
Q 3103 4656 3366 4563 
z
" transform="scale(0.015625)"/>
       </defs>
       <use xlink:href="#DejaVuSans-36"/>
       <use xlink:href="#DejaVuSans-30" x="63.623047"/>
      </g>
     </g>
    </g>
    <g id="xtick_5">
     <g id="line2d_5">
      <g>
       <use xlink:href="#ma746fcec59" x="291.996591" y="224.64" style="stroke: #000000; stroke-width: 0.8"/>
      </g>
     </g>
     <g id="text_5">
      <!-- 80 -->
      <g transform="translate(285.634091 239.238437)scale(0.1 -0.1)">
       <defs>
        <path id="DejaVuSans-38" d="M 2034 2216 
Q 1584 2216 1326 1975 
Q 1069 1734 1069 1313 
Q 1069 891 1326 650 
Q 1584 409 2034 409 
Q 2484 409 2743 651 
Q 3003 894 3003 1313 
Q 3003 1734 2745 1975 
Q 2488 2216 2034 2216 
z
M 1403 2484 
Q 997 2584 770 2862 
Q 544 3141 544 3541 
Q 544 4100 942 4425 
Q 1341 4750 2034 4750 
Q 2731 4750 3128 4425 
Q 3525 4100 3525 3541 
Q 3525 3141 3298 2862 
Q 3072 2584 2669 2484 
Q 3125 2378 3379 2068 
Q 3634 1759 3634 1313 
Q 3634 634 3220 271 
Q 2806 -91 2034 -91 
Q 1263 -91 848 271 
Q 434 634 434 1313 
Q 434 1759 690 2068 
Q 947 2378 1403 2484 
z
M 1172 3481 
Q 1172 3119 1398 2916 
Q 1625 2713 2034 2713 
Q 2441 2713 2670 2916 
Q 2900 3119 2900 3481 
Q 2900 3844 2670 4047 
Q 2441 4250 2034 4250 
Q 1625 4250 1398 4047 
Q 1172 3844 1172 3481 
z
" transform="scale(0.015625)"/>
       </defs>
       <use xlink:href="#DejaVuSans-38"/>
       <use xlink:href="#DejaVuSans-30" x="63.623047"/>
      </g>
     </g>
    </g>
    <g id="xtick_6">
     <g id="line2d_6">
      <g>
       <use xlink:href="#ma746fcec59" x="352.869318" y="224.64" style="stroke: #000000; stroke-width: 0.8"/>
      </g>
     </g>
     <g id="text_6">
      <!-- 100 -->
      <g transform="translate(343.325568 239.238437)scale(0.1 -0.1)">
       <defs>
        <path id="DejaVuSans-31" d="M 794 531 
L 1825 531 
L 1825 4091 
L 703 3866 
L 703 4441 
L 1819 4666 
L 2450 4666 
L 2450 531 
L 3481 531 
L 3481 0 
L 794 0 
L 794 531 
z
" transform="scale(0.015625)"/>
       </defs>
       <use xlink:href="#DejaVuSans-31"/>
       <use xlink:href="#DejaVuSans-30" x="63.623047"/>
       <use xlink:href="#DejaVuSans-30" x="127.246094"/>
      </g>
     </g>
    </g>
   </g>
   <g id="matplotlib.axis_2">
    <g id="ytick_1">
     <g id="line2d_7">
      <defs>
       <path id="m17b71766c8" d="M 0 0 
L -3.5 0 
" style="stroke: #000000; stroke-width: 0.8"/>
      </defs>
      <g>
       <use xlink:href="#m17b71766c8" x="33.2875" y="195.025247" style="stroke: #000000; stroke-width: 0.8"/>
      </g>
     </g>
     <g id="text_7">
      <!-- 20 -->
      <g transform="translate(13.5625 198.824466)scale(0.1 -0.1)">
       <use xlink:href="#DejaVuSans-32"/>
       <use xlink:href="#DejaVuSans-30" x="63.623047"/>
      </g>
     </g>
    </g>
    <g id="ytick_2">
     <g id="line2d_8">
      <g>
       <use xlink:href="#m17b71766c8" x="33.2875" y="153.924774" style="stroke: #000000; stroke-width: 0.8"/>
      </g>
     </g>
     <g id="text_8">
      <!-- 40 -->
      <g transform="translate(13.5625 157.723993)scale(0.1 -0.1)">
       <use xlink:href="#DejaVuSans-34"/>
       <use xlink:href="#DejaVuSans-30" x="63.623047"/>
      </g>
     </g>
    </g>
    <g id="ytick_3">
     <g id="line2d_9">
      <g>
       <use xlink:href="#m17b71766c8" x="33.2875" y="112.824301" style="stroke: #000000; stroke-width: 0.8"/>
      </g>
     </g>
     <g id="text_9">
      <!-- 60 -->
      <g transform="translate(13.5625 116.62352)scale(0.1 -0.1)">
       <use xlink:href="#DejaVuSans-36"/>
       <use xlink:href="#DejaVuSans-30" x="63.623047"/>
      </g>
     </g>
    </g>
    <g id="ytick_4">
     <g id="line2d_10">
      <g>
       <use xlink:href="#m17b71766c8" x="33.2875" y="71.723828" style="stroke: #000000; stroke-width: 0.8"/>
      </g>
     </g>
     <g id="text_10">
      <!-- 80 -->
      <g transform="translate(13.5625 75.523047)scale(0.1 -0.1)">
       <use xlink:href="#DejaVuSans-38"/>
       <use xlink:href="#DejaVuSans-30" x="63.623047"/>
      </g>
     </g>
    </g>
    <g id="ytick_5">
     <g id="line2d_11">
      <g>
       <use xlink:href="#m17b71766c8" x="33.2875" y="30.623355" style="stroke: #000000; stroke-width: 0.8"/>
      </g>
     </g>
     <g id="text_11">
      <!-- 100 -->
      <g transform="translate(7.2 34.422574)scale(0.1 -0.1)">
       <use xlink:href="#DejaVuSans-31"/>
       <use xlink:href="#DejaVuSans-30" x="63.623047"/>
       <use xlink:href="#DejaVuSans-30" x="127.246094"/>
      </g>
     </g>
    </g>
   </g>
   <g id="line2d_12">
    <path d="M 48.505682 17.083636 
L 51.549318 17.083636 
L 54.592955 17.083636 
L 57.636591 19.810892 
L 60.680227 17.93409 
L 63.723864 18.341247 
L 66.7675 19.057713 
L 69.811136 19.914782 
L 72.854773 21.005546 
L 75.898409 21.007822 
L 78.942045 21.005546 
L 81.985682 21.661199 
L 85.029318 21.661199 
L 88.072955 21.583893 
L 91.116591 21.484691 
L 94.160227 21.484691 
L 97.203864 21.595118 
L 100.2475 21.765455 
L 103.291136 21.765455 
L 106.334773 22.004466 
L 109.378409 22.010202 
L 112.422045 22.043301 
L 115.465682 22.196615 
L 118.509318 22.196615 
L 121.552955 22.416799 
L 124.596591 22.416799 
L 127.640227 22.565698 
L 130.683864 22.624814 
L 133.7275 22.742349 
L 136.771136 22.891098 
L 139.814773 22.860724 
L 142.858409 23.049068 
L 145.902045 23.049068 
L 148.945682 23.290603 
L 151.989318 22.910476 
L 155.032955 23.068721 
L 158.076591 23.068721 
L 161.120227 23.270909 
L 164.163864 23.336833 
L 167.2075 23.336833 
L 170.251136 23.445548 
L 173.294773 23.559655 
L 176.338409 23.472017 
L 179.382045 23.75787 
L 182.425682 23.75787 
L 185.469318 23.767112 
L 188.512955 23.910708 
L 191.556591 23.910708 
L 194.600227 23.910708 
L 197.643864 23.910708 
L 200.6875 23.951174 
L 203.731136 23.951174 
L 206.774773 24.156744 
L 209.818409 24.156744 
L 212.862045 24.192035 
L 215.905682 24.192035 
L 218.949318 24.278672 
L 221.992955 24.315055 
L 225.036591 24.335777 
L 228.080227 24.278672 
L 231.123864 24.415927 
L 234.1675 24.523548 
L 237.211136 24.415927 
L 240.254773 24.415927 
L 243.298409 24.446412 
L 246.342045 24.456393 
L 249.385682 24.518612 
L 252.429318 24.542508 
L 255.472955 24.470366 
L 258.516591 24.470366 
L 261.560227 24.579668 
L 264.603864 24.67284 
L 267.6475 24.680573 
L 270.691136 24.67284 
L 273.734773 24.684766 
L 276.778409 24.692614 
L 279.822045 24.67284 
L 282.865682 24.748708 
L 285.909318 24.857178 
L 288.952955 24.857178 
L 291.996591 24.910241 
L 295.040227 24.953639 
L 298.083864 25.097579 
L 301.1275 25.187929 
L 304.171136 25.187929 
L 307.214773 25.23244 
L 310.258409 25.381695 
L 313.302045 25.475649 
L 316.345682 25.475649 
L 319.389318 25.451761 
L 322.432955 25.451761 
L 325.476591 25.492577 
L 328.520227 25.489459 
L 331.563864 25.539989 
L 334.6075 25.654135 
L 337.651136 25.654135 
L 340.694773 25.654135 
L 343.738409 25.654135 
L 346.782045 25.59751 
L 349.825682 25.59751 
L 352.869318 25.644116 
" clip-path="url(#pc68f14fb2a)" style="fill: none; stroke: #1f77b4; stroke-width: 1.5; stroke-linecap: square"/>
   </g>
   <g id="line2d_13">
    <path d="M 48.505682 44.700055 
L 51.549318 44.700055 
L 54.592955 44.700055 
L 57.636591 45.377898 
L 60.680227 44.842215 
L 63.723864 45.230367 
L 66.7675 42.124513 
L 69.811136 43.818739 
L 72.854773 43.122685 
L 75.898409 43.30803 
L 78.942045 43.122685 
L 81.985682 43.030555 
L 85.029318 43.030555 
L 88.072955 43.090366 
L 91.116591 43.631052 
L 94.160227 43.631052 
L 97.203864 44.223883 
L 100.2475 44.110604 
L 103.291136 44.110604 
L 106.334773 44.352866 
L 109.378409 44.380789 
L 112.422045 44.428076 
L 115.465682 44.608713 
L 118.509318 44.608713 
L 121.552955 44.72711 
L 124.596591 44.72711 
L 127.640227 45.312716 
L 130.683864 45.430018 
L 133.7275 45.366161 
L 136.771136 45.680945 
L 139.814773 44.83403 
L 142.858409 45.638661 
L 145.902045 45.638661 
L 148.945682 45.856416 
L 151.989318 44.870427 
L 155.032955 45.897379 
L 158.076591 45.897379 
L 161.120227 45.888988 
L 164.163864 45.466314 
L 167.2075 45.466314 
L 170.251136 45.40194 
L 173.294773 45.633048 
L 176.338409 45.772132 
L 179.382045 45.924066 
L 182.425682 45.924066 
L 185.469318 46.007555 
L 188.512955 46.119814 
L 191.556591 46.119814 
L 194.600227 46.119814 
L 197.643864 46.119814 
L 200.6875 46.270916 
L 203.731136 46.270916 
L 206.774773 46.551166 
L 209.818409 46.551166 
L 212.862045 46.603131 
L 215.905682 46.603131 
L 218.949318 46.730853 
L 221.992955 46.779458 
L 225.036591 46.755735 
L 228.080227 46.730853 
L 231.123864 46.879589 
L 234.1675 47.044042 
L 237.211136 46.879589 
L 240.254773 46.879589 
L 243.298409 46.881631 
L 246.342045 47.030691 
L 249.385682 46.999533 
L 252.429318 46.974549 
L 255.472955 46.942496 
L 258.516591 46.942496 
L 261.560227 47.080921 
L 264.603864 46.885871 
L 267.6475 46.935686 
L 270.691136 46.885871 
L 273.734773 46.917229 
L 276.778409 47.160534 
L 279.822045 46.885871 
L 282.865682 47.202273 
L 285.909318 47.18419 
L 288.952955 47.18419 
L 291.996591 47.011725 
L 295.040227 47.062151 
L 298.083864 47.302988 
L 301.1275 47.759763 
L 304.171136 47.759763 
L 307.214773 47.726705 
L 310.258409 47.969027 
L 313.302045 47.729583 
L 316.345682 47.729583 
L 319.389318 48.113399 
L 322.432955 48.113399 
L 325.476591 48.189832 
L 328.520227 48.273996 
L 331.563864 48.337188 
L 334.6075 48.521802 
L 337.651136 48.521802 
L 340.694773 48.521802 
L 343.738409 48.521802 
L 346.782045 48.559263 
L 349.825682 48.559263 
L 352.869318 48.709076 
" clip-path="url(#pc68f14fb2a)" style="fill: none; stroke: #ff7f0e; stroke-width: 1.5; stroke-linecap: square"/>
   </g>
   <g id="line2d_14">
    <path d="M 48.505682 208.509301 
L 51.549318 208.509301 
L 54.592955 208.509301 
L 57.636591 210.558715 
L 60.680227 209.217595 
L 63.723864 209.236599 
L 66.7675 213.05892 
L 69.811136 212.221763 
L 72.854773 214.008581 
L 75.898409 213.825512 
L 78.942045 214.008581 
L 81.985682 214.756364 
L 85.029318 214.756364 
L 88.072955 214.619247 
L 91.116591 213.97936 
L 94.160227 213.97936 
L 97.203864 213.496954 
L 100.2475 213.780571 
L 103.291136 213.780571 
L 106.334773 213.77732 
L 109.378409 213.755132 
L 112.422045 213.740945 
L 115.465682 213.713622 
L 118.509318 213.713622 
L 121.552955 213.815409 
L 124.596591 213.815409 
L 127.640227 213.378702 
L 130.683864 213.320516 
L 133.7275 213.501908 
L 136.771136 213.335873 
L 139.814773 214.152414 
L 142.858409 213.536126 
L 145.902045 213.536126 
L 148.945682 213.559906 
L 151.989318 214.165769 
L 155.032955 213.297063 
L 158.076591 213.297063 
L 161.120227 213.507641 
L 164.163864 213.996239 
L 167.2075 213.996239 
L 170.251136 214.169329 
L 173.294773 214.052327 
L 176.338409 213.825605 
L 179.382045 213.959524 
L 182.425682 213.959524 
L 185.469318 213.885276 
L 188.512955 213.916614 
L 191.556591 213.916614 
L 194.600227 213.916614 
L 197.643864 213.916614 
L 200.6875 213.805978 
L 203.731136 213.805978 
L 206.774773 213.731297 
L 209.818409 213.731297 
L 212.862045 213.714624 
L 215.905682 213.714624 
L 218.949318 213.673539 
L 221.992955 213.661316 
L 225.036591 213.705762 
L 228.080227 213.673539 
L 231.123864 213.662059 
L 234.1675 213.605225 
L 237.211136 213.662059 
L 240.254773 213.662059 
L 243.298409 213.690501 
L 246.342045 213.551422 
L 249.385682 213.644799 
L 252.429318 213.693679 
L 255.472955 213.65359 
L 258.516591 213.65359 
L 261.560227 213.624467 
L 264.603864 213.912688 
L 267.6475 213.870607 
L 270.691136 213.912688 
L 273.734773 213.893257 
L 276.778409 213.6578 
L 279.822045 213.912688 
L 282.865682 213.672154 
L 285.909318 213.798708 
L 288.952955 213.798708 
L 291.996591 214.024236 
L 295.040227 214.017208 
L 298.083864 213.920311 
L 301.1275 213.553886 
L 304.171136 213.553886 
L 307.214773 213.631455 
L 310.258409 213.538388 
L 313.302045 213.871786 
L 316.345682 213.871786 
L 319.389318 213.464082 
L 322.432955 213.464082 
L 325.476591 213.428465 
L 328.520227 213.341182 
L 331.563864 213.328521 
L 334.6075 213.258053 
L 337.651136 213.258053 
L 340.694773 213.258053 
L 343.738409 213.258053 
L 346.782045 213.163966 
L 349.825682 213.163966 
L 352.869318 213.06076 
" clip-path="url(#pc68f14fb2a)" style="fill: none; stroke: #2ca02c; stroke-width: 1.5; stroke-linecap: square"/>
   </g>
   <g id="patch_3">
    <path d="M 33.2875 224.64 
L 33.2875 7.2 
" style="fill: none; stroke: #000000; stroke-width: 0.8; stroke-linejoin: miter; stroke-linecap: square"/>
   </g>
   <g id="patch_4">
    <path d="M 368.0875 224.64 
L 368.0875 7.2 
" style="fill: none; stroke: #000000; stroke-width: 0.8; stroke-linejoin: miter; stroke-linecap: square"/>
   </g>
   <g id="patch_5">
    <path d="M 33.2875 224.64 
L 368.0875 224.64 
" style="fill: none; stroke: #000000; stroke-width: 0.8; stroke-linejoin: miter; stroke-linecap: square"/>
   </g>
   <g id="patch_6">
    <path d="M 33.2875 7.2 
L 368.0875 7.2 
" style="fill: none; stroke: #000000; stroke-width: 0.8; stroke-linejoin: miter; stroke-linecap: square"/>
   </g>
   <g id="legend_1">
    <g id="patch_7">
     <path d="M 207.698438 139.437187 
L 361.0875 139.437187 
Q 363.0875 139.437187 363.0875 137.437187 
L 363.0875 94.402812 
Q 363.0875 92.402812 361.0875 92.402812 
L 207.698438 92.402812 
Q 205.698438 92.402812 205.698438 94.402812 
L 205.698438 137.437187 
Q 205.698438 139.437187 207.698438 139.437187 
z
" style="fill: #ffffff; opacity: 0.8; stroke: #cccccc; stroke-linejoin: miter"/>
    </g>
    <g id="line2d_15">
     <path d="M 209.698438 100.50125 
L 219.698438 100.50125 
L 229.698438 100.50125 
" style="fill: none; stroke: #1f77b4; stroke-width: 1.5; stroke-linecap: square"/>
    </g>
    <g id="text_12">
     <!-- target value -->
     <g transform="translate(237.698438 104.00125)scale(0.1 -0.1)">
      <defs>
       <path id="DejaVuSans-74" d="M 1172 4494 
L 1172 3500 
L 2356 3500 
L 2356 3053 
L 1172 3053 
L 1172 1153 
Q 1172 725 1289 603 
Q 1406 481 1766 481 
L 2356 481 
L 2356 0 
L 1766 0 
Q 1100 0 847 248 
Q 594 497 594 1153 
L 594 3053 
L 172 3053 
L 172 3500 
L 594 3500 
L 594 4494 
L 1172 4494 
z
" transform="scale(0.015625)"/>
       <path id="DejaVuSans-61" d="M 2194 1759 
Q 1497 1759 1228 1600 
Q 959 1441 959 1056 
Q 959 750 1161 570 
Q 1363 391 1709 391 
Q 2188 391 2477 730 
Q 2766 1069 2766 1631 
L 2766 1759 
L 2194 1759 
z
M 3341 1997 
L 3341 0 
L 2766 0 
L 2766 531 
Q 2569 213 2275 61 
Q 1981 -91 1556 -91 
Q 1019 -91 701 211 
Q 384 513 384 1019 
Q 384 1609 779 1909 
Q 1175 2209 1959 2209 
L 2766 2209 
L 2766 2266 
Q 2766 2663 2505 2880 
Q 2244 3097 1772 3097 
Q 1472 3097 1187 3025 
Q 903 2953 641 2809 
L 641 3341 
Q 956 3463 1253 3523 
Q 1550 3584 1831 3584 
Q 2591 3584 2966 3190 
Q 3341 2797 3341 1997 
z
" transform="scale(0.015625)"/>
       <path id="DejaVuSans-72" d="M 2631 2963 
Q 2534 3019 2420 3045 
Q 2306 3072 2169 3072 
Q 1681 3072 1420 2755 
Q 1159 2438 1159 1844 
L 1159 0 
L 581 0 
L 581 3500 
L 1159 3500 
L 1159 2956 
Q 1341 3275 1631 3429 
Q 1922 3584 2338 3584 
Q 2397 3584 2469 3576 
Q 2541 3569 2628 3553 
L 2631 2963 
z
" transform="scale(0.015625)"/>
       <path id="DejaVuSans-67" d="M 2906 1791 
Q 2906 2416 2648 2759 
Q 2391 3103 1925 3103 
Q 1463 3103 1205 2759 
Q 947 2416 947 1791 
Q 947 1169 1205 825 
Q 1463 481 1925 481 
Q 2391 481 2648 825 
Q 2906 1169 2906 1791 
z
M 3481 434 
Q 3481 -459 3084 -895 
Q 2688 -1331 1869 -1331 
Q 1566 -1331 1297 -1286 
Q 1028 -1241 775 -1147 
L 775 -588 
Q 1028 -725 1275 -790 
Q 1522 -856 1778 -856 
Q 2344 -856 2625 -561 
Q 2906 -266 2906 331 
L 2906 616 
Q 2728 306 2450 153 
Q 2172 0 1784 0 
Q 1141 0 747 490 
Q 353 981 353 1791 
Q 353 2603 747 3093 
Q 1141 3584 1784 3584 
Q 2172 3584 2450 3431 
Q 2728 3278 2906 2969 
L 2906 3500 
L 3481 3500 
L 3481 434 
z
" transform="scale(0.015625)"/>
       <path id="DejaVuSans-65" d="M 3597 1894 
L 3597 1613 
L 953 1613 
Q 991 1019 1311 708 
Q 1631 397 2203 397 
Q 2534 397 2845 478 
Q 3156 559 3463 722 
L 3463 178 
Q 3153 47 2828 -22 
Q 2503 -91 2169 -91 
Q 1331 -91 842 396 
Q 353 884 353 1716 
Q 353 2575 817 3079 
Q 1281 3584 2069 3584 
Q 2775 3584 3186 3129 
Q 3597 2675 3597 1894 
z
M 3022 2063 
Q 3016 2534 2758 2815 
Q 2500 3097 2075 3097 
Q 1594 3097 1305 2825 
Q 1016 2553 972 2059 
L 3022 2063 
z
" transform="scale(0.015625)"/>
       <path id="DejaVuSans-20" transform="scale(0.015625)"/>
       <path id="DejaVuSans-76" d="M 191 3500 
L 800 3500 
L 1894 563 
L 2988 3500 
L 3597 3500 
L 2284 0 
L 1503 0 
L 191 3500 
z
" transform="scale(0.015625)"/>
       <path id="DejaVuSans-6c" d="M 603 4863 
L 1178 4863 
L 1178 0 
L 603 0 
L 603 4863 
z
" transform="scale(0.015625)"/>
       <path id="DejaVuSans-75" d="M 544 1381 
L 544 3500 
L 1119 3500 
L 1119 1403 
Q 1119 906 1312 657 
Q 1506 409 1894 409 
Q 2359 409 2629 706 
Q 2900 1003 2900 1516 
L 2900 3500 
L 3475 3500 
L 3475 0 
L 2900 0 
L 2900 538 
Q 2691 219 2414 64 
Q 2138 -91 1772 -91 
Q 1169 -91 856 284 
Q 544 659 544 1381 
z
M 1991 3584 
L 1991 3584 
z
" transform="scale(0.015625)"/>
      </defs>
      <use xlink:href="#DejaVuSans-74"/>
      <use xlink:href="#DejaVuSans-61" x="39.208984"/>
      <use xlink:href="#DejaVuSans-72" x="100.488281"/>
      <use xlink:href="#DejaVuSans-67" x="139.851562"/>
      <use xlink:href="#DejaVuSans-65" x="203.328125"/>
      <use xlink:href="#DejaVuSans-74" x="264.851562"/>
      <use xlink:href="#DejaVuSans-20" x="304.060547"/>
      <use xlink:href="#DejaVuSans-76" x="335.847656"/>
      <use xlink:href="#DejaVuSans-61" x="395.027344"/>
      <use xlink:href="#DejaVuSans-6c" x="456.306641"/>
      <use xlink:href="#DejaVuSans-75" x="484.089844"/>
      <use xlink:href="#DejaVuSans-65" x="547.46875"/>
     </g>
    </g>
    <g id="line2d_16">
     <path d="M 209.698438 115.179375 
L 219.698438 115.179375 
L 229.698438 115.179375 
" style="fill: none; stroke: #ff7f0e; stroke-width: 1.5; stroke-linecap: square"/>
    </g>
    <g id="text_13">
     <!-- communication cost -->
     <g transform="translate(237.698438 118.679375)scale(0.1 -0.1)">
      <defs>
       <path id="DejaVuSans-63" d="M 3122 3366 
L 3122 2828 
Q 2878 2963 2633 3030 
Q 2388 3097 2138 3097 
Q 1578 3097 1268 2742 
Q 959 2388 959 1747 
Q 959 1106 1268 751 
Q 1578 397 2138 397 
Q 2388 397 2633 464 
Q 2878 531 3122 666 
L 3122 134 
Q 2881 22 2623 -34 
Q 2366 -91 2075 -91 
Q 1284 -91 818 406 
Q 353 903 353 1747 
Q 353 2603 823 3093 
Q 1294 3584 2113 3584 
Q 2378 3584 2631 3529 
Q 2884 3475 3122 3366 
z
" transform="scale(0.015625)"/>
       <path id="DejaVuSans-6f" d="M 1959 3097 
Q 1497 3097 1228 2736 
Q 959 2375 959 1747 
Q 959 1119 1226 758 
Q 1494 397 1959 397 
Q 2419 397 2687 759 
Q 2956 1122 2956 1747 
Q 2956 2369 2687 2733 
Q 2419 3097 1959 3097 
z
M 1959 3584 
Q 2709 3584 3137 3096 
Q 3566 2609 3566 1747 
Q 3566 888 3137 398 
Q 2709 -91 1959 -91 
Q 1206 -91 779 398 
Q 353 888 353 1747 
Q 353 2609 779 3096 
Q 1206 3584 1959 3584 
z
" transform="scale(0.015625)"/>
       <path id="DejaVuSans-6d" d="M 3328 2828 
Q 3544 3216 3844 3400 
Q 4144 3584 4550 3584 
Q 5097 3584 5394 3201 
Q 5691 2819 5691 2113 
L 5691 0 
L 5113 0 
L 5113 2094 
Q 5113 2597 4934 2840 
Q 4756 3084 4391 3084 
Q 3944 3084 3684 2787 
Q 3425 2491 3425 1978 
L 3425 0 
L 2847 0 
L 2847 2094 
Q 2847 2600 2669 2842 
Q 2491 3084 2119 3084 
Q 1678 3084 1418 2786 
Q 1159 2488 1159 1978 
L 1159 0 
L 581 0 
L 581 3500 
L 1159 3500 
L 1159 2956 
Q 1356 3278 1631 3431 
Q 1906 3584 2284 3584 
Q 2666 3584 2933 3390 
Q 3200 3197 3328 2828 
z
" transform="scale(0.015625)"/>
       <path id="DejaVuSans-6e" d="M 3513 2113 
L 3513 0 
L 2938 0 
L 2938 2094 
Q 2938 2591 2744 2837 
Q 2550 3084 2163 3084 
Q 1697 3084 1428 2787 
Q 1159 2491 1159 1978 
L 1159 0 
L 581 0 
L 581 3500 
L 1159 3500 
L 1159 2956 
Q 1366 3272 1645 3428 
Q 1925 3584 2291 3584 
Q 2894 3584 3203 3211 
Q 3513 2838 3513 2113 
z
" transform="scale(0.015625)"/>
       <path id="DejaVuSans-69" d="M 603 3500 
L 1178 3500 
L 1178 0 
L 603 0 
L 603 3500 
z
M 603 4863 
L 1178 4863 
L 1178 4134 
L 603 4134 
L 603 4863 
z
" transform="scale(0.015625)"/>
       <path id="DejaVuSans-73" d="M 2834 3397 
L 2834 2853 
Q 2591 2978 2328 3040 
Q 2066 3103 1784 3103 
Q 1356 3103 1142 2972 
Q 928 2841 928 2578 
Q 928 2378 1081 2264 
Q 1234 2150 1697 2047 
L 1894 2003 
Q 2506 1872 2764 1633 
Q 3022 1394 3022 966 
Q 3022 478 2636 193 
Q 2250 -91 1575 -91 
Q 1294 -91 989 -36 
Q 684 19 347 128 
L 347 722 
Q 666 556 975 473 
Q 1284 391 1588 391 
Q 1994 391 2212 530 
Q 2431 669 2431 922 
Q 2431 1156 2273 1281 
Q 2116 1406 1581 1522 
L 1381 1569 
Q 847 1681 609 1914 
Q 372 2147 372 2553 
Q 372 3047 722 3315 
Q 1072 3584 1716 3584 
Q 2034 3584 2315 3537 
Q 2597 3491 2834 3397 
z
" transform="scale(0.015625)"/>
      </defs>
      <use xlink:href="#DejaVuSans-63"/>
      <use xlink:href="#DejaVuSans-6f" x="54.980469"/>
      <use xlink:href="#DejaVuSans-6d" x="116.162109"/>
      <use xlink:href="#DejaVuSans-6d" x="213.574219"/>
      <use xlink:href="#DejaVuSans-75" x="310.986328"/>
      <use xlink:href="#DejaVuSans-6e" x="374.365234"/>
      <use xlink:href="#DejaVuSans-69" x="437.744141"/>
      <use xlink:href="#DejaVuSans-63" x="465.527344"/>
      <use xlink:href="#DejaVuSans-61" x="520.507812"/>
      <use xlink:href="#DejaVuSans-74" x="581.787109"/>
      <use xlink:href="#DejaVuSans-69" x="620.996094"/>
      <use xlink:href="#DejaVuSans-6f" x="648.779297"/>
      <use xlink:href="#DejaVuSans-6e" x="709.960938"/>
      <use xlink:href="#DejaVuSans-20" x="773.339844"/>
      <use xlink:href="#DejaVuSans-63" x="805.126953"/>
      <use xlink:href="#DejaVuSans-6f" x="860.107422"/>
      <use xlink:href="#DejaVuSans-73" x="921.289062"/>
      <use xlink:href="#DejaVuSans-74" x="973.388672"/>
     </g>
    </g>
    <g id="line2d_17">
     <path d="M 209.698438 129.8575 
L 219.698438 129.8575 
L 229.698438 129.8575 
" style="fill: none; stroke: #2ca02c; stroke-width: 1.5; stroke-linecap: square"/>
    </g>
    <g id="text_14">
     <!-- node storage proportion -->
     <g transform="translate(237.698438 133.3575)scale(0.1 -0.1)">
      <defs>
       <path id="DejaVuSans-64" d="M 2906 2969 
L 2906 4863 
L 3481 4863 
L 3481 0 
L 2906 0 
L 2906 525 
Q 2725 213 2448 61 
Q 2172 -91 1784 -91 
Q 1150 -91 751 415 
Q 353 922 353 1747 
Q 353 2572 751 3078 
Q 1150 3584 1784 3584 
Q 2172 3584 2448 3432 
Q 2725 3281 2906 2969 
z
M 947 1747 
Q 947 1113 1208 752 
Q 1469 391 1925 391 
Q 2381 391 2643 752 
Q 2906 1113 2906 1747 
Q 2906 2381 2643 2742 
Q 2381 3103 1925 3103 
Q 1469 3103 1208 2742 
Q 947 2381 947 1747 
z
" transform="scale(0.015625)"/>
       <path id="DejaVuSans-70" d="M 1159 525 
L 1159 -1331 
L 581 -1331 
L 581 3500 
L 1159 3500 
L 1159 2969 
Q 1341 3281 1617 3432 
Q 1894 3584 2278 3584 
Q 2916 3584 3314 3078 
Q 3713 2572 3713 1747 
Q 3713 922 3314 415 
Q 2916 -91 2278 -91 
Q 1894 -91 1617 61 
Q 1341 213 1159 525 
z
M 3116 1747 
Q 3116 2381 2855 2742 
Q 2594 3103 2138 3103 
Q 1681 3103 1420 2742 
Q 1159 2381 1159 1747 
Q 1159 1113 1420 752 
Q 1681 391 2138 391 
Q 2594 391 2855 752 
Q 3116 1113 3116 1747 
z
" transform="scale(0.015625)"/>
      </defs>
      <use xlink:href="#DejaVuSans-6e"/>
      <use xlink:href="#DejaVuSans-6f" x="63.378906"/>
      <use xlink:href="#DejaVuSans-64" x="124.560547"/>
      <use xlink:href="#DejaVuSans-65" x="188.037109"/>
      <use xlink:href="#DejaVuSans-20" x="249.560547"/>
      <use xlink:href="#DejaVuSans-73" x="281.347656"/>
      <use xlink:href="#DejaVuSans-74" x="333.447266"/>
      <use xlink:href="#DejaVuSans-6f" x="372.65625"/>
      <use xlink:href="#DejaVuSans-72" x="433.837891"/>
      <use xlink:href="#DejaVuSans-61" x="474.951172"/>
      <use xlink:href="#DejaVuSans-67" x="536.230469"/>
      <use xlink:href="#DejaVuSans-65" x="599.707031"/>
      <use xlink:href="#DejaVuSans-20" x="661.230469"/>
      <use xlink:href="#DejaVuSans-70" x="693.017578"/>
      <use xlink:href="#DejaVuSans-72" x="756.494141"/>
      <use xlink:href="#DejaVuSans-6f" x="795.357422"/>
      <use xlink:href="#DejaVuSans-70" x="856.539062"/>
      <use xlink:href="#DejaVuSans-6f" x="920.015625"/>
      <use xlink:href="#DejaVuSans-72" x="981.197266"/>
      <use xlink:href="#DejaVuSans-74" x="1022.310547"/>
      <use xlink:href="#DejaVuSans-69" x="1061.519531"/>
      <use xlink:href="#DejaVuSans-6f" x="1089.302734"/>
      <use xlink:href="#DejaVuSans-6e" x="1150.484375"/>
     </g>
    </g>
   </g>
  </g>
 </g>
 <defs>
  <clipPath id="pc68f14fb2a">
   <rect x="33.2875" y="7.2" width="334.8" height="217.44"/>
  </clipPath>
 </defs>
</svg>
