<?xml version="1.0" encoding="utf-8" standalone="no"?>
<!DOCTYPE svg PUBLIC "-//W3C//DTD SVG 1.1//EN"
  "http://www.w3.org/Graphics/SVG/1.1/DTD/svg11.dtd">
<svg xmlns:xlink="http://www.w3.org/1999/xlink" width="375.2875pt" height="248.518125pt" viewBox="0 0 375.2875 248.518125" xmlns="http://www.w3.org/2000/svg" version="1.1">
 <metadata>
  <rdf:RDF xmlns:dc="http://purl.org/dc/elements/1.1/" xmlns:cc="http://creativecommons.org/ns#" xmlns:rdf="http://www.w3.org/1999/02/22-rdf-syntax-ns#">
   <cc:Work>
    <dc:type rdf:resource="http://purl.org/dc/dcmitype/StillImage"/>
    <dc:date>2023-01-02T16:14:43.855368</dc:date>
    <dc:format>image/svg+xml</dc:format>
    <dc:creator>
     <cc:Agent>
      <dc:title>Matplotlib v3.5.3, https://matplotlib.org/</dc:title>
     </cc:Agent>
    </dc:creator>
   </cc:Work>
  </rdf:RDF>
 </metadata>
 <defs>
  <style type="text/css">*{stroke-linejoin: round; stroke-linecap: butt}</style>
 </defs>
 <g id="figure_1">
  <g id="patch_1">
   <path d="M 0 248.518125 
L 375.2875 248.518125 
L 375.2875 0 
L 0 0 
z
" style="fill: #ffffff"/>
  </g>
  <g id="axes_1">
   <g id="patch_2">
    <path d="M 33.2875 224.64 
L 368.0875 224.64 
L 368.0875 7.2 
L 33.2875 7.2 
z
" style="fill: #ffffff"/>
   </g>
   <g id="matplotlib.axis_1">
    <g id="xtick_1">
     <g id="line2d_1">
      <defs>
       <path id="m37232c2613" d="M 0 0 
L 0 3.5 
" style="stroke: #000000; stroke-width: 0.8"/>
      </defs>
      <g>
       <use xlink:href="#m37232c2613" x="48.505682" y="224.64" style="stroke: #000000; stroke-width: 0.8"/>
      </g>
     </g>
     <g id="text_1">
      <!-- 0 -->
      <g transform="translate(45.324432 239.238437)scale(0.1 -0.1)">
       <defs>
        <path id="DejaVuSans-30" d="M 2034 4250 
Q 1547 4250 1301 3770 
Q 1056 3291 1056 2328 
Q 1056 1369 1301 889 
Q 1547 409 2034 409 
Q 2525 409 2770 889 
Q 3016 1369 3016 2328 
Q 3016 3291 2770 3770 
Q 2525 4250 2034 4250 
z
M 2034 4750 
Q 2819 4750 3233 4129 
Q 3647 3509 3647 2328 
Q 3647 1150 3233 529 
Q 2819 -91 2034 -91 
Q 1250 -91 836 529 
Q 422 1150 422 2328 
Q 422 3509 836 4129 
Q 1250 4750 2034 4750 
z
" transform="scale(0.015625)"/>
       </defs>
       <use xlink:href="#DejaVuSans-30"/>
      </g>
     </g>
    </g>
    <g id="xtick_2">
     <g id="line2d_2">
      <g>
       <use xlink:href="#m37232c2613" x="109.378409" y="224.64" style="stroke: #000000; stroke-width: 0.8"/>
      </g>
     </g>
     <g id="text_2">
      <!-- 200 -->
      <g transform="translate(99.834659 239.238437)scale(0.1 -0.1)">
       <defs>
        <path id="DejaVuSans-32" d="M 1228 531 
L 3431 531 
L 3431 0 
L 469 0 
L 469 531 
Q 828 903 1448 1529 
Q 2069 2156 2228 2338 
Q 2531 2678 2651 2914 
Q 2772 3150 2772 3378 
Q 2772 3750 2511 3984 
Q 2250 4219 1831 4219 
Q 1534 4219 1204 4116 
Q 875 4013 500 3803 
L 500 4441 
Q 881 4594 1212 4672 
Q 1544 4750 1819 4750 
Q 2544 4750 2975 4387 
Q 3406 4025 3406 3419 
Q 3406 3131 3298 2873 
Q 3191 2616 2906 2266 
Q 2828 2175 2409 1742 
Q 1991 1309 1228 531 
z
" transform="scale(0.015625)"/>
       </defs>
       <use xlink:href="#DejaVuSans-32"/>
       <use xlink:href="#DejaVuSans-30" x="63.623047"/>
       <use xlink:href="#DejaVuSans-30" x="127.246094"/>
      </g>
     </g>
    </g>
    <g id="xtick_3">
     <g id="line2d_3">
      <g>
       <use xlink:href="#m37232c2613" x="170.251136" y="224.64" style="stroke: #000000; stroke-width: 0.8"/>
      </g>
     </g>
     <g id="text_3">
      <!-- 400 -->
      <g transform="translate(160.707386 239.238437)scale(0.1 -0.1)">
       <defs>
        <path id="DejaVuSans-34" d="M 2419 4116 
L 825 1625 
L 2419 1625 
L 2419 4116 
z
M 2253 4666 
L 3047 4666 
L 3047 1625 
L 3713 1625 
L 3713 1100 
L 3047 1100 
L 3047 0 
L 2419 0 
L 2419 1100 
L 313 1100 
L 313 1709 
L 2253 4666 
z
" transform="scale(0.015625)"/>
       </defs>
       <use xlink:href="#DejaVuSans-34"/>
       <use xlink:href="#DejaVuSans-30" x="63.623047"/>
       <use xlink:href="#DejaVuSans-30" x="127.246094"/>
      </g>
     </g>
    </g>
    <g id="xtick_4">
     <g id="line2d_4">
      <g>
       <use xlink:href="#m37232c2613" x="231.123864" y="224.64" style="stroke: #000000; stroke-width: 0.8"/>
      </g>
     </g>
     <g id="text_4">
      <!-- 600 -->
      <g transform="translate(221.580114 239.238437)scale(0.1 -0.1)">
       <defs>
        <path id="DejaVuSans-36" d="M 2113 2584 
Q 1688 2584 1439 2293 
Q 1191 2003 1191 1497 
Q 1191 994 1439 701 
Q 1688 409 2113 409 
Q 2538 409 2786 701 
Q 3034 994 3034 1497 
Q 3034 2003 2786 2293 
Q 2538 2584 2113 2584 
z
M 3366 4563 
L 3366 3988 
Q 3128 4100 2886 4159 
Q 2644 4219 2406 4219 
Q 1781 4219 1451 3797 
Q 1122 3375 1075 2522 
Q 1259 2794 1537 2939 
Q 1816 3084 2150 3084 
Q 2853 3084 3261 2657 
Q 3669 2231 3669 1497 
Q 3669 778 3244 343 
Q 2819 -91 2113 -91 
Q 1303 -91 875 529 
Q 447 1150 447 2328 
Q 447 3434 972 4092 
Q 1497 4750 2381 4750 
Q 2619 4750 2861 4703 
Q 3103 4656 3366 4563 
z
" transform="scale(0.015625)"/>
       </defs>
       <use xlink:href="#DejaVuSans-36"/>
       <use xlink:href="#DejaVuSans-30" x="63.623047"/>
       <use xlink:href="#DejaVuSans-30" x="127.246094"/>
      </g>
     </g>
    </g>
    <g id="xtick_5">
     <g id="line2d_5">
      <g>
       <use xlink:href="#m37232c2613" x="291.996591" y="224.64" style="stroke: #000000; stroke-width: 0.8"/>
      </g>
     </g>
     <g id="text_5">
      <!-- 800 -->
      <g transform="translate(282.452841 239.238437)scale(0.1 -0.1)">
       <defs>
        <path id="DejaVuSans-38" d="M 2034 2216 
Q 1584 2216 1326 1975 
Q 1069 1734 1069 1313 
Q 1069 891 1326 650 
Q 1584 409 2034 409 
Q 2484 409 2743 651 
Q 3003 894 3003 1313 
Q 3003 1734 2745 1975 
Q 2488 2216 2034 2216 
z
M 1403 2484 
Q 997 2584 770 2862 
Q 544 3141 544 3541 
Q 544 4100 942 4425 
Q 1341 4750 2034 4750 
Q 2731 4750 3128 4425 
Q 3525 4100 3525 3541 
Q 3525 3141 3298 2862 
Q 3072 2584 2669 2484 
Q 3125 2378 3379 2068 
Q 3634 1759 3634 1313 
Q 3634 634 3220 271 
Q 2806 -91 2034 -91 
Q 1263 -91 848 271 
Q 434 634 434 1313 
Q 434 1759 690 2068 
Q 947 2378 1403 2484 
z
M 1172 3481 
Q 1172 3119 1398 2916 
Q 1625 2713 2034 2713 
Q 2441 2713 2670 2916 
Q 2900 3119 2900 3481 
Q 2900 3844 2670 4047 
Q 2441 4250 2034 4250 
Q 1625 4250 1398 4047 
Q 1172 3844 1172 3481 
z
" transform="scale(0.015625)"/>
       </defs>
       <use xlink:href="#DejaVuSans-38"/>
       <use xlink:href="#DejaVuSans-30" x="63.623047"/>
       <use xlink:href="#DejaVuSans-30" x="127.246094"/>
      </g>
     </g>
    </g>
    <g id="xtick_6">
     <g id="line2d_6">
      <g>
       <use xlink:href="#m37232c2613" x="352.869318" y="224.64" style="stroke: #000000; stroke-width: 0.8"/>
      </g>
     </g>
     <g id="text_6">
      <!-- 1000 -->
      <g transform="translate(340.144318 239.238437)scale(0.1 -0.1)">
       <defs>
        <path id="DejaVuSans-31" d="M 794 531 
L 1825 531 
L 1825 4091 
L 703 3866 
L 703 4441 
L 1819 4666 
L 2450 4666 
L 2450 531 
L 3481 531 
L 3481 0 
L 794 0 
L 794 531 
z
" transform="scale(0.015625)"/>
       </defs>
       <use xlink:href="#DejaVuSans-31"/>
       <use xlink:href="#DejaVuSans-30" x="63.623047"/>
       <use xlink:href="#DejaVuSans-30" x="127.246094"/>
       <use xlink:href="#DejaVuSans-30" x="190.869141"/>
      </g>
     </g>
    </g>
   </g>
   <g id="matplotlib.axis_2">
    <g id="ytick_1">
     <g id="line2d_7">
      <defs>
       <path id="m9af8ebc0b1" d="M 0 0 
L -3.5 0 
" style="stroke: #000000; stroke-width: 0.8"/>
      </defs>
      <g>
       <use xlink:href="#m9af8ebc0b1" x="33.2875" y="220.634407" style="stroke: #000000; stroke-width: 0.8"/>
      </g>
     </g>
     <g id="text_7">
      <!-- 820 -->
      <g transform="translate(7.2 224.433625)scale(0.1 -0.1)">
       <use xlink:href="#DejaVuSans-38"/>
       <use xlink:href="#DejaVuSans-32" x="63.623047"/>
       <use xlink:href="#DejaVuSans-30" x="127.246094"/>
      </g>
     </g>
    </g>
    <g id="ytick_2">
     <g id="line2d_8">
      <g>
       <use xlink:href="#m9af8ebc0b1" x="33.2875" y="179.835843" style="stroke: #000000; stroke-width: 0.8"/>
      </g>
     </g>
     <g id="text_8">
      <!-- 840 -->
      <g transform="translate(7.2 183.635062)scale(0.1 -0.1)">
       <use xlink:href="#DejaVuSans-38"/>
       <use xlink:href="#DejaVuSans-34" x="63.623047"/>
       <use xlink:href="#DejaVuSans-30" x="127.246094"/>
      </g>
     </g>
    </g>
    <g id="ytick_3">
     <g id="line2d_9">
      <g>
       <use xlink:href="#m9af8ebc0b1" x="33.2875" y="139.03728" style="stroke: #000000; stroke-width: 0.8"/>
      </g>
     </g>
     <g id="text_9">
      <!-- 860 -->
      <g transform="translate(7.2 142.836498)scale(0.1 -0.1)">
       <use xlink:href="#DejaVuSans-38"/>
       <use xlink:href="#DejaVuSans-36" x="63.623047"/>
       <use xlink:href="#DejaVuSans-30" x="127.246094"/>
      </g>
     </g>
    </g>
    <g id="ytick_4">
     <g id="line2d_10">
      <g>
       <use xlink:href="#m9af8ebc0b1" x="33.2875" y="98.238716" style="stroke: #000000; stroke-width: 0.8"/>
      </g>
     </g>
     <g id="text_10">
      <!-- 880 -->
      <g transform="translate(7.2 102.037935)scale(0.1 -0.1)">
       <use xlink:href="#DejaVuSans-38"/>
       <use xlink:href="#DejaVuSans-38" x="63.623047"/>
       <use xlink:href="#DejaVuSans-30" x="127.246094"/>
      </g>
     </g>
    </g>
    <g id="ytick_5">
     <g id="line2d_11">
      <g>
       <use xlink:href="#m9af8ebc0b1" x="33.2875" y="57.440153" style="stroke: #000000; stroke-width: 0.8"/>
      </g>
     </g>
     <g id="text_11">
      <!-- 900 -->
      <g transform="translate(7.2 61.239371)scale(0.1 -0.1)">
       <defs>
        <path id="DejaVuSans-39" d="M 703 97 
L 703 672 
Q 941 559 1184 500 
Q 1428 441 1663 441 
Q 2288 441 2617 861 
Q 2947 1281 2994 2138 
Q 2813 1869 2534 1725 
Q 2256 1581 1919 1581 
Q 1219 1581 811 2004 
Q 403 2428 403 3163 
Q 403 3881 828 4315 
Q 1253 4750 1959 4750 
Q 2769 4750 3195 4129 
Q 3622 3509 3622 2328 
Q 3622 1225 3098 567 
Q 2575 -91 1691 -91 
Q 1453 -91 1209 -44 
Q 966 3 703 97 
z
M 1959 2075 
Q 2384 2075 2632 2365 
Q 2881 2656 2881 3163 
Q 2881 3666 2632 3958 
Q 2384 4250 1959 4250 
Q 1534 4250 1286 3958 
Q 1038 3666 1038 3163 
Q 1038 2656 1286 2365 
Q 1534 2075 1959 2075 
z
" transform="scale(0.015625)"/>
       </defs>
       <use xlink:href="#DejaVuSans-39"/>
       <use xlink:href="#DejaVuSans-30" x="63.623047"/>
       <use xlink:href="#DejaVuSans-30" x="127.246094"/>
      </g>
     </g>
    </g>
    <g id="ytick_6">
     <g id="line2d_12">
      <g>
       <use xlink:href="#m9af8ebc0b1" x="33.2875" y="16.641589" style="stroke: #000000; stroke-width: 0.8"/>
      </g>
     </g>
     <g id="text_12">
      <!-- 920 -->
      <g transform="translate(7.2 20.440808)scale(0.1 -0.1)">
       <use xlink:href="#DejaVuSans-39"/>
       <use xlink:href="#DejaVuSans-32" x="63.623047"/>
       <use xlink:href="#DejaVuSans-30" x="127.246094"/>
      </g>
     </g>
    </g>
   </g>
   <g id="line2d_13">
    <path d="M 48.505682 19.370107 
L 48.810045 17.083636 
L 49.114409 17.083636 
L 49.418773 27.157862 
L 49.723136 29.631285 
L 50.0275 29.631285 
L 50.331864 30.587526 
L 50.940591 33.69457 
L 51.244955 33.69457 
L 51.549318 34.268367 
L 51.853682 44.109627 
L 52.158045 44.109627 
L 52.462409 44.289443 
L 52.766773 44.289443 
L 53.071136 45.646783 
L 53.3755 51.865045 
L 53.679864 51.865045 
L 53.984227 52.539931 
L 54.288591 55.516276 
L 54.592955 55.516276 
L 55.201682 59.571165 
L 55.506045 58.814596 
L 56.419136 62.465073 
L 56.7235 62.465073 
L 57.027864 64.880195 
L 57.636591 64.880195 
L 57.940955 64.549766 
L 58.245318 67.559158 
L 58.549682 67.859343 
L 58.854045 70.172598 
L 59.158409 70.980762 
L 59.462773 72.808999 
L 59.767136 80.596077 
L 60.0715 80.901836 
L 60.375864 87.517473 
L 60.680227 87.517473 
L 60.984591 88.822469 
L 61.288955 87.517473 
L 61.593318 87.823233 
L 61.897682 91.963951 
L 62.202045 91.963951 
L 62.506409 101.096546 
L 63.115136 101.096546 
L 63.4195 101.905861 
L 63.723864 104.060759 
L 74.985318 104.150368 
L 75.594045 104.256402 
L 78.637682 104.256402 
L 78.942045 104.616059 
L 86.246773 104.616059 
L 86.551136 105.022446 
L 90.2035 105.022446 
L 90.507864 105.505433 
L 90.812227 105.022446 
L 91.725318 105.022446 
L 92.029682 106.100359 
L 98.116955 106.100359 
L 98.421318 106.303543 
L 99.334409 106.303543 
L 99.638773 111.853918 
L 106.9435 111.853918 
L 107.247864 112.018779 
L 107.856591 112.018779 
L 108.160955 114.01096 
L 111.204591 114.01096 
L 111.508955 114.499169 
L 113.030773 114.499169 
L 113.335136 114.622804 
L 113.6395 114.622804 
L 113.943864 116.107625 
L 116.074409 116.107625 
L 116.378773 116.730177 
L 118.509318 116.730177 
L 118.813682 116.856249 
L 119.118045 116.730177 
L 119.726773 116.730177 
L 120.031136 118.134776 
L 121.857318 118.134776 
L 122.161682 118.326717 
L 124.596591 118.326717 
L 124.900955 124.97226 
L 127.944591 124.97226 
L 128.248955 127.580465 
L 130.988227 127.580465 
L 131.292591 128.96561 
L 134.031864 128.96561 
L 134.336227 129.242136 
L 134.640591 128.96561 
L 134.944955 128.96561 
L 135.249318 129.788248 
L 135.553682 129.788248 
L 135.858045 128.96561 
L 137.988591 128.96561 
L 138.292955 134.025887 
L 140.4235 134.025887 
L 141.032227 135.530213 
L 141.336591 138.757309 
L 143.7715 138.757309 
L 144.075864 143.30699 
L 152.293682 143.30699 
L 152.598045 143.498705 
L 153.206773 143.498705 
L 153.511136 148.877823 
L 153.8155 149.080346 
L 155.032955 149.080346 
L 155.337318 148.959478 
L 155.946045 148.959478 
L 156.250409 155.04532 
L 158.685318 155.04532 
L 158.989682 155.639146 
L 164.468227 155.639146 
L 164.772591 156.375585 
L 172.381682 156.375585 
L 172.686045 156.950002 
L 172.990409 156.375585 
L 175.425318 156.375585 
L 175.729682 158.723804 
L 177.860227 158.726762 
L 178.164591 159.363829 
L 178.468955 159.363829 
L 178.773318 159.727377 
L 179.077682 160.616418 
L 179.382045 160.616418 
L 179.686409 161.87805 
L 186.991136 161.887725 
L 187.2955 162.912768 
L 199.774409 162.878896 
L 200.078773 163.136711 
L 200.383136 162.878896 
L 201.600591 162.878896 
L 201.904955 170.515959 
L 203.122409 170.515959 
L 203.426773 170.668938 
L 203.731136 170.515959 
L 204.644227 170.515959 
L 204.948591 175.705934 
L 206.166045 175.705934 
L 206.470409 176.240494 
L 208.600955 176.240494 
L 208.905318 176.664619 
L 209.209682 176.240494 
L 209.514045 176.664619 
L 209.818409 176.240494 
L 216.514409 176.337 
L 216.818773 176.522493 
L 217.123136 176.337 
L 218.340591 176.337 
L 218.644955 176.517699 
L 221.688591 176.628409 
L 221.992955 177.35933 
L 229.602045 177.35933 
L 229.906409 178.619347 
L 234.471864 178.619347 
L 234.776227 179.462323 
L 238.732955 179.462323 
L 239.037318 179.955941 
L 244.2115 180.015498 
L 244.515864 180.673382 
L 245.428955 180.673382 
L 245.733318 181.009407 
L 255.168591 181.009407 
L 255.472955 181.39193 
L 256.690409 181.451362 
L 256.994773 181.432142 
L 257.299136 182.114559 
L 260.647136 182.114559 
L 260.9515 182.401682 
L 262.168955 182.401682 
L 262.473318 183.120169 
L 262.777682 182.401682 
L 268.256227 182.440532 
L 268.560591 182.74251 
L 270.9955 182.74251 
L 271.299864 183.040724 
L 271.908591 183.040724 
L 272.212955 183.465933 
L 272.517318 183.465933 
L 272.821682 183.764148 
L 273.430409 183.764148 
L 274.039136 189.443053 
L 274.952227 189.443053 
L 275.256591 190.583022 
L 277.387136 190.583022 
L 277.6915 192.008164 
L 278.908955 192.008164 
L 279.213318 192.536361 
L 280.735136 192.536361 
L 281.0395 192.930401 
L 281.343864 192.536361 
L 281.952591 192.722648 
L 282.256955 192.536361 
L 282.561318 193.067583 
L 283.778773 193.067583 
L 284.083136 193.59578 
L 286.518045 193.59578 
L 286.822409 193.962488 
L 287.126773 193.59578 
L 294.4315 193.59578 
L 294.735864 194.028545 
L 297.7795 194.028545 
L 298.083864 194.250295 
L 298.388227 194.250295 
L 298.692591 194.632996 
L 306.301682 194.632996 
L 306.606045 196.423592 
L 309.345318 196.423592 
L 309.649682 197.0687 
L 317.8675 197.0687 
L 318.171864 197.6615 
L 318.476227 197.6615 
L 318.780591 197.0687 
L 320.911136 197.0687 
L 321.2155 197.748459 
L 325.780955 197.748459 
L 326.085318 198.26396 
L 327.302773 198.26396 
L 327.607136 208.570552 
L 328.215864 208.570552 
L 328.520227 210.630068 
L 331.563864 210.630068 
L 331.868227 210.875646 
L 339.172955 210.917057 
L 339.477318 211.112652 
L 340.086045 211.112652 
L 340.390409 213.599682 
L 340.694773 214.756364 
L 352.869318 214.756364 
L 352.869318 214.756364 
" clip-path="url(#p061fb176b1)" style="fill: none; stroke: #1f77b4; stroke-width: 1.5; stroke-linecap: square"/>
   </g>
   <g id="patch_3">
    <path d="M 33.2875 224.64 
L 33.2875 7.2 
" style="fill: none; stroke: #000000; stroke-width: 0.8; stroke-linejoin: miter; stroke-linecap: square"/>
   </g>
   <g id="patch_4">
    <path d="M 368.0875 224.64 
L 368.0875 7.2 
" style="fill: none; stroke: #000000; stroke-width: 0.8; stroke-linejoin: miter; stroke-linecap: square"/>
   </g>
   <g id="patch_5">
    <path d="M 33.2875 224.64 
L 368.0875 224.64 
" style="fill: none; stroke: #000000; stroke-width: 0.8; stroke-linejoin: miter; stroke-linecap: square"/>
   </g>
   <g id="patch_6">
    <path d="M 33.2875 7.2 
L 368.0875 7.2 
" style="fill: none; stroke: #000000; stroke-width: 0.8; stroke-linejoin: miter; stroke-linecap: square"/>
   </g>
  </g>
 </g>
 <defs>
  <clipPath id="p061fb176b1">
   <rect x="33.2875" y="7.2" width="334.8" height="217.44"/>
  </clipPath>
 </defs>
</svg>
