<?xml version="1.0" encoding="utf-8" standalone="no"?>
<!DOCTYPE svg PUBLIC "-//W3C//DTD SVG 1.1//EN"
  "http://www.w3.org/Graphics/SVG/1.1/DTD/svg11.dtd">
<svg xmlns:xlink="http://www.w3.org/1999/xlink" width="368.925pt" height="252.838125pt" viewBox="0 0 368.925 252.838125" xmlns="http://www.w3.org/2000/svg" version="1.1">
 <metadata>
  <rdf:RDF xmlns:dc="http://purl.org/dc/elements/1.1/" xmlns:cc="http://creativecommons.org/ns#" xmlns:rdf="http://www.w3.org/1999/02/22-rdf-syntax-ns#">
   <cc:Work>
    <dc:type rdf:resource="http://purl.org/dc/dcmitype/StillImage"/>
    <dc:date>2023-04-13T08:48:47.920148</dc:date>
    <dc:format>image/svg+xml</dc:format>
    <dc:creator>
     <cc:Agent>
      <dc:title>Matplotlib v3.6.2, https://matplotlib.org/</dc:title>
     </cc:Agent>
    </dc:creator>
   </cc:Work>
  </rdf:RDF>
 </metadata>
 <defs>
  <style type="text/css">*{stroke-linejoin: round; stroke-linecap: butt}</style>
 </defs>
 <g id="figure_1">
  <g id="patch_1">
   <path d="M -0 252.838125 
L 368.925 252.838125 
L 368.925 0 
L -0 0 
z
" style="fill: #ffffff"/>
  </g>
  <g id="axes_1">
   <g id="patch_2">
    <path d="M 26.925 228.96 
L 361.725 228.96 
L 361.725 7.2 
L 26.925 7.2 
z
" style="fill: #ffffff"/>
   </g>
   <g id="matplotlib.axis_1">
    <g id="xtick_1">
     <g id="line2d_1">
      <defs>
       <path id="ma26ed1d132" d="M 0 0 
L 0 3.5 
" style="stroke: #000000; stroke-width: 0.8"/>
      </defs>
      <g>
       <use xlink:href="#ma26ed1d132" x="42.143182" y="228.96" style="stroke: #000000; stroke-width: 0.8"/>
      </g>
     </g>
     <g id="text_1">
      <!-- 0 -->
      <g transform="translate(38.961932 243.558437) scale(0.1 -0.1)">
       <defs>
        <path id="DejaVuSans-30" d="M 2034 4250 
Q 1547 4250 1301 3770 
Q 1056 3291 1056 2328 
Q 1056 1369 1301 889 
Q 1547 409 2034 409 
Q 2525 409 2770 889 
Q 3016 1369 3016 2328 
Q 3016 3291 2770 3770 
Q 2525 4250 2034 4250 
z
M 2034 4750 
Q 2819 4750 3233 4129 
Q 3647 3509 3647 2328 
Q 3647 1150 3233 529 
Q 2819 -91 2034 -91 
Q 1250 -91 836 529 
Q 422 1150 422 2328 
Q 422 3509 836 4129 
Q 1250 4750 2034 4750 
z
" transform="scale(0.015625)"/>
       </defs>
       <use xlink:href="#DejaVuSans-30"/>
      </g>
     </g>
    </g>
    <g id="xtick_2">
     <g id="line2d_2">
      <g>
       <use xlink:href="#ma26ed1d132" x="103.015909" y="228.96" style="stroke: #000000; stroke-width: 0.8"/>
      </g>
     </g>
     <g id="text_2">
      <!-- 200 -->
      <g transform="translate(93.472159 243.558437) scale(0.1 -0.1)">
       <defs>
        <path id="DejaVuSans-32" d="M 1228 531 
L 3431 531 
L 3431 0 
L 469 0 
L 469 531 
Q 828 903 1448 1529 
Q 2069 2156 2228 2338 
Q 2531 2678 2651 2914 
Q 2772 3150 2772 3378 
Q 2772 3750 2511 3984 
Q 2250 4219 1831 4219 
Q 1534 4219 1204 4116 
Q 875 4013 500 3803 
L 500 4441 
Q 881 4594 1212 4672 
Q 1544 4750 1819 4750 
Q 2544 4750 2975 4387 
Q 3406 4025 3406 3419 
Q 3406 3131 3298 2873 
Q 3191 2616 2906 2266 
Q 2828 2175 2409 1742 
Q 1991 1309 1228 531 
z
" transform="scale(0.015625)"/>
       </defs>
       <use xlink:href="#DejaVuSans-32"/>
       <use xlink:href="#DejaVuSans-30" x="63.623047"/>
       <use xlink:href="#DejaVuSans-30" x="127.246094"/>
      </g>
     </g>
    </g>
    <g id="xtick_3">
     <g id="line2d_3">
      <g>
       <use xlink:href="#ma26ed1d132" x="163.888636" y="228.96" style="stroke: #000000; stroke-width: 0.8"/>
      </g>
     </g>
     <g id="text_3">
      <!-- 400 -->
      <g transform="translate(154.344886 243.558437) scale(0.1 -0.1)">
       <defs>
        <path id="DejaVuSans-34" d="M 2419 4116 
L 825 1625 
L 2419 1625 
L 2419 4116 
z
M 2253 4666 
L 3047 4666 
L 3047 1625 
L 3713 1625 
L 3713 1100 
L 3047 1100 
L 3047 0 
L 2419 0 
L 2419 1100 
L 313 1100 
L 313 1709 
L 2253 4666 
z
" transform="scale(0.015625)"/>
       </defs>
       <use xlink:href="#DejaVuSans-34"/>
       <use xlink:href="#DejaVuSans-30" x="63.623047"/>
       <use xlink:href="#DejaVuSans-30" x="127.246094"/>
      </g>
     </g>
    </g>
    <g id="xtick_4">
     <g id="line2d_4">
      <g>
       <use xlink:href="#ma26ed1d132" x="224.761364" y="228.96" style="stroke: #000000; stroke-width: 0.8"/>
      </g>
     </g>
     <g id="text_4">
      <!-- 600 -->
      <g transform="translate(215.217614 243.558437) scale(0.1 -0.1)">
       <defs>
        <path id="DejaVuSans-36" d="M 2113 2584 
Q 1688 2584 1439 2293 
Q 1191 2003 1191 1497 
Q 1191 994 1439 701 
Q 1688 409 2113 409 
Q 2538 409 2786 701 
Q 3034 994 3034 1497 
Q 3034 2003 2786 2293 
Q 2538 2584 2113 2584 
z
M 3366 4563 
L 3366 3988 
Q 3128 4100 2886 4159 
Q 2644 4219 2406 4219 
Q 1781 4219 1451 3797 
Q 1122 3375 1075 2522 
Q 1259 2794 1537 2939 
Q 1816 3084 2150 3084 
Q 2853 3084 3261 2657 
Q 3669 2231 3669 1497 
Q 3669 778 3244 343 
Q 2819 -91 2113 -91 
Q 1303 -91 875 529 
Q 447 1150 447 2328 
Q 447 3434 972 4092 
Q 1497 4750 2381 4750 
Q 2619 4750 2861 4703 
Q 3103 4656 3366 4563 
z
" transform="scale(0.015625)"/>
       </defs>
       <use xlink:href="#DejaVuSans-36"/>
       <use xlink:href="#DejaVuSans-30" x="63.623047"/>
       <use xlink:href="#DejaVuSans-30" x="127.246094"/>
      </g>
     </g>
    </g>
    <g id="xtick_5">
     <g id="line2d_5">
      <g>
       <use xlink:href="#ma26ed1d132" x="285.634091" y="228.96" style="stroke: #000000; stroke-width: 0.8"/>
      </g>
     </g>
     <g id="text_5">
      <!-- 800 -->
      <g transform="translate(276.090341 243.558437) scale(0.1 -0.1)">
       <defs>
        <path id="DejaVuSans-38" d="M 2034 2216 
Q 1584 2216 1326 1975 
Q 1069 1734 1069 1313 
Q 1069 891 1326 650 
Q 1584 409 2034 409 
Q 2484 409 2743 651 
Q 3003 894 3003 1313 
Q 3003 1734 2745 1975 
Q 2488 2216 2034 2216 
z
M 1403 2484 
Q 997 2584 770 2862 
Q 544 3141 544 3541 
Q 544 4100 942 4425 
Q 1341 4750 2034 4750 
Q 2731 4750 3128 4425 
Q 3525 4100 3525 3541 
Q 3525 3141 3298 2862 
Q 3072 2584 2669 2484 
Q 3125 2378 3379 2068 
Q 3634 1759 3634 1313 
Q 3634 634 3220 271 
Q 2806 -91 2034 -91 
Q 1263 -91 848 271 
Q 434 634 434 1313 
Q 434 1759 690 2068 
Q 947 2378 1403 2484 
z
M 1172 3481 
Q 1172 3119 1398 2916 
Q 1625 2713 2034 2713 
Q 2441 2713 2670 2916 
Q 2900 3119 2900 3481 
Q 2900 3844 2670 4047 
Q 2441 4250 2034 4250 
Q 1625 4250 1398 4047 
Q 1172 3844 1172 3481 
z
" transform="scale(0.015625)"/>
       </defs>
       <use xlink:href="#DejaVuSans-38"/>
       <use xlink:href="#DejaVuSans-30" x="63.623047"/>
       <use xlink:href="#DejaVuSans-30" x="127.246094"/>
      </g>
     </g>
    </g>
    <g id="xtick_6">
     <g id="line2d_6">
      <g>
       <use xlink:href="#ma26ed1d132" x="346.506818" y="228.96" style="stroke: #000000; stroke-width: 0.8"/>
      </g>
     </g>
     <g id="text_6">
      <!-- 1000 -->
      <g transform="translate(333.781818 243.558437) scale(0.1 -0.1)">
       <defs>
        <path id="DejaVuSans-31" d="M 794 531 
L 1825 531 
L 1825 4091 
L 703 3866 
L 703 4441 
L 1819 4666 
L 2450 4666 
L 2450 531 
L 3481 531 
L 3481 0 
L 794 0 
L 794 531 
z
" transform="scale(0.015625)"/>
       </defs>
       <use xlink:href="#DejaVuSans-31"/>
       <use xlink:href="#DejaVuSans-30" x="63.623047"/>
       <use xlink:href="#DejaVuSans-30" x="127.246094"/>
       <use xlink:href="#DejaVuSans-30" x="190.869141"/>
      </g>
     </g>
    </g>
   </g>
   <g id="matplotlib.axis_2">
    <g id="ytick_1">
     <g id="line2d_7">
      <defs>
       <path id="mc4d878785b" d="M 0 0 
L -3.5 0 
" style="stroke: #000000; stroke-width: 0.8"/>
      </defs>
      <g>
       <use xlink:href="#mc4d878785b" x="26.925" y="206.114355" style="stroke: #000000; stroke-width: 0.8"/>
      </g>
     </g>
     <g id="text_7">
      <!-- 50 -->
      <g transform="translate(7.2 209.913574) scale(0.1 -0.1)">
       <defs>
        <path id="DejaVuSans-35" d="M 691 4666 
L 3169 4666 
L 3169 4134 
L 1269 4134 
L 1269 2991 
Q 1406 3038 1543 3061 
Q 1681 3084 1819 3084 
Q 2600 3084 3056 2656 
Q 3513 2228 3513 1497 
Q 3513 744 3044 326 
Q 2575 -91 1722 -91 
Q 1428 -91 1123 -41 
Q 819 9 494 109 
L 494 744 
Q 775 591 1075 516 
Q 1375 441 1709 441 
Q 2250 441 2565 725 
Q 2881 1009 2881 1497 
Q 2881 1984 2565 2268 
Q 2250 2553 1709 2553 
Q 1456 2553 1204 2497 
Q 953 2441 691 2322 
L 691 4666 
z
" transform="scale(0.015625)"/>
       </defs>
       <use xlink:href="#DejaVuSans-35"/>
       <use xlink:href="#DejaVuSans-30" x="63.623047"/>
      </g>
     </g>
    </g>
    <g id="ytick_2">
     <g id="line2d_8">
      <g>
       <use xlink:href="#mc4d878785b" x="26.925" y="181.22201" style="stroke: #000000; stroke-width: 0.8"/>
      </g>
     </g>
     <g id="text_8">
      <!-- 55 -->
      <g transform="translate(7.2 185.021228) scale(0.1 -0.1)">
       <use xlink:href="#DejaVuSans-35"/>
       <use xlink:href="#DejaVuSans-35" x="63.623047"/>
      </g>
     </g>
    </g>
    <g id="ytick_3">
     <g id="line2d_9">
      <g>
       <use xlink:href="#mc4d878785b" x="26.925" y="156.329664" style="stroke: #000000; stroke-width: 0.8"/>
      </g>
     </g>
     <g id="text_9">
      <!-- 60 -->
      <g transform="translate(7.2 160.128883) scale(0.1 -0.1)">
       <use xlink:href="#DejaVuSans-36"/>
       <use xlink:href="#DejaVuSans-30" x="63.623047"/>
      </g>
     </g>
    </g>
    <g id="ytick_4">
     <g id="line2d_10">
      <g>
       <use xlink:href="#mc4d878785b" x="26.925" y="131.437319" style="stroke: #000000; stroke-width: 0.8"/>
      </g>
     </g>
     <g id="text_10">
      <!-- 65 -->
      <g transform="translate(7.2 135.236538) scale(0.1 -0.1)">
       <use xlink:href="#DejaVuSans-36"/>
       <use xlink:href="#DejaVuSans-35" x="63.623047"/>
      </g>
     </g>
    </g>
    <g id="ytick_5">
     <g id="line2d_11">
      <g>
       <use xlink:href="#mc4d878785b" x="26.925" y="106.544974" style="stroke: #000000; stroke-width: 0.8"/>
      </g>
     </g>
     <g id="text_11">
      <!-- 70 -->
      <g transform="translate(7.2 110.344192) scale(0.1 -0.1)">
       <defs>
        <path id="DejaVuSans-37" d="M 525 4666 
L 3525 4666 
L 3525 4397 
L 1831 0 
L 1172 0 
L 2766 4134 
L 525 4134 
L 525 4666 
z
" transform="scale(0.015625)"/>
       </defs>
       <use xlink:href="#DejaVuSans-37"/>
       <use xlink:href="#DejaVuSans-30" x="63.623047"/>
      </g>
     </g>
    </g>
    <g id="ytick_6">
     <g id="line2d_12">
      <g>
       <use xlink:href="#mc4d878785b" x="26.925" y="81.652628" style="stroke: #000000; stroke-width: 0.8"/>
      </g>
     </g>
     <g id="text_12">
      <!-- 75 -->
      <g transform="translate(7.2 85.451847) scale(0.1 -0.1)">
       <use xlink:href="#DejaVuSans-37"/>
       <use xlink:href="#DejaVuSans-35" x="63.623047"/>
      </g>
     </g>
    </g>
    <g id="ytick_7">
     <g id="line2d_13">
      <g>
       <use xlink:href="#mc4d878785b" x="26.925" y="56.760283" style="stroke: #000000; stroke-width: 0.8"/>
      </g>
     </g>
     <g id="text_13">
      <!-- 80 -->
      <g transform="translate(7.2 60.559502) scale(0.1 -0.1)">
       <use xlink:href="#DejaVuSans-38"/>
       <use xlink:href="#DejaVuSans-30" x="63.623047"/>
      </g>
     </g>
    </g>
    <g id="ytick_8">
     <g id="line2d_14">
      <g>
       <use xlink:href="#mc4d878785b" x="26.925" y="31.867938" style="stroke: #000000; stroke-width: 0.8"/>
      </g>
     </g>
     <g id="text_14">
      <!-- 85 -->
      <g transform="translate(7.2 35.667157) scale(0.1 -0.1)">
       <use xlink:href="#DejaVuSans-38"/>
       <use xlink:href="#DejaVuSans-35" x="63.623047"/>
      </g>
     </g>
    </g>
   </g>
   <g id="line2d_15">
    <path d="M 42.143182 17.28 
L 42.751909 17.321133 
L 43.360636 22.522059 
L 43.665 22.328664 
L 43.969364 28.471989 
L 44.273727 23.782853 
L 44.578091 25.189397 
L 44.882455 25.189397 
L 45.186818 28.520521 
L 45.491182 28.520521 
L 45.795545 32.841002 
L 46.099909 31.306641 
L 46.708636 32.408321 
L 47.013 33.189725 
L 47.317364 33.222184 
L 48.230455 37.962685 
L 48.534818 38.00574 
L 48.839182 38.344676 
L 49.143545 39.665329 
L 49.447909 39.915814 
L 49.752273 40.554138 
L 50.056636 40.554138 
L 50.361 40.794873 
L 50.665364 42.047429 
L 50.969727 42.047429 
L 51.274091 42.230253 
L 51.578455 42.60183 
L 52.187182 44.082969 
L 52.491545 45.030228 
L 52.795909 45.030228 
L 53.100273 45.216153 
L 53.404636 45.030228 
L 53.709 45.736678 
L 54.013364 45.951559 
L 54.622091 47.065529 
L 54.926455 46.511718 
L 55.230818 46.850793 
L 55.535182 47.642289 
L 56.143909 47.714323 
L 56.448273 47.757897 
L 57.057 49.350506 
L 57.361364 49.642905 
L 57.665727 49.642905 
L 58.578818 51.310127 
L 58.883182 52.552217 
L 59.187545 52.73175 
L 59.796273 54.545899 
L 60.100636 54.717347 
L 61.013727 54.717347 
L 62.231182 56.360276 
L 62.535545 57.754059 
L 62.839909 57.754059 
L 63.144273 58.039944 
L 63.448636 58.039944 
L 64.057364 59.881215 
L 64.361727 60.023615 
L 64.666091 60.410488 
L 65.579182 62.950503 
L 65.883545 63.282122 
L 66.492273 64.564779 
L 66.796636 64.564779 
L 67.101 65.339064 
L 67.405364 65.339064 
L 67.709727 66.170434 
L 68.014091 66.300675 
L 68.318455 66.677181 
L 68.927182 66.677181 
L 69.535909 68.714464 
L 69.840273 68.9791 
L 70.449 70.473788 
L 70.753364 70.648723 
L 71.057727 71.22416 
L 71.362091 70.473788 
L 71.666455 70.562033 
L 71.970818 71.186625 
L 72.275182 71.369574 
L 72.579545 71.883846 
L 72.883909 72.779715 
L 73.188273 71.930224 
L 73.492636 72.399714 
L 74.101364 72.523712 
L 74.405727 73.377172 
L 74.710091 73.617 
L 75.014455 73.530485 
L 75.318818 74.120772 
L 75.927545 74.381428 
L 77.145 76.176649 
L 77.449364 76.248576 
L 77.753727 77.050999 
L 78.058091 77.501767 
L 78.362455 77.501767 
L 78.971182 78.265202 
L 79.275545 79.006066 
L 79.579909 80.108998 
L 79.884273 80.108998 
L 80.188636 79.924905 
L 80.493 81.397884 
L 80.797364 81.437262 
L 81.101727 82.265358 
L 81.710455 82.200896 
L 82.014818 84.213453 
L 82.319182 85.087496 
L 82.927909 85.151774 
L 83.536636 85.766222 
L 84.145364 85.766222 
L 84.449727 85.925867 
L 84.754091 86.512088 
L 85.058455 85.919385 
L 85.362818 86.122269 
L 85.667182 86.696606 
L 86.275909 86.767296 
L 86.580273 87.415415 
L 86.884636 88.680699 
L 87.189 88.827397 
L 87.493364 89.829237 
L 88.102091 89.921963 
L 88.406455 89.921963 
L 88.710818 90.319752 
L 89.319545 90.363536 
L 89.623909 90.661254 
L 89.928273 91.533073 
L 90.232636 91.580352 
L 90.537 92.493955 
L 90.841364 92.493955 
L 91.145727 93.653928 
L 91.450091 93.653928 
L 91.754455 93.971375 
L 92.667545 94.274447 
L 92.971909 95.000532 
L 93.580636 95.409112 
L 93.885 95.724603 
L 94.189364 96.204315 
L 94.493727 96.431729 
L 94.798091 96.888533 
L 95.102455 97.091775 
L 95.406818 97.871211 
L 95.711182 97.962372 
L 96.015545 98.735675 
L 96.319909 99.010492 
L 96.624273 98.735675 
L 96.928636 99.208522 
L 97.537364 99.273588 
L 97.841727 99.663443 
L 98.146091 99.663443 
L 98.450455 100.210399 
L 99.667909 100.562354 
L 99.972273 101.266967 
L 100.276636 101.09738 
L 100.581 101.381085 
L 100.885364 102.073881 
L 101.189727 102.300419 
L 101.494091 102.862571 
L 101.798455 102.320766 
L 102.102818 102.378908 
L 102.407182 102.320766 
L 103.015909 103.447285 
L 103.320273 102.71187 
L 103.929 102.819803 
L 104.233364 103.657621 
L 104.537727 103.003109 
L 105.450818 104.215915 
L 106.363909 104.407402 
L 106.668273 105.034742 
L 106.972636 105.157892 
L 107.277 105.099414 
L 107.581364 105.22199 
L 107.885727 105.768861 
L 108.190091 105.768861 
L 108.494455 105.942659 
L 108.798818 106.593944 
L 109.103182 106.320989 
L 109.407545 106.482104 
L 109.711909 106.482104 
L 110.016273 107.235896 
L 110.320636 107.235896 
L 110.625 106.970951 
L 111.538091 107.668792 
L 112.146818 107.703223 
L 112.755545 109.220029 
L 113.059909 109.332529 
L 113.364273 110.415258 
L 113.973 110.503637 
L 114.277364 111.14651 
L 115.190455 111.666538 
L 115.494818 112.245489 
L 115.799182 112.129962 
L 116.407909 113.247158 
L 116.712273 113.480074 
L 117.321 114.470902 
L 117.625364 114.539879 
L 117.929727 114.974309 
L 118.234091 114.974309 
L 118.842818 114.778878 
L 119.147182 114.979428 
L 119.755909 115.78874 
L 120.060273 116.01885 
L 120.669 116.01885 
L 120.973364 116.422594 
L 121.277727 116.290578 
L 121.886455 117.089196 
L 122.190818 117.58823 
L 122.495182 118.874537 
L 123.103909 118.874537 
L 123.712636 120.259877 
L 124.017 120.828092 
L 124.625727 121.498822 
L 125.538818 121.52066 
L 125.843182 122.135587 
L 126.147545 122.135587 
L 126.756273 122.561305 
L 127.060636 122.561305 
L 127.365 122.728421 
L 127.669364 123.116666 
L 127.973727 123.116666 
L 128.278091 123.358403 
L 129.191182 123.557832 
L 129.495545 124.397319 
L 129.799909 124.397319 
L 130.104273 124.15217 
L 131.321727 126.682104 
L 132.539182 126.783332 
L 132.843545 127.093697 
L 133.147909 127.771222 
L 133.452273 128.169058 
L 134.061 128.252943 
L 134.365364 129.296553 
L 136.191545 129.46219 
L 136.495909 129.172205 
L 136.800273 129.77426 
L 137.104636 129.789174 
L 137.409 130.708094 
L 137.713364 130.663836 
L 138.322091 130.972297 
L 138.626455 131.211811 
L 138.930818 131.211811 
L 139.235182 131.546857 
L 139.539545 131.699812 
L 139.843909 132.429237 
L 140.148273 131.699812 
L 140.452636 132.413404 
L 140.757 132.413404 
L 141.061364 132.780694 
L 141.670091 132.723834 
L 141.974455 132.812538 
L 142.278818 132.723834 
L 142.583182 133.04807 
L 142.887545 133.155395 
L 143.191909 133.682651 
L 143.496273 133.982348 
L 143.800636 133.682651 
L 144.105 134.723406 
L 144.409364 134.723406 
L 145.322455 135.104812 
L 145.626818 135.97242 
L 145.931182 135.613536 
L 146.844273 135.676285 
L 147.148636 136.049372 
L 147.453 136.051984 
L 147.757364 136.284885 
L 148.061727 136.301014 
L 148.366091 136.472519 
L 148.670455 136.500639 
L 148.974818 137.491115 
L 149.583545 137.662832 
L 150.192273 137.808572 
L 150.801 137.794476 
L 151.105364 138.318691 
L 151.409727 138.318691 
L 151.714091 138.886536 
L 152.018455 138.886536 
L 152.322818 139.032974 
L 152.627182 138.715504 
L 152.931545 139.292979 
L 153.235909 139.316757 
L 153.540273 139.763692 
L 153.844636 139.880126 
L 154.149 140.731296 
L 154.453364 140.275984 
L 154.757727 140.275984 
L 155.062091 140.857631 
L 155.366455 140.60932 
L 155.975182 140.853577 
L 156.279545 140.853577 
L 156.888273 141.443836 
L 157.192636 141.457583 
L 157.497 142.061354 
L 157.801364 141.856053 
L 158.105727 142.2113 
L 158.410091 142.2113 
L 158.714455 142.850156 
L 159.018818 143.196351 
L 159.323182 142.92767 
L 159.931909 142.9758 
L 160.540636 143.23561 
L 160.845 143.581067 
L 161.149364 144.150136 
L 161.453727 143.762768 
L 161.758091 143.789916 
L 162.366818 144.983235 
L 162.671182 144.987057 
L 162.975545 146.161079 
L 163.279909 146.36592 
L 163.584273 146.161079 
L 165.106091 146.165871 
L 165.410455 146.311952 
L 166.019182 146.311952 
L 166.323545 146.511818 
L 166.932273 147.582123 
L 167.236636 147.582123 
L 167.541 147.946599 
L 167.845364 148.52643 
L 168.149727 147.946599 
L 168.454091 148.52643 
L 169.062818 148.54711 
L 169.671545 148.833728 
L 169.975909 148.730741 
L 170.280273 148.87874 
L 170.584636 148.87874 
L 170.889 149.049608 
L 171.193364 149.049608 
L 171.802091 149.389525 
L 172.106455 149.295382 
L 172.410818 149.575391 
L 173.019545 149.575391 
L 173.323909 149.875313 
L 173.628273 150.411366 
L 173.932636 150.479279 
L 174.237 150.708407 
L 174.541364 150.686521 
L 176.063182 151.262498 
L 176.367545 151.262657 
L 176.671909 152.344914 
L 176.976273 152.344914 
L 177.280636 152.080778 
L 177.585 152.540063 
L 177.889364 152.705352 
L 178.193727 153.06029 
L 178.498091 153.06029 
L 178.802455 153.784677 
L 179.106818 153.395775 
L 179.411182 153.441264 
L 179.715545 153.682859 
L 180.019909 153.74574 
L 180.324273 154.106271 
L 180.628636 154.106271 
L 180.933 154.58839 
L 181.237364 154.722165 
L 181.846091 155.552857 
L 182.150455 155.20171 
L 182.759182 155.287986 
L 183.063545 154.988787 
L 183.367909 155.270541 
L 184.585364 155.569789 
L 186.411545 155.912266 
L 186.715909 156.583554 
L 187.324636 156.707971 
L 187.629 156.707971 
L 187.933364 156.901723 
L 188.237727 156.821239 
L 188.846455 156.936376 
L 189.455182 157.013587 
L 189.759545 157.208693 
L 190.063909 157.208693 
L 190.672636 157.971939 
L 191.281364 158.033305 
L 192.194455 158.103748 
L 192.498818 158.741208 
L 193.107545 158.619604 
L 193.411909 159.0568 
L 193.716273 158.888355 
L 194.020636 159.196409 
L 194.629364 159.257211 
L 194.933727 159.651996 
L 195.542455 159.661727 
L 196.151182 160.330117 
L 196.759909 160.573089 
L 197.064273 160.468383 
L 197.368636 160.844251 
L 197.673 161.489215 
L 197.977364 161.692614 
L 198.586091 161.739109 
L 198.890455 162.038665 
L 199.194818 162.038665 
L 199.499182 162.805915 
L 199.803545 162.805915 
L 200.107909 162.675953 
L 201.325364 162.893594 
L 201.934091 163.941248 
L 202.238455 163.941248 
L 202.542818 164.488117 
L 203.151545 164.488117 
L 203.455909 165.376361 
L 204.064636 165.414089 
L 204.369 165.675947 
L 204.673364 165.675947 
L 204.977727 166.553735 
L 205.586455 166.611918 
L 205.890818 166.611918 
L 206.195182 167.034409 
L 206.499545 166.750803 
L 206.803909 167.016688 
L 207.108273 166.819546 
L 208.325727 167.095967 
L 208.934455 167.61474 
L 209.238818 167.869736 
L 209.543182 167.869736 
L 209.847545 168.050553 
L 210.151909 168.087096 
L 210.456273 168.487419 
L 211.065 168.593133 
L 211.978091 169.222796 
L 212.282455 169.137192 
L 212.586818 169.854101 
L 213.195545 169.960914 
L 213.499909 170.719124 
L 213.804273 170.273594 
L 214.108636 170.273594 
L 214.413 170.604533 
L 214.717364 170.718145 
L 215.326091 171.603681 
L 215.630455 171.951093 
L 216.239182 171.878084 
L 216.543545 172.971782 
L 216.847909 173.437115 
L 217.152273 173.437115 
L 217.456636 173.739201 
L 217.761 173.739201 
L 218.065364 173.985817 
L 218.978455 174.060678 
L 219.282818 174.56093 
L 219.587182 174.330344 
L 219.891545 174.806006 
L 220.500273 174.806006 
L 220.804636 175.054665 
L 221.109 175.144354 
L 221.413364 175.374599 
L 221.717727 175.39555 
L 222.022091 176.399066 
L 222.630818 176.399066 
L 222.935182 176.761665 
L 223.543909 176.517498 
L 223.848273 176.769723 
L 224.152636 176.743321 
L 224.457 177.116743 
L 224.761364 177.272603 
L 225.065727 177.301755 
L 225.370091 177.756002 
L 226.891909 177.802586 
L 227.196273 178.031506 
L 227.805 178.13474 
L 228.109364 178.257972 
L 228.413727 178.826751 
L 229.022455 178.826751 
L 229.326818 179.502978 
L 230.239909 180.542284 
L 230.544273 180.767997 
L 231.153 180.79431 
L 231.457364 180.88871 
L 231.761727 181.444225 
L 232.370455 181.546483 
L 232.674818 181.724814 
L 232.979182 181.724814 
L 233.587909 182.195505 
L 234.196636 181.984183 
L 234.501 182.125667 
L 234.805364 182.618493 
L 235.109727 182.618493 
L 235.414091 182.835999 
L 235.718455 182.865796 
L 236.022818 183.074679 
L 236.327182 183.074679 
L 236.631545 183.295774 
L 236.935909 183.295774 
L 237.240273 183.484841 
L 237.849 183.511771 
L 238.153364 183.244663 
L 238.762091 183.598759 
L 239.066455 183.71604 
L 239.370818 183.993978 
L 239.675182 184.087009 
L 240.283909 184.450003 
L 240.588273 184.450003 
L 241.197 184.758695 
L 241.501364 184.62487 
L 241.805727 185.131923 
L 242.110091 184.948803 
L 242.718818 185.407878 
L 243.327545 185.407878 
L 243.631909 185.650014 
L 243.936273 185.718851 
L 244.240636 185.927155 
L 244.545 186.398297 
L 244.849364 186.468501 
L 245.153727 186.670224 
L 246.066818 186.618724 
L 246.371182 187.069588 
L 246.675545 187.94742 
L 246.979909 187.625605 
L 247.284273 187.625605 
L 247.588636 187.307559 
L 247.893 187.389809 
L 248.197364 187.602857 
L 248.501727 188.299614 
L 248.806091 188.642943 
L 249.414818 188.642943 
L 249.719182 189.80748 
L 250.023545 189.287354 
L 250.327909 189.452308 
L 250.936636 189.559258 
L 251.241 189.941251 
L 251.545364 189.588352 
L 251.849727 189.592335 
L 252.154091 190.238245 
L 252.458455 190.238245 
L 252.762818 190.463216 
L 253.675909 190.516583 
L 253.980273 190.704026 
L 254.284636 191.390094 
L 254.589 191.118186 
L 255.502091 191.492571 
L 255.806455 191.495623 
L 256.110818 191.699113 
L 256.415182 191.666343 
L 257.023909 192.126502 
L 257.632636 192.395854 
L 258.241364 193.426448 
L 258.850091 193.524072 
L 259.458818 193.590309 
L 259.763182 193.952135 
L 260.067545 193.794412 
L 262.502455 194.127199 
L 262.806818 194.432834 
L 263.111182 195.037524 
L 264.024273 195.183983 
L 264.328636 195.865848 
L 264.633 195.919554 
L 264.937364 196.428315 
L 265.850455 196.441126 
L 266.154818 196.638802 
L 266.763545 196.651613 
L 267.067909 197.007819 
L 267.372273 196.828688 
L 267.676636 196.828688 
L 267.981 197.146348 
L 268.285364 197.054663 
L 268.589727 197.29658 
L 268.894091 197.816129 
L 271.329 198.111442 
L 271.937727 198.458635 
L 272.242091 198.09772 
L 272.546455 198.113968 
L 273.459545 199.270978 
L 273.763909 199.270978 
L 274.372636 199.634677 
L 274.677 199.757427 
L 274.981364 199.672693 
L 275.285727 199.726963 
L 275.590091 199.902605 
L 275.894455 200.237556 
L 278.025 200.345379 
L 281.068636 201.152872 
L 281.373 201.086188 
L 281.677364 201.428191 
L 282.286091 201.428191 
L 282.590455 201.740668 
L 283.199182 201.706869 
L 283.503545 201.870479 
L 284.112273 201.832924 
L 284.416636 202.130865 
L 285.329727 202.105878 
L 285.634091 202.489184 
L 285.938455 202.294116 
L 286.242818 202.337215 
L 287.155909 204.071379 
L 288.373364 204.127955 
L 288.982091 204.824046 
L 289.590818 204.99552 
L 289.895182 205.192775 
L 290.199545 204.678763 
L 290.503909 204.678763 
L 292.025727 205.333086 
L 292.330091 205.333086 
L 292.634455 205.507995 
L 292.938818 205.970716 
L 293.851909 206.05376 
L 294.156273 206.580549 
L 295.982455 206.65177 
L 296.895545 207.072082 
L 298.113 207.151 
L 298.417364 207.380031 
L 299.026091 207.380031 
L 299.634818 207.760794 
L 299.939182 207.760794 
L 300.243545 207.993149 
L 301.156636 207.871157 
L 301.765364 208.395851 
L 302.069727 208.333287 
L 302.374091 208.851431 
L 302.678455 208.851431 
L 302.982818 209.194455 
L 303.287182 208.924183 
L 303.591545 209.235477 
L 304.504636 209.054259 
L 306.026455 209.723544 
L 306.330818 210.157463 
L 306.939545 210.225669 
L 307.243909 210.225669 
L 307.852636 210.381441 
L 309.070091 210.379133 
L 309.374455 210.601991 
L 309.678818 210.601991 
L 309.983182 210.486846 
L 310.287545 210.708517 
L 310.896273 210.770376 
L 311.200636 210.67361 
L 311.505 210.773725 
L 311.809364 211.286378 
L 312.113727 211.286378 
L 312.418091 210.944934 
L 312.722455 211.055712 
L 313.331182 211.019138 
L 313.939909 211.448295 
L 314.548636 211.569537 
L 314.853 211.560937 
L 315.461727 211.96774 
L 315.766091 212.419785 
L 316.070455 212.419785 
L 316.374818 212.825843 
L 316.679182 212.825843 
L 316.983545 213.002938 
L 317.287909 212.825843 
L 317.592273 212.825843 
L 317.896636 212.977092 
L 318.201 213.262696 
L 318.505364 213.09149 
L 319.418455 213.09149 
L 319.722818 213.209706 
L 320.027182 213.114329 
L 320.635909 213.419135 
L 321.244636 213.419135 
L 321.549 213.630662 
L 322.157727 213.660189 
L 322.462091 213.812647 
L 322.766455 213.812647 
L 323.070818 213.998977 
L 323.375182 213.995549 
L 323.983909 214.18956 
L 324.288273 214.125849 
L 324.592636 214.304756 
L 325.505727 214.304756 
L 325.810091 214.486149 
L 327.027545 214.588479 
L 327.331909 214.737683 
L 327.940636 214.619739 
L 328.853727 214.769918 
L 329.766818 214.711754 
L 330.375545 214.748514 
L 330.679909 215.301473 
L 330.984273 214.879109 
L 331.288636 215.266788 
L 331.593 215.266788 
L 331.897364 215.59976 
L 332.201727 215.59976 
L 332.506091 215.72836 
L 332.810455 215.59976 
L 333.419182 215.613506 
L 333.723545 215.720854 
L 334.332273 215.717193 
L 334.636636 215.763675 
L 334.941 215.960554 
L 336.462818 216.068771 
L 337.071545 216.318756 
L 337.375909 216.318756 
L 337.984636 216.685129 
L 338.289 216.691359 
L 338.593364 217.073499 
L 339.202091 217.081572 
L 339.810818 217.448182 
L 340.723909 217.500794 
L 341.637 217.936099 
L 342.245727 218.227513 
L 342.854455 218.150903 
L 343.158818 218.454105 
L 343.463182 218.454105 
L 343.767545 218.683929 
L 344.071909 218.551193 
L 344.985 218.658809 
L 345.289364 218.658809 
L 345.593727 218.824048 
L 346.506818 218.88 
L 346.506818 218.88 
" clip-path="url(#p5f7d72ca9b)" style="fill: none; stroke: #1f77b4; stroke-width: 1.5; stroke-linecap: square"/>
   </g>
   <g id="patch_3">
    <path d="M 26.925 228.96 
L 26.925 7.2 
" style="fill: none; stroke: #000000; stroke-width: 0.8; stroke-linejoin: miter; stroke-linecap: square"/>
   </g>
   <g id="patch_4">
    <path d="M 361.725 228.96 
L 361.725 7.2 
" style="fill: none; stroke: #000000; stroke-width: 0.8; stroke-linejoin: miter; stroke-linecap: square"/>
   </g>
   <g id="patch_5">
    <path d="M 26.925 228.96 
L 361.725 228.96 
" style="fill: none; stroke: #000000; stroke-width: 0.8; stroke-linejoin: miter; stroke-linecap: square"/>
   </g>
   <g id="patch_6">
    <path d="M 26.925 7.2 
L 361.725 7.2 
" style="fill: none; stroke: #000000; stroke-width: 0.8; stroke-linejoin: miter; stroke-linecap: square"/>
   </g>
   <g id="legend_1">
    <g id="patch_7">
     <path d="M 261.825 29.878125 
L 354.725 29.878125 
Q 356.725 29.878125 356.725 27.878125 
L 356.725 14.2 
Q 356.725 12.2 354.725 12.2 
L 261.825 12.2 
Q 259.825 12.2 259.825 14.2 
L 259.825 27.878125 
Q 259.825 29.878125 261.825 29.878125 
z
" style="fill: #ffffff; opacity: 0.8; stroke: #cccccc; stroke-linejoin: miter"/>
    </g>
    <g id="line2d_16">
     <path d="M 263.825 20.298437 
L 273.825 20.298437 
L 283.825 20.298437 
" style="fill: none; stroke: #1f77b4; stroke-width: 1.5; stroke-linecap: square"/>
    </g>
    <g id="text_15">
     <!-- target value -->
     <g transform="translate(291.825 23.798437) scale(0.1 -0.1)">
      <defs>
       <path id="DejaVuSans-74" d="M 1172 4494 
L 1172 3500 
L 2356 3500 
L 2356 3053 
L 1172 3053 
L 1172 1153 
Q 1172 725 1289 603 
Q 1406 481 1766 481 
L 2356 481 
L 2356 0 
L 1766 0 
Q 1100 0 847 248 
Q 594 497 594 1153 
L 594 3053 
L 172 3053 
L 172 3500 
L 594 3500 
L 594 4494 
L 1172 4494 
z
" transform="scale(0.015625)"/>
       <path id="DejaVuSans-61" d="M 2194 1759 
Q 1497 1759 1228 1600 
Q 959 1441 959 1056 
Q 959 750 1161 570 
Q 1363 391 1709 391 
Q 2188 391 2477 730 
Q 2766 1069 2766 1631 
L 2766 1759 
L 2194 1759 
z
M 3341 1997 
L 3341 0 
L 2766 0 
L 2766 531 
Q 2569 213 2275 61 
Q 1981 -91 1556 -91 
Q 1019 -91 701 211 
Q 384 513 384 1019 
Q 384 1609 779 1909 
Q 1175 2209 1959 2209 
L 2766 2209 
L 2766 2266 
Q 2766 2663 2505 2880 
Q 2244 3097 1772 3097 
Q 1472 3097 1187 3025 
Q 903 2953 641 2809 
L 641 3341 
Q 956 3463 1253 3523 
Q 1550 3584 1831 3584 
Q 2591 3584 2966 3190 
Q 3341 2797 3341 1997 
z
" transform="scale(0.015625)"/>
       <path id="DejaVuSans-72" d="M 2631 2963 
Q 2534 3019 2420 3045 
Q 2306 3072 2169 3072 
Q 1681 3072 1420 2755 
Q 1159 2438 1159 1844 
L 1159 0 
L 581 0 
L 581 3500 
L 1159 3500 
L 1159 2956 
Q 1341 3275 1631 3429 
Q 1922 3584 2338 3584 
Q 2397 3584 2469 3576 
Q 2541 3569 2628 3553 
L 2631 2963 
z
" transform="scale(0.015625)"/>
       <path id="DejaVuSans-67" d="M 2906 1791 
Q 2906 2416 2648 2759 
Q 2391 3103 1925 3103 
Q 1463 3103 1205 2759 
Q 947 2416 947 1791 
Q 947 1169 1205 825 
Q 1463 481 1925 481 
Q 2391 481 2648 825 
Q 2906 1169 2906 1791 
z
M 3481 434 
Q 3481 -459 3084 -895 
Q 2688 -1331 1869 -1331 
Q 1566 -1331 1297 -1286 
Q 1028 -1241 775 -1147 
L 775 -588 
Q 1028 -725 1275 -790 
Q 1522 -856 1778 -856 
Q 2344 -856 2625 -561 
Q 2906 -266 2906 331 
L 2906 616 
Q 2728 306 2450 153 
Q 2172 0 1784 0 
Q 1141 0 747 490 
Q 353 981 353 1791 
Q 353 2603 747 3093 
Q 1141 3584 1784 3584 
Q 2172 3584 2450 3431 
Q 2728 3278 2906 2969 
L 2906 3500 
L 3481 3500 
L 3481 434 
z
" transform="scale(0.015625)"/>
       <path id="DejaVuSans-65" d="M 3597 1894 
L 3597 1613 
L 953 1613 
Q 991 1019 1311 708 
Q 1631 397 2203 397 
Q 2534 397 2845 478 
Q 3156 559 3463 722 
L 3463 178 
Q 3153 47 2828 -22 
Q 2503 -91 2169 -91 
Q 1331 -91 842 396 
Q 353 884 353 1716 
Q 353 2575 817 3079 
Q 1281 3584 2069 3584 
Q 2775 3584 3186 3129 
Q 3597 2675 3597 1894 
z
M 3022 2063 
Q 3016 2534 2758 2815 
Q 2500 3097 2075 3097 
Q 1594 3097 1305 2825 
Q 1016 2553 972 2059 
L 3022 2063 
z
" transform="scale(0.015625)"/>
       <path id="DejaVuSans-20" transform="scale(0.015625)"/>
       <path id="DejaVuSans-76" d="M 191 3500 
L 800 3500 
L 1894 563 
L 2988 3500 
L 3597 3500 
L 2284 0 
L 1503 0 
L 191 3500 
z
" transform="scale(0.015625)"/>
       <path id="DejaVuSans-6c" d="M 603 4863 
L 1178 4863 
L 1178 0 
L 603 0 
L 603 4863 
z
" transform="scale(0.015625)"/>
       <path id="DejaVuSans-75" d="M 544 1381 
L 544 3500 
L 1119 3500 
L 1119 1403 
Q 1119 906 1312 657 
Q 1506 409 1894 409 
Q 2359 409 2629 706 
Q 2900 1003 2900 1516 
L 2900 3500 
L 3475 3500 
L 3475 0 
L 2900 0 
L 2900 538 
Q 2691 219 2414 64 
Q 2138 -91 1772 -91 
Q 1169 -91 856 284 
Q 544 659 544 1381 
z
M 1991 3584 
L 1991 3584 
z
" transform="scale(0.015625)"/>
      </defs>
      <use xlink:href="#DejaVuSans-74"/>
      <use xlink:href="#DejaVuSans-61" x="39.208984"/>
      <use xlink:href="#DejaVuSans-72" x="100.488281"/>
      <use xlink:href="#DejaVuSans-67" x="139.851562"/>
      <use xlink:href="#DejaVuSans-65" x="203.328125"/>
      <use xlink:href="#DejaVuSans-74" x="264.851562"/>
      <use xlink:href="#DejaVuSans-20" x="304.060547"/>
      <use xlink:href="#DejaVuSans-76" x="335.847656"/>
      <use xlink:href="#DejaVuSans-61" x="395.027344"/>
      <use xlink:href="#DejaVuSans-6c" x="456.306641"/>
      <use xlink:href="#DejaVuSans-75" x="484.089844"/>
      <use xlink:href="#DejaVuSans-65" x="547.46875"/>
     </g>
    </g>
   </g>
  </g>
 </g>
 <defs>
  <clipPath id="p5f7d72ca9b">
   <rect x="26.925" y="7.2" width="334.8" height="221.76"/>
  </clipPath>
 </defs>
</svg>
