<?xml version="1.0" encoding="utf-8" standalone="no"?>
<!DOCTYPE svg PUBLIC "-//W3C//DTD SVG 1.1//EN"
  "http://www.w3.org/Graphics/SVG/1.1/DTD/svg11.dtd">
<svg xmlns:xlink="http://www.w3.org/1999/xlink" width="372.103125pt" height="252.838125pt" viewBox="0 0 372.103125 252.838125" xmlns="http://www.w3.org/2000/svg" version="1.1">
 <metadata>
  <rdf:RDF xmlns:dc="http://purl.org/dc/elements/1.1/" xmlns:cc="http://creativecommons.org/ns#" xmlns:rdf="http://www.w3.org/1999/02/22-rdf-syntax-ns#">
   <cc:Work>
    <dc:type rdf:resource="http://purl.org/dc/dcmitype/StillImage"/>
    <dc:date>2023-04-19T15:40:43.676524</dc:date>
    <dc:format>image/svg+xml</dc:format>
    <dc:creator>
     <cc:Agent>
      <dc:title>Matplotlib v3.6.2, https://matplotlib.org/</dc:title>
     </cc:Agent>
    </dc:creator>
   </cc:Work>
  </rdf:RDF>
 </metadata>
 <defs>
  <style type="text/css">*{stroke-linejoin: round; stroke-linecap: butt}</style>
 </defs>
 <g id="figure_1">
  <g id="patch_1">
   <path d="M 0 252.838125 
L 372.103125 252.838125 
L 372.103125 0 
L 0 0 
z
" style="fill: #ffffff"/>
  </g>
  <g id="axes_1">
   <g id="patch_2">
    <path d="M 30.103125 228.96 
L 364.903125 228.96 
L 364.903125 7.2 
L 30.103125 7.2 
z
" style="fill: #ffffff"/>
   </g>
   <g id="matplotlib.axis_1">
    <g id="xtick_1">
     <g id="line2d_1">
      <defs>
       <path id="ma54da8b0d7" d="M 0 0 
L 0 3.5 
" style="stroke: #000000; stroke-width: 0.8"/>
      </defs>
      <g>
       <use xlink:href="#ma54da8b0d7" x="33.99871" y="228.96" style="stroke: #000000; stroke-width: 0.8"/>
      </g>
     </g>
     <g id="text_1">
      <!-- 0 -->
      <g transform="translate(30.81746 243.558437) scale(0.1 -0.1)">
       <defs>
        <path id="DejaVuSans-30" d="M 2034 4250 
Q 1547 4250 1301 3770 
Q 1056 3291 1056 2328 
Q 1056 1369 1301 889 
Q 1547 409 2034 409 
Q 2525 409 2770 889 
Q 3016 1369 3016 2328 
Q 3016 3291 2770 3770 
Q 2525 4250 2034 4250 
z
M 2034 4750 
Q 2819 4750 3233 4129 
Q 3647 3509 3647 2328 
Q 3647 1150 3233 529 
Q 2819 -91 2034 -91 
Q 1250 -91 836 529 
Q 422 1150 422 2328 
Q 422 3509 836 4129 
Q 1250 4750 2034 4750 
z
" transform="scale(0.015625)"/>
       </defs>
       <use xlink:href="#DejaVuSans-30"/>
      </g>
     </g>
    </g>
    <g id="xtick_2">
     <g id="line2d_2">
      <g>
       <use xlink:href="#ma54da8b0d7" x="78.7323" y="228.96" style="stroke: #000000; stroke-width: 0.8"/>
      </g>
     </g>
     <g id="text_2">
      <!-- 5 -->
      <g transform="translate(75.55105 243.558437) scale(0.1 -0.1)">
       <defs>
        <path id="DejaVuSans-35" d="M 691 4666 
L 3169 4666 
L 3169 4134 
L 1269 4134 
L 1269 2991 
Q 1406 3038 1543 3061 
Q 1681 3084 1819 3084 
Q 2600 3084 3056 2656 
Q 3513 2228 3513 1497 
Q 3513 744 3044 326 
Q 2575 -91 1722 -91 
Q 1428 -91 1123 -41 
Q 819 9 494 109 
L 494 744 
Q 775 591 1075 516 
Q 1375 441 1709 441 
Q 2250 441 2565 725 
Q 2881 1009 2881 1497 
Q 2881 1984 2565 2268 
Q 2250 2553 1709 2553 
Q 1456 2553 1204 2497 
Q 953 2441 691 2322 
L 691 4666 
z
" transform="scale(0.015625)"/>
       </defs>
       <use xlink:href="#DejaVuSans-35"/>
      </g>
     </g>
    </g>
    <g id="xtick_3">
     <g id="line2d_3">
      <g>
       <use xlink:href="#ma54da8b0d7" x="123.46589" y="228.96" style="stroke: #000000; stroke-width: 0.8"/>
      </g>
     </g>
     <g id="text_3">
      <!-- 10 -->
      <g transform="translate(117.10339 243.558437) scale(0.1 -0.1)">
       <defs>
        <path id="DejaVuSans-31" d="M 794 531 
L 1825 531 
L 1825 4091 
L 703 3866 
L 703 4441 
L 1819 4666 
L 2450 4666 
L 2450 531 
L 3481 531 
L 3481 0 
L 794 0 
L 794 531 
z
" transform="scale(0.015625)"/>
       </defs>
       <use xlink:href="#DejaVuSans-31"/>
       <use xlink:href="#DejaVuSans-30" x="63.623047"/>
      </g>
     </g>
    </g>
    <g id="xtick_4">
     <g id="line2d_4">
      <g>
       <use xlink:href="#ma54da8b0d7" x="168.199481" y="228.96" style="stroke: #000000; stroke-width: 0.8"/>
      </g>
     </g>
     <g id="text_4">
      <!-- 15 -->
      <g transform="translate(161.836981 243.558437) scale(0.1 -0.1)">
       <use xlink:href="#DejaVuSans-31"/>
       <use xlink:href="#DejaVuSans-35" x="63.623047"/>
      </g>
     </g>
    </g>
    <g id="xtick_5">
     <g id="line2d_5">
      <g>
       <use xlink:href="#ma54da8b0d7" x="212.933071" y="228.96" style="stroke: #000000; stroke-width: 0.8"/>
      </g>
     </g>
     <g id="text_5">
      <!-- 20 -->
      <g transform="translate(206.570571 243.558437) scale(0.1 -0.1)">
       <defs>
        <path id="DejaVuSans-32" d="M 1228 531 
L 3431 531 
L 3431 0 
L 469 0 
L 469 531 
Q 828 903 1448 1529 
Q 2069 2156 2228 2338 
Q 2531 2678 2651 2914 
Q 2772 3150 2772 3378 
Q 2772 3750 2511 3984 
Q 2250 4219 1831 4219 
Q 1534 4219 1204 4116 
Q 875 4013 500 3803 
L 500 4441 
Q 881 4594 1212 4672 
Q 1544 4750 1819 4750 
Q 2544 4750 2975 4387 
Q 3406 4025 3406 3419 
Q 3406 3131 3298 2873 
Q 3191 2616 2906 2266 
Q 2828 2175 2409 1742 
Q 1991 1309 1228 531 
z
" transform="scale(0.015625)"/>
       </defs>
       <use xlink:href="#DejaVuSans-32"/>
       <use xlink:href="#DejaVuSans-30" x="63.623047"/>
      </g>
     </g>
    </g>
    <g id="xtick_6">
     <g id="line2d_6">
      <g>
       <use xlink:href="#ma54da8b0d7" x="257.666661" y="228.96" style="stroke: #000000; stroke-width: 0.8"/>
      </g>
     </g>
     <g id="text_6">
      <!-- 25 -->
      <g transform="translate(251.304161 243.558437) scale(0.1 -0.1)">
       <use xlink:href="#DejaVuSans-32"/>
       <use xlink:href="#DejaVuSans-35" x="63.623047"/>
      </g>
     </g>
    </g>
    <g id="xtick_7">
     <g id="line2d_7">
      <g>
       <use xlink:href="#ma54da8b0d7" x="302.400251" y="228.96" style="stroke: #000000; stroke-width: 0.8"/>
      </g>
     </g>
     <g id="text_7">
      <!-- 30 -->
      <g transform="translate(296.037751 243.558437) scale(0.1 -0.1)">
       <defs>
        <path id="DejaVuSans-33" d="M 2597 2516 
Q 3050 2419 3304 2112 
Q 3559 1806 3559 1356 
Q 3559 666 3084 287 
Q 2609 -91 1734 -91 
Q 1441 -91 1130 -33 
Q 819 25 488 141 
L 488 750 
Q 750 597 1062 519 
Q 1375 441 1716 441 
Q 2309 441 2620 675 
Q 2931 909 2931 1356 
Q 2931 1769 2642 2001 
Q 2353 2234 1838 2234 
L 1294 2234 
L 1294 2753 
L 1863 2753 
Q 2328 2753 2575 2939 
Q 2822 3125 2822 3475 
Q 2822 3834 2567 4026 
Q 2313 4219 1838 4219 
Q 1578 4219 1281 4162 
Q 984 4106 628 3988 
L 628 4550 
Q 988 4650 1302 4700 
Q 1616 4750 1894 4750 
Q 2613 4750 3031 4423 
Q 3450 4097 3450 3541 
Q 3450 3153 3228 2886 
Q 3006 2619 2597 2516 
z
" transform="scale(0.015625)"/>
       </defs>
       <use xlink:href="#DejaVuSans-33"/>
       <use xlink:href="#DejaVuSans-30" x="63.623047"/>
      </g>
     </g>
    </g>
    <g id="xtick_8">
     <g id="line2d_8">
      <g>
       <use xlink:href="#ma54da8b0d7" x="347.133842" y="228.96" style="stroke: #000000; stroke-width: 0.8"/>
      </g>
     </g>
     <g id="text_8">
      <!-- 35 -->
      <g transform="translate(340.771342 243.558437) scale(0.1 -0.1)">
       <use xlink:href="#DejaVuSans-33"/>
       <use xlink:href="#DejaVuSans-35" x="63.623047"/>
      </g>
     </g>
    </g>
   </g>
   <g id="matplotlib.axis_2">
    <g id="ytick_1">
     <g id="line2d_9">
      <defs>
       <path id="ma329f7b344" d="M 0 0 
L -3.5 0 
" style="stroke: #000000; stroke-width: 0.8"/>
      </defs>
      <g>
       <use xlink:href="#ma329f7b344" x="30.103125" y="209.868333" style="stroke: #000000; stroke-width: 0.8"/>
      </g>
     </g>
     <g id="text_9">
      <!-- 1.5 -->
      <g transform="translate(7.2 213.667552) scale(0.1 -0.1)">
       <defs>
        <path id="DejaVuSans-2e" d="M 684 794 
L 1344 794 
L 1344 0 
L 684 0 
L 684 794 
z
" transform="scale(0.015625)"/>
       </defs>
       <use xlink:href="#DejaVuSans-31"/>
       <use xlink:href="#DejaVuSans-2e" x="63.623047"/>
       <use xlink:href="#DejaVuSans-35" x="95.410156"/>
      </g>
     </g>
    </g>
    <g id="ytick_2">
     <g id="line2d_10">
      <g>
       <use xlink:href="#ma329f7b344" x="30.103125" y="177.759508" style="stroke: #000000; stroke-width: 0.8"/>
      </g>
     </g>
     <g id="text_10">
      <!-- 2.0 -->
      <g transform="translate(7.2 181.558727) scale(0.1 -0.1)">
       <use xlink:href="#DejaVuSans-32"/>
       <use xlink:href="#DejaVuSans-2e" x="63.623047"/>
       <use xlink:href="#DejaVuSans-30" x="95.410156"/>
      </g>
     </g>
    </g>
    <g id="ytick_3">
     <g id="line2d_11">
      <g>
       <use xlink:href="#ma329f7b344" x="30.103125" y="145.650683" style="stroke: #000000; stroke-width: 0.8"/>
      </g>
     </g>
     <g id="text_11">
      <!-- 2.5 -->
      <g transform="translate(7.2 149.449902) scale(0.1 -0.1)">
       <use xlink:href="#DejaVuSans-32"/>
       <use xlink:href="#DejaVuSans-2e" x="63.623047"/>
       <use xlink:href="#DejaVuSans-35" x="95.410156"/>
      </g>
     </g>
    </g>
    <g id="ytick_4">
     <g id="line2d_12">
      <g>
       <use xlink:href="#ma329f7b344" x="30.103125" y="113.541859" style="stroke: #000000; stroke-width: 0.8"/>
      </g>
     </g>
     <g id="text_12">
      <!-- 3.0 -->
      <g transform="translate(7.2 117.341077) scale(0.1 -0.1)">
       <use xlink:href="#DejaVuSans-33"/>
       <use xlink:href="#DejaVuSans-2e" x="63.623047"/>
       <use xlink:href="#DejaVuSans-30" x="95.410156"/>
      </g>
     </g>
    </g>
    <g id="ytick_5">
     <g id="line2d_13">
      <g>
       <use xlink:href="#ma329f7b344" x="30.103125" y="81.433034" style="stroke: #000000; stroke-width: 0.8"/>
      </g>
     </g>
     <g id="text_13">
      <!-- 3.5 -->
      <g transform="translate(7.2 85.232253) scale(0.1 -0.1)">
       <use xlink:href="#DejaVuSans-33"/>
       <use xlink:href="#DejaVuSans-2e" x="63.623047"/>
       <use xlink:href="#DejaVuSans-35" x="95.410156"/>
      </g>
     </g>
    </g>
    <g id="ytick_6">
     <g id="line2d_14">
      <g>
       <use xlink:href="#ma329f7b344" x="30.103125" y="49.324209" style="stroke: #000000; stroke-width: 0.8"/>
      </g>
     </g>
     <g id="text_14">
      <!-- 4.0 -->
      <g transform="translate(7.2 53.123428) scale(0.1 -0.1)">
       <defs>
        <path id="DejaVuSans-34" d="M 2419 4116 
L 825 1625 
L 2419 1625 
L 2419 4116 
z
M 2253 4666 
L 3047 4666 
L 3047 1625 
L 3713 1625 
L 3713 1100 
L 3047 1100 
L 3047 0 
L 2419 0 
L 2419 1100 
L 313 1100 
L 313 1709 
L 2253 4666 
z
" transform="scale(0.015625)"/>
       </defs>
       <use xlink:href="#DejaVuSans-34"/>
       <use xlink:href="#DejaVuSans-2e" x="63.623047"/>
       <use xlink:href="#DejaVuSans-30" x="95.410156"/>
      </g>
     </g>
    </g>
    <g id="ytick_7">
     <g id="line2d_15">
      <g>
       <use xlink:href="#ma329f7b344" x="30.103125" y="17.215384" style="stroke: #000000; stroke-width: 0.8"/>
      </g>
     </g>
     <g id="text_15">
      <!-- 4.5 -->
      <g transform="translate(7.2 21.014603) scale(0.1 -0.1)">
       <use xlink:href="#DejaVuSans-34"/>
       <use xlink:href="#DejaVuSans-2e" x="63.623047"/>
       <use xlink:href="#DejaVuSans-35" x="95.410156"/>
      </g>
     </g>
    </g>
   </g>
   <g id="line2d_16">
    <path d="M 45.321307 217.989025 
L 45.670965 217.905477 
L 45.966778 217.296298 
L 46.258345 217.296298 
L 46.568313 218.88 
L 46.862774 214.021823 
L 47.161605 216.446415 
L 47.448812 217.061859 
L 47.735054 213.535898 
L 48.302792 212.881034 
L 48.592507 212.881034 
L 48.894583 211.777059 
L 49.170617 202.72144 
L 49.718791 201.377064 
L 49.990189 204.974388 
L 50.268441 205.943467 
L 50.543651 205.925695 
L 50.830044 207.257592 
L 51.615065 207.257592 
L 51.898694 210.270909 
L 52.174753 204.25983 
L 52.448901 204.25983 
L 52.720897 209.242101 
L 53.002557 204.541355 
L 53.27842 210.319486 
L 53.555769 209.862259 
L 53.832268 212.009438 
L 54.109088 213.084744 
L 54.387161 214.866142 
L 54.664858 213.124965 
L 54.943969 213.606821 
L 55.223151 213.349051 
L 55.505983 211.971421 
L 55.787626 211.578989 
L 56.068401 210.13952 
L 56.346661 207.173021 
L 56.616155 212.197154 
L 56.889951 211.45536 
L 57.181462 211.022827 
L 57.73292 211.022827 
L 58.024574 210.779809 
L 58.909271 210.779809 
L 59.186386 209.103624 
L 59.468558 209.103624 
L 59.740688 210.623187 
L 60.022028 210.779809 
L 60.310495 209.654762 
L 60.587559 209.241589 
L 60.864951 210.210014 
L 61.139794 210.272711 
L 61.407131 209.296575 
L 61.955619 209.296575 
L 62.233915 208.852663 
L 62.517519 209.427341 
L 62.815943 208.002256 
L 63.092578 207.627108 
L 63.401068 209.078973 
L 64.506516 209.078973 
L 64.784311 208.743918 
L 65.073755 208.743918 
L 65.356213 208.591046 
L 66.236919 208.698167 
L 66.52045 206.190516 
L 66.807622 208.173184 
L 67.084594 208.005968 
L 67.359158 206.724083 
L 67.668314 208.407016 
L 68.526089 208.407016 
L 68.809628 208.782981 
L 69.091899 207.294948 
L 69.363001 207.365986 
L 69.637424 205.854362 
L 70.456469 205.867119 
L 70.730568 204.524181 
L 71.011202 206.911524 
L 72.14195 206.922711 
L 72.429551 205.398298 
L 72.704976 205.063243 
L 72.987155 206.815152 
L 73.560105 206.815152 
L 73.836763 206.053301 
L 74.132612 205.623281 
L 74.410973 205.6262 
L 74.686648 204.808205 
L 75.800082 204.730675 
L 76.07744 204.243919 
L 76.361357 205.126212 
L 76.643553 205.126212 
L 76.932201 205.442713 
L 77.515965 205.477959 
L 77.822051 204.920667 
L 78.106745 205.477959 
L 78.384011 204.784263 
L 78.664072 203.535386 
L 79.217374 203.350259 
L 79.503838 204.471545 
L 79.803087 204.471545 
L 80.663073 204.075677 
L 80.941629 204.075677 
L 81.219425 203.518561 
L 81.516563 204.075677 
L 81.801758 202.731933 
L 82.079455 202.358118 
L 82.355998 202.358118 
L 82.646826 202.142226 
L 82.928811 203.942948 
L 83.479856 203.942948 
L 83.758922 202.174572 
L 84.034026 201.156991 
L 84.320831 202.269242 
L 84.60029 201.517927 
L 84.878444 203.481321 
L 85.153091 200.683826 
L 85.442187 201.156847 
L 85.72042 200.974294 
L 86.004397 201.292367 
L 86.286208 201.109815 
L 86.595739 201.066101 
L 86.895062 200.755203 
L 87.174566 199.954387 
L 87.46052 200.506385 
L 88.018485 198.832314 
L 88.2916 198.832314 
L 88.570969 199.579513 
L 88.856907 198.689726 
L 89.152899 199.76129 
L 89.433932 198.350956 
L 89.723314 199.333973 
L 89.995009 198.448083 
L 90.264475 199.04476 
L 90.552694 198.733862 
L 90.837646 198.683475 
L 91.41429 198.788945 
L 91.96913 198.788945 
L 92.248681 197.172707 
L 92.53629 196.980167 
L 92.811345 198.193052 
L 93.152673 197.681257 
L 93.450133 198.004228 
L 93.736938 198.004228 
L 94.016041 197.59448 
L 94.295052 197.59448 
L 94.572411 197.878911 
L 94.85322 197.422788 
L 95.128583 196.124948 
L 95.409804 196.124948 
L 95.698282 194.021643 
L 96.295602 194.021643 
L 96.587236 193.068465 
L 96.934092 193.819195 
L 97.293197 193.596778 
L 97.622086 194.016479 
L 97.955906 194.09584 
L 98.304131 191.450684 
L 98.870457 191.450684 
L 99.196206 189.276292 
L 99.489472 194.966972 
L 99.772805 195.02156 
L 100.057686 193.065023 
L 100.383922 192.474427 
L 100.742935 191.547301 
L 101.082641 191.279477 
L 101.365472 192.783968 
L 101.677501 191.989146 
L 102.579006 191.346411 
L 103.214431 191.346411 
L 103.508399 191.642607 
L 103.808189 191.182281 
L 104.100996 191.529949 
L 104.392104 188.21585 
L 105.023538 184.322943 
L 105.310019 182.243658 
L 105.624819 186.050606 
L 105.985362 186.5412 
L 106.326893 189.119076 
L 106.649924 187.13013 
L 106.998318 183.967829 
L 107.390605 183.967829 
L 107.810117 184.627092 
L 108.527402 184.491775 
L 108.854781 183.575467 
L 109.184646 185.041121 
L 109.523842 184.592204 
L 109.866949 183.290877 
L 110.204168 182.914714 
L 110.534464 184.524433 
L 110.821788 184.492167 
L 111.115116 184.324834 
L 111.394306 183.748539 
L 111.818927 183.59267 
L 112.163222 183.59267 
L 112.545517 184.032343 
L 112.901015 184.032343 
L 113.278083 186.779923 
L 113.622102 185.549551 
L 113.975222 185.141153 
L 114.334724 187.328605 
L 114.634074 186.456348 
L 114.977798 186.327071 
L 115.356244 186.905586 
L 115.737841 182.969961 
L 116.107464 183.51088 
L 116.485471 181.991516 
L 116.865572 181.48082 
L 117.241478 183.355011 
L 117.663771 178.791113 
L 118.003937 182.104911 
L 118.294418 181.46049 
L 118.582957 183.9839 
L 118.859601 181.503678 
L 119.147451 182.272497 
L 119.4473 179.870327 
L 119.727692 179.345229 
L 120.015256 179.210432 
L 120.294752 182.422856 
L 120.584375 180.605994 
L 120.914563 180.69609 
L 121.20339 180.369337 
L 121.532119 180.369337 
L 121.821993 180.227178 
L 122.121653 177.748738 
L 122.990435 177.648083 
L 123.293897 176.513729 
L 123.584506 176.327104 
L 123.864959 177.653629 
L 124.155843 177.653629 
L 124.434525 181.407022 
L 124.72497 180.110498 
L 125.014057 177.653629 
L 125.300916 180.282464 
L 125.588777 176.048892 
L 125.888688 176.048892 
L 126.203208 177.299845 
L 126.497985 180.886623 
L 126.778447 179.338819 
L 127.081679 178.4626 
L 127.370845 178.323763 
L 127.648069 178.323763 
L 127.926939 179.108964 
L 128.215398 176.646163 
L 128.788667 177.747103 
L 129.072288 176.326145 
L 129.361376 176.745814 
L 129.648098 174.575255 
L 129.930144 174.136875 
L 130.209542 174.865411 
L 130.865433 174.865411 
L 131.223777 173.688736 
L 131.567053 173.532509 
L 131.905767 171.496451 
L 132.205097 171.080576 
L 132.487257 174.190531 
L 132.774045 174.646227 
L 133.05866 174.467259 
L 133.348132 173.712773 
L 133.692462 174.067717 
L 134.038577 170.250601 
L 134.348812 170.250601 
L 134.661634 173.315109 
L 135.269303 173.315109 
L 135.585249 173.45899 
L 135.915775 168.591643 
L 136.197579 169.294661 
L 136.480608 171.660788 
L 136.774688 169.708305 
L 137.068927 166.526467 
L 137.350077 166.38395 
L 137.631452 170.894896 
L 138.225506 169.979666 
L 138.51357 170.397884 
L 138.801047 171.960576 
L 139.086636 171.799287 
L 139.382324 170.606097 
L 139.663404 172.728011 
L 139.993807 172.36625 
L 140.288119 167.911092 
L 140.58175 167.421974 
L 140.875174 176.377677 
L 141.19697 177.073796 
L 141.778665 177.073796 
L 142.118902 173.118956 
L 142.417454 172.83363 
L 142.717239 172.811077 
L 143.038946 167.3622 
L 143.361618 170.078342 
L 143.69273 167.151564 
L 144.043439 166.866238 
L 144.427344 167.773239 
L 145.146221 167.306961 
L 145.689393 162.321902 
L 146.265277 164.393554 
L 147.004473 159.675738 
L 147.333505 162.319875 
L 147.681461 156.678276 
L 148.018493 160.390473 
L 148.386453 158.953089 
L 148.708706 158.953089 
L 149.058772 166.014498 
L 149.458949 166.334631 
L 149.987808 166.903506 
L 150.515164 164.781144 
L 151.090267 166.174368 
L 151.662142 164.354422 
L 152.228255 164.746012 
L 152.716119 164.129818 
L 153.20061 165.858072 
L 153.719923 163.68591 
L 154.527587 155.502096 
L 154.912225 155.224882 
L 155.400564 155.224882 
L 155.803195 164.416809 
L 156.082545 164.515609 
L 156.365942 163.164987 
L 156.657481 163.164987 
L 156.93524 163.775774 
L 157.242497 166.015434 
L 157.534403 165.383343 
L 158.194095 162.729155 
L 158.496952 164.300317 
L 158.884579 163.844654 
L 159.184632 155.321673 
L 159.481504 154.445978 
L 159.782389 154.30186 
L 160.101637 152.444059 
L 160.396304 152.069638 
L 160.684852 152.444059 
L 160.97699 152.246654 
L 161.272509 154.732976 
L 161.562222 154.732976 
L 161.853304 158.749119 
L 162.141709 158.12208 
L 162.424291 162.230034 
L 162.737794 158.805282 
L 163.035489 158.461871 
L 163.379264 157.652701 
L 163.672993 157.652701 
L 164.25081 161.373895 
L 164.532577 159.370677 
L 164.83742 161.637548 
L 165.17931 155.071132 
L 165.45978 157.489785 
L 165.743874 157.333908 
L 166.030234 155.491988 
L 166.331853 154.996609 
L 166.614345 153.753686 
L 167.249617 154.080301 
L 167.559109 155.242617 
L 167.841369 155.691423 
L 168.116283 148.075489 
L 168.406846 150.585302 
L 168.690557 150.582887 
L 168.985047 147.77275 
L 169.282945 150.131213 
L 169.851957 149.091448 
L 170.161541 149.923509 
L 170.495101 149.768671 
L 170.78969 148.698857 
L 171.08424 148.780125 
L 171.377059 147.863024 
L 171.656688 151.465872 
L 171.943278 148.067128 
L 172.510277 146.096318 
L 172.803532 146.630617 
L 173.099132 146.527473 
L 173.385193 148.265056 
L 173.678191 148.095243 
L 173.963473 146.655546 
L 174.249617 149.800288 
L 174.567297 145.425386 
L 174.869042 143.256023 
L 175.19959 148.397621 
L 175.524362 147.725611 
L 175.815427 147.935284 
L 176.098303 149.561313 
L 176.387344 153.12634 
L 176.678669 150.704908 
L 176.963792 149.273847 
L 177.255286 150.146142 
L 177.537321 147.536577 
L 177.828788 150.418798 
L 178.107182 151.096726 
L 178.398309 146.423872 
L 178.69636 148.740627 
L 179.033508 152.324629 
L 179.32918 151.988186 
L 179.955019 152.041833 
L 180.244437 144.895989 
L 180.53303 142.92642 
L 180.810433 143.49965 
L 181.103941 143.392669 
L 181.395592 143.872103 
L 181.686316 138.657097 
L 182.268131 138.296682 
L 182.559742 136.494148 
L 182.8414 143.5493 
L 183.125076 145.045808 
L 183.41212 125.775856 
L 183.697942 132.808197 
L 184.024604 132.370612 
L 184.322235 135.768931 
L 184.610595 142.43218 
L 184.898011 143.110427 
L 185.197143 143.454295 
L 185.478355 142.853914 
L 186.041497 136.218922 
L 186.327731 137.586676 
L 186.616763 136.329075 
L 186.91918 143.660075 
L 187.22022 143.860889 
L 187.509932 141.714937 
L 187.806599 144.168669 
L 188.09029 144.160203 
L 188.374041 144.67927 
L 188.673659 132.857624 
L 188.966638 130.978722 
L 189.246455 132.639863 
L 189.543523 133.260507 
L 189.829592 132.90934 
L 190.117812 143.726269 
L 190.409673 148.929667 
L 190.697559 148.929667 
L 190.984158 141.122545 
L 191.272045 140.431848 
L 191.562591 137.170042 
L 191.851694 138.36732 
L 192.152509 145.766388 
L 192.486716 144.502147 
L 192.783101 138.823581 
L 193.108574 145.361621 
L 193.401687 139.665738 
L 193.730906 138.653377 
L 194.302727 138.653377 
L 194.587707 141.523803 
L 194.873448 138.95477 
L 195.165899 141.582371 
L 195.4507 141.582371 
L 196.035492 139.405436 
L 196.31676 138.815075 
L 196.613093 138.663106 
L 196.90277 136.005545 
L 197.188965 135.159762 
L 197.490713 136.007508 
L 197.790033 135.573113 
L 198.079389 134.277953 
L 198.35808 139.00634 
L 198.649643 139.00634 
L 198.953207 133.537216 
L 199.231116 139.016567 
L 199.516904 136.684324 
L 199.82501 135.425272 
L 200.158186 135.421403 
L 200.444095 138.297232 
L 200.734676 138.297232 
L 201.022333 135.729172 
L 201.32472 135.949844 
L 201.609842 139.194504 
L 201.924062 139.194504 
L 202.792645 132.017623 
L 203.087288 130.674294 
L 203.420052 131.606331 
L 203.70327 133.671343 
L 203.986602 138.967014 
L 204.570537 138.967014 
L 204.8632 134.390533 
L 205.152475 134.786849 
L 205.43164 133.26392 
L 205.721882 135.34829 
L 206.020451 135.907793 
L 206.30229 137.687824 
L 206.603311 137.747809 
L 206.884668 138.340082 
L 207.174381 133.756133 
L 207.489965 138.462258 
L 207.774706 138.666785 
L 208.067926 137.749242 
L 208.362148 134.093991 
L 208.940534 133.617503 
L 209.535552 133.617503 
L 209.831564 136.061494 
L 210.116966 136.114603 
L 210.42533 135.589083 
L 210.716244 137.48121 
L 211.011995 137.062678 
L 211.306268 135.605693 
L 211.602111 133.327977 
L 211.932156 135.585911 
L 212.235173 134.128926 
L 212.536605 134.301409 
L 212.841518 134.301409 
L 213.436107 127.172108 
L 213.725559 125.435198 
L 214.03884 124.678355 
L 214.611099 130.692882 
L 214.896417 131.372538 
L 215.17984 125.707378 
L 215.496717 127.26787 
L 215.782492 127.26787 
L 216.07498 128.367903 
L 216.375524 127.437845 
L 216.662946 127.437845 
L 216.94534 127.675761 
L 217.24418 127.41911 
L 217.537167 122.375447 
L 217.833196 122.009442 
L 218.684272 127.16296 
L 218.972239 124.691561 
L 219.262204 129.289924 
L 219.861354 125.95078 
L 220.157984 126.729444 
L 220.440323 126.080966 
L 220.727663 126.03556 
L 221.017549 129.941152 
L 221.319168 128.403169 
L 221.617533 130.672157 
L 221.911621 130.672157 
L 222.214951 131.451165 
L 222.801373 130.890747 
L 223.424251 127.355229 
L 223.748353 114.766843 
L 224.02198 114.766843 
L 224.334043 118.133407 
L 224.630456 123.253564 
L 224.923443 118.375547 
L 225.209416 118.828056 
L 226.080131 118.776801 
L 226.362318 117.549153 
L 226.646376 118.169579 
L 226.926667 117.549153 
L 227.213231 118.754504 
L 227.500717 112.474986 
L 227.785722 111.108112 
L 228.089716 111.108112 
L 228.378479 112.067853 
L 228.670248 110.852159 
L 228.957132 115.004635 
L 229.246489 111.485514 
L 229.543268 123.000629 
L 229.826879 120.204836 
L 230.121335 120.801931 
L 230.696725 120.801931 
L 230.982878 114.441593 
L 231.270325 114.795204 
L 231.565129 113.532606 
L 231.861998 112.825883 
L 232.735635 112.717756 
L 233.399413 112.433408 
L 233.715375 113.172655 
L 234.017165 112.459369 
L 234.339497 112.459369 
L 234.621588 113.794541 
L 234.902702 110.136283 
L 235.193191 110.136283 
L 235.493471 110.313339 
L 235.785046 110.169332 
L 236.366841 110.169332 
L 236.653869 114.909053 
L 237.250339 109.941932 
L 237.541669 108.908506 
L 237.850163 106.171609 
L 238.135501 106.979583 
L 238.429132 107.165387 
L 238.715202 107.165387 
L 239.003601 109.143196 
L 239.296624 106.387874 
L 239.595487 99.745908 
L 240.460869 99.745908 
L 240.742235 104.485629 
L 241.0274 103.844918 
L 241.322081 102.285314 
L 241.608287 102.285314 
L 241.890214 103.844918 
L 242.196102 102.327654 
L 242.510445 102.014404 
L 242.858776 102.200208 
L 243.151399 102.200208 
L 243.43619 102.014404 
L 243.737998 102.014404 
L 244.024114 105.764936 
L 244.339067 106.195676 
L 244.673109 96.383737 
L 244.991623 107.364243 
L 245.275026 107.364243 
L 245.617086 114.062787 
L 245.937557 113.843665 
L 246.260919 112.714801 
L 246.787969 102.183739 
L 247.144667 97.850972 
L 247.548701 97.850972 
L 248.005109 98.403935 
L 248.384325 98.403935 
L 248.886755 96.369647 
L 249.205543 97.929252 
L 249.609318 89.968601 
L 250.030493 99.582654 
L 250.489172 89.601592 
L 250.881298 89.787396 
L 251.218661 98.6873 
L 251.593995 96.271143 
L 251.917794 103.907938 
L 252.42307 97.487832 
L 252.791996 105.906421 
L 253.127275 105.720617 
L 253.431454 86.275089 
L 253.739605 86.275089 
L 254.050915 88.691247 
L 254.355327 89.100022 
L 254.670261 95.738342 
L 255.012232 98.093454 
L 255.308341 92.426742 
L 255.912997 92.575289 
L 256.199237 91.931354 
L 256.517176 89.575228 
L 256.840626 85.227583 
L 257.129436 86.070007 
L 257.412108 88.154553 
L 257.701383 85.860888 
L 258.274563 85.857797 
L 258.57044 90.205443 
L 258.856179 90.205443 
L 259.147342 89.983217 
L 259.43854 89.574442 
L 259.733011 89.363458 
L 261.20532 89.363458 
L 261.492187 89.772234 
L 262.155719 88.73107 
L 262.486856 80.899484 
L 263.077314 100.849871 
L 263.371948 90.258439 
L 263.953796 80.539699 
L 264.251659 97.318024 
L 264.550721 97.318024 
L 264.846752 96.255574 
L 265.136463 89.421981 
L 265.431169 74.437708 
L 265.726758 74.546356 
L 266.017715 84.201678 
L 266.31225 84.201678 
L 266.596227 83.696221 
L 266.895807 86.844707 
L 267.190038 82.963149 
L 267.481361 91.567669 
L 267.776264 92.273609 
L 268.074611 82.127208 
L 268.657953 82.127208 
L 269.237899 91.454014 
L 269.525803 85.228629 
L 269.817252 90.032134 
L 270.122039 89.239549 
L 270.412538 80.943563 
L 270.717596 87.69989 
L 271.060668 88.276798 
L 271.50955 84.983015 
L 271.923373 85.681562 
L 272.257479 85.681562 
L 272.589563 81.971705 
L 273.216387 90.459054 
L 273.523011 84.103153 
L 273.823171 84.332882 
L 274.118127 84.332882 
L 274.428946 80.249075 
L 274.719292 84.268354 
L 275.017316 74.150911 
L 275.335283 85.87158 
L 275.787243 85.87158 
L 276.14352 76.046815 
L 276.46861 86.472208 
L 276.798277 85.982084 
L 277.122131 83.943847 
L 277.461069 89.569079 
L 277.813327 89.355997 
L 278.122184 84.167252 
L 278.458225 83.435988 
L 278.753155 75.314402 
L 279.054826 83.76794 
L 279.350616 77.914297 
L 279.641678 82.293711 
L 279.926238 82.740107 
L 280.804089 82.703105 
L 281.112814 82.126198 
L 281.741893 82.211103 
L 282.327332 82.796659 
L 282.62948 74.49132 
L 282.917851 77.955271 
L 283.215911 85.038106 
L 283.510499 67.498392 
L 283.798235 64.23559 
L 284.089923 63.856224 
L 284.398264 84.969384 
L 284.68736 87.019569 
L 284.973018 84.796329 
L 285.271034 86.478909 
L 285.559378 73.549609 
L 285.839707 73.759283 
L 286.136361 70.504708 
L 286.437069 73.553175 
L 286.735255 88.640836 
L 287.042277 88.415687 
L 287.337798 73.45165 
L 287.632485 74.764729 
L 287.925338 78.02753 
L 288.211079 77.867314 
L 288.515625 78.385279 
L 288.798537 78.385279 
L 289.098226 87.951132 
L 289.419662 72.701227 
L 289.723485 72.945382 
L 290.01154 72.495218 
L 290.330547 72.495218 
L 290.645276 72.672482 
L 290.957755 74.993058 
L 291.240042 72.322854 
L 291.530312 89.0538 
L 292.381125 63.876011 
L 292.679167 55.797804 
L 292.966258 79.818818 
L 293.260506 76.251788 
L 293.556974 77.161321 
L 293.851375 80.330416 
L 294.138341 79.915889 
L 294.437413 79.681036 
L 294.725264 79.681036 
L 295.018993 58.724472 
L 295.316408 84.634919 
L 295.613226 84.634919 
L 295.915902 83.817307 
L 296.21644 83.817307 
L 296.513309 69.428201 
L 296.802763 69.428201 
L 297.103523 70.135482 
L 297.387888 70.335741 
L 297.684875 76.917434 
L 297.993866 76.446737 
L 298.283669 63.488119 
L 298.567584 63.488119 
L 298.866744 64.1954 
L 299.162683 75.119814 
L 299.452029 63.867078 
L 299.739901 63.867078 
L 300.068548 68.154107 
L 300.390756 70.135752 
L 300.703954 70.521553 
L 301.001092 71.514738 
L 301.306094 71.514738 
L 301.607839 68.342632 
L 301.896569 68.07514 
L 302.195584 67.961139 
L 302.506689 71.503343 
L 302.79794 71.39 
L 303.08938 71.639873 
L 303.377822 66.910961 
L 303.665736 66.910961 
L 304.00846 68.035913 
L 304.357175 64.071574 
L 304.703557 63.8217 
L 305.047021 63.8217 
L 305.335283 64.923469 
L 305.625693 64.923469 
L 305.915344 72.047318 
L 306.205699 71.509011 
L 306.497212 71.509011 
L 306.788294 72.286676 
L 307.398048 62.996342 
L 307.737898 61.484103 
L 308.031548 61.27895 
L 308.62499 61.27895 
L 308.90684 65.776478 
L 309.199729 60.820803 
L 309.509599 64.765526 
L 310.450778 63.136527 
L 310.812556 62.690781 
L 311.11855 63.306622 
L 311.440532 63.177124 
L 311.739809 63.177124 
L 312.025066 62.894296 
L 312.312624 54.900696 
L 312.618913 73.903213 
L 312.90196 73.796539 
L 313.197319 78.942244 
L 313.498467 79.361561 
L 313.792689 67.362778 
L 314.087024 62.864787 
L 314.387592 62.377669 
L 314.673807 68.776663 
L 314.969639 62.377669 
L 315.545074 53.40041 
L 315.839108 53.819727 
L 316.129123 56.097357 
L 316.41319 56.097357 
L 316.710025 57.053701 
L 316.997948 58.637573 
L 317.2915 51.170915 
L 317.605135 60.974367 
L 317.902399 54.575373 
L 318.199089 54.575373 
L 318.4822 48.829093 
L 318.781352 48.829093 
L 319.070249 54.501018 
L 319.359371 49.221501 
L 319.658192 49.620373 
L 319.951288 54.033121 
L 320.245124 53.651349 
L 320.579247 55.191651 
L 321.206895 45.167002 
L 321.497951 59.999272 
L 321.79356 60.846301 
L 322.076741 60.846301 
L 322.358992 63.617314 
L 322.669317 64.263794 
L 322.966312 59.930959 
L 323.264811 44.069828 
L 323.554703 44.201842 
L 323.850913 44.201842 
L 324.142967 51.970712 
L 324.431946 51.549762 
L 324.723393 51.549762 
L 325.011773 40.521823 
L 325.309913 38.925393 
L 325.594912 38.806005 
L 325.889296 44.504439 
L 326.195308 43.928508 
L 326.488591 41.186265 
L 326.782822 39.635812 
L 327.670191 39.635812 
L 327.956307 43.903773 
L 328.536505 43.903773 
L 328.821894 46.031787 
L 329.114015 45.11637 
L 329.404479 45.436016 
L 329.679672 32.277958 
L 330.006171 45.316629 
L 330.321141 45.20541 
L 330.626135 53.657696 
L 331.217666 54.070569 
L 331.512763 26.233989 
L 331.797305 26.463068 
L 332.104534 26.463068 
L 332.390749 25.449317 
L 332.68253 39.958613 
L 332.97694 31.798855 
L 333.298135 45.26879 
L 333.878473 45.190354 
L 334.214209 50.440081 
L 334.512204 52.141768 
L 334.805129 46.678591 
L 335.100979 46.176967 
L 335.387597 39.576932 
L 335.679716 39.576932 
L 335.980727 32.674795 
L 336.295734 32.45628 
L 336.598364 21.579543 
L 336.89111 21.796419 
L 337.169434 24.045631 
L 337.746524 23.868475 
L 338.05497 23.562826 
L 338.358647 23.733014 
L 338.65111 34.168786 
L 339.23174 17.28 
L 339.561499 23.918021 
L 339.887937 24.301876 
L 340.186956 19.415993 
L 340.47929 19.415993 
L 341.07514 27.237825 
L 341.367583 24.796671 
L 341.955264 28.109667 
L 342.255473 29.088836 
L 342.836669 31.383657 
L 343.132664 29.954485 
L 343.424139 29.954485 
L 343.717019 19.75353 
L 344.02082 20.355965 
L 344.311749 31.706614 
L 344.601775 31.346156 
L 344.903595 28.478249 
L 345.203139 31.386313 
L 345.493978 21.973653 
L 346.088702 27.338802 
L 346.407324 27.9333 
L 346.688991 27.622236 
L 346.983964 27.622236 
L 347.298917 26.690991 
L 347.868179 26.585034 
L 348.168143 27.396408 
L 348.464003 27.166207 
L 348.759345 25.890627 
L 349.068157 32.223206 
L 349.386946 22.982022 
L 349.684943 35.163195 
L 349.684943 35.163195 
" clip-path="url(#p3d2d10dec5)" style="fill: none; stroke: #1f77b4; stroke-width: 1.5; stroke-linecap: square"/>
   </g>
   <g id="patch_3">
    <path d="M 30.103125 228.96 
L 30.103125 7.2 
" style="fill: none; stroke: #000000; stroke-width: 0.8; stroke-linejoin: miter; stroke-linecap: square"/>
   </g>
   <g id="patch_4">
    <path d="M 364.903125 228.96 
L 364.903125 7.2 
" style="fill: none; stroke: #000000; stroke-width: 0.8; stroke-linejoin: miter; stroke-linecap: square"/>
   </g>
   <g id="patch_5">
    <path d="M 30.103125 228.96 
L 364.903125 228.96 
" style="fill: none; stroke: #000000; stroke-width: 0.8; stroke-linejoin: miter; stroke-linecap: square"/>
   </g>
   <g id="patch_6">
    <path d="M 30.103125 7.2 
L 364.903125 7.2 
" style="fill: none; stroke: #000000; stroke-width: 0.8; stroke-linejoin: miter; stroke-linecap: square"/>
   </g>
   <g id="legend_1">
    <g id="patch_7">
     <path d="M 37.103125 29.878125 
L 190.492188 29.878125 
Q 192.492188 29.878125 192.492188 27.878125 
L 192.492188 14.2 
Q 192.492188 12.2 190.492188 12.2 
L 37.103125 12.2 
Q 35.103125 12.2 35.103125 14.2 
L 35.103125 27.878125 
Q 35.103125 29.878125 37.103125 29.878125 
z
" style="fill: #ffffff; opacity: 0.8; stroke: #cccccc; stroke-linejoin: miter"/>
    </g>
    <g id="line2d_17">
     <path d="M 39.103125 20.298437 
L 49.103125 20.298437 
L 59.103125 20.298437 
" style="fill: none; stroke: #1f77b4; stroke-width: 1.5; stroke-linecap: square"/>
    </g>
    <g id="text_16">
     <!-- node storage proportion -->
     <g transform="translate(67.103125 23.798437) scale(0.1 -0.1)">
      <defs>
       <path id="DejaVuSans-6e" d="M 3513 2113 
L 3513 0 
L 2938 0 
L 2938 2094 
Q 2938 2591 2744 2837 
Q 2550 3084 2163 3084 
Q 1697 3084 1428 2787 
Q 1159 2491 1159 1978 
L 1159 0 
L 581 0 
L 581 3500 
L 1159 3500 
L 1159 2956 
Q 1366 3272 1645 3428 
Q 1925 3584 2291 3584 
Q 2894 3584 3203 3211 
Q 3513 2838 3513 2113 
z
" transform="scale(0.015625)"/>
       <path id="DejaVuSans-6f" d="M 1959 3097 
Q 1497 3097 1228 2736 
Q 959 2375 959 1747 
Q 959 1119 1226 758 
Q 1494 397 1959 397 
Q 2419 397 2687 759 
Q 2956 1122 2956 1747 
Q 2956 2369 2687 2733 
Q 2419 3097 1959 3097 
z
M 1959 3584 
Q 2709 3584 3137 3096 
Q 3566 2609 3566 1747 
Q 3566 888 3137 398 
Q 2709 -91 1959 -91 
Q 1206 -91 779 398 
Q 353 888 353 1747 
Q 353 2609 779 3096 
Q 1206 3584 1959 3584 
z
" transform="scale(0.015625)"/>
       <path id="DejaVuSans-64" d="M 2906 2969 
L 2906 4863 
L 3481 4863 
L 3481 0 
L 2906 0 
L 2906 525 
Q 2725 213 2448 61 
Q 2172 -91 1784 -91 
Q 1150 -91 751 415 
Q 353 922 353 1747 
Q 353 2572 751 3078 
Q 1150 3584 1784 3584 
Q 2172 3584 2448 3432 
Q 2725 3281 2906 2969 
z
M 947 1747 
Q 947 1113 1208 752 
Q 1469 391 1925 391 
Q 2381 391 2643 752 
Q 2906 1113 2906 1747 
Q 2906 2381 2643 2742 
Q 2381 3103 1925 3103 
Q 1469 3103 1208 2742 
Q 947 2381 947 1747 
z
" transform="scale(0.015625)"/>
       <path id="DejaVuSans-65" d="M 3597 1894 
L 3597 1613 
L 953 1613 
Q 991 1019 1311 708 
Q 1631 397 2203 397 
Q 2534 397 2845 478 
Q 3156 559 3463 722 
L 3463 178 
Q 3153 47 2828 -22 
Q 2503 -91 2169 -91 
Q 1331 -91 842 396 
Q 353 884 353 1716 
Q 353 2575 817 3079 
Q 1281 3584 2069 3584 
Q 2775 3584 3186 3129 
Q 3597 2675 3597 1894 
z
M 3022 2063 
Q 3016 2534 2758 2815 
Q 2500 3097 2075 3097 
Q 1594 3097 1305 2825 
Q 1016 2553 972 2059 
L 3022 2063 
z
" transform="scale(0.015625)"/>
       <path id="DejaVuSans-20" transform="scale(0.015625)"/>
       <path id="DejaVuSans-73" d="M 2834 3397 
L 2834 2853 
Q 2591 2978 2328 3040 
Q 2066 3103 1784 3103 
Q 1356 3103 1142 2972 
Q 928 2841 928 2578 
Q 928 2378 1081 2264 
Q 1234 2150 1697 2047 
L 1894 2003 
Q 2506 1872 2764 1633 
Q 3022 1394 3022 966 
Q 3022 478 2636 193 
Q 2250 -91 1575 -91 
Q 1294 -91 989 -36 
Q 684 19 347 128 
L 347 722 
Q 666 556 975 473 
Q 1284 391 1588 391 
Q 1994 391 2212 530 
Q 2431 669 2431 922 
Q 2431 1156 2273 1281 
Q 2116 1406 1581 1522 
L 1381 1569 
Q 847 1681 609 1914 
Q 372 2147 372 2553 
Q 372 3047 722 3315 
Q 1072 3584 1716 3584 
Q 2034 3584 2315 3537 
Q 2597 3491 2834 3397 
z
" transform="scale(0.015625)"/>
       <path id="DejaVuSans-74" d="M 1172 4494 
L 1172 3500 
L 2356 3500 
L 2356 3053 
L 1172 3053 
L 1172 1153 
Q 1172 725 1289 603 
Q 1406 481 1766 481 
L 2356 481 
L 2356 0 
L 1766 0 
Q 1100 0 847 248 
Q 594 497 594 1153 
L 594 3053 
L 172 3053 
L 172 3500 
L 594 3500 
L 594 4494 
L 1172 4494 
z
" transform="scale(0.015625)"/>
       <path id="DejaVuSans-72" d="M 2631 2963 
Q 2534 3019 2420 3045 
Q 2306 3072 2169 3072 
Q 1681 3072 1420 2755 
Q 1159 2438 1159 1844 
L 1159 0 
L 581 0 
L 581 3500 
L 1159 3500 
L 1159 2956 
Q 1341 3275 1631 3429 
Q 1922 3584 2338 3584 
Q 2397 3584 2469 3576 
Q 2541 3569 2628 3553 
L 2631 2963 
z
" transform="scale(0.015625)"/>
       <path id="DejaVuSans-61" d="M 2194 1759 
Q 1497 1759 1228 1600 
Q 959 1441 959 1056 
Q 959 750 1161 570 
Q 1363 391 1709 391 
Q 2188 391 2477 730 
Q 2766 1069 2766 1631 
L 2766 1759 
L 2194 1759 
z
M 3341 1997 
L 3341 0 
L 2766 0 
L 2766 531 
Q 2569 213 2275 61 
Q 1981 -91 1556 -91 
Q 1019 -91 701 211 
Q 384 513 384 1019 
Q 384 1609 779 1909 
Q 1175 2209 1959 2209 
L 2766 2209 
L 2766 2266 
Q 2766 2663 2505 2880 
Q 2244 3097 1772 3097 
Q 1472 3097 1187 3025 
Q 903 2953 641 2809 
L 641 3341 
Q 956 3463 1253 3523 
Q 1550 3584 1831 3584 
Q 2591 3584 2966 3190 
Q 3341 2797 3341 1997 
z
" transform="scale(0.015625)"/>
       <path id="DejaVuSans-67" d="M 2906 1791 
Q 2906 2416 2648 2759 
Q 2391 3103 1925 3103 
Q 1463 3103 1205 2759 
Q 947 2416 947 1791 
Q 947 1169 1205 825 
Q 1463 481 1925 481 
Q 2391 481 2648 825 
Q 2906 1169 2906 1791 
z
M 3481 434 
Q 3481 -459 3084 -895 
Q 2688 -1331 1869 -1331 
Q 1566 -1331 1297 -1286 
Q 1028 -1241 775 -1147 
L 775 -588 
Q 1028 -725 1275 -790 
Q 1522 -856 1778 -856 
Q 2344 -856 2625 -561 
Q 2906 -266 2906 331 
L 2906 616 
Q 2728 306 2450 153 
Q 2172 0 1784 0 
Q 1141 0 747 490 
Q 353 981 353 1791 
Q 353 2603 747 3093 
Q 1141 3584 1784 3584 
Q 2172 3584 2450 3431 
Q 2728 3278 2906 2969 
L 2906 3500 
L 3481 3500 
L 3481 434 
z
" transform="scale(0.015625)"/>
       <path id="DejaVuSans-70" d="M 1159 525 
L 1159 -1331 
L 581 -1331 
L 581 3500 
L 1159 3500 
L 1159 2969 
Q 1341 3281 1617 3432 
Q 1894 3584 2278 3584 
Q 2916 3584 3314 3078 
Q 3713 2572 3713 1747 
Q 3713 922 3314 415 
Q 2916 -91 2278 -91 
Q 1894 -91 1617 61 
Q 1341 213 1159 525 
z
M 3116 1747 
Q 3116 2381 2855 2742 
Q 2594 3103 2138 3103 
Q 1681 3103 1420 2742 
Q 1159 2381 1159 1747 
Q 1159 1113 1420 752 
Q 1681 391 2138 391 
Q 2594 391 2855 752 
Q 3116 1113 3116 1747 
z
" transform="scale(0.015625)"/>
       <path id="DejaVuSans-69" d="M 603 3500 
L 1178 3500 
L 1178 0 
L 603 0 
L 603 3500 
z
M 603 4863 
L 1178 4863 
L 1178 4134 
L 603 4134 
L 603 4863 
z
" transform="scale(0.015625)"/>
      </defs>
      <use xlink:href="#DejaVuSans-6e"/>
      <use xlink:href="#DejaVuSans-6f" x="63.378906"/>
      <use xlink:href="#DejaVuSans-64" x="124.560547"/>
      <use xlink:href="#DejaVuSans-65" x="188.037109"/>
      <use xlink:href="#DejaVuSans-20" x="249.560547"/>
      <use xlink:href="#DejaVuSans-73" x="281.347656"/>
      <use xlink:href="#DejaVuSans-74" x="333.447266"/>
      <use xlink:href="#DejaVuSans-6f" x="372.65625"/>
      <use xlink:href="#DejaVuSans-72" x="433.837891"/>
      <use xlink:href="#DejaVuSans-61" x="474.951172"/>
      <use xlink:href="#DejaVuSans-67" x="536.230469"/>
      <use xlink:href="#DejaVuSans-65" x="599.707031"/>
      <use xlink:href="#DejaVuSans-20" x="661.230469"/>
      <use xlink:href="#DejaVuSans-70" x="693.017578"/>
      <use xlink:href="#DejaVuSans-72" x="756.494141"/>
      <use xlink:href="#DejaVuSans-6f" x="795.357422"/>
      <use xlink:href="#DejaVuSans-70" x="856.539062"/>
      <use xlink:href="#DejaVuSans-6f" x="920.015625"/>
      <use xlink:href="#DejaVuSans-72" x="981.197266"/>
      <use xlink:href="#DejaVuSans-74" x="1022.310547"/>
      <use xlink:href="#DejaVuSans-69" x="1061.519531"/>
      <use xlink:href="#DejaVuSans-6f" x="1089.302734"/>
      <use xlink:href="#DejaVuSans-6e" x="1150.484375"/>
     </g>
    </g>
   </g>
  </g>
 </g>
 <defs>
  <clipPath id="p3d2d10dec5">
   <rect x="30.103125" y="7.2" width="334.8" height="221.76"/>
  </clipPath>
 </defs>
</svg>
