<?xml version="1.0" encoding="utf-8" standalone="no"?>
<!DOCTYPE svg PUBLIC "-//W3C//DTD SVG 1.1//EN"
  "http://www.w3.org/Graphics/SVG/1.1/DTD/svg11.dtd">
<svg xmlns:xlink="http://www.w3.org/1999/xlink" width="368.925pt" height="252.838125pt" viewBox="0 0 368.925 252.838125" xmlns="http://www.w3.org/2000/svg" version="1.1">
 <metadata>
  <rdf:RDF xmlns:dc="http://purl.org/dc/elements/1.1/" xmlns:cc="http://creativecommons.org/ns#" xmlns:rdf="http://www.w3.org/1999/02/22-rdf-syntax-ns#">
   <cc:Work>
    <dc:type rdf:resource="http://purl.org/dc/dcmitype/StillImage"/>
    <dc:date>2023-04-19T15:36:51.032579</dc:date>
    <dc:format>image/svg+xml</dc:format>
    <dc:creator>
     <cc:Agent>
      <dc:title>Matplotlib v3.6.2, https://matplotlib.org/</dc:title>
     </cc:Agent>
    </dc:creator>
   </cc:Work>
  </rdf:RDF>
 </metadata>
 <defs>
  <style type="text/css">*{stroke-linejoin: round; stroke-linecap: butt}</style>
 </defs>
 <g id="figure_1">
  <g id="patch_1">
   <path d="M -0 252.838125 
L 368.925 252.838125 
L 368.925 0 
L -0 0 
z
" style="fill: #ffffff"/>
  </g>
  <g id="axes_1">
   <g id="patch_2">
    <path d="M 26.925 228.96 
L 361.725 228.96 
L 361.725 7.2 
L 26.925 7.2 
z
" style="fill: #ffffff"/>
   </g>
   <g id="matplotlib.axis_1">
    <g id="xtick_1">
     <g id="line2d_1">
      <defs>
       <path id="mbb84e226fe" d="M 0 0 
L 0 3.5 
" style="stroke: #000000; stroke-width: 0.8"/>
      </defs>
      <g>
       <use xlink:href="#mbb84e226fe" x="40.447035" y="228.96" style="stroke: #000000; stroke-width: 0.8"/>
      </g>
     </g>
     <g id="text_1">
      <!-- 0 -->
      <g transform="translate(37.265785 243.558438) scale(0.1 -0.1)">
       <defs>
        <path id="DejaVuSans-30" d="M 2034 4250 
Q 1547 4250 1301 3770 
Q 1056 3291 1056 2328 
Q 1056 1369 1301 889 
Q 1547 409 2034 409 
Q 2525 409 2770 889 
Q 3016 1369 3016 2328 
Q 3016 3291 2770 3770 
Q 2525 4250 2034 4250 
z
M 2034 4750 
Q 2819 4750 3233 4129 
Q 3647 3509 3647 2328 
Q 3647 1150 3233 529 
Q 2819 -91 2034 -91 
Q 1250 -91 836 529 
Q 422 1150 422 2328 
Q 422 3509 836 4129 
Q 1250 4750 2034 4750 
z
" transform="scale(0.015625)"/>
       </defs>
       <use xlink:href="#DejaVuSans-30"/>
      </g>
     </g>
    </g>
    <g id="xtick_2">
     <g id="line2d_2">
      <g>
       <use xlink:href="#mbb84e226fe" x="111.778642" y="228.96" style="stroke: #000000; stroke-width: 0.8"/>
      </g>
     </g>
     <g id="text_2">
      <!-- 50 -->
      <g transform="translate(105.416142 243.558438) scale(0.1 -0.1)">
       <defs>
        <path id="DejaVuSans-35" d="M 691 4666 
L 3169 4666 
L 3169 4134 
L 1269 4134 
L 1269 2991 
Q 1406 3038 1543 3061 
Q 1681 3084 1819 3084 
Q 2600 3084 3056 2656 
Q 3513 2228 3513 1497 
Q 3513 744 3044 326 
Q 2575 -91 1722 -91 
Q 1428 -91 1123 -41 
Q 819 9 494 109 
L 494 744 
Q 775 591 1075 516 
Q 1375 441 1709 441 
Q 2250 441 2565 725 
Q 2881 1009 2881 1497 
Q 2881 1984 2565 2268 
Q 2250 2553 1709 2553 
Q 1456 2553 1204 2497 
Q 953 2441 691 2322 
L 691 4666 
z
" transform="scale(0.015625)"/>
       </defs>
       <use xlink:href="#DejaVuSans-35"/>
       <use xlink:href="#DejaVuSans-30" x="63.623047"/>
      </g>
     </g>
    </g>
    <g id="xtick_3">
     <g id="line2d_3">
      <g>
       <use xlink:href="#mbb84e226fe" x="183.110249" y="228.96" style="stroke: #000000; stroke-width: 0.8"/>
      </g>
     </g>
     <g id="text_3">
      <!-- 100 -->
      <g transform="translate(173.566499 243.558438) scale(0.1 -0.1)">
       <defs>
        <path id="DejaVuSans-31" d="M 794 531 
L 1825 531 
L 1825 4091 
L 703 3866 
L 703 4441 
L 1819 4666 
L 2450 4666 
L 2450 531 
L 3481 531 
L 3481 0 
L 794 0 
L 794 531 
z
" transform="scale(0.015625)"/>
       </defs>
       <use xlink:href="#DejaVuSans-31"/>
       <use xlink:href="#DejaVuSans-30" x="63.623047"/>
       <use xlink:href="#DejaVuSans-30" x="127.246094"/>
      </g>
     </g>
    </g>
    <g id="xtick_4">
     <g id="line2d_4">
      <g>
       <use xlink:href="#mbb84e226fe" x="254.441856" y="228.96" style="stroke: #000000; stroke-width: 0.8"/>
      </g>
     </g>
     <g id="text_4">
      <!-- 150 -->
      <g transform="translate(244.898106 243.558438) scale(0.1 -0.1)">
       <use xlink:href="#DejaVuSans-31"/>
       <use xlink:href="#DejaVuSans-35" x="63.623047"/>
       <use xlink:href="#DejaVuSans-30" x="127.246094"/>
      </g>
     </g>
    </g>
    <g id="xtick_5">
     <g id="line2d_5">
      <g>
       <use xlink:href="#mbb84e226fe" x="325.773462" y="228.96" style="stroke: #000000; stroke-width: 0.8"/>
      </g>
     </g>
     <g id="text_5">
      <!-- 200 -->
      <g transform="translate(316.229712 243.558438) scale(0.1 -0.1)">
       <defs>
        <path id="DejaVuSans-32" d="M 1228 531 
L 3431 531 
L 3431 0 
L 469 0 
L 469 531 
Q 828 903 1448 1529 
Q 2069 2156 2228 2338 
Q 2531 2678 2651 2914 
Q 2772 3150 2772 3378 
Q 2772 3750 2511 3984 
Q 2250 4219 1831 4219 
Q 1534 4219 1204 4116 
Q 875 4013 500 3803 
L 500 4441 
Q 881 4594 1212 4672 
Q 1544 4750 1819 4750 
Q 2544 4750 2975 4387 
Q 3406 4025 3406 3419 
Q 3406 3131 3298 2873 
Q 3191 2616 2906 2266 
Q 2828 2175 2409 1742 
Q 1991 1309 1228 531 
z
" transform="scale(0.015625)"/>
       </defs>
       <use xlink:href="#DejaVuSans-32"/>
       <use xlink:href="#DejaVuSans-30" x="63.623047"/>
       <use xlink:href="#DejaVuSans-30" x="127.246094"/>
      </g>
     </g>
    </g>
   </g>
   <g id="matplotlib.axis_2">
    <g id="ytick_1">
     <g id="line2d_6">
      <defs>
       <path id="m1839f9d389" d="M 0 0 
L -3.5 0 
" style="stroke: #000000; stroke-width: 0.8"/>
      </defs>
      <g>
       <use xlink:href="#m1839f9d389" x="26.925" y="215.543336" style="stroke: #000000; stroke-width: 0.8"/>
      </g>
     </g>
     <g id="text_6">
      <!-- 60 -->
      <g transform="translate(7.2 219.342554) scale(0.1 -0.1)">
       <defs>
        <path id="DejaVuSans-36" d="M 2113 2584 
Q 1688 2584 1439 2293 
Q 1191 2003 1191 1497 
Q 1191 994 1439 701 
Q 1688 409 2113 409 
Q 2538 409 2786 701 
Q 3034 994 3034 1497 
Q 3034 2003 2786 2293 
Q 2538 2584 2113 2584 
z
M 3366 4563 
L 3366 3988 
Q 3128 4100 2886 4159 
Q 2644 4219 2406 4219 
Q 1781 4219 1451 3797 
Q 1122 3375 1075 2522 
Q 1259 2794 1537 2939 
Q 1816 3084 2150 3084 
Q 2853 3084 3261 2657 
Q 3669 2231 3669 1497 
Q 3669 778 3244 343 
Q 2819 -91 2113 -91 
Q 1303 -91 875 529 
Q 447 1150 447 2328 
Q 447 3434 972 4092 
Q 1497 4750 2381 4750 
Q 2619 4750 2861 4703 
Q 3103 4656 3366 4563 
z
" transform="scale(0.015625)"/>
       </defs>
       <use xlink:href="#DejaVuSans-36"/>
       <use xlink:href="#DejaVuSans-30" x="63.623047"/>
      </g>
     </g>
    </g>
    <g id="ytick_2">
     <g id="line2d_7">
      <g>
       <use xlink:href="#m1839f9d389" x="26.925" y="180.351035" style="stroke: #000000; stroke-width: 0.8"/>
      </g>
     </g>
     <g id="text_7">
      <!-- 65 -->
      <g transform="translate(7.2 184.150253) scale(0.1 -0.1)">
       <use xlink:href="#DejaVuSans-36"/>
       <use xlink:href="#DejaVuSans-35" x="63.623047"/>
      </g>
     </g>
    </g>
    <g id="ytick_3">
     <g id="line2d_8">
      <g>
       <use xlink:href="#m1839f9d389" x="26.925" y="145.158734" style="stroke: #000000; stroke-width: 0.8"/>
      </g>
     </g>
     <g id="text_8">
      <!-- 70 -->
      <g transform="translate(7.2 148.957952) scale(0.1 -0.1)">
       <defs>
        <path id="DejaVuSans-37" d="M 525 4666 
L 3525 4666 
L 3525 4397 
L 1831 0 
L 1172 0 
L 2766 4134 
L 525 4134 
L 525 4666 
z
" transform="scale(0.015625)"/>
       </defs>
       <use xlink:href="#DejaVuSans-37"/>
       <use xlink:href="#DejaVuSans-30" x="63.623047"/>
      </g>
     </g>
    </g>
    <g id="ytick_4">
     <g id="line2d_9">
      <g>
       <use xlink:href="#m1839f9d389" x="26.925" y="109.966433" style="stroke: #000000; stroke-width: 0.8"/>
      </g>
     </g>
     <g id="text_9">
      <!-- 75 -->
      <g transform="translate(7.2 113.765651) scale(0.1 -0.1)">
       <use xlink:href="#DejaVuSans-37"/>
       <use xlink:href="#DejaVuSans-35" x="63.623047"/>
      </g>
     </g>
    </g>
    <g id="ytick_5">
     <g id="line2d_10">
      <g>
       <use xlink:href="#m1839f9d389" x="26.925" y="74.774132" style="stroke: #000000; stroke-width: 0.8"/>
      </g>
     </g>
     <g id="text_10">
      <!-- 80 -->
      <g transform="translate(7.2 78.573351) scale(0.1 -0.1)">
       <defs>
        <path id="DejaVuSans-38" d="M 2034 2216 
Q 1584 2216 1326 1975 
Q 1069 1734 1069 1313 
Q 1069 891 1326 650 
Q 1584 409 2034 409 
Q 2484 409 2743 651 
Q 3003 894 3003 1313 
Q 3003 1734 2745 1975 
Q 2488 2216 2034 2216 
z
M 1403 2484 
Q 997 2584 770 2862 
Q 544 3141 544 3541 
Q 544 4100 942 4425 
Q 1341 4750 2034 4750 
Q 2731 4750 3128 4425 
Q 3525 4100 3525 3541 
Q 3525 3141 3298 2862 
Q 3072 2584 2669 2484 
Q 3125 2378 3379 2068 
Q 3634 1759 3634 1313 
Q 3634 634 3220 271 
Q 2806 -91 2034 -91 
Q 1263 -91 848 271 
Q 434 634 434 1313 
Q 434 1759 690 2068 
Q 947 2378 1403 2484 
z
M 1172 3481 
Q 1172 3119 1398 2916 
Q 1625 2713 2034 2713 
Q 2441 2713 2670 2916 
Q 2900 3119 2900 3481 
Q 2900 3844 2670 4047 
Q 2441 4250 2034 4250 
Q 1625 4250 1398 4047 
Q 1172 3844 1172 3481 
z
" transform="scale(0.015625)"/>
       </defs>
       <use xlink:href="#DejaVuSans-38"/>
       <use xlink:href="#DejaVuSans-30" x="63.623047"/>
      </g>
     </g>
    </g>
    <g id="ytick_6">
     <g id="line2d_11">
      <g>
       <use xlink:href="#m1839f9d389" x="26.925" y="39.581831" style="stroke: #000000; stroke-width: 0.8"/>
      </g>
     </g>
     <g id="text_11">
      <!-- 85 -->
      <g transform="translate(7.2 43.38105) scale(0.1 -0.1)">
       <use xlink:href="#DejaVuSans-38"/>
       <use xlink:href="#DejaVuSans-35" x="63.623047"/>
      </g>
     </g>
    </g>
   </g>
   <g id="line2d_12">
    <path d="M 42.143182 28.625332 
L 42.449756 28.625332 
L 43.365412 22.837612 
L 43.670116 25.929763 
L 43.975838 26.058972 
L 44.280682 25.191727 
L 44.589784 24.845121 
L 44.895261 24.845121 
L 45.20404 28.111199 
L 45.512556 27.749922 
L 45.821366 29.308375 
L 46.12823 27.617977 
L 46.432376 21.712088 
L 46.743246 29.62561 
L 47.051728 25.133968 
L 47.363094 27.706078 
L 47.674484 27.080001 
L 48.598959 32.026949 
L 48.906942 27.803413 
L 49.216226 29.355469 
L 49.525324 25.393116 
L 49.842627 29.577278 
L 50.153935 22.414769 
L 50.470261 26.814779 
L 50.785435 25.058001 
L 51.09684 17.28 
L 51.401555 17.28 
L 51.704135 18.918166 
L 52.343008 23.225613 
L 52.648493 29.975284 
L 52.956383 29.975284 
L 53.262558 21.41268 
L 53.573183 21.41268 
L 53.881799 28.085473 
L 54.187181 29.785245 
L 54.494791 30.17784 
L 54.802591 33.988049 
L 55.415149 32.159101 
L 55.720813 31.682286 
L 56.029151 33.820705 
L 56.336832 38.572927 
L 56.646388 36.474806 
L 56.956915 38.276373 
L 57.258717 33.375234 
L 57.564404 38.188144 
L 57.873352 34.641195 
L 58.176913 35.176374 
L 58.481455 34.655801 
L 58.785904 33.203053 
L 59.394996 33.203053 
L 59.701956 33.45321 
L 60.011688 34.91971 
L 60.625385 34.91971 
L 60.933478 35.063748 
L 61.239217 36.752537 
L 61.544443 33.917823 
L 62.163531 41.631133 
L 62.467665 34.86486 
L 62.775823 34.668064 
L 63.081679 34.668064 
L 63.385941 34.537431 
L 63.691708 41.972559 
L 64.003178 41.972559 
L 64.316486 40.469825 
L 64.623205 43.201078 
L 65.238319 37.964845 
L 65.547513 40.354941 
L 65.855055 39.62925 
L 66.219412 42.961018 
L 66.580217 47.647149 
L 66.901979 45.303479 
L 67.211656 46.951742 
L 67.517657 47.711077 
L 67.828382 47.211673 
L 68.131974 48.941751 
L 68.439779 48.941751 
L 68.750169 51.866194 
L 69.057536 51.866194 
L 69.362457 48.630677 
L 69.665374 48.090961 
L 69.972995 49.661786 
L 70.284499 48.354034 
L 70.59015 51.219298 
L 71.198903 51.219298 
L 71.512125 47.044099 
L 71.868248 48.381347 
L 72.200981 48.381347 
L 72.524911 49.455503 
L 73.14263 46.954788 
L 73.453773 47.294957 
L 73.764543 44.595443 
L 74.387814 51.897343 
L 74.69468 48.98451 
L 75.003853 51.190658 
L 75.310737 51.211771 
L 75.621308 48.38058 
L 75.927145 52.797166 
L 76.235709 52.523504 
L 76.542702 49.030759 
L 76.853117 48.937016 
L 77.162724 55.473502 
L 77.781319 51.87124 
L 78.088247 52.121373 
L 78.399093 54.560653 
L 78.704588 50.695636 
L 79.0119 50.725962 
L 79.31677 57.447412 
L 79.630874 52.606383 
L 79.939071 51.853673 
L 80.252073 54.686759 
L 80.567046 54.686759 
L 80.872471 59.332802 
L 81.187189 60.247163 
L 81.501817 57.77451 
L 81.809901 56.926616 
L 82.120505 57.609347 
L 82.429534 53.718887 
L 82.735565 58.321174 
L 83.046672 54.808512 
L 83.357162 57.517242 
L 83.665142 57.54403 
L 83.98052 57.78998 
L 84.286721 56.903359 
L 84.598955 61.788054 
L 84.904972 61.788054 
L 85.209835 65.00399 
L 85.529276 63.528535 
L 85.842094 65.609062 
L 86.144884 63.61861 
L 86.452468 66.241975 
L 86.763357 64.581414 
L 87.082035 69.738651 
L 87.397628 68.704721 
L 87.707072 66.457561 
L 88.019443 65.826743 
L 88.326549 67.104154 
L 88.637557 65.62301 
L 88.95063 66.148482 
L 89.270672 64.569239 
L 89.581452 65.840784 
L 89.897343 66.309541 
L 90.212822 70.261042 
L 90.525773 70.261042 
L 90.838121 63.919145 
L 91.147746 64.435005 
L 91.459254 67.080931 
L 91.768905 66.508037 
L 92.077254 67.04976 
L 92.385723 68.215026 
L 92.694633 65.955744 
L 93.002185 68.889586 
L 93.622055 72.059355 
L 93.935304 68.165286 
L 94.557335 71.54365 
L 94.87159 73.17374 
L 95.179889 71.020843 
L 95.49104 72.750922 
L 95.80225 78.520431 
L 96.112863 81.052283 
L 96.427483 81.052283 
L 96.735018 77.084027 
L 97.043236 74.696534 
L 97.355111 74.251127 
L 97.669789 74.251127 
L 97.980388 72.773636 
L 98.290438 72.910349 
L 98.598558 76.757057 
L 98.907305 77.169523 
L 99.220465 76.777088 
L 99.531628 76.855941 
L 99.847326 76.726882 
L 100.162873 79.338982 
L 100.470349 78.764459 
L 100.783586 77.78672 
L 101.093563 77.628581 
L 101.409173 77.74166 
L 101.720745 79.095314 
L 102.033855 79.526602 
L 102.358922 85.364497 
L 102.679553 85.364497 
L 102.985665 85.041407 
L 103.297446 84.252048 
L 103.917821 84.252048 
L 104.226517 84.553098 
L 104.535569 84.032037 
L 104.848346 82.949701 
L 105.157964 84.265176 
L 105.471787 84.265176 
L 105.78379 85.997039 
L 106.085011 84.086234 
L 106.392252 80.032209 
L 106.714623 79.244254 
L 107.337434 81.297553 
L 107.651463 83.513468 
L 107.962663 84.094424 
L 108.270527 84.366988 
L 108.58097 82.521274 
L 108.891339 83.05621 
L 109.199388 83.892839 
L 109.503853 83.203701 
L 109.809655 81.330912 
L 110.119273 81.330912 
L 110.427281 81.875047 
L 110.734454 84.441946 
L 111.034677 84.210882 
L 111.338246 84.574243 
L 111.648466 84.574243 
L 111.959922 85.735094 
L 112.57652 86.196582 
L 112.887993 84.896124 
L 113.197738 88.167554 
L 113.50819 88.167554 
L 113.821141 83.073632 
L 114.132402 83.972146 
L 114.450622 85.304091 
L 114.762935 85.304091 
L 115.072788 89.753575 
L 115.3847 90.840632 
L 115.69543 86.698782 
L 116.000026 88.940111 
L 116.307164 86.88237 
L 116.615785 87.521662 
L 116.930107 91.225803 
L 117.24217 91.709169 
L 117.864454 90.224868 
L 118.169729 89.762036 
L 118.475736 91.551305 
L 118.779703 86.739537 
L 119.088747 91.430393 
L 119.398629 86.738838 
L 120.327151 89.572375 
L 120.636124 90.154246 
L 120.944308 89.460633 
L 121.565997 91.242145 
L 121.875324 88.707134 
L 122.18692 91.980712 
L 122.495937 86.960045 
L 122.808237 87.78987 
L 123.115943 89.808791 
L 123.431044 90.663153 
L 123.737933 90.884712 
L 124.048266 89.854213 
L 124.351801 93.390404 
L 124.66316 93.62337 
L 124.973964 95.744562 
L 125.283528 88.455975 
L 125.598425 88.065973 
L 125.907226 94.593145 
L 126.216277 91.925751 
L 126.527926 92.817359 
L 126.840003 92.622308 
L 127.151066 94.06405 
L 127.767604 94.099418 
L 128.393903 96.615008 
L 129.02036 96.848997 
L 129.329175 98.815274 
L 129.636756 98.815274 
L 129.946041 99.836798 
L 130.252964 99.204365 
L 130.56143 101.105209 
L 130.869439 100.759267 
L 131.175032 102.340026 
L 131.482353 102.340026 
L 131.785805 101.640604 
L 132.090309 97.879599 
L 132.393175 102.489513 
L 132.703511 101.434251 
L 133.011058 102.161155 
L 133.32072 100.882834 
L 133.623876 102.376495 
L 133.929352 102.847705 
L 134.244193 101.67032 
L 134.550291 101.67032 
L 134.854536 100.804598 
L 135.162215 100.668972 
L 135.473569 103.591005 
L 135.778494 98.388918 
L 136.08452 101.926331 
L 136.390858 102.339181 
L 136.697244 105.71779 
L 137.004283 104.316843 
L 137.30897 103.47505 
L 137.614216 103.079053 
L 137.918741 102.918641 
L 138.222379 104.621079 
L 138.834556 104.606102 
L 139.144901 104.36306 
L 139.449807 104.806817 
L 139.751436 101.865573 
L 140.058104 104.325829 
L 140.666727 105.790166 
L 140.966873 105.790166 
L 141.57676 106.640462 
L 141.885861 104.445161 
L 142.192637 104.861856 
L 142.499108 105.016136 
L 142.802961 107.616579 
L 143.10796 101.503878 
L 143.417206 109.070157 
L 143.723456 108.908301 
L 144.028093 106.576815 
L 144.333887 106.576815 
L 144.945952 109.605856 
L 145.256652 109.645113 
L 145.558228 108.777528 
L 145.865082 107.46563 
L 146.168543 107.46563 
L 146.474235 105.190207 
L 147.076536 106.805354 
L 147.381 106.071526 
L 147.685246 104.448256 
L 147.988197 109.170209 
L 148.293286 108.936217 
L 148.595115 108.936217 
L 148.899001 108.181179 
L 149.198468 109.879798 
L 149.50239 115.385645 
L 149.80306 112.691988 
L 150.103845 114.829493 
L 150.402787 118.874055 
L 150.706957 116.110656 
L 151.006647 117.561919 
L 151.306997 117.802966 
L 151.609873 117.846061 
L 151.911527 116.101094 
L 152.212547 116.357843 
L 152.514689 116.357843 
L 152.814913 118.146684 
L 153.12008 114.671541 
L 153.421972 117.967467 
L 153.726247 118.622926 
L 154.030609 120.093502 
L 154.339289 117.032746 
L 154.643215 112.844249 
L 154.948282 118.389749 
L 155.243731 118.096322 
L 155.54734 118.096322 
L 155.8493 114.691173 
L 156.149417 120.182353 
L 156.449438 120.219886 
L 156.750512 117.419124 
L 157.05766 119.444299 
L 157.36043 117.991661 
L 157.669711 121.579065 
L 157.975318 122.302347 
L 158.276697 122.440914 
L 158.578785 119.580658 
L 158.881977 120.666193 
L 159.185365 116.516815 
L 159.488158 118.609775 
L 159.801614 119.952597 
L 160.112697 119.952597 
L 160.416105 117.556647 
L 160.721548 119.049842 
L 161.330489 120.573488 
L 161.638406 120.376844 
L 161.94056 121.529078 
L 162.244371 123.560141 
L 162.546072 123.560141 
L 162.851769 121.790741 
L 163.155345 125.087259 
L 163.457538 124.399222 
L 163.76116 117.309616 
L 164.063114 117.442347 
L 164.366683 119.182032 
L 164.66749 118.460876 
L 164.967506 122.771817 
L 165.273453 122.615034 
L 165.578001 121.385766 
L 165.881153 121.792717 
L 166.184809 122.793695 
L 166.484103 124.197095 
L 166.793354 124.146578 
L 167.09918 125.571839 
L 167.401536 130.346261 
L 167.706011 129.552334 
L 168.007786 127.129932 
L 168.318656 127.129932 
L 168.652586 127.958492 
L 168.957096 125.610644 
L 169.265468 125.594633 
L 169.563224 123.413491 
L 170.162584 125.430453 
L 170.467216 124.939492 
L 170.770518 125.310905 
L 171.075466 125.218063 
L 171.383883 126.574933 
L 171.685793 126.404022 
L 171.989615 127.372012 
L 172.293789 124.06921 
L 172.597182 124.69534 
L 172.903957 128.386505 
L 173.211906 124.889392 
L 174.727792 133.506688 
L 175.336182 136.947093 
L 175.946405 134.478243 
L 176.247654 132.718303 
L 176.550438 130.129963 
L 176.854272 130.244877 
L 177.153454 128.652455 
L 177.453087 134.738418 
L 177.756219 133.625586 
L 178.06241 133.587835 
L 178.366475 134.146577 
L 178.668588 134.293004 
L 178.965735 137.337674 
L 179.265905 136.238513 
L 179.56539 136.180707 
L 179.869452 137.426158 
L 180.169302 133.279493 
L 180.468314 131.843954 
L 180.767252 133.924333 
L 181.068137 133.924333 
L 181.373612 134.965704 
L 181.671272 133.267759 
L 181.971773 136.517099 
L 182.272827 137.641732 
L 182.574084 135.717585 
L 182.875756 136.95408 
L 183.17725 136.95408 
L 183.477658 137.325813 
L 184.077232 139.974212 
L 184.381299 138.940922 
L 184.680319 136.430577 
L 184.981332 135.607416 
L 185.283641 134.446742 
L 185.584849 135.642431 
L 185.888068 134.147692 
L 186.194604 135.18437 
L 186.492414 134.532629 
L 186.794714 135.368171 
L 187.394074 139.24138 
L 187.699545 136.062015 
L 187.996619 136.350234 
L 188.299443 136.864516 
L 188.601283 138.433461 
L 188.908629 138.883557 
L 189.211831 140.312753 
L 189.51443 139.282651 
L 189.819926 139.282651 
L 190.124821 139.532104 
L 190.733713 139.532104 
L 191.032091 139.404787 
L 191.329273 142.321362 
L 191.627135 143.535504 
L 191.927156 143.749934 
L 192.229237 143.749934 
L 192.526254 144.044333 
L 192.825987 144.12145 
L 193.125247 144.463796 
L 193.425623 140.3578 
L 194.025229 143.680279 
L 194.325653 140.886645 
L 194.628313 143.850431 
L 194.928767 143.850431 
L 195.23375 142.052192 
L 195.532996 142.052192 
L 195.834101 143.315 
L 196.13552 143.315 
L 196.4325 143.692185 
L 196.729477 143.692185 
L 197.029721 144.339304 
L 197.329736 143.193436 
L 197.630373 143.888063 
L 197.93219 143.073197 
L 198.233462 144.911422 
L 198.529955 141.022403 
L 198.828398 141.412711 
L 199.422664 139.66527 
L 199.725335 139.910109 
L 200.024851 143.950077 
L 200.626869 145.923116 
L 200.92457 145.923116 
L 201.223671 148.415504 
L 201.523309 148.338054 
L 201.82215 140.088097 
L 202.12427 143.090717 
L 202.424784 143.090717 
L 202.730452 144.07785 
L 203.031849 142.837921 
L 203.331658 142.837921 
L 203.632557 146.174575 
L 203.931489 146.56727 
L 204.230602 147.88723 
L 204.530415 147.88723 
L 204.830473 147.149146 
L 205.139691 145.306681 
L 205.440637 144.435951 
L 206.048521 144.429832 
L 206.34804 147.453725 
L 206.645278 146.875232 
L 206.950905 146.733535 
L 207.251958 145.686896 
L 207.550744 145.686896 
L 207.853387 143.148334 
L 208.153966 145.052109 
L 208.451659 143.99749 
L 208.754001 141.093052 
L 209.348667 146.947835 
L 209.654883 147.605284 
L 209.956133 148.703538 
L 210.868531 144.927194 
L 211.16881 145.471468 
L 211.470872 147.188134 
L 212.072861 147.145522 
L 212.371401 146.941078 
L 212.670566 145.8283 
L 212.972258 146.779647 
L 213.570044 145.843738 
L 213.869964 146.486087 
L 214.173829 147.525104 
L 214.475756 147.297986 
L 214.777276 149.307424 
L 215.078351 149.307424 
L 215.379855 146.407284 
L 215.680999 146.940799 
L 215.982469 145.843057 
L 216.288402 145.843057 
L 216.889366 147.604618 
L 217.192621 149.733729 
L 217.495067 146.302298 
L 217.795453 146.62875 
L 218.096319 146.406396 
L 218.398091 146.406396 
L 218.703188 145.830302 
L 219.002333 145.830302 
L 219.303189 144.465533 
L 219.604259 144.465533 
L 219.903635 145.892739 
L 220.503053 145.786679 
L 220.802683 145.74307 
L 221.105624 148.661226 
L 221.407614 148.640421 
L 221.706513 147.558118 
L 222.003781 147.689258 
L 222.30754 147.015866 
L 222.610211 149.330719 
L 222.907688 149.178696 
L 223.209291 149.59002 
L 223.510513 149.59002 
L 223.808951 147.487018 
L 224.110517 147.888787 
L 224.411162 146.564161 
L 224.71184 148.182137 
L 225.011517 150.439523 
L 225.615597 146.396307 
L 225.916929 146.781197 
L 226.223766 146.743508 
L 226.522051 150.714556 
L 226.822059 147.665884 
L 227.12306 146.922529 
L 227.423475 150.085693 
L 227.726148 149.378872 
L 228.027826 152.64958 
L 228.328129 150.906915 
L 228.631395 150.286721 
L 228.932102 150.550095 
L 229.230278 152.523388 
L 229.526728 152.738669 
L 229.826239 153.402992 
L 230.130828 153.402992 
L 230.429067 153.034618 
L 231.031927 146.376973 
L 231.331719 149.017718 
L 231.633952 153.860252 
L 231.930725 155.330908 
L 232.233006 153.312722 
L 232.530142 153.312722 
L 232.826507 150.784739 
L 233.132004 151.402646 
L 233.433484 151.557951 
L 233.735067 151.248501 
L 234.336889 151.273764 
L 234.635472 152.624582 
L 234.9312 155.886501 
L 235.231121 156.345341 
L 235.832531 156.393544 
L 236.435759 156.585482 
L 236.733918 154.294736 
L 237.035502 150.104794 
L 237.333744 147.524737 
L 237.638544 150.602481 
L 237.944939 152.018227 
L 238.251063 150.66402 
L 238.853172 155.562428 
L 239.155533 153.325546 
L 239.456881 156.555935 
L 239.754583 156.754138 
L 240.057086 156.535383 
L 240.357775 157.73723 
L 240.660489 157.830608 
L 240.961146 156.131121 
L 241.261269 156.272187 
L 241.560508 160.647659 
L 241.858567 161.796874 
L 242.164898 156.812057 
L 242.461942 156.879616 
L 242.760179 152.743444 
L 243.061298 152.951124 
L 243.36455 153.864388 
L 243.664538 157.496699 
L 243.965897 157.105985 
L 244.27292 153.665327 
L 244.573008 152.773928 
L 244.876635 157.48521 
L 245.179043 160.086495 
L 245.482732 160.086495 
L 245.782239 155.008766 
L 246.083022 160.849614 
L 246.38211 162.138015 
L 246.678234 160.820481 
L 246.981224 163.486855 
L 247.282851 163.486855 
L 247.583568 164.235087 
L 247.88512 168.041428 
L 248.185052 167.101238 
L 248.486963 161.064902 
L 248.7873 161.064902 
L 249.085749 162.219501 
L 249.386967 162.444561 
L 249.689947 161.524289 
L 249.991914 165.611423 
L 250.293888 166.018813 
L 250.593208 169.852855 
L 250.894002 168.912665 
L 251.195545 169.61669 
L 251.496365 167.271113 
L 251.798343 168.187529 
L 252.102939 168.19467 
L 252.412819 171.869519 
L 252.711432 168.415355 
L 253.01317 168.415355 
L 253.313556 168.915787 
L 253.918801 172.591033 
L 254.220489 169.97799 
L 254.520517 169.92275 
L 254.819696 164.820228 
L 255.121357 164.61241 
L 255.723205 166.442876 
L 256.024962 163.72249 
L 256.328883 163.72249 
L 256.6284 170.39567 
L 256.926694 169.874806 
L 257.538529 170.313069 
L 257.844113 173.604328 
L 258.146227 173.725931 
L 258.44643 174.206541 
L 258.746006 172.689676 
L 259.045958 168.379204 
L 259.351924 169.003822 
L 259.651388 170.402169 
L 259.953539 170.808552 
L 260.257736 174.963565 
L 260.561973 174.182408 
L 260.862417 174.549369 
L 261.16251 174.231627 
L 261.466747 170.219217 
L 261.772672 170.531748 
L 262.073956 170.531748 
L 262.376043 169.379347 
L 262.675427 169.379347 
L 262.97775 170.801721 
L 263.275768 169.509855 
L 263.574943 168.841749 
L 263.875841 170.02225 
L 264.475439 169.935003 
L 264.773432 170.18479 
L 265.372931 174.393651 
L 265.971672 174.69441 
L 266.269252 171.170623 
L 266.571207 172.342914 
L 266.874132 171.594344 
L 267.178095 171.427239 
L 267.478042 171.679431 
L 267.781163 171.749357 
L 268.090844 168.428644 
L 268.392999 168.675741 
L 268.69498 169.710166 
L 268.996833 168.284952 
L 269.299831 165.243067 
L 269.604529 168.382388 
L 270.204038 171.50188 
L 270.505271 173.513528 
L 270.810302 171.783811 
L 271.113253 173.516593 
L 271.414094 172.974025 
L 271.71873 174.468553 
L 272.018552 173.616919 
L 272.321349 171.144668 
L 272.620063 171.665813 
L 272.923665 173.596197 
L 273.222293 170.85101 
L 273.520248 171.086528 
L 273.82069 168.64417 
L 274.124036 168.64417 
L 274.431725 178.351074 
L 274.732121 176.90081 
L 275.032544 176.90081 
L 275.333136 173.164585 
L 275.644957 170.82597 
L 275.953646 170.925127 
L 276.56051 176.241415 
L 276.860844 175.209151 
L 277.165784 175.984752 
L 277.466574 175.897111 
L 277.766863 172.221141 
L 278.065286 169.972164 
L 278.366816 169.293498 
L 278.667937 172.342686 
L 278.965271 172.024043 
L 279.264931 173.9653 
L 279.870736 174.766136 
L 280.475459 174.767179 
L 280.777907 174.078797 
L 281.083761 173.92535 
L 281.383917 172.083844 
L 281.682802 172.386838 
L 281.979568 174.883628 
L 282.277671 173.541882 
L 282.579521 173.060577 
L 282.881673 169.600548 
L 283.182452 170.869979 
L 283.487622 171.645581 
L 283.786287 171.86737 
L 284.089089 170.307181 
L 284.389709 171.890787 
L 284.691169 172.210823 
L 284.988751 171.68047 
L 285.297796 172.065225 
L 285.600871 173.546283 
L 285.9041 174.144179 
L 286.511583 174.144179 
L 286.811001 174.445568 
L 287.110714 176.081945 
L 287.412049 175.158007 
L 287.719584 176.782236 
L 288.02154 175.304979 
L 288.320341 178.295461 
L 288.622244 177.101202 
L 288.924473 179.542321 
L 289.228748 179.361851 
L 289.532746 180.144609 
L 289.836882 181.257043 
L 290.139645 183.312321 
L 290.442341 179.808477 
L 290.744196 178.043465 
L 291.346039 178.045824 
L 291.942835 184.243146 
L 292.245714 183.345185 
L 292.550786 183.345185 
L 292.850961 182.056328 
L 293.151243 182.056328 
L 293.453171 184.656383 
L 293.754926 181.955317 
L 294.055428 184.088388 
L 294.65195 184.088388 
L 294.956626 182.35206 
L 295.260593 182.17505 
L 295.562939 180.682677 
L 295.865934 181.968769 
L 296.167557 184.423151 
L 296.774544 184.809161 
L 297.079523 183.730205 
L 297.383448 181.611811 
L 297.684154 183.489409 
L 297.984961 183.256762 
L 298.284021 184.428307 
L 298.587048 183.751277 
L 298.889648 186.518969 
L 299.192497 186.271497 
L 299.492316 188.338774 
L 299.79484 188.338774 
L 300.096141 189.898368 
L 300.394735 187.772765 
L 300.695631 187.954936 
L 300.998255 187.702339 
L 301.298063 185.226849 
L 301.598678 188.68108 
L 301.901035 188.860791 
L 302.201305 191.664527 
L 302.501578 191.286655 
L 302.804906 191.51035 
L 303.104647 191.51035 
L 303.406575 189.897553 
L 303.708771 191.541793 
L 304.009286 190.335 
L 304.312715 190.335 
L 304.616148 187.33323 
L 304.914982 186.126878 
L 305.51336 188.616935 
L 305.810373 190.222116 
L 306.110248 187.365251 
L 306.407235 188.849709 
L 306.711663 188.249495 
L 307.315302 188.363673 
L 307.615569 189.456769 
L 307.918518 187.130305 
L 308.217714 190.276733 
L 308.519082 187.637132 
L 309.119344 188.812001 
L 309.718884 195.236005 
L 310.016842 192.927567 
L 310.317526 192.927567 
L 310.620769 188.387797 
L 310.921457 188.571613 
L 311.219674 194.026884 
L 311.523052 190.110543 
L 311.823835 189.301482 
L 312.12684 190.050143 
L 312.424552 192.347126 
L 312.723339 190.153823 
L 313.029305 191.847786 
L 313.331345 191.991855 
L 313.632279 191.214331 
L 313.937106 195.190039 
L 314.23929 194.111584 
L 314.540756 192.376944 
L 314.844383 193.964769 
L 315.143844 191.251776 
L 315.444459 191.251776 
L 315.743254 191.59386 
L 316.044044 198.630447 
L 316.346564 198.764123 
L 316.648786 200.899076 
L 316.948537 201.866976 
L 317.246976 200.036422 
L 317.54813 200.036422 
L 317.851307 196.739079 
L 318.154619 197.05287 
L 318.457245 195.291679 
L 318.763588 199.646303 
L 319.064625 202.234396 
L 319.370943 196.590436 
L 319.672592 198.419691 
L 319.976482 197.083999 
L 320.276708 197.083999 
L 320.577503 195.84769 
L 320.876254 196.165405 
L 321.179381 198.651267 
L 321.479174 198.651267 
L 321.778175 198.916038 
L 322.083562 198.992893 
L 322.387623 199.411531 
L 322.992017 199.461993 
L 323.595096 198.242867 
L 323.891108 200.704274 
L 324.192163 204.987559 
L 324.494332 203.559876 
L 324.797453 200.785526 
L 325.100367 199.45296 
L 325.400793 197.498539 
L 325.709863 197.498539 
L 326.01036 199.398689 
L 326.314855 199.855487 
L 326.615169 199.063752 
L 326.916766 199.627539 
L 327.22148 202.903412 
L 327.520101 202.903412 
L 327.822789 210.580666 
L 328.125785 210.941264 
L 328.430967 212.803726 
L 328.734965 204.491283 
L 329.036163 205.196683 
L 329.332695 205.34541 
L 329.631435 208.763418 
L 329.934245 208.763418 
L 330.239444 208.120842 
L 330.54241 210.509795 
L 330.842858 208.141838 
L 331.140462 209.453599 
L 331.441132 210.1019 
L 331.746206 211.819481 
L 332.046342 208.914896 
L 332.345923 208.914896 
L 332.646649 211.898308 
L 332.949696 209.944494 
L 333.254018 213.431096 
L 333.559478 213.431096 
L 333.859593 214.814236 
L 334.158063 214.814236 
L 334.458943 211.102921 
L 334.764042 212.216147 
L 335.067658 209.23631 
L 335.366157 209.081908 
L 335.662029 211.815454 
L 335.965834 211.908726 
L 336.268908 218.551712 
L 336.568568 209.225549 
L 336.867441 209.225549 
L 337.169106 210.243691 
L 337.466052 210.243691 
L 337.769829 214.179949 
L 338.072743 214.995759 
L 338.377208 215.1006 
L 338.982084 210.380657 
L 339.283145 211.065058 
L 339.583204 208.525897 
L 340.187521 214.900227 
L 340.48837 209.037706 
L 340.789854 207.639887 
L 341.090512 207.639887 
L 341.38988 214.177174 
L 341.688538 213.267465 
L 342.288558 213.267465 
L 342.590938 214.538947 
L 342.891062 218.88 
L 343.191641 218.88 
L 343.491811 218.316485 
L 343.791125 212.30549 
L 344.093678 211.995668 
L 344.39609 210.142498 
L 344.696655 210.142498 
L 344.999808 208.762165 
L 345.299589 210.459809 
L 345.59881 209.69064 
L 345.901293 209.69064 
L 346.204164 209.353734 
L 346.506818 214.996906 
L 346.506818 214.996906 
" clip-path="url(#p4fa7b28ffc)" style="fill: none; stroke: #1f77b4; stroke-width: 1.5; stroke-linecap: square"/>
   </g>
   <g id="patch_3">
    <path d="M 26.925 228.96 
L 26.925 7.2 
" style="fill: none; stroke: #000000; stroke-width: 0.8; stroke-linejoin: miter; stroke-linecap: square"/>
   </g>
   <g id="patch_4">
    <path d="M 361.725 228.96 
L 361.725 7.2 
" style="fill: none; stroke: #000000; stroke-width: 0.8; stroke-linejoin: miter; stroke-linecap: square"/>
   </g>
   <g id="patch_5">
    <path d="M 26.925 228.96 
L 361.725 228.96 
" style="fill: none; stroke: #000000; stroke-width: 0.8; stroke-linejoin: miter; stroke-linecap: square"/>
   </g>
   <g id="patch_6">
    <path d="M 26.925 7.2 
L 361.725 7.2 
" style="fill: none; stroke: #000000; stroke-width: 0.8; stroke-linejoin: miter; stroke-linecap: square"/>
   </g>
  </g>
 </g>
 <defs>
  <clipPath id="p4fa7b28ffc">
   <rect x="26.925" y="7.2" width="334.8" height="221.76"/>
  </clipPath>
 </defs>
</svg>
