<?xml version="1.0" encoding="utf-8" standalone="no"?>
<!DOCTYPE svg PUBLIC "-//W3C//DTD SVG 1.1//EN"
  "http://www.w3.org/Graphics/SVG/1.1/DTD/svg11.dtd">
<svg xmlns:xlink="http://www.w3.org/1999/xlink" width="373.036447pt" height="252.838125pt" viewBox="0 0 373.036447 252.838125" xmlns="http://www.w3.org/2000/svg" version="1.1">
 <metadata>
  <rdf:RDF xmlns:dc="http://purl.org/dc/elements/1.1/" xmlns:cc="http://creativecommons.org/ns#" xmlns:rdf="http://www.w3.org/1999/02/22-rdf-syntax-ns#">
   <cc:Work>
    <dc:type rdf:resource="http://purl.org/dc/dcmitype/StillImage"/>
    <dc:date>2023-04-18T05:45:43.490152</dc:date>
    <dc:format>image/svg+xml</dc:format>
    <dc:creator>
     <cc:Agent>
      <dc:title>Matplotlib v3.7.1, https://matplotlib.org/</dc:title>
     </cc:Agent>
    </dc:creator>
   </cc:Work>
  </rdf:RDF>
 </metadata>
 <defs>
  <style type="text/css">*{stroke-linejoin: round; stroke-linecap: butt}</style>
 </defs>
 <g id="figure_1">
  <g id="patch_1">
   <path d="M 0 252.838125 
L 373.036447 252.838125 
L 373.036447 0 
L 0 0 
z
" style="fill: #ffffff"/>
  </g>
  <g id="axes_1">
   <g id="patch_2">
    <path d="M 30.103125 228.96 
L 364.903125 228.96 
L 364.903125 7.2 
L 30.103125 7.2 
z
" style="fill: #ffffff"/>
   </g>
   <g id="matplotlib.axis_1">
    <g id="xtick_1">
     <g id="line2d_1">
      <defs>
       <path id="mf57646c5a3" d="M 0 0 
L 0 3.5 
" style="stroke: #000000; stroke-width: 0.8"/>
      </defs>
      <g>
       <use xlink:href="#mf57646c5a3" x="45.184329" y="228.96" style="stroke: #000000; stroke-width: 0.8"/>
      </g>
     </g>
     <g id="text_1">
      <!-- 0 -->
      <g transform="translate(42.003079 243.558437) scale(0.1 -0.1)">
       <defs>
        <path id="DejaVuSans-30" d="M 2034 4250 
Q 1547 4250 1301 3770 
Q 1056 3291 1056 2328 
Q 1056 1369 1301 889 
Q 1547 409 2034 409 
Q 2525 409 2770 889 
Q 3016 1369 3016 2328 
Q 3016 3291 2770 3770 
Q 2525 4250 2034 4250 
z
M 2034 4750 
Q 2819 4750 3233 4129 
Q 3647 3509 3647 2328 
Q 3647 1150 3233 529 
Q 2819 -91 2034 -91 
Q 1250 -91 836 529 
Q 422 1150 422 2328 
Q 422 3509 836 4129 
Q 1250 4750 2034 4750 
z
" transform="scale(0.015625)"/>
       </defs>
       <use xlink:href="#DejaVuSans-30"/>
      </g>
     </g>
    </g>
    <g id="xtick_2">
     <g id="line2d_2">
      <g>
       <use xlink:href="#mf57646c5a3" x="106.769753" y="228.96" style="stroke: #000000; stroke-width: 0.8"/>
      </g>
     </g>
     <g id="text_2">
      <!-- 500 -->
      <g transform="translate(97.226003 243.558437) scale(0.1 -0.1)">
       <defs>
        <path id="DejaVuSans-35" d="M 691 4666 
L 3169 4666 
L 3169 4134 
L 1269 4134 
L 1269 2991 
Q 1406 3038 1543 3061 
Q 1681 3084 1819 3084 
Q 2600 3084 3056 2656 
Q 3513 2228 3513 1497 
Q 3513 744 3044 326 
Q 2575 -91 1722 -91 
Q 1428 -91 1123 -41 
Q 819 9 494 109 
L 494 744 
Q 775 591 1075 516 
Q 1375 441 1709 441 
Q 2250 441 2565 725 
Q 2881 1009 2881 1497 
Q 2881 1984 2565 2268 
Q 2250 2553 1709 2553 
Q 1456 2553 1204 2497 
Q 953 2441 691 2322 
L 691 4666 
z
" transform="scale(0.015625)"/>
       </defs>
       <use xlink:href="#DejaVuSans-35"/>
       <use xlink:href="#DejaVuSans-30" x="63.623047"/>
       <use xlink:href="#DejaVuSans-30" x="127.246094"/>
      </g>
     </g>
    </g>
    <g id="xtick_3">
     <g id="line2d_3">
      <g>
       <use xlink:href="#mf57646c5a3" x="168.355177" y="228.96" style="stroke: #000000; stroke-width: 0.8"/>
      </g>
     </g>
     <g id="text_3">
      <!-- 1000 -->
      <g transform="translate(155.630177 243.558437) scale(0.1 -0.1)">
       <defs>
        <path id="DejaVuSans-31" d="M 794 531 
L 1825 531 
L 1825 4091 
L 703 3866 
L 703 4441 
L 1819 4666 
L 2450 4666 
L 2450 531 
L 3481 531 
L 3481 0 
L 794 0 
L 794 531 
z
" transform="scale(0.015625)"/>
       </defs>
       <use xlink:href="#DejaVuSans-31"/>
       <use xlink:href="#DejaVuSans-30" x="63.623047"/>
       <use xlink:href="#DejaVuSans-30" x="127.246094"/>
       <use xlink:href="#DejaVuSans-30" x="190.869141"/>
      </g>
     </g>
    </g>
    <g id="xtick_4">
     <g id="line2d_4">
      <g>
       <use xlink:href="#mf57646c5a3" x="229.9406" y="228.96" style="stroke: #000000; stroke-width: 0.8"/>
      </g>
     </g>
     <g id="text_4">
      <!-- 1500 -->
      <g transform="translate(217.2156 243.558437) scale(0.1 -0.1)">
       <use xlink:href="#DejaVuSans-31"/>
       <use xlink:href="#DejaVuSans-35" x="63.623047"/>
       <use xlink:href="#DejaVuSans-30" x="127.246094"/>
       <use xlink:href="#DejaVuSans-30" x="190.869141"/>
      </g>
     </g>
    </g>
    <g id="xtick_5">
     <g id="line2d_5">
      <g>
       <use xlink:href="#mf57646c5a3" x="291.526024" y="228.96" style="stroke: #000000; stroke-width: 0.8"/>
      </g>
     </g>
     <g id="text_5">
      <!-- 2000 -->
      <g transform="translate(278.801024 243.558437) scale(0.1 -0.1)">
       <defs>
        <path id="DejaVuSans-32" d="M 1228 531 
L 3431 531 
L 3431 0 
L 469 0 
L 469 531 
Q 828 903 1448 1529 
Q 2069 2156 2228 2338 
Q 2531 2678 2651 2914 
Q 2772 3150 2772 3378 
Q 2772 3750 2511 3984 
Q 2250 4219 1831 4219 
Q 1534 4219 1204 4116 
Q 875 4013 500 3803 
L 500 4441 
Q 881 4594 1212 4672 
Q 1544 4750 1819 4750 
Q 2544 4750 2975 4387 
Q 3406 4025 3406 3419 
Q 3406 3131 3298 2873 
Q 3191 2616 2906 2266 
Q 2828 2175 2409 1742 
Q 1991 1309 1228 531 
z
" transform="scale(0.015625)"/>
       </defs>
       <use xlink:href="#DejaVuSans-32"/>
       <use xlink:href="#DejaVuSans-30" x="63.623047"/>
       <use xlink:href="#DejaVuSans-30" x="127.246094"/>
       <use xlink:href="#DejaVuSans-30" x="190.869141"/>
      </g>
     </g>
    </g>
    <g id="xtick_6">
     <g id="line2d_6">
      <g>
       <use xlink:href="#mf57646c5a3" x="353.111447" y="228.96" style="stroke: #000000; stroke-width: 0.8"/>
      </g>
     </g>
     <g id="text_6">
      <!-- 2500 -->
      <g transform="translate(340.386447 243.558437) scale(0.1 -0.1)">
       <use xlink:href="#DejaVuSans-32"/>
       <use xlink:href="#DejaVuSans-35" x="63.623047"/>
       <use xlink:href="#DejaVuSans-30" x="127.246094"/>
       <use xlink:href="#DejaVuSans-30" x="190.869141"/>
      </g>
     </g>
    </g>
   </g>
   <g id="matplotlib.axis_2">
    <g id="ytick_1">
     <g id="line2d_7">
      <defs>
       <path id="m314e91645a" d="M 0 0 
L -3.5 0 
" style="stroke: #000000; stroke-width: 0.8"/>
      </defs>
      <g>
       <use xlink:href="#m314e91645a" x="30.103125" y="218.376468" style="stroke: #000000; stroke-width: 0.8"/>
      </g>
     </g>
     <g id="text_7">
      <!-- 1.5 -->
      <g transform="translate(7.2 222.175687) scale(0.1 -0.1)">
       <defs>
        <path id="DejaVuSans-2e" d="M 684 794 
L 1344 794 
L 1344 0 
L 684 0 
L 684 794 
z
" transform="scale(0.015625)"/>
       </defs>
       <use xlink:href="#DejaVuSans-31"/>
       <use xlink:href="#DejaVuSans-2e" x="63.623047"/>
       <use xlink:href="#DejaVuSans-35" x="95.410156"/>
      </g>
     </g>
    </g>
    <g id="ytick_2">
     <g id="line2d_8">
      <g>
       <use xlink:href="#m314e91645a" x="30.103125" y="177.812263" style="stroke: #000000; stroke-width: 0.8"/>
      </g>
     </g>
     <g id="text_8">
      <!-- 2.0 -->
      <g transform="translate(7.2 181.611482) scale(0.1 -0.1)">
       <use xlink:href="#DejaVuSans-32"/>
       <use xlink:href="#DejaVuSans-2e" x="63.623047"/>
       <use xlink:href="#DejaVuSans-30" x="95.410156"/>
      </g>
     </g>
    </g>
    <g id="ytick_3">
     <g id="line2d_9">
      <g>
       <use xlink:href="#m314e91645a" x="30.103125" y="137.248058" style="stroke: #000000; stroke-width: 0.8"/>
      </g>
     </g>
     <g id="text_9">
      <!-- 2.5 -->
      <g transform="translate(7.2 141.047277) scale(0.1 -0.1)">
       <use xlink:href="#DejaVuSans-32"/>
       <use xlink:href="#DejaVuSans-2e" x="63.623047"/>
       <use xlink:href="#DejaVuSans-35" x="95.410156"/>
      </g>
     </g>
    </g>
    <g id="ytick_4">
     <g id="line2d_10">
      <g>
       <use xlink:href="#m314e91645a" x="30.103125" y="96.683853" style="stroke: #000000; stroke-width: 0.8"/>
      </g>
     </g>
     <g id="text_10">
      <!-- 3.0 -->
      <g transform="translate(7.2 100.483072) scale(0.1 -0.1)">
       <defs>
        <path id="DejaVuSans-33" d="M 2597 2516 
Q 3050 2419 3304 2112 
Q 3559 1806 3559 1356 
Q 3559 666 3084 287 
Q 2609 -91 1734 -91 
Q 1441 -91 1130 -33 
Q 819 25 488 141 
L 488 750 
Q 750 597 1062 519 
Q 1375 441 1716 441 
Q 2309 441 2620 675 
Q 2931 909 2931 1356 
Q 2931 1769 2642 2001 
Q 2353 2234 1838 2234 
L 1294 2234 
L 1294 2753 
L 1863 2753 
Q 2328 2753 2575 2939 
Q 2822 3125 2822 3475 
Q 2822 3834 2567 4026 
Q 2313 4219 1838 4219 
Q 1578 4219 1281 4162 
Q 984 4106 628 3988 
L 628 4550 
Q 988 4650 1302 4700 
Q 1616 4750 1894 4750 
Q 2613 4750 3031 4423 
Q 3450 4097 3450 3541 
Q 3450 3153 3228 2886 
Q 3006 2619 2597 2516 
z
" transform="scale(0.015625)"/>
       </defs>
       <use xlink:href="#DejaVuSans-33"/>
       <use xlink:href="#DejaVuSans-2e" x="63.623047"/>
       <use xlink:href="#DejaVuSans-30" x="95.410156"/>
      </g>
     </g>
    </g>
    <g id="ytick_5">
     <g id="line2d_11">
      <g>
       <use xlink:href="#m314e91645a" x="30.103125" y="56.119648" style="stroke: #000000; stroke-width: 0.8"/>
      </g>
     </g>
     <g id="text_11">
      <!-- 3.5 -->
      <g transform="translate(7.2 59.918867) scale(0.1 -0.1)">
       <use xlink:href="#DejaVuSans-33"/>
       <use xlink:href="#DejaVuSans-2e" x="63.623047"/>
       <use xlink:href="#DejaVuSans-35" x="95.410156"/>
      </g>
     </g>
    </g>
    <g id="ytick_6">
     <g id="line2d_12">
      <g>
       <use xlink:href="#m314e91645a" x="30.103125" y="15.555443" style="stroke: #000000; stroke-width: 0.8"/>
      </g>
     </g>
     <g id="text_12">
      <!-- 4.0 -->
      <g transform="translate(7.2 19.354662) scale(0.1 -0.1)">
       <defs>
        <path id="DejaVuSans-34" d="M 2419 4116 
L 825 1625 
L 2419 1625 
L 2419 4116 
z
M 2253 4666 
L 3047 4666 
L 3047 1625 
L 3713 1625 
L 3713 1100 
L 3047 1100 
L 3047 0 
L 2419 0 
L 2419 1100 
L 313 1100 
L 313 1709 
L 2253 4666 
z
" transform="scale(0.015625)"/>
       </defs>
       <use xlink:href="#DejaVuSans-34"/>
       <use xlink:href="#DejaVuSans-2e" x="63.623047"/>
       <use xlink:href="#DejaVuSans-30" x="95.410156"/>
      </g>
     </g>
    </g>
   </g>
   <g id="line2d_13">
    <path d="M 45.321307 218.88 
L 45.655555 193.030078 
L 45.997371 210.863067 
L 46.286231 204.109464 
L 46.604717 210.585229 
L 46.855936 175.397738 
L 47.166097 213.662215 
L 47.508344 193.585696 
L 47.787189 211.729861 
L 48.449409 211.729861 
L 48.771136 211.272828 
L 49.116134 214.30988 
L 49.380114 211.729861 
L 49.706926 211.563616 
L 50.355385 205.292406 
L 50.652333 209.002321 
L 50.959519 209.219536 
L 51.253457 213.391209 
L 51.585736 209.326604 
L 51.887283 213.391209 
L 52.144769 211.554892 
L 52.455527 211.130649 
L 53.598415 210.491811 
L 53.896007 210.491811 
L 54.142558 210.341095 
L 54.398371 210.37309 
L 54.738245 210.251498 
L 55.068161 210.376927 
L 55.385936 208.867359 
L 56.002755 208.771471 
L 56.304645 209.440076 
L 56.626535 207.447447 
L 56.950233 207.235305 
L 57.225545 206.805492 
L 57.495222 207.167027 
L 57.78082 207.124384 
L 58.030867 206.873115 
L 58.309101 206.873115 
L 58.608943 206.557419 
L 58.896278 206.557419 
L 59.236945 205.892925 
L 59.522588 206.260529 
L 59.837044 205.045756 
L 60.099876 206.140771 
L 60.405954 204.833725 
L 60.997878 204.833725 
L 61.321213 204.967399 
L 61.622734 204.852656 
L 61.944269 203.415455 
L 62.240254 203.415455 
L 62.573545 201.85226 
L 62.893019 203.716582 
L 63.196185 201.49398 
L 63.48799 201.49398 
L 63.78791 200.290068 
L 64.097211 200.183039 
L 64.400498 202.846181 
L 64.718502 199.845457 
L 64.971913 199.750074 
L 65.268462 200.740254 
L 65.893773 200.649022 
L 66.125591 198.861362 
L 66.446567 199.933808 
L 66.728057 199.933808 
L 67.052943 199.655635 
L 67.295728 199.902353 
L 67.874267 199.770074 
L 68.199689 199.206451 
L 68.853805 199.605841 
L 69.153016 199.042218 
L 69.406627 198.943098 
L 69.719339 198.038789 
L 70.645874 197.897966 
L 70.9694 197.973676 
L 71.211043 198.227286 
L 71.846538 197.680685 
L 72.134532 197.766195 
L 72.444059 197.667564 
L 72.764723 197.344851 
L 73.085224 197.344851 
L 73.370928 196.950719 
L 73.665773 197.624287 
L 74.582409 197.532991 
L 74.915168 195.288758 
L 75.221936 197.169548 
L 75.522957 194.78599 
L 75.870375 194.57485 
L 76.164585 197.351033 
L 76.487824 195.059417 
L 76.774578 197.186032 
L 77.315307 194.660807 
L 77.638566 194.003963 
L 77.93779 194.969836 
L 78.553935 194.876725 
L 78.834642 194.468732 
L 80.057183 194.443759 
L 80.35828 194.236518 
L 80.624353 194.236518 
L 80.958601 191.293986 
L 81.882272 190.957078 
L 82.169062 190.790763 
L 82.810391 190.871036 
L 83.156631 190.704721 
L 83.462789 191.278392 
L 83.728024 191.278392 
L 84.039524 190.373776 
L 84.323771 189.122826 
L 84.678524 190.575492 
L 85.311547 190.199052 
L 85.61413 189.972183 
L 85.939648 190.098432 
L 86.509112 189.523296 
L 86.859987 186.799421 
L 87.146116 186.45253 
L 87.77981 186.45253 
L 88.080141 186.0018 
L 88.353187 188.941224 
L 88.656196 185.699957 
L 89.306994 185.623259 
L 89.647622 185.518553 
L 89.933029 185.623259 
L 90.603364 185.271318 
L 90.944915 185.501818 
L 91.177001 185.403823 
L 91.494465 185.403823 
L 91.83356 184.154694 
L 92.153815 184.538474 
L 92.45741 182.854241 
L 92.744713 183.950512 
L 93.065642 183.950512 
L 93.321815 180.029099 
L 93.643704 183.136724 
L 93.961494 182.052257 
L 94.208676 179.968548 
L 94.549916 182.052257 
L 94.858734 179.666948 
L 95.168902 179.666948 
L 95.448584 181.875216 
L 95.768585 179.449689 
L 96.100848 179.595861 
L 96.440825 179.18961 
L 97.038717 179.105798 
L 97.364925 178.298776 
L 97.60865 178.145201 
L 97.933441 178.145201 
L 98.221509 178.871906 
L 98.561538 177.707054 
L 98.840431 178.144915 
L 99.144969 178.037157 
L 99.454428 177.664008 
L 99.73377 176.476425 
L 100.063129 176.1579 
L 100.996564 176.1579 
L 101.318054 177.624849 
L 101.59165 174.752862 
L 101.910249 177.513376 
L 102.216141 175.393871 
L 102.551319 174.842716 
L 102.868014 176.91738 
L 103.155037 175.673997 
L 103.486159 176.898247 
L 103.761247 175.042651 
L 104.997553 174.935005 
L 105.323961 174.20565 
L 105.657993 174.930741 
L 105.96747 174.810504 
L 106.305411 174.13569 
L 106.600153 176.353983 
L 106.890752 173.396337 
L 107.174137 176.307524 
L 107.51242 176.163281 
L 107.78824 174.616471 
L 108.347413 174.327218 
L 108.628222 175.753982 
L 108.951594 174.238509 
L 109.23016 173.51938 
L 109.833568 173.51938 
L 110.157187 175.071497 
L 110.420069 173.352874 
L 111.083097 173.246982 
L 111.384875 173.648917 
L 111.681642 173.112436 
L 111.993319 173.706434 
L 112.565888 171.297498 
L 112.893206 172.279888 
L 113.158465 171.826427 
L 113.46938 170.872851 
L 113.758163 173.739198 
L 114.352786 172.255585 
L 114.698469 172.939328 
L 115.320336 170.560053 
L 115.663884 171.447728 
L 115.989685 171.246248 
L 116.574128 171.321344 
L 116.904741 170.083241 
L 117.158342 169.805138 
L 117.454131 169.805138 
L 117.769007 171.02561 
L 118.05927 171.150236 
L 118.412026 171.027718 
L 118.688967 170.521339 
L 119.638646 170.415664 
L 120.235474 170.180176 
L 120.534093 170.632789 
L 120.835329 170.512197 
L 121.129113 169.696385 
L 121.438023 170.147003 
L 121.739502 169.799207 
L 122.026803 169.180945 
L 122.313744 169.368136 
L 123.252069 169.384544 
L 123.851568 167.828192 
L 124.154671 168.920995 
L 124.776701 168.341317 
L 125.35374 168.398193 
L 125.678961 168.25893 
L 126.48838 168.198884 
L 126.848639 168.120811 
L 127.144341 167.799121 
L 127.455487 167.799121 
L 127.772108 167.975679 
L 128.096157 167.821674 
L 129.31487 167.761239 
L 129.656181 167.650408 
L 129.95071 166.734239 
L 130.227902 167.571576 
L 130.560082 167.125314 
L 130.821722 167.656959 
L 131.172851 165.666349 
L 131.468988 165.338595 
L 131.81071 165.338595 
L 132.065116 166.728039 
L 132.354476 165.338595 
L 132.642205 164.778522 
L 132.947031 166.032165 
L 133.500974 163.692821 
L 133.830505 163.647822 
L 134.149869 160.733682 
L 134.44535 161.007081 
L 134.763079 162.521784 
L 135.106306 162.023776 
L 135.3922 161.346111 
L 135.744693 161.346111 
L 136.032013 161.819252 
L 136.315284 159.96226 
L 137.578338 159.700352 
L 137.906347 157.112848 
L 138.226974 157.112848 
L 138.565167 154.301799 
L 138.905603 154.301799 
L 139.217177 156.705797 
L 139.525634 152.099566 
L 139.771951 155.063344 
L 140.411 155.286747 
L 141.040837 155.185888 
L 141.33167 154.893611 
L 141.604156 153.250729 
L 141.93764 153.097899 
L 142.80702 153.08481 
L 143.049968 152.948315 
L 143.397083 153.001752 
L 143.67163 152.726065 
L 144.023551 152.937303 
L 144.286607 152.937303 
L 144.609534 152.073893 
L 145.481039 152.073893 
L 145.813313 151.819608 
L 146.146307 152.083741 
L 146.4335 151.890229 
L 146.751762 151.372848 
L 147.043228 150.294651 
L 147.348314 150.029098 
L 147.654066 150.884175 
L 147.942362 150.884175 
L 148.250387 150.104884 
L 148.572101 149.982663 
L 149.158545 148.968253 
L 149.745621 149.590383 
L 150.073041 148.35867 
L 150.657681 148.35867 
L 150.970307 148.084414 
L 151.29111 148.172828 
L 151.902052 147.833698 
L 152.237319 147.833698 
L 153.11821 147.547314 
L 153.450746 147.547314 
L 153.715931 147.061922 
L 154.030102 147.351521 
L 154.29576 146.489786 
L 154.623874 146.16099 
L 155.901196 145.725849 
L 156.20081 144.675756 
L 156.728974 144.608355 
L 156.996109 144.466649 
L 157.32809 144.466649 
L 157.932723 142.15265 
L 158.259758 143.984247 
L 158.600097 142.964494 
L 158.948309 142.564739 
L 159.183474 141.91835 
L 159.529866 140.515486 
L 159.825625 141.808661 
L 160.143717 141.543676 
L 160.397761 141.543676 
L 160.710889 140.111403 
L 160.974426 141.351335 
L 161.60301 137.967594 
L 162.215886 137.967594 
L 162.505072 136.632511 
L 162.844898 136.466464 
L 163.140996 136.466464 
L 163.457508 136.685209 
L 163.760088 136.038512 
L 164.054723 134.516096 
L 164.32666 134.340089 
L 164.647861 136.115904 
L 164.993168 134.195138 
L 165.293018 134.195138 
L 165.574537 133.992909 
L 165.895015 133.992909 
L 166.218901 133.146018 
L 166.471201 132.812908 
L 166.776607 132.812908 
L 167.087562 133.07398 
L 167.41849 132.27879 
L 167.737093 131.996112 
L 168.664231 131.780101 
L 168.993607 132.655439 
L 169.271526 132.133934 
L 169.594134 132.492701 
L 169.924565 131.469871 
L 170.229338 131.582148 
L 170.513431 132.439428 
L 170.816181 131.864733 
L 171.092104 130.479037 
L 171.390543 129.780059 
L 171.728242 130.704782 
L 171.986175 130.704782 
L 172.321995 129.673425 
L 172.908947 129.673425 
L 173.215799 129.96665 
L 173.845506 130.013738 
L 174.408427 130.645648 
L 174.734789 129.277783 
L 175.058556 130.515086 
L 175.338654 130.194752 
L 175.658105 129.354478 
L 175.977238 129.22429 
L 176.284092 127.839716 
L 176.588929 128.973409 
L 177.088301 128.869224 
L 177.388524 127.926698 
L 177.687099 128.774824 
L 178.011283 127.132725 
L 178.289842 126.782498 
L 178.618284 127.226908 
L 178.918551 127.226908 
L 179.162491 126.457653 
L 179.446597 126.991839 
L 179.716276 126.474271 
L 180.016724 126.474271 
L 180.336502 126.288639 
L 180.65779 126.288639 
L 180.936716 126.148632 
L 181.205577 126.310798 
L 181.538396 126.056433 
L 182.157284 126.043673 
L 182.474351 126.181478 
L 182.790637 125.840835 
L 183.080234 126.019836 
L 183.692481 125.820961 
L 184.021972 125.820961 
L 184.287524 125.702506 
L 184.851522 125.820961 
L 185.175883 125.378099 
L 185.466026 125.378099 
L 185.995119 122.163663 
L 186.306217 122.163663 
L 186.60625 122.298173 
L 187.51163 122.015465 
L 188.05407 121.952045 
L 188.378455 123.717117 
L 188.684438 121.864208 
L 188.970436 121.68275 
L 189.244537 121.878233 
L 189.577065 119.645632 
L 189.839168 121.541235 
L 190.156258 119.206585 
L 190.485014 121.710754 
L 190.779206 121.615776 
L 191.070504 118.926605 
L 191.306961 121.488317 
L 191.650342 121.488317 
L 191.94719 120.910186 
L 192.266755 118.691949 
L 192.5535 118.691949 
L 193.150876 118.236553 
L 193.487706 117.299908 
L 193.773816 117.288885 
L 194.081725 119.440983 
L 194.394629 118.268961 
L 194.712359 118.089414 
L 195.020623 118.089414 
L 195.615667 117.625777 
L 195.921622 115.232322 
L 196.239307 115.232322 
L 196.547878 117.24239 
L 197.212963 113.317841 
L 197.497871 113.317841 
L 197.816215 112.688384 
L 198.110895 114.870041 
L 198.452397 114.629698 
L 198.74773 112.555776 
L 199.027042 111.851679 
L 199.337748 111.39401 
L 199.659237 114.387223 
L 199.941808 114.387223 
L 200.255217 114.262527 
L 200.582794 111.095802 
L 200.870371 112.543347 
L 201.20589 112.507898 
L 201.538738 110.443996 
L 201.827415 110.296638 
L 202.115851 110.943959 
L 202.383207 112.252074 
L 202.671142 112.252074 
L 203.274475 111.888157 
L 203.583652 111.981834 
L 203.897042 111.556327 
L 204.203302 111.824127 
L 205.452509 111.756945 
L 205.759689 104.486511 
L 206.087523 104.487017 
L 206.38546 104.354843 
L 206.963525 104.354843 
L 207.25831 100.382369 
L 208.119612 100.382369 
L 208.417164 103.887312 
L 208.744401 100.10919 
L 209.33048 99.615384 
L 209.574809 100.196423 
L 209.923844 100.07434 
L 210.220236 99.599425 
L 210.510882 99.706964 
L 211.45047 99.423845 
L 211.770958 97.858942 
L 212.103603 97.858942 
L 212.404217 99.013148 
L 212.709304 97.404023 
L 213.00928 97.525389 
L 213.601359 95.765827 
L 213.920162 95.765827 
L 214.184663 92.461302 
L 214.481535 92.461302 
L 214.777776 96.141664 
L 215.063489 95.143051 
L 215.316282 96.002914 
L 215.623257 95.939385 
L 216.205877 91.021276 
L 216.515232 95.857497 
L 216.799677 95.857497 
L 217.123088 95.385443 
L 217.36787 95.48118 
L 217.692857 89.812067 
L 217.969806 89.698065 
L 218.288706 89.698065 
L 218.575191 89.575311 
L 218.884804 89.293594 
L 219.179925 93.927419 
L 219.52685 89.448501 
L 220.168526 89.305564 
L 220.484804 93.237519 
L 220.781993 93.095099 
L 222.10561 92.98402 
L 222.347834 92.614859 
L 222.690789 92.853159 
L 223.290473 92.638906 
L 223.597679 92.206071 
L 223.939351 92.039618 
L 224.246513 92.275609 
L 224.546484 92.275609 
L 224.859412 89.182945 
L 225.125047 91.209953 
L 225.45294 89.180773 
L 225.706309 89.038651 
L 226.016771 87.759086 
L 226.325855 89.130409 
L 226.619434 87.915463 
L 226.901384 87.915463 
L 227.212667 88.21743 
L 227.487318 87.086495 
L 227.832963 88.725501 
L 228.156247 87.483211 
L 228.759558 87.23867 
L 229.03251 85.948377 
L 229.336972 85.408226 
L 229.623673 85.408226 
L 229.902393 85.183151 
L 230.204115 85.92457 
L 230.525337 85.92457 
L 230.790072 83.271096 
L 231.38687 83.271096 
L 231.701443 84.861169 
L 232.047818 84.887367 
L 232.635674 84.62075 
L 232.89012 84.369777 
L 233.22199 84.369777 
L 233.518659 82.788322 
L 233.80042 84.369777 
L 234.062006 82.8117 
L 234.349752 83.718963 
L 234.63699 83.865038 
L 234.954277 83.287482 
L 235.56953 83.199762 
L 235.90189 82.342627 
L 236.198894 80.93431 
L 236.518451 80.559433 
L 236.835446 79.40274 
L 237.14698 82.718066 
L 237.486954 81.541535 
L 237.79101 82.54236 
L 238.091128 81.349074 
L 238.348715 82.595612 
L 238.700777 79.999187 
L 239.009483 80.12775 
L 239.353823 80.859616 
L 240.001531 80.73248 
L 240.313739 79.193167 
L 240.930045 79.237893 
L 241.224791 80.5852 
L 241.515327 80.5852 
L 241.825196 80.120223 
L 242.378541 80.144541 
L 242.720689 79.66746 
L 243.028689 79.66746 
L 243.342846 79.522685 
L 243.656321 79.532876 
L 243.940949 79.832679 
L 244.253548 79.832679 
L 244.528371 78.394165 
L 244.808918 79.384817 
L 245.092967 79.693598 
L 245.428816 79.446188 
L 245.72076 79.454155 
L 246.005109 77.451047 
L 246.28973 77.462849 
L 246.542684 79.323812 
L 247.133794 75.981851 
L 247.408501 75.830431 
L 247.689364 76.505663 
L 247.986242 76.354242 
L 248.272173 72.704438 
L 248.560018 72.398209 
L 248.87649 74.669511 
L 250.06473 74.607121 
L 250.370071 75.631708 
L 250.646318 75.631708 
L 250.966601 74.68071 
L 251.262074 75.490653 
L 251.60142 75.455902 
L 251.945642 75.566572 
L 252.610437 75.283476 
L 252.932009 74.254809 
L 253.227124 75.304725 
L 253.569651 74.082589 
L 253.855947 73.879962 
L 254.451816 73.914418 
L 255.313907 73.33401 
L 255.64327 73.33401 
L 255.909864 72.270227 
L 256.212711 72.270227 
L 256.506638 70.643553 
L 256.781505 70.643553 
L 257.103008 71.833158 
L 257.335375 70.674677 
L 257.90138 70.385938 
L 258.201154 70.090983 
L 258.52379 70.084632 
L 258.813016 69.712269 
L 259.428914 69.730411 
L 259.738768 69.577952 
L 260.011939 68.996099 
L 260.891785 69.464271 
L 261.526613 68.482922 
L 261.870478 69.028924 
L 262.173118 68.800093 
L 262.498095 66.338768 
L 262.809746 66.338768 
L 263.101478 68.685731 
L 263.387774 68.713878 
L 263.711859 68.466438 
L 263.965477 66.930459 
L 264.269617 67.794707 
L 264.580761 67.794707 
L 264.861722 65.319439 
L 265.185588 65.176369 
L 265.797973 65.066786 
L 266.099469 64.805763 
L 266.42337 64.912984 
L 266.701923 64.35362 
L 267.038117 64.706206 
L 267.326246 64.134571 
L 267.629618 64.134571 
L 268.251779 63.640965 
L 268.552663 63.640965 
L 269.128814 63.084832 
L 270.034425 63.280897 
L 270.371528 62.990443 
L 271.291138 62.990443 
L 271.601297 62.533401 
L 271.896577 62.990443 
L 272.201567 62.553157 
L 272.464932 62.553157 
L 272.764773 61.701198 
L 273.062905 61.26599 
L 273.349346 61.883656 
L 273.695659 61.389825 
L 274.508322 61.389825 
L 274.821282 60.746422 
L 275.065137 60.759727 
L 275.354234 61.096638 
L 275.695522 60.267043 
L 275.967853 60.044224 
L 276.600203 57.477709 
L 276.911787 59.695671 
L 277.244731 58.897175 
L 277.559444 58.66658 
L 277.898469 59.42727 
L 278.198268 58.074535 
L 278.499478 58.640543 
L 278.825885 58.518774 
L 279.10546 58.03466 
L 279.676449 59.194883 
L 279.9828 58.95987 
L 280.326121 57.782697 
L 280.64473 57.267493 
L 280.969812 58.491508 
L 281.269389 57.452669 
L 281.558305 56.872652 
L 281.875812 57.669203 
L 282.171074 57.506652 
L 282.45519 58.008185 
L 282.760381 57.892805 
L 283.413491 57.892805 
L 283.713959 57.60398 
L 284.054456 56.25598 
L 284.373155 57.4367 
L 285.012865 57.189985 
L 285.302976 57.189985 
L 285.62536 56.186636 
L 285.960731 56.303655 
L 286.602016 55.693703 
L 286.929561 55.795564 
L 287.25096 55.718566 
L 287.561203 54.96351 
L 287.869622 57.191133 
L 288.161973 57.003789 
L 288.450986 57.627428 
L 288.736324 55.163446 
L 289.067981 54.468185 
L 289.386356 55.163446 
L 289.711381 54.861792 
L 289.998759 55.388479 
L 290.312215 55.388479 
L 290.607609 55.634822 
L 291.212279 55.333168 
L 291.5141 54.922668 
L 291.849784 56.549117 
L 292.167947 56.549117 
L 292.521076 55.368662 
L 293.17161 56.043721 
L 293.370492 55.496 
L 293.643708 55.496 
L 293.948707 56.043721 
L 294.565725 55.967026 
L 294.855744 55.664453 
L 295.153128 55.589794 
L 295.468822 54.553296 
L 295.807993 54.553296 
L 296.133801 55.32999 
L 296.448079 54.133743 
L 296.711317 54.243219 
L 297.336181 54.133743 
L 297.631574 54.133743 
L 297.951572 54.312018 
L 298.219805 54.133913 
L 298.49232 54.133913 
L 298.810955 53.61109 
L 299.142747 53.432213 
L 299.470663 53.61109 
L 299.800127 53.385984 
L 300.119871 52.069987 
L 300.421136 52.82967 
L 301.00484 52.773963 
L 301.273463 52.527907 
L 301.875924 52.428094 
L 302.205673 52.302821 
L 302.493386 51.92126 
L 302.80172 51.92126 
L 303.144544 48.605336 
L 303.429727 52.149845 
L 303.727749 52.149845 
L 304.083661 48.477743 
L 304.384972 51.588363 
L 304.707839 49.706782 
L 305.023624 49.161327 
L 305.359612 49.430366 
L 305.965003 46.163144 
L 306.261779 46.972574 
L 306.885453 46.00699 
L 307.196088 44.821576 
L 307.529993 45.948053 
L 307.855444 44.883444 
L 308.139199 44.3932 
L 308.710323 44.12206 
L 308.995186 45.825791 
L 309.283926 45.523459 
L 309.604059 45.523459 
L 309.908943 45.683745 
L 310.243298 44.765668 
L 310.533077 45.046043 
L 310.84526 43.797729 
L 311.148604 43.352251 
L 311.455986 43.352251 
L 311.768125 46.081077 
L 312.056839 46.081077 
L 312.348337 44.402812 
L 312.657812 46.132135 
L 312.961697 46.132135 
L 313.256827 45.64194 
L 313.540265 40.027923 
L 313.837104 39.626056 
L 314.173982 41.781889 
L 314.467837 41.409253 
L 314.742309 41.680527 
L 315.372091 40.835662 
L 315.72014 41.217619 
L 316.017238 40.867272 
L 316.338394 40.750939 
L 316.936364 39.030111 
L 317.279295 39.33177 
L 317.580873 39.75732 
L 317.873507 36.910258 
L 318.196758 40.168257 
L 318.787667 39.877792 
L 319.12489 37.661932 
L 319.436799 39.67701 
L 319.73911 39.820127 
L 320.089113 37.470629 
L 320.342606 37.892983 
L 320.670548 37.07929 
L 320.954664 35.448385 
L 321.275523 37.493019 
L 321.606697 36.040049 
L 321.958239 37.336173 
L 322.556572 37.217086 
L 322.879456 36.514661 
L 323.187793 37.094638 
L 323.491133 34.716351 
L 323.80329 36.536075 
L 324.13241 36.116882 
L 324.469632 36.763272 
L 324.755719 35.365459 
L 325.086989 34.536559 
L 325.361472 33.156891 
L 325.652403 32.327992 
L 325.940317 35.099502 
L 326.293678 32.239362 
L 326.583202 34.841975 
L 326.913215 31.521538 
L 327.263867 31.174998 
L 327.550777 31.659339 
L 328.195333 31.563472 
L 328.545875 31.792699 
L 328.811063 31.13573 
L 329.12515 31.13573 
L 329.445868 33.308339 
L 329.749519 31.61994 
L 330.103682 30.959636 
L 330.663655 30.959636 
L 330.896498 31.113659 
L 331.2209 31.038201 
L 331.518321 30.293309 
L 331.827161 27.83958 
L 332.115178 29.427463 
L 332.449207 29.427463 
L 332.774594 27.420592 
L 333.097584 29.30306 
L 333.380043 29.30306 
L 333.685143 30.730588 
L 334.002625 30.788929 
L 334.288455 27.493142 
L 334.621686 34.018753 
L 334.909689 33.731267 
L 335.245145 34.172206 
L 335.556293 31.271636 
L 335.855562 33.957245 
L 336.211504 29.350425 
L 336.472016 27.921463 
L 336.809591 27.958137 
L 337.109299 26.241832 
L 337.447822 26.241832 
L 337.741377 27.266741 
L 338.054287 27.128265 
L 338.385039 23.293958 
L 338.67241 22.474494 
L 338.978386 22.396049 
L 339.288987 22.474494 
L 339.914182 21.868807 
L 340.254949 21.868807 
L 340.559083 21.211998 
L 340.86001 21.211998 
L 341.21478 22.105993 
L 341.534059 21.184539 
L 342.762783 21.172413 
L 343.349422 20.923753 
L 344.802671 20.932569 
L 345.386052 20.424662 
L 345.71973 17.78999 
L 346.046246 20.182317 
L 346.633943 20.182317 
L 346.962181 17.28 
L 347.289415 19.655949 
L 347.596177 19.655949 
L 347.894438 19.383467 
L 348.196968 19.383467 
L 348.453935 19.513823 
L 348.749461 19.513823 
L 349.057172 18.931654 
L 349.376512 17.518807 
L 349.684943 17.318628 
L 349.684943 17.318628 
" clip-path="url(#p312c77beb2)" style="fill: none; stroke: #1f77b4; stroke-width: 1.5; stroke-linecap: square"/>
   </g>
   <g id="patch_3">
    <path d="M 30.103125 228.96 
L 30.103125 7.2 
" style="fill: none; stroke: #000000; stroke-width: 0.8; stroke-linejoin: miter; stroke-linecap: square"/>
   </g>
   <g id="patch_4">
    <path d="M 364.903125 228.96 
L 364.903125 7.2 
" style="fill: none; stroke: #000000; stroke-width: 0.8; stroke-linejoin: miter; stroke-linecap: square"/>
   </g>
   <g id="patch_5">
    <path d="M 30.103125 228.96 
L 364.903125 228.96 
" style="fill: none; stroke: #000000; stroke-width: 0.8; stroke-linejoin: miter; stroke-linecap: square"/>
   </g>
   <g id="patch_6">
    <path d="M 30.103125 7.2 
L 364.903125 7.2 
" style="fill: none; stroke: #000000; stroke-width: 0.8; stroke-linejoin: miter; stroke-linecap: square"/>
   </g>
   <g id="legend_1">
    <g id="patch_7">
     <path d="M 37.103125 29.878125 
L 190.492188 29.878125 
Q 192.492188 29.878125 192.492188 27.878125 
L 192.492188 14.2 
Q 192.492188 12.2 190.492188 12.2 
L 37.103125 12.2 
Q 35.103125 12.2 35.103125 14.2 
L 35.103125 27.878125 
Q 35.103125 29.878125 37.103125 29.878125 
z
" style="fill: #ffffff; opacity: 0.8; stroke: #cccccc; stroke-linejoin: miter"/>
    </g>
    <g id="line2d_14">
     <path d="M 39.103125 20.298437 
L 49.103125 20.298437 
L 59.103125 20.298437 
" style="fill: none; stroke: #1f77b4; stroke-width: 1.5; stroke-linecap: square"/>
    </g>
    <g id="text_13">
     <!-- node storage proportion -->
     <g transform="translate(67.103125 23.798437) scale(0.1 -0.1)">
      <defs>
       <path id="DejaVuSans-6e" d="M 3513 2113 
L 3513 0 
L 2938 0 
L 2938 2094 
Q 2938 2591 2744 2837 
Q 2550 3084 2163 3084 
Q 1697 3084 1428 2787 
Q 1159 2491 1159 1978 
L 1159 0 
L 581 0 
L 581 3500 
L 1159 3500 
L 1159 2956 
Q 1366 3272 1645 3428 
Q 1925 3584 2291 3584 
Q 2894 3584 3203 3211 
Q 3513 2838 3513 2113 
z
" transform="scale(0.015625)"/>
       <path id="DejaVuSans-6f" d="M 1959 3097 
Q 1497 3097 1228 2736 
Q 959 2375 959 1747 
Q 959 1119 1226 758 
Q 1494 397 1959 397 
Q 2419 397 2687 759 
Q 2956 1122 2956 1747 
Q 2956 2369 2687 2733 
Q 2419 3097 1959 3097 
z
M 1959 3584 
Q 2709 3584 3137 3096 
Q 3566 2609 3566 1747 
Q 3566 888 3137 398 
Q 2709 -91 1959 -91 
Q 1206 -91 779 398 
Q 353 888 353 1747 
Q 353 2609 779 3096 
Q 1206 3584 1959 3584 
z
" transform="scale(0.015625)"/>
       <path id="DejaVuSans-64" d="M 2906 2969 
L 2906 4863 
L 3481 4863 
L 3481 0 
L 2906 0 
L 2906 525 
Q 2725 213 2448 61 
Q 2172 -91 1784 -91 
Q 1150 -91 751 415 
Q 353 922 353 1747 
Q 353 2572 751 3078 
Q 1150 3584 1784 3584 
Q 2172 3584 2448 3432 
Q 2725 3281 2906 2969 
z
M 947 1747 
Q 947 1113 1208 752 
Q 1469 391 1925 391 
Q 2381 391 2643 752 
Q 2906 1113 2906 1747 
Q 2906 2381 2643 2742 
Q 2381 3103 1925 3103 
Q 1469 3103 1208 2742 
Q 947 2381 947 1747 
z
" transform="scale(0.015625)"/>
       <path id="DejaVuSans-65" d="M 3597 1894 
L 3597 1613 
L 953 1613 
Q 991 1019 1311 708 
Q 1631 397 2203 397 
Q 2534 397 2845 478 
Q 3156 559 3463 722 
L 3463 178 
Q 3153 47 2828 -22 
Q 2503 -91 2169 -91 
Q 1331 -91 842 396 
Q 353 884 353 1716 
Q 353 2575 817 3079 
Q 1281 3584 2069 3584 
Q 2775 3584 3186 3129 
Q 3597 2675 3597 1894 
z
M 3022 2063 
Q 3016 2534 2758 2815 
Q 2500 3097 2075 3097 
Q 1594 3097 1305 2825 
Q 1016 2553 972 2059 
L 3022 2063 
z
" transform="scale(0.015625)"/>
       <path id="DejaVuSans-20" transform="scale(0.015625)"/>
       <path id="DejaVuSans-73" d="M 2834 3397 
L 2834 2853 
Q 2591 2978 2328 3040 
Q 2066 3103 1784 3103 
Q 1356 3103 1142 2972 
Q 928 2841 928 2578 
Q 928 2378 1081 2264 
Q 1234 2150 1697 2047 
L 1894 2003 
Q 2506 1872 2764 1633 
Q 3022 1394 3022 966 
Q 3022 478 2636 193 
Q 2250 -91 1575 -91 
Q 1294 -91 989 -36 
Q 684 19 347 128 
L 347 722 
Q 666 556 975 473 
Q 1284 391 1588 391 
Q 1994 391 2212 530 
Q 2431 669 2431 922 
Q 2431 1156 2273 1281 
Q 2116 1406 1581 1522 
L 1381 1569 
Q 847 1681 609 1914 
Q 372 2147 372 2553 
Q 372 3047 722 3315 
Q 1072 3584 1716 3584 
Q 2034 3584 2315 3537 
Q 2597 3491 2834 3397 
z
" transform="scale(0.015625)"/>
       <path id="DejaVuSans-74" d="M 1172 4494 
L 1172 3500 
L 2356 3500 
L 2356 3053 
L 1172 3053 
L 1172 1153 
Q 1172 725 1289 603 
Q 1406 481 1766 481 
L 2356 481 
L 2356 0 
L 1766 0 
Q 1100 0 847 248 
Q 594 497 594 1153 
L 594 3053 
L 172 3053 
L 172 3500 
L 594 3500 
L 594 4494 
L 1172 4494 
z
" transform="scale(0.015625)"/>
       <path id="DejaVuSans-72" d="M 2631 2963 
Q 2534 3019 2420 3045 
Q 2306 3072 2169 3072 
Q 1681 3072 1420 2755 
Q 1159 2438 1159 1844 
L 1159 0 
L 581 0 
L 581 3500 
L 1159 3500 
L 1159 2956 
Q 1341 3275 1631 3429 
Q 1922 3584 2338 3584 
Q 2397 3584 2469 3576 
Q 2541 3569 2628 3553 
L 2631 2963 
z
" transform="scale(0.015625)"/>
       <path id="DejaVuSans-61" d="M 2194 1759 
Q 1497 1759 1228 1600 
Q 959 1441 959 1056 
Q 959 750 1161 570 
Q 1363 391 1709 391 
Q 2188 391 2477 730 
Q 2766 1069 2766 1631 
L 2766 1759 
L 2194 1759 
z
M 3341 1997 
L 3341 0 
L 2766 0 
L 2766 531 
Q 2569 213 2275 61 
Q 1981 -91 1556 -91 
Q 1019 -91 701 211 
Q 384 513 384 1019 
Q 384 1609 779 1909 
Q 1175 2209 1959 2209 
L 2766 2209 
L 2766 2266 
Q 2766 2663 2505 2880 
Q 2244 3097 1772 3097 
Q 1472 3097 1187 3025 
Q 903 2953 641 2809 
L 641 3341 
Q 956 3463 1253 3523 
Q 1550 3584 1831 3584 
Q 2591 3584 2966 3190 
Q 3341 2797 3341 1997 
z
" transform="scale(0.015625)"/>
       <path id="DejaVuSans-67" d="M 2906 1791 
Q 2906 2416 2648 2759 
Q 2391 3103 1925 3103 
Q 1463 3103 1205 2759 
Q 947 2416 947 1791 
Q 947 1169 1205 825 
Q 1463 481 1925 481 
Q 2391 481 2648 825 
Q 2906 1169 2906 1791 
z
M 3481 434 
Q 3481 -459 3084 -895 
Q 2688 -1331 1869 -1331 
Q 1566 -1331 1297 -1286 
Q 1028 -1241 775 -1147 
L 775 -588 
Q 1028 -725 1275 -790 
Q 1522 -856 1778 -856 
Q 2344 -856 2625 -561 
Q 2906 -266 2906 331 
L 2906 616 
Q 2728 306 2450 153 
Q 2172 0 1784 0 
Q 1141 0 747 490 
Q 353 981 353 1791 
Q 353 2603 747 3093 
Q 1141 3584 1784 3584 
Q 2172 3584 2450 3431 
Q 2728 3278 2906 2969 
L 2906 3500 
L 3481 3500 
L 3481 434 
z
" transform="scale(0.015625)"/>
       <path id="DejaVuSans-70" d="M 1159 525 
L 1159 -1331 
L 581 -1331 
L 581 3500 
L 1159 3500 
L 1159 2969 
Q 1341 3281 1617 3432 
Q 1894 3584 2278 3584 
Q 2916 3584 3314 3078 
Q 3713 2572 3713 1747 
Q 3713 922 3314 415 
Q 2916 -91 2278 -91 
Q 1894 -91 1617 61 
Q 1341 213 1159 525 
z
M 3116 1747 
Q 3116 2381 2855 2742 
Q 2594 3103 2138 3103 
Q 1681 3103 1420 2742 
Q 1159 2381 1159 1747 
Q 1159 1113 1420 752 
Q 1681 391 2138 391 
Q 2594 391 2855 752 
Q 3116 1113 3116 1747 
z
" transform="scale(0.015625)"/>
       <path id="DejaVuSans-69" d="M 603 3500 
L 1178 3500 
L 1178 0 
L 603 0 
L 603 3500 
z
M 603 4863 
L 1178 4863 
L 1178 4134 
L 603 4134 
L 603 4863 
z
" transform="scale(0.015625)"/>
      </defs>
      <use xlink:href="#DejaVuSans-6e"/>
      <use xlink:href="#DejaVuSans-6f" x="63.378906"/>
      <use xlink:href="#DejaVuSans-64" x="124.560547"/>
      <use xlink:href="#DejaVuSans-65" x="188.037109"/>
      <use xlink:href="#DejaVuSans-20" x="249.560547"/>
      <use xlink:href="#DejaVuSans-73" x="281.347656"/>
      <use xlink:href="#DejaVuSans-74" x="333.447266"/>
      <use xlink:href="#DejaVuSans-6f" x="372.65625"/>
      <use xlink:href="#DejaVuSans-72" x="433.837891"/>
      <use xlink:href="#DejaVuSans-61" x="474.951172"/>
      <use xlink:href="#DejaVuSans-67" x="536.230469"/>
      <use xlink:href="#DejaVuSans-65" x="599.707031"/>
      <use xlink:href="#DejaVuSans-20" x="661.230469"/>
      <use xlink:href="#DejaVuSans-70" x="693.017578"/>
      <use xlink:href="#DejaVuSans-72" x="756.494141"/>
      <use xlink:href="#DejaVuSans-6f" x="795.357422"/>
      <use xlink:href="#DejaVuSans-70" x="856.539062"/>
      <use xlink:href="#DejaVuSans-6f" x="920.015625"/>
      <use xlink:href="#DejaVuSans-72" x="981.197266"/>
      <use xlink:href="#DejaVuSans-74" x="1022.310547"/>
      <use xlink:href="#DejaVuSans-69" x="1061.519531"/>
      <use xlink:href="#DejaVuSans-6f" x="1089.302734"/>
      <use xlink:href="#DejaVuSans-6e" x="1150.484375"/>
     </g>
    </g>
   </g>
  </g>
 </g>
 <defs>
  <clipPath id="p312c77beb2">
   <rect x="30.103125" y="7.2" width="334.8" height="221.76"/>
  </clipPath>
 </defs>
</svg>
