<?xml version="1.0" encoding="utf-8" standalone="no"?>
<!DOCTYPE svg PUBLIC "-//W3C//DTD SVG 1.1//EN"
  "http://www.w3.org/Graphics/SVG/1.1/DTD/svg11.dtd">
<svg xmlns:xlink="http://www.w3.org/1999/xlink" width="368.925pt" height="252.838125pt" viewBox="0 0 368.925 252.838125" xmlns="http://www.w3.org/2000/svg" version="1.1">
 <metadata>
  <rdf:RDF xmlns:dc="http://purl.org/dc/elements/1.1/" xmlns:cc="http://creativecommons.org/ns#" xmlns:rdf="http://www.w3.org/1999/02/22-rdf-syntax-ns#">
   <cc:Work>
    <dc:type rdf:resource="http://purl.org/dc/dcmitype/StillImage"/>
    <dc:date>2023-04-19T15:36:50.983475</dc:date>
    <dc:format>image/svg+xml</dc:format>
    <dc:creator>
     <cc:Agent>
      <dc:title>Matplotlib v3.6.2, https://matplotlib.org/</dc:title>
     </cc:Agent>
    </dc:creator>
   </cc:Work>
  </rdf:RDF>
 </metadata>
 <defs>
  <style type="text/css">*{stroke-linejoin: round; stroke-linecap: butt}</style>
 </defs>
 <g id="figure_1">
  <g id="patch_1">
   <path d="M -0 252.838125 
L 368.925 252.838125 
L 368.925 0 
L -0 0 
z
" style="fill: #ffffff"/>
  </g>
  <g id="axes_1">
   <g id="patch_2">
    <path d="M 26.925 228.96 
L 361.725 228.96 
L 361.725 7.2 
L 26.925 7.2 
z
" style="fill: #ffffff"/>
   </g>
   <g id="matplotlib.axis_1">
    <g id="xtick_1">
     <g id="line2d_1">
      <defs>
       <path id="mb4399d52f6" d="M 0 0 
L 0 3.5 
" style="stroke: #000000; stroke-width: 0.8"/>
      </defs>
      <g>
       <use xlink:href="#mb4399d52f6" x="42.143182" y="228.96" style="stroke: #000000; stroke-width: 0.8"/>
      </g>
     </g>
     <g id="text_1">
      <!-- 0 -->
      <g transform="translate(38.961932 243.558437) scale(0.1 -0.1)">
       <defs>
        <path id="DejaVuSans-30" d="M 2034 4250 
Q 1547 4250 1301 3770 
Q 1056 3291 1056 2328 
Q 1056 1369 1301 889 
Q 1547 409 2034 409 
Q 2525 409 2770 889 
Q 3016 1369 3016 2328 
Q 3016 3291 2770 3770 
Q 2525 4250 2034 4250 
z
M 2034 4750 
Q 2819 4750 3233 4129 
Q 3647 3509 3647 2328 
Q 3647 1150 3233 529 
Q 2819 -91 2034 -91 
Q 1250 -91 836 529 
Q 422 1150 422 2328 
Q 422 3509 836 4129 
Q 1250 4750 2034 4750 
z
" transform="scale(0.015625)"/>
       </defs>
       <use xlink:href="#DejaVuSans-30"/>
      </g>
     </g>
    </g>
    <g id="xtick_2">
     <g id="line2d_2">
      <g>
       <use xlink:href="#mb4399d52f6" x="103.015909" y="228.96" style="stroke: #000000; stroke-width: 0.8"/>
      </g>
     </g>
     <g id="text_2">
      <!-- 200 -->
      <g transform="translate(93.472159 243.558437) scale(0.1 -0.1)">
       <defs>
        <path id="DejaVuSans-32" d="M 1228 531 
L 3431 531 
L 3431 0 
L 469 0 
L 469 531 
Q 828 903 1448 1529 
Q 2069 2156 2228 2338 
Q 2531 2678 2651 2914 
Q 2772 3150 2772 3378 
Q 2772 3750 2511 3984 
Q 2250 4219 1831 4219 
Q 1534 4219 1204 4116 
Q 875 4013 500 3803 
L 500 4441 
Q 881 4594 1212 4672 
Q 1544 4750 1819 4750 
Q 2544 4750 2975 4387 
Q 3406 4025 3406 3419 
Q 3406 3131 3298 2873 
Q 3191 2616 2906 2266 
Q 2828 2175 2409 1742 
Q 1991 1309 1228 531 
z
" transform="scale(0.015625)"/>
       </defs>
       <use xlink:href="#DejaVuSans-32"/>
       <use xlink:href="#DejaVuSans-30" x="63.623047"/>
       <use xlink:href="#DejaVuSans-30" x="127.246094"/>
      </g>
     </g>
    </g>
    <g id="xtick_3">
     <g id="line2d_3">
      <g>
       <use xlink:href="#mb4399d52f6" x="163.888636" y="228.96" style="stroke: #000000; stroke-width: 0.8"/>
      </g>
     </g>
     <g id="text_3">
      <!-- 400 -->
      <g transform="translate(154.344886 243.558437) scale(0.1 -0.1)">
       <defs>
        <path id="DejaVuSans-34" d="M 2419 4116 
L 825 1625 
L 2419 1625 
L 2419 4116 
z
M 2253 4666 
L 3047 4666 
L 3047 1625 
L 3713 1625 
L 3713 1100 
L 3047 1100 
L 3047 0 
L 2419 0 
L 2419 1100 
L 313 1100 
L 313 1709 
L 2253 4666 
z
" transform="scale(0.015625)"/>
       </defs>
       <use xlink:href="#DejaVuSans-34"/>
       <use xlink:href="#DejaVuSans-30" x="63.623047"/>
       <use xlink:href="#DejaVuSans-30" x="127.246094"/>
      </g>
     </g>
    </g>
    <g id="xtick_4">
     <g id="line2d_4">
      <g>
       <use xlink:href="#mb4399d52f6" x="224.761364" y="228.96" style="stroke: #000000; stroke-width: 0.8"/>
      </g>
     </g>
     <g id="text_4">
      <!-- 600 -->
      <g transform="translate(215.217614 243.558437) scale(0.1 -0.1)">
       <defs>
        <path id="DejaVuSans-36" d="M 2113 2584 
Q 1688 2584 1439 2293 
Q 1191 2003 1191 1497 
Q 1191 994 1439 701 
Q 1688 409 2113 409 
Q 2538 409 2786 701 
Q 3034 994 3034 1497 
Q 3034 2003 2786 2293 
Q 2538 2584 2113 2584 
z
M 3366 4563 
L 3366 3988 
Q 3128 4100 2886 4159 
Q 2644 4219 2406 4219 
Q 1781 4219 1451 3797 
Q 1122 3375 1075 2522 
Q 1259 2794 1537 2939 
Q 1816 3084 2150 3084 
Q 2853 3084 3261 2657 
Q 3669 2231 3669 1497 
Q 3669 778 3244 343 
Q 2819 -91 2113 -91 
Q 1303 -91 875 529 
Q 447 1150 447 2328 
Q 447 3434 972 4092 
Q 1497 4750 2381 4750 
Q 2619 4750 2861 4703 
Q 3103 4656 3366 4563 
z
" transform="scale(0.015625)"/>
       </defs>
       <use xlink:href="#DejaVuSans-36"/>
       <use xlink:href="#DejaVuSans-30" x="63.623047"/>
       <use xlink:href="#DejaVuSans-30" x="127.246094"/>
      </g>
     </g>
    </g>
    <g id="xtick_5">
     <g id="line2d_5">
      <g>
       <use xlink:href="#mb4399d52f6" x="285.634091" y="228.96" style="stroke: #000000; stroke-width: 0.8"/>
      </g>
     </g>
     <g id="text_5">
      <!-- 800 -->
      <g transform="translate(276.090341 243.558437) scale(0.1 -0.1)">
       <defs>
        <path id="DejaVuSans-38" d="M 2034 2216 
Q 1584 2216 1326 1975 
Q 1069 1734 1069 1313 
Q 1069 891 1326 650 
Q 1584 409 2034 409 
Q 2484 409 2743 651 
Q 3003 894 3003 1313 
Q 3003 1734 2745 1975 
Q 2488 2216 2034 2216 
z
M 1403 2484 
Q 997 2584 770 2862 
Q 544 3141 544 3541 
Q 544 4100 942 4425 
Q 1341 4750 2034 4750 
Q 2731 4750 3128 4425 
Q 3525 4100 3525 3541 
Q 3525 3141 3298 2862 
Q 3072 2584 2669 2484 
Q 3125 2378 3379 2068 
Q 3634 1759 3634 1313 
Q 3634 634 3220 271 
Q 2806 -91 2034 -91 
Q 1263 -91 848 271 
Q 434 634 434 1313 
Q 434 1759 690 2068 
Q 947 2378 1403 2484 
z
M 1172 3481 
Q 1172 3119 1398 2916 
Q 1625 2713 2034 2713 
Q 2441 2713 2670 2916 
Q 2900 3119 2900 3481 
Q 2900 3844 2670 4047 
Q 2441 4250 2034 4250 
Q 1625 4250 1398 4047 
Q 1172 3844 1172 3481 
z
" transform="scale(0.015625)"/>
       </defs>
       <use xlink:href="#DejaVuSans-38"/>
       <use xlink:href="#DejaVuSans-30" x="63.623047"/>
       <use xlink:href="#DejaVuSans-30" x="127.246094"/>
      </g>
     </g>
    </g>
    <g id="xtick_6">
     <g id="line2d_6">
      <g>
       <use xlink:href="#mb4399d52f6" x="346.506818" y="228.96" style="stroke: #000000; stroke-width: 0.8"/>
      </g>
     </g>
     <g id="text_6">
      <!-- 1000 -->
      <g transform="translate(333.781818 243.558437) scale(0.1 -0.1)">
       <defs>
        <path id="DejaVuSans-31" d="M 794 531 
L 1825 531 
L 1825 4091 
L 703 3866 
L 703 4441 
L 1819 4666 
L 2450 4666 
L 2450 531 
L 3481 531 
L 3481 0 
L 794 0 
L 794 531 
z
" transform="scale(0.015625)"/>
       </defs>
       <use xlink:href="#DejaVuSans-31"/>
       <use xlink:href="#DejaVuSans-30" x="63.623047"/>
       <use xlink:href="#DejaVuSans-30" x="127.246094"/>
       <use xlink:href="#DejaVuSans-30" x="190.869141"/>
      </g>
     </g>
    </g>
   </g>
   <g id="matplotlib.axis_2">
    <g id="ytick_1">
     <g id="line2d_7">
      <defs>
       <path id="m1977d1f704" d="M 0 0 
L -3.5 0 
" style="stroke: #000000; stroke-width: 0.8"/>
      </defs>
      <g>
       <use xlink:href="#m1977d1f704" x="26.925" y="206.16137" style="stroke: #000000; stroke-width: 0.8"/>
      </g>
     </g>
     <g id="text_7">
      <!-- 2 -->
      <g transform="translate(13.5625 209.960589) scale(0.1 -0.1)">
       <use xlink:href="#DejaVuSans-32"/>
      </g>
     </g>
    </g>
    <g id="ytick_2">
     <g id="line2d_8">
      <g>
       <use xlink:href="#m1977d1f704" x="26.925" y="167.304953" style="stroke: #000000; stroke-width: 0.8"/>
      </g>
     </g>
     <g id="text_8">
      <!-- 4 -->
      <g transform="translate(13.5625 171.104171) scale(0.1 -0.1)">
       <use xlink:href="#DejaVuSans-34"/>
      </g>
     </g>
    </g>
    <g id="ytick_3">
     <g id="line2d_9">
      <g>
       <use xlink:href="#m1977d1f704" x="26.925" y="128.448535" style="stroke: #000000; stroke-width: 0.8"/>
      </g>
     </g>
     <g id="text_9">
      <!-- 6 -->
      <g transform="translate(13.5625 132.247754) scale(0.1 -0.1)">
       <use xlink:href="#DejaVuSans-36"/>
      </g>
     </g>
    </g>
    <g id="ytick_4">
     <g id="line2d_10">
      <g>
       <use xlink:href="#m1977d1f704" x="26.925" y="89.592117" style="stroke: #000000; stroke-width: 0.8"/>
      </g>
     </g>
     <g id="text_10">
      <!-- 8 -->
      <g transform="translate(13.5625 93.391336) scale(0.1 -0.1)">
       <use xlink:href="#DejaVuSans-38"/>
      </g>
     </g>
    </g>
    <g id="ytick_5">
     <g id="line2d_11">
      <g>
       <use xlink:href="#m1977d1f704" x="26.925" y="50.7357" style="stroke: #000000; stroke-width: 0.8"/>
      </g>
     </g>
     <g id="text_11">
      <!-- 10 -->
      <g transform="translate(7.2 54.534918) scale(0.1 -0.1)">
       <use xlink:href="#DejaVuSans-31"/>
       <use xlink:href="#DejaVuSans-30" x="63.623047"/>
      </g>
     </g>
    </g>
    <g id="ytick_6">
     <g id="line2d_12">
      <g>
       <use xlink:href="#m1977d1f704" x="26.925" y="11.879282" style="stroke: #000000; stroke-width: 0.8"/>
      </g>
     </g>
     <g id="text_12">
      <!-- 12 -->
      <g transform="translate(7.2 15.678501) scale(0.1 -0.1)">
       <use xlink:href="#DejaVuSans-31"/>
       <use xlink:href="#DejaVuSans-32" x="63.623047"/>
      </g>
     </g>
    </g>
   </g>
   <g id="line2d_13">
    <path d="M 42.143182 218.332284 
L 42.447545 218.332284 
L 42.751909 218.88 
L 43.056273 218.253705 
L 43.360636 217.940813 
L 43.665 208.19796 
L 43.969364 205.587262 
L 44.273727 209.806625 
L 44.578091 218.090489 
L 44.882455 218.090489 
L 45.491182 214.685315 
L 45.795545 216.648764 
L 46.099909 216.04241 
L 46.404273 214.565902 
L 46.708636 211.856015 
L 47.013 205.543809 
L 47.317364 205.398281 
L 47.621727 213.361886 
L 47.926091 211.239053 
L 48.230455 210.428379 
L 48.534818 208.252213 
L 48.839182 208.943023 
L 49.143545 204.927994 
L 49.447909 214.071374 
L 49.752273 199.849249 
L 50.361 209.995866 
L 50.665364 198.038041 
L 50.969727 217.144668 
L 51.274091 217.144668 
L 51.578455 212.649615 
L 51.882818 211.509196 
L 52.187182 212.501173 
L 52.491545 205.168571 
L 52.795909 205.168571 
L 53.100273 215.049388 
L 53.404636 215.049388 
L 54.013364 211.871306 
L 54.317727 205.431871 
L 54.622091 208.571473 
L 54.926455 204.798294 
L 55.230818 204.914956 
L 55.535182 209.203149 
L 56.143909 205.931705 
L 56.448273 209.61917 
L 56.752636 206.881188 
L 57.057 211.990941 
L 57.361364 211.806298 
L 57.970091 211.773301 
L 58.274455 211.96822 
L 58.578818 211.438633 
L 59.491909 211.358801 
L 59.796273 210.360078 
L 60.405 210.360078 
L 61.013727 205.024644 
L 61.318091 207.06932 
L 61.622455 206.571388 
L 61.926818 202.428604 
L 62.231182 209.076365 
L 62.535545 207.751334 
L 62.839909 207.751334 
L 63.144273 205.073691 
L 63.448636 205.503092 
L 63.753 205.503092 
L 64.057364 205.788868 
L 64.361727 207.782338 
L 64.666091 208.724488 
L 64.970455 210.367685 
L 65.274818 206.906926 
L 65.579182 207.917924 
L 65.883545 206.406871 
L 66.187909 209.022761 
L 66.492273 209.381428 
L 66.796636 208.263145 
L 67.101 207.727541 
L 67.405364 205.9343 
L 68.014091 205.866974 
L 68.318455 206.521961 
L 68.622818 206.521961 
L 68.927182 208.661461 
L 69.535909 208.295842 
L 69.840273 207.33664 
L 70.144636 205.164785 
L 70.753364 205.164785 
L 71.057727 208.765046 
L 71.362091 197.871903 
L 71.666455 197.871903 
L 71.970818 198.176696 
L 72.275182 203.946697 
L 72.579545 204.202976 
L 72.883909 206.718576 
L 73.188273 207.487313 
L 73.797 201.512306 
L 74.101364 201.758629 
L 74.405727 201.301289 
L 74.710091 197.201359 
L 75.014455 203.422161 
L 75.318818 198.680928 
L 75.623182 199.280729 
L 76.231909 204.661538 
L 77.145 205.843167 
L 77.449364 206.562867 
L 77.753727 196.903071 
L 78.058091 206.617171 
L 78.362455 206.604318 
L 78.666818 198.075023 
L 78.971182 206.573207 
L 79.275545 207.713338 
L 79.579909 202.970793 
L 79.884273 202.970793 
L 80.188636 198.888742 
L 80.493 201.719842 
L 80.797364 202.859995 
L 81.101727 205.209662 
L 81.406091 199.671279 
L 81.710455 201.822552 
L 82.014818 195.214248 
L 82.319182 202.374245 
L 82.623545 192.706141 
L 83.232273 192.571794 
L 83.536636 196.729358 
L 83.841 195.596287 
L 84.145364 195.596287 
L 84.449727 192.438444 
L 84.754091 192.293994 
L 85.058455 194.270265 
L 85.362818 193.931629 
L 85.667182 195.151699 
L 85.971545 191.74493 
L 86.275909 191.204368 
L 86.580273 192.679709 
L 86.884636 195.59908 
L 87.189 195.32567 
L 87.493364 195.456053 
L 87.797727 195.920869 
L 88.102091 197.000566 
L 88.406455 199.377922 
L 88.710818 197.33262 
L 89.015182 194.315844 
L 89.319545 195.119369 
L 89.928273 195.069954 
L 90.232636 193.76889 
L 90.537 193.421197 
L 90.841364 194.861536 
L 91.145727 196.943763 
L 91.450091 196.928672 
L 91.754455 199.211373 
L 92.058818 192.101229 
L 92.363182 190.249815 
L 92.667545 195.016961 
L 92.971909 197.338724 
L 93.276273 197.316582 
L 93.580636 191.958582 
L 93.885 192.81054 
L 94.189364 194.72578 
L 94.493727 194.672162 
L 94.798091 188.489539 
L 95.102455 190.31209 
L 95.406818 190.31209 
L 95.711182 191.967041 
L 96.015545 192.138233 
L 96.319909 195.034064 
L 96.624273 195.034064 
L 96.928636 193.18618 
L 97.537364 192.729979 
L 97.841727 192.580613 
L 98.146091 192.601815 
L 98.450455 192.160727 
L 99.059182 192.809417 
L 99.667909 192.138409 
L 99.972273 192.210954 
L 100.276636 192.140458 
L 100.581 192.648689 
L 101.189727 192.187181 
L 101.494091 192.187181 
L 101.798455 192.0161 
L 102.102818 189.527832 
L 102.711545 189.527832 
L 103.015909 190.697639 
L 103.320273 189.522129 
L 103.624636 192.098863 
L 103.929 189.081063 
L 104.233364 189.081063 
L 104.537727 187.000094 
L 104.842091 189.739197 
L 105.146455 189.206636 
L 105.450818 191.443412 
L 105.755182 189.145403 
L 106.059545 185.420603 
L 106.363909 187.439334 
L 106.668273 186.515424 
L 107.581364 185.919346 
L 107.885727 181.127973 
L 108.190091 182.392491 
L 108.494455 189.006882 
L 108.798818 189.006882 
L 109.103182 187.96087 
L 109.407545 193.987648 
L 109.711909 191.199215 
L 110.016273 189.830729 
L 110.320636 189.830729 
L 110.625 185.160585 
L 110.929364 185.037072 
L 111.233727 186.514379 
L 111.538091 189.939851 
L 111.842455 190.458586 
L 112.146818 190.458586 
L 112.451182 186.156067 
L 112.755545 186.105779 
L 113.059909 185.819244 
L 113.364273 185.819244 
L 113.668636 185.648138 
L 113.973 179.54394 
L 114.277364 190.509689 
L 114.581727 185.391887 
L 114.886091 190.294747 
L 115.190455 190.219834 
L 115.494818 187.370231 
L 115.799182 187.290753 
L 116.103545 192.360395 
L 116.407909 191.278221 
L 116.712273 190.907327 
L 117.016636 190.869169 
L 117.321 187.71687 
L 117.625364 179.237202 
L 117.929727 186.932999 
L 118.234091 184.596135 
L 118.538455 183.49295 
L 118.842818 185.011661 
L 119.451545 184.73724 
L 119.755909 183.08296 
L 120.060273 183.24206 
L 120.364636 186.497415 
L 120.669 187.449851 
L 120.973364 189.175238 
L 121.277727 183.939959 
L 121.582091 183.324906 
L 121.886455 184.471147 
L 122.190818 176.7448 
L 122.495182 181.989938 
L 122.799545 176.566016 
L 123.103909 176.365312 
L 123.408273 171.031725 
L 123.712636 181.141348 
L 124.017 182.900033 
L 124.321364 181.569314 
L 124.625727 183.237116 
L 124.930091 180.503234 
L 125.234455 178.977427 
L 125.538818 184.475414 
L 125.843182 184.475414 
L 126.147545 184.361708 
L 126.451909 183.825621 
L 126.756273 183.772488 
L 127.060636 183.959506 
L 127.365 181.363599 
L 128.278091 181.24688 
L 128.582455 180.983245 
L 128.886818 181.429697 
L 129.191182 177.805377 
L 129.495545 181.761953 
L 129.799909 181.761953 
L 130.104273 181.986765 
L 130.408636 185.452851 
L 130.713 185.098648 
L 131.017364 183.728467 
L 131.321727 183.536548 
L 131.626091 184.01753 
L 132.234818 177.025636 
L 132.539182 182.699668 
L 132.843545 182.699668 
L 133.452273 183.174382 
L 133.756636 170.897239 
L 134.061 184.902673 
L 134.365364 177.858777 
L 134.669727 180.288696 
L 135.278455 171.503973 
L 135.582818 171.689952 
L 135.887182 175.196405 
L 136.191545 175.350434 
L 136.495909 177.059501 
L 137.104636 177.083631 
L 137.409 179.65366 
L 137.713364 179.184442 
L 138.017727 186.429911 
L 138.322091 185.970205 
L 139.235182 185.656831 
L 139.539545 182.779578 
L 139.843909 182.917047 
L 140.148273 178.43142 
L 140.452636 178.464151 
L 140.757 179.021418 
L 141.061364 174.674798 
L 141.365727 176.997417 
L 141.670091 168.582632 
L 141.974455 168.787113 
L 142.278818 171.805234 
L 142.887545 171.73066 
L 143.191909 171.538939 
L 143.496273 170.996252 
L 143.800636 170.961605 
L 144.105 171.195762 
L 144.409364 171.195762 
L 144.713727 174.304462 
L 145.018091 172.151043 
L 145.322455 172.137331 
L 145.626818 172.403336 
L 145.931182 177.841615 
L 146.235545 165.407937 
L 146.539909 174.910436 
L 146.844273 174.910436 
L 147.148636 177.758712 
L 147.453 177.613265 
L 147.757364 173.761991 
L 148.061727 180.304867 
L 148.366091 176.487474 
L 148.670455 163.630989 
L 149.279182 172.423625 
L 149.887909 172.163091 
L 150.192273 178.914775 
L 150.496636 178.60216 
L 150.801 178.60216 
L 151.105364 172.308469 
L 151.409727 178.951899 
L 151.714091 178.669513 
L 152.018455 172.107092 
L 152.322818 176.673219 
L 152.627182 168.285744 
L 152.931545 176.043991 
L 153.235909 175.586024 
L 153.540273 175.3477 
L 154.149 175.445482 
L 154.453364 165.90579 
L 154.757727 163.048028 
L 155.062091 170.702714 
L 155.366455 159.400278 
L 155.670818 167.232411 
L 155.975182 167.196955 
L 156.279545 167.594052 
L 156.583909 167.38943 
L 156.888273 165.471376 
L 157.192636 165.493375 
L 157.497 167.441311 
L 157.801364 167.434509 
L 158.105727 161.519666 
L 158.410091 161.519666 
L 159.018818 168.50247 
L 159.323182 164.074814 
L 159.627545 164.991734 
L 159.931909 165.10912 
L 160.236273 163.858124 
L 160.845 163.967422 
L 161.149364 163.99883 
L 161.453727 164.640788 
L 161.758091 161.511032 
L 162.062455 167.315823 
L 162.671182 167.180228 
L 162.975545 167.414299 
L 163.279909 156.055034 
L 163.584273 157.210918 
L 164.193 164.776009 
L 164.801727 164.244489 
L 165.106091 164.197832 
L 165.410455 160.444625 
L 165.714818 159.782559 
L 166.019182 159.66232 
L 166.323545 159.379991 
L 166.627909 159.379991 
L 166.932273 151.476905 
L 167.236636 163.478647 
L 167.541 159.787797 
L 167.845364 160.437405 
L 168.454091 160.470613 
L 168.758455 155.253284 
L 169.062818 162.089975 
L 169.367182 162.241449 
L 169.671545 159.770334 
L 169.975909 159.755087 
L 170.280273 159.521017 
L 170.584636 166.508801 
L 170.889 166.355536 
L 171.193364 156.013106 
L 171.497727 162.197831 
L 171.802091 159.988792 
L 172.106455 162.018994 
L 172.410818 156.383953 
L 172.715182 156.237199 
L 173.019545 154.438992 
L 173.323909 153.794527 
L 173.628273 153.459472 
L 173.932636 154.252708 
L 174.237 153.977103 
L 174.541364 159.015244 
L 174.845727 159.569417 
L 175.150091 159.638121 
L 175.454455 164.908258 
L 175.758818 147.314465 
L 176.063182 147.46451 
L 176.367545 150.290229 
L 176.976273 150.158674 
L 177.280636 146.747117 
L 177.585 147.257442 
L 177.889364 147.144235 
L 178.193727 146.683392 
L 178.498091 147.061339 
L 178.802455 153.868417 
L 179.106818 148.479865 
L 179.411182 148.479865 
L 179.715545 148.21777 
L 180.019909 149.059476 
L 180.324273 148.962831 
L 180.628636 148.58807 
L 180.933 148.881418 
L 181.237364 138.234076 
L 181.541727 138.234076 
L 181.846091 139.191629 
L 182.454818 138.636857 
L 182.759182 137.757161 
L 183.063545 145.675442 
L 183.367909 138.934836 
L 183.672273 145.106747 
L 183.976636 138.876551 
L 184.281 147.992662 
L 184.585364 148.550028 
L 184.889727 148.672242 
L 185.498455 137.567617 
L 185.802818 137.503734 
L 186.107182 142.984894 
L 186.411545 142.93805 
L 186.715909 146.607647 
L 187.020273 148.220736 
L 187.324636 148.144873 
L 187.629 147.888589 
L 188.237727 147.957664 
L 188.542091 147.273493 
L 189.150818 147.273493 
L 189.455182 146.477761 
L 189.759545 146.006478 
L 190.063909 146.511705 
L 190.368273 146.235525 
L 190.977 146.148475 
L 191.281364 146.096021 
L 191.585727 146.517558 
L 191.890091 147.859674 
L 192.194455 146.318236 
L 192.498818 145.816247 
L 192.803182 147.865889 
L 193.107545 138.778652 
L 193.411909 138.778652 
L 193.716273 147.311343 
L 194.020636 147.311343 
L 194.629364 147.423451 
L 194.933727 147.290433 
L 195.542455 147.183937 
L 195.846818 143.768558 
L 196.455545 142.980757 
L 196.759909 145.664769 
L 197.064273 146.212926 
L 197.368636 142.731661 
L 197.977364 143.764872 
L 198.586091 142.99063 
L 198.890455 143.516268 
L 199.194818 142.856681 
L 199.499182 142.856681 
L 199.803545 142.62985 
L 200.107909 142.604911 
L 200.412273 146.256215 
L 200.716636 143.443107 
L 201.021 143.443107 
L 201.325364 146.408725 
L 201.629727 146.612024 
L 201.934091 146.612024 
L 202.238455 142.586515 
L 202.542818 142.370287 
L 202.847182 133.751371 
L 203.455909 133.722563 
L 203.760273 146.792854 
L 204.064636 146.373343 
L 204.369 146.373343 
L 204.673364 152.645977 
L 204.977727 142.596544 
L 205.282091 143.098845 
L 205.586455 143.148667 
L 205.890818 146.988076 
L 206.195182 146.988076 
L 206.499545 149.357474 
L 207.108273 137.89805 
L 207.412636 146.581372 
L 207.717 144.847577 
L 208.021364 143.811084 
L 208.325727 136.273594 
L 208.630091 144.398313 
L 208.934455 145.501816 
L 209.238818 145.163451 
L 209.543182 145.897665 
L 209.847545 143.979553 
L 210.151909 145.420963 
L 210.760636 145.330692 
L 211.065 145.664618 
L 211.369364 144.78298 
L 211.673727 144.653514 
L 211.978091 144.005967 
L 212.282455 144.480782 
L 212.586818 144.139489 
L 212.891182 140.786027 
L 213.195545 144.07381 
L 213.499909 143.469967 
L 213.804273 143.469967 
L 214.108636 144.115769 
L 214.413 144.015536 
L 214.717364 144.854175 
L 215.021727 144.854175 
L 215.326091 144.390786 
L 215.630455 143.674347 
L 215.934818 139.054802 
L 216.239182 144.375345 
L 216.543545 144.137175 
L 216.847909 144.484503 
L 217.761 144.442087 
L 218.065364 143.434776 
L 218.369727 143.434776 
L 218.978455 142.51973 
L 219.282818 142.51973 
L 219.587182 137.995694 
L 219.891545 136.585624 
L 220.195909 137.370184 
L 220.500273 144.560214 
L 220.804636 144.47766 
L 221.109 144.197078 
L 221.413364 138.866871 
L 221.717727 138.89483 
L 222.022091 142.592876 
L 222.326455 142.592876 
L 222.630818 143.948538 
L 222.935182 144.435336 
L 223.239545 144.442416 
L 223.543909 143.708892 
L 223.848273 143.877831 
L 224.152636 143.395537 
L 224.457 143.568009 
L 224.761364 138.409717 
L 225.065727 138.039761 
L 225.370091 127.347178 
L 225.674455 136.701712 
L 225.978818 137.585024 
L 226.283182 136.488663 
L 226.587545 136.785801 
L 226.891909 136.294744 
L 227.196273 136.131017 
L 227.805 136.730293 
L 228.109364 129.6136 
L 228.413727 130.185001 
L 228.718091 129.050925 
L 229.326818 129.140531 
L 229.631182 133.517895 
L 229.935545 139.868202 
L 230.239909 139.237262 
L 230.544273 134.515446 
L 230.848636 134.042963 
L 231.153 134.304924 
L 231.457364 134.304924 
L 231.761727 134.932858 
L 232.066091 134.899161 
L 232.370455 135.529264 
L 233.283545 135.421082 
L 233.587909 134.421419 
L 233.892273 133.893962 
L 234.196636 133.673719 
L 234.501 133.673719 
L 235.109727 133.315458 
L 235.414091 132.90305 
L 236.022818 133.559944 
L 236.327182 137.581443 
L 236.631545 136.671128 
L 236.935909 126.825802 
L 237.240273 137.856911 
L 237.544636 133.210799 
L 237.849 132.001208 
L 238.153364 132.348249 
L 238.762091 131.19813 
L 239.066455 133.801178 
L 239.675182 133.171766 
L 239.979545 133.589742 
L 240.283909 133.116431 
L 240.588273 126.397918 
L 240.892636 126.159602 
L 241.197 132.448733 
L 241.501364 132.262277 
L 241.805727 134.786504 
L 242.110091 129.158132 
L 242.414455 134.19809 
L 242.718818 117.108234 
L 243.023182 121.51849 
L 243.327545 131.808185 
L 243.631909 133.053062 
L 243.936273 127.691679 
L 244.240636 127.537309 
L 244.545 127.537309 
L 244.849364 132.807576 
L 245.458091 131.657464 
L 245.762455 138.131377 
L 246.066818 137.284153 
L 246.371182 137.284153 
L 246.675545 137.689902 
L 246.979909 137.025307 
L 247.284273 137.152868 
L 247.588636 131.463212 
L 247.893 131.463212 
L 248.197364 127.591875 
L 248.501727 137.276981 
L 248.806091 138.478281 
L 249.110455 137.432331 
L 249.414818 137.058052 
L 249.719182 129.434812 
L 250.023545 129.562372 
L 250.327909 128.413118 
L 251.241 128.217026 
L 251.545364 118.693367 
L 251.849727 128.218239 
L 252.154091 128.218239 
L 252.458455 128.04993 
L 252.762818 115.991814 
L 253.067182 114.991716 
L 253.371545 138.51099 
L 253.675909 134.777747 
L 253.980273 137.1232 
L 254.284636 135.284051 
L 254.589 135.227381 
L 254.893364 130.857547 
L 255.197727 131.634697 
L 255.502091 131.634697 
L 255.806455 111.91662 
L 256.110818 123.895515 
L 256.415182 123.645222 
L 256.719545 121.66407 
L 257.023909 123.080738 
L 257.328273 122.606785 
L 257.937 123.124259 
L 258.241364 133.035305 
L 258.545727 129.101275 
L 258.850091 128.568711 
L 259.154455 128.356581 
L 259.458818 118.381034 
L 259.763182 119.380842 
L 260.067545 118.953039 
L 260.371909 123.214947 
L 260.676273 118.848071 
L 260.980636 116.796977 
L 261.285 116.796977 
L 261.589364 128.061358 
L 261.893727 128.061358 
L 262.198091 128.605323 
L 262.502455 128.732156 
L 262.806818 128.6303 
L 263.111182 122.254773 
L 263.719909 122.312473 
L 264.024273 127.311368 
L 264.328636 121.897383 
L 264.937364 118.753801 
L 265.241727 118.65646 
L 265.546091 118.91607 
L 265.850455 121.266786 
L 266.154818 125.443776 
L 266.459182 125.558076 
L 266.763545 124.984023 
L 267.067909 119.992637 
L 267.372273 123.102697 
L 267.676636 121.668319 
L 267.981 121.286471 
L 268.285364 125.359706 
L 268.589727 125.453057 
L 268.894091 123.692172 
L 269.198455 123.130249 
L 269.502818 122.896884 
L 269.807182 117.003584 
L 270.111545 120.230059 
L 270.415909 121.259739 
L 270.720273 120.271232 
L 271.024636 121.150094 
L 271.329 121.004593 
L 271.633364 121.927759 
L 271.937727 121.640746 
L 272.242091 113.709526 
L 272.546455 121.110453 
L 272.850818 121.062112 
L 273.155182 124.834488 
L 273.459545 124.834488 
L 273.763909 114.097247 
L 274.068273 113.032062 
L 274.372636 113.032062 
L 274.677 122.062611 
L 275.285727 121.606606 
L 275.590091 121.505019 
L 275.894455 121.024407 
L 276.198818 115.370598 
L 276.503182 114.902994 
L 276.807545 109.263922 
L 277.111909 111.758462 
L 277.416273 111.719046 
L 277.720636 118.929076 
L 278.025 111.738034 
L 278.329364 110.871962 
L 278.633727 104.021268 
L 278.938091 103.826885 
L 279.242455 104.315356 
L 279.546818 104.315356 
L 279.851182 103.741121 
L 280.155545 103.806279 
L 280.459909 95.983031 
L 280.764273 112.283799 
L 281.068636 100.523628 
L 281.373 98.824541 
L 281.677364 98.836962 
L 281.981727 99.933919 
L 282.286091 113.944151 
L 282.590455 113.935933 
L 283.199182 112.873087 
L 283.503545 113.631641 
L 284.112273 111.823775 
L 284.416636 111.542019 
L 284.721 117.43451 
L 285.025364 116.230113 
L 285.329727 116.75707 
L 285.938455 116.75707 
L 286.242818 116.541639 
L 286.851545 116.553619 
L 287.155909 115.749983 
L 287.460273 115.629774 
L 287.764636 108.08652 
L 288.069 115.675631 
L 288.373364 106.814195 
L 288.677727 106.954385 
L 288.982091 106.281726 
L 289.286455 105.942042 
L 289.590818 94.216277 
L 290.199545 117.964563 
L 290.503909 117.964563 
L 290.808273 117.034766 
L 291.112636 109.516595 
L 291.417 93.967527 
L 291.721364 99.856783 
L 292.025727 99.856783 
L 292.330091 100.15448 
L 292.634455 100.15448 
L 292.938818 91.980597 
L 293.243182 93.231229 
L 293.547545 92.709051 
L 294.156273 92.709051 
L 294.765 93.598979 
L 295.069364 100.020516 
L 295.373727 99.677368 
L 295.678091 92.973825 
L 295.982455 92.830322 
L 296.286818 94.75026 
L 296.591182 99.941028 
L 296.895545 111.618334 
L 297.199909 106.316563 
L 297.504273 106.195793 
L 297.808636 108.211166 
L 298.113 108.215608 
L 298.417364 97.322163 
L 298.721727 96.890448 
L 299.026091 97.061314 
L 299.330455 97.061314 
L 299.939182 97.957674 
L 300.243545 96.873124 
L 300.547909 92.62791 
L 300.852273 100.404421 
L 301.156636 94.030276 
L 301.461 93.515516 
L 301.765364 90.873088 
L 302.069727 97.679535 
L 302.374091 91.714782 
L 302.678455 91.714782 
L 302.982818 92.068933 
L 303.287182 85.845572 
L 303.895909 85.829976 
L 304.200273 91.9632 
L 304.504636 91.968686 
L 304.809 92.216023 
L 305.417727 83.469036 
L 305.722091 91.601267 
L 306.026455 89.594336 
L 306.330818 89.610172 
L 306.635182 91.839949 
L 307.243909 91.086521 
L 307.548273 91.789154 
L 307.852636 83.121595 
L 308.461364 100.369565 
L 309.070091 83.553543 
L 309.374455 80.092413 
L 309.678818 80.356201 
L 309.983182 80.356201 
L 310.287545 91.59119 
L 310.591909 92.069034 
L 310.896273 82.739222 
L 311.200636 97.089064 
L 311.505 102.857764 
L 311.809364 103.847056 
L 312.113727 96.550067 
L 312.418091 99.416296 
L 312.722455 98.982751 
L 313.026818 98.040704 
L 313.331182 99.107986 
L 313.635545 91.700753 
L 313.939909 91.44388 
L 314.244273 96.163631 
L 314.548636 91.155542 
L 314.853 104.524464 
L 315.157364 104.524464 
L 315.461727 103.917452 
L 315.766091 80.551913 
L 316.070455 80.455148 
L 316.374818 79.204565 
L 316.679182 79.471435 
L 316.983545 87.902618 
L 317.287909 87.902618 
L 317.592273 97.576292 
L 317.896636 96.870404 
L 318.201 96.962803 
L 318.505364 87.2178 
L 318.809727 82.09072 
L 319.114091 98.987515 
L 319.418455 97.969731 
L 320.027182 97.99716 
L 320.331545 105.047961 
L 320.635909 104.749165 
L 320.940273 96.675733 
L 321.244636 96.675733 
L 321.549 96.181597 
L 321.853364 95.305834 
L 322.157727 95.116758 
L 322.766455 95.183337 
L 323.070818 95.384312 
L 323.375182 97.444298 
L 323.679545 94.785825 
L 323.983909 85.38539 
L 324.288273 91.909657 
L 324.592636 93.105992 
L 324.897 95.554893 
L 325.201364 104.500253 
L 325.505727 104.500253 
L 325.810091 103.966938 
L 326.114455 103.917677 
L 326.418818 104.83088 
L 326.723182 104.58356 
L 327.027545 96.138983 
L 327.331909 96.138983 
L 327.636273 84.647751 
L 327.940636 84.212725 
L 328.245 84.622704 
L 328.549364 93.586967 
L 328.853727 87.892436 
L 329.158091 87.854137 
L 329.462455 79.779164 
L 329.766818 79.779164 
L 330.375545 70.32768 
L 330.679909 81.190179 
L 330.984273 80.444041 
L 331.288636 72.737674 
L 331.593 57.352664 
L 331.897364 63.184653 
L 332.201727 63.184653 
L 332.506091 54.493836 
L 332.810455 57.053973 
L 333.114818 50.832315 
L 333.419182 50.832315 
L 333.723545 49.904141 
L 334.027909 49.904141 
L 334.332273 58.303273 
L 334.636636 57.227868 
L 334.941 69.015486 
L 335.245364 67.970291 
L 335.549727 49.312682 
L 335.854091 48.847973 
L 336.158455 30.884614 
L 336.462818 54.14612 
L 336.767182 54.14612 
L 337.071545 52.941751 
L 337.375909 52.941751 
L 337.680273 30.206806 
L 337.984636 38.70875 
L 338.289 38.57261 
L 338.593364 39.427457 
L 338.897727 47.481489 
L 339.202091 37.276804 
L 339.506455 52.790423 
L 339.810818 37.911206 
L 340.115182 36.236395 
L 340.723909 60.262409 
L 341.028273 60.262409 
L 341.332636 50.671319 
L 341.637 51.559973 
L 342.550091 51.461188 
L 342.854455 49.638624 
L 343.158818 49.638624 
L 343.463182 40.496287 
L 343.767545 41.619535 
L 344.071909 52.703979 
L 344.376273 44.31545 
L 344.680636 44.31545 
L 344.985 47.815268 
L 345.289364 33.196538 
L 345.593727 33.88942 
L 345.898091 33.88942 
L 346.202455 36.190325 
L 346.506818 17.28 
L 346.506818 17.28 
" clip-path="url(#p99eff599a2)" style="fill: none; stroke: #1f77b4; stroke-width: 1.5; stroke-linecap: square"/>
   </g>
   <g id="patch_3">
    <path d="M 26.925 228.96 
L 26.925 7.2 
" style="fill: none; stroke: #000000; stroke-width: 0.8; stroke-linejoin: miter; stroke-linecap: square"/>
   </g>
   <g id="patch_4">
    <path d="M 361.725 228.96 
L 361.725 7.2 
" style="fill: none; stroke: #000000; stroke-width: 0.8; stroke-linejoin: miter; stroke-linecap: square"/>
   </g>
   <g id="patch_5">
    <path d="M 26.925 228.96 
L 361.725 228.96 
" style="fill: none; stroke: #000000; stroke-width: 0.8; stroke-linejoin: miter; stroke-linecap: square"/>
   </g>
   <g id="patch_6">
    <path d="M 26.925 7.2 
L 361.725 7.2 
" style="fill: none; stroke: #000000; stroke-width: 0.8; stroke-linejoin: miter; stroke-linecap: square"/>
   </g>
  </g>
 </g>
 <defs>
  <clipPath id="p99eff599a2">
   <rect x="26.925" y="7.2" width="334.8" height="221.76"/>
  </clipPath>
 </defs>
</svg>
