<?xml version="1.0" encoding="utf-8" standalone="no"?>
<!DOCTYPE svg PUBLIC "-//W3C//DTD SVG 1.1//EN"
  "http://www.w3.org/Graphics/SVG/1.1/DTD/svg11.dtd">
<svg xmlns:xlink="http://www.w3.org/1999/xlink" width="368.925pt" height="252.838125pt" viewBox="0 0 368.925 252.838125" xmlns="http://www.w3.org/2000/svg" version="1.1">
 <metadata>
  <rdf:RDF xmlns:dc="http://purl.org/dc/elements/1.1/" xmlns:cc="http://creativecommons.org/ns#" xmlns:rdf="http://www.w3.org/1999/02/22-rdf-syntax-ns#">
   <cc:Work>
    <dc:type rdf:resource="http://purl.org/dc/dcmitype/StillImage"/>
    <dc:date>2023-04-19T15:36:50.931069</dc:date>
    <dc:format>image/svg+xml</dc:format>
    <dc:creator>
     <cc:Agent>
      <dc:title>Matplotlib v3.6.2, https://matplotlib.org/</dc:title>
     </cc:Agent>
    </dc:creator>
   </cc:Work>
  </rdf:RDF>
 </metadata>
 <defs>
  <style type="text/css">*{stroke-linejoin: round; stroke-linecap: butt}</style>
 </defs>
 <g id="figure_1">
  <g id="patch_1">
   <path d="M -0 252.838125 
L 368.925 252.838125 
L 368.925 0 
L -0 0 
z
" style="fill: #ffffff"/>
  </g>
  <g id="axes_1">
   <g id="patch_2">
    <path d="M 26.925 228.96 
L 361.725 228.96 
L 361.725 7.2 
L 26.925 7.2 
z
" style="fill: #ffffff"/>
   </g>
   <g id="matplotlib.axis_1">
    <g id="xtick_1">
     <g id="line2d_1">
      <defs>
       <path id="md9ebeb962b" d="M 0 0 
L 0 3.5 
" style="stroke: #000000; stroke-width: 0.8"/>
      </defs>
      <g>
       <use xlink:href="#md9ebeb962b" x="42.143182" y="228.96" style="stroke: #000000; stroke-width: 0.8"/>
      </g>
     </g>
     <g id="text_1">
      <!-- 0 -->
      <g transform="translate(38.961932 243.558438) scale(0.1 -0.1)">
       <defs>
        <path id="DejaVuSans-30" d="M 2034 4250 
Q 1547 4250 1301 3770 
Q 1056 3291 1056 2328 
Q 1056 1369 1301 889 
Q 1547 409 2034 409 
Q 2525 409 2770 889 
Q 3016 1369 3016 2328 
Q 3016 3291 2770 3770 
Q 2525 4250 2034 4250 
z
M 2034 4750 
Q 2819 4750 3233 4129 
Q 3647 3509 3647 2328 
Q 3647 1150 3233 529 
Q 2819 -91 2034 -91 
Q 1250 -91 836 529 
Q 422 1150 422 2328 
Q 422 3509 836 4129 
Q 1250 4750 2034 4750 
z
" transform="scale(0.015625)"/>
       </defs>
       <use xlink:href="#DejaVuSans-30"/>
      </g>
     </g>
    </g>
    <g id="xtick_2">
     <g id="line2d_2">
      <g>
       <use xlink:href="#md9ebeb962b" x="103.015909" y="228.96" style="stroke: #000000; stroke-width: 0.8"/>
      </g>
     </g>
     <g id="text_2">
      <!-- 200 -->
      <g transform="translate(93.472159 243.558438) scale(0.1 -0.1)">
       <defs>
        <path id="DejaVuSans-32" d="M 1228 531 
L 3431 531 
L 3431 0 
L 469 0 
L 469 531 
Q 828 903 1448 1529 
Q 2069 2156 2228 2338 
Q 2531 2678 2651 2914 
Q 2772 3150 2772 3378 
Q 2772 3750 2511 3984 
Q 2250 4219 1831 4219 
Q 1534 4219 1204 4116 
Q 875 4013 500 3803 
L 500 4441 
Q 881 4594 1212 4672 
Q 1544 4750 1819 4750 
Q 2544 4750 2975 4387 
Q 3406 4025 3406 3419 
Q 3406 3131 3298 2873 
Q 3191 2616 2906 2266 
Q 2828 2175 2409 1742 
Q 1991 1309 1228 531 
z
" transform="scale(0.015625)"/>
       </defs>
       <use xlink:href="#DejaVuSans-32"/>
       <use xlink:href="#DejaVuSans-30" x="63.623047"/>
       <use xlink:href="#DejaVuSans-30" x="127.246094"/>
      </g>
     </g>
    </g>
    <g id="xtick_3">
     <g id="line2d_3">
      <g>
       <use xlink:href="#md9ebeb962b" x="163.888636" y="228.96" style="stroke: #000000; stroke-width: 0.8"/>
      </g>
     </g>
     <g id="text_3">
      <!-- 400 -->
      <g transform="translate(154.344886 243.558438) scale(0.1 -0.1)">
       <defs>
        <path id="DejaVuSans-34" d="M 2419 4116 
L 825 1625 
L 2419 1625 
L 2419 4116 
z
M 2253 4666 
L 3047 4666 
L 3047 1625 
L 3713 1625 
L 3713 1100 
L 3047 1100 
L 3047 0 
L 2419 0 
L 2419 1100 
L 313 1100 
L 313 1709 
L 2253 4666 
z
" transform="scale(0.015625)"/>
       </defs>
       <use xlink:href="#DejaVuSans-34"/>
       <use xlink:href="#DejaVuSans-30" x="63.623047"/>
       <use xlink:href="#DejaVuSans-30" x="127.246094"/>
      </g>
     </g>
    </g>
    <g id="xtick_4">
     <g id="line2d_4">
      <g>
       <use xlink:href="#md9ebeb962b" x="224.761364" y="228.96" style="stroke: #000000; stroke-width: 0.8"/>
      </g>
     </g>
     <g id="text_4">
      <!-- 600 -->
      <g transform="translate(215.217614 243.558438) scale(0.1 -0.1)">
       <defs>
        <path id="DejaVuSans-36" d="M 2113 2584 
Q 1688 2584 1439 2293 
Q 1191 2003 1191 1497 
Q 1191 994 1439 701 
Q 1688 409 2113 409 
Q 2538 409 2786 701 
Q 3034 994 3034 1497 
Q 3034 2003 2786 2293 
Q 2538 2584 2113 2584 
z
M 3366 4563 
L 3366 3988 
Q 3128 4100 2886 4159 
Q 2644 4219 2406 4219 
Q 1781 4219 1451 3797 
Q 1122 3375 1075 2522 
Q 1259 2794 1537 2939 
Q 1816 3084 2150 3084 
Q 2853 3084 3261 2657 
Q 3669 2231 3669 1497 
Q 3669 778 3244 343 
Q 2819 -91 2113 -91 
Q 1303 -91 875 529 
Q 447 1150 447 2328 
Q 447 3434 972 4092 
Q 1497 4750 2381 4750 
Q 2619 4750 2861 4703 
Q 3103 4656 3366 4563 
z
" transform="scale(0.015625)"/>
       </defs>
       <use xlink:href="#DejaVuSans-36"/>
       <use xlink:href="#DejaVuSans-30" x="63.623047"/>
       <use xlink:href="#DejaVuSans-30" x="127.246094"/>
      </g>
     </g>
    </g>
    <g id="xtick_5">
     <g id="line2d_5">
      <g>
       <use xlink:href="#md9ebeb962b" x="285.634091" y="228.96" style="stroke: #000000; stroke-width: 0.8"/>
      </g>
     </g>
     <g id="text_5">
      <!-- 800 -->
      <g transform="translate(276.090341 243.558438) scale(0.1 -0.1)">
       <defs>
        <path id="DejaVuSans-38" d="M 2034 2216 
Q 1584 2216 1326 1975 
Q 1069 1734 1069 1313 
Q 1069 891 1326 650 
Q 1584 409 2034 409 
Q 2484 409 2743 651 
Q 3003 894 3003 1313 
Q 3003 1734 2745 1975 
Q 2488 2216 2034 2216 
z
M 1403 2484 
Q 997 2584 770 2862 
Q 544 3141 544 3541 
Q 544 4100 942 4425 
Q 1341 4750 2034 4750 
Q 2731 4750 3128 4425 
Q 3525 4100 3525 3541 
Q 3525 3141 3298 2862 
Q 3072 2584 2669 2484 
Q 3125 2378 3379 2068 
Q 3634 1759 3634 1313 
Q 3634 634 3220 271 
Q 2806 -91 2034 -91 
Q 1263 -91 848 271 
Q 434 634 434 1313 
Q 434 1759 690 2068 
Q 947 2378 1403 2484 
z
M 1172 3481 
Q 1172 3119 1398 2916 
Q 1625 2713 2034 2713 
Q 2441 2713 2670 2916 
Q 2900 3119 2900 3481 
Q 2900 3844 2670 4047 
Q 2441 4250 2034 4250 
Q 1625 4250 1398 4047 
Q 1172 3844 1172 3481 
z
" transform="scale(0.015625)"/>
       </defs>
       <use xlink:href="#DejaVuSans-38"/>
       <use xlink:href="#DejaVuSans-30" x="63.623047"/>
       <use xlink:href="#DejaVuSans-30" x="127.246094"/>
      </g>
     </g>
    </g>
    <g id="xtick_6">
     <g id="line2d_6">
      <g>
       <use xlink:href="#md9ebeb962b" x="346.506818" y="228.96" style="stroke: #000000; stroke-width: 0.8"/>
      </g>
     </g>
     <g id="text_6">
      <!-- 1000 -->
      <g transform="translate(333.781818 243.558438) scale(0.1 -0.1)">
       <defs>
        <path id="DejaVuSans-31" d="M 794 531 
L 1825 531 
L 1825 4091 
L 703 3866 
L 703 4441 
L 1819 4666 
L 2450 4666 
L 2450 531 
L 3481 531 
L 3481 0 
L 794 0 
L 794 531 
z
" transform="scale(0.015625)"/>
       </defs>
       <use xlink:href="#DejaVuSans-31"/>
       <use xlink:href="#DejaVuSans-30" x="63.623047"/>
       <use xlink:href="#DejaVuSans-30" x="127.246094"/>
       <use xlink:href="#DejaVuSans-30" x="190.869141"/>
      </g>
     </g>
    </g>
   </g>
   <g id="matplotlib.axis_2">
    <g id="ytick_1">
     <g id="line2d_7">
      <defs>
       <path id="m954e961219" d="M 0 0 
L -3.5 0 
" style="stroke: #000000; stroke-width: 0.8"/>
      </defs>
      <g>
       <use xlink:href="#m954e961219" x="26.925" y="215.543336" style="stroke: #000000; stroke-width: 0.8"/>
      </g>
     </g>
     <g id="text_7">
      <!-- 60 -->
      <g transform="translate(7.2 219.342554) scale(0.1 -0.1)">
       <use xlink:href="#DejaVuSans-36"/>
       <use xlink:href="#DejaVuSans-30" x="63.623047"/>
      </g>
     </g>
    </g>
    <g id="ytick_2">
     <g id="line2d_8">
      <g>
       <use xlink:href="#m954e961219" x="26.925" y="180.351035" style="stroke: #000000; stroke-width: 0.8"/>
      </g>
     </g>
     <g id="text_8">
      <!-- 65 -->
      <g transform="translate(7.2 184.150253) scale(0.1 -0.1)">
       <defs>
        <path id="DejaVuSans-35" d="M 691 4666 
L 3169 4666 
L 3169 4134 
L 1269 4134 
L 1269 2991 
Q 1406 3038 1543 3061 
Q 1681 3084 1819 3084 
Q 2600 3084 3056 2656 
Q 3513 2228 3513 1497 
Q 3513 744 3044 326 
Q 2575 -91 1722 -91 
Q 1428 -91 1123 -41 
Q 819 9 494 109 
L 494 744 
Q 775 591 1075 516 
Q 1375 441 1709 441 
Q 2250 441 2565 725 
Q 2881 1009 2881 1497 
Q 2881 1984 2565 2268 
Q 2250 2553 1709 2553 
Q 1456 2553 1204 2497 
Q 953 2441 691 2322 
L 691 4666 
z
" transform="scale(0.015625)"/>
       </defs>
       <use xlink:href="#DejaVuSans-36"/>
       <use xlink:href="#DejaVuSans-35" x="63.623047"/>
      </g>
     </g>
    </g>
    <g id="ytick_3">
     <g id="line2d_9">
      <g>
       <use xlink:href="#m954e961219" x="26.925" y="145.158734" style="stroke: #000000; stroke-width: 0.8"/>
      </g>
     </g>
     <g id="text_9">
      <!-- 70 -->
      <g transform="translate(7.2 148.957952) scale(0.1 -0.1)">
       <defs>
        <path id="DejaVuSans-37" d="M 525 4666 
L 3525 4666 
L 3525 4397 
L 1831 0 
L 1172 0 
L 2766 4134 
L 525 4134 
L 525 4666 
z
" transform="scale(0.015625)"/>
       </defs>
       <use xlink:href="#DejaVuSans-37"/>
       <use xlink:href="#DejaVuSans-30" x="63.623047"/>
      </g>
     </g>
    </g>
    <g id="ytick_4">
     <g id="line2d_10">
      <g>
       <use xlink:href="#m954e961219" x="26.925" y="109.966433" style="stroke: #000000; stroke-width: 0.8"/>
      </g>
     </g>
     <g id="text_10">
      <!-- 75 -->
      <g transform="translate(7.2 113.765651) scale(0.1 -0.1)">
       <use xlink:href="#DejaVuSans-37"/>
       <use xlink:href="#DejaVuSans-35" x="63.623047"/>
      </g>
     </g>
    </g>
    <g id="ytick_5">
     <g id="line2d_11">
      <g>
       <use xlink:href="#m954e961219" x="26.925" y="74.774132" style="stroke: #000000; stroke-width: 0.8"/>
      </g>
     </g>
     <g id="text_11">
      <!-- 80 -->
      <g transform="translate(7.2 78.573351) scale(0.1 -0.1)">
       <use xlink:href="#DejaVuSans-38"/>
       <use xlink:href="#DejaVuSans-30" x="63.623047"/>
      </g>
     </g>
    </g>
    <g id="ytick_6">
     <g id="line2d_12">
      <g>
       <use xlink:href="#m954e961219" x="26.925" y="39.581831" style="stroke: #000000; stroke-width: 0.8"/>
      </g>
     </g>
     <g id="text_12">
      <!-- 85 -->
      <g transform="translate(7.2 43.38105) scale(0.1 -0.1)">
       <use xlink:href="#DejaVuSans-38"/>
       <use xlink:href="#DejaVuSans-35" x="63.623047"/>
      </g>
     </g>
    </g>
   </g>
   <g id="line2d_13">
    <path d="M 42.143182 28.625332 
L 42.447545 28.625332 
L 43.360636 22.837612 
L 43.665 25.929763 
L 43.969364 26.058972 
L 44.273727 25.191727 
L 44.578091 24.845121 
L 44.882455 24.845121 
L 45.186818 28.111199 
L 45.491182 27.749922 
L 45.795545 29.308375 
L 46.099909 27.617977 
L 46.404273 21.712088 
L 46.708636 29.62561 
L 47.013 25.133968 
L 47.317364 27.706078 
L 47.621727 27.080001 
L 48.534818 32.026949 
L 48.839182 27.803413 
L 49.143545 29.355469 
L 49.447909 25.393116 
L 49.752273 29.577278 
L 50.056636 22.414769 
L 50.361 26.814779 
L 50.665364 25.058001 
L 50.969727 17.28 
L 51.274091 17.28 
L 51.578455 18.918166 
L 52.187182 23.225613 
L 52.491545 29.975284 
L 52.795909 29.975284 
L 53.100273 21.41268 
L 53.404636 21.41268 
L 53.709 28.085473 
L 54.013364 29.785245 
L 54.317727 30.17784 
L 54.622091 33.988049 
L 55.230818 32.159101 
L 55.535182 31.682286 
L 55.839545 33.820705 
L 56.143909 38.572927 
L 56.448273 36.474806 
L 56.752636 38.276373 
L 57.057 33.375234 
L 57.361364 38.188144 
L 57.665727 34.641195 
L 57.970091 35.176374 
L 58.274455 34.655801 
L 58.578818 33.203053 
L 59.187545 33.203053 
L 59.491909 33.45321 
L 59.796273 34.91971 
L 60.405 34.91971 
L 60.709364 35.063748 
L 61.013727 36.752537 
L 61.318091 33.917823 
L 61.926818 41.631133 
L 62.231182 34.86486 
L 62.535545 34.668064 
L 62.839909 34.668064 
L 63.144273 34.537431 
L 63.448636 41.972559 
L 63.753 41.972559 
L 64.057364 40.469825 
L 64.361727 43.201078 
L 64.970455 37.964845 
L 65.274818 40.354941 
L 65.579182 39.62925 
L 65.883545 42.961018 
L 66.187909 47.647149 
L 66.492273 45.303479 
L 66.796636 46.951742 
L 67.101 47.711077 
L 67.405364 47.211673 
L 67.709727 48.941751 
L 68.014091 48.941751 
L 68.318455 51.866194 
L 68.622818 51.866194 
L 68.927182 48.630677 
L 69.231545 48.090961 
L 69.535909 49.661786 
L 69.840273 48.354034 
L 70.144636 51.219298 
L 70.753364 51.219298 
L 71.057727 47.044099 
L 71.362091 48.381347 
L 71.666455 48.381347 
L 71.970818 49.455503 
L 72.579545 46.954788 
L 72.883909 47.294957 
L 73.188273 44.595443 
L 73.797 51.897343 
L 74.101364 48.98451 
L 74.405727 51.190658 
L 74.710091 51.211771 
L 75.014455 48.38058 
L 75.318818 52.797166 
L 75.623182 52.523504 
L 75.927545 49.030759 
L 76.231909 48.937016 
L 76.536273 55.473502 
L 77.145 51.87124 
L 77.449364 52.121373 
L 77.753727 54.560653 
L 78.058091 50.695636 
L 78.362455 50.725962 
L 78.666818 57.447412 
L 78.971182 52.606383 
L 79.275545 51.853673 
L 79.579909 54.686759 
L 79.884273 54.686759 
L 80.188636 59.332802 
L 80.493 60.247163 
L 80.797364 57.77451 
L 81.101727 56.926616 
L 81.406091 57.609347 
L 81.710455 53.718887 
L 82.014818 58.321174 
L 82.319182 54.808512 
L 82.623545 57.517242 
L 82.927909 57.54403 
L 83.232273 57.78998 
L 83.536636 56.903359 
L 83.841 61.788054 
L 84.145364 61.788054 
L 84.449727 65.00399 
L 84.754091 63.528535 
L 85.058455 65.609062 
L 85.362818 63.61861 
L 85.667182 66.241975 
L 85.971545 64.581414 
L 86.275909 69.738651 
L 86.580273 68.704721 
L 86.884636 66.457561 
L 87.189 65.826743 
L 87.493364 67.104154 
L 87.797727 65.62301 
L 88.102091 66.148482 
L 88.406455 64.569239 
L 88.710818 65.840784 
L 89.015182 66.309541 
L 89.319545 70.261042 
L 89.623909 70.261042 
L 89.928273 63.919145 
L 90.232636 64.435005 
L 90.537 67.080931 
L 90.841364 66.508037 
L 91.145727 67.04976 
L 91.450091 68.215026 
L 91.754455 65.955744 
L 92.058818 68.889586 
L 92.667545 72.059355 
L 92.971909 68.165286 
L 93.580636 71.54365 
L 93.885 73.17374 
L 94.189364 71.020843 
L 94.493727 72.750922 
L 94.798091 78.520431 
L 95.102455 81.052283 
L 95.406818 81.052283 
L 95.711182 77.084027 
L 96.015545 74.696534 
L 96.319909 74.251127 
L 96.624273 74.251127 
L 96.928636 72.773636 
L 97.233 72.910349 
L 97.537364 76.757057 
L 97.841727 77.169523 
L 98.146091 76.777088 
L 98.450455 76.855941 
L 98.754818 76.726882 
L 99.059182 79.338982 
L 99.363545 78.764459 
L 99.667909 77.78672 
L 99.972273 77.628581 
L 100.276636 77.74166 
L 100.581 79.095314 
L 100.885364 79.526602 
L 101.189727 85.364497 
L 101.494091 85.364497 
L 101.798455 85.041407 
L 102.102818 84.252048 
L 102.711545 84.252048 
L 103.015909 84.553098 
L 103.320273 84.032037 
L 103.624636 82.949701 
L 103.929 84.265176 
L 104.233364 84.265176 
L 104.537727 85.997039 
L 104.842091 84.086234 
L 105.146455 80.032209 
L 105.450818 79.244254 
L 106.059545 81.297553 
L 106.363909 83.513468 
L 106.668273 84.094424 
L 106.972636 84.366988 
L 107.277 82.521274 
L 107.581364 83.05621 
L 107.885727 83.892839 
L 108.190091 83.203701 
L 108.494455 81.330912 
L 108.798818 81.330912 
L 109.103182 81.875047 
L 109.407545 84.441946 
L 109.711909 84.210882 
L 110.016273 84.574243 
L 110.320636 84.574243 
L 110.625 85.735094 
L 111.233727 86.196582 
L 111.538091 84.896124 
L 111.842455 88.167554 
L 112.146818 88.167554 
L 112.451182 83.073632 
L 112.755545 83.972146 
L 113.059909 85.304091 
L 113.364273 85.304091 
L 113.668636 89.753575 
L 113.973 90.840632 
L 114.277364 86.698782 
L 114.581727 88.940111 
L 114.886091 86.88237 
L 115.190455 87.521662 
L 115.494818 91.225803 
L 115.799182 91.709169 
L 116.407909 90.224868 
L 116.712273 89.762036 
L 117.016636 91.551305 
L 117.321 86.739537 
L 117.625364 91.430393 
L 117.929727 86.738838 
L 118.842818 89.572375 
L 119.147182 90.154246 
L 119.451545 89.460633 
L 120.060273 91.242145 
L 120.364636 88.707134 
L 120.669 91.980712 
L 120.973364 86.960045 
L 121.277727 87.78987 
L 121.582091 89.808791 
L 121.886455 90.663153 
L 122.190818 90.884712 
L 122.495182 89.854213 
L 122.799545 93.390404 
L 123.103909 93.62337 
L 123.408273 95.744562 
L 123.712636 88.455975 
L 124.017 88.065973 
L 124.321364 94.593145 
L 124.625727 91.925751 
L 124.930091 92.817359 
L 125.234455 92.622308 
L 125.538818 94.06405 
L 126.147545 94.099418 
L 126.756273 96.615008 
L 127.365 96.848997 
L 127.669364 98.815274 
L 127.973727 98.815274 
L 128.278091 99.836798 
L 128.582455 99.204365 
L 128.886818 101.105209 
L 129.191182 100.759267 
L 129.495545 102.340026 
L 129.799909 102.340026 
L 130.104273 101.640604 
L 130.408636 97.879599 
L 130.713 102.489513 
L 131.017364 101.434251 
L 131.321727 102.161155 
L 131.626091 100.882834 
L 131.930455 102.376495 
L 132.234818 102.847705 
L 132.539182 101.67032 
L 132.843545 101.67032 
L 133.147909 100.804598 
L 133.452273 100.668972 
L 133.756636 103.591005 
L 134.061 98.388918 
L 134.365364 101.926331 
L 134.669727 102.339181 
L 134.974091 105.71779 
L 135.278455 104.316843 
L 135.582818 103.47505 
L 135.887182 103.079053 
L 136.191545 102.918641 
L 136.495909 104.621079 
L 137.104636 104.606102 
L 137.409 104.36306 
L 137.713364 104.806817 
L 138.017727 101.865573 
L 138.322091 104.325829 
L 138.930818 105.790166 
L 139.235182 105.790166 
L 139.843909 106.640462 
L 140.148273 104.445161 
L 140.452636 104.861856 
L 140.757 105.016136 
L 141.061364 107.616579 
L 141.365727 101.503878 
L 141.670091 109.070157 
L 141.974455 108.908301 
L 142.278818 106.576815 
L 142.583182 106.576815 
L 143.191909 109.605856 
L 143.496273 109.645113 
L 143.800636 108.777528 
L 144.105 107.46563 
L 144.409364 107.46563 
L 144.713727 105.190207 
L 145.322455 106.805354 
L 145.626818 106.071526 
L 145.931182 104.448256 
L 146.235545 109.170209 
L 146.539909 108.936217 
L 146.844273 108.936217 
L 147.148636 108.181179 
L 147.453 109.879798 
L 147.757364 115.385645 
L 148.061727 112.691988 
L 148.366091 114.829493 
L 148.670455 118.874055 
L 148.974818 116.110656 
L 149.279182 117.561919 
L 149.583545 117.802966 
L 149.887909 117.846061 
L 150.192273 116.101094 
L 150.496636 116.357843 
L 150.801 116.357843 
L 151.105364 118.146684 
L 151.409727 114.671541 
L 151.714091 117.967467 
L 152.018455 118.622926 
L 152.322818 120.093502 
L 152.627182 117.032746 
L 152.931545 112.844249 
L 153.235909 118.389749 
L 153.540273 118.096322 
L 153.844636 118.096322 
L 154.149 114.691173 
L 154.453364 120.182353 
L 154.757727 120.219886 
L 155.062091 117.419124 
L 155.366455 119.444299 
L 155.670818 117.991661 
L 155.975182 121.579065 
L 156.279545 122.302347 
L 156.583909 122.440914 
L 156.888273 119.580658 
L 157.192636 120.666193 
L 157.497 116.516815 
L 158.105727 119.952597 
L 158.410091 119.952597 
L 158.714455 117.556647 
L 159.018818 119.049842 
L 159.627545 120.573488 
L 159.931909 120.376844 
L 160.236273 121.529078 
L 160.540636 123.560141 
L 160.845 123.560141 
L 161.149364 121.790741 
L 161.453727 125.087259 
L 161.758091 124.399222 
L 162.062455 117.309616 
L 162.366818 117.442347 
L 162.671182 119.182032 
L 162.975545 118.460876 
L 163.279909 122.771817 
L 163.584273 122.615034 
L 163.888636 121.385766 
L 164.193 121.792717 
L 164.497364 122.793695 
L 164.801727 124.197095 
L 165.106091 124.146578 
L 165.410455 125.571839 
L 165.714818 130.346261 
L 166.019182 129.552334 
L 166.323545 127.129932 
L 166.627909 127.129932 
L 166.932273 127.958492 
L 167.236636 125.610644 
L 167.541 125.594633 
L 167.845364 123.413491 
L 168.454091 125.430453 
L 168.758455 124.939492 
L 169.062818 125.310905 
L 169.367182 125.218063 
L 169.671545 126.574933 
L 169.975909 126.404022 
L 170.280273 127.372012 
L 170.584636 124.06921 
L 170.889 124.69534 
L 171.193364 128.386505 
L 171.497727 124.889392 
L 173.019545 133.506688 
L 173.323909 134.954041 
L 173.628273 136.947093 
L 174.237 134.478243 
L 174.541364 132.718303 
L 174.845727 130.129963 
L 175.150091 130.244877 
L 175.454455 128.652455 
L 175.758818 134.738418 
L 176.063182 133.625586 
L 176.367545 133.587835 
L 176.671909 134.146577 
L 176.976273 134.293004 
L 177.280636 137.337674 
L 177.585 136.238513 
L 177.889364 136.180707 
L 178.193727 137.426158 
L 178.498091 133.279493 
L 178.802455 131.843954 
L 179.106818 133.924333 
L 179.411182 133.924333 
L 179.715545 134.965704 
L 180.019909 133.267759 
L 180.324273 136.517099 
L 180.628636 137.641732 
L 180.933 135.717585 
L 181.237364 136.95408 
L 181.541727 136.95408 
L 181.846091 137.325813 
L 182.454818 139.974212 
L 182.759182 138.940922 
L 183.063545 136.430577 
L 183.367909 135.607416 
L 183.672273 134.446742 
L 183.976636 135.642431 
L 184.281 134.147692 
L 184.585364 135.18437 
L 184.889727 134.532629 
L 185.194091 135.368171 
L 185.802818 139.24138 
L 186.107182 136.062015 
L 186.411545 136.350234 
L 186.715909 136.864516 
L 187.020273 138.433461 
L 187.324636 138.883557 
L 187.629 140.312753 
L 187.933364 139.282651 
L 188.237727 139.282651 
L 188.542091 139.532104 
L 189.150818 139.532104 
L 189.455182 139.404787 
L 189.759545 142.321362 
L 190.063909 143.535504 
L 190.368273 143.749934 
L 190.672636 143.749934 
L 190.977 144.044333 
L 191.281364 144.12145 
L 191.585727 144.463796 
L 191.890091 140.3578 
L 192.498818 143.680279 
L 192.803182 140.886645 
L 193.107545 143.850431 
L 193.411909 143.850431 
L 193.716273 142.052192 
L 194.020636 142.052192 
L 194.325 143.315 
L 194.629364 143.315 
L 194.933727 143.692185 
L 195.238091 143.692185 
L 195.542455 144.339304 
L 195.846818 143.193436 
L 196.151182 143.888063 
L 196.455545 143.073197 
L 196.759909 144.911422 
L 197.064273 141.022403 
L 197.368636 141.412711 
L 197.977364 139.66527 
L 198.281727 139.910109 
L 198.586091 143.950077 
L 199.194818 145.923116 
L 199.499182 145.923116 
L 199.803545 148.415504 
L 200.107909 148.338054 
L 200.412273 140.088097 
L 200.716636 143.090717 
L 201.021 143.090717 
L 201.325364 144.07785 
L 201.629727 142.837921 
L 201.934091 142.837921 
L 202.238455 146.174575 
L 202.542818 146.56727 
L 202.847182 147.88723 
L 203.151545 147.88723 
L 203.455909 147.149146 
L 203.760273 145.306681 
L 204.064636 144.435951 
L 204.673364 144.429832 
L 204.977727 147.453725 
L 205.282091 146.875232 
L 205.586455 146.733535 
L 205.890818 145.686896 
L 206.195182 145.686896 
L 206.499545 143.148334 
L 206.803909 145.052109 
L 207.108273 143.99749 
L 207.412636 141.093052 
L 208.021364 146.947835 
L 208.325727 147.605284 
L 208.630091 148.703538 
L 209.543182 144.927194 
L 209.847545 145.471468 
L 210.151909 147.188134 
L 210.760636 147.145522 
L 211.065 146.941078 
L 211.369364 145.8283 
L 211.673727 146.779647 
L 212.282455 145.843738 
L 212.586818 146.486087 
L 212.891182 147.525104 
L 213.195545 147.297986 
L 213.499909 149.307424 
L 213.804273 149.307424 
L 214.108636 146.407284 
L 214.413 146.940799 
L 214.717364 145.843057 
L 215.021727 145.843057 
L 215.630455 147.604618 
L 215.934818 149.733729 
L 216.239182 146.302298 
L 216.543545 146.62875 
L 216.847909 146.406396 
L 217.152273 146.406396 
L 217.456636 145.830302 
L 217.761 145.830302 
L 218.065364 144.465533 
L 218.369727 144.465533 
L 218.674091 145.892739 
L 219.282818 145.786679 
L 219.587182 145.74307 
L 219.891545 148.661226 
L 220.195909 148.640421 
L 220.500273 147.558118 
L 220.804636 147.689258 
L 221.109 147.015866 
L 221.413364 149.330719 
L 221.717727 149.178696 
L 222.022091 149.59002 
L 222.326455 149.59002 
L 222.630818 147.487018 
L 222.935182 147.888787 
L 223.239545 146.564161 
L 223.543909 148.182137 
L 223.848273 150.439523 
L 224.457 146.396307 
L 224.761364 146.781197 
L 225.065727 146.743508 
L 225.370091 150.714556 
L 225.674455 147.665884 
L 225.978818 146.922529 
L 226.283182 150.085693 
L 226.587545 149.378872 
L 226.891909 152.64958 
L 227.196273 150.906915 
L 227.500636 150.286721 
L 227.805 150.550095 
L 228.109364 152.523388 
L 228.413727 152.738669 
L 228.718091 153.402992 
L 229.022455 153.402992 
L 229.326818 153.034618 
L 229.935545 146.376973 
L 230.239909 149.017718 
L 230.544273 153.860252 
L 230.848636 155.330908 
L 231.153 153.312722 
L 231.457364 153.312722 
L 231.761727 150.784739 
L 232.066091 151.402646 
L 232.370455 151.557951 
L 232.674818 151.248501 
L 233.283545 151.273764 
L 233.587909 152.624582 
L 233.892273 155.886501 
L 234.196636 156.345341 
L 234.805364 156.393544 
L 235.414091 156.585482 
L 235.718455 154.294736 
L 236.022818 150.104794 
L 236.327182 147.524737 
L 236.631545 150.602481 
L 236.935909 152.018227 
L 237.240273 150.66402 
L 237.849 155.562428 
L 238.153364 153.325546 
L 238.457727 156.555935 
L 238.762091 156.754138 
L 239.066455 156.535383 
L 239.370818 157.73723 
L 239.675182 157.830608 
L 239.979545 156.131121 
L 240.283909 156.272187 
L 240.588273 160.647659 
L 240.892636 161.796874 
L 241.197 156.812057 
L 241.501364 156.879616 
L 241.805727 152.743444 
L 242.110091 152.951124 
L 242.414455 153.864388 
L 242.718818 157.496699 
L 243.023182 157.105985 
L 243.327545 153.665327 
L 243.631909 152.773928 
L 243.936273 157.48521 
L 244.240636 160.086495 
L 244.545 160.086495 
L 244.849364 155.008766 
L 245.153727 160.849614 
L 245.458091 162.138015 
L 245.762455 160.820481 
L 246.066818 163.486855 
L 246.371182 163.486855 
L 246.675545 164.235087 
L 246.979909 168.041428 
L 247.284273 167.101238 
L 247.588636 161.064902 
L 247.893 161.064902 
L 248.197364 162.219501 
L 248.501727 162.444561 
L 248.806091 161.524289 
L 249.110455 165.611423 
L 249.414818 166.018813 
L 249.719182 169.852855 
L 250.023545 168.912665 
L 250.327909 169.61669 
L 250.632273 167.271113 
L 250.936636 168.187529 
L 251.241 168.19467 
L 251.545364 171.869519 
L 251.849727 168.415355 
L 252.154091 168.415355 
L 252.458455 168.915787 
L 253.067182 172.591033 
L 253.371545 169.97799 
L 253.675909 169.92275 
L 253.980273 164.820228 
L 254.284636 164.61241 
L 254.893364 166.442876 
L 255.197727 163.72249 
L 255.502091 163.72249 
L 255.806455 170.39567 
L 256.110818 169.874806 
L 256.719545 170.313069 
L 257.023909 173.604328 
L 257.328273 173.725931 
L 257.632636 174.206541 
L 257.937 172.689676 
L 258.241364 168.379204 
L 258.545727 169.003822 
L 258.850091 170.402169 
L 259.154455 170.808552 
L 259.458818 174.963565 
L 259.763182 174.182408 
L 260.067545 174.549369 
L 260.371909 174.231627 
L 260.676273 170.219217 
L 260.980636 170.531748 
L 261.285 170.531748 
L 261.589364 169.379347 
L 261.893727 169.379347 
L 262.198091 170.801721 
L 262.502455 169.509855 
L 262.806818 168.841749 
L 263.111182 170.02225 
L 263.719909 169.935003 
L 264.024273 170.18479 
L 264.633 174.393651 
L 265.241727 174.69441 
L 265.546091 171.170623 
L 265.850455 172.342914 
L 266.154818 171.594344 
L 266.459182 171.427239 
L 266.763545 171.679431 
L 267.067909 171.749357 
L 267.372273 168.428644 
L 267.676636 168.675741 
L 267.981 169.710166 
L 268.285364 168.284952 
L 268.589727 165.243067 
L 268.894091 168.382388 
L 269.502818 171.50188 
L 269.807182 173.513528 
L 270.111545 171.783811 
L 270.415909 173.516593 
L 270.720273 172.974025 
L 271.024636 174.468553 
L 271.329 173.616919 
L 271.633364 171.144668 
L 271.937727 171.665813 
L 272.242091 173.596197 
L 272.546455 170.85101 
L 272.850818 171.086528 
L 273.155182 168.64417 
L 273.459545 168.64417 
L 273.763909 178.351074 
L 274.068273 176.90081 
L 274.372636 176.90081 
L 274.677 173.164585 
L 274.981364 170.82597 
L 275.285727 170.925127 
L 275.894455 176.241415 
L 276.198818 175.209151 
L 276.503182 175.984752 
L 276.807545 175.897111 
L 277.111909 172.221141 
L 277.416273 169.972164 
L 277.720636 169.293498 
L 278.025 172.342686 
L 278.329364 172.024043 
L 278.633727 173.9653 
L 279.242455 174.766136 
L 279.851182 174.767179 
L 280.155545 174.078797 
L 280.459909 173.92535 
L 280.764273 172.083844 
L 281.068636 172.386838 
L 281.373 174.883628 
L 281.677364 173.541882 
L 281.981727 173.060577 
L 282.286091 169.600548 
L 282.590455 170.869979 
L 282.894818 171.645581 
L 283.199182 171.86737 
L 283.503545 170.307181 
L 283.807909 171.890787 
L 284.112273 172.210823 
L 284.416636 171.68047 
L 284.721 172.065225 
L 285.025364 173.546283 
L 285.329727 174.144179 
L 285.938455 174.144179 
L 286.242818 174.445568 
L 286.547182 176.081945 
L 286.851545 175.158007 
L 287.155909 176.782236 
L 287.460273 175.304979 
L 287.764636 178.295461 
L 288.069 177.101202 
L 288.373364 179.542321 
L 288.677727 179.361851 
L 288.982091 180.144609 
L 289.286455 181.257043 
L 289.590818 183.312321 
L 289.895182 179.808477 
L 290.199545 178.043465 
L 290.808273 178.045824 
L 291.417 184.243146 
L 291.721364 183.345185 
L 292.025727 183.345185 
L 292.330091 182.056328 
L 292.634455 182.056328 
L 292.938818 184.656383 
L 293.243182 181.955317 
L 293.547545 184.088388 
L 294.156273 184.088388 
L 294.460636 182.35206 
L 294.765 182.17505 
L 295.069364 180.682677 
L 295.373727 181.968769 
L 295.678091 184.423151 
L 296.286818 184.809161 
L 296.591182 183.730205 
L 296.895545 181.611811 
L 297.199909 183.489409 
L 297.504273 183.256762 
L 297.808636 184.428307 
L 298.113 183.751277 
L 298.417364 186.518969 
L 298.721727 186.271497 
L 299.026091 188.338774 
L 299.330455 188.338774 
L 299.634818 189.898368 
L 299.939182 187.772765 
L 300.243545 187.954936 
L 300.547909 187.702339 
L 300.852273 185.226849 
L 301.156636 188.68108 
L 301.461 188.860791 
L 301.765364 191.664527 
L 302.069727 191.286655 
L 302.374091 191.51035 
L 302.678455 191.51035 
L 302.982818 189.897553 
L 303.287182 191.541793 
L 303.591545 190.335 
L 303.895909 190.335 
L 304.200273 187.33323 
L 304.504636 186.126878 
L 305.113364 188.616935 
L 305.417727 190.222116 
L 305.722091 187.365251 
L 306.026455 188.849709 
L 306.330818 188.249495 
L 306.939545 188.363673 
L 307.243909 189.456769 
L 307.548273 187.130305 
L 307.852636 190.276733 
L 308.157 187.637132 
L 308.765727 188.812001 
L 309.374455 195.236005 
L 309.678818 192.927567 
L 309.983182 192.927567 
L 310.287545 188.387797 
L 310.591909 188.571613 
L 310.896273 194.026884 
L 311.200636 190.110543 
L 311.505 189.301482 
L 311.809364 190.050143 
L 312.113727 192.347126 
L 312.418091 190.153823 
L 312.722455 191.847786 
L 313.026818 191.991855 
L 313.331182 191.214331 
L 313.635545 195.190039 
L 313.939909 194.111584 
L 314.244273 192.376944 
L 314.548636 193.964769 
L 314.853 191.251776 
L 315.157364 191.251776 
L 315.461727 191.59386 
L 315.766091 198.630447 
L 316.070455 198.764123 
L 316.374818 200.899076 
L 316.679182 201.866976 
L 316.983545 200.036422 
L 317.287909 200.036422 
L 317.592273 196.739079 
L 317.896636 197.05287 
L 318.201 195.291679 
L 318.505364 199.646303 
L 318.809727 202.234396 
L 319.114091 196.590436 
L 319.418455 198.419691 
L 319.722818 197.083999 
L 320.027182 197.083999 
L 320.331545 195.84769 
L 320.635909 196.165405 
L 320.940273 198.651267 
L 321.244636 198.651267 
L 321.549 198.916038 
L 321.853364 198.992893 
L 322.157727 199.411531 
L 322.766455 199.461993 
L 323.375182 198.242867 
L 323.679545 200.704274 
L 323.983909 204.987559 
L 324.288273 203.559876 
L 324.592636 200.785526 
L 324.897 199.45296 
L 325.201364 197.498539 
L 325.505727 197.498539 
L 325.810091 199.398689 
L 326.114455 199.855487 
L 326.418818 199.063752 
L 326.723182 199.627539 
L 327.027545 202.903412 
L 327.331909 202.903412 
L 327.636273 210.580666 
L 327.940636 210.941264 
L 328.245 212.803726 
L 328.549364 204.491283 
L 328.853727 205.196683 
L 329.158091 205.34541 
L 329.462455 208.763418 
L 329.766818 208.763418 
L 330.071182 208.120842 
L 330.375545 210.509795 
L 330.679909 208.141838 
L 330.984273 209.453599 
L 331.288636 210.1019 
L 331.593 211.819481 
L 331.897364 208.914896 
L 332.201727 208.914896 
L 332.506091 211.898308 
L 332.810455 209.944494 
L 333.114818 213.431096 
L 333.419182 213.431096 
L 333.723545 214.814236 
L 334.027909 214.814236 
L 334.332273 211.102921 
L 334.636636 212.216147 
L 334.941 209.23631 
L 335.245364 209.081908 
L 335.549727 211.815454 
L 335.854091 211.908726 
L 336.158455 218.551712 
L 336.462818 209.225549 
L 336.767182 209.225549 
L 337.071545 210.243691 
L 337.375909 210.243691 
L 337.680273 214.179949 
L 337.984636 214.995759 
L 338.289 215.1006 
L 338.897727 210.380657 
L 339.202091 211.065058 
L 339.506455 208.525897 
L 340.115182 214.900227 
L 340.419545 209.037706 
L 340.723909 207.639887 
L 341.028273 207.639887 
L 341.332636 214.177174 
L 341.637 213.267465 
L 342.245727 213.267465 
L 342.550091 214.538947 
L 342.854455 218.88 
L 343.158818 218.88 
L 343.463182 218.316485 
L 343.767545 212.30549 
L 344.071909 211.995668 
L 344.376273 210.142498 
L 344.680636 210.142498 
L 344.985 208.762165 
L 345.289364 210.459809 
L 345.593727 209.69064 
L 345.898091 209.69064 
L 346.202455 209.353734 
L 346.506818 214.996906 
L 346.506818 214.996906 
" clip-path="url(#pa493ebdbcb)" style="fill: none; stroke: #1f77b4; stroke-width: 1.5; stroke-linecap: square"/>
   </g>
   <g id="patch_3">
    <path d="M 26.925 228.96 
L 26.925 7.2 
" style="fill: none; stroke: #000000; stroke-width: 0.8; stroke-linejoin: miter; stroke-linecap: square"/>
   </g>
   <g id="patch_4">
    <path d="M 361.725 228.96 
L 361.725 7.2 
" style="fill: none; stroke: #000000; stroke-width: 0.8; stroke-linejoin: miter; stroke-linecap: square"/>
   </g>
   <g id="patch_5">
    <path d="M 26.925 228.96 
L 361.725 228.96 
" style="fill: none; stroke: #000000; stroke-width: 0.8; stroke-linejoin: miter; stroke-linecap: square"/>
   </g>
   <g id="patch_6">
    <path d="M 26.925 7.2 
L 361.725 7.2 
" style="fill: none; stroke: #000000; stroke-width: 0.8; stroke-linejoin: miter; stroke-linecap: square"/>
   </g>
  </g>
 </g>
 <defs>
  <clipPath id="pa493ebdbcb">
   <rect x="26.925" y="7.2" width="334.8" height="221.76"/>
  </clipPath>
 </defs>
</svg>
