<?xml version="1.0" encoding="utf-8" standalone="no"?>
<!DOCTYPE svg PUBLIC "-//W3C//DTD SVG 1.1//EN"
  "http://www.w3.org/Graphics/SVG/1.1/DTD/svg11.dtd">
<svg xmlns:xlink="http://www.w3.org/1999/xlink" width="375.2875pt" height="255.49568pt" viewBox="0 0 375.2875 255.49568" xmlns="http://www.w3.org/2000/svg" version="1.1">
 <metadata>
  <rdf:RDF xmlns:dc="http://purl.org/dc/elements/1.1/" xmlns:cc="http://creativecommons.org/ns#" xmlns:rdf="http://www.w3.org/1999/02/22-rdf-syntax-ns#">
   <cc:Work>
    <dc:type rdf:resource="http://purl.org/dc/dcmitype/StillImage"/>
    <dc:date>2023-04-19T16:57:12.695236</dc:date>
    <dc:format>image/svg+xml</dc:format>
    <dc:creator>
     <cc:Agent>
      <dc:title>Matplotlib v3.6.2, https://matplotlib.org/</dc:title>
     </cc:Agent>
    </dc:creator>
   </cc:Work>
  </rdf:RDF>
 </metadata>
 <defs>
  <style type="text/css">*{stroke-linejoin: round; stroke-linecap: butt}</style>
 </defs>
 <g id="figure_1">
  <g id="patch_1">
   <path d="M 0 255.49568 
L 375.2875 255.49568 
L 375.2875 0 
L 0 0 
z
" style="fill: #ffffff"/>
  </g>
  <g id="axes_1">
   <g id="patch_2">
    <path d="M 33.2875 231.617555 
L 368.0875 231.617555 
L 368.0875 9.857555 
L 33.2875 9.857555 
z
" style="fill: #ffffff"/>
   </g>
   <g id="matplotlib.axis_1">
    <g id="xtick_1">
     <g id="line2d_1">
      <defs>
       <path id="md04795e7d2" d="M 0 0 
L 0 3.5 
" style="stroke: #000000; stroke-width: 0.8"/>
      </defs>
      <g>
       <use xlink:href="#md04795e7d2" x="48.505682" y="231.617555" style="stroke: #000000; stroke-width: 0.8"/>
      </g>
     </g>
     <g id="text_1">
      <!-- 0 -->
      <g transform="translate(45.324432 246.215993) scale(0.1 -0.1)">
       <defs>
        <path id="DejaVuSans-30" d="M 2034 4250 
Q 1547 4250 1301 3770 
Q 1056 3291 1056 2328 
Q 1056 1369 1301 889 
Q 1547 409 2034 409 
Q 2525 409 2770 889 
Q 3016 1369 3016 2328 
Q 3016 3291 2770 3770 
Q 2525 4250 2034 4250 
z
M 2034 4750 
Q 2819 4750 3233 4129 
Q 3647 3509 3647 2328 
Q 3647 1150 3233 529 
Q 2819 -91 2034 -91 
Q 1250 -91 836 529 
Q 422 1150 422 2328 
Q 422 3509 836 4129 
Q 1250 4750 2034 4750 
z
" transform="scale(0.015625)"/>
       </defs>
       <use xlink:href="#DejaVuSans-30"/>
      </g>
     </g>
    </g>
    <g id="xtick_2">
     <g id="line2d_2">
      <g>
       <use xlink:href="#md04795e7d2" x="109.378409" y="231.617555" style="stroke: #000000; stroke-width: 0.8"/>
      </g>
     </g>
     <g id="text_2">
      <!-- 200 -->
      <g transform="translate(99.834659 246.215993) scale(0.1 -0.1)">
       <defs>
        <path id="DejaVuSans-32" d="M 1228 531 
L 3431 531 
L 3431 0 
L 469 0 
L 469 531 
Q 828 903 1448 1529 
Q 2069 2156 2228 2338 
Q 2531 2678 2651 2914 
Q 2772 3150 2772 3378 
Q 2772 3750 2511 3984 
Q 2250 4219 1831 4219 
Q 1534 4219 1204 4116 
Q 875 4013 500 3803 
L 500 4441 
Q 881 4594 1212 4672 
Q 1544 4750 1819 4750 
Q 2544 4750 2975 4387 
Q 3406 4025 3406 3419 
Q 3406 3131 3298 2873 
Q 3191 2616 2906 2266 
Q 2828 2175 2409 1742 
Q 1991 1309 1228 531 
z
" transform="scale(0.015625)"/>
       </defs>
       <use xlink:href="#DejaVuSans-32"/>
       <use xlink:href="#DejaVuSans-30" x="63.623047"/>
       <use xlink:href="#DejaVuSans-30" x="127.246094"/>
      </g>
     </g>
    </g>
    <g id="xtick_3">
     <g id="line2d_3">
      <g>
       <use xlink:href="#md04795e7d2" x="170.251136" y="231.617555" style="stroke: #000000; stroke-width: 0.8"/>
      </g>
     </g>
     <g id="text_3">
      <!-- 400 -->
      <g transform="translate(160.707386 246.215993) scale(0.1 -0.1)">
       <defs>
        <path id="DejaVuSans-34" d="M 2419 4116 
L 825 1625 
L 2419 1625 
L 2419 4116 
z
M 2253 4666 
L 3047 4666 
L 3047 1625 
L 3713 1625 
L 3713 1100 
L 3047 1100 
L 3047 0 
L 2419 0 
L 2419 1100 
L 313 1100 
L 313 1709 
L 2253 4666 
z
" transform="scale(0.015625)"/>
       </defs>
       <use xlink:href="#DejaVuSans-34"/>
       <use xlink:href="#DejaVuSans-30" x="63.623047"/>
       <use xlink:href="#DejaVuSans-30" x="127.246094"/>
      </g>
     </g>
    </g>
    <g id="xtick_4">
     <g id="line2d_4">
      <g>
       <use xlink:href="#md04795e7d2" x="231.123864" y="231.617555" style="stroke: #000000; stroke-width: 0.8"/>
      </g>
     </g>
     <g id="text_4">
      <!-- 600 -->
      <g transform="translate(221.580114 246.215993) scale(0.1 -0.1)">
       <defs>
        <path id="DejaVuSans-36" d="M 2113 2584 
Q 1688 2584 1439 2293 
Q 1191 2003 1191 1497 
Q 1191 994 1439 701 
Q 1688 409 2113 409 
Q 2538 409 2786 701 
Q 3034 994 3034 1497 
Q 3034 2003 2786 2293 
Q 2538 2584 2113 2584 
z
M 3366 4563 
L 3366 3988 
Q 3128 4100 2886 4159 
Q 2644 4219 2406 4219 
Q 1781 4219 1451 3797 
Q 1122 3375 1075 2522 
Q 1259 2794 1537 2939 
Q 1816 3084 2150 3084 
Q 2853 3084 3261 2657 
Q 3669 2231 3669 1497 
Q 3669 778 3244 343 
Q 2819 -91 2113 -91 
Q 1303 -91 875 529 
Q 447 1150 447 2328 
Q 447 3434 972 4092 
Q 1497 4750 2381 4750 
Q 2619 4750 2861 4703 
Q 3103 4656 3366 4563 
z
" transform="scale(0.015625)"/>
       </defs>
       <use xlink:href="#DejaVuSans-36"/>
       <use xlink:href="#DejaVuSans-30" x="63.623047"/>
       <use xlink:href="#DejaVuSans-30" x="127.246094"/>
      </g>
     </g>
    </g>
    <g id="xtick_5">
     <g id="line2d_5">
      <g>
       <use xlink:href="#md04795e7d2" x="291.996591" y="231.617555" style="stroke: #000000; stroke-width: 0.8"/>
      </g>
     </g>
     <g id="text_5">
      <!-- 800 -->
      <g transform="translate(282.452841 246.215993) scale(0.1 -0.1)">
       <defs>
        <path id="DejaVuSans-38" d="M 2034 2216 
Q 1584 2216 1326 1975 
Q 1069 1734 1069 1313 
Q 1069 891 1326 650 
Q 1584 409 2034 409 
Q 2484 409 2743 651 
Q 3003 894 3003 1313 
Q 3003 1734 2745 1975 
Q 2488 2216 2034 2216 
z
M 1403 2484 
Q 997 2584 770 2862 
Q 544 3141 544 3541 
Q 544 4100 942 4425 
Q 1341 4750 2034 4750 
Q 2731 4750 3128 4425 
Q 3525 4100 3525 3541 
Q 3525 3141 3298 2862 
Q 3072 2584 2669 2484 
Q 3125 2378 3379 2068 
Q 3634 1759 3634 1313 
Q 3634 634 3220 271 
Q 2806 -91 2034 -91 
Q 1263 -91 848 271 
Q 434 634 434 1313 
Q 434 1759 690 2068 
Q 947 2378 1403 2484 
z
M 1172 3481 
Q 1172 3119 1398 2916 
Q 1625 2713 2034 2713 
Q 2441 2713 2670 2916 
Q 2900 3119 2900 3481 
Q 2900 3844 2670 4047 
Q 2441 4250 2034 4250 
Q 1625 4250 1398 4047 
Q 1172 3844 1172 3481 
z
" transform="scale(0.015625)"/>
       </defs>
       <use xlink:href="#DejaVuSans-38"/>
       <use xlink:href="#DejaVuSans-30" x="63.623047"/>
       <use xlink:href="#DejaVuSans-30" x="127.246094"/>
      </g>
     </g>
    </g>
    <g id="xtick_6">
     <g id="line2d_6">
      <g>
       <use xlink:href="#md04795e7d2" x="352.869318" y="231.617555" style="stroke: #000000; stroke-width: 0.8"/>
      </g>
     </g>
     <g id="text_6">
      <!-- 1000 -->
      <g transform="translate(340.144318 246.215993) scale(0.1 -0.1)">
       <defs>
        <path id="DejaVuSans-31" d="M 794 531 
L 1825 531 
L 1825 4091 
L 703 3866 
L 703 4441 
L 1819 4666 
L 2450 4666 
L 2450 531 
L 3481 531 
L 3481 0 
L 794 0 
L 794 531 
z
" transform="scale(0.015625)"/>
       </defs>
       <use xlink:href="#DejaVuSans-31"/>
       <use xlink:href="#DejaVuSans-30" x="63.623047"/>
       <use xlink:href="#DejaVuSans-30" x="127.246094"/>
       <use xlink:href="#DejaVuSans-30" x="190.869141"/>
      </g>
     </g>
    </g>
   </g>
   <g id="matplotlib.axis_2">
    <g id="ytick_1">
     <g id="line2d_7">
      <defs>
       <path id="mf10ce74d58" d="M 0 0 
L -3.5 0 
" style="stroke: #000000; stroke-width: 0.8"/>
      </defs>
      <g>
       <use xlink:href="#mf10ce74d58" x="33.2875" y="221.537555" style="stroke: #000000; stroke-width: 0.8"/>
      </g>
     </g>
     <g id="text_7">
      <!-- 0 -->
      <g transform="translate(19.925 225.336774) scale(0.1 -0.1)">
       <use xlink:href="#DejaVuSans-30"/>
      </g>
     </g>
    </g>
    <g id="ytick_2">
     <g id="line2d_8">
      <g>
       <use xlink:href="#mf10ce74d58" x="33.2875" y="179.429888" style="stroke: #000000; stroke-width: 0.8"/>
      </g>
     </g>
     <g id="text_8">
      <!-- 20 -->
      <g transform="translate(13.5625 183.229107) scale(0.1 -0.1)">
       <use xlink:href="#DejaVuSans-32"/>
       <use xlink:href="#DejaVuSans-30" x="63.623047"/>
      </g>
     </g>
    </g>
    <g id="ytick_3">
     <g id="line2d_9">
      <g>
       <use xlink:href="#mf10ce74d58" x="33.2875" y="137.322221" style="stroke: #000000; stroke-width: 0.8"/>
      </g>
     </g>
     <g id="text_9">
      <!-- 40 -->
      <g transform="translate(13.5625 141.121439) scale(0.1 -0.1)">
       <use xlink:href="#DejaVuSans-34"/>
       <use xlink:href="#DejaVuSans-30" x="63.623047"/>
      </g>
     </g>
    </g>
    <g id="ytick_4">
     <g id="line2d_10">
      <g>
       <use xlink:href="#mf10ce74d58" x="33.2875" y="95.214553" style="stroke: #000000; stroke-width: 0.8"/>
      </g>
     </g>
     <g id="text_10">
      <!-- 60 -->
      <g transform="translate(13.5625 99.013772) scale(0.1 -0.1)">
       <use xlink:href="#DejaVuSans-36"/>
       <use xlink:href="#DejaVuSans-30" x="63.623047"/>
      </g>
     </g>
    </g>
    <g id="ytick_5">
     <g id="line2d_11">
      <g>
       <use xlink:href="#mf10ce74d58" x="33.2875" y="53.106886" style="stroke: #000000; stroke-width: 0.8"/>
      </g>
     </g>
     <g id="text_11">
      <!-- 80 -->
      <g transform="translate(13.5625 56.906105) scale(0.1 -0.1)">
       <use xlink:href="#DejaVuSans-38"/>
       <use xlink:href="#DejaVuSans-30" x="63.623047"/>
      </g>
     </g>
    </g>
    <g id="ytick_6">
     <g id="line2d_12">
      <g>
       <use xlink:href="#mf10ce74d58" x="33.2875" y="10.999219" style="stroke: #000000; stroke-width: 0.8"/>
      </g>
     </g>
     <g id="text_12">
      <!-- 100 -->
      <g transform="translate(7.2 14.798438) scale(0.1 -0.1)">
       <use xlink:href="#DejaVuSans-31"/>
       <use xlink:href="#DejaVuSans-30" x="63.623047"/>
       <use xlink:href="#DejaVuSans-30" x="127.246094"/>
      </g>
     </g>
    </g>
   </g>
   <g id="line2d_13">
    <path d="M 48.505682 22.601893 
L 48.810045 90.438023 
L 49.114409 96.568005 
L 49.418773 96.568005 
L 49.723136 106.660174 
L 50.0275 106.660174 
L 50.331864 108.436447 
L 51.853682 108.415196 
L 52.158045 109.17454 
L 52.462409 109.17454 
L 52.766773 110.019918 
L 53.071136 110.019918 
L 53.3755 111.187081 
L 54.288591 111.23139 
L 54.897318 111.310331 
L 63.723864 111.364294 
L 64.028227 115.845028 
L 64.332591 115.845028 
L 64.636955 115.671357 
L 64.941318 115.671357 
L 65.245682 115.358992 
L 66.158773 115.358992 
L 66.463136 115.616125 
L 81.376955 115.616125 
L 81.681318 116.701448 
L 99.638773 116.701448 
L 99.943136 118.18896 
L 110.900227 118.150208 
L 111.204591 120.025235 
L 111.508955 120.025235 
L 111.813318 119.752007 
L 230.210773 119.752007 
L 230.515136 121.363226 
L 352.869318 121.307055 
L 352.869318 121.307055 
" clip-path="url(#p127ada2289)" style="fill: none; stroke: #1f77b4; stroke-width: 1.5; stroke-linecap: square"/>
   </g>
   <g id="line2d_14">
    <path d="M 48.505682 39.3026 
L 48.810045 39.3026 
L 49.114409 38.254585 
L 49.418773 38.254585 
L 49.723136 41.564866 
L 50.0275 42.782167 
L 50.331864 42.753567 
L 50.636227 43.550525 
L 51.549318 43.550525 
L 52.158045 44.00744 
L 52.462409 43.558224 
L 52.766773 44.748338 
L 53.071136 44.748338 
L 53.3755 45.283863 
L 53.679864 44.824581 
L 53.984227 44.893948 
L 54.288591 45.209379 
L 54.592955 45.209379 
L 54.897318 45.337557 
L 55.201682 45.338445 
L 56.114773 45.718313 
L 56.419136 46.057389 
L 57.027864 46.057389 
L 57.332227 46.213028 
L 57.636591 46.057389 
L 57.940955 46.08485 
L 59.462773 46.822616 
L 59.767136 46.738146 
L 60.0715 46.866324 
L 61.288955 46.953543 
L 62.202045 47.1552 
L 62.506409 47.1552 
L 62.810773 47.464126 
L 63.115136 47.301908 
L 63.4195 47.590784 
L 64.332591 47.590784 
L 64.941318 48.103236 
L 65.245682 47.882527 
L 65.550045 47.882527 
L 65.854409 48.016911 
L 66.158773 47.882527 
L 66.7675 47.882527 
L 67.071864 48.112807 
L 67.376227 47.882527 
L 67.680591 48.117989 
L 67.984955 48.016911 
L 68.289318 48.249539 
L 69.506773 48.267761 
L 69.811136 48.483158 
L 70.1155 48.507535 
L 70.419864 48.722932 
L 70.724227 48.507535 
L 71.028591 48.50379 
L 71.332955 48.895892 
L 71.637318 48.722932 
L 72.550409 48.722932 
L 72.854773 48.877886 
L 73.159136 48.877886 
L 73.4635 49.110042 
L 73.767864 48.956876 
L 74.072227 48.956876 
L 74.680955 49.282029 
L 74.985318 49.282029 
L 75.289682 49.436983 
L 75.594045 49.436983 
L 76.202773 49.709131 
L 76.507136 49.709131 
L 76.8115 49.886323 
L 77.115864 49.886323 
L 77.420227 50.118479 
L 77.724591 50.118479 
L 78.028955 50.273434 
L 78.942045 50.273434 
L 79.246409 50.924838 
L 79.550773 50.986915 
L 79.855136 50.924838 
L 80.1595 50.389881 
L 80.463864 50.490465 
L 80.768227 50.924838 
L 81.072591 51.141869 
L 81.376955 50.986915 
L 82.290045 51.052378 
L 82.594409 51.141869 
L 83.203136 51.052378 
L 83.5075 51.464445 
L 83.811864 51.228178 
L 85.333682 51.694615 
L 85.638045 51.694615 
L 85.942409 52.150564 
L 86.246773 51.838147 
L 86.551136 51.70966 
L 86.8555 51.862744 
L 87.464227 51.795199 
L 88.377318 51.913194 
L 88.681682 51.853382 
L 88.986045 52.124037 
L 89.899136 52.124037 
L 90.2035 52.342784 
L 90.507864 52.342784 
L 90.812227 52.218108 
L 91.420955 52.411866 
L 94.464591 52.447097 
L 95.073318 52.777642 
L 95.377682 52.665845 
L 96.290773 52.794599 
L 96.595136 52.965503 
L 97.812591 52.794599 
L 98.116955 53.223968 
L 98.421318 53.223968 
L 98.725682 53.335765 
L 99.334409 53.278338 
L 99.943136 53.331501 
L 100.2475 53.293573 
L 100.551864 53.398722 
L 101.160591 53.328676 
L 102.682409 53.385871 
L 102.986773 53.936812 
L 103.5955 53.936812 
L 103.899864 54.067965 
L 106.030409 54.087061 
L 106.334773 53.936812 
L 108.769682 54.157974 
L 109.074045 54.614293 
L 110.900227 54.747189 
L 112.117682 54.794053 
L 112.726409 54.887845 
L 113.335136 54.794053 
L 113.943864 54.895221 
L 114.248227 54.95819 
L 114.856955 54.896981 
L 116.378773 54.958076 
L 116.683136 55.220236 
L 116.9875 55.220236 
L 117.596227 55.034267 
L 118.509318 55.151541 
L 119.118045 55.144136 
L 119.422409 55.296084 
L 119.726773 55.212706 
L 120.639864 55.366313 
L 121.248591 55.320779 
L 122.466045 55.673762 
L 122.770409 55.621623 
L 123.074773 55.78576 
L 123.379136 56.085542 
L 123.6835 56.085542 
L 124.292227 56.273837 
L 124.596591 56.273837 
L 124.900955 56.484839 
L 128.553318 56.59592 
L 129.162045 56.607699 
L 129.466409 56.546715 
L 129.770773 56.661269 
L 131.292591 56.599065 
L 131.596955 56.700313 
L 131.901318 56.990511 
L 132.205682 56.645277 
L 133.423136 56.624281 
L 133.7275 56.788304 
L 134.031864 57.234786 
L 137.0755 57.332034 
L 137.379864 57.693598 
L 137.684227 57.693598 
L 137.988591 57.2951 
L 138.597318 57.398193 
L 139.206045 57.296644 
L 139.510409 57.393892 
L 139.814773 57.756079 
L 140.119136 57.878251 
L 142.249682 57.982011 
L 142.554045 58.090396 
L 142.858409 57.857012 
L 143.7715 57.857012 
L 144.075864 57.971383 
L 144.380227 58.220027 
L 145.902045 58.318902 
L 146.206409 58.763765 
L 146.510773 58.690746 
L 147.1195 58.912606 
L 147.728227 58.832804 
L 148.336955 58.882426 
L 148.641318 59.107265 
L 149.554409 59.058538 
L 149.858773 59.339888 
L 150.163136 59.058538 
L 150.771864 59.395874 
L 151.076227 59.080063 
L 151.684955 59.334016 
L 151.989318 59.175627 
L 152.598045 59.566661 
L 152.902409 59.965156 
L 153.206773 59.560928 
L 154.424227 59.716869 
L 154.728591 59.971781 
L 155.337318 60.069028 
L 156.554773 60.164604 
L 157.1635 60.225592 
L 158.380955 60.253849 
L 158.685318 60.090442 
L 159.294045 60.090442 
L 159.902773 60.517735 
L 160.5115 60.433652 
L 161.424591 60.433652 
L 161.728955 60.651628 
L 162.033318 60.541738 
L 162.642045 60.847967 
L 164.468227 60.847967 
L 164.772591 61.022913 
L 165.076955 60.847967 
L 165.381318 61.192475 
L 165.990045 61.192475 
L 166.294409 60.956053 
L 166.598773 60.956053 
L 166.903136 61.192475 
L 167.2075 60.978538 
L 167.816227 60.978538 
L 168.120591 61.323046 
L 168.424955 61.118076 
L 169.033682 61.107905 
L 169.338045 61.272204 
L 169.642409 61.301632 
L 169.946773 61.056236 
L 170.251136 61.056236 
L 170.5555 61.18741 
L 170.859864 61.185603 
L 171.164227 61.327688 
L 171.772955 61.328032 
L 172.077318 61.328032 
L 172.990409 61.700036 
L 173.599136 61.782718 
L 175.120955 62.070637 
L 175.425318 61.997859 
L 175.729682 62.122306 
L 176.642773 62.105396 
L 177.555864 62.237756 
L 178.164591 62.204507 
L 178.468955 62.403459 
L 178.773318 62.403459 
L 179.077682 62.655046 
L 179.382045 62.403459 
L 179.686409 62.436709 
L 179.990773 62.655046 
L 182.121318 62.688295 
L 183.034409 62.882915 
L 183.338773 63.355147 
L 184.251864 63.437161 
L 184.556227 63.517763 
L 185.164955 63.955664 
L 185.469318 64.155718 
L 185.773682 64.155718 
L 186.078045 64.022833 
L 186.382409 64.09607 
L 186.686773 64.022833 
L 186.991136 64.121013 
L 187.599864 64.419911 
L 188.208591 64.470053 
L 189.121682 65.233627 
L 189.426045 64.788042 
L 190.339136 64.870055 
L 190.6435 65.083017 
L 191.860955 65.083017 
L 192.469682 65.017764 
L 192.774045 65.395131 
L 194.600227 65.395131 
L 194.904591 65.949899 
L 195.208955 65.949899 
L 195.513318 65.45498 
L 195.817682 65.45498 
L 196.122045 65.702639 
L 197.035136 65.821751 
L 197.3395 66.102238 
L 197.643864 65.925983 
L 198.252591 66.009748 
L 198.861318 66.091762 
L 199.165682 66.390867 
L 200.991864 66.493853 
L 201.904955 66.583536 
L 202.209318 66.590891 
L 202.513682 66.750755 
L 202.818045 66.656144 
L 203.122409 66.745976 
L 203.426773 66.41707 
L 204.0355 66.857641 
L 204.644227 66.899863 
L 204.948591 67.145336 
L 205.557318 67.181525 
L 205.861682 67.33398 
L 206.166045 67.33398 
L 206.470409 67.181525 
L 207.079136 67.484844 
L 207.3835 67.484844 
L 207.687864 67.637298 
L 207.992227 67.649233 
L 208.296591 67.354048 
L 208.600955 67.63351 
L 209.209682 67.541921 
L 210.427136 67.579911 
L 210.7315 67.809634 
L 211.035864 67.809634 
L 211.340227 67.655623 
L 211.644591 68.013475 
L 211.948955 68.013475 
L 212.253318 68.136582 
L 215.296955 68.225154 
L 215.601318 68.313911 
L 215.905682 68.225338 
L 216.210045 68.356894 
L 217.731864 68.416816 
L 218.949318 68.628346 
L 222.297318 68.9801 
L 222.601682 69.259568 
L 224.732227 69.330146 
L 225.036591 69.901735 
L 225.949682 69.974508 
L 226.254045 69.961764 
L 226.558409 70.181886 
L 226.862773 70.181886 
L 227.167136 69.961764 
L 227.775864 70.160544 
L 230.515136 70.261654 
L 231.123864 70.331831 
L 231.428227 70.181625 
L 231.732591 70.385521 
L 232.036955 70.826849 
L 232.341318 70.350191 
L 232.950045 70.350191 
L 233.254409 70.334125 
L 233.558773 70.542945 
L 233.863136 70.542945 
L 234.1675 70.391818 
L 234.471864 71.008159 
L 234.776227 70.464591 
L 235.993682 70.478994 
L 236.298045 70.598975 
L 236.906773 70.696875 
L 237.211136 71.02168 
L 237.819864 71.295863 
L 239.646045 71.270521 
L 240.559136 71.637765 
L 241.472227 71.739897 
L 242.385318 71.867747 
L 242.994045 71.788018 
L 243.602773 71.867747 
L 244.515864 71.795577 
L 244.820227 72.023732 
L 246.037682 72.108215 
L 246.342045 72.146555 
L 246.646409 72.070942 
L 246.950773 72.12958 
L 247.255136 72.074212 
L 247.5595 72.193494 
L 248.168227 72.074212 
L 248.472591 72.168101 
L 248.776955 72.478726 
L 249.081318 72.168101 
L 250.603136 72.265141 
L 250.9075 72.368097 
L 251.516227 72.368097 
L 251.820591 72.634286 
L 253.038045 72.702746 
L 253.646773 72.908022 
L 253.951136 72.913201 
L 254.2555 73.066207 
L 255.168591 73.088454 
L 255.472955 73.185332 
L 255.777318 73.149435 
L 256.690409 73.281702 
L 257.299136 73.240044 
L 257.6035 73.101924 
L 257.907864 73.351759 
L 258.820955 73.469028 
L 259.125318 73.690833 
L 260.038409 73.690833 
L 260.342773 73.633649 
L 260.647136 73.768792 
L 261.255864 73.774053 
L 261.864591 73.841955 
L 262.473318 73.725444 
L 263.386409 73.71118 
L 263.995136 73.943553 
L 265.821318 74.042849 
L 266.125682 74.237323 
L 267.038773 74.180969 
L 267.6475 74.311475 
L 267.951864 74.239384 
L 268.864955 74.459619 
L 269.169318 74.251953 
L 269.473682 74.549033 
L 269.778045 74.604637 
L 270.082409 74.47204 
L 270.386773 74.47204 
L 270.691136 74.602546 
L 271.299864 74.602546 
L 271.604227 74.875445 
L 275.256591 74.92695 
L 275.560955 75.030704 
L 275.865318 74.976786 
L 276.474045 75.083308 
L 279.517682 75.177016 
L 280.735136 75.248959 
L 281.648227 75.279732 
L 281.952591 75.808519 
L 282.256955 75.337183 
L 283.474409 75.420543 
L 283.778773 75.725654 
L 285.909318 75.819715 
L 286.518045 75.981694 
L 287.126773 75.981694 
L 287.431136 76.376939 
L 287.7355 75.909515 
L 288.344227 75.926284 
L 288.648591 76.150257 
L 288.952955 76.150257 
L 289.257318 75.984641 
L 289.561682 76.03442 
L 289.866045 76.443752 
L 291.0835 76.521399 
L 292.300955 76.685367 
L 293.214045 76.734828 
L 296.866409 77.05988 
L 297.170773 77.038217 
L 297.475136 77.224455 
L 297.7795 77.128414 
L 299.910045 77.35673 
L 300.214409 77.239123 
L 300.823136 77.418373 
L 301.431864 77.322986 
L 301.736227 77.322986 
L 302.040591 77.517024 
L 302.344955 77.520551 
L 302.953682 77.863953 
L 303.866773 77.768009 
L 304.171136 77.643962 
L 304.779864 77.788823 
L 309.040955 78.063221 
L 309.345318 78.251579 
L 310.867136 78.244329 
L 315.128227 78.410153 
L 315.736955 78.369661 
L 316.345682 78.404112 
L 319.998045 78.478169 
L 320.302409 78.728068 
L 323.954773 78.728068 
L 324.259136 78.890527 
L 324.5635 78.833195 
L 324.867864 79.09407 
L 326.998409 79.087366 
L 330.042045 79.247674 
L 330.346409 79.410133 
L 330.650773 79.247674 
L 331.868227 79.370979 
L 332.172591 79.581337 
L 335.824955 79.652026 
L 336.433682 79.709477 
L 337.346773 79.687397 
L 337.651136 79.885322 
L 338.868591 79.988978 
L 339.172955 79.716093 
L 339.781682 79.686582 
L 340.086045 79.983538 
L 340.694773 80.127557 
L 341.3035 80.320117 
L 341.607864 80.007302 
L 341.912227 80.308511 
L 342.216591 80.270625 
L 342.825318 80.509376 
L 343.129682 80.639458 
L 343.434045 80.504947 
L 343.738409 80.504947 
L 344.042773 81.119299 
L 345.868955 81.616817 
L 346.173318 81.417541 
L 346.782045 81.734518 
L 347.086409 82.074706 
L 347.390773 82.036821 
L 347.695136 82.363119 
L 347.9995 82.07023 
L 348.608227 82.048307 
L 349.521318 82.14139 
L 350.130045 82.319763 
L 350.434409 82.157444 
L 350.738773 82.353944 
L 351.956227 82.492897 
L 352.869318 82.58414 
L 352.869318 82.58414 
" clip-path="url(#p127ada2289)" style="fill: none; stroke: #ff7f0e; stroke-width: 1.5; stroke-linecap: square"/>
   </g>
   <g id="line2d_15">
    <path d="M 48.505682 19.937555 
L 48.810045 21.021811 
L 49.114409 21.206847 
L 49.723136 22.465012 
L 50.0275 23.683607 
L 50.331864 26.068663 
L 50.636227 27.096769 
L 51.244955 27.096769 
L 51.549318 27.724668 
L 51.853682 27.855211 
L 52.158045 29.355879 
L 52.462409 29.66557 
L 52.766773 31.13144 
L 53.071136 31.229874 
L 53.3755 32.146458 
L 53.679864 32.395429 
L 53.984227 33.520495 
L 54.288591 33.904888 
L 54.592955 34.984454 
L 54.897318 34.984454 
L 55.201682 36.276797 
L 55.506045 36.645807 
L 55.810409 36.645807 
L 56.114773 37.292285 
L 56.419136 37.590202 
L 56.7235 37.375136 
L 57.027864 37.982147 
L 57.332227 39.128066 
L 57.636591 39.60605 
L 57.940955 39.868915 
L 58.549682 39.915986 
L 58.854045 40.394862 
L 59.158409 40.408899 
L 59.462773 41.174598 
L 59.767136 41.466734 
L 60.0715 41.466734 
L 60.375864 41.86904 
L 60.680227 41.86904 
L 61.288955 42.216456 
L 61.593318 42.498344 
L 61.897682 43.108759 
L 62.202045 43.264696 
L 62.506409 44.275106 
L 62.810773 44.641709 
L 63.4195 44.932918 
L 63.723864 45.207463 
L 64.636955 45.257557 
L 64.941318 45.257557 
L 65.245682 45.621591 
L 65.854409 45.60568 
L 66.158773 45.714342 
L 66.463136 46.074376 
L 67.071864 46.057039 
L 67.376227 46.25995 
L 70.419864 46.368991 
L 70.724227 46.471791 
L 71.028591 46.803989 
L 71.637318 46.884951 
L 71.941682 46.884951 
L 72.246045 47.159795 
L 72.550409 47.131445 
L 73.159136 47.648579 
L 73.767864 47.646634 
L 74.072227 47.772351 
L 74.376591 48.163202 
L 74.680955 48.163202 
L 75.289682 48.597608 
L 75.594045 48.622882 
L 75.898409 48.963391 
L 76.8115 49.442638 
L 77.420227 49.906961 
L 77.724591 49.906961 
L 78.028955 50.257051 
L 78.333318 50.257051 
L 78.637682 50.868967 
L 78.942045 51.173408 
L 79.246409 51.219367 
L 79.550773 51.991904 
L 81.072591 52.122411 
L 81.376955 52.694043 
L 82.898773 52.719519 
L 83.5075 52.719519 
L 83.811864 53.160295 
L 84.116227 53.283978 
L 84.724955 53.283978 
L 85.029318 53.147825 
L 85.638045 53.147825 
L 85.942409 53.400568 
L 87.159864 53.367503 
L 88.681682 53.392037 
L 88.986045 53.918549 
L 90.507864 54.44955 
L 90.812227 54.961585 
L 91.420955 55.146022 
L 94.768955 55.193633 
L 95.073318 55.554205 
L 95.682045 55.623854 
L 96.595136 55.782619 
L 96.8995 55.656426 
L 98.421318 55.67778 
L 98.725682 56.031188 
L 99.030045 56.031188 
L 99.334409 56.176939 
L 100.856227 56.15552 
L 101.464955 56.426691 
L 102.073682 56.426691 
L 103.5955 56.968675 
L 104.812955 57.345467 
L 105.117318 57.345467 
L 105.421682 57.478417 
L 105.726045 57.478417 
L 106.030409 57.640865 
L 108.160955 57.738181 
L 110.2915 58.178438 
L 110.595864 58.535501 
L 110.900227 58.535501 
L 111.204591 58.696784 
L 113.943864 58.81028 
L 115.465682 59.204701 
L 115.770045 59.491175 
L 118.813682 59.802911 
L 127.335864 59.906778 
L 127.640227 60.121462 
L 130.075136 60.153343 
L 130.988227 60.331091 
L 131.901318 60.451918 
L 134.640591 60.587599 
L 134.944955 60.850142 
L 137.988591 60.972074 
L 138.901682 61.028208 
L 140.727864 61.138917 
L 141.640955 61.224224 
L 152.598045 61.286664 
L 152.902409 61.660989 
L 154.424227 61.80301 
L 155.337318 61.84702 
L 156.250409 61.84702 
L 156.554773 62.170187 
L 157.1635 62.171027 
L 158.076591 62.450896 
L 167.511864 62.550644 
L 168.424955 62.597203 
L 171.164227 62.668798 
L 171.772955 62.743803 
L 173.599136 62.743803 
L 173.9035 62.919361 
L 176.642773 63.02322 
L 177.2515 63.081079 
L 179.686409 63.180881 
L 181.208227 63.254286 
L 184.251864 63.312883 
L 184.556227 63.491317 
L 185.164955 63.579883 
L 185.773682 63.697197 
L 186.686773 63.750797 
L 189.121682 63.808645 
L 190.034773 63.932724 
L 191.860955 63.964269 
L 192.165318 64.151907 
L 200.383136 64.250791 
L 200.6875 64.371794 
L 201.600591 64.371794 
L 202.209318 64.483987 
L 204.339864 64.53487 
L 204.644227 64.679901 
L 208.905318 64.781372 
L 211.035864 64.843019 
L 216.210045 64.944037 
L 218.644955 64.984357 
L 227.167136 65.076006 
L 229.297682 65.27554 
L 229.906409 65.394567 
L 247.863864 65.503247 
L 248.776955 65.555442 
L 257.907864 65.578392 
L 258.212227 221.537555 
L 352.869318 221.537555 
L 352.869318 221.537555 
" clip-path="url(#p127ada2289)" style="fill: none; stroke: #2ca02c; stroke-width: 1.5; stroke-linecap: square"/>
   </g>
   <g id="patch_3">
    <path d="M 33.2875 231.617555 
L 33.2875 9.857555 
" style="fill: none; stroke: #000000; stroke-width: 0.8; stroke-linejoin: miter; stroke-linecap: square"/>
   </g>
   <g id="patch_4">
    <path d="M 368.0875 231.617555 
L 368.0875 9.857555 
" style="fill: none; stroke: #000000; stroke-width: 0.8; stroke-linejoin: miter; stroke-linecap: square"/>
   </g>
   <g id="patch_5">
    <path d="M 33.2875 231.617555 
L 368.0875 231.617555 
" style="fill: none; stroke: #000000; stroke-width: 0.8; stroke-linejoin: miter; stroke-linecap: square"/>
   </g>
   <g id="patch_6">
    <path d="M 33.2875 9.857555 
L 368.0875 9.857555 
" style="fill: none; stroke: #000000; stroke-width: 0.8; stroke-linejoin: miter; stroke-linecap: square"/>
   </g>
   <g id="legend_1">
    <g id="patch_7">
     <path d="M 204.401563 61.89193 
L 361.0875 61.89193 
Q 363.0875 61.89193 363.0875 59.89193 
L 363.0875 16.857555 
Q 363.0875 14.857555 361.0875 14.857555 
L 204.401563 14.857555 
Q 202.401563 14.857555 202.401563 16.857555 
L 202.401563 59.89193 
Q 202.401563 61.89193 204.401563 61.89193 
z
" style="fill: #ffffff; opacity: 0.8; stroke: #cccccc; stroke-linejoin: miter"/>
    </g>
    <g id="line2d_16">
     <path d="M 206.401563 22.955993 
L 216.401563 22.955993 
L 226.401563 22.955993 
" style="fill: none; stroke: #1f77b4; stroke-width: 1.5; stroke-linecap: square"/>
    </g>
    <g id="text_13">
     <!-- PSO communication cost -->
     <g transform="translate(234.401563 26.455993) scale(0.1 -0.1)">
      <defs>
       <path id="DejaVuSans-50" d="M 1259 4147 
L 1259 2394 
L 2053 2394 
Q 2494 2394 2734 2622 
Q 2975 2850 2975 3272 
Q 2975 3691 2734 3919 
Q 2494 4147 2053 4147 
L 1259 4147 
z
M 628 4666 
L 2053 4666 
Q 2838 4666 3239 4311 
Q 3641 3956 3641 3272 
Q 3641 2581 3239 2228 
Q 2838 1875 2053 1875 
L 1259 1875 
L 1259 0 
L 628 0 
L 628 4666 
z
" transform="scale(0.015625)"/>
       <path id="DejaVuSans-53" d="M 3425 4513 
L 3425 3897 
Q 3066 4069 2747 4153 
Q 2428 4238 2131 4238 
Q 1616 4238 1336 4038 
Q 1056 3838 1056 3469 
Q 1056 3159 1242 3001 
Q 1428 2844 1947 2747 
L 2328 2669 
Q 3034 2534 3370 2195 
Q 3706 1856 3706 1288 
Q 3706 609 3251 259 
Q 2797 -91 1919 -91 
Q 1588 -91 1214 -16 
Q 841 59 441 206 
L 441 856 
Q 825 641 1194 531 
Q 1563 422 1919 422 
Q 2459 422 2753 634 
Q 3047 847 3047 1241 
Q 3047 1584 2836 1778 
Q 2625 1972 2144 2069 
L 1759 2144 
Q 1053 2284 737 2584 
Q 422 2884 422 3419 
Q 422 4038 858 4394 
Q 1294 4750 2059 4750 
Q 2388 4750 2728 4690 
Q 3069 4631 3425 4513 
z
" transform="scale(0.015625)"/>
       <path id="DejaVuSans-4f" d="M 2522 4238 
Q 1834 4238 1429 3725 
Q 1025 3213 1025 2328 
Q 1025 1447 1429 934 
Q 1834 422 2522 422 
Q 3209 422 3611 934 
Q 4013 1447 4013 2328 
Q 4013 3213 3611 3725 
Q 3209 4238 2522 4238 
z
M 2522 4750 
Q 3503 4750 4090 4092 
Q 4678 3434 4678 2328 
Q 4678 1225 4090 567 
Q 3503 -91 2522 -91 
Q 1538 -91 948 565 
Q 359 1222 359 2328 
Q 359 3434 948 4092 
Q 1538 4750 2522 4750 
z
" transform="scale(0.015625)"/>
       <path id="DejaVuSans-20" transform="scale(0.015625)"/>
       <path id="DejaVuSans-63" d="M 3122 3366 
L 3122 2828 
Q 2878 2963 2633 3030 
Q 2388 3097 2138 3097 
Q 1578 3097 1268 2742 
Q 959 2388 959 1747 
Q 959 1106 1268 751 
Q 1578 397 2138 397 
Q 2388 397 2633 464 
Q 2878 531 3122 666 
L 3122 134 
Q 2881 22 2623 -34 
Q 2366 -91 2075 -91 
Q 1284 -91 818 406 
Q 353 903 353 1747 
Q 353 2603 823 3093 
Q 1294 3584 2113 3584 
Q 2378 3584 2631 3529 
Q 2884 3475 3122 3366 
z
" transform="scale(0.015625)"/>
       <path id="DejaVuSans-6f" d="M 1959 3097 
Q 1497 3097 1228 2736 
Q 959 2375 959 1747 
Q 959 1119 1226 758 
Q 1494 397 1959 397 
Q 2419 397 2687 759 
Q 2956 1122 2956 1747 
Q 2956 2369 2687 2733 
Q 2419 3097 1959 3097 
z
M 1959 3584 
Q 2709 3584 3137 3096 
Q 3566 2609 3566 1747 
Q 3566 888 3137 398 
Q 2709 -91 1959 -91 
Q 1206 -91 779 398 
Q 353 888 353 1747 
Q 353 2609 779 3096 
Q 1206 3584 1959 3584 
z
" transform="scale(0.015625)"/>
       <path id="DejaVuSans-6d" d="M 3328 2828 
Q 3544 3216 3844 3400 
Q 4144 3584 4550 3584 
Q 5097 3584 5394 3201 
Q 5691 2819 5691 2113 
L 5691 0 
L 5113 0 
L 5113 2094 
Q 5113 2597 4934 2840 
Q 4756 3084 4391 3084 
Q 3944 3084 3684 2787 
Q 3425 2491 3425 1978 
L 3425 0 
L 2847 0 
L 2847 2094 
Q 2847 2600 2669 2842 
Q 2491 3084 2119 3084 
Q 1678 3084 1418 2786 
Q 1159 2488 1159 1978 
L 1159 0 
L 581 0 
L 581 3500 
L 1159 3500 
L 1159 2956 
Q 1356 3278 1631 3431 
Q 1906 3584 2284 3584 
Q 2666 3584 2933 3390 
Q 3200 3197 3328 2828 
z
" transform="scale(0.015625)"/>
       <path id="DejaVuSans-75" d="M 544 1381 
L 544 3500 
L 1119 3500 
L 1119 1403 
Q 1119 906 1312 657 
Q 1506 409 1894 409 
Q 2359 409 2629 706 
Q 2900 1003 2900 1516 
L 2900 3500 
L 3475 3500 
L 3475 0 
L 2900 0 
L 2900 538 
Q 2691 219 2414 64 
Q 2138 -91 1772 -91 
Q 1169 -91 856 284 
Q 544 659 544 1381 
z
M 1991 3584 
L 1991 3584 
z
" transform="scale(0.015625)"/>
       <path id="DejaVuSans-6e" d="M 3513 2113 
L 3513 0 
L 2938 0 
L 2938 2094 
Q 2938 2591 2744 2837 
Q 2550 3084 2163 3084 
Q 1697 3084 1428 2787 
Q 1159 2491 1159 1978 
L 1159 0 
L 581 0 
L 581 3500 
L 1159 3500 
L 1159 2956 
Q 1366 3272 1645 3428 
Q 1925 3584 2291 3584 
Q 2894 3584 3203 3211 
Q 3513 2838 3513 2113 
z
" transform="scale(0.015625)"/>
       <path id="DejaVuSans-69" d="M 603 3500 
L 1178 3500 
L 1178 0 
L 603 0 
L 603 3500 
z
M 603 4863 
L 1178 4863 
L 1178 4134 
L 603 4134 
L 603 4863 
z
" transform="scale(0.015625)"/>
       <path id="DejaVuSans-61" d="M 2194 1759 
Q 1497 1759 1228 1600 
Q 959 1441 959 1056 
Q 959 750 1161 570 
Q 1363 391 1709 391 
Q 2188 391 2477 730 
Q 2766 1069 2766 1631 
L 2766 1759 
L 2194 1759 
z
M 3341 1997 
L 3341 0 
L 2766 0 
L 2766 531 
Q 2569 213 2275 61 
Q 1981 -91 1556 -91 
Q 1019 -91 701 211 
Q 384 513 384 1019 
Q 384 1609 779 1909 
Q 1175 2209 1959 2209 
L 2766 2209 
L 2766 2266 
Q 2766 2663 2505 2880 
Q 2244 3097 1772 3097 
Q 1472 3097 1187 3025 
Q 903 2953 641 2809 
L 641 3341 
Q 956 3463 1253 3523 
Q 1550 3584 1831 3584 
Q 2591 3584 2966 3190 
Q 3341 2797 3341 1997 
z
" transform="scale(0.015625)"/>
       <path id="DejaVuSans-74" d="M 1172 4494 
L 1172 3500 
L 2356 3500 
L 2356 3053 
L 1172 3053 
L 1172 1153 
Q 1172 725 1289 603 
Q 1406 481 1766 481 
L 2356 481 
L 2356 0 
L 1766 0 
Q 1100 0 847 248 
Q 594 497 594 1153 
L 594 3053 
L 172 3053 
L 172 3500 
L 594 3500 
L 594 4494 
L 1172 4494 
z
" transform="scale(0.015625)"/>
       <path id="DejaVuSans-73" d="M 2834 3397 
L 2834 2853 
Q 2591 2978 2328 3040 
Q 2066 3103 1784 3103 
Q 1356 3103 1142 2972 
Q 928 2841 928 2578 
Q 928 2378 1081 2264 
Q 1234 2150 1697 2047 
L 1894 2003 
Q 2506 1872 2764 1633 
Q 3022 1394 3022 966 
Q 3022 478 2636 193 
Q 2250 -91 1575 -91 
Q 1294 -91 989 -36 
Q 684 19 347 128 
L 347 722 
Q 666 556 975 473 
Q 1284 391 1588 391 
Q 1994 391 2212 530 
Q 2431 669 2431 922 
Q 2431 1156 2273 1281 
Q 2116 1406 1581 1522 
L 1381 1569 
Q 847 1681 609 1914 
Q 372 2147 372 2553 
Q 372 3047 722 3315 
Q 1072 3584 1716 3584 
Q 2034 3584 2315 3537 
Q 2597 3491 2834 3397 
z
" transform="scale(0.015625)"/>
      </defs>
      <use xlink:href="#DejaVuSans-50"/>
      <use xlink:href="#DejaVuSans-53" x="60.302734"/>
      <use xlink:href="#DejaVuSans-4f" x="123.779297"/>
      <use xlink:href="#DejaVuSans-20" x="202.490234"/>
      <use xlink:href="#DejaVuSans-63" x="234.277344"/>
      <use xlink:href="#DejaVuSans-6f" x="289.257812"/>
      <use xlink:href="#DejaVuSans-6d" x="350.439453"/>
      <use xlink:href="#DejaVuSans-6d" x="447.851562"/>
      <use xlink:href="#DejaVuSans-75" x="545.263672"/>
      <use xlink:href="#DejaVuSans-6e" x="608.642578"/>
      <use xlink:href="#DejaVuSans-69" x="672.021484"/>
      <use xlink:href="#DejaVuSans-63" x="699.804688"/>
      <use xlink:href="#DejaVuSans-61" x="754.785156"/>
      <use xlink:href="#DejaVuSans-74" x="816.064453"/>
      <use xlink:href="#DejaVuSans-69" x="855.273438"/>
      <use xlink:href="#DejaVuSans-6f" x="883.056641"/>
      <use xlink:href="#DejaVuSans-6e" x="944.238281"/>
      <use xlink:href="#DejaVuSans-20" x="1007.617188"/>
      <use xlink:href="#DejaVuSans-63" x="1039.404297"/>
      <use xlink:href="#DejaVuSans-6f" x="1094.384766"/>
      <use xlink:href="#DejaVuSans-73" x="1155.566406"/>
      <use xlink:href="#DejaVuSans-74" x="1207.666016"/>
     </g>
    </g>
    <g id="line2d_17">
     <path d="M 206.401563 37.634118 
L 216.401563 37.634118 
L 226.401563 37.634118 
" style="fill: none; stroke: #ff7f0e; stroke-width: 1.5; stroke-linecap: square"/>
    </g>
    <g id="text_14">
     <!-- GA communication cost -->
     <g transform="translate(234.401563 41.134118) scale(0.1 -0.1)">
      <defs>
       <path id="DejaVuSans-47" d="M 3809 666 
L 3809 1919 
L 2778 1919 
L 2778 2438 
L 4434 2438 
L 4434 434 
Q 4069 175 3628 42 
Q 3188 -91 2688 -91 
Q 1594 -91 976 548 
Q 359 1188 359 2328 
Q 359 3472 976 4111 
Q 1594 4750 2688 4750 
Q 3144 4750 3555 4637 
Q 3966 4525 4313 4306 
L 4313 3634 
Q 3963 3931 3569 4081 
Q 3175 4231 2741 4231 
Q 1884 4231 1454 3753 
Q 1025 3275 1025 2328 
Q 1025 1384 1454 906 
Q 1884 428 2741 428 
Q 3075 428 3337 486 
Q 3600 544 3809 666 
z
" transform="scale(0.015625)"/>
       <path id="DejaVuSans-41" d="M 2188 4044 
L 1331 1722 
L 3047 1722 
L 2188 4044 
z
M 1831 4666 
L 2547 4666 
L 4325 0 
L 3669 0 
L 3244 1197 
L 1141 1197 
L 716 0 
L 50 0 
L 1831 4666 
z
" transform="scale(0.015625)"/>
      </defs>
      <use xlink:href="#DejaVuSans-47"/>
      <use xlink:href="#DejaVuSans-41" x="77.490234"/>
      <use xlink:href="#DejaVuSans-20" x="145.898438"/>
      <use xlink:href="#DejaVuSans-63" x="177.685547"/>
      <use xlink:href="#DejaVuSans-6f" x="232.666016"/>
      <use xlink:href="#DejaVuSans-6d" x="293.847656"/>
      <use xlink:href="#DejaVuSans-6d" x="391.259766"/>
      <use xlink:href="#DejaVuSans-75" x="488.671875"/>
      <use xlink:href="#DejaVuSans-6e" x="552.050781"/>
      <use xlink:href="#DejaVuSans-69" x="615.429688"/>
      <use xlink:href="#DejaVuSans-63" x="643.212891"/>
      <use xlink:href="#DejaVuSans-61" x="698.193359"/>
      <use xlink:href="#DejaVuSans-74" x="759.472656"/>
      <use xlink:href="#DejaVuSans-69" x="798.681641"/>
      <use xlink:href="#DejaVuSans-6f" x="826.464844"/>
      <use xlink:href="#DejaVuSans-6e" x="887.646484"/>
      <use xlink:href="#DejaVuSans-20" x="951.025391"/>
      <use xlink:href="#DejaVuSans-63" x="982.8125"/>
      <use xlink:href="#DejaVuSans-6f" x="1037.792969"/>
      <use xlink:href="#DejaVuSans-73" x="1098.974609"/>
      <use xlink:href="#DejaVuSans-74" x="1151.074219"/>
     </g>
    </g>
    <g id="line2d_18">
     <path d="M 206.401563 52.312243 
L 216.401563 52.312243 
L 226.401563 52.312243 
" style="fill: none; stroke: #2ca02c; stroke-width: 1.5; stroke-linecap: square"/>
    </g>
    <g id="text_15">
     <!-- CA communication cost -->
     <g transform="translate(234.401563 55.812243) scale(0.1 -0.1)">
      <defs>
       <path id="DejaVuSans-43" d="M 4122 4306 
L 4122 3641 
Q 3803 3938 3442 4084 
Q 3081 4231 2675 4231 
Q 1875 4231 1450 3742 
Q 1025 3253 1025 2328 
Q 1025 1406 1450 917 
Q 1875 428 2675 428 
Q 3081 428 3442 575 
Q 3803 722 4122 1019 
L 4122 359 
Q 3791 134 3420 21 
Q 3050 -91 2638 -91 
Q 1578 -91 968 557 
Q 359 1206 359 2328 
Q 359 3453 968 4101 
Q 1578 4750 2638 4750 
Q 3056 4750 3426 4639 
Q 3797 4528 4122 4306 
z
" transform="scale(0.015625)"/>
      </defs>
      <use xlink:href="#DejaVuSans-43"/>
      <use xlink:href="#DejaVuSans-41" x="69.824219"/>
      <use xlink:href="#DejaVuSans-20" x="138.232422"/>
      <use xlink:href="#DejaVuSans-63" x="170.019531"/>
      <use xlink:href="#DejaVuSans-6f" x="225"/>
      <use xlink:href="#DejaVuSans-6d" x="286.181641"/>
      <use xlink:href="#DejaVuSans-6d" x="383.59375"/>
      <use xlink:href="#DejaVuSans-75" x="481.005859"/>
      <use xlink:href="#DejaVuSans-6e" x="544.384766"/>
      <use xlink:href="#DejaVuSans-69" x="607.763672"/>
      <use xlink:href="#DejaVuSans-63" x="635.546875"/>
      <use xlink:href="#DejaVuSans-61" x="690.527344"/>
      <use xlink:href="#DejaVuSans-74" x="751.806641"/>
      <use xlink:href="#DejaVuSans-69" x="791.015625"/>
      <use xlink:href="#DejaVuSans-6f" x="818.798828"/>
      <use xlink:href="#DejaVuSans-6e" x="879.980469"/>
      <use xlink:href="#DejaVuSans-20" x="943.359375"/>
      <use xlink:href="#DejaVuSans-63" x="975.146484"/>
      <use xlink:href="#DejaVuSans-6f" x="1030.126953"/>
      <use xlink:href="#DejaVuSans-73" x="1091.308594"/>
      <use xlink:href="#DejaVuSans-74" x="1143.408203"/>
     </g>
    </g>
   </g>
  </g>
 </g>
 <defs>
  <clipPath id="p127ada2289">
   <rect x="33.2875" y="9.857555" width="334.8" height="221.76"/>
  </clipPath>
 </defs>
</svg>
