<?xml version="1.0" encoding="utf-8" standalone="no"?>
<!DOCTYPE svg PUBLIC "-//W3C//DTD SVG 1.1//EN"
  "http://www.w3.org/Graphics/SVG/1.1/DTD/svg11.dtd">
<svg xmlns:xlink="http://www.w3.org/1999/xlink" width="368.925pt" height="252.838125pt" viewBox="0 0 368.925 252.838125" xmlns="http://www.w3.org/2000/svg" version="1.1">
 <metadata>
  <rdf:RDF xmlns:dc="http://purl.org/dc/elements/1.1/" xmlns:cc="http://creativecommons.org/ns#" xmlns:rdf="http://www.w3.org/1999/02/22-rdf-syntax-ns#">
   <cc:Work>
    <dc:type rdf:resource="http://purl.org/dc/dcmitype/StillImage"/>
    <dc:date>2023-04-19T16:33:37.140903</dc:date>
    <dc:format>image/svg+xml</dc:format>
    <dc:creator>
     <cc:Agent>
      <dc:title>Matplotlib v3.6.2, https://matplotlib.org/</dc:title>
     </cc:Agent>
    </dc:creator>
   </cc:Work>
  </rdf:RDF>
 </metadata>
 <defs>
  <style type="text/css">*{stroke-linejoin: round; stroke-linecap: butt}</style>
 </defs>
 <g id="figure_1">
  <g id="patch_1">
   <path d="M -0 252.838125 
L 368.925 252.838125 
L 368.925 0 
L -0 0 
z
" style="fill: #ffffff"/>
  </g>
  <g id="axes_1">
   <g id="patch_2">
    <path d="M 26.925 228.96 
L 361.725 228.96 
L 361.725 7.2 
L 26.925 7.2 
z
" style="fill: #ffffff"/>
   </g>
   <g id="matplotlib.axis_1">
    <g id="xtick_1">
     <g id="line2d_1">
      <defs>
       <path id="m8edc7a0213" d="M 0 0 
L 0 3.5 
" style="stroke: #000000; stroke-width: 0.8"/>
      </defs>
      <g>
       <use xlink:href="#m8edc7a0213" x="42.143182" y="228.96" style="stroke: #000000; stroke-width: 0.8"/>
      </g>
     </g>
     <g id="text_1">
      <!-- 0 -->
      <g transform="translate(38.961932 243.558438) scale(0.1 -0.1)">
       <defs>
        <path id="DejaVuSans-30" d="M 2034 4250 
Q 1547 4250 1301 3770 
Q 1056 3291 1056 2328 
Q 1056 1369 1301 889 
Q 1547 409 2034 409 
Q 2525 409 2770 889 
Q 3016 1369 3016 2328 
Q 3016 3291 2770 3770 
Q 2525 4250 2034 4250 
z
M 2034 4750 
Q 2819 4750 3233 4129 
Q 3647 3509 3647 2328 
Q 3647 1150 3233 529 
Q 2819 -91 2034 -91 
Q 1250 -91 836 529 
Q 422 1150 422 2328 
Q 422 3509 836 4129 
Q 1250 4750 2034 4750 
z
" transform="scale(0.015625)"/>
       </defs>
       <use xlink:href="#DejaVuSans-30"/>
      </g>
     </g>
    </g>
    <g id="xtick_2">
     <g id="line2d_2">
      <g>
       <use xlink:href="#m8edc7a0213" x="103.015909" y="228.96" style="stroke: #000000; stroke-width: 0.8"/>
      </g>
     </g>
     <g id="text_2">
      <!-- 20 -->
      <g transform="translate(96.653409 243.558438) scale(0.1 -0.1)">
       <defs>
        <path id="DejaVuSans-32" d="M 1228 531 
L 3431 531 
L 3431 0 
L 469 0 
L 469 531 
Q 828 903 1448 1529 
Q 2069 2156 2228 2338 
Q 2531 2678 2651 2914 
Q 2772 3150 2772 3378 
Q 2772 3750 2511 3984 
Q 2250 4219 1831 4219 
Q 1534 4219 1204 4116 
Q 875 4013 500 3803 
L 500 4441 
Q 881 4594 1212 4672 
Q 1544 4750 1819 4750 
Q 2544 4750 2975 4387 
Q 3406 4025 3406 3419 
Q 3406 3131 3298 2873 
Q 3191 2616 2906 2266 
Q 2828 2175 2409 1742 
Q 1991 1309 1228 531 
z
" transform="scale(0.015625)"/>
       </defs>
       <use xlink:href="#DejaVuSans-32"/>
       <use xlink:href="#DejaVuSans-30" x="63.623047"/>
      </g>
     </g>
    </g>
    <g id="xtick_3">
     <g id="line2d_3">
      <g>
       <use xlink:href="#m8edc7a0213" x="163.888636" y="228.96" style="stroke: #000000; stroke-width: 0.8"/>
      </g>
     </g>
     <g id="text_3">
      <!-- 40 -->
      <g transform="translate(157.526136 243.558438) scale(0.1 -0.1)">
       <defs>
        <path id="DejaVuSans-34" d="M 2419 4116 
L 825 1625 
L 2419 1625 
L 2419 4116 
z
M 2253 4666 
L 3047 4666 
L 3047 1625 
L 3713 1625 
L 3713 1100 
L 3047 1100 
L 3047 0 
L 2419 0 
L 2419 1100 
L 313 1100 
L 313 1709 
L 2253 4666 
z
" transform="scale(0.015625)"/>
       </defs>
       <use xlink:href="#DejaVuSans-34"/>
       <use xlink:href="#DejaVuSans-30" x="63.623047"/>
      </g>
     </g>
    </g>
    <g id="xtick_4">
     <g id="line2d_4">
      <g>
       <use xlink:href="#m8edc7a0213" x="224.761364" y="228.96" style="stroke: #000000; stroke-width: 0.8"/>
      </g>
     </g>
     <g id="text_4">
      <!-- 60 -->
      <g transform="translate(218.398864 243.558438) scale(0.1 -0.1)">
       <defs>
        <path id="DejaVuSans-36" d="M 2113 2584 
Q 1688 2584 1439 2293 
Q 1191 2003 1191 1497 
Q 1191 994 1439 701 
Q 1688 409 2113 409 
Q 2538 409 2786 701 
Q 3034 994 3034 1497 
Q 3034 2003 2786 2293 
Q 2538 2584 2113 2584 
z
M 3366 4563 
L 3366 3988 
Q 3128 4100 2886 4159 
Q 2644 4219 2406 4219 
Q 1781 4219 1451 3797 
Q 1122 3375 1075 2522 
Q 1259 2794 1537 2939 
Q 1816 3084 2150 3084 
Q 2853 3084 3261 2657 
Q 3669 2231 3669 1497 
Q 3669 778 3244 343 
Q 2819 -91 2113 -91 
Q 1303 -91 875 529 
Q 447 1150 447 2328 
Q 447 3434 972 4092 
Q 1497 4750 2381 4750 
Q 2619 4750 2861 4703 
Q 3103 4656 3366 4563 
z
" transform="scale(0.015625)"/>
       </defs>
       <use xlink:href="#DejaVuSans-36"/>
       <use xlink:href="#DejaVuSans-30" x="63.623047"/>
      </g>
     </g>
    </g>
    <g id="xtick_5">
     <g id="line2d_5">
      <g>
       <use xlink:href="#m8edc7a0213" x="285.634091" y="228.96" style="stroke: #000000; stroke-width: 0.8"/>
      </g>
     </g>
     <g id="text_5">
      <!-- 80 -->
      <g transform="translate(279.271591 243.558438) scale(0.1 -0.1)">
       <defs>
        <path id="DejaVuSans-38" d="M 2034 2216 
Q 1584 2216 1326 1975 
Q 1069 1734 1069 1313 
Q 1069 891 1326 650 
Q 1584 409 2034 409 
Q 2484 409 2743 651 
Q 3003 894 3003 1313 
Q 3003 1734 2745 1975 
Q 2488 2216 2034 2216 
z
M 1403 2484 
Q 997 2584 770 2862 
Q 544 3141 544 3541 
Q 544 4100 942 4425 
Q 1341 4750 2034 4750 
Q 2731 4750 3128 4425 
Q 3525 4100 3525 3541 
Q 3525 3141 3298 2862 
Q 3072 2584 2669 2484 
Q 3125 2378 3379 2068 
Q 3634 1759 3634 1313 
Q 3634 634 3220 271 
Q 2806 -91 2034 -91 
Q 1263 -91 848 271 
Q 434 634 434 1313 
Q 434 1759 690 2068 
Q 947 2378 1403 2484 
z
M 1172 3481 
Q 1172 3119 1398 2916 
Q 1625 2713 2034 2713 
Q 2441 2713 2670 2916 
Q 2900 3119 2900 3481 
Q 2900 3844 2670 4047 
Q 2441 4250 2034 4250 
Q 1625 4250 1398 4047 
Q 1172 3844 1172 3481 
z
" transform="scale(0.015625)"/>
       </defs>
       <use xlink:href="#DejaVuSans-38"/>
       <use xlink:href="#DejaVuSans-30" x="63.623047"/>
      </g>
     </g>
    </g>
    <g id="xtick_6">
     <g id="line2d_6">
      <g>
       <use xlink:href="#m8edc7a0213" x="346.506818" y="228.96" style="stroke: #000000; stroke-width: 0.8"/>
      </g>
     </g>
     <g id="text_6">
      <!-- 100 -->
      <g transform="translate(336.963068 243.558438) scale(0.1 -0.1)">
       <defs>
        <path id="DejaVuSans-31" d="M 794 531 
L 1825 531 
L 1825 4091 
L 703 3866 
L 703 4441 
L 1819 4666 
L 2450 4666 
L 2450 531 
L 3481 531 
L 3481 0 
L 794 0 
L 794 531 
z
" transform="scale(0.015625)"/>
       </defs>
       <use xlink:href="#DejaVuSans-31"/>
       <use xlink:href="#DejaVuSans-30" x="63.623047"/>
       <use xlink:href="#DejaVuSans-30" x="127.246094"/>
      </g>
     </g>
    </g>
   </g>
   <g id="matplotlib.axis_2">
    <g id="ytick_1">
     <g id="line2d_7">
      <defs>
       <path id="m26c5545c56" d="M 0 0 
L -3.5 0 
" style="stroke: #000000; stroke-width: 0.8"/>
      </defs>
      <g>
       <use xlink:href="#m26c5545c56" x="26.925" y="202.745737" style="stroke: #000000; stroke-width: 0.8"/>
      </g>
     </g>
     <g id="text_7">
      <!-- 50 -->
      <g transform="translate(7.2 206.544956) scale(0.1 -0.1)">
       <defs>
        <path id="DejaVuSans-35" d="M 691 4666 
L 3169 4666 
L 3169 4134 
L 1269 4134 
L 1269 2991 
Q 1406 3038 1543 3061 
Q 1681 3084 1819 3084 
Q 2600 3084 3056 2656 
Q 3513 2228 3513 1497 
Q 3513 744 3044 326 
Q 2575 -91 1722 -91 
Q 1428 -91 1123 -41 
Q 819 9 494 109 
L 494 744 
Q 775 591 1075 516 
Q 1375 441 1709 441 
Q 2250 441 2565 725 
Q 2881 1009 2881 1497 
Q 2881 1984 2565 2268 
Q 2250 2553 1709 2553 
Q 1456 2553 1204 2497 
Q 953 2441 691 2322 
L 691 4666 
z
" transform="scale(0.015625)"/>
       </defs>
       <use xlink:href="#DejaVuSans-35"/>
       <use xlink:href="#DejaVuSans-30" x="63.623047"/>
      </g>
     </g>
    </g>
    <g id="ytick_2">
     <g id="line2d_8">
      <g>
       <use xlink:href="#m26c5545c56" x="26.925" y="161.839027" style="stroke: #000000; stroke-width: 0.8"/>
      </g>
     </g>
     <g id="text_8">
      <!-- 60 -->
      <g transform="translate(7.2 165.638246) scale(0.1 -0.1)">
       <use xlink:href="#DejaVuSans-36"/>
       <use xlink:href="#DejaVuSans-30" x="63.623047"/>
      </g>
     </g>
    </g>
    <g id="ytick_3">
     <g id="line2d_9">
      <g>
       <use xlink:href="#m26c5545c56" x="26.925" y="120.932317" style="stroke: #000000; stroke-width: 0.8"/>
      </g>
     </g>
     <g id="text_9">
      <!-- 70 -->
      <g transform="translate(7.2 124.731536) scale(0.1 -0.1)">
       <defs>
        <path id="DejaVuSans-37" d="M 525 4666 
L 3525 4666 
L 3525 4397 
L 1831 0 
L 1172 0 
L 2766 4134 
L 525 4134 
L 525 4666 
z
" transform="scale(0.015625)"/>
       </defs>
       <use xlink:href="#DejaVuSans-37"/>
       <use xlink:href="#DejaVuSans-30" x="63.623047"/>
      </g>
     </g>
    </g>
    <g id="ytick_4">
     <g id="line2d_10">
      <g>
       <use xlink:href="#m26c5545c56" x="26.925" y="80.025607" style="stroke: #000000; stroke-width: 0.8"/>
      </g>
     </g>
     <g id="text_10">
      <!-- 80 -->
      <g transform="translate(7.2 83.824826) scale(0.1 -0.1)">
       <use xlink:href="#DejaVuSans-38"/>
       <use xlink:href="#DejaVuSans-30" x="63.623047"/>
      </g>
     </g>
    </g>
    <g id="ytick_5">
     <g id="line2d_11">
      <g>
       <use xlink:href="#m26c5545c56" x="26.925" y="39.118898" style="stroke: #000000; stroke-width: 0.8"/>
      </g>
     </g>
     <g id="text_11">
      <!-- 90 -->
      <g transform="translate(7.2 42.918116) scale(0.1 -0.1)">
       <defs>
        <path id="DejaVuSans-39" d="M 703 97 
L 703 672 
Q 941 559 1184 500 
Q 1428 441 1663 441 
Q 2288 441 2617 861 
Q 2947 1281 2994 2138 
Q 2813 1869 2534 1725 
Q 2256 1581 1919 1581 
Q 1219 1581 811 2004 
Q 403 2428 403 3163 
Q 403 3881 828 4315 
Q 1253 4750 1959 4750 
Q 2769 4750 3195 4129 
Q 3622 3509 3622 2328 
Q 3622 1225 3098 567 
Q 2575 -91 1691 -91 
Q 1453 -91 1209 -44 
Q 966 3 703 97 
z
M 1959 2075 
Q 2384 2075 2632 2365 
Q 2881 2656 2881 3163 
Q 2881 3666 2632 3958 
Q 2384 4250 1959 4250 
Q 1534 4250 1286 3958 
Q 1038 3666 1038 3163 
Q 1038 2656 1286 2365 
Q 1534 2075 1959 2075 
z
" transform="scale(0.015625)"/>
       </defs>
       <use xlink:href="#DejaVuSans-39"/>
       <use xlink:href="#DejaVuSans-30" x="63.623047"/>
      </g>
     </g>
    </g>
   </g>
   <g id="line2d_12">
    <path d="M 42.143182 29.587377 
L 45.186818 140.637896 
L 48.230455 180.570812 
L 51.274091 181.327639 
L 54.317727 181.593449 
L 57.361364 181.593449 
L 60.405 186.394944 
L 63.448636 186.394944 
L 66.492273 188.708134 
L 69.535909 188.708134 
L 72.579545 186.730991 
L 75.623182 186.730991 
L 78.666818 189.14959 
L 81.710455 189.14959 
L 84.754091 206.116065 
L 87.797727 206.116065 
L 90.841364 204.02273 
L 93.885 204.02273 
L 96.928636 204.89319 
L 99.972273 204.89319 
L 103.015909 206.068721 
L 106.059545 206.068721 
L 109.103182 206.166468 
L 112.146818 206.166468 
L 115.190455 205.277907 
L 118.234091 205.277907 
L 121.277727 205.277907 
L 124.321364 216.780079 
L 127.365 216.780079 
L 130.408636 218.88 
L 133.452273 218.88 
L 136.495909 218.054388 
L 139.539545 218.054388 
L 142.583182 217.482399 
L 145.626818 217.482399 
L 148.670455 217.943361 
L 151.714091 217.943361 
L 154.757727 217.943361 
L 157.801364 217.943361 
L 160.845 217.943361 
L 163.888636 217.943361 
L 166.932273 217.943361 
L 169.975909 217.943361 
L 173.019545 217.943361 
L 176.063182 217.943361 
L 179.106818 217.943361 
L 182.150455 217.943361 
L 185.194091 217.943361 
L 188.237727 217.943361 
L 191.281364 217.943361 
L 194.325 217.943361 
L 197.368636 217.943361 
L 200.412273 217.943361 
L 203.455909 217.943361 
L 206.499545 217.943361 
L 209.543182 217.943361 
L 212.586818 217.943361 
L 215.630455 217.943361 
L 218.674091 217.943361 
L 221.717727 217.943361 
L 224.761364 217.943361 
L 227.805 217.943361 
L 230.848636 217.943361 
L 233.892273 217.943361 
L 236.935909 217.943361 
L 239.979545 217.943361 
L 243.023182 217.943361 
L 246.066818 217.943361 
L 249.110455 217.943361 
L 252.154091 217.943361 
L 255.197727 217.943361 
L 258.241364 217.943361 
L 261.285 217.943361 
L 264.328636 217.943361 
L 267.372273 217.943361 
L 270.415909 217.943361 
L 273.459545 217.943361 
L 276.503182 217.943361 
L 279.546818 217.943361 
L 282.590455 217.943361 
L 285.634091 217.943361 
L 288.677727 217.943361 
L 291.721364 217.943361 
L 294.765 217.943361 
L 297.808636 217.943361 
L 300.852273 217.943361 
L 303.895909 217.943361 
L 306.939545 217.943361 
L 309.983182 217.943361 
L 313.026818 217.943361 
L 316.070455 217.943361 
L 319.114091 217.943361 
L 322.157727 217.943361 
L 325.201364 217.943361 
L 328.245 217.943361 
L 331.288636 217.943361 
L 334.332273 217.943361 
L 337.375909 217.943361 
L 340.419545 217.943361 
L 343.463182 217.943361 
L 346.506818 217.943361 
" clip-path="url(#pda0a9e37e8)" style="fill: none; stroke: #1f77b4; stroke-width: 1.5; stroke-linecap: square"/>
   </g>
   <g id="line2d_13">
    <path d="M 42.143182 53.204463 
L 45.186818 53.204463 
L 48.230455 52.145081 
L 51.274091 51.294842 
L 54.317727 49.840708 
L 57.361364 51.63783 
L 60.405 51.712924 
L 63.448636 51.208892 
L 66.492273 51.007449 
L 69.535909 51.007449 
L 72.579545 52.905655 
L 75.623182 52.695685 
L 78.666818 53.60144 
L 81.710455 52.619 
L 84.754091 49.186566 
L 87.797727 53.785813 
L 90.841364 51.175323 
L 93.885 52.670204 
L 96.928636 52.306335 
L 99.972273 53.169021 
L 103.015909 53.888718 
L 106.059545 55.181443 
L 109.103182 52.726773 
L 112.146818 53.62881 
L 115.190455 51.325937 
L 118.234091 53.757723 
L 121.277727 49.594956 
L 124.321364 52.152191 
L 127.365 51.131172 
L 130.408636 46.610688 
L 133.452273 46.610688 
L 136.495909 47.562772 
L 139.539545 48.972703 
L 142.583182 50.066209 
L 145.626818 53.98904 
L 148.670455 53.98904 
L 151.714091 49.012554 
L 154.757727 49.012554 
L 157.801364 52.890703 
L 160.845 53.878591 
L 163.888636 54.106763 
L 166.932273 56.321212 
L 169.975909 55.757556 
L 173.019545 55.258248 
L 176.063182 54.981129 
L 179.106818 56.223954 
L 182.150455 58.985889 
L 185.194091 57.766486 
L 188.237727 58.813536 
L 191.281364 55.965051 
L 194.325 58.762258 
L 197.368636 56.700813 
L 200.412273 57.011853 
L 203.455909 56.709302 
L 206.499545 55.864981 
L 209.543182 55.864981 
L 212.586818 55.864981 
L 215.630455 56.01037 
L 218.674091 56.862682 
L 221.717727 56.862682 
L 224.761364 56.862682 
L 227.805 56.946396 
L 230.848636 57.9279 
L 233.892273 56.280397 
L 236.935909 58.617968 
L 239.979545 60.763283 
L 243.023182 56.830804 
L 246.066818 56.716429 
L 249.110455 56.716429 
L 252.154091 56.640506 
L 255.197727 60.961716 
L 258.241364 60.961716 
L 261.285 60.088344 
L 264.328636 61.675717 
L 267.372273 60.300712 
L 270.415909 58.632479 
L 273.459545 60.021575 
L 276.503182 59.599812 
L 279.546818 61.536196 
L 282.590455 64.259721 
L 285.634091 62.897608 
L 288.677727 63.855559 
L 291.721364 64.296875 
L 294.765 64.006628 
L 297.808636 65.012129 
L 300.852273 65.012129 
L 303.895909 66.711781 
L 306.939545 66.711781 
L 309.983182 64.831336 
L 313.026818 64.51766 
L 316.070455 65.430605 
L 319.114091 64.670555 
L 322.157727 66.335813 
L 325.201364 66.335813 
L 328.245 66.335813 
L 331.288636 63.909236 
L 334.332273 64.686429 
L 337.375909 64.686429 
L 340.419545 65.310716 
L 343.463182 64.488804 
L 346.506818 63.857329 
" clip-path="url(#pda0a9e37e8)" style="fill: none; stroke: #ff7f0e; stroke-width: 1.5; stroke-linecap: square"/>
   </g>
   <g id="line2d_14">
    <path d="M 42.143182 17.28 
L 45.186818 17.946883 
L 48.230455 19.793928 
L 51.274091 21.642322 
L 54.317727 27.494657 
L 57.361364 30.058603 
L 60.405 30.063173 
L 63.448636 31.594567 
L 66.492273 33.713573 
L 69.535909 33.908922 
L 72.579545 35.473317 
L 75.623182 37.651733 
L 78.666818 37.975003 
L 81.710455 39.759795 
L 84.754091 42.138646 
L 87.797727 42.138646 
L 90.841364 44.847424 
L 93.885 45.69807 
L 96.928636 45.760872 
L 99.972273 46.099375 
L 103.015909 46.804198 
L 106.059545 48.112064 
L 109.103182 48.111915 
L 112.146818 50.263314 
L 115.190455 50.505397 
L 118.234091 50.636207 
L 121.277727 50.636207 
L 124.321364 51.30656 
L 127.365 51.30656 
L 130.408636 51.69023 
L 133.452273 53.049537 
L 136.495909 53.254028 
L 139.539545 54.560532 
L 142.583182 54.556356 
L 145.626818 54.615958 
L 148.670455 55.27771 
L 151.714091 55.663561 
L 154.757727 57.449401 
L 157.801364 58.960783 
L 160.845 59.357235 
L 163.888636 60.39682 
L 166.932273 60.601033 
L 169.975909 61.037301 
L 173.019545 61.037301 
L 176.063182 62.169442 
L 179.106818 62.169442 
L 182.150455 63.173523 
L 185.194091 63.545159 
L 188.237727 64.488544 
L 191.281364 64.554165 
L 194.325 64.554165 
L 197.368636 64.554165 
L 200.412273 64.554165 
L 203.455909 64.554165 
L 206.499545 65.557859 
L 209.543182 65.557859 
L 212.586818 65.557859 
L 215.630455 65.557859 
L 218.674091 65.557859 
L 221.717727 66.124262 
L 224.761364 67.015604 
L 227.805 68.690271 
L 230.848636 69.125907 
L 233.892273 69.19437 
L 236.935909 69.19437 
L 239.979545 69.198039 
L 243.023182 69.997773 
L 246.066818 70.939225 
L 249.110455 71.110851 
L 252.154091 71.110851 
L 255.197727 71.110851 
L 258.241364 71.110851 
L 261.285 71.841828 
L 264.328636 71.841828 
L 267.372273 72.016884 
L 270.415909 72.675444 
L 273.459545 73.64586 
L 276.503182 73.64586 
L 279.546818 74.665448 
L 282.590455 75.028447 
L 285.634091 75.325297 
L 288.677727 76.011309 
L 291.721364 76.403624 
L 294.765 76.403624 
L 297.808636 76.403624 
L 300.852273 76.403624 
L 303.895909 76.403624 
L 306.939545 76.403624 
L 309.983182 76.403624 
L 313.026818 76.403624 
L 316.070455 76.403624 
L 319.114091 76.403624 
L 322.157727 76.403624 
L 325.201364 76.403624 
L 328.245 76.883482 
L 331.288636 77.275599 
L 334.332273 77.744235 
L 337.375909 77.744235 
L 340.419545 77.744235 
L 343.463182 77.744235 
L 346.506818 77.923567 
" clip-path="url(#pda0a9e37e8)" style="fill: none; stroke: #2ca02c; stroke-width: 1.5; stroke-linecap: square"/>
   </g>
   <g id="patch_3">
    <path d="M 26.925 228.96 
L 26.925 7.2 
" style="fill: none; stroke: #000000; stroke-width: 0.8; stroke-linejoin: miter; stroke-linecap: square"/>
   </g>
   <g id="patch_4">
    <path d="M 361.725 228.96 
L 361.725 7.2 
" style="fill: none; stroke: #000000; stroke-width: 0.8; stroke-linejoin: miter; stroke-linecap: square"/>
   </g>
   <g id="patch_5">
    <path d="M 26.925 228.96 
L 361.725 228.96 
" style="fill: none; stroke: #000000; stroke-width: 0.8; stroke-linejoin: miter; stroke-linecap: square"/>
   </g>
   <g id="patch_6">
    <path d="M 26.925 7.2 
L 361.725 7.2 
" style="fill: none; stroke: #000000; stroke-width: 0.8; stroke-linejoin: miter; stroke-linecap: square"/>
   </g>
   <g id="legend_1">
    <g id="patch_7">
     <path d="M 198.039062 141.597188 
L 354.725 141.597188 
Q 356.725 141.597188 356.725 139.597188 
L 356.725 96.562813 
Q 356.725 94.562813 354.725 94.562813 
L 198.039062 94.562813 
Q 196.039062 94.562813 196.039062 96.562813 
L 196.039062 139.597188 
Q 196.039062 141.597188 198.039062 141.597188 
z
" style="fill: #ffffff; opacity: 0.8; stroke: #cccccc; stroke-linejoin: miter"/>
    </g>
    <g id="line2d_15">
     <path d="M 200.039062 102.66125 
L 210.039062 102.66125 
L 220.039062 102.66125 
" style="fill: none; stroke: #1f77b4; stroke-width: 1.5; stroke-linecap: square"/>
    </g>
    <g id="text_12">
     <!-- PSO communication cost -->
     <g transform="translate(228.039062 106.16125) scale(0.1 -0.1)">
      <defs>
       <path id="DejaVuSans-50" d="M 1259 4147 
L 1259 2394 
L 2053 2394 
Q 2494 2394 2734 2622 
Q 2975 2850 2975 3272 
Q 2975 3691 2734 3919 
Q 2494 4147 2053 4147 
L 1259 4147 
z
M 628 4666 
L 2053 4666 
Q 2838 4666 3239 4311 
Q 3641 3956 3641 3272 
Q 3641 2581 3239 2228 
Q 2838 1875 2053 1875 
L 1259 1875 
L 1259 0 
L 628 0 
L 628 4666 
z
" transform="scale(0.015625)"/>
       <path id="DejaVuSans-53" d="M 3425 4513 
L 3425 3897 
Q 3066 4069 2747 4153 
Q 2428 4238 2131 4238 
Q 1616 4238 1336 4038 
Q 1056 3838 1056 3469 
Q 1056 3159 1242 3001 
Q 1428 2844 1947 2747 
L 2328 2669 
Q 3034 2534 3370 2195 
Q 3706 1856 3706 1288 
Q 3706 609 3251 259 
Q 2797 -91 1919 -91 
Q 1588 -91 1214 -16 
Q 841 59 441 206 
L 441 856 
Q 825 641 1194 531 
Q 1563 422 1919 422 
Q 2459 422 2753 634 
Q 3047 847 3047 1241 
Q 3047 1584 2836 1778 
Q 2625 1972 2144 2069 
L 1759 2144 
Q 1053 2284 737 2584 
Q 422 2884 422 3419 
Q 422 4038 858 4394 
Q 1294 4750 2059 4750 
Q 2388 4750 2728 4690 
Q 3069 4631 3425 4513 
z
" transform="scale(0.015625)"/>
       <path id="DejaVuSans-4f" d="M 2522 4238 
Q 1834 4238 1429 3725 
Q 1025 3213 1025 2328 
Q 1025 1447 1429 934 
Q 1834 422 2522 422 
Q 3209 422 3611 934 
Q 4013 1447 4013 2328 
Q 4013 3213 3611 3725 
Q 3209 4238 2522 4238 
z
M 2522 4750 
Q 3503 4750 4090 4092 
Q 4678 3434 4678 2328 
Q 4678 1225 4090 567 
Q 3503 -91 2522 -91 
Q 1538 -91 948 565 
Q 359 1222 359 2328 
Q 359 3434 948 4092 
Q 1538 4750 2522 4750 
z
" transform="scale(0.015625)"/>
       <path id="DejaVuSans-20" transform="scale(0.015625)"/>
       <path id="DejaVuSans-63" d="M 3122 3366 
L 3122 2828 
Q 2878 2963 2633 3030 
Q 2388 3097 2138 3097 
Q 1578 3097 1268 2742 
Q 959 2388 959 1747 
Q 959 1106 1268 751 
Q 1578 397 2138 397 
Q 2388 397 2633 464 
Q 2878 531 3122 666 
L 3122 134 
Q 2881 22 2623 -34 
Q 2366 -91 2075 -91 
Q 1284 -91 818 406 
Q 353 903 353 1747 
Q 353 2603 823 3093 
Q 1294 3584 2113 3584 
Q 2378 3584 2631 3529 
Q 2884 3475 3122 3366 
z
" transform="scale(0.015625)"/>
       <path id="DejaVuSans-6f" d="M 1959 3097 
Q 1497 3097 1228 2736 
Q 959 2375 959 1747 
Q 959 1119 1226 758 
Q 1494 397 1959 397 
Q 2419 397 2687 759 
Q 2956 1122 2956 1747 
Q 2956 2369 2687 2733 
Q 2419 3097 1959 3097 
z
M 1959 3584 
Q 2709 3584 3137 3096 
Q 3566 2609 3566 1747 
Q 3566 888 3137 398 
Q 2709 -91 1959 -91 
Q 1206 -91 779 398 
Q 353 888 353 1747 
Q 353 2609 779 3096 
Q 1206 3584 1959 3584 
z
" transform="scale(0.015625)"/>
       <path id="DejaVuSans-6d" d="M 3328 2828 
Q 3544 3216 3844 3400 
Q 4144 3584 4550 3584 
Q 5097 3584 5394 3201 
Q 5691 2819 5691 2113 
L 5691 0 
L 5113 0 
L 5113 2094 
Q 5113 2597 4934 2840 
Q 4756 3084 4391 3084 
Q 3944 3084 3684 2787 
Q 3425 2491 3425 1978 
L 3425 0 
L 2847 0 
L 2847 2094 
Q 2847 2600 2669 2842 
Q 2491 3084 2119 3084 
Q 1678 3084 1418 2786 
Q 1159 2488 1159 1978 
L 1159 0 
L 581 0 
L 581 3500 
L 1159 3500 
L 1159 2956 
Q 1356 3278 1631 3431 
Q 1906 3584 2284 3584 
Q 2666 3584 2933 3390 
Q 3200 3197 3328 2828 
z
" transform="scale(0.015625)"/>
       <path id="DejaVuSans-75" d="M 544 1381 
L 544 3500 
L 1119 3500 
L 1119 1403 
Q 1119 906 1312 657 
Q 1506 409 1894 409 
Q 2359 409 2629 706 
Q 2900 1003 2900 1516 
L 2900 3500 
L 3475 3500 
L 3475 0 
L 2900 0 
L 2900 538 
Q 2691 219 2414 64 
Q 2138 -91 1772 -91 
Q 1169 -91 856 284 
Q 544 659 544 1381 
z
M 1991 3584 
L 1991 3584 
z
" transform="scale(0.015625)"/>
       <path id="DejaVuSans-6e" d="M 3513 2113 
L 3513 0 
L 2938 0 
L 2938 2094 
Q 2938 2591 2744 2837 
Q 2550 3084 2163 3084 
Q 1697 3084 1428 2787 
Q 1159 2491 1159 1978 
L 1159 0 
L 581 0 
L 581 3500 
L 1159 3500 
L 1159 2956 
Q 1366 3272 1645 3428 
Q 1925 3584 2291 3584 
Q 2894 3584 3203 3211 
Q 3513 2838 3513 2113 
z
" transform="scale(0.015625)"/>
       <path id="DejaVuSans-69" d="M 603 3500 
L 1178 3500 
L 1178 0 
L 603 0 
L 603 3500 
z
M 603 4863 
L 1178 4863 
L 1178 4134 
L 603 4134 
L 603 4863 
z
" transform="scale(0.015625)"/>
       <path id="DejaVuSans-61" d="M 2194 1759 
Q 1497 1759 1228 1600 
Q 959 1441 959 1056 
Q 959 750 1161 570 
Q 1363 391 1709 391 
Q 2188 391 2477 730 
Q 2766 1069 2766 1631 
L 2766 1759 
L 2194 1759 
z
M 3341 1997 
L 3341 0 
L 2766 0 
L 2766 531 
Q 2569 213 2275 61 
Q 1981 -91 1556 -91 
Q 1019 -91 701 211 
Q 384 513 384 1019 
Q 384 1609 779 1909 
Q 1175 2209 1959 2209 
L 2766 2209 
L 2766 2266 
Q 2766 2663 2505 2880 
Q 2244 3097 1772 3097 
Q 1472 3097 1187 3025 
Q 903 2953 641 2809 
L 641 3341 
Q 956 3463 1253 3523 
Q 1550 3584 1831 3584 
Q 2591 3584 2966 3190 
Q 3341 2797 3341 1997 
z
" transform="scale(0.015625)"/>
       <path id="DejaVuSans-74" d="M 1172 4494 
L 1172 3500 
L 2356 3500 
L 2356 3053 
L 1172 3053 
L 1172 1153 
Q 1172 725 1289 603 
Q 1406 481 1766 481 
L 2356 481 
L 2356 0 
L 1766 0 
Q 1100 0 847 248 
Q 594 497 594 1153 
L 594 3053 
L 172 3053 
L 172 3500 
L 594 3500 
L 594 4494 
L 1172 4494 
z
" transform="scale(0.015625)"/>
       <path id="DejaVuSans-73" d="M 2834 3397 
L 2834 2853 
Q 2591 2978 2328 3040 
Q 2066 3103 1784 3103 
Q 1356 3103 1142 2972 
Q 928 2841 928 2578 
Q 928 2378 1081 2264 
Q 1234 2150 1697 2047 
L 1894 2003 
Q 2506 1872 2764 1633 
Q 3022 1394 3022 966 
Q 3022 478 2636 193 
Q 2250 -91 1575 -91 
Q 1294 -91 989 -36 
Q 684 19 347 128 
L 347 722 
Q 666 556 975 473 
Q 1284 391 1588 391 
Q 1994 391 2212 530 
Q 2431 669 2431 922 
Q 2431 1156 2273 1281 
Q 2116 1406 1581 1522 
L 1381 1569 
Q 847 1681 609 1914 
Q 372 2147 372 2553 
Q 372 3047 722 3315 
Q 1072 3584 1716 3584 
Q 2034 3584 2315 3537 
Q 2597 3491 2834 3397 
z
" transform="scale(0.015625)"/>
      </defs>
      <use xlink:href="#DejaVuSans-50"/>
      <use xlink:href="#DejaVuSans-53" x="60.302734"/>
      <use xlink:href="#DejaVuSans-4f" x="123.779297"/>
      <use xlink:href="#DejaVuSans-20" x="202.490234"/>
      <use xlink:href="#DejaVuSans-63" x="234.277344"/>
      <use xlink:href="#DejaVuSans-6f" x="289.257812"/>
      <use xlink:href="#DejaVuSans-6d" x="350.439453"/>
      <use xlink:href="#DejaVuSans-6d" x="447.851562"/>
      <use xlink:href="#DejaVuSans-75" x="545.263672"/>
      <use xlink:href="#DejaVuSans-6e" x="608.642578"/>
      <use xlink:href="#DejaVuSans-69" x="672.021484"/>
      <use xlink:href="#DejaVuSans-63" x="699.804688"/>
      <use xlink:href="#DejaVuSans-61" x="754.785156"/>
      <use xlink:href="#DejaVuSans-74" x="816.064453"/>
      <use xlink:href="#DejaVuSans-69" x="855.273438"/>
      <use xlink:href="#DejaVuSans-6f" x="883.056641"/>
      <use xlink:href="#DejaVuSans-6e" x="944.238281"/>
      <use xlink:href="#DejaVuSans-20" x="1007.617188"/>
      <use xlink:href="#DejaVuSans-63" x="1039.404297"/>
      <use xlink:href="#DejaVuSans-6f" x="1094.384766"/>
      <use xlink:href="#DejaVuSans-73" x="1155.566406"/>
      <use xlink:href="#DejaVuSans-74" x="1207.666016"/>
     </g>
    </g>
    <g id="line2d_16">
     <path d="M 200.039062 117.339375 
L 210.039062 117.339375 
L 220.039062 117.339375 
" style="fill: none; stroke: #ff7f0e; stroke-width: 1.5; stroke-linecap: square"/>
    </g>
    <g id="text_13">
     <!-- GA communication cost -->
     <g transform="translate(228.039062 120.839375) scale(0.1 -0.1)">
      <defs>
       <path id="DejaVuSans-47" d="M 3809 666 
L 3809 1919 
L 2778 1919 
L 2778 2438 
L 4434 2438 
L 4434 434 
Q 4069 175 3628 42 
Q 3188 -91 2688 -91 
Q 1594 -91 976 548 
Q 359 1188 359 2328 
Q 359 3472 976 4111 
Q 1594 4750 2688 4750 
Q 3144 4750 3555 4637 
Q 3966 4525 4313 4306 
L 4313 3634 
Q 3963 3931 3569 4081 
Q 3175 4231 2741 4231 
Q 1884 4231 1454 3753 
Q 1025 3275 1025 2328 
Q 1025 1384 1454 906 
Q 1884 428 2741 428 
Q 3075 428 3337 486 
Q 3600 544 3809 666 
z
" transform="scale(0.015625)"/>
       <path id="DejaVuSans-41" d="M 2188 4044 
L 1331 1722 
L 3047 1722 
L 2188 4044 
z
M 1831 4666 
L 2547 4666 
L 4325 0 
L 3669 0 
L 3244 1197 
L 1141 1197 
L 716 0 
L 50 0 
L 1831 4666 
z
" transform="scale(0.015625)"/>
      </defs>
      <use xlink:href="#DejaVuSans-47"/>
      <use xlink:href="#DejaVuSans-41" x="77.490234"/>
      <use xlink:href="#DejaVuSans-20" x="145.898438"/>
      <use xlink:href="#DejaVuSans-63" x="177.685547"/>
      <use xlink:href="#DejaVuSans-6f" x="232.666016"/>
      <use xlink:href="#DejaVuSans-6d" x="293.847656"/>
      <use xlink:href="#DejaVuSans-6d" x="391.259766"/>
      <use xlink:href="#DejaVuSans-75" x="488.671875"/>
      <use xlink:href="#DejaVuSans-6e" x="552.050781"/>
      <use xlink:href="#DejaVuSans-69" x="615.429688"/>
      <use xlink:href="#DejaVuSans-63" x="643.212891"/>
      <use xlink:href="#DejaVuSans-61" x="698.193359"/>
      <use xlink:href="#DejaVuSans-74" x="759.472656"/>
      <use xlink:href="#DejaVuSans-69" x="798.681641"/>
      <use xlink:href="#DejaVuSans-6f" x="826.464844"/>
      <use xlink:href="#DejaVuSans-6e" x="887.646484"/>
      <use xlink:href="#DejaVuSans-20" x="951.025391"/>
      <use xlink:href="#DejaVuSans-63" x="982.8125"/>
      <use xlink:href="#DejaVuSans-6f" x="1037.792969"/>
      <use xlink:href="#DejaVuSans-73" x="1098.974609"/>
      <use xlink:href="#DejaVuSans-74" x="1151.074219"/>
     </g>
    </g>
    <g id="line2d_17">
     <path d="M 200.039062 132.0175 
L 210.039062 132.0175 
L 220.039062 132.0175 
" style="fill: none; stroke: #2ca02c; stroke-width: 1.5; stroke-linecap: square"/>
    </g>
    <g id="text_14">
     <!-- CA communication cost -->
     <g transform="translate(228.039062 135.5175) scale(0.1 -0.1)">
      <defs>
       <path id="DejaVuSans-43" d="M 4122 4306 
L 4122 3641 
Q 3803 3938 3442 4084 
Q 3081 4231 2675 4231 
Q 1875 4231 1450 3742 
Q 1025 3253 1025 2328 
Q 1025 1406 1450 917 
Q 1875 428 2675 428 
Q 3081 428 3442 575 
Q 3803 722 4122 1019 
L 4122 359 
Q 3791 134 3420 21 
Q 3050 -91 2638 -91 
Q 1578 -91 968 557 
Q 359 1206 359 2328 
Q 359 3453 968 4101 
Q 1578 4750 2638 4750 
Q 3056 4750 3426 4639 
Q 3797 4528 4122 4306 
z
" transform="scale(0.015625)"/>
      </defs>
      <use xlink:href="#DejaVuSans-43"/>
      <use xlink:href="#DejaVuSans-41" x="69.824219"/>
      <use xlink:href="#DejaVuSans-20" x="138.232422"/>
      <use xlink:href="#DejaVuSans-63" x="170.019531"/>
      <use xlink:href="#DejaVuSans-6f" x="225"/>
      <use xlink:href="#DejaVuSans-6d" x="286.181641"/>
      <use xlink:href="#DejaVuSans-6d" x="383.59375"/>
      <use xlink:href="#DejaVuSans-75" x="481.005859"/>
      <use xlink:href="#DejaVuSans-6e" x="544.384766"/>
      <use xlink:href="#DejaVuSans-69" x="607.763672"/>
      <use xlink:href="#DejaVuSans-63" x="635.546875"/>
      <use xlink:href="#DejaVuSans-61" x="690.527344"/>
      <use xlink:href="#DejaVuSans-74" x="751.806641"/>
      <use xlink:href="#DejaVuSans-69" x="791.015625"/>
      <use xlink:href="#DejaVuSans-6f" x="818.798828"/>
      <use xlink:href="#DejaVuSans-6e" x="879.980469"/>
      <use xlink:href="#DejaVuSans-20" x="943.359375"/>
      <use xlink:href="#DejaVuSans-63" x="975.146484"/>
      <use xlink:href="#DejaVuSans-6f" x="1030.126953"/>
      <use xlink:href="#DejaVuSans-73" x="1091.308594"/>
      <use xlink:href="#DejaVuSans-74" x="1143.408203"/>
     </g>
    </g>
   </g>
  </g>
 </g>
 <defs>
  <clipPath id="pda0a9e37e8">
   <rect x="26.925" y="7.2" width="334.8" height="221.76"/>
  </clipPath>
 </defs>
</svg>
