<?xml version="1.0" encoding="utf-8" standalone="no"?>
<!DOCTYPE svg PUBLIC "-//W3C//DTD SVG 1.1//EN"
  "http://www.w3.org/Graphics/SVG/1.1/DTD/svg11.dtd">
<svg xmlns:xlink="http://www.w3.org/1999/xlink" width="368.925pt" height="252.838125pt" viewBox="0 0 368.925 252.838125" xmlns="http://www.w3.org/2000/svg" version="1.1">
 <metadata>
  <rdf:RDF xmlns:dc="http://purl.org/dc/elements/1.1/" xmlns:cc="http://creativecommons.org/ns#" xmlns:rdf="http://www.w3.org/1999/02/22-rdf-syntax-ns#">
   <cc:Work>
    <dc:type rdf:resource="http://purl.org/dc/dcmitype/StillImage"/>
    <dc:date>2023-04-19T16:57:12.771424</dc:date>
    <dc:format>image/svg+xml</dc:format>
    <dc:creator>
     <cc:Agent>
      <dc:title>Matplotlib v3.6.2, https://matplotlib.org/</dc:title>
     </cc:Agent>
    </dc:creator>
   </cc:Work>
  </rdf:RDF>
 </metadata>
 <defs>
  <style type="text/css">*{stroke-linejoin: round; stroke-linecap: butt}</style>
 </defs>
 <g id="figure_1">
  <g id="patch_1">
   <path d="M -0 252.838125 
L 368.925 252.838125 
L 368.925 0 
L -0 0 
z
" style="fill: #ffffff"/>
  </g>
  <g id="axes_1">
   <g id="patch_2">
    <path d="M 26.925 228.96 
L 361.725 228.96 
L 361.725 7.2 
L 26.925 7.2 
z
" style="fill: #ffffff"/>
   </g>
   <g id="matplotlib.axis_1">
    <g id="xtick_1">
     <g id="line2d_1">
      <defs>
       <path id="meea25767a9" d="M 0 0 
L 0 3.5 
" style="stroke: #000000; stroke-width: 0.8"/>
      </defs>
      <g>
       <use xlink:href="#meea25767a9" x="42.143182" y="228.96" style="stroke: #000000; stroke-width: 0.8"/>
      </g>
     </g>
     <g id="text_1">
      <!-- 0 -->
      <g transform="translate(38.961932 243.558437) scale(0.1 -0.1)">
       <defs>
        <path id="DejaVuSans-30" d="M 2034 4250 
Q 1547 4250 1301 3770 
Q 1056 3291 1056 2328 
Q 1056 1369 1301 889 
Q 1547 409 2034 409 
Q 2525 409 2770 889 
Q 3016 1369 3016 2328 
Q 3016 3291 2770 3770 
Q 2525 4250 2034 4250 
z
M 2034 4750 
Q 2819 4750 3233 4129 
Q 3647 3509 3647 2328 
Q 3647 1150 3233 529 
Q 2819 -91 2034 -91 
Q 1250 -91 836 529 
Q 422 1150 422 2328 
Q 422 3509 836 4129 
Q 1250 4750 2034 4750 
z
" transform="scale(0.015625)"/>
       </defs>
       <use xlink:href="#DejaVuSans-30"/>
      </g>
     </g>
    </g>
    <g id="xtick_2">
     <g id="line2d_2">
      <g>
       <use xlink:href="#meea25767a9" x="103.015909" y="228.96" style="stroke: #000000; stroke-width: 0.8"/>
      </g>
     </g>
     <g id="text_2">
      <!-- 200 -->
      <g transform="translate(93.472159 243.558437) scale(0.1 -0.1)">
       <defs>
        <path id="DejaVuSans-32" d="M 1228 531 
L 3431 531 
L 3431 0 
L 469 0 
L 469 531 
Q 828 903 1448 1529 
Q 2069 2156 2228 2338 
Q 2531 2678 2651 2914 
Q 2772 3150 2772 3378 
Q 2772 3750 2511 3984 
Q 2250 4219 1831 4219 
Q 1534 4219 1204 4116 
Q 875 4013 500 3803 
L 500 4441 
Q 881 4594 1212 4672 
Q 1544 4750 1819 4750 
Q 2544 4750 2975 4387 
Q 3406 4025 3406 3419 
Q 3406 3131 3298 2873 
Q 3191 2616 2906 2266 
Q 2828 2175 2409 1742 
Q 1991 1309 1228 531 
z
" transform="scale(0.015625)"/>
       </defs>
       <use xlink:href="#DejaVuSans-32"/>
       <use xlink:href="#DejaVuSans-30" x="63.623047"/>
       <use xlink:href="#DejaVuSans-30" x="127.246094"/>
      </g>
     </g>
    </g>
    <g id="xtick_3">
     <g id="line2d_3">
      <g>
       <use xlink:href="#meea25767a9" x="163.888636" y="228.96" style="stroke: #000000; stroke-width: 0.8"/>
      </g>
     </g>
     <g id="text_3">
      <!-- 400 -->
      <g transform="translate(154.344886 243.558437) scale(0.1 -0.1)">
       <defs>
        <path id="DejaVuSans-34" d="M 2419 4116 
L 825 1625 
L 2419 1625 
L 2419 4116 
z
M 2253 4666 
L 3047 4666 
L 3047 1625 
L 3713 1625 
L 3713 1100 
L 3047 1100 
L 3047 0 
L 2419 0 
L 2419 1100 
L 313 1100 
L 313 1709 
L 2253 4666 
z
" transform="scale(0.015625)"/>
       </defs>
       <use xlink:href="#DejaVuSans-34"/>
       <use xlink:href="#DejaVuSans-30" x="63.623047"/>
       <use xlink:href="#DejaVuSans-30" x="127.246094"/>
      </g>
     </g>
    </g>
    <g id="xtick_4">
     <g id="line2d_4">
      <g>
       <use xlink:href="#meea25767a9" x="224.761364" y="228.96" style="stroke: #000000; stroke-width: 0.8"/>
      </g>
     </g>
     <g id="text_4">
      <!-- 600 -->
      <g transform="translate(215.217614 243.558437) scale(0.1 -0.1)">
       <defs>
        <path id="DejaVuSans-36" d="M 2113 2584 
Q 1688 2584 1439 2293 
Q 1191 2003 1191 1497 
Q 1191 994 1439 701 
Q 1688 409 2113 409 
Q 2538 409 2786 701 
Q 3034 994 3034 1497 
Q 3034 2003 2786 2293 
Q 2538 2584 2113 2584 
z
M 3366 4563 
L 3366 3988 
Q 3128 4100 2886 4159 
Q 2644 4219 2406 4219 
Q 1781 4219 1451 3797 
Q 1122 3375 1075 2522 
Q 1259 2794 1537 2939 
Q 1816 3084 2150 3084 
Q 2853 3084 3261 2657 
Q 3669 2231 3669 1497 
Q 3669 778 3244 343 
Q 2819 -91 2113 -91 
Q 1303 -91 875 529 
Q 447 1150 447 2328 
Q 447 3434 972 4092 
Q 1497 4750 2381 4750 
Q 2619 4750 2861 4703 
Q 3103 4656 3366 4563 
z
" transform="scale(0.015625)"/>
       </defs>
       <use xlink:href="#DejaVuSans-36"/>
       <use xlink:href="#DejaVuSans-30" x="63.623047"/>
       <use xlink:href="#DejaVuSans-30" x="127.246094"/>
      </g>
     </g>
    </g>
    <g id="xtick_5">
     <g id="line2d_5">
      <g>
       <use xlink:href="#meea25767a9" x="285.634091" y="228.96" style="stroke: #000000; stroke-width: 0.8"/>
      </g>
     </g>
     <g id="text_5">
      <!-- 800 -->
      <g transform="translate(276.090341 243.558437) scale(0.1 -0.1)">
       <defs>
        <path id="DejaVuSans-38" d="M 2034 2216 
Q 1584 2216 1326 1975 
Q 1069 1734 1069 1313 
Q 1069 891 1326 650 
Q 1584 409 2034 409 
Q 2484 409 2743 651 
Q 3003 894 3003 1313 
Q 3003 1734 2745 1975 
Q 2488 2216 2034 2216 
z
M 1403 2484 
Q 997 2584 770 2862 
Q 544 3141 544 3541 
Q 544 4100 942 4425 
Q 1341 4750 2034 4750 
Q 2731 4750 3128 4425 
Q 3525 4100 3525 3541 
Q 3525 3141 3298 2862 
Q 3072 2584 2669 2484 
Q 3125 2378 3379 2068 
Q 3634 1759 3634 1313 
Q 3634 634 3220 271 
Q 2806 -91 2034 -91 
Q 1263 -91 848 271 
Q 434 634 434 1313 
Q 434 1759 690 2068 
Q 947 2378 1403 2484 
z
M 1172 3481 
Q 1172 3119 1398 2916 
Q 1625 2713 2034 2713 
Q 2441 2713 2670 2916 
Q 2900 3119 2900 3481 
Q 2900 3844 2670 4047 
Q 2441 4250 2034 4250 
Q 1625 4250 1398 4047 
Q 1172 3844 1172 3481 
z
" transform="scale(0.015625)"/>
       </defs>
       <use xlink:href="#DejaVuSans-38"/>
       <use xlink:href="#DejaVuSans-30" x="63.623047"/>
       <use xlink:href="#DejaVuSans-30" x="127.246094"/>
      </g>
     </g>
    </g>
    <g id="xtick_6">
     <g id="line2d_6">
      <g>
       <use xlink:href="#meea25767a9" x="346.506818" y="228.96" style="stroke: #000000; stroke-width: 0.8"/>
      </g>
     </g>
     <g id="text_6">
      <!-- 1000 -->
      <g transform="translate(333.781818 243.558437) scale(0.1 -0.1)">
       <defs>
        <path id="DejaVuSans-31" d="M 794 531 
L 1825 531 
L 1825 4091 
L 703 3866 
L 703 4441 
L 1819 4666 
L 2450 4666 
L 2450 531 
L 3481 531 
L 3481 0 
L 794 0 
L 794 531 
z
" transform="scale(0.015625)"/>
       </defs>
       <use xlink:href="#DejaVuSans-31"/>
       <use xlink:href="#DejaVuSans-30" x="63.623047"/>
       <use xlink:href="#DejaVuSans-30" x="127.246094"/>
       <use xlink:href="#DejaVuSans-30" x="190.869141"/>
      </g>
     </g>
    </g>
   </g>
   <g id="matplotlib.axis_2">
    <g id="ytick_1">
     <g id="line2d_7">
      <defs>
       <path id="mf268bd2326" d="M 0 0 
L -3.5 0 
" style="stroke: #000000; stroke-width: 0.8"/>
      </defs>
      <g>
       <use xlink:href="#mf268bd2326" x="26.925" y="218.88" style="stroke: #000000; stroke-width: 0.8"/>
      </g>
     </g>
     <g id="text_7">
      <!-- 0 -->
      <g transform="translate(13.5625 222.679219) scale(0.1 -0.1)">
       <use xlink:href="#DejaVuSans-30"/>
      </g>
     </g>
    </g>
    <g id="ytick_2">
     <g id="line2d_8">
      <g>
       <use xlink:href="#mf268bd2326" x="26.925" y="189.247768" style="stroke: #000000; stroke-width: 0.8"/>
      </g>
     </g>
     <g id="text_8">
      <!-- 2 -->
      <g transform="translate(13.5625 193.046987) scale(0.1 -0.1)">
       <use xlink:href="#DejaVuSans-32"/>
      </g>
     </g>
    </g>
    <g id="ytick_3">
     <g id="line2d_9">
      <g>
       <use xlink:href="#mf268bd2326" x="26.925" y="159.615536" style="stroke: #000000; stroke-width: 0.8"/>
      </g>
     </g>
     <g id="text_9">
      <!-- 4 -->
      <g transform="translate(13.5625 163.414754) scale(0.1 -0.1)">
       <use xlink:href="#DejaVuSans-34"/>
      </g>
     </g>
    </g>
    <g id="ytick_4">
     <g id="line2d_10">
      <g>
       <use xlink:href="#mf268bd2326" x="26.925" y="129.983304" style="stroke: #000000; stroke-width: 0.8"/>
      </g>
     </g>
     <g id="text_10">
      <!-- 6 -->
      <g transform="translate(13.5625 133.782522) scale(0.1 -0.1)">
       <use xlink:href="#DejaVuSans-36"/>
      </g>
     </g>
    </g>
    <g id="ytick_5">
     <g id="line2d_11">
      <g>
       <use xlink:href="#mf268bd2326" x="26.925" y="100.351071" style="stroke: #000000; stroke-width: 0.8"/>
      </g>
     </g>
     <g id="text_11">
      <!-- 8 -->
      <g transform="translate(13.5625 104.15029) scale(0.1 -0.1)">
       <use xlink:href="#DejaVuSans-38"/>
      </g>
     </g>
    </g>
    <g id="ytick_6">
     <g id="line2d_12">
      <g>
       <use xlink:href="#mf268bd2326" x="26.925" y="70.718839" style="stroke: #000000; stroke-width: 0.8"/>
      </g>
     </g>
     <g id="text_12">
      <!-- 10 -->
      <g transform="translate(7.2 74.518058) scale(0.1 -0.1)">
       <use xlink:href="#DejaVuSans-31"/>
       <use xlink:href="#DejaVuSans-30" x="63.623047"/>
      </g>
     </g>
    </g>
    <g id="ytick_7">
     <g id="line2d_13">
      <g>
       <use xlink:href="#mf268bd2326" x="26.925" y="41.086607" style="stroke: #000000; stroke-width: 0.8"/>
      </g>
     </g>
     <g id="text_13">
      <!-- 12 -->
      <g transform="translate(7.2 44.885826) scale(0.1 -0.1)">
       <use xlink:href="#DejaVuSans-31"/>
       <use xlink:href="#DejaVuSans-32" x="63.623047"/>
      </g>
     </g>
    </g>
    <g id="ytick_8">
     <g id="line2d_14">
      <g>
       <use xlink:href="#mf268bd2326" x="26.925" y="11.454375" style="stroke: #000000; stroke-width: 0.8"/>
      </g>
     </g>
     <g id="text_14">
      <!-- 14 -->
      <g transform="translate(7.2 15.253594) scale(0.1 -0.1)">
       <use xlink:href="#DejaVuSans-31"/>
       <use xlink:href="#DejaVuSans-34" x="63.623047"/>
      </g>
     </g>
    </g>
   </g>
   <g id="line2d_15">
    <path d="M 42.143182 201.068829 
L 42.447545 157.298942 
L 42.751909 141.224289 
L 43.056273 141.224289 
L 43.360636 97.705163 
L 43.665 97.705163 
L 43.969364 89.607841 
L 44.273727 89.607841 
L 44.578091 90.925949 
L 45.491182 90.925949 
L 45.795545 88.259001 
L 46.099909 88.259001 
L 46.404273 83.157936 
L 46.708636 83.157936 
L 47.013 76.065777 
L 49.143545 76.020505 
L 49.447909 75.680261 
L 57.361364 75.680261 
L 57.665727 44.163459 
L 57.970091 44.163459 
L 58.274455 49.881373 
L 58.578818 49.881373 
L 58.883182 52.373409 
L 59.796273 52.373409 
L 60.100636 50.576896 
L 75.014455 50.576896 
L 75.318818 43.372843 
L 93.276273 43.372843 
L 93.580636 34.239316 
L 93.885 34.239316 
L 94.189364 34.635896 
L 104.537727 34.635896 
L 104.842091 22.810342 
L 105.146455 22.810342 
L 105.450818 26.33399 
L 223.848273 26.33399 
L 224.152636 17.28 
L 224.457 17.28 
L 224.761364 17.80208 
L 346.506818 17.80208 
L 346.506818 17.80208 
" clip-path="url(#pcaa8304e34)" style="fill: none; stroke: #1f77b4; stroke-width: 1.5; stroke-linecap: square"/>
   </g>
   <g id="line2d_16">
    <path d="M 42.143182 198.529409 
L 42.447545 198.529409 
L 42.751909 197.909048 
L 43.056273 197.909048 
L 43.360636 196.882758 
L 43.665 192.284065 
L 43.969364 193.058877 
L 44.273727 192.61506 
L 45.186818 192.61506 
L 45.491182 192.891491 
L 45.795545 193.826231 
L 46.099909 196.43661 
L 46.404273 196.669204 
L 46.708636 196.669204 
L 47.013 196.796892 
L 47.317364 196.460304 
L 47.621727 196.670629 
L 48.534818 196.572127 
L 48.839182 196.607147 
L 49.447909 196.486776 
L 54.622091 196.300092 
L 55.230818 195.97095 
L 55.535182 196.268146 
L 56.143909 196.268146 
L 56.448273 196.029438 
L 57.361364 196.0302 
L 57.970091 196.0302 
L 58.274455 195.872201 
L 58.578818 195.465479 
L 58.883182 195.69896 
L 61.622455 195.670713 
L 61.926818 195.368439 
L 63.448636 195.31065 
L 63.753 195.604585 
L 64.057364 195.446586 
L 64.361727 195.604585 
L 64.666091 195.954707 
L 64.970455 195.533916 
L 65.579182 195.446586 
L 66.187909 195.446586 
L 66.492273 195.31983 
L 67.709727 195.394476 
L 68.014091 195.511462 
L 69.535909 195.301352 
L 70.144636 195.279779 
L 70.449 195.113912 
L 71.362091 195.095036 
L 71.666455 194.96828 
L 77.145 194.996275 
L 77.449364 194.812499 
L 77.753727 195.043891 
L 78.971182 194.900269 
L 80.188636 194.836207 
L 80.797364 194.800662 
L 81.101727 194.794775 
L 81.406091 194.516378 
L 82.014818 194.484177 
L 82.623545 194.882006 
L 84.754091 194.798047 
L 85.362818 194.730696 
L 85.971545 194.768042 
L 88.406455 194.671009 
L 88.710818 193.989527 
L 89.015182 194.671009 
L 89.319545 194.54014 
L 89.623909 194.638808 
L 91.145727 194.283694 
L 91.450091 194.581977 
L 91.754455 194.337381 
L 92.058818 194.337381 
L 92.363182 193.655899 
L 92.667545 194.31612 
L 92.971909 194.31612 
L 93.276273 194.174311 
L 93.885 194.236194 
L 94.189364 193.898785 
L 94.493727 194.206754 
L 96.319909 194.15305 
L 96.624273 193.969676 
L 97.233 193.969676 
L 97.537364 193.681094 
L 98.146091 193.681094 
L 98.450455 193.288194 
L 99.667909 193.203169 
L 99.972273 193.969676 
L 100.276636 194.044523 
L 100.885364 193.937719 
L 101.189727 193.607236 
L 101.798455 193.607236 
L 102.102818 193.256238 
L 102.407182 193.256238 
L 103.015909 193.741291 
L 103.320273 193.448607 
L 104.842091 193.451931 
L 105.450818 193.011918 
L 105.755182 193.167208 
L 106.668273 193.121405 
L 107.277 193.125636 
L 107.581364 193.397507 
L 107.885727 193.097365 
L 109.103182 193.192971 
L 109.407545 192.774455 
L 109.711909 193.097365 
L 110.016273 193.124416 
L 110.320636 192.917445 
L 110.625 192.917445 
L 111.233727 193.230634 
L 111.538091 193.049652 
L 111.842455 193.445514 
L 112.146818 193.445514 
L 112.451182 193.597399 
L 112.755545 193.597399 
L 113.059909 192.750248 
L 113.364273 193.416417 
L 113.668636 192.750248 
L 113.973 192.737397 
L 114.277364 193.127069 
L 114.886091 193.069105 
L 115.190455 193.077269 
L 115.494818 192.949571 
L 115.799182 192.69174 
L 116.103545 192.846709 
L 116.712273 192.720633 
L 117.321 192.818174 
L 117.625364 192.763749 
L 118.234091 192.867849 
L 118.538455 192.513282 
L 119.755909 192.513282 
L 120.060273 192.10789 
L 120.364636 192.513282 
L 120.973364 191.891391 
L 121.277727 192.513282 
L 121.886455 192.089091 
L 122.190818 192.292498 
L 122.495182 192.10643 
L 122.799545 192.094798 
L 123.103909 192.357992 
L 123.408273 192.003889 
L 123.712636 191.864621 
L 124.017 191.864621 
L 124.321364 192.092362 
L 124.625727 191.832402 
L 124.930091 192.132767 
L 125.234455 191.973673 
L 125.538818 191.621703 
L 125.843182 191.992257 
L 126.756273 192.394115 
L 127.060636 192.124581 
L 127.365 192.081789 
L 127.669364 191.55214 
L 130.713 191.46734 
L 131.017364 191.797297 
L 131.321727 191.797297 
L 131.626091 191.488738 
L 131.930455 190.910434 
L 132.234818 190.910434 
L 132.539182 191.19599 
L 132.843545 191.305129 
L 133.147909 191.220329 
L 133.452273 191.51174 
L 133.756636 191.201327 
L 134.974091 191.201327 
L 135.278455 191.436602 
L 135.887182 191.374921 
L 136.800273 191.698609 
L 137.409 191.698609 
L 137.713364 191.823445 
L 138.017727 190.008981 
L 138.322091 190.008981 
L 138.626455 191.464378 
L 138.930818 191.464378 
L 139.235182 190.819334 
L 139.843909 190.678573 
L 140.148273 191.075757 
L 140.452636 191.009366 
L 141.061364 190.659988 
L 141.365727 190.592026 
L 141.670091 191.090543 
L 142.278818 190.107719 
L 142.583182 190.289721 
L 143.191909 190.289721 
L 143.496273 189.957463 
L 143.800636 190.289721 
L 144.409364 189.778295 
L 144.713727 190.269822 
L 145.018091 190.033062 
L 145.322455 190.084895 
L 145.626818 189.992192 
L 146.235545 190.114818 
L 146.539909 189.266544 
L 146.844273 189.966127 
L 147.453 189.862173 
L 147.757364 189.966127 
L 148.061727 189.48519 
L 148.366091 189.662306 
L 148.974818 189.577506 
L 149.887909 189.473552 
L 150.496636 189.086183 
L 151.409727 189.19055 
L 151.714091 188.913707 
L 152.018455 188.831846 
L 152.322818 189.473552 
L 152.931545 189.473552 
L 153.235909 188.94825 
L 153.540273 189.14252 
L 154.453364 189.140582 
L 154.757727 188.69961 
L 155.062091 189.140582 
L 155.670818 188.898282 
L 155.975182 189.033592 
L 156.888273 188.9908 
L 158.105727 188.9908 
L 158.410091 188.849767 
L 158.714455 188.9908 
L 159.018818 188.842384 
L 160.540636 188.842384 
L 160.845 188.964682 
L 161.453727 188.964682 
L 161.758091 188.816267 
L 162.671182 188.930124 
L 162.975545 188.565542 
L 163.279909 188.920221 
L 163.888636 188.908449 
L 164.193 188.753476 
L 164.497364 188.873891 
L 164.801727 188.686747 
L 166.627909 188.455173 
L 166.932273 188.455173 
L 167.236636 188.325978 
L 167.541 187.963763 
L 167.845364 187.963763 
L 168.149727 188.197865 
L 168.454091 187.756893 
L 168.758455 187.735218 
L 169.062818 188.194782 
L 169.367182 187.756893 
L 170.889 187.709373 
L 171.193364 187.551661 
L 171.802091 187.57918 
L 172.106455 187.17622 
L 176.367545 187.115513 
L 176.671909 187.050373 
L 176.976273 186.747512 
L 177.280636 186.747512 
L 177.585 186.555853 
L 177.889364 186.555853 
L 178.193727 186.685435 
L 178.498091 187.642155 
L 178.802455 187.16036 
L 179.106818 186.296351 
L 179.411182 186.296351 
L 179.715545 187.120798 
L 180.019909 186.983532 
L 180.324273 187.120798 
L 180.628636 186.679826 
L 180.933 185.845218 
L 181.237364 185.653559 
L 181.541727 187.018868 
L 181.846091 187.018868 
L 182.150455 185.430072 
L 182.454818 186.990339 
L 182.759182 186.468982 
L 183.063545 186.890145 
L 183.672273 186.890145 
L 183.976636 186.698485 
L 184.281 186.211543 
L 184.585364 186.057505 
L 184.889727 186.057505 
L 185.194091 185.403146 
L 185.498455 186.211543 
L 186.107182 186.249165 
L 186.411545 186.72435 
L 189.455182 186.692525 
L 189.759545 186.213312 
L 190.672636 186.118732 
L 190.977 186.38397 
L 191.281364 186.029432 
L 191.585727 186.029432 
L 191.890091 186.649107 
L 192.194455 186.457448 
L 192.498818 186.457448 
L 192.803182 185.66639 
L 194.933727 185.655571 
L 195.238091 185.533867 
L 195.542455 185.625842 
L 196.151182 185.493319 
L 196.759909 185.404656 
L 197.064273 186.44241 
L 197.673 184.800023 
L 197.977364 185.305662 
L 198.281727 185.305662 
L 198.586091 185.137498 
L 198.890455 185.137498 
L 199.194818 185.944213 
L 199.499182 185.779524 
L 199.803545 185.779524 
L 200.107909 185.944213 
L 200.412273 184.420663 
L 201.021 184.445217 
L 201.325364 184.280527 
L 201.629727 184.362395 
L 201.934091 185.18764 
L 202.238455 183.544693 
L 202.542818 184.607829 
L 203.151545 184.607829 
L 203.455909 185.159511 
L 203.760273 185.159511 
L 204.369 183.479448 
L 204.673364 183.479448 
L 204.977727 185.133961 
L 205.282091 183.737325 
L 207.717 183.711301 
L 208.021364 183.519641 
L 208.325727 183.519641 
L 208.630091 183.327234 
L 208.934455 183.654603 
L 209.847545 183.564747 
L 210.151909 184.313287 
L 210.456273 183.334065 
L 211.978091 183.236877 
L 212.586818 183.236877 
L 212.891182 183.473179 
L 213.195545 183.102587 
L 215.934818 183.126259 
L 216.239182 182.966978 
L 218.369727 182.919497 
L 219.282818 182.598382 
L 219.587182 182.676309 
L 220.500273 182.544597 
L 221.717727 182.692157 
L 222.022091 182.692157 
L 222.326455 182.495543 
L 224.152636 182.424174 
L 224.457 182.243214 
L 224.761364 182.222062 
L 225.065727 183.011856 
L 225.370091 182.218642 
L 225.674455 182.974237 
L 225.978818 182.175346 
L 226.283182 181.890994 
L 226.891909 182.367028 
L 227.196273 181.928158 
L 227.805 182.011893 
L 228.109364 182.215653 
L 228.413727 181.877603 
L 230.544273 181.810971 
L 230.848636 182.083866 
L 231.153 181.74967 
L 231.457364 180.953875 
L 232.370455 180.953875 
L 232.674818 181.76881 
L 232.979182 181.224745 
L 233.283545 181.224745 
L 233.587909 181.434614 
L 233.892273 180.265246 
L 234.501 180.265246 
L 234.805364 180.640097 
L 235.109727 180.401602 
L 235.414091 180.570365 
L 235.718455 179.95019 
L 236.327182 180.570365 
L 236.631545 180.570365 
L 236.935909 180.256896 
L 237.544636 180.256896 
L 237.849 180.469113 
L 238.153364 180.491491 
L 238.457727 180.274821 
L 238.762091 180.274821 
L 239.066455 179.961353 
L 239.370818 180.377636 
L 239.675182 179.897143 
L 239.979545 179.816752 
L 240.283909 180.238467 
L 240.892636 180.178167 
L 241.197 179.835367 
L 241.501364 179.911359 
L 241.805727 180.178167 
L 242.414455 179.831336 
L 242.718818 180.039675 
L 243.023182 180.039675 
L 243.327545 179.909091 
L 243.631909 179.909091 
L 243.936273 179.559 
L 244.240636 179.908335 
L 244.545 179.451074 
L 244.849364 179.867174 
L 245.153727 179.451074 
L 245.458091 180.002644 
L 246.675545 179.963487 
L 247.284273 179.322881 
L 248.501727 179.441864 
L 249.110455 179.26958 
L 249.414818 178.744859 
L 249.719182 178.780136 
L 250.023545 179.458824 
L 250.632273 179.345605 
L 250.936636 179.33864 
L 251.241 179.755822 
L 251.545364 179.0274 
L 251.849727 179.323486 
L 252.154091 179.117714 
L 252.458455 179.117714 
L 252.762818 178.847021 
L 253.067182 178.738511 
L 253.371545 178.977279 
L 253.675909 178.847021 
L 253.980273 179.280933 
L 254.284636 178.96553 
L 254.893364 179.128558 
L 255.502091 178.971297 
L 255.806455 179.105552 
L 256.719545 179.105552 
L 257.023909 179.254159 
L 257.328273 178.836977 
L 257.632636 179.162899 
L 259.458818 179.135816 
L 259.763182 177.944551 
L 260.067545 178.718634 
L 260.371909 179.096659 
L 260.676273 178.718634 
L 261.589364 178.311844 
L 261.893727 178.429591 
L 262.198091 178.833487 
L 263.415545 178.512877 
L 263.719909 178.83007 
L 264.024273 178.83007 
L 264.328636 178.574799 
L 266.154818 178.500787 
L 266.763545 178.401544 
L 267.676636 178.403164 
L 267.981 178.559817 
L 268.285364 178.559817 
L 268.589727 177.991132 
L 268.894091 178.254789 
L 269.198455 178.234332 
L 269.502818 178.038463 
L 269.807182 178.554174 
L 273.155182 178.449608 
L 273.763909 178.369217 
L 276.807545 178.137584 
L 278.633727 178.243245 
L 278.938091 177.595848 
L 279.242455 178.14978 
L 279.546818 178.14978 
L 279.851182 177.773387 
L 280.459909 177.669074 
L 280.764273 177.669074 
L 281.068636 176.609952 
L 281.373 177.863474 
L 281.981727 177.908652 
L 282.286091 177.034915 
L 282.590455 177.034915 
L 282.894818 177.701026 
L 283.199182 177.636817 
L 283.503545 177.194447 
L 284.112273 177.194447 
L 284.721 176.91751 
L 285.329727 176.82709 
L 285.938455 176.87505 
L 286.242818 176.562141 
L 286.851545 176.562141 
L 287.460273 176.78463 
L 287.764636 176.215893 
L 288.069 176.725868 
L 288.373364 176.192348 
L 288.982091 176.192348 
L 289.286455 176.405889 
L 289.895182 176.080681 
L 290.808273 176.423083 
L 291.112636 176.047405 
L 291.417 176.07137 
L 291.721364 176.360569 
L 292.025727 176.078991 
L 292.634455 176.078991 
L 292.938818 175.916609 
L 293.243182 175.09497 
L 293.547545 175.09497 
L 293.851909 175.800655 
L 294.156273 175.732806 
L 294.460636 175.427187 
L 295.069364 176.069982 
L 295.373727 176.069982 
L 295.678091 175.120016 
L 295.982455 175.690691 
L 296.286818 175.0779 
L 297.199909 175.048699 
L 297.504273 174.732936 
L 297.808636 175.628176 
L 298.113 175.694596 
L 298.417364 174.915517 
L 298.721727 175.048492 
L 299.026091 175.048492 
L 299.330455 174.742872 
L 299.634818 175.26185 
L 299.939182 174.346076 
L 300.243545 175.26185 
L 300.547909 174.213101 
L 300.852273 174.724353 
L 301.156636 174.724146 
L 301.461 174.130374 
L 301.765364 174.130374 
L 302.069727 173.836279 
L 302.374091 174.437727 
L 304.809 174.49464 
L 305.113364 174.20144 
L 308.765727 174.148189 
L 309.070091 174.468014 
L 309.374455 174.405707 
L 309.983182 174.433658 
L 310.287545 174.433658 
L 310.591909 174.024197 
L 310.896273 174.404457 
L 313.331182 174.375072 
L 313.635545 174.148583 
L 314.244273 174.231371 
L 315.766091 174.231371 
L 316.070455 173.975497 
L 316.679182 173.975497 
L 316.983545 174.231371 
L 317.592273 174.231371 
L 317.896636 173.463866 
L 318.201 173.907025 
L 318.505364 173.336396 
L 318.809727 173.454455 
L 319.114091 174.012005 
L 319.722818 174.012005 
L 320.027182 173.806141 
L 322.157727 173.699598 
L 322.766455 173.676837 
L 323.070818 173.371217 
L 323.679545 173.371217 
L 323.983909 172.603712 
L 324.288273 173.371217 
L 324.592636 173.592538 
L 324.897 173.336663 
L 325.201364 173.592538 
L 325.505727 173.064636 
L 326.418818 173.012895 
L 326.723182 172.689726 
L 327.027545 173.468256 
L 327.331909 172.912008 
L 327.636273 172.912008 
L 328.549364 172.407829 
L 328.853727 172.689726 
L 329.158091 172.689726 
L 329.462455 172.920916 
L 329.766818 172.794205 
L 330.679909 172.794205 
L 330.984273 173.034208 
L 331.288636 172.753165 
L 333.114818 172.434636 
L 333.723545 172.845519 
L 334.332273 172.594843 
L 334.636636 171.993658 
L 335.245364 173.182159 
L 335.549727 172.822084 
L 335.854091 173.248245 
L 336.462818 172.295118 
L 336.767182 173.208256 
L 337.071545 172.784316 
L 337.375909 172.784316 
L 337.680273 171.760605 
L 337.984636 171.541239 
L 338.289 171.541239 
L 338.593364 172.486259 
L 339.202091 172.533497 
L 339.506455 171.933942 
L 339.810818 172.533497 
L 340.115182 172.277111 
L 340.419545 171.125132 
L 340.723909 171.038561 
L 341.028273 171.464722 
L 341.332636 171.006244 
L 341.637 171.592436 
L 341.941364 171.768771 
L 342.550091 171.770012 
L 343.158818 172.46269 
L 343.767545 170.711279 
L 344.071909 172.122032 
L 344.376273 171.150993 
L 344.680636 171.883155 
L 344.985 171.261848 
L 345.289364 171.261848 
L 345.593727 171.846631 
L 345.898091 171.846631 
L 346.506818 171.273681 
L 346.506818 171.273681 
" clip-path="url(#pcaa8304e34)" style="fill: none; stroke: #ff7f0e; stroke-width: 1.5; stroke-linecap: square"/>
   </g>
   <g id="line2d_17">
    <path d="M 42.143182 203.183856 
L 42.447545 203.60958 
L 43.056273 202.879502 
L 43.360636 203.064765 
L 43.665 201.407697 
L 43.969364 200.925456 
L 44.882455 200.880617 
L 45.186818 201.228097 
L 45.491182 201.160261 
L 45.795545 202.434577 
L 46.099909 202.654057 
L 46.404273 201.630514 
L 46.708636 202.064989 
L 47.317364 202.179265 
L 47.621727 201.994478 
L 47.926091 202.258143 
L 48.534818 202.248434 
L 48.839182 202.445309 
L 49.143545 201.635979 
L 49.447909 201.635979 
L 49.752273 199.694906 
L 50.056636 199.732497 
L 50.361 201.547274 
L 50.665364 202.410812 
L 50.969727 202.38902 
L 51.274091 203.067691 
L 51.882818 203.615648 
L 52.491545 203.566123 
L 53.100273 203.479161 
L 53.404636 203.819266 
L 53.709 203.819266 
L 54.013364 202.86036 
L 54.317727 202.86036 
L 54.622091 203.042551 
L 54.926455 203.631172 
L 55.535182 204.299163 
L 56.143909 203.863297 
L 56.752636 204.134303 
L 57.057 203.614832 
L 57.361364 203.7021 
L 57.665727 203.444454 
L 58.578818 203.444454 
L 58.883182 203.131789 
L 59.187545 204.168537 
L 59.491909 204.168537 
L 59.796273 204.668136 
L 60.100636 203.733182 
L 60.405 204.061941 
L 60.709364 204.145792 
L 61.013727 203.965133 
L 63.753 203.965133 
L 64.057364 203.777057 
L 64.361727 203.94053 
L 64.970455 203.508617 
L 65.579182 203.508617 
L 66.187909 203.873708 
L 66.492273 203.216142 
L 66.796636 203.88002 
L 67.405364 203.966329 
L 68.014091 204.548722 
L 68.622818 204.51395 
L 68.927182 204.074816 
L 69.535909 204.154278 
L 69.840273 203.706078 
L 70.144636 204.363328 
L 70.753364 204.162201 
L 71.057727 203.90231 
L 71.362091 203.90231 
L 71.666455 204.127543 
L 71.970818 204.127543 
L 72.275182 203.96003 
L 72.579545 204.51051 
L 72.883909 204.388549 
L 73.188273 203.82075 
L 73.492636 204.006584 
L 73.797 204.378681 
L 74.710091 204.378681 
L 75.014455 203.755308 
L 75.318818 204.477669 
L 77.145 204.477669 
L 77.449364 203.471071 
L 78.058091 203.37107 
L 78.362455 203.37107 
L 78.666818 204.396031 
L 79.275545 204.396031 
L 79.579909 202.646936 
L 79.884273 202.752098 
L 80.188636 203.112849 
L 81.101727 203.112849 
L 81.406091 203.340315 
L 82.014818 203.340315 
L 82.623545 204.131706 
L 82.927909 204.363425 
L 84.145364 204.327652 
L 84.449727 203.531264 
L 84.754091 203.595771 
L 85.058455 204.211366 
L 87.797727 204.211366 
L 88.102091 204.04488 
L 88.406455 204.04488 
L 88.710818 202.284232 
L 89.015182 202.284232 
L 89.319545 202.095715 
L 89.623909 202.184536 
L 90.232636 202.068125 
L 90.537 203.460085 
L 90.841364 203.806086 
L 94.189364 203.729923 
L 94.493727 203.979968 
L 94.798091 203.317388 
L 95.711182 203.347016 
L 96.015545 202.774643 
L 96.624273 202.572253 
L 97.537364 202.62374 
L 97.841727 201.90151 
L 98.450455 201.995045 
L 98.754818 201.995045 
L 99.059182 202.660243 
L 99.363545 202.660243 
L 99.667909 202.178228 
L 100.885364 202.275937 
L 101.494091 203.664161 
L 102.407182 203.569738 
L 102.711545 203.88196 
L 103.015909 204.030363 
L 103.929 204.054532 
L 104.233364 203.026363 
L 104.842091 202.915298 
L 106.668273 202.895511 
L 106.972636 202.209478 
L 107.277 202.209478 
L 107.581364 202.627524 
L 107.885727 202.464569 
L 108.494455 202.551285 
L 108.798818 202.587597 
L 109.103182 202.442721 
L 109.407545 201.853728 
L 110.016273 201.868632 
L 110.320636 201.868632 
L 110.625 201.709508 
L 110.929364 202.213935 
L 111.233727 202.366759 
L 115.799182 202.279655 
L 116.103545 203.196611 
L 116.407909 203.196611 
L 117.016636 204.111215 
L 119.755909 204.039252 
L 120.060273 204.232855 
L 120.364636 204.589795 
L 120.669 204.589795 
L 120.973364 204.42125 
L 121.277727 203.904036 
L 123.712636 203.809081 
L 124.017 203.656224 
L 124.930091 203.690301 
L 127.669364 203.825077 
L 127.973727 204.272337 
L 128.278091 204.272337 
L 128.582455 203.819063 
L 131.017364 203.835395 
L 131.321727 204.296601 
L 131.930455 204.308869 
L 132.843545 204.308869 
L 133.147909 204.511615 
L 137.104636 204.594688 
L 137.409 204.840036 
L 140.148273 204.936142 
L 140.452636 205.224981 
L 141.365727 205.102041 
L 142.278818 205.102041 
L 142.583182 205.38976 
L 146.235545 205.472418 
L 146.539909 204.630361 
L 146.844273 204.630805 
L 147.148636 204.886933 
L 147.453 204.886933 
L 147.757364 204.734192 
L 148.061727 204.766384 
L 148.366091 204.591048 
L 150.801 204.537459 
L 151.409727 204.436121 
L 151.714091 203.984655 
L 152.322818 203.984655 
L 152.627182 204.360569 
L 153.235909 204.372886 
L 153.844636 204.849899 
L 154.453364 204.849899 
L 154.757727 205.080225 
L 157.801364 205.021426 
L 158.105727 204.881337 
L 161.149364 204.845212 
L 161.453727 204.715786 
L 164.497364 204.750124 
L 164.801727 204.354441 
L 167.236636 204.346995 
L 167.541 203.97259 
L 169.062818 203.969798 
L 169.367182 203.813225 
L 170.280273 203.892286 
L 170.584636 204.438098 
L 177.889364 204.392523 
L 178.193727 203.855469 
L 178.498091 203.855469 
L 178.802455 203.493123 
L 179.411182 203.605272 
L 180.019909 203.505821 
L 183.063545 203.48164 
L 183.367909 203.977744 
L 185.498455 203.996942 
L 185.802818 203.828532 
L 190.672636 203.740655 
L 191.585727 203.696988 
L 194.020636 203.611416 
L 194.629364 203.514605 
L 196.455545 203.593919 
L 197.064273 203.667248 
L 197.977364 203.690436 
L 198.586091 203.63115 
L 201.021 203.576432 
L 201.325364 204.041116 
L 203.455909 203.94907 
L 204.369 203.894206 
L 208.934455 203.912297 
L 209.238818 203.764852 
L 210.760636 203.80148 
L 211.369364 203.881912 
L 219.587182 203.880162 
L 219.891545 203.456274 
L 220.804636 203.456274 
L 221.413364 203.570364 
L 222.326455 203.53372 
L 223.239545 203.656781 
L 223.848273 203.656781 
L 224.152636 203.779987 
L 238.457727 203.713232 
L 238.762091 204.217905 
L 248.197364 204.151727 
L 248.501727 204.34889 
L 248.806091 204.34889 
L 249.110455 204.628838 
L 251.545364 204.628838 
L 251.849727 218.88 
L 346.506818 218.88 
L 346.506818 218.88 
" clip-path="url(#pcaa8304e34)" style="fill: none; stroke: #2ca02c; stroke-width: 1.5; stroke-linecap: square"/>
   </g>
   <g id="patch_3">
    <path d="M 26.925 228.96 
L 26.925 7.2 
" style="fill: none; stroke: #000000; stroke-width: 0.8; stroke-linejoin: miter; stroke-linecap: square"/>
   </g>
   <g id="patch_4">
    <path d="M 361.725 228.96 
L 361.725 7.2 
" style="fill: none; stroke: #000000; stroke-width: 0.8; stroke-linejoin: miter; stroke-linecap: square"/>
   </g>
   <g id="patch_5">
    <path d="M 26.925 228.96 
L 361.725 228.96 
" style="fill: none; stroke: #000000; stroke-width: 0.8; stroke-linejoin: miter; stroke-linecap: square"/>
   </g>
   <g id="patch_6">
    <path d="M 26.925 7.2 
L 361.725 7.2 
" style="fill: none; stroke: #000000; stroke-width: 0.8; stroke-linejoin: miter; stroke-linecap: square"/>
   </g>
   <g id="legend_1">
    <g id="patch_7">
     <path d="M 177.907813 141.597187 
L 354.725 141.597187 
Q 356.725 141.597187 356.725 139.597187 
L 356.725 96.562812 
Q 356.725 94.562812 354.725 94.562812 
L 177.907813 94.562812 
Q 175.907813 94.562812 175.907813 96.562812 
L 175.907813 139.597187 
Q 175.907813 141.597187 177.907813 141.597187 
z
" style="fill: #ffffff; opacity: 0.8; stroke: #cccccc; stroke-linejoin: miter"/>
    </g>
    <g id="line2d_18">
     <path d="M 179.907813 102.66125 
L 189.907813 102.66125 
L 199.907813 102.66125 
" style="fill: none; stroke: #1f77b4; stroke-width: 1.5; stroke-linecap: square"/>
    </g>
    <g id="text_15">
     <!-- PSO node storage proportion -->
     <g transform="translate(207.907813 106.16125) scale(0.1 -0.1)">
      <defs>
       <path id="DejaVuSans-50" d="M 1259 4147 
L 1259 2394 
L 2053 2394 
Q 2494 2394 2734 2622 
Q 2975 2850 2975 3272 
Q 2975 3691 2734 3919 
Q 2494 4147 2053 4147 
L 1259 4147 
z
M 628 4666 
L 2053 4666 
Q 2838 4666 3239 4311 
Q 3641 3956 3641 3272 
Q 3641 2581 3239 2228 
Q 2838 1875 2053 1875 
L 1259 1875 
L 1259 0 
L 628 0 
L 628 4666 
z
" transform="scale(0.015625)"/>
       <path id="DejaVuSans-53" d="M 3425 4513 
L 3425 3897 
Q 3066 4069 2747 4153 
Q 2428 4238 2131 4238 
Q 1616 4238 1336 4038 
Q 1056 3838 1056 3469 
Q 1056 3159 1242 3001 
Q 1428 2844 1947 2747 
L 2328 2669 
Q 3034 2534 3370 2195 
Q 3706 1856 3706 1288 
Q 3706 609 3251 259 
Q 2797 -91 1919 -91 
Q 1588 -91 1214 -16 
Q 841 59 441 206 
L 441 856 
Q 825 641 1194 531 
Q 1563 422 1919 422 
Q 2459 422 2753 634 
Q 3047 847 3047 1241 
Q 3047 1584 2836 1778 
Q 2625 1972 2144 2069 
L 1759 2144 
Q 1053 2284 737 2584 
Q 422 2884 422 3419 
Q 422 4038 858 4394 
Q 1294 4750 2059 4750 
Q 2388 4750 2728 4690 
Q 3069 4631 3425 4513 
z
" transform="scale(0.015625)"/>
       <path id="DejaVuSans-4f" d="M 2522 4238 
Q 1834 4238 1429 3725 
Q 1025 3213 1025 2328 
Q 1025 1447 1429 934 
Q 1834 422 2522 422 
Q 3209 422 3611 934 
Q 4013 1447 4013 2328 
Q 4013 3213 3611 3725 
Q 3209 4238 2522 4238 
z
M 2522 4750 
Q 3503 4750 4090 4092 
Q 4678 3434 4678 2328 
Q 4678 1225 4090 567 
Q 3503 -91 2522 -91 
Q 1538 -91 948 565 
Q 359 1222 359 2328 
Q 359 3434 948 4092 
Q 1538 4750 2522 4750 
z
" transform="scale(0.015625)"/>
       <path id="DejaVuSans-20" transform="scale(0.015625)"/>
       <path id="DejaVuSans-6e" d="M 3513 2113 
L 3513 0 
L 2938 0 
L 2938 2094 
Q 2938 2591 2744 2837 
Q 2550 3084 2163 3084 
Q 1697 3084 1428 2787 
Q 1159 2491 1159 1978 
L 1159 0 
L 581 0 
L 581 3500 
L 1159 3500 
L 1159 2956 
Q 1366 3272 1645 3428 
Q 1925 3584 2291 3584 
Q 2894 3584 3203 3211 
Q 3513 2838 3513 2113 
z
" transform="scale(0.015625)"/>
       <path id="DejaVuSans-6f" d="M 1959 3097 
Q 1497 3097 1228 2736 
Q 959 2375 959 1747 
Q 959 1119 1226 758 
Q 1494 397 1959 397 
Q 2419 397 2687 759 
Q 2956 1122 2956 1747 
Q 2956 2369 2687 2733 
Q 2419 3097 1959 3097 
z
M 1959 3584 
Q 2709 3584 3137 3096 
Q 3566 2609 3566 1747 
Q 3566 888 3137 398 
Q 2709 -91 1959 -91 
Q 1206 -91 779 398 
Q 353 888 353 1747 
Q 353 2609 779 3096 
Q 1206 3584 1959 3584 
z
" transform="scale(0.015625)"/>
       <path id="DejaVuSans-64" d="M 2906 2969 
L 2906 4863 
L 3481 4863 
L 3481 0 
L 2906 0 
L 2906 525 
Q 2725 213 2448 61 
Q 2172 -91 1784 -91 
Q 1150 -91 751 415 
Q 353 922 353 1747 
Q 353 2572 751 3078 
Q 1150 3584 1784 3584 
Q 2172 3584 2448 3432 
Q 2725 3281 2906 2969 
z
M 947 1747 
Q 947 1113 1208 752 
Q 1469 391 1925 391 
Q 2381 391 2643 752 
Q 2906 1113 2906 1747 
Q 2906 2381 2643 2742 
Q 2381 3103 1925 3103 
Q 1469 3103 1208 2742 
Q 947 2381 947 1747 
z
" transform="scale(0.015625)"/>
       <path id="DejaVuSans-65" d="M 3597 1894 
L 3597 1613 
L 953 1613 
Q 991 1019 1311 708 
Q 1631 397 2203 397 
Q 2534 397 2845 478 
Q 3156 559 3463 722 
L 3463 178 
Q 3153 47 2828 -22 
Q 2503 -91 2169 -91 
Q 1331 -91 842 396 
Q 353 884 353 1716 
Q 353 2575 817 3079 
Q 1281 3584 2069 3584 
Q 2775 3584 3186 3129 
Q 3597 2675 3597 1894 
z
M 3022 2063 
Q 3016 2534 2758 2815 
Q 2500 3097 2075 3097 
Q 1594 3097 1305 2825 
Q 1016 2553 972 2059 
L 3022 2063 
z
" transform="scale(0.015625)"/>
       <path id="DejaVuSans-73" d="M 2834 3397 
L 2834 2853 
Q 2591 2978 2328 3040 
Q 2066 3103 1784 3103 
Q 1356 3103 1142 2972 
Q 928 2841 928 2578 
Q 928 2378 1081 2264 
Q 1234 2150 1697 2047 
L 1894 2003 
Q 2506 1872 2764 1633 
Q 3022 1394 3022 966 
Q 3022 478 2636 193 
Q 2250 -91 1575 -91 
Q 1294 -91 989 -36 
Q 684 19 347 128 
L 347 722 
Q 666 556 975 473 
Q 1284 391 1588 391 
Q 1994 391 2212 530 
Q 2431 669 2431 922 
Q 2431 1156 2273 1281 
Q 2116 1406 1581 1522 
L 1381 1569 
Q 847 1681 609 1914 
Q 372 2147 372 2553 
Q 372 3047 722 3315 
Q 1072 3584 1716 3584 
Q 2034 3584 2315 3537 
Q 2597 3491 2834 3397 
z
" transform="scale(0.015625)"/>
       <path id="DejaVuSans-74" d="M 1172 4494 
L 1172 3500 
L 2356 3500 
L 2356 3053 
L 1172 3053 
L 1172 1153 
Q 1172 725 1289 603 
Q 1406 481 1766 481 
L 2356 481 
L 2356 0 
L 1766 0 
Q 1100 0 847 248 
Q 594 497 594 1153 
L 594 3053 
L 172 3053 
L 172 3500 
L 594 3500 
L 594 4494 
L 1172 4494 
z
" transform="scale(0.015625)"/>
       <path id="DejaVuSans-72" d="M 2631 2963 
Q 2534 3019 2420 3045 
Q 2306 3072 2169 3072 
Q 1681 3072 1420 2755 
Q 1159 2438 1159 1844 
L 1159 0 
L 581 0 
L 581 3500 
L 1159 3500 
L 1159 2956 
Q 1341 3275 1631 3429 
Q 1922 3584 2338 3584 
Q 2397 3584 2469 3576 
Q 2541 3569 2628 3553 
L 2631 2963 
z
" transform="scale(0.015625)"/>
       <path id="DejaVuSans-61" d="M 2194 1759 
Q 1497 1759 1228 1600 
Q 959 1441 959 1056 
Q 959 750 1161 570 
Q 1363 391 1709 391 
Q 2188 391 2477 730 
Q 2766 1069 2766 1631 
L 2766 1759 
L 2194 1759 
z
M 3341 1997 
L 3341 0 
L 2766 0 
L 2766 531 
Q 2569 213 2275 61 
Q 1981 -91 1556 -91 
Q 1019 -91 701 211 
Q 384 513 384 1019 
Q 384 1609 779 1909 
Q 1175 2209 1959 2209 
L 2766 2209 
L 2766 2266 
Q 2766 2663 2505 2880 
Q 2244 3097 1772 3097 
Q 1472 3097 1187 3025 
Q 903 2953 641 2809 
L 641 3341 
Q 956 3463 1253 3523 
Q 1550 3584 1831 3584 
Q 2591 3584 2966 3190 
Q 3341 2797 3341 1997 
z
" transform="scale(0.015625)"/>
       <path id="DejaVuSans-67" d="M 2906 1791 
Q 2906 2416 2648 2759 
Q 2391 3103 1925 3103 
Q 1463 3103 1205 2759 
Q 947 2416 947 1791 
Q 947 1169 1205 825 
Q 1463 481 1925 481 
Q 2391 481 2648 825 
Q 2906 1169 2906 1791 
z
M 3481 434 
Q 3481 -459 3084 -895 
Q 2688 -1331 1869 -1331 
Q 1566 -1331 1297 -1286 
Q 1028 -1241 775 -1147 
L 775 -588 
Q 1028 -725 1275 -790 
Q 1522 -856 1778 -856 
Q 2344 -856 2625 -561 
Q 2906 -266 2906 331 
L 2906 616 
Q 2728 306 2450 153 
Q 2172 0 1784 0 
Q 1141 0 747 490 
Q 353 981 353 1791 
Q 353 2603 747 3093 
Q 1141 3584 1784 3584 
Q 2172 3584 2450 3431 
Q 2728 3278 2906 2969 
L 2906 3500 
L 3481 3500 
L 3481 434 
z
" transform="scale(0.015625)"/>
       <path id="DejaVuSans-70" d="M 1159 525 
L 1159 -1331 
L 581 -1331 
L 581 3500 
L 1159 3500 
L 1159 2969 
Q 1341 3281 1617 3432 
Q 1894 3584 2278 3584 
Q 2916 3584 3314 3078 
Q 3713 2572 3713 1747 
Q 3713 922 3314 415 
Q 2916 -91 2278 -91 
Q 1894 -91 1617 61 
Q 1341 213 1159 525 
z
M 3116 1747 
Q 3116 2381 2855 2742 
Q 2594 3103 2138 3103 
Q 1681 3103 1420 2742 
Q 1159 2381 1159 1747 
Q 1159 1113 1420 752 
Q 1681 391 2138 391 
Q 2594 391 2855 752 
Q 3116 1113 3116 1747 
z
" transform="scale(0.015625)"/>
       <path id="DejaVuSans-69" d="M 603 3500 
L 1178 3500 
L 1178 0 
L 603 0 
L 603 3500 
z
M 603 4863 
L 1178 4863 
L 1178 4134 
L 603 4134 
L 603 4863 
z
" transform="scale(0.015625)"/>
      </defs>
      <use xlink:href="#DejaVuSans-50"/>
      <use xlink:href="#DejaVuSans-53" x="60.302734"/>
      <use xlink:href="#DejaVuSans-4f" x="123.779297"/>
      <use xlink:href="#DejaVuSans-20" x="202.490234"/>
      <use xlink:href="#DejaVuSans-6e" x="234.277344"/>
      <use xlink:href="#DejaVuSans-6f" x="297.65625"/>
      <use xlink:href="#DejaVuSans-64" x="358.837891"/>
      <use xlink:href="#DejaVuSans-65" x="422.314453"/>
      <use xlink:href="#DejaVuSans-20" x="483.837891"/>
      <use xlink:href="#DejaVuSans-73" x="515.625"/>
      <use xlink:href="#DejaVuSans-74" x="567.724609"/>
      <use xlink:href="#DejaVuSans-6f" x="606.933594"/>
      <use xlink:href="#DejaVuSans-72" x="668.115234"/>
      <use xlink:href="#DejaVuSans-61" x="709.228516"/>
      <use xlink:href="#DejaVuSans-67" x="770.507812"/>
      <use xlink:href="#DejaVuSans-65" x="833.984375"/>
      <use xlink:href="#DejaVuSans-20" x="895.507812"/>
      <use xlink:href="#DejaVuSans-70" x="927.294922"/>
      <use xlink:href="#DejaVuSans-72" x="990.771484"/>
      <use xlink:href="#DejaVuSans-6f" x="1029.634766"/>
      <use xlink:href="#DejaVuSans-70" x="1090.816406"/>
      <use xlink:href="#DejaVuSans-6f" x="1154.292969"/>
      <use xlink:href="#DejaVuSans-72" x="1215.474609"/>
      <use xlink:href="#DejaVuSans-74" x="1256.587891"/>
      <use xlink:href="#DejaVuSans-69" x="1295.796875"/>
      <use xlink:href="#DejaVuSans-6f" x="1323.580078"/>
      <use xlink:href="#DejaVuSans-6e" x="1384.761719"/>
     </g>
    </g>
    <g id="line2d_19">
     <path d="M 179.907813 117.339375 
L 189.907813 117.339375 
L 199.907813 117.339375 
" style="fill: none; stroke: #ff7f0e; stroke-width: 1.5; stroke-linecap: square"/>
    </g>
    <g id="text_16">
     <!-- GA node storage proportion -->
     <g transform="translate(207.907813 120.839375) scale(0.1 -0.1)">
      <defs>
       <path id="DejaVuSans-47" d="M 3809 666 
L 3809 1919 
L 2778 1919 
L 2778 2438 
L 4434 2438 
L 4434 434 
Q 4069 175 3628 42 
Q 3188 -91 2688 -91 
Q 1594 -91 976 548 
Q 359 1188 359 2328 
Q 359 3472 976 4111 
Q 1594 4750 2688 4750 
Q 3144 4750 3555 4637 
Q 3966 4525 4313 4306 
L 4313 3634 
Q 3963 3931 3569 4081 
Q 3175 4231 2741 4231 
Q 1884 4231 1454 3753 
Q 1025 3275 1025 2328 
Q 1025 1384 1454 906 
Q 1884 428 2741 428 
Q 3075 428 3337 486 
Q 3600 544 3809 666 
z
" transform="scale(0.015625)"/>
       <path id="DejaVuSans-41" d="M 2188 4044 
L 1331 1722 
L 3047 1722 
L 2188 4044 
z
M 1831 4666 
L 2547 4666 
L 4325 0 
L 3669 0 
L 3244 1197 
L 1141 1197 
L 716 0 
L 50 0 
L 1831 4666 
z
" transform="scale(0.015625)"/>
      </defs>
      <use xlink:href="#DejaVuSans-47"/>
      <use xlink:href="#DejaVuSans-41" x="77.490234"/>
      <use xlink:href="#DejaVuSans-20" x="145.898438"/>
      <use xlink:href="#DejaVuSans-6e" x="177.685547"/>
      <use xlink:href="#DejaVuSans-6f" x="241.064453"/>
      <use xlink:href="#DejaVuSans-64" x="302.246094"/>
      <use xlink:href="#DejaVuSans-65" x="365.722656"/>
      <use xlink:href="#DejaVuSans-20" x="427.246094"/>
      <use xlink:href="#DejaVuSans-73" x="459.033203"/>
      <use xlink:href="#DejaVuSans-74" x="511.132812"/>
      <use xlink:href="#DejaVuSans-6f" x="550.341797"/>
      <use xlink:href="#DejaVuSans-72" x="611.523438"/>
      <use xlink:href="#DejaVuSans-61" x="652.636719"/>
      <use xlink:href="#DejaVuSans-67" x="713.916016"/>
      <use xlink:href="#DejaVuSans-65" x="777.392578"/>
      <use xlink:href="#DejaVuSans-20" x="838.916016"/>
      <use xlink:href="#DejaVuSans-70" x="870.703125"/>
      <use xlink:href="#DejaVuSans-72" x="934.179688"/>
      <use xlink:href="#DejaVuSans-6f" x="973.042969"/>
      <use xlink:href="#DejaVuSans-70" x="1034.224609"/>
      <use xlink:href="#DejaVuSans-6f" x="1097.701172"/>
      <use xlink:href="#DejaVuSans-72" x="1158.882812"/>
      <use xlink:href="#DejaVuSans-74" x="1199.996094"/>
      <use xlink:href="#DejaVuSans-69" x="1239.205078"/>
      <use xlink:href="#DejaVuSans-6f" x="1266.988281"/>
      <use xlink:href="#DejaVuSans-6e" x="1328.169922"/>
     </g>
    </g>
    <g id="line2d_20">
     <path d="M 179.907813 132.0175 
L 189.907813 132.0175 
L 199.907813 132.0175 
" style="fill: none; stroke: #2ca02c; stroke-width: 1.5; stroke-linecap: square"/>
    </g>
    <g id="text_17">
     <!-- CA node storage proportion -->
     <g transform="translate(207.907813 135.5175) scale(0.1 -0.1)">
      <defs>
       <path id="DejaVuSans-43" d="M 4122 4306 
L 4122 3641 
Q 3803 3938 3442 4084 
Q 3081 4231 2675 4231 
Q 1875 4231 1450 3742 
Q 1025 3253 1025 2328 
Q 1025 1406 1450 917 
Q 1875 428 2675 428 
Q 3081 428 3442 575 
Q 3803 722 4122 1019 
L 4122 359 
Q 3791 134 3420 21 
Q 3050 -91 2638 -91 
Q 1578 -91 968 557 
Q 359 1206 359 2328 
Q 359 3453 968 4101 
Q 1578 4750 2638 4750 
Q 3056 4750 3426 4639 
Q 3797 4528 4122 4306 
z
" transform="scale(0.015625)"/>
      </defs>
      <use xlink:href="#DejaVuSans-43"/>
      <use xlink:href="#DejaVuSans-41" x="69.824219"/>
      <use xlink:href="#DejaVuSans-20" x="138.232422"/>
      <use xlink:href="#DejaVuSans-6e" x="170.019531"/>
      <use xlink:href="#DejaVuSans-6f" x="233.398438"/>
      <use xlink:href="#DejaVuSans-64" x="294.580078"/>
      <use xlink:href="#DejaVuSans-65" x="358.056641"/>
      <use xlink:href="#DejaVuSans-20" x="419.580078"/>
      <use xlink:href="#DejaVuSans-73" x="451.367188"/>
      <use xlink:href="#DejaVuSans-74" x="503.466797"/>
      <use xlink:href="#DejaVuSans-6f" x="542.675781"/>
      <use xlink:href="#DejaVuSans-72" x="603.857422"/>
      <use xlink:href="#DejaVuSans-61" x="644.970703"/>
      <use xlink:href="#DejaVuSans-67" x="706.25"/>
      <use xlink:href="#DejaVuSans-65" x="769.726562"/>
      <use xlink:href="#DejaVuSans-20" x="831.25"/>
      <use xlink:href="#DejaVuSans-70" x="863.037109"/>
      <use xlink:href="#DejaVuSans-72" x="926.513672"/>
      <use xlink:href="#DejaVuSans-6f" x="965.376953"/>
      <use xlink:href="#DejaVuSans-70" x="1026.558594"/>
      <use xlink:href="#DejaVuSans-6f" x="1090.035156"/>
      <use xlink:href="#DejaVuSans-72" x="1151.216797"/>
      <use xlink:href="#DejaVuSans-74" x="1192.330078"/>
      <use xlink:href="#DejaVuSans-69" x="1231.539062"/>
      <use xlink:href="#DejaVuSans-6f" x="1259.322266"/>
      <use xlink:href="#DejaVuSans-6e" x="1320.503906"/>
     </g>
    </g>
   </g>
  </g>
 </g>
 <defs>
  <clipPath id="pcaa8304e34">
   <rect x="26.925" y="7.2" width="334.8" height="221.76"/>
  </clipPath>
 </defs>
</svg>
