<?xml version="1.0" encoding="utf-8" standalone="no"?>
<!DOCTYPE svg PUBLIC "-//W3C//DTD SVG 1.1//EN"
  "http://www.w3.org/Graphics/SVG/1.1/DTD/svg11.dtd">
<svg xmlns:xlink="http://www.w3.org/1999/xlink" width="368.925pt" height="252.838125pt" viewBox="0 0 368.925 252.838125" xmlns="http://www.w3.org/2000/svg" version="1.1">
 <metadata>
  <rdf:RDF xmlns:dc="http://purl.org/dc/elements/1.1/" xmlns:cc="http://creativecommons.org/ns#" xmlns:rdf="http://www.w3.org/1999/02/22-rdf-syntax-ns#">
   <cc:Work>
    <dc:type rdf:resource="http://purl.org/dc/dcmitype/StillImage"/>
    <dc:date>2023-04-19T16:57:13.109025</dc:date>
    <dc:format>image/svg+xml</dc:format>
    <dc:creator>
     <cc:Agent>
      <dc:title>Matplotlib v3.6.2, https://matplotlib.org/</dc:title>
     </cc:Agent>
    </dc:creator>
   </cc:Work>
  </rdf:RDF>
 </metadata>
 <defs>
  <style type="text/css">*{stroke-linejoin: round; stroke-linecap: butt}</style>
 </defs>
 <g id="figure_1">
  <g id="patch_1">
   <path d="M -0 252.838125 
L 368.925 252.838125 
L 368.925 0 
L -0 0 
z
" style="fill: #ffffff"/>
  </g>
  <g id="axes_1">
   <g id="patch_2">
    <path d="M 26.925 228.96 
L 361.725 228.96 
L 361.725 7.2 
L 26.925 7.2 
z
" style="fill: #ffffff"/>
   </g>
   <g id="matplotlib.axis_1">
    <g id="xtick_1">
     <g id="line2d_1">
      <defs>
       <path id="mbc251d17f3" d="M 0 0 
L 0 3.5 
" style="stroke: #000000; stroke-width: 0.8"/>
      </defs>
      <g>
       <use xlink:href="#mbc251d17f3" x="39.21377" y="228.96" style="stroke: #000000; stroke-width: 0.8"/>
      </g>
     </g>
     <g id="text_1">
      <!-- 0 -->
      <g transform="translate(36.03252 243.558437) scale(0.1 -0.1)">
       <defs>
        <path id="DejaVuSans-30" d="M 2034 4250 
Q 1547 4250 1301 3770 
Q 1056 3291 1056 2328 
Q 1056 1369 1301 889 
Q 1547 409 2034 409 
Q 2525 409 2770 889 
Q 3016 1369 3016 2328 
Q 3016 3291 2770 3770 
Q 2525 4250 2034 4250 
z
M 2034 4750 
Q 2819 4750 3233 4129 
Q 3647 3509 3647 2328 
Q 3647 1150 3233 529 
Q 2819 -91 2034 -91 
Q 1250 -91 836 529 
Q 422 1150 422 2328 
Q 422 3509 836 4129 
Q 1250 4750 2034 4750 
z
" transform="scale(0.015625)"/>
       </defs>
       <use xlink:href="#DejaVuSans-30"/>
      </g>
     </g>
    </g>
    <g id="xtick_2">
     <g id="line2d_2">
      <g>
       <use xlink:href="#mbc251d17f3" x="77.649274" y="228.96" style="stroke: #000000; stroke-width: 0.8"/>
      </g>
     </g>
     <g id="text_2">
      <!-- 10 -->
      <g transform="translate(71.286774 243.558437) scale(0.1 -0.1)">
       <defs>
        <path id="DejaVuSans-31" d="M 794 531 
L 1825 531 
L 1825 4091 
L 703 3866 
L 703 4441 
L 1819 4666 
L 2450 4666 
L 2450 531 
L 3481 531 
L 3481 0 
L 794 0 
L 794 531 
z
" transform="scale(0.015625)"/>
       </defs>
       <use xlink:href="#DejaVuSans-31"/>
       <use xlink:href="#DejaVuSans-30" x="63.623047"/>
      </g>
     </g>
    </g>
    <g id="xtick_3">
     <g id="line2d_3">
      <g>
       <use xlink:href="#mbc251d17f3" x="116.084777" y="228.96" style="stroke: #000000; stroke-width: 0.8"/>
      </g>
     </g>
     <g id="text_3">
      <!-- 20 -->
      <g transform="translate(109.722277 243.558437) scale(0.1 -0.1)">
       <defs>
        <path id="DejaVuSans-32" d="M 1228 531 
L 3431 531 
L 3431 0 
L 469 0 
L 469 531 
Q 828 903 1448 1529 
Q 2069 2156 2228 2338 
Q 2531 2678 2651 2914 
Q 2772 3150 2772 3378 
Q 2772 3750 2511 3984 
Q 2250 4219 1831 4219 
Q 1534 4219 1204 4116 
Q 875 4013 500 3803 
L 500 4441 
Q 881 4594 1212 4672 
Q 1544 4750 1819 4750 
Q 2544 4750 2975 4387 
Q 3406 4025 3406 3419 
Q 3406 3131 3298 2873 
Q 3191 2616 2906 2266 
Q 2828 2175 2409 1742 
Q 1991 1309 1228 531 
z
" transform="scale(0.015625)"/>
       </defs>
       <use xlink:href="#DejaVuSans-32"/>
       <use xlink:href="#DejaVuSans-30" x="63.623047"/>
      </g>
     </g>
    </g>
    <g id="xtick_4">
     <g id="line2d_4">
      <g>
       <use xlink:href="#mbc251d17f3" x="154.52028" y="228.96" style="stroke: #000000; stroke-width: 0.8"/>
      </g>
     </g>
     <g id="text_4">
      <!-- 30 -->
      <g transform="translate(148.15778 243.558437) scale(0.1 -0.1)">
       <defs>
        <path id="DejaVuSans-33" d="M 2597 2516 
Q 3050 2419 3304 2112 
Q 3559 1806 3559 1356 
Q 3559 666 3084 287 
Q 2609 -91 1734 -91 
Q 1441 -91 1130 -33 
Q 819 25 488 141 
L 488 750 
Q 750 597 1062 519 
Q 1375 441 1716 441 
Q 2309 441 2620 675 
Q 2931 909 2931 1356 
Q 2931 1769 2642 2001 
Q 2353 2234 1838 2234 
L 1294 2234 
L 1294 2753 
L 1863 2753 
Q 2328 2753 2575 2939 
Q 2822 3125 2822 3475 
Q 2822 3834 2567 4026 
Q 2313 4219 1838 4219 
Q 1578 4219 1281 4162 
Q 984 4106 628 3988 
L 628 4550 
Q 988 4650 1302 4700 
Q 1616 4750 1894 4750 
Q 2613 4750 3031 4423 
Q 3450 4097 3450 3541 
Q 3450 3153 3228 2886 
Q 3006 2619 2597 2516 
z
" transform="scale(0.015625)"/>
       </defs>
       <use xlink:href="#DejaVuSans-33"/>
       <use xlink:href="#DejaVuSans-30" x="63.623047"/>
      </g>
     </g>
    </g>
    <g id="xtick_5">
     <g id="line2d_5">
      <g>
       <use xlink:href="#mbc251d17f3" x="192.955784" y="228.96" style="stroke: #000000; stroke-width: 0.8"/>
      </g>
     </g>
     <g id="text_5">
      <!-- 40 -->
      <g transform="translate(186.593284 243.558437) scale(0.1 -0.1)">
       <defs>
        <path id="DejaVuSans-34" d="M 2419 4116 
L 825 1625 
L 2419 1625 
L 2419 4116 
z
M 2253 4666 
L 3047 4666 
L 3047 1625 
L 3713 1625 
L 3713 1100 
L 3047 1100 
L 3047 0 
L 2419 0 
L 2419 1100 
L 313 1100 
L 313 1709 
L 2253 4666 
z
" transform="scale(0.015625)"/>
       </defs>
       <use xlink:href="#DejaVuSans-34"/>
       <use xlink:href="#DejaVuSans-30" x="63.623047"/>
      </g>
     </g>
    </g>
    <g id="xtick_6">
     <g id="line2d_6">
      <g>
       <use xlink:href="#mbc251d17f3" x="231.391287" y="228.96" style="stroke: #000000; stroke-width: 0.8"/>
      </g>
     </g>
     <g id="text_6">
      <!-- 50 -->
      <g transform="translate(225.028787 243.558437) scale(0.1 -0.1)">
       <defs>
        <path id="DejaVuSans-35" d="M 691 4666 
L 3169 4666 
L 3169 4134 
L 1269 4134 
L 1269 2991 
Q 1406 3038 1543 3061 
Q 1681 3084 1819 3084 
Q 2600 3084 3056 2656 
Q 3513 2228 3513 1497 
Q 3513 744 3044 326 
Q 2575 -91 1722 -91 
Q 1428 -91 1123 -41 
Q 819 9 494 109 
L 494 744 
Q 775 591 1075 516 
Q 1375 441 1709 441 
Q 2250 441 2565 725 
Q 2881 1009 2881 1497 
Q 2881 1984 2565 2268 
Q 2250 2553 1709 2553 
Q 1456 2553 1204 2497 
Q 953 2441 691 2322 
L 691 4666 
z
" transform="scale(0.015625)"/>
       </defs>
       <use xlink:href="#DejaVuSans-35"/>
       <use xlink:href="#DejaVuSans-30" x="63.623047"/>
      </g>
     </g>
    </g>
    <g id="xtick_7">
     <g id="line2d_7">
      <g>
       <use xlink:href="#mbc251d17f3" x="269.82679" y="228.96" style="stroke: #000000; stroke-width: 0.8"/>
      </g>
     </g>
     <g id="text_7">
      <!-- 60 -->
      <g transform="translate(263.46429 243.558437) scale(0.1 -0.1)">
       <defs>
        <path id="DejaVuSans-36" d="M 2113 2584 
Q 1688 2584 1439 2293 
Q 1191 2003 1191 1497 
Q 1191 994 1439 701 
Q 1688 409 2113 409 
Q 2538 409 2786 701 
Q 3034 994 3034 1497 
Q 3034 2003 2786 2293 
Q 2538 2584 2113 2584 
z
M 3366 4563 
L 3366 3988 
Q 3128 4100 2886 4159 
Q 2644 4219 2406 4219 
Q 1781 4219 1451 3797 
Q 1122 3375 1075 2522 
Q 1259 2794 1537 2939 
Q 1816 3084 2150 3084 
Q 2853 3084 3261 2657 
Q 3669 2231 3669 1497 
Q 3669 778 3244 343 
Q 2819 -91 2113 -91 
Q 1303 -91 875 529 
Q 447 1150 447 2328 
Q 447 3434 972 4092 
Q 1497 4750 2381 4750 
Q 2619 4750 2861 4703 
Q 3103 4656 3366 4563 
z
" transform="scale(0.015625)"/>
       </defs>
       <use xlink:href="#DejaVuSans-36"/>
       <use xlink:href="#DejaVuSans-30" x="63.623047"/>
      </g>
     </g>
    </g>
    <g id="xtick_8">
     <g id="line2d_8">
      <g>
       <use xlink:href="#mbc251d17f3" x="308.262294" y="228.96" style="stroke: #000000; stroke-width: 0.8"/>
      </g>
     </g>
     <g id="text_8">
      <!-- 70 -->
      <g transform="translate(301.899794 243.558437) scale(0.1 -0.1)">
       <defs>
        <path id="DejaVuSans-37" d="M 525 4666 
L 3525 4666 
L 3525 4397 
L 1831 0 
L 1172 0 
L 2766 4134 
L 525 4134 
L 525 4666 
z
" transform="scale(0.015625)"/>
       </defs>
       <use xlink:href="#DejaVuSans-37"/>
       <use xlink:href="#DejaVuSans-30" x="63.623047"/>
      </g>
     </g>
    </g>
    <g id="xtick_9">
     <g id="line2d_9">
      <g>
       <use xlink:href="#mbc251d17f3" x="346.697797" y="228.96" style="stroke: #000000; stroke-width: 0.8"/>
      </g>
     </g>
     <g id="text_9">
      <!-- 80 -->
      <g transform="translate(340.335297 243.558437) scale(0.1 -0.1)">
       <defs>
        <path id="DejaVuSans-38" d="M 2034 2216 
Q 1584 2216 1326 1975 
Q 1069 1734 1069 1313 
Q 1069 891 1326 650 
Q 1584 409 2034 409 
Q 2484 409 2743 651 
Q 3003 894 3003 1313 
Q 3003 1734 2745 1975 
Q 2488 2216 2034 2216 
z
M 1403 2484 
Q 997 2584 770 2862 
Q 544 3141 544 3541 
Q 544 4100 942 4425 
Q 1341 4750 2034 4750 
Q 2731 4750 3128 4425 
Q 3525 4100 3525 3541 
Q 3525 3141 3298 2862 
Q 3072 2584 2669 2484 
Q 3125 2378 3379 2068 
Q 3634 1759 3634 1313 
Q 3634 634 3220 271 
Q 2806 -91 2034 -91 
Q 1263 -91 848 271 
Q 434 634 434 1313 
Q 434 1759 690 2068 
Q 947 2378 1403 2484 
z
M 1172 3481 
Q 1172 3119 1398 2916 
Q 1625 2713 2034 2713 
Q 2441 2713 2670 2916 
Q 2900 3119 2900 3481 
Q 2900 3844 2670 4047 
Q 2441 4250 2034 4250 
Q 1625 4250 1398 4047 
Q 1172 3844 1172 3481 
z
" transform="scale(0.015625)"/>
       </defs>
       <use xlink:href="#DejaVuSans-38"/>
       <use xlink:href="#DejaVuSans-30" x="63.623047"/>
      </g>
     </g>
    </g>
   </g>
   <g id="matplotlib.axis_2">
    <g id="ytick_1">
     <g id="line2d_10">
      <defs>
       <path id="mb3ae4aef50" d="M 0 0 
L -3.5 0 
" style="stroke: #000000; stroke-width: 0.8"/>
      </defs>
      <g>
       <use xlink:href="#mb3ae4aef50" x="26.925" y="227.83638" style="stroke: #000000; stroke-width: 0.8"/>
      </g>
     </g>
     <g id="text_10">
      <!-- 55 -->
      <g transform="translate(7.2 231.635599) scale(0.1 -0.1)">
       <use xlink:href="#DejaVuSans-35"/>
       <use xlink:href="#DejaVuSans-35" x="63.623047"/>
      </g>
     </g>
    </g>
    <g id="ytick_2">
     <g id="line2d_11">
      <g>
       <use xlink:href="#mb3ae4aef50" x="26.925" y="201.092802" style="stroke: #000000; stroke-width: 0.8"/>
      </g>
     </g>
     <g id="text_11">
      <!-- 60 -->
      <g transform="translate(7.2 204.892021) scale(0.1 -0.1)">
       <use xlink:href="#DejaVuSans-36"/>
       <use xlink:href="#DejaVuSans-30" x="63.623047"/>
      </g>
     </g>
    </g>
    <g id="ytick_3">
     <g id="line2d_12">
      <g>
       <use xlink:href="#mb3ae4aef50" x="26.925" y="174.349224" style="stroke: #000000; stroke-width: 0.8"/>
      </g>
     </g>
     <g id="text_12">
      <!-- 65 -->
      <g transform="translate(7.2 178.148443) scale(0.1 -0.1)">
       <use xlink:href="#DejaVuSans-36"/>
       <use xlink:href="#DejaVuSans-35" x="63.623047"/>
      </g>
     </g>
    </g>
    <g id="ytick_4">
     <g id="line2d_13">
      <g>
       <use xlink:href="#mb3ae4aef50" x="26.925" y="147.605647" style="stroke: #000000; stroke-width: 0.8"/>
      </g>
     </g>
     <g id="text_13">
      <!-- 70 -->
      <g transform="translate(7.2 151.404865) scale(0.1 -0.1)">
       <use xlink:href="#DejaVuSans-37"/>
       <use xlink:href="#DejaVuSans-30" x="63.623047"/>
      </g>
     </g>
    </g>
    <g id="ytick_5">
     <g id="line2d_14">
      <g>
       <use xlink:href="#mb3ae4aef50" x="26.925" y="120.862069" style="stroke: #000000; stroke-width: 0.8"/>
      </g>
     </g>
     <g id="text_14">
      <!-- 75 -->
      <g transform="translate(7.2 124.661288) scale(0.1 -0.1)">
       <use xlink:href="#DejaVuSans-37"/>
       <use xlink:href="#DejaVuSans-35" x="63.623047"/>
      </g>
     </g>
    </g>
    <g id="ytick_6">
     <g id="line2d_15">
      <g>
       <use xlink:href="#mb3ae4aef50" x="26.925" y="94.118491" style="stroke: #000000; stroke-width: 0.8"/>
      </g>
     </g>
     <g id="text_15">
      <!-- 80 -->
      <g transform="translate(7.2 97.91771) scale(0.1 -0.1)">
       <use xlink:href="#DejaVuSans-38"/>
       <use xlink:href="#DejaVuSans-30" x="63.623047"/>
      </g>
     </g>
    </g>
    <g id="ytick_7">
     <g id="line2d_16">
      <g>
       <use xlink:href="#mb3ae4aef50" x="26.925" y="67.374913" style="stroke: #000000; stroke-width: 0.8"/>
      </g>
     </g>
     <g id="text_16">
      <!-- 85 -->
      <g transform="translate(7.2 71.174132) scale(0.1 -0.1)">
       <use xlink:href="#DejaVuSans-38"/>
       <use xlink:href="#DejaVuSans-35" x="63.623047"/>
      </g>
     </g>
    </g>
    <g id="ytick_8">
     <g id="line2d_17">
      <g>
       <use xlink:href="#mb3ae4aef50" x="26.925" y="40.631335" style="stroke: #000000; stroke-width: 0.8"/>
      </g>
     </g>
     <g id="text_17">
      <!-- 90 -->
      <g transform="translate(7.2 44.430554) scale(0.1 -0.1)">
       <defs>
        <path id="DejaVuSans-39" d="M 703 97 
L 703 672 
Q 941 559 1184 500 
Q 1428 441 1663 441 
Q 2288 441 2617 861 
Q 2947 1281 2994 2138 
Q 2813 1869 2534 1725 
Q 2256 1581 1919 1581 
Q 1219 1581 811 2004 
Q 403 2428 403 3163 
Q 403 3881 828 4315 
Q 1253 4750 1959 4750 
Q 2769 4750 3195 4129 
Q 3622 3509 3622 2328 
Q 3622 1225 3098 567 
Q 2575 -91 1691 -91 
Q 1453 -91 1209 -44 
Q 966 3 703 97 
z
M 1959 2075 
Q 2384 2075 2632 2365 
Q 2881 2656 2881 3163 
Q 2881 3666 2632 3958 
Q 2384 4250 1959 4250 
Q 1534 4250 1286 3958 
Q 1038 3666 1038 3163 
Q 1038 2656 1286 2365 
Q 1534 2075 1959 2075 
z
" transform="scale(0.015625)"/>
       </defs>
       <use xlink:href="#DejaVuSans-39"/>
       <use xlink:href="#DejaVuSans-30" x="63.623047"/>
      </g>
     </g>
    </g>
    <g id="ytick_9">
     <g id="line2d_18">
      <g>
       <use xlink:href="#mb3ae4aef50" x="26.925" y="13.887757" style="stroke: #000000; stroke-width: 0.8"/>
      </g>
     </g>
     <g id="text_18">
      <!-- 95 -->
      <g transform="translate(7.2 17.686976) scale(0.1 -0.1)">
       <use xlink:href="#DejaVuSans-39"/>
       <use xlink:href="#DejaVuSans-35" x="63.623047"/>
      </g>
     </g>
    </g>
   </g>
   <g id="line2d_19">
    <path d="M 44.054261 51.702077 
L 44.66667 51.702077 
L 45.229707 48.815645 
L 45.454717 48.815645 
L 45.988569 56.8549 
L 46.514484 58.287288 
L 47.078901 58.494342 
L 47.721727 60.358789 
L 49.529752 60.358789 
L 50.083127 60.960181 
L 50.741127 61.95682 
L 51.287049 61.757953 
L 51.629584 64.865399 
L 51.954748 64.865399 
L 52.245343 66.271993 
L 52.555898 64.983679 
L 52.861287 65.235835 
L 53.160089 66.013933 
L 53.430049 66.013933 
L 53.721627 66.32726 
L 54.028166 66.34216 
L 54.936582 67.260537 
L 55.246298 68.113903 
L 55.910591 68.113903 
L 56.220362 68.48614 
L 56.517899 68.113903 
L 56.782209 68.172813 
L 57.394424 68.965352 
L 57.726557 69.740641 
L 58.046365 69.740641 
L 58.335442 70.007811 
L 58.625383 69.799551 
L 58.96134 70.112879 
L 59.916801 70.112879 
L 60.528759 70.434944 
L 60.82999 70.835234 
L 61.426647 70.835234 
L 61.719129 71.533883 
L 62.016183 71.13358 
L 62.308546 71.855935 
L 63.180029 71.855935 
L 63.763895 72.953948 
L 64.050681 72.477525 
L 64.314483 72.477525 
L 64.591899 72.80873 
L 64.880869 72.477525 
L 65.431908 72.477525 
L 65.72853 73.025167 
L 66.002864 72.477525 
L 66.312603 73.044322 
L 66.596326 72.80873 
L 66.870259 73.290598 
L 67.994302 73.373068 
L 68.299008 73.863243 
L 68.5868 74.031286 
L 68.882102 74.521461 
L 69.166919 74.031286 
L 69.487652 74.148168 
L 69.899196 74.992391 
L 70.267996 74.521461 
L 71.123556 74.521461 
L 71.480733 74.869362 
L 71.838779 74.869362 
L 72.153369 75.452339 
L 72.487351 75.096982 
L 72.817877 75.096982 
L 73.405287 75.943357 
L 73.685778 75.943357 
L 73.972852 76.291258 
L 74.28345 76.291258 
L 74.895981 76.966676 
L 75.185123 76.966676 
L 75.518213 77.356953 
L 75.860924 77.356953 
L 76.173842 77.93993 
L 76.4644 77.93993 
L 76.803889 78.287831 
L 77.752439 78.287831 
L 78.095752 79.930655 
L 78.472893 80.110728 
L 78.782687 79.930655 
L 79.083079 78.598357 
L 79.381043 78.815805 
L 79.731167 79.930655 
L 80.026317 80.458629 
L 80.286107 80.110728 
L 80.575438 80.110728 
L 80.943144 80.350494 
L 81.287037 80.237481 
L 81.580918 80.458629 
L 81.887853 80.237481 
L 82.227453 80.237481 
L 82.530541 81.323696 
L 82.863496 80.657116 
L 83.76776 81.784406 
L 84.36682 81.873784 
L 84.661385 81.873784 
L 84.987199 83.010679 
L 85.387428 82.208817 
L 85.741981 81.888879 
L 86.082615 82.251204 
L 86.424602 82.05057 
L 88.081761 82.218666 
L 88.382253 82.958133 
L 89.347396 82.958133 
L 89.660868 83.495353 
L 90.015835 83.495353 
L 90.376929 83.170651 
L 90.988104 83.634737 
L 91.641158 83.655325 
L 92.091641 83.86962 
L 92.687015 83.504285 
L 92.972663 83.878113 
L 93.307721 83.721202 
L 94.206285 83.721202 
L 94.587788 84.258422 
L 96.296424 84.55338 
L 96.636147 84.983491 
L 96.925383 84.855806 
L 97.280153 85.015778 
L 97.582683 84.590181 
L 97.867443 84.55338 
L 98.140432 85.555889 
L 98.830649 85.593891 
L 99.805935 85.770206 
L 101.559508 85.775166 
L 102.204817 85.882591 
L 102.791404 85.900658 
L 103.080113 87.234122 
L 103.614497 87.234122 
L 103.921635 87.463135 
L 104.482301 87.463135 
L 104.759825 87.272124 
L 105.33316 87.47262 
L 105.650433 87.272124 
L 105.995615 87.339114 
L 106.312828 87.234122 
L 107.608161 87.6972 
L 108.575533 87.6972 
L 108.878275 87.538428 
L 109.252098 87.538428 
L 109.621267 88.777519 
L 110.203838 89.116749 
L 110.770366 89.116749 
L 111.062855 89.297253 
L 111.340867 89.105972 
L 111.915621 89.122242 
L 112.21094 89.223378 
L 112.513561 89.122242 
L 112.804395 89.345514 
L 113.08441 89.345514 
L 113.640432 89.122242 
L 114.186455 89.462398 
L 114.467607 89.514019 
L 114.733381 89.313523 
L 115.587914 89.420342 
L 116.444749 89.523492 
L 116.721938 90.114792 
L 117.022587 90.114792 
L 117.307049 89.849078 
L 117.596711 89.755402 
L 117.877597 89.864267 
L 118.184897 90.130909 
L 119.038307 90.166928 
L 119.620859 90.275793 
L 119.925794 90.247124 
L 120.573091 90.561576 
L 120.875347 90.42497 
L 121.181598 90.42497 
L 122.469741 91.241436 
L 122.767054 91.088677 
L 123.069646 91.480454 
L 123.340389 92.277259 
L 123.64142 92.277259 
L 124.203274 92.773556 
L 124.486902 92.773556 
L 124.769971 93.181603 
L 125.831233 93.181603 
L 126.129292 93.295918 
L 126.414211 93.181603 
L 126.679389 92.950877 
L 126.986343 93.145813 
L 128.720537 93.342654 
L 129.025899 93.282739 
L 129.307701 93.445928 
L 129.880948 93.34003 
L 130.466313 93.332429 
L 130.790977 93.334425 
L 131.088076 93.534212 
L 131.370077 94.144395 
L 131.654599 93.401103 
L 132.373259 93.345457 
L 132.703324 93.546921 
L 133.018341 93.395533 
L 133.369181 93.796783 
L 133.680486 94.739862 
L 136.302862 94.739862 
L 136.609028 94.956305 
L 136.889577 95.993974 
L 137.186495 95.993974 
L 137.496838 94.870201 
L 138.082281 94.923337 
L 138.676597 94.80784 
L 138.993053 95.024283 
L 139.313576 96.04962 
L 139.63722 96.247937 
L 140.835977 96.247937 
L 141.133702 96.592546 
L 141.449292 96.396402 
L 141.757998 96.574207 
L 142.055677 96.89119 
L 142.353361 96.373499 
L 143.221246 96.373499 
L 143.518113 96.709127 
L 144.088643 96.68577 
L 144.37993 97.116212 
L 145.262997 97.216405 
L 145.553935 98.308861 
L 145.838542 98.266744 
L 146.437598 98.718939 
L 146.759522 98.44197 
L 147.049011 98.45301 
L 147.355937 98.653242 
L 147.648232 98.542177 
L 147.934626 98.975441 
L 148.499763 98.917353 
L 148.790347 98.917353 
L 149.081303 99.512173 
L 149.393127 98.917353 
L 149.729429 99.12019 
L 150.081971 99.589726 
L 150.395551 98.964854 
L 150.722319 99.105541 
L 151.017703 99.543259 
L 151.306719 99.107406 
L 151.962402 100.145095 
L 152.286164 100.851238 
L 152.604901 100.076852 
L 153.506589 100.076852 
L 153.814386 100.299398 
L 154.170452 101.01094 
L 154.533657 101.227384 
L 155.754921 101.244256 
L 156.697616 101.447763 
L 157.883633 101.427731 
L 158.178806 101.244256 
L 158.752763 101.244256 
L 159.036183 101.609237 
L 159.329069 102.210288 
L 159.753598 101.995977 
L 160.972552 101.995977 
L 161.264861 102.511614 
L 161.559024 102.183096 
L 161.833204 102.688465 
L 162.131966 102.99447 
L 163.899834 102.99447 
L 164.236272 103.388003 
L 164.523174 102.99447 
L 164.822594 103.816111 
L 165.421654 103.816111 
L 165.717445 103.181589 
L 166.009221 103.181589 
L 166.313469 103.816111 
L 166.680263 103.316755 
L 167.254647 103.316755 
L 167.546326 104.138397 
L 167.852584 103.64084 
L 168.470158 103.632935 
L 169.109637 104.121524 
L 169.392629 103.493846 
L 169.678167 103.493846 
L 169.999611 103.771147 
L 170.300576 103.810026 
L 170.581451 104.103434 
L 170.869464 103.96329 
L 171.759553 104.39336 
L 172.074989 104.784932 
L 172.453991 104.965781 
L 172.879968 104.965781 
L 173.636105 105.199249 
L 173.994097 105.199249 
L 174.286472 105.696239 
L 174.679103 105.786472 
L 175.359004 105.628395 
L 175.709539 105.786472 
L 176.618542 105.746657 
L 176.928936 105.923747 
L 178.120486 105.931147 
L 178.400493 106.291114 
L 178.712836 106.291114 
L 179.016541 106.920829 
L 179.30764 106.291114 
L 179.615839 106.365649 
L 179.937783 106.920829 
L 182.129414 106.995364 
L 182.479838 107.237009 
L 182.825818 107.237009 
L 183.167807 107.463738 
L 183.488432 108.554105 
L 183.789777 108.554105 
L 184.085465 108.693271 
L 184.389021 108.693271 
L 184.723733 108.944821 
L 185.025498 109.98972 
L 185.630054 110.425079 
L 187.137659 110.475348 
L 187.746851 110.864209 
L 188.039115 111.48448 
L 188.641886 111.591376 
L 188.957495 112.830428 
L 189.252666 113.225823 
L 189.552982 112.245857 
L 190.139664 112.245857 
L 190.438574 112.385023 
L 190.742021 112.750262 
L 192.565187 112.598068 
L 192.860352 113.728311 
L 194.672821 113.728311 
L 194.979593 115.122023 
L 195.269805 115.122023 
L 195.574007 113.868869 
L 195.868976 113.868869 
L 196.169876 114.325047 
L 196.736592 114.593506 
L 197.034486 114.593506 
L 197.327223 115.401834 
L 197.62873 114.826069 
L 197.921866 114.826069 
L 198.197169 115.26258 
L 198.49844 115.401746 
L 198.790693 115.401746 
L 199.079759 115.876044 
L 199.657244 115.876044 
L 199.949543 116.103065 
L 200.834931 116.103065 
L 201.133295 116.277142 
L 201.425416 116.253023 
L 201.720266 116.350879 
L 202.021969 116.325853 
L 202.328331 116.727858 
L 202.622267 116.476644 
L 202.931604 116.683708 
L 203.223133 116.22276 
L 203.835668 116.749115 
L 204.143525 117.038921 
L 204.461034 117.038921 
L 204.756579 117.601836 
L 205.054727 117.601836 
L 205.642809 118.312859 
L 205.949752 118.312859 
L 206.255202 117.985002 
L 206.552974 117.830634 
L 206.870132 118.214434 
L 207.16132 118.214434 
L 207.466048 118.542291 
L 207.756186 118.602165 
L 208.058611 118.150169 
L 208.930855 118.418143 
L 209.224456 118.418143 
L 209.51866 118.620116 
L 209.830576 118.620116 
L 210.115606 118.386635 
L 210.410415 118.690912 
L 210.706844 118.690912 
L 210.986643 118.896939 
L 211.276271 119.301865 
L 211.580936 119.301865 
L 211.87812 119.605223 
L 213.665863 119.605223 
L 213.983613 119.744388 
L 214.883823 119.809773 
L 215.175648 120.015356 
L 215.513219 119.810806 
L 216.101398 120.372712 
L 216.378579 119.942399 
L 216.672111 120.154578 
L 216.972454 119.942399 
L 218.141174 120.683276 
L 218.409327 120.683276 
L 218.693638 120.845495 
L 219.260169 120.819676 
L 219.535964 121.029066 
L 219.813814 121.029066 
L 220.114142 121.200282 
L 220.403837 121.200282 
L 220.69562 121.536973 
L 221.572238 121.536973 
L 221.87877 122.189459 
L 222.143164 122.189459 
L 222.455736 122.351621 
L 223.924126 122.351621 
L 224.2129 123.764426 
L 225.087599 123.900826 
L 225.39132 123.840319 
L 225.68556 124.380121 
L 225.963679 124.380121 
L 226.270594 123.840319 
L 226.575053 124.304229 
L 227.163039 124.379172 
L 228.030341 124.299337 
L 228.628762 124.245901 
L 228.910813 124.464045 
L 229.486723 124.539297 
L 230.358217 124.54814 
L 230.655474 124.779782 
L 230.954552 126.173748 
L 231.237795 124.674395 
L 232.157353 124.702779 
L 232.4566 125.074849 
L 232.741342 125.074849 
L 233.037568 124.721142 
L 233.342731 126.360511 
L 233.642071 124.857542 
L 234.808853 124.919705 
L 235.096177 125.183758 
L 235.393322 125.183758 
L 235.700492 125.423603 
L 235.98255 126.347285 
L 236.268042 126.615352 
L 237.440871 126.635911 
L 237.745099 126.882196 
L 238.038127 126.669317 
L 238.335964 126.669317 
L 238.63214 127.150263 
L 239.204637 127.255912 
L 239.505529 127.255912 
L 239.813113 127.524427 
L 240.09872 127.564604 
L 240.379902 127.747779 
L 240.94705 127.837165 
L 241.530246 127.747779 
L 242.091035 127.837165 
L 242.963337 127.738509 
L 243.263937 128.239916 
L 243.873993 128.329303 
L 244.15418 128.032892 
L 244.437776 128.318201 
L 245.286156 128.46418 
L 245.581306 128.333267 
L 245.790718 128.512549 
L 246.387479 128.333267 
L 246.667693 128.521795 
L 246.961936 129.235725 
L 247.259165 128.521795 
L 248.460702 128.61752 
L 249.29609 128.830803 
L 249.577703 128.817397 
L 249.862122 129.692767 
L 250.411829 129.692767 
L 250.699366 129.852555 
L 250.98628 129.852555 
L 251.287369 130.135213 
L 251.842219 130.169018 
L 252.144015 130.587615 
L 252.978772 130.619301 
L 253.266374 130.828057 
L 253.58299 130.547433 
L 254.45588 131.10033 
L 255.031189 130.991984 
L 255.291832 130.791696 
L 255.578261 131.163435 
L 256.176744 131.493961 
L 256.452392 131.493961 
L 256.74195 131.959732 
L 257.910024 131.971101 
L 258.190911 132.20057 
L 258.48191 132.140992 
L 259.059085 132.308103 
L 259.325036 132.388522 
L 259.602094 132.140992 
L 260.762996 132.158403 
L 261.041833 132.358692 
L 261.321955 132.715801 
L 261.91568 132.715801 
L 262.210627 132.958283 
L 263.349229 133.022289 
L 263.650693 133.158572 
L 264.196711 133.158572 
L 264.488222 133.355651 
L 264.766894 133.385776 
L 265.063751 133.160122 
L 265.902802 133.869261 
L 266.184776 133.325073 
L 266.473797 134.045899 
L 266.746462 134.160619 
L 267.032941 133.938265 
L 267.324197 133.938265 
L 267.621973 134.177661 
L 268.207269 134.177661 
L 268.50233 134.844241 
L 269.341896 134.844241 
L 269.641635 134.960021 
L 270.238773 134.902089 
L 270.792775 134.915096 
L 271.093583 135.071514 
L 271.377332 135.071514 
L 271.66541 134.887249 
L 271.932429 134.886282 
L 272.225972 135.142484 
L 272.484452 134.934794 
L 272.740029 135.391589 
L 274.242603 135.491432 
L 274.515749 135.510322 
L 274.802197 135.391589 
L 276.269542 135.663729 
L 277.699458 135.757018 
L 277.987505 135.780968 
L 278.278915 137.076333 
L 278.569888 135.889264 
L 278.87462 135.889264 
L 279.464082 136.097939 
L 279.748435 136.097939 
L 280.038889 136.911218 
L 281.508958 136.947002 
L 281.775723 137.116438 
L 282.081001 137.116438 
L 282.694033 137.354408 
L 283.308155 137.354408 
L 283.61866 137.976174 
L 283.911557 137.241214 
L 284.527132 137.300127 
L 284.821091 137.553704 
L 285.12208 137.553704 
L 285.414904 137.373429 
L 285.728177 137.476712 
L 286.028793 138.356918 
L 287.20382 138.454205 
L 287.511673 138.590763 
L 287.809948 138.590763 
L 288.08945 138.855436 
L 288.684883 138.86813 
L 288.988261 139.025214 
L 289.268371 138.86813 
L 289.562038 139.016098 
L 290.440685 139.016098 
L 290.759153 139.392084 
L 291.340629 139.392084 
L 291.644419 139.242976 
L 292.218208 139.608488 
L 292.793218 139.560594 
L 293.079766 139.588686 
L 293.37309 139.926202 
L 293.642532 139.69086 
L 293.945741 139.879643 
L 294.525967 139.758464 
L 294.814695 139.758464 
L 295.110041 139.91436 
L 296.006477 139.874388 
L 296.608069 140.194945 
L 296.913284 140.088871 
L 298.12815 140.549654 
L 298.437191 140.795459 
L 298.734102 141.190302 
L 299.323095 141.190302 
L 299.619521 140.832565 
L 300.542443 140.951356 
L 301.109939 141.051839 
L 301.981971 141.273506 
L 302.602565 141.173022 
L 302.926473 141.340285 
L 303.237089 141.201822 
L 303.824465 141.315264 
L 304.111095 141.327639 
L 304.417513 141.475977 
L 304.709224 141.475977 
L 305.005742 141.920283 
L 306.755126 141.996975 
L 307.049238 142.117856 
L 308.835797 142.138259 
L 309.138034 142.276336 
L 310.027091 142.252832 
L 312.985229 142.360944 
L 314.178397 142.390682 
L 315.034472 142.390682 
L 315.333923 142.425768 
L 315.631736 143.090523 
L 319.115442 143.090523 
L 319.409854 143.226174 
L 319.731559 143.240506 
L 320.004145 143.697255 
L 321.15704 143.802682 
L 322.335699 143.875954 
L 324.036501 143.993983 
L 324.590472 144.100058 
L 324.878127 144.100058 
L 325.185081 144.235709 
L 325.467658 144.100058 
L 326.046032 144.269815 
L 326.34671 144.204991 
L 326.637943 144.302636 
L 326.912083 144.818369 
L 328.648642 144.831004 
L 329.232624 144.951936 
L 329.999643 144.822575 
L 330.567539 145.064959 
L 331.697512 145.095509 
L 331.998853 145.496877 
L 333.167801 145.681309 
L 333.447199 144.951962 
L 334.036058 144.933399 
L 334.362331 145.779734 
L 334.684257 145.82142 
L 334.984055 146.055118 
L 335.260721 146.075079 
L 335.547431 146.593816 
L 335.836966 145.961636 
L 336.111283 146.596867 
L 336.716062 146.716669 
L 337.020241 146.916926 
L 337.320242 147.577048 
L 337.597919 147.082278 
L 337.866425 147.082278 
L 338.159258 148.27347 
L 338.475694 148.401845 
L 338.773134 148.401845 
L 339.061146 149.234161 
L 339.647493 149.31017 
L 339.951132 149.599987 
L 340.248462 149.31017 
L 340.837347 149.60702 
L 341.147983 150.440013 
L 341.437849 150.497612 
L 341.724639 151.161059 
L 342.013689 150.628595 
L 342.306822 150.528661 
L 343.165363 150.903599 
L 343.460532 151.123543 
L 343.764131 150.921803 
L 344.336658 151.04135 
L 344.618975 151.190005 
L 344.902909 151.608931 
L 346.339624 151.785713 
L 346.339624 151.785713 
" clip-path="url(#p22ccc4e109)" style="fill: none; stroke: #1f77b4; stroke-width: 1.5; stroke-linecap: square"/>
   </g>
   <g id="line2d_20">
    <path d="M 42.143182 17.28 
L 48.98876 166.504235 
L 49.829471 181.092657 
L 53.3354 181.092657 
L 54.291288 185.431368 
L 57.759132 185.431368 
L 58.707608 189.808805 
L 65.843951 189.808805 
L 66.810699 190.188477 
L 70.246588 190.188477 
L 71.208198 190.542768 
L 79.10685 190.601857 
L 80.067751 191.440777 
L 83.514178 191.440777 
L 84.480884 192.197837 
L 87.966984 192.197837 
L 88.927279 195.108225 
L 92.406182 195.108225 
L 93.365212 197.628249 
L 107.757921 197.628249 
L 108.724009 201.369701 
L 112.217827 201.369701 
L 113.168305 201.894404 
L 120.2686 201.894404 
L 121.234247 203.530885 
L 124.681929 203.530885 
L 125.662723 203.661204 
L 132.776494 203.661204 
L 133.742092 203.936919 
L 137.24125 203.936919 
L 138.181394 204.661456 
L 159.632114 204.661456 
L 160.589604 205.56024 
L 164.066498 205.56024 
L 165.022462 205.933037 
L 189.697625 205.933021 
L 190.272431 206.07656 
L 190.855667 206.07656 
L 191.256934 206.237114 
L 193.101714 206.237114 
L 193.478064 206.486364 
L 196.278264 206.587289 
L 197.522786 206.855994 
L 203.589034 206.959716 
L 204.3155 206.959716 
L 207.241633 206.959716 
L 207.839956 207.073419 
L 209.659599 206.959716 
L 209.975024 207.164015 
L 211.1801 207.260447 
L 211.460226 207.699605 
L 212.298093 207.859136 
L 212.565742 207.859136 
L 212.837332 208.073764 
L 217.712564 208.091696 
L 217.989407 208.64164 
L 222.426935 208.659572 
L 223.01697 208.768855 
L 225.734798 208.874927 
L 226.037816 209.539886 
L 226.639163 209.642831 
L 234.943473 209.922597 
L 235.228738 210.07162 
L 238.210579 210.07162 
L 238.522595 210.515311 
L 238.833219 210.515311 
L 239.679161 210.125178 
L 240.795916 210.07162 
L 241.091865 210.515311 
L 243.144751 210.558397 
L 243.400502 210.769355 
L 244.24152 210.822913 
L 244.511761 211.042765 
L 245.377798 211.042765 
L 245.677598 210.774949 
L 246.205091 210.885156 
L 246.806149 211.042765 
L 247.09877 211.262753 
L 248.514903 211.37296 
L 249.089129 211.426519 
L 249.38594 211.64637 
L 249.669698 211.426519 
L 250.551981 211.426519 
L 250.833929 211.64637 
L 251.682001 211.689456 
L 251.969647 211.467939 
L 253.129458 211.64637 
L 253.896527 211.64637 
L 254.42626 211.681938 
L 257.015399 211.613152 
L 257.565514 211.549752 
L 258.142666 211.549752 
L 258.442113 211.723358 
L 259.025041 211.650151 
L 259.314056 211.486948 
L 259.923937 211.486948 
L 260.43607 211.666214 
L 261.027247 211.754763 
L 262.418635 211.852328 
L 262.687588 212.100902 
L 262.977492 212.100902 
L 263.258462 211.852328 
L 263.55932 212.055523 
L 263.833434 211.852328 
L 264.385333 212.476434 
L 264.67591 212.155753 
L 264.966717 212.05831 
L 265.557228 212.534314 
L 266.708083 212.562196 
L 267.00107 212.684393 
L 267.298856 212.684393 
L 267.584498 212.86358 
L 268.138929 212.967339 
L 268.422134 212.595844 
L 269.265505 212.665527 
L 269.580083 212.754076 
L 269.850062 213.357029 
L 271.236509 213.450699 
L 271.512525 213.535249 
L 272.099834 213.450699 
L 274.090137 213.463217 
L 274.654532 213.57476 
L 275.835112 213.48109 
L 276.443904 213.975753 
L 276.729099 213.826544 
L 277.023811 213.802442 
L 277.303564 213.975753 
L 277.593332 213.752979 
L 278.161655 213.848367 
L 278.745426 213.977473 
L 279.037205 214.071142 
L 279.332536 214.653717 
L 282.541712 214.749106 
L 282.845706 215.109294 
L 283.156515 214.842775 
L 283.795604 214.725974 
L 284.105173 214.945755 
L 286.490019 215.013905 
L 287.106036 215.130706 
L 287.409565 215.013905 
L 287.716587 215.109177 
L 288.045046 215.381857 
L 289.966179 215.477245 
L 290.852959 215.477245 
L 291.452537 215.415835 
L 292.002266 215.614152 
L 292.296519 215.990609 
L 293.134075 216.072243 
L 294.313457 216.10726 
L 297.287509 216.1193 
L 303.697278 216.222162 
L 304.274022 216.372187 
L 304.567154 216.25886 
L 305.175565 216.293728 
L 305.475811 216.5245 
L 309.605588 216.616989 
L 309.900926 216.709393 
L 310.502975 216.616989 
L 311.993804 216.616989 
L 312.2946 216.767013 
L 313.207578 216.767013 
L 313.52173 216.616989 
L 313.846249 216.616989 
L 314.145458 217.340341 
L 315.341721 217.343079 
L 315.647414 217.490366 
L 315.948482 217.490366 
L 316.250029 217.343079 
L 316.540802 217.343079 
L 316.84042 217.490366 
L 317.135087 217.340341 
L 317.426255 217.340341 
L 317.726575 217.480299 
L 322.333381 217.422523 
L 322.967844 217.346624 
L 323.275674 217.418109 
L 324.196427 217.346624 
L 324.785601 217.455498 
L 328.148577 217.360122 
L 328.760243 217.356993 
L 329.656989 217.548081 
L 329.953423 217.546544 
L 330.242862 217.408042 
L 330.86552 217.43789 
L 331.182087 217.785427 
L 331.503162 217.785427 
L 331.822211 217.399761 
L 332.119207 217.414325 
L 332.707604 217.63413 
L 334.859796 217.663978 
L 335.480529 218.336863 
L 335.807166 217.98795 
L 337.87613 218.095921 
L 338.175174 218.675704 
L 338.480283 218.83216 
L 339.977629 218.775393 
L 341.440447 218.833806 
L 346.506818 218.834307 
L 346.506818 218.834307 
" clip-path="url(#p22ccc4e109)" style="fill: none; stroke: #ff7f0e; stroke-width: 1.5; stroke-linecap: square"/>
   </g>
   <g id="patch_3">
    <path d="M 26.925 228.96 
L 26.925 7.2 
" style="fill: none; stroke: #000000; stroke-width: 0.8; stroke-linejoin: miter; stroke-linecap: square"/>
   </g>
   <g id="patch_4">
    <path d="M 361.725 228.96 
L 361.725 7.2 
" style="fill: none; stroke: #000000; stroke-width: 0.8; stroke-linejoin: miter; stroke-linecap: square"/>
   </g>
   <g id="patch_5">
    <path d="M 26.925 228.96 
L 361.725 228.96 
" style="fill: none; stroke: #000000; stroke-width: 0.8; stroke-linejoin: miter; stroke-linecap: square"/>
   </g>
   <g id="patch_6">
    <path d="M 26.925 7.2 
L 361.725 7.2 
" style="fill: none; stroke: #000000; stroke-width: 0.8; stroke-linejoin: miter; stroke-linecap: square"/>
   </g>
   <g id="legend_1">
    <g id="patch_7">
     <path d="M 219.5625 44.55625 
L 354.725 44.55625 
Q 356.725 44.55625 356.725 42.55625 
L 356.725 14.2 
Q 356.725 12.2 354.725 12.2 
L 219.5625 12.2 
Q 217.5625 12.2 217.5625 14.2 
L 217.5625 42.55625 
Q 217.5625 44.55625 219.5625 44.55625 
z
" style="fill: #ffffff; opacity: 0.8; stroke: #cccccc; stroke-linejoin: miter"/>
    </g>
    <g id="line2d_21">
     <path d="M 221.5625 20.298437 
L 231.5625 20.298437 
L 241.5625 20.298437 
" style="fill: none; stroke: #1f77b4; stroke-width: 1.5; stroke-linecap: square"/>
    </g>
    <g id="text_19">
     <!-- GA target value -->
     <g transform="translate(249.5625 23.798437) scale(0.1 -0.1)">
      <defs>
       <path id="DejaVuSans-47" d="M 3809 666 
L 3809 1919 
L 2778 1919 
L 2778 2438 
L 4434 2438 
L 4434 434 
Q 4069 175 3628 42 
Q 3188 -91 2688 -91 
Q 1594 -91 976 548 
Q 359 1188 359 2328 
Q 359 3472 976 4111 
Q 1594 4750 2688 4750 
Q 3144 4750 3555 4637 
Q 3966 4525 4313 4306 
L 4313 3634 
Q 3963 3931 3569 4081 
Q 3175 4231 2741 4231 
Q 1884 4231 1454 3753 
Q 1025 3275 1025 2328 
Q 1025 1384 1454 906 
Q 1884 428 2741 428 
Q 3075 428 3337 486 
Q 3600 544 3809 666 
z
" transform="scale(0.015625)"/>
       <path id="DejaVuSans-41" d="M 2188 4044 
L 1331 1722 
L 3047 1722 
L 2188 4044 
z
M 1831 4666 
L 2547 4666 
L 4325 0 
L 3669 0 
L 3244 1197 
L 1141 1197 
L 716 0 
L 50 0 
L 1831 4666 
z
" transform="scale(0.015625)"/>
       <path id="DejaVuSans-20" transform="scale(0.015625)"/>
       <path id="DejaVuSans-74" d="M 1172 4494 
L 1172 3500 
L 2356 3500 
L 2356 3053 
L 1172 3053 
L 1172 1153 
Q 1172 725 1289 603 
Q 1406 481 1766 481 
L 2356 481 
L 2356 0 
L 1766 0 
Q 1100 0 847 248 
Q 594 497 594 1153 
L 594 3053 
L 172 3053 
L 172 3500 
L 594 3500 
L 594 4494 
L 1172 4494 
z
" transform="scale(0.015625)"/>
       <path id="DejaVuSans-61" d="M 2194 1759 
Q 1497 1759 1228 1600 
Q 959 1441 959 1056 
Q 959 750 1161 570 
Q 1363 391 1709 391 
Q 2188 391 2477 730 
Q 2766 1069 2766 1631 
L 2766 1759 
L 2194 1759 
z
M 3341 1997 
L 3341 0 
L 2766 0 
L 2766 531 
Q 2569 213 2275 61 
Q 1981 -91 1556 -91 
Q 1019 -91 701 211 
Q 384 513 384 1019 
Q 384 1609 779 1909 
Q 1175 2209 1959 2209 
L 2766 2209 
L 2766 2266 
Q 2766 2663 2505 2880 
Q 2244 3097 1772 3097 
Q 1472 3097 1187 3025 
Q 903 2953 641 2809 
L 641 3341 
Q 956 3463 1253 3523 
Q 1550 3584 1831 3584 
Q 2591 3584 2966 3190 
Q 3341 2797 3341 1997 
z
" transform="scale(0.015625)"/>
       <path id="DejaVuSans-72" d="M 2631 2963 
Q 2534 3019 2420 3045 
Q 2306 3072 2169 3072 
Q 1681 3072 1420 2755 
Q 1159 2438 1159 1844 
L 1159 0 
L 581 0 
L 581 3500 
L 1159 3500 
L 1159 2956 
Q 1341 3275 1631 3429 
Q 1922 3584 2338 3584 
Q 2397 3584 2469 3576 
Q 2541 3569 2628 3553 
L 2631 2963 
z
" transform="scale(0.015625)"/>
       <path id="DejaVuSans-67" d="M 2906 1791 
Q 2906 2416 2648 2759 
Q 2391 3103 1925 3103 
Q 1463 3103 1205 2759 
Q 947 2416 947 1791 
Q 947 1169 1205 825 
Q 1463 481 1925 481 
Q 2391 481 2648 825 
Q 2906 1169 2906 1791 
z
M 3481 434 
Q 3481 -459 3084 -895 
Q 2688 -1331 1869 -1331 
Q 1566 -1331 1297 -1286 
Q 1028 -1241 775 -1147 
L 775 -588 
Q 1028 -725 1275 -790 
Q 1522 -856 1778 -856 
Q 2344 -856 2625 -561 
Q 2906 -266 2906 331 
L 2906 616 
Q 2728 306 2450 153 
Q 2172 0 1784 0 
Q 1141 0 747 490 
Q 353 981 353 1791 
Q 353 2603 747 3093 
Q 1141 3584 1784 3584 
Q 2172 3584 2450 3431 
Q 2728 3278 2906 2969 
L 2906 3500 
L 3481 3500 
L 3481 434 
z
" transform="scale(0.015625)"/>
       <path id="DejaVuSans-65" d="M 3597 1894 
L 3597 1613 
L 953 1613 
Q 991 1019 1311 708 
Q 1631 397 2203 397 
Q 2534 397 2845 478 
Q 3156 559 3463 722 
L 3463 178 
Q 3153 47 2828 -22 
Q 2503 -91 2169 -91 
Q 1331 -91 842 396 
Q 353 884 353 1716 
Q 353 2575 817 3079 
Q 1281 3584 2069 3584 
Q 2775 3584 3186 3129 
Q 3597 2675 3597 1894 
z
M 3022 2063 
Q 3016 2534 2758 2815 
Q 2500 3097 2075 3097 
Q 1594 3097 1305 2825 
Q 1016 2553 972 2059 
L 3022 2063 
z
" transform="scale(0.015625)"/>
       <path id="DejaVuSans-76" d="M 191 3500 
L 800 3500 
L 1894 563 
L 2988 3500 
L 3597 3500 
L 2284 0 
L 1503 0 
L 191 3500 
z
" transform="scale(0.015625)"/>
       <path id="DejaVuSans-6c" d="M 603 4863 
L 1178 4863 
L 1178 0 
L 603 0 
L 603 4863 
z
" transform="scale(0.015625)"/>
       <path id="DejaVuSans-75" d="M 544 1381 
L 544 3500 
L 1119 3500 
L 1119 1403 
Q 1119 906 1312 657 
Q 1506 409 1894 409 
Q 2359 409 2629 706 
Q 2900 1003 2900 1516 
L 2900 3500 
L 3475 3500 
L 3475 0 
L 2900 0 
L 2900 538 
Q 2691 219 2414 64 
Q 2138 -91 1772 -91 
Q 1169 -91 856 284 
Q 544 659 544 1381 
z
M 1991 3584 
L 1991 3584 
z
" transform="scale(0.015625)"/>
      </defs>
      <use xlink:href="#DejaVuSans-47"/>
      <use xlink:href="#DejaVuSans-41" x="77.490234"/>
      <use xlink:href="#DejaVuSans-20" x="145.898438"/>
      <use xlink:href="#DejaVuSans-74" x="177.685547"/>
      <use xlink:href="#DejaVuSans-61" x="216.894531"/>
      <use xlink:href="#DejaVuSans-72" x="278.173828"/>
      <use xlink:href="#DejaVuSans-67" x="317.537109"/>
      <use xlink:href="#DejaVuSans-65" x="381.013672"/>
      <use xlink:href="#DejaVuSans-74" x="442.537109"/>
      <use xlink:href="#DejaVuSans-20" x="481.746094"/>
      <use xlink:href="#DejaVuSans-76" x="513.533203"/>
      <use xlink:href="#DejaVuSans-61" x="572.712891"/>
      <use xlink:href="#DejaVuSans-6c" x="633.992188"/>
      <use xlink:href="#DejaVuSans-75" x="661.775391"/>
      <use xlink:href="#DejaVuSans-65" x="725.154297"/>
     </g>
    </g>
    <g id="line2d_22">
     <path d="M 221.5625 34.976562 
L 231.5625 34.976562 
L 241.5625 34.976562 
" style="fill: none; stroke: #ff7f0e; stroke-width: 1.5; stroke-linecap: square"/>
    </g>
    <g id="text_20">
     <!-- PSO-GA target value -->
     <g transform="translate(249.5625 38.476562) scale(0.1 -0.1)">
      <defs>
       <path id="DejaVuSans-50" d="M 1259 4147 
L 1259 2394 
L 2053 2394 
Q 2494 2394 2734 2622 
Q 2975 2850 2975 3272 
Q 2975 3691 2734 3919 
Q 2494 4147 2053 4147 
L 1259 4147 
z
M 628 4666 
L 2053 4666 
Q 2838 4666 3239 4311 
Q 3641 3956 3641 3272 
Q 3641 2581 3239 2228 
Q 2838 1875 2053 1875 
L 1259 1875 
L 1259 0 
L 628 0 
L 628 4666 
z
" transform="scale(0.015625)"/>
       <path id="DejaVuSans-53" d="M 3425 4513 
L 3425 3897 
Q 3066 4069 2747 4153 
Q 2428 4238 2131 4238 
Q 1616 4238 1336 4038 
Q 1056 3838 1056 3469 
Q 1056 3159 1242 3001 
Q 1428 2844 1947 2747 
L 2328 2669 
Q 3034 2534 3370 2195 
Q 3706 1856 3706 1288 
Q 3706 609 3251 259 
Q 2797 -91 1919 -91 
Q 1588 -91 1214 -16 
Q 841 59 441 206 
L 441 856 
Q 825 641 1194 531 
Q 1563 422 1919 422 
Q 2459 422 2753 634 
Q 3047 847 3047 1241 
Q 3047 1584 2836 1778 
Q 2625 1972 2144 2069 
L 1759 2144 
Q 1053 2284 737 2584 
Q 422 2884 422 3419 
Q 422 4038 858 4394 
Q 1294 4750 2059 4750 
Q 2388 4750 2728 4690 
Q 3069 4631 3425 4513 
z
" transform="scale(0.015625)"/>
       <path id="DejaVuSans-4f" d="M 2522 4238 
Q 1834 4238 1429 3725 
Q 1025 3213 1025 2328 
Q 1025 1447 1429 934 
Q 1834 422 2522 422 
Q 3209 422 3611 934 
Q 4013 1447 4013 2328 
Q 4013 3213 3611 3725 
Q 3209 4238 2522 4238 
z
M 2522 4750 
Q 3503 4750 4090 4092 
Q 4678 3434 4678 2328 
Q 4678 1225 4090 567 
Q 3503 -91 2522 -91 
Q 1538 -91 948 565 
Q 359 1222 359 2328 
Q 359 3434 948 4092 
Q 1538 4750 2522 4750 
z
" transform="scale(0.015625)"/>
       <path id="DejaVuSans-2d" d="M 313 2009 
L 1997 2009 
L 1997 1497 
L 313 1497 
L 313 2009 
z
" transform="scale(0.015625)"/>
      </defs>
      <use xlink:href="#DejaVuSans-50"/>
      <use xlink:href="#DejaVuSans-53" x="60.302734"/>
      <use xlink:href="#DejaVuSans-4f" x="123.779297"/>
      <use xlink:href="#DejaVuSans-2d" x="205.240234"/>
      <use xlink:href="#DejaVuSans-47" x="244.949219"/>
      <use xlink:href="#DejaVuSans-41" x="322.439453"/>
      <use xlink:href="#DejaVuSans-20" x="390.847656"/>
      <use xlink:href="#DejaVuSans-74" x="422.634766"/>
      <use xlink:href="#DejaVuSans-61" x="461.84375"/>
      <use xlink:href="#DejaVuSans-72" x="523.123047"/>
      <use xlink:href="#DejaVuSans-67" x="562.486328"/>
      <use xlink:href="#DejaVuSans-65" x="625.962891"/>
      <use xlink:href="#DejaVuSans-74" x="687.486328"/>
      <use xlink:href="#DejaVuSans-20" x="726.695312"/>
      <use xlink:href="#DejaVuSans-76" x="758.482422"/>
      <use xlink:href="#DejaVuSans-61" x="817.662109"/>
      <use xlink:href="#DejaVuSans-6c" x="878.941406"/>
      <use xlink:href="#DejaVuSans-75" x="906.724609"/>
      <use xlink:href="#DejaVuSans-65" x="970.103516"/>
     </g>
    </g>
   </g>
  </g>
 </g>
 <defs>
  <clipPath id="p22ccc4e109">
   <rect x="26.925" y="7.2" width="334.8" height="221.76"/>
  </clipPath>
 </defs>
</svg>
