<?xml version="1.0" encoding="utf-8" standalone="no"?>
<!DOCTYPE svg PUBLIC "-//W3C//DTD SVG 1.1//EN"
  "http://www.w3.org/Graphics/SVG/1.1/DTD/svg11.dtd">
<svg xmlns:xlink="http://www.w3.org/1999/xlink" width="368.925pt" height="252.838125pt" viewBox="0 0 368.925 252.838125" xmlns="http://www.w3.org/2000/svg" version="1.1">
 <metadata>
  <rdf:RDF xmlns:dc="http://purl.org/dc/elements/1.1/" xmlns:cc="http://creativecommons.org/ns#" xmlns:rdf="http://www.w3.org/1999/02/22-rdf-syntax-ns#">
   <cc:Work>
    <dc:type rdf:resource="http://purl.org/dc/dcmitype/StillImage"/>
    <dc:date>2023-04-19T16:33:37.213361</dc:date>
    <dc:format>image/svg+xml</dc:format>
    <dc:creator>
     <cc:Agent>
      <dc:title>Matplotlib v3.6.2, https://matplotlib.org/</dc:title>
     </cc:Agent>
    </dc:creator>
   </cc:Work>
  </rdf:RDF>
 </metadata>
 <defs>
  <style type="text/css">*{stroke-linejoin: round; stroke-linecap: butt}</style>
 </defs>
 <g id="figure_1">
  <g id="patch_1">
   <path d="M -0 252.838125 
L 368.925 252.838125 
L 368.925 0 
L -0 0 
z
" style="fill: #ffffff"/>
  </g>
  <g id="axes_1">
   <g id="patch_2">
    <path d="M 26.925 228.96 
L 361.725 228.96 
L 361.725 7.2 
L 26.925 7.2 
z
" style="fill: #ffffff"/>
   </g>
   <g id="matplotlib.axis_1">
    <g id="xtick_1">
     <g id="line2d_1">
      <defs>
       <path id="m15514162db" d="M 0 0 
L 0 3.5 
" style="stroke: #000000; stroke-width: 0.8"/>
      </defs>
      <g>
       <use xlink:href="#m15514162db" x="42.143182" y="228.96" style="stroke: #000000; stroke-width: 0.8"/>
      </g>
     </g>
     <g id="text_1">
      <!-- 0 -->
      <g transform="translate(38.961932 243.558437) scale(0.1 -0.1)">
       <defs>
        <path id="DejaVuSans-30" d="M 2034 4250 
Q 1547 4250 1301 3770 
Q 1056 3291 1056 2328 
Q 1056 1369 1301 889 
Q 1547 409 2034 409 
Q 2525 409 2770 889 
Q 3016 1369 3016 2328 
Q 3016 3291 2770 3770 
Q 2525 4250 2034 4250 
z
M 2034 4750 
Q 2819 4750 3233 4129 
Q 3647 3509 3647 2328 
Q 3647 1150 3233 529 
Q 2819 -91 2034 -91 
Q 1250 -91 836 529 
Q 422 1150 422 2328 
Q 422 3509 836 4129 
Q 1250 4750 2034 4750 
z
" transform="scale(0.015625)"/>
       </defs>
       <use xlink:href="#DejaVuSans-30"/>
      </g>
     </g>
    </g>
    <g id="xtick_2">
     <g id="line2d_2">
      <g>
       <use xlink:href="#m15514162db" x="103.015909" y="228.96" style="stroke: #000000; stroke-width: 0.8"/>
      </g>
     </g>
     <g id="text_2">
      <!-- 20 -->
      <g transform="translate(96.653409 243.558437) scale(0.1 -0.1)">
       <defs>
        <path id="DejaVuSans-32" d="M 1228 531 
L 3431 531 
L 3431 0 
L 469 0 
L 469 531 
Q 828 903 1448 1529 
Q 2069 2156 2228 2338 
Q 2531 2678 2651 2914 
Q 2772 3150 2772 3378 
Q 2772 3750 2511 3984 
Q 2250 4219 1831 4219 
Q 1534 4219 1204 4116 
Q 875 4013 500 3803 
L 500 4441 
Q 881 4594 1212 4672 
Q 1544 4750 1819 4750 
Q 2544 4750 2975 4387 
Q 3406 4025 3406 3419 
Q 3406 3131 3298 2873 
Q 3191 2616 2906 2266 
Q 2828 2175 2409 1742 
Q 1991 1309 1228 531 
z
" transform="scale(0.015625)"/>
       </defs>
       <use xlink:href="#DejaVuSans-32"/>
       <use xlink:href="#DejaVuSans-30" x="63.623047"/>
      </g>
     </g>
    </g>
    <g id="xtick_3">
     <g id="line2d_3">
      <g>
       <use xlink:href="#m15514162db" x="163.888636" y="228.96" style="stroke: #000000; stroke-width: 0.8"/>
      </g>
     </g>
     <g id="text_3">
      <!-- 40 -->
      <g transform="translate(157.526136 243.558437) scale(0.1 -0.1)">
       <defs>
        <path id="DejaVuSans-34" d="M 2419 4116 
L 825 1625 
L 2419 1625 
L 2419 4116 
z
M 2253 4666 
L 3047 4666 
L 3047 1625 
L 3713 1625 
L 3713 1100 
L 3047 1100 
L 3047 0 
L 2419 0 
L 2419 1100 
L 313 1100 
L 313 1709 
L 2253 4666 
z
" transform="scale(0.015625)"/>
       </defs>
       <use xlink:href="#DejaVuSans-34"/>
       <use xlink:href="#DejaVuSans-30" x="63.623047"/>
      </g>
     </g>
    </g>
    <g id="xtick_4">
     <g id="line2d_4">
      <g>
       <use xlink:href="#m15514162db" x="224.761364" y="228.96" style="stroke: #000000; stroke-width: 0.8"/>
      </g>
     </g>
     <g id="text_4">
      <!-- 60 -->
      <g transform="translate(218.398864 243.558437) scale(0.1 -0.1)">
       <defs>
        <path id="DejaVuSans-36" d="M 2113 2584 
Q 1688 2584 1439 2293 
Q 1191 2003 1191 1497 
Q 1191 994 1439 701 
Q 1688 409 2113 409 
Q 2538 409 2786 701 
Q 3034 994 3034 1497 
Q 3034 2003 2786 2293 
Q 2538 2584 2113 2584 
z
M 3366 4563 
L 3366 3988 
Q 3128 4100 2886 4159 
Q 2644 4219 2406 4219 
Q 1781 4219 1451 3797 
Q 1122 3375 1075 2522 
Q 1259 2794 1537 2939 
Q 1816 3084 2150 3084 
Q 2853 3084 3261 2657 
Q 3669 2231 3669 1497 
Q 3669 778 3244 343 
Q 2819 -91 2113 -91 
Q 1303 -91 875 529 
Q 447 1150 447 2328 
Q 447 3434 972 4092 
Q 1497 4750 2381 4750 
Q 2619 4750 2861 4703 
Q 3103 4656 3366 4563 
z
" transform="scale(0.015625)"/>
       </defs>
       <use xlink:href="#DejaVuSans-36"/>
       <use xlink:href="#DejaVuSans-30" x="63.623047"/>
      </g>
     </g>
    </g>
    <g id="xtick_5">
     <g id="line2d_5">
      <g>
       <use xlink:href="#m15514162db" x="285.634091" y="228.96" style="stroke: #000000; stroke-width: 0.8"/>
      </g>
     </g>
     <g id="text_5">
      <!-- 80 -->
      <g transform="translate(279.271591 243.558437) scale(0.1 -0.1)">
       <defs>
        <path id="DejaVuSans-38" d="M 2034 2216 
Q 1584 2216 1326 1975 
Q 1069 1734 1069 1313 
Q 1069 891 1326 650 
Q 1584 409 2034 409 
Q 2484 409 2743 651 
Q 3003 894 3003 1313 
Q 3003 1734 2745 1975 
Q 2488 2216 2034 2216 
z
M 1403 2484 
Q 997 2584 770 2862 
Q 544 3141 544 3541 
Q 544 4100 942 4425 
Q 1341 4750 2034 4750 
Q 2731 4750 3128 4425 
Q 3525 4100 3525 3541 
Q 3525 3141 3298 2862 
Q 3072 2584 2669 2484 
Q 3125 2378 3379 2068 
Q 3634 1759 3634 1313 
Q 3634 634 3220 271 
Q 2806 -91 2034 -91 
Q 1263 -91 848 271 
Q 434 634 434 1313 
Q 434 1759 690 2068 
Q 947 2378 1403 2484 
z
M 1172 3481 
Q 1172 3119 1398 2916 
Q 1625 2713 2034 2713 
Q 2441 2713 2670 2916 
Q 2900 3119 2900 3481 
Q 2900 3844 2670 4047 
Q 2441 4250 2034 4250 
Q 1625 4250 1398 4047 
Q 1172 3844 1172 3481 
z
" transform="scale(0.015625)"/>
       </defs>
       <use xlink:href="#DejaVuSans-38"/>
       <use xlink:href="#DejaVuSans-30" x="63.623047"/>
      </g>
     </g>
    </g>
    <g id="xtick_6">
     <g id="line2d_6">
      <g>
       <use xlink:href="#m15514162db" x="346.506818" y="228.96" style="stroke: #000000; stroke-width: 0.8"/>
      </g>
     </g>
     <g id="text_6">
      <!-- 100 -->
      <g transform="translate(336.963068 243.558437) scale(0.1 -0.1)">
       <defs>
        <path id="DejaVuSans-31" d="M 794 531 
L 1825 531 
L 1825 4091 
L 703 3866 
L 703 4441 
L 1819 4666 
L 2450 4666 
L 2450 531 
L 3481 531 
L 3481 0 
L 794 0 
L 794 531 
z
" transform="scale(0.015625)"/>
       </defs>
       <use xlink:href="#DejaVuSans-31"/>
       <use xlink:href="#DejaVuSans-30" x="63.623047"/>
       <use xlink:href="#DejaVuSans-30" x="127.246094"/>
      </g>
     </g>
    </g>
   </g>
   <g id="matplotlib.axis_2">
    <g id="ytick_1">
     <g id="line2d_7">
      <defs>
       <path id="m40ffc0b0ab" d="M 0 0 
L -3.5 0 
" style="stroke: #000000; stroke-width: 0.8"/>
      </defs>
      <g>
       <use xlink:href="#m40ffc0b0ab" x="26.925" y="203.485165" style="stroke: #000000; stroke-width: 0.8"/>
      </g>
     </g>
     <g id="text_7">
      <!-- 2 -->
      <g transform="translate(13.5625 207.284383) scale(0.1 -0.1)">
       <use xlink:href="#DejaVuSans-32"/>
      </g>
     </g>
    </g>
    <g id="ytick_2">
     <g id="line2d_8">
      <g>
       <use xlink:href="#m40ffc0b0ab" x="26.925" y="172.497168" style="stroke: #000000; stroke-width: 0.8"/>
      </g>
     </g>
     <g id="text_8">
      <!-- 4 -->
      <g transform="translate(13.5625 176.296387) scale(0.1 -0.1)">
       <use xlink:href="#DejaVuSans-34"/>
      </g>
     </g>
    </g>
    <g id="ytick_3">
     <g id="line2d_9">
      <g>
       <use xlink:href="#m40ffc0b0ab" x="26.925" y="141.509172" style="stroke: #000000; stroke-width: 0.8"/>
      </g>
     </g>
     <g id="text_9">
      <!-- 6 -->
      <g transform="translate(13.5625 145.308391) scale(0.1 -0.1)">
       <use xlink:href="#DejaVuSans-36"/>
      </g>
     </g>
    </g>
    <g id="ytick_4">
     <g id="line2d_10">
      <g>
       <use xlink:href="#m40ffc0b0ab" x="26.925" y="110.521176" style="stroke: #000000; stroke-width: 0.8"/>
      </g>
     </g>
     <g id="text_10">
      <!-- 8 -->
      <g transform="translate(13.5625 114.320395) scale(0.1 -0.1)">
       <use xlink:href="#DejaVuSans-38"/>
      </g>
     </g>
    </g>
    <g id="ytick_5">
     <g id="line2d_11">
      <g>
       <use xlink:href="#m40ffc0b0ab" x="26.925" y="79.53318" style="stroke: #000000; stroke-width: 0.8"/>
      </g>
     </g>
     <g id="text_11">
      <!-- 10 -->
      <g transform="translate(7.2 83.332398) scale(0.1 -0.1)">
       <use xlink:href="#DejaVuSans-31"/>
       <use xlink:href="#DejaVuSans-30" x="63.623047"/>
      </g>
     </g>
    </g>
    <g id="ytick_6">
     <g id="line2d_12">
      <g>
       <use xlink:href="#m40ffc0b0ab" x="26.925" y="48.545183" style="stroke: #000000; stroke-width: 0.8"/>
      </g>
     </g>
     <g id="text_12">
      <!-- 12 -->
      <g transform="translate(7.2 52.344402) scale(0.1 -0.1)">
       <use xlink:href="#DejaVuSans-31"/>
       <use xlink:href="#DejaVuSans-32" x="63.623047"/>
      </g>
     </g>
    </g>
    <g id="ytick_7">
     <g id="line2d_13">
      <g>
       <use xlink:href="#m40ffc0b0ab" x="26.925" y="17.557187" style="stroke: #000000; stroke-width: 0.8"/>
      </g>
     </g>
     <g id="text_13">
      <!-- 14 -->
      <g transform="translate(7.2 21.356406) scale(0.1 -0.1)">
       <use xlink:href="#DejaVuSans-31"/>
       <use xlink:href="#DejaVuSans-34" x="63.623047"/>
      </g>
     </g>
    </g>
   </g>
   <g id="line2d_14">
    <path d="M 42.143182 218.398804 
L 45.186818 177.339449 
L 48.230455 125.924093 
L 51.274091 124.985167 
L 54.317727 124.607886 
L 57.361364 124.607886 
L 60.405 110.30794 
L 63.448636 110.30794 
L 66.492273 103.096668 
L 69.535909 103.096668 
L 72.579545 111.309621 
L 75.623182 111.309621 
L 78.666818 103.510092 
L 81.710455 103.510092 
L 84.754091 45.719777 
L 87.797727 45.719777 
L 90.841364 57.829959 
L 93.885 57.829959 
L 96.928636 55.46399 
L 99.972273 55.46399 
L 103.015909 51.96724 
L 106.059545 51.96724 
L 109.103182 51.710252 
L 112.146818 51.710252 
L 115.190455 55.205642 
L 118.234091 55.205642 
L 121.277727 55.205642 
L 124.321364 20.880405 
L 127.365 20.880405 
L 130.408636 17.28 
L 133.452273 17.28 
L 136.495909 21.929281 
L 139.539545 21.929281 
L 142.583182 25.420431 
L 145.626818 25.420431 
L 148.670455 25.038259 
L 151.714091 25.038259 
L 154.757727 25.038259 
L 157.801364 25.038259 
L 160.845 25.038259 
L 163.888636 25.038259 
L 166.932273 25.038259 
L 169.975909 25.038259 
L 173.019545 25.038259 
L 176.063182 25.038259 
L 179.106818 25.038259 
L 182.150455 25.038259 
L 185.194091 25.038259 
L 188.237727 25.038259 
L 191.281364 25.038259 
L 194.325 25.038259 
L 197.368636 25.038259 
L 200.412273 25.038259 
L 203.455909 25.038259 
L 206.499545 25.038259 
L 209.543182 25.038259 
L 212.586818 25.038259 
L 215.630455 25.038259 
L 218.674091 25.038259 
L 221.717727 25.038259 
L 224.761364 25.038259 
L 227.805 25.038259 
L 230.848636 25.038259 
L 233.892273 25.038259 
L 236.935909 25.038259 
L 239.979545 25.038259 
L 243.023182 25.038259 
L 246.066818 25.038259 
L 249.110455 25.038259 
L 252.154091 25.038259 
L 255.197727 25.038259 
L 258.241364 25.038259 
L 261.285 25.038259 
L 264.328636 25.038259 
L 267.372273 25.038259 
L 270.415909 25.038259 
L 273.459545 25.038259 
L 276.503182 25.038259 
L 279.546818 25.038259 
L 282.590455 25.038259 
L 285.634091 25.038259 
L 288.677727 25.038259 
L 291.721364 25.038259 
L 294.765 25.038259 
L 297.808636 25.038259 
L 300.852273 25.038259 
L 303.895909 25.038259 
L 306.939545 25.038259 
L 309.983182 25.038259 
L 313.026818 25.038259 
L 316.070455 25.038259 
L 319.114091 25.038259 
L 322.157727 25.038259 
L 325.201364 25.038259 
L 328.245 25.038259 
L 331.288636 25.038259 
L 334.332273 25.038259 
L 337.375909 25.038259 
L 340.419545 25.038259 
L 343.463182 25.038259 
L 346.506818 25.038259 
" clip-path="url(#pb8b8b2ebc6)" style="fill: none; stroke: #1f77b4; stroke-width: 1.5; stroke-linecap: square"/>
   </g>
   <g id="line2d_15">
    <path d="M 42.143182 213.191469 
L 45.186818 213.191469 
L 48.230455 213.628273 
L 51.274091 213.128802 
L 54.317727 212.879271 
L 57.361364 205.109345 
L 60.405 203.027313 
L 63.448636 206.392255 
L 66.492273 212.998637 
L 69.535909 212.998637 
L 72.579545 211.792753 
L 75.623182 210.283011 
L 78.666818 211.848862 
L 81.710455 211.365294 
L 84.754091 210.187779 
L 87.797727 208.026644 
L 90.841364 202.992659 
L 93.885 202.8766 
L 96.928636 209.227577 
L 99.972273 207.534617 
L 103.015909 206.888105 
L 106.059545 205.152611 
L 109.103182 205.703533 
L 112.146818 202.501547 
L 115.190455 209.793393 
L 118.234091 198.451247 
L 121.277727 203.300403 
L 124.321364 206.543175 
L 127.365 197.006809 
L 130.408636 212.244345 
L 133.452273 212.244345 
L 136.495909 208.65954 
L 139.539545 207.750056 
L 142.583182 208.541157 
L 145.626818 202.693407 
L 148.670455 202.693407 
L 151.714091 210.573359 
L 154.757727 210.573359 
L 157.801364 209.191815 
L 160.845 208.038838 
L 163.888636 202.903388 
L 166.932273 205.407221 
L 169.975909 202.398111 
L 173.019545 202.491149 
L 176.063182 205.910983 
L 179.106818 204.747996 
L 182.150455 203.302006 
L 185.194091 206.24276 
L 188.237727 204.059219 
L 191.281364 208.134247 
L 194.325 207.986995 
L 197.368636 208.00039 
L 200.412273 207.960679 
L 203.455909 208.116127 
L 206.499545 207.693782 
L 209.543182 207.693782 
L 212.586818 207.693782 
L 215.630455 207.630115 
L 218.674091 206.833634 
L 221.717727 206.833634 
L 224.761364 206.833634 
L 227.805 204.882804 
L 230.848636 202.578625 
L 233.892273 204.209255 
L 236.935909 203.812154 
L 239.979545 200.508283 
L 243.023182 205.809873 
L 246.066818 204.753161 
L 249.110455 204.753161 
L 252.154091 202.61774 
L 255.197727 202.960188 
L 258.241364 202.960188 
L 261.285 203.188094 
L 264.328636 204.777886 
L 267.372273 205.529251 
L 270.415909 206.839701 
L 273.459545 204.079745 
L 276.503182 204.886016 
L 279.546818 203.680952 
L 282.590455 205.767124 
L 285.634091 206.053161 
L 288.677727 205.16133 
L 291.721364 204.734186 
L 294.765 203.304076 
L 297.808636 203.250384 
L 300.852273 203.250384 
L 303.895909 203.772735 
L 306.939545 203.772735 
L 309.983182 205.478987 
L 313.026818 205.28242 
L 316.070455 205.187406 
L 319.114091 204.422442 
L 322.157727 202.690388 
L 325.201364 202.690388 
L 328.245 202.690388 
L 331.288636 205.561596 
L 334.332273 196.874314 
L 337.375909 196.874314 
L 340.419545 197.117386 
L 343.463182 201.718963 
L 346.506818 201.923345 
" clip-path="url(#pb8b8b2ebc6)" style="fill: none; stroke: #ff7f0e; stroke-width: 1.5; stroke-linecap: square"/>
   </g>
   <g id="line2d_16">
    <path d="M 42.143182 217.025669 
L 45.186818 217.22696 
L 48.230455 217.218454 
L 51.274091 216.047519 
L 54.317727 214.104478 
L 57.361364 212.992919 
L 60.405 214.331115 
L 63.448636 216.568978 
L 66.492273 216.764668 
L 69.535909 216.246463 
L 72.579545 216.52935 
L 75.623182 217.875165 
L 78.666818 217.444012 
L 81.710455 217.055575 
L 84.754091 217.29996 
L 87.797727 217.29996 
L 90.841364 214.906349 
L 93.885 214.908658 
L 96.928636 217.848319 
L 99.972273 217.43052 
L 103.015909 218.477573 
L 106.059545 217.202452 
L 109.103182 217.641011 
L 112.146818 218.570273 
L 115.190455 217.9993 
L 118.234091 218.022808 
L 121.277727 218.022808 
L 124.321364 217.475419 
L 127.365 217.475419 
L 130.408636 216.116797 
L 133.452273 216.045276 
L 136.495909 217.146926 
L 139.539545 216.701834 
L 142.583182 216.943219 
L 145.626818 217.469546 
L 148.670455 216.922029 
L 151.714091 217.398849 
L 154.757727 217.197975 
L 157.801364 217.709417 
L 160.845 218.267839 
L 163.888636 216.660586 
L 166.932273 216.839677 
L 169.975909 217.199777 
L 173.019545 217.199777 
L 176.063182 217.927935 
L 179.106818 217.927935 
L 182.150455 218.88 
L 185.194091 218.714007 
L 188.237727 217.973184 
L 191.281364 217.87483 
L 194.325 217.87483 
L 197.368636 217.87483 
L 200.412273 217.87483 
L 203.455909 217.87483 
L 206.499545 216.759109 
L 209.543182 216.759109 
L 212.586818 216.759109 
L 215.630455 216.759109 
L 218.674091 216.759109 
L 221.717727 214.811599 
L 224.761364 215.146157 
L 227.805 214.343404 
L 230.848636 215.388596 
L 233.892273 215.952509 
L 236.935909 215.952509 
L 239.979545 216.261422 
L 243.023182 217.393517 
L 246.066818 216.977936 
L 249.110455 217.088688 
L 252.154091 217.088688 
L 255.197727 217.088688 
L 258.241364 217.088688 
L 261.285 216.315187 
L 264.328636 216.315187 
L 267.372273 216.528374 
L 270.415909 217.601126 
L 273.459545 217.163379 
L 276.503182 217.163379 
L 279.546818 217.014295 
L 282.590455 216.915909 
L 285.634091 217.412592 
L 288.677727 217.3604 
L 291.721364 217.078748 
L 294.765 217.078748 
L 297.808636 217.078748 
L 300.852273 217.078748 
L 303.895909 217.078748 
L 306.939545 217.078748 
L 309.983182 217.078748 
L 313.026818 217.078748 
L 316.070455 217.078748 
L 319.114091 217.078748 
L 322.157727 217.078748 
L 325.201364 217.078748 
L 328.245 217.10905 
L 331.288636 217.052099 
L 334.332273 217.203317 
L 337.375909 217.203317 
L 340.419545 217.203317 
L 343.463182 217.203317 
L 346.506818 217.473572 
" clip-path="url(#pb8b8b2ebc6)" style="fill: none; stroke: #2ca02c; stroke-width: 1.5; stroke-linecap: square"/>
   </g>
   <g id="patch_3">
    <path d="M 26.925 228.96 
L 26.925 7.2 
" style="fill: none; stroke: #000000; stroke-width: 0.8; stroke-linejoin: miter; stroke-linecap: square"/>
   </g>
   <g id="patch_4">
    <path d="M 361.725 228.96 
L 361.725 7.2 
" style="fill: none; stroke: #000000; stroke-width: 0.8; stroke-linejoin: miter; stroke-linecap: square"/>
   </g>
   <g id="patch_5">
    <path d="M 26.925 228.96 
L 361.725 228.96 
" style="fill: none; stroke: #000000; stroke-width: 0.8; stroke-linejoin: miter; stroke-linecap: square"/>
   </g>
   <g id="patch_6">
    <path d="M 26.925 7.2 
L 361.725 7.2 
" style="fill: none; stroke: #000000; stroke-width: 0.8; stroke-linejoin: miter; stroke-linecap: square"/>
   </g>
   <g id="legend_1">
    <g id="patch_7">
     <path d="M 177.907813 141.597187 
L 354.725 141.597187 
Q 356.725 141.597187 356.725 139.597187 
L 356.725 96.562812 
Q 356.725 94.562812 354.725 94.562812 
L 177.907813 94.562812 
Q 175.907813 94.562812 175.907813 96.562812 
L 175.907813 139.597187 
Q 175.907813 141.597187 177.907813 141.597187 
z
" style="fill: #ffffff; opacity: 0.8; stroke: #cccccc; stroke-linejoin: miter"/>
    </g>
    <g id="line2d_17">
     <path d="M 179.907813 102.66125 
L 189.907813 102.66125 
L 199.907813 102.66125 
" style="fill: none; stroke: #1f77b4; stroke-width: 1.5; stroke-linecap: square"/>
    </g>
    <g id="text_14">
     <!-- PSO node storage proportion -->
     <g transform="translate(207.907813 106.16125) scale(0.1 -0.1)">
      <defs>
       <path id="DejaVuSans-50" d="M 1259 4147 
L 1259 2394 
L 2053 2394 
Q 2494 2394 2734 2622 
Q 2975 2850 2975 3272 
Q 2975 3691 2734 3919 
Q 2494 4147 2053 4147 
L 1259 4147 
z
M 628 4666 
L 2053 4666 
Q 2838 4666 3239 4311 
Q 3641 3956 3641 3272 
Q 3641 2581 3239 2228 
Q 2838 1875 2053 1875 
L 1259 1875 
L 1259 0 
L 628 0 
L 628 4666 
z
" transform="scale(0.015625)"/>
       <path id="DejaVuSans-53" d="M 3425 4513 
L 3425 3897 
Q 3066 4069 2747 4153 
Q 2428 4238 2131 4238 
Q 1616 4238 1336 4038 
Q 1056 3838 1056 3469 
Q 1056 3159 1242 3001 
Q 1428 2844 1947 2747 
L 2328 2669 
Q 3034 2534 3370 2195 
Q 3706 1856 3706 1288 
Q 3706 609 3251 259 
Q 2797 -91 1919 -91 
Q 1588 -91 1214 -16 
Q 841 59 441 206 
L 441 856 
Q 825 641 1194 531 
Q 1563 422 1919 422 
Q 2459 422 2753 634 
Q 3047 847 3047 1241 
Q 3047 1584 2836 1778 
Q 2625 1972 2144 2069 
L 1759 2144 
Q 1053 2284 737 2584 
Q 422 2884 422 3419 
Q 422 4038 858 4394 
Q 1294 4750 2059 4750 
Q 2388 4750 2728 4690 
Q 3069 4631 3425 4513 
z
" transform="scale(0.015625)"/>
       <path id="DejaVuSans-4f" d="M 2522 4238 
Q 1834 4238 1429 3725 
Q 1025 3213 1025 2328 
Q 1025 1447 1429 934 
Q 1834 422 2522 422 
Q 3209 422 3611 934 
Q 4013 1447 4013 2328 
Q 4013 3213 3611 3725 
Q 3209 4238 2522 4238 
z
M 2522 4750 
Q 3503 4750 4090 4092 
Q 4678 3434 4678 2328 
Q 4678 1225 4090 567 
Q 3503 -91 2522 -91 
Q 1538 -91 948 565 
Q 359 1222 359 2328 
Q 359 3434 948 4092 
Q 1538 4750 2522 4750 
z
" transform="scale(0.015625)"/>
       <path id="DejaVuSans-20" transform="scale(0.015625)"/>
       <path id="DejaVuSans-6e" d="M 3513 2113 
L 3513 0 
L 2938 0 
L 2938 2094 
Q 2938 2591 2744 2837 
Q 2550 3084 2163 3084 
Q 1697 3084 1428 2787 
Q 1159 2491 1159 1978 
L 1159 0 
L 581 0 
L 581 3500 
L 1159 3500 
L 1159 2956 
Q 1366 3272 1645 3428 
Q 1925 3584 2291 3584 
Q 2894 3584 3203 3211 
Q 3513 2838 3513 2113 
z
" transform="scale(0.015625)"/>
       <path id="DejaVuSans-6f" d="M 1959 3097 
Q 1497 3097 1228 2736 
Q 959 2375 959 1747 
Q 959 1119 1226 758 
Q 1494 397 1959 397 
Q 2419 397 2687 759 
Q 2956 1122 2956 1747 
Q 2956 2369 2687 2733 
Q 2419 3097 1959 3097 
z
M 1959 3584 
Q 2709 3584 3137 3096 
Q 3566 2609 3566 1747 
Q 3566 888 3137 398 
Q 2709 -91 1959 -91 
Q 1206 -91 779 398 
Q 353 888 353 1747 
Q 353 2609 779 3096 
Q 1206 3584 1959 3584 
z
" transform="scale(0.015625)"/>
       <path id="DejaVuSans-64" d="M 2906 2969 
L 2906 4863 
L 3481 4863 
L 3481 0 
L 2906 0 
L 2906 525 
Q 2725 213 2448 61 
Q 2172 -91 1784 -91 
Q 1150 -91 751 415 
Q 353 922 353 1747 
Q 353 2572 751 3078 
Q 1150 3584 1784 3584 
Q 2172 3584 2448 3432 
Q 2725 3281 2906 2969 
z
M 947 1747 
Q 947 1113 1208 752 
Q 1469 391 1925 391 
Q 2381 391 2643 752 
Q 2906 1113 2906 1747 
Q 2906 2381 2643 2742 
Q 2381 3103 1925 3103 
Q 1469 3103 1208 2742 
Q 947 2381 947 1747 
z
" transform="scale(0.015625)"/>
       <path id="DejaVuSans-65" d="M 3597 1894 
L 3597 1613 
L 953 1613 
Q 991 1019 1311 708 
Q 1631 397 2203 397 
Q 2534 397 2845 478 
Q 3156 559 3463 722 
L 3463 178 
Q 3153 47 2828 -22 
Q 2503 -91 2169 -91 
Q 1331 -91 842 396 
Q 353 884 353 1716 
Q 353 2575 817 3079 
Q 1281 3584 2069 3584 
Q 2775 3584 3186 3129 
Q 3597 2675 3597 1894 
z
M 3022 2063 
Q 3016 2534 2758 2815 
Q 2500 3097 2075 3097 
Q 1594 3097 1305 2825 
Q 1016 2553 972 2059 
L 3022 2063 
z
" transform="scale(0.015625)"/>
       <path id="DejaVuSans-73" d="M 2834 3397 
L 2834 2853 
Q 2591 2978 2328 3040 
Q 2066 3103 1784 3103 
Q 1356 3103 1142 2972 
Q 928 2841 928 2578 
Q 928 2378 1081 2264 
Q 1234 2150 1697 2047 
L 1894 2003 
Q 2506 1872 2764 1633 
Q 3022 1394 3022 966 
Q 3022 478 2636 193 
Q 2250 -91 1575 -91 
Q 1294 -91 989 -36 
Q 684 19 347 128 
L 347 722 
Q 666 556 975 473 
Q 1284 391 1588 391 
Q 1994 391 2212 530 
Q 2431 669 2431 922 
Q 2431 1156 2273 1281 
Q 2116 1406 1581 1522 
L 1381 1569 
Q 847 1681 609 1914 
Q 372 2147 372 2553 
Q 372 3047 722 3315 
Q 1072 3584 1716 3584 
Q 2034 3584 2315 3537 
Q 2597 3491 2834 3397 
z
" transform="scale(0.015625)"/>
       <path id="DejaVuSans-74" d="M 1172 4494 
L 1172 3500 
L 2356 3500 
L 2356 3053 
L 1172 3053 
L 1172 1153 
Q 1172 725 1289 603 
Q 1406 481 1766 481 
L 2356 481 
L 2356 0 
L 1766 0 
Q 1100 0 847 248 
Q 594 497 594 1153 
L 594 3053 
L 172 3053 
L 172 3500 
L 594 3500 
L 594 4494 
L 1172 4494 
z
" transform="scale(0.015625)"/>
       <path id="DejaVuSans-72" d="M 2631 2963 
Q 2534 3019 2420 3045 
Q 2306 3072 2169 3072 
Q 1681 3072 1420 2755 
Q 1159 2438 1159 1844 
L 1159 0 
L 581 0 
L 581 3500 
L 1159 3500 
L 1159 2956 
Q 1341 3275 1631 3429 
Q 1922 3584 2338 3584 
Q 2397 3584 2469 3576 
Q 2541 3569 2628 3553 
L 2631 2963 
z
" transform="scale(0.015625)"/>
       <path id="DejaVuSans-61" d="M 2194 1759 
Q 1497 1759 1228 1600 
Q 959 1441 959 1056 
Q 959 750 1161 570 
Q 1363 391 1709 391 
Q 2188 391 2477 730 
Q 2766 1069 2766 1631 
L 2766 1759 
L 2194 1759 
z
M 3341 1997 
L 3341 0 
L 2766 0 
L 2766 531 
Q 2569 213 2275 61 
Q 1981 -91 1556 -91 
Q 1019 -91 701 211 
Q 384 513 384 1019 
Q 384 1609 779 1909 
Q 1175 2209 1959 2209 
L 2766 2209 
L 2766 2266 
Q 2766 2663 2505 2880 
Q 2244 3097 1772 3097 
Q 1472 3097 1187 3025 
Q 903 2953 641 2809 
L 641 3341 
Q 956 3463 1253 3523 
Q 1550 3584 1831 3584 
Q 2591 3584 2966 3190 
Q 3341 2797 3341 1997 
z
" transform="scale(0.015625)"/>
       <path id="DejaVuSans-67" d="M 2906 1791 
Q 2906 2416 2648 2759 
Q 2391 3103 1925 3103 
Q 1463 3103 1205 2759 
Q 947 2416 947 1791 
Q 947 1169 1205 825 
Q 1463 481 1925 481 
Q 2391 481 2648 825 
Q 2906 1169 2906 1791 
z
M 3481 434 
Q 3481 -459 3084 -895 
Q 2688 -1331 1869 -1331 
Q 1566 -1331 1297 -1286 
Q 1028 -1241 775 -1147 
L 775 -588 
Q 1028 -725 1275 -790 
Q 1522 -856 1778 -856 
Q 2344 -856 2625 -561 
Q 2906 -266 2906 331 
L 2906 616 
Q 2728 306 2450 153 
Q 2172 0 1784 0 
Q 1141 0 747 490 
Q 353 981 353 1791 
Q 353 2603 747 3093 
Q 1141 3584 1784 3584 
Q 2172 3584 2450 3431 
Q 2728 3278 2906 2969 
L 2906 3500 
L 3481 3500 
L 3481 434 
z
" transform="scale(0.015625)"/>
       <path id="DejaVuSans-70" d="M 1159 525 
L 1159 -1331 
L 581 -1331 
L 581 3500 
L 1159 3500 
L 1159 2969 
Q 1341 3281 1617 3432 
Q 1894 3584 2278 3584 
Q 2916 3584 3314 3078 
Q 3713 2572 3713 1747 
Q 3713 922 3314 415 
Q 2916 -91 2278 -91 
Q 1894 -91 1617 61 
Q 1341 213 1159 525 
z
M 3116 1747 
Q 3116 2381 2855 2742 
Q 2594 3103 2138 3103 
Q 1681 3103 1420 2742 
Q 1159 2381 1159 1747 
Q 1159 1113 1420 752 
Q 1681 391 2138 391 
Q 2594 391 2855 752 
Q 3116 1113 3116 1747 
z
" transform="scale(0.015625)"/>
       <path id="DejaVuSans-69" d="M 603 3500 
L 1178 3500 
L 1178 0 
L 603 0 
L 603 3500 
z
M 603 4863 
L 1178 4863 
L 1178 4134 
L 603 4134 
L 603 4863 
z
" transform="scale(0.015625)"/>
      </defs>
      <use xlink:href="#DejaVuSans-50"/>
      <use xlink:href="#DejaVuSans-53" x="60.302734"/>
      <use xlink:href="#DejaVuSans-4f" x="123.779297"/>
      <use xlink:href="#DejaVuSans-20" x="202.490234"/>
      <use xlink:href="#DejaVuSans-6e" x="234.277344"/>
      <use xlink:href="#DejaVuSans-6f" x="297.65625"/>
      <use xlink:href="#DejaVuSans-64" x="358.837891"/>
      <use xlink:href="#DejaVuSans-65" x="422.314453"/>
      <use xlink:href="#DejaVuSans-20" x="483.837891"/>
      <use xlink:href="#DejaVuSans-73" x="515.625"/>
      <use xlink:href="#DejaVuSans-74" x="567.724609"/>
      <use xlink:href="#DejaVuSans-6f" x="606.933594"/>
      <use xlink:href="#DejaVuSans-72" x="668.115234"/>
      <use xlink:href="#DejaVuSans-61" x="709.228516"/>
      <use xlink:href="#DejaVuSans-67" x="770.507812"/>
      <use xlink:href="#DejaVuSans-65" x="833.984375"/>
      <use xlink:href="#DejaVuSans-20" x="895.507812"/>
      <use xlink:href="#DejaVuSans-70" x="927.294922"/>
      <use xlink:href="#DejaVuSans-72" x="990.771484"/>
      <use xlink:href="#DejaVuSans-6f" x="1029.634766"/>
      <use xlink:href="#DejaVuSans-70" x="1090.816406"/>
      <use xlink:href="#DejaVuSans-6f" x="1154.292969"/>
      <use xlink:href="#DejaVuSans-72" x="1215.474609"/>
      <use xlink:href="#DejaVuSans-74" x="1256.587891"/>
      <use xlink:href="#DejaVuSans-69" x="1295.796875"/>
      <use xlink:href="#DejaVuSans-6f" x="1323.580078"/>
      <use xlink:href="#DejaVuSans-6e" x="1384.761719"/>
     </g>
    </g>
    <g id="line2d_18">
     <path d="M 179.907813 117.339375 
L 189.907813 117.339375 
L 199.907813 117.339375 
" style="fill: none; stroke: #ff7f0e; stroke-width: 1.5; stroke-linecap: square"/>
    </g>
    <g id="text_15">
     <!-- GA node storage proportion -->
     <g transform="translate(207.907813 120.839375) scale(0.1 -0.1)">
      <defs>
       <path id="DejaVuSans-47" d="M 3809 666 
L 3809 1919 
L 2778 1919 
L 2778 2438 
L 4434 2438 
L 4434 434 
Q 4069 175 3628 42 
Q 3188 -91 2688 -91 
Q 1594 -91 976 548 
Q 359 1188 359 2328 
Q 359 3472 976 4111 
Q 1594 4750 2688 4750 
Q 3144 4750 3555 4637 
Q 3966 4525 4313 4306 
L 4313 3634 
Q 3963 3931 3569 4081 
Q 3175 4231 2741 4231 
Q 1884 4231 1454 3753 
Q 1025 3275 1025 2328 
Q 1025 1384 1454 906 
Q 1884 428 2741 428 
Q 3075 428 3337 486 
Q 3600 544 3809 666 
z
" transform="scale(0.015625)"/>
       <path id="DejaVuSans-41" d="M 2188 4044 
L 1331 1722 
L 3047 1722 
L 2188 4044 
z
M 1831 4666 
L 2547 4666 
L 4325 0 
L 3669 0 
L 3244 1197 
L 1141 1197 
L 716 0 
L 50 0 
L 1831 4666 
z
" transform="scale(0.015625)"/>
      </defs>
      <use xlink:href="#DejaVuSans-47"/>
      <use xlink:href="#DejaVuSans-41" x="77.490234"/>
      <use xlink:href="#DejaVuSans-20" x="145.898438"/>
      <use xlink:href="#DejaVuSans-6e" x="177.685547"/>
      <use xlink:href="#DejaVuSans-6f" x="241.064453"/>
      <use xlink:href="#DejaVuSans-64" x="302.246094"/>
      <use xlink:href="#DejaVuSans-65" x="365.722656"/>
      <use xlink:href="#DejaVuSans-20" x="427.246094"/>
      <use xlink:href="#DejaVuSans-73" x="459.033203"/>
      <use xlink:href="#DejaVuSans-74" x="511.132812"/>
      <use xlink:href="#DejaVuSans-6f" x="550.341797"/>
      <use xlink:href="#DejaVuSans-72" x="611.523438"/>
      <use xlink:href="#DejaVuSans-61" x="652.636719"/>
      <use xlink:href="#DejaVuSans-67" x="713.916016"/>
      <use xlink:href="#DejaVuSans-65" x="777.392578"/>
      <use xlink:href="#DejaVuSans-20" x="838.916016"/>
      <use xlink:href="#DejaVuSans-70" x="870.703125"/>
      <use xlink:href="#DejaVuSans-72" x="934.179688"/>
      <use xlink:href="#DejaVuSans-6f" x="973.042969"/>
      <use xlink:href="#DejaVuSans-70" x="1034.224609"/>
      <use xlink:href="#DejaVuSans-6f" x="1097.701172"/>
      <use xlink:href="#DejaVuSans-72" x="1158.882812"/>
      <use xlink:href="#DejaVuSans-74" x="1199.996094"/>
      <use xlink:href="#DejaVuSans-69" x="1239.205078"/>
      <use xlink:href="#DejaVuSans-6f" x="1266.988281"/>
      <use xlink:href="#DejaVuSans-6e" x="1328.169922"/>
     </g>
    </g>
    <g id="line2d_19">
     <path d="M 179.907813 132.0175 
L 189.907813 132.0175 
L 199.907813 132.0175 
" style="fill: none; stroke: #2ca02c; stroke-width: 1.5; stroke-linecap: square"/>
    </g>
    <g id="text_16">
     <!-- CA node storage proportion -->
     <g transform="translate(207.907813 135.5175) scale(0.1 -0.1)">
      <defs>
       <path id="DejaVuSans-43" d="M 4122 4306 
L 4122 3641 
Q 3803 3938 3442 4084 
Q 3081 4231 2675 4231 
Q 1875 4231 1450 3742 
Q 1025 3253 1025 2328 
Q 1025 1406 1450 917 
Q 1875 428 2675 428 
Q 3081 428 3442 575 
Q 3803 722 4122 1019 
L 4122 359 
Q 3791 134 3420 21 
Q 3050 -91 2638 -91 
Q 1578 -91 968 557 
Q 359 1206 359 2328 
Q 359 3453 968 4101 
Q 1578 4750 2638 4750 
Q 3056 4750 3426 4639 
Q 3797 4528 4122 4306 
z
" transform="scale(0.015625)"/>
      </defs>
      <use xlink:href="#DejaVuSans-43"/>
      <use xlink:href="#DejaVuSans-41" x="69.824219"/>
      <use xlink:href="#DejaVuSans-20" x="138.232422"/>
      <use xlink:href="#DejaVuSans-6e" x="170.019531"/>
      <use xlink:href="#DejaVuSans-6f" x="233.398438"/>
      <use xlink:href="#DejaVuSans-64" x="294.580078"/>
      <use xlink:href="#DejaVuSans-65" x="358.056641"/>
      <use xlink:href="#DejaVuSans-20" x="419.580078"/>
      <use xlink:href="#DejaVuSans-73" x="451.367188"/>
      <use xlink:href="#DejaVuSans-74" x="503.466797"/>
      <use xlink:href="#DejaVuSans-6f" x="542.675781"/>
      <use xlink:href="#DejaVuSans-72" x="603.857422"/>
      <use xlink:href="#DejaVuSans-61" x="644.970703"/>
      <use xlink:href="#DejaVuSans-67" x="706.25"/>
      <use xlink:href="#DejaVuSans-65" x="769.726562"/>
      <use xlink:href="#DejaVuSans-20" x="831.25"/>
      <use xlink:href="#DejaVuSans-70" x="863.037109"/>
      <use xlink:href="#DejaVuSans-72" x="926.513672"/>
      <use xlink:href="#DejaVuSans-6f" x="965.376953"/>
      <use xlink:href="#DejaVuSans-70" x="1026.558594"/>
      <use xlink:href="#DejaVuSans-6f" x="1090.035156"/>
      <use xlink:href="#DejaVuSans-72" x="1151.216797"/>
      <use xlink:href="#DejaVuSans-74" x="1192.330078"/>
      <use xlink:href="#DejaVuSans-69" x="1231.539062"/>
      <use xlink:href="#DejaVuSans-6f" x="1259.322266"/>
      <use xlink:href="#DejaVuSans-6e" x="1320.503906"/>
     </g>
    </g>
   </g>
  </g>
 </g>
 <defs>
  <clipPath id="pb8b8b2ebc6">
   <rect x="26.925" y="7.2" width="334.8" height="221.76"/>
  </clipPath>
 </defs>
</svg>
