<?xml version="1.0" encoding="utf-8" standalone="no"?>
<!DOCTYPE svg PUBLIC "-//W3C//DTD SVG 1.1//EN"
  "http://www.w3.org/Graphics/SVG/1.1/DTD/svg11.dtd">
<svg xmlns:xlink="http://www.w3.org/1999/xlink" width="378.465625pt" height="252.838125pt" viewBox="0 0 378.465625 252.838125" xmlns="http://www.w3.org/2000/svg" version="1.1">
 <metadata>
  <rdf:RDF xmlns:dc="http://purl.org/dc/elements/1.1/" xmlns:cc="http://creativecommons.org/ns#" xmlns:rdf="http://www.w3.org/1999/02/22-rdf-syntax-ns#">
   <cc:Work>
    <dc:type rdf:resource="http://purl.org/dc/dcmitype/StillImage"/>
    <dc:date>2023-04-19T15:43:11.204979</dc:date>
    <dc:format>image/svg+xml</dc:format>
    <dc:creator>
     <cc:Agent>
      <dc:title>Matplotlib v3.6.2, https://matplotlib.org/</dc:title>
     </cc:Agent>
    </dc:creator>
   </cc:Work>
  </rdf:RDF>
 </metadata>
 <defs>
  <style type="text/css">*{stroke-linejoin: round; stroke-linecap: butt}</style>
 </defs>
 <g id="figure_1">
  <g id="patch_1">
   <path d="M 0 252.838125 
L 378.465625 252.838125 
L 378.465625 0 
L 0 0 
z
" style="fill: #ffffff"/>
  </g>
  <g id="axes_1">
   <g id="patch_2">
    <path d="M 36.465625 228.96 
L 371.265625 228.96 
L 371.265625 7.2 
L 36.465625 7.2 
z
" style="fill: #ffffff"/>
   </g>
   <g id="matplotlib.axis_1">
    <g id="xtick_1">
     <g id="line2d_1">
      <defs>
       <path id="mccd66a7ab2" d="M 0 0 
L 0 3.5 
" style="stroke: #000000; stroke-width: 0.8"/>
      </defs>
      <g>
       <use xlink:href="#mccd66a7ab2" x="41.04931" y="228.96" style="stroke: #000000; stroke-width: 0.8"/>
      </g>
     </g>
     <g id="text_1">
      <!-- 0 -->
      <g transform="translate(37.86806 243.558437) scale(0.1 -0.1)">
       <defs>
        <path id="DejaVuSans-30" d="M 2034 4250 
Q 1547 4250 1301 3770 
Q 1056 3291 1056 2328 
Q 1056 1369 1301 889 
Q 1547 409 2034 409 
Q 2525 409 2770 889 
Q 3016 1369 3016 2328 
Q 3016 3291 2770 3770 
Q 2525 4250 2034 4250 
z
M 2034 4750 
Q 2819 4750 3233 4129 
Q 3647 3509 3647 2328 
Q 3647 1150 3233 529 
Q 2819 -91 2034 -91 
Q 1250 -91 836 529 
Q 422 1150 422 2328 
Q 422 3509 836 4129 
Q 1250 4750 2034 4750 
z
" transform="scale(0.015625)"/>
       </defs>
       <use xlink:href="#DejaVuSans-30"/>
      </g>
     </g>
    </g>
    <g id="xtick_2">
     <g id="line2d_2">
      <g>
       <use xlink:href="#mccd66a7ab2" x="85.772775" y="228.96" style="stroke: #000000; stroke-width: 0.8"/>
      </g>
     </g>
     <g id="text_2">
      <!-- 5 -->
      <g transform="translate(82.591525 243.558437) scale(0.1 -0.1)">
       <defs>
        <path id="DejaVuSans-35" d="M 691 4666 
L 3169 4666 
L 3169 4134 
L 1269 4134 
L 1269 2991 
Q 1406 3038 1543 3061 
Q 1681 3084 1819 3084 
Q 2600 3084 3056 2656 
Q 3513 2228 3513 1497 
Q 3513 744 3044 326 
Q 2575 -91 1722 -91 
Q 1428 -91 1123 -41 
Q 819 9 494 109 
L 494 744 
Q 775 591 1075 516 
Q 1375 441 1709 441 
Q 2250 441 2565 725 
Q 2881 1009 2881 1497 
Q 2881 1984 2565 2268 
Q 2250 2553 1709 2553 
Q 1456 2553 1204 2497 
Q 953 2441 691 2322 
L 691 4666 
z
" transform="scale(0.015625)"/>
       </defs>
       <use xlink:href="#DejaVuSans-35"/>
      </g>
     </g>
    </g>
    <g id="xtick_3">
     <g id="line2d_3">
      <g>
       <use xlink:href="#mccd66a7ab2" x="130.49624" y="228.96" style="stroke: #000000; stroke-width: 0.8"/>
      </g>
     </g>
     <g id="text_3">
      <!-- 10 -->
      <g transform="translate(124.13374 243.558437) scale(0.1 -0.1)">
       <defs>
        <path id="DejaVuSans-31" d="M 794 531 
L 1825 531 
L 1825 4091 
L 703 3866 
L 703 4441 
L 1819 4666 
L 2450 4666 
L 2450 531 
L 3481 531 
L 3481 0 
L 794 0 
L 794 531 
z
" transform="scale(0.015625)"/>
       </defs>
       <use xlink:href="#DejaVuSans-31"/>
       <use xlink:href="#DejaVuSans-30" x="63.623047"/>
      </g>
     </g>
    </g>
    <g id="xtick_4">
     <g id="line2d_4">
      <g>
       <use xlink:href="#mccd66a7ab2" x="175.219705" y="228.96" style="stroke: #000000; stroke-width: 0.8"/>
      </g>
     </g>
     <g id="text_4">
      <!-- 15 -->
      <g transform="translate(168.857205 243.558437) scale(0.1 -0.1)">
       <use xlink:href="#DejaVuSans-31"/>
       <use xlink:href="#DejaVuSans-35" x="63.623047"/>
      </g>
     </g>
    </g>
    <g id="xtick_5">
     <g id="line2d_5">
      <g>
       <use xlink:href="#mccd66a7ab2" x="219.94317" y="228.96" style="stroke: #000000; stroke-width: 0.8"/>
      </g>
     </g>
     <g id="text_5">
      <!-- 20 -->
      <g transform="translate(213.58067 243.558437) scale(0.1 -0.1)">
       <defs>
        <path id="DejaVuSans-32" d="M 1228 531 
L 3431 531 
L 3431 0 
L 469 0 
L 469 531 
Q 828 903 1448 1529 
Q 2069 2156 2228 2338 
Q 2531 2678 2651 2914 
Q 2772 3150 2772 3378 
Q 2772 3750 2511 3984 
Q 2250 4219 1831 4219 
Q 1534 4219 1204 4116 
Q 875 4013 500 3803 
L 500 4441 
Q 881 4594 1212 4672 
Q 1544 4750 1819 4750 
Q 2544 4750 2975 4387 
Q 3406 4025 3406 3419 
Q 3406 3131 3298 2873 
Q 3191 2616 2906 2266 
Q 2828 2175 2409 1742 
Q 1991 1309 1228 531 
z
" transform="scale(0.015625)"/>
       </defs>
       <use xlink:href="#DejaVuSans-32"/>
       <use xlink:href="#DejaVuSans-30" x="63.623047"/>
      </g>
     </g>
    </g>
    <g id="xtick_6">
     <g id="line2d_6">
      <g>
       <use xlink:href="#mccd66a7ab2" x="264.666635" y="228.96" style="stroke: #000000; stroke-width: 0.8"/>
      </g>
     </g>
     <g id="text_6">
      <!-- 25 -->
      <g transform="translate(258.304135 243.558437) scale(0.1 -0.1)">
       <use xlink:href="#DejaVuSans-32"/>
       <use xlink:href="#DejaVuSans-35" x="63.623047"/>
      </g>
     </g>
    </g>
    <g id="xtick_7">
     <g id="line2d_7">
      <g>
       <use xlink:href="#mccd66a7ab2" x="309.3901" y="228.96" style="stroke: #000000; stroke-width: 0.8"/>
      </g>
     </g>
     <g id="text_7">
      <!-- 30 -->
      <g transform="translate(303.0276 243.558437) scale(0.1 -0.1)">
       <defs>
        <path id="DejaVuSans-33" d="M 2597 2516 
Q 3050 2419 3304 2112 
Q 3559 1806 3559 1356 
Q 3559 666 3084 287 
Q 2609 -91 1734 -91 
Q 1441 -91 1130 -33 
Q 819 25 488 141 
L 488 750 
Q 750 597 1062 519 
Q 1375 441 1716 441 
Q 2309 441 2620 675 
Q 2931 909 2931 1356 
Q 2931 1769 2642 2001 
Q 2353 2234 1838 2234 
L 1294 2234 
L 1294 2753 
L 1863 2753 
Q 2328 2753 2575 2939 
Q 2822 3125 2822 3475 
Q 2822 3834 2567 4026 
Q 2313 4219 1838 4219 
Q 1578 4219 1281 4162 
Q 984 4106 628 3988 
L 628 4550 
Q 988 4650 1302 4700 
Q 1616 4750 1894 4750 
Q 2613 4750 3031 4423 
Q 3450 4097 3450 3541 
Q 3450 3153 3228 2886 
Q 3006 2619 2597 2516 
z
" transform="scale(0.015625)"/>
       </defs>
       <use xlink:href="#DejaVuSans-33"/>
       <use xlink:href="#DejaVuSans-30" x="63.623047"/>
      </g>
     </g>
    </g>
    <g id="xtick_8">
     <g id="line2d_8">
      <g>
       <use xlink:href="#mccd66a7ab2" x="354.113565" y="228.96" style="stroke: #000000; stroke-width: 0.8"/>
      </g>
     </g>
     <g id="text_8">
      <!-- 35 -->
      <g transform="translate(347.751065 243.558437) scale(0.1 -0.1)">
       <use xlink:href="#DejaVuSans-33"/>
       <use xlink:href="#DejaVuSans-35" x="63.623047"/>
      </g>
     </g>
    </g>
   </g>
   <g id="matplotlib.axis_2">
    <g id="ytick_1">
     <g id="line2d_9">
      <defs>
       <path id="m5cca4b6b8b" d="M 0 0 
L -3.5 0 
" style="stroke: #000000; stroke-width: 0.8"/>
      </defs>
      <g>
       <use xlink:href="#m5cca4b6b8b" x="36.465625" y="206.906829" style="stroke: #000000; stroke-width: 0.8"/>
      </g>
     </g>
     <g id="text_9">
      <!-- 72.5 -->
      <g transform="translate(7.2 210.706048) scale(0.1 -0.1)">
       <defs>
        <path id="DejaVuSans-37" d="M 525 4666 
L 3525 4666 
L 3525 4397 
L 1831 0 
L 1172 0 
L 2766 4134 
L 525 4134 
L 525 4666 
z
" transform="scale(0.015625)"/>
        <path id="DejaVuSans-2e" d="M 684 794 
L 1344 794 
L 1344 0 
L 684 0 
L 684 794 
z
" transform="scale(0.015625)"/>
       </defs>
       <use xlink:href="#DejaVuSans-37"/>
       <use xlink:href="#DejaVuSans-32" x="63.623047"/>
       <use xlink:href="#DejaVuSans-2e" x="127.246094"/>
       <use xlink:href="#DejaVuSans-35" x="159.033203"/>
      </g>
     </g>
    </g>
    <g id="ytick_2">
     <g id="line2d_10">
      <g>
       <use xlink:href="#m5cca4b6b8b" x="36.465625" y="179.188859" style="stroke: #000000; stroke-width: 0.8"/>
      </g>
     </g>
     <g id="text_10">
      <!-- 75.0 -->
      <g transform="translate(7.2 182.988078) scale(0.1 -0.1)">
       <use xlink:href="#DejaVuSans-37"/>
       <use xlink:href="#DejaVuSans-35" x="63.623047"/>
       <use xlink:href="#DejaVuSans-2e" x="127.246094"/>
       <use xlink:href="#DejaVuSans-30" x="159.033203"/>
      </g>
     </g>
    </g>
    <g id="ytick_3">
     <g id="line2d_11">
      <g>
       <use xlink:href="#m5cca4b6b8b" x="36.465625" y="151.470889" style="stroke: #000000; stroke-width: 0.8"/>
      </g>
     </g>
     <g id="text_11">
      <!-- 77.5 -->
      <g transform="translate(7.2 155.270108) scale(0.1 -0.1)">
       <use xlink:href="#DejaVuSans-37"/>
       <use xlink:href="#DejaVuSans-37" x="63.623047"/>
       <use xlink:href="#DejaVuSans-2e" x="127.246094"/>
       <use xlink:href="#DejaVuSans-35" x="159.033203"/>
      </g>
     </g>
    </g>
    <g id="ytick_4">
     <g id="line2d_12">
      <g>
       <use xlink:href="#m5cca4b6b8b" x="36.465625" y="123.75292" style="stroke: #000000; stroke-width: 0.8"/>
      </g>
     </g>
     <g id="text_12">
      <!-- 80.0 -->
      <g transform="translate(7.2 127.552138) scale(0.1 -0.1)">
       <defs>
        <path id="DejaVuSans-38" d="M 2034 2216 
Q 1584 2216 1326 1975 
Q 1069 1734 1069 1313 
Q 1069 891 1326 650 
Q 1584 409 2034 409 
Q 2484 409 2743 651 
Q 3003 894 3003 1313 
Q 3003 1734 2745 1975 
Q 2488 2216 2034 2216 
z
M 1403 2484 
Q 997 2584 770 2862 
Q 544 3141 544 3541 
Q 544 4100 942 4425 
Q 1341 4750 2034 4750 
Q 2731 4750 3128 4425 
Q 3525 4100 3525 3541 
Q 3525 3141 3298 2862 
Q 3072 2584 2669 2484 
Q 3125 2378 3379 2068 
Q 3634 1759 3634 1313 
Q 3634 634 3220 271 
Q 2806 -91 2034 -91 
Q 1263 -91 848 271 
Q 434 634 434 1313 
Q 434 1759 690 2068 
Q 947 2378 1403 2484 
z
M 1172 3481 
Q 1172 3119 1398 2916 
Q 1625 2713 2034 2713 
Q 2441 2713 2670 2916 
Q 2900 3119 2900 3481 
Q 2900 3844 2670 4047 
Q 2441 4250 2034 4250 
Q 1625 4250 1398 4047 
Q 1172 3844 1172 3481 
z
" transform="scale(0.015625)"/>
       </defs>
       <use xlink:href="#DejaVuSans-38"/>
       <use xlink:href="#DejaVuSans-30" x="63.623047"/>
       <use xlink:href="#DejaVuSans-2e" x="127.246094"/>
       <use xlink:href="#DejaVuSans-30" x="159.033203"/>
      </g>
     </g>
    </g>
    <g id="ytick_5">
     <g id="line2d_13">
      <g>
       <use xlink:href="#m5cca4b6b8b" x="36.465625" y="96.03495" style="stroke: #000000; stroke-width: 0.8"/>
      </g>
     </g>
     <g id="text_13">
      <!-- 82.5 -->
      <g transform="translate(7.2 99.834169) scale(0.1 -0.1)">
       <use xlink:href="#DejaVuSans-38"/>
       <use xlink:href="#DejaVuSans-32" x="63.623047"/>
       <use xlink:href="#DejaVuSans-2e" x="127.246094"/>
       <use xlink:href="#DejaVuSans-35" x="159.033203"/>
      </g>
     </g>
    </g>
    <g id="ytick_6">
     <g id="line2d_14">
      <g>
       <use xlink:href="#m5cca4b6b8b" x="36.465625" y="68.31698" style="stroke: #000000; stroke-width: 0.8"/>
      </g>
     </g>
     <g id="text_14">
      <!-- 85.0 -->
      <g transform="translate(7.2 72.116199) scale(0.1 -0.1)">
       <use xlink:href="#DejaVuSans-38"/>
       <use xlink:href="#DejaVuSans-35" x="63.623047"/>
       <use xlink:href="#DejaVuSans-2e" x="127.246094"/>
       <use xlink:href="#DejaVuSans-30" x="159.033203"/>
      </g>
     </g>
    </g>
    <g id="ytick_7">
     <g id="line2d_15">
      <g>
       <use xlink:href="#m5cca4b6b8b" x="36.465625" y="40.59901" style="stroke: #000000; stroke-width: 0.8"/>
      </g>
     </g>
     <g id="text_15">
      <!-- 87.5 -->
      <g transform="translate(7.2 44.398229) scale(0.1 -0.1)">
       <use xlink:href="#DejaVuSans-38"/>
       <use xlink:href="#DejaVuSans-37" x="63.623047"/>
       <use xlink:href="#DejaVuSans-2e" x="127.246094"/>
       <use xlink:href="#DejaVuSans-35" x="159.033203"/>
      </g>
     </g>
    </g>
    <g id="ytick_8">
     <g id="line2d_16">
      <g>
       <use xlink:href="#m5cca4b6b8b" x="36.465625" y="12.881041" style="stroke: #000000; stroke-width: 0.8"/>
      </g>
     </g>
     <g id="text_16">
      <!-- 90.0 -->
      <g transform="translate(7.2 16.680259) scale(0.1 -0.1)">
       <defs>
        <path id="DejaVuSans-39" d="M 703 97 
L 703 672 
Q 941 559 1184 500 
Q 1428 441 1663 441 
Q 2288 441 2617 861 
Q 2947 1281 2994 2138 
Q 2813 1869 2534 1725 
Q 2256 1581 1919 1581 
Q 1219 1581 811 2004 
Q 403 2428 403 3163 
Q 403 3881 828 4315 
Q 1253 4750 1959 4750 
Q 2769 4750 3195 4129 
Q 3622 3509 3622 2328 
Q 3622 1225 3098 567 
Q 2575 -91 1691 -91 
Q 1453 -91 1209 -44 
Q 966 3 703 97 
z
M 1959 2075 
Q 2384 2075 2632 2365 
Q 2881 2656 2881 3163 
Q 2881 3666 2632 3958 
Q 2384 4250 1959 4250 
Q 1534 4250 1286 3958 
Q 1038 3666 1038 3163 
Q 1038 2656 1286 2365 
Q 1534 2075 1959 2075 
z
" transform="scale(0.015625)"/>
       </defs>
       <use xlink:href="#DejaVuSans-39"/>
       <use xlink:href="#DejaVuSans-30" x="63.623047"/>
       <use xlink:href="#DejaVuSans-2e" x="127.246094"/>
       <use xlink:href="#DejaVuSans-30" x="159.033203"/>
      </g>
     </g>
    </g>
   </g>
   <g id="line2d_17">
    <path d="M 52.369344 35.82924 
L 52.718923 27.91253 
L 53.01467 36.265972 
L 53.30617 36.265972 
L 53.616068 35.712621 
L 53.910462 40.536837 
L 54.209226 34.896294 
L 54.782545 49.030579 
L 55.350155 49.232359 
L 55.639804 49.232359 
L 55.941812 46.867575 
L 56.217783 36.912354 
L 56.488599 36.961854 
L 56.765833 38.099415 
L 57.037169 32.429432 
L 57.315358 34.366252 
L 57.590506 30.164388 
L 57.876835 29.225759 
L 58.661678 29.225759 
L 58.945243 28.182113 
L 59.221239 30.470886 
L 59.495325 30.470886 
L 60.048856 32.553794 
L 60.324656 39.142918 
L 60.601943 40.005661 
L 60.878379 39.346021 
L 61.155136 39.619023 
L 61.433146 40.081085 
L 61.71078 36.350303 
L 61.989829 36.221272 
L 62.268947 35.636461 
L 62.551715 35.935598 
L 62.833294 21.833288 
L 63.392203 24.96913 
L 63.661636 24.513565 
L 63.935369 25.934248 
L 64.226814 26.801254 
L 64.778148 26.801254 
L 65.069736 27.547562 
L 65.954233 27.547562 
L 66.231285 26.962669 
L 66.513393 26.962669 
L 66.785462 28.336527 
L 67.066738 27.547562 
L 67.35514 27.357105 
L 67.90947 29.889628 
L 68.184251 30.492336 
L 68.451528 29.511583 
L 68.999891 29.511583 
L 69.278125 31.424995 
L 69.561664 31.054131 
L 69.860021 32.011768 
L 70.136593 32.151265 
L 70.445013 31.059398 
L 71.550211 31.059398 
L 71.827943 32.226427 
L 72.117321 32.226427 
L 72.399716 33.123732 
L 72.699702 33.123732 
L 73.009092 29.901151 
L 73.280222 31.243536 
L 73.563689 37.074482 
L 73.850796 37.465388 
L 74.127706 41.839763 
L 74.402207 43.585362 
L 74.711293 42.619587 
L 75.568874 42.619587 
L 76.134556 45.715518 
L 76.405596 45.706946 
L 76.679957 48.808714 
L 77.225297 48.808714 
L 77.498817 50.905622 
L 77.772854 51.821805 
L 78.053425 49.958678 
L 78.609621 49.958678 
L 78.893079 48.531119 
L 79.183916 48.531119 
L 79.471452 48.25832 
L 79.746816 49.425348 
L 80.02893 48.926596 
L 80.60175 48.926596 
L 80.878346 50.854014 
L 81.174129 51.152891 
L 81.728039 51.005789 
L 82.00916 51.005789 
L 82.562245 52.488647 
L 82.84122 52.488647 
L 83.118516 55.18062 
L 83.402369 52.258 
L 83.684501 52.258 
L 83.973084 53.387402 
L 84.250121 57.724012 
L 84.556715 57.724012 
L 84.862732 57.95749 
L 85.147362 57.724012 
L 85.424565 60.863752 
L 85.704562 61.906757 
L 86.257739 64.874225 
L 86.544138 57.614911 
L 86.84332 57.614911 
L 87.130103 58.607991 
L 87.420209 59.193321 
L 87.981604 59.193321 
L 88.259337 59.51634 
L 88.556407 59.193321 
L 88.841538 61.472591 
L 89.119172 66.403322 
L 89.395653 66.403322 
L 89.686415 67.782384 
L 89.968336 67.982296 
L 90.519256 67.982296 
L 90.79826 63.169873 
L 91.073301 65.488129 
L 91.360041 63.502449 
L 91.639437 64.789356 
L 91.917528 63.418961 
L 92.192113 63.670197 
L 92.481143 63.751578 
L 92.759313 64.140146 
L 93.043226 64.321845 
L 93.324974 64.710413 
L 93.634435 64.000642 
L 93.933689 65.085633 
L 94.21313 65.286443 
L 94.779383 66.418974 
L 95.056858 68.114834 
L 95.329911 68.114834 
L 95.609217 68.680751 
L 95.89509 68.900462 
L 96.191015 69.898426 
L 96.471985 72.738328 
L 96.761302 71.905441 
L 97.032935 72.77712 
L 97.30234 72.738601 
L 97.590494 73.823591 
L 97.875381 74.374963 
L 98.165378 76.24557 
L 99.006609 76.24557 
L 99.286096 78.18538 
L 99.848633 78.609936 
L 100.189884 80.755902 
L 100.487277 79.91714 
L 100.774017 79.91714 
L 101.053057 83.111485 
L 101.332005 83.111485 
L 101.6093 82.710442 
L 101.890046 84.181651 
L 102.165347 84.37744 
L 102.446505 84.37744 
L 102.734917 84.172175 
L 103.332101 84.172175 
L 103.62367 84.5768 
L 103.970447 84.420585 
L 104.329471 84.553263 
L 105.340176 87.440826 
L 105.906374 87.440826 
L 106.232049 86.883333 
L 106.525249 90.108697 
L 106.808518 89.792206 
L 107.093335 90.216245 
L 107.419496 91.123395 
L 107.778428 93.276767 
L 108.118057 94.238258 
L 108.400824 93.129656 
L 108.712782 93.07666 
L 109.02293 98.338889 
L 109.312961 98.619348 
L 109.614084 92.126896 
L 110.249365 92.126896 
L 110.543266 91.170304 
L 111.135729 93.640316 
L 111.426771 92.100454 
L 111.759934 93.263737 
L 112.058062 92.514003 
L 112.344478 93.187576 
L 113.019668 92.516711 
L 113.361122 93.727534 
L 113.68408 92.671114 
L 114.032395 95.428817 
L 114.424594 95.428817 
L 114.84401 92.513442 
L 115.237685 94.00124 
L 115.561133 94.00124 
L 115.888438 95.806092 
L 116.218229 94.167383 
L 116.557347 95.239854 
L 116.900377 98.448746 
L 117.237519 98.430845 
L 117.567741 96.492287 
L 118.148261 98.286717 
L 118.427388 100.701859 
L 119.196131 100.748506 
L 119.578338 98.997376 
L 119.933756 98.997376 
L 120.310739 98.784513 
L 120.654679 99.040646 
L 121.00772 99.506748 
L 121.367141 98.984614 
L 121.666423 98.985237 
L 122.010069 99.180187 
L 122.388429 97.87913 
L 122.76994 102.027587 
L 123.13948 101.530229 
L 123.517401 101.507357 
L 123.897416 101.643266 
L 124.273236 101.576876 
L 124.695434 106.537613 
L 125.035523 103.204625 
L 125.325938 103.531756 
L 125.614412 102.404606 
L 125.890993 105.605147 
L 126.178779 106.39022 
L 126.47856 107.543752 
L 126.758888 105.236381 
L 127.046387 105.836002 
L 127.325819 104.154733 
L 127.615377 103.503287 
L 127.94549 106.540593 
L 128.234252 106.833319 
L 128.852715 106.92884 
L 129.152307 105.934626 
L 129.739581 105.934626 
L 130.020892 111.889544 
L 130.324286 110.20426 
L 130.614829 109.602087 
L 130.895218 110.11232 
L 131.186036 110.11232 
L 131.464656 115.492521 
L 131.755034 115.844308 
L 132.044057 110.11232 
L 132.33085 109.248466 
L 132.618647 111.954449 
L 133.232939 112.034849 
L 133.527649 112.252518 
L 133.808047 115.961123 
L 134.11121 112.752311 
L 134.400311 114.809952 
L 134.677472 114.809952 
L 134.956279 113.056022 
L 135.244673 114.59901 
L 135.524838 112.627272 
L 135.817812 113.558208 
L 136.390391 112.416195 
L 136.677048 114.81835 
L 136.959031 115.191902 
L 137.238365 113.798907 
L 137.894108 113.798907 
L 138.252371 112.683396 
L 138.595569 112.69673 
L 138.934206 112.847335 
L 139.233469 112.809914 
L 139.515565 113.788975 
L 139.802288 112.97143 
L 140.086839 118.53462 
L 140.376245 118.198807 
L 140.720497 115.974978 
L 141.066533 117.725955 
L 141.376698 117.725955 
L 141.68945 117.342393 
L 142.612855 117.315422 
L 142.943307 118.360469 
L 143.225047 117.572242 
L 143.508012 118.220092 
L 143.802025 118.420198 
L 144.377284 120.576478 
L 144.658595 118.908108 
L 144.945988 121.964219 
L 145.540514 121.878462 
L 145.827926 121.491741 
L 146.113451 122.707437 
L 146.409071 116.019632 
L 146.690088 116.078183 
L 147.020416 116.506772 
L 147.608226 118.861471 
L 147.901584 121.362241 
L 148.223307 119.481915 
L 148.80487 119.481915 
L 149.14503 121.0285 
L 149.443514 121.246198 
L 149.743231 121.108242 
L 150.387465 119.537343 
L 150.718501 123.569368 
L 151.069132 123.787066 
L 151.452949 121.260937 
L 152.171663 121.229611 
L 152.714712 123.115432 
L 153.290466 121.554393 
L 153.676127 122.34745 
L 154.029495 122.62376 
L 154.358452 122.625343 
L 154.70633 123.992831 
L 155.043286 124.58446 
L 155.411163 133.757065 
L 155.733342 133.757065 
L 156.083329 131.041154 
L 156.483416 130.441972 
L 157.012155 130.131476 
L 157.539391 130.465184 
L 158.114365 131.7934 
L 158.68611 131.556448 
L 159.252094 131.773939 
L 159.739848 133.252043 
L 160.224229 135.097164 
L 160.743425 135.775676 
L 161.550906 139.797026 
L 161.935457 140.304388 
L 162.423686 140.304388 
L 162.826226 138.446182 
L 163.105513 138.207728 
L 163.388845 140.348911 
L 163.680318 140.348911 
L 163.958014 138.758557 
L 164.265202 136.332319 
L 164.557041 137.807679 
L 165.216584 136.673791 
L 165.519373 136.440856 
L 165.906912 137.149864 
L 166.206897 138.421111 
L 166.503702 138.832955 
L 166.804519 139.042293 
L 167.123694 130.084937 
L 167.418295 130.513804 
L 167.706778 130.084937 
L 168.294302 130.268467 
L 168.583949 130.268467 
L 168.874965 130.52548 
L 169.163305 130.980254 
L 169.445823 131.082086 
L 169.759255 130.022264 
L 170.40058 131.048051 
L 170.694242 131.048051 
L 170.98017 130.42569 
L 171.271929 132.36063 
L 171.553632 132.699967 
L 171.858406 133.75503 
L 172.200218 136.743395 
L 172.480625 133.498376 
L 172.764654 135.80116 
L 173.050949 136.873294 
L 173.3525 136.707563 
L 173.931989 135.132344 
L 174.270056 137.953349 
L 174.579479 139.026596 
L 174.861675 138.602568 
L 175.136526 137.1434 
L 175.427024 137.005485 
L 176.005094 138.041553 
L 176.584851 140.814928 
L 177.181321 138.452915 
L 177.809328 137.832309 
L 178.103812 137.845617 
L 178.676131 137.307962 
L 178.962656 137.772686 
L 179.245683 138.541412 
L 179.529526 140.41182 
L 179.822715 140.094965 
L 180.118248 138.1911 
L 180.404244 137.549459 
L 180.697175 138.265209 
L 180.982393 140.238283 
L 181.268473 139.795059 
L 181.887757 140.785441 
L 182.21823 139.192355 
L 182.542929 140.729009 
L 182.833928 140.36665 
L 183.11674 141.501154 
L 183.405715 140.941258 
L 183.696975 141.150486 
L 183.982033 143.330243 
L 184.27346 141.177933 
L 184.555432 141.274768 
L 184.846833 140.634947 
L 185.416225 142.776712 
L 185.714209 142.080537 
L 186.05128 140.481354 
L 186.346886 141.314502 
L 186.675201 141.314502 
L 186.972583 140.743563 
L 187.550463 144.244304 
L 187.827803 143.389422 
L 188.121244 143.700556 
L 188.703488 142.494073 
L 189.285171 144.721155 
L 189.576716 144.29715 
L 189.858311 145.746276 
L 190.141922 145.100012 
L 190.428902 147.611854 
L 190.714659 148.624618 
L 191.041247 148.980248 
L 191.33881 144.10916 
L 191.627105 145.049593 
L 191.914456 147.602606 
L 192.21352 147.617073 
L 192.494669 147.015638 
L 192.77286 149.315166 
L 193.057683 150.565137 
L 193.343852 150.690261 
L 193.632819 150.532838 
L 193.935168 147.204111 
L 194.236139 147.089916 
L 194.525786 147.191105 
L 194.822385 149.399947 
L 195.106012 149.735004 
L 195.389699 147.55824 
L 195.68925 151.276183 
L 195.982162 152.043142 
L 196.261916 159.579994 
L 196.558916 158.814232 
L 196.844921 158.890953 
L 197.133075 150.784078 
L 197.42487 152.616195 
L 197.712692 152.616195 
L 197.999225 158.412868 
L 198.287047 158.951915 
L 198.577528 159.992796 
L 198.866565 158.928872 
L 199.501443 155.715237 
L 199.797761 154.689923 
L 200.123161 154.872471 
L 200.416207 158.637506 
L 201.317044 158.696941 
L 201.601959 158.986027 
L 201.887635 158.874396 
L 202.18002 159.674813 
L 203.049416 159.708428 
L 203.33062 159.880399 
L 203.916498 157.66068 
L 204.80356 159.499855 
L 205.092851 159.566627 
L 205.371479 160.157019 
L 205.662975 160.157019 
L 205.966471 158.280696 
L 206.244317 159.719805 
L 206.53004 159.931691 
L 206.838076 160.383947 
L 207.457021 159.901859 
L 207.747537 159.901859 
L 208.035128 160.65085 
L 208.337447 160.936872 
L 208.622505 160.26171 
L 209.229476 160.363508 
L 209.517378 162.095169 
L 210.099616 168.000735 
L 210.715458 163.147285 
L 210.998727 162.525023 
L 211.582529 162.525023 
L 211.875126 163.734479 
L 212.164336 161.070922 
L 212.443437 163.262263 
L 212.733613 162.342522 
L 213.032115 162.679392 
L 213.313891 162.475781 
L 213.614843 161.794078 
L 214.185784 162.165993 
L 214.501297 164.724639 
L 214.785973 164.434103 
L 215.079126 162.666741 
L 215.373282 163.552611 
L 215.656945 163.830399 
L 216.546421 163.821304 
L 216.842365 164.260554 
L 217.127703 163.828467 
L 218.316736 164.893934 
L 218.612512 165.293081 
L 218.942482 165.500059 
L 219.546794 166.307023 
L 219.851638 166.307023 
L 220.150623 167.410166 
L 220.446093 167.624189 
L 220.735479 167.258844 
L 221.04869 169.492948 
L 221.347253 169.877009 
L 221.620818 169.275365 
L 221.906072 166.635024 
L 222.189431 170.221215 
L 222.506236 171.53126 
L 222.791947 171.53126 
L 223.084368 168.84867 
L 223.384845 167.922375 
L 223.672201 167.922375 
L 224.253304 169.291188 
L 224.546225 169.049665 
L 224.842186 171.069881 
L 225.40716 167.969856 
L 225.693069 167.660613 
L 226.270871 166.55409 
L 226.557298 166.782673 
L 226.869885 168.823056 
L 227.448723 167.796576 
L 227.735999 168.517906 
L 228.025819 168.510786 
L 228.32737 167.992328 
L 228.625667 169.88972 
L 228.919688 169.88972 
L 229.222949 171.907242 
L 229.515313 171.922373 
L 230.106094 173.110035 
L 230.431976 173.185994 
L 230.756004 173.818445 
L 231.02957 173.818445 
L 231.341562 174.573794 
L 231.637907 174.655389 
L 231.930828 174.956695 
L 232.216737 174.768767 
L 232.504667 174.768767 
L 232.785217 174.088567 
L 233.087254 174.088567 
L 233.369378 175.479903 
L 233.653371 175.722517 
L 233.933599 175.479903 
L 234.220098 174.626505 
L 234.507519 177.277095 
L 234.79246 178.419851 
L 235.096384 178.419851 
L 235.385083 178.910507 
L 235.676786 179.870671 
L 235.963605 178.906784 
L 236.252896 179.448358 
L 236.549608 177.366812 
L 236.833154 178.131311 
L 237.127544 177.998774 
L 237.702804 177.998774 
L 237.988891 180.120933 
L 238.276274 179.352982 
L 238.571011 180.328223 
L 238.867813 180.536442 
L 239.154795 180.536442 
L 239.452226 180.704532 
L 239.741252 182.889968 
L 240.40488 182.978481 
L 240.72077 179.931156 
L 241.022492 180.505854 
L 241.344751 180.505854 
L 241.626778 178.883673 
L 241.907829 180.524389 
L 242.498464 180.428545 
L 242.789973 183.678633 
L 243.371637 183.678633 
L 243.658599 184.336582 
L 243.951835 184.404978 
L 244.254935 184.32319 
L 244.546198 183.556585 
L 244.854623 183.588248 
L 245.139896 183.357671 
L 245.433461 182.70215 
L 246.007799 182.771983 
L 246.599552 182.171282 
L 247.464738 182.171282 
L 247.74604 182.829231 
L 248.031141 182.962273 
L 248.325755 183.817616 
L 248.611896 183.817616 
L 248.893759 182.962273 
L 249.51385 183.560417 
L 249.862102 182.904897 
L 250.154658 182.904897 
L 250.439386 183.560417 
L 251.342058 183.596906 
L 251.676025 180.495551 
L 251.994466 182.351184 
L 252.277805 182.351184 
L 252.619788 181.594348 
L 253.263475 183.175964 
L 253.790406 182.458105 
L 254.550965 182.528328 
L 255.00727 183.036554 
L 255.3864 183.036554 
L 255.888716 184.09214 
L 256.207433 183.236797 
L 256.611116 179.209194 
L 257.490771 180.238028 
L 257.882808 179.582507 
L 258.220095 177.457966 
L 258.595344 178.818166 
L 258.919069 177.483253 
L 259.424231 178.425125 
L 259.793074 178.68139 
L 260.128277 179.33691 
L 260.432387 181.80232 
L 260.740468 181.80232 
L 261.051708 180.44212 
L 261.356051 179.827595 
L 262.012807 181.742305 
L 262.308849 184.462971 
L 262.618087 183.978935 
L 262.913368 183.737311 
L 263.199543 183.675312 
L 263.517411 184.913191 
L 263.840787 184.199158 
L 264.129532 183.980376 
L 264.412139 185.972534 
L 264.701349 186.128372 
L 264.986693 186.128372 
L 265.2744 185.0288 
L 265.57021 185.742832 
L 265.855884 185.742832 
L 266.146981 187.888565 
L 266.438113 188.503091 
L 266.732518 189.861403 
L 268.204493 189.861403 
L 268.818547 188.419499 
L 269.154678 188.578331 
L 269.485739 187.437331 
L 269.783384 187.915314 
L 270.076063 185.642548 
L 270.37063 185.69594 
L 270.656134 187.221445 
L 270.952347 187.011514 
L 271.250143 186.184085 
L 271.549137 186.184085 
L 271.845101 184.580998 
L 272.134746 184.155021 
L 272.429386 187.221352 
L 272.724908 186.993011 
L 273.015799 187.161177 
L 273.310268 187.161177 
L 273.59418 186.283962 
L 273.893693 189.253779 
L 274.187857 188.269403 
L 274.479114 188.259694 
L 274.77395 186.733109 
L 275.072229 187.791281 
L 275.655439 187.791281 
L 275.943442 186.346826 
L 276.235254 188.487171 
L 276.523093 188.384752 
L 276.814476 188.883752 
L 277.119194 191.129251 
L 277.714617 193.547089 
L 278.506391 193.353971 
L 278.92012 195.025555 
L 279.25415 195.025555 
L 279.586159 194.385833 
L 279.910683 194.425093 
L 280.519396 197.765125 
L 280.819488 193.044243 
L 281.114377 193.044243 
L 281.425126 190.412972 
L 281.715407 191.817703 
L 282.331258 190.110322 
L 282.783116 190.110322 
L 283.139312 195.88049 
L 283.464328 196.682133 
L 284.117702 197.556869 
L 284.456563 200.081067 
L 284.808741 199.089005 
L 285.117528 195.606872 
L 285.453493 197.117728 
L 285.748356 196.267044 
L 286.049959 197.630333 
L 286.345682 202.411887 
L 286.636679 203.032614 
L 287.504162 203.049225 
L 287.798827 204.632703 
L 288.107482 204.760776 
L 288.419276 204.760776 
L 289.026959 202.848314 
L 289.321724 202.265172 
L 289.623804 199.409878 
L 289.91211 201.13416 
L 290.210102 201.180395 
L 290.504624 200.263986 
L 290.792294 200.407785 
L 291.083916 201.889744 
L 291.392187 196.944834 
L 291.681218 198.249794 
L 292.553039 204.0226 
L 292.833304 203.638858 
L 293.129891 202.808288 
L 293.430532 202.941799 
L 293.728649 200.580277 
L 294.331057 201.31647 
L 294.625677 200.931895 
L 294.918463 200.788096 
L 295.20414 202.983776 
L 295.508617 201.147442 
L 296.091086 201.186572 
L 296.716203 205.766314 
L 297.004194 206.665979 
L 297.323127 206.665979 
L 297.637786 204.473243 
L 297.950194 203.743279 
L 298.232417 203.54864 
L 298.522621 200.667772 
L 298.811765 205.001498 
L 299.101065 204.483479 
L 299.373242 204.865951 
L 299.671216 203.239019 
L 299.958243 204.618445 
L 300.252424 205.065702 
L 300.548825 202.04458 
L 300.843159 204.005887 
L 301.13006 203.934605 
L 301.429065 204.517746 
L 301.71685 204.517746 
L 302.010513 201.798938 
L 302.307861 205.106397 
L 302.604611 205.106397 
L 302.907218 205.361272 
L 303.207688 205.361272 
L 303.50449 204.868617 
L 303.793879 204.868617 
L 304.094571 205.281699 
L 304.378872 204.894311 
L 304.675791 203.777534 
L 304.984713 204.515125 
L 305.274449 204.096374 
L 305.5583 204.096374 
L 305.857392 204.509457 
L 306.153265 205.719433 
L 306.442545 205.93966 
L 306.730352 205.93966 
L 307.058925 205.598201 
L 307.38106 208.437035 
L 307.694187 208.378082 
L 307.991257 207.041437 
L 308.296191 207.041437 
L 308.886532 207.509426 
L 309.185479 208.194414 
L 309.496514 209.633906 
L 309.787699 209.7399 
L 310.079073 209.51195 
L 310.367449 208.891341 
L 310.655299 208.891341 
L 310.997945 208.251922 
L 311.346581 206.739262 
L 311.692885 206.967211 
L 312.614812 206.952755 
L 312.904398 205.93745 
L 313.194687 206.118408 
L 313.77715 206.040252 
L 314.08839 202.499061 
L 314.386765 200.822631 
L 314.726539 203.91761 
L 315.020123 203.409142 
L 315.61343 203.409142 
L 315.895217 204.553484 
L 316.188039 204.975363 
L 316.497839 204.507915 
L 316.815869 203.017708 
L 317.128136 205.911752 
L 317.800501 209.523959 
L 318.106426 209.15139 
L 318.428335 209.784775 
L 318.727544 209.784775 
L 319.30023 206.639562 
L 319.606449 207.684152 
L 319.889432 209.500298 
L 320.184724 209.816947 
L 320.485804 208.635189 
L 320.77996 209.210861 
L 321.074228 208.608902 
L 321.374728 207.010278 
L 321.660878 207.424653 
L 321.956643 207.010278 
L 322.249114 206.835613 
L 322.531947 209.022825 
L 322.825915 207.841067 
L 323.115865 209.719274 
L 323.399867 209.719274 
L 323.696635 211.886494 
L 324.277979 209.030825 
L 324.888739 208.227734 
L 325.185362 208.227734 
L 325.468409 209.56062 
L 325.767493 209.56062 
L 326.056325 208.494236 
L 326.345382 208.025941 
L 326.644135 209.256045 
L 326.937164 208.797353 
L 327.230934 210.355007 
L 327.564981 208.724395 
L 327.883261 209.570644 
L 328.192487 209.311459 
L 328.483478 209.620853 
L 328.779019 211.084714 
L 329.062136 211.084714 
L 329.344324 211.372398 
L 329.654578 211.136105 
L 329.951506 210.192533 
L 330.249937 209.632186 
L 330.539763 209.476943 
L 330.835906 209.476943 
L 331.127895 210.464811 
L 331.416809 212.0157 
L 331.70819 212.0157 
L 331.996504 210.328189 
L 332.294577 209.743244 
L 332.873829 210.327928 
L 333.179771 210.182219 
L 333.472988 213.272084 
L 333.767152 212.928679 
L 334.65432 212.928679 
L 334.940372 212.677285 
L 335.520438 212.677285 
L 335.805763 211.111557 
L 336.097818 211.303992 
L 336.388215 210.543034 
L 336.989772 210.916604 
L 337.609596 210.981409 
L 337.911738 212.022362 
L 338.496022 211.386252 
L 338.7805 211.163099 
L 339.37381 211.068245 
L 339.665525 210.778781 
L 339.959868 211.645481 
L 340.28099 211.402453 
L 340.564575 211.402453 
L 340.861197 212.227497 
L 341.196857 212.515217 
L 341.494785 213.444611 
L 341.787644 213.605926 
L 342.083426 215.164641 
L 342.369979 214.984221 
L 342.662032 214.984221 
L 342.962975 214.360976 
L 343.277911 217.294197 
L 343.580473 217.26238 
L 343.873152 216.002788 
L 344.151414 216.212798 
L 344.728373 217.120555 
L 345.036748 217.122941 
L 345.340358 215.083655 
L 345.632754 215.183766 
L 346.213253 218.88 
L 346.542937 216.188444 
L 346.869301 216.524702 
L 347.168252 216.161276 
L 347.762959 216.179914 
L 348.056236 215.181015 
L 348.348613 215.330322 
L 348.643331 214.36808 
L 348.93616 215.406894 
L 349.236301 214.888634 
L 349.529141 213.953413 
L 349.817366 214.06658 
L 350.113293 214.825728 
L 350.404702 214.825728 
L 350.697516 216.607941 
L 351.001249 215.746052 
L 351.292112 216.564066 
L 351.582072 216.578558 
L 351.883824 215.956897 
L 352.1833 215.761868 
L 352.474073 215.176525 
L 352.758543 215.779024 
L 353.068663 215.630691 
L 353.387213 215.876198 
L 353.668816 216.410437 
L 353.963722 216.410437 
L 354.278604 217.267369 
L 354.56688 217.70214 
L 354.847736 217.70214 
L 355.147633 216.688055 
L 355.443426 216.84802 
L 355.738701 217.712913 
L 356.047443 218.171997 
L 356.047443 218.171997 
" clip-path="url(#pc1ff909103)" style="fill: none; stroke: #1f77b4; stroke-width: 1.5; stroke-linecap: square"/>
   </g>
   <g id="line2d_18">
    <path d="M 51.683807 35.82924 
L 53.605966 35.82924 
L 57.42833 30.608639 
L 59.34694 26.488853 
L 61.257372 25.799698 
L 63.174185 24.513373 
L 65.085496 25.555147 
L 67.023507 29.736555 
L 68.93878 29.736555 
L 70.874762 34.01847 
L 72.809097 32.369037 
L 74.745273 35.944447 
L 76.669249 32.935651 
L 78.576178 22.789918 
L 80.525272 33.709064 
L 82.45939 23.031482 
L 84.411595 27.000097 
L 86.363946 30.558509 
L 88.292948 31.685252 
L 90.219934 33.173258 
L 92.160213 35.435124 
L 94.091204 29.176316 
L 96.030351 29.329884 
L 97.968334 28.306165 
L 99.957761 26.780973 
L 101.909597 18.968335 
L 103.892896 28.219822 
L 105.868977 18.628464 
L 107.821423 17.28 
L 111.629036 17.295274 
L 113.589195 20.465885 
L 115.634639 23.995778 
L 117.549966 30.443526 
L 119.480376 30.443526 
L 121.400031 22.594194 
L 123.347585 22.594194 
L 125.282549 32.116768 
L 127.197231 33.969252 
L 129.125884 30.912857 
L 131.055727 38.706501 
L 132.991021 35.025532 
L 134.896339 33.738806 
L 136.812791 35.434877 
L 138.746008 37.971168 
L 140.675102 44.422285 
L 142.615958 43.221607 
L 144.562896 44.496991 
L 146.455135 39.692581 
L 148.371732 47.168646 
L 150.308768 41.590973 
L 152.212039 42.405588 
L 154.121454 41.696801 
L 156.030287 39.106168 
L 159.84917 39.106168 
L 161.773746 39.454665 
L 163.715702 41.194792 
L 167.563458 41.194792 
L 169.495135 40.025711 
L 171.412056 41.037116 
L 173.325762 37.738638 
L 175.280688 43.790138 
L 177.207322 47.24053 
L 179.114178 40.375807 
L 181.046268 39.309648 
L 182.963921 39.309648 
L 184.871581 37.575807 
L 186.78868 49.532887 
L 188.741529 49.532887 
L 190.705909 47.328821 
L 192.628975 52.768793 
L 194.570884 49.579697 
L 196.485613 45.995919 
L 198.424195 47.785899 
L 200.352422 47.219721 
L 202.636868 51.605699 
L 204.899044 60.480252 
L 206.916423 56.993117 
L 208.858038 58.951333 
L 210.776601 59.841804 
L 212.724784 58.031771 
L 214.628241 60.71862 
L 216.558114 60.71862 
L 218.504198 65.699072 
L 220.431324 65.699072 
L 222.343117 61.823349 
L 224.242347 60.832513 
L 226.17107 63.238934 
L 228.124137 60.631531 
L 230.040502 63.905556 
L 233.857265 63.905556 
L 235.821099 59.383238 
L 238.053916 55.27327 
L 240.140088 55.27327 
L 242.171062 57.139249 
L 244.121514 58.204366 
L 246.044032 56.639095 
L 247.994836 58.610529 
L 249.943302 54.796875 
L 251.89117 59.44922 
L 253.851087 62.889256 
L 255.775073 58.441445 
L 257.713521 61.655642 
L 259.637623 59.349173 
L 261.584838 58.439453 
L 263.502374 62.690886 
L 265.437013 62.602097 
L 267.361793 58.49079 
L 269.308036 60.023249 
L 271.249203 70.550952 
L 275.127668 65.319649 
L 277.052045 66.124382 
L 279.000987 64.454205 
L 280.916378 63.909508 
L 282.843163 63.949944 
L 284.754636 69.670316 
L 286.724006 66.894284 
L 288.656337 66.359238 
L 290.618792 68.115547 
L 292.593611 68.115547 
L 294.508562 73.104605 
L 296.481779 76.16057 
L 298.454434 72.916232 
L 300.386058 72.921501 
L 302.333486 70.836342 
L 304.271034 65.935654 
L 306.189785 69.414118 
L 308.140363 67.9669 
L 310.08707 66.716429 
L 312.018042 66.720163 
L 313.995398 67.069384 
L 315.915216 68.045369 
L 317.872861 75.093268 
L 319.791523 75.093268 
L 321.702953 78.357004 
L 323.705786 75.95039 
L 325.667087 80.355505 
L 327.565519 77.026835 
L 329.494012 81.8555 
L 331.443221 77.295579 
L 333.441268 85.110924 
L 335.41997 84.324187 
L 337.360118 82.450406 
L 339.318621 81.300696 
L 341.244117 83.387317 
L 343.19407 81.319433 
L 345.156975 82.76333 
L 347.163574 81.632356 
L 349.112102 82.46813 
L 351.092673 81.484931 
L 353.070665 88.168001 
L 355.032802 88.168001 
L 355.032802 88.168001 
" clip-path="url(#pc1ff909103)" style="fill: none; stroke: #ff7f0e; stroke-width: 1.5; stroke-linecap: square"/>
   </g>
   <g id="patch_3">
    <path d="M 36.465625 228.96 
L 36.465625 7.2 
" style="fill: none; stroke: #000000; stroke-width: 0.8; stroke-linejoin: miter; stroke-linecap: square"/>
   </g>
   <g id="patch_4">
    <path d="M 371.265625 228.96 
L 371.265625 7.2 
" style="fill: none; stroke: #000000; stroke-width: 0.8; stroke-linejoin: miter; stroke-linecap: square"/>
   </g>
   <g id="patch_5">
    <path d="M 36.465625 228.96 
L 371.265625 228.96 
" style="fill: none; stroke: #000000; stroke-width: 0.8; stroke-linejoin: miter; stroke-linecap: square"/>
   </g>
   <g id="patch_6">
    <path d="M 36.465625 7.2 
L 371.265625 7.2 
" style="fill: none; stroke: #000000; stroke-width: 0.8; stroke-linejoin: miter; stroke-linecap: square"/>
   </g>
   <g id="legend_1">
    <g id="patch_7">
     <path d="M 195.207812 44.55625 
L 364.265625 44.55625 
Q 366.265625 44.55625 366.265625 42.55625 
L 366.265625 14.2 
Q 366.265625 12.2 364.265625 12.2 
L 195.207812 12.2 
Q 193.207812 12.2 193.207812 14.2 
L 193.207812 42.55625 
Q 193.207812 44.55625 195.207812 44.55625 
z
" style="fill: #ffffff; opacity: 0.8; stroke: #cccccc; stroke-linejoin: miter"/>
    </g>
    <g id="line2d_19">
     <path d="M 197.207812 20.298437 
L 207.207812 20.298437 
L 217.207812 20.298437 
" style="fill: none; stroke: #1f77b4; stroke-width: 1.5; stroke-linecap: square"/>
    </g>
    <g id="text_17">
     <!-- GA workers 10 target value -->
     <g transform="translate(225.207812 23.798437) scale(0.1 -0.1)">
      <defs>
       <path id="DejaVuSans-47" d="M 3809 666 
L 3809 1919 
L 2778 1919 
L 2778 2438 
L 4434 2438 
L 4434 434 
Q 4069 175 3628 42 
Q 3188 -91 2688 -91 
Q 1594 -91 976 548 
Q 359 1188 359 2328 
Q 359 3472 976 4111 
Q 1594 4750 2688 4750 
Q 3144 4750 3555 4637 
Q 3966 4525 4313 4306 
L 4313 3634 
Q 3963 3931 3569 4081 
Q 3175 4231 2741 4231 
Q 1884 4231 1454 3753 
Q 1025 3275 1025 2328 
Q 1025 1384 1454 906 
Q 1884 428 2741 428 
Q 3075 428 3337 486 
Q 3600 544 3809 666 
z
" transform="scale(0.015625)"/>
       <path id="DejaVuSans-41" d="M 2188 4044 
L 1331 1722 
L 3047 1722 
L 2188 4044 
z
M 1831 4666 
L 2547 4666 
L 4325 0 
L 3669 0 
L 3244 1197 
L 1141 1197 
L 716 0 
L 50 0 
L 1831 4666 
z
" transform="scale(0.015625)"/>
       <path id="DejaVuSans-20" transform="scale(0.015625)"/>
       <path id="DejaVuSans-77" d="M 269 3500 
L 844 3500 
L 1563 769 
L 2278 3500 
L 2956 3500 
L 3675 769 
L 4391 3500 
L 4966 3500 
L 4050 0 
L 3372 0 
L 2619 2869 
L 1863 0 
L 1184 0 
L 269 3500 
z
" transform="scale(0.015625)"/>
       <path id="DejaVuSans-6f" d="M 1959 3097 
Q 1497 3097 1228 2736 
Q 959 2375 959 1747 
Q 959 1119 1226 758 
Q 1494 397 1959 397 
Q 2419 397 2687 759 
Q 2956 1122 2956 1747 
Q 2956 2369 2687 2733 
Q 2419 3097 1959 3097 
z
M 1959 3584 
Q 2709 3584 3137 3096 
Q 3566 2609 3566 1747 
Q 3566 888 3137 398 
Q 2709 -91 1959 -91 
Q 1206 -91 779 398 
Q 353 888 353 1747 
Q 353 2609 779 3096 
Q 1206 3584 1959 3584 
z
" transform="scale(0.015625)"/>
       <path id="DejaVuSans-72" d="M 2631 2963 
Q 2534 3019 2420 3045 
Q 2306 3072 2169 3072 
Q 1681 3072 1420 2755 
Q 1159 2438 1159 1844 
L 1159 0 
L 581 0 
L 581 3500 
L 1159 3500 
L 1159 2956 
Q 1341 3275 1631 3429 
Q 1922 3584 2338 3584 
Q 2397 3584 2469 3576 
Q 2541 3569 2628 3553 
L 2631 2963 
z
" transform="scale(0.015625)"/>
       <path id="DejaVuSans-6b" d="M 581 4863 
L 1159 4863 
L 1159 1991 
L 2875 3500 
L 3609 3500 
L 1753 1863 
L 3688 0 
L 2938 0 
L 1159 1709 
L 1159 0 
L 581 0 
L 581 4863 
z
" transform="scale(0.015625)"/>
       <path id="DejaVuSans-65" d="M 3597 1894 
L 3597 1613 
L 953 1613 
Q 991 1019 1311 708 
Q 1631 397 2203 397 
Q 2534 397 2845 478 
Q 3156 559 3463 722 
L 3463 178 
Q 3153 47 2828 -22 
Q 2503 -91 2169 -91 
Q 1331 -91 842 396 
Q 353 884 353 1716 
Q 353 2575 817 3079 
Q 1281 3584 2069 3584 
Q 2775 3584 3186 3129 
Q 3597 2675 3597 1894 
z
M 3022 2063 
Q 3016 2534 2758 2815 
Q 2500 3097 2075 3097 
Q 1594 3097 1305 2825 
Q 1016 2553 972 2059 
L 3022 2063 
z
" transform="scale(0.015625)"/>
       <path id="DejaVuSans-73" d="M 2834 3397 
L 2834 2853 
Q 2591 2978 2328 3040 
Q 2066 3103 1784 3103 
Q 1356 3103 1142 2972 
Q 928 2841 928 2578 
Q 928 2378 1081 2264 
Q 1234 2150 1697 2047 
L 1894 2003 
Q 2506 1872 2764 1633 
Q 3022 1394 3022 966 
Q 3022 478 2636 193 
Q 2250 -91 1575 -91 
Q 1294 -91 989 -36 
Q 684 19 347 128 
L 347 722 
Q 666 556 975 473 
Q 1284 391 1588 391 
Q 1994 391 2212 530 
Q 2431 669 2431 922 
Q 2431 1156 2273 1281 
Q 2116 1406 1581 1522 
L 1381 1569 
Q 847 1681 609 1914 
Q 372 2147 372 2553 
Q 372 3047 722 3315 
Q 1072 3584 1716 3584 
Q 2034 3584 2315 3537 
Q 2597 3491 2834 3397 
z
" transform="scale(0.015625)"/>
       <path id="DejaVuSans-74" d="M 1172 4494 
L 1172 3500 
L 2356 3500 
L 2356 3053 
L 1172 3053 
L 1172 1153 
Q 1172 725 1289 603 
Q 1406 481 1766 481 
L 2356 481 
L 2356 0 
L 1766 0 
Q 1100 0 847 248 
Q 594 497 594 1153 
L 594 3053 
L 172 3053 
L 172 3500 
L 594 3500 
L 594 4494 
L 1172 4494 
z
" transform="scale(0.015625)"/>
       <path id="DejaVuSans-61" d="M 2194 1759 
Q 1497 1759 1228 1600 
Q 959 1441 959 1056 
Q 959 750 1161 570 
Q 1363 391 1709 391 
Q 2188 391 2477 730 
Q 2766 1069 2766 1631 
L 2766 1759 
L 2194 1759 
z
M 3341 1997 
L 3341 0 
L 2766 0 
L 2766 531 
Q 2569 213 2275 61 
Q 1981 -91 1556 -91 
Q 1019 -91 701 211 
Q 384 513 384 1019 
Q 384 1609 779 1909 
Q 1175 2209 1959 2209 
L 2766 2209 
L 2766 2266 
Q 2766 2663 2505 2880 
Q 2244 3097 1772 3097 
Q 1472 3097 1187 3025 
Q 903 2953 641 2809 
L 641 3341 
Q 956 3463 1253 3523 
Q 1550 3584 1831 3584 
Q 2591 3584 2966 3190 
Q 3341 2797 3341 1997 
z
" transform="scale(0.015625)"/>
       <path id="DejaVuSans-67" d="M 2906 1791 
Q 2906 2416 2648 2759 
Q 2391 3103 1925 3103 
Q 1463 3103 1205 2759 
Q 947 2416 947 1791 
Q 947 1169 1205 825 
Q 1463 481 1925 481 
Q 2391 481 2648 825 
Q 2906 1169 2906 1791 
z
M 3481 434 
Q 3481 -459 3084 -895 
Q 2688 -1331 1869 -1331 
Q 1566 -1331 1297 -1286 
Q 1028 -1241 775 -1147 
L 775 -588 
Q 1028 -725 1275 -790 
Q 1522 -856 1778 -856 
Q 2344 -856 2625 -561 
Q 2906 -266 2906 331 
L 2906 616 
Q 2728 306 2450 153 
Q 2172 0 1784 0 
Q 1141 0 747 490 
Q 353 981 353 1791 
Q 353 2603 747 3093 
Q 1141 3584 1784 3584 
Q 2172 3584 2450 3431 
Q 2728 3278 2906 2969 
L 2906 3500 
L 3481 3500 
L 3481 434 
z
" transform="scale(0.015625)"/>
       <path id="DejaVuSans-76" d="M 191 3500 
L 800 3500 
L 1894 563 
L 2988 3500 
L 3597 3500 
L 2284 0 
L 1503 0 
L 191 3500 
z
" transform="scale(0.015625)"/>
       <path id="DejaVuSans-6c" d="M 603 4863 
L 1178 4863 
L 1178 0 
L 603 0 
L 603 4863 
z
" transform="scale(0.015625)"/>
       <path id="DejaVuSans-75" d="M 544 1381 
L 544 3500 
L 1119 3500 
L 1119 1403 
Q 1119 906 1312 657 
Q 1506 409 1894 409 
Q 2359 409 2629 706 
Q 2900 1003 2900 1516 
L 2900 3500 
L 3475 3500 
L 3475 0 
L 2900 0 
L 2900 538 
Q 2691 219 2414 64 
Q 2138 -91 1772 -91 
Q 1169 -91 856 284 
Q 544 659 544 1381 
z
M 1991 3584 
L 1991 3584 
z
" transform="scale(0.015625)"/>
      </defs>
      <use xlink:href="#DejaVuSans-47"/>
      <use xlink:href="#DejaVuSans-41" x="77.490234"/>
      <use xlink:href="#DejaVuSans-20" x="145.898438"/>
      <use xlink:href="#DejaVuSans-77" x="177.685547"/>
      <use xlink:href="#DejaVuSans-6f" x="259.472656"/>
      <use xlink:href="#DejaVuSans-72" x="320.654297"/>
      <use xlink:href="#DejaVuSans-6b" x="361.767578"/>
      <use xlink:href="#DejaVuSans-65" x="416.052734"/>
      <use xlink:href="#DejaVuSans-72" x="477.576172"/>
      <use xlink:href="#DejaVuSans-73" x="518.689453"/>
      <use xlink:href="#DejaVuSans-20" x="570.789062"/>
      <use xlink:href="#DejaVuSans-31" x="602.576172"/>
      <use xlink:href="#DejaVuSans-30" x="666.199219"/>
      <use xlink:href="#DejaVuSans-20" x="729.822266"/>
      <use xlink:href="#DejaVuSans-74" x="761.609375"/>
      <use xlink:href="#DejaVuSans-61" x="800.818359"/>
      <use xlink:href="#DejaVuSans-72" x="862.097656"/>
      <use xlink:href="#DejaVuSans-67" x="901.460938"/>
      <use xlink:href="#DejaVuSans-65" x="964.9375"/>
      <use xlink:href="#DejaVuSans-74" x="1026.460938"/>
      <use xlink:href="#DejaVuSans-20" x="1065.669922"/>
      <use xlink:href="#DejaVuSans-76" x="1097.457031"/>
      <use xlink:href="#DejaVuSans-61" x="1156.636719"/>
      <use xlink:href="#DejaVuSans-6c" x="1217.916016"/>
      <use xlink:href="#DejaVuSans-75" x="1245.699219"/>
      <use xlink:href="#DejaVuSans-65" x="1309.078125"/>
     </g>
    </g>
    <g id="line2d_20">
     <path d="M 197.207812 34.976562 
L 207.207812 34.976562 
L 217.207812 34.976562 
" style="fill: none; stroke: #ff7f0e; stroke-width: 1.5; stroke-linecap: square"/>
    </g>
    <g id="text_18">
     <!-- GA workers 1 target value -->
     <g transform="translate(225.207812 38.476562) scale(0.1 -0.1)">
      <use xlink:href="#DejaVuSans-47"/>
      <use xlink:href="#DejaVuSans-41" x="77.490234"/>
      <use xlink:href="#DejaVuSans-20" x="145.898438"/>
      <use xlink:href="#DejaVuSans-77" x="177.685547"/>
      <use xlink:href="#DejaVuSans-6f" x="259.472656"/>
      <use xlink:href="#DejaVuSans-72" x="320.654297"/>
      <use xlink:href="#DejaVuSans-6b" x="361.767578"/>
      <use xlink:href="#DejaVuSans-65" x="416.052734"/>
      <use xlink:href="#DejaVuSans-72" x="477.576172"/>
      <use xlink:href="#DejaVuSans-73" x="518.689453"/>
      <use xlink:href="#DejaVuSans-20" x="570.789062"/>
      <use xlink:href="#DejaVuSans-31" x="602.576172"/>
      <use xlink:href="#DejaVuSans-20" x="666.199219"/>
      <use xlink:href="#DejaVuSans-74" x="697.986328"/>
      <use xlink:href="#DejaVuSans-61" x="737.195312"/>
      <use xlink:href="#DejaVuSans-72" x="798.474609"/>
      <use xlink:href="#DejaVuSans-67" x="837.837891"/>
      <use xlink:href="#DejaVuSans-65" x="901.314453"/>
      <use xlink:href="#DejaVuSans-74" x="962.837891"/>
      <use xlink:href="#DejaVuSans-20" x="1002.046875"/>
      <use xlink:href="#DejaVuSans-76" x="1033.833984"/>
      <use xlink:href="#DejaVuSans-61" x="1093.013672"/>
      <use xlink:href="#DejaVuSans-6c" x="1154.292969"/>
      <use xlink:href="#DejaVuSans-75" x="1182.076172"/>
      <use xlink:href="#DejaVuSans-65" x="1245.455078"/>
     </g>
    </g>
   </g>
  </g>
 </g>
 <defs>
  <clipPath id="pc1ff909103">
   <rect x="36.465625" y="7.2" width="334.8" height="221.76"/>
  </clipPath>
 </defs>
</svg>
