<?xml version="1.0" encoding="utf-8" standalone="no"?>
<!DOCTYPE svg PUBLIC "-//W3C//DTD SVG 1.1//EN"
  "http://www.w3.org/Graphics/SVG/1.1/DTD/svg11.dtd">
<svg xmlns:xlink="http://www.w3.org/1999/xlink" width="375.2875pt" height="253.191842pt" viewBox="0 0 375.2875 253.191842" xmlns="http://www.w3.org/2000/svg" version="1.1">
 <metadata>
  <rdf:RDF xmlns:dc="http://purl.org/dc/elements/1.1/" xmlns:cc="http://creativecommons.org/ns#" xmlns:rdf="http://www.w3.org/1999/02/22-rdf-syntax-ns#">
   <cc:Work>
    <dc:type rdf:resource="http://purl.org/dc/dcmitype/StillImage"/>
    <dc:date>2023-04-19T16:57:12.625291</dc:date>
    <dc:format>image/svg+xml</dc:format>
    <dc:creator>
     <cc:Agent>
      <dc:title>Matplotlib v3.6.2, https://matplotlib.org/</dc:title>
     </cc:Agent>
    </dc:creator>
   </cc:Work>
  </rdf:RDF>
 </metadata>
 <defs>
  <style type="text/css">*{stroke-linejoin: round; stroke-linecap: butt}</style>
 </defs>
 <g id="figure_1">
  <g id="patch_1">
   <path d="M 0 253.191842 
L 375.2875 253.191842 
L 375.2875 0 
L 0 0 
z
" style="fill: #ffffff"/>
  </g>
  <g id="axes_1">
   <g id="patch_2">
    <path d="M 33.2875 229.313717 
L 368.0875 229.313717 
L 368.0875 7.553717 
L 33.2875 7.553717 
z
" style="fill: #ffffff"/>
   </g>
   <g id="matplotlib.axis_1">
    <g id="xtick_1">
     <g id="line2d_1">
      <defs>
       <path id="mf48ba8d5f7" d="M 0 0 
L 0 3.5 
" style="stroke: #000000; stroke-width: 0.8"/>
      </defs>
      <g>
       <use xlink:href="#mf48ba8d5f7" x="48.505682" y="229.313717" style="stroke: #000000; stroke-width: 0.8"/>
      </g>
     </g>
     <g id="text_1">
      <!-- 0 -->
      <g transform="translate(45.324432 243.912155) scale(0.1 -0.1)">
       <defs>
        <path id="DejaVuSans-30" d="M 2034 4250 
Q 1547 4250 1301 3770 
Q 1056 3291 1056 2328 
Q 1056 1369 1301 889 
Q 1547 409 2034 409 
Q 2525 409 2770 889 
Q 3016 1369 3016 2328 
Q 3016 3291 2770 3770 
Q 2525 4250 2034 4250 
z
M 2034 4750 
Q 2819 4750 3233 4129 
Q 3647 3509 3647 2328 
Q 3647 1150 3233 529 
Q 2819 -91 2034 -91 
Q 1250 -91 836 529 
Q 422 1150 422 2328 
Q 422 3509 836 4129 
Q 1250 4750 2034 4750 
z
" transform="scale(0.015625)"/>
       </defs>
       <use xlink:href="#DejaVuSans-30"/>
      </g>
     </g>
    </g>
    <g id="xtick_2">
     <g id="line2d_2">
      <g>
       <use xlink:href="#mf48ba8d5f7" x="109.378409" y="229.313717" style="stroke: #000000; stroke-width: 0.8"/>
      </g>
     </g>
     <g id="text_2">
      <!-- 200 -->
      <g transform="translate(99.834659 243.912155) scale(0.1 -0.1)">
       <defs>
        <path id="DejaVuSans-32" d="M 1228 531 
L 3431 531 
L 3431 0 
L 469 0 
L 469 531 
Q 828 903 1448 1529 
Q 2069 2156 2228 2338 
Q 2531 2678 2651 2914 
Q 2772 3150 2772 3378 
Q 2772 3750 2511 3984 
Q 2250 4219 1831 4219 
Q 1534 4219 1204 4116 
Q 875 4013 500 3803 
L 500 4441 
Q 881 4594 1212 4672 
Q 1544 4750 1819 4750 
Q 2544 4750 2975 4387 
Q 3406 4025 3406 3419 
Q 3406 3131 3298 2873 
Q 3191 2616 2906 2266 
Q 2828 2175 2409 1742 
Q 1991 1309 1228 531 
z
" transform="scale(0.015625)"/>
       </defs>
       <use xlink:href="#DejaVuSans-32"/>
       <use xlink:href="#DejaVuSans-30" x="63.623047"/>
       <use xlink:href="#DejaVuSans-30" x="127.246094"/>
      </g>
     </g>
    </g>
    <g id="xtick_3">
     <g id="line2d_3">
      <g>
       <use xlink:href="#mf48ba8d5f7" x="170.251136" y="229.313717" style="stroke: #000000; stroke-width: 0.8"/>
      </g>
     </g>
     <g id="text_3">
      <!-- 400 -->
      <g transform="translate(160.707386 243.912155) scale(0.1 -0.1)">
       <defs>
        <path id="DejaVuSans-34" d="M 2419 4116 
L 825 1625 
L 2419 1625 
L 2419 4116 
z
M 2253 4666 
L 3047 4666 
L 3047 1625 
L 3713 1625 
L 3713 1100 
L 3047 1100 
L 3047 0 
L 2419 0 
L 2419 1100 
L 313 1100 
L 313 1709 
L 2253 4666 
z
" transform="scale(0.015625)"/>
       </defs>
       <use xlink:href="#DejaVuSans-34"/>
       <use xlink:href="#DejaVuSans-30" x="63.623047"/>
       <use xlink:href="#DejaVuSans-30" x="127.246094"/>
      </g>
     </g>
    </g>
    <g id="xtick_4">
     <g id="line2d_4">
      <g>
       <use xlink:href="#mf48ba8d5f7" x="231.123864" y="229.313717" style="stroke: #000000; stroke-width: 0.8"/>
      </g>
     </g>
     <g id="text_4">
      <!-- 600 -->
      <g transform="translate(221.580114 243.912155) scale(0.1 -0.1)">
       <defs>
        <path id="DejaVuSans-36" d="M 2113 2584 
Q 1688 2584 1439 2293 
Q 1191 2003 1191 1497 
Q 1191 994 1439 701 
Q 1688 409 2113 409 
Q 2538 409 2786 701 
Q 3034 994 3034 1497 
Q 3034 2003 2786 2293 
Q 2538 2584 2113 2584 
z
M 3366 4563 
L 3366 3988 
Q 3128 4100 2886 4159 
Q 2644 4219 2406 4219 
Q 1781 4219 1451 3797 
Q 1122 3375 1075 2522 
Q 1259 2794 1537 2939 
Q 1816 3084 2150 3084 
Q 2853 3084 3261 2657 
Q 3669 2231 3669 1497 
Q 3669 778 3244 343 
Q 2819 -91 2113 -91 
Q 1303 -91 875 529 
Q 447 1150 447 2328 
Q 447 3434 972 4092 
Q 1497 4750 2381 4750 
Q 2619 4750 2861 4703 
Q 3103 4656 3366 4563 
z
" transform="scale(0.015625)"/>
       </defs>
       <use xlink:href="#DejaVuSans-36"/>
       <use xlink:href="#DejaVuSans-30" x="63.623047"/>
       <use xlink:href="#DejaVuSans-30" x="127.246094"/>
      </g>
     </g>
    </g>
    <g id="xtick_5">
     <g id="line2d_5">
      <g>
       <use xlink:href="#mf48ba8d5f7" x="291.996591" y="229.313717" style="stroke: #000000; stroke-width: 0.8"/>
      </g>
     </g>
     <g id="text_5">
      <!-- 800 -->
      <g transform="translate(282.452841 243.912155) scale(0.1 -0.1)">
       <defs>
        <path id="DejaVuSans-38" d="M 2034 2216 
Q 1584 2216 1326 1975 
Q 1069 1734 1069 1313 
Q 1069 891 1326 650 
Q 1584 409 2034 409 
Q 2484 409 2743 651 
Q 3003 894 3003 1313 
Q 3003 1734 2745 1975 
Q 2488 2216 2034 2216 
z
M 1403 2484 
Q 997 2584 770 2862 
Q 544 3141 544 3541 
Q 544 4100 942 4425 
Q 1341 4750 2034 4750 
Q 2731 4750 3128 4425 
Q 3525 4100 3525 3541 
Q 3525 3141 3298 2862 
Q 3072 2584 2669 2484 
Q 3125 2378 3379 2068 
Q 3634 1759 3634 1313 
Q 3634 634 3220 271 
Q 2806 -91 2034 -91 
Q 1263 -91 848 271 
Q 434 634 434 1313 
Q 434 1759 690 2068 
Q 947 2378 1403 2484 
z
M 1172 3481 
Q 1172 3119 1398 2916 
Q 1625 2713 2034 2713 
Q 2441 2713 2670 2916 
Q 2900 3119 2900 3481 
Q 2900 3844 2670 4047 
Q 2441 4250 2034 4250 
Q 1625 4250 1398 4047 
Q 1172 3844 1172 3481 
z
" transform="scale(0.015625)"/>
       </defs>
       <use xlink:href="#DejaVuSans-38"/>
       <use xlink:href="#DejaVuSans-30" x="63.623047"/>
       <use xlink:href="#DejaVuSans-30" x="127.246094"/>
      </g>
     </g>
    </g>
    <g id="xtick_6">
     <g id="line2d_6">
      <g>
       <use xlink:href="#mf48ba8d5f7" x="352.869318" y="229.313717" style="stroke: #000000; stroke-width: 0.8"/>
      </g>
     </g>
     <g id="text_6">
      <!-- 1000 -->
      <g transform="translate(340.144318 243.912155) scale(0.1 -0.1)">
       <defs>
        <path id="DejaVuSans-31" d="M 794 531 
L 1825 531 
L 1825 4091 
L 703 3866 
L 703 4441 
L 1819 4666 
L 2450 4666 
L 2450 531 
L 3481 531 
L 3481 0 
L 794 0 
L 794 531 
z
" transform="scale(0.015625)"/>
       </defs>
       <use xlink:href="#DejaVuSans-31"/>
       <use xlink:href="#DejaVuSans-30" x="63.623047"/>
       <use xlink:href="#DejaVuSans-30" x="127.246094"/>
       <use xlink:href="#DejaVuSans-30" x="190.869141"/>
      </g>
     </g>
    </g>
   </g>
   <g id="matplotlib.axis_2">
    <g id="ytick_1">
     <g id="line2d_7">
      <defs>
       <path id="m7f1f1c921b" d="M 0 0 
L -3.5 0 
" style="stroke: #000000; stroke-width: 0.8"/>
      </defs>
      <g>
       <use xlink:href="#m7f1f1c921b" x="33.2875" y="219.233717" style="stroke: #000000; stroke-width: 0.8"/>
      </g>
     </g>
     <g id="text_7">
      <!-- 0 -->
      <g transform="translate(19.925 223.032936) scale(0.1 -0.1)">
       <use xlink:href="#DejaVuSans-30"/>
      </g>
     </g>
    </g>
    <g id="ytick_2">
     <g id="line2d_8">
      <g>
       <use xlink:href="#m7f1f1c921b" x="33.2875" y="177.586818" style="stroke: #000000; stroke-width: 0.8"/>
      </g>
     </g>
     <g id="text_8">
      <!-- 20 -->
      <g transform="translate(13.5625 181.386036) scale(0.1 -0.1)">
       <use xlink:href="#DejaVuSans-32"/>
       <use xlink:href="#DejaVuSans-30" x="63.623047"/>
      </g>
     </g>
    </g>
    <g id="ytick_3">
     <g id="line2d_9">
      <g>
       <use xlink:href="#m7f1f1c921b" x="33.2875" y="135.939918" style="stroke: #000000; stroke-width: 0.8"/>
      </g>
     </g>
     <g id="text_9">
      <!-- 40 -->
      <g transform="translate(13.5625 139.739137) scale(0.1 -0.1)">
       <use xlink:href="#DejaVuSans-34"/>
       <use xlink:href="#DejaVuSans-30" x="63.623047"/>
      </g>
     </g>
    </g>
    <g id="ytick_4">
     <g id="line2d_10">
      <g>
       <use xlink:href="#m7f1f1c921b" x="33.2875" y="94.293018" style="stroke: #000000; stroke-width: 0.8"/>
      </g>
     </g>
     <g id="text_10">
      <!-- 60 -->
      <g transform="translate(13.5625 98.092237) scale(0.1 -0.1)">
       <use xlink:href="#DejaVuSans-36"/>
       <use xlink:href="#DejaVuSans-30" x="63.623047"/>
      </g>
     </g>
    </g>
    <g id="ytick_5">
     <g id="line2d_11">
      <g>
       <use xlink:href="#m7f1f1c921b" x="33.2875" y="52.646118" style="stroke: #000000; stroke-width: 0.8"/>
      </g>
     </g>
     <g id="text_11">
      <!-- 80 -->
      <g transform="translate(13.5625 56.445337) scale(0.1 -0.1)">
       <use xlink:href="#DejaVuSans-38"/>
       <use xlink:href="#DejaVuSans-30" x="63.623047"/>
      </g>
     </g>
    </g>
    <g id="ytick_6">
     <g id="line2d_12">
      <g>
       <use xlink:href="#m7f1f1c921b" x="33.2875" y="10.999219" style="stroke: #000000; stroke-width: 0.8"/>
      </g>
     </g>
     <g id="text_12">
      <!-- 100 -->
      <g transform="translate(7.2 14.798437) scale(0.1 -0.1)">
       <use xlink:href="#DejaVuSans-31"/>
       <use xlink:href="#DejaVuSans-30" x="63.623047"/>
       <use xlink:href="#DejaVuSans-30" x="127.246094"/>
      </g>
     </g>
    </g>
   </g>
   <g id="line2d_13">
    <path d="M 48.505682 19.971642 
L 48.810045 80.913786 
L 49.114409 84.71746 
L 49.418773 84.71746 
L 49.723136 88.582758 
L 50.0275 88.582758 
L 50.331864 89.20155 
L 50.636227 89.20155 
L 50.940591 89.36579 
L 51.853682 89.36579 
L 52.158045 89.741995 
L 52.462409 89.741995 
L 53.3755 90.018803 
L 54.288591 90.056026 
L 54.897318 90.134341 
L 64.332591 90.142039 
L 64.636955 90.773898 
L 99.638773 90.877974 
L 99.943136 91.065528 
L 110.900227 91.082932 
L 111.204591 91.275412 
L 111.508955 91.275412 
L 111.813318 91.500412 
L 230.210773 91.500412 
L 230.515136 91.821497 
L 352.869318 91.839314 
L 352.869318 91.839314 
" clip-path="url(#p333e7e7356)" style="fill: none; stroke: #1f77b4; stroke-width: 1.5; stroke-linecap: square"/>
   </g>
   <g id="line2d_14">
    <path d="M 48.505682 36.132695 
L 48.810045 36.132695 
L 49.114409 35.008958 
L 49.418773 35.008958 
L 49.723136 38.138775 
L 50.0275 38.696428 
L 50.331864 38.777038 
L 50.636227 39.502898 
L 51.549318 39.502898 
L 51.853682 39.737031 
L 52.158045 40.125039 
L 52.462409 40.047616 
L 52.766773 41.257398 
L 53.071136 41.257398 
L 53.3755 41.805008 
L 53.679864 41.303446 
L 53.984227 41.401614 
L 54.288591 41.704541 
L 54.592955 41.704541 
L 55.810409 42.075343 
L 56.114773 42.189865 
L 56.419136 42.522095 
L 57.027864 42.522095 
L 57.332227 42.667013 
L 57.636591 42.522095 
L 57.940955 42.545029 
L 59.462773 43.259425 
L 59.767136 43.178346 
L 60.0715 43.30033 
L 61.288955 43.369179 
L 62.506409 43.581555 
L 62.810773 43.853551 
L 63.115136 43.697706 
L 63.4195 43.978931 
L 64.332591 43.978931 
L 64.941318 44.406406 
L 65.245682 44.220926 
L 65.550045 44.220926 
L 65.854409 44.34987 
L 66.158773 44.220926 
L 66.7675 44.220926 
L 67.071864 44.434133 
L 67.376227 44.220926 
L 67.680591 44.44159 
L 67.984955 44.34987 
L 68.289318 44.537469 
L 69.506773 44.569576 
L 70.419864 45.016665 
L 70.724227 44.825832 
L 71.028591 44.871336 
L 71.332955 45.200006 
L 71.637318 45.016665 
L 72.550409 45.016665 
L 72.854773 45.152109 
L 73.159136 45.152109 
L 73.4635 45.379071 
L 73.767864 45.240725 
L 74.072227 45.240725 
L 74.680955 45.570233 
L 74.985318 45.570233 
L 75.289682 45.705677 
L 75.594045 45.705677 
L 76.202773 45.968628 
L 76.507136 45.968628 
L 76.8115 46.12057 
L 77.115864 46.12057 
L 77.420227 46.347533 
L 77.724591 46.347533 
L 78.028955 46.482976 
L 78.942045 46.482976 
L 79.246409 47.122555 
L 79.550773 47.192661 
L 79.855136 47.122555 
L 80.1595 46.603869 
L 80.463864 46.688525 
L 80.768227 47.122555 
L 81.072591 47.328104 
L 81.376955 47.192661 
L 82.290045 47.242008 
L 82.594409 47.328104 
L 83.203136 47.242008 
L 83.5075 47.66489 
L 83.811864 47.405379 
L 85.029318 47.874038 
L 85.638045 47.879048 
L 85.942409 48.32166 
L 86.246773 48.009482 
L 86.551136 47.884925 
L 86.8555 48.025984 
L 87.464227 47.963704 
L 88.681682 48.013316 
L 88.986045 48.301203 
L 89.899136 48.301203 
L 90.2035 48.510352 
L 90.507864 48.510352 
L 90.812227 48.38394 
L 91.420955 48.564617 
L 94.464591 48.598279 
L 94.768955 48.807428 
L 96.290773 48.92226 
L 96.595136 49.089709 
L 97.812591 48.92226 
L 98.116955 49.312554 
L 100.2475 49.367175 
L 100.856227 49.397757 
L 102.682409 49.446778 
L 102.986773 49.965918 
L 107.247864 50.069594 
L 107.856591 50.146202 
L 108.769682 50.084389 
L 109.074045 50.566788 
L 109.987136 50.698856 
L 113.6395 50.787918 
L 114.248227 50.85352 
L 114.856955 50.801777 
L 116.378773 50.857208 
L 116.683136 51.087411 
L 117.291864 50.983964 
L 117.900591 50.989878 
L 118.509318 51.093686 
L 121.552955 51.295188 
L 122.466045 51.526033 
L 122.770409 51.466561 
L 123.074773 51.619086 
L 123.379136 51.929296 
L 123.6835 51.929296 
L 124.292227 52.122513 
L 124.596591 52.122513 
L 124.900955 52.281372 
L 131.292591 52.340869 
L 131.596955 52.418649 
L 131.901318 52.656203 
L 132.205682 52.366827 
L 133.423136 52.364659 
L 133.7275 52.520872 
L 134.031864 52.888029 
L 137.0755 52.972294 
L 137.379864 53.376275 
L 137.684227 53.376275 
L 137.988591 52.938772 
L 139.510409 52.998759 
L 139.814773 53.397939 
L 140.4235 53.475148 
L 141.336591 53.475148 
L 141.640955 53.60931 
L 141.945318 53.532947 
L 142.554045 53.725577 
L 142.858409 53.524031 
L 143.7715 53.524031 
L 144.075864 53.654697 
L 144.684591 53.645603 
L 144.988955 53.813182 
L 145.902045 53.852189 
L 146.206409 54.2775 
L 146.510773 54.261103 
L 147.1195 54.43715 
L 147.728227 54.33362 
L 148.032591 54.411573 
L 148.336955 54.368334 
L 148.641318 54.537011 
L 149.554409 54.514396 
L 149.858773 54.74597 
L 150.163136 54.514396 
L 150.771864 54.776162 
L 151.076227 54.532889 
L 151.380591 54.587661 
L 151.684955 54.758072 
L 151.989318 54.588387 
L 152.902409 55.26729 
L 153.206773 54.965809 
L 154.424227 55.05245 
L 154.728591 55.329465 
L 155.337318 55.41373 
L 157.772227 55.489543 
L 158.380955 55.491729 
L 158.989682 55.420299 
L 159.294045 55.420299 
L 159.902773 55.796391 
L 160.5115 55.712956 
L 161.424591 55.712956 
L 161.728955 55.913702 
L 162.033318 55.785805 
L 162.642045 56.101686 
L 164.468227 56.101686 
L 164.772591 56.254896 
L 165.076955 56.101686 
L 165.381318 56.421565 
L 165.990045 56.421565 
L 166.294409 56.174535 
L 166.598773 56.174535 
L 166.903136 56.421565 
L 167.2075 56.227157 
L 167.816227 56.227157 
L 168.120591 56.547036 
L 168.424955 56.353329 
L 169.033682 56.350252 
L 169.642409 56.540468 
L 169.946773 56.296102 
L 170.5555 56.40406 
L 172.077318 56.523203 
L 172.990409 56.869151 
L 174.207864 56.960044 
L 174.512227 57.153531 
L 175.120955 57.13451 
L 176.642773 57.173159 
L 177.555864 57.274002 
L 178.164591 57.244984 
L 178.468955 57.385125 
L 178.773318 57.385125 
L 179.077682 57.630284 
L 179.382045 57.385125 
L 179.686409 57.414143 
L 179.990773 57.630284 
L 182.121318 57.659302 
L 183.034409 57.841648 
L 183.338773 58.266146 
L 184.251864 58.320326 
L 184.556227 58.418258 
L 184.860591 58.825055 
L 185.773682 58.994548 
L 186.991136 59.014118 
L 188.512955 59.448607 
L 188.817318 59.93099 
L 189.121682 60.084924 
L 189.426045 59.703407 
L 190.339136 59.757587 
L 190.6435 59.89978 
L 192.469682 59.840529 
L 192.774045 60.280551 
L 194.600227 60.280551 
L 194.904591 60.823147 
L 195.208955 60.823147 
L 195.513318 60.335273 
L 195.817682 60.335273 
L 196.426409 60.573374 
L 197.035136 60.617387 
L 197.3395 60.932082 
L 197.643864 60.707927 
L 197.948227 60.707927 
L 198.556955 60.932048 
L 198.861318 60.932048 
L 199.165682 61.1167 
L 200.991864 61.205083 
L 201.904955 61.301561 
L 202.209318 61.291818 
L 202.513682 61.448326 
L 202.818045 61.350524 
L 203.122409 61.431137 
L 203.426773 61.251683 
L 205.557318 61.937753 
L 205.861682 62.065393 
L 206.166045 62.065393 
L 206.774773 61.877655 
L 207.079136 62.027075 
L 207.3835 62.027075 
L 207.992227 62.178025 
L 208.296591 62.002055 
L 210.122773 62.185014 
L 210.427136 62.094115 
L 211.035864 62.212576 
L 212.557682 62.568532 
L 215.296955 62.648167 
L 215.601318 62.728204 
L 215.905682 62.648569 
L 216.514409 62.867329 
L 216.818773 62.6998 
L 217.123136 62.782405 
L 217.4275 62.6998 
L 218.644955 62.988236 
L 219.862409 63.041339 
L 220.7755 63.189515 
L 221.079864 63.189515 
L 221.384227 63.320595 
L 222.297318 63.320595 
L 222.601682 63.574619 
L 224.732227 63.637751 
L 225.036591 64.18778 
L 226.862773 64.42748 
L 227.167136 64.217326 
L 227.4715 64.397934 
L 228.384591 64.427111 
L 229.602045 64.375226 
L 230.210773 64.48945 
L 231.732591 64.583075 
L 232.036955 65.12577 
L 232.341318 64.542046 
L 233.254409 64.553096 
L 233.558773 64.69795 
L 233.863136 64.69795 
L 234.1675 64.560246 
L 234.471864 65.198479 
L 234.776227 64.613349 
L 235.993682 64.637549 
L 236.906773 64.833725 
L 237.211136 65.19333 
L 237.819864 65.305697 
L 239.646045 65.318703 
L 239.950409 65.505943 
L 242.385318 65.773366 
L 243.298409 65.773366 
L 244.515864 65.734957 
L 244.820227 65.930164 
L 248.472591 66.039904 
L 248.776955 66.317849 
L 249.081318 66.039904 
L 250.603136 66.117423 
L 251.516227 66.154987 
L 251.820591 66.495783 
L 253.038045 66.557991 
L 253.646773 66.670986 
L 253.951136 66.681195 
L 254.2555 66.844162 
L 256.081682 66.914941 
L 256.994773 67.043771 
L 257.6035 66.923614 
L 258.212227 67.143713 
L 260.038409 67.37835 
L 261.255864 67.500229 
L 262.473318 67.448918 
L 263.690773 67.533672 
L 263.995136 67.672701 
L 265.821318 67.767103 
L 268.864955 68.121762 
L 269.169318 67.909901 
L 269.473682 68.190531 
L 269.778045 68.235193 
L 270.386773 68.148627 
L 270.9955 68.241828 
L 271.299864 68.241828 
L 271.604227 68.501338 
L 275.256591 68.517706 
L 275.560955 68.617449 
L 275.865318 68.536592 
L 276.169682 68.71443 
L 280.126409 68.819037 
L 281.648227 68.866022 
L 281.952591 69.370329 
L 282.256955 68.908184 
L 283.474409 68.989424 
L 283.778773 69.306047 
L 285.909318 69.385943 
L 287.431136 69.720653 
L 287.7355 69.43452 
L 289.561682 69.526204 
L 289.866045 69.868883 
L 291.692227 69.959923 
L 292.300955 70.062964 
L 294.4315 70.125512 
L 294.735864 70.27189 
L 297.170773 70.348431 
L 297.475136 70.479831 
L 297.7795 70.388209 
L 298.083864 70.461705 
L 298.996955 70.414528 
L 299.605682 70.476798 
L 301.736227 70.580457 
L 302.649318 70.818248 
L 302.953682 70.971967 
L 303.562409 70.971967 
L 303.866773 70.832694 
L 305.692955 70.959357 
L 308.127864 71.020616 
L 309.040955 71.083185 
L 309.345318 71.256161 
L 313.302045 71.341022 
L 313.910773 71.378463 
L 316.345682 71.419774 
L 319.998045 71.452955 
L 320.302409 71.711755 
L 324.5635 71.770146 
L 324.867864 71.947966 
L 329.128955 72.063487 
L 330.346409 72.157595 
L 330.955136 72.145636 
L 331.868227 72.183651 
L 332.172591 72.384434 
L 337.346773 72.49233 
L 337.651136 72.648589 
L 338.868591 72.720391 
L 339.172955 72.436444 
L 339.781682 72.429217 
L 340.086045 72.75871 
L 340.999136 72.873693 
L 341.3035 73.075646 
L 341.607864 72.829527 
L 341.912227 73.076833 
L 342.825318 73.201438 
L 343.129682 73.458434 
L 343.434045 73.265812 
L 343.738409 73.265812 
L 344.042773 73.729563 
L 344.6515 73.779542 
L 344.955864 74.103577 
L 346.782045 74.248737 
L 347.086409 74.573035 
L 347.390773 74.595459 
L 347.695136 74.85375 
L 347.9995 74.646453 
L 348.608227 74.649727 
L 349.216955 74.753517 
L 349.521318 74.839145 
L 350.130045 74.769412 
L 350.738773 74.865019 
L 351.043136 75.028114 
L 352.869318 75.109939 
L 352.869318 75.109939 
" clip-path="url(#p333e7e7356)" style="fill: none; stroke: #ff7f0e; stroke-width: 1.5; stroke-linecap: square"/>
   </g>
   <g id="line2d_15">
    <path d="M 48.505682 17.633717 
L 48.810045 18.765942 
L 49.114409 18.903404 
L 49.723136 20.116779 
L 50.0275 21.089146 
L 50.331864 23.380326 
L 50.636227 24.39088 
L 51.244955 24.39088 
L 51.549318 25.060745 
L 51.853682 25.180325 
L 52.158045 26.843672 
L 52.462409 27.180821 
L 52.766773 28.486795 
L 53.071136 28.645216 
L 53.3755 29.557533 
L 53.679864 29.814078 
L 53.984227 30.900862 
L 54.288591 31.318106 
L 54.592955 32.384494 
L 54.897318 32.384494 
L 55.201682 33.690366 
L 55.506045 33.941589 
L 55.810409 33.941589 
L 56.419136 34.608124 
L 56.7235 34.65047 
L 57.027864 35.372206 
L 57.332227 36.502523 
L 57.636591 37.070661 
L 57.940955 37.365582 
L 58.549682 37.454218 
L 58.854045 37.920893 
L 59.158409 37.924198 
L 59.462773 38.679876 
L 59.767136 39.016615 
L 60.0715 39.016615 
L 60.375864 39.279748 
L 60.680227 39.279748 
L 60.984591 39.439806 
L 61.593318 40.055305 
L 61.897682 40.708119 
L 62.202045 40.837923 
L 62.506409 41.800444 
L 62.810773 42.178944 
L 63.4195 42.416138 
L 63.723864 42.699944 
L 64.941318 42.713279 
L 65.245682 43.029385 
L 65.550045 43.159358 
L 65.854409 43.159358 
L 66.7675 43.593705 
L 67.071864 43.602582 
L 67.376227 43.777882 
L 70.419864 43.859296 
L 70.724227 43.983947 
L 71.028591 44.277023 
L 71.941682 44.331882 
L 72.246045 44.625602 
L 72.550409 44.626991 
L 73.159136 45.139353 
L 73.767864 45.14956 
L 74.072227 45.324374 
L 74.376591 45.742328 
L 74.680955 45.742328 
L 75.289682 46.105375 
L 75.594045 46.128538 
L 75.898409 46.478323 
L 76.202773 46.551372 
L 77.115864 47.215704 
L 77.420227 47.376155 
L 77.724591 47.376155 
L 78.028955 47.75407 
L 78.333318 47.75407 
L 78.942045 48.714224 
L 79.246409 48.742539 
L 79.550773 49.42682 
L 80.768227 49.634315 
L 81.072591 49.634315 
L 81.376955 50.112079 
L 81.681318 50.238801 
L 83.5075 50.238801 
L 83.811864 50.53328 
L 84.420591 50.641556 
L 88.377318 50.697521 
L 88.681682 50.804721 
L 88.986045 51.376087 
L 90.2035 51.903302 
L 90.507864 51.928817 
L 90.812227 52.323319 
L 91.725318 52.601324 
L 94.768955 52.625015 
L 95.377682 52.734189 
L 98.421318 53.07943 
L 98.725682 53.415398 
L 99.030045 53.415398 
L 99.334409 53.553295 
L 101.160591 53.610766 
L 101.464955 53.746499 
L 102.378045 53.794699 
L 103.291136 54.176386 
L 103.5955 54.176386 
L 104.508591 54.465206 
L 105.117318 54.465206 
L 105.421682 54.690193 
L 106.9435 54.783118 
L 107.552227 54.958511 
L 107.856591 55.08821 
L 108.769682 55.149642 
L 109.682773 55.509361 
L 111.813318 55.934071 
L 114.248227 56.043384 
L 115.465682 56.367015 
L 115.770045 56.567573 
L 118.813682 56.948002 
L 122.161682 57.03093 
L 123.379136 57.203601 
L 127.0315 57.300853 
L 129.162045 57.497313 
L 130.3795 57.570525 
L 131.596955 57.777216 
L 132.814409 57.817441 
L 133.423136 57.89118 
L 134.640591 57.991925 
L 134.944955 58.187889 
L 137.379864 58.292058 
L 138.901682 58.432847 
L 139.206045 58.432847 
L 139.510409 58.57084 
L 145.293318 58.672329 
L 145.902045 58.767031 
L 152.598045 58.852007 
L 152.902409 59.103888 
L 153.8155 59.200491 
L 154.728591 59.282359 
L 156.250409 59.282359 
L 156.554773 59.590116 
L 157.772227 59.693676 
L 158.380955 59.794401 
L 162.337682 59.90366 
L 171.164227 60.06189 
L 171.772955 60.135028 
L 173.599136 60.135028 
L 173.9035 60.256043 
L 176.642773 60.34748 
L 176.947136 60.481417 
L 179.686409 60.590114 
L 180.903864 60.648736 
L 184.251864 60.704279 
L 184.860591 60.80528 
L 187.2955 61.022042 
L 189.121682 61.064123 
L 190.339136 61.259042 
L 191.860955 61.29294 
L 192.165318 61.454856 
L 200.383136 61.522142 
L 200.991864 61.628215 
L 201.600591 61.628215 
L 201.904955 61.750328 
L 204.339864 61.814219 
L 204.644227 61.94933 
L 207.3835 62.039971 
L 207.992227 62.10731 
L 215.296955 62.171384 
L 215.905682 62.236042 
L 223.210409 62.296357 
L 227.775864 62.356603 
L 228.384591 62.466859 
L 229.297682 62.533314 
L 229.602045 62.659778 
L 244.820227 62.733487 
L 245.428955 62.846133 
L 255.168591 62.947387 
L 256.386045 62.978211 
L 257.907864 62.978211 
L 258.212227 219.233717 
L 352.869318 219.233717 
L 352.869318 219.233717 
" clip-path="url(#p333e7e7356)" style="fill: none; stroke: #2ca02c; stroke-width: 1.5; stroke-linecap: square"/>
   </g>
   <g id="patch_3">
    <path d="M 33.2875 229.313717 
L 33.2875 7.553717 
" style="fill: none; stroke: #000000; stroke-width: 0.8; stroke-linejoin: miter; stroke-linecap: square"/>
   </g>
   <g id="patch_4">
    <path d="M 368.0875 229.313717 
L 368.0875 7.553717 
" style="fill: none; stroke: #000000; stroke-width: 0.8; stroke-linejoin: miter; stroke-linecap: square"/>
   </g>
   <g id="patch_5">
    <path d="M 33.2875 229.313717 
L 368.0875 229.313717 
" style="fill: none; stroke: #000000; stroke-width: 0.8; stroke-linejoin: miter; stroke-linecap: square"/>
   </g>
   <g id="patch_6">
    <path d="M 33.2875 7.553717 
L 368.0875 7.553717 
" style="fill: none; stroke: #000000; stroke-width: 0.8; stroke-linejoin: miter; stroke-linecap: square"/>
   </g>
   <g id="legend_1">
    <g id="patch_7">
     <path d="M 275.253125 59.588092 
L 361.0875 59.588092 
Q 363.0875 59.588092 363.0875 57.588092 
L 363.0875 14.553717 
Q 363.0875 12.553717 361.0875 12.553717 
L 275.253125 12.553717 
Q 273.253125 12.553717 273.253125 14.553717 
L 273.253125 57.588092 
Q 273.253125 59.588092 275.253125 59.588092 
z
" style="fill: #ffffff; opacity: 0.8; stroke: #cccccc; stroke-linejoin: miter"/>
    </g>
    <g id="line2d_16">
     <path d="M 277.253125 20.652155 
L 287.253125 20.652155 
L 297.253125 20.652155 
" style="fill: none; stroke: #1f77b4; stroke-width: 1.5; stroke-linecap: square"/>
    </g>
    <g id="text_13">
     <!-- PSO target -->
     <g transform="translate(305.253125 24.152155) scale(0.1 -0.1)">
      <defs>
       <path id="DejaVuSans-50" d="M 1259 4147 
L 1259 2394 
L 2053 2394 
Q 2494 2394 2734 2622 
Q 2975 2850 2975 3272 
Q 2975 3691 2734 3919 
Q 2494 4147 2053 4147 
L 1259 4147 
z
M 628 4666 
L 2053 4666 
Q 2838 4666 3239 4311 
Q 3641 3956 3641 3272 
Q 3641 2581 3239 2228 
Q 2838 1875 2053 1875 
L 1259 1875 
L 1259 0 
L 628 0 
L 628 4666 
z
" transform="scale(0.015625)"/>
       <path id="DejaVuSans-53" d="M 3425 4513 
L 3425 3897 
Q 3066 4069 2747 4153 
Q 2428 4238 2131 4238 
Q 1616 4238 1336 4038 
Q 1056 3838 1056 3469 
Q 1056 3159 1242 3001 
Q 1428 2844 1947 2747 
L 2328 2669 
Q 3034 2534 3370 2195 
Q 3706 1856 3706 1288 
Q 3706 609 3251 259 
Q 2797 -91 1919 -91 
Q 1588 -91 1214 -16 
Q 841 59 441 206 
L 441 856 
Q 825 641 1194 531 
Q 1563 422 1919 422 
Q 2459 422 2753 634 
Q 3047 847 3047 1241 
Q 3047 1584 2836 1778 
Q 2625 1972 2144 2069 
L 1759 2144 
Q 1053 2284 737 2584 
Q 422 2884 422 3419 
Q 422 4038 858 4394 
Q 1294 4750 2059 4750 
Q 2388 4750 2728 4690 
Q 3069 4631 3425 4513 
z
" transform="scale(0.015625)"/>
       <path id="DejaVuSans-4f" d="M 2522 4238 
Q 1834 4238 1429 3725 
Q 1025 3213 1025 2328 
Q 1025 1447 1429 934 
Q 1834 422 2522 422 
Q 3209 422 3611 934 
Q 4013 1447 4013 2328 
Q 4013 3213 3611 3725 
Q 3209 4238 2522 4238 
z
M 2522 4750 
Q 3503 4750 4090 4092 
Q 4678 3434 4678 2328 
Q 4678 1225 4090 567 
Q 3503 -91 2522 -91 
Q 1538 -91 948 565 
Q 359 1222 359 2328 
Q 359 3434 948 4092 
Q 1538 4750 2522 4750 
z
" transform="scale(0.015625)"/>
       <path id="DejaVuSans-20" transform="scale(0.015625)"/>
       <path id="DejaVuSans-74" d="M 1172 4494 
L 1172 3500 
L 2356 3500 
L 2356 3053 
L 1172 3053 
L 1172 1153 
Q 1172 725 1289 603 
Q 1406 481 1766 481 
L 2356 481 
L 2356 0 
L 1766 0 
Q 1100 0 847 248 
Q 594 497 594 1153 
L 594 3053 
L 172 3053 
L 172 3500 
L 594 3500 
L 594 4494 
L 1172 4494 
z
" transform="scale(0.015625)"/>
       <path id="DejaVuSans-61" d="M 2194 1759 
Q 1497 1759 1228 1600 
Q 959 1441 959 1056 
Q 959 750 1161 570 
Q 1363 391 1709 391 
Q 2188 391 2477 730 
Q 2766 1069 2766 1631 
L 2766 1759 
L 2194 1759 
z
M 3341 1997 
L 3341 0 
L 2766 0 
L 2766 531 
Q 2569 213 2275 61 
Q 1981 -91 1556 -91 
Q 1019 -91 701 211 
Q 384 513 384 1019 
Q 384 1609 779 1909 
Q 1175 2209 1959 2209 
L 2766 2209 
L 2766 2266 
Q 2766 2663 2505 2880 
Q 2244 3097 1772 3097 
Q 1472 3097 1187 3025 
Q 903 2953 641 2809 
L 641 3341 
Q 956 3463 1253 3523 
Q 1550 3584 1831 3584 
Q 2591 3584 2966 3190 
Q 3341 2797 3341 1997 
z
" transform="scale(0.015625)"/>
       <path id="DejaVuSans-72" d="M 2631 2963 
Q 2534 3019 2420 3045 
Q 2306 3072 2169 3072 
Q 1681 3072 1420 2755 
Q 1159 2438 1159 1844 
L 1159 0 
L 581 0 
L 581 3500 
L 1159 3500 
L 1159 2956 
Q 1341 3275 1631 3429 
Q 1922 3584 2338 3584 
Q 2397 3584 2469 3576 
Q 2541 3569 2628 3553 
L 2631 2963 
z
" transform="scale(0.015625)"/>
       <path id="DejaVuSans-67" d="M 2906 1791 
Q 2906 2416 2648 2759 
Q 2391 3103 1925 3103 
Q 1463 3103 1205 2759 
Q 947 2416 947 1791 
Q 947 1169 1205 825 
Q 1463 481 1925 481 
Q 2391 481 2648 825 
Q 2906 1169 2906 1791 
z
M 3481 434 
Q 3481 -459 3084 -895 
Q 2688 -1331 1869 -1331 
Q 1566 -1331 1297 -1286 
Q 1028 -1241 775 -1147 
L 775 -588 
Q 1028 -725 1275 -790 
Q 1522 -856 1778 -856 
Q 2344 -856 2625 -561 
Q 2906 -266 2906 331 
L 2906 616 
Q 2728 306 2450 153 
Q 2172 0 1784 0 
Q 1141 0 747 490 
Q 353 981 353 1791 
Q 353 2603 747 3093 
Q 1141 3584 1784 3584 
Q 2172 3584 2450 3431 
Q 2728 3278 2906 2969 
L 2906 3500 
L 3481 3500 
L 3481 434 
z
" transform="scale(0.015625)"/>
       <path id="DejaVuSans-65" d="M 3597 1894 
L 3597 1613 
L 953 1613 
Q 991 1019 1311 708 
Q 1631 397 2203 397 
Q 2534 397 2845 478 
Q 3156 559 3463 722 
L 3463 178 
Q 3153 47 2828 -22 
Q 2503 -91 2169 -91 
Q 1331 -91 842 396 
Q 353 884 353 1716 
Q 353 2575 817 3079 
Q 1281 3584 2069 3584 
Q 2775 3584 3186 3129 
Q 3597 2675 3597 1894 
z
M 3022 2063 
Q 3016 2534 2758 2815 
Q 2500 3097 2075 3097 
Q 1594 3097 1305 2825 
Q 1016 2553 972 2059 
L 3022 2063 
z
" transform="scale(0.015625)"/>
      </defs>
      <use xlink:href="#DejaVuSans-50"/>
      <use xlink:href="#DejaVuSans-53" x="60.302734"/>
      <use xlink:href="#DejaVuSans-4f" x="123.779297"/>
      <use xlink:href="#DejaVuSans-20" x="202.490234"/>
      <use xlink:href="#DejaVuSans-74" x="234.277344"/>
      <use xlink:href="#DejaVuSans-61" x="273.486328"/>
      <use xlink:href="#DejaVuSans-72" x="334.765625"/>
      <use xlink:href="#DejaVuSans-67" x="374.128906"/>
      <use xlink:href="#DejaVuSans-65" x="437.605469"/>
      <use xlink:href="#DejaVuSans-74" x="499.128906"/>
     </g>
    </g>
    <g id="line2d_17">
     <path d="M 277.253125 35.33028 
L 287.253125 35.33028 
L 297.253125 35.33028 
" style="fill: none; stroke: #ff7f0e; stroke-width: 1.5; stroke-linecap: square"/>
    </g>
    <g id="text_14">
     <!-- GA target -->
     <g transform="translate(305.253125 38.83028) scale(0.1 -0.1)">
      <defs>
       <path id="DejaVuSans-47" d="M 3809 666 
L 3809 1919 
L 2778 1919 
L 2778 2438 
L 4434 2438 
L 4434 434 
Q 4069 175 3628 42 
Q 3188 -91 2688 -91 
Q 1594 -91 976 548 
Q 359 1188 359 2328 
Q 359 3472 976 4111 
Q 1594 4750 2688 4750 
Q 3144 4750 3555 4637 
Q 3966 4525 4313 4306 
L 4313 3634 
Q 3963 3931 3569 4081 
Q 3175 4231 2741 4231 
Q 1884 4231 1454 3753 
Q 1025 3275 1025 2328 
Q 1025 1384 1454 906 
Q 1884 428 2741 428 
Q 3075 428 3337 486 
Q 3600 544 3809 666 
z
" transform="scale(0.015625)"/>
       <path id="DejaVuSans-41" d="M 2188 4044 
L 1331 1722 
L 3047 1722 
L 2188 4044 
z
M 1831 4666 
L 2547 4666 
L 4325 0 
L 3669 0 
L 3244 1197 
L 1141 1197 
L 716 0 
L 50 0 
L 1831 4666 
z
" transform="scale(0.015625)"/>
      </defs>
      <use xlink:href="#DejaVuSans-47"/>
      <use xlink:href="#DejaVuSans-41" x="77.490234"/>
      <use xlink:href="#DejaVuSans-20" x="145.898438"/>
      <use xlink:href="#DejaVuSans-74" x="177.685547"/>
      <use xlink:href="#DejaVuSans-61" x="216.894531"/>
      <use xlink:href="#DejaVuSans-72" x="278.173828"/>
      <use xlink:href="#DejaVuSans-67" x="317.537109"/>
      <use xlink:href="#DejaVuSans-65" x="381.013672"/>
      <use xlink:href="#DejaVuSans-74" x="442.537109"/>
     </g>
    </g>
    <g id="line2d_18">
     <path d="M 277.253125 50.008405 
L 287.253125 50.008405 
L 297.253125 50.008405 
" style="fill: none; stroke: #2ca02c; stroke-width: 1.5; stroke-linecap: square"/>
    </g>
    <g id="text_15">
     <!-- CA target -->
     <g transform="translate(305.253125 53.508405) scale(0.1 -0.1)">
      <defs>
       <path id="DejaVuSans-43" d="M 4122 4306 
L 4122 3641 
Q 3803 3938 3442 4084 
Q 3081 4231 2675 4231 
Q 1875 4231 1450 3742 
Q 1025 3253 1025 2328 
Q 1025 1406 1450 917 
Q 1875 428 2675 428 
Q 3081 428 3442 575 
Q 3803 722 4122 1019 
L 4122 359 
Q 3791 134 3420 21 
Q 3050 -91 2638 -91 
Q 1578 -91 968 557 
Q 359 1206 359 2328 
Q 359 3453 968 4101 
Q 1578 4750 2638 4750 
Q 3056 4750 3426 4639 
Q 3797 4528 4122 4306 
z
" transform="scale(0.015625)"/>
      </defs>
      <use xlink:href="#DejaVuSans-43"/>
      <use xlink:href="#DejaVuSans-41" x="69.824219"/>
      <use xlink:href="#DejaVuSans-20" x="138.232422"/>
      <use xlink:href="#DejaVuSans-74" x="170.019531"/>
      <use xlink:href="#DejaVuSans-61" x="209.228516"/>
      <use xlink:href="#DejaVuSans-72" x="270.507812"/>
      <use xlink:href="#DejaVuSans-67" x="309.871094"/>
      <use xlink:href="#DejaVuSans-65" x="373.347656"/>
      <use xlink:href="#DejaVuSans-74" x="434.871094"/>
     </g>
    </g>
   </g>
  </g>
 </g>
 <defs>
  <clipPath id="p333e7e7356">
   <rect x="33.2875" y="7.553717" width="334.8" height="221.76"/>
  </clipPath>
 </defs>
</svg>
