<?xml version="1.0" encoding="utf-8" standalone="no"?>
<!DOCTYPE svg PUBLIC "-//W3C//DTD SVG 1.1//EN"
  "http://www.w3.org/Graphics/SVG/1.1/DTD/svg11.dtd">
<svg xmlns:xlink="http://www.w3.org/1999/xlink" width="368.925pt" height="252.838125pt" viewBox="0 0 368.925 252.838125" xmlns="http://www.w3.org/2000/svg" version="1.1">
 <metadata>
  <rdf:RDF xmlns:dc="http://purl.org/dc/elements/1.1/" xmlns:cc="http://creativecommons.org/ns#" xmlns:rdf="http://www.w3.org/1999/02/22-rdf-syntax-ns#">
   <cc:Work>
    <dc:type rdf:resource="http://purl.org/dc/dcmitype/StillImage"/>
    <dc:date>2023-04-18T05:50:43.632898</dc:date>
    <dc:format>image/svg+xml</dc:format>
    <dc:creator>
     <cc:Agent>
      <dc:title>Matplotlib v3.7.1, https://matplotlib.org/</dc:title>
     </cc:Agent>
    </dc:creator>
   </cc:Work>
  </rdf:RDF>
 </metadata>
 <defs>
  <style type="text/css">*{stroke-linejoin: round; stroke-linecap: butt}</style>
 </defs>
 <g id="figure_1">
  <g id="patch_1">
   <path d="M -0 252.838125 
L 368.925 252.838125 
L 368.925 0 
L -0 0 
z
" style="fill: #ffffff"/>
  </g>
  <g id="axes_1">
   <g id="patch_2">
    <path d="M 26.925 228.96 
L 361.725 228.96 
L 361.725 7.2 
L 26.925 7.2 
z
" style="fill: #ffffff"/>
   </g>
   <g id="matplotlib.axis_1">
    <g id="xtick_1">
     <g id="line2d_1">
      <defs>
       <path id="m37ca0dceec" d="M 0 0 
L 0 3.5 
" style="stroke: #000000; stroke-width: 0.8"/>
      </defs>
      <g>
       <use xlink:href="#m37ca0dceec" x="42.143182" y="228.96" style="stroke: #000000; stroke-width: 0.8"/>
      </g>
     </g>
     <g id="text_1">
      <!-- 0 -->
      <g transform="translate(38.961932 243.558437) scale(0.1 -0.1)">
       <defs>
        <path id="DejaVuSans-30" d="M 2034 4250 
Q 1547 4250 1301 3770 
Q 1056 3291 1056 2328 
Q 1056 1369 1301 889 
Q 1547 409 2034 409 
Q 2525 409 2770 889 
Q 3016 1369 3016 2328 
Q 3016 3291 2770 3770 
Q 2525 4250 2034 4250 
z
M 2034 4750 
Q 2819 4750 3233 4129 
Q 3647 3509 3647 2328 
Q 3647 1150 3233 529 
Q 2819 -91 2034 -91 
Q 1250 -91 836 529 
Q 422 1150 422 2328 
Q 422 3509 836 4129 
Q 1250 4750 2034 4750 
z
" transform="scale(0.015625)"/>
       </defs>
       <use xlink:href="#DejaVuSans-30"/>
      </g>
     </g>
    </g>
    <g id="xtick_2">
     <g id="line2d_2">
      <g>
       <use xlink:href="#m37ca0dceec" x="103.015909" y="228.96" style="stroke: #000000; stroke-width: 0.8"/>
      </g>
     </g>
     <g id="text_2">
      <!-- 200 -->
      <g transform="translate(93.472159 243.558437) scale(0.1 -0.1)">
       <defs>
        <path id="DejaVuSans-32" d="M 1228 531 
L 3431 531 
L 3431 0 
L 469 0 
L 469 531 
Q 828 903 1448 1529 
Q 2069 2156 2228 2338 
Q 2531 2678 2651 2914 
Q 2772 3150 2772 3378 
Q 2772 3750 2511 3984 
Q 2250 4219 1831 4219 
Q 1534 4219 1204 4116 
Q 875 4013 500 3803 
L 500 4441 
Q 881 4594 1212 4672 
Q 1544 4750 1819 4750 
Q 2544 4750 2975 4387 
Q 3406 4025 3406 3419 
Q 3406 3131 3298 2873 
Q 3191 2616 2906 2266 
Q 2828 2175 2409 1742 
Q 1991 1309 1228 531 
z
" transform="scale(0.015625)"/>
       </defs>
       <use xlink:href="#DejaVuSans-32"/>
       <use xlink:href="#DejaVuSans-30" x="63.623047"/>
       <use xlink:href="#DejaVuSans-30" x="127.246094"/>
      </g>
     </g>
    </g>
    <g id="xtick_3">
     <g id="line2d_3">
      <g>
       <use xlink:href="#m37ca0dceec" x="163.888636" y="228.96" style="stroke: #000000; stroke-width: 0.8"/>
      </g>
     </g>
     <g id="text_3">
      <!-- 400 -->
      <g transform="translate(154.344886 243.558437) scale(0.1 -0.1)">
       <defs>
        <path id="DejaVuSans-34" d="M 2419 4116 
L 825 1625 
L 2419 1625 
L 2419 4116 
z
M 2253 4666 
L 3047 4666 
L 3047 1625 
L 3713 1625 
L 3713 1100 
L 3047 1100 
L 3047 0 
L 2419 0 
L 2419 1100 
L 313 1100 
L 313 1709 
L 2253 4666 
z
" transform="scale(0.015625)"/>
       </defs>
       <use xlink:href="#DejaVuSans-34"/>
       <use xlink:href="#DejaVuSans-30" x="63.623047"/>
       <use xlink:href="#DejaVuSans-30" x="127.246094"/>
      </g>
     </g>
    </g>
    <g id="xtick_4">
     <g id="line2d_4">
      <g>
       <use xlink:href="#m37ca0dceec" x="224.761364" y="228.96" style="stroke: #000000; stroke-width: 0.8"/>
      </g>
     </g>
     <g id="text_4">
      <!-- 600 -->
      <g transform="translate(215.217614 243.558437) scale(0.1 -0.1)">
       <defs>
        <path id="DejaVuSans-36" d="M 2113 2584 
Q 1688 2584 1439 2293 
Q 1191 2003 1191 1497 
Q 1191 994 1439 701 
Q 1688 409 2113 409 
Q 2538 409 2786 701 
Q 3034 994 3034 1497 
Q 3034 2003 2786 2293 
Q 2538 2584 2113 2584 
z
M 3366 4563 
L 3366 3988 
Q 3128 4100 2886 4159 
Q 2644 4219 2406 4219 
Q 1781 4219 1451 3797 
Q 1122 3375 1075 2522 
Q 1259 2794 1537 2939 
Q 1816 3084 2150 3084 
Q 2853 3084 3261 2657 
Q 3669 2231 3669 1497 
Q 3669 778 3244 343 
Q 2819 -91 2113 -91 
Q 1303 -91 875 529 
Q 447 1150 447 2328 
Q 447 3434 972 4092 
Q 1497 4750 2381 4750 
Q 2619 4750 2861 4703 
Q 3103 4656 3366 4563 
z
" transform="scale(0.015625)"/>
       </defs>
       <use xlink:href="#DejaVuSans-36"/>
       <use xlink:href="#DejaVuSans-30" x="63.623047"/>
       <use xlink:href="#DejaVuSans-30" x="127.246094"/>
      </g>
     </g>
    </g>
    <g id="xtick_5">
     <g id="line2d_5">
      <g>
       <use xlink:href="#m37ca0dceec" x="285.634091" y="228.96" style="stroke: #000000; stroke-width: 0.8"/>
      </g>
     </g>
     <g id="text_5">
      <!-- 800 -->
      <g transform="translate(276.090341 243.558437) scale(0.1 -0.1)">
       <defs>
        <path id="DejaVuSans-38" d="M 2034 2216 
Q 1584 2216 1326 1975 
Q 1069 1734 1069 1313 
Q 1069 891 1326 650 
Q 1584 409 2034 409 
Q 2484 409 2743 651 
Q 3003 894 3003 1313 
Q 3003 1734 2745 1975 
Q 2488 2216 2034 2216 
z
M 1403 2484 
Q 997 2584 770 2862 
Q 544 3141 544 3541 
Q 544 4100 942 4425 
Q 1341 4750 2034 4750 
Q 2731 4750 3128 4425 
Q 3525 4100 3525 3541 
Q 3525 3141 3298 2862 
Q 3072 2584 2669 2484 
Q 3125 2378 3379 2068 
Q 3634 1759 3634 1313 
Q 3634 634 3220 271 
Q 2806 -91 2034 -91 
Q 1263 -91 848 271 
Q 434 634 434 1313 
Q 434 1759 690 2068 
Q 947 2378 1403 2484 
z
M 1172 3481 
Q 1172 3119 1398 2916 
Q 1625 2713 2034 2713 
Q 2441 2713 2670 2916 
Q 2900 3119 2900 3481 
Q 2900 3844 2670 4047 
Q 2441 4250 2034 4250 
Q 1625 4250 1398 4047 
Q 1172 3844 1172 3481 
z
" transform="scale(0.015625)"/>
       </defs>
       <use xlink:href="#DejaVuSans-38"/>
       <use xlink:href="#DejaVuSans-30" x="63.623047"/>
       <use xlink:href="#DejaVuSans-30" x="127.246094"/>
      </g>
     </g>
    </g>
    <g id="xtick_6">
     <g id="line2d_6">
      <g>
       <use xlink:href="#m37ca0dceec" x="346.506818" y="228.96" style="stroke: #000000; stroke-width: 0.8"/>
      </g>
     </g>
     <g id="text_6">
      <!-- 1000 -->
      <g transform="translate(333.781818 243.558437) scale(0.1 -0.1)">
       <defs>
        <path id="DejaVuSans-31" d="M 794 531 
L 1825 531 
L 1825 4091 
L 703 3866 
L 703 4441 
L 1819 4666 
L 2450 4666 
L 2450 531 
L 3481 531 
L 3481 0 
L 794 0 
L 794 531 
z
" transform="scale(0.015625)"/>
       </defs>
       <use xlink:href="#DejaVuSans-31"/>
       <use xlink:href="#DejaVuSans-30" x="63.623047"/>
       <use xlink:href="#DejaVuSans-30" x="127.246094"/>
       <use xlink:href="#DejaVuSans-30" x="190.869141"/>
      </g>
     </g>
    </g>
   </g>
   <g id="matplotlib.axis_2">
    <g id="ytick_1">
     <g id="line2d_7">
      <defs>
       <path id="mdd9fe145f8" d="M 0 0 
L -3.5 0 
" style="stroke: #000000; stroke-width: 0.8"/>
      </defs>
      <g>
       <use xlink:href="#mdd9fe145f8" x="26.925" y="218.88" style="stroke: #000000; stroke-width: 0.8"/>
      </g>
     </g>
     <g id="text_7">
      <!-- 0 -->
      <g transform="translate(13.5625 222.679219) scale(0.1 -0.1)">
       <use xlink:href="#DejaVuSans-30"/>
      </g>
     </g>
    </g>
    <g id="ytick_2">
     <g id="line2d_8">
      <g>
       <use xlink:href="#mdd9fe145f8" x="26.925" y="189.247768" style="stroke: #000000; stroke-width: 0.8"/>
      </g>
     </g>
     <g id="text_8">
      <!-- 2 -->
      <g transform="translate(13.5625 193.046987) scale(0.1 -0.1)">
       <use xlink:href="#DejaVuSans-32"/>
      </g>
     </g>
    </g>
    <g id="ytick_3">
     <g id="line2d_9">
      <g>
       <use xlink:href="#mdd9fe145f8" x="26.925" y="159.615536" style="stroke: #000000; stroke-width: 0.8"/>
      </g>
     </g>
     <g id="text_9">
      <!-- 4 -->
      <g transform="translate(13.5625 163.414754) scale(0.1 -0.1)">
       <use xlink:href="#DejaVuSans-34"/>
      </g>
     </g>
    </g>
    <g id="ytick_4">
     <g id="line2d_10">
      <g>
       <use xlink:href="#mdd9fe145f8" x="26.925" y="129.983304" style="stroke: #000000; stroke-width: 0.8"/>
      </g>
     </g>
     <g id="text_10">
      <!-- 6 -->
      <g transform="translate(13.5625 133.782522) scale(0.1 -0.1)">
       <use xlink:href="#DejaVuSans-36"/>
      </g>
     </g>
    </g>
    <g id="ytick_5">
     <g id="line2d_11">
      <g>
       <use xlink:href="#mdd9fe145f8" x="26.925" y="100.351071" style="stroke: #000000; stroke-width: 0.8"/>
      </g>
     </g>
     <g id="text_11">
      <!-- 8 -->
      <g transform="translate(13.5625 104.15029) scale(0.1 -0.1)">
       <use xlink:href="#DejaVuSans-38"/>
      </g>
     </g>
    </g>
    <g id="ytick_6">
     <g id="line2d_12">
      <g>
       <use xlink:href="#mdd9fe145f8" x="26.925" y="70.718839" style="stroke: #000000; stroke-width: 0.8"/>
      </g>
     </g>
     <g id="text_12">
      <!-- 10 -->
      <g transform="translate(7.2 74.518058) scale(0.1 -0.1)">
       <use xlink:href="#DejaVuSans-31"/>
       <use xlink:href="#DejaVuSans-30" x="63.623047"/>
      </g>
     </g>
    </g>
    <g id="ytick_7">
     <g id="line2d_13">
      <g>
       <use xlink:href="#mdd9fe145f8" x="26.925" y="41.086607" style="stroke: #000000; stroke-width: 0.8"/>
      </g>
     </g>
     <g id="text_13">
      <!-- 12 -->
      <g transform="translate(7.2 44.885826) scale(0.1 -0.1)">
       <use xlink:href="#DejaVuSans-31"/>
       <use xlink:href="#DejaVuSans-32" x="63.623047"/>
      </g>
     </g>
    </g>
    <g id="ytick_8">
     <g id="line2d_14">
      <g>
       <use xlink:href="#mdd9fe145f8" x="26.925" y="11.454375" style="stroke: #000000; stroke-width: 0.8"/>
      </g>
     </g>
     <g id="text_14">
      <!-- 14 -->
      <g transform="translate(7.2 15.253594) scale(0.1 -0.1)">
       <use xlink:href="#DejaVuSans-31"/>
       <use xlink:href="#DejaVuSans-34" x="63.623047"/>
      </g>
     </g>
    </g>
   </g>
   <g id="line2d_15">
    <path d="M 42.143182 201.068829 
L 42.447545 157.298942 
L 42.751909 141.224289 
L 43.056273 141.224289 
L 43.360636 97.705163 
L 43.665 97.705163 
L 43.969364 89.607841 
L 44.273727 89.607841 
L 44.578091 90.925949 
L 45.491182 90.925949 
L 45.795545 88.259001 
L 46.099909 88.259001 
L 46.404273 83.157936 
L 46.708636 83.157936 
L 47.013 76.065777 
L 49.143545 76.020505 
L 49.447909 75.680261 
L 57.361364 75.680261 
L 57.665727 44.163459 
L 57.970091 44.163459 
L 58.274455 49.881373 
L 58.578818 49.881373 
L 58.883182 52.373409 
L 59.796273 52.373409 
L 60.100636 50.576896 
L 75.014455 50.576896 
L 75.318818 43.372843 
L 93.276273 43.372843 
L 93.580636 34.239316 
L 93.885 34.239316 
L 94.189364 34.635896 
L 104.537727 34.635896 
L 104.842091 22.810342 
L 105.146455 22.810342 
L 105.450818 26.33399 
L 223.848273 26.33399 
L 224.152636 17.28 
L 224.457 17.28 
L 224.761364 17.80208 
L 346.506818 17.80208 
L 346.506818 17.80208 
" clip-path="url(#pcb99b07c56)" style="fill: none; stroke: #1f77b4; stroke-width: 1.5; stroke-linecap: square"/>
   </g>
   <g id="line2d_16">
    <path d="M 42.143182 198.529409 
L 42.447545 200.788473 
L 42.751909 200.788473 
L 43.665 197.835347 
L 43.969364 197.939925 
L 44.273727 196.474428 
L 44.882455 196.55958 
L 45.186818 197.234621 
L 45.491182 197.234621 
L 45.795545 197.756324 
L 46.099909 195.465272 
L 46.404273 195.70691 
L 46.708636 197.908808 
L 47.013 197.344442 
L 47.621727 198.050733 
L 47.926091 199.652673 
L 48.230455 198.574659 
L 48.534818 198.091814 
L 48.839182 198.770723 
L 49.447909 198.668409 
L 49.752273 199.160087 
L 50.056636 199.160087 
L 50.361 199.290679 
L 50.665364 199.139112 
L 50.969727 199.139112 
L 51.274091 198.6576 
L 51.578455 198.644508 
L 51.882818 198.981825 
L 52.187182 198.945237 
L 52.491545 198.794574 
L 54.926455 198.705217 
L 55.230818 198.646183 
L 55.535182 198.349433 
L 55.839545 198.349433 
L 56.143909 198.621044 
L 56.448273 198.357278 
L 56.752636 198.501249 
L 57.057 198.407907 
L 57.665727 198.4308 
L 57.970091 197.96493 
L 58.274455 198.384377 
L 58.883182 198.286701 
L 59.187545 198.041749 
L 60.100636 197.827861 
L 61.622455 197.747996 
L 61.926818 197.673563 
L 62.231182 197.29075 
L 62.839909 197.176217 
L 63.448636 197.077288 
L 64.057364 196.923431 
L 65.579182 196.748835 
L 65.883545 196.399063 
L 66.187909 196.724108 
L 66.796636 196.686267 
L 67.101 196.397683 
L 67.709727 196.36315 
L 68.014091 196.026662 
L 70.144636 195.90113 
L 70.753364 195.873921 
L 71.057727 195.796017 
L 71.362091 195.922876 
L 71.970818 195.863696 
L 72.579545 195.813861 
L 73.188273 195.64402 
L 73.492636 195.389115 
L 73.797 195.576075 
L 74.101364 195.548562 
L 74.405727 195.060403 
L 74.710091 194.948394 
L 75.014455 195.578974 
L 75.318818 194.840727 
L 75.623182 195.008914 
L 75.927545 194.960745 
L 76.231909 194.418034 
L 76.536273 194.978008 
L 76.840636 195.134909 
L 77.145 194.766023 
L 77.449364 194.758332 
L 77.753727 194.107447 
L 78.058091 193.948478 
L 78.362455 193.948478 
L 78.666818 194.468438 
L 79.579909 193.425893 
L 81.710455 193.40978 
L 82.014818 193.035577 
L 82.927909 192.936102 
L 83.232273 192.812372 
L 84.145364 192.842863 
L 84.754091 192.849712 
L 85.058455 192.192624 
L 85.362818 192.72095 
L 85.667182 192.741371 
L 86.275909 192.645652 
L 86.580273 192.193827 
L 87.189 192.082214 
L 87.493364 191.915896 
L 88.710818 191.770094 
L 89.015182 191.536922 
L 89.928273 191.500855 
L 90.232636 191.329988 
L 91.450091 191.22695 
L 91.754455 190.820692 
L 92.363182 190.738633 
L 92.667545 191.065065 
L 92.971909 191.135618 
L 93.276273 191.082386 
L 93.580636 190.685928 
L 94.493727 191.402833 
L 94.798091 191.348369 
L 95.102455 190.417405 
L 95.406818 190.820246 
L 95.711182 190.766969 
L 96.015545 191.015126 
L 96.624273 191.015126 
L 96.928636 190.03874 
L 97.537364 190.988658 
L 97.841727 190.557001 
L 98.146091 190.557001 
L 98.450455 190.924648 
L 99.363545 190.746334 
L 99.667909 190.824106 
L 99.972273 190.626623 
L 100.276636 190.613934 
L 100.885364 189.052959 
L 101.189727 190.518421 
L 101.494091 189.549851 
L 101.798455 190.581552 
L 102.102818 190.06683 
L 102.407182 190.581552 
L 102.711545 190.669644 
L 103.015909 189.454103 
L 103.320273 189.54112 
L 103.624636 190.021414 
L 103.929 190.021414 
L 104.537727 189.525535 
L 104.842091 190.03551 
L 105.146455 189.427554 
L 105.450818 189.89425 
L 106.363909 189.827857 
L 106.668273 189.301573 
L 106.972636 189.443785 
L 107.581364 189.274541 
L 107.885727 189.645543 
L 108.190091 189.645543 
L 108.494455 189.046984 
L 108.798818 188.957772 
L 109.103182 189.560971 
L 109.407545 188.67874 
L 109.711909 188.67874 
L 110.016273 189.053324 
L 110.320636 189.053324 
L 110.625 188.540776 
L 110.929364 188.807645 
L 111.842455 188.644139 
L 112.146818 188.199379 
L 112.451182 188.890057 
L 113.364273 187.982866 
L 113.668636 187.982866 
L 113.973 187.759227 
L 114.277364 187.975523 
L 114.581727 187.96108 
L 114.886091 188.135538 
L 115.190455 188.1548 
L 115.494818 187.815013 
L 115.799182 187.2685 
L 116.103545 187.970568 
L 116.407909 187.205864 
L 117.929727 186.969503 
L 118.234091 186.969503 
L 118.538455 186.256589 
L 118.842818 186.829998 
L 119.147182 186.735524 
L 119.451545 186.794487 
L 120.364636 186.514869 
L 121.277727 186.601248 
L 121.582091 186.724961 
L 121.886455 186.68778 
L 122.495182 186.413364 
L 123.712636 186.33022 
L 124.017 186.230824 
L 124.321364 185.683901 
L 124.625727 186.084952 
L 126.451909 186.077341 
L 126.756273 185.532967 
L 127.060636 185.532967 
L 127.365 184.773405 
L 127.669364 185.474167 
L 127.973727 185.474167 
L 128.278091 185.287563 
L 128.582455 185.240096 
L 128.886818 185.677896 
L 129.191182 185.677896 
L 129.495545 185.52005 
L 130.713 185.459379 
L 131.930455 184.999545 
L 132.539182 185.024501 
L 132.843545 184.448756 
L 133.147909 184.985974 
L 133.452273 184.835574 
L 133.756636 184.835574 
L 134.061 184.381201 
L 134.669727 184.736688 
L 134.974091 184.592457 
L 135.582818 184.579788 
L 135.887182 184.480382 
L 136.191545 184.579788 
L 136.800273 184.560294 
L 137.104636 184.081568 
L 137.409 184.534504 
L 137.713364 183.594976 
L 138.017727 184.486062 
L 138.322091 183.513184 
L 138.930818 183.518851 
L 139.235182 183.131053 
L 139.843909 182.990243 
L 140.148273 183.050289 
L 140.452636 182.923165 
L 140.757 182.923165 
L 141.061364 182.466947 
L 141.365727 182.63345 
L 141.670091 182.63345 
L 141.974455 182.371047 
L 142.278818 182.63345 
L 142.583182 182.459251 
L 142.887545 182.78871 
L 143.191909 182.375042 
L 143.496273 182.179784 
L 143.800636 182.375042 
L 144.105 182.211331 
L 144.713727 182.116187 
L 145.018091 182.094469 
L 145.322455 182.476576 
L 146.235545 182.374618 
L 146.539909 181.444258 
L 146.844273 181.368466 
L 147.148636 180.742619 
L 147.453 180.490964 
L 147.757364 181.512098 
L 148.061727 180.525291 
L 148.366091 181.438651 
L 148.670455 180.779906 
L 150.192273 180.653053 
L 150.496636 180.653053 
L 150.801 180.442476 
L 151.714091 180.33201 
L 152.627182 180.27033 
L 152.931545 180.089614 
L 153.235909 180.270461 
L 153.540273 180.077358 
L 153.844636 180.192503 
L 154.757727 179.827126 
L 155.062091 179.215477 
L 155.366455 179.415773 
L 155.670818 179.355867 
L 155.975182 179.680915 
L 156.583909 179.68117 
L 156.888273 179.305689 
L 157.192636 179.426468 
L 157.497 179.229228 
L 157.801364 179.430115 
L 158.105727 178.416996 
L 158.410091 178.416996 
L 158.714455 178.814475 
L 159.018818 178.927992 
L 159.323182 178.657065 
L 159.931909 178.583765 
L 160.236273 178.398977 
L 160.540636 178.612247 
L 160.845 178.602033 
L 161.149364 178.092165 
L 161.453727 178.535444 
L 161.758091 178.323399 
L 162.062455 178.351081 
L 162.671182 177.733492 
L 162.975545 177.804694 
L 163.279909 177.718057 
L 163.888636 177.804694 
L 164.801727 177.804694 
L 165.106091 177.594492 
L 167.541 177.324016 
L 167.845364 176.756285 
L 168.149727 177.324016 
L 168.758455 175.978449 
L 169.062818 175.978449 
L 169.367182 176.713066 
L 169.671545 176.629161 
L 169.975909 176.753336 
L 170.584636 176.745512 
L 170.889 176.364284 
L 171.497727 176.29562 
L 171.802091 175.942212 
L 172.106455 176.329122 
L 172.715182 176.212646 
L 173.019545 176.212646 
L 173.323909 175.799189 
L 173.628273 176.30496 
L 173.932636 176.080342 
L 174.541364 176.037063 
L 174.845727 175.648941 
L 175.150091 174.450188 
L 175.454455 176.15535 
L 176.367545 176.20758 
L 176.671909 175.801945 
L 177.280636 175.792852 
L 177.585 175.993212 
L 177.889364 175.80391 
L 178.193727 175.48173 
L 179.106818 175.561189 
L 179.411182 175.769357 
L 179.715545 175.489623 
L 180.019909 174.909675 
L 180.324273 174.691898 
L 180.628636 174.691898 
L 180.933 174.825945 
L 181.237364 174.277775 
L 181.541727 174.911737 
L 181.846091 174.494591 
L 182.150455 174.80224 
L 182.454818 174.80224 
L 182.759182 174.426614 
L 183.063545 174.852445 
L 183.367909 173.729271 
L 183.672273 175.111798 
L 184.281 175.094461 
L 184.585364 174.901453 
L 184.889727 174.369148 
L 185.498455 174.197376 
L 185.802818 173.270019 
L 186.107182 174.027572 
L 186.715909 173.922726 
L 187.324636 173.92292 
L 187.629 173.92292 
L 187.933364 173.778253 
L 188.237727 173.107489 
L 188.542091 173.643022 
L 188.846455 173.643022 
L 189.150818 174.242082 
L 189.455182 173.036256 
L 189.759545 173.58988 
L 190.063909 173.58988 
L 190.368273 173.895794 
L 190.672636 173.225638 
L 191.585727 173.072846 
L 191.890091 173.225638 
L 192.194455 172.869786 
L 192.498818 173.07444 
L 193.107545 173.002765 
L 193.411909 172.506273 
L 194.020636 172.970994 
L 194.629364 172.931807 
L 194.933727 172.678345 
L 195.542455 172.608434 
L 195.846818 172.792425 
L 196.151182 172.611875 
L 196.455545 172.602864 
L 196.759909 172.472515 
L 197.064273 172.538302 
L 197.977364 172.247854 
L 199.194818 172.1723 
L 199.499182 171.585092 
L 199.803545 171.585092 
L 200.107909 172.122262 
L 201.021 171.829825 
L 201.629727 171.771806 
L 202.847182 171.405306 
L 204.064636 171.31843 
L 204.673364 171.224224 
L 204.977727 170.907932 
L 205.282091 170.850907 
L 205.890818 170.940634 
L 206.195182 170.831627 
L 206.499545 171.379544 
L 206.803909 170.683557 
L 207.108273 170.319631 
L 207.412636 170.173315 
L 207.717 170.694564 
L 208.021364 170.498393 
L 208.325727 170.160738 
L 208.630091 169.634661 
L 208.934455 170.586772 
L 209.847545 170.399039 
L 210.151909 170.617353 
L 210.760636 170.514151 
L 211.065 170.425945 
L 211.369364 170.126477 
L 211.978091 170.500089 
L 212.282455 170.445538 
L 212.586818 169.46771 
L 213.195545 169.393156 
L 213.499909 169.041923 
L 213.804273 169.699306 
L 214.108636 169.699306 
L 214.413 168.809193 
L 214.717364 168.696299 
L 215.021727 168.003413 
L 215.934818 168.352635 
L 216.543545 167.823293 
L 217.456636 167.711262 
L 218.674091 167.641428 
L 219.587182 167.593549 
L 219.891545 167.252389 
L 221.413364 167.22391 
L 221.717727 167.6536 
L 222.022091 166.525965 
L 222.630818 166.525965 
L 222.935182 166.287624 
L 223.239545 166.413617 
L 224.152636 166.257851 
L 225.674455 165.928129 
L 225.978818 165.928129 
L 226.283182 165.529157 
L 226.587545 165.827289 
L 226.891909 165.529157 
L 227.196273 165.396638 
L 227.500636 165.037984 
L 227.805 165.063393 
L 228.109364 165.675441 
L 228.413727 165.478998 
L 229.326818 165.388853 
L 229.631182 164.990977 
L 229.935545 164.928431 
L 230.239909 164.548762 
L 230.544273 164.895701 
L 230.848636 164.895701 
L 231.153 164.489897 
L 231.457364 164.507214 
L 231.761727 164.805556 
L 232.066091 164.805556 
L 232.674818 163.974269 
L 232.979182 163.974269 
L 233.283545 164.609006 
L 233.587909 164.030839 
L 233.892273 164.281621 
L 235.109727 164.025238 
L 235.414091 163.454743 
L 235.718455 163.881825 
L 236.327182 163.977376 
L 236.631545 163.319419 
L 236.935909 163.319419 
L 237.240273 163.141822 
L 237.849 163.471613 
L 238.153364 163.260552 
L 238.457727 163.189818 
L 238.762091 163.557886 
L 239.066455 163.087561 
L 239.675182 162.945036 
L 240.588273 162.822627 
L 240.892636 162.376464 
L 241.197 162.328265 
L 241.501364 162.040075 
L 241.805727 162.256235 
L 243.327545 162.051731 
L 243.631909 161.009235 
L 243.936273 161.547571 
L 244.240636 161.049204 
L 244.849364 160.586702 
L 245.153727 160.757715 
L 245.762455 160.757715 
L 246.066818 159.37364 
L 246.371182 159.8024 
L 246.675545 159.700087 
L 246.979909 160.284869 
L 247.284273 160.284869 
L 247.893 159.367977 
L 248.197364 159.753823 
L 248.501727 159.644959 
L 248.806091 159.397365 
L 249.414818 159.397365 
L 249.719182 159.901518 
L 250.023545 160.039875 
L 250.632273 159.982179 
L 250.936636 159.215382 
L 251.241 159.008772 
L 251.545364 159.842542 
L 251.849727 159.724966 
L 252.154091 159.896549 
L 252.458455 159.896549 
L 252.762818 159.683965 
L 253.067182 159.683965 
L 253.371545 159.540351 
L 253.675909 159.804396 
L 253.980273 159.716853 
L 254.284636 158.912043 
L 254.589 159.487239 
L 254.893364 157.532388 
L 255.197727 159.016527 
L 256.110818 158.955865 
L 256.415182 158.101518 
L 256.719545 157.71468 
L 257.023909 158.020708 
L 257.328273 159.004308 
L 257.632636 157.63387 
L 257.937 157.63169 
L 258.241364 156.994904 
L 258.545727 157.978504 
L 259.458818 157.909227 
L 259.763182 156.859818 
L 260.067545 156.74979 
L 260.371909 155.926259 
L 260.676273 155.804119 
L 260.980636 155.871563 
L 261.285 156.609644 
L 261.589364 155.74616 
L 261.893727 156.568532 
L 262.198091 156.568532 
L 262.806818 155.436205 
L 263.111182 156.299241 
L 263.415545 156.341353 
L 263.719909 156.251857 
L 264.024273 157.463107 
L 264.328636 155.676856 
L 264.633 156.888107 
L 264.937364 156.478514 
L 265.546091 156.374958 
L 265.850455 156.374958 
L 266.154818 155.805772 
L 266.763545 155.702216 
L 267.067909 156.18356 
L 267.372273 155.491508 
L 267.676636 155.491508 
L 267.981 156.17762 
L 268.285364 155.519252 
L 268.589727 155.397148 
L 268.894091 155.944414 
L 269.198455 154.872515 
L 270.111545 154.770207 
L 270.415909 154.643957 
L 271.633364 154.610018 
L 271.937727 154.482974 
L 272.242091 154.595977 
L 272.546455 154.197443 
L 272.850818 155.226882 
L 273.459545 153.983192 
L 273.763909 153.983192 
L 274.068273 153.441547 
L 274.372636 153.320397 
L 274.677 152.114882 
L 274.981364 153.35369 
L 275.590091 153.136256 
L 275.894455 152.649022 
L 276.503182 152.649022 
L 276.807545 152.504705 
L 277.416273 152.537888 
L 277.720636 152.340565 
L 278.329364 152.27648 
L 278.633727 153.124364 
L 278.938091 152.433971 
L 279.242455 151.377842 
L 279.546818 151.689897 
L 279.851182 152.543619 
L 280.155545 152.019815 
L 280.459909 151.741398 
L 280.764273 151.741398 
L 281.068636 154.275197 
L 281.373 151.308959 
L 281.677364 153.13735 
L 282.286091 153.13735 
L 282.590455 151.257479 
L 282.894818 151.608257 
L 283.199182 151.608257 
L 283.503545 151.446817 
L 285.025364 151.417447 
L 285.329727 151.865973 
L 285.634091 151.891353 
L 285.938455 151.434264 
L 286.242818 150.540812 
L 286.547182 151.317848 
L 286.851545 150.456199 
L 287.155909 150.264995 
L 287.460273 150.264995 
L 287.764636 151.118495 
L 288.069 150.904462 
L 288.373364 150.160391 
L 288.677727 150.942649 
L 289.590818 150.558926 
L 289.895182 149.634119 
L 290.503909 149.721137 
L 290.808273 148.712874 
L 291.112636 149.479633 
L 291.417 149.515457 
L 291.721364 148.500316 
L 292.330091 148.500316 
L 292.634455 149.254899 
L 293.243182 149.178437 
L 293.547545 149.178437 
L 293.851909 148.188961 
L 294.156273 148.375789 
L 294.765 148.375789 
L 295.069364 148.827312 
L 295.373727 147.908674 
L 295.678091 148.827312 
L 295.982455 148.827312 
L 296.286818 148.078778 
L 296.895545 148.303667 
L 299.026091 148.24853 
L 299.330455 147.409642 
L 299.634818 147.186008 
L 299.939182 147.186008 
L 300.243545 147.35983 
L 300.547909 146.998456 
L 300.852273 147.233549 
L 301.461 146.917994 
L 302.069727 146.827974 
L 302.374091 146.970075 
L 302.982818 146.926844 
L 303.591545 146.457289 
L 303.895909 146.910123 
L 304.200273 146.910123 
L 304.809 146.376195 
L 305.722091 146.214524 
L 306.026455 146.363812 
L 306.330818 147.246288 
L 306.635182 147.041051 
L 307.548273 147.149899 
L 307.852636 147.167209 
L 308.157 146.916064 
L 308.461364 146.032025 
L 308.765727 146.916064 
L 309.070091 146.916064 
L 309.374455 146.564187 
L 309.678818 146.564187 
L 309.983182 145.110119 
L 310.287545 144.779895 
L 310.591909 146.336485 
L 310.896273 146.336485 
L 311.200636 145.413864 
L 311.505 145.908641 
L 312.722455 145.801524 
L 313.026818 145.345274 
L 313.331182 145.960604 
L 313.635545 145.378226 
L 313.939909 145.15289 
L 314.244273 144.185078 
L 314.548636 145.027718 
L 314.853 144.185078 
L 315.157364 144.060874 
L 316.070455 144.426239 
L 316.374818 143.503421 
L 316.679182 143.503421 
L 316.983545 143.652984 
L 317.287909 143.503421 
L 317.592273 143.503421 
L 317.896636 143.740023 
L 318.505364 143.841135 
L 319.418455 143.841135 
L 319.722818 143.216558 
L 320.027182 143.73238 
L 320.331545 143.179524 
L 320.635909 143.945566 
L 321.244636 143.945566 
L 321.549 143.659562 
L 321.853364 143.659562 
L 322.157727 144.232183 
L 322.462091 143.972927 
L 323.070818 143.902021 
L 323.375182 142.991572 
L 323.679545 143.004214 
L 323.983909 142.752532 
L 324.592636 143.22006 
L 326.114455 143.11911 
L 326.418818 142.907932 
L 327.027545 142.907932 
L 327.940636 142.506746 
L 328.245 142.785177 
L 328.549364 143.689061 
L 328.853727 142.052569 
L 329.158091 142.443988 
L 329.462455 142.620989 
L 330.071182 142.525347 
L 330.679909 142.11843 
L 331.288636 142.633888 
L 331.593 142.633888 
L 331.897364 143.245427 
L 332.201727 143.245427 
L 332.506091 142.353407 
L 332.810455 143.245427 
L 333.114818 143.245427 
L 333.419182 142.808947 
L 333.723545 143.496471 
L 334.027909 143.640051 
L 334.636636 142.931833 
L 334.941 143.530248 
L 335.245364 143.530248 
L 335.549727 143.194607 
L 335.854091 143.228306 
L 336.158455 142.492824 
L 336.462818 142.391536 
L 336.767182 143.449598 
L 337.071545 142.075719 
L 337.375909 142.075719 
L 337.680273 142.78072 
L 338.289 141.940987 
L 338.897727 141.955607 
L 339.202091 141.858472 
L 339.506455 142.664198 
L 339.810818 142.056417 
L 340.419545 142.056417 
L 341.028273 142.272904 
L 341.332636 142.272904 
L 341.637 141.663724 
L 341.941364 141.533184 
L 342.245727 141.227135 
L 342.550091 141.773769 
L 342.854455 141.339743 
L 343.158818 141.747665 
L 343.463182 141.747665 
L 343.767545 141.563156 
L 344.376273 140.453321 
L 344.680636 141.595757 
L 345.289364 141.595757 
L 345.593727 141.177773 
L 345.898091 141.177773 
L 346.202455 141.445827 
L 346.506818 141.445827 
L 346.506818 141.445827 
" clip-path="url(#pcb99b07c56)" style="fill: none; stroke: #ff7f0e; stroke-width: 1.5; stroke-linecap: square"/>
   </g>
   <g id="line2d_17">
    <path d="M 42.143182 203.183856 
L 42.447545 203.60958 
L 43.056273 202.879502 
L 43.360636 203.064765 
L 43.665 201.407697 
L 43.969364 200.925456 
L 44.882455 200.880617 
L 45.186818 201.228097 
L 45.491182 201.160261 
L 45.795545 202.434577 
L 46.099909 202.654057 
L 46.404273 201.630514 
L 46.708636 202.064989 
L 47.317364 202.179265 
L 47.621727 201.994478 
L 47.926091 202.258143 
L 48.534818 202.248434 
L 48.839182 202.445309 
L 49.143545 201.635979 
L 49.447909 201.635979 
L 49.752273 199.694906 
L 50.056636 199.732497 
L 50.361 201.547274 
L 50.665364 202.410812 
L 50.969727 202.38902 
L 51.274091 203.067691 
L 51.882818 203.615648 
L 52.491545 203.566123 
L 53.100273 203.479161 
L 53.404636 203.819266 
L 53.709 203.819266 
L 54.013364 202.86036 
L 54.317727 202.86036 
L 54.622091 203.042551 
L 54.926455 203.631172 
L 55.535182 204.299163 
L 56.143909 203.863297 
L 56.752636 204.134303 
L 57.057 203.614832 
L 57.361364 203.7021 
L 57.665727 203.444454 
L 58.578818 203.444454 
L 58.883182 203.131789 
L 59.187545 204.168537 
L 59.491909 204.168537 
L 59.796273 204.668136 
L 60.100636 203.733182 
L 60.405 204.061941 
L 60.709364 204.145792 
L 61.013727 203.965133 
L 63.753 203.965133 
L 64.057364 203.777057 
L 64.361727 203.94053 
L 64.970455 203.508617 
L 65.579182 203.508617 
L 66.187909 203.873708 
L 66.492273 203.216142 
L 66.796636 203.88002 
L 67.405364 203.966329 
L 68.014091 204.548722 
L 68.622818 204.51395 
L 68.927182 204.074816 
L 69.535909 204.154278 
L 69.840273 203.706078 
L 70.144636 204.363328 
L 70.753364 204.162201 
L 71.057727 203.90231 
L 71.362091 203.90231 
L 71.666455 204.127543 
L 71.970818 204.127543 
L 72.275182 203.96003 
L 72.579545 204.51051 
L 72.883909 204.388549 
L 73.188273 203.82075 
L 73.492636 204.006584 
L 73.797 204.378681 
L 74.710091 204.378681 
L 75.014455 203.755308 
L 75.318818 204.477669 
L 77.145 204.477669 
L 77.449364 203.471071 
L 78.058091 203.37107 
L 78.362455 203.37107 
L 78.666818 204.396031 
L 79.275545 204.396031 
L 79.579909 202.646936 
L 79.884273 202.752098 
L 80.188636 203.112849 
L 81.101727 203.112849 
L 81.406091 203.340315 
L 82.014818 203.340315 
L 82.623545 204.131706 
L 82.927909 204.363425 
L 84.145364 204.327652 
L 84.449727 203.531264 
L 84.754091 203.595771 
L 85.058455 204.211366 
L 87.797727 204.211366 
L 88.102091 204.04488 
L 88.406455 204.04488 
L 88.710818 202.284232 
L 89.015182 202.284232 
L 89.319545 202.095715 
L 89.623909 202.184536 
L 90.232636 202.068125 
L 90.537 203.460085 
L 90.841364 203.806086 
L 94.189364 203.729923 
L 94.493727 203.979968 
L 94.798091 203.317388 
L 95.711182 203.347016 
L 96.015545 202.774643 
L 96.624273 202.572253 
L 97.537364 202.62374 
L 97.841727 201.90151 
L 98.450455 201.995045 
L 98.754818 201.995045 
L 99.059182 202.660243 
L 99.363545 202.660243 
L 99.667909 202.178228 
L 100.885364 202.275937 
L 101.494091 203.664161 
L 102.407182 203.569738 
L 102.711545 203.88196 
L 103.015909 204.030363 
L 103.929 204.054532 
L 104.233364 203.026363 
L 104.842091 202.915298 
L 106.668273 202.895511 
L 106.972636 202.209478 
L 107.277 202.209478 
L 107.581364 202.627524 
L 107.885727 202.464569 
L 108.494455 202.551285 
L 108.798818 202.587597 
L 109.103182 202.442721 
L 109.407545 201.853728 
L 110.016273 201.868632 
L 110.320636 201.868632 
L 110.625 201.709508 
L 110.929364 202.213935 
L 111.233727 202.366759 
L 115.799182 202.279655 
L 116.103545 203.196611 
L 116.407909 203.196611 
L 117.016636 204.111215 
L 119.755909 204.039252 
L 120.060273 204.232855 
L 120.364636 204.589795 
L 120.669 204.589795 
L 120.973364 204.42125 
L 121.277727 203.904036 
L 123.712636 203.809081 
L 124.017 203.656224 
L 124.930091 203.690301 
L 127.669364 203.825077 
L 127.973727 204.272337 
L 128.278091 204.272337 
L 128.582455 203.819063 
L 131.017364 203.835395 
L 131.321727 204.296601 
L 131.930455 204.308869 
L 132.843545 204.308869 
L 133.147909 204.511615 
L 137.104636 204.594688 
L 137.409 204.840036 
L 140.148273 204.936142 
L 140.452636 205.224981 
L 141.365727 205.102041 
L 142.278818 205.102041 
L 142.583182 205.38976 
L 146.235545 205.472418 
L 146.539909 204.630361 
L 146.844273 204.630805 
L 147.148636 204.886933 
L 147.453 204.886933 
L 147.757364 204.734192 
L 148.061727 204.766384 
L 148.366091 204.591048 
L 150.801 204.537459 
L 151.409727 204.436121 
L 151.714091 203.984655 
L 152.322818 203.984655 
L 152.627182 204.360569 
L 153.235909 204.372886 
L 153.844636 204.849899 
L 154.453364 204.849899 
L 154.757727 205.080225 
L 157.801364 205.021426 
L 158.105727 204.881337 
L 161.149364 204.845212 
L 161.453727 204.715786 
L 164.497364 204.750124 
L 164.801727 204.354441 
L 167.236636 204.346995 
L 167.541 203.97259 
L 169.062818 203.969798 
L 169.367182 203.813225 
L 170.280273 203.892286 
L 170.584636 204.438098 
L 177.889364 204.392523 
L 178.193727 203.855469 
L 178.498091 203.855469 
L 178.802455 203.493123 
L 179.411182 203.605272 
L 180.019909 203.505821 
L 183.063545 203.48164 
L 183.367909 203.977744 
L 185.498455 203.996942 
L 185.802818 203.828532 
L 190.672636 203.740655 
L 191.585727 203.696988 
L 194.020636 203.611416 
L 194.629364 203.514605 
L 196.455545 203.593919 
L 197.064273 203.667248 
L 197.977364 203.690436 
L 198.586091 203.63115 
L 201.021 203.576432 
L 201.325364 204.041116 
L 203.455909 203.94907 
L 204.369 203.894206 
L 208.934455 203.912297 
L 209.238818 203.764852 
L 210.760636 203.80148 
L 211.369364 203.881912 
L 219.587182 203.880162 
L 219.891545 203.456274 
L 220.804636 203.456274 
L 221.413364 203.570364 
L 222.326455 203.53372 
L 223.239545 203.656781 
L 223.848273 203.656781 
L 224.152636 203.779987 
L 238.457727 203.713232 
L 238.762091 204.217905 
L 248.197364 204.151727 
L 248.501727 204.34889 
L 248.806091 204.34889 
L 249.110455 204.628838 
L 251.545364 204.628838 
L 251.849727 218.88 
L 346.506818 218.88 
L 346.506818 218.88 
" clip-path="url(#pcb99b07c56)" style="fill: none; stroke: #2ca02c; stroke-width: 1.5; stroke-linecap: square"/>
   </g>
   <g id="patch_3">
    <path d="M 26.925 228.96 
L 26.925 7.2 
" style="fill: none; stroke: #000000; stroke-width: 0.8; stroke-linejoin: miter; stroke-linecap: square"/>
   </g>
   <g id="patch_4">
    <path d="M 361.725 228.96 
L 361.725 7.2 
" style="fill: none; stroke: #000000; stroke-width: 0.8; stroke-linejoin: miter; stroke-linecap: square"/>
   </g>
   <g id="patch_5">
    <path d="M 26.925 228.96 
L 361.725 228.96 
" style="fill: none; stroke: #000000; stroke-width: 0.8; stroke-linejoin: miter; stroke-linecap: square"/>
   </g>
   <g id="patch_6">
    <path d="M 26.925 7.2 
L 361.725 7.2 
" style="fill: none; stroke: #000000; stroke-width: 0.8; stroke-linejoin: miter; stroke-linecap: square"/>
   </g>
   <g id="legend_1">
    <g id="patch_7">
     <path d="M 105.916406 141.597187 
L 282.733594 141.597187 
Q 284.733594 141.597187 284.733594 139.597187 
L 284.733594 96.562812 
Q 284.733594 94.562812 282.733594 94.562812 
L 105.916406 94.562812 
Q 103.916406 94.562812 103.916406 96.562812 
L 103.916406 139.597187 
Q 103.916406 141.597187 105.916406 141.597187 
z
" style="fill: #ffffff; opacity: 0.8; stroke: #cccccc; stroke-linejoin: miter"/>
    </g>
    <g id="line2d_18">
     <path d="M 107.916406 102.66125 
L 117.916406 102.66125 
L 127.916406 102.66125 
" style="fill: none; stroke: #1f77b4; stroke-width: 1.5; stroke-linecap: square"/>
    </g>
    <g id="text_15">
     <!-- PSO node storage proportion -->
     <g transform="translate(135.916406 106.16125) scale(0.1 -0.1)">
      <defs>
       <path id="DejaVuSans-50" d="M 1259 4147 
L 1259 2394 
L 2053 2394 
Q 2494 2394 2734 2622 
Q 2975 2850 2975 3272 
Q 2975 3691 2734 3919 
Q 2494 4147 2053 4147 
L 1259 4147 
z
M 628 4666 
L 2053 4666 
Q 2838 4666 3239 4311 
Q 3641 3956 3641 3272 
Q 3641 2581 3239 2228 
Q 2838 1875 2053 1875 
L 1259 1875 
L 1259 0 
L 628 0 
L 628 4666 
z
" transform="scale(0.015625)"/>
       <path id="DejaVuSans-53" d="M 3425 4513 
L 3425 3897 
Q 3066 4069 2747 4153 
Q 2428 4238 2131 4238 
Q 1616 4238 1336 4038 
Q 1056 3838 1056 3469 
Q 1056 3159 1242 3001 
Q 1428 2844 1947 2747 
L 2328 2669 
Q 3034 2534 3370 2195 
Q 3706 1856 3706 1288 
Q 3706 609 3251 259 
Q 2797 -91 1919 -91 
Q 1588 -91 1214 -16 
Q 841 59 441 206 
L 441 856 
Q 825 641 1194 531 
Q 1563 422 1919 422 
Q 2459 422 2753 634 
Q 3047 847 3047 1241 
Q 3047 1584 2836 1778 
Q 2625 1972 2144 2069 
L 1759 2144 
Q 1053 2284 737 2584 
Q 422 2884 422 3419 
Q 422 4038 858 4394 
Q 1294 4750 2059 4750 
Q 2388 4750 2728 4690 
Q 3069 4631 3425 4513 
z
" transform="scale(0.015625)"/>
       <path id="DejaVuSans-4f" d="M 2522 4238 
Q 1834 4238 1429 3725 
Q 1025 3213 1025 2328 
Q 1025 1447 1429 934 
Q 1834 422 2522 422 
Q 3209 422 3611 934 
Q 4013 1447 4013 2328 
Q 4013 3213 3611 3725 
Q 3209 4238 2522 4238 
z
M 2522 4750 
Q 3503 4750 4090 4092 
Q 4678 3434 4678 2328 
Q 4678 1225 4090 567 
Q 3503 -91 2522 -91 
Q 1538 -91 948 565 
Q 359 1222 359 2328 
Q 359 3434 948 4092 
Q 1538 4750 2522 4750 
z
" transform="scale(0.015625)"/>
       <path id="DejaVuSans-20" transform="scale(0.015625)"/>
       <path id="DejaVuSans-6e" d="M 3513 2113 
L 3513 0 
L 2938 0 
L 2938 2094 
Q 2938 2591 2744 2837 
Q 2550 3084 2163 3084 
Q 1697 3084 1428 2787 
Q 1159 2491 1159 1978 
L 1159 0 
L 581 0 
L 581 3500 
L 1159 3500 
L 1159 2956 
Q 1366 3272 1645 3428 
Q 1925 3584 2291 3584 
Q 2894 3584 3203 3211 
Q 3513 2838 3513 2113 
z
" transform="scale(0.015625)"/>
       <path id="DejaVuSans-6f" d="M 1959 3097 
Q 1497 3097 1228 2736 
Q 959 2375 959 1747 
Q 959 1119 1226 758 
Q 1494 397 1959 397 
Q 2419 397 2687 759 
Q 2956 1122 2956 1747 
Q 2956 2369 2687 2733 
Q 2419 3097 1959 3097 
z
M 1959 3584 
Q 2709 3584 3137 3096 
Q 3566 2609 3566 1747 
Q 3566 888 3137 398 
Q 2709 -91 1959 -91 
Q 1206 -91 779 398 
Q 353 888 353 1747 
Q 353 2609 779 3096 
Q 1206 3584 1959 3584 
z
" transform="scale(0.015625)"/>
       <path id="DejaVuSans-64" d="M 2906 2969 
L 2906 4863 
L 3481 4863 
L 3481 0 
L 2906 0 
L 2906 525 
Q 2725 213 2448 61 
Q 2172 -91 1784 -91 
Q 1150 -91 751 415 
Q 353 922 353 1747 
Q 353 2572 751 3078 
Q 1150 3584 1784 3584 
Q 2172 3584 2448 3432 
Q 2725 3281 2906 2969 
z
M 947 1747 
Q 947 1113 1208 752 
Q 1469 391 1925 391 
Q 2381 391 2643 752 
Q 2906 1113 2906 1747 
Q 2906 2381 2643 2742 
Q 2381 3103 1925 3103 
Q 1469 3103 1208 2742 
Q 947 2381 947 1747 
z
" transform="scale(0.015625)"/>
       <path id="DejaVuSans-65" d="M 3597 1894 
L 3597 1613 
L 953 1613 
Q 991 1019 1311 708 
Q 1631 397 2203 397 
Q 2534 397 2845 478 
Q 3156 559 3463 722 
L 3463 178 
Q 3153 47 2828 -22 
Q 2503 -91 2169 -91 
Q 1331 -91 842 396 
Q 353 884 353 1716 
Q 353 2575 817 3079 
Q 1281 3584 2069 3584 
Q 2775 3584 3186 3129 
Q 3597 2675 3597 1894 
z
M 3022 2063 
Q 3016 2534 2758 2815 
Q 2500 3097 2075 3097 
Q 1594 3097 1305 2825 
Q 1016 2553 972 2059 
L 3022 2063 
z
" transform="scale(0.015625)"/>
       <path id="DejaVuSans-73" d="M 2834 3397 
L 2834 2853 
Q 2591 2978 2328 3040 
Q 2066 3103 1784 3103 
Q 1356 3103 1142 2972 
Q 928 2841 928 2578 
Q 928 2378 1081 2264 
Q 1234 2150 1697 2047 
L 1894 2003 
Q 2506 1872 2764 1633 
Q 3022 1394 3022 966 
Q 3022 478 2636 193 
Q 2250 -91 1575 -91 
Q 1294 -91 989 -36 
Q 684 19 347 128 
L 347 722 
Q 666 556 975 473 
Q 1284 391 1588 391 
Q 1994 391 2212 530 
Q 2431 669 2431 922 
Q 2431 1156 2273 1281 
Q 2116 1406 1581 1522 
L 1381 1569 
Q 847 1681 609 1914 
Q 372 2147 372 2553 
Q 372 3047 722 3315 
Q 1072 3584 1716 3584 
Q 2034 3584 2315 3537 
Q 2597 3491 2834 3397 
z
" transform="scale(0.015625)"/>
       <path id="DejaVuSans-74" d="M 1172 4494 
L 1172 3500 
L 2356 3500 
L 2356 3053 
L 1172 3053 
L 1172 1153 
Q 1172 725 1289 603 
Q 1406 481 1766 481 
L 2356 481 
L 2356 0 
L 1766 0 
Q 1100 0 847 248 
Q 594 497 594 1153 
L 594 3053 
L 172 3053 
L 172 3500 
L 594 3500 
L 594 4494 
L 1172 4494 
z
" transform="scale(0.015625)"/>
       <path id="DejaVuSans-72" d="M 2631 2963 
Q 2534 3019 2420 3045 
Q 2306 3072 2169 3072 
Q 1681 3072 1420 2755 
Q 1159 2438 1159 1844 
L 1159 0 
L 581 0 
L 581 3500 
L 1159 3500 
L 1159 2956 
Q 1341 3275 1631 3429 
Q 1922 3584 2338 3584 
Q 2397 3584 2469 3576 
Q 2541 3569 2628 3553 
L 2631 2963 
z
" transform="scale(0.015625)"/>
       <path id="DejaVuSans-61" d="M 2194 1759 
Q 1497 1759 1228 1600 
Q 959 1441 959 1056 
Q 959 750 1161 570 
Q 1363 391 1709 391 
Q 2188 391 2477 730 
Q 2766 1069 2766 1631 
L 2766 1759 
L 2194 1759 
z
M 3341 1997 
L 3341 0 
L 2766 0 
L 2766 531 
Q 2569 213 2275 61 
Q 1981 -91 1556 -91 
Q 1019 -91 701 211 
Q 384 513 384 1019 
Q 384 1609 779 1909 
Q 1175 2209 1959 2209 
L 2766 2209 
L 2766 2266 
Q 2766 2663 2505 2880 
Q 2244 3097 1772 3097 
Q 1472 3097 1187 3025 
Q 903 2953 641 2809 
L 641 3341 
Q 956 3463 1253 3523 
Q 1550 3584 1831 3584 
Q 2591 3584 2966 3190 
Q 3341 2797 3341 1997 
z
" transform="scale(0.015625)"/>
       <path id="DejaVuSans-67" d="M 2906 1791 
Q 2906 2416 2648 2759 
Q 2391 3103 1925 3103 
Q 1463 3103 1205 2759 
Q 947 2416 947 1791 
Q 947 1169 1205 825 
Q 1463 481 1925 481 
Q 2391 481 2648 825 
Q 2906 1169 2906 1791 
z
M 3481 434 
Q 3481 -459 3084 -895 
Q 2688 -1331 1869 -1331 
Q 1566 -1331 1297 -1286 
Q 1028 -1241 775 -1147 
L 775 -588 
Q 1028 -725 1275 -790 
Q 1522 -856 1778 -856 
Q 2344 -856 2625 -561 
Q 2906 -266 2906 331 
L 2906 616 
Q 2728 306 2450 153 
Q 2172 0 1784 0 
Q 1141 0 747 490 
Q 353 981 353 1791 
Q 353 2603 747 3093 
Q 1141 3584 1784 3584 
Q 2172 3584 2450 3431 
Q 2728 3278 2906 2969 
L 2906 3500 
L 3481 3500 
L 3481 434 
z
" transform="scale(0.015625)"/>
       <path id="DejaVuSans-70" d="M 1159 525 
L 1159 -1331 
L 581 -1331 
L 581 3500 
L 1159 3500 
L 1159 2969 
Q 1341 3281 1617 3432 
Q 1894 3584 2278 3584 
Q 2916 3584 3314 3078 
Q 3713 2572 3713 1747 
Q 3713 922 3314 415 
Q 2916 -91 2278 -91 
Q 1894 -91 1617 61 
Q 1341 213 1159 525 
z
M 3116 1747 
Q 3116 2381 2855 2742 
Q 2594 3103 2138 3103 
Q 1681 3103 1420 2742 
Q 1159 2381 1159 1747 
Q 1159 1113 1420 752 
Q 1681 391 2138 391 
Q 2594 391 2855 752 
Q 3116 1113 3116 1747 
z
" transform="scale(0.015625)"/>
       <path id="DejaVuSans-69" d="M 603 3500 
L 1178 3500 
L 1178 0 
L 603 0 
L 603 3500 
z
M 603 4863 
L 1178 4863 
L 1178 4134 
L 603 4134 
L 603 4863 
z
" transform="scale(0.015625)"/>
      </defs>
      <use xlink:href="#DejaVuSans-50"/>
      <use xlink:href="#DejaVuSans-53" x="60.302734"/>
      <use xlink:href="#DejaVuSans-4f" x="123.779297"/>
      <use xlink:href="#DejaVuSans-20" x="202.490234"/>
      <use xlink:href="#DejaVuSans-6e" x="234.277344"/>
      <use xlink:href="#DejaVuSans-6f" x="297.65625"/>
      <use xlink:href="#DejaVuSans-64" x="358.837891"/>
      <use xlink:href="#DejaVuSans-65" x="422.314453"/>
      <use xlink:href="#DejaVuSans-20" x="483.837891"/>
      <use xlink:href="#DejaVuSans-73" x="515.625"/>
      <use xlink:href="#DejaVuSans-74" x="567.724609"/>
      <use xlink:href="#DejaVuSans-6f" x="606.933594"/>
      <use xlink:href="#DejaVuSans-72" x="668.115234"/>
      <use xlink:href="#DejaVuSans-61" x="709.228516"/>
      <use xlink:href="#DejaVuSans-67" x="770.507812"/>
      <use xlink:href="#DejaVuSans-65" x="833.984375"/>
      <use xlink:href="#DejaVuSans-20" x="895.507812"/>
      <use xlink:href="#DejaVuSans-70" x="927.294922"/>
      <use xlink:href="#DejaVuSans-72" x="990.771484"/>
      <use xlink:href="#DejaVuSans-6f" x="1029.634766"/>
      <use xlink:href="#DejaVuSans-70" x="1090.816406"/>
      <use xlink:href="#DejaVuSans-6f" x="1154.292969"/>
      <use xlink:href="#DejaVuSans-72" x="1215.474609"/>
      <use xlink:href="#DejaVuSans-74" x="1256.587891"/>
      <use xlink:href="#DejaVuSans-69" x="1295.796875"/>
      <use xlink:href="#DejaVuSans-6f" x="1323.580078"/>
      <use xlink:href="#DejaVuSans-6e" x="1384.761719"/>
     </g>
    </g>
    <g id="line2d_19">
     <path d="M 107.916406 117.339375 
L 117.916406 117.339375 
L 127.916406 117.339375 
" style="fill: none; stroke: #ff7f0e; stroke-width: 1.5; stroke-linecap: square"/>
    </g>
    <g id="text_16">
     <!-- GA node storage proportion -->
     <g transform="translate(135.916406 120.839375) scale(0.1 -0.1)">
      <defs>
       <path id="DejaVuSans-47" d="M 3809 666 
L 3809 1919 
L 2778 1919 
L 2778 2438 
L 4434 2438 
L 4434 434 
Q 4069 175 3628 42 
Q 3188 -91 2688 -91 
Q 1594 -91 976 548 
Q 359 1188 359 2328 
Q 359 3472 976 4111 
Q 1594 4750 2688 4750 
Q 3144 4750 3555 4637 
Q 3966 4525 4313 4306 
L 4313 3634 
Q 3963 3931 3569 4081 
Q 3175 4231 2741 4231 
Q 1884 4231 1454 3753 
Q 1025 3275 1025 2328 
Q 1025 1384 1454 906 
Q 1884 428 2741 428 
Q 3075 428 3337 486 
Q 3600 544 3809 666 
z
" transform="scale(0.015625)"/>
       <path id="DejaVuSans-41" d="M 2188 4044 
L 1331 1722 
L 3047 1722 
L 2188 4044 
z
M 1831 4666 
L 2547 4666 
L 4325 0 
L 3669 0 
L 3244 1197 
L 1141 1197 
L 716 0 
L 50 0 
L 1831 4666 
z
" transform="scale(0.015625)"/>
      </defs>
      <use xlink:href="#DejaVuSans-47"/>
      <use xlink:href="#DejaVuSans-41" x="77.490234"/>
      <use xlink:href="#DejaVuSans-20" x="145.898438"/>
      <use xlink:href="#DejaVuSans-6e" x="177.685547"/>
      <use xlink:href="#DejaVuSans-6f" x="241.064453"/>
      <use xlink:href="#DejaVuSans-64" x="302.246094"/>
      <use xlink:href="#DejaVuSans-65" x="365.722656"/>
      <use xlink:href="#DejaVuSans-20" x="427.246094"/>
      <use xlink:href="#DejaVuSans-73" x="459.033203"/>
      <use xlink:href="#DejaVuSans-74" x="511.132812"/>
      <use xlink:href="#DejaVuSans-6f" x="550.341797"/>
      <use xlink:href="#DejaVuSans-72" x="611.523438"/>
      <use xlink:href="#DejaVuSans-61" x="652.636719"/>
      <use xlink:href="#DejaVuSans-67" x="713.916016"/>
      <use xlink:href="#DejaVuSans-65" x="777.392578"/>
      <use xlink:href="#DejaVuSans-20" x="838.916016"/>
      <use xlink:href="#DejaVuSans-70" x="870.703125"/>
      <use xlink:href="#DejaVuSans-72" x="934.179688"/>
      <use xlink:href="#DejaVuSans-6f" x="973.042969"/>
      <use xlink:href="#DejaVuSans-70" x="1034.224609"/>
      <use xlink:href="#DejaVuSans-6f" x="1097.701172"/>
      <use xlink:href="#DejaVuSans-72" x="1158.882812"/>
      <use xlink:href="#DejaVuSans-74" x="1199.996094"/>
      <use xlink:href="#DejaVuSans-69" x="1239.205078"/>
      <use xlink:href="#DejaVuSans-6f" x="1266.988281"/>
      <use xlink:href="#DejaVuSans-6e" x="1328.169922"/>
     </g>
    </g>
    <g id="line2d_20">
     <path d="M 107.916406 132.0175 
L 117.916406 132.0175 
L 127.916406 132.0175 
" style="fill: none; stroke: #2ca02c; stroke-width: 1.5; stroke-linecap: square"/>
    </g>
    <g id="text_17">
     <!-- CA node storage proportion -->
     <g transform="translate(135.916406 135.5175) scale(0.1 -0.1)">
      <defs>
       <path id="DejaVuSans-43" d="M 4122 4306 
L 4122 3641 
Q 3803 3938 3442 4084 
Q 3081 4231 2675 4231 
Q 1875 4231 1450 3742 
Q 1025 3253 1025 2328 
Q 1025 1406 1450 917 
Q 1875 428 2675 428 
Q 3081 428 3442 575 
Q 3803 722 4122 1019 
L 4122 359 
Q 3791 134 3420 21 
Q 3050 -91 2638 -91 
Q 1578 -91 968 557 
Q 359 1206 359 2328 
Q 359 3453 968 4101 
Q 1578 4750 2638 4750 
Q 3056 4750 3426 4639 
Q 3797 4528 4122 4306 
z
" transform="scale(0.015625)"/>
      </defs>
      <use xlink:href="#DejaVuSans-43"/>
      <use xlink:href="#DejaVuSans-41" x="69.824219"/>
      <use xlink:href="#DejaVuSans-20" x="138.232422"/>
      <use xlink:href="#DejaVuSans-6e" x="170.019531"/>
      <use xlink:href="#DejaVuSans-6f" x="233.398438"/>
      <use xlink:href="#DejaVuSans-64" x="294.580078"/>
      <use xlink:href="#DejaVuSans-65" x="358.056641"/>
      <use xlink:href="#DejaVuSans-20" x="419.580078"/>
      <use xlink:href="#DejaVuSans-73" x="451.367188"/>
      <use xlink:href="#DejaVuSans-74" x="503.466797"/>
      <use xlink:href="#DejaVuSans-6f" x="542.675781"/>
      <use xlink:href="#DejaVuSans-72" x="603.857422"/>
      <use xlink:href="#DejaVuSans-61" x="644.970703"/>
      <use xlink:href="#DejaVuSans-67" x="706.25"/>
      <use xlink:href="#DejaVuSans-65" x="769.726562"/>
      <use xlink:href="#DejaVuSans-20" x="831.25"/>
      <use xlink:href="#DejaVuSans-70" x="863.037109"/>
      <use xlink:href="#DejaVuSans-72" x="926.513672"/>
      <use xlink:href="#DejaVuSans-6f" x="965.376953"/>
      <use xlink:href="#DejaVuSans-70" x="1026.558594"/>
      <use xlink:href="#DejaVuSans-6f" x="1090.035156"/>
      <use xlink:href="#DejaVuSans-72" x="1151.216797"/>
      <use xlink:href="#DejaVuSans-74" x="1192.330078"/>
      <use xlink:href="#DejaVuSans-69" x="1231.539062"/>
      <use xlink:href="#DejaVuSans-6f" x="1259.322266"/>
      <use xlink:href="#DejaVuSans-6e" x="1320.503906"/>
     </g>
    </g>
   </g>
  </g>
 </g>
 <defs>
  <clipPath id="pcb99b07c56">
   <rect x="26.925" y="7.2" width="334.8" height="221.76"/>
  </clipPath>
 </defs>
</svg>
