<?xml version="1.0" encoding="utf-8" standalone="no"?>
<!DOCTYPE svg PUBLIC "-//W3C//DTD SVG 1.1//EN"
  "http://www.w3.org/Graphics/SVG/1.1/DTD/svg11.dtd">
<svg xmlns:xlink="http://www.w3.org/1999/xlink" width="369.613068pt" height="252.970186pt" viewBox="0 0 369.613068 252.970186" xmlns="http://www.w3.org/2000/svg" version="1.1">
 <metadata>
  <rdf:RDF xmlns:dc="http://purl.org/dc/elements/1.1/" xmlns:cc="http://creativecommons.org/ns#" xmlns:rdf="http://www.w3.org/1999/02/22-rdf-syntax-ns#">
   <cc:Work>
    <dc:type rdf:resource="http://purl.org/dc/dcmitype/StillImage"/>
    <dc:date>2023-04-20T00:41:02.912690</dc:date>
    <dc:format>image/svg+xml</dc:format>
    <dc:creator>
     <cc:Agent>
      <dc:title>Matplotlib v3.6.2, https://matplotlib.org/</dc:title>
     </cc:Agent>
    </dc:creator>
   </cc:Work>
  </rdf:RDF>
 </metadata>
 <defs>
  <style type="text/css">*{stroke-linejoin: round; stroke-linecap: butt}</style>
 </defs>
 <g id="figure_1">
  <g id="patch_1">
   <path d="M -0 252.970186 
L 369.613068 252.970186 
L 369.613068 0 
L -0 0 
z
" style="fill: #ffffff"/>
  </g>
  <g id="axes_1">
   <g id="patch_2">
    <path d="M 26.925 229.092061 
L 361.725 229.092061 
L 361.725 7.332061 
L 26.925 7.332061 
z
" style="fill: #ffffff"/>
   </g>
   <g id="matplotlib.axis_1">
    <g id="xtick_1">
     <g id="line2d_1">
      <defs>
       <path id="m70b3f32678" d="M 0 0 
L 0 3.5 
" style="stroke: #000000; stroke-width: 0.8"/>
      </defs>
      <g>
       <use xlink:href="#m70b3f32678" x="42.143182" y="229.092061" style="stroke: #000000; stroke-width: 0.8"/>
      </g>
     </g>
     <g id="text_1">
      <!-- 0 -->
      <g transform="translate(38.961932 243.690499) scale(0.1 -0.1)">
       <defs>
        <path id="DejaVuSans-30" d="M 2034 4250 
Q 1547 4250 1301 3770 
Q 1056 3291 1056 2328 
Q 1056 1369 1301 889 
Q 1547 409 2034 409 
Q 2525 409 2770 889 
Q 3016 1369 3016 2328 
Q 3016 3291 2770 3770 
Q 2525 4250 2034 4250 
z
M 2034 4750 
Q 2819 4750 3233 4129 
Q 3647 3509 3647 2328 
Q 3647 1150 3233 529 
Q 2819 -91 2034 -91 
Q 1250 -91 836 529 
Q 422 1150 422 2328 
Q 422 3509 836 4129 
Q 1250 4750 2034 4750 
z
" transform="scale(0.015625)"/>
       </defs>
       <use xlink:href="#DejaVuSans-30"/>
      </g>
     </g>
    </g>
    <g id="xtick_2">
     <g id="line2d_2">
      <g>
       <use xlink:href="#m70b3f32678" x="103.015909" y="229.092061" style="stroke: #000000; stroke-width: 0.8"/>
      </g>
     </g>
     <g id="text_2">
      <!-- 2000 -->
      <g transform="translate(90.290909 243.690499) scale(0.1 -0.1)">
       <defs>
        <path id="DejaVuSans-32" d="M 1228 531 
L 3431 531 
L 3431 0 
L 469 0 
L 469 531 
Q 828 903 1448 1529 
Q 2069 2156 2228 2338 
Q 2531 2678 2651 2914 
Q 2772 3150 2772 3378 
Q 2772 3750 2511 3984 
Q 2250 4219 1831 4219 
Q 1534 4219 1204 4116 
Q 875 4013 500 3803 
L 500 4441 
Q 881 4594 1212 4672 
Q 1544 4750 1819 4750 
Q 2544 4750 2975 4387 
Q 3406 4025 3406 3419 
Q 3406 3131 3298 2873 
Q 3191 2616 2906 2266 
Q 2828 2175 2409 1742 
Q 1991 1309 1228 531 
z
" transform="scale(0.015625)"/>
       </defs>
       <use xlink:href="#DejaVuSans-32"/>
       <use xlink:href="#DejaVuSans-30" x="63.623047"/>
       <use xlink:href="#DejaVuSans-30" x="127.246094"/>
       <use xlink:href="#DejaVuSans-30" x="190.869141"/>
      </g>
     </g>
    </g>
    <g id="xtick_3">
     <g id="line2d_3">
      <g>
       <use xlink:href="#m70b3f32678" x="163.888636" y="229.092061" style="stroke: #000000; stroke-width: 0.8"/>
      </g>
     </g>
     <g id="text_3">
      <!-- 4000 -->
      <g transform="translate(151.163636 243.690499) scale(0.1 -0.1)">
       <defs>
        <path id="DejaVuSans-34" d="M 2419 4116 
L 825 1625 
L 2419 1625 
L 2419 4116 
z
M 2253 4666 
L 3047 4666 
L 3047 1625 
L 3713 1625 
L 3713 1100 
L 3047 1100 
L 3047 0 
L 2419 0 
L 2419 1100 
L 313 1100 
L 313 1709 
L 2253 4666 
z
" transform="scale(0.015625)"/>
       </defs>
       <use xlink:href="#DejaVuSans-34"/>
       <use xlink:href="#DejaVuSans-30" x="63.623047"/>
       <use xlink:href="#DejaVuSans-30" x="127.246094"/>
       <use xlink:href="#DejaVuSans-30" x="190.869141"/>
      </g>
     </g>
    </g>
    <g id="xtick_4">
     <g id="line2d_4">
      <g>
       <use xlink:href="#m70b3f32678" x="224.761364" y="229.092061" style="stroke: #000000; stroke-width: 0.8"/>
      </g>
     </g>
     <g id="text_4">
      <!-- 6000 -->
      <g transform="translate(212.036364 243.690499) scale(0.1 -0.1)">
       <defs>
        <path id="DejaVuSans-36" d="M 2113 2584 
Q 1688 2584 1439 2293 
Q 1191 2003 1191 1497 
Q 1191 994 1439 701 
Q 1688 409 2113 409 
Q 2538 409 2786 701 
Q 3034 994 3034 1497 
Q 3034 2003 2786 2293 
Q 2538 2584 2113 2584 
z
M 3366 4563 
L 3366 3988 
Q 3128 4100 2886 4159 
Q 2644 4219 2406 4219 
Q 1781 4219 1451 3797 
Q 1122 3375 1075 2522 
Q 1259 2794 1537 2939 
Q 1816 3084 2150 3084 
Q 2853 3084 3261 2657 
Q 3669 2231 3669 1497 
Q 3669 778 3244 343 
Q 2819 -91 2113 -91 
Q 1303 -91 875 529 
Q 447 1150 447 2328 
Q 447 3434 972 4092 
Q 1497 4750 2381 4750 
Q 2619 4750 2861 4703 
Q 3103 4656 3366 4563 
z
" transform="scale(0.015625)"/>
       </defs>
       <use xlink:href="#DejaVuSans-36"/>
       <use xlink:href="#DejaVuSans-30" x="63.623047"/>
       <use xlink:href="#DejaVuSans-30" x="127.246094"/>
       <use xlink:href="#DejaVuSans-30" x="190.869141"/>
      </g>
     </g>
    </g>
    <g id="xtick_5">
     <g id="line2d_5">
      <g>
       <use xlink:href="#m70b3f32678" x="285.634091" y="229.092061" style="stroke: #000000; stroke-width: 0.8"/>
      </g>
     </g>
     <g id="text_5">
      <!-- 8000 -->
      <g transform="translate(272.909091 243.690499) scale(0.1 -0.1)">
       <defs>
        <path id="DejaVuSans-38" d="M 2034 2216 
Q 1584 2216 1326 1975 
Q 1069 1734 1069 1313 
Q 1069 891 1326 650 
Q 1584 409 2034 409 
Q 2484 409 2743 651 
Q 3003 894 3003 1313 
Q 3003 1734 2745 1975 
Q 2488 2216 2034 2216 
z
M 1403 2484 
Q 997 2584 770 2862 
Q 544 3141 544 3541 
Q 544 4100 942 4425 
Q 1341 4750 2034 4750 
Q 2731 4750 3128 4425 
Q 3525 4100 3525 3541 
Q 3525 3141 3298 2862 
Q 3072 2584 2669 2484 
Q 3125 2378 3379 2068 
Q 3634 1759 3634 1313 
Q 3634 634 3220 271 
Q 2806 -91 2034 -91 
Q 1263 -91 848 271 
Q 434 634 434 1313 
Q 434 1759 690 2068 
Q 947 2378 1403 2484 
z
M 1172 3481 
Q 1172 3119 1398 2916 
Q 1625 2713 2034 2713 
Q 2441 2713 2670 2916 
Q 2900 3119 2900 3481 
Q 2900 3844 2670 4047 
Q 2441 4250 2034 4250 
Q 1625 4250 1398 4047 
Q 1172 3844 1172 3481 
z
" transform="scale(0.015625)"/>
       </defs>
       <use xlink:href="#DejaVuSans-38"/>
       <use xlink:href="#DejaVuSans-30" x="63.623047"/>
       <use xlink:href="#DejaVuSans-30" x="127.246094"/>
       <use xlink:href="#DejaVuSans-30" x="190.869141"/>
      </g>
     </g>
    </g>
    <g id="xtick_6">
     <g id="line2d_6">
      <g>
       <use xlink:href="#m70b3f32678" x="346.506818" y="229.092061" style="stroke: #000000; stroke-width: 0.8"/>
      </g>
     </g>
     <g id="text_6">
      <!-- 10000 -->
      <g transform="translate(330.600568 243.690499) scale(0.1 -0.1)">
       <defs>
        <path id="DejaVuSans-31" d="M 794 531 
L 1825 531 
L 1825 4091 
L 703 3866 
L 703 4441 
L 1819 4666 
L 2450 4666 
L 2450 531 
L 3481 531 
L 3481 0 
L 794 0 
L 794 531 
z
" transform="scale(0.015625)"/>
       </defs>
       <use xlink:href="#DejaVuSans-31"/>
       <use xlink:href="#DejaVuSans-30" x="63.623047"/>
       <use xlink:href="#DejaVuSans-30" x="127.246094"/>
       <use xlink:href="#DejaVuSans-30" x="190.869141"/>
       <use xlink:href="#DejaVuSans-30" x="254.492188"/>
      </g>
     </g>
    </g>
   </g>
   <g id="matplotlib.axis_2">
    <g id="ytick_1">
     <g id="line2d_7">
      <defs>
       <path id="m942867ee85" d="M 0 0 
L -3.5 0 
" style="stroke: #000000; stroke-width: 0.8"/>
      </defs>
      <g>
       <use xlink:href="#m942867ee85" x="26.925" y="220.549387" style="stroke: #000000; stroke-width: 0.8"/>
      </g>
     </g>
     <g id="text_7">
      <!-- 40 -->
      <g transform="translate(7.2 224.348606) scale(0.1 -0.1)">
       <use xlink:href="#DejaVuSans-34"/>
       <use xlink:href="#DejaVuSans-30" x="63.623047"/>
      </g>
     </g>
    </g>
    <g id="ytick_2">
     <g id="line2d_8">
      <g>
       <use xlink:href="#m942867ee85" x="26.925" y="178.639353" style="stroke: #000000; stroke-width: 0.8"/>
      </g>
     </g>
     <g id="text_8">
      <!-- 50 -->
      <g transform="translate(7.2 182.438572) scale(0.1 -0.1)">
       <defs>
        <path id="DejaVuSans-35" d="M 691 4666 
L 3169 4666 
L 3169 4134 
L 1269 4134 
L 1269 2991 
Q 1406 3038 1543 3061 
Q 1681 3084 1819 3084 
Q 2600 3084 3056 2656 
Q 3513 2228 3513 1497 
Q 3513 744 3044 326 
Q 2575 -91 1722 -91 
Q 1428 -91 1123 -41 
Q 819 9 494 109 
L 494 744 
Q 775 591 1075 516 
Q 1375 441 1709 441 
Q 2250 441 2565 725 
Q 2881 1009 2881 1497 
Q 2881 1984 2565 2268 
Q 2250 2553 1709 2553 
Q 1456 2553 1204 2497 
Q 953 2441 691 2322 
L 691 4666 
z
" transform="scale(0.015625)"/>
       </defs>
       <use xlink:href="#DejaVuSans-35"/>
       <use xlink:href="#DejaVuSans-30" x="63.623047"/>
      </g>
     </g>
    </g>
    <g id="ytick_3">
     <g id="line2d_9">
      <g>
       <use xlink:href="#m942867ee85" x="26.925" y="136.72932" style="stroke: #000000; stroke-width: 0.8"/>
      </g>
     </g>
     <g id="text_9">
      <!-- 60 -->
      <g transform="translate(7.2 140.528538) scale(0.1 -0.1)">
       <use xlink:href="#DejaVuSans-36"/>
       <use xlink:href="#DejaVuSans-30" x="63.623047"/>
      </g>
     </g>
    </g>
    <g id="ytick_4">
     <g id="line2d_10">
      <g>
       <use xlink:href="#m942867ee85" x="26.925" y="94.819286" style="stroke: #000000; stroke-width: 0.8"/>
      </g>
     </g>
     <g id="text_10">
      <!-- 70 -->
      <g transform="translate(7.2 98.618505) scale(0.1 -0.1)">
       <defs>
        <path id="DejaVuSans-37" d="M 525 4666 
L 3525 4666 
L 3525 4397 
L 1831 0 
L 1172 0 
L 2766 4134 
L 525 4134 
L 525 4666 
z
" transform="scale(0.015625)"/>
       </defs>
       <use xlink:href="#DejaVuSans-37"/>
       <use xlink:href="#DejaVuSans-30" x="63.623047"/>
      </g>
     </g>
    </g>
    <g id="ytick_5">
     <g id="line2d_11">
      <g>
       <use xlink:href="#m942867ee85" x="26.925" y="52.909252" style="stroke: #000000; stroke-width: 0.8"/>
      </g>
     </g>
     <g id="text_11">
      <!-- 80 -->
      <g transform="translate(7.2 56.708471) scale(0.1 -0.1)">
       <use xlink:href="#DejaVuSans-38"/>
       <use xlink:href="#DejaVuSans-30" x="63.623047"/>
      </g>
     </g>
    </g>
    <g id="ytick_6">
     <g id="line2d_12">
      <g>
       <use xlink:href="#m942867ee85" x="26.925" y="10.999219" style="stroke: #000000; stroke-width: 0.8"/>
      </g>
     </g>
     <g id="text_12">
      <!-- 90 -->
      <g transform="translate(7.2 14.798437) scale(0.1 -0.1)">
       <defs>
        <path id="DejaVuSans-39" d="M 703 97 
L 703 672 
Q 941 559 1184 500 
Q 1428 441 1663 441 
Q 2288 441 2617 861 
Q 2947 1281 2994 2138 
Q 2813 1869 2534 1725 
Q 2256 1581 1919 1581 
Q 1219 1581 811 2004 
Q 403 2428 403 3163 
Q 403 3881 828 4315 
Q 1253 4750 1959 4750 
Q 2769 4750 3195 4129 
Q 3622 3509 3622 2328 
Q 3622 1225 3098 567 
Q 2575 -91 1691 -91 
Q 1453 -91 1209 -44 
Q 966 3 703 97 
z
M 1959 2075 
Q 2384 2075 2632 2365 
Q 2881 2656 2881 3163 
Q 2881 3666 2632 3958 
Q 2384 4250 1959 4250 
Q 1534 4250 1286 3958 
Q 1038 3666 1038 3163 
Q 1038 2656 1286 2365 
Q 1534 2075 1959 2075 
z
" transform="scale(0.015625)"/>
       </defs>
       <use xlink:href="#DejaVuSans-39"/>
       <use xlink:href="#DejaVuSans-30" x="63.623047"/>
      </g>
     </g>
    </g>
   </g>
   <g id="line2d_13">
    <path d="M 42.143182 19.673734 
L 42.173618 19.673734 
L 42.234491 17.412061 
L 42.386673 26.456729 
L 42.447545 26.456729 
L 42.9954 33.399873 
L 43.056273 33.399873 
L 43.238891 34.20553 
L 43.269327 33.991801 
L 43.512818 34.105587 
L 43.634564 35.387155 
L 43.665 35.387155 
L 43.817182 36.6427 
L 43.847618 36.6427 
L 44.182418 37.667411 
L 44.212855 37.407291 
L 44.273727 37.521718 
L 44.486782 38.407573 
L 44.578091 38.407573 
L 44.760709 39.528479 
L 44.791145 39.036011 
L 44.852018 39.308609 
L 45.0042 40.435407 
L 45.065073 40.710157 
L 45.095509 40.086603 
L 45.278127 41.228198 
L 45.308564 41.228198 
L 45.552055 42.404694 
L 45.6738 42.303129 
L 45.825982 44.71143 
L 45.886855 44.71143 
L 46.069473 45.096068 
L 46.252091 45.197633 
L 46.282527 45.222102 
L 46.312964 46.010618 
L 46.3434 45.197633 
L 46.404273 45.615628 
L 46.434709 45.615628 
L 46.6782 46.244752 
L 46.708636 46.244752 
L 46.860818 46.630007 
L 46.952127 46.788168 
L 46.982564 46.276415 
L 47.165182 47.283622 
L 47.286927 47.236665 
L 47.317364 46.917879 
L 47.378236 47.405484 
L 47.469545 47.283622 
L 47.499982 47.310264 
L 47.591291 47.283622 
L 47.652164 47.460075 
L 47.713036 47.433433 
L 47.926091 47.588993 
L 48.0174 47.474575 
L 48.169582 49.060419 
L 48.230455 49.060419 
L 48.382636 49.386129 
L 48.413073 49.236873 
L 48.504382 49.339173 
L 48.595691 49.424474 
L 48.717436 50.239488 
L 48.747873 50.239488 
L 48.930491 50.715165 
L 48.960927 50.69898 
L 49.234855 50.69898 
L 49.265291 50.874879 
L 49.3566 50.757639 
L 49.387036 50.784282 
L 49.447909 50.98056 
L 49.508782 50.907834 
L 49.569655 50.98056 
L 49.630527 50.934476 
L 49.660964 50.934703 
L 49.874018 52.238796 
L 49.934891 52.238796 
L 50.056636 53.625957 
L 50.087073 52.888145 
L 50.147945 52.853539 
L 50.178382 53.983179 
L 50.269691 53.625957 
L 50.300127 53.66053 
L 50.391436 54.58938 
L 50.421873 54.360311 
L 50.543618 54.256271 
L 50.6958 55.140448 
L 50.847982 55.168094 
L 50.878418 55.441361 
L 50.939291 55.244488 
L 51.121909 55.323734 
L 51.182782 56.008561 
L 51.213218 55.317778 
L 51.243655 55.904521 
L 51.274091 55.983766 
L 51.334964 55.904521 
L 51.395836 55.983766 
L 51.517582 56.749871 
L 51.578455 56.846042 
L 51.608891 56.925702 
L 51.730636 57.547766 
L 51.761073 57.373569 
L 51.821945 57.54675 
L 52.035 58.048604 
L 52.156745 57.97755 
L 52.339364 58.894352 
L 52.400236 58.896265 
L 52.948091 61.371745 
L 53.130709 61.388868 
L 53.252455 61.562049 
L 53.282891 61.432372 
L 53.343764 61.581889 
L 53.556818 61.660731 
L 53.617691 61.694443 
L 53.648127 61.660731 
L 53.769873 62.27382 
L 53.830745 62.340639 
L 53.861182 62.879327 
L 53.952491 62.583641 
L 54.074236 62.65694 
L 54.104673 63.089576 
L 54.135109 62.546977 
L 54.195982 63.047027 
L 54.317727 63.180031 
L 54.3786 63.269194 
L 54.409036 63.418711 
L 54.469909 63.40187 
L 54.500345 63.298362 
L 54.561218 63.404723 
L 54.743836 63.756803 
L 54.804709 63.976117 
L 54.835145 64.397382 
L 54.896018 63.976117 
L 54.956891 64.038347 
L 55.200382 64.641999 
L 55.322127 64.209371 
L 55.474309 64.953035 
L 55.504745 64.953035 
L 55.687364 67.418154 
L 55.7178 67.541328 
L 55.778673 67.436114 
L 55.930855 67.436114 
L 56.0526 67.939388 
L 56.143909 67.840914 
L 56.204782 67.957187 
L 56.356964 68.639938 
L 56.3874 68.322577 
L 56.417836 68.52409 
L 56.539582 69.620356 
L 56.570018 69.620356 
L 56.783073 70.842577 
L 56.843945 70.010869 
L 56.874382 70.091855 
L 56.965691 71.106376 
L 56.996127 70.757428 
L 57.026564 71.066314 
L 57.057 70.645074 
L 57.087436 70.645074 
L 57.117873 70.649237 
L 57.452673 72.096924 
L 57.513545 72.170213 
L 57.665727 72.837643 
L 57.757036 72.596207 
L 57.787473 72.669496 
L 57.817909 72.596207 
L 58.000527 73.241751 
L 58.0614 73.425805 
L 58.183145 74.058957 
L 58.213582 74.0394 
L 58.244018 74.006428 
L 58.426636 74.736179 
L 58.457073 74.65945 
L 58.487509 74.443485 
L 58.548382 74.736179 
L 58.578818 74.567538 
L 58.731 75.024402 
L 58.883182 74.731708 
L 58.974491 75.113669 
L 59.004927 74.727451 
L 59.096236 74.8454 
L 59.126673 74.889085 
L 59.278855 75.478411 
L 59.309291 75.25142 
L 59.370164 75.618137 
L 59.4006 75.489117 
L 59.461473 75.618137 
L 59.522345 75.803405 
L 59.674527 76.55168 
L 59.704964 76.52163 
L 59.7354 76.52163 
L 59.857145 77.247865 
L 59.887582 77.056739 
L 59.948455 77.380242 
L 59.978891 77.371027 
L 60.009327 77.473207 
L 60.0702 77.552263 
L 60.374564 78.465728 
L 60.435436 78.254758 
L 60.496309 78.26623 
L 60.678927 78.73157 
L 60.709364 78.492648 
L 60.770236 78.66553 
L 60.800673 78.66553 
L 60.891982 78.477598 
L 60.952855 79.047808 
L 61.044164 78.89673 
L 61.105036 78.89673 
L 61.226782 80.356432 
L 61.287655 80.356432 
L 61.4094 80.585871 
L 61.470273 80.356432 
L 61.531145 80.3897 
L 61.561582 80.356432 
L 61.592018 80.434924 
L 61.683327 80.900159 
L 61.713764 81.369125 
L 61.774636 80.900159 
L 62.109436 80.954081 
L 62.231182 81.423047 
L 62.322491 81.316902 
L 62.352927 81.36317 
L 62.505109 81.854821 
L 62.535545 81.628073 
L 62.596418 81.785252 
L 62.718164 82.35499 
L 62.7486 82.302924 
L 62.779036 82.410471 
L 62.809473 82.410471 
L 63.052964 82.491495 
L 63.0834 83.208466 
L 63.144273 82.546714 
L 63.266018 82.685284 
L 63.296455 82.546714 
L 63.357327 82.585319 
L 63.539945 83.537846 
L 63.813873 84.413447 
L 63.844309 84.32422 
L 63.874745 84.32422 
L 63.996491 84.656555 
L 64.026927 84.567328 
L 64.057364 84.708621 
L 64.0878 85.137011 
L 64.148673 84.835697 
L 64.179109 84.835697 
L 64.392164 85.488055 
L 64.483473 85.332548 
L 64.513909 85.413175 
L 64.544345 85.376621 
L 64.696527 86.579452 
L 64.7574 86.59829 
L 64.879145 86.38895 
L 65.000891 86.537192 
L 65.061764 86.631086 
L 65.183509 87.124478 
L 65.213945 87.097672 
L 65.274818 87.049382 
L 65.427 87.266587 
L 65.518309 87.250159 
L 65.670491 87.47071 
L 65.974855 87.476136 
L 66.035727 87.810714 
L 66.0966 87.587545 
L 66.218345 87.693473 
L 66.279218 87.674456 
L 66.400964 88.114351 
L 66.4314 88.032315 
L 66.461836 88.07375 
L 66.583582 88.499381 
L 66.614018 88.444444 
L 66.644455 88.33025 
L 66.674891 88.589295 
L 66.735764 88.655415 
L 67.070564 89.662933 
L 67.283618 90.883126 
L 67.314055 90.830749 
L 67.4358 91.093447 
L 67.557545 90.758204 
L 67.679291 91.147359 
L 67.861909 91.090076 
L 68.044527 91.652543 
L 68.196709 91.731015 
L 68.318455 92.139148 
L 68.531509 92.205153 
L 68.653255 92.348965 
L 69.353291 92.368173 
L 69.4446 92.529586 
L 69.566345 92.370918 
L 69.718527 92.661761 
L 69.962018 92.570562 
L 70.083764 93.749043 
L 70.175073 93.879341 
L 70.205509 93.866842 
L 70.235945 93.866842 
L 70.357691 94.02751 
L 70.570745 94.02751 
L 70.601182 94.549392 
L 70.662055 94.051053 
L 70.722927 94.06085 
L 70.844673 94.664489 
L 70.996855 94.76255 
L 71.088164 94.732812 
L 71.270782 95.512509 
L 71.362091 95.48531 
L 71.696891 95.564365 
L 71.818636 96.093015 
L 71.849073 96.093015 
L 71.970818 96.698847 
L 72.031691 96.698847 
L 72.183873 96.964582 
L 72.275182 97.482864 
L 72.336055 97.348211 
L 72.396927 97.06949 
L 72.427364 97.214129 
L 72.579545 98.67361 
L 72.640418 98.323622 
L 72.701291 98.453043 
L 72.823036 98.808829 
L 72.944782 98.393415 
L 72.975218 98.424186 
L 73.005655 98.712666 
L 73.096964 98.551087 
L 73.157836 98.545502 
L 73.401327 99.432017 
L 73.523073 99.521731 
L 73.553509 99.446741 
L 73.583945 99.686887 
L 73.675255 99.581395 
L 73.827436 99.949071 
L 73.857873 99.821733 
L 74.010055 100.00822 
L 74.040491 100.512856 
L 74.101364 100.087029 
L 74.314418 100.107888 
L 74.4666 101.081411 
L 74.588345 100.972558 
L 74.8014 101.534939 
L 74.862273 101.315227 
L 75.044891 103.821588 
L 75.105764 103.721024 
L 75.1362 103.191745 
L 75.197073 103.248927 
L 75.318818 103.785545 
L 75.440564 103.721024 
L 75.471 103.984555 
L 75.562309 103.819789 
L 75.744927 104.37639 
L 75.927545 104.976335 
L 76.049291 104.836264 
L 76.262345 105.3581 
L 76.323218 105.259616 
L 76.566709 106.506459 
L 76.597145 106.506459 
L 76.627582 106.314947 
L 76.718891 106.412184 
L 77.297182 107.087449 
L 77.388491 107.015811 
L 77.418927 107.03335 
L 77.571109 107.186261 
L 77.601545 107.015811 
L 77.692855 107.103279 
L 77.936345 107.186946 
L 78.088527 107.35975 
L 78.301582 107.406516 
L 78.423327 107.508316 
L 78.879873 107.615624 
L 79.032055 107.703092 
L 79.1538 107.648232 
L 79.245109 107.608627 
L 79.427727 107.987741 
L 79.640782 108.041979 
L 79.762527 108.550493 
L 79.853836 108.493967 
L 79.975582 109.986947 
L 80.006018 110.229842 
L 80.066891 109.986947 
L 80.188636 110.022532 
L 80.371255 110.472055 
L 80.553873 110.528581 
L 80.675618 110.611334 
L 81.619145 110.639544 
L 81.649582 111.451065 
L 81.710455 110.682896 
L 81.801764 110.607528 
L 81.8322 110.64053 
L 81.893073 110.61072 
L 82.045255 110.74467 
L 82.258309 110.887242 
L 82.319182 111.205306 
L 82.380055 111.180797 
L 82.410491 110.753164 
L 82.5018 110.777673 
L 82.562673 110.865291 
L 82.653982 110.777673 
L 82.775727 110.834198 
L 82.806164 111.564684 
L 82.8366 110.824416 
L 82.867036 110.824416 
L 82.988782 110.832706 
L 83.110527 111.028338 
L 83.414891 111.028338 
L 83.536636 111.429858 
L 83.597509 111.402075 
L 83.871436 112.317775 
L 84.114927 112.413401 
L 84.145364 112.495792 
L 84.1758 112.413401 
L 84.297545 113.035444 
L 84.571473 113.078796 
L 84.693218 113.496041 
L 84.754091 113.444361 
L 84.814964 113.482891 
L 84.875836 113.482891 
L 84.997582 113.674987 
L 85.149764 113.724003 
L 85.332382 113.792362 
L 85.484564 113.835291 
L 85.545436 113.792362 
L 85.575873 113.954025 
L 85.636745 113.845617 
L 85.728055 113.813419 
L 85.8498 114.091587 
L 85.880236 113.845778 
L 85.941109 114.091587 
L 86.245473 114.091587 
L 86.397655 114.923268 
L 86.428091 114.624043 
L 86.5194 114.734605 
L 86.610709 114.734605 
L 86.702018 114.955999 
L 86.732455 114.931377 
L 86.793327 114.767336 
L 86.8542 114.818555 
L 86.945509 114.767336 
L 87.067255 114.986305 
L 87.219436 115.074484 
L 87.249873 115.172119 
L 87.341182 115.095541 
L 87.432491 115.110182 
L 87.645545 115.94454 
L 87.919473 116.314112 
L 88.102091 116.036458 
L 88.162964 116.209682 
L 88.254273 116.09912 
L 88.315145 116.209682 
L 88.345582 115.917092 
L 88.376018 116.081133 
L 88.467327 116.036458 
L 88.710818 116.031057 
L 88.863 116.384526 
L 89.136927 116.441054 
L 89.228236 116.682926 
L 89.349982 116.459767 
L 89.471727 116.390041 
L 89.502164 116.786219 
L 89.593473 116.673431 
L 89.654345 116.373619 
L 89.715218 116.470992 
L 89.776091 116.788938 
L 89.836964 116.590358 
L 89.958709 116.763582 
L 90.050018 116.849635 
L 90.141327 117.038185 
L 90.293509 117.791248 
L 90.323945 117.791248 
L 90.476127 118.28047 
L 90.597873 118.339523 
L 90.628309 118.28047 
L 90.658745 118.399836 
L 90.810927 118.442589 
L 91.084855 120.400857 
L 91.2066 120.439919 
L 91.237036 120.371111 
L 91.267473 120.494119 
L 91.480527 120.683346 
L 91.5414 120.707361 
L 91.632709 120.683346 
L 91.693582 121.168322 
L 91.784891 120.707361 
L 91.815327 120.759169 
L 91.845764 120.707361 
L 91.8762 120.837795 
L 91.997945 120.876972 
L 92.028382 121.061764 
L 92.089255 120.906516 
L 92.150127 120.726099 
L 92.180564 120.934274 
L 92.393618 120.915536 
L 92.576236 121.569086 
L 92.971909 121.642971 
L 93.124091 122.11619 
L 93.2154 122.188146 
L 93.337145 122.431286 
L 93.458891 122.548384 
L 93.489327 122.758774 
L 93.519764 122.467842 
L 93.5502 122.477737 
L 93.580636 122.476977 
L 93.611073 122.848002 
L 93.702382 122.80656 
L 93.824127 123.000186 
L 93.854564 122.963498 
L 93.885 123.362191 
L 93.945873 122.962761 
L 93.976309 122.962761 
L 94.067618 123.103389 
L 94.189364 122.987088 
L 94.250236 122.98514 
L 94.311109 123.365111 
L 94.371982 123.166184 
L 94.432855 122.981693 
L 94.463291 123.240905 
L 94.645909 123.353669 
L 94.798091 124.125915 
L 95.011145 124.116119 
L 95.163327 124.212427 
L 95.315509 124.294516 
L 95.376382 124.859813 
L 95.406818 124.581669 
L 95.437255 124.286614 
L 95.528564 124.427521 
L 95.559 124.427521 
L 95.589436 124.812651 
L 95.650309 124.34698 
L 95.772055 124.34698 
L 95.863364 124.459751 
L 95.985109 124.290731 
L 96.015545 124.262008 
L 96.137291 124.48024 
L 96.472091 124.532293 
L 96.624273 125.754467 
L 96.959073 125.755796 
L 96.989509 125.998069 
L 97.050382 125.754467 
L 97.141691 125.761865 
L 97.263436 125.931841 
L 97.933036 126.033099 
L 97.963473 125.938314 
L 98.024345 126.019713 
L 98.206964 126.035833 
L 98.2374 126.419751 
L 98.267836 125.938314 
L 98.298273 125.938314 
L 98.450455 126.035833 
L 98.480891 126.035833 
L 98.633073 126.354721 
L 98.967873 127.079062 
L 99.059182 126.990598 
L 99.089618 127.277083 
L 99.150491 127.077773 
L 99.546164 127.079062 
L 99.972273 127.421624 
L 100.002709 127.378645 
L 100.094018 127.444633 
L 100.276636 127.505305 
L 100.459255 127.812949 
L 100.611436 127.817524 
L 100.641873 128.013954 
L 100.702745 127.867254 
L 100.854927 127.969397 
L 100.885364 128.161676 
L 100.9158 127.957826 
L 100.946236 127.957826 
L 101.128855 127.967918 
L 101.281036 128.51991 
L 101.433218 128.51991 
L 101.615836 128.844484 
L 101.646273 128.844484 
L 101.950636 129.697774 
L 102.011509 129.657924 
L 102.133255 129.864003 
L 102.285436 129.96238 
L 102.376745 131.079833 
L 102.407182 131.049341 
L 102.5898 131.089119 
L 102.620236 131.089119 
L 102.741982 132.006167 
L 102.772418 132.275014 
L 102.833291 132.006167 
L 103.137655 132.435503 
L 103.168091 132.435503 
L 103.198527 132.263378 
L 103.2594 132.454379 
L 103.502891 132.456774 
L 103.624636 132.757965 
L 103.655073 132.757965 
L 103.715945 133.163808 
L 103.776818 133.070435 
L 103.989873 133.231756 
L 104.233364 133.26592 
L 104.568164 133.546329 
L 104.720345 133.624869 
L 104.872527 134.278135 
L 105.055145 134.351771 
L 105.176891 134.493636 
L 105.298636 134.484278 
L 105.359509 134.631344 
L 105.420382 134.562925 
L 105.603 134.564498 
L 105.816055 134.665273 
L 105.846491 134.747517 
L 105.907364 134.665273 
L 105.998673 134.73197 
L 106.029109 134.926832 
L 106.059545 134.665273 
L 106.089982 134.849491 
L 106.120418 134.681406 
L 106.211727 134.72893 
L 106.242164 134.72893 
L 106.363909 135.383151 
L 106.424782 135.582517 
L 106.455218 135.449849 
L 106.485655 135.383151 
L 106.516091 135.449849 
L 106.546527 135.534305 
L 106.576964 135.385458 
L 106.6074 136.310525 
L 106.668273 135.519336 
L 106.698709 135.519336 
L 106.729145 135.768274 
L 106.759582 135.438594 
L 106.790018 135.536155 
L 106.911764 135.611663 
L 107.033509 135.640698 
L 107.124818 135.66307 
L 107.398745 135.915407 
L 107.550927 137.04937 
L 107.763982 137.092979 
L 107.916164 137.483279 
L 107.977036 137.388883 
L 108.037909 137.430116 
L 108.159655 137.430116 
L 108.250964 137.388883 
L 108.372709 137.504135 
L 108.524891 137.53949 
L 108.677073 137.884772 
L 108.798818 137.884772 
L 109.042309 139.608567 
L 109.103182 139.534984 
L 109.194491 138.95911 
L 109.224927 139.017733 
L 109.316236 138.932303 
L 109.437982 139.97843 
L 109.468418 139.97843 
L 109.590164 140.294234 
L 109.9554 140.326304 
L 109.985836 140.529292 
L 110.016273 140.313774 
L 110.046709 140.313774 
L 110.381509 140.443729 
L 110.594564 141.640873 
L 110.625 141.464 
L 110.685873 141.623723 
L 110.868491 141.623723 
L 110.929364 141.762151 
L 110.9598 141.623723 
L 111.051109 141.81218 
L 111.172855 142.254968 
L 111.233727 142.109045 
L 111.264164 142.261333 
L 111.446782 142.333753 
L 111.538091 142.307917 
L 111.690273 143.053528 
L 111.720709 142.379445 
L 111.812018 142.526814 
L 111.842455 142.526814 
L 111.872891 142.379445 
L 111.933764 142.493695 
L 111.994636 142.493695 
L 112.085945 143.687328 
L 112.116382 143.620312 
L 112.238127 143.602108 
L 112.481618 144.178735 
L 112.755545 144.936827 
L 112.816418 144.524056 
L 112.846855 144.784221 
L 113.029473 144.963578 
L 113.120782 144.926901 
L 113.242527 145.557715 
L 113.333836 145.586359 
L 113.455582 146.35964 
L 113.546891 146.388683 
L 113.699073 146.752515 
L 113.729509 146.523349 
L 113.820818 146.604109 
L 114.003436 146.653954 
L 114.155618 146.928196 
L 114.459982 147.187328 
L 114.551291 146.963556 
L 114.581727 147.009411 
L 114.733909 146.978181 
L 114.886091 146.963556 
L 114.916527 146.946407 
L 114.946964 147.092055 
L 115.038273 147.048861 
L 115.068709 146.961216 
L 115.160018 147.011123 
L 115.829618 146.946407 
L 115.860055 147.247491 
L 115.920927 147.00562 
L 116.164418 146.973574 
L 116.225291 147.171568 
L 116.286164 147.081089 
L 116.407909 147.054077 
L 116.438345 147.632462 
L 116.529655 147.509704 
L 116.620964 147.792366 
L 116.6514 147.750625 
L 116.712273 147.750625 
L 116.834018 147.513566 
L 116.864455 147.626598 
L 116.925327 147.522613 
L 117.594927 147.577583 
L 117.747109 148.44688 
L 117.868855 148.594173 
L 117.960164 148.536624 
L 118.081909 149.020927 
L 118.203655 149.036117 
L 118.294964 149.294001 
L 118.3254 149.180163 
L 118.629764 149.076082 
L 118.721073 149.127391 
L 118.934127 149.374965 
L 118.995 149.374965 
L 119.147182 149.727291 
L 119.299364 149.742034 
L 119.421109 149.855656 
L 119.786345 150.471113 
L 119.908091 150.589481 
L 120.029836 150.655571 
L 120.182018 150.66965 
L 120.212455 150.66965 
L 120.364636 151.175372 
L 120.608127 151.342778 
L 120.729873 151.378484 
L 120.790745 151.994903 
L 120.851618 151.597842 
L 121.369036 151.694249 
L 121.429909 151.834274 
L 121.460345 151.75535 
L 121.490782 151.694249 
L 121.521218 151.710372 
L 121.642964 151.931179 
L 121.764709 151.951874 
L 121.886455 152.062659 
L 122.038636 152.244307 
L 122.190818 152.860726 
L 122.495182 152.895055 
L 122.708236 153.780282 
L 122.738673 153.780282 
L 122.829982 154.060138 
L 122.860418 154.042421 
L 122.921291 154.195042 
L 123.0126 154.422463 
L 123.043036 154.381048 
L 123.316964 154.565224 
L 123.438709 154.527471 
L 123.743073 154.610548 
L 123.803945 154.791351 
L 123.834382 154.625286 
L 124.017 154.703212 
L 124.169182 154.776491 
L 124.230055 154.759654 
L 124.290927 155.254818 
L 124.3518 155.21735 
L 124.382236 155.250504 
L 124.443109 155.176588 
L 124.564855 155.268988 
L 124.595291 155.394957 
L 124.625727 155.204876 
L 124.656164 155.269252 
L 124.777909 155.213895 
L 125.082273 155.431 
L 125.112709 155.580106 
L 125.173582 155.431 
L 125.447509 155.534598 
L 125.508382 155.694227 
L 125.538818 155.534598 
L 125.630127 155.534598 
L 125.691 155.978182 
L 125.751873 155.668595 
L 126.238855 156.111489 
L 126.299727 155.884049 
L 126.3606 155.983526 
L 126.573655 156.076759 
L 126.908455 157.679492 
L 126.938891 157.454152 
L 127.151945 157.570319 
L 127.182382 157.570319 
L 127.304127 158.077338 
L 127.456309 158.182068 
L 127.578055 158.571523 
L 127.760673 158.587289 
L 128.065036 158.965142 
L 128.156345 160.62381 
L 128.186782 160.603929 
L 128.217218 160.876174 
L 128.308527 160.756546 
L 128.460709 160.82633 
L 128.673764 160.915918 
L 128.825945 161.442773 
L 129.008564 161.53445 
L 129.160745 161.638004 
L 129.191182 161.581891 
L 129.221618 161.444761 
L 129.312927 161.494515 
L 129.617291 161.664184 
L 129.678164 161.736167 
L 129.7086 161.571993 
L 129.799909 161.637803 
L 129.921655 161.518269 
L 129.952091 161.535908 
L 130.104273 161.581512 
L 130.165145 161.581512 
L 130.195582 161.713046 
L 130.256455 161.638721 
L 130.317327 161.578312 
L 130.347764 161.593875 
L 130.499945 161.915927 
L 130.682564 161.799684 
L 130.804309 161.951366 
L 130.956491 161.985461 
L 131.0478 161.911172 
L 131.078236 161.93785 
L 131.108673 161.944312 
L 131.230418 162.057191 
L 131.321727 162.084278 
L 131.504345 162.413401 
L 131.7174 162.738194 
L 131.747836 162.692894 
L 131.778273 162.42913 
L 131.869582 162.449395 
L 131.930455 162.449395 
L 131.991327 162.669961 
L 132.021764 162.576561 
L 132.143509 162.452745 
L 132.447873 162.731043 
L 132.600055 162.746398 
L 132.660927 162.746398 
L 132.691364 162.919504 
L 132.752236 162.840325 
L 132.873982 162.761036 
L 132.904418 162.864249 
L 132.995727 162.833676 
L 133.3914 162.915053 
L 133.817509 163.316619 
L 133.939255 163.263036 
L 134.030564 163.481112 
L 134.152309 163.263036 
L 134.182745 163.267388 
L 134.213182 163.490631 
L 134.274055 163.300978 
L 134.334927 163.292836 
L 134.365364 163.440267 
L 134.456673 163.355938 
L 134.639291 163.310199 
L 134.791473 163.577105 
L 134.852345 163.520432 
L 134.943655 163.745771 
L 134.974091 163.59712 
L 135.034964 163.520432 
L 135.095836 163.583534 
L 135.278455 163.659724 
L 135.339327 163.653385 
L 135.369764 163.858015 
L 135.461073 163.775934 
L 135.795873 164.220589 
L 135.826309 164.382233 
L 135.856745 164.098041 
L 135.917618 164.305234 
L 135.948055 164.305234 
L 136.008927 164.537485 
L 136.0698 164.52317 
L 136.161109 164.586272 
L 136.282855 164.762708 
L 136.526345 164.795687 
L 136.678527 165.202517 
L 136.891582 165.246676 
L 137.043764 165.37786 
L 137.317691 165.555853 
L 137.409 166.040805 
L 137.439436 165.842545 
L 137.469873 165.811028 
L 137.500309 165.869899 
L 137.652491 165.971485 
L 137.835109 165.94161 
L 137.956855 166.295423 
L 138.048164 166.313448 
L 138.0786 166.520907 
L 138.139473 166.349219 
L 138.809073 166.401391 
L 138.839509 166.503411 
L 138.900382 166.418017 
L 139.083 166.474568 
L 139.204745 166.706534 
L 139.813473 166.794397 
L 139.935218 166.850438 
L 140.056964 166.88868 
L 140.178709 166.944865 
L 140.209145 166.88868 
L 140.300455 166.946686 
L 140.483073 166.961221 
L 140.513509 166.961221 
L 140.635255 168.074764 
L 140.726564 168.208963 
L 140.787436 168.178955 
L 141.396164 168.262825 
L 141.548345 168.363581 
L 141.578782 168.363581 
L 141.700527 168.516531 
L 141.913582 168.574554 
L 142.248382 168.711383 
L 142.309255 168.832583 
L 142.339691 168.643719 
L 142.583182 168.660933 
L 142.674491 168.934692 
L 142.704927 168.775532 
L 142.735364 168.71183 
L 142.796236 168.80554 
L 143.039727 168.851814 
L 143.070164 168.916825 
L 143.222345 169.414898 
L 144.074564 169.524434 
L 144.257182 169.560545 
L 144.622418 169.640025 
L 144.713727 170.086007 
L 144.744164 169.640025 
L 144.7746 170.201599 
L 144.805036 170.201599 
L 144.987655 170.475358 
L 145.078964 170.232453 
L 145.231145 170.773586 
L 145.413764 170.729246 
L 145.596382 170.7908 
L 145.626818 171.003005 
L 145.687691 170.853951 
L 145.839873 170.885497 
L 145.931182 171.099578 
L 145.992055 170.853951 
L 146.022491 171.12771 
L 146.813836 171.182223 
L 146.966018 171.313786 
L 147.1182 171.379175 
L 147.453 171.371568 
L 147.574745 171.735653 
L 147.7878 171.807399 
L 147.939982 172.12223 
L 148.000855 172.12223 
L 148.061727 172.356835 
L 148.092164 172.11161 
L 148.213909 172.096144 
L 148.305218 172.356835 
L 148.366091 172.158552 
L 148.487836 172.750232 
L 148.700891 172.797096 
L 148.822636 173.694595 
L 148.853073 173.760055 
L 148.944382 173.694595 
L 149.157436 173.76853 
L 149.309618 173.871459 
L 149.340055 173.812607 
L 149.370491 173.916427 
L 149.400927 173.916427 
L 149.431364 173.916427 
L 149.4618 174.034439 
L 149.522673 173.878067 
L 150.040091 173.897956 
L 150.161836 174.14668 
L 151.044491 174.253321 
L 151.166236 174.350226 
L 151.561909 174.423493 
L 151.653218 174.734081 
L 151.683655 174.701394 
L 151.744527 174.701394 
L 151.896709 174.907008 
L 152.018455 174.936758 
L 152.1402 175.345764 
L 152.292382 175.410611 
L 153.114164 175.462966 
L 153.235909 175.528002 
L 153.388091 175.524508 
L 153.509836 175.954098 
L 154.027255 176.455553 
L 154.270745 176.438147 
L 154.849036 176.573394 
L 154.940345 176.60341 
L 154.970782 176.573394 
L 155.092527 176.534531 
L 155.427327 176.593015 
L 156.249109 176.648079 
L 156.401291 176.739102 
L 156.583909 176.746057 
L 156.705655 176.704472 
L 157.801364 176.77773 
L 157.923109 177.144957 
L 157.862236 176.699408 
L 157.953545 177.091723 
L 158.044855 176.679948 
L 158.075291 176.70424 
L 158.227473 176.698567 
L 158.684018 176.711459 
L 158.8362 176.654727 
L 159.018818 176.684804 
L 159.079691 177.162675 
L 159.140564 177.066521 
L 159.292745 177.237093 
L 159.475364 177.220847 
L 159.8406 177.367609 
L 160.662382 177.645136 
L 160.814564 177.714686 
L 160.997182 177.596127 
L 161.088491 177.794454 
L 161.118927 177.645626 
L 161.149364 177.632065 
L 161.1798 178.144358 
L 161.240673 177.660908 
L 161.423291 177.643654 
L 161.484164 177.675562 
L 161.5146 178.179216 
L 161.605909 178.053825 
L 161.727655 178.16056 
L 161.788527 178.202656 
L 161.818964 178.754497 
L 161.8494 178.17916 
L 161.879836 178.17916 
L 162.153764 178.279948 
L 162.275509 178.279948 
L 162.427691 178.495831 
L 162.458127 178.495831 
L 162.579873 178.877019 
L 162.671182 178.934594 
L 162.701618 178.998373 
L 162.792927 178.934594 
L 162.823364 178.848719 
L 162.914673 178.915643 
L 162.945109 179.035012 
L 163.005982 178.918348 
L 163.097291 178.953786 
L 163.219036 179.348311 
L 163.340782 179.392283 
L 163.462527 180.079497 
L 163.584273 180.16615 
L 163.736455 180.200774 
L 164.223436 180.190838 
L 164.345182 180.696439 
L 164.375618 180.580158 
L 164.466927 180.652383 
L 164.619109 180.625574 
L 164.832164 180.879304 
L 164.8626 180.82068 
L 165.075655 180.801603 
L 165.227836 180.994067 
L 165.471327 181.115119 
L 165.501764 181.022289 
L 165.623509 181.07695 
L 165.775691 181.20039 
L 165.836564 181.145729 
L 165.867 181.216125 
L 166.140927 181.260342 
L 166.293109 181.532513 
L 166.353982 181.425729 
L 166.414855 181.502787 
L 166.506164 181.426112 
L 166.5366 181.516797 
L 166.597473 181.425086 
L 169.245436 181.46543 
L 169.367182 181.543597 
L 169.397618 181.455675 
L 169.458491 181.536227 
L 169.5498 181.522518 
L 169.701982 181.455675 
L 169.8846 181.51134 
L 169.915036 181.480503 
L 170.006345 181.786672 
L 170.036782 181.629757 
L 170.280273 181.69612 
L 170.432455 181.797549 
L 170.797691 182.194339 
L 170.828127 182.137391 
L 170.889 182.226529 
L 171.497727 182.294987 
L 171.649909 182.405725 
L 171.771655 182.427665 
L 171.8934 182.742684 
L 172.106455 182.729921 
L 172.136891 182.782279 
L 172.197764 182.729921 
L 172.441255 182.721861 
L 172.623873 182.777261 
L 172.684745 182.763125 
L 172.836927 183.103699 
L 173.354345 183.084634 
L 173.476091 183.500719 
L 173.689145 183.751025 
L 173.810891 183.644229 
L 174.997909 183.964687 
L 175.150091 184.004255 
L 176.154491 184.08828 
L 176.184927 184.167406 
L 176.2458 184.094578 
L 176.611036 184.17428 
L 176.641473 184.253051 
L 176.702345 184.167052 
L 177.524127 184.270951 
L 177.676309 184.329336 
L 177.828491 184.343141 
L 177.858927 184.343141 
L 177.980673 184.508001 
L 178.132855 184.539299 
L 178.345909 184.683684 
L 178.528527 184.875619 
L 178.711145 184.833473 
L 179.654673 184.881101 
L 179.715545 185.174022 
L 179.745982 184.894659 
L 179.989473 184.904817 
L 180.172091 184.873203 
L 180.202527 185.228567 
L 180.2634 184.873203 
L 180.659073 184.916709 
L 180.719945 185.179115 
L 180.750382 184.976289 
L 180.811255 184.965168 
L 180.933 185.267402 
L 181.085182 185.213258 
L 181.146055 185.202016 
L 181.2678 185.575476 
L 181.359109 185.708922 
L 181.663473 186.915976 
L 182.180891 187.020701 
L 182.302636 187.015143 
L 182.454818 186.988813 
L 182.637436 187.044634 
L 182.728745 187.100855 
L 182.759182 187.369792 
L 182.789618 187.042422 
L 182.820055 187.042422 
L 183.641836 187.096947 
L 183.824455 187.468542 
L 183.9462 187.44435 
L 185.072345 187.542487 
L 185.254964 187.679088 
L 185.6202 187.76575 
L 185.802818 187.915302 
L 186.046309 187.933954 
L 186.076745 188.055835 
L 186.137618 187.933954 
L 186.898527 188.025016 
L 186.928964 188.107787 
L 186.9594 187.993061 
L 187.020273 188.066261 
L 187.476818 188.071697 
L 187.568127 188.256484 
L 187.629 188.22769 
L 187.659436 188.224822 
L 187.781182 188.380815 
L 187.811618 188.28492 
L 187.902927 188.346989 
L 188.237727 188.369619 
L 188.420345 188.61665 
L 189.698673 188.685279 
L 189.789982 188.750891 
L 189.820418 188.715179 
L 190.246527 188.715805 
L 190.3074 189.52594 
L 190.368273 189.107344 
L 190.398709 189.107344 
L 190.429145 189.483706 
L 190.490018 189.107344 
L 190.703073 189.127334 
L 190.824818 189.235952 
L 191.737909 189.315206 
L 191.768345 189.465872 
L 191.859655 190.288208 
L 191.890091 190.257682 
L 192.072709 190.287582 
L 192.3162 190.280556 
L 192.437945 190.572783 
L 192.559691 190.587819 
L 192.681436 190.742459 
L 193.381473 190.820375 
L 193.472782 190.937985 
L 193.503218 190.851761 
L 193.624964 190.820375 
L 193.746709 191.347589 
L 194.629364 191.347589 
L 194.6598 191.507181 
L 194.720673 191.357578 
L 195.999 191.438409 
L 196.090309 191.511744 
L 196.120745 191.473449 
L 196.6686 191.453548 
L 196.699036 191.818889 
L 196.729473 191.438724 
L 196.759909 191.445963 
L 196.881655 191.510398 
L 196.972964 191.581765 
L 197.0034 191.54519 
L 197.764309 191.515075 
L 197.886055 191.674666 
L 198.494782 191.865802 
L 198.6774 191.867246 
L 198.768709 192.299903 
L 198.799145 192.288111 
L 200.047036 192.334242 
L 200.168782 192.426997 
L 201.660164 192.530916 
L 201.903655 192.57545 
L 202.0254 192.581937 
L 202.512382 192.660804 
L 202.634127 192.735013 
L 203.090673 192.660804 
L 203.212418 192.656201 
L 204.734236 192.689437 
L 204.764673 192.79006 
L 204.825545 192.699426 
L 205.008164 192.711929 
L 205.069036 192.795064 
L 205.099473 192.780071 
L 205.160345 192.694176 
L 205.190782 192.780071 
L 205.7082 192.704429 
L 205.829945 193.09712 
L 205.921255 193.220851 
L 205.982127 193.186764 
L 206.103873 193.208263 
L 206.225618 193.197134 
L 206.256055 193.248852 
L 206.316927 193.179808 
L 206.590855 193.243267 
L 206.956091 193.25706 
L 207.443073 193.353105 
L 207.595255 193.500649 
L 208.112673 193.551461 
L 208.143109 193.624796 
L 208.234418 193.578093 
L 208.325727 193.593268 
L 208.447473 194.596594 
L 208.569218 194.479462 
L 208.812709 194.462353 
L 208.843145 194.664419 
L 208.904018 194.481204 
L 209.117073 194.481204 
L 209.238818 194.733094 
L 209.482309 194.737957 
L 211.3998 194.835229 
L 211.551982 194.942147 
L 211.582418 194.913618 
L 211.612855 194.948702 
L 211.765036 195.077925 
L 212.434636 195.192859 
L 212.586818 195.26324 
L 212.678127 195.217222 
L 212.708564 195.252237 
L 213.652091 195.289431 
L 213.682527 195.364607 
L 213.773836 195.296243 
L 213.956455 195.296243 
L 214.169509 195.296243 
L 214.382564 195.897117 
L 214.473873 195.702137 
L 214.504309 195.722255 
L 214.565182 195.702137 
L 214.717364 195.982813 
L 214.869545 196.031835 
L 215.021727 196.313557 
L 215.356527 196.32981 
L 216.178309 196.351885 
L 216.300055 197.227028 
L 216.452236 197.302803 
L 216.604418 197.21533 
L 216.726164 197.235013 
L 216.847909 197.930262 
L 217.213145 198.119755 
L 217.243582 198.054846 
L 217.304455 197.944252 
L 217.365327 197.967797 
L 217.547945 197.967797 
L 218.4306 198.020945 
L 218.461036 198.11829 
L 218.521909 198.020945 
L 218.582782 197.982089 
L 218.704527 198.171582 
L 219.739364 198.265247 
L 219.800236 198.358761 
L 219.830673 198.295912 
L 219.921982 198.230043 
L 219.952418 198.263384 
L 220.287218 198.230079 
L 220.317655 198.383921 
L 220.408964 198.303192 
L 220.500273 198.380192 
L 220.804636 198.407184 
L 220.895945 198.688939 
L 220.956818 198.407184 
L 221.017691 198.418944 
L 221.382927 198.513005 
L 221.504673 198.592903 
L 221.748164 198.577663 
L 222.661255 198.761219 
L 222.904745 198.745509 
L 223.087364 198.754776 
L 223.239545 198.938836 
L 223.483036 199.000258 
L 223.635218 199.066752 
L 224.396127 199.153216 
L 224.517873 199.147668 
L 225.157036 199.277935 
L 225.248345 199.25498 
L 225.278782 199.290537 
L 225.400527 199.447666 
L 226.070127 199.449866 
L 226.161436 199.761187 
L 226.191873 199.754368 
L 227.044091 200.010771 
L 227.196273 200.067902 
L 228.352855 200.053893 
L 228.4746 200.627151 
L 229.296382 200.617806 
L 229.326818 200.853693 
L 229.357255 200.572304 
L 229.387691 200.572304 
L 229.874673 200.680793 
L 230.057291 200.738978 
L 230.179036 200.699625 
L 230.209473 200.699625 
L 230.270345 200.816973 
L 230.300782 200.733675 
L 230.452964 200.723842 
L 230.666018 200.723842 
L 230.787764 200.937634 
L 231.792164 200.984005 
L 231.8226 200.968853 
L 231.853036 201.065402 
L 232.613945 201.140312 
L 232.766127 201.225141 
L 232.979182 201.169703 
L 233.709655 201.254873 
L 233.740091 201.202392 
L 233.800964 201.28571 
L 234.044455 201.363654 
L 234.287945 201.728449 
L 234.409691 201.99197 
L 234.440127 201.728449 
L 234.501 201.99197 
L 235.048855 202.085155 
L 235.231473 202.158002 
L 235.322782 202.096984 
L 235.353218 202.135371 
L 236.114127 202.304214 
L 236.296745 202.340975 
L 236.418491 202.335857 
L 236.814164 202.388262 
L 237.331582 202.453521 
L 237.453327 202.453521 
L 237.727255 202.46232 
L 237.757691 202.46232 
L 237.909873 202.684719 
L 237.970745 202.794428 
L 238.396855 202.836588 
L 238.427291 202.8233 
L 238.457727 202.950129 
L 238.5186 202.828907 
L 238.731655 202.899199 
L 239.127327 202.992563 
L 239.401255 203.042363 
L 240.770891 203.094493 
L 240.892636 203.369527 
L 241.440491 203.464241 
L 241.470927 203.605325 
L 241.5318 203.464241 
L 241.897036 203.565454 
L 241.927473 203.584722 
L 241.957909 203.485422 
L 243.114491 203.583792 
L 243.297109 203.599991 
L 243.388418 203.547716 
L 243.418855 203.576449 
L 243.571036 203.641317 
L 244.727618 203.704553 
L 244.758055 203.787183 
L 244.818927 203.694606 
L 245.123291 203.792784 
L 245.245036 203.844426 
L 246.310309 203.911121 
L 246.523364 203.912184 
L 247.192964 203.951655 
L 247.284273 204.08461 
L 247.314709 204.069089 
L 247.984309 204.187217 
L 248.014745 204.409045 
L 248.075618 204.210015 
L 248.258236 204.198946 
L 248.319109 204.187217 
L 248.410418 204.321217 
L 248.471291 204.187217 
L 248.501727 204.323127 
L 249.2322 204.404924 
L 249.293073 204.643373 
L 249.323509 204.404924 
L 250.145291 204.463772 
L 250.2366 204.527983 
L 250.267036 204.479118 
L 250.510527 204.570711 
L 250.540964 204.493584 
L 252.458455 204.5839 
L 252.5802 204.5839 
L 252.732382 204.53709 
L 253.006309 204.570541 
L 253.493291 204.596067 
L 253.645473 204.961521 
L 253.888964 205.033537 
L 254.041145 205.258391 
L 254.071582 205.219104 
L 254.649873 205.315223 
L 254.771618 205.344161 
L 254.832491 205.344161 
L 254.984673 205.564146 
L 255.684709 205.638814 
L 256.232564 205.667226 
L 256.476055 206.186117 
L 258.393545 206.163696 
L 258.515291 206.497845 
L 259.641436 206.594949 
L 259.824055 206.601928 
L 260.432782 206.562232 
L 260.493655 206.67796 
L 260.524091 206.585607 
L 260.645836 206.579514 
L 260.798018 206.69321 
L 261.071945 206.824798 
L 261.193691 206.710492 
L 261.771982 206.734747 
L 261.893727 207.20154 
L 262.411145 207.271143 
L 262.502455 207.374295 
L 262.532891 207.309358 
L 262.898127 207.372894 
L 262.959 207.492156 
L 262.989436 207.293214 
L 263.659036 207.298087 
L 263.689473 207.453426 
L 263.750345 207.300454 
L 264.024273 207.338367 
L 264.146018 207.48182 
L 264.2982 207.609104 
L 264.480818 207.754634 
L 264.663436 207.79822 
L 264.785182 208.180969 
L 264.9678 208.161518 
L 265.698273 208.256137 
L 265.850455 208.363372 
L 266.367873 208.376125 
L 266.398309 208.491853 
L 266.489618 208.42129 
L 266.763545 208.513369 
L 266.885291 208.513369 
L 267.037473 208.555887 
L 267.067909 208.630124 
L 267.098345 208.514675 
L 267.128782 208.513369 
L 267.859255 208.596493 
L 268.011436 208.754148 
L 268.285364 208.716494 
L 268.346236 208.810601 
L 268.376673 208.711805 
L 268.681036 208.711805 
L 268.772345 208.837535 
L 268.802782 208.823592 
L 268.9854 208.793435 
L 270.081109 208.974897 
L 270.233291 209.148708 
L 270.446345 208.992868 
L 270.476782 209.022285 
L 271.602927 209.087127 
L 271.755109 209.170647 
L 273.124745 209.266948 
L 273.155182 209.324465 
L 273.246491 209.266948 
L 274.494382 209.353191 
L 274.585691 209.415976 
L 274.616127 209.353191 
L 274.768309 209.383511 
L 274.890055 209.323915 
L 274.920491 209.501261 
L 274.981364 209.343252 
L 276.898855 209.312521 
L 276.990164 209.552498 
L 277.111909 209.312521 
L 277.233655 209.645562 
L 278.298927 209.723727 
L 278.420673 209.857709 
L 278.511982 209.781751 
L 278.542418 209.814458 
L 278.725036 209.874744 
L 278.907655 209.850245 
L 279.120709 210.011451 
L 279.212018 209.853053 
L 279.242455 209.866099 
L 279.394636 209.866099 
L 279.425073 210.011451 
L 279.516382 209.960997 
L 279.699 210.002095 
L 279.820745 210.123012 
L 279.942491 209.978622 
L 280.307727 210.016392 
L 280.459909 210.055001 
L 280.581655 210.175787 
L 280.733836 210.018605 
L 280.764273 210.045173 
L 280.825145 210.024883 
L 280.855582 210.186089 
L 280.916455 210.036419 
L 281.099073 210.049298 
L 281.129509 210.107474 
L 281.190382 210.031513 
L 281.373 210.036841 
L 282.164345 210.135598 
L 282.286091 210.140071 
L 282.316527 210.433538 
L 282.3774 210.140071 
L 282.560018 210.137106 
L 282.7122 210.127208 
L 282.986127 210.142421 
L 284.3862 210.697003 
L 284.447073 210.697003 
L 284.538382 210.914961 
L 284.568818 210.816825 
L 284.690564 210.914961 
L 284.721 210.914961 
L 284.842745 210.696061 
L 284.873182 210.696061 
L 284.903618 210.85407 
L 284.964491 210.717058 
L 285.116673 210.716345 
L 285.512345 210.771581 
L 285.634091 210.891204 
L 285.877582 210.909749 
L 286.029764 211.089738 
L 286.303691 211.086133 
L 286.821109 211.15421 
L 286.973291 211.198742 
L 287.186345 211.266567 
L 287.216782 211.426365 
L 287.277655 211.266567 
L 287.3994 211.440934 
L 287.764636 211.530664 
L 288.038564 211.544445 
L 288.160309 211.659086 
L 288.647291 211.672805 
L 288.7386 212.215308 
L 288.860345 211.658009 
L 289.0734 211.679145 
L 289.864745 211.741058 
L 290.016927 212.23689 
L 290.0778 211.992513 
L 290.108236 212.063075 
L 290.260418 212.22512 
L 290.656091 212.224215 
L 290.777836 212.40884 
L 291.477873 212.462469 
L 291.630055 212.63827 
L 292.025727 212.643856 
L 292.177909 212.588565 
L 292.299655 212.712411 
L 292.4214 212.722339 
L 292.451836 212.848871 
L 292.512709 212.742559 
L 292.664891 212.742559 
L 293.821473 212.848154 
L 293.973655 212.861076 
L 296.043327 212.955797 
L 296.225945 212.975986 
L 296.378127 212.98779 
L 296.530309 212.98779 
L 296.743364 213.000177 
L 296.7738 213.514328 
L 296.834673 213.000177 
L 297.047727 213.070736 
L 297.169473 212.995971 
L 297.412964 212.990618 
L 297.4434 213.544012 
L 297.504273 212.990618 
L 297.869509 213.116323 
L 298.021691 213.049602 
L 298.234745 213.056935 
L 299.178273 213.1588 
L 299.300018 213.179264 
L 300.760964 213.185554 
L 300.882709 213.704752 
L 301.643618 213.73883 
L 301.765364 213.828793 
L 301.856673 213.899108 
L 301.978418 214.323048 
L 302.1306 214.325976 
L 302.8002 214.32732 
L 302.921945 214.373454 
L 303.104564 214.33329 
L 304.322018 214.381357 
L 304.4742 214.488417 
L 306.361255 214.547545 
L 306.513436 214.609422 
L 309.861436 214.683691 
L 309.983182 215.133964 
L 310.044055 215.127375 
L 310.074491 215.388252 
L 310.135364 215.127375 
L 310.317982 215.118707 
L 312.8442 215.19995 
L 313.026818 215.254716 
L 313.239873 215.279233 
L 313.392055 215.248185 
L 313.726855 215.548959 
L 313.8486 215.623509 
L 314.366018 215.68558 
L 314.426891 215.854191 
L 314.487764 215.760445 
L 315.126927 215.835695 
L 315.309545 215.919638 
L 316.131327 216.000555 
L 316.283509 216.064329 
L 317.774891 216.10336 
L 317.835764 216.35829 
L 317.896636 216.283211 
L 320.361982 216.359123 
L 320.514164 216.40598 
L 320.788091 216.441079 
L 321.031582 216.441079 
L 321.183764 216.406418 
L 321.762055 216.401698 
L 321.8838 216.633065 
L 324.014345 216.703428 
L 324.044782 216.755165 
L 324.105655 216.675391 
L 325.505727 216.764221 
L 325.779655 216.890451 
L 326.023145 216.881399 
L 326.631873 216.912739 
L 326.692745 217.108043 
L 326.753618 216.978144 
L 328.427618 216.994211 
L 328.549364 217.307496 
L 328.853727 217.334572 
L 329.949436 217.410616 
L 329.979873 217.475437 
L 330.071182 217.421687 
L 331.136455 217.496941 
L 331.349509 217.592791 
L 331.775618 217.696228 
L 331.9278 217.7027 
L 332.019109 217.736393 
L 332.171291 217.748648 
L 332.2626 217.748496 
L 332.293036 217.864897 
L 332.384345 217.787764 
L 333.267 217.832703 
L 333.388745 217.901559 
L 334.819255 218.009937 
L 335.001873 218.061818 
L 337.375909 218.146367 
L 337.558527 218.194791 
L 338.167255 218.256789 
L 338.319436 218.321512 
L 338.502055 218.302945 
L 338.6238 218.327786 
L 339.262964 218.343309 
L 339.445582 218.366921 
L 339.567327 218.378171 
L 339.871691 218.398559 
L 340.906527 218.459834 
L 340.936964 218.640202 
L 340.997836 218.459834 
L 341.637 218.543929 
L 341.758745 218.550398 
L 341.941364 218.554964 
L 342.702273 218.654973 
L 342.763145 218.71074 
L 342.824018 218.654973 
L 343.737109 218.743236 
L 343.858855 218.729644 
L 345.928527 218.821418 
L 346.141582 218.883653 
L 346.3242 218.948225 
L 346.476382 219.012061 
L 346.506818 219.012061 
L 346.506818 219.012061 
" clip-path="url(#p12f0450fa0)" style="fill: none; stroke: #1f77b4; stroke-width: 1.5; stroke-linecap: square"/>
   </g>
   <g id="patch_3">
    <path d="M 26.925 229.092061 
L 26.925 7.332061 
" style="fill: none; stroke: #000000; stroke-width: 0.8; stroke-linejoin: miter; stroke-linecap: square"/>
   </g>
   <g id="patch_4">
    <path d="M 361.725 229.092061 
L 361.725 7.332061 
" style="fill: none; stroke: #000000; stroke-width: 0.8; stroke-linejoin: miter; stroke-linecap: square"/>
   </g>
   <g id="patch_5">
    <path d="M 26.925 229.092061 
L 361.725 229.092061 
" style="fill: none; stroke: #000000; stroke-width: 0.8; stroke-linejoin: miter; stroke-linecap: square"/>
   </g>
   <g id="patch_6">
    <path d="M 26.925 7.332061 
L 361.725 7.332061 
" style="fill: none; stroke: #000000; stroke-width: 0.8; stroke-linejoin: miter; stroke-linecap: square"/>
   </g>
   <g id="legend_1">
    <g id="patch_7">
     <path d="M 274.551562 30.010186 
L 354.725 30.010186 
Q 356.725 30.010186 356.725 28.010186 
L 356.725 14.332061 
Q 356.725 12.332061 354.725 12.332061 
L 274.551562 12.332061 
Q 272.551562 12.332061 272.551562 14.332061 
L 272.551562 28.010186 
Q 272.551562 30.010186 274.551562 30.010186 
z
" style="fill: #ffffff; opacity: 0.8; stroke: #cccccc; stroke-linejoin: miter"/>
    </g>
    <g id="line2d_14">
     <path d="M 276.551562 20.430499 
L 286.551562 20.430499 
L 296.551562 20.430499 
" style="fill: none; stroke: #1f77b4; stroke-width: 1.5; stroke-linecap: square"/>
    </g>
    <g id="text_13">
     <!-- GA target -->
     <g transform="translate(304.551562 23.930499) scale(0.1 -0.1)">
      <defs>
       <path id="DejaVuSans-47" d="M 3809 666 
L 3809 1919 
L 2778 1919 
L 2778 2438 
L 4434 2438 
L 4434 434 
Q 4069 175 3628 42 
Q 3188 -91 2688 -91 
Q 1594 -91 976 548 
Q 359 1188 359 2328 
Q 359 3472 976 4111 
Q 1594 4750 2688 4750 
Q 3144 4750 3555 4637 
Q 3966 4525 4313 4306 
L 4313 3634 
Q 3963 3931 3569 4081 
Q 3175 4231 2741 4231 
Q 1884 4231 1454 3753 
Q 1025 3275 1025 2328 
Q 1025 1384 1454 906 
Q 1884 428 2741 428 
Q 3075 428 3337 486 
Q 3600 544 3809 666 
z
" transform="scale(0.015625)"/>
       <path id="DejaVuSans-41" d="M 2188 4044 
L 1331 1722 
L 3047 1722 
L 2188 4044 
z
M 1831 4666 
L 2547 4666 
L 4325 0 
L 3669 0 
L 3244 1197 
L 1141 1197 
L 716 0 
L 50 0 
L 1831 4666 
z
" transform="scale(0.015625)"/>
       <path id="DejaVuSans-20" transform="scale(0.015625)"/>
       <path id="DejaVuSans-74" d="M 1172 4494 
L 1172 3500 
L 2356 3500 
L 2356 3053 
L 1172 3053 
L 1172 1153 
Q 1172 725 1289 603 
Q 1406 481 1766 481 
L 2356 481 
L 2356 0 
L 1766 0 
Q 1100 0 847 248 
Q 594 497 594 1153 
L 594 3053 
L 172 3053 
L 172 3500 
L 594 3500 
L 594 4494 
L 1172 4494 
z
" transform="scale(0.015625)"/>
       <path id="DejaVuSans-61" d="M 2194 1759 
Q 1497 1759 1228 1600 
Q 959 1441 959 1056 
Q 959 750 1161 570 
Q 1363 391 1709 391 
Q 2188 391 2477 730 
Q 2766 1069 2766 1631 
L 2766 1759 
L 2194 1759 
z
M 3341 1997 
L 3341 0 
L 2766 0 
L 2766 531 
Q 2569 213 2275 61 
Q 1981 -91 1556 -91 
Q 1019 -91 701 211 
Q 384 513 384 1019 
Q 384 1609 779 1909 
Q 1175 2209 1959 2209 
L 2766 2209 
L 2766 2266 
Q 2766 2663 2505 2880 
Q 2244 3097 1772 3097 
Q 1472 3097 1187 3025 
Q 903 2953 641 2809 
L 641 3341 
Q 956 3463 1253 3523 
Q 1550 3584 1831 3584 
Q 2591 3584 2966 3190 
Q 3341 2797 3341 1997 
z
" transform="scale(0.015625)"/>
       <path id="DejaVuSans-72" d="M 2631 2963 
Q 2534 3019 2420 3045 
Q 2306 3072 2169 3072 
Q 1681 3072 1420 2755 
Q 1159 2438 1159 1844 
L 1159 0 
L 581 0 
L 581 3500 
L 1159 3500 
L 1159 2956 
Q 1341 3275 1631 3429 
Q 1922 3584 2338 3584 
Q 2397 3584 2469 3576 
Q 2541 3569 2628 3553 
L 2631 2963 
z
" transform="scale(0.015625)"/>
       <path id="DejaVuSans-67" d="M 2906 1791 
Q 2906 2416 2648 2759 
Q 2391 3103 1925 3103 
Q 1463 3103 1205 2759 
Q 947 2416 947 1791 
Q 947 1169 1205 825 
Q 1463 481 1925 481 
Q 2391 481 2648 825 
Q 2906 1169 2906 1791 
z
M 3481 434 
Q 3481 -459 3084 -895 
Q 2688 -1331 1869 -1331 
Q 1566 -1331 1297 -1286 
Q 1028 -1241 775 -1147 
L 775 -588 
Q 1028 -725 1275 -790 
Q 1522 -856 1778 -856 
Q 2344 -856 2625 -561 
Q 2906 -266 2906 331 
L 2906 616 
Q 2728 306 2450 153 
Q 2172 0 1784 0 
Q 1141 0 747 490 
Q 353 981 353 1791 
Q 353 2603 747 3093 
Q 1141 3584 1784 3584 
Q 2172 3584 2450 3431 
Q 2728 3278 2906 2969 
L 2906 3500 
L 3481 3500 
L 3481 434 
z
" transform="scale(0.015625)"/>
       <path id="DejaVuSans-65" d="M 3597 1894 
L 3597 1613 
L 953 1613 
Q 991 1019 1311 708 
Q 1631 397 2203 397 
Q 2534 397 2845 478 
Q 3156 559 3463 722 
L 3463 178 
Q 3153 47 2828 -22 
Q 2503 -91 2169 -91 
Q 1331 -91 842 396 
Q 353 884 353 1716 
Q 353 2575 817 3079 
Q 1281 3584 2069 3584 
Q 2775 3584 3186 3129 
Q 3597 2675 3597 1894 
z
M 3022 2063 
Q 3016 2534 2758 2815 
Q 2500 3097 2075 3097 
Q 1594 3097 1305 2825 
Q 1016 2553 972 2059 
L 3022 2063 
z
" transform="scale(0.015625)"/>
      </defs>
      <use xlink:href="#DejaVuSans-47"/>
      <use xlink:href="#DejaVuSans-41" x="77.490234"/>
      <use xlink:href="#DejaVuSans-20" x="145.898438"/>
      <use xlink:href="#DejaVuSans-74" x="177.685547"/>
      <use xlink:href="#DejaVuSans-61" x="216.894531"/>
      <use xlink:href="#DejaVuSans-72" x="278.173828"/>
      <use xlink:href="#DejaVuSans-67" x="317.537109"/>
      <use xlink:href="#DejaVuSans-65" x="381.013672"/>
      <use xlink:href="#DejaVuSans-74" x="442.537109"/>
     </g>
    </g>
   </g>
  </g>
 </g>
 <defs>
  <clipPath id="p12f0450fa0">
   <rect x="26.925" y="7.332061" width="334.8" height="221.76"/>
  </clipPath>
 </defs>
</svg>
