<?xml version="1.0" encoding="utf-8" standalone="no"?>
<!DOCTYPE svg PUBLIC "-//W3C//DTD SVG 1.1//EN"
  "http://www.w3.org/Graphics/SVG/1.1/DTD/svg11.dtd">
<svg xmlns:xlink="http://www.w3.org/1999/xlink" width="375.2875pt" height="255.49568pt" viewBox="0 0 375.2875 255.49568" xmlns="http://www.w3.org/2000/svg" version="1.1">
 <metadata>
  <rdf:RDF xmlns:dc="http://purl.org/dc/elements/1.1/" xmlns:cc="http://creativecommons.org/ns#" xmlns:rdf="http://www.w3.org/1999/02/22-rdf-syntax-ns#">
   <cc:Work>
    <dc:type rdf:resource="http://purl.org/dc/dcmitype/StillImage"/>
    <dc:date>2023-04-18T07:02:01.900846</dc:date>
    <dc:format>image/svg+xml</dc:format>
    <dc:creator>
     <cc:Agent>
      <dc:title>Matplotlib v3.6.2, https://matplotlib.org/</dc:title>
     </cc:Agent>
    </dc:creator>
   </cc:Work>
  </rdf:RDF>
 </metadata>
 <defs>
  <style type="text/css">*{stroke-linejoin: round; stroke-linecap: butt}</style>
 </defs>
 <g id="figure_1">
  <g id="patch_1">
   <path d="M 0 255.49568 
L 375.2875 255.49568 
L 375.2875 0 
L 0 0 
z
" style="fill: #ffffff"/>
  </g>
  <g id="axes_1">
   <g id="patch_2">
    <path d="M 33.2875 231.617555 
L 368.0875 231.617555 
L 368.0875 9.857555 
L 33.2875 9.857555 
z
" style="fill: #ffffff"/>
   </g>
   <g id="matplotlib.axis_1">
    <g id="xtick_1">
     <g id="line2d_1">
      <defs>
       <path id="m231afbb064" d="M 0 0 
L 0 3.5 
" style="stroke: #000000; stroke-width: 0.8"/>
      </defs>
      <g>
       <use xlink:href="#m231afbb064" x="48.505682" y="231.617555" style="stroke: #000000; stroke-width: 0.8"/>
      </g>
     </g>
     <g id="text_1">
      <!-- 0 -->
      <g transform="translate(45.324432 246.215993) scale(0.1 -0.1)">
       <defs>
        <path id="DejaVuSans-30" d="M 2034 4250 
Q 1547 4250 1301 3770 
Q 1056 3291 1056 2328 
Q 1056 1369 1301 889 
Q 1547 409 2034 409 
Q 2525 409 2770 889 
Q 3016 1369 3016 2328 
Q 3016 3291 2770 3770 
Q 2525 4250 2034 4250 
z
M 2034 4750 
Q 2819 4750 3233 4129 
Q 3647 3509 3647 2328 
Q 3647 1150 3233 529 
Q 2819 -91 2034 -91 
Q 1250 -91 836 529 
Q 422 1150 422 2328 
Q 422 3509 836 4129 
Q 1250 4750 2034 4750 
z
" transform="scale(0.015625)"/>
       </defs>
       <use xlink:href="#DejaVuSans-30"/>
      </g>
     </g>
    </g>
    <g id="xtick_2">
     <g id="line2d_2">
      <g>
       <use xlink:href="#m231afbb064" x="109.378409" y="231.617555" style="stroke: #000000; stroke-width: 0.8"/>
      </g>
     </g>
     <g id="text_2">
      <!-- 200 -->
      <g transform="translate(99.834659 246.215993) scale(0.1 -0.1)">
       <defs>
        <path id="DejaVuSans-32" d="M 1228 531 
L 3431 531 
L 3431 0 
L 469 0 
L 469 531 
Q 828 903 1448 1529 
Q 2069 2156 2228 2338 
Q 2531 2678 2651 2914 
Q 2772 3150 2772 3378 
Q 2772 3750 2511 3984 
Q 2250 4219 1831 4219 
Q 1534 4219 1204 4116 
Q 875 4013 500 3803 
L 500 4441 
Q 881 4594 1212 4672 
Q 1544 4750 1819 4750 
Q 2544 4750 2975 4387 
Q 3406 4025 3406 3419 
Q 3406 3131 3298 2873 
Q 3191 2616 2906 2266 
Q 2828 2175 2409 1742 
Q 1991 1309 1228 531 
z
" transform="scale(0.015625)"/>
       </defs>
       <use xlink:href="#DejaVuSans-32"/>
       <use xlink:href="#DejaVuSans-30" x="63.623047"/>
       <use xlink:href="#DejaVuSans-30" x="127.246094"/>
      </g>
     </g>
    </g>
    <g id="xtick_3">
     <g id="line2d_3">
      <g>
       <use xlink:href="#m231afbb064" x="170.251136" y="231.617555" style="stroke: #000000; stroke-width: 0.8"/>
      </g>
     </g>
     <g id="text_3">
      <!-- 400 -->
      <g transform="translate(160.707386 246.215993) scale(0.1 -0.1)">
       <defs>
        <path id="DejaVuSans-34" d="M 2419 4116 
L 825 1625 
L 2419 1625 
L 2419 4116 
z
M 2253 4666 
L 3047 4666 
L 3047 1625 
L 3713 1625 
L 3713 1100 
L 3047 1100 
L 3047 0 
L 2419 0 
L 2419 1100 
L 313 1100 
L 313 1709 
L 2253 4666 
z
" transform="scale(0.015625)"/>
       </defs>
       <use xlink:href="#DejaVuSans-34"/>
       <use xlink:href="#DejaVuSans-30" x="63.623047"/>
       <use xlink:href="#DejaVuSans-30" x="127.246094"/>
      </g>
     </g>
    </g>
    <g id="xtick_4">
     <g id="line2d_4">
      <g>
       <use xlink:href="#m231afbb064" x="231.123864" y="231.617555" style="stroke: #000000; stroke-width: 0.8"/>
      </g>
     </g>
     <g id="text_4">
      <!-- 600 -->
      <g transform="translate(221.580114 246.215993) scale(0.1 -0.1)">
       <defs>
        <path id="DejaVuSans-36" d="M 2113 2584 
Q 1688 2584 1439 2293 
Q 1191 2003 1191 1497 
Q 1191 994 1439 701 
Q 1688 409 2113 409 
Q 2538 409 2786 701 
Q 3034 994 3034 1497 
Q 3034 2003 2786 2293 
Q 2538 2584 2113 2584 
z
M 3366 4563 
L 3366 3988 
Q 3128 4100 2886 4159 
Q 2644 4219 2406 4219 
Q 1781 4219 1451 3797 
Q 1122 3375 1075 2522 
Q 1259 2794 1537 2939 
Q 1816 3084 2150 3084 
Q 2853 3084 3261 2657 
Q 3669 2231 3669 1497 
Q 3669 778 3244 343 
Q 2819 -91 2113 -91 
Q 1303 -91 875 529 
Q 447 1150 447 2328 
Q 447 3434 972 4092 
Q 1497 4750 2381 4750 
Q 2619 4750 2861 4703 
Q 3103 4656 3366 4563 
z
" transform="scale(0.015625)"/>
       </defs>
       <use xlink:href="#DejaVuSans-36"/>
       <use xlink:href="#DejaVuSans-30" x="63.623047"/>
       <use xlink:href="#DejaVuSans-30" x="127.246094"/>
      </g>
     </g>
    </g>
    <g id="xtick_5">
     <g id="line2d_5">
      <g>
       <use xlink:href="#m231afbb064" x="291.996591" y="231.617555" style="stroke: #000000; stroke-width: 0.8"/>
      </g>
     </g>
     <g id="text_5">
      <!-- 800 -->
      <g transform="translate(282.452841 246.215993) scale(0.1 -0.1)">
       <defs>
        <path id="DejaVuSans-38" d="M 2034 2216 
Q 1584 2216 1326 1975 
Q 1069 1734 1069 1313 
Q 1069 891 1326 650 
Q 1584 409 2034 409 
Q 2484 409 2743 651 
Q 3003 894 3003 1313 
Q 3003 1734 2745 1975 
Q 2488 2216 2034 2216 
z
M 1403 2484 
Q 997 2584 770 2862 
Q 544 3141 544 3541 
Q 544 4100 942 4425 
Q 1341 4750 2034 4750 
Q 2731 4750 3128 4425 
Q 3525 4100 3525 3541 
Q 3525 3141 3298 2862 
Q 3072 2584 2669 2484 
Q 3125 2378 3379 2068 
Q 3634 1759 3634 1313 
Q 3634 634 3220 271 
Q 2806 -91 2034 -91 
Q 1263 -91 848 271 
Q 434 634 434 1313 
Q 434 1759 690 2068 
Q 947 2378 1403 2484 
z
M 1172 3481 
Q 1172 3119 1398 2916 
Q 1625 2713 2034 2713 
Q 2441 2713 2670 2916 
Q 2900 3119 2900 3481 
Q 2900 3844 2670 4047 
Q 2441 4250 2034 4250 
Q 1625 4250 1398 4047 
Q 1172 3844 1172 3481 
z
" transform="scale(0.015625)"/>
       </defs>
       <use xlink:href="#DejaVuSans-38"/>
       <use xlink:href="#DejaVuSans-30" x="63.623047"/>
       <use xlink:href="#DejaVuSans-30" x="127.246094"/>
      </g>
     </g>
    </g>
    <g id="xtick_6">
     <g id="line2d_6">
      <g>
       <use xlink:href="#m231afbb064" x="352.869318" y="231.617555" style="stroke: #000000; stroke-width: 0.8"/>
      </g>
     </g>
     <g id="text_6">
      <!-- 1000 -->
      <g transform="translate(340.144318 246.215993) scale(0.1 -0.1)">
       <defs>
        <path id="DejaVuSans-31" d="M 794 531 
L 1825 531 
L 1825 4091 
L 703 3866 
L 703 4441 
L 1819 4666 
L 2450 4666 
L 2450 531 
L 3481 531 
L 3481 0 
L 794 0 
L 794 531 
z
" transform="scale(0.015625)"/>
       </defs>
       <use xlink:href="#DejaVuSans-31"/>
       <use xlink:href="#DejaVuSans-30" x="63.623047"/>
       <use xlink:href="#DejaVuSans-30" x="127.246094"/>
       <use xlink:href="#DejaVuSans-30" x="190.869141"/>
      </g>
     </g>
    </g>
   </g>
   <g id="matplotlib.axis_2">
    <g id="ytick_1">
     <g id="line2d_7">
      <defs>
       <path id="mef377fc44a" d="M 0 0 
L -3.5 0 
" style="stroke: #000000; stroke-width: 0.8"/>
      </defs>
      <g>
       <use xlink:href="#mef377fc44a" x="33.2875" y="221.537555" style="stroke: #000000; stroke-width: 0.8"/>
      </g>
     </g>
     <g id="text_7">
      <!-- 0 -->
      <g transform="translate(19.925 225.336774) scale(0.1 -0.1)">
       <use xlink:href="#DejaVuSans-30"/>
      </g>
     </g>
    </g>
    <g id="ytick_2">
     <g id="line2d_8">
      <g>
       <use xlink:href="#mef377fc44a" x="33.2875" y="179.429888" style="stroke: #000000; stroke-width: 0.8"/>
      </g>
     </g>
     <g id="text_8">
      <!-- 20 -->
      <g transform="translate(13.5625 183.229107) scale(0.1 -0.1)">
       <use xlink:href="#DejaVuSans-32"/>
       <use xlink:href="#DejaVuSans-30" x="63.623047"/>
      </g>
     </g>
    </g>
    <g id="ytick_3">
     <g id="line2d_9">
      <g>
       <use xlink:href="#mef377fc44a" x="33.2875" y="137.322221" style="stroke: #000000; stroke-width: 0.8"/>
      </g>
     </g>
     <g id="text_9">
      <!-- 40 -->
      <g transform="translate(13.5625 141.121439) scale(0.1 -0.1)">
       <use xlink:href="#DejaVuSans-34"/>
       <use xlink:href="#DejaVuSans-30" x="63.623047"/>
      </g>
     </g>
    </g>
    <g id="ytick_4">
     <g id="line2d_10">
      <g>
       <use xlink:href="#mef377fc44a" x="33.2875" y="95.214553" style="stroke: #000000; stroke-width: 0.8"/>
      </g>
     </g>
     <g id="text_10">
      <!-- 60 -->
      <g transform="translate(13.5625 99.013772) scale(0.1 -0.1)">
       <use xlink:href="#DejaVuSans-36"/>
       <use xlink:href="#DejaVuSans-30" x="63.623047"/>
      </g>
     </g>
    </g>
    <g id="ytick_5">
     <g id="line2d_11">
      <g>
       <use xlink:href="#mef377fc44a" x="33.2875" y="53.106886" style="stroke: #000000; stroke-width: 0.8"/>
      </g>
     </g>
     <g id="text_11">
      <!-- 80 -->
      <g transform="translate(13.5625 56.906105) scale(0.1 -0.1)">
       <use xlink:href="#DejaVuSans-38"/>
       <use xlink:href="#DejaVuSans-30" x="63.623047"/>
      </g>
     </g>
    </g>
    <g id="ytick_6">
     <g id="line2d_12">
      <g>
       <use xlink:href="#mef377fc44a" x="33.2875" y="10.999219" style="stroke: #000000; stroke-width: 0.8"/>
      </g>
     </g>
     <g id="text_12">
      <!-- 100 -->
      <g transform="translate(7.2 14.798438) scale(0.1 -0.1)">
       <use xlink:href="#DejaVuSans-31"/>
       <use xlink:href="#DejaVuSans-30" x="63.623047"/>
       <use xlink:href="#DejaVuSans-30" x="127.246094"/>
      </g>
     </g>
    </g>
   </g>
   <g id="line2d_13">
    <path d="M 48.505682 22.601893 
L 48.810045 90.438023 
L 49.114409 96.568005 
L 49.418773 96.568005 
L 49.723136 106.660174 
L 50.0275 106.660174 
L 50.331864 108.436447 
L 51.853682 108.415196 
L 52.158045 109.17454 
L 52.462409 109.17454 
L 52.766773 110.019918 
L 53.071136 110.019918 
L 53.3755 111.187081 
L 54.288591 111.23139 
L 54.897318 111.310331 
L 63.723864 111.364294 
L 64.028227 115.845028 
L 64.332591 115.845028 
L 64.636955 115.671357 
L 64.941318 115.671357 
L 65.245682 115.358992 
L 66.158773 115.358992 
L 66.463136 115.616125 
L 81.376955 115.616125 
L 81.681318 116.701448 
L 99.638773 116.701448 
L 99.943136 118.18896 
L 110.900227 118.150208 
L 111.204591 120.025235 
L 111.508955 120.025235 
L 111.813318 119.752007 
L 230.210773 119.752007 
L 230.515136 121.363226 
L 352.869318 121.307055 
L 352.869318 121.307055 
" clip-path="url(#p4a7425b432)" style="fill: none; stroke: #1f77b4; stroke-width: 1.5; stroke-linecap: square"/>
   </g>
   <g id="line2d_14">
    <path d="M 48.505682 39.3026 
L 48.810045 38.99898 
L 49.114409 38.99898 
L 49.723136 41.483901 
L 50.0275 41.536296 
L 50.331864 44.119433 
L 50.636227 42.344657 
L 50.940591 42.927381 
L 51.244955 42.927381 
L 51.549318 44.240182 
L 51.853682 44.240182 
L 52.158045 45.993169 
L 52.462409 45.669852 
L 52.766773 45.842091 
L 53.071136 45.788521 
L 53.3755 46.199172 
L 53.679864 46.17026 
L 54.592955 48.042831 
L 55.201682 48.176514 
L 55.506045 48.744174 
L 56.7235 49.13881 
L 57.027864 49.690051 
L 57.332227 49.690051 
L 58.245318 50.211783 
L 58.854045 51.000429 
L 59.767136 51.000429 
L 60.0715 51.307696 
L 60.375864 51.40294 
L 60.984591 51.870794 
L 61.288955 51.639646 
L 61.593318 51.791429 
L 61.897682 52.168319 
L 62.810773 52.216095 
L 63.4195 52.882411 
L 63.723864 53.002813 
L 64.028227 53.002813 
L 64.332591 53.338657 
L 64.636955 53.446244 
L 64.941318 53.717202 
L 65.245682 54.253631 
L 65.550045 54.364362 
L 66.158773 55.155454 
L 67.071864 55.280868 
L 67.376227 55.234461 
L 68.593682 56.005576 
L 68.898045 56.611278 
L 69.202409 56.611278 
L 69.506773 56.746237 
L 69.811136 56.746237 
L 70.419864 57.546769 
L 70.724227 57.611372 
L 71.028591 57.794337 
L 72.246045 59.059518 
L 72.550409 59.238911 
L 72.854773 59.561139 
L 73.159136 59.561139 
L 73.4635 59.929591 
L 73.767864 59.929591 
L 74.072227 60.286082 
L 74.985318 60.552179 
L 75.289682 60.552179 
L 76.202773 61.548832 
L 76.8115 62.168524 
L 77.115864 62.249461 
L 77.420227 62.503882 
L 77.724591 62.168524 
L 78.028955 62.214315 
L 78.333318 62.478391 
L 78.637682 62.553186 
L 78.942045 62.780326 
L 79.246409 63.165765 
L 79.550773 62.824074 
L 79.855136 63.058842 
L 80.463864 63.088623 
L 80.768227 63.518917 
L 81.072591 63.636256 
L 81.376955 63.510063 
L 81.681318 63.8646 
L 82.290045 63.957776 
L 82.898773 64.430469 
L 83.811864 64.776152 
L 84.116227 65.207986 
L 84.420591 65.421205 
L 85.029318 65.502736 
L 85.333682 65.718215 
L 85.942409 66.598057 
L 86.551136 66.52587 
L 86.8555 67.13841 
L 87.159864 67.161088 
L 87.464227 67.516041 
L 88.072955 67.485005 
L 88.377318 68.389286 
L 88.681682 68.76239 
L 89.290409 68.800235 
L 89.899136 69.073333 
L 90.812227 69.145436 
L 91.116591 69.387785 
L 91.420955 69.230505 
L 91.725318 69.241228 
L 92.029682 69.481212 
L 92.638409 69.524709 
L 92.942773 69.863001 
L 93.247136 70.403777 
L 93.5515 70.475986 
L 93.855864 70.923296 
L 95.986409 71.333905 
L 96.290773 71.702822 
L 96.595136 71.747096 
L 96.8995 72.135774 
L 97.203864 72.135774 
L 97.508227 72.638649 
L 97.812591 72.638649 
L 98.116955 72.830626 
L 99.030045 72.924069 
L 99.334409 73.221103 
L 100.2475 73.556052 
L 102.682409 74.940263 
L 102.986773 74.817808 
L 103.291136 75.15652 
L 103.899864 75.049052 
L 104.204227 75.275259 
L 104.508591 75.275259 
L 104.812955 75.454323 
L 106.030409 75.617451 
L 106.334773 75.943493 
L 106.639136 75.873578 
L 106.9435 76.112859 
L 107.247864 76.508354 
L 107.552227 76.395913 
L 107.856591 76.77128 
L 108.160955 76.395547 
L 108.465318 76.493277 
L 108.769682 76.395547 
L 109.074045 76.591857 
L 109.378409 77.032161 
L 109.682773 76.70879 
L 110.2915 76.686184 
L 110.595864 77.077913 
L 110.900227 76.834169 
L 111.508955 77.119634 
L 111.813318 77.294667 
L 112.726409 77.385081 
L 113.030773 77.725167 
L 113.943864 77.808195 
L 114.248227 77.986746 
L 114.552591 77.986746 
L 114.856955 78.1453 
L 115.161318 78.433405 
L 115.465682 78.232257 
L 115.770045 78.425759 
L 116.074409 78.425759 
L 116.378773 78.691307 
L 117.291864 78.732244 
L 117.596227 78.920498 
L 118.509318 79.010285 
L 119.422409 79.664652 
L 119.726773 80.187965 
L 120.3355 80.257119 
L 120.639864 80.498253 
L 121.552955 80.692696 
L 121.857318 80.985817 
L 122.466045 81.141622 
L 122.770409 81.495981 
L 123.074773 81.60334 
L 123.6835 82.04186 
L 123.987864 82.093338 
L 124.292227 82.259977 
L 125.509682 82.29539 
L 126.422773 82.766315 
L 127.0315 82.766315 
L 127.335864 82.921476 
L 127.640227 82.868954 
L 128.248955 83.194391 
L 128.553318 83.429342 
L 128.857682 83.988403 
L 129.466409 83.988403 
L 130.075136 84.586074 
L 130.683864 85.041138 
L 131.292591 85.144874 
L 131.901318 85.139235 
L 132.205682 85.410925 
L 132.510045 85.410925 
L 134.031864 85.91585 
L 134.336227 85.91585 
L 134.944955 86.090556 
L 135.553682 86.073468 
L 135.858045 86.450915 
L 136.162409 86.450915 
L 136.466773 86.332327 
L 137.684227 87.481114 
L 138.901682 87.530373 
L 139.814773 88.14324 
L 140.4235 88.243281 
L 140.727864 88.659185 
L 141.640955 88.709037 
L 142.554045 88.72645 
L 142.858409 88.609304 
L 143.162773 88.861194 
L 143.467136 88.935528 
L 143.7715 89.259774 
L 144.075864 89.374566 
L 144.380227 89.29054 
L 144.988955 89.61712 
L 145.293318 89.61712 
L 146.206409 90.207083 
L 146.510773 89.890078 
L 146.815136 90.209919 
L 147.1195 90.209919 
L 147.423864 90.430074 
L 148.032591 90.382368 
L 148.336955 90.457168 
L 148.641318 90.382368 
L 148.945682 90.544241 
L 149.250045 90.542812 
L 149.858773 90.979057 
L 150.163136 90.82457 
L 150.4675 91.287966 
L 151.076227 91.366351 
L 151.684955 91.41157 
L 151.989318 91.783352 
L 152.293682 91.641197 
L 152.902409 91.735471 
L 153.206773 91.810709 
L 153.511136 92.057419 
L 155.032955 92.242961 
L 155.337318 92.667827 
L 157.1635 92.83807 
L 157.467864 93.067742 
L 157.772227 93.067742 
L 158.076591 93.315598 
L 158.989682 93.252033 
L 159.294045 93.521926 
L 159.598409 93.506283 
L 159.902773 93.722731 
L 160.207136 93.755609 
L 160.5115 94.137941 
L 160.815864 93.974937 
L 161.120227 93.974937 
L 161.424591 94.307829 
L 161.728955 94.174357 
L 162.337682 94.239976 
L 162.642045 94.239976 
L 163.555136 94.531566 
L 163.8595 94.814927 
L 164.163864 94.69956 
L 164.468227 94.993758 
L 164.772591 94.993758 
L 165.381318 95.337721 
L 165.990045 95.262595 
L 166.903136 95.399191 
L 167.2075 95.546735 
L 167.511864 95.859846 
L 167.816227 95.633039 
L 168.120591 95.674651 
L 168.729318 96.217556 
L 169.033682 96.264746 
L 169.338045 96.751119 
L 169.642409 96.850057 
L 170.251136 96.751119 
L 172.381682 96.850202 
L 172.686045 96.944398 
L 173.294773 97.407086 
L 173.599136 97.407086 
L 173.9035 97.574516 
L 174.207864 97.900401 
L 174.512227 97.574516 
L 174.816591 97.900401 
L 175.425318 98.019677 
L 176.338409 97.987223 
L 178.164591 98.381082 
L 178.468955 98.286289 
L 178.773318 98.421256 
L 179.382045 98.421256 
L 179.990773 98.761669 
L 181.208227 99.023028 
L 181.512591 99.266339 
L 181.816955 99.061723 
L 182.730045 99.135517 
L 183.034409 99.650842 
L 183.9475 99.706191 
L 184.860591 99.998875 
L 185.164955 100.31588 
L 185.469318 100.12946 
L 185.773682 100.119116 
L 186.686773 100.553454 
L 186.991136 100.553454 
L 187.599864 100.872761 
L 187.904227 100.932164 
L 188.208591 101.19325 
L 188.512955 101.001033 
L 189.426045 100.903855 
L 189.730409 101.182612 
L 190.034773 101.029307 
L 190.6435 101.113953 
L 191.556591 101.280996 
L 192.165318 101.467609 
L 192.774045 101.411607 
L 193.078409 101.710391 
L 194.904591 101.899346 
L 195.513318 101.823503 
L 195.817682 102.01822 
L 196.730773 102.128062 
L 197.035136 102.396593 
L 197.948227 102.444257 
L 198.252591 102.396593 
L 198.556955 102.502902 
L 198.861318 102.743401 
L 199.470045 102.70216 
L 199.774409 102.957601 
L 200.078773 102.845267 
L 200.6875 102.950604 
L 200.991864 102.981886 
L 201.296227 103.184857 
L 201.904955 103.198906 
L 202.818045 103.559609 
L 203.731136 103.724904 
L 204.0355 104.016157 
L 204.644227 104.109002 
L 205.557318 104.266083 
L 205.861682 104.673994 
L 206.166045 104.673994 
L 206.470409 104.542701 
L 207.687864 104.676296 
L 208.296591 105.141611 
L 208.600955 105.141611 
L 208.905318 105.410941 
L 209.514045 105.410941 
L 209.818409 105.793533 
L 210.427136 105.814878 
L 210.7315 105.939004 
L 211.035864 105.939004 
L 211.340227 106.355164 
L 212.557682 106.569283 
L 212.862045 106.371487 
L 213.166409 106.58283 
L 214.0795 106.511658 
L 214.688227 106.69065 
L 214.992591 106.9093 
L 215.296955 106.849497 
L 215.905682 106.963522 
L 216.818773 107.228871 
L 217.4275 107.286111 
L 218.340591 107.541858 
L 218.644955 107.513408 
L 218.949318 107.955538 
L 219.558045 108.011303 
L 219.862409 108.381859 
L 220.166773 108.100031 
L 220.471136 108.100031 
L 220.7755 108.36647 
L 221.079864 108.430558 
L 221.384227 108.761261 
L 221.992955 109.000804 
L 222.601682 109.016552 
L 222.906045 109.507671 
L 223.210409 109.71396 
L 223.514773 109.71396 
L 223.819136 109.848131 
L 224.1235 109.848131 
L 224.732227 109.98068 
L 225.340955 110.001407 
L 225.645318 110.22393 
L 225.949682 110.114851 
L 226.254045 110.364487 
L 227.167136 110.467265 
L 228.080227 110.556791 
L 228.384591 111.141414 
L 228.993318 111.141414 
L 229.297682 111.328624 
L 229.906409 111.210815 
L 230.210773 111.328559 
L 230.515136 111.325097 
L 231.123864 111.582844 
L 231.428227 111.590433 
L 231.732591 111.800212 
L 233.254409 111.876606 
L 233.863136 112.04751 
L 234.471864 112.048401 
L 234.776227 112.316851 
L 235.384955 112.316851 
L 235.993682 112.841598 
L 236.906773 113.220687 
L 237.819864 113.32694 
L 238.124227 113.519471 
L 238.732955 113.617042 
L 239.037318 113.756259 
L 239.646045 113.743599 
L 239.950409 113.947274 
L 240.559136 113.834422 
L 240.8635 113.91665 
L 241.167864 114.12695 
L 241.472227 114.12695 
L 241.776591 114.300001 
L 242.080955 114.251913 
L 243.907136 114.600975 
L 245.124591 114.607914 
L 246.646409 115.072384 
L 246.950773 115.072384 
L 247.5595 115.273179 
L 247.863864 115.257537 
L 248.168227 115.441251 
L 248.472591 115.370466 
L 249.081318 115.587013 
L 249.690045 115.587013 
L 249.994409 115.837551 
L 250.298773 115.790164 
L 251.516227 116.304737 
L 252.124955 116.304737 
L 252.733682 116.609378 
L 253.038045 116.99515 
L 253.342409 116.775957 
L 254.559864 116.841799 
L 255.168591 117.332302 
L 255.777318 117.332302 
L 256.081682 117.753142 
L 256.386045 117.513521 
L 257.6035 117.936573 
L 257.907864 117.668853 
L 258.212227 117.687245 
L 258.516591 117.936017 
L 258.820955 117.936017 
L 259.125318 118.061365 
L 260.342773 118.15853 
L 260.647136 118.56303 
L 260.9515 118.366306 
L 261.255864 118.70577 
L 261.864591 118.59152 
L 262.473318 118.687487 
L 263.386409 119.001115 
L 263.690773 118.90263 
L 264.603864 119.696627 
L 265.212591 119.598142 
L 265.821318 119.635998 
L 266.125682 119.938135 
L 266.430045 119.887069 
L 267.038773 120.065559 
L 267.343136 120.106655 
L 267.6475 120.00391 
L 267.951864 120.107198 
L 268.560591 120.051102 
L 269.169318 120.343718 
L 269.778045 120.498747 
L 270.082409 120.52276 
L 270.386773 120.373353 
L 270.691136 120.91554 
L 270.9955 120.766132 
L 271.299864 121.03949 
L 273.126045 121.244234 
L 273.734773 121.349061 
L 274.647864 121.440683 
L 275.865318 121.866607 
L 277.082773 121.959077 
L 277.387136 121.929591 
L 278.300227 122.181675 
L 278.604591 122.012987 
L 279.213318 122.09399 
L 279.822045 122.596233 
L 280.126409 122.596233 
L 281.0395 123.067439 
L 281.343864 122.85557 
L 281.952591 122.983697 
L 282.256955 123.194583 
L 284.3875 123.292824 
L 284.691864 123.329492 
L 284.996227 123.232425 
L 285.909318 123.583978 
L 286.213682 123.504298 
L 287.126773 123.694799 
L 287.431136 123.350588 
L 287.7355 123.743892 
L 288.344227 123.628708 
L 288.648591 123.628708 
L 288.952955 124.027985 
L 289.561682 123.963846 
L 290.170409 124.055977 
L 290.474773 124.04031 
L 290.779136 124.170267 
L 292.300955 124.236916 
L 293.214045 124.779459 
L 293.518409 125.154671 
L 293.822773 125.154671 
L 294.127136 125.042565 
L 295.040227 125.24109 
L 295.648955 125.435744 
L 295.953318 125.50372 
L 296.257682 125.718555 
L 296.562045 125.488815 
L 296.866409 125.488815 
L 297.170773 125.688482 
L 297.475136 125.599348 
L 297.7795 125.705643 
L 298.083864 125.939006 
L 298.996955 125.905748 
L 299.301318 126.112297 
L 299.910045 126.112297 
L 300.518773 126.484251 
L 302.344955 126.450208 
L 302.649318 126.617599 
L 302.953682 126.602762 
L 303.562409 126.702368 
L 304.4755 126.746034 
L 305.084227 126.840434 
L 305.388591 126.840434 
L 305.997318 127.152443 
L 307.519136 127.219987 
L 308.736591 127.644355 
L 309.040955 127.644355 
L 309.345318 127.795562 
L 309.649682 127.720271 
L 309.954045 127.879635 
L 310.562773 127.782421 
L 311.1715 127.870233 
L 312.388955 128.09932 
L 313.302045 128.215432 
L 314.5195 128.298092 
L 314.823864 128.435269 
L 315.128227 128.298092 
L 315.432591 128.298092 
L 315.736955 128.44234 
L 316.041318 128.44234 
L 316.650045 128.740939 
L 316.954409 128.545906 
L 317.8675 128.60812 
L 318.171864 128.8255 
L 318.476227 128.8255 
L 318.780591 128.697025 
L 319.389318 128.796305 
L 319.693682 128.70452 
L 320.606773 129.185949 
L 320.911136 129.069847 
L 322.128591 129.514885 
L 322.432955 129.514885 
L 322.737318 129.81774 
L 324.259136 129.848081 
L 324.5635 129.955651 
L 325.172227 129.882092 
L 325.780955 129.882092 
L 326.085318 130.020838 
L 326.389682 129.907204 
L 326.694045 130.06941 
L 327.302773 130.005812 
L 327.607136 130.005812 
L 327.9115 130.135908 
L 329.128955 130.16834 
L 330.346409 130.501154 
L 330.955136 130.483434 
L 332.476955 130.57449 
L 333.085682 130.647774 
L 334.911864 130.595057 
L 335.216227 130.846052 
L 335.824955 130.727188 
L 336.738045 130.808643 
L 337.042409 131.061487 
L 337.346773 130.841032 
L 337.651136 130.973571 
L 338.564227 131.027484 
L 338.868591 131.208626 
L 339.172955 131.027484 
L 340.694773 131.078802 
L 341.3035 131.13959 
L 342.216591 131.202153 
L 342.825318 131.347167 
L 343.129682 131.269018 
L 343.434045 131.497762 
L 344.042773 131.480863 
L 344.955864 131.834009 
L 345.868955 131.814021 
L 346.173318 131.978137 
L 347.695136 132.015073 
L 347.9995 132.240278 
L 348.608227 132.425556 
L 348.912591 132.311052 
L 350.738773 132.699463 
L 351.043136 132.555569 
L 351.651864 132.555569 
L 351.956227 132.684844 
L 352.869318 132.670415 
L 352.869318 132.670415 
" clip-path="url(#p4a7425b432)" style="fill: none; stroke: #ff7f0e; stroke-width: 1.5; stroke-linecap: square"/>
   </g>
   <g id="line2d_15">
    <path d="M 48.505682 19.937555 
L 48.810045 21.021811 
L 49.114409 21.206847 
L 49.723136 22.465012 
L 50.0275 23.683607 
L 50.331864 26.068663 
L 50.636227 27.096769 
L 51.244955 27.096769 
L 51.549318 27.724668 
L 51.853682 27.855211 
L 52.158045 29.355879 
L 52.462409 29.66557 
L 52.766773 31.13144 
L 53.071136 31.229874 
L 53.3755 32.146458 
L 53.679864 32.395429 
L 53.984227 33.520495 
L 54.288591 33.904888 
L 54.592955 34.984454 
L 54.897318 34.984454 
L 55.201682 36.276797 
L 55.506045 36.645807 
L 55.810409 36.645807 
L 56.114773 37.292285 
L 56.419136 37.590202 
L 56.7235 37.375136 
L 57.027864 37.982147 
L 57.332227 39.128066 
L 57.636591 39.60605 
L 57.940955 39.868915 
L 58.549682 39.915986 
L 58.854045 40.394862 
L 59.158409 40.408899 
L 59.462773 41.174598 
L 59.767136 41.466734 
L 60.0715 41.466734 
L 60.375864 41.86904 
L 60.680227 41.86904 
L 61.288955 42.216456 
L 61.593318 42.498344 
L 61.897682 43.108759 
L 62.202045 43.264696 
L 62.506409 44.275106 
L 62.810773 44.641709 
L 63.4195 44.932918 
L 63.723864 45.207463 
L 64.636955 45.257557 
L 64.941318 45.257557 
L 65.245682 45.621591 
L 65.854409 45.60568 
L 66.158773 45.714342 
L 66.463136 46.074376 
L 67.071864 46.057039 
L 67.376227 46.25995 
L 70.419864 46.368991 
L 70.724227 46.471791 
L 71.028591 46.803989 
L 71.637318 46.884951 
L 71.941682 46.884951 
L 72.246045 47.159795 
L 72.550409 47.131445 
L 73.159136 47.648579 
L 73.767864 47.646634 
L 74.072227 47.772351 
L 74.376591 48.163202 
L 74.680955 48.163202 
L 75.289682 48.597608 
L 75.594045 48.622882 
L 75.898409 48.963391 
L 76.8115 49.442638 
L 77.420227 49.906961 
L 77.724591 49.906961 
L 78.028955 50.257051 
L 78.333318 50.257051 
L 78.637682 50.868967 
L 78.942045 51.173408 
L 79.246409 51.219367 
L 79.550773 51.991904 
L 81.072591 52.122411 
L 81.376955 52.694043 
L 82.898773 52.719519 
L 83.5075 52.719519 
L 83.811864 53.160295 
L 84.116227 53.283978 
L 84.724955 53.283978 
L 85.029318 53.147825 
L 85.638045 53.147825 
L 85.942409 53.400568 
L 87.159864 53.367503 
L 88.681682 53.392037 
L 88.986045 53.918549 
L 90.507864 54.44955 
L 90.812227 54.961585 
L 91.420955 55.146022 
L 94.768955 55.193633 
L 95.073318 55.554205 
L 95.682045 55.623854 
L 96.595136 55.782619 
L 96.8995 55.656426 
L 98.421318 55.67778 
L 98.725682 56.031188 
L 99.030045 56.031188 
L 99.334409 56.176939 
L 100.856227 56.15552 
L 101.464955 56.426691 
L 102.073682 56.426691 
L 103.5955 56.968675 
L 104.812955 57.345467 
L 105.117318 57.345467 
L 105.421682 57.478417 
L 105.726045 57.478417 
L 106.030409 57.640865 
L 108.160955 57.738181 
L 110.2915 58.178438 
L 110.595864 58.535501 
L 110.900227 58.535501 
L 111.204591 58.696784 
L 113.943864 58.81028 
L 115.465682 59.204701 
L 115.770045 59.491175 
L 118.813682 59.802911 
L 127.335864 59.906778 
L 127.640227 60.121462 
L 130.075136 60.153343 
L 130.988227 60.331091 
L 131.901318 60.451918 
L 134.640591 60.587599 
L 134.944955 60.850142 
L 137.988591 60.972074 
L 138.901682 61.028208 
L 140.727864 61.138917 
L 141.640955 61.224224 
L 152.598045 61.286664 
L 152.902409 61.660989 
L 154.424227 61.80301 
L 155.337318 61.84702 
L 156.250409 61.84702 
L 156.554773 62.170187 
L 157.1635 62.171027 
L 158.076591 62.450896 
L 167.511864 62.550644 
L 168.424955 62.597203 
L 171.164227 62.668798 
L 171.772955 62.743803 
L 173.599136 62.743803 
L 173.9035 62.919361 
L 176.642773 63.02322 
L 177.2515 63.081079 
L 179.686409 63.180881 
L 181.208227 63.254286 
L 184.251864 63.312883 
L 184.556227 63.491317 
L 185.164955 63.579883 
L 185.773682 63.697197 
L 186.686773 63.750797 
L 189.121682 63.808645 
L 190.034773 63.932724 
L 191.860955 63.964269 
L 192.165318 64.151907 
L 200.383136 64.250791 
L 200.6875 64.371794 
L 201.600591 64.371794 
L 202.209318 64.483987 
L 204.339864 64.53487 
L 204.644227 64.679901 
L 208.905318 64.781372 
L 211.035864 64.843019 
L 216.210045 64.944037 
L 218.644955 64.984357 
L 227.167136 65.076006 
L 229.297682 65.27554 
L 229.906409 65.394567 
L 247.863864 65.503247 
L 248.776955 65.555442 
L 257.907864 65.578392 
L 258.212227 221.537555 
L 352.869318 221.537555 
L 352.869318 221.537555 
" clip-path="url(#p4a7425b432)" style="fill: none; stroke: #2ca02c; stroke-width: 1.5; stroke-linecap: square"/>
   </g>
   <g id="patch_3">
    <path d="M 33.2875 231.617555 
L 33.2875 9.857555 
" style="fill: none; stroke: #000000; stroke-width: 0.8; stroke-linejoin: miter; stroke-linecap: square"/>
   </g>
   <g id="patch_4">
    <path d="M 368.0875 231.617555 
L 368.0875 9.857555 
" style="fill: none; stroke: #000000; stroke-width: 0.8; stroke-linejoin: miter; stroke-linecap: square"/>
   </g>
   <g id="patch_5">
    <path d="M 33.2875 231.617555 
L 368.0875 231.617555 
" style="fill: none; stroke: #000000; stroke-width: 0.8; stroke-linejoin: miter; stroke-linecap: square"/>
   </g>
   <g id="patch_6">
    <path d="M 33.2875 9.857555 
L 368.0875 9.857555 
" style="fill: none; stroke: #000000; stroke-width: 0.8; stroke-linejoin: miter; stroke-linecap: square"/>
   </g>
   <g id="legend_1">
    <g id="patch_7">
     <path d="M 204.401563 61.89193 
L 361.0875 61.89193 
Q 363.0875 61.89193 363.0875 59.89193 
L 363.0875 16.857555 
Q 363.0875 14.857555 361.0875 14.857555 
L 204.401563 14.857555 
Q 202.401563 14.857555 202.401563 16.857555 
L 202.401563 59.89193 
Q 202.401563 61.89193 204.401563 61.89193 
z
" style="fill: #ffffff; opacity: 0.8; stroke: #cccccc; stroke-linejoin: miter"/>
    </g>
    <g id="line2d_16">
     <path d="M 206.401563 22.955993 
L 216.401563 22.955993 
L 226.401563 22.955993 
" style="fill: none; stroke: #1f77b4; stroke-width: 1.5; stroke-linecap: square"/>
    </g>
    <g id="text_13">
     <!-- PSO communication cost -->
     <g transform="translate(234.401563 26.455993) scale(0.1 -0.1)">
      <defs>
       <path id="DejaVuSans-50" d="M 1259 4147 
L 1259 2394 
L 2053 2394 
Q 2494 2394 2734 2622 
Q 2975 2850 2975 3272 
Q 2975 3691 2734 3919 
Q 2494 4147 2053 4147 
L 1259 4147 
z
M 628 4666 
L 2053 4666 
Q 2838 4666 3239 4311 
Q 3641 3956 3641 3272 
Q 3641 2581 3239 2228 
Q 2838 1875 2053 1875 
L 1259 1875 
L 1259 0 
L 628 0 
L 628 4666 
z
" transform="scale(0.015625)"/>
       <path id="DejaVuSans-53" d="M 3425 4513 
L 3425 3897 
Q 3066 4069 2747 4153 
Q 2428 4238 2131 4238 
Q 1616 4238 1336 4038 
Q 1056 3838 1056 3469 
Q 1056 3159 1242 3001 
Q 1428 2844 1947 2747 
L 2328 2669 
Q 3034 2534 3370 2195 
Q 3706 1856 3706 1288 
Q 3706 609 3251 259 
Q 2797 -91 1919 -91 
Q 1588 -91 1214 -16 
Q 841 59 441 206 
L 441 856 
Q 825 641 1194 531 
Q 1563 422 1919 422 
Q 2459 422 2753 634 
Q 3047 847 3047 1241 
Q 3047 1584 2836 1778 
Q 2625 1972 2144 2069 
L 1759 2144 
Q 1053 2284 737 2584 
Q 422 2884 422 3419 
Q 422 4038 858 4394 
Q 1294 4750 2059 4750 
Q 2388 4750 2728 4690 
Q 3069 4631 3425 4513 
z
" transform="scale(0.015625)"/>
       <path id="DejaVuSans-4f" d="M 2522 4238 
Q 1834 4238 1429 3725 
Q 1025 3213 1025 2328 
Q 1025 1447 1429 934 
Q 1834 422 2522 422 
Q 3209 422 3611 934 
Q 4013 1447 4013 2328 
Q 4013 3213 3611 3725 
Q 3209 4238 2522 4238 
z
M 2522 4750 
Q 3503 4750 4090 4092 
Q 4678 3434 4678 2328 
Q 4678 1225 4090 567 
Q 3503 -91 2522 -91 
Q 1538 -91 948 565 
Q 359 1222 359 2328 
Q 359 3434 948 4092 
Q 1538 4750 2522 4750 
z
" transform="scale(0.015625)"/>
       <path id="DejaVuSans-20" transform="scale(0.015625)"/>
       <path id="DejaVuSans-63" d="M 3122 3366 
L 3122 2828 
Q 2878 2963 2633 3030 
Q 2388 3097 2138 3097 
Q 1578 3097 1268 2742 
Q 959 2388 959 1747 
Q 959 1106 1268 751 
Q 1578 397 2138 397 
Q 2388 397 2633 464 
Q 2878 531 3122 666 
L 3122 134 
Q 2881 22 2623 -34 
Q 2366 -91 2075 -91 
Q 1284 -91 818 406 
Q 353 903 353 1747 
Q 353 2603 823 3093 
Q 1294 3584 2113 3584 
Q 2378 3584 2631 3529 
Q 2884 3475 3122 3366 
z
" transform="scale(0.015625)"/>
       <path id="DejaVuSans-6f" d="M 1959 3097 
Q 1497 3097 1228 2736 
Q 959 2375 959 1747 
Q 959 1119 1226 758 
Q 1494 397 1959 397 
Q 2419 397 2687 759 
Q 2956 1122 2956 1747 
Q 2956 2369 2687 2733 
Q 2419 3097 1959 3097 
z
M 1959 3584 
Q 2709 3584 3137 3096 
Q 3566 2609 3566 1747 
Q 3566 888 3137 398 
Q 2709 -91 1959 -91 
Q 1206 -91 779 398 
Q 353 888 353 1747 
Q 353 2609 779 3096 
Q 1206 3584 1959 3584 
z
" transform="scale(0.015625)"/>
       <path id="DejaVuSans-6d" d="M 3328 2828 
Q 3544 3216 3844 3400 
Q 4144 3584 4550 3584 
Q 5097 3584 5394 3201 
Q 5691 2819 5691 2113 
L 5691 0 
L 5113 0 
L 5113 2094 
Q 5113 2597 4934 2840 
Q 4756 3084 4391 3084 
Q 3944 3084 3684 2787 
Q 3425 2491 3425 1978 
L 3425 0 
L 2847 0 
L 2847 2094 
Q 2847 2600 2669 2842 
Q 2491 3084 2119 3084 
Q 1678 3084 1418 2786 
Q 1159 2488 1159 1978 
L 1159 0 
L 581 0 
L 581 3500 
L 1159 3500 
L 1159 2956 
Q 1356 3278 1631 3431 
Q 1906 3584 2284 3584 
Q 2666 3584 2933 3390 
Q 3200 3197 3328 2828 
z
" transform="scale(0.015625)"/>
       <path id="DejaVuSans-75" d="M 544 1381 
L 544 3500 
L 1119 3500 
L 1119 1403 
Q 1119 906 1312 657 
Q 1506 409 1894 409 
Q 2359 409 2629 706 
Q 2900 1003 2900 1516 
L 2900 3500 
L 3475 3500 
L 3475 0 
L 2900 0 
L 2900 538 
Q 2691 219 2414 64 
Q 2138 -91 1772 -91 
Q 1169 -91 856 284 
Q 544 659 544 1381 
z
M 1991 3584 
L 1991 3584 
z
" transform="scale(0.015625)"/>
       <path id="DejaVuSans-6e" d="M 3513 2113 
L 3513 0 
L 2938 0 
L 2938 2094 
Q 2938 2591 2744 2837 
Q 2550 3084 2163 3084 
Q 1697 3084 1428 2787 
Q 1159 2491 1159 1978 
L 1159 0 
L 581 0 
L 581 3500 
L 1159 3500 
L 1159 2956 
Q 1366 3272 1645 3428 
Q 1925 3584 2291 3584 
Q 2894 3584 3203 3211 
Q 3513 2838 3513 2113 
z
" transform="scale(0.015625)"/>
       <path id="DejaVuSans-69" d="M 603 3500 
L 1178 3500 
L 1178 0 
L 603 0 
L 603 3500 
z
M 603 4863 
L 1178 4863 
L 1178 4134 
L 603 4134 
L 603 4863 
z
" transform="scale(0.015625)"/>
       <path id="DejaVuSans-61" d="M 2194 1759 
Q 1497 1759 1228 1600 
Q 959 1441 959 1056 
Q 959 750 1161 570 
Q 1363 391 1709 391 
Q 2188 391 2477 730 
Q 2766 1069 2766 1631 
L 2766 1759 
L 2194 1759 
z
M 3341 1997 
L 3341 0 
L 2766 0 
L 2766 531 
Q 2569 213 2275 61 
Q 1981 -91 1556 -91 
Q 1019 -91 701 211 
Q 384 513 384 1019 
Q 384 1609 779 1909 
Q 1175 2209 1959 2209 
L 2766 2209 
L 2766 2266 
Q 2766 2663 2505 2880 
Q 2244 3097 1772 3097 
Q 1472 3097 1187 3025 
Q 903 2953 641 2809 
L 641 3341 
Q 956 3463 1253 3523 
Q 1550 3584 1831 3584 
Q 2591 3584 2966 3190 
Q 3341 2797 3341 1997 
z
" transform="scale(0.015625)"/>
       <path id="DejaVuSans-74" d="M 1172 4494 
L 1172 3500 
L 2356 3500 
L 2356 3053 
L 1172 3053 
L 1172 1153 
Q 1172 725 1289 603 
Q 1406 481 1766 481 
L 2356 481 
L 2356 0 
L 1766 0 
Q 1100 0 847 248 
Q 594 497 594 1153 
L 594 3053 
L 172 3053 
L 172 3500 
L 594 3500 
L 594 4494 
L 1172 4494 
z
" transform="scale(0.015625)"/>
       <path id="DejaVuSans-73" d="M 2834 3397 
L 2834 2853 
Q 2591 2978 2328 3040 
Q 2066 3103 1784 3103 
Q 1356 3103 1142 2972 
Q 928 2841 928 2578 
Q 928 2378 1081 2264 
Q 1234 2150 1697 2047 
L 1894 2003 
Q 2506 1872 2764 1633 
Q 3022 1394 3022 966 
Q 3022 478 2636 193 
Q 2250 -91 1575 -91 
Q 1294 -91 989 -36 
Q 684 19 347 128 
L 347 722 
Q 666 556 975 473 
Q 1284 391 1588 391 
Q 1994 391 2212 530 
Q 2431 669 2431 922 
Q 2431 1156 2273 1281 
Q 2116 1406 1581 1522 
L 1381 1569 
Q 847 1681 609 1914 
Q 372 2147 372 2553 
Q 372 3047 722 3315 
Q 1072 3584 1716 3584 
Q 2034 3584 2315 3537 
Q 2597 3491 2834 3397 
z
" transform="scale(0.015625)"/>
      </defs>
      <use xlink:href="#DejaVuSans-50"/>
      <use xlink:href="#DejaVuSans-53" x="60.302734"/>
      <use xlink:href="#DejaVuSans-4f" x="123.779297"/>
      <use xlink:href="#DejaVuSans-20" x="202.490234"/>
      <use xlink:href="#DejaVuSans-63" x="234.277344"/>
      <use xlink:href="#DejaVuSans-6f" x="289.257812"/>
      <use xlink:href="#DejaVuSans-6d" x="350.439453"/>
      <use xlink:href="#DejaVuSans-6d" x="447.851562"/>
      <use xlink:href="#DejaVuSans-75" x="545.263672"/>
      <use xlink:href="#DejaVuSans-6e" x="608.642578"/>
      <use xlink:href="#DejaVuSans-69" x="672.021484"/>
      <use xlink:href="#DejaVuSans-63" x="699.804688"/>
      <use xlink:href="#DejaVuSans-61" x="754.785156"/>
      <use xlink:href="#DejaVuSans-74" x="816.064453"/>
      <use xlink:href="#DejaVuSans-69" x="855.273438"/>
      <use xlink:href="#DejaVuSans-6f" x="883.056641"/>
      <use xlink:href="#DejaVuSans-6e" x="944.238281"/>
      <use xlink:href="#DejaVuSans-20" x="1007.617188"/>
      <use xlink:href="#DejaVuSans-63" x="1039.404297"/>
      <use xlink:href="#DejaVuSans-6f" x="1094.384766"/>
      <use xlink:href="#DejaVuSans-73" x="1155.566406"/>
      <use xlink:href="#DejaVuSans-74" x="1207.666016"/>
     </g>
    </g>
    <g id="line2d_17">
     <path d="M 206.401563 37.634118 
L 216.401563 37.634118 
L 226.401563 37.634118 
" style="fill: none; stroke: #ff7f0e; stroke-width: 1.5; stroke-linecap: square"/>
    </g>
    <g id="text_14">
     <!-- GA communication cost -->
     <g transform="translate(234.401563 41.134118) scale(0.1 -0.1)">
      <defs>
       <path id="DejaVuSans-47" d="M 3809 666 
L 3809 1919 
L 2778 1919 
L 2778 2438 
L 4434 2438 
L 4434 434 
Q 4069 175 3628 42 
Q 3188 -91 2688 -91 
Q 1594 -91 976 548 
Q 359 1188 359 2328 
Q 359 3472 976 4111 
Q 1594 4750 2688 4750 
Q 3144 4750 3555 4637 
Q 3966 4525 4313 4306 
L 4313 3634 
Q 3963 3931 3569 4081 
Q 3175 4231 2741 4231 
Q 1884 4231 1454 3753 
Q 1025 3275 1025 2328 
Q 1025 1384 1454 906 
Q 1884 428 2741 428 
Q 3075 428 3337 486 
Q 3600 544 3809 666 
z
" transform="scale(0.015625)"/>
       <path id="DejaVuSans-41" d="M 2188 4044 
L 1331 1722 
L 3047 1722 
L 2188 4044 
z
M 1831 4666 
L 2547 4666 
L 4325 0 
L 3669 0 
L 3244 1197 
L 1141 1197 
L 716 0 
L 50 0 
L 1831 4666 
z
" transform="scale(0.015625)"/>
      </defs>
      <use xlink:href="#DejaVuSans-47"/>
      <use xlink:href="#DejaVuSans-41" x="77.490234"/>
      <use xlink:href="#DejaVuSans-20" x="145.898438"/>
      <use xlink:href="#DejaVuSans-63" x="177.685547"/>
      <use xlink:href="#DejaVuSans-6f" x="232.666016"/>
      <use xlink:href="#DejaVuSans-6d" x="293.847656"/>
      <use xlink:href="#DejaVuSans-6d" x="391.259766"/>
      <use xlink:href="#DejaVuSans-75" x="488.671875"/>
      <use xlink:href="#DejaVuSans-6e" x="552.050781"/>
      <use xlink:href="#DejaVuSans-69" x="615.429688"/>
      <use xlink:href="#DejaVuSans-63" x="643.212891"/>
      <use xlink:href="#DejaVuSans-61" x="698.193359"/>
      <use xlink:href="#DejaVuSans-74" x="759.472656"/>
      <use xlink:href="#DejaVuSans-69" x="798.681641"/>
      <use xlink:href="#DejaVuSans-6f" x="826.464844"/>
      <use xlink:href="#DejaVuSans-6e" x="887.646484"/>
      <use xlink:href="#DejaVuSans-20" x="951.025391"/>
      <use xlink:href="#DejaVuSans-63" x="982.8125"/>
      <use xlink:href="#DejaVuSans-6f" x="1037.792969"/>
      <use xlink:href="#DejaVuSans-73" x="1098.974609"/>
      <use xlink:href="#DejaVuSans-74" x="1151.074219"/>
     </g>
    </g>
    <g id="line2d_18">
     <path d="M 206.401563 52.312243 
L 216.401563 52.312243 
L 226.401563 52.312243 
" style="fill: none; stroke: #2ca02c; stroke-width: 1.5; stroke-linecap: square"/>
    </g>
    <g id="text_15">
     <!-- CA communication cost -->
     <g transform="translate(234.401563 55.812243) scale(0.1 -0.1)">
      <defs>
       <path id="DejaVuSans-43" d="M 4122 4306 
L 4122 3641 
Q 3803 3938 3442 4084 
Q 3081 4231 2675 4231 
Q 1875 4231 1450 3742 
Q 1025 3253 1025 2328 
Q 1025 1406 1450 917 
Q 1875 428 2675 428 
Q 3081 428 3442 575 
Q 3803 722 4122 1019 
L 4122 359 
Q 3791 134 3420 21 
Q 3050 -91 2638 -91 
Q 1578 -91 968 557 
Q 359 1206 359 2328 
Q 359 3453 968 4101 
Q 1578 4750 2638 4750 
Q 3056 4750 3426 4639 
Q 3797 4528 4122 4306 
z
" transform="scale(0.015625)"/>
      </defs>
      <use xlink:href="#DejaVuSans-43"/>
      <use xlink:href="#DejaVuSans-41" x="69.824219"/>
      <use xlink:href="#DejaVuSans-20" x="138.232422"/>
      <use xlink:href="#DejaVuSans-63" x="170.019531"/>
      <use xlink:href="#DejaVuSans-6f" x="225"/>
      <use xlink:href="#DejaVuSans-6d" x="286.181641"/>
      <use xlink:href="#DejaVuSans-6d" x="383.59375"/>
      <use xlink:href="#DejaVuSans-75" x="481.005859"/>
      <use xlink:href="#DejaVuSans-6e" x="544.384766"/>
      <use xlink:href="#DejaVuSans-69" x="607.763672"/>
      <use xlink:href="#DejaVuSans-63" x="635.546875"/>
      <use xlink:href="#DejaVuSans-61" x="690.527344"/>
      <use xlink:href="#DejaVuSans-74" x="751.806641"/>
      <use xlink:href="#DejaVuSans-69" x="791.015625"/>
      <use xlink:href="#DejaVuSans-6f" x="818.798828"/>
      <use xlink:href="#DejaVuSans-6e" x="879.980469"/>
      <use xlink:href="#DejaVuSans-20" x="943.359375"/>
      <use xlink:href="#DejaVuSans-63" x="975.146484"/>
      <use xlink:href="#DejaVuSans-6f" x="1030.126953"/>
      <use xlink:href="#DejaVuSans-73" x="1091.308594"/>
      <use xlink:href="#DejaVuSans-74" x="1143.408203"/>
     </g>
    </g>
   </g>
  </g>
 </g>
 <defs>
  <clipPath id="p4a7425b432">
   <rect x="33.2875" y="9.857555" width="334.8" height="221.76"/>
  </clipPath>
 </defs>
</svg>
