<?xml version="1.0" encoding="utf-8" standalone="no"?>
<!DOCTYPE svg PUBLIC "-//W3C//DTD SVG 1.1//EN"
  "http://www.w3.org/Graphics/SVG/1.1/DTD/svg11.dtd">
<svg xmlns:xlink="http://www.w3.org/1999/xlink" width="377.267992pt" height="252.838125pt" viewBox="0 0 377.267992 252.838125" xmlns="http://www.w3.org/2000/svg" version="1.1">
 <metadata>
  <rdf:RDF xmlns:dc="http://purl.org/dc/elements/1.1/" xmlns:cc="http://creativecommons.org/ns#" xmlns:rdf="http://www.w3.org/1999/02/22-rdf-syntax-ns#">
   <cc:Work>
    <dc:type rdf:resource="http://purl.org/dc/dcmitype/StillImage"/>
    <dc:date>2023-04-20T00:41:03.317685</dc:date>
    <dc:format>image/svg+xml</dc:format>
    <dc:creator>
     <cc:Agent>
      <dc:title>Matplotlib v3.6.2, https://matplotlib.org/</dc:title>
     </cc:Agent>
    </dc:creator>
   </cc:Work>
  </rdf:RDF>
 </metadata>
 <defs>
  <style type="text/css">*{stroke-linejoin: round; stroke-linecap: butt}</style>
 </defs>
 <g id="figure_1">
  <g id="patch_1">
   <path d="M -0 252.838125 
L 377.267992 252.838125 
L 377.267992 0 
L -0 0 
z
" style="fill: #ffffff"/>
  </g>
  <g id="axes_1">
   <g id="patch_2">
    <path d="M 26.925 228.96 
L 361.725 228.96 
L 361.725 7.2 
L 26.925 7.2 
z
" style="fill: #ffffff"/>
   </g>
   <g id="matplotlib.axis_1">
    <g id="xtick_1">
     <g id="line2d_1">
      <defs>
       <path id="m6d45401bc5" d="M 0 0 
L 0 3.5 
" style="stroke: #000000; stroke-width: 0.8"/>
      </defs>
      <g>
       <use xlink:href="#m6d45401bc5" x="41.849308" y="228.96" style="stroke: #000000; stroke-width: 0.8"/>
      </g>
     </g>
     <g id="text_1">
      <!-- 0 -->
      <g transform="translate(38.668058 243.558437) scale(0.1 -0.1)">
       <defs>
        <path id="DejaVuSans-30" d="M 2034 4250 
Q 1547 4250 1301 3770 
Q 1056 3291 1056 2328 
Q 1056 1369 1301 889 
Q 1547 409 2034 409 
Q 2525 409 2770 889 
Q 3016 1369 3016 2328 
Q 3016 3291 2770 3770 
Q 2525 4250 2034 4250 
z
M 2034 4750 
Q 2819 4750 3233 4129 
Q 3647 3509 3647 2328 
Q 3647 1150 3233 529 
Q 2819 -91 2034 -91 
Q 1250 -91 836 529 
Q 422 1150 422 2328 
Q 422 3509 836 4129 
Q 1250 4750 2034 4750 
z
" transform="scale(0.015625)"/>
       </defs>
       <use xlink:href="#DejaVuSans-30"/>
      </g>
     </g>
    </g>
    <g id="xtick_2">
     <g id="line2d_2">
      <g>
       <use xlink:href="#m6d45401bc5" x="81.683675" y="228.96" style="stroke: #000000; stroke-width: 0.8"/>
      </g>
     </g>
     <g id="text_2">
      <!-- 100 -->
      <g transform="translate(72.139925 243.558437) scale(0.1 -0.1)">
       <defs>
        <path id="DejaVuSans-31" d="M 794 531 
L 1825 531 
L 1825 4091 
L 703 3866 
L 703 4441 
L 1819 4666 
L 2450 4666 
L 2450 531 
L 3481 531 
L 3481 0 
L 794 0 
L 794 531 
z
" transform="scale(0.015625)"/>
       </defs>
       <use xlink:href="#DejaVuSans-31"/>
       <use xlink:href="#DejaVuSans-30" x="63.623047"/>
       <use xlink:href="#DejaVuSans-30" x="127.246094"/>
      </g>
     </g>
    </g>
    <g id="xtick_3">
     <g id="line2d_3">
      <g>
       <use xlink:href="#m6d45401bc5" x="121.518041" y="228.96" style="stroke: #000000; stroke-width: 0.8"/>
      </g>
     </g>
     <g id="text_3">
      <!-- 200 -->
      <g transform="translate(111.974291 243.558437) scale(0.1 -0.1)">
       <defs>
        <path id="DejaVuSans-32" d="M 1228 531 
L 3431 531 
L 3431 0 
L 469 0 
L 469 531 
Q 828 903 1448 1529 
Q 2069 2156 2228 2338 
Q 2531 2678 2651 2914 
Q 2772 3150 2772 3378 
Q 2772 3750 2511 3984 
Q 2250 4219 1831 4219 
Q 1534 4219 1204 4116 
Q 875 4013 500 3803 
L 500 4441 
Q 881 4594 1212 4672 
Q 1544 4750 1819 4750 
Q 2544 4750 2975 4387 
Q 3406 4025 3406 3419 
Q 3406 3131 3298 2873 
Q 3191 2616 2906 2266 
Q 2828 2175 2409 1742 
Q 1991 1309 1228 531 
z
" transform="scale(0.015625)"/>
       </defs>
       <use xlink:href="#DejaVuSans-32"/>
       <use xlink:href="#DejaVuSans-30" x="63.623047"/>
       <use xlink:href="#DejaVuSans-30" x="127.246094"/>
      </g>
     </g>
    </g>
    <g id="xtick_4">
     <g id="line2d_4">
      <g>
       <use xlink:href="#m6d45401bc5" x="161.352408" y="228.96" style="stroke: #000000; stroke-width: 0.8"/>
      </g>
     </g>
     <g id="text_4">
      <!-- 300 -->
      <g transform="translate(151.808658 243.558437) scale(0.1 -0.1)">
       <defs>
        <path id="DejaVuSans-33" d="M 2597 2516 
Q 3050 2419 3304 2112 
Q 3559 1806 3559 1356 
Q 3559 666 3084 287 
Q 2609 -91 1734 -91 
Q 1441 -91 1130 -33 
Q 819 25 488 141 
L 488 750 
Q 750 597 1062 519 
Q 1375 441 1716 441 
Q 2309 441 2620 675 
Q 2931 909 2931 1356 
Q 2931 1769 2642 2001 
Q 2353 2234 1838 2234 
L 1294 2234 
L 1294 2753 
L 1863 2753 
Q 2328 2753 2575 2939 
Q 2822 3125 2822 3475 
Q 2822 3834 2567 4026 
Q 2313 4219 1838 4219 
Q 1578 4219 1281 4162 
Q 984 4106 628 3988 
L 628 4550 
Q 988 4650 1302 4700 
Q 1616 4750 1894 4750 
Q 2613 4750 3031 4423 
Q 3450 4097 3450 3541 
Q 3450 3153 3228 2886 
Q 3006 2619 2597 2516 
z
" transform="scale(0.015625)"/>
       </defs>
       <use xlink:href="#DejaVuSans-33"/>
       <use xlink:href="#DejaVuSans-30" x="63.623047"/>
       <use xlink:href="#DejaVuSans-30" x="127.246094"/>
      </g>
     </g>
    </g>
    <g id="xtick_5">
     <g id="line2d_5">
      <g>
       <use xlink:href="#m6d45401bc5" x="201.186775" y="228.96" style="stroke: #000000; stroke-width: 0.8"/>
      </g>
     </g>
     <g id="text_5">
      <!-- 400 -->
      <g transform="translate(191.643025 243.558437) scale(0.1 -0.1)">
       <defs>
        <path id="DejaVuSans-34" d="M 2419 4116 
L 825 1625 
L 2419 1625 
L 2419 4116 
z
M 2253 4666 
L 3047 4666 
L 3047 1625 
L 3713 1625 
L 3713 1100 
L 3047 1100 
L 3047 0 
L 2419 0 
L 2419 1100 
L 313 1100 
L 313 1709 
L 2253 4666 
z
" transform="scale(0.015625)"/>
       </defs>
       <use xlink:href="#DejaVuSans-34"/>
       <use xlink:href="#DejaVuSans-30" x="63.623047"/>
       <use xlink:href="#DejaVuSans-30" x="127.246094"/>
      </g>
     </g>
    </g>
    <g id="xtick_6">
     <g id="line2d_6">
      <g>
       <use xlink:href="#m6d45401bc5" x="241.021142" y="228.96" style="stroke: #000000; stroke-width: 0.8"/>
      </g>
     </g>
     <g id="text_6">
      <!-- 500 -->
      <g transform="translate(231.477392 243.558437) scale(0.1 -0.1)">
       <defs>
        <path id="DejaVuSans-35" d="M 691 4666 
L 3169 4666 
L 3169 4134 
L 1269 4134 
L 1269 2991 
Q 1406 3038 1543 3061 
Q 1681 3084 1819 3084 
Q 2600 3084 3056 2656 
Q 3513 2228 3513 1497 
Q 3513 744 3044 326 
Q 2575 -91 1722 -91 
Q 1428 -91 1123 -41 
Q 819 9 494 109 
L 494 744 
Q 775 591 1075 516 
Q 1375 441 1709 441 
Q 2250 441 2565 725 
Q 2881 1009 2881 1497 
Q 2881 1984 2565 2268 
Q 2250 2553 1709 2553 
Q 1456 2553 1204 2497 
Q 953 2441 691 2322 
L 691 4666 
z
" transform="scale(0.015625)"/>
       </defs>
       <use xlink:href="#DejaVuSans-35"/>
       <use xlink:href="#DejaVuSans-30" x="63.623047"/>
       <use xlink:href="#DejaVuSans-30" x="127.246094"/>
      </g>
     </g>
    </g>
    <g id="xtick_7">
     <g id="line2d_7">
      <g>
       <use xlink:href="#m6d45401bc5" x="280.855509" y="228.96" style="stroke: #000000; stroke-width: 0.8"/>
      </g>
     </g>
     <g id="text_7">
      <!-- 600 -->
      <g transform="translate(271.311759 243.558437) scale(0.1 -0.1)">
       <defs>
        <path id="DejaVuSans-36" d="M 2113 2584 
Q 1688 2584 1439 2293 
Q 1191 2003 1191 1497 
Q 1191 994 1439 701 
Q 1688 409 2113 409 
Q 2538 409 2786 701 
Q 3034 994 3034 1497 
Q 3034 2003 2786 2293 
Q 2538 2584 2113 2584 
z
M 3366 4563 
L 3366 3988 
Q 3128 4100 2886 4159 
Q 2644 4219 2406 4219 
Q 1781 4219 1451 3797 
Q 1122 3375 1075 2522 
Q 1259 2794 1537 2939 
Q 1816 3084 2150 3084 
Q 2853 3084 3261 2657 
Q 3669 2231 3669 1497 
Q 3669 778 3244 343 
Q 2819 -91 2113 -91 
Q 1303 -91 875 529 
Q 447 1150 447 2328 
Q 447 3434 972 4092 
Q 1497 4750 2381 4750 
Q 2619 4750 2861 4703 
Q 3103 4656 3366 4563 
z
" transform="scale(0.015625)"/>
       </defs>
       <use xlink:href="#DejaVuSans-36"/>
       <use xlink:href="#DejaVuSans-30" x="63.623047"/>
       <use xlink:href="#DejaVuSans-30" x="127.246094"/>
      </g>
     </g>
    </g>
    <g id="xtick_8">
     <g id="line2d_8">
      <g>
       <use xlink:href="#m6d45401bc5" x="320.689875" y="228.96" style="stroke: #000000; stroke-width: 0.8"/>
      </g>
     </g>
     <g id="text_8">
      <!-- 700 -->
      <g transform="translate(311.146125 243.558437) scale(0.1 -0.1)">
       <defs>
        <path id="DejaVuSans-37" d="M 525 4666 
L 3525 4666 
L 3525 4397 
L 1831 0 
L 1172 0 
L 2766 4134 
L 525 4134 
L 525 4666 
z
" transform="scale(0.015625)"/>
       </defs>
       <use xlink:href="#DejaVuSans-37"/>
       <use xlink:href="#DejaVuSans-30" x="63.623047"/>
       <use xlink:href="#DejaVuSans-30" x="127.246094"/>
      </g>
     </g>
    </g>
    <g id="xtick_9">
     <g id="line2d_9">
      <g>
       <use xlink:href="#m6d45401bc5" x="360.524242" y="228.96" style="stroke: #000000; stroke-width: 0.8"/>
      </g>
     </g>
     <g id="text_9">
      <!-- 800 -->
      <g transform="translate(350.980492 243.558437) scale(0.1 -0.1)">
       <defs>
        <path id="DejaVuSans-38" d="M 2034 2216 
Q 1584 2216 1326 1975 
Q 1069 1734 1069 1313 
Q 1069 891 1326 650 
Q 1584 409 2034 409 
Q 2484 409 2743 651 
Q 3003 894 3003 1313 
Q 3003 1734 2745 1975 
Q 2488 2216 2034 2216 
z
M 1403 2484 
Q 997 2584 770 2862 
Q 544 3141 544 3541 
Q 544 4100 942 4425 
Q 1341 4750 2034 4750 
Q 2731 4750 3128 4425 
Q 3525 4100 3525 3541 
Q 3525 3141 3298 2862 
Q 3072 2584 2669 2484 
Q 3125 2378 3379 2068 
Q 3634 1759 3634 1313 
Q 3634 634 3220 271 
Q 2806 -91 2034 -91 
Q 1263 -91 848 271 
Q 434 634 434 1313 
Q 434 1759 690 2068 
Q 947 2378 1403 2484 
z
M 1172 3481 
Q 1172 3119 1398 2916 
Q 1625 2713 2034 2713 
Q 2441 2713 2670 2916 
Q 2900 3119 2900 3481 
Q 2900 3844 2670 4047 
Q 2441 4250 2034 4250 
Q 1625 4250 1398 4047 
Q 1172 3844 1172 3481 
z
" transform="scale(0.015625)"/>
       </defs>
       <use xlink:href="#DejaVuSans-38"/>
       <use xlink:href="#DejaVuSans-30" x="63.623047"/>
       <use xlink:href="#DejaVuSans-30" x="127.246094"/>
      </g>
     </g>
    </g>
   </g>
   <g id="matplotlib.axis_2">
    <g id="ytick_1">
     <g id="line2d_10">
      <defs>
       <path id="m748b21abc9" d="M 0 0 
L -3.5 0 
" style="stroke: #000000; stroke-width: 0.8"/>
      </defs>
      <g>
       <use xlink:href="#m748b21abc9" x="26.925" y="214.234439" style="stroke: #000000; stroke-width: 0.8"/>
      </g>
     </g>
     <g id="text_10">
      <!-- 40 -->
      <g transform="translate(7.2 218.033658) scale(0.1 -0.1)">
       <use xlink:href="#DejaVuSans-34"/>
       <use xlink:href="#DejaVuSans-30" x="63.623047"/>
      </g>
     </g>
    </g>
    <g id="ytick_2">
     <g id="line2d_11">
      <g>
       <use xlink:href="#m748b21abc9" x="26.925" y="178.006793" style="stroke: #000000; stroke-width: 0.8"/>
      </g>
     </g>
     <g id="text_11">
      <!-- 50 -->
      <g transform="translate(7.2 181.806011) scale(0.1 -0.1)">
       <use xlink:href="#DejaVuSans-35"/>
       <use xlink:href="#DejaVuSans-30" x="63.623047"/>
      </g>
     </g>
    </g>
    <g id="ytick_3">
     <g id="line2d_12">
      <g>
       <use xlink:href="#m748b21abc9" x="26.925" y="141.779146" style="stroke: #000000; stroke-width: 0.8"/>
      </g>
     </g>
     <g id="text_12">
      <!-- 60 -->
      <g transform="translate(7.2 145.578365) scale(0.1 -0.1)">
       <use xlink:href="#DejaVuSans-36"/>
       <use xlink:href="#DejaVuSans-30" x="63.623047"/>
      </g>
     </g>
    </g>
    <g id="ytick_4">
     <g id="line2d_13">
      <g>
       <use xlink:href="#m748b21abc9" x="26.925" y="105.5515" style="stroke: #000000; stroke-width: 0.8"/>
      </g>
     </g>
     <g id="text_13">
      <!-- 70 -->
      <g transform="translate(7.2 109.350718) scale(0.1 -0.1)">
       <use xlink:href="#DejaVuSans-37"/>
       <use xlink:href="#DejaVuSans-30" x="63.623047"/>
      </g>
     </g>
    </g>
    <g id="ytick_5">
     <g id="line2d_14">
      <g>
       <use xlink:href="#m748b21abc9" x="26.925" y="69.323853" style="stroke: #000000; stroke-width: 0.8"/>
      </g>
     </g>
     <g id="text_14">
      <!-- 80 -->
      <g transform="translate(7.2 73.123072) scale(0.1 -0.1)">
       <use xlink:href="#DejaVuSans-38"/>
       <use xlink:href="#DejaVuSans-30" x="63.623047"/>
      </g>
     </g>
    </g>
    <g id="ytick_6">
     <g id="line2d_15">
      <g>
       <use xlink:href="#m748b21abc9" x="26.925" y="33.096207" style="stroke: #000000; stroke-width: 0.8"/>
      </g>
     </g>
     <g id="text_15">
      <!-- 90 -->
      <g transform="translate(7.2 36.895426) scale(0.1 -0.1)">
       <defs>
        <path id="DejaVuSans-39" d="M 703 97 
L 703 672 
Q 941 559 1184 500 
Q 1428 441 1663 441 
Q 2288 441 2617 861 
Q 2947 1281 2994 2138 
Q 2813 1869 2534 1725 
Q 2256 1581 1919 1581 
Q 1219 1581 811 2004 
Q 403 2428 403 3163 
Q 403 3881 828 4315 
Q 1253 4750 1959 4750 
Q 2769 4750 3195 4129 
Q 3622 3509 3622 2328 
Q 3622 1225 3098 567 
Q 2575 -91 1691 -91 
Q 1453 -91 1209 -44 
Q 966 3 703 97 
z
M 1959 2075 
Q 2384 2075 2632 2365 
Q 2881 2656 2881 3163 
Q 2881 3666 2632 3958 
Q 2384 4250 1959 4250 
Q 1534 4250 1286 3958 
Q 1038 3666 1038 3163 
Q 1038 2656 1286 2365 
Q 1534 2075 1959 2075 
z
" transform="scale(0.015625)"/>
       </defs>
       <use xlink:href="#DejaVuSans-39"/>
       <use xlink:href="#DejaVuSans-30" x="63.623047"/>
      </g>
     </g>
    </g>
   </g>
   <g id="line2d_16">
    <path d="M 42.359093 40.594585 
L 42.42483 40.594585 
L 42.508306 38.639562 
L 42.677282 45.195087 
L 42.789569 46.457905 
L 42.890159 46.457905 
L 43.005912 47.540275 
L 43.064398 47.405579 
L 43.217348 50.272325 
L 43.468544 52.024868 
L 43.498749 52.024868 
L 43.652511 53.127266 
L 43.68299 52.763842 
L 43.742553 53.156082 
L 43.77533 53.156082 
L 43.89599 52.971331 
L 44.052338 53.06969 
L 44.176568 54.177495 
L 44.208956 54.177495 
L 44.363836 55.262807 
L 44.482942 55.269466 
L 44.614486 55.923731 
L 44.705733 56.022643 
L 44.736482 56.148582 
L 44.766093 55.923731 
L 44.796152 55.968563 
L 44.86332 56.247495 
L 45.073872 56.788389 
L 45.130613 56.788389 
L 45.308336 57.757316 
L 45.337998 57.33162 
L 45.396254 57.567258 
L 45.539991 58.541278 
L 45.599079 58.778776 
L 45.630435 58.239767 
L 45.810747 59.226579 
L 45.839795 59.226579 
L 46.095249 60.243559 
L 46.219584 60.155765 
L 46.373308 62.237535 
L 46.439811 62.237535 
L 46.624132 62.570022 
L 46.845089 62.678968 
L 46.876629 63.360573 
L 46.909012 62.657817 
L 46.971014 63.019137 
L 47.091649 63.09272 
L 47.212947 63.562962 
L 47.272528 63.562962 
L 47.421833 63.895981 
L 47.513405 64.032698 
L 47.54367 63.590332 
L 47.727421 64.460976 
L 47.849511 64.420386 
L 47.879144 64.144823 
L 47.938111 64.566316 
L 48.022551 64.460976 
L 48.051157 64.484006 
L 48.159975 64.590475 
L 48.455986 64.724943 
L 48.545807 64.626038 
L 48.69506 65.996865 
L 48.754587 65.996865 
L 48.903275 66.278414 
L 48.933686 66.149395 
L 49.026143 66.237824 
L 49.113418 66.31156 
L 49.233283 67.01607 
L 49.323264 67.112356 
L 49.438883 67.427252 
L 49.468441 67.413261 
L 49.724633 67.413261 
L 49.754796 67.565311 
L 49.842675 67.463968 
L 49.873583 67.486998 
L 49.93405 67.656663 
L 49.995304 67.593798 
L 50.056719 67.656663 
L 50.118519 67.616828 
L 50.147554 67.617024 
L 50.359948 68.744301 
L 50.416833 68.744301 
L 50.535963 69.943384 
L 50.565197 69.305608 
L 50.621203 69.275694 
L 50.651186 70.252171 
L 50.735569 69.943384 
L 50.767099 69.973269 
L 50.856766 70.77618 
L 50.887593 70.57817 
L 51.007869 70.488236 
L 51.154042 71.252532 
L 51.299375 71.276429 
L 51.326415 71.512645 
L 51.417894 71.342465 
L 51.562073 71.410966 
L 51.622695 72.002941 
L 51.653773 71.405818 
L 51.685551 71.913007 
L 51.715435 71.981508 
L 51.777034 71.913007 
L 51.837328 71.981508 
L 51.956724 72.64374 
L 52.016604 72.726872 
L 52.049028 72.795731 
L 52.176114 73.333452 
L 52.20579 73.182874 
L 52.266649 73.332574 
L 52.479324 73.766384 
L 52.603234 73.704964 
L 52.787337 74.497461 
L 52.847296 74.499114 
L 53.422579 76.638955 
L 53.627649 76.739059 
L 53.805216 76.820607 
L 53.895637 76.739059 
L 53.925887 76.7682 
L 54.049588 76.9179 
L 54.081171 76.888759 
L 54.233217 77.476482 
L 54.264543 77.476482 
L 54.294714 77.942132 
L 54.388051 77.686536 
L 54.508448 77.749897 
L 54.565669 77.654844 
L 54.654962 78.187235 
L 54.811368 78.279138 
L 54.840606 78.408383 
L 54.902219 78.393826 
L 54.932448 78.304351 
L 54.995769 78.396291 
L 55.184278 78.700634 
L 55.248363 78.890213 
L 55.277491 79.254361 
L 55.337762 78.890213 
L 55.432359 78.995362 
L 55.556726 79.040485 
L 55.649218 79.465811 
L 55.776069 79.091841 
L 55.903332 79.517167 
L 56.094345 80.879527 
L 56.19088 81.972034 
L 56.221361 81.881085 
L 56.4769 81.981593 
L 56.542513 82.316123 
L 56.636678 82.231 
L 56.70134 82.331508 
L 56.862782 82.921688 
L 56.894641 82.647357 
L 56.928084 82.821547 
L 57.059054 83.769176 
L 57.123549 83.869683 
L 57.247597 84.437053 
L 57.279247 84.014927 
L 57.312104 84.825681 
L 57.379994 84.106741 
L 57.410396 84.176746 
L 57.505901 85.053713 
L 57.53625 84.752078 
L 57.568805 85.019083 
L 57.600425 84.654957 
L 57.632159 84.654957 
L 57.664318 84.658555 
L 58.002347 85.909957 
L 58.062524 85.973309 
L 58.215376 86.550246 
L 58.306948 86.341545 
L 58.336664 86.404897 
L 58.367194 86.341545 
L 58.521847 86.793544 
L 58.991466 88.191368 
L 59.022284 88.125042 
L 59.054121 87.938359 
L 59.118179 88.191368 
L 59.150144 88.045593 
L 59.180772 88.248083 
L 59.212071 88.185837 
L 59.305753 88.440513 
L 59.367487 88.265697 
L 59.430088 88.297359 
L 59.45976 88.187503 
L 59.491292 88.319377 
L 59.522542 88.213722 
L 59.552751 88.517676 
L 59.582697 88.183824 
L 59.614955 88.252162 
L 59.707139 88.323542 
L 59.859297 88.832964 
L 59.88928 88.63675 
L 59.94816 88.953746 
L 59.97957 88.842219 
L 60.033065 88.953746 
L 60.090658 89.113894 
L 60.239579 89.760714 
L 60.269497 89.734738 
L 60.299052 89.734738 
L 60.419588 90.362506 
L 60.448527 90.197294 
L 60.509741 90.476935 
L 60.602149 90.557295 
L 60.947747 91.415245 
L 61.009172 91.232879 
L 61.0691 91.242796 
L 61.252048 91.645043 
L 61.282655 91.438515 
L 61.350461 91.587956 
L 61.382599 91.587956 
L 61.474919 91.425506 
L 61.535488 91.918403 
L 61.629868 91.787809 
L 61.690868 91.787809 
L 61.816015 93.049597 
L 61.876805 93.049597 
L 61.998106 93.247927 
L 62.057294 93.049597 
L 62.121705 93.078355 
L 62.151856 93.049597 
L 62.182906 93.117447 
L 62.276253 93.519603 
L 62.305857 93.924983 
L 62.365993 93.519603 
L 62.702449 93.566213 
L 62.814345 93.971594 
L 62.905405 93.879841 
L 62.934511 93.919836 
L 63.089177 94.344826 
L 63.118195 94.148822 
L 63.17796 94.28469 
L 63.293514 94.77718 
L 63.323527 94.732173 
L 63.351422 94.825138 
L 63.380373 94.825138 
L 63.629974 94.895177 
L 63.661575 95.514937 
L 63.72637 94.942909 
L 63.848892 95.062691 
L 63.87944 94.942909 
L 63.938633 94.97628 
L 64.116462 95.799658 
L 64.385491 96.55654 
L 64.418167 96.479411 
L 64.448045 96.479411 
L 64.562284 96.766686 
L 64.591268 96.689557 
L 64.621499 96.811693 
L 64.651946 97.182 
L 64.712299 96.921539 
L 64.743501 96.921539 
L 64.946755 97.485447 
L 65.030644 97.351025 
L 65.060351 97.42072 
L 65.090965 97.389122 
L 65.239229 98.428867 
L 65.300724 98.445151 
L 65.420214 98.264193 
L 65.538179 98.392336 
L 65.595557 98.4735 
L 65.722879 98.899995 
L 65.753744 98.876824 
L 65.93554 98.963239 
L 66.085756 99.145422 
L 66.116502 99.086148 
L 66.180698 99.133538 
L 66.301076 99.273588 
L 66.330752 99.228192 
L 66.544148 99.320086 
L 66.575524 99.493187 
L 66.633257 99.300277 
L 66.756766 99.391842 
L 66.939981 99.755656 
L 66.971008 99.684743 
L 67.001206 99.720559 
L 67.119543 100.088482 
L 67.149646 100.040993 
L 67.180401 99.942282 
L 67.210625 100.166204 
L 67.271799 100.223359 
L 67.637145 101.33736 
L 67.757603 102.021317 
L 67.789186 102.021317 
L 67.912982 102.273966 
L 68.113573 102.041041 
L 68.237154 102.377432 
L 68.506471 102.479871 
L 68.598665 102.612728 
L 68.628923 102.572519 
L 68.754631 102.881953 
L 68.824432 102.881953 
L 68.946885 103.234749 
L 69.26592 103.291805 
L 69.392313 103.416118 
L 70.157185 103.498487 
L 70.2176 103.435094 
L 70.246112 103.572249 
L 70.306976 103.435094 
L 70.335944 103.584677 
L 70.565246 103.686504 
L 70.665262 103.644932 
L 70.729272 103.607669 
L 70.853308 104.626366 
L 70.939039 104.738997 
L 70.971889 104.728193 
L 71.004968 104.728193 
L 71.133899 104.867077 
L 71.352602 104.867077 
L 71.389493 105.318199 
L 71.449961 104.887428 
L 71.514356 104.895897 
L 71.650249 105.417691 
L 71.793468 105.502456 
L 71.882844 105.47675 
L 72.125819 106.138024 
L 72.156398 106.12722 
L 72.539374 106.195557 
L 72.682161 106.65253 
L 72.71474 106.65253 
L 72.844197 107.17622 
L 72.921238 107.17622 
L 73.075698 107.404545 
L 73.138859 107.496609 
L 73.209355 107.853936 
L 73.275092 107.737539 
L 73.346857 107.496609 
L 73.388758 107.621637 
L 73.530799 108.437704 
L 73.566824 108.883233 
L 73.634288 108.580699 
L 73.855542 109.000119 
L 73.9906 108.641029 
L 74.028028 108.667628 
L 74.058559 108.916995 
L 74.133689 108.684639 
L 74.547077 109.582779 
L 74.69309 109.55154 
L 74.726247 109.759126 
L 74.807644 109.649769 
L 74.978055 109.766166 
L 75.013829 109.985761 
L 75.11073 109.961843 
L 75.219972 110.03689 
L 75.249374 110.473105 
L 75.33023 110.105014 
L 75.52373 110.123045 
L 75.680202 110.964572 
L 75.800399 110.870478 
L 76.022267 111.356609 
L 76.082107 111.166686 
L 76.256223 113.333221 
L 76.315726 113.246292 
L 76.346999 112.788776 
L 76.40787 112.838205 
L 76.540746 113.302065 
L 76.679926 113.246292 
L 76.714402 113.474093 
L 76.781059 113.331666 
L 76.820597 113.331666 
L 76.991721 113.698518 
L 77.230155 114.331402 
L 77.259851 114.210322 
L 77.561998 114.661405 
L 77.592001 114.638667 
L 77.625346 114.576274 
L 77.877929 115.654063 
L 77.908724 115.654063 
L 77.945962 115.488518 
L 78.018057 115.550367 
L 78.251314 115.70684 
L 78.379734 116.06012 
L 78.986873 116.166085 
L 79.019247 116.241694 
L 79.050703 116.094354 
L 79.108733 116.169963 
L 79.413242 116.242286 
L 79.584912 116.391661 
L 79.827108 116.432085 
L 79.957618 116.520082 
L 80.47569 116.612841 
L 80.650973 116.68845 
L 80.863568 116.612841 
L 80.938888 116.709606 
L 81.173112 116.934505 
L 81.325156 116.981389 
L 81.454055 117.420956 
L 81.550627 117.372094 
L 81.680042 118.662647 
L 81.713063 118.87261 
L 81.78914 118.662647 
L 81.925949 118.693408 
L 82.163521 119.081983 
L 82.335831 119.130844 
L 82.482189 119.202377 
L 83.409077 119.226763 
L 83.437714 119.928253 
L 83.498563 119.264236 
L 83.645557 119.201846 
L 83.709735 119.291426 
L 84.171689 119.694629 
L 84.201507 119.324977 
L 84.306309 119.346163 
L 84.460589 119.346163 
L 84.595602 119.395024 
L 84.627713 120.026467 
L 84.660785 119.386568 
L 84.689618 119.386568 
L 84.804587 119.393735 
L 84.924459 119.562841 
L 85.231375 119.562841 
L 85.350126 119.909921 
L 85.410989 119.885905 
L 85.663252 120.67745 
L 85.937069 120.76011 
L 85.969457 120.83133 
L 85.998571 120.76011 
L 86.13561 121.297813 
L 86.437271 121.335287 
L 86.566276 121.69596 
L 86.714906 121.684593 
L 86.776235 121.684593 
L 86.898761 121.850644 
L 87.054194 121.893014 
L 87.487804 121.952104 
L 87.517265 122.091848 
L 87.592295 121.998139 
L 87.715765 121.970306 
L 87.84925 122.210758 
L 87.891624 121.998278 
L 87.930768 122.187918 
L 88.156323 122.210758 
L 88.289518 122.210758 
L 88.449337 122.929676 
L 88.479523 122.671022 
L 88.57478 122.766593 
L 88.685498 122.766593 
L 88.775043 122.957969 
L 88.809928 122.936686 
L 88.880753 122.794886 
L 88.952469 122.83916 
L 89.052804 122.794886 
L 89.194472 122.984166 
L 89.377414 123.060389 
L 89.408326 123.144787 
L 89.496334 123.078591 
L 89.588069 123.091247 
L 89.772034 123.634247 
L 89.813379 123.634247 
L 89.959526 123.879023 
L 90.165323 124.131942 
L 90.364923 123.891933 
L 90.546119 123.9461 
L 90.617596 124.041671 
L 90.649014 123.788752 
L 90.682004 123.930552 
L 90.776011 123.891933 
L 91.063506 123.887265 
L 91.232969 124.192809 
L 91.530857 124.241672 
L 91.632637 124.45075 
L 91.769713 124.257848 
L 91.908359 124.197576 
L 91.941141 124.540038 
L 92.016094 124.442543 
L 92.048484 124.442543 
L 92.114334 124.18338 
L 92.191725 124.267551 
L 92.259018 124.542388 
L 92.293471 124.370733 
L 92.331236 124.370733 
L 92.464287 124.52047 
L 92.560346 124.594856 
L 92.661922 124.757841 
L 92.815946 125.4088 
L 92.847773 125.4088 
L 92.986733 125.831691 
L 93.227146 125.934873 
L 93.422788 125.971829 
L 93.735307 127.664555 
L 93.987888 127.745201 
L 94.271551 127.919941 
L 94.301315 127.92953 
L 94.397051 127.908771 
L 94.455613 128.327992 
L 94.545147 127.92953 
L 94.575589 127.974314 
L 94.604786 127.92953 
L 94.635591 128.042279 
L 94.760144 128.076145 
L 94.794933 128.235882 
L 94.851429 128.101683 
L 94.918366 127.945728 
L 94.950771 128.125678 
L 95.17926 128.10948 
L 95.376228 128.674418 
L 95.647148 128.730661 
L 95.732601 128.738285 
L 95.879028 129.147343 
L 95.970384 129.209542 
L 96.089108 129.419716 
L 96.21584 129.520937 
L 96.245988 129.702802 
L 96.275103 129.451316 
L 96.302497 129.459869 
L 96.333448 129.459213 
L 96.36307 129.779932 
L 96.456539 129.744109 
L 96.571636 129.911482 
L 96.603526 129.879769 
L 96.634083 130.224405 
L 96.693033 129.879132 
L 96.755194 129.985717 
L 96.816572 130.000692 
L 96.935337 129.90016 
L 96.997413 129.898476 
L 97.05747 130.226929 
L 97.116316 130.054973 
L 97.174363 129.895497 
L 97.201163 130.119563 
L 97.378878 130.217038 
L 97.531807 130.884579 
L 97.770582 130.929418 
L 98.04238 131.03032 
L 98.100559 131.518971 
L 98.130043 131.278539 
L 98.162502 131.023489 
L 98.248914 131.145292 
L 98.276896 131.145292 
L 98.306583 131.478203 
L 98.366884 131.07567 
L 98.815137 131.172345 
L 99.078977 131.207618 
L 99.16867 131.235858 
L 99.317348 132.292323 
L 99.652759 132.293472 
L 99.682387 132.502896 
L 99.744917 132.292323 
L 99.834489 132.298718 
L 99.956394 132.445647 
L 100.875171 132.535539 
L 100.905739 132.867404 
L 100.935642 132.451243 
L 100.968088 132.451243 
L 101.116675 132.535539 
L 101.14564 132.535539 
L 101.289998 132.811191 
L 101.623823 133.437322 
L 101.71049 133.360853 
L 101.739948 133.608495 
L 101.800898 133.436208 
L 102.21329 133.462941 
L 102.332514 133.611917 
L 102.57564 133.684252 
L 102.72259 133.753327 
L 102.901828 133.805773 
L 103.083561 134.071705 
L 103.228844 134.075659 
L 103.25783 134.245457 
L 103.347427 134.118647 
L 103.465706 134.206941 
L 103.497137 134.373149 
L 103.559299 134.196938 
L 103.744855 134.205662 
L 103.893576 134.682812 
L 104.134689 134.793624 
L 104.285807 135.07419 
L 104.373427 135.112641 
L 104.526343 135.65139 
L 104.774707 135.844666 
L 104.896838 135.929704 
L 104.988645 136.895647 
L 105.018995 136.86929 
L 105.200762 136.903674 
L 105.231965 136.903674 
L 105.379669 137.928779 
L 105.439942 137.696384 
L 105.498982 137.820054 
L 105.683686 137.929283 
L 105.774824 138.067508 
L 105.806376 137.918721 
L 105.868359 138.083824 
L 106.111231 138.085895 
L 106.23196 138.346249 
L 106.261221 138.346249 
L 106.321471 138.697066 
L 106.383947 138.616353 
L 106.626464 138.747428 
L 106.899507 138.831832 
L 107.115766 139.027722 
L 107.328813 139.095614 
L 107.481365 139.660306 
L 107.665131 139.723959 
L 107.785185 139.846588 
L 107.905599 139.8385 
L 107.965491 139.965625 
L 108.026247 139.906483 
L 108.206444 139.907843 
L 108.424903 139.994954 
L 108.459244 140.066047 
L 108.50671 139.994954 
L 108.663318 140.052608 
L 108.698697 140.221049 
L 108.735354 139.994954 
L 108.765669 140.154195 
L 108.81648 140.008899 
L 108.868888 140.051563 
L 109.023801 140.04998 
L 109.148271 140.615498 
L 109.21208 140.787834 
L 109.24263 140.673153 
L 109.274823 140.615498 
L 109.30494 140.673153 
L 109.335463 140.746158 
L 109.369189 140.617493 
L 109.399446 141.417134 
L 109.46436 140.733219 
L 109.497385 140.733219 
L 109.53839 140.948404 
L 109.579634 140.663424 
L 109.612972 140.747757 
L 109.980133 140.857465 
L 110.268364 141.075588 
L 110.421563 142.055802 
L 110.637522 142.093498 
L 110.789534 142.43088 
L 110.851757 142.349283 
L 110.915521 142.384925 
L 111.036137 142.384925 
L 111.131679 142.349283 
L 111.25104 142.448908 
L 111.40565 142.479469 
L 111.560003 142.777936 
L 111.683568 142.777936 
L 111.843205 143.578736 
L 111.936336 144.26801 
L 111.96887 144.204404 
L 111.999995 144.204404 
L 112.098956 143.706609 
L 112.131068 143.757284 
L 112.228873 143.683437 
L 112.378348 144.587725 
L 112.424092 144.587725 
L 112.57619 144.86071 
L 112.957982 144.888432 
L 112.989897 145.063898 
L 113.051913 144.877601 
L 113.39583 144.989936 
L 113.612616 146.024765 
L 113.640385 145.871873 
L 113.702584 146.00994 
L 113.879012 146.00994 
L 114.026485 146.172845 
L 114.05828 146.172845 
L 114.181094 146.555598 
L 114.242973 146.429459 
L 114.274411 146.561099 
L 114.462487 146.6237 
L 114.551084 146.601367 
L 114.711459 147.245885 
L 114.738259 146.663197 
L 114.826442 146.790585 
L 114.856748 146.790585 
L 114.885241 146.663197 
L 114.975894 146.761956 
L 115.007461 146.761956 
L 115.09672 147.79375 
L 115.129505 147.735821 
L 115.378351 147.801504 
L 115.528452 148.270291 
L 115.708581 148.375346 
L 115.738541 148.430777 
L 115.768331 148.873835 
L 115.856895 148.741921 
L 116.034044 148.89696 
L 116.11922 148.865255 
L 116.240578 149.41054 
L 116.331029 149.4353 
L 116.452181 150.103736 
L 116.574935 150.209167 
L 116.667525 150.263001 
L 116.693304 150.443343 
L 116.723359 150.245248 
L 116.751621 150.269413 
L 116.904729 150.335068 
L 117.172245 150.610946 
L 117.414764 150.630852 
L 117.446449 150.819201 
L 117.506579 150.680231 
L 117.630362 150.630159 
L 117.748853 150.660911 
L 117.900222 150.610946 
L 117.930587 150.736846 
L 118.011324 150.699509 
L 118.042228 150.623747 
L 118.133406 150.666887 
L 118.794379 150.610946 
L 118.826375 150.871208 
L 118.909305 150.66213 
L 118.938722 150.714291 
L 118.966323 150.588356 
L 118.99621 150.619174 
L 119.123044 150.634429 
L 119.178016 150.805579 
L 119.236095 150.727367 
L 119.35318 150.704017 
L 119.38439 151.203982 
L 119.474313 151.097868 
L 119.564764 151.342205 
L 119.592597 151.306124 
L 119.655963 151.306124 
L 119.777194 151.101207 
L 119.806014 151.198913 
L 119.886366 151.110511 
L 120.096957 151.157828 
L 120.513313 151.156544 
L 120.665954 151.907977 
L 120.783783 152.035299 
L 120.870023 151.985553 
L 121.019153 152.404191 
L 121.10611 152.417322 
L 121.194483 152.640241 
L 121.223483 152.541837 
L 121.56036 152.452077 
L 122.165444 153.027527 
L 122.31077 153.125743 
L 122.676053 153.657753 
L 123.097098 153.829371 
L 123.241943 154.266525 
L 123.481048 154.411233 
L 123.602309 154.442098 
L 123.663725 154.974939 
L 123.720852 154.631714 
L 124.235157 154.71505 
L 124.2976 154.836089 
L 124.328689 154.767866 
L 124.391734 154.728987 
L 124.509345 154.919856 
L 124.628292 154.937745 
L 124.770755 155.047446 
L 124.891681 155.190528 
L 125.048128 155.72337 
L 125.352237 155.753044 
L 125.559675 156.518247 
L 125.591297 156.518247 
L 125.685959 156.760159 
L 125.716235 156.744844 
L 125.777316 156.876772 
L 125.864126 157.073359 
L 125.893289 157.037559 
L 126.163403 157.196763 
L 126.284085 157.164129 
L 126.580152 157.235942 
L 126.641112 157.392231 
L 126.671081 157.248682 
L 126.944581 157.356601 
L 127.064605 157.364831 
L 127.122969 157.792858 
L 127.182388 157.76047 
L 127.300839 157.725235 
L 127.421788 157.913996 
L 127.509442 157.747725 
L 127.683472 157.840406 
L 127.805914 157.976661 
L 127.835608 157.840406 
L 127.896529 157.945152 
L 127.926033 158.074042 
L 127.983749 157.945152 
L 128.256171 158.034704 
L 128.318184 158.172689 
L 128.375649 158.034704 
L 128.433651 158.034704 
L 128.496231 158.418145 
L 128.557803 158.150533 
L 129.031735 158.533377 
L 129.092871 158.336774 
L 129.154556 158.422764 
L 129.450401 158.641966 
L 129.690791 159.888782 
L 129.720583 159.693995 
L 129.808991 159.738285 
L 129.957313 159.794411 
L 130.083734 160.232686 
L 130.231722 160.323216 
L 130.349112 160.659867 
L 130.55557 160.696848 
L 130.70312 160.787353 
L 130.820936 161.000116 
L 130.9749 162.652041 
L 131.06469 162.548632 
L 131.095373 162.592922 
L 131.124451 162.548632 
L 131.214183 162.608954 
L 131.433215 162.686396 
L 131.583129 163.141817 
L 131.761115 163.221064 
L 131.911124 163.310578 
L 131.940788 163.262073 
L 131.970746 163.143535 
L 132.060053 163.186543 
L 132.366155 163.333208 
L 132.428664 163.395431 
L 132.459429 163.253517 
L 132.548914 163.310404 
L 132.670759 163.207076 
L 132.702108 163.222324 
L 132.853559 163.261745 
L 132.911921 163.261745 
L 132.942249 163.375445 
L 133.003295 163.311197 
L 133.091476 163.272431 
L 133.242913 163.550818 
L 133.421058 163.450336 
L 133.547165 163.581452 
L 133.699261 163.610925 
L 133.791834 163.546708 
L 133.820404 163.569768 
L 134.059151 163.696343 
L 134.238343 163.980842 
L 134.450787 164.261597 
L 134.479201 164.222439 
L 134.509483 163.994438 
L 134.603217 164.011956 
L 134.691671 164.12188 
L 134.721451 164.202616 
L 134.749649 164.12188 
L 134.8759 164.014852 
L 135.180792 164.255417 
L 135.367551 164.268689 
L 135.39845 164.268689 
L 135.429342 164.418324 
L 135.489745 164.349881 
L 135.611577 164.281343 
L 135.732353 164.344134 
L 136.241805 164.445709 
L 136.391421 164.70705 
L 136.669613 164.715278 
L 136.758897 164.903787 
L 136.880015 164.715278 
L 136.91115 164.719041 
L 136.942587 164.912016 
L 137.000197 164.748076 
L 137.063239 164.741038 
L 137.09067 164.86848 
L 137.180389 164.795585 
L 137.396817 164.8967 
L 137.555274 164.986765 
L 137.584394 164.937775 
L 137.675969 165.132562 
L 137.706161 165.004066 
L 137.763459 164.937775 
L 137.827264 164.992322 
L 138.007355 165.058182 
L 138.067329 165.052702 
L 138.097968 165.229587 
L 138.191176 165.158635 
L 138.517544 165.543002 
L 138.548482 165.682729 
L 138.574849 165.437069 
L 138.636063 165.61617 
L 138.665132 165.61617 
L 138.727535 165.816931 
L 138.789146 165.804557 
L 138.878831 165.859103 
L 139.001118 166.011617 
L 139.24311 166.040124 
L 139.392551 166.391795 
L 139.697678 166.434574 
L 139.817147 166.553845 
L 139.93347 166.589796 
L 140.111398 167.116423 
L 140.14198 166.945044 
L 140.172023 166.917801 
L 140.201985 166.96869 
L 140.349658 167.056502 
L 140.528014 167.030677 
L 140.646849 167.336519 
L 140.736408 167.352099 
L 140.764575 167.53143 
L 140.82596 167.38302 
L 141.502176 167.428119 
L 141.530637 167.516306 
L 141.621941 167.4437 
L 141.769139 167.491374 
L 141.888777 167.691889 
L 142.489348 167.767839 
L 142.607625 167.816282 
L 143.201147 167.912044 
L 143.323829 168.874607 
L 143.469363 168.964671 
L 144.073316 169.03717 
L 144.220512 169.124265 
L 144.251209 169.124265 
L 144.373406 169.256476 
L 144.580163 169.306632 
L 145.207162 169.422617 
L 145.23911 169.3813 
L 145.26571 169.520361 
L 145.725756 169.602497 
L 145.876346 170.033038 
L 146.713931 170.127722 
L 146.907125 170.158938 
L 147.264399 170.227642 
L 147.351985 170.613155 
L 147.381184 170.227642 
L 147.411752 170.713074 
L 147.440589 170.713074 
L 147.625641 170.949716 
L 147.717915 170.739745 
L 147.869088 171.207508 
L 148.04837 171.16918 
L 148.220922 171.222388 
L 148.248544 171.405821 
L 148.337598 171.276976 
L 148.551189 171.489301 
L 148.61062 171.276976 
L 148.642273 171.513618 
L 149.426581 171.56074 
L 149.576126 171.674465 
L 149.725522 171.730988 
L 150.052448 171.724412 
L 150.16742 172.039133 
L 150.379332 172.101151 
L 150.527951 172.373296 
L 150.587115 172.373296 
L 150.650357 172.576092 
L 150.67964 172.364116 
L 150.795399 172.350747 
L 150.880605 172.576092 
L 150.907541 172.404693 
L 150.936414 172.404693 
L 151.075553 172.91615 
L 151.249704 172.95666 
L 151.366732 173.732471 
L 151.397893 173.789056 
L 151.48681 173.732471 
L 151.752913 173.834482 
L 151.926389 173.924226 
L 152.545431 173.908259 
L 152.664544 174.12326 
L 153.529523 174.215442 
L 153.676583 174.299208 
L 153.792572 174.303212 
L 154.020609 174.362541 
L 154.113147 174.631018 
L 154.141538 174.602763 
L 154.201576 174.602763 
L 154.347094 174.780499 
L 154.45571 174.806215 
L 154.577664 175.159765 
L 154.755919 175.215821 
L 155.67577 175.32441 
L 156.234799 176.104038 
L 157.179534 176.17969 
L 157.302089 176.246894 
L 157.331526 176.220947 
L 157.483692 176.200688 
L 158.052611 176.267058 
L 158.082869 176.319534 
L 158.171632 176.267058 
L 158.381975 176.237908 
L 158.440752 176.32566 
L 158.505589 176.268973 
L 158.75325 176.364187 
L 158.956399 176.385185 
L 159.130874 176.338241 
L 159.249978 176.428715 
L 159.30881 176.338241 
L 159.491484 176.330813 
L 160.176547 176.329876 
L 160.238219 176.715015 
L 160.268971 176.668998 
L 160.359218 176.313054 
L 160.386954 176.334052 
L 160.565678 176.333152 
L 161.307602 176.317251 
L 161.46003 176.749025 
L 161.638269 176.794658 
L 161.846051 176.806537 
L 161.998397 176.927671 
L 162.025481 176.907478 
L 162.235514 177.011351 
L 162.323197 176.918439 
L 162.351572 176.940263 
L 162.471956 177.024412 
L 162.61839 176.954337 
L 162.771867 177.044176 
L 163.016969 177.195774 
L 163.136809 177.1787 
L 163.168475 177.215125 
L 163.198837 177.1787 
L 163.259162 177.105013 
L 163.317848 177.140735 
L 163.443319 177.578911 
L 163.533343 177.137576 
L 163.562617 177.162024 
L 163.709749 177.154746 
L 163.739541 177.173677 
L 163.771947 177.609043 
L 163.866184 177.500653 
L 163.984461 177.592916 
L 164.044914 177.629305 
L 164.072741 178.106324 
L 164.101279 177.608994 
L 164.130033 177.608994 
L 164.429018 177.696118 
L 164.522868 177.696118 
L 164.676189 177.88273 
L 164.706436 177.88273 
L 164.826214 178.212234 
L 165.152784 178.245622 
L 165.185173 178.348806 
L 165.24688 178.24796 
L 165.334406 178.278593 
L 165.455131 178.619626 
L 165.58001 178.657636 
L 165.698679 179.251674 
L 166.234785 179.356507 
L 166.264638 179.431586 
L 166.323959 179.355058 
L 166.443283 179.347919 
L 166.564418 179.784968 
L 166.594514 179.684453 
L 166.684897 179.746885 
L 166.838358 179.723711 
L 167.043229 179.943039 
L 167.074209 179.892363 
L 167.274537 179.875873 
L 167.427514 180.042241 
L 167.666519 180.146881 
L 167.69644 180.066637 
L 167.877664 180.163814 
L 167.967247 180.22059 
L 167.995777 180.17334 
L 168.267855 180.247481 
L 168.475572 180.507682 
L 168.506237 180.424347 
L 168.687182 180.415708 
L 168.717344 180.494097 
L 168.776482 180.414821 
L 171.602664 180.510892 
L 171.699022 180.499043 
L 171.849563 180.441263 
L 172.028989 180.48938 
L 172.059227 180.462724 
L 172.151083 180.727381 
L 172.182757 180.591741 
L 172.417649 180.649106 
L 172.565065 180.736783 
L 172.923931 181.079774 
L 172.952225 181.030548 
L 173.008291 181.107599 
L 173.60708 181.166776 
L 173.756554 181.2625 
L 173.874901 181.281465 
L 173.9882 181.553771 
L 174.01693 181.542739 
L 174.581516 181.583661 
L 174.611252 181.659322 
L 174.670661 181.583661 
L 174.764929 181.571441 
L 174.9121 181.865838 
L 175.427316 181.849359 
L 175.549467 182.209028 
L 175.760589 182.425396 
L 175.910589 182.337892 
L 176.587683 182.401926 
L 176.732914 182.499045 
L 177.06895 182.610089 
L 177.22095 182.644292 
L 178.227765 182.716925 
L 178.259319 182.785322 
L 178.348051 182.722369 
L 178.681357 182.791264 
L 178.712769 182.859355 
L 178.798648 182.785016 
L 179.593693 182.874828 
L 179.771222 182.903749 
L 179.922175 182.93723 
L 180.04631 183.079738 
L 180.229404 183.116835 
L 180.414421 183.2316 
L 180.59434 183.397512 
L 180.811118 183.36108 
L 181.175165 183.417961 
L 181.328278 183.389507 
L 181.720779 183.40225 
L 181.780742 183.655456 
L 181.811427 183.41397 
L 182.08055 183.421613 
L 182.2335 183.395424 
L 182.263613 183.702606 
L 182.325088 183.395424 
L 182.712427 183.433031 
L 182.772625 183.659858 
L 182.830756 183.484533 
L 182.858765 183.47492 
L 182.980858 183.736175 
L 183.13104 183.689372 
L 183.192617 183.679654 
L 183.311429 184.002479 
L 183.403854 184.117831 
L 183.672806 185.161226 
L 184.638642 185.254493 
L 184.75868 185.321039 
L 184.793523 185.553511 
L 184.827478 185.270528 
L 184.859475 185.270528 
L 185.688815 185.317661 
L 185.875725 185.638872 
L 185.99689 185.61796 
L 187.106047 185.702792 
L 187.290815 185.820872 
L 187.649431 185.895783 
L 187.834174 186.025058 
L 188.073723 186.041182 
L 188.104665 186.146537 
L 188.162925 186.041182 
L 188.923855 186.119897 
L 188.951764 186.191445 
L 188.982105 186.092274 
L 189.041218 186.155549 
L 189.554915 186.265291 
L 189.73516 186.419909 
L 189.942927 186.398215 
L 190.243805 186.417777 
L 190.421923 186.631314 
L 191.681223 186.690638 
L 191.769855 186.747353 
L 191.8002 186.716484 
L 192.222926 186.717025 
L 192.285249 187.417318 
L 192.345218 187.055477 
L 192.375551 187.055477 
L 192.402083 187.38081 
L 192.463113 187.055477 
L 192.667998 187.072756 
L 192.787021 187.166647 
L 193.667633 187.235156 
L 193.699203 187.365394 
L 193.78935 188.076233 
L 193.819181 188.049846 
L 193.996764 188.075692 
L 194.240461 188.069619 
L 194.356011 188.322224 
L 194.476104 188.335221 
L 194.59711 188.468894 
L 195.282099 188.536246 
L 195.372669 188.63791 
L 195.404304 188.563376 
L 195.523112 188.536246 
L 195.641933 188.991978 
L 196.499739 188.991978 
L 196.52928 189.129931 
L 196.58932 189.000612 
L 197.823103 189.070484 
L 197.911997 189.133875 
L 197.945574 189.100773 
L 198.486785 189.08357 
L 198.518155 189.399376 
L 198.548512 189.070756 
L 198.577594 189.077013 
L 198.699695 189.132712 
L 198.78753 189.194402 
L 198.818061 189.162786 
L 199.56036 189.136755 
L 199.678435 189.274708 
L 200.282327 189.439928 
L 200.465133 189.441176 
L 200.552743 189.815172 
L 200.582765 189.804979 
L 201.808649 189.844855 
L 201.931603 189.925033 
L 203.456494 190.034982 
L 203.578544 190.053358 
L 204.239857 190.12714 
L 204.357672 190.191287 
L 204.994768 190.123161 
L 206.439676 190.15189 
L 206.470331 190.238871 
L 206.531093 190.160525 
L 206.719516 190.171333 
L 206.811568 190.230236 
L 206.869533 190.155987 
L 206.930748 190.230236 
L 207.22811 190.155987 
L 207.403619 190.16485 
L 207.550852 190.572065 
L 208.561634 190.642552 
L 208.654773 190.642552 
L 208.86416 190.613385 
L 209.343318 190.845908 
L 209.524949 190.819752 
L 209.734398 190.888173 
L 209.979801 190.933175 
L 210.089505 191.800465 
L 210.212485 191.699214 
L 210.450498 191.684425 
L 210.48072 191.859094 
L 210.542067 191.70072 
L 210.754361 191.70072 
L 210.877389 191.918457 
L 211.12433 191.922661 
L 213.026255 192.006745 
L 213.177842 192.099166 
L 213.238983 192.104832 
L 213.268877 192.16688 
L 213.446141 192.216534 
L 214.050944 192.315885 
L 214.205443 192.376723 
L 214.295594 192.336945 
L 214.325203 192.367213 
L 215.774424 192.405252 
L 215.988273 192.924656 
L 216.079942 192.756113 
L 216.110309 192.773503 
L 216.168811 192.756113 
L 216.320358 192.998733 
L 216.472053 193.041108 
L 216.62412 193.284633 
L 217.037342 193.298682 
L 217.254658 193.34615 
L 217.663254 193.312796 
L 217.756348 193.317764 
L 217.880236 194.074251 
L 218.032369 194.139751 
L 218.185072 194.064139 
L 218.304489 194.081153 
L 218.425499 194.682136 
L 218.82155 194.789829 
L 218.879462 194.694229 
L 218.940572 194.714582 
L 219.149196 194.714582 
L 219.934111 194.760524 
L 220.145324 194.726936 
L 220.266232 194.890737 
L 221.278685 194.971702 
L 221.336535 195.052537 
L 221.36432 194.998209 
L 221.513675 194.970092 
L 222.112415 195.071062 
L 222.142794 195.105218 
L 222.20224 195.033854 
L 222.323624 195.094395 
L 222.414937 195.337948 
L 222.477886 195.094395 
L 222.538234 195.10456 
L 222.904337 195.185868 
L 223.019465 195.254933 
L 223.292221 195.249816 
L 226.733798 195.857978 
L 226.853746 195.993803 
L 227.51577 195.995704 
L 227.605254 196.264815 
L 227.634064 196.25892 
L 229.487471 196.541869 
L 229.663241 196.516425 
L 229.755254 196.517834 
L 229.874112 197.013367 
L 230.676874 197.005288 
L 230.708008 197.209193 
L 230.739171 196.965956 
L 230.768144 196.965956 
L 231.325251 197.059736 
L 231.414694 197.110032 
L 231.443498 197.059736 
L 231.558697 197.076014 
L 231.620127 197.177451 
L 231.650814 197.105447 
L 231.827608 197.096947 
L 232.00891 197.096947 
L 232.133552 197.281753 
L 233.105772 197.321836 
L 233.191838 197.392198 
L 233.281343 197.482485 
L 233.341951 197.392198 
L 233.907973 197.45695 
L 234.061956 197.530278 
L 234.288086 197.482357 
L 235.019267 197.555978 
L 235.051837 197.510614 
L 235.113059 197.582635 
L 235.416036 197.680728 
L 235.594167 197.965345 
L 235.714148 198.193136 
L 235.739478 197.965345 
L 235.799631 198.193136 
L 236.486859 198.291745 
L 236.639398 198.317095 
L 237.594002 198.527162 
L 237.738274 198.501949 
L 238.808941 198.599714 
L 238.983477 198.599714 
L 239.135163 198.791959 
L 239.222659 198.896534 
L 239.60863 198.923236 
L 239.63724 198.91175 
L 239.66741 199.021383 
L 239.725297 198.916597 
L 239.96004 198.977358 
L 241.026509 199.121311 
L 241.891603 199.119964 
L 241.919606 199.146173 
L 242.03826 199.383917 
L 242.566502 199.465789 
L 242.595726 199.587744 
L 242.655856 199.465789 
L 244.196397 199.56913 
L 244.401453 199.552095 
L 244.63384 199.618856 
L 245.739466 199.673518 
L 245.771112 199.744944 
L 245.830839 199.66492 
L 246.126037 199.749786 
L 246.275233 199.79368 
L 248.137257 199.887117 
L 248.225443 200.002045 
L 248.254136 199.988628 
L 248.922482 200.09074 
L 248.951854 200.282491 
L 249.016925 200.110447 
L 249.22998 200.100878 
L 249.25684 200.09074 
L 249.342722 200.206572 
L 249.370345 200.09074 
L 249.400157 200.09074 
L 249.545867 200.218277 
L 250.144847 200.278929 
L 250.206311 200.485047 
L 250.235567 200.278929 
L 251.374141 200.38629 
L 251.491354 200.355568 
L 254.242896 200.444156 
L 254.836373 201.016678 
L 254.996021 200.97527 
L 255.440859 201.065804 
L 255.555912 201.090819 
L 255.614362 201.090819 
L 255.764172 201.280977 
L 256.60439 201.389831 
L 256.728789 201.342253 
L 256.908539 201.372167 
L 257.030492 201.462777 
L 257.153599 201.592362 
L 257.184148 201.592362 
L 257.301508 201.818618 
L 259.115481 201.799237 
L 259.231604 202.088081 
L 260.468135 202.178051 
L 260.652827 202.175511 
L 261.575433 202.271896 
L 261.701993 202.271896 
L 262.459148 202.292862 
L 262.582494 202.696365 
L 263.093502 202.756531 
L 263.181972 202.845697 
L 263.211646 202.789564 
L 263.571962 202.844485 
L 263.63621 202.947578 
L 263.760118 202.752937 
L 264.151487 202.766936 
L 264.210758 202.866973 
L 264.267315 202.774495 
L 264.329892 202.779821 
L 264.360293 202.914099 
L 264.419007 202.781868 
L 264.686642 202.81464 
L 264.806373 202.938643 
L 265.018426 203.115327 
L 265.174898 203.174467 
L 265.31863 203.212144 
L 265.438584 203.542997 
L 265.657186 203.526183 
L 266.334898 203.607973 
L 266.486065 203.700669 
L 267.261454 203.750735 
L 267.408119 203.862364 
L 268.460639 203.902183 
L 268.609953 204.038462 
L 268.877063 204.005913 
L 268.938346 204.087261 
L 268.964657 204.00186 
L 269.859958 204.072422 
L 269.979779 204.172459 
L 270.632889 204.229281 
L 270.790552 204.379525 
L 270.999535 204.244815 
L 271.026778 204.270243 
L 272.262761 204.376166 
L 272.471215 204.39849 
L 272.774465 204.435888 
L 273.046808 204.481734 
L 274.966145 204.556283 
L 275.059897 204.610556 
L 275.090712 204.556283 
L 275.243939 204.582493 
L 275.362678 204.530977 
L 275.391405 204.684277 
L 275.450929 204.547692 
L 277.344022 204.521127 
L 277.433396 204.728567 
L 277.553844 204.521127 
L 277.674224 204.809013 
L 278.713449 204.87658 
L 278.834815 204.992396 
L 278.922726 204.926737 
L 278.952133 204.955009 
L 279.161545 204.985944 
L 279.490924 205.073641 
L 279.523025 205.125293 
L 279.551419 204.985944 
L 279.792975 204.999648 
L 279.823154 205.125293 
L 279.915655 205.08168 
L 280.096152 205.117206 
L 280.213187 205.221728 
L 280.334542 205.096915 
L 281.081957 205.236869 
L 281.204987 205.136904 
L 281.232851 205.276252 
L 281.293911 205.146875 
L 281.474913 205.158008 
L 281.505994 205.208297 
L 281.566743 205.142635 
L 281.773774 205.14724 
L 281.982663 205.16985 
L 282.647765 205.236474 
L 282.677078 205.490151 
L 282.735684 205.236474 
L 282.913273 205.233911 
L 283.094623 205.217296 
L 283.41514 205.251085 
L 283.565567 205.355528 
L 283.771992 205.392579 
L 283.864086 205.465355 
L 283.986785 205.534259 
L 284.287394 205.610573 
L 284.317383 205.685173 
L 284.406107 205.63232 
L 284.767158 205.717894 
L 284.860839 205.9063 
L 284.890939 205.82147 
L 285.011591 205.9063 
L 285.042895 205.9063 
L 285.159252 205.71708 
L 285.186957 205.71708 
L 285.21914 205.853665 
L 285.282077 205.73523 
L 285.461413 205.734613 
L 285.81981 205.78236 
L 285.936525 205.885764 
L 286.182975 205.901795 
L 286.335459 206.05738 
L 286.633515 206.054263 
L 286.724319 206.133159 
L 286.998789 206.141023 
L 287.08431 206.082897 
L 287.113727 206.113111 
L 287.265171 206.151604 
L 287.474508 206.210234 
L 287.503795 206.348365 
L 287.566239 206.210234 
L 288.712496 206.552056 
L 288.928435 206.561391 
L 289.01621 207.030339 
L 289.135627 206.548602 
L 289.410917 206.620246 
L 289.498535 206.548602 
L 289.526569 206.566872 
L 290.133337 206.62039 
L 290.28381 207.048995 
L 290.345687 206.837752 
L 290.374724 206.898747 
L 290.524778 207.038821 
L 290.919947 207.038038 
L 291.041212 207.197631 
L 291.729978 207.243989 
L 291.882594 207.395954 
L 293.931898 207.574495 
L 293.961724 207.526833 
L 294.026755 207.577381 
L 296.656067 207.687881 
L 297.314614 207.708792 
L 297.345679 208.153231 
L 297.404364 207.708792 
L 297.634504 207.769783 
L 297.773874 207.705155 
L 298.039265 207.700528 
L 298.070106 208.17889 
L 298.138448 207.700528 
L 298.55231 207.809189 
L 298.717844 207.751515 
L 298.998751 207.757854 
L 299.936047 207.845908 
L 300.081874 207.864374 
L 301.499898 207.869034 
L 301.622089 208.317836 
L 302.557395 208.425059 
L 302.585591 208.485841 
L 302.701289 208.8523 
L 302.854424 208.854831 
L 303.844349 208.861154 
L 304.055405 208.895872 
L 306.29445 208.988143 
L 306.503494 209.021163 
L 306.838709 209.006589 
L 307.083012 209.099847 
L 310.489922 209.164045 
L 310.60625 209.553268 
L 310.669654 209.547572 
L 310.698819 209.773078 
L 310.761752 209.547572 
L 310.967027 209.540019 
L 313.603514 209.646301 
L 313.934378 209.684718 
L 314.055581 209.666111 
L 314.148153 209.698664 
L 314.179381 209.666111 
L 314.300365 209.709406 
L 314.450982 209.976438 
L 314.974132 210.030093 
L 315.035264 210.175843 
L 315.097605 210.094808 
L 315.856959 210.203795 
L 316.039716 210.232416 
L 316.732443 210.302362 
L 316.881641 210.357489 
L 318.35048 210.391228 
L 318.407706 210.611594 
L 318.460632 210.546694 
L 321.135175 210.652817 
L 321.346258 210.683157 
L 321.586388 210.683157 
L 321.73409 210.653196 
L 322.302382 210.649116 
L 322.42035 210.849113 
L 325.94338 210.954623 
L 326.75777 211.063777 
L 327.08422 211.090867 
L 327.144483 211.259691 
L 327.205137 211.147405 
L 328.850233 211.161293 
L 328.97029 211.432101 
L 329.275772 211.455506 
L 329.77361 211.443823 
L 330.30843 211.521239 
L 330.429322 211.530809 
L 331.566293 211.609478 
L 331.745832 211.678715 
L 332.310995 211.776774 
L 332.493728 211.81344 
L 332.576509 211.813307 
L 332.605155 211.913927 
L 332.698873 211.847252 
L 333.712146 211.945618 
L 333.890268 211.950811 
L 335.074105 212.039301 
L 335.281525 212.084148 
L 337.604894 212.18561 
L 337.63361 212.254993 
L 337.724443 212.199091 
L 338.68051 212.292581 
L 338.836605 212.310205 
L 339.046196 212.304261 
L 340.47319 212.406726 
L 340.590955 212.428198 
L 341.036513 212.428198 
L 341.06793 212.584112 
L 341.123964 212.428198 
L 341.750758 212.500892 
L 341.897176 212.524921 
L 342.165716 212.51043 
L 342.319611 212.559392 
L 342.496381 212.59688 
L 346.055196 212.787298 
L 346.499182 212.905552 
L 346.499182 212.905552 
" clip-path="url(#p7d412b4d50)" style="fill: none; stroke: #1f77b4; stroke-width: 1.5; stroke-linecap: square"/>
   </g>
   <g id="line2d_17">
    <path d="M 42.143182 17.28 
L 42.940932 123.479309 
L 43.301469 123.479309 
L 43.401902 135.179787 
L 43.757633 135.179787 
L 43.857185 136.81277 
L 44.210722 136.81277 
L 44.306094 138.438139 
L 46.646621 138.507936 
L 46.773088 138.707421 
L 46.924231 138.818243 
L 46.986331 138.937792 
L 47.138951 139.531382 
L 47.346846 139.554446 
L 47.471043 139.577414 
L 47.53135 139.531382 
L 47.809285 140.469541 
L 48.223252 140.73963 
L 48.520753 140.843578 
L 48.664084 141.187585 
L 48.694288 141.209212 
L 48.775188 141.553218 
L 48.803962 141.255288 
L 48.920495 141.553218 
L 49.039176 141.599294 
L 49.129764 141.553218 
L 49.159257 141.599294 
L 49.613105 141.659292 
L 49.642747 142.146026 
L 49.703679 141.668332 
L 49.7349 141.670518 
L 49.766145 142.292906 
L 49.826709 141.668332 
L 49.858077 141.754397 
L 49.889548 142.307748 
L 49.951872 141.80111 
L 50.047324 141.754397 
L 50.170769 142.578742 
L 50.201009 142.578742 
L 50.353603 143.314265 
L 50.382964 142.434584 
L 50.443718 142.993059 
L 50.504765 143.257736 
L 50.56484 143.137218 
L 50.594958 143.137218 
L 50.651442 143.934358 
L 50.712635 143.876264 
L 50.773215 143.876264 
L 50.835216 143.107244 
L 50.8656 143.808988 
L 51.014631 143.87274 
L 51.161718 144.034029 
L 51.192183 144.016899 
L 51.280968 144.150305 
L 51.310923 144.116807 
L 51.372127 144.191076 
L 51.401282 144.260966 
L 51.430723 144.116807 
L 51.459967 144.116807 
L 51.488676 144.137417 
L 51.545884 144.116807 
L 51.600951 144.381485 
L 51.688088 144.288849 
L 51.802187 144.422256 
L 51.951557 144.441637 
L 52.099689 144.465874 
L 52.131138 144.443128 
L 52.305995 144.804526 
L 52.538683 144.837606 
L 52.718333 145.082688 
L 53.401942 145.140118 
L 53.489262 145.199253 
L 53.517267 145.070691 
L 53.609141 145.112615 
L 53.961859 145.186035 
L 53.996215 145.40645 
L 54.056278 145.196158 
L 54.083589 145.196158 
L 54.226028 145.457971 
L 54.254788 145.457971 
L 54.370756 145.651255 
L 54.401802 145.497957 
L 54.462081 145.703147 
L 54.522061 145.703147 
L 54.668561 145.936516 
L 55.138315 145.894747 
L 55.261024 146.480067 
L 55.320159 146.375155 
L 55.615298 146.480067 
L 55.854633 146.61242 
L 55.884317 146.533793 
L 56.005521 146.978003 
L 56.095378 146.906876 
L 56.243131 147.461477 
L 56.334852 147.491791 
L 56.426565 147.782244 
L 56.48459 147.64873 
L 56.60026 147.645089 
L 56.72071 147.5046 
L 56.897733 147.683718 
L 57.071469 147.690141 
L 57.101894 147.882068 
L 57.1618 147.742168 
L 57.308975 147.72936 
L 57.483486 148.249861 
L 58.533187 148.338152 
L 58.563613 148.449547 
L 58.624361 148.342124 
L 59.474716 148.466942 
L 60.436665 148.516249 
L 60.46762 148.590144 
L 60.559605 148.538058 
L 60.719216 148.614991 
L 61.056649 148.718741 
L 61.179741 148.865408 
L 61.244863 148.819818 
L 61.305026 148.870008 
L 61.547967 148.924666 
L 61.575562 149.01701 
L 61.603327 148.877652 
L 61.633435 148.920998 
L 61.723567 148.88463 
L 61.753196 148.915699 
L 61.907223 148.95497 
L 61.966449 149.102587 
L 62.029515 149.087875 
L 62.061126 149.087875 
L 62.312102 149.869369 
L 62.346834 149.869369 
L 62.376732 150.04495 
L 62.466875 150.010106 
L 62.61277 149.945686 
L 62.827189 150.912674 
L 62.857518 150.912674 
L 62.918802 151.066571 
L 62.95075 150.91193 
L 63.044351 151.160905 
L 63.105537 150.980322 
L 63.136191 150.995761 
L 63.166317 151.279452 
L 63.19778 150.980322 
L 63.256507 151.249586 
L 63.378964 151.032492 
L 63.347926 151.301313 
L 63.435517 151.072573 
L 63.554091 151.159666 
L 63.646927 151.480908 
L 63.705989 151.342257 
L 63.7373 151.342257 
L 63.916013 151.641041 
L 64.005317 151.542693 
L 63.973967 151.70184 
L 64.035871 151.564558 
L 64.185498 151.550392 
L 64.213764 151.704013 
L 64.301588 151.650211 
L 64.358119 151.77351 
L 64.633177 152.125535 
L 64.782956 152.11138 
L 64.901946 152.457249 
L 64.962534 152.536312 
L 64.996473 152.41371 
L 65.508531 152.852826 
L 65.53743 152.852826 
L 65.715498 153.569895 
L 65.74659 153.302381 
L 65.804383 153.616314 
L 65.8329 153.616314 
L 65.865502 153.805643 
L 65.956866 153.763651 
L 66.281017 154.025269 
L 66.400303 154.224994 
L 66.458192 154.179944 
L 66.489804 154.291116 
L 66.551097 154.351096 
L 66.579889 154.21079 
L 66.669434 154.318624 
L 66.761657 154.366095 
L 66.849448 154.454124 
L 66.906461 154.321691 
L 66.970144 154.342117 
L 67.297614 154.348067 
L 67.623117 155.576317 
L 67.709439 155.540008 
L 67.739689 155.576317 
L 67.884717 155.830926 
L 68.093098 155.845618 
L 68.181681 156.003354 
L 68.269438 155.80003 
L 68.300584 155.897169 
L 68.330998 155.927598 
L 68.359584 156.194338 
L 68.447872 156.132402 
L 68.856479 156.183403 
L 69.123888 156.930789 
L 69.21146 156.967586 
L 69.242112 157.32241 
L 69.329351 157.072165 
L 69.447324 157.113396 
L 69.539595 157.079892 
L 69.656005 157.463786 
L 69.744552 157.42189 
L 69.898169 157.813413 
L 69.957976 157.469676 
L 70.018468 157.607345 
L 70.078278 157.675909 
L 70.108529 157.573607 
L 70.26141 157.7271 
L 70.59652 157.768331 
L 70.625748 158.163253 
L 70.688616 157.74676 
L 70.874093 157.732863 
L 70.998146 157.803037 
L 71.183195 157.808253 
L 71.299716 158.233312 
L 71.51202 158.22755 
L 71.60583 158.701379 
L 71.665316 158.331829 
L 71.726295 158.390792 
L 71.757171 158.331829 
L 71.874623 158.642416 
L 71.996563 158.642416 
L 72.142816 158.853042 
L 72.756908 158.961999 
L 72.971142 159.068106 
L 73.121518 159.073869 
L 73.244337 159.254491 
L 73.304326 159.252104 
L 73.364784 159.09896 
L 73.422483 159.117797 
L 73.512046 159.083011 
L 73.541926 159.117797 
L 73.899296 159.228084 
L 74.463952 159.421416 
L 74.553224 159.449636 
L 74.583059 159.590927 
L 74.612027 159.435246 
L 74.669718 159.554852 
L 75.263041 159.665521 
L 75.821747 159.815092 
L 75.936549 159.764754 
L 75.965821 159.764754 
L 76.112502 160.012602 
L 76.173564 160.012874 
L 76.263355 160.174882 
L 76.293379 160.067688 
L 76.624358 160.221657 
L 76.775894 160.249652 
L 76.922305 160.609261 
L 77.068045 160.680173 
L 77.161904 160.680173 
L 77.218287 160.902514 
L 77.275632 160.770672 
L 77.303688 160.770672 
L 77.364419 160.902514 
L 77.424258 160.814983 
L 77.539855 161.098742 
L 77.570291 160.776646 
L 77.661773 160.874519 
L 77.840497 160.908487 
L 78.012851 160.874519 
L 78.741386 160.962629 
L 79.007105 161.314212 
L 79.302712 161.313397 
L 79.390117 161.482391 
L 79.420278 161.46746 
L 79.450856 161.46746 
L 79.566777 161.319958 
L 79.715942 161.765118 
L 79.838132 161.782453 
L 80.315915 162.06382 
L 80.343246 161.898585 
L 80.372867 162.094419 
L 80.400296 162.094419 
L 80.554058 162.702071 
L 80.643927 162.966152 
L 80.734945 162.680036 
L 80.763964 162.699987 
L 80.972578 162.699987 
L 81.065001 163.121219 
L 81.093105 162.821533 
L 81.341544 163.292221 
L 81.372442 163.292221 
L 81.522931 163.639232 
L 81.584287 163.639232 
L 81.61492 163.422521 
L 81.675334 163.458563 
L 81.789252 163.721483 
L 81.934212 163.708413 
L 81.96163 163.506634 
L 82.022324 163.639232 
L 82.17284 163.779681 
L 82.26147 163.760062 
L 82.409855 164.007801 
L 82.950572 164.035182 
L 83.010687 164.158818 
L 83.042495 163.978949 
L 83.286936 164.034813 
L 83.316075 164.13949 
L 83.402679 164.106081 
L 83.669006 164.106081 
L 83.784035 164.497642 
L 83.90244 164.497642 
L 84.053475 164.934036 
L 84.290999 165.021669 
L 84.406844 165.861922 
L 85.637292 165.897677 
L 85.695757 166.005302 
L 85.756272 165.981282 
L 85.968853 166.083297 
L 86.300295 166.157308 
L 86.771705 166.256735 
L 87.188087 166.35276 
L 87.518235 166.45927 
L 87.549902 166.477198 
L 87.662457 166.625528 
L 88.19818 166.68247 
L 88.346446 166.915142 
L 88.466529 166.992454 
L 89.049205 167.026759 
L 89.166944 167.172511 
L 89.195091 167.172511 
L 89.313679 167.026759 
L 89.554655 167.026759 
L 89.673871 167.142146 
L 89.857877 167.180567 
L 89.982217 167.345522 
L 90.164189 167.450964 
L 90.375492 167.635455 
L 90.560533 167.687421 
L 90.682346 167.969795 
L 91.793743 168.008136 
L 91.82442 168.113577 
L 91.913913 168.075237 
L 92.035275 168.113577 
L 92.186563 168.083089 
L 92.668065 168.190624 
L 93.117068 168.368515 
L 93.148227 168.759843 
L 93.208628 168.399666 
L 93.388226 168.33099 
L 93.571261 168.792935 
L 93.65407 168.702624 
L 93.863052 168.926728 
L 93.981763 168.71847 
L 94.277363 168.793384 
L 94.370801 169.184712 
L 94.401246 169.109798 
L 94.700459 169.193514 
L 94.848971 169.238274 
L 95.00027 169.268468 
L 95.02928 169.467573 
L 95.05961 169.238274 
L 95.091784 169.246127 
L 95.299886 169.246127 
L 95.329509 169.428642 
L 95.360031 169.235092 
L 95.391079 169.235092 
L 95.422527 169.257586 
L 95.53834 169.510094 
L 95.627132 169.534222 
L 95.742978 169.696139 
L 95.831099 169.754448 
L 95.888398 169.534222 
L 95.94665 169.585562 
L 96.341092 169.680028 
L 96.549084 169.700601 
L 96.669065 169.736898 
L 96.790172 170.025944 
L 96.820977 170.098849 
L 96.915323 170.052191 
L 97.004093 170.098849 
L 97.147238 170.234201 
L 97.300601 170.401898 
L 97.387065 170.307107 
L 97.508621 170.775333 
L 97.537561 170.702428 
L 97.684789 170.772114 
L 97.714451 170.986244 
L 97.774797 170.826674 
L 97.80361 170.766335 
L 97.861294 170.850801 
L 97.890664 170.917788 
L 97.979744 170.850801 
L 98.872028 170.93954 
L 99.023488 170.982947 
L 99.806376 170.96271 
L 99.924998 171.313427 
L 100.049526 171.13036 
L 100.194169 171.456514 
L 100.311306 171.313427 
L 100.519822 171.362882 
L 101.442075 171.448187 
L 101.625434 171.713601 
L 102.19036 171.823413 
L 102.282727 172.043576 
L 102.344189 171.938707 
L 102.553486 171.911976 
L 102.674238 172.301292 
L 102.794423 172.411104 
L 103.39394 172.501493 
L 103.513305 172.501493 
L 103.633093 173.126752 
L 103.755887 173.126752 
L 104.23211 173.223141 
L 104.346431 173.631933 
L 104.887921 173.767993 
L 105.034438 173.799433 
L 105.308941 173.88306 
L 105.368715 174.104692 
L 105.429801 174.054543 
L 105.580557 174.054543 
L 105.728661 174.356251 
L 105.818061 174.360595 
L 105.941176 174.606727 
L 106.211854 174.713406 
L 106.479964 174.784473 
L 107.201241 174.878343 
L 107.381862 174.881667 
L 107.506028 176.11412 
L 107.723951 176.263102 
L 107.964924 176.274446 
L 107.995745 176.491357 
L 108.056666 176.303678 
L 108.208471 176.303678 
L 108.295362 176.303678 
L 108.445321 176.902793 
L 108.776568 176.950842 
L 108.895809 178.065874 
L 108.985491 178.108348 
L 109.140767 178.108126 
L 109.263888 178.031371 
L 109.411127 178.021947 
L 109.503219 178.148053 
L 109.534482 178.138629 
L 109.929198 178.103016 
L 110.083954 179.131073 
L 110.477177 179.131073 
L 110.59794 179.286378 
L 111.240048 179.330083 
L 111.358157 179.457467 
L 111.4166 179.313768 
L 111.447336 179.513355 
L 111.894417 179.614273 
L 112.135415 179.599515 
L 112.222232 179.676406 
L 112.280436 179.740868 
L 112.30839 179.652425 
L 112.39916 179.736911 
L 112.458098 179.854617 
L 112.488467 179.714557 
L 112.789684 179.681024 
L 112.847469 179.575682 
L 112.908138 179.5945 
L 112.999183 179.680018 
L 113.030318 179.923127 
L 113.118121 179.749139 
L 113.239885 179.793942 
L 113.266207 179.724329 
L 113.357757 179.795774 
L 113.774517 179.868053 
L 113.893958 179.947453 
L 114.019888 180.042598 
L 114.13837 179.92005 
L 114.197061 180.068194 
L 114.257897 179.941772 
L 114.316756 180.45727 
L 114.377123 180.278895 
L 114.409424 180.278895 
L 114.531962 180.460077 
L 114.778077 180.450273 
L 114.89658 180.652273 
L 115.050983 180.650765 
L 115.165433 180.747071 
L 115.406673 180.989327 
L 115.436331 180.832474 
L 115.523441 180.875401 
L 115.667501 181.049026 
L 116.050979 181.032055 
L 116.174335 181.198858 
L 116.836891 181.219853 
L 116.865556 181.328417 
L 116.925851 181.219853 
L 117.020845 181.224651 
L 117.052838 181.48413 
L 117.113662 181.219853 
L 117.262272 181.221354 
L 117.408738 181.264582 
L 117.559939 181.666456 
L 117.677926 181.844429 
L 117.707281 181.844429 
L 117.826576 181.968617 
L 118.187574 182.029374 
L 118.302646 182.230743 
L 118.390228 182.145276 
L 118.421609 182.30799 
L 118.507624 182.23023 
L 118.537632 182.30799 
L 118.624281 182.236313 
L 118.948786 182.298512 
L 119.101787 182.462734 
L 119.271644 182.489783 
L 119.984018 182.537707 
L 120.015274 182.616989 
L 120.102226 182.552711 
L 120.131814 182.575979 
L 120.255628 182.94631 
L 121.209827 183.025593 
L 121.239025 183.328929 
L 121.300792 183.025593 
L 121.361688 183.025593 
L 121.392087 183.197608 
L 121.452063 183.025593 
L 121.483005 183.025593 
L 121.603671 183.175374 
L 121.74885 183.175374 
L 121.867869 183.368582 
L 122.04279 183.340586 
L 122.160148 183.661708 
L 122.491514 183.694956 
L 122.605333 183.918183 
L 122.69376 183.878448 
L 122.721465 183.946288 
L 122.80829 183.942126 
L 122.839603 184.077007 
L 122.929491 184.026947 
L 123.168926 184.323317 
L 123.233265 184.097271 
L 123.292293 184.121214 
L 123.736238 184.291161 
L 123.915386 184.299803 
L 124.214667 184.355749 
L 124.400624 184.410008 
L 124.577623 184.629905 
L 125.586161 184.710711 
L 125.614217 184.771846 
L 125.70147 184.710711 
L 125.940441 184.715483 
L 126.00411 184.715483 
L 126.12177 184.865899 
L 126.301207 184.839582 
L 126.360149 184.905671 
L 126.537534 185.034542 
L 126.68899 185.073043 
L 126.838194 185.295431 
L 127.256369 185.185446 
L 127.527654 185.191592 
L 127.644728 185.272159 
L 128.275153 185.361799 
L 128.416442 185.379794 
L 128.769174 185.390039 
L 128.94874 185.444919 
L 129.7615 185.518968 
L 129.882802 185.759125 
L 130.091304 185.822253 
L 130.655234 185.928241 
L 130.685125 186.00202 
L 130.714303 185.874307 
L 130.744459 185.895564 
L 131.225178 185.951705 
L 131.376742 186.016676 
L 131.526687 185.947257 
L 131.945119 186.029481 
L 132.036353 185.98082 
L 132.186978 186.150502 
L 132.455852 186.25109 
L 132.813371 186.276632 
L 133.144492 186.314677 
L 133.29405 186.398256 
L 134.426325 186.460639 
L 134.606306 186.598421 
L 134.666089 186.516197 
L 134.725563 186.539815 
L 134.790899 186.585616 
L 134.822435 186.516197 
L 134.851249 186.516197 
L 134.970837 186.794907 
L 135.186877 186.780053 
L 135.483413 186.845751 
L 135.633231 186.914694 
L 136.263532 187.072589 
L 136.417619 187.107849 
L 136.895387 187.084835 
L 136.926255 187.384219 
L 136.955124 187.076641 
L 136.985905 187.152492 
L 137.104485 187.133037 
L 137.284557 187.19303 
L 137.403275 187.182447 
L 137.672618 187.287618 
L 137.852766 187.300675 
L 137.974376 187.321886 
L 138.035355 187.459344 
L 138.061009 187.437814 
L 138.14958 187.309355 
L 138.180145 187.324086 
L 138.3334 187.373993 
L 138.782081 187.462717 
L 138.901315 187.462717 
L 139.859567 187.515717 
L 139.978141 187.757188 
L 140.103669 187.809903 
L 140.132321 188.111149 
L 140.191351 187.797172 
L 140.252516 187.797172 
L 140.281417 187.917357 
L 140.37051 187.849887 
L 140.573309 187.919387 
L 140.692756 188.200584 
L 140.813422 188.200584 
L 141.202433 188.300214 
L 141.318462 188.300214 
L 141.58163 188.302083 
L 141.642755 188.450203 
L 141.672721 188.300214 
L 141.789411 188.300214 
L 141.906303 188.7627 
L 142.140638 188.912689 
L 142.354568 188.920747 
L 142.471388 189.086566 
L 142.501997 189.086566 
L 142.560455 188.912689 
L 142.590025 189.049262 
L 142.792157 189.126727 
L 143.158104 189.178157 
L 143.216769 189.248616 
L 143.275615 189.178157 
L 143.335736 189.272894 
L 143.482645 189.421208 
L 143.656831 189.40721 
L 143.809547 189.584322 
L 143.84021 189.555602 
L 144.372837 189.654303 
L 144.464497 189.693286 
L 144.493438 189.654303 
L 144.759739 189.732774 
L 144.788712 189.771757 
L 144.82333 189.654303 
L 145.030442 189.66193 
L 145.060252 189.862569 
L 145.120374 189.694377 
L 145.804735 189.769687 
L 145.921569 190.255886 
L 146.389751 190.392669 
L 146.629362 190.497508 
L 147.582242 190.704802 
L 147.870649 190.704802 
L 147.90248 190.979373 
L 147.9648 190.704802 
L 148.022181 190.808407 
L 148.082508 190.758961 
L 148.320958 190.81802 
L 148.520221 190.87218 
L 148.637653 190.975784 
L 149.002456 190.978551 
L 149.151434 191.200313 
L 150.072747 191.300404 
L 150.219799 191.300404 
L 150.397814 191.307545 
L 150.427148 191.616359 
L 150.488508 191.30594 
L 150.993405 191.356592 
L 151.056483 191.620977 
L 151.114216 191.583491 
L 151.264292 191.660623 
L 151.442144 191.640516 
L 151.559132 191.97541 
L 152.640626 191.996954 
L 152.699221 192.199601 
L 152.7576 192.054145 
L 152.846804 191.996954 
L 152.964363 192.165655 
L 153.1464 192.186615 
L 153.491905 192.236804 
L 154.030032 192.264284 
L 154.234596 192.570708 
L 154.325441 192.428331 
L 154.355457 192.446072 
L 154.416174 192.687751 
L 154.447049 192.469425 
L 154.900469 192.48271 
L 154.929396 192.737474 
L 154.992261 192.428331 
L 155.264969 192.428331 
L 155.295047 192.63406 
L 155.357559 192.428331 
L 157.100894 192.481832 
L 157.243191 192.835322 
L 158.139904 192.93832 
L 158.25885 193.20515 
L 158.354645 193.210708 
L 158.382113 193.733801 
L 158.438729 193.210708 
L 158.588701 193.219817 
L 158.738887 193.241359 
L 158.865932 193.754865 
L 158.956793 193.752063 
L 159.102566 194.132634 
L 159.191524 194.132634 
L 159.310197 194.485746 
L 161.445111 194.535946 
L 161.567046 195.111902 
L 161.804439 195.121353 
L 161.894171 195.637492 
L 161.924748 195.619345 
L 162.247331 195.619345 
L 162.36934 195.738315 
L 162.697693 195.738315 
L 162.818857 195.914061 
L 162.848614 195.901117 
L 163.058065 195.879179 
L 164.534066 195.8659 
L 164.715784 196.179118 
L 165.071275 196.278956 
L 165.185969 196.299749 
L 165.333396 196.742042 
L 165.908037 196.825143 
L 165.939212 196.954597 
L 165.998614 196.816811 
L 166.539297 196.91044 
L 166.687842 196.91044 
L 167.050718 196.992019 
L 167.112748 197.152954 
L 167.146017 196.992019 
L 167.781571 197.227205 
L 167.843188 197.148734 
L 167.900346 197.21643 
L 168.551404 197.276067 
L 168.611448 197.393622 
L 168.67146 197.362367 
L 169.307693 197.462573 
L 169.428625 197.229486 
L 170.349121 197.405246 
L 170.464876 197.421956 
L 170.673639 197.44632 
L 171.155164 197.559064 
L 171.390173 197.610731 
L 171.449366 197.715589 
L 171.479238 197.559064 
L 171.741669 197.587972 
L 171.888105 197.701435 
L 171.914627 197.715589 
L 171.944524 197.621028 
L 173.055875 197.695333 
L 173.224588 197.881071 
L 173.344394 197.881071 
L 173.375584 197.727942 
L 173.468267 197.750437 
L 173.558564 197.802573 
L 173.674888 197.893834 
L 173.769427 197.802573 
L 173.798713 197.83029 
L 174.457413 197.829057 
L 174.516206 198.082009 
L 174.574987 198.023249 
L 175.104464 198.092208 
L 175.16677 198.216826 
L 175.197102 198.092208 
L 175.379083 198.093222 
L 175.499713 198.50975 
L 175.64791 198.521353 
L 175.737688 198.711993 
L 175.767745 198.684276 
L 176.190563 198.690494 
L 176.220759 198.805434 
L 176.310882 198.735942 
L 176.433068 198.743305 
L 176.461866 199.000334 
L 176.519509 198.743305 
L 177.429383 198.845047 
L 177.458401 198.92057 
L 177.508425 198.808746 
L 177.933712 198.818272 
L 178.327884 199.156784 
L 178.444252 199.254908 
L 178.657551 199.484114 
L 178.902366 199.525178 
L 178.932429 199.60735 
L 178.995881 199.545834 
L 179.233225 199.526322 
L 179.50487 199.589764 
L 179.564891 199.681563 
L 179.62081 199.590819 
L 179.681975 199.593233 
L 179.802334 199.847937 
L 180.793426 199.958914 
L 181.034403 200.018432 
L 181.36167 200.054944 
L 181.42037 200.328823 
L 181.451406 200.055031 
L 181.600075 200.074462 
L 182.150179 200.115151 
L 182.393905 200.062953 
L 182.796656 200.338018 
L 182.857635 200.244169 
L 182.915784 200.28411 
L 183.035589 200.355593 
L 183.246882 200.368135 
L 183.367726 200.659602 
L 184.224131 200.690317 
L 184.313112 200.844604 
L 184.344443 200.79725 
L 184.70585 200.902098 
L 184.859842 200.928986 
L 185.005873 200.894563 
L 185.33582 200.976413 
L 185.515934 200.941855 
L 185.817823 201.035726 
L 185.969109 201.123368 
L 186.421911 201.212211 
L 186.454601 201.308724 
L 186.517899 201.218469 
L 186.753503 201.218469 
L 186.876074 201.44037 
L 186.907351 201.44037 
L 187.029272 201.607917 
L 187.119231 201.536489 
L 187.150231 201.557008 
L 187.482574 201.655398 
L 187.666807 201.696433 
L 188.056972 201.775861 
L 188.088669 201.784847 
L 188.149333 201.938377 
L 188.181153 201.784847 
L 188.324262 201.700614 
L 188.505586 201.790122 
L 188.656361 201.724108 
L 188.749007 201.77103 
L 188.775963 201.747212 
L 189.933805 201.794904 
L 190.114322 201.956993 
L 190.144531 201.925898 
L 190.289341 202.127903 
L 190.444928 202.101922 
L 190.622746 202.160292 
L 191.547371 202.2117 
L 191.699099 202.501441 
L 191.730083 202.294272 
L 191.81629 202.344829 
L 191.93133 202.369144 
L 192.023489 202.315746 
L 192.053175 202.355205 
L 193.193967 202.44966 
L 193.336775 202.470423 
L 193.396941 202.516943 
L 193.453481 202.435739 
L 193.718738 202.450154 
L 194.046345 202.479855 
L 194.229806 202.567126 
L 194.287353 202.580804 
L 194.435656 202.845861 
L 195.146262 202.889171 
L 195.175392 202.963482 
L 195.242725 202.879149 
L 195.455855 203.112004 
L 195.486475 202.910372 
L 196.02432 203.021147 
L 196.148087 203.098955 
L 196.266355 203.015639 
L 197.810185 203.279326 
L 197.903827 203.267286 
L 197.933328 203.385755 
L 198.024066 203.293121 
L 198.203043 203.267286 
L 199.125565 203.261722 
L 199.248199 203.449659 
L 200.063265 203.500295 
L 200.183528 204.082211 
L 201.406449 204.135996 
L 201.436844 204.203952 
L 201.525755 204.135996 
L 201.675953 204.141889 
L 201.735358 204.180516 
L 201.884277 204.467464 
L 202.214197 204.560142 
L 202.363608 204.602298 
L 203.066776 204.673999 
L 203.130384 204.743952 
L 203.191293 204.699427 
L 203.371088 204.673999 
L 204.292692 204.728261 
L 204.407562 204.841021 
L 205.06278 204.922179 
L 205.211918 204.993718 
L 206.933783 205.075653 
L 206.965496 205.154002 
L 207.028624 205.085792 
L 209.292634 205.154933 
L 209.444541 205.228531 
L 210.222728 205.406129 
L 210.339059 205.373851 
L 210.489968 205.430728 
L 210.908906 205.517257 
L 210.938796 205.595607 
L 211.027512 205.517257 
L 211.702284 205.564104 
L 211.846268 205.653801 
L 212.267531 205.762417 
L 212.383291 205.814662 
L 213.010856 205.961005 
L 213.381822 205.936424 
L 213.50722 206.077565 
L 213.810411 206.08318 
L 214.192436 206.134776 
L 214.323861 206.62302 
L 214.484223 206.645542 
L 214.642979 206.645434 
L 215.313919 206.727667 
L 215.439286 206.694682 
L 215.849666 206.721069 
L 218.005034 206.805876 
L 218.161277 206.845056 
L 218.522348 206.888011 
L 218.677414 206.972373 
L 219.485171 207.079196 
L 219.60862 207.079196 
L 220.751881 207.124965 
L 221.836055 207.185002 
L 221.98747 207.238049 
L 222.666045 207.216434 
L 222.788279 207.379721 
L 223.468551 207.400033 
L 224.369913 207.432348 
L 224.400999 207.55059 
L 224.464135 207.439053 
L 225.200421 207.497526 
L 225.359986 207.597594 
L 226.248539 207.682132 
L 226.432562 207.733526 
L 227.24721 207.822845 
L 227.367932 207.9694 
L 227.461887 207.9694 
L 227.492382 208.026452 
L 227.554288 207.956691 
L 227.978998 208.0003 
L 228.127009 208.039146 
L 229.324257 208.120597 
L 229.356365 208.223243 
L 229.416747 208.120497 
L 229.974307 208.200257 
L 230.004315 208.292247 
L 230.063316 208.200257 
L 231.628584 208.212263 
L 231.660708 208.372045 
L 231.719072 208.212263 
L 232.7465 208.286538 
L 232.897892 208.326239 
L 233.459991 208.326239 
L 233.610937 208.533068 
L 233.947144 208.621333 
L 234.130664 208.667571 
L 234.287735 208.605708 
L 234.352925 208.589009 
L 234.382628 208.680998 
L 234.594895 208.680998 
L 234.625495 208.811239 
L 234.689386 208.680998 
L 235.133314 208.686589 
L 235.163549 208.802598 
L 235.225 208.680423 
L 235.955652 208.785178 
L 236.107297 208.894148 
L 236.472698 209.001872 
L 236.75184 209.016994 
L 237.88451 209.121692 
L 238.313275 209.147237 
L 238.343907 209.136199 
L 238.374447 209.234861 
L 239.165223 209.266707 
L 239.266569 209.369452 
L 239.329322 209.266707 
L 239.389271 209.369452 
L 240.633469 209.44685 
L 240.755974 209.506447 
L 240.910482 209.473993 
L 241.300821 209.528455 
L 241.397447 209.628756 
L 241.521459 209.51601 
L 241.582243 209.51601 
L 241.613436 209.634458 
L 241.671195 209.51601 
L 242.406193 209.664114 
L 242.683268 209.701372 
L 242.711888 209.797939 
L 242.771314 209.701372 
L 243.377528 209.787175 
L 243.405904 209.908891 
L 243.465682 209.787175 
L 243.559456 209.798468 
L 243.591515 209.908891 
L 243.651691 209.798468 
L 243.714264 209.798468 
L 243.743312 209.920184 
L 243.804592 209.77531 
L 244.266697 209.77531 
L 244.386631 209.89452 
L 244.836866 209.969253 
L 244.932061 210.023621 
L 244.962482 209.974749 
L 246.024182 210.055896 
L 246.056103 210.194695 
L 246.116993 210.062138 
L 246.968326 210.062815 
L 247.97314 210.211788 
L 248.430064 210.217091 
L 248.550005 210.329424 
L 251.90487 210.647213 
L 251.965827 210.808741 
L 251.996509 210.679989 
L 252.501883 210.680338 
L 252.623242 210.841692 
L 254.351638 210.939861 
L 254.4147 210.994525 
L 254.479798 210.943936 
L 255.120398 210.976781 
L 255.589774 211.05425 
L 255.742117 211.22824 
L 255.885843 211.20542 
L 256.009387 211.447033 
L 256.040197 211.320739 
L 256.100731 211.494452 
L 256.255042 211.463229 
L 256.496651 211.456809 
L 258.435232 211.55151 
L 258.614709 211.616768 
L 258.923813 211.589366 
L 259.964353 211.624369 
L 259.993142 211.968998 
L 260.053466 211.632467 
L 261.763875 211.739328 
L 261.950655 211.73322 
L 261.982515 211.73322 
L 262.014681 211.898692 
L 262.073547 211.755142 
L 262.167427 211.739413 
L 262.197782 211.816488 
L 262.285334 211.772332 
L 262.623527 211.804816 
L 262.746225 212.121507 
L 263.148287 212.177443 
L 263.30181 212.243257 
L 263.598316 212.351391 
L 263.629859 212.731431 
L 263.691417 212.266546 
L 264.824345 212.346412 
L 264.97824 212.39601 
L 265.502226 212.402707 
L 265.813335 212.558187 
L 265.840632 212.450662 
L 266.484484 212.561302 
L 266.577179 212.716496 
L 266.637811 212.561302 
L 267.407349 212.613766 
L 267.437713 212.689094 
L 267.467067 212.580269 
L 267.498321 212.581787 
L 267.804529 212.582738 
L 268.810185 212.679835 
L 268.997146 212.70034 
L 269.206342 212.737143 
L 269.299682 213.098606 
L 269.330358 213.057006 
L 269.514035 213.118741 
L 270.752462 213.1288 
L 270.939227 213.552708 
L 271.206762 213.636582 
L 271.333727 213.613566 
L 271.490969 213.613566 
L 271.518503 213.785554 
L 271.581901 213.613566 
L 271.918307 213.672916 
L 271.949107 213.768761 
L 272.041413 213.70926 
L 272.132951 213.670135 
L 272.162294 213.781915 
L 272.193135 213.633791 
L 272.222599 213.633791 
L 272.377409 213.669936 
L 272.411149 213.834494 
L 272.468159 213.677005 
L 273.107775 213.737347 
L 273.233967 213.82513 
L 273.874555 213.931854 
L 273.966234 214.054873 
L 273.996394 214.040679 
L 274.203281 214.099126 
L 274.45029 214.097258 
L 274.572224 214.05467 
L 276.171299 214.127579 
L 276.202345 214.270895 
L 276.265603 214.132021 
L 277.217637 214.132021 
L 277.342948 214.292137 
L 277.623223 214.363455 
L 277.775773 214.516547 
L 278.053587 214.533959 
L 279.780126 214.622254 
L 279.942379 214.764495 
L 280.703268 214.849223 
L 280.825497 214.973683 
L 280.85538 214.839493 
L 281.097032 214.88003 
L 281.25182 214.835943 
L 283.062839 214.901343 
L 283.181956 214.937514 
L 286.943572 214.977521 
L 287.064628 215.155342 
L 287.498413 215.263142 
L 287.679272 215.306815 
L 288.688488 215.398016 
L 288.720811 215.437696 
L 288.781165 215.373543 
L 289.483891 215.421864 
L 289.667547 215.450954 
L 289.82566 215.419063 
L 293.068439 215.48939 
L 293.196003 215.505551 
L 293.347333 215.516834 
L 295.101445 215.548985 
L 295.133265 215.641073 
L 295.220944 215.57919 
L 298.575676 215.673453 
L 298.794732 215.695416 
L 299.045288 215.686706 
L 299.169821 215.742152 
L 300.430322 215.796713 
L 300.494384 215.878716 
L 300.522411 215.811353 
L 300.763627 215.818414 
L 300.855671 215.818414 
L 300.982739 216.039808 
L 302.231905 216.123494 
L 302.41752 216.190995 
L 303.617525 216.299256 
L 303.984456 216.316879 
L 305.92224 216.418731 
L 305.953692 216.490896 
L 306.043373 216.422725 
L 306.927964 216.410051 
L 307.115139 216.398893 
L 307.300583 216.410051 
L 308.880538 216.436907 
L 309.317805 216.432022 
L 309.349242 216.540529 
L 309.411483 216.432022 
L 311.248555 216.517623 
L 311.371455 216.596562 
L 314.935552 216.643821 
L 315.028408 216.715499 
L 315.057023 216.650325 
L 316.687359 216.704488 
L 316.782573 216.812995 
L 316.904386 216.714893 
L 318.039137 216.810662 
L 318.347287 216.93223 
L 318.535991 216.874353 
L 319.373613 216.899564 
L 319.497539 217.008071 
L 320.221017 217.093029 
L 320.283163 217.134271 
L 320.343065 217.07379 
L 320.653544 217.075391 
L 322.680045 217.110797 
L 322.711474 217.220226 
L 322.77397 217.121271 
L 324.010795 217.225705 
L 324.378437 217.225705 
L 326.132955 217.481131 
L 326.322891 217.571588 
L 326.352817 217.478962 
L 326.415678 217.57004 
L 327.875683 217.641464 
L 332.369585 217.75183 
L 332.519552 217.816869 
L 334.772415 217.909108 
L 334.800494 217.96723 
L 334.864651 217.889121 
L 335.536291 217.934262 
L 335.659031 217.934262 
L 337.376515 218.025611 
L 337.533122 218.07203 
L 338.395323 218.172469 
L 338.542511 218.233562 
L 338.817514 218.233562 
L 339.0375 218.337023 
L 339.220311 218.386384 
L 339.719984 218.473238 
L 339.905407 218.502053 
L 340.429806 218.598096 
L 340.520237 218.624839 
L 340.550659 218.58437 
L 341.862462 218.683815 
L 341.987608 218.683815 
L 343.901502 218.792761 
L 344.052959 218.797356 
L 344.451708 218.817697 
L 346.506818 218.789973 
L 346.506818 218.789973 
" clip-path="url(#p7d412b4d50)" style="fill: none; stroke: #ff7f0e; stroke-width: 1.5; stroke-linecap: square"/>
   </g>
   <g id="patch_3">
    <path d="M 26.925 228.96 
L 26.925 7.2 
" style="fill: none; stroke: #000000; stroke-width: 0.8; stroke-linejoin: miter; stroke-linecap: square"/>
   </g>
   <g id="patch_4">
    <path d="M 361.725 228.96 
L 361.725 7.2 
" style="fill: none; stroke: #000000; stroke-width: 0.8; stroke-linejoin: miter; stroke-linecap: square"/>
   </g>
   <g id="patch_5">
    <path d="M 26.925 228.96 
L 361.725 228.96 
" style="fill: none; stroke: #000000; stroke-width: 0.8; stroke-linejoin: miter; stroke-linecap: square"/>
   </g>
   <g id="patch_6">
    <path d="M 26.925 7.2 
L 361.725 7.2 
" style="fill: none; stroke: #000000; stroke-width: 0.8; stroke-linejoin: miter; stroke-linecap: square"/>
   </g>
   <g id="legend_1">
    <g id="patch_7">
     <path d="M 219.5625 44.55625 
L 354.725 44.55625 
Q 356.725 44.55625 356.725 42.55625 
L 356.725 14.2 
Q 356.725 12.2 354.725 12.2 
L 219.5625 12.2 
Q 217.5625 12.2 217.5625 14.2 
L 217.5625 42.55625 
Q 217.5625 44.55625 219.5625 44.55625 
z
" style="fill: #ffffff; opacity: 0.8; stroke: #cccccc; stroke-linejoin: miter"/>
    </g>
    <g id="line2d_18">
     <path d="M 221.5625 20.298437 
L 231.5625 20.298437 
L 241.5625 20.298437 
" style="fill: none; stroke: #1f77b4; stroke-width: 1.5; stroke-linecap: square"/>
    </g>
    <g id="text_16">
     <!-- GA target value -->
     <g transform="translate(249.5625 23.798437) scale(0.1 -0.1)">
      <defs>
       <path id="DejaVuSans-47" d="M 3809 666 
L 3809 1919 
L 2778 1919 
L 2778 2438 
L 4434 2438 
L 4434 434 
Q 4069 175 3628 42 
Q 3188 -91 2688 -91 
Q 1594 -91 976 548 
Q 359 1188 359 2328 
Q 359 3472 976 4111 
Q 1594 4750 2688 4750 
Q 3144 4750 3555 4637 
Q 3966 4525 4313 4306 
L 4313 3634 
Q 3963 3931 3569 4081 
Q 3175 4231 2741 4231 
Q 1884 4231 1454 3753 
Q 1025 3275 1025 2328 
Q 1025 1384 1454 906 
Q 1884 428 2741 428 
Q 3075 428 3337 486 
Q 3600 544 3809 666 
z
" transform="scale(0.015625)"/>
       <path id="DejaVuSans-41" d="M 2188 4044 
L 1331 1722 
L 3047 1722 
L 2188 4044 
z
M 1831 4666 
L 2547 4666 
L 4325 0 
L 3669 0 
L 3244 1197 
L 1141 1197 
L 716 0 
L 50 0 
L 1831 4666 
z
" transform="scale(0.015625)"/>
       <path id="DejaVuSans-20" transform="scale(0.015625)"/>
       <path id="DejaVuSans-74" d="M 1172 4494 
L 1172 3500 
L 2356 3500 
L 2356 3053 
L 1172 3053 
L 1172 1153 
Q 1172 725 1289 603 
Q 1406 481 1766 481 
L 2356 481 
L 2356 0 
L 1766 0 
Q 1100 0 847 248 
Q 594 497 594 1153 
L 594 3053 
L 172 3053 
L 172 3500 
L 594 3500 
L 594 4494 
L 1172 4494 
z
" transform="scale(0.015625)"/>
       <path id="DejaVuSans-61" d="M 2194 1759 
Q 1497 1759 1228 1600 
Q 959 1441 959 1056 
Q 959 750 1161 570 
Q 1363 391 1709 391 
Q 2188 391 2477 730 
Q 2766 1069 2766 1631 
L 2766 1759 
L 2194 1759 
z
M 3341 1997 
L 3341 0 
L 2766 0 
L 2766 531 
Q 2569 213 2275 61 
Q 1981 -91 1556 -91 
Q 1019 -91 701 211 
Q 384 513 384 1019 
Q 384 1609 779 1909 
Q 1175 2209 1959 2209 
L 2766 2209 
L 2766 2266 
Q 2766 2663 2505 2880 
Q 2244 3097 1772 3097 
Q 1472 3097 1187 3025 
Q 903 2953 641 2809 
L 641 3341 
Q 956 3463 1253 3523 
Q 1550 3584 1831 3584 
Q 2591 3584 2966 3190 
Q 3341 2797 3341 1997 
z
" transform="scale(0.015625)"/>
       <path id="DejaVuSans-72" d="M 2631 2963 
Q 2534 3019 2420 3045 
Q 2306 3072 2169 3072 
Q 1681 3072 1420 2755 
Q 1159 2438 1159 1844 
L 1159 0 
L 581 0 
L 581 3500 
L 1159 3500 
L 1159 2956 
Q 1341 3275 1631 3429 
Q 1922 3584 2338 3584 
Q 2397 3584 2469 3576 
Q 2541 3569 2628 3553 
L 2631 2963 
z
" transform="scale(0.015625)"/>
       <path id="DejaVuSans-67" d="M 2906 1791 
Q 2906 2416 2648 2759 
Q 2391 3103 1925 3103 
Q 1463 3103 1205 2759 
Q 947 2416 947 1791 
Q 947 1169 1205 825 
Q 1463 481 1925 481 
Q 2391 481 2648 825 
Q 2906 1169 2906 1791 
z
M 3481 434 
Q 3481 -459 3084 -895 
Q 2688 -1331 1869 -1331 
Q 1566 -1331 1297 -1286 
Q 1028 -1241 775 -1147 
L 775 -588 
Q 1028 -725 1275 -790 
Q 1522 -856 1778 -856 
Q 2344 -856 2625 -561 
Q 2906 -266 2906 331 
L 2906 616 
Q 2728 306 2450 153 
Q 2172 0 1784 0 
Q 1141 0 747 490 
Q 353 981 353 1791 
Q 353 2603 747 3093 
Q 1141 3584 1784 3584 
Q 2172 3584 2450 3431 
Q 2728 3278 2906 2969 
L 2906 3500 
L 3481 3500 
L 3481 434 
z
" transform="scale(0.015625)"/>
       <path id="DejaVuSans-65" d="M 3597 1894 
L 3597 1613 
L 953 1613 
Q 991 1019 1311 708 
Q 1631 397 2203 397 
Q 2534 397 2845 478 
Q 3156 559 3463 722 
L 3463 178 
Q 3153 47 2828 -22 
Q 2503 -91 2169 -91 
Q 1331 -91 842 396 
Q 353 884 353 1716 
Q 353 2575 817 3079 
Q 1281 3584 2069 3584 
Q 2775 3584 3186 3129 
Q 3597 2675 3597 1894 
z
M 3022 2063 
Q 3016 2534 2758 2815 
Q 2500 3097 2075 3097 
Q 1594 3097 1305 2825 
Q 1016 2553 972 2059 
L 3022 2063 
z
" transform="scale(0.015625)"/>
       <path id="DejaVuSans-76" d="M 191 3500 
L 800 3500 
L 1894 563 
L 2988 3500 
L 3597 3500 
L 2284 0 
L 1503 0 
L 191 3500 
z
" transform="scale(0.015625)"/>
       <path id="DejaVuSans-6c" d="M 603 4863 
L 1178 4863 
L 1178 0 
L 603 0 
L 603 4863 
z
" transform="scale(0.015625)"/>
       <path id="DejaVuSans-75" d="M 544 1381 
L 544 3500 
L 1119 3500 
L 1119 1403 
Q 1119 906 1312 657 
Q 1506 409 1894 409 
Q 2359 409 2629 706 
Q 2900 1003 2900 1516 
L 2900 3500 
L 3475 3500 
L 3475 0 
L 2900 0 
L 2900 538 
Q 2691 219 2414 64 
Q 2138 -91 1772 -91 
Q 1169 -91 856 284 
Q 544 659 544 1381 
z
M 1991 3584 
L 1991 3584 
z
" transform="scale(0.015625)"/>
      </defs>
      <use xlink:href="#DejaVuSans-47"/>
      <use xlink:href="#DejaVuSans-41" x="77.490234"/>
      <use xlink:href="#DejaVuSans-20" x="145.898438"/>
      <use xlink:href="#DejaVuSans-74" x="177.685547"/>
      <use xlink:href="#DejaVuSans-61" x="216.894531"/>
      <use xlink:href="#DejaVuSans-72" x="278.173828"/>
      <use xlink:href="#DejaVuSans-67" x="317.537109"/>
      <use xlink:href="#DejaVuSans-65" x="381.013672"/>
      <use xlink:href="#DejaVuSans-74" x="442.537109"/>
      <use xlink:href="#DejaVuSans-20" x="481.746094"/>
      <use xlink:href="#DejaVuSans-76" x="513.533203"/>
      <use xlink:href="#DejaVuSans-61" x="572.712891"/>
      <use xlink:href="#DejaVuSans-6c" x="633.992188"/>
      <use xlink:href="#DejaVuSans-75" x="661.775391"/>
      <use xlink:href="#DejaVuSans-65" x="725.154297"/>
     </g>
    </g>
    <g id="line2d_19">
     <path d="M 221.5625 34.976562 
L 231.5625 34.976562 
L 241.5625 34.976562 
" style="fill: none; stroke: #ff7f0e; stroke-width: 1.5; stroke-linecap: square"/>
    </g>
    <g id="text_17">
     <!-- PSO-GA target value -->
     <g transform="translate(249.5625 38.476562) scale(0.1 -0.1)">
      <defs>
       <path id="DejaVuSans-50" d="M 1259 4147 
L 1259 2394 
L 2053 2394 
Q 2494 2394 2734 2622 
Q 2975 2850 2975 3272 
Q 2975 3691 2734 3919 
Q 2494 4147 2053 4147 
L 1259 4147 
z
M 628 4666 
L 2053 4666 
Q 2838 4666 3239 4311 
Q 3641 3956 3641 3272 
Q 3641 2581 3239 2228 
Q 2838 1875 2053 1875 
L 1259 1875 
L 1259 0 
L 628 0 
L 628 4666 
z
" transform="scale(0.015625)"/>
       <path id="DejaVuSans-53" d="M 3425 4513 
L 3425 3897 
Q 3066 4069 2747 4153 
Q 2428 4238 2131 4238 
Q 1616 4238 1336 4038 
Q 1056 3838 1056 3469 
Q 1056 3159 1242 3001 
Q 1428 2844 1947 2747 
L 2328 2669 
Q 3034 2534 3370 2195 
Q 3706 1856 3706 1288 
Q 3706 609 3251 259 
Q 2797 -91 1919 -91 
Q 1588 -91 1214 -16 
Q 841 59 441 206 
L 441 856 
Q 825 641 1194 531 
Q 1563 422 1919 422 
Q 2459 422 2753 634 
Q 3047 847 3047 1241 
Q 3047 1584 2836 1778 
Q 2625 1972 2144 2069 
L 1759 2144 
Q 1053 2284 737 2584 
Q 422 2884 422 3419 
Q 422 4038 858 4394 
Q 1294 4750 2059 4750 
Q 2388 4750 2728 4690 
Q 3069 4631 3425 4513 
z
" transform="scale(0.015625)"/>
       <path id="DejaVuSans-4f" d="M 2522 4238 
Q 1834 4238 1429 3725 
Q 1025 3213 1025 2328 
Q 1025 1447 1429 934 
Q 1834 422 2522 422 
Q 3209 422 3611 934 
Q 4013 1447 4013 2328 
Q 4013 3213 3611 3725 
Q 3209 4238 2522 4238 
z
M 2522 4750 
Q 3503 4750 4090 4092 
Q 4678 3434 4678 2328 
Q 4678 1225 4090 567 
Q 3503 -91 2522 -91 
Q 1538 -91 948 565 
Q 359 1222 359 2328 
Q 359 3434 948 4092 
Q 1538 4750 2522 4750 
z
" transform="scale(0.015625)"/>
       <path id="DejaVuSans-2d" d="M 313 2009 
L 1997 2009 
L 1997 1497 
L 313 1497 
L 313 2009 
z
" transform="scale(0.015625)"/>
      </defs>
      <use xlink:href="#DejaVuSans-50"/>
      <use xlink:href="#DejaVuSans-53" x="60.302734"/>
      <use xlink:href="#DejaVuSans-4f" x="123.779297"/>
      <use xlink:href="#DejaVuSans-2d" x="205.240234"/>
      <use xlink:href="#DejaVuSans-47" x="244.949219"/>
      <use xlink:href="#DejaVuSans-41" x="322.439453"/>
      <use xlink:href="#DejaVuSans-20" x="390.847656"/>
      <use xlink:href="#DejaVuSans-74" x="422.634766"/>
      <use xlink:href="#DejaVuSans-61" x="461.84375"/>
      <use xlink:href="#DejaVuSans-72" x="523.123047"/>
      <use xlink:href="#DejaVuSans-67" x="562.486328"/>
      <use xlink:href="#DejaVuSans-65" x="625.962891"/>
      <use xlink:href="#DejaVuSans-74" x="687.486328"/>
      <use xlink:href="#DejaVuSans-20" x="726.695312"/>
      <use xlink:href="#DejaVuSans-76" x="758.482422"/>
      <use xlink:href="#DejaVuSans-61" x="817.662109"/>
      <use xlink:href="#DejaVuSans-6c" x="878.941406"/>
      <use xlink:href="#DejaVuSans-75" x="906.724609"/>
      <use xlink:href="#DejaVuSans-65" x="970.103516"/>
     </g>
    </g>
   </g>
  </g>
 </g>
 <defs>
  <clipPath id="p7d412b4d50">
   <rect x="26.925" y="7.2" width="334.8" height="221.76"/>
  </clipPath>
 </defs>
</svg>
