<?xml version="1.0" encoding="utf-8" standalone="no"?>
<!DOCTYPE svg PUBLIC "-//W3C//DTD SVG 1.1//EN"
  "http://www.w3.org/Graphics/SVG/1.1/DTD/svg11.dtd">
<svg xmlns:xlink="http://www.w3.org/1999/xlink" width="375.2875pt" height="253.191842pt" viewBox="0 0 375.2875 253.191842" xmlns="http://www.w3.org/2000/svg" version="1.1">
 <metadata>
  <rdf:RDF xmlns:dc="http://purl.org/dc/elements/1.1/" xmlns:cc="http://creativecommons.org/ns#" xmlns:rdf="http://www.w3.org/1999/02/22-rdf-syntax-ns#">
   <cc:Work>
    <dc:type rdf:resource="http://purl.org/dc/dcmitype/StillImage"/>
    <dc:date>2023-04-18T07:01:10.233021</dc:date>
    <dc:format>image/svg+xml</dc:format>
    <dc:creator>
     <cc:Agent>
      <dc:title>Matplotlib v3.6.2, https://matplotlib.org/</dc:title>
     </cc:Agent>
    </dc:creator>
   </cc:Work>
  </rdf:RDF>
 </metadata>
 <defs>
  <style type="text/css">*{stroke-linejoin: round; stroke-linecap: butt}</style>
 </defs>
 <g id="figure_1">
  <g id="patch_1">
   <path d="M 0 253.191842 
L 375.2875 253.191842 
L 375.2875 0 
L 0 0 
z
" style="fill: #ffffff"/>
  </g>
  <g id="axes_1">
   <g id="patch_2">
    <path d="M 33.2875 229.313717 
L 368.0875 229.313717 
L 368.0875 7.553717 
L 33.2875 7.553717 
z
" style="fill: #ffffff"/>
   </g>
   <g id="matplotlib.axis_1">
    <g id="xtick_1">
     <g id="line2d_1">
      <defs>
       <path id="m7c71b36ac8" d="M 0 0 
L 0 3.5 
" style="stroke: #000000; stroke-width: 0.8"/>
      </defs>
      <g>
       <use xlink:href="#m7c71b36ac8" x="48.505682" y="229.313717" style="stroke: #000000; stroke-width: 0.8"/>
      </g>
     </g>
     <g id="text_1">
      <!-- 0 -->
      <g transform="translate(45.324432 243.912155) scale(0.1 -0.1)">
       <defs>
        <path id="DejaVuSans-30" d="M 2034 4250 
Q 1547 4250 1301 3770 
Q 1056 3291 1056 2328 
Q 1056 1369 1301 889 
Q 1547 409 2034 409 
Q 2525 409 2770 889 
Q 3016 1369 3016 2328 
Q 3016 3291 2770 3770 
Q 2525 4250 2034 4250 
z
M 2034 4750 
Q 2819 4750 3233 4129 
Q 3647 3509 3647 2328 
Q 3647 1150 3233 529 
Q 2819 -91 2034 -91 
Q 1250 -91 836 529 
Q 422 1150 422 2328 
Q 422 3509 836 4129 
Q 1250 4750 2034 4750 
z
" transform="scale(0.015625)"/>
       </defs>
       <use xlink:href="#DejaVuSans-30"/>
      </g>
     </g>
    </g>
    <g id="xtick_2">
     <g id="line2d_2">
      <g>
       <use xlink:href="#m7c71b36ac8" x="109.378409" y="229.313717" style="stroke: #000000; stroke-width: 0.8"/>
      </g>
     </g>
     <g id="text_2">
      <!-- 200 -->
      <g transform="translate(99.834659 243.912155) scale(0.1 -0.1)">
       <defs>
        <path id="DejaVuSans-32" d="M 1228 531 
L 3431 531 
L 3431 0 
L 469 0 
L 469 531 
Q 828 903 1448 1529 
Q 2069 2156 2228 2338 
Q 2531 2678 2651 2914 
Q 2772 3150 2772 3378 
Q 2772 3750 2511 3984 
Q 2250 4219 1831 4219 
Q 1534 4219 1204 4116 
Q 875 4013 500 3803 
L 500 4441 
Q 881 4594 1212 4672 
Q 1544 4750 1819 4750 
Q 2544 4750 2975 4387 
Q 3406 4025 3406 3419 
Q 3406 3131 3298 2873 
Q 3191 2616 2906 2266 
Q 2828 2175 2409 1742 
Q 1991 1309 1228 531 
z
" transform="scale(0.015625)"/>
       </defs>
       <use xlink:href="#DejaVuSans-32"/>
       <use xlink:href="#DejaVuSans-30" x="63.623047"/>
       <use xlink:href="#DejaVuSans-30" x="127.246094"/>
      </g>
     </g>
    </g>
    <g id="xtick_3">
     <g id="line2d_3">
      <g>
       <use xlink:href="#m7c71b36ac8" x="170.251136" y="229.313717" style="stroke: #000000; stroke-width: 0.8"/>
      </g>
     </g>
     <g id="text_3">
      <!-- 400 -->
      <g transform="translate(160.707386 243.912155) scale(0.1 -0.1)">
       <defs>
        <path id="DejaVuSans-34" d="M 2419 4116 
L 825 1625 
L 2419 1625 
L 2419 4116 
z
M 2253 4666 
L 3047 4666 
L 3047 1625 
L 3713 1625 
L 3713 1100 
L 3047 1100 
L 3047 0 
L 2419 0 
L 2419 1100 
L 313 1100 
L 313 1709 
L 2253 4666 
z
" transform="scale(0.015625)"/>
       </defs>
       <use xlink:href="#DejaVuSans-34"/>
       <use xlink:href="#DejaVuSans-30" x="63.623047"/>
       <use xlink:href="#DejaVuSans-30" x="127.246094"/>
      </g>
     </g>
    </g>
    <g id="xtick_4">
     <g id="line2d_4">
      <g>
       <use xlink:href="#m7c71b36ac8" x="231.123864" y="229.313717" style="stroke: #000000; stroke-width: 0.8"/>
      </g>
     </g>
     <g id="text_4">
      <!-- 600 -->
      <g transform="translate(221.580114 243.912155) scale(0.1 -0.1)">
       <defs>
        <path id="DejaVuSans-36" d="M 2113 2584 
Q 1688 2584 1439 2293 
Q 1191 2003 1191 1497 
Q 1191 994 1439 701 
Q 1688 409 2113 409 
Q 2538 409 2786 701 
Q 3034 994 3034 1497 
Q 3034 2003 2786 2293 
Q 2538 2584 2113 2584 
z
M 3366 4563 
L 3366 3988 
Q 3128 4100 2886 4159 
Q 2644 4219 2406 4219 
Q 1781 4219 1451 3797 
Q 1122 3375 1075 2522 
Q 1259 2794 1537 2939 
Q 1816 3084 2150 3084 
Q 2853 3084 3261 2657 
Q 3669 2231 3669 1497 
Q 3669 778 3244 343 
Q 2819 -91 2113 -91 
Q 1303 -91 875 529 
Q 447 1150 447 2328 
Q 447 3434 972 4092 
Q 1497 4750 2381 4750 
Q 2619 4750 2861 4703 
Q 3103 4656 3366 4563 
z
" transform="scale(0.015625)"/>
       </defs>
       <use xlink:href="#DejaVuSans-36"/>
       <use xlink:href="#DejaVuSans-30" x="63.623047"/>
       <use xlink:href="#DejaVuSans-30" x="127.246094"/>
      </g>
     </g>
    </g>
    <g id="xtick_5">
     <g id="line2d_5">
      <g>
       <use xlink:href="#m7c71b36ac8" x="291.996591" y="229.313717" style="stroke: #000000; stroke-width: 0.8"/>
      </g>
     </g>
     <g id="text_5">
      <!-- 800 -->
      <g transform="translate(282.452841 243.912155) scale(0.1 -0.1)">
       <defs>
        <path id="DejaVuSans-38" d="M 2034 2216 
Q 1584 2216 1326 1975 
Q 1069 1734 1069 1313 
Q 1069 891 1326 650 
Q 1584 409 2034 409 
Q 2484 409 2743 651 
Q 3003 894 3003 1313 
Q 3003 1734 2745 1975 
Q 2488 2216 2034 2216 
z
M 1403 2484 
Q 997 2584 770 2862 
Q 544 3141 544 3541 
Q 544 4100 942 4425 
Q 1341 4750 2034 4750 
Q 2731 4750 3128 4425 
Q 3525 4100 3525 3541 
Q 3525 3141 3298 2862 
Q 3072 2584 2669 2484 
Q 3125 2378 3379 2068 
Q 3634 1759 3634 1313 
Q 3634 634 3220 271 
Q 2806 -91 2034 -91 
Q 1263 -91 848 271 
Q 434 634 434 1313 
Q 434 1759 690 2068 
Q 947 2378 1403 2484 
z
M 1172 3481 
Q 1172 3119 1398 2916 
Q 1625 2713 2034 2713 
Q 2441 2713 2670 2916 
Q 2900 3119 2900 3481 
Q 2900 3844 2670 4047 
Q 2441 4250 2034 4250 
Q 1625 4250 1398 4047 
Q 1172 3844 1172 3481 
z
" transform="scale(0.015625)"/>
       </defs>
       <use xlink:href="#DejaVuSans-38"/>
       <use xlink:href="#DejaVuSans-30" x="63.623047"/>
       <use xlink:href="#DejaVuSans-30" x="127.246094"/>
      </g>
     </g>
    </g>
    <g id="xtick_6">
     <g id="line2d_6">
      <g>
       <use xlink:href="#m7c71b36ac8" x="352.869318" y="229.313717" style="stroke: #000000; stroke-width: 0.8"/>
      </g>
     </g>
     <g id="text_6">
      <!-- 1000 -->
      <g transform="translate(340.144318 243.912155) scale(0.1 -0.1)">
       <defs>
        <path id="DejaVuSans-31" d="M 794 531 
L 1825 531 
L 1825 4091 
L 703 3866 
L 703 4441 
L 1819 4666 
L 2450 4666 
L 2450 531 
L 3481 531 
L 3481 0 
L 794 0 
L 794 531 
z
" transform="scale(0.015625)"/>
       </defs>
       <use xlink:href="#DejaVuSans-31"/>
       <use xlink:href="#DejaVuSans-30" x="63.623047"/>
       <use xlink:href="#DejaVuSans-30" x="127.246094"/>
       <use xlink:href="#DejaVuSans-30" x="190.869141"/>
      </g>
     </g>
    </g>
   </g>
   <g id="matplotlib.axis_2">
    <g id="ytick_1">
     <g id="line2d_7">
      <defs>
       <path id="m4804068b0d" d="M 0 0 
L -3.5 0 
" style="stroke: #000000; stroke-width: 0.8"/>
      </defs>
      <g>
       <use xlink:href="#m4804068b0d" x="33.2875" y="219.233717" style="stroke: #000000; stroke-width: 0.8"/>
      </g>
     </g>
     <g id="text_7">
      <!-- 0 -->
      <g transform="translate(19.925 223.032936) scale(0.1 -0.1)">
       <use xlink:href="#DejaVuSans-30"/>
      </g>
     </g>
    </g>
    <g id="ytick_2">
     <g id="line2d_8">
      <g>
       <use xlink:href="#m4804068b0d" x="33.2875" y="177.586818" style="stroke: #000000; stroke-width: 0.8"/>
      </g>
     </g>
     <g id="text_8">
      <!-- 20 -->
      <g transform="translate(13.5625 181.386036) scale(0.1 -0.1)">
       <use xlink:href="#DejaVuSans-32"/>
       <use xlink:href="#DejaVuSans-30" x="63.623047"/>
      </g>
     </g>
    </g>
    <g id="ytick_3">
     <g id="line2d_9">
      <g>
       <use xlink:href="#m4804068b0d" x="33.2875" y="135.939918" style="stroke: #000000; stroke-width: 0.8"/>
      </g>
     </g>
     <g id="text_9">
      <!-- 40 -->
      <g transform="translate(13.5625 139.739137) scale(0.1 -0.1)">
       <use xlink:href="#DejaVuSans-34"/>
       <use xlink:href="#DejaVuSans-30" x="63.623047"/>
      </g>
     </g>
    </g>
    <g id="ytick_4">
     <g id="line2d_10">
      <g>
       <use xlink:href="#m4804068b0d" x="33.2875" y="94.293018" style="stroke: #000000; stroke-width: 0.8"/>
      </g>
     </g>
     <g id="text_10">
      <!-- 60 -->
      <g transform="translate(13.5625 98.092237) scale(0.1 -0.1)">
       <use xlink:href="#DejaVuSans-36"/>
       <use xlink:href="#DejaVuSans-30" x="63.623047"/>
      </g>
     </g>
    </g>
    <g id="ytick_5">
     <g id="line2d_11">
      <g>
       <use xlink:href="#m4804068b0d" x="33.2875" y="52.646118" style="stroke: #000000; stroke-width: 0.8"/>
      </g>
     </g>
     <g id="text_11">
      <!-- 80 -->
      <g transform="translate(13.5625 56.445337) scale(0.1 -0.1)">
       <use xlink:href="#DejaVuSans-38"/>
       <use xlink:href="#DejaVuSans-30" x="63.623047"/>
      </g>
     </g>
    </g>
    <g id="ytick_6">
     <g id="line2d_12">
      <g>
       <use xlink:href="#m4804068b0d" x="33.2875" y="10.999219" style="stroke: #000000; stroke-width: 0.8"/>
      </g>
     </g>
     <g id="text_12">
      <!-- 100 -->
      <g transform="translate(7.2 14.798437) scale(0.1 -0.1)">
       <use xlink:href="#DejaVuSans-31"/>
       <use xlink:href="#DejaVuSans-30" x="63.623047"/>
       <use xlink:href="#DejaVuSans-30" x="127.246094"/>
      </g>
     </g>
    </g>
   </g>
   <g id="line2d_13">
    <path d="M 48.505682 19.971642 
L 48.810045 80.913786 
L 49.114409 84.71746 
L 49.418773 84.71746 
L 49.723136 88.582758 
L 50.0275 88.582758 
L 50.331864 89.20155 
L 50.636227 89.20155 
L 50.940591 89.36579 
L 51.853682 89.36579 
L 52.158045 89.741995 
L 52.462409 89.741995 
L 53.3755 90.018803 
L 54.288591 90.056026 
L 54.897318 90.134341 
L 64.332591 90.142039 
L 64.636955 90.773898 
L 99.638773 90.877974 
L 99.943136 91.065528 
L 110.900227 91.082932 
L 111.204591 91.275412 
L 111.508955 91.275412 
L 111.813318 91.500412 
L 230.210773 91.500412 
L 230.515136 91.821497 
L 352.869318 91.839314 
L 352.869318 91.839314 
" clip-path="url(#p51a68716e6)" style="fill: none; stroke: #1f77b4; stroke-width: 1.5; stroke-linecap: square"/>
   </g>
   <g id="line2d_14">
    <path d="M 48.505682 36.132695 
L 49.114409 36.149899 
L 49.723136 38.325291 
L 50.0275 38.2444 
L 50.331864 40.813969 
L 50.636227 38.852644 
L 50.940591 39.440959 
L 51.244955 39.440959 
L 51.549318 40.834269 
L 51.853682 40.834269 
L 52.158045 42.641397 
L 52.462409 41.99962 
L 53.071136 42.46042 
L 53.3755 42.787258 
L 53.679864 42.800834 
L 54.592955 44.783644 
L 54.897318 44.801653 
L 55.201682 44.94342 
L 55.506045 45.49581 
L 55.810409 45.60058 
L 56.114773 45.867572 
L 56.7235 45.968264 
L 57.027864 46.492171 
L 57.636591 46.568641 
L 58.245318 46.986087 
L 58.854045 47.739787 
L 59.767136 47.739787 
L 60.0715 48.035273 
L 60.375864 48.125152 
L 60.984591 48.591092 
L 61.288955 48.35945 
L 61.593318 48.501275 
L 61.897682 48.832334 
L 62.810773 48.880689 
L 63.4195 49.54683 
L 63.723864 49.669132 
L 64.028227 49.669132 
L 64.941318 50.366481 
L 65.245682 50.88601 
L 65.550045 50.961103 
L 66.158773 51.719908 
L 67.071864 51.830975 
L 67.376227 51.791619 
L 68.593682 52.478807 
L 68.898045 53.061785 
L 69.202409 53.061785 
L 69.506773 53.181362 
L 69.811136 53.181362 
L 70.419864 53.951511 
L 71.028591 54.17289 
L 71.941682 55.235303 
L 72.550409 55.597122 
L 72.854773 55.910506 
L 73.159136 55.910506 
L 73.4635 56.234367 
L 73.767864 56.234367 
L 74.072227 56.582104 
L 75.289682 56.794061 
L 76.202773 57.756885 
L 76.8115 58.382068 
L 77.115864 58.455238 
L 77.420227 58.695926 
L 77.724591 58.382068 
L 78.028955 58.418979 
L 78.333318 58.680226 
L 78.637682 58.756749 
L 78.942045 58.971854 
L 79.246409 59.346569 
L 79.550773 58.991252 
L 79.855136 59.187625 
L 80.463864 59.23949 
L 80.768227 59.596467 
L 81.072591 59.69678 
L 81.376955 59.660593 
L 81.681318 59.907493 
L 82.290045 60.016518 
L 83.5075 60.767405 
L 83.811864 60.797489 
L 84.420591 61.321662 
L 84.724955 61.321662 
L 85.333682 61.640984 
L 86.246773 62.412189 
L 86.551136 62.335188 
L 86.8555 62.951292 
L 87.159864 62.967762 
L 87.464227 63.31413 
L 88.072955 63.287167 
L 88.377318 64.12896 
L 88.681682 64.494546 
L 89.290409 64.521431 
L 90.2035 64.778437 
L 90.812227 64.845211 
L 91.116591 65.09041 
L 91.420955 64.8425 
L 91.725318 64.927361 
L 92.029682 65.167589 
L 92.638409 65.197156 
L 92.942773 65.468245 
L 93.247136 65.997475 
L 93.5515 66.058835 
L 93.855864 66.477875 
L 95.986409 66.825883 
L 96.290773 67.190539 
L 96.595136 67.210314 
L 96.8995 67.592447 
L 97.203864 67.592447 
L 97.508227 68.077629 
L 97.812591 68.077629 
L 98.421318 68.240001 
L 99.030045 68.337173 
L 99.334409 68.640873 
L 100.2475 68.94373 
L 101.160591 69.430568 
L 101.464955 69.515577 
L 101.769318 69.841592 
L 102.073682 69.879722 
L 102.378045 70.203172 
L 102.682409 70.318119 
L 102.986773 70.203172 
L 103.291136 70.40095 
L 103.899864 70.428165 
L 104.204227 70.591229 
L 104.508591 70.591229 
L 104.812955 70.820005 
L 106.030409 70.967217 
L 106.334773 71.261936 
L 106.639136 71.191002 
L 106.9435 71.309668 
L 107.247864 71.599444 
L 107.552227 71.694198 
L 107.856591 71.929329 
L 108.160955 71.702708 
L 108.769682 71.702708 
L 109.378409 72.173898 
L 109.682773 71.866295 
L 110.2915 71.911441 
L 110.595864 72.261875 
L 110.900227 71.988112 
L 111.813318 72.495393 
L 112.726409 72.575486 
L 113.030773 72.837884 
L 114.856955 73.217638 
L 115.161318 73.490051 
L 115.465682 73.375882 
L 116.074409 73.443272 
L 116.378773 73.758561 
L 117.291864 73.76452 
L 117.596227 73.939628 
L 118.509318 73.954029 
L 119.118045 74.588464 
L 119.422409 74.63552 
L 119.726773 75.088393 
L 120.3355 75.125359 
L 120.639864 75.394253 
L 121.552955 75.611766 
L 121.857318 75.853924 
L 122.161682 75.805602 
L 123.379136 76.604587 
L 123.6835 76.784747 
L 123.987864 76.813599 
L 124.292227 76.995308 
L 125.509682 76.997449 
L 126.118409 77.33596 
L 126.727136 77.432208 
L 127.0315 77.432208 
L 127.335864 77.601082 
L 127.640227 77.545864 
L 128.248955 77.879902 
L 128.553318 78.088633 
L 128.857682 78.626657 
L 129.466409 78.626657 
L 130.075136 79.206103 
L 130.683864 79.565349 
L 130.988227 79.724317 
L 131.901318 79.733451 
L 132.205682 79.990656 
L 132.814409 80.09635 
L 135.249318 80.585539 
L 135.553682 80.585539 
L 135.858045 80.936672 
L 136.466773 80.834133 
L 137.684227 81.892329 
L 138.901682 81.934669 
L 139.206045 82.064486 
L 139.814773 82.514277 
L 140.4235 82.549364 
L 140.727864 82.985875 
L 142.554045 83.055156 
L 142.858409 82.933864 
L 143.162773 83.185685 
L 143.467136 83.191923 
L 143.7715 83.57628 
L 144.380227 83.599901 
L 145.902045 83.991086 
L 146.206409 84.296183 
L 146.510773 83.991086 
L 146.815136 84.28956 
L 147.1195 84.28956 
L 147.423864 84.443187 
L 148.641318 84.419404 
L 149.858773 84.945803 
L 150.163136 84.820449 
L 150.4675 85.255765 
L 151.076227 85.319921 
L 151.684955 85.415296 
L 151.989318 85.778191 
L 152.293682 85.62808 
L 153.206773 85.654326 
L 153.511136 85.810377 
L 154.424227 85.915632 
L 155.032955 85.999129 
L 155.337318 86.413415 
L 157.1635 86.540302 
L 157.467864 86.759566 
L 157.772227 86.759566 
L 158.076591 86.997078 
L 158.989682 86.925541 
L 159.294045 87.167081 
L 159.598409 87.177027 
L 159.902773 87.363967 
L 160.207136 87.412667 
L 160.5115 87.768686 
L 160.815864 87.578243 
L 161.120227 87.578243 
L 161.424591 87.821528 
L 161.728955 87.717667 
L 162.337682 87.819833 
L 162.642045 87.819833 
L 163.8595 88.32501 
L 164.163864 88.239139 
L 164.468227 88.387728 
L 164.772591 88.387728 
L 165.381318 88.799745 
L 165.990045 88.687364 
L 166.903136 88.816166 
L 167.511864 89.198685 
L 167.816227 89.03666 
L 168.120591 89.048016 
L 168.729318 89.547146 
L 169.033682 89.548744 
L 169.338045 90.039803 
L 169.642409 90.125481 
L 170.251136 90.039803 
L 172.381682 90.102908 
L 172.686045 90.186506 
L 173.294773 90.634183 
L 173.599136 90.634183 
L 174.207864 91.029158 
L 174.512227 90.786632 
L 174.816591 91.029158 
L 176.947136 91.176519 
L 178.164591 91.390165 
L 178.468955 91.350788 
L 179.077682 91.467907 
L 179.382045 91.467907 
L 180.5995 91.941814 
L 181.208227 91.983869 
L 182.425682 92.173574 
L 182.730045 92.17364 
L 183.034409 92.626316 
L 183.9475 92.707941 
L 184.860591 92.925537 
L 185.164955 93.228526 
L 185.469318 93.06586 
L 186.382409 93.21224 
L 186.686773 93.363039 
L 186.991136 93.363039 
L 187.2955 93.564695 
L 187.904227 93.768502 
L 188.208591 93.968103 
L 188.512955 93.821228 
L 190.339136 93.8927 
L 190.947864 93.975185 
L 192.774045 94.118433 
L 193.078409 94.399213 
L 195.208955 94.546788 
L 196.426409 94.66069 
L 197.3395 95.004584 
L 198.556955 95.035065 
L 198.861318 95.301695 
L 199.470045 95.250832 
L 199.774409 95.433697 
L 200.078773 95.363242 
L 200.383136 95.492092 
L 200.991864 95.517524 
L 201.296227 95.68265 
L 201.904955 95.686721 
L 202.513682 95.966288 
L 203.122409 96.067916 
L 203.426773 96.02412 
L 204.644227 96.53618 
L 205.557318 96.680923 
L 205.861682 97.001841 
L 207.687864 97.038514 
L 208.296591 97.476716 
L 208.600955 97.476716 
L 208.905318 97.705455 
L 209.514045 97.705455 
L 209.818409 98.076981 
L 210.427136 98.092762 
L 211.035864 98.202289 
L 211.340227 98.569442 
L 213.166409 98.763081 
L 213.775136 98.700232 
L 214.383864 98.755579 
L 214.992591 98.938561 
L 217.4275 99.422461 
L 218.644955 99.650025 
L 218.949318 99.949886 
L 219.558045 99.994563 
L 219.862409 100.3117 
L 220.166773 100.125348 
L 220.471136 100.125348 
L 221.992955 100.826995 
L 222.601682 100.796458 
L 222.906045 101.253919 
L 223.210409 101.448554 
L 223.514773 101.448554 
L 223.819136 101.574908 
L 224.427864 101.67806 
L 225.340955 101.709372 
L 225.645318 101.918612 
L 225.949682 101.822165 
L 226.254045 102.021121 
L 227.167136 102.125127 
L 228.080227 102.267709 
L 228.384591 102.68745 
L 228.993318 102.68745 
L 229.297682 102.839114 
L 229.906409 102.736986 
L 231.123864 103.052824 
L 231.428227 103.065018 
L 231.732591 103.255016 
L 233.254409 103.2745 
L 233.863136 103.374502 
L 234.471864 103.464975 
L 234.776227 103.702878 
L 235.384955 103.702878 
L 235.993682 104.153293 
L 237.211136 104.514843 
L 237.819864 104.565334 
L 238.124227 104.797689 
L 238.732955 104.840461 
L 239.950409 105.111927 
L 240.8635 105.082716 
L 241.167864 105.28885 
L 242.080955 105.39229 
L 242.994045 105.572137 
L 244.820227 105.653208 
L 246.037682 105.903087 
L 246.646409 106.054916 
L 247.255136 106.125824 
L 247.5595 106.184033 
L 247.863864 106.128058 
L 248.168227 106.340143 
L 248.472591 106.26355 
L 249.081318 106.455567 
L 249.994409 106.556845 
L 250.603136 106.672765 
L 250.9075 106.86983 
L 252.733682 107.15061 
L 253.038045 107.517781 
L 253.342409 107.383176 
L 253.646773 107.383176 
L 253.951136 107.250147 
L 254.559864 107.373661 
L 255.168591 107.808698 
L 255.777318 107.808698 
L 256.081682 108.295789 
L 256.386045 108.078236 
L 257.6035 108.351741 
L 257.907864 108.204134 
L 258.212227 108.2058 
L 258.516591 108.475965 
L 259.734045 108.58054 
L 260.342773 108.670787 
L 260.647136 108.957749 
L 260.9515 108.844018 
L 262.473318 109.087003 
L 262.777682 109.073296 
L 263.690773 109.3066 
L 263.995136 109.378429 
L 264.603864 109.809495 
L 266.734409 109.986132 
L 269.169318 110.230437 
L 269.473682 110.48336 
L 270.386773 110.54462 
L 270.691136 110.829824 
L 270.9955 110.852287 
L 271.299864 111.065087 
L 273.126045 111.158485 
L 273.430409 111.307476 
L 274.039136 111.232551 
L 274.3435 111.365419 
L 274.647864 111.327069 
L 275.865318 111.657437 
L 277.082773 111.716772 
L 277.6915 111.769089 
L 278.300227 111.914309 
L 278.604591 111.763349 
L 278.908955 111.770145 
L 279.822045 112.254088 
L 280.430773 112.351718 
L 281.343864 112.422113 
L 281.952591 112.518278 
L 282.256955 112.658378 
L 284.996227 112.762613 
L 286.518045 112.953741 
L 287.126773 113.025558 
L 288.648591 113.156386 
L 288.952955 113.287085 
L 290.474773 113.325673 
L 290.779136 113.450293 
L 291.692227 113.439842 
L 291.996591 113.600167 
L 292.605318 113.536603 
L 293.518409 114.261952 
L 294.735864 114.285616 
L 295.344591 114.57677 
L 296.257682 114.730999 
L 296.562045 114.516003 
L 297.475136 114.591384 
L 298.083864 114.789687 
L 298.996955 114.862846 
L 299.301318 115.056388 
L 300.214409 115.091123 
L 300.518773 115.311463 
L 302.953682 115.411602 
L 303.562409 115.517057 
L 304.4755 115.550066 
L 305.084227 115.645862 
L 305.692955 115.734559 
L 306.606045 115.902311 
L 307.8235 115.942621 
L 308.127864 116.07075 
L 308.432227 116.044581 
L 308.736591 116.261305 
L 309.040955 116.261305 
L 309.345318 116.404782 
L 309.649682 116.291735 
L 309.954045 116.42194 
L 311.1715 116.401244 
L 313.302045 116.836108 
L 315.432591 116.900297 
L 316.041318 116.993512 
L 316.345682 116.945351 
L 316.954409 117.063943 
L 317.8675 117.065343 
L 318.171864 117.279771 
L 318.476227 117.279771 
L 318.780591 117.136955 
L 320.911136 117.398208 
L 321.519864 117.470754 
L 323.346045 117.997757 
L 323.954773 117.923683 
L 324.867864 118.034795 
L 326.694045 118.127077 
L 328.215864 118.260315 
L 329.737682 118.412936 
L 330.955136 118.542268 
L 332.476955 118.618139 
L 333.694409 118.723349 
L 334.303136 118.674016 
L 335.520591 118.713326 
L 336.738045 118.727879 
L 337.042409 118.959165 
L 337.346773 118.782503 
L 337.651136 118.944658 
L 337.9555 118.944658 
L 338.259864 119.08393 
L 340.999136 119.15249 
L 341.607864 119.234839 
L 343.434045 119.384664 
L 344.042773 119.467034 
L 345.260227 119.700351 
L 345.868955 119.780171 
L 346.477682 119.85707 
L 347.695136 119.924027 
L 348.303864 120.118485 
L 348.912591 120.146616 
L 349.216955 120.150997 
L 349.521318 120.277817 
L 351.651864 120.363439 
L 352.260591 120.432553 
L 352.869318 120.455956 
L 352.869318 120.455956 
" clip-path="url(#p51a68716e6)" style="fill: none; stroke: #ff7f0e; stroke-width: 1.5; stroke-linecap: square"/>
   </g>
   <g id="line2d_15">
    <path d="M 48.505682 17.633717 
L 48.810045 18.765942 
L 49.114409 18.903404 
L 49.723136 20.116779 
L 50.0275 21.089146 
L 50.331864 23.380326 
L 50.636227 24.39088 
L 51.244955 24.39088 
L 51.549318 25.060745 
L 51.853682 25.180325 
L 52.158045 26.843672 
L 52.462409 27.180821 
L 52.766773 28.486795 
L 53.071136 28.645216 
L 53.3755 29.557533 
L 53.679864 29.814078 
L 53.984227 30.900862 
L 54.288591 31.318106 
L 54.592955 32.384494 
L 54.897318 32.384494 
L 55.201682 33.690366 
L 55.506045 33.941589 
L 55.810409 33.941589 
L 56.419136 34.608124 
L 56.7235 34.65047 
L 57.027864 35.372206 
L 57.332227 36.502523 
L 57.636591 37.070661 
L 57.940955 37.365582 
L 58.549682 37.454218 
L 58.854045 37.920893 
L 59.158409 37.924198 
L 59.462773 38.679876 
L 59.767136 39.016615 
L 60.0715 39.016615 
L 60.375864 39.279748 
L 60.680227 39.279748 
L 60.984591 39.439806 
L 61.593318 40.055305 
L 61.897682 40.708119 
L 62.202045 40.837923 
L 62.506409 41.800444 
L 62.810773 42.178944 
L 63.4195 42.416138 
L 63.723864 42.699944 
L 64.941318 42.713279 
L 65.245682 43.029385 
L 65.550045 43.159358 
L 65.854409 43.159358 
L 66.7675 43.593705 
L 67.071864 43.602582 
L 67.376227 43.777882 
L 70.419864 43.859296 
L 70.724227 43.983947 
L 71.028591 44.277023 
L 71.941682 44.331882 
L 72.246045 44.625602 
L 72.550409 44.626991 
L 73.159136 45.139353 
L 73.767864 45.14956 
L 74.072227 45.324374 
L 74.376591 45.742328 
L 74.680955 45.742328 
L 75.289682 46.105375 
L 75.594045 46.128538 
L 75.898409 46.478323 
L 76.202773 46.551372 
L 77.115864 47.215704 
L 77.420227 47.376155 
L 77.724591 47.376155 
L 78.028955 47.75407 
L 78.333318 47.75407 
L 78.942045 48.714224 
L 79.246409 48.742539 
L 79.550773 49.42682 
L 80.768227 49.634315 
L 81.072591 49.634315 
L 81.376955 50.112079 
L 81.681318 50.238801 
L 83.5075 50.238801 
L 83.811864 50.53328 
L 84.420591 50.641556 
L 88.377318 50.697521 
L 88.681682 50.804721 
L 88.986045 51.376087 
L 90.2035 51.903302 
L 90.507864 51.928817 
L 90.812227 52.323319 
L 91.725318 52.601324 
L 94.768955 52.625015 
L 95.377682 52.734189 
L 98.421318 53.07943 
L 98.725682 53.415398 
L 99.030045 53.415398 
L 99.334409 53.553295 
L 101.160591 53.610766 
L 101.464955 53.746499 
L 102.378045 53.794699 
L 103.291136 54.176386 
L 103.5955 54.176386 
L 104.508591 54.465206 
L 105.117318 54.465206 
L 105.421682 54.690193 
L 106.9435 54.783118 
L 107.552227 54.958511 
L 107.856591 55.08821 
L 108.769682 55.149642 
L 109.682773 55.509361 
L 111.813318 55.934071 
L 114.248227 56.043384 
L 115.465682 56.367015 
L 115.770045 56.567573 
L 118.813682 56.948002 
L 122.161682 57.03093 
L 123.379136 57.203601 
L 127.0315 57.300853 
L 129.162045 57.497313 
L 130.3795 57.570525 
L 131.596955 57.777216 
L 132.814409 57.817441 
L 133.423136 57.89118 
L 134.640591 57.991925 
L 134.944955 58.187889 
L 137.379864 58.292058 
L 138.901682 58.432847 
L 139.206045 58.432847 
L 139.510409 58.57084 
L 145.293318 58.672329 
L 145.902045 58.767031 
L 152.598045 58.852007 
L 152.902409 59.103888 
L 153.8155 59.200491 
L 154.728591 59.282359 
L 156.250409 59.282359 
L 156.554773 59.590116 
L 157.772227 59.693676 
L 158.380955 59.794401 
L 162.337682 59.90366 
L 171.164227 60.06189 
L 171.772955 60.135028 
L 173.599136 60.135028 
L 173.9035 60.256043 
L 176.642773 60.34748 
L 176.947136 60.481417 
L 179.686409 60.590114 
L 180.903864 60.648736 
L 184.251864 60.704279 
L 184.860591 60.80528 
L 187.2955 61.022042 
L 189.121682 61.064123 
L 190.339136 61.259042 
L 191.860955 61.29294 
L 192.165318 61.454856 
L 200.383136 61.522142 
L 200.991864 61.628215 
L 201.600591 61.628215 
L 201.904955 61.750328 
L 204.339864 61.814219 
L 204.644227 61.94933 
L 207.3835 62.039971 
L 207.992227 62.10731 
L 215.296955 62.171384 
L 215.905682 62.236042 
L 223.210409 62.296357 
L 227.775864 62.356603 
L 228.384591 62.466859 
L 229.297682 62.533314 
L 229.602045 62.659778 
L 244.820227 62.733487 
L 245.428955 62.846133 
L 255.168591 62.947387 
L 256.386045 62.978211 
L 257.907864 62.978211 
L 258.212227 219.233717 
L 352.869318 219.233717 
L 352.869318 219.233717 
" clip-path="url(#p51a68716e6)" style="fill: none; stroke: #2ca02c; stroke-width: 1.5; stroke-linecap: square"/>
   </g>
   <g id="patch_3">
    <path d="M 33.2875 229.313717 
L 33.2875 7.553717 
" style="fill: none; stroke: #000000; stroke-width: 0.8; stroke-linejoin: miter; stroke-linecap: square"/>
   </g>
   <g id="patch_4">
    <path d="M 368.0875 229.313717 
L 368.0875 7.553717 
" style="fill: none; stroke: #000000; stroke-width: 0.8; stroke-linejoin: miter; stroke-linecap: square"/>
   </g>
   <g id="patch_5">
    <path d="M 33.2875 229.313717 
L 368.0875 229.313717 
" style="fill: none; stroke: #000000; stroke-width: 0.8; stroke-linejoin: miter; stroke-linecap: square"/>
   </g>
   <g id="patch_6">
    <path d="M 33.2875 7.553717 
L 368.0875 7.553717 
" style="fill: none; stroke: #000000; stroke-width: 0.8; stroke-linejoin: miter; stroke-linecap: square"/>
   </g>
   <g id="legend_1">
    <g id="patch_7">
     <path d="M 275.253125 59.588092 
L 361.0875 59.588092 
Q 363.0875 59.588092 363.0875 57.588092 
L 363.0875 14.553717 
Q 363.0875 12.553717 361.0875 12.553717 
L 275.253125 12.553717 
Q 273.253125 12.553717 273.253125 14.553717 
L 273.253125 57.588092 
Q 273.253125 59.588092 275.253125 59.588092 
z
" style="fill: #ffffff; opacity: 0.8; stroke: #cccccc; stroke-linejoin: miter"/>
    </g>
    <g id="line2d_16">
     <path d="M 277.253125 20.652155 
L 287.253125 20.652155 
L 297.253125 20.652155 
" style="fill: none; stroke: #1f77b4; stroke-width: 1.5; stroke-linecap: square"/>
    </g>
    <g id="text_13">
     <!-- PSO target -->
     <g transform="translate(305.253125 24.152155) scale(0.1 -0.1)">
      <defs>
       <path id="DejaVuSans-50" d="M 1259 4147 
L 1259 2394 
L 2053 2394 
Q 2494 2394 2734 2622 
Q 2975 2850 2975 3272 
Q 2975 3691 2734 3919 
Q 2494 4147 2053 4147 
L 1259 4147 
z
M 628 4666 
L 2053 4666 
Q 2838 4666 3239 4311 
Q 3641 3956 3641 3272 
Q 3641 2581 3239 2228 
Q 2838 1875 2053 1875 
L 1259 1875 
L 1259 0 
L 628 0 
L 628 4666 
z
" transform="scale(0.015625)"/>
       <path id="DejaVuSans-53" d="M 3425 4513 
L 3425 3897 
Q 3066 4069 2747 4153 
Q 2428 4238 2131 4238 
Q 1616 4238 1336 4038 
Q 1056 3838 1056 3469 
Q 1056 3159 1242 3001 
Q 1428 2844 1947 2747 
L 2328 2669 
Q 3034 2534 3370 2195 
Q 3706 1856 3706 1288 
Q 3706 609 3251 259 
Q 2797 -91 1919 -91 
Q 1588 -91 1214 -16 
Q 841 59 441 206 
L 441 856 
Q 825 641 1194 531 
Q 1563 422 1919 422 
Q 2459 422 2753 634 
Q 3047 847 3047 1241 
Q 3047 1584 2836 1778 
Q 2625 1972 2144 2069 
L 1759 2144 
Q 1053 2284 737 2584 
Q 422 2884 422 3419 
Q 422 4038 858 4394 
Q 1294 4750 2059 4750 
Q 2388 4750 2728 4690 
Q 3069 4631 3425 4513 
z
" transform="scale(0.015625)"/>
       <path id="DejaVuSans-4f" d="M 2522 4238 
Q 1834 4238 1429 3725 
Q 1025 3213 1025 2328 
Q 1025 1447 1429 934 
Q 1834 422 2522 422 
Q 3209 422 3611 934 
Q 4013 1447 4013 2328 
Q 4013 3213 3611 3725 
Q 3209 4238 2522 4238 
z
M 2522 4750 
Q 3503 4750 4090 4092 
Q 4678 3434 4678 2328 
Q 4678 1225 4090 567 
Q 3503 -91 2522 -91 
Q 1538 -91 948 565 
Q 359 1222 359 2328 
Q 359 3434 948 4092 
Q 1538 4750 2522 4750 
z
" transform="scale(0.015625)"/>
       <path id="DejaVuSans-20" transform="scale(0.015625)"/>
       <path id="DejaVuSans-74" d="M 1172 4494 
L 1172 3500 
L 2356 3500 
L 2356 3053 
L 1172 3053 
L 1172 1153 
Q 1172 725 1289 603 
Q 1406 481 1766 481 
L 2356 481 
L 2356 0 
L 1766 0 
Q 1100 0 847 248 
Q 594 497 594 1153 
L 594 3053 
L 172 3053 
L 172 3500 
L 594 3500 
L 594 4494 
L 1172 4494 
z
" transform="scale(0.015625)"/>
       <path id="DejaVuSans-61" d="M 2194 1759 
Q 1497 1759 1228 1600 
Q 959 1441 959 1056 
Q 959 750 1161 570 
Q 1363 391 1709 391 
Q 2188 391 2477 730 
Q 2766 1069 2766 1631 
L 2766 1759 
L 2194 1759 
z
M 3341 1997 
L 3341 0 
L 2766 0 
L 2766 531 
Q 2569 213 2275 61 
Q 1981 -91 1556 -91 
Q 1019 -91 701 211 
Q 384 513 384 1019 
Q 384 1609 779 1909 
Q 1175 2209 1959 2209 
L 2766 2209 
L 2766 2266 
Q 2766 2663 2505 2880 
Q 2244 3097 1772 3097 
Q 1472 3097 1187 3025 
Q 903 2953 641 2809 
L 641 3341 
Q 956 3463 1253 3523 
Q 1550 3584 1831 3584 
Q 2591 3584 2966 3190 
Q 3341 2797 3341 1997 
z
" transform="scale(0.015625)"/>
       <path id="DejaVuSans-72" d="M 2631 2963 
Q 2534 3019 2420 3045 
Q 2306 3072 2169 3072 
Q 1681 3072 1420 2755 
Q 1159 2438 1159 1844 
L 1159 0 
L 581 0 
L 581 3500 
L 1159 3500 
L 1159 2956 
Q 1341 3275 1631 3429 
Q 1922 3584 2338 3584 
Q 2397 3584 2469 3576 
Q 2541 3569 2628 3553 
L 2631 2963 
z
" transform="scale(0.015625)"/>
       <path id="DejaVuSans-67" d="M 2906 1791 
Q 2906 2416 2648 2759 
Q 2391 3103 1925 3103 
Q 1463 3103 1205 2759 
Q 947 2416 947 1791 
Q 947 1169 1205 825 
Q 1463 481 1925 481 
Q 2391 481 2648 825 
Q 2906 1169 2906 1791 
z
M 3481 434 
Q 3481 -459 3084 -895 
Q 2688 -1331 1869 -1331 
Q 1566 -1331 1297 -1286 
Q 1028 -1241 775 -1147 
L 775 -588 
Q 1028 -725 1275 -790 
Q 1522 -856 1778 -856 
Q 2344 -856 2625 -561 
Q 2906 -266 2906 331 
L 2906 616 
Q 2728 306 2450 153 
Q 2172 0 1784 0 
Q 1141 0 747 490 
Q 353 981 353 1791 
Q 353 2603 747 3093 
Q 1141 3584 1784 3584 
Q 2172 3584 2450 3431 
Q 2728 3278 2906 2969 
L 2906 3500 
L 3481 3500 
L 3481 434 
z
" transform="scale(0.015625)"/>
       <path id="DejaVuSans-65" d="M 3597 1894 
L 3597 1613 
L 953 1613 
Q 991 1019 1311 708 
Q 1631 397 2203 397 
Q 2534 397 2845 478 
Q 3156 559 3463 722 
L 3463 178 
Q 3153 47 2828 -22 
Q 2503 -91 2169 -91 
Q 1331 -91 842 396 
Q 353 884 353 1716 
Q 353 2575 817 3079 
Q 1281 3584 2069 3584 
Q 2775 3584 3186 3129 
Q 3597 2675 3597 1894 
z
M 3022 2063 
Q 3016 2534 2758 2815 
Q 2500 3097 2075 3097 
Q 1594 3097 1305 2825 
Q 1016 2553 972 2059 
L 3022 2063 
z
" transform="scale(0.015625)"/>
      </defs>
      <use xlink:href="#DejaVuSans-50"/>
      <use xlink:href="#DejaVuSans-53" x="60.302734"/>
      <use xlink:href="#DejaVuSans-4f" x="123.779297"/>
      <use xlink:href="#DejaVuSans-20" x="202.490234"/>
      <use xlink:href="#DejaVuSans-74" x="234.277344"/>
      <use xlink:href="#DejaVuSans-61" x="273.486328"/>
      <use xlink:href="#DejaVuSans-72" x="334.765625"/>
      <use xlink:href="#DejaVuSans-67" x="374.128906"/>
      <use xlink:href="#DejaVuSans-65" x="437.605469"/>
      <use xlink:href="#DejaVuSans-74" x="499.128906"/>
     </g>
    </g>
    <g id="line2d_17">
     <path d="M 277.253125 35.33028 
L 287.253125 35.33028 
L 297.253125 35.33028 
" style="fill: none; stroke: #ff7f0e; stroke-width: 1.5; stroke-linecap: square"/>
    </g>
    <g id="text_14">
     <!-- GA target -->
     <g transform="translate(305.253125 38.83028) scale(0.1 -0.1)">
      <defs>
       <path id="DejaVuSans-47" d="M 3809 666 
L 3809 1919 
L 2778 1919 
L 2778 2438 
L 4434 2438 
L 4434 434 
Q 4069 175 3628 42 
Q 3188 -91 2688 -91 
Q 1594 -91 976 548 
Q 359 1188 359 2328 
Q 359 3472 976 4111 
Q 1594 4750 2688 4750 
Q 3144 4750 3555 4637 
Q 3966 4525 4313 4306 
L 4313 3634 
Q 3963 3931 3569 4081 
Q 3175 4231 2741 4231 
Q 1884 4231 1454 3753 
Q 1025 3275 1025 2328 
Q 1025 1384 1454 906 
Q 1884 428 2741 428 
Q 3075 428 3337 486 
Q 3600 544 3809 666 
z
" transform="scale(0.015625)"/>
       <path id="DejaVuSans-41" d="M 2188 4044 
L 1331 1722 
L 3047 1722 
L 2188 4044 
z
M 1831 4666 
L 2547 4666 
L 4325 0 
L 3669 0 
L 3244 1197 
L 1141 1197 
L 716 0 
L 50 0 
L 1831 4666 
z
" transform="scale(0.015625)"/>
      </defs>
      <use xlink:href="#DejaVuSans-47"/>
      <use xlink:href="#DejaVuSans-41" x="77.490234"/>
      <use xlink:href="#DejaVuSans-20" x="145.898438"/>
      <use xlink:href="#DejaVuSans-74" x="177.685547"/>
      <use xlink:href="#DejaVuSans-61" x="216.894531"/>
      <use xlink:href="#DejaVuSans-72" x="278.173828"/>
      <use xlink:href="#DejaVuSans-67" x="317.537109"/>
      <use xlink:href="#DejaVuSans-65" x="381.013672"/>
      <use xlink:href="#DejaVuSans-74" x="442.537109"/>
     </g>
    </g>
    <g id="line2d_18">
     <path d="M 277.253125 50.008405 
L 287.253125 50.008405 
L 297.253125 50.008405 
" style="fill: none; stroke: #2ca02c; stroke-width: 1.5; stroke-linecap: square"/>
    </g>
    <g id="text_15">
     <!-- CA target -->
     <g transform="translate(305.253125 53.508405) scale(0.1 -0.1)">
      <defs>
       <path id="DejaVuSans-43" d="M 4122 4306 
L 4122 3641 
Q 3803 3938 3442 4084 
Q 3081 4231 2675 4231 
Q 1875 4231 1450 3742 
Q 1025 3253 1025 2328 
Q 1025 1406 1450 917 
Q 1875 428 2675 428 
Q 3081 428 3442 575 
Q 3803 722 4122 1019 
L 4122 359 
Q 3791 134 3420 21 
Q 3050 -91 2638 -91 
Q 1578 -91 968 557 
Q 359 1206 359 2328 
Q 359 3453 968 4101 
Q 1578 4750 2638 4750 
Q 3056 4750 3426 4639 
Q 3797 4528 4122 4306 
z
" transform="scale(0.015625)"/>
      </defs>
      <use xlink:href="#DejaVuSans-43"/>
      <use xlink:href="#DejaVuSans-41" x="69.824219"/>
      <use xlink:href="#DejaVuSans-20" x="138.232422"/>
      <use xlink:href="#DejaVuSans-74" x="170.019531"/>
      <use xlink:href="#DejaVuSans-61" x="209.228516"/>
      <use xlink:href="#DejaVuSans-72" x="270.507812"/>
      <use xlink:href="#DejaVuSans-67" x="309.871094"/>
      <use xlink:href="#DejaVuSans-65" x="373.347656"/>
      <use xlink:href="#DejaVuSans-74" x="434.871094"/>
     </g>
    </g>
   </g>
  </g>
 </g>
 <defs>
  <clipPath id="p51a68716e6">
   <rect x="33.2875" y="7.553717" width="334.8" height="221.76"/>
  </clipPath>
 </defs>
</svg>
